<svg width="557" height="509" viewBox="0 0 557 509" fill="none" xmlns="http://www.w3.org/2000/svg">
<rect x="0.802734" width="555.803" height="508.998" rx="20" fill="#FEF8F4"/>
<rect x="132.105" y="113.466" width="66" height="37.9321" rx="2.98868" fill="#F8F1EE"/>
<path d="M142.235 138.432V126.978H149.573V128.717H144.31V131.827H149.07V133.566H144.31V138.432H142.235ZM154.491 138.6C153.652 138.6 152.925 138.415 152.31 138.046C151.694 137.677 151.217 137.161 150.878 136.497C150.542 135.833 150.375 135.058 150.375 134.17C150.375 133.283 150.542 132.505 150.878 131.838C151.217 131.17 151.694 130.652 152.31 130.283C152.925 129.914 153.652 129.729 154.491 129.729C155.33 129.729 156.057 129.914 156.672 130.283C157.288 130.652 157.763 131.17 158.099 131.838C158.438 132.505 158.607 133.283 158.607 134.17C158.607 135.058 158.438 135.833 158.099 136.497C157.763 137.161 157.288 137.677 156.672 138.046C156.057 138.415 155.33 138.6 154.491 138.6ZM154.502 136.978C154.957 136.978 155.337 136.853 155.643 136.603C155.949 136.35 156.176 136.01 156.326 135.585C156.478 135.16 156.555 134.687 156.555 134.165C156.555 133.639 156.478 133.163 156.326 132.738C156.176 132.31 155.949 131.968 155.643 131.715C155.337 131.461 154.957 131.335 154.502 131.335C154.036 131.335 153.648 131.461 153.339 131.715C153.033 131.968 152.804 132.31 152.651 132.738C152.502 133.163 152.427 133.639 152.427 134.165C152.427 134.687 152.502 135.16 152.651 135.585C152.804 136.01 153.033 136.35 153.339 136.603C153.648 136.853 154.036 136.978 154.502 136.978ZM162.351 126.978V138.432H160.326V126.978H162.351ZM167.621 138.583C166.946 138.583 166.342 138.41 165.809 138.063C165.275 137.716 164.854 137.213 164.545 136.553C164.235 135.893 164.08 135.091 164.08 134.148C164.08 133.193 164.237 132.388 164.55 131.732C164.867 131.072 165.294 130.574 165.831 130.238C166.368 129.899 166.966 129.729 167.626 129.729C168.13 129.729 168.544 129.815 168.868 129.987C169.192 130.154 169.45 130.358 169.64 130.596C169.83 130.831 169.977 131.053 170.082 131.262H170.166V126.978H172.196V138.432H170.205V137.079H170.082C169.977 137.287 169.826 137.509 169.629 137.744C169.431 137.975 169.17 138.173 168.846 138.337C168.521 138.501 168.113 138.583 167.621 138.583ZM168.186 136.922C168.614 136.922 168.98 136.806 169.282 136.575C169.584 136.34 169.813 136.014 169.97 135.596C170.126 135.179 170.205 134.692 170.205 134.137C170.205 133.581 170.126 133.098 169.97 132.688C169.817 132.278 169.589 131.959 169.287 131.732C168.989 131.504 168.622 131.39 168.186 131.39C167.734 131.39 167.358 131.508 167.056 131.743C166.754 131.978 166.526 132.302 166.373 132.716C166.221 133.13 166.144 133.603 166.144 134.137C166.144 134.674 166.221 135.153 166.373 135.574C166.53 135.992 166.759 136.322 167.061 136.564C167.367 136.803 167.742 136.922 168.186 136.922ZM178.157 138.6C177.295 138.6 176.551 138.421 175.925 138.063C175.302 137.701 174.823 137.19 174.488 136.53C174.152 135.867 173.984 135.086 173.984 134.187C173.984 133.303 174.152 132.528 174.488 131.86C174.827 131.189 175.3 130.667 175.908 130.294C176.516 129.918 177.23 129.729 178.05 129.729C178.58 129.729 179.079 129.815 179.549 129.987C180.023 130.154 180.44 130.415 180.802 130.77C181.167 131.124 181.455 131.575 181.663 132.123C181.872 132.668 181.977 133.316 181.977 134.07V134.69H174.935V133.326H180.036C180.032 132.938 179.948 132.593 179.784 132.291C179.62 131.985 179.391 131.745 179.096 131.569C178.805 131.394 178.466 131.307 178.078 131.307C177.664 131.307 177.301 131.407 176.988 131.609C176.674 131.806 176.43 132.067 176.255 132.392C176.083 132.712 175.996 133.065 175.992 133.449V134.64C175.992 135.14 176.083 135.568 176.266 135.926C176.449 136.281 176.704 136.553 177.032 136.743C177.36 136.929 177.745 137.023 178.185 137.023C178.479 137.023 178.746 136.982 178.984 136.9C179.223 136.814 179.43 136.689 179.605 136.525C179.78 136.361 179.913 136.158 180.002 135.915L181.893 136.128C181.773 136.627 181.546 137.064 181.21 137.437C180.879 137.806 180.453 138.093 179.935 138.298C179.417 138.499 178.824 138.6 178.157 138.6ZM183.689 138.432V129.841H185.653V131.273H185.742C185.899 130.777 186.167 130.395 186.548 130.126C186.932 129.854 187.37 129.718 187.862 129.718C187.974 129.718 188.099 129.724 188.237 129.735C188.378 129.742 188.496 129.755 188.589 129.774V131.637C188.503 131.607 188.367 131.581 188.181 131.558C187.998 131.532 187.821 131.519 187.649 131.519C187.28 131.519 186.948 131.599 186.654 131.76C186.363 131.916 186.134 132.134 185.966 132.414C185.798 132.694 185.714 133.016 185.714 133.382V138.432H183.689Z" fill="#43302B"/>
<rect x="132.853" y="114.213" width="64.5057" height="36.4377" rx="2.24151" stroke="url(#paint0_linear_20369_2041)" stroke-opacity="0.4" stroke-width="1.49434"/>
<path d="M198.105 132.432H235.605" stroke="#B7D9F8" stroke-width="2"/>
<rect width="87" height="20" transform="translate(235.605 122.432)" fill="#B7D9F8"/>
<path d="M243.547 128.985V136.432H242.424V128.985H243.547ZM249.745 130.941C249.707 130.597 249.547 130.33 249.265 130.141C248.984 129.95 248.63 129.854 248.204 129.854C247.898 129.854 247.634 129.902 247.411 129.999C247.188 130.094 247.015 130.225 246.891 130.392C246.77 130.557 246.709 130.745 246.709 130.956C246.709 131.133 246.75 131.285 246.833 131.414C246.918 131.542 247.028 131.65 247.164 131.738C247.302 131.822 247.45 131.894 247.607 131.952C247.765 132.008 247.916 132.054 248.062 132.09L248.789 132.279C249.027 132.338 249.27 132.416 249.52 132.516C249.77 132.615 250.001 132.746 250.215 132.908C250.428 133.071 250.6 133.272 250.731 133.512C250.864 133.752 250.931 134.039 250.931 134.374C250.931 134.796 250.822 135.17 250.604 135.498C250.388 135.825 250.074 136.083 249.662 136.272C249.252 136.461 248.756 136.556 248.175 136.556C247.617 136.556 247.135 136.467 246.727 136.29C246.32 136.113 246.001 135.862 245.771 135.538C245.541 135.21 245.413 134.822 245.389 134.374H246.516C246.538 134.643 246.625 134.867 246.778 135.047C246.933 135.224 247.131 135.356 247.371 135.443C247.613 135.528 247.879 135.57 248.167 135.57C248.485 135.57 248.767 135.521 249.015 135.421C249.264 135.319 249.461 135.179 249.604 134.999C249.747 134.818 249.818 134.605 249.818 134.363C249.818 134.142 249.755 133.962 249.629 133.821C249.505 133.681 249.337 133.564 249.124 133.472C248.913 133.38 248.674 133.299 248.407 133.228L247.527 132.988C246.931 132.826 246.458 132.587 246.109 132.272C245.762 131.957 245.589 131.54 245.589 131.021C245.589 130.592 245.705 130.218 245.938 129.898C246.171 129.578 246.486 129.329 246.884 129.152C247.281 128.973 247.73 128.883 248.229 128.883C248.733 128.883 249.178 128.972 249.564 129.148C249.952 129.325 250.257 129.569 250.48 129.879C250.703 130.187 250.819 130.541 250.829 130.941H249.745ZM255.984 136.432V128.985H258.638C259.218 128.985 259.698 129.09 260.078 129.301C260.459 129.512 260.744 129.801 260.933 130.167C261.122 130.53 261.216 130.94 261.216 131.396C261.216 131.854 261.121 132.266 260.929 132.632C260.74 132.996 260.454 133.284 260.071 133.498C259.69 133.708 259.212 133.814 258.635 133.814H256.809V132.861H258.533C258.899 132.861 259.196 132.798 259.424 132.672C259.652 132.544 259.819 132.369 259.925 132.148C260.032 131.928 260.085 131.677 260.085 131.396C260.085 131.115 260.032 130.865 259.925 130.647C259.819 130.428 259.65 130.258 259.42 130.134C259.192 130.01 258.892 129.948 258.518 129.948H257.107V136.432H255.984ZM262.873 136.432H261.68L264.36 128.985H265.658L268.338 136.432H267.145L265.04 130.338H264.982L262.873 136.432ZM263.073 133.516H266.942V134.461H263.073V133.516ZM269.914 136.432V128.985H272.568C273.145 128.985 273.624 129.084 274.005 129.283C274.388 129.482 274.674 129.757 274.863 130.108C275.052 130.458 275.146 130.861 275.146 131.319C275.146 131.775 275.051 132.176 274.859 132.523C274.67 132.867 274.384 133.135 274.001 133.327C273.62 133.518 273.142 133.614 272.565 133.614H270.554V132.647H272.463C272.826 132.647 273.122 132.595 273.35 132.49C273.58 132.386 273.749 132.235 273.855 132.036C273.962 131.837 274.015 131.598 274.015 131.319C274.015 131.038 273.961 130.795 273.852 130.588C273.745 130.382 273.577 130.225 273.346 130.116C273.118 130.004 272.819 129.948 272.448 129.948H271.037V136.432H269.914ZM273.59 133.072L275.43 136.432H274.15L272.346 133.072H273.59ZM277.014 136.432V128.985H281.683V129.952H278.137V132.221H281.439V133.185H278.137V135.465H281.726V136.432H277.014ZM289.695 128.985V136.432H288.662L284.876 130.97H284.807V136.432H283.684V128.985H284.724L288.513 134.454H288.582V128.985H289.695ZM291.466 129.952V128.985H297.23V129.952H294.906V136.432H293.786V129.952H291.466ZM308.683 132.708C308.683 133.504 308.537 134.187 308.246 134.759C307.955 135.329 307.557 135.768 307.05 136.076C306.546 136.381 305.972 136.534 305.33 136.534C304.685 136.534 304.109 136.381 303.603 136.076C303.098 135.768 302.701 135.328 302.41 134.756C302.119 134.184 301.974 133.501 301.974 132.708C301.974 131.913 302.119 131.231 302.41 130.661C302.701 130.089 303.098 129.65 303.603 129.345C304.109 129.037 304.685 128.883 305.33 128.883C305.972 128.883 306.546 129.037 307.05 129.345C307.557 129.65 307.955 130.089 308.246 130.661C308.537 131.231 308.683 131.913 308.683 132.708ZM307.57 132.708C307.57 132.102 307.472 131.592 307.275 131.178C307.082 130.761 306.815 130.445 306.475 130.232C306.138 130.016 305.757 129.908 305.33 129.908C304.901 129.908 304.518 130.016 304.181 130.232C303.844 130.445 303.577 130.761 303.381 131.178C303.187 131.592 303.09 132.102 303.09 132.708C303.09 133.315 303.187 133.826 303.381 134.243C303.577 134.658 303.844 134.973 304.181 135.188C304.518 135.402 304.901 135.508 305.33 135.508C305.757 135.508 306.138 135.402 306.475 135.188C306.815 134.973 307.082 134.658 307.275 134.243C307.472 133.826 307.57 133.315 307.57 132.708ZM310.584 136.432V128.985H315.202V129.952H311.707V132.221H314.871V133.185H311.707V136.432H310.584Z" fill="#0F3058"/>
<path d="M322.605 132.432H360.105" stroke="#B7D9F8" stroke-width="2"/>
<rect x="360.105" y="113.466" width="66" height="37.9321" rx="2.98868" fill="#F8F1EE"/>
<path d="M380.735 138.432V126.978H388.073V128.717H382.81V131.827H387.57V133.566H382.81V138.432H380.735ZM389.874 138.432V129.841H391.899V138.432H389.874ZM390.892 128.622C390.572 128.622 390.296 128.516 390.064 128.303C389.833 128.087 389.718 127.828 389.718 127.526C389.718 127.22 389.833 126.961 390.064 126.748C390.296 126.532 390.572 126.424 390.892 126.424C391.217 126.424 391.493 126.532 391.72 126.748C391.951 126.961 392.067 127.22 392.067 127.526C392.067 127.828 391.951 128.087 391.72 128.303C391.493 128.516 391.217 128.622 390.892 128.622ZM396.006 126.978V138.432H393.981V126.978H396.006ZM401.891 138.6C401.03 138.6 400.286 138.421 399.659 138.063C399.037 137.701 398.557 137.19 398.222 136.53C397.886 135.867 397.719 135.086 397.719 134.187C397.719 133.303 397.886 132.528 398.222 131.86C398.561 131.189 399.035 130.667 399.643 130.294C400.25 129.918 400.964 129.729 401.785 129.729C402.314 129.729 402.814 129.815 403.284 129.987C403.757 130.154 404.175 130.415 404.536 130.77C404.902 131.124 405.189 131.575 405.398 132.123C405.607 132.668 405.711 133.316 405.711 134.07V134.69H398.669V133.326H403.77C403.766 132.938 403.683 132.593 403.519 132.291C403.354 131.985 403.125 131.745 402.831 131.569C402.54 131.394 402.2 131.307 401.813 131.307C401.399 131.307 401.035 131.407 400.722 131.609C400.409 131.806 400.165 132.067 399.989 132.392C399.818 132.712 399.73 133.065 399.726 133.449V134.64C399.726 135.14 399.818 135.568 400 135.926C400.183 136.281 400.439 136.553 400.767 136.743C401.095 136.929 401.479 137.023 401.919 137.023C402.213 137.023 402.48 136.982 402.719 136.9C402.957 136.814 403.164 136.689 403.34 136.525C403.515 136.361 403.647 136.158 403.737 135.915L405.627 136.128C405.508 136.627 405.28 137.064 404.945 137.437C404.613 137.806 404.188 138.093 403.67 138.298C403.151 138.499 402.558 138.6 401.891 138.6Z" fill="#43302B"/>
<rect x="360.853" y="114.213" width="64.5057" height="36.4377" rx="2.24151" stroke="url(#paint1_linear_20369_2041)" stroke-opacity="0.4" stroke-width="1.49434"/>
<line x1="0.802734" y1="256" x2="556.605" y2="256" stroke="#FFF1E7" stroke-width="2" stroke-linejoin="round"/>
<path d="M56.3227 286V275.818H59.952C60.7408 275.818 61.3954 275.954 61.9157 276.226C62.4394 276.498 62.8305 276.874 63.089 277.354C63.3476 277.832 63.4768 278.384 63.4768 279.01C63.4768 279.633 63.3459 280.182 63.0841 280.656C62.8256 281.126 62.4345 281.492 61.9108 281.754C61.3904 282.016 60.7358 282.147 59.947 282.147H57.1977V280.825H59.8078C60.305 280.825 60.7093 280.753 61.0209 280.611C61.3357 280.468 61.5661 280.261 61.7119 279.989C61.8577 279.718 61.9307 279.391 61.9307 279.01C61.9307 278.625 61.8561 278.292 61.7069 278.011C61.5611 277.729 61.3308 277.513 61.0159 277.364C60.7043 277.212 60.295 277.136 59.7879 277.136H57.8589V286H56.3227ZM61.349 281.406L63.8646 286H62.1146L59.6487 281.406H61.349ZM68.4223 286.154C67.67 286.154 67.022 285.993 66.4784 285.672C65.9382 285.347 65.5206 284.891 65.2256 284.305C64.9339 283.715 64.7881 283.024 64.7881 282.232C64.7881 281.449 64.9339 280.76 65.2256 280.163C65.5206 279.567 65.9316 279.101 66.4585 278.766C66.9888 278.432 67.6086 278.264 68.3179 278.264C68.7488 278.264 69.1664 278.335 69.5708 278.478C69.9751 278.621 70.338 278.844 70.6595 279.149C70.981 279.454 71.2346 279.85 71.4202 280.337C71.6058 280.821 71.6986 281.41 71.6986 282.102V282.629H65.6283V281.516H70.2419C70.2419 281.125 70.1624 280.778 70.0033 280.477C69.8442 280.172 69.6205 279.931 69.3321 279.756C69.0471 279.58 68.7123 279.492 68.3279 279.492C67.9102 279.492 67.5457 279.595 67.2341 279.8C66.9259 280.003 66.6872 280.268 66.5182 280.596C66.3525 280.921 66.2696 281.274 66.2696 281.655V282.525C66.2696 283.035 66.3591 283.469 66.5381 283.827C66.7204 284.185 66.9739 284.459 67.2987 284.648C67.6236 284.833 68.003 284.926 68.4372 284.926C68.719 284.926 68.9758 284.886 69.2078 284.807C69.4398 284.724 69.6404 284.601 69.8094 284.439C69.9784 284.277 70.1077 284.076 70.1972 283.837L71.6041 284.091C71.4914 284.505 71.2893 284.868 70.9976 285.18C70.7093 285.488 70.3463 285.728 69.9088 285.901C69.4746 286.07 68.9791 286.154 68.4223 286.154ZM74.8344 275.818V286H73.3479V275.818H74.8344ZM79.0566 286.169C78.5727 286.169 78.1352 286.08 77.7441 285.901C77.353 285.718 77.0431 285.455 76.8144 285.11C76.589 284.765 76.4763 284.343 76.4763 283.842C76.4763 283.411 76.5592 283.057 76.7249 282.778C76.8906 282.5 77.1143 282.28 77.396 282.117C77.6778 281.955 77.9926 281.832 78.3406 281.749C78.6887 281.666 79.0433 281.603 79.4046 281.56C79.8619 281.507 80.2332 281.464 80.5182 281.431C80.8032 281.395 81.0104 281.337 81.1396 281.257C81.2689 281.178 81.3335 281.048 81.3335 280.869V280.835C81.3335 280.4 81.2109 280.064 80.9656 279.825C80.7237 279.587 80.3624 279.467 79.8818 279.467C79.3814 279.467 78.9869 279.578 78.6986 279.8C78.4136 280.019 78.2164 280.263 78.107 280.531L76.71 280.213C76.8757 279.749 77.1176 279.375 77.4358 279.089C77.7573 278.801 78.1269 278.592 78.5445 278.463C78.9621 278.33 79.4012 278.264 79.8619 278.264C80.1669 278.264 80.49 278.301 80.8314 278.374C81.1761 278.443 81.4976 278.572 81.7959 278.761C82.0975 278.95 82.3444 279.22 82.5367 279.572C82.7289 279.92 82.825 280.372 82.825 280.929V286H81.3733V284.956H81.3137C81.2175 285.148 81.0734 285.337 80.8811 285.523C80.6889 285.708 80.442 285.862 80.1404 285.985C79.8387 286.108 79.4775 286.169 79.0566 286.169ZM79.3797 284.976C79.7907 284.976 80.142 284.895 80.4337 284.732C80.7287 284.57 80.9524 284.358 81.1048 284.096C81.2606 283.831 81.3385 283.547 81.3385 283.246V282.261C81.2855 282.314 81.1827 282.364 81.0303 282.411C80.8811 282.454 80.7104 282.492 80.5182 282.525C80.326 282.555 80.1387 282.583 79.9564 282.609C79.7741 282.633 79.6217 282.652 79.499 282.669C79.2107 282.705 78.9472 282.767 78.7085 282.853C78.4732 282.939 78.2843 283.063 78.1418 283.226C78.0026 283.385 77.933 283.597 77.933 283.862C77.933 284.23 78.0689 284.509 78.3406 284.697C78.6124 284.883 78.9588 284.976 79.3797 284.976ZM88.3696 278.364V279.557H84.1984V278.364H88.3696ZM85.317 276.534H86.8035V283.758C86.8035 284.046 86.8466 284.263 86.9328 284.409C87.019 284.552 87.13 284.649 87.2659 284.702C87.4051 284.752 87.5559 284.777 87.7183 284.777C87.8376 284.777 87.942 284.769 88.0315 284.752C88.121 284.736 88.1906 284.722 88.2403 284.712L88.5088 285.94C88.4226 285.973 88.3 286.007 88.1409 286.04C87.9818 286.076 87.7829 286.096 87.5443 286.099C87.1532 286.106 86.7886 286.036 86.4506 285.891C86.1125 285.745 85.839 285.519 85.6302 285.214C85.4214 284.91 85.317 284.527 85.317 284.066V276.534ZM90.0139 286V278.364H91.5004V286H90.0139ZM90.7646 277.185C90.5061 277.185 90.2841 277.099 90.0985 276.927C89.9162 276.751 89.825 276.542 89.825 276.3C89.825 276.055 89.9162 275.846 90.0985 275.674C90.2841 275.498 90.5061 275.411 90.7646 275.411C91.0232 275.411 91.2436 275.498 91.4259 275.674C91.6115 275.846 91.7043 276.055 91.7043 276.3C91.7043 276.542 91.6115 276.751 91.4259 276.927C91.2436 277.099 91.0232 277.185 90.7646 277.185ZM96.7169 286.154C96.001 286.154 95.3762 285.99 94.8426 285.662C94.309 285.334 93.8947 284.875 93.5997 284.285C93.3047 283.695 93.1572 283.005 93.1572 282.217C93.1572 281.424 93.3047 280.732 93.5997 280.138C93.8947 279.545 94.309 279.085 94.8426 278.756C95.3762 278.428 96.001 278.264 96.7169 278.264C97.4328 278.264 98.0576 278.428 98.5912 278.756C99.1248 279.085 99.5391 279.545 99.8341 280.138C100.129 280.732 100.277 281.424 100.277 282.217C100.277 283.005 100.129 283.695 99.8341 284.285C99.5391 284.875 99.1248 285.334 98.5912 285.662C98.0576 285.99 97.4328 286.154 96.7169 286.154ZM96.7219 284.906C97.1859 284.906 97.5703 284.784 97.8753 284.538C98.1802 284.293 98.4056 283.967 98.5514 283.559C98.7006 283.151 98.7751 282.702 98.7751 282.212C98.7751 281.724 98.7006 281.277 98.5514 280.869C98.4056 280.458 98.1802 280.129 97.8753 279.88C97.5703 279.631 97.1859 279.507 96.7219 279.507C96.2545 279.507 95.8667 279.631 95.5585 279.88C95.2536 280.129 95.0265 280.458 94.8774 280.869C94.7316 281.277 94.6586 281.724 94.6586 282.212C94.6586 282.702 94.7316 283.151 94.8774 283.559C95.0265 283.967 95.2536 284.293 95.5585 284.538C95.8667 284.784 96.2545 284.906 96.7219 284.906ZM103.422 281.466V286H101.936V278.364H103.363V279.607H103.457C103.633 279.202 103.908 278.877 104.282 278.632C104.66 278.387 105.136 278.264 105.709 278.264C106.23 278.264 106.685 278.374 107.076 278.592C107.468 278.808 107.771 279.129 107.986 279.557C108.202 279.984 108.309 280.513 108.309 281.143V286H106.823V281.322C106.823 280.768 106.679 280.336 106.39 280.024C106.102 279.709 105.706 279.552 105.202 279.552C104.857 279.552 104.551 279.626 104.282 279.776C104.017 279.925 103.807 280.143 103.651 280.432C103.499 280.717 103.422 281.062 103.422 281.466ZM116.025 280.228L114.678 280.467C114.622 280.294 114.532 280.13 114.41 279.974C114.29 279.819 114.128 279.691 113.922 279.592C113.717 279.492 113.46 279.442 113.152 279.442C112.731 279.442 112.379 279.537 112.098 279.726C111.816 279.911 111.675 280.152 111.675 280.447C111.675 280.702 111.77 280.907 111.959 281.063C112.147 281.219 112.452 281.347 112.873 281.446L114.086 281.724C114.789 281.887 115.313 282.137 115.657 282.475C116.002 282.813 116.174 283.252 116.174 283.793C116.174 284.25 116.042 284.658 115.777 285.016C115.515 285.37 115.149 285.649 114.678 285.851C114.211 286.053 113.669 286.154 113.052 286.154C112.197 286.154 111.499 285.972 110.959 285.607C110.419 285.239 110.088 284.717 109.965 284.041L111.402 283.822C111.491 284.197 111.675 284.48 111.954 284.673C112.232 284.862 112.595 284.956 113.042 284.956C113.53 284.956 113.919 284.855 114.211 284.653C114.502 284.447 114.648 284.197 114.648 283.902C114.648 283.663 114.559 283.463 114.38 283.3C114.204 283.138 113.934 283.015 113.569 282.933L112.277 282.649C111.564 282.487 111.037 282.228 110.696 281.874C110.358 281.519 110.189 281.07 110.189 280.526C110.189 280.076 110.315 279.681 110.566 279.343C110.818 279.005 111.166 278.741 111.611 278.553C112.055 278.36 112.563 278.264 113.137 278.264C113.962 278.264 114.612 278.443 115.086 278.801C115.56 279.156 115.873 279.631 116.025 280.228Z" fill="#43302B"/>
<rect x="55.2041" y="297" width="447" height="48" rx="8" fill="#F3E7FC"/>
<path d="M63.2041 301.5H183.704V340.5H63.2041C61.2711 340.5 59.7041 338.933 59.7041 337V305C59.7041 303.067 61.2711 301.5 63.2041 301.5Z" fill="#FDF8F6"/>
<path d="M68.4371 326V315.818H74.5422V316.912H69.67V320.352H74.0848V321.446H69.67V326H68.4371ZM79.0365 326.159C78.3471 326.159 77.7422 325.995 77.2219 325.667C76.7048 325.339 76.3005 324.88 76.0088 324.29C75.7204 323.7 75.5763 323.01 75.5763 322.222C75.5763 321.426 75.7204 320.732 76.0088 320.138C76.3005 319.545 76.7048 319.085 77.2219 318.756C77.7422 318.428 78.3471 318.264 79.0365 318.264C79.7259 318.264 80.3291 318.428 80.8461 318.756C81.3665 319.085 81.7709 319.545 82.0592 320.138C82.3509 320.732 82.4967 321.426 82.4967 322.222C82.4967 323.01 82.3509 323.7 82.0592 324.29C81.7709 324.88 81.3665 325.339 80.8461 325.667C80.3291 325.995 79.7259 326.159 79.0365 326.159ZM79.0365 325.105C79.5602 325.105 79.991 324.971 80.3291 324.702C80.6672 324.434 80.9174 324.081 81.0798 323.643C81.2422 323.206 81.3234 322.732 81.3234 322.222C81.3234 321.711 81.2422 321.236 81.0798 320.795C80.9174 320.354 80.6672 319.998 80.3291 319.726C79.991 319.454 79.5602 319.318 79.0365 319.318C78.5128 319.318 78.0819 319.454 77.7439 319.726C77.4058 319.998 77.1556 320.354 76.9932 320.795C76.8308 321.236 76.7496 321.711 76.7496 322.222C76.7496 322.732 76.8308 323.206 76.9932 323.643C77.1556 324.081 77.4058 324.434 77.7439 324.702C78.0819 324.971 78.5128 325.105 79.0365 325.105ZM85.461 315.818V326H84.2877V315.818H85.461ZM90.4935 326.159C89.8572 326.159 89.2954 325.998 88.8081 325.677C88.3209 325.352 87.9398 324.895 87.6647 324.305C87.3896 323.711 87.252 323.01 87.252 322.202C87.252 321.4 87.3896 320.704 87.6647 320.114C87.9398 319.524 88.3226 319.068 88.8131 318.746C89.3037 318.425 89.8704 318.264 90.5134 318.264C91.0106 318.264 91.4033 318.347 91.6917 318.513C91.9833 318.675 92.2054 318.861 92.3579 319.07C92.5136 319.275 92.6346 319.444 92.7208 319.577H92.8202V315.818H93.9935V326H92.86V324.827H92.7208C92.6346 324.966 92.512 325.142 92.3529 325.354C92.1938 325.562 91.9668 325.75 91.6718 325.915C91.3768 326.078 90.984 326.159 90.4935 326.159ZM90.6526 325.105C91.1233 325.105 91.521 324.982 91.8458 324.737C92.1706 324.489 92.4175 324.146 92.5866 323.708C92.7556 323.267 92.8401 322.759 92.8401 322.182C92.8401 321.612 92.7573 321.113 92.5915 320.685C92.4258 320.254 92.1805 319.92 91.8557 319.681C91.5309 319.439 91.1299 319.318 90.6526 319.318C90.1555 319.318 89.7412 319.446 89.4097 319.701C89.0816 319.953 88.8347 320.296 88.6689 320.73C88.5065 321.161 88.4253 321.645 88.4253 322.182C88.4253 322.725 88.5082 323.219 88.6739 323.663C88.843 324.104 89.0915 324.455 89.4197 324.717C89.7511 324.976 90.1621 325.105 90.6526 325.105ZM99.507 326.159C98.7712 326.159 98.1365 325.997 97.6029 325.672C97.0726 325.344 96.6633 324.886 96.3749 324.3C96.0899 323.71 95.9474 323.024 95.9474 322.241C95.9474 321.459 96.0899 320.77 96.3749 320.173C96.6633 319.573 97.0643 319.106 97.578 318.771C98.0951 318.433 98.6983 318.264 99.3877 318.264C99.7854 318.264 100.178 318.33 100.566 318.463C100.954 318.596 101.307 318.811 101.625 319.109C101.943 319.404 102.197 319.795 102.386 320.283C102.574 320.77 102.669 321.37 102.669 322.082V322.58H96.7826V321.565H101.476C101.476 321.134 101.39 320.75 101.217 320.412C101.048 320.074 100.806 319.807 100.491 319.612C100.18 319.416 99.8119 319.318 99.3877 319.318C98.9204 319.318 98.516 319.434 98.1746 319.666C97.8366 319.895 97.5764 320.193 97.3941 320.561C97.2118 320.929 97.1206 321.323 97.1206 321.744V322.42C97.1206 322.997 97.2201 323.486 97.4189 323.887C97.6211 324.285 97.9012 324.588 98.2591 324.797C98.6171 325.002 99.0331 325.105 99.507 325.105C99.8153 325.105 100.094 325.062 100.342 324.976C100.594 324.886 100.811 324.754 100.994 324.578C101.176 324.399 101.317 324.177 101.416 323.912L102.55 324.23C102.43 324.615 102.23 324.953 101.948 325.244C101.666 325.533 101.318 325.758 100.904 325.92C100.49 326.08 100.024 326.159 99.507 326.159ZM104.454 326V318.364H105.587V319.517H105.667C105.806 319.139 106.058 318.833 106.422 318.597C106.787 318.362 107.198 318.244 107.655 318.244C107.742 318.244 107.849 318.246 107.979 318.249C108.108 318.253 108.206 318.258 108.272 318.264V319.457C108.232 319.447 108.141 319.433 107.998 319.413C107.859 319.389 107.712 319.378 107.556 319.378C107.185 319.378 106.853 319.456 106.562 319.612C106.273 319.764 106.045 319.976 105.876 320.248C105.71 320.516 105.627 320.823 105.627 321.168V326H104.454Z" fill="#977669"/>
<path d="M63.2041 301.5H183.704V340.5H63.2041C61.2711 340.5 59.7041 338.933 59.7041 337V305C59.7041 303.067 61.2711 301.5 63.2041 301.5Z" stroke="#D1B9B0"/>
<mask id="path-16-inside-1_20369_2041" fill="white">
<path d="M184.204 301H309.204V341H184.204V301Z"/>
</mask>
<path d="M184.204 301H309.204V341H184.204V301Z" fill="#FDFCFC"/>
<path d="M193.278 326V318.364H194.451V326H193.278ZM193.875 317.091C193.646 317.091 193.449 317.013 193.283 316.857C193.121 316.701 193.039 316.514 193.039 316.295C193.039 316.077 193.121 315.889 193.283 315.734C193.449 315.578 193.646 315.5 193.875 315.5C194.103 315.5 194.299 315.578 194.461 315.734C194.627 315.889 194.71 316.077 194.71 316.295C194.71 316.514 194.627 316.701 194.461 316.857C194.299 317.013 194.103 317.091 193.875 317.091ZM202.009 320.074L200.955 320.372C200.889 320.196 200.791 320.026 200.662 319.86C200.536 319.691 200.364 319.552 200.145 319.442C199.926 319.333 199.646 319.278 199.305 319.278C198.837 319.278 198.448 319.386 198.136 319.602C197.828 319.814 197.674 320.084 197.674 320.412C197.674 320.704 197.78 320.934 197.992 321.103C198.204 321.272 198.536 321.413 198.987 321.526L200.12 321.804C200.803 321.97 201.312 322.223 201.646 322.565C201.981 322.903 202.149 323.339 202.149 323.872C202.149 324.31 202.023 324.701 201.771 325.045C201.522 325.39 201.174 325.662 200.727 325.861C200.279 326.06 199.759 326.159 199.166 326.159C198.387 326.159 197.742 325.99 197.232 325.652C196.721 325.314 196.398 324.82 196.262 324.17L197.376 323.892C197.482 324.303 197.682 324.611 197.977 324.817C198.276 325.022 198.665 325.125 199.146 325.125C199.693 325.125 200.127 325.009 200.448 324.777C200.773 324.542 200.935 324.26 200.935 323.932C200.935 323.667 200.843 323.445 200.657 323.266C200.471 323.083 200.186 322.947 199.802 322.858L198.529 322.56C197.83 322.394 197.316 322.137 196.988 321.789C196.663 321.438 196.501 320.999 196.501 320.472C196.501 320.041 196.622 319.66 196.864 319.328C197.109 318.997 197.442 318.737 197.863 318.548C198.287 318.359 198.768 318.264 199.305 318.264C200.06 318.264 200.654 318.43 201.085 318.761C201.519 319.093 201.827 319.53 202.009 320.074ZM258.068 326.159C257.378 326.159 256.773 325.995 256.253 325.667C255.736 325.339 255.332 324.88 255.04 324.29C254.752 323.7 254.608 323.01 254.608 322.222C254.608 321.426 254.752 320.732 255.04 320.138C255.332 319.545 255.736 319.085 256.253 318.756C256.773 318.428 257.378 318.264 258.068 318.264C258.757 318.264 259.36 318.428 259.877 318.756C260.398 319.085 260.802 319.545 261.09 320.138C261.382 320.732 261.528 321.426 261.528 322.222C261.528 323.01 261.382 323.7 261.09 324.29C260.802 324.88 260.398 325.339 259.877 325.667C259.36 325.995 258.757 326.159 258.068 326.159ZM258.068 325.105C258.591 325.105 259.022 324.971 259.36 324.702C259.698 324.434 259.949 324.081 260.111 323.643C260.273 323.206 260.355 322.732 260.355 322.222C260.355 321.711 260.273 321.236 260.111 320.795C259.949 320.354 259.698 319.998 259.36 319.726C259.022 319.454 258.591 319.318 258.068 319.318C257.544 319.318 257.113 319.454 256.775 319.726C256.437 319.998 256.187 320.354 256.024 320.795C255.862 321.236 255.781 321.711 255.781 322.222C255.781 322.732 255.862 323.206 256.024 323.643C256.187 324.081 256.437 324.434 256.775 324.702C257.113 324.971 257.544 325.105 258.068 325.105ZM266.72 318.364V319.358H262.603V318.364H266.72ZM263.836 326V317.31C263.836 316.872 263.939 316.508 264.144 316.216C264.35 315.924 264.617 315.705 264.945 315.56C265.273 315.414 265.619 315.341 265.984 315.341C266.272 315.341 266.507 315.364 266.69 315.411C266.872 315.457 267.008 315.5 267.097 315.54L266.759 316.554C266.7 316.534 266.617 316.509 266.511 316.479C266.408 316.45 266.272 316.435 266.103 316.435C265.715 316.435 265.435 316.532 265.263 316.728C265.094 316.924 265.009 317.21 265.009 317.588V326H263.836Z" fill="#977669"/>
<path d="M208.011 326V315.818H211.452C212.25 315.818 212.903 315.962 213.41 316.251C213.921 316.536 214.299 316.922 214.544 317.409C214.789 317.896 214.912 318.44 214.912 319.04C214.912 319.64 214.789 320.185 214.544 320.675C214.302 321.166 213.927 321.557 213.42 321.849C212.913 322.137 212.264 322.281 211.472 322.281H209.006V321.188H211.432C211.979 321.188 212.418 321.093 212.749 320.904C213.081 320.715 213.321 320.46 213.47 320.138C213.623 319.814 213.699 319.447 213.699 319.04C213.699 318.632 213.623 318.268 213.47 317.946C213.321 317.625 213.079 317.373 212.744 317.19C212.409 317.005 211.965 316.912 211.412 316.912H209.244V326H208.011ZM218.986 326.179C218.502 326.179 218.063 326.088 217.669 325.906C217.274 325.72 216.961 325.453 216.729 325.105C216.497 324.754 216.381 324.33 216.381 323.832C216.381 323.395 216.467 323.04 216.639 322.768C216.812 322.493 217.042 322.278 217.331 322.122C217.619 321.966 217.937 321.85 218.285 321.774C218.636 321.695 218.989 321.632 219.344 321.585C219.808 321.526 220.184 321.481 220.473 321.451C220.764 321.418 220.976 321.363 221.109 321.287C221.245 321.211 221.313 321.078 221.313 320.889V320.849C221.313 320.359 221.179 319.978 220.91 319.706C220.645 319.434 220.242 319.298 219.702 319.298C219.142 319.298 218.703 319.421 218.384 319.666C218.066 319.911 217.843 320.173 217.713 320.452L216.6 320.054C216.799 319.59 217.064 319.229 217.395 318.97C217.73 318.708 218.094 318.526 218.489 318.423C218.887 318.317 219.278 318.264 219.662 318.264C219.907 318.264 220.189 318.294 220.507 318.354C220.829 318.41 221.139 318.528 221.437 318.707C221.739 318.886 221.989 319.156 222.188 319.517C222.387 319.878 222.486 320.362 222.486 320.969V326H221.313V324.966H221.253C221.174 325.132 221.041 325.309 220.855 325.498C220.67 325.687 220.423 325.848 220.115 325.98C219.806 326.113 219.43 326.179 218.986 326.179ZM219.165 325.125C219.629 325.125 220.02 325.034 220.338 324.852C220.66 324.669 220.902 324.434 221.064 324.146C221.23 323.857 221.313 323.554 221.313 323.236V322.162C221.263 322.222 221.154 322.276 220.985 322.326C220.819 322.372 220.627 322.414 220.408 322.45C220.193 322.483 219.982 322.513 219.777 322.54C219.574 322.563 219.41 322.583 219.284 322.599C218.979 322.639 218.694 322.704 218.429 322.793C218.167 322.879 217.955 323.01 217.793 323.186C217.634 323.358 217.554 323.594 217.554 323.892C217.554 324.3 217.705 324.608 218.007 324.817C218.312 325.022 218.698 325.125 219.165 325.125ZM224.628 326V318.364H225.761V319.517H225.841C225.98 319.139 226.232 318.833 226.596 318.597C226.961 318.362 227.372 318.244 227.829 318.244C227.915 318.244 228.023 318.246 228.152 318.249C228.282 318.253 228.379 318.258 228.446 318.264V319.457C228.406 319.447 228.315 319.433 228.172 319.413C228.033 319.389 227.886 319.378 227.73 319.378C227.359 319.378 227.027 319.456 226.736 319.612C226.447 319.764 226.218 319.976 226.049 320.248C225.884 320.516 225.801 320.823 225.801 321.168V326H224.628ZM232.806 326.159C232.07 326.159 231.435 325.997 230.902 325.672C230.371 325.344 229.962 324.886 229.674 324.3C229.389 323.71 229.246 323.024 229.246 322.241C229.246 321.459 229.389 320.77 229.674 320.173C229.962 319.573 230.363 319.106 230.877 318.771C231.394 318.433 231.997 318.264 232.687 318.264C233.084 318.264 233.477 318.33 233.865 318.463C234.253 318.596 234.606 318.811 234.924 319.109C235.242 319.404 235.495 319.795 235.684 320.283C235.873 320.77 235.968 321.37 235.968 322.082V322.58H230.081V321.565H234.775C234.775 321.134 234.688 320.75 234.516 320.412C234.347 320.074 234.105 319.807 233.79 319.612C233.479 319.416 233.111 319.318 232.687 319.318C232.219 319.318 231.815 319.434 231.473 319.666C231.135 319.895 230.875 320.193 230.693 320.561C230.511 320.929 230.419 321.323 230.419 321.744V322.42C230.419 322.997 230.519 323.486 230.718 323.887C230.92 324.285 231.2 324.588 231.558 324.797C231.916 325.002 232.332 325.105 232.806 325.105C233.114 325.105 233.392 325.062 233.641 324.976C233.893 324.886 234.11 324.754 234.292 324.578C234.475 324.399 234.616 324.177 234.715 323.912L235.848 324.23C235.729 324.615 235.529 324.953 235.247 325.244C234.965 325.533 234.617 325.758 234.203 325.92C233.789 326.08 233.323 326.159 232.806 326.159ZM238.926 321.406V326H237.753V318.364H238.886V319.557H238.986C239.165 319.169 239.436 318.857 239.801 318.622C240.165 318.384 240.636 318.264 241.213 318.264C241.73 318.264 242.182 318.37 242.57 318.582C242.958 318.791 243.259 319.109 243.475 319.537C243.69 319.961 243.798 320.498 243.798 321.148V326H242.625V321.227C242.625 320.627 242.469 320.16 242.157 319.825C241.846 319.487 241.418 319.318 240.875 319.318C240.5 319.318 240.165 319.399 239.87 319.562C239.579 319.724 239.348 319.961 239.179 320.273C239.01 320.584 238.926 320.962 238.926 321.406ZM249.263 318.364V319.358H245.306V318.364H249.263ZM246.459 316.534H247.632V323.812C247.632 324.144 247.68 324.393 247.777 324.558C247.876 324.721 248.002 324.83 248.154 324.886C248.31 324.939 248.474 324.966 248.647 324.966C248.776 324.966 248.882 324.959 248.965 324.946C249.048 324.929 249.114 324.916 249.164 324.906L249.402 325.96C249.323 325.99 249.212 326.02 249.069 326.05C248.927 326.083 248.746 326.099 248.527 326.099C248.196 326.099 247.871 326.028 247.553 325.886C247.238 325.743 246.976 325.526 246.767 325.234C246.562 324.943 246.459 324.575 246.459 324.131V316.534Z" fill="#43302B"/>
<path d="M292.204 321.495L295.909 317.79L296.974 318.84L292.204 323.61L287.434 318.84L288.499 317.79L292.204 321.495Z" fill="#846358"/>
<path d="M184.204 300H309.204V302H184.204V300ZM309.204 342H184.204V340H309.204V342ZM184.204 341V301V341ZM309.204 301V341V301Z" fill="#D1B9B0" mask="url(#path-16-inside-1_20369_2041)"/>
<path d="M309.704 301.5H430.204C432.137 301.5 433.704 303.067 433.704 305V337C433.704 338.933 432.137 340.5 430.204 340.5H309.704V301.5Z" fill="#FDFCFC"/>
<path d="M318.437 326V315.818H324.542V316.912H319.67V320.352H324.085V321.446H319.67V326H318.437ZM326.495 326V318.364H327.668V326H326.495ZM327.091 317.091C326.863 317.091 326.665 317.013 326.5 316.857C326.337 316.701 326.256 316.514 326.256 316.295C326.256 316.077 326.337 315.889 326.5 315.734C326.665 315.578 326.863 315.5 327.091 315.5C327.32 315.5 327.516 315.578 327.678 315.734C327.844 315.889 327.927 316.077 327.927 316.295C327.927 316.514 327.844 316.701 327.678 316.857C327.516 317.013 327.32 317.091 327.091 317.091ZM330.99 315.818V326H329.817V315.818H330.99ZM336.341 326.159C335.605 326.159 334.97 325.997 334.437 325.672C333.907 325.344 333.497 324.886 333.209 324.3C332.924 323.71 332.781 323.024 332.781 322.241C332.781 321.459 332.924 320.77 333.209 320.173C333.497 319.573 333.898 319.106 334.412 318.771C334.929 318.433 335.532 318.264 336.222 318.264C336.619 318.264 337.012 318.33 337.4 318.463C337.788 318.596 338.141 318.811 338.459 319.109C338.777 319.404 339.031 319.795 339.22 320.283C339.408 320.77 339.503 321.37 339.503 322.082V322.58H333.617V321.565H338.31C338.31 321.134 338.224 320.75 338.051 320.412C337.882 320.074 337.64 319.807 337.325 319.612C337.014 319.416 336.646 319.318 336.222 319.318C335.754 319.318 335.35 319.434 335.009 319.666C334.671 319.895 334.41 320.193 334.228 320.561C334.046 320.929 333.955 321.323 333.955 321.744V322.42C333.955 322.997 334.054 323.486 334.253 323.887C334.455 324.285 334.735 324.588 335.093 324.797C335.451 325.002 335.867 325.105 336.341 325.105C336.649 325.105 336.928 325.062 337.176 324.976C337.428 324.886 337.645 324.754 337.828 324.578C338.01 324.399 338.151 324.177 338.25 323.912L339.384 324.23C339.264 324.615 339.064 324.953 338.782 325.244C338.5 325.533 338.152 325.758 337.738 325.92C337.324 326.08 336.858 326.159 336.341 326.159Z" fill="#43302B"/>
<path d="M417.204 321.495L420.909 317.79L421.974 318.84L417.204 323.61L412.434 318.84L413.499 317.79L417.204 321.495Z" fill="#846358"/>
<path d="M309.704 301.5H430.204C432.137 301.5 433.704 303.067 433.704 305V337C433.704 338.933 432.137 340.5 430.204 340.5H309.704V301.5Z" stroke="#D1B9B0"/>
<path d="M453.249 320.745L456.954 324.45L453.249 328.155L452.184 327.105L454.089 325.2H444.204V323.7H454.089L452.184 321.795L453.249 320.745ZM447.159 313.245L448.224 314.295L446.319 316.2H456.204V317.7H446.319L448.224 319.605L447.159 320.655L443.454 316.95L447.159 313.245Z" fill="#852EEF"/>
<rect x="434.204" y="305" width="32" height="32" rx="16" stroke="#D3B3FA"/>
<path d="M488.024 316.352L483.376 321L488.024 325.648L486.853 326.82L482.204 322.172L477.556 326.82L476.384 325.648L481.032 321L476.384 316.352L477.556 315.18L482.204 319.828L486.853 315.18L488.024 316.352Z" fill="#852EEF"/>
<rect x="466.204" y="305" width="32" height="32" rx="16" stroke="#D3B3FA"/>
<rect x="55.2041" y="353" width="447" height="48" rx="8" fill="#F3E7FC"/>
<path d="M63.2041 357.5H183.704V396.5H63.2041C61.2711 396.5 59.7041 394.933 59.7041 393V361C59.7041 359.067 61.2711 357.5 63.2041 357.5Z" fill="#FDFCFC"/>
<path d="M68.4371 382V371.818H71.8774C72.6762 371.818 73.3291 371.962 73.8362 372.251C74.3466 372.536 74.7245 372.922 74.9697 373.409C75.215 373.896 75.3376 374.44 75.3376 375.04C75.3376 375.64 75.215 376.185 74.9697 376.675C74.7278 377.166 74.3532 377.557 73.8461 377.849C73.339 378.137 72.6894 378.281 71.8973 378.281H69.4314V377.188H71.8575C72.4044 377.188 72.8435 377.093 73.175 376.904C73.5064 376.715 73.7467 376.46 73.8959 376.138C74.0483 375.814 74.1246 375.447 74.1246 375.04C74.1246 374.632 74.0483 374.268 73.8959 373.946C73.7467 373.625 73.5048 373.373 73.17 373.19C72.8353 373.005 72.3911 372.912 71.8376 372.912H69.67V382H68.4371ZM77.1647 382V374.364H78.2982V375.517H78.3778C78.517 375.139 78.7689 374.833 79.1334 374.597C79.498 374.362 79.909 374.244 80.3664 374.244C80.4526 374.244 80.5603 374.246 80.6895 374.249C80.8188 374.253 80.9166 374.258 80.9829 374.264V375.457C80.9431 375.447 80.8519 375.433 80.7094 375.413C80.5702 375.389 80.4227 375.378 80.267 375.378C79.8957 375.378 79.5643 375.456 79.2726 375.612C78.9843 375.764 78.7556 375.976 78.5866 376.248C78.4208 376.516 78.338 376.823 78.338 377.168V382H77.1647ZM85.2435 382.159C84.5541 382.159 83.9492 381.995 83.4289 381.667C82.9118 381.339 82.5075 380.88 82.2158 380.29C81.9275 379.7 81.7833 379.01 81.7833 378.222C81.7833 377.426 81.9275 376.732 82.2158 376.138C82.5075 375.545 82.9118 375.085 83.4289 374.756C83.9492 374.428 84.5541 374.264 85.2435 374.264C85.9329 374.264 86.5361 374.428 87.0532 374.756C87.5735 375.085 87.9779 375.545 88.2662 376.138C88.5579 376.732 88.7037 377.426 88.7037 378.222C88.7037 379.01 88.5579 379.7 88.2662 380.29C87.9779 380.88 87.5735 381.339 87.0532 381.667C86.5361 381.995 85.9329 382.159 85.2435 382.159ZM85.2435 381.105C85.7672 381.105 86.1981 380.971 86.5361 380.702C86.8742 380.434 87.1244 380.081 87.2868 379.643C87.4492 379.206 87.5305 378.732 87.5305 378.222C87.5305 377.711 87.4492 377.236 87.2868 376.795C87.1244 376.354 86.8742 375.998 86.5361 375.726C86.1981 375.454 85.7672 375.318 85.2435 375.318C84.7198 375.318 84.289 375.454 83.9509 375.726C83.6128 375.998 83.3626 376.354 83.2002 376.795C83.0378 377.236 82.9566 377.711 82.9566 378.222C82.9566 378.732 83.0378 379.206 83.2002 379.643C83.3626 380.081 83.6128 380.434 83.9509 380.702C84.289 380.971 84.7198 381.105 85.2435 381.105ZM90.4948 374.364H91.6681V382.557C91.6681 383.027 91.5869 383.435 91.4244 383.78C91.2654 384.125 91.0234 384.391 90.6986 384.58C90.3771 384.769 89.9711 384.864 89.4806 384.864C89.4408 384.864 89.401 384.864 89.3612 384.864C89.3215 384.864 89.2817 384.864 89.2419 384.864V383.77C89.2817 383.77 89.3182 383.77 89.3513 383.77C89.3844 383.77 89.4209 383.77 89.4607 383.77C89.8186 383.77 90.0805 383.664 90.2462 383.452C90.4119 383.243 90.4948 382.945 90.4948 382.557V374.364ZM91.0715 373.091C90.8428 373.091 90.6456 373.013 90.4798 372.857C90.3174 372.701 90.2362 372.514 90.2362 372.295C90.2362 372.077 90.3174 371.889 90.4798 371.734C90.6456 371.578 90.8428 371.5 91.0715 371.5C91.3002 371.5 91.4957 371.578 91.6581 371.734C91.8238 371.889 91.9067 372.077 91.9067 372.295C91.9067 372.514 91.8238 372.701 91.6581 372.857C91.4957 373.013 91.3002 373.091 91.0715 373.091ZM97.0187 382.159C96.2829 382.159 95.6482 381.997 95.1146 381.672C94.5843 381.344 94.175 380.886 93.8866 380.3C93.6016 379.71 93.4591 379.024 93.4591 378.241C93.4591 377.459 93.6016 376.77 93.8866 376.173C94.175 375.573 94.576 375.106 95.0898 374.771C95.6068 374.433 96.21 374.264 96.8994 374.264C97.2971 374.264 97.6899 374.33 98.0777 374.463C98.4655 374.596 98.8184 374.811 99.1366 375.109C99.4548 375.404 99.7084 375.795 99.8973 376.283C100.086 376.77 100.181 377.37 100.181 378.082V378.58H94.2943V377.565H98.9875C98.9875 377.134 98.9013 376.75 98.729 376.412C98.5599 376.074 98.318 375.807 98.0031 375.612C97.6916 375.416 97.3237 375.318 96.8994 375.318C96.4321 375.318 96.0277 375.434 95.6863 375.666C95.3483 375.895 95.0881 376.193 94.9058 376.561C94.7235 376.929 94.6324 377.323 94.6324 377.744V378.42C94.6324 378.997 94.7318 379.486 94.9307 379.887C95.1328 380.285 95.4129 380.588 95.7709 380.797C96.1288 381.002 96.5448 381.105 97.0187 381.105C97.327 381.105 97.6054 381.062 97.854 380.976C98.1059 380.886 98.3229 380.754 98.5052 380.578C98.6875 380.399 98.8284 380.177 98.9278 379.912L100.061 380.23C99.942 380.615 99.7415 380.953 99.4598 381.244C99.1781 381.533 98.83 381.758 98.4157 381.92C98.0015 382.08 97.5358 382.159 97.0187 382.159ZM105.068 382.159C104.352 382.159 103.735 381.99 103.218 381.652C102.701 381.314 102.304 380.848 102.025 380.255C101.747 379.662 101.608 378.984 101.608 378.222C101.608 377.446 101.75 376.762 102.035 376.168C102.323 375.572 102.724 375.106 103.238 374.771C103.755 374.433 104.358 374.264 105.048 374.264C105.585 374.264 106.069 374.364 106.5 374.562C106.93 374.761 107.283 375.04 107.559 375.398C107.834 375.756 108.004 376.173 108.071 376.651H106.897C106.808 376.303 106.609 375.994 106.301 375.726C105.996 375.454 105.585 375.318 105.068 375.318C104.61 375.318 104.209 375.437 103.865 375.676C103.523 375.911 103.256 376.245 103.064 376.675C102.875 377.103 102.781 377.605 102.781 378.182C102.781 378.772 102.874 379.286 103.059 379.723C103.248 380.161 103.513 380.5 103.855 380.742C104.199 380.984 104.604 381.105 105.068 381.105C105.373 381.105 105.649 381.052 105.898 380.946C106.147 380.84 106.357 380.688 106.529 380.489C106.702 380.29 106.824 380.051 106.897 379.773H108.071C108.004 380.223 107.84 380.629 107.578 380.991C107.32 381.349 106.977 381.634 106.549 381.846C106.125 382.055 105.631 382.159 105.068 382.159ZM113.107 374.364V375.358H109.149V374.364H113.107ZM110.303 372.534H111.476V379.812C111.476 380.144 111.524 380.393 111.62 380.558C111.72 380.721 111.846 380.83 111.998 380.886C112.154 380.939 112.318 380.966 112.49 380.966C112.62 380.966 112.726 380.959 112.809 380.946C112.891 380.929 112.958 380.916 113.007 380.906L113.246 381.96C113.166 381.99 113.055 382.02 112.913 382.05C112.77 382.083 112.59 382.099 112.371 382.099C112.04 382.099 111.715 382.028 111.397 381.886C111.082 381.743 110.82 381.526 110.611 381.234C110.406 380.943 110.303 380.575 110.303 380.131V372.534Z" fill="#43302B"/>
<path d="M167.204 377.495L170.909 373.79L171.974 374.84L167.204 379.61L162.434 374.84L163.499 373.79L167.204 377.495Z" fill="#846358"/>
<path d="M63.2041 357.5H183.704V396.5H63.2041C61.2711 396.5 59.7041 394.933 59.7041 393V361C59.7041 359.067 61.2711 357.5 63.2041 357.5Z" stroke="#D1B9B0"/>
<mask id="path-31-inside-2_20369_2041" fill="white">
<path d="M184.204 357H309.204V397H184.204V357Z"/>
</mask>
<path d="M184.204 357H309.204V397H184.204V357Z" fill="#FDFCFC"/>
<path d="M193.278 382V374.364H194.451V382H193.278ZM193.875 373.091C193.646 373.091 193.449 373.013 193.283 372.857C193.121 372.701 193.039 372.514 193.039 372.295C193.039 372.077 193.121 371.889 193.283 371.734C193.449 371.578 193.646 371.5 193.875 371.5C194.103 371.5 194.299 371.578 194.461 371.734C194.627 371.889 194.71 372.077 194.71 372.295C194.71 372.514 194.627 372.701 194.461 372.857C194.299 373.013 194.103 373.091 193.875 373.091ZM202.009 376.074L200.955 376.372C200.889 376.196 200.791 376.026 200.662 375.86C200.536 375.691 200.364 375.552 200.145 375.442C199.926 375.333 199.646 375.278 199.305 375.278C198.837 375.278 198.448 375.386 198.136 375.602C197.828 375.814 197.674 376.084 197.674 376.412C197.674 376.704 197.78 376.934 197.992 377.103C198.204 377.272 198.536 377.413 198.987 377.526L200.12 377.804C200.803 377.97 201.312 378.223 201.646 378.565C201.981 378.903 202.149 379.339 202.149 379.872C202.149 380.31 202.023 380.701 201.771 381.045C201.522 381.39 201.174 381.662 200.727 381.861C200.279 382.06 199.759 382.159 199.166 382.159C198.387 382.159 197.742 381.99 197.232 381.652C196.721 381.314 196.398 380.82 196.262 380.17L197.376 379.892C197.482 380.303 197.682 380.611 197.977 380.817C198.276 381.022 198.665 381.125 199.146 381.125C199.693 381.125 200.127 381.009 200.448 380.777C200.773 380.542 200.935 380.26 200.935 379.932C200.935 379.667 200.843 379.445 200.657 379.266C200.471 379.083 200.186 378.947 199.802 378.858L198.529 378.56C197.83 378.394 197.316 378.137 196.988 377.789C196.663 377.438 196.501 376.999 196.501 376.472C196.501 376.041 196.622 375.66 196.864 375.328C197.109 374.997 197.442 374.737 197.863 374.548C198.287 374.359 198.768 374.264 199.305 374.264C200.06 374.264 200.654 374.43 201.085 374.761C201.519 375.093 201.827 375.53 202.009 376.074ZM258.068 382.159C257.378 382.159 256.773 381.995 256.253 381.667C255.736 381.339 255.332 380.88 255.04 380.29C254.752 379.7 254.608 379.01 254.608 378.222C254.608 377.426 254.752 376.732 255.04 376.138C255.332 375.545 255.736 375.085 256.253 374.756C256.773 374.428 257.378 374.264 258.068 374.264C258.757 374.264 259.36 374.428 259.877 374.756C260.398 375.085 260.802 375.545 261.09 376.138C261.382 376.732 261.528 377.426 261.528 378.222C261.528 379.01 261.382 379.7 261.09 380.29C260.802 380.88 260.398 381.339 259.877 381.667C259.36 381.995 258.757 382.159 258.068 382.159ZM258.068 381.105C258.591 381.105 259.022 380.971 259.36 380.702C259.698 380.434 259.949 380.081 260.111 379.643C260.273 379.206 260.355 378.732 260.355 378.222C260.355 377.711 260.273 377.236 260.111 376.795C259.949 376.354 259.698 375.998 259.36 375.726C259.022 375.454 258.591 375.318 258.068 375.318C257.544 375.318 257.113 375.454 256.775 375.726C256.437 375.998 256.187 376.354 256.024 376.795C255.862 377.236 255.781 377.711 255.781 378.222C255.781 378.732 255.862 379.206 256.024 379.643C256.187 380.081 256.437 380.434 256.775 380.702C257.113 380.971 257.544 381.105 258.068 381.105ZM266.72 374.364V375.358H262.603V374.364H266.72ZM263.836 382V373.31C263.836 372.872 263.939 372.508 264.144 372.216C264.35 371.924 264.617 371.705 264.945 371.56C265.273 371.414 265.619 371.341 265.984 371.341C266.272 371.341 266.507 371.364 266.69 371.411C266.872 371.457 267.008 371.5 267.097 371.54L266.759 372.554C266.7 372.534 266.617 372.509 266.511 372.479C266.408 372.45 266.272 372.435 266.103 372.435C265.715 372.435 265.435 372.532 265.263 372.728C265.094 372.924 265.009 373.21 265.009 373.588V382H263.836Z" fill="#977669"/>
<path d="M208.011 382V371.818H211.452C212.25 371.818 212.903 371.962 213.41 372.251C213.921 372.536 214.299 372.922 214.544 373.409C214.789 373.896 214.912 374.44 214.912 375.04C214.912 375.64 214.789 376.185 214.544 376.675C214.302 377.166 213.927 377.557 213.42 377.849C212.913 378.137 212.264 378.281 211.472 378.281H209.006V377.188H211.432C211.979 377.188 212.418 377.093 212.749 376.904C213.081 376.715 213.321 376.46 213.47 376.138C213.623 375.814 213.699 375.447 213.699 375.04C213.699 374.632 213.623 374.268 213.47 373.946C213.321 373.625 213.079 373.373 212.744 373.19C212.409 373.005 211.965 372.912 211.412 372.912H209.244V382H208.011ZM218.986 382.179C218.502 382.179 218.063 382.088 217.669 381.906C217.274 381.72 216.961 381.453 216.729 381.105C216.497 380.754 216.381 380.33 216.381 379.832C216.381 379.395 216.467 379.04 216.639 378.768C216.812 378.493 217.042 378.278 217.331 378.122C217.619 377.966 217.937 377.85 218.285 377.774C218.636 377.695 218.989 377.632 219.344 377.585C219.808 377.526 220.184 377.481 220.473 377.451C220.764 377.418 220.976 377.363 221.109 377.287C221.245 377.211 221.313 377.078 221.313 376.889V376.849C221.313 376.359 221.179 375.978 220.91 375.706C220.645 375.434 220.242 375.298 219.702 375.298C219.142 375.298 218.703 375.421 218.384 375.666C218.066 375.911 217.843 376.173 217.713 376.452L216.6 376.054C216.799 375.59 217.064 375.229 217.395 374.97C217.73 374.708 218.094 374.526 218.489 374.423C218.887 374.317 219.278 374.264 219.662 374.264C219.907 374.264 220.189 374.294 220.507 374.354C220.829 374.41 221.139 374.528 221.437 374.707C221.739 374.886 221.989 375.156 222.188 375.517C222.387 375.878 222.486 376.362 222.486 376.969V382H221.313V380.966H221.253C221.174 381.132 221.041 381.309 220.855 381.498C220.67 381.687 220.423 381.848 220.115 381.98C219.806 382.113 219.43 382.179 218.986 382.179ZM219.165 381.125C219.629 381.125 220.02 381.034 220.338 380.852C220.66 380.669 220.902 380.434 221.064 380.146C221.23 379.857 221.313 379.554 221.313 379.236V378.162C221.263 378.222 221.154 378.276 220.985 378.326C220.819 378.372 220.627 378.414 220.408 378.45C220.193 378.483 219.982 378.513 219.777 378.54C219.574 378.563 219.41 378.583 219.284 378.599C218.979 378.639 218.694 378.704 218.429 378.793C218.167 378.879 217.955 379.01 217.793 379.186C217.634 379.358 217.554 379.594 217.554 379.892C217.554 380.3 217.705 380.608 218.007 380.817C218.312 381.022 218.698 381.125 219.165 381.125ZM224.628 382V374.364H225.761V375.517H225.841C225.98 375.139 226.232 374.833 226.596 374.597C226.961 374.362 227.372 374.244 227.829 374.244C227.915 374.244 228.023 374.246 228.152 374.249C228.282 374.253 228.379 374.258 228.446 374.264V375.457C228.406 375.447 228.315 375.433 228.172 375.413C228.033 375.389 227.886 375.378 227.73 375.378C227.359 375.378 227.027 375.456 226.736 375.612C226.447 375.764 226.218 375.976 226.049 376.248C225.884 376.516 225.801 376.823 225.801 377.168V382H224.628ZM232.806 382.159C232.07 382.159 231.435 381.997 230.902 381.672C230.371 381.344 229.962 380.886 229.674 380.3C229.389 379.71 229.246 379.024 229.246 378.241C229.246 377.459 229.389 376.77 229.674 376.173C229.962 375.573 230.363 375.106 230.877 374.771C231.394 374.433 231.997 374.264 232.687 374.264C233.084 374.264 233.477 374.33 233.865 374.463C234.253 374.596 234.606 374.811 234.924 375.109C235.242 375.404 235.495 375.795 235.684 376.283C235.873 376.77 235.968 377.37 235.968 378.082V378.58H230.081V377.565H234.775C234.775 377.134 234.688 376.75 234.516 376.412C234.347 376.074 234.105 375.807 233.79 375.612C233.479 375.416 233.111 375.318 232.687 375.318C232.219 375.318 231.815 375.434 231.473 375.666C231.135 375.895 230.875 376.193 230.693 376.561C230.511 376.929 230.419 377.323 230.419 377.744V378.42C230.419 378.997 230.519 379.486 230.718 379.887C230.92 380.285 231.2 380.588 231.558 380.797C231.916 381.002 232.332 381.105 232.806 381.105C233.114 381.105 233.392 381.062 233.641 380.976C233.893 380.886 234.11 380.754 234.292 380.578C234.475 380.399 234.616 380.177 234.715 379.912L235.848 380.23C235.729 380.615 235.529 380.953 235.247 381.244C234.965 381.533 234.617 381.758 234.203 381.92C233.789 382.08 233.323 382.159 232.806 382.159ZM238.926 377.406V382H237.753V374.364H238.886V375.557H238.986C239.165 375.169 239.436 374.857 239.801 374.622C240.165 374.384 240.636 374.264 241.213 374.264C241.73 374.264 242.182 374.37 242.57 374.582C242.958 374.791 243.259 375.109 243.475 375.537C243.69 375.961 243.798 376.498 243.798 377.148V382H242.625V377.227C242.625 376.627 242.469 376.16 242.157 375.825C241.846 375.487 241.418 375.318 240.875 375.318C240.5 375.318 240.165 375.399 239.87 375.562C239.579 375.724 239.348 375.961 239.179 376.273C239.01 376.584 238.926 376.962 238.926 377.406ZM249.263 374.364V375.358H245.306V374.364H249.263ZM246.459 372.534H247.632V379.812C247.632 380.144 247.68 380.393 247.777 380.558C247.876 380.721 248.002 380.83 248.154 380.886C248.31 380.939 248.474 380.966 248.647 380.966C248.776 380.966 248.882 380.959 248.965 380.946C249.048 380.929 249.114 380.916 249.164 380.906L249.402 381.96C249.323 381.99 249.212 382.02 249.069 382.05C248.927 382.083 248.746 382.099 248.527 382.099C248.196 382.099 247.871 382.028 247.553 381.886C247.238 381.743 246.976 381.526 246.767 381.234C246.562 380.943 246.459 380.575 246.459 380.131V372.534Z" fill="#43302B"/>
<path d="M292.204 377.495L295.909 373.79L296.974 374.84L292.204 379.61L287.434 374.84L288.499 373.79L292.204 377.495Z" fill="#846358"/>
<path d="M184.204 356H309.204V358H184.204V356ZM309.204 398H184.204V396H309.204V398ZM184.204 397V357V397ZM309.204 357V397V357Z" fill="#D1B9B0" mask="url(#path-31-inside-2_20369_2041)"/>
<path d="M309.704 357.5H430.204C432.137 357.5 433.704 359.067 433.704 361V393C433.704 394.933 432.137 396.5 430.204 396.5H309.704V357.5Z" fill="#FDF8F6"/>
<path d="M318.437 382V371.818H324.542V372.912H319.67V376.352H324.085V377.446H319.67V382H318.437ZM329.036 382.159C328.347 382.159 327.742 381.995 327.222 381.667C326.705 381.339 326.3 380.88 326.009 380.29C325.72 379.7 325.576 379.01 325.576 378.222C325.576 377.426 325.72 376.732 326.009 376.138C326.3 375.545 326.705 375.085 327.222 374.756C327.742 374.428 328.347 374.264 329.036 374.264C329.726 374.264 330.329 374.428 330.846 374.756C331.367 375.085 331.771 375.545 332.059 376.138C332.351 376.732 332.497 377.426 332.497 378.222C332.497 379.01 332.351 379.7 332.059 380.29C331.771 380.88 331.367 381.339 330.846 381.667C330.329 381.995 329.726 382.159 329.036 382.159ZM329.036 381.105C329.56 381.105 329.991 380.971 330.329 380.702C330.667 380.434 330.917 380.081 331.08 379.643C331.242 379.206 331.323 378.732 331.323 378.222C331.323 377.711 331.242 377.236 331.08 376.795C330.917 376.354 330.667 375.998 330.329 375.726C329.991 375.454 329.56 375.318 329.036 375.318C328.513 375.318 328.082 375.454 327.744 375.726C327.406 375.998 327.156 376.354 326.993 376.795C326.831 377.236 326.75 377.711 326.75 378.222C326.75 378.732 326.831 379.206 326.993 379.643C327.156 380.081 327.406 380.434 327.744 380.702C328.082 380.971 328.513 381.105 329.036 381.105ZM335.461 371.818V382H334.288V371.818H335.461ZM340.494 382.159C339.857 382.159 339.295 381.998 338.808 381.677C338.321 381.352 337.94 380.895 337.665 380.305C337.39 379.711 337.252 379.01 337.252 378.202C337.252 377.4 337.39 376.704 337.665 376.114C337.94 375.524 338.323 375.068 338.813 374.746C339.304 374.425 339.87 374.264 340.513 374.264C341.011 374.264 341.403 374.347 341.692 374.513C341.983 374.675 342.205 374.861 342.358 375.07C342.514 375.275 342.635 375.444 342.721 375.577H342.82V371.818H343.994V382H342.86V380.827H342.721C342.635 380.966 342.512 381.142 342.353 381.354C342.194 381.562 341.967 381.75 341.672 381.915C341.377 382.078 340.984 382.159 340.494 382.159ZM340.653 381.105C341.123 381.105 341.521 380.982 341.846 380.737C342.171 380.489 342.418 380.146 342.587 379.708C342.756 379.267 342.84 378.759 342.84 378.182C342.84 377.612 342.757 377.113 342.592 376.685C342.426 376.254 342.181 375.92 341.856 375.681C341.531 375.439 341.13 375.318 340.653 375.318C340.155 375.318 339.741 375.446 339.41 375.701C339.082 375.953 338.835 376.296 338.669 376.73C338.507 377.161 338.425 377.645 338.425 378.182C338.425 378.725 338.508 379.219 338.674 379.663C338.843 380.104 339.092 380.455 339.42 380.717C339.751 380.976 340.162 381.105 340.653 381.105ZM349.507 382.159C348.771 382.159 348.137 381.997 347.603 381.672C347.073 381.344 346.663 380.886 346.375 380.3C346.09 379.71 345.947 379.024 345.947 378.241C345.947 377.459 346.09 376.77 346.375 376.173C346.663 375.573 347.064 375.106 347.578 374.771C348.095 374.433 348.698 374.264 349.388 374.264C349.785 374.264 350.178 374.33 350.566 374.463C350.954 374.596 351.307 374.811 351.625 375.109C351.943 375.404 352.197 375.795 352.386 376.283C352.574 376.77 352.669 377.37 352.669 378.082V378.58H346.783V377.565H351.476C351.476 377.134 351.39 376.75 351.217 376.412C351.048 376.074 350.806 375.807 350.491 375.612C350.18 375.416 349.812 375.318 349.388 375.318C348.92 375.318 348.516 375.434 348.175 375.666C347.837 375.895 347.576 376.193 347.394 376.561C347.212 376.929 347.121 377.323 347.121 377.744V378.42C347.121 378.997 347.22 379.486 347.419 379.887C347.621 380.285 347.901 380.588 348.259 380.797C348.617 381.002 349.033 381.105 349.507 381.105C349.815 381.105 350.094 381.062 350.342 380.976C350.594 380.886 350.811 380.754 350.994 380.578C351.176 380.399 351.317 380.177 351.416 379.912L352.55 380.23C352.43 380.615 352.23 380.953 351.948 381.244C351.666 381.533 351.318 381.758 350.904 381.92C350.49 382.08 350.024 382.159 349.507 382.159ZM354.454 382V374.364H355.587V375.517H355.667C355.806 375.139 356.058 374.833 356.422 374.597C356.787 374.362 357.198 374.244 357.655 374.244C357.742 374.244 357.849 374.246 357.979 374.249C358.108 374.253 358.206 374.258 358.272 374.264V375.457C358.232 375.447 358.141 375.433 357.998 375.413C357.859 375.389 357.712 375.378 357.556 375.378C357.185 375.378 356.853 375.456 356.562 375.612C356.273 375.764 356.045 375.976 355.876 376.248C355.71 376.516 355.627 376.823 355.627 377.168V382H354.454Z" fill="#977669"/>
<path d="M309.704 357.5H430.204C432.137 357.5 433.704 359.067 433.704 361V393C433.704 394.933 432.137 396.5 430.204 396.5H309.704V357.5Z" stroke="#D1B9B0"/>
<path d="M453.249 376.745L456.954 380.45L453.249 384.155L452.184 383.105L454.089 381.2H444.204V379.7H454.089L452.184 377.795L453.249 376.745ZM447.159 369.245L448.224 370.295L446.319 372.2H456.204V373.7H446.319L448.224 375.605L447.159 376.655L443.454 372.95L447.159 369.245Z" fill="#852EEF"/>
<rect x="434.204" y="361" width="32" height="32" rx="16" stroke="#D3B3FA"/>
<path d="M488.024 372.352L483.376 377L488.024 381.648L486.853 382.82L482.204 378.172L477.556 382.82L476.384 381.648L481.032 377L476.384 372.352L477.556 371.18L482.204 375.828L486.853 371.18L488.024 372.352Z" fill="#852EEF"/>
<rect x="466.204" y="361" width="32" height="32" rx="16" stroke="#D3B3FA"/>
<path d="M238.601 435.5H237.308L241.047 425.318H242.32L246.058 435.5H244.766L241.723 426.929H241.643L238.601 435.5ZM239.078 431.523H244.288V432.616H239.078V431.523ZM250.369 435.659C249.732 435.659 249.17 435.498 248.683 435.177C248.196 434.852 247.815 434.395 247.54 433.805C247.265 433.211 247.127 432.51 247.127 431.702C247.127 430.9 247.265 430.204 247.54 429.614C247.815 429.024 248.198 428.568 248.688 428.246C249.179 427.925 249.745 427.764 250.388 427.764C250.886 427.764 251.278 427.847 251.567 428.013C251.858 428.175 252.08 428.361 252.233 428.57C252.389 428.775 252.51 428.944 252.596 429.077H252.695V425.318H253.869V435.5H252.735V434.327H252.596C252.51 434.466 252.387 434.642 252.228 434.854C252.069 435.062 251.842 435.25 251.547 435.415C251.252 435.578 250.859 435.659 250.369 435.659ZM250.528 434.605C250.998 434.605 251.396 434.482 251.721 434.237C252.046 433.989 252.293 433.646 252.462 433.208C252.631 432.767 252.715 432.259 252.715 431.682C252.715 431.112 252.632 430.613 252.467 430.185C252.301 429.754 252.056 429.42 251.731 429.181C251.406 428.939 251.005 428.818 250.528 428.818C250.03 428.818 249.616 428.946 249.285 429.201C248.957 429.453 248.71 429.796 248.544 430.23C248.382 430.661 248.3 431.145 248.3 431.682C248.3 432.225 248.383 432.719 248.549 433.163C248.718 433.604 248.967 433.955 249.295 434.217C249.626 434.476 250.037 434.605 250.528 434.605ZM259.064 435.659C258.427 435.659 257.866 435.498 257.378 435.177C256.891 434.852 256.51 434.395 256.235 433.805C255.96 433.211 255.822 432.51 255.822 431.702C255.822 430.9 255.96 430.204 256.235 429.614C256.51 429.024 256.893 428.568 257.383 428.246C257.874 427.925 258.441 427.764 259.084 427.764C259.581 427.764 259.974 427.847 260.262 428.013C260.554 428.175 260.776 428.361 260.928 428.57C261.084 428.775 261.205 428.944 261.291 429.077H261.391V425.318H262.564V435.5H261.43V434.327H261.291C261.205 434.466 261.082 434.642 260.923 434.854C260.764 435.062 260.537 435.25 260.242 435.415C259.947 435.578 259.554 435.659 259.064 435.659ZM259.223 434.605C259.694 434.605 260.091 434.482 260.416 434.237C260.741 433.989 260.988 433.646 261.157 433.208C261.326 432.767 261.41 432.259 261.41 431.682C261.41 431.112 261.328 430.613 261.162 430.185C260.996 429.754 260.751 429.42 260.426 429.181C260.101 428.939 259.7 428.818 259.223 428.818C258.726 428.818 258.311 428.946 257.98 429.201C257.652 429.453 257.405 429.796 257.239 430.23C257.077 430.661 256.996 431.145 256.996 431.682C256.996 432.225 257.079 432.719 257.244 433.163C257.413 433.604 257.662 433.955 257.99 434.217C258.321 434.476 258.732 434.605 259.223 434.605ZM268.507 435.5V425.318H271.948C272.743 425.318 273.396 425.454 273.907 425.726C274.417 425.994 274.795 426.364 275.04 426.835C275.285 427.305 275.408 427.84 275.408 428.44C275.408 429.04 275.285 429.572 275.04 430.036C274.795 430.5 274.419 430.865 273.911 431.13C273.404 431.392 272.756 431.523 271.968 431.523H269.184V430.409H271.928C272.471 430.409 272.909 430.33 273.24 430.17C273.575 430.011 273.817 429.786 273.966 429.494C274.119 429.199 274.195 428.848 274.195 428.44C274.195 428.033 274.119 427.676 273.966 427.371C273.814 427.067 273.57 426.831 273.235 426.665C272.901 426.496 272.458 426.412 271.908 426.412H269.74V435.5H268.507ZM273.3 430.926L275.806 435.5H274.374L271.908 430.926H273.3ZM280.423 435.659C279.687 435.659 279.053 435.497 278.519 435.172C277.989 434.844 277.579 434.386 277.291 433.8C277.006 433.21 276.863 432.524 276.863 431.741C276.863 430.959 277.006 430.27 277.291 429.673C277.579 429.073 277.98 428.606 278.494 428.271C279.011 427.933 279.614 427.764 280.304 427.764C280.701 427.764 281.094 427.83 281.482 427.963C281.87 428.096 282.223 428.311 282.541 428.609C282.859 428.904 283.113 429.295 283.302 429.783C283.491 430.27 283.585 430.87 283.585 431.582V432.08H277.699V431.065H282.392C282.392 430.634 282.306 430.25 282.133 429.912C281.964 429.574 281.722 429.307 281.407 429.112C281.096 428.916 280.728 428.818 280.304 428.818C279.836 428.818 279.432 428.934 279.091 429.166C278.753 429.395 278.492 429.693 278.31 430.061C278.128 430.429 278.037 430.823 278.037 431.244V431.92C278.037 432.497 278.136 432.986 278.335 433.387C278.537 433.785 278.817 434.088 279.175 434.297C279.533 434.502 279.949 434.605 280.423 434.605C280.731 434.605 281.01 434.562 281.258 434.476C281.51 434.386 281.727 434.254 281.91 434.078C282.092 433.899 282.233 433.677 282.332 433.412L283.466 433.73C283.346 434.115 283.146 434.453 282.864 434.744C282.582 435.033 282.234 435.258 281.82 435.42C281.406 435.58 280.94 435.659 280.423 435.659ZM286.543 425.318V435.5H285.37V425.318H286.543ZM290.939 435.679C290.455 435.679 290.016 435.588 289.622 435.406C289.227 435.22 288.914 434.953 288.682 434.605C288.45 434.254 288.334 433.83 288.334 433.332C288.334 432.895 288.42 432.54 288.593 432.268C288.765 431.993 288.995 431.778 289.284 431.622C289.572 431.466 289.89 431.35 290.238 431.274C290.59 431.195 290.943 431.132 291.297 431.085C291.761 431.026 292.137 430.981 292.426 430.951C292.717 430.918 292.929 430.863 293.062 430.787C293.198 430.711 293.266 430.578 293.266 430.389V430.349C293.266 429.859 293.132 429.478 292.863 429.206C292.598 428.934 292.195 428.798 291.655 428.798C291.095 428.798 290.656 428.921 290.338 429.166C290.019 429.411 289.796 429.673 289.666 429.952L288.553 429.554C288.752 429.09 289.017 428.729 289.348 428.47C289.683 428.208 290.048 428.026 290.442 427.923C290.84 427.817 291.231 427.764 291.615 427.764C291.861 427.764 292.142 427.794 292.46 427.854C292.782 427.91 293.092 428.028 293.39 428.207C293.692 428.386 293.942 428.656 294.141 429.017C294.34 429.378 294.439 429.862 294.439 430.469V435.5H293.266V434.466H293.206C293.127 434.632 292.994 434.809 292.809 434.998C292.623 435.187 292.376 435.348 292.068 435.48C291.759 435.613 291.383 435.679 290.939 435.679ZM291.118 434.625C291.582 434.625 291.973 434.534 292.291 434.352C292.613 434.169 292.855 433.934 293.017 433.646C293.183 433.357 293.266 433.054 293.266 432.736V431.662C293.216 431.722 293.107 431.776 292.938 431.826C292.772 431.872 292.58 431.914 292.361 431.95C292.146 431.983 291.935 432.013 291.73 432.04C291.527 432.063 291.363 432.083 291.237 432.099C290.933 432.139 290.648 432.204 290.382 432.293C290.121 432.379 289.908 432.51 289.746 432.686C289.587 432.858 289.507 433.094 289.507 433.392C289.507 433.8 289.658 434.108 289.96 434.317C290.265 434.522 290.651 434.625 291.118 434.625ZM299.902 427.864V428.858H295.944V427.864H299.902ZM297.098 426.034H298.271V433.312C298.271 433.644 298.319 433.893 298.415 434.058C298.515 434.221 298.641 434.33 298.793 434.386C298.949 434.439 299.113 434.466 299.285 434.466C299.415 434.466 299.521 434.459 299.603 434.446C299.686 434.429 299.753 434.416 299.802 434.406L300.041 435.46C299.961 435.49 299.85 435.52 299.708 435.55C299.565 435.583 299.385 435.599 299.166 435.599C298.834 435.599 298.51 435.528 298.191 435.386C297.877 435.243 297.615 435.026 297.406 434.734C297.2 434.443 297.098 434.075 297.098 433.631V426.034ZM301.667 435.5V427.864H302.84V435.5H301.667ZM302.263 426.591C302.035 426.591 301.837 426.513 301.672 426.357C301.509 426.201 301.428 426.014 301.428 425.795C301.428 425.577 301.509 425.389 301.672 425.234C301.837 425.078 302.035 425 302.263 425C302.492 425 302.687 425.078 302.85 425.234C303.016 425.389 303.098 425.577 303.098 425.795C303.098 426.014 303.016 426.201 302.85 426.357C302.687 426.513 302.492 426.591 302.263 426.591ZM308.091 435.659C307.402 435.659 306.797 435.495 306.277 435.167C305.759 434.839 305.355 434.38 305.063 433.79C304.775 433.2 304.631 432.51 304.631 431.722C304.631 430.926 304.775 430.232 305.063 429.638C305.355 429.045 305.759 428.585 306.277 428.256C306.797 427.928 307.402 427.764 308.091 427.764C308.781 427.764 309.384 427.928 309.901 428.256C310.421 428.585 310.826 429.045 311.114 429.638C311.406 430.232 311.551 430.926 311.551 431.722C311.551 432.51 311.406 433.2 311.114 433.79C310.826 434.38 310.421 434.839 309.901 435.167C309.384 435.495 308.781 435.659 308.091 435.659ZM308.091 434.605C308.615 434.605 309.046 434.471 309.384 434.202C309.722 433.934 309.972 433.581 310.134 433.143C310.297 432.706 310.378 432.232 310.378 431.722C310.378 431.211 310.297 430.736 310.134 430.295C309.972 429.854 309.722 429.498 309.384 429.226C309.046 428.954 308.615 428.818 308.091 428.818C307.568 428.818 307.137 428.954 306.799 429.226C306.46 429.498 306.21 429.854 306.048 430.295C305.885 430.736 305.804 431.211 305.804 431.722C305.804 432.232 305.885 432.706 306.048 433.143C306.21 433.581 306.46 433.934 306.799 434.202C307.137 434.471 307.568 434.605 308.091 434.605ZM314.516 430.906V435.5H313.342V427.864H314.476V429.057H314.575C314.754 428.669 315.026 428.357 315.391 428.122C315.755 427.884 316.226 427.764 316.803 427.764C317.32 427.764 317.772 427.87 318.16 428.082C318.548 428.291 318.849 428.609 319.065 429.037C319.28 429.461 319.388 429.998 319.388 430.648V435.5H318.215V430.727C318.215 430.127 318.059 429.66 317.747 429.325C317.436 428.987 317.008 428.818 316.465 428.818C316.09 428.818 315.755 428.899 315.46 429.062C315.169 429.224 314.938 429.461 314.769 429.773C314.6 430.084 314.516 430.462 314.516 430.906Z" fill="#852EEF"/>
<rect x="55.7041" y="409.5" width="446" height="42" rx="3.5" stroke="#A666F4" stroke-dasharray="4 4"/>
<defs>
<linearGradient id="paint0_linear_20369_2041" x1="199.885" y1="113.466" x2="128.124" y2="128.934" gradientUnits="userSpaceOnUse">
<stop stop-color="#FFB171"/>
<stop offset="1" stop-color="#BD8AFC"/>
</linearGradient>
<linearGradient id="paint1_linear_20369_2041" x1="427.885" y1="113.466" x2="356.124" y2="128.934" gradientUnits="userSpaceOnUse">
<stop stop-color="#FFB171"/>
<stop offset="1" stop-color="#BD8AFC"/>
</linearGradient>
</defs>
</svg>
