<svg width="557" height="510" viewBox="0 0 557 510" fill="none" xmlns="http://www.w3.org/2000/svg">
<rect x="0.803711" y="0.998291" width="555.803" height="509" rx="20" fill="#FEF8F4"/>
<rect x="132.106" y="114.464" width="66" height="37.9321" rx="2.98868" fill="#F8F1EE"/>
<path d="M142.236 139.43V127.976H149.574V129.715H144.311V132.825H149.071V134.564H144.311V139.43H142.236ZM154.492 139.598C153.653 139.598 152.926 139.414 152.311 139.045C151.695 138.675 151.218 138.159 150.879 137.495C150.543 136.832 150.376 136.056 150.376 135.169C150.376 134.281 150.543 133.504 150.879 132.836C151.218 132.169 151.695 131.651 152.311 131.281C152.926 130.912 153.653 130.728 154.492 130.728C155.331 130.728 156.058 130.912 156.673 131.281C157.289 131.651 157.764 132.169 158.099 132.836C158.439 133.504 158.608 134.281 158.608 135.169C158.608 136.056 158.439 136.832 158.099 137.495C157.764 138.159 157.289 138.675 156.673 139.045C156.058 139.414 155.331 139.598 154.492 139.598ZM154.503 137.976C154.958 137.976 155.338 137.851 155.644 137.601C155.95 137.348 156.177 137.009 156.327 136.584C156.479 136.158 156.556 135.685 156.556 135.163C156.556 134.637 156.479 134.162 156.327 133.737C156.177 133.308 155.95 132.967 155.644 132.713C155.338 132.46 154.958 132.333 154.503 132.333C154.037 132.333 153.649 132.46 153.34 132.713C153.034 132.967 152.805 133.308 152.652 133.737C152.503 134.162 152.428 134.637 152.428 135.163C152.428 135.685 152.503 136.158 152.652 136.584C152.805 137.009 153.034 137.348 153.34 137.601C153.649 137.851 154.037 137.976 154.503 137.976ZM162.352 127.976V139.43H160.327V127.976H162.352ZM167.622 139.581C166.947 139.581 166.343 139.408 165.81 139.061C165.276 138.715 164.855 138.211 164.545 137.551C164.236 136.891 164.081 136.09 164.081 135.146C164.081 134.192 164.238 133.386 164.551 132.73C164.868 132.07 165.295 131.572 165.832 131.237C166.369 130.897 166.967 130.728 167.627 130.728C168.131 130.728 168.545 130.813 168.869 130.985C169.193 131.153 169.451 131.356 169.641 131.595C169.831 131.829 169.978 132.051 170.083 132.26H170.166V127.976H172.197V139.43H170.206V138.077H170.083C169.978 138.286 169.827 138.508 169.63 138.742C169.432 138.974 169.171 139.171 168.847 139.335C168.522 139.499 168.114 139.581 167.622 139.581ZM168.187 137.92C168.615 137.92 168.981 137.805 169.283 137.574C169.585 137.339 169.814 137.012 169.971 136.595C170.127 136.177 170.206 135.691 170.206 135.135C170.206 134.579 170.127 134.097 169.971 133.686C169.818 133.276 169.59 132.957 169.288 132.73C168.99 132.503 168.623 132.389 168.187 132.389C167.735 132.389 167.359 132.506 167.057 132.741C166.755 132.976 166.527 133.3 166.374 133.714C166.222 134.128 166.145 134.602 166.145 135.135C166.145 135.672 166.222 136.151 166.374 136.572C166.531 136.99 166.76 137.32 167.062 137.562C167.368 137.801 167.743 137.92 168.187 137.92ZM178.158 139.598C177.296 139.598 176.552 139.419 175.926 139.061C175.303 138.7 174.824 138.189 174.489 137.529C174.153 136.865 173.985 136.084 173.985 135.185C173.985 134.302 174.153 133.526 174.489 132.859C174.828 132.187 175.301 131.665 175.909 131.293C176.517 130.916 177.231 130.728 178.051 130.728C178.581 130.728 179.08 130.813 179.55 130.985C180.024 131.153 180.441 131.414 180.803 131.768C181.168 132.122 181.456 132.573 181.664 133.121C181.873 133.666 181.978 134.315 181.978 135.068V135.689H174.936V134.324H180.037C180.033 133.936 179.949 133.591 179.785 133.289C179.621 132.984 179.392 132.743 179.097 132.568C178.806 132.393 178.467 132.305 178.079 132.305C177.665 132.305 177.302 132.406 176.989 132.607C176.675 132.805 176.431 133.066 176.256 133.39C176.084 133.711 175.997 134.063 175.993 134.447V135.638C175.993 136.138 176.084 136.567 176.267 136.925C176.45 137.279 176.705 137.551 177.033 137.741C177.361 137.928 177.746 138.021 178.186 138.021C178.48 138.021 178.747 137.98 178.985 137.898C179.224 137.812 179.431 137.687 179.606 137.523C179.781 137.359 179.914 137.156 180.003 136.914L181.894 137.126C181.774 137.626 181.547 138.062 181.211 138.435C180.879 138.804 180.454 139.091 179.936 139.296C179.418 139.498 178.825 139.598 178.158 139.598ZM183.69 139.43V130.84H185.654V132.271H185.743C185.9 131.775 186.168 131.393 186.548 131.125C186.933 130.853 187.371 130.716 187.863 130.716C187.975 130.716 188.1 130.722 188.238 130.733C188.379 130.741 188.497 130.754 188.59 130.772V132.635C188.504 132.605 188.368 132.579 188.182 132.557C187.999 132.53 187.822 132.517 187.65 132.517C187.281 132.517 186.949 132.598 186.655 132.758C186.364 132.915 186.135 133.133 185.967 133.412C185.799 133.692 185.715 134.014 185.715 134.38V139.43H183.69Z" fill="#43302B"/>
<rect x="132.854" y="115.212" width="64.5057" height="36.4377" rx="2.24151" stroke="url(#paint0_linear_20369_2300)" stroke-opacity="0.4" stroke-width="1.49434"/>
<path d="M198.106 133.43H235.606" stroke="#B7D9F8" stroke-width="2"/>
<rect width="87" height="20" transform="translate(235.606 123.43)" fill="#B7D9F8"/>
<path d="M243.548 129.983V137.43H242.425V129.983H243.548ZM249.746 131.94C249.708 131.595 249.548 131.329 249.266 131.14C248.985 130.948 248.631 130.852 248.205 130.852C247.899 130.852 247.635 130.901 247.412 130.998C247.189 131.092 247.016 131.223 246.892 131.39C246.771 131.555 246.71 131.743 246.71 131.954C246.71 132.131 246.751 132.284 246.834 132.412C246.919 132.541 247.029 132.649 247.165 132.736C247.303 132.821 247.451 132.892 247.608 132.95C247.766 133.006 247.917 133.052 248.063 133.089L248.79 133.278C249.028 133.336 249.271 133.415 249.521 133.514C249.771 133.613 250.002 133.744 250.216 133.907C250.429 134.069 250.601 134.27 250.732 134.51C250.865 134.75 250.932 135.038 250.932 135.372C250.932 135.794 250.823 136.169 250.605 136.496C250.389 136.823 250.075 137.081 249.663 137.27C249.253 137.46 248.757 137.554 248.176 137.554C247.618 137.554 247.136 137.466 246.728 137.289C246.321 137.112 246.002 136.861 245.772 136.536C245.542 136.209 245.414 135.821 245.39 135.372H246.517C246.539 135.641 246.626 135.866 246.779 136.045C246.934 136.222 247.132 136.354 247.372 136.441C247.614 136.526 247.88 136.569 248.168 136.569C248.486 136.569 248.768 136.519 249.016 136.42C249.265 136.318 249.462 136.177 249.605 135.998C249.748 135.816 249.819 135.604 249.819 135.361C249.819 135.141 249.756 134.96 249.63 134.82C249.506 134.679 249.338 134.563 249.125 134.47C248.914 134.378 248.675 134.297 248.408 134.227L247.528 133.987C246.932 133.824 246.459 133.586 246.11 133.27C245.763 132.955 245.59 132.538 245.59 132.02C245.59 131.59 245.706 131.216 245.939 130.896C246.172 130.576 246.487 130.327 246.885 130.15C247.282 129.971 247.731 129.881 248.23 129.881C248.734 129.881 249.179 129.97 249.565 130.147C249.953 130.324 250.258 130.567 250.481 130.878C250.704 131.186 250.82 131.54 250.83 131.94H249.746ZM255.985 137.43V129.983H258.639C259.219 129.983 259.699 130.089 260.079 130.3C260.46 130.51 260.745 130.799 260.934 131.165C261.123 131.529 261.217 131.938 261.217 132.394C261.217 132.852 261.122 133.264 260.93 133.63C260.741 133.994 260.455 134.283 260.072 134.496C259.691 134.707 259.213 134.812 258.636 134.812H256.81V133.86H258.534C258.9 133.86 259.197 133.796 259.425 133.67C259.653 133.542 259.82 133.367 259.926 133.147C260.033 132.926 260.086 132.675 260.086 132.394C260.086 132.113 260.033 131.863 259.926 131.645C259.82 131.427 259.651 131.256 259.421 131.132C259.193 131.009 258.893 130.947 258.519 130.947H257.108V137.43H255.985ZM262.874 137.43H261.681L264.361 129.983H265.659L268.339 137.43H267.146L265.041 131.336H264.983L262.874 137.43ZM263.074 134.514H266.943V135.46H263.074V134.514ZM269.915 137.43V129.983H272.569C273.146 129.983 273.625 130.083 274.006 130.281C274.389 130.48 274.675 130.755 274.864 131.107C275.053 131.456 275.147 131.86 275.147 132.318C275.147 132.773 275.052 133.175 274.86 133.521C274.671 133.866 274.385 134.133 274.002 134.325C273.621 134.516 273.143 134.612 272.566 134.612H270.555V133.645H272.464C272.827 133.645 273.123 133.593 273.351 133.489C273.581 133.384 273.75 133.233 273.856 133.034C273.963 132.835 274.016 132.596 274.016 132.318C274.016 132.036 273.962 131.793 273.853 131.587C273.746 131.381 273.578 131.223 273.347 131.114C273.119 131.003 272.82 130.947 272.449 130.947H271.038V137.43H269.915ZM273.591 134.07L275.431 137.43H274.151L272.347 134.07H273.591ZM277.015 137.43V129.983H281.684V130.95H278.138V133.22H281.44V134.183H278.138V136.463H281.727V137.43H277.015ZM289.696 129.983V137.43H288.663L284.877 131.969H284.808V137.43H283.685V129.983H284.725L288.514 135.452H288.583V129.983H289.696ZM291.467 130.95V129.983H297.231V130.95H294.907V137.43H293.787V130.95H291.467ZM308.684 133.707C308.684 134.502 308.538 135.186 308.247 135.758C307.956 136.327 307.558 136.766 307.051 137.074C306.547 137.38 305.973 137.532 305.331 137.532C304.686 137.532 304.11 137.38 303.604 137.074C303.099 136.766 302.702 136.326 302.411 135.754C302.12 135.182 301.975 134.5 301.975 133.707C301.975 132.912 302.12 132.229 302.411 131.66C302.702 131.087 303.099 130.649 303.604 130.343C304.11 130.035 304.686 129.881 305.331 129.881C305.973 129.881 306.547 130.035 307.051 130.343C307.558 130.649 307.956 131.087 308.247 131.66C308.538 132.229 308.684 132.912 308.684 133.707ZM307.571 133.707C307.571 133.101 307.473 132.59 307.276 132.176C307.083 131.759 306.816 131.444 306.476 131.23C306.139 131.015 305.758 130.907 305.331 130.907C304.902 130.907 304.519 131.015 304.182 131.23C303.845 131.444 303.578 131.759 303.382 132.176C303.188 132.59 303.091 133.101 303.091 133.707C303.091 134.313 303.188 134.824 303.382 135.241C303.578 135.656 303.845 135.971 304.182 136.187C304.519 136.4 304.902 136.507 305.331 136.507C305.758 136.507 306.139 136.4 306.476 136.187C306.816 135.971 307.083 135.656 307.276 135.241C307.473 134.824 307.571 134.313 307.571 133.707ZM310.585 137.43V129.983H315.203V130.95H311.708V133.22H314.872V134.183H311.708V137.43H310.585Z" fill="#0F3058"/>
<path d="M322.606 133.43H360.106" stroke="#B7D9F8" stroke-width="2"/>
<rect x="360.106" y="114.464" width="66" height="37.9321" rx="2.98868" fill="#F8F1EE"/>
<path d="M380.736 139.43V127.976H388.074V129.715H382.811V132.825H387.571V134.564H382.811V139.43H380.736ZM389.875 139.43V130.84H391.9V139.43H389.875ZM390.893 129.62C390.573 129.62 390.297 129.514 390.065 129.301C389.834 129.085 389.719 128.826 389.719 128.524C389.719 128.218 389.834 127.959 390.065 127.747C390.297 127.53 390.573 127.422 390.893 127.422C391.218 127.422 391.494 127.53 391.721 127.747C391.952 127.959 392.068 128.218 392.068 128.524C392.068 128.826 391.952 129.085 391.721 129.301C391.494 129.514 391.218 129.62 390.893 129.62ZM396.007 127.976V139.43H393.982V127.976H396.007ZM401.892 139.598C401.031 139.598 400.287 139.419 399.66 139.061C399.038 138.7 398.558 138.189 398.223 137.529C397.887 136.865 397.72 136.084 397.72 135.185C397.72 134.302 397.887 133.526 398.223 132.859C398.562 132.187 399.036 131.665 399.644 131.293C400.251 130.916 400.965 130.728 401.786 130.728C402.315 130.728 402.815 130.813 403.285 130.985C403.758 131.153 404.176 131.414 404.537 131.768C404.903 132.122 405.19 132.573 405.399 133.121C405.608 133.666 405.712 134.315 405.712 135.068V135.689H398.67V134.324H403.771C403.767 133.936 403.684 133.591 403.519 133.289C403.355 132.984 403.126 132.743 402.832 132.568C402.541 132.393 402.201 132.305 401.814 132.305C401.4 132.305 401.036 132.406 400.723 132.607C400.41 132.805 400.166 133.066 399.99 133.39C399.819 133.711 399.731 134.063 399.727 134.447V135.638C399.727 136.138 399.819 136.567 400.001 136.925C400.184 137.279 400.44 137.551 400.768 137.741C401.096 137.928 401.48 138.021 401.92 138.021C402.214 138.021 402.481 137.98 402.72 137.898C402.958 137.812 403.165 137.687 403.341 137.523C403.516 137.359 403.648 137.156 403.738 136.914L405.628 137.126C405.509 137.626 405.281 138.062 404.946 138.435C404.614 138.804 404.189 139.091 403.67 139.296C403.152 139.498 402.559 139.598 401.892 139.598Z" fill="#43302B"/>
<rect x="360.854" y="115.212" width="64.5057" height="36.4377" rx="2.24151" stroke="url(#paint1_linear_20369_2300)" stroke-opacity="0.4" stroke-width="1.49434"/>
<rect x="90.2051" y="49.4983" width="115" height="28" rx="14" fill="#EADDD7"/>
<path d="M103.597 68.4983V58.3165H109.911V59.6389H105.133V62.7412H109.459V64.0587H105.133V68.4983H103.597ZM114.337 68.6524C113.621 68.6524 112.996 68.4883 112.463 68.1602C111.929 67.8321 111.515 67.3731 111.22 66.7831C110.925 66.1931 110.777 65.5037 110.777 64.7149C110.777 63.9228 110.925 63.2301 111.22 62.6368C111.515 62.0435 111.929 61.5828 112.463 61.2547C112.996 60.9266 113.621 60.7625 114.337 60.7625C115.053 60.7625 115.678 60.9266 116.211 61.2547C116.745 61.5828 117.159 62.0435 117.454 62.6368C117.749 63.2301 117.897 63.9228 117.897 64.7149C117.897 65.5037 117.749 66.1931 117.454 66.7831C117.159 67.3731 116.745 67.8321 116.211 68.1602C115.678 68.4883 115.053 68.6524 114.337 68.6524ZM114.342 67.4045C114.806 67.4045 115.19 67.2819 115.495 67.0366C115.8 66.7914 116.026 66.4649 116.172 66.0572C116.321 65.6496 116.395 65.2005 116.395 64.7099C116.395 64.2227 116.321 63.7753 116.172 63.3676C116.026 62.9566 115.8 62.6268 115.495 62.3783C115.19 62.1297 114.806 62.0054 114.342 62.0054C113.875 62.0054 113.487 62.1297 113.179 62.3783C112.874 62.6268 112.647 62.9566 112.498 63.3676C112.352 63.7753 112.279 64.2227 112.279 64.7099C112.279 65.2005 112.352 65.6496 112.498 66.0572C112.647 66.4649 112.874 66.7914 113.179 67.0366C113.487 67.2819 113.875 67.4045 114.342 67.4045ZM121.042 58.3165V68.4983H119.556V58.3165H121.042ZM125.901 68.6474C125.284 68.6474 124.734 68.49 124.25 68.1751C123.77 67.857 123.392 67.4045 123.117 66.8179C122.845 66.2279 122.709 65.5203 122.709 64.695C122.709 63.8697 122.847 63.1638 123.122 62.5771C123.4 61.9905 123.781 61.5414 124.265 61.2298C124.749 60.9183 125.298 60.7625 125.911 60.7625C126.385 60.7625 126.766 60.842 127.054 61.0011C127.346 61.1569 127.571 61.3392 127.73 61.548C127.893 61.7568 128.019 61.9408 128.108 62.0999H128.198V58.3165H129.684V68.4983H128.233V67.3101H128.108C128.019 67.4725 127.89 67.6581 127.721 67.8669C127.555 68.0757 127.326 68.258 127.034 68.4138C126.743 68.5696 126.365 68.6474 125.901 68.6474ZM126.229 67.3797C126.657 67.3797 127.018 67.267 127.313 67.0416C127.611 66.8129 127.837 66.4964 127.989 66.092C128.145 65.6877 128.223 65.217 128.223 64.6801C128.223 64.1498 128.146 63.6858 127.994 63.2881C127.842 62.8903 127.618 62.5804 127.323 62.3584C127.028 62.1363 126.663 62.0253 126.229 62.0253C125.782 62.0253 125.409 62.1413 125.11 62.3733C124.812 62.6053 124.587 62.9218 124.434 63.3229C124.285 63.7239 124.211 64.1763 124.211 64.6801C124.211 65.1905 124.287 65.6496 124.439 66.0572C124.592 66.4649 124.817 66.7881 125.115 67.0267C125.417 67.262 125.788 67.3797 126.229 67.3797ZM135.097 68.6524C134.345 68.6524 133.697 68.4917 133.153 68.1702C132.613 67.8454 132.195 67.3896 131.9 66.803C131.609 66.213 131.463 65.522 131.463 64.7298C131.463 63.9476 131.609 63.2582 131.9 62.6616C132.195 62.0651 132.606 61.5994 133.133 61.2646C133.664 60.9299 134.283 60.7625 134.993 60.7625C135.424 60.7625 135.841 60.8338 136.246 60.9763C136.65 61.1188 137.013 61.3425 137.334 61.6474C137.656 61.9524 137.909 62.3484 138.095 62.8356C138.281 63.3196 138.373 63.9079 138.373 64.6006V65.1276H132.303V64.0139H136.917C136.917 63.6228 136.837 63.2765 136.678 62.9749C136.519 62.6699 136.295 62.4296 136.007 62.254C135.722 62.0783 135.387 61.9905 135.003 61.9905C134.585 61.9905 134.22 62.0932 133.909 62.2987C133.601 62.5009 133.362 62.766 133.193 63.0942C133.027 63.419 132.944 63.772 132.944 64.1531V65.0231C132.944 65.5336 133.034 65.9678 133.213 66.3257C133.395 66.6837 133.649 66.9571 133.974 67.146C134.298 67.3316 134.678 67.4244 135.112 67.4244C135.394 67.4244 135.651 67.3847 135.883 67.3051C136.115 67.2222 136.315 67.0996 136.484 66.9372C136.653 66.7748 136.782 66.5743 136.872 66.3356L138.279 66.5892C138.166 67.0035 137.964 67.3664 137.672 67.678C137.384 67.9862 137.021 68.2265 136.584 68.3989C136.149 68.5679 135.654 68.6524 135.097 68.6524ZM140.023 68.4983V60.8619H141.46V62.075H141.539C141.678 61.664 141.924 61.3409 142.275 61.1055C142.629 60.8669 143.031 60.7476 143.478 60.7476C143.571 60.7476 143.68 60.7509 143.806 60.7575C143.935 60.7642 144.036 60.7724 144.109 60.7824V62.2043C144.05 62.1877 143.944 62.1695 143.791 62.1496C143.639 62.1264 143.486 62.1148 143.334 62.1148C142.982 62.1148 142.669 62.1893 142.394 62.3385C142.122 62.4843 141.907 62.6882 141.748 62.95C141.589 63.2085 141.509 63.5035 141.509 63.8349V68.4983H140.023ZM149.214 68.4983L150.884 58.3165H152.078L150.407 68.4983H149.214ZM144.605 65.7739L144.799 64.5807H152.515L152.321 65.7739H144.605ZM145.634 68.4983L147.305 58.3165H148.498L146.828 68.4983H145.634ZM145.197 62.2341L145.391 61.0409H153.107L152.913 62.2341H145.197Z" fill="#977669"/>
<path d="M154.429 68.4983V58.3165H160.813V59.6389H155.965V62.7412H160.48V64.0587H155.965V67.1758H160.872V68.4983H154.429ZM165.604 68.6474C164.988 68.6474 164.437 68.49 163.953 68.1751C163.473 67.857 163.095 67.4045 162.82 66.8179C162.548 66.2279 162.412 65.5203 162.412 64.695C162.412 63.8697 162.55 63.1638 162.825 62.5771C163.103 61.9905 163.484 61.5414 163.968 61.2298C164.452 60.9183 165.001 60.7625 165.614 60.7625C166.088 60.7625 166.469 60.842 166.757 61.0011C167.049 61.1569 167.275 61.3392 167.434 61.548C167.596 61.7568 167.722 61.9408 167.811 62.0999H167.901V58.3165H169.387V68.4983H167.936V67.3101H167.811C167.722 67.4725 167.593 67.6581 167.424 67.8669C167.258 68.0757 167.029 68.258 166.738 68.4138C166.446 68.5696 166.068 68.6474 165.604 68.6474ZM165.932 67.3797C166.36 67.3797 166.721 67.267 167.016 67.0416C167.314 66.8129 167.54 66.4964 167.692 66.092C167.848 65.6877 167.926 65.217 167.926 64.6801C167.926 64.1498 167.85 63.6858 167.697 63.2881C167.545 62.8903 167.321 62.5804 167.026 62.3584C166.731 62.1363 166.366 62.0253 165.932 62.0253C165.485 62.0253 165.112 62.1413 164.814 62.3733C164.515 62.6053 164.29 62.9218 164.137 63.3229C163.988 63.7239 163.914 64.1763 163.914 64.6801C163.914 65.1905 163.99 65.6496 164.142 66.0572C164.295 66.4649 164.52 66.7881 164.819 67.0267C165.12 67.262 165.491 67.3797 165.932 67.3797ZM171.509 68.4983V60.8619H172.996V68.4983H171.509ZM172.26 59.6837C172.001 59.6837 171.779 59.5975 171.594 59.4251C171.411 59.2495 171.32 59.0407 171.32 58.7987C171.32 58.5535 171.411 58.3446 171.594 58.1723C171.779 57.9966 172.001 57.9088 172.26 57.9088C172.518 57.9088 172.739 57.9966 172.921 58.1723C173.107 58.3446 173.199 58.5535 173.199 58.7987C173.199 59.0407 173.107 59.2495 172.921 59.4251C172.739 59.5975 172.518 59.6837 172.26 59.6837ZM178.56 60.8619V62.0551H174.389V60.8619H178.56ZM175.507 59.0324H176.994V66.2561C176.994 66.5445 177.037 66.7615 177.123 66.9074C177.209 67.0499 177.32 67.1477 177.456 67.2007C177.596 67.2504 177.746 67.2753 177.909 67.2753C178.028 67.2753 178.132 67.267 178.222 67.2504C178.311 67.2338 178.381 67.2206 178.431 67.2106L178.699 68.4386C178.613 68.4718 178.49 68.5049 178.331 68.5381C178.172 68.5745 177.973 68.5944 177.735 68.5977C177.344 68.6044 176.979 68.5347 176.641 68.3889C176.303 68.2431 176.029 68.0177 175.821 67.7128C175.612 67.4079 175.507 67.025 175.507 66.5643V59.0324ZM183.339 68.6524C182.623 68.6524 181.998 68.4883 181.465 68.1602C180.931 67.8321 180.517 67.3731 180.222 66.7831C179.927 66.1931 179.779 65.5037 179.779 64.7149C179.779 63.9228 179.927 63.2301 180.222 62.6368C180.517 62.0435 180.931 61.5828 181.465 61.2547C181.998 60.9266 182.623 60.7625 183.339 60.7625C184.055 60.7625 184.68 60.9266 185.213 61.2547C185.747 61.5828 186.161 62.0435 186.456 62.6368C186.751 63.2301 186.899 63.9228 186.899 64.7149C186.899 65.5037 186.751 66.1931 186.456 66.7831C186.161 67.3731 185.747 67.8321 185.213 68.1602C184.68 68.4883 184.055 68.6524 183.339 68.6524ZM183.344 67.4045C183.808 67.4045 184.192 67.2819 184.497 67.0366C184.802 66.7914 185.028 66.4649 185.173 66.0572C185.323 65.6496 185.397 65.2005 185.397 64.7099C185.397 64.2227 185.323 63.7753 185.173 63.3676C185.028 62.9566 184.802 62.6268 184.497 62.3783C184.192 62.1297 183.808 62.0054 183.344 62.0054C182.877 62.0054 182.489 62.1297 182.181 62.3783C181.876 62.6268 181.649 62.9566 181.499 63.3676C181.354 63.7753 181.281 64.2227 181.281 64.7099C181.281 65.2005 181.354 65.6496 181.499 66.0572C181.649 66.4649 181.876 66.7914 182.181 67.0366C182.489 67.2819 182.877 67.4045 183.344 67.4045ZM188.558 68.4983V60.8619H189.995V62.075H190.074C190.213 61.664 190.459 61.3409 190.81 61.1055C191.165 60.8669 191.566 60.7476 192.013 60.7476C192.106 60.7476 192.215 60.7509 192.341 60.7575C192.471 60.7642 192.572 60.7724 192.645 60.7824V62.2043C192.585 62.1877 192.479 62.1695 192.326 62.1496C192.174 62.1264 192.021 62.1148 191.869 62.1148C191.518 62.1148 191.204 62.1893 190.929 62.3385C190.658 62.4843 190.442 62.6882 190.283 62.95C190.124 63.2085 190.044 63.5035 190.044 63.8349V68.4983H188.558Z" fill="#43302B"/>
<rect x="352.205" y="49.4983" width="99" height="28" rx="14" fill="#EADDD7"/>
<path d="M365.335 68.4983V58.3165H371.649V59.6389H366.872V62.7412H371.197V64.0587H366.872V68.4983H365.335ZM373.419 68.4983V60.8619H374.906V68.4983H373.419ZM374.17 59.6837C373.911 59.6837 373.689 59.5975 373.504 59.4251C373.321 59.2495 373.23 59.0407 373.23 58.7987C373.23 58.5535 373.321 58.3446 373.504 58.1723C373.689 57.9966 373.911 57.9088 374.17 57.9088C374.428 57.9088 374.649 57.9966 374.831 58.1723C375.017 58.3446 375.11 58.5535 375.11 58.7987C375.11 59.0407 375.017 59.2495 374.831 59.4251C374.649 59.5975 374.428 59.6837 374.17 59.6837ZM378.392 58.3165V68.4983H376.906V58.3165H378.392ZM383.683 68.6524C382.931 68.6524 382.283 68.4917 381.739 68.1702C381.199 67.8454 380.781 67.3896 380.486 66.803C380.195 66.213 380.049 65.522 380.049 64.7298C380.049 63.9476 380.195 63.2582 380.486 62.6616C380.781 62.0651 381.192 61.5994 381.719 61.2646C382.25 60.9299 382.869 60.7625 383.579 60.7625C384.01 60.7625 384.427 60.8338 384.831 60.9763C385.236 61.1188 385.599 61.3425 385.92 61.6474C386.242 61.9524 386.495 62.3484 386.681 62.8356C386.867 63.3196 386.959 63.9079 386.959 64.6006V65.1276H380.889V64.0139H385.503C385.503 63.6228 385.423 63.2765 385.264 62.9749C385.105 62.6699 384.881 62.4296 384.593 62.254C384.308 62.0783 383.973 61.9905 383.589 61.9905C383.171 61.9905 382.806 62.0932 382.495 62.2987C382.187 62.5009 381.948 62.766 381.779 63.0942C381.613 63.419 381.53 63.772 381.53 64.1531V65.0231C381.53 65.5336 381.62 65.9678 381.799 66.3257C381.981 66.6837 382.235 66.9571 382.559 67.146C382.884 67.3316 383.264 67.4244 383.698 67.4244C383.98 67.4244 384.237 67.3847 384.469 67.3051C384.701 67.2222 384.901 67.0996 385.07 66.9372C385.239 66.7748 385.368 66.5743 385.458 66.3356L386.865 66.5892C386.752 67.0035 386.55 67.3664 386.258 67.678C385.97 67.9862 385.607 68.2265 385.17 68.3989C384.735 68.5679 384.24 68.6524 383.683 68.6524ZM392.427 68.4983L394.097 58.3165H395.29L393.62 68.4983H392.427ZM387.818 65.7739L388.012 64.5807H395.728L395.534 65.7739H387.818ZM388.847 68.4983L390.518 58.3165H391.711L390.04 68.4983H388.847ZM388.41 62.2341L388.604 61.0409H396.32L396.126 62.2341H388.41Z" fill="#977669"/>
<path d="M398.502 68.4983H396.871L400.536 58.3165H402.31L405.974 68.4983H404.344L401.465 60.1659H401.386L398.502 68.4983ZM398.776 64.5111H404.065V65.8037H398.776V64.5111ZM410.061 68.6474C409.445 68.6474 408.894 68.49 408.411 68.1751C407.93 67.857 407.552 67.4045 407.277 66.8179C407.005 66.2279 406.869 65.5203 406.869 64.695C406.869 63.8697 407.007 63.1638 407.282 62.5771C407.56 61.9905 407.942 61.5414 408.425 61.2298C408.909 60.9183 409.458 60.7625 410.071 60.7625C410.545 60.7625 410.926 60.842 411.214 61.0011C411.506 61.1569 411.732 61.3392 411.891 61.548C412.053 61.7568 412.179 61.9408 412.268 62.0999H412.358V58.3165H413.844V68.4983H412.393V67.3101H412.268C412.179 67.4725 412.05 67.6581 411.881 67.8669C411.715 68.0757 411.486 68.258 411.195 68.4138C410.903 68.5696 410.525 68.6474 410.061 68.6474ZM410.389 67.3797C410.817 67.3797 411.178 67.267 411.473 67.0416C411.771 66.8129 411.997 66.4964 412.149 66.092C412.305 65.6877 412.383 65.217 412.383 64.6801C412.383 64.1498 412.307 63.6858 412.154 63.2881C412.002 62.8903 411.778 62.5804 411.483 62.3584C411.188 62.1363 410.823 62.0253 410.389 62.0253C409.942 62.0253 409.569 62.1413 409.271 62.3733C408.972 62.6053 408.747 62.9218 408.594 63.3229C408.445 63.7239 408.371 64.1763 408.371 64.6801C408.371 65.1905 408.447 65.6496 408.599 66.0572C408.752 66.4649 408.977 66.7881 409.276 67.0267C409.577 67.262 409.948 67.3797 410.389 67.3797ZM415.966 68.4983V60.8619H417.393V62.1048H417.487C417.646 61.6839 417.907 61.3558 418.268 61.1205C418.629 60.8818 419.062 60.7625 419.566 60.7625C420.076 60.7625 420.503 60.8818 420.848 61.1205C421.196 61.3591 421.453 61.6872 421.619 62.1048H421.698C421.881 61.6972 422.171 61.3723 422.568 61.1304C422.966 60.8851 423.44 60.7625 423.99 60.7625C424.683 60.7625 425.248 60.9796 425.686 61.4138C426.126 61.848 426.347 62.5026 426.347 63.3776V68.4983H424.86V63.5168C424.86 62.9997 424.719 62.6252 424.438 62.3932C424.156 62.1612 423.82 62.0452 423.428 62.0452C422.945 62.0452 422.568 62.1943 422.3 62.4926C422.031 62.7876 421.897 63.1671 421.897 63.6311V68.4983H420.416V63.4223C420.416 63.008 420.286 62.6749 420.028 62.423C419.769 62.1711 419.433 62.0452 419.019 62.0452C418.737 62.0452 418.477 62.1197 418.238 62.2689C418.003 62.4147 417.812 62.6186 417.666 62.8804C417.524 63.1422 417.453 63.4455 417.453 63.7902V68.4983H415.966ZM428.339 68.4983V60.8619H429.826V68.4983H428.339ZM429.09 59.6837C428.831 59.6837 428.609 59.5975 428.424 59.4251C428.241 59.2495 428.15 59.0407 428.15 58.7987C428.15 58.5535 428.241 58.3446 428.424 58.1723C428.609 57.9966 428.831 57.9088 429.09 57.9088C429.348 57.9088 429.569 57.9966 429.751 58.1723C429.937 58.3446 430.029 58.5535 430.029 58.7987C430.029 59.0407 429.937 59.2495 429.751 59.4251C429.569 59.5975 429.348 59.6837 429.09 59.6837ZM433.312 63.9642V68.4983H431.825V60.8619H433.252V62.1048H433.347C433.522 61.7005 433.798 61.3757 434.172 61.1304C434.55 60.8851 435.026 60.7625 435.599 60.7625C436.119 60.7625 436.575 60.8719 436.966 61.0906C437.357 61.3061 437.66 61.6276 437.876 62.0551C438.091 62.4827 438.199 63.0113 438.199 63.641V68.4983H436.713V63.82C436.713 63.2665 436.568 62.834 436.28 62.5224C435.992 62.2076 435.596 62.0501 435.092 62.0501C434.747 62.0501 434.441 62.1247 434.172 62.2739C433.907 62.423 433.696 62.6418 433.541 62.9301C433.388 63.2151 433.312 63.5598 433.312 63.9642Z" fill="#43302B"/>
<rect x="90.2051" y="189.498" width="118" height="28" rx="14" fill="#EADDD7"/>
<path d="M103.573 208.498V198.316H109.887V199.639H105.109V202.741H109.434V204.059H105.109V208.498H103.573ZM114.313 208.652C113.597 208.652 112.972 208.488 112.438 208.16C111.905 207.832 111.49 207.373 111.195 206.783C110.9 206.193 110.753 205.504 110.753 204.715C110.753 203.923 110.9 203.23 111.195 202.637C111.49 202.044 111.905 201.583 112.438 201.255C112.972 200.927 113.597 200.762 114.313 200.762C115.028 200.762 115.653 200.927 116.187 201.255C116.72 201.583 117.135 202.044 117.43 202.637C117.725 203.23 117.872 203.923 117.872 204.715C117.872 205.504 117.725 206.193 117.43 206.783C117.135 207.373 116.72 207.832 116.187 208.16C115.653 208.488 115.028 208.652 114.313 208.652ZM114.318 207.405C114.782 207.405 115.166 207.282 115.471 207.037C115.776 206.791 116.001 206.465 116.147 206.057C116.296 205.65 116.371 205.2 116.371 204.71C116.371 204.223 116.296 203.775 116.147 203.368C116.001 202.957 115.776 202.627 115.471 202.378C115.166 202.13 114.782 202.005 114.318 202.005C113.85 202.005 113.462 202.13 113.154 202.378C112.849 202.627 112.622 202.957 112.473 203.368C112.327 203.775 112.254 204.223 112.254 204.71C112.254 205.2 112.327 205.65 112.473 206.057C112.622 206.465 112.849 206.791 113.154 207.037C113.462 207.282 113.85 207.405 114.318 207.405ZM121.018 198.316V208.498H119.532V198.316H121.018ZM125.877 208.647C125.26 208.647 124.71 208.49 124.226 208.175C123.745 207.857 123.368 207.405 123.092 206.818C122.821 206.228 122.685 205.52 122.685 204.695C122.685 203.87 122.822 203.164 123.097 202.577C123.376 201.99 123.757 201.541 124.241 201.23C124.725 200.918 125.273 200.762 125.886 200.762C126.36 200.762 126.742 200.842 127.03 201.001C127.322 201.157 127.547 201.339 127.706 201.548C127.868 201.757 127.994 201.941 128.084 202.1H128.173V198.316H129.66V208.498H128.208V207.31H128.084C127.994 207.472 127.865 207.658 127.696 207.867C127.53 208.076 127.302 208.258 127.01 208.414C126.718 208.57 126.341 208.647 125.877 208.647ZM126.205 207.38C126.632 207.38 126.993 207.267 127.288 207.042C127.587 206.813 127.812 206.496 127.965 206.092C128.12 205.688 128.198 205.217 128.198 204.68C128.198 204.15 128.122 203.686 127.97 203.288C127.817 202.89 127.593 202.58 127.298 202.358C127.003 202.136 126.639 202.025 126.205 202.025C125.757 202.025 125.384 202.141 125.086 202.373C124.788 202.605 124.562 202.922 124.41 203.323C124.261 203.724 124.186 204.176 124.186 204.68C124.186 205.191 124.262 205.65 124.415 206.057C124.567 206.465 124.793 206.788 125.091 207.027C125.393 207.262 125.764 207.38 126.205 207.38ZM135.073 208.652C134.32 208.652 133.672 208.492 133.129 208.17C132.589 207.845 132.171 207.39 131.876 206.803C131.584 206.213 131.438 205.522 131.438 204.73C131.438 203.948 131.584 203.258 131.876 202.662C132.171 202.065 132.582 201.599 133.109 201.265C133.639 200.93 134.259 200.762 134.968 200.762C135.399 200.762 135.817 200.834 136.221 200.976C136.626 201.119 136.988 201.343 137.31 201.647C137.631 201.952 137.885 202.348 138.071 202.836C138.256 203.32 138.349 203.908 138.349 204.601V205.128H132.279V204.014H136.892C136.892 203.623 136.813 203.276 136.654 202.975C136.495 202.67 136.271 202.43 135.983 202.254C135.697 202.078 135.363 201.99 134.978 201.99C134.561 201.99 134.196 202.093 133.884 202.299C133.576 202.501 133.338 202.766 133.169 203.094C133.003 203.419 132.92 203.772 132.92 204.153V205.023C132.92 205.534 133.009 205.968 133.188 206.326C133.371 206.684 133.624 206.957 133.949 207.146C134.274 207.332 134.653 207.424 135.088 207.424C135.369 207.424 135.626 207.385 135.858 207.305C136.09 207.222 136.291 207.1 136.46 206.937C136.629 206.775 136.758 206.574 136.848 206.336L138.255 206.589C138.142 207.003 137.94 207.366 137.648 207.678C137.36 207.986 136.997 208.227 136.559 208.399C136.125 208.568 135.63 208.652 135.073 208.652ZM139.998 208.498V200.862H141.435V202.075H141.515C141.654 201.664 141.899 201.341 142.25 201.106C142.605 200.867 143.006 200.748 143.454 200.748C143.546 200.748 143.656 200.751 143.782 200.758C143.911 200.764 144.012 200.772 144.085 200.782V202.204C144.025 202.188 143.919 202.169 143.767 202.15C143.614 202.126 143.462 202.115 143.309 202.115C142.958 202.115 142.645 202.189 142.37 202.338C142.098 202.484 141.883 202.688 141.723 202.95C141.564 203.209 141.485 203.503 141.485 203.835V208.498H139.998ZM149.19 208.498L150.86 198.316H152.053L150.383 208.498H149.19ZM144.581 205.774L144.775 204.581H152.491L152.297 205.774H144.581ZM145.61 208.498L147.28 198.316H148.474L146.803 208.498H145.61ZM145.172 202.234L145.366 201.041H153.082L152.888 202.234H145.172Z" fill="#977669"/>
<path d="M155.265 208.498H153.634L157.298 198.316H159.073L162.737 208.498H161.106L158.228 200.166H158.148L155.265 208.498ZM155.538 204.511H160.828V205.804H155.538V204.511ZM166.824 208.647C166.207 208.647 165.657 208.49 165.173 208.175C164.693 207.857 164.315 207.405 164.04 206.818C163.768 206.228 163.632 205.52 163.632 204.695C163.632 203.87 163.77 203.164 164.045 202.577C164.323 201.99 164.704 201.541 165.188 201.23C165.672 200.918 166.221 200.762 166.834 200.762C167.308 200.762 167.689 200.842 167.977 201.001C168.269 201.157 168.494 201.339 168.653 201.548C168.816 201.757 168.942 201.941 169.031 202.1H169.121V198.316H170.607V208.498H169.155V207.31H169.031C168.942 207.472 168.812 207.658 168.643 207.867C168.478 208.076 168.249 208.258 167.957 208.414C167.666 208.57 167.288 208.647 166.824 208.647ZM167.152 207.38C167.579 207.38 167.941 207.267 168.236 207.042C168.534 206.813 168.759 206.496 168.912 206.092C169.068 205.688 169.146 205.217 169.146 204.68C169.146 204.15 169.069 203.686 168.917 203.288C168.764 202.89 168.541 202.58 168.246 202.358C167.951 202.136 167.586 202.025 167.152 202.025C166.704 202.025 166.332 202.141 166.033 202.373C165.735 202.605 165.51 202.922 165.357 203.323C165.208 203.724 165.133 204.176 165.133 204.68C165.133 205.191 165.21 205.65 165.362 206.057C165.515 206.465 165.74 206.788 166.038 207.027C166.34 207.262 166.711 207.38 167.152 207.38ZM172.729 208.498V200.862H174.156V202.105H174.25C174.409 201.684 174.669 201.356 175.031 201.12C175.392 200.882 175.824 200.762 176.328 200.762C176.839 200.762 177.266 200.882 177.611 201.12C177.959 201.359 178.216 201.687 178.381 202.105H178.461C178.643 201.697 178.933 201.372 179.331 201.13C179.729 200.885 180.203 200.762 180.753 200.762C181.446 200.762 182.011 200.98 182.448 201.414C182.889 201.848 183.109 202.503 183.109 203.378V208.498H181.623V203.517C181.623 203 181.482 202.625 181.2 202.393C180.919 202.161 180.582 202.045 180.191 202.045C179.707 202.045 179.331 202.194 179.063 202.493C178.794 202.788 178.66 203.167 178.66 203.631V208.498H177.178V203.422C177.178 203.008 177.049 202.675 176.791 202.423C176.532 202.171 176.196 202.045 175.781 202.045C175.5 202.045 175.239 202.12 175.001 202.269C174.765 202.415 174.575 202.619 174.429 202.88C174.287 203.142 174.215 203.445 174.215 203.79V208.498H172.729ZM185.102 208.498V200.862H186.588V208.498H185.102ZM185.853 199.684C185.594 199.684 185.372 199.597 185.186 199.425C185.004 199.249 184.913 199.041 184.913 198.799C184.913 198.553 185.004 198.345 185.186 198.172C185.372 197.997 185.594 197.909 185.853 197.909C186.111 197.909 186.331 197.997 186.514 198.172C186.699 198.345 186.792 198.553 186.792 198.799C186.792 199.041 186.699 199.249 186.514 199.425C186.331 199.597 186.111 199.684 185.853 199.684ZM190.075 203.964V208.498H188.588V200.862H190.015V202.105H190.109C190.285 201.7 190.56 201.376 190.935 201.13C191.313 200.885 191.788 200.762 192.362 200.762C192.882 200.762 193.338 200.872 193.729 201.091C194.12 201.306 194.423 201.628 194.639 202.055C194.854 202.483 194.962 203.011 194.962 203.641V208.498H193.475V203.82C193.475 203.267 193.331 202.834 193.043 202.522C192.754 202.208 192.358 202.05 191.854 202.05C191.51 202.05 191.203 202.125 190.935 202.274C190.67 202.423 190.459 202.642 190.303 202.93C190.151 203.215 190.075 203.56 190.075 203.964Z" fill="#43302B"/>
<rect x="352.205" y="189.498" width="96" height="28" rx="14" fill="#EADDD7"/>
<path d="M365.36 208.498V198.316H371.674V199.639H366.896V202.741H371.221V204.059H366.896V208.498H365.36ZM373.444 208.498V200.862H374.93V208.498H373.444ZM374.194 199.684C373.936 199.684 373.714 199.597 373.528 199.425C373.346 199.249 373.255 199.041 373.255 198.799C373.255 198.553 373.346 198.345 373.528 198.172C373.714 197.997 373.936 197.909 374.194 197.909C374.453 197.909 374.673 197.997 374.856 198.172C375.041 198.345 375.134 198.553 375.134 198.799C375.134 199.041 375.041 199.249 374.856 199.425C374.673 199.597 374.453 199.684 374.194 199.684ZM378.416 198.316V208.498H376.93V198.316H378.416ZM383.707 208.652C382.955 208.652 382.307 208.492 381.764 208.17C381.223 207.845 380.806 207.39 380.511 206.803C380.219 206.213 380.073 205.522 380.073 204.73C380.073 203.948 380.219 203.258 380.511 202.662C380.806 202.065 381.217 201.599 381.744 201.265C382.274 200.93 382.894 200.762 383.603 200.762C384.034 200.762 384.452 200.834 384.856 200.976C385.26 201.119 385.623 201.343 385.945 201.647C386.266 201.952 386.52 202.348 386.705 202.836C386.891 203.32 386.984 203.908 386.984 204.601V205.128H380.913V204.014H385.527C385.527 203.623 385.448 203.276 385.288 202.975C385.129 202.67 384.906 202.43 384.617 202.254C384.332 202.078 383.997 201.99 383.613 201.99C383.195 201.99 382.831 202.093 382.519 202.299C382.211 202.501 381.972 202.766 381.803 203.094C381.638 203.419 381.555 203.772 381.555 204.153V205.023C381.555 205.534 381.644 205.968 381.823 206.326C382.006 206.684 382.259 206.957 382.584 207.146C382.909 207.332 383.288 207.424 383.722 207.424C384.004 207.424 384.261 207.385 384.493 207.305C384.725 207.222 384.926 207.1 385.095 206.937C385.264 206.775 385.393 206.574 385.482 206.336L386.889 206.589C386.777 207.003 386.574 207.366 386.283 207.678C385.994 207.986 385.631 208.227 385.194 208.399C384.76 208.568 384.264 208.652 383.707 208.652ZM392.451 208.498L394.122 198.316H395.315L393.644 208.498H392.451ZM387.843 205.774L388.036 204.581H395.752L395.559 205.774H387.843ZM388.872 208.498L390.542 198.316H391.735L390.065 208.498H388.872ZM388.434 202.234L388.628 201.041H396.344L396.15 202.234H388.434Z" fill="#977669"/>
<path d="M397.666 208.498V198.316H404.05V199.639H399.203V202.741H403.717V204.059H399.203V207.176H404.11V208.498H397.666ZM408.841 208.647C408.225 208.647 407.675 208.49 407.191 208.175C406.71 207.857 406.332 207.405 406.057 206.818C405.785 206.228 405.65 205.52 405.65 204.695C405.65 203.87 405.787 203.164 406.062 202.577C406.341 201.99 406.722 201.541 407.206 201.23C407.69 200.918 408.238 200.762 408.851 200.762C409.325 200.762 409.706 200.842 409.995 201.001C410.286 201.157 410.512 201.339 410.671 201.548C410.833 201.757 410.959 201.941 411.049 202.1H411.138V198.316H412.625V208.498H411.173V207.31H411.049C410.959 207.472 410.83 207.658 410.661 207.867C410.495 208.076 410.267 208.258 409.975 208.414C409.683 208.57 409.305 208.647 408.841 208.647ZM409.169 207.38C409.597 207.38 409.958 207.267 410.253 207.042C410.552 206.813 410.777 206.496 410.929 206.092C411.085 205.688 411.163 205.217 411.163 204.68C411.163 204.15 411.087 203.686 410.934 203.288C410.782 202.89 410.558 202.58 410.263 202.358C409.968 202.136 409.604 202.025 409.169 202.025C408.722 202.025 408.349 202.141 408.051 202.373C407.753 202.605 407.527 202.922 407.375 203.323C407.226 203.724 407.151 204.176 407.151 204.68C407.151 205.191 407.227 205.65 407.38 206.057C407.532 206.465 407.758 206.788 408.056 207.027C408.357 207.262 408.729 207.38 409.169 207.38ZM414.746 208.498V200.862H416.233V208.498H414.746ZM415.497 199.684C415.239 199.684 415.016 199.597 414.831 199.425C414.649 199.249 414.557 199.041 414.557 198.799C414.557 198.553 414.649 198.345 414.831 198.172C415.016 197.997 415.239 197.909 415.497 197.909C415.756 197.909 415.976 197.997 416.158 198.172C416.344 198.345 416.437 198.553 416.437 198.799C416.437 199.041 416.344 199.249 416.158 199.425C415.976 199.597 415.756 199.684 415.497 199.684ZM421.797 200.862V202.055H417.626V200.862H421.797ZM418.745 199.032H420.231V206.256C420.231 206.544 420.274 206.762 420.361 206.907C420.447 207.05 420.558 207.148 420.694 207.201C420.833 207.25 420.984 207.275 421.146 207.275C421.265 207.275 421.37 207.267 421.459 207.25C421.549 207.234 421.618 207.221 421.668 207.211L421.937 208.439C421.85 208.472 421.728 208.505 421.569 208.538C421.41 208.575 421.211 208.594 420.972 208.598C420.581 208.604 420.216 208.535 419.878 208.389C419.54 208.243 419.267 208.018 419.058 207.713C418.849 207.408 418.745 207.025 418.745 206.564V199.032ZM426.576 208.652C425.86 208.652 425.236 208.488 424.702 208.16C424.168 207.832 423.754 207.373 423.459 206.783C423.164 206.193 423.017 205.504 423.017 204.715C423.017 203.923 423.164 203.23 423.459 202.637C423.754 202.044 424.168 201.583 424.702 201.255C425.236 200.927 425.86 200.762 426.576 200.762C427.292 200.762 427.917 200.927 428.451 201.255C428.984 201.583 429.398 202.044 429.693 202.637C429.988 203.23 430.136 203.923 430.136 204.715C430.136 205.504 429.988 206.193 429.693 206.783C429.398 207.373 428.984 207.832 428.451 208.16C427.917 208.488 427.292 208.652 426.576 208.652ZM426.581 207.405C427.045 207.405 427.43 207.282 427.735 207.037C428.04 206.791 428.265 206.465 428.411 206.057C428.56 205.65 428.634 205.2 428.634 204.71C428.634 204.223 428.56 203.775 428.411 203.368C428.265 202.957 428.04 202.627 427.735 202.378C427.43 202.13 427.045 202.005 426.581 202.005C426.114 202.005 425.726 202.13 425.418 202.378C425.113 202.627 424.886 202.957 424.737 203.368C424.591 203.775 424.518 204.223 424.518 204.71C424.518 205.2 424.591 205.65 424.737 206.057C424.886 206.465 425.113 206.791 425.418 207.037C425.726 207.282 426.114 207.405 426.581 207.405ZM431.795 208.498V200.862H433.232V202.075H433.312C433.451 201.664 433.696 201.341 434.047 201.106C434.402 200.867 434.803 200.748 435.25 200.748C435.343 200.748 435.453 200.751 435.579 200.758C435.708 200.764 435.809 200.772 435.882 200.782V202.204C435.822 202.188 435.716 202.169 435.564 202.15C435.411 202.126 435.259 202.115 435.106 202.115C434.755 202.115 434.442 202.189 434.167 202.338C433.895 202.484 433.679 202.688 433.52 202.95C433.361 203.209 433.282 203.503 433.282 203.835V208.498H431.795Z" fill="#43302B"/>
<path d="M393.106 79.4983V114.464" stroke="#BFA094" stroke-width="2" stroke-linejoin="round" stroke-dasharray="4 4"/>
<path d="M392.356 153.532V188.498" stroke="#BFA094" stroke-width="2" stroke-linejoin="round" stroke-dasharray="4 4"/>
<path d="M162.731 79.4983V114.464" stroke="#BFA094" stroke-width="2" stroke-linejoin="round" stroke-dasharray="4 4"/>
<path d="M162.731 153.532V188.498" stroke="#BFA094" stroke-width="2" stroke-linejoin="round" stroke-dasharray="4 4"/>
<line x1="0.803711" y1="256.998" x2="556.606" y2="256.998" stroke="#FFF1E7" stroke-width="2" stroke-linejoin="round"/>
<g clip-path="url(#clip0_20369_2300)">
<path d="M85.8237 334.498V324.316H89.4529C90.2418 324.316 90.8964 324.452 91.4167 324.724C91.9404 324.996 92.3315 325.372 92.59 325.853C92.8485 326.33 92.9778 326.882 92.9778 327.508C92.9778 328.131 92.8469 328.68 92.585 329.154C92.3265 329.624 91.9354 329.991 91.4118 330.253C90.8914 330.514 90.2368 330.645 89.448 330.645H86.6987V329.323H89.3088C89.8059 329.323 90.2103 329.252 90.5218 329.109C90.8367 328.967 91.0671 328.759 91.2129 328.488C91.3587 328.216 91.4316 327.889 91.4316 327.508C91.4316 327.124 91.3571 326.791 91.2079 326.509C91.0621 326.227 90.8317 326.012 90.5169 325.863C90.2053 325.71 89.796 325.634 89.2889 325.634H87.3599V334.498H85.8237ZM90.85 329.905L93.3656 334.498H91.6156L89.1497 329.905H90.85ZM97.8487 334.652C97.1328 334.652 96.508 334.488 95.9744 334.16C95.4408 333.832 95.0265 333.373 94.7315 332.783C94.4366 332.193 94.2891 331.504 94.2891 330.715C94.2891 329.923 94.4366 329.23 94.7315 328.637C95.0265 328.044 95.4408 327.583 95.9744 327.255C96.508 326.927 97.1328 326.762 97.8487 326.762C98.5646 326.762 99.1894 326.927 99.723 327.255C100.257 327.583 100.671 328.044 100.966 328.637C101.261 329.23 101.408 329.923 101.408 330.715C101.408 331.504 101.261 332.193 100.966 332.783C100.671 333.373 100.257 333.832 99.723 334.16C99.1894 334.488 98.5646 334.652 97.8487 334.652ZM97.8537 333.405C98.3177 333.405 98.7022 333.282 99.0071 333.037C99.312 332.791 99.5374 332.465 99.6832 332.057C99.8324 331.65 99.907 331.2 99.907 330.71C99.907 330.223 99.8324 329.775 99.6832 329.368C99.5374 328.957 99.312 328.627 99.0071 328.378C98.7022 328.13 98.3177 328.005 97.8537 328.005C97.3864 328.005 96.9986 328.13 96.6903 328.378C96.3854 328.627 96.1584 328.957 96.0092 329.368C95.8634 329.775 95.7905 330.223 95.7905 330.71C95.7905 331.2 95.8634 331.65 96.0092 332.057C96.1584 332.465 96.3854 332.791 96.6903 333.037C96.9986 333.282 97.3864 333.405 97.8537 333.405ZM104.554 324.316V334.498H103.068V324.316H104.554ZM109.845 334.652C109.093 334.652 108.445 334.492 107.901 334.17C107.361 333.845 106.943 333.39 106.648 332.803C106.357 332.213 106.211 331.522 106.211 330.73C106.211 329.948 106.357 329.258 106.648 328.662C106.943 328.065 107.354 327.599 107.881 327.265C108.412 326.93 109.031 326.762 109.741 326.762C110.172 326.762 110.589 326.834 110.994 326.976C111.398 327.119 111.761 327.343 112.082 327.647C112.404 327.952 112.657 328.348 112.843 328.836C113.029 329.32 113.121 329.908 113.121 330.601V331.128H107.051V330.014H111.665C111.665 329.623 111.585 329.276 111.426 328.975C111.267 328.67 111.043 328.43 110.755 328.254C110.47 328.078 110.135 327.99 109.751 327.99C109.333 327.99 108.969 328.093 108.657 328.299C108.349 328.501 108.11 328.766 107.941 329.094C107.775 329.419 107.692 329.772 107.692 330.153V331.023C107.692 331.534 107.782 331.968 107.961 332.326C108.143 332.684 108.397 332.957 108.722 333.146C109.046 333.332 109.426 333.424 109.86 333.424C110.142 333.424 110.399 333.385 110.631 333.305C110.863 333.222 111.063 333.1 111.232 332.937C111.401 332.775 111.531 332.574 111.62 332.336L113.027 332.589C112.914 333.003 112.712 333.366 112.42 333.678C112.132 333.986 111.769 334.227 111.332 334.399C110.897 334.568 110.402 334.652 109.845 334.652ZM120.493 328.726L119.146 328.965C119.089 328.793 119 328.628 118.877 328.473C118.758 328.317 118.596 328.189 118.39 328.09C118.185 327.99 117.928 327.941 117.619 327.941C117.199 327.941 116.847 328.035 116.566 328.224C116.284 328.41 116.143 328.65 116.143 328.945C116.143 329.2 116.237 329.406 116.426 329.562C116.615 329.717 116.92 329.845 117.341 329.944L118.554 330.223C119.257 330.385 119.78 330.635 120.125 330.973C120.47 331.312 120.642 331.751 120.642 332.291C120.642 332.748 120.51 333.156 120.244 333.514C119.983 333.869 119.616 334.147 119.146 334.349C118.678 334.551 118.137 334.652 117.52 334.652C116.665 334.652 115.967 334.47 115.427 334.106C114.887 333.738 114.555 333.216 114.433 332.539L115.869 332.321C115.959 332.695 116.143 332.979 116.421 333.171C116.7 333.36 117.063 333.454 117.51 333.454C117.997 333.454 118.387 333.353 118.678 333.151C118.97 332.945 119.116 332.695 119.116 332.4C119.116 332.162 119.026 331.961 118.847 331.799C118.672 331.636 118.402 331.514 118.037 331.431L116.744 331.147C116.032 330.985 115.505 330.727 115.164 330.372C114.825 330.017 114.656 329.568 114.656 329.025C114.656 328.574 114.782 328.179 115.034 327.841C115.286 327.503 115.634 327.24 116.078 327.051C116.522 326.859 117.031 326.762 117.605 326.762C118.43 326.762 119.079 326.941 119.553 327.299C120.027 327.654 120.341 328.13 120.493 328.726ZM129.198 334.652C128.482 334.652 127.858 334.488 127.324 334.16C126.79 333.832 126.376 333.373 126.081 332.783C125.786 332.193 125.639 331.504 125.639 330.715C125.639 329.923 125.786 329.23 126.081 328.637C126.376 328.044 126.79 327.583 127.324 327.255C127.858 326.927 128.482 326.762 129.198 326.762C129.914 326.762 130.539 326.927 131.073 327.255C131.606 327.583 132.021 328.044 132.316 328.637C132.61 329.23 132.758 329.923 132.758 330.715C132.758 331.504 132.61 332.193 132.316 332.783C132.021 333.373 131.606 333.832 131.073 334.16C130.539 334.488 129.914 334.652 129.198 334.652ZM129.203 333.405C129.667 333.405 130.052 333.282 130.357 333.037C130.662 332.791 130.887 332.465 131.033 332.057C131.182 331.65 131.257 331.2 131.257 330.71C131.257 330.223 131.182 329.775 131.033 329.368C130.887 328.957 130.662 328.627 130.357 328.378C130.052 328.13 129.667 328.005 129.203 328.005C128.736 328.005 128.348 328.13 128.04 328.378C127.735 328.627 127.508 328.957 127.359 329.368C127.213 329.775 127.14 330.223 127.14 330.71C127.14 331.2 127.213 331.65 127.359 332.057C127.508 332.465 127.735 332.791 128.04 333.037C128.348 333.282 128.736 333.405 129.203 333.405ZM135.904 329.964V334.498H134.417V326.862H135.844V328.105H135.939C136.114 327.7 136.389 327.376 136.764 327.13C137.142 326.885 137.617 326.762 138.191 326.762C138.711 326.762 139.167 326.872 139.558 327.091C139.949 327.306 140.252 327.628 140.468 328.055C140.683 328.483 140.791 329.011 140.791 329.641V334.498H139.304V329.82C139.304 329.267 139.16 328.834 138.872 328.522C138.583 328.208 138.187 328.05 137.684 328.05C137.339 328.05 137.032 328.125 136.764 328.274C136.499 328.423 136.288 328.642 136.132 328.93C135.98 329.215 135.904 329.56 135.904 329.964ZM150.054 326.862V328.055H145.883V326.862H150.054ZM147.002 325.032H148.488V332.256C148.488 332.544 148.531 332.762 148.617 332.907C148.704 333.05 148.815 333.148 148.95 333.201C149.09 333.25 149.24 333.275 149.403 333.275C149.522 333.275 149.627 333.267 149.716 333.25C149.806 333.234 149.875 333.221 149.925 333.211L150.193 334.439C150.107 334.472 149.985 334.505 149.825 334.538C149.666 334.575 149.468 334.594 149.229 334.598C148.838 334.604 148.473 334.535 148.135 334.389C147.797 334.243 147.524 334.018 147.315 333.713C147.106 333.408 147.002 333.025 147.002 332.564V325.032ZM153.349 329.964V334.498H151.863V324.316H153.329V328.105H153.424C153.603 327.694 153.876 327.367 154.244 327.125C154.612 326.883 155.092 326.762 155.686 326.762C156.209 326.762 156.667 326.87 157.058 327.086C157.452 327.301 157.757 327.623 157.973 328.05C158.191 328.474 158.301 329.005 158.301 329.641V334.498H156.814V329.82C156.814 329.26 156.67 328.826 156.382 328.517C156.093 328.206 155.692 328.05 155.179 328.05C154.827 328.05 154.512 328.125 154.234 328.274C153.959 328.423 153.742 328.642 153.583 328.93C153.427 329.215 153.349 329.56 153.349 329.964ZM160.284 334.498V326.862H161.771V334.498H160.284ZM161.035 325.684C160.777 325.684 160.555 325.597 160.369 325.425C160.187 325.249 160.096 325.041 160.096 324.799C160.096 324.553 160.187 324.345 160.369 324.172C160.555 323.997 160.777 323.909 161.035 323.909C161.294 323.909 161.514 323.997 161.696 324.172C161.882 324.345 161.975 324.553 161.975 324.799C161.975 325.041 161.882 325.249 161.696 325.425C161.514 325.597 161.294 325.684 161.035 325.684ZM169.493 328.726L168.146 328.965C168.089 328.793 168 328.628 167.877 328.473C167.758 328.317 167.596 328.189 167.39 328.09C167.185 327.99 166.928 327.941 166.619 327.941C166.199 327.941 165.847 328.035 165.566 328.224C165.284 328.41 165.143 328.65 165.143 328.945C165.143 329.2 165.237 329.406 165.426 329.562C165.615 329.717 165.92 329.845 166.341 329.944L167.554 330.223C168.257 330.385 168.78 330.635 169.125 330.973C169.47 331.312 169.642 331.751 169.642 332.291C169.642 332.748 169.51 333.156 169.244 333.514C168.983 333.869 168.616 334.147 168.146 334.349C167.678 334.551 167.137 334.652 166.52 334.652C165.665 334.652 164.967 334.47 164.427 334.106C163.887 333.738 163.555 333.216 163.433 332.539L164.869 332.321C164.959 332.695 165.143 332.979 165.421 333.171C165.7 333.36 166.063 333.454 166.51 333.454C166.997 333.454 167.387 333.353 167.678 333.151C167.97 332.945 168.116 332.695 168.116 332.4C168.116 332.162 168.026 331.961 167.847 331.799C167.672 331.636 167.402 331.514 167.037 331.431L165.744 331.147C165.032 330.985 164.505 330.727 164.164 330.372C163.825 330.017 163.656 329.568 163.656 329.025C163.656 328.574 163.782 328.179 164.034 327.841C164.286 327.503 164.634 327.24 165.078 327.051C165.522 326.859 166.031 326.762 166.605 326.762C167.43 326.762 168.079 326.941 168.553 327.299C169.027 327.654 169.341 328.13 169.493 328.726ZM174.982 334.498V326.862H176.419V328.075H176.498C176.637 327.664 176.883 327.341 177.234 327.106C177.588 326.867 177.99 326.748 178.437 326.748C178.53 326.748 178.639 326.751 178.765 326.758C178.894 326.764 178.995 326.772 179.068 326.782V328.204C179.009 328.188 178.903 328.169 178.75 328.15C178.598 328.126 178.445 328.115 178.293 328.115C177.941 328.115 177.628 328.189 177.353 328.338C177.081 328.484 176.866 328.688 176.707 328.95C176.548 329.209 176.468 329.503 176.468 329.835V334.498H174.982ZM183.373 334.652C182.62 334.652 181.972 334.492 181.429 334.17C180.888 333.845 180.471 333.39 180.176 332.803C179.884 332.213 179.738 331.522 179.738 330.73C179.738 329.948 179.884 329.258 180.176 328.662C180.471 328.065 180.882 327.599 181.409 327.265C181.939 326.93 182.559 326.762 183.268 326.762C183.699 326.762 184.117 326.834 184.521 326.976C184.925 327.119 185.288 327.343 185.61 327.647C185.931 327.952 186.185 328.348 186.37 328.836C186.556 329.32 186.649 329.908 186.649 330.601V331.128H180.578V330.014H185.192C185.192 329.623 185.113 329.276 184.953 328.975C184.794 328.67 184.571 328.43 184.282 328.254C183.997 328.078 183.663 327.99 183.278 327.99C182.86 327.99 182.496 328.093 182.184 328.299C181.876 328.501 181.637 328.766 181.468 329.094C181.303 329.419 181.22 329.772 181.22 330.153V331.023C181.22 331.534 181.309 331.968 181.488 332.326C181.671 332.684 181.924 332.957 182.249 333.146C182.574 333.332 182.953 333.424 183.387 333.424C183.669 333.424 183.926 333.385 184.158 333.305C184.39 333.222 184.591 333.1 184.76 332.937C184.929 332.775 185.058 332.574 185.147 332.336L186.554 332.589C186.442 333.003 186.239 333.366 185.948 333.678C185.659 333.986 185.297 334.227 184.859 334.399C184.425 334.568 183.929 334.652 183.373 334.652ZM194.02 328.726L192.673 328.965C192.617 328.793 192.527 328.628 192.405 328.473C192.285 328.317 192.123 328.189 191.917 328.09C191.712 327.99 191.455 327.941 191.147 327.941C190.726 327.941 190.375 328.035 190.093 328.224C189.811 328.41 189.67 328.65 189.67 328.945C189.67 329.2 189.765 329.406 189.954 329.562C190.143 329.717 190.448 329.845 190.868 329.944L192.081 330.223C192.784 330.385 193.308 330.635 193.653 330.973C193.997 331.312 194.17 331.751 194.17 332.291C194.17 332.748 194.037 333.156 193.772 333.514C193.51 333.869 193.144 334.147 192.673 334.349C192.206 334.551 191.664 334.652 191.047 334.652C190.192 334.652 189.495 334.47 188.954 334.106C188.414 333.738 188.083 333.216 187.96 332.539L189.397 332.321C189.486 332.695 189.67 332.979 189.949 333.171C190.227 333.36 190.59 333.454 191.037 333.454C191.525 333.454 191.914 333.353 192.206 333.151C192.497 332.945 192.643 332.695 192.643 332.4C192.643 332.162 192.554 331.961 192.375 331.799C192.199 331.636 191.929 331.514 191.564 331.431L190.272 331.147C189.559 330.985 189.032 330.727 188.691 330.372C188.353 330.017 188.184 329.568 188.184 329.025C188.184 328.574 188.31 328.179 188.562 327.841C188.814 327.503 189.162 327.24 189.606 327.051C190.05 326.859 190.559 326.762 191.132 326.762C191.957 326.762 192.607 326.941 193.081 327.299C193.555 327.654 193.868 328.13 194.02 328.726ZM199.021 334.652C198.305 334.652 197.68 334.488 197.146 334.16C196.613 333.832 196.198 333.373 195.903 332.783C195.608 332.193 195.461 331.504 195.461 330.715C195.461 329.923 195.608 329.23 195.903 328.637C196.198 328.044 196.613 327.583 197.146 327.255C197.68 326.927 198.305 326.762 199.021 326.762C199.737 326.762 200.361 326.927 200.895 327.255C201.429 327.583 201.843 328.044 202.138 328.637C202.433 329.23 202.58 329.923 202.58 330.715C202.58 331.504 202.433 332.193 202.138 332.783C201.843 333.373 201.429 333.832 200.895 334.16C200.361 334.488 199.737 334.652 199.021 334.652ZM199.026 333.405C199.49 333.405 199.874 333.282 200.179 333.037C200.484 332.791 200.709 332.465 200.855 332.057C201.004 331.65 201.079 331.2 201.079 330.71C201.079 330.223 201.004 329.775 200.855 329.368C200.709 328.957 200.484 328.627 200.179 328.378C199.874 328.13 199.49 328.005 199.026 328.005C198.558 328.005 198.17 328.13 197.862 328.378C197.557 328.627 197.33 328.957 197.181 329.368C197.035 329.775 196.962 330.223 196.962 330.71C196.962 331.2 197.035 331.65 197.181 332.057C197.33 332.465 197.557 332.791 197.862 333.037C198.17 333.282 198.558 333.405 199.026 333.405ZM209.077 331.331V326.862H210.568V334.498H209.107V333.176H209.027C208.852 333.584 208.57 333.923 208.182 334.195C207.798 334.463 207.319 334.598 206.745 334.598C206.255 334.598 205.82 334.49 205.443 334.275C205.068 334.056 204.773 333.733 204.558 333.305C204.346 332.878 204.24 332.349 204.24 331.719V326.862H205.726V331.54C205.726 332.061 205.87 332.475 206.159 332.783C206.447 333.091 206.821 333.245 207.282 333.245C207.561 333.245 207.837 333.176 208.112 333.037C208.391 332.897 208.621 332.687 208.803 332.405C208.989 332.124 209.08 331.766 209.077 331.331ZM212.566 334.498V326.862H214.002V328.075H214.082C214.221 327.664 214.467 327.341 214.818 327.106C215.172 326.867 215.574 326.748 216.021 326.748C216.114 326.748 216.223 326.751 216.349 326.758C216.478 326.764 216.579 326.772 216.652 326.782V328.204C216.593 328.188 216.487 328.169 216.334 328.15C216.182 328.126 216.029 328.115 215.877 328.115C215.525 328.115 215.212 328.189 214.937 328.338C214.665 328.484 214.45 328.688 214.291 328.95C214.132 329.209 214.052 329.503 214.052 329.835V334.498H212.566ZM220.882 334.652C220.143 334.652 219.506 334.485 218.973 334.15C218.443 333.812 218.035 333.347 217.75 332.753C217.465 332.16 217.322 331.481 217.322 330.715C217.322 329.939 217.468 329.255 217.76 328.662C218.051 328.065 218.462 327.599 218.993 327.265C219.523 326.93 220.148 326.762 220.867 326.762C221.447 326.762 221.964 326.87 222.418 327.086C222.872 327.298 223.238 327.596 223.517 327.981C223.799 328.365 223.966 328.814 224.019 329.328H222.572C222.493 328.97 222.31 328.662 222.025 328.403C221.744 328.145 221.366 328.015 220.892 328.015C220.478 328.015 220.115 328.125 219.803 328.343C219.495 328.559 219.255 328.867 219.082 329.268C218.91 329.666 218.824 330.137 218.824 330.68C218.824 331.237 218.908 331.718 219.077 332.122C219.246 332.526 219.485 332.839 219.793 333.062C220.105 333.284 220.471 333.395 220.892 333.395C221.174 333.395 221.429 333.343 221.657 333.24C221.89 333.134 222.083 332.984 222.239 332.788C222.398 332.593 222.509 332.357 222.572 332.082H224.019C223.966 332.576 223.805 333.017 223.537 333.405C223.268 333.792 222.909 334.097 222.458 334.319C222.01 334.541 221.485 334.652 220.882 334.652ZM228.9 334.652C228.147 334.652 227.5 334.492 226.956 334.17C226.416 333.845 225.998 333.39 225.703 332.803C225.411 332.213 225.266 331.522 225.266 330.73C225.266 329.948 225.411 329.258 225.703 328.662C225.998 328.065 226.409 327.599 226.936 327.265C227.466 326.93 228.086 326.762 228.795 326.762C229.226 326.762 229.644 326.834 230.048 326.976C230.453 327.119 230.816 327.343 231.137 327.647C231.459 327.952 231.712 328.348 231.898 328.836C232.083 329.32 232.176 329.908 232.176 330.601V331.128H226.106V330.014H230.719C230.719 329.623 230.64 329.276 230.481 328.975C230.322 328.67 230.098 328.43 229.81 328.254C229.525 328.078 229.19 327.99 228.805 327.99C228.388 327.99 228.023 328.093 227.712 328.299C227.403 328.501 227.165 328.766 226.996 329.094C226.83 329.419 226.747 329.772 226.747 330.153V331.023C226.747 331.534 226.837 331.968 227.016 332.326C227.198 332.684 227.451 332.957 227.776 333.146C228.101 333.332 228.481 333.424 228.915 333.424C229.196 333.424 229.453 333.385 229.685 333.305C229.917 333.222 230.118 333.1 230.287 332.937C230.456 332.775 230.585 332.574 230.675 332.336L232.082 332.589C231.969 333.003 231.767 333.366 231.475 333.678C231.187 333.986 230.824 334.227 230.386 334.399C229.952 334.568 229.457 334.652 228.9 334.652Z" fill="#43302B"/>
</g>
<rect x="85.2051" y="341.998" width="387" height="39" rx="1.5" fill="#FDFCFC"/>
<rect x="91.2051" y="347.999" width="113" height="27" rx="1.5" fill="#F8F1EE"/>
<path d="M99.699 366.499V357.451H105.309V358.626H101.064V361.383H104.907V362.554H101.064V366.499H99.699ZM109.242 366.635C108.606 366.635 108.051 366.49 107.577 366.198C107.103 365.907 106.734 365.499 106.472 364.974C106.21 364.45 106.079 363.838 106.079 363.137C106.079 362.433 106.21 361.817 106.472 361.29C106.734 360.763 107.103 360.354 107.577 360.062C108.051 359.771 108.606 359.625 109.242 359.625C109.878 359.625 110.433 359.771 110.908 360.062C111.382 360.354 111.75 360.763 112.012 361.29C112.274 361.817 112.405 362.433 112.405 363.137C112.405 363.838 112.274 364.45 112.012 364.974C111.75 365.499 111.382 365.907 110.908 366.198C110.433 366.49 109.878 366.635 109.242 366.635ZM109.247 365.527C109.659 365.527 110.001 365.418 110.271 365.2C110.542 364.982 110.743 364.692 110.872 364.329C111.005 363.967 111.071 363.568 111.071 363.132C111.071 362.699 111.005 362.302 110.872 361.94C110.743 361.574 110.542 361.281 110.271 361.06C110.001 360.84 109.659 360.729 109.247 360.729C108.831 360.729 108.487 360.84 108.213 361.06C107.942 361.281 107.74 361.574 107.608 361.94C107.478 362.302 107.413 362.699 107.413 363.132C107.413 363.568 107.478 363.967 107.608 364.329C107.74 364.692 107.942 364.982 108.213 365.2C108.487 365.418 108.831 365.527 109.247 365.527ZM115.2 357.451V366.499H113.88V357.451H115.2ZM119.518 366.631C118.97 366.631 118.481 366.491 118.051 366.211C117.624 365.929 117.288 365.527 117.044 365.005C116.802 364.481 116.681 363.852 116.681 363.119C116.681 362.386 116.804 361.758 117.048 361.237C117.296 360.716 117.634 360.317 118.064 360.04C118.494 359.763 118.982 359.625 119.526 359.625C119.948 359.625 120.286 359.695 120.542 359.837C120.802 359.975 121.002 360.137 121.143 360.323C121.288 360.508 121.399 360.672 121.479 360.813H121.558V357.451H122.879V366.499H121.589V365.443H121.479C121.399 365.587 121.285 365.752 121.134 365.937C120.987 366.123 120.784 366.285 120.525 366.423C120.266 366.562 119.93 366.631 119.518 366.631ZM119.809 365.505C120.189 365.505 120.51 365.404 120.772 365.204C121.037 365.001 121.237 364.72 121.373 364.36C121.511 364.001 121.581 363.583 121.581 363.106C121.581 362.635 121.513 362.222 121.377 361.869C121.242 361.515 121.043 361.24 120.781 361.043C120.519 360.845 120.195 360.747 119.809 360.747C119.412 360.747 119.08 360.85 118.815 361.056C118.55 361.262 118.35 361.543 118.214 361.9C118.082 362.256 118.016 362.658 118.016 363.106C118.016 363.559 118.083 363.967 118.219 364.329C118.354 364.692 118.555 364.979 118.82 365.191C119.088 365.4 119.417 365.505 119.809 365.505ZM127.689 366.635C127.021 366.635 126.445 366.493 125.962 366.207C125.482 365.918 125.111 365.513 124.849 364.992C124.589 364.468 124.46 363.854 124.46 363.15C124.46 362.455 124.589 361.842 124.849 361.312C125.111 360.782 125.476 360.368 125.944 360.071C126.415 359.773 126.966 359.625 127.596 359.625C127.979 359.625 128.35 359.688 128.71 359.815C129.069 359.941 129.391 360.14 129.677 360.411C129.963 360.682 130.188 361.034 130.353 361.467C130.518 361.897 130.6 362.42 130.6 363.035V363.503H125.206V362.514H129.306C129.306 362.166 129.235 361.859 129.094 361.591C128.952 361.32 128.754 361.106 128.497 360.95C128.244 360.794 127.947 360.716 127.605 360.716C127.234 360.716 126.91 360.807 126.633 360.99C126.359 361.169 126.147 361.405 125.997 361.697C125.85 361.985 125.776 362.299 125.776 362.638V363.411C125.776 363.864 125.856 364.25 126.015 364.568C126.177 364.886 126.402 365.129 126.691 365.297C126.979 365.462 127.316 365.544 127.702 365.544C127.953 365.544 128.181 365.509 128.387 365.438C128.593 365.365 128.771 365.256 128.922 365.111C129.072 364.967 129.187 364.789 129.266 364.577L130.516 364.802C130.416 365.17 130.237 365.493 129.977 365.77C129.721 366.044 129.399 366.257 129.01 366.41C128.624 366.56 128.184 366.635 127.689 366.635ZM132.066 366.499V359.713H133.342V360.791H133.413C133.537 360.426 133.755 360.139 134.067 359.93C134.382 359.717 134.738 359.611 135.136 359.611C135.218 359.611 135.316 359.614 135.428 359.62C135.542 359.626 135.632 359.634 135.697 359.642V360.906C135.644 360.891 135.55 360.875 135.414 360.857C135.279 360.837 135.143 360.826 135.008 360.826C134.696 360.826 134.417 360.893 134.173 361.025C133.931 361.155 133.74 361.336 133.599 361.568C133.457 361.798 133.387 362.06 133.387 362.355V366.499H132.066ZM140.233 366.499L141.717 357.451H142.777L141.293 366.499H140.233ZM136.138 364.078L136.31 363.017H143.166L142.994 364.078H136.138ZM137.052 366.499L138.536 357.451H139.597L138.112 366.499H137.052ZM136.663 360.932L136.836 359.872H143.692L143.52 360.932H136.663Z" fill="#A18072"/>
<path d="M145.631 366.499H144.182L147.438 357.451H149.015L152.271 366.499H150.822L148.264 359.095H148.193L145.631 366.499ZM145.874 362.956H150.574V364.104H145.874V362.956ZM155.902 366.631C155.354 366.631 154.865 366.491 154.435 366.211C154.008 365.929 153.673 365.527 153.428 365.005C153.187 364.481 153.066 363.852 153.066 363.119C153.066 362.386 153.188 361.758 153.433 361.237C153.68 360.716 154.019 360.317 154.449 360.04C154.879 359.763 155.366 359.625 155.911 359.625C156.332 359.625 156.671 359.695 156.927 359.837C157.186 359.975 157.386 360.137 157.528 360.323C157.672 360.508 157.784 360.672 157.864 360.813H157.943V357.451H159.264V366.499H157.974V365.443H157.864C157.784 365.587 157.669 365.752 157.519 365.937C157.372 366.123 157.169 366.285 156.909 366.423C156.65 366.562 156.314 366.631 155.902 366.631ZM156.194 365.505C156.574 365.505 156.895 365.404 157.157 365.204C157.422 365.001 157.622 364.72 157.758 364.36C157.896 364.001 157.965 363.583 157.965 363.106C157.965 362.635 157.897 362.222 157.762 361.869C157.626 361.515 157.428 361.24 157.166 361.043C156.903 360.845 156.579 360.747 156.194 360.747C155.796 360.747 155.465 360.85 155.2 361.056C154.935 361.262 154.734 361.543 154.599 361.9C154.466 362.256 154.4 362.658 154.4 363.106C154.4 363.559 154.468 363.967 154.603 364.329C154.739 364.692 154.939 364.979 155.204 365.191C155.472 365.4 155.802 365.505 156.194 365.505ZM161.149 366.499V359.713H162.417V360.817H162.501C162.642 360.443 162.873 360.152 163.195 359.943C163.516 359.731 163.9 359.625 164.348 359.625C164.801 359.625 165.181 359.731 165.487 359.943C165.796 360.155 166.025 360.446 166.172 360.817H166.243C166.405 360.455 166.662 360.167 167.016 359.952C167.369 359.734 167.79 359.625 168.279 359.625C168.895 359.625 169.397 359.818 169.786 360.203C170.177 360.589 170.373 361.171 170.373 361.948V366.499H169.052V362.072C169.052 361.613 168.927 361.28 168.677 361.074C168.426 360.868 168.128 360.764 167.78 360.764C167.35 360.764 167.016 360.897 166.777 361.162C166.539 361.424 166.419 361.761 166.419 362.174V366.499H165.103V361.988C165.103 361.62 164.988 361.324 164.758 361.1C164.529 360.876 164.23 360.764 163.862 360.764C163.611 360.764 163.38 360.831 163.168 360.963C162.959 361.093 162.79 361.274 162.66 361.507C162.533 361.739 162.47 362.009 162.47 362.315V366.499H161.149ZM172.143 366.499V359.713H173.464V366.499H172.143ZM172.811 358.666C172.581 358.666 172.384 358.59 172.219 358.436C172.057 358.28 171.976 358.095 171.976 357.88C171.976 357.662 172.057 357.476 172.219 357.323C172.384 357.167 172.581 357.089 172.811 357.089C173.04 357.089 173.236 357.167 173.398 357.323C173.563 357.476 173.645 357.662 173.645 357.88C173.645 358.095 173.563 358.28 173.398 358.436C173.236 358.59 173.04 358.666 172.811 358.666ZM176.562 362.47V366.499H175.241V359.713H176.509V360.817H176.593C176.749 360.458 176.994 360.17 177.326 359.952C177.662 359.734 178.085 359.625 178.594 359.625C179.057 359.625 179.462 359.722 179.809 359.916C180.157 360.108 180.426 360.393 180.618 360.773C180.809 361.153 180.905 361.623 180.905 362.183V366.499H179.584V362.342C179.584 361.85 179.456 361.465 179.2 361.189C178.943 360.909 178.591 360.769 178.144 360.769C177.837 360.769 177.565 360.835 177.326 360.968C177.091 361.1 176.904 361.295 176.765 361.551C176.63 361.804 176.562 362.11 176.562 362.47Z" fill="#43302B"/>
<path d="M193.705 360.674L196.593 357.787L197.418 358.612L194.53 361.499L197.418 364.386L196.593 365.211L193.705 362.324L190.818 365.211L189.993 364.386L192.881 361.499L189.993 358.612L190.818 357.787L193.705 360.674Z" fill="#846358"/>
<rect x="91.2051" y="347.999" width="113" height="27" rx="1.5" stroke="#EADDD7"/>
<rect x="209.205" y="347.998" width="110" height="27" rx="1.5" fill="#F8F1EE"/>
<path d="M217.699 366.498V357.451H223.309V358.626H219.064V361.383H222.907V362.553H219.064V366.498H217.699ZM227.242 366.635C226.606 366.635 226.051 366.489 225.577 366.198C225.103 365.906 224.734 365.498 224.472 364.974C224.21 364.45 224.079 363.837 224.079 363.136C224.079 362.433 224.21 361.817 224.472 361.29C224.734 360.763 225.103 360.353 225.577 360.062C226.051 359.77 226.606 359.624 227.242 359.624C227.878 359.624 228.433 359.77 228.908 360.062C229.382 360.353 229.75 360.763 230.012 361.29C230.274 361.817 230.405 362.433 230.405 363.136C230.405 363.837 230.274 364.45 230.012 364.974C229.75 365.498 229.382 365.906 228.908 366.198C228.433 366.489 227.878 366.635 227.242 366.635ZM227.247 365.526C227.659 365.526 228.001 365.417 228.271 365.2C228.542 364.982 228.743 364.691 228.872 364.329C229.005 363.967 229.071 363.568 229.071 363.132C229.071 362.699 229.005 362.302 228.872 361.939C228.743 361.574 228.542 361.281 228.271 361.06C228.001 360.839 227.659 360.729 227.247 360.729C226.831 360.729 226.487 360.839 226.213 361.06C225.942 361.281 225.74 361.574 225.608 361.939C225.478 362.302 225.413 362.699 225.413 363.132C225.413 363.568 225.478 363.967 225.608 364.329C225.74 364.691 225.942 364.982 226.213 365.2C226.487 365.417 226.831 365.526 227.247 365.526ZM233.2 357.451V366.498H231.88V357.451H233.2ZM237.518 366.631C236.97 366.631 236.481 366.491 236.051 366.211C235.624 365.928 235.288 365.526 235.044 365.005C234.802 364.481 234.681 363.852 234.681 363.119C234.681 362.385 234.804 361.758 235.048 361.237C235.296 360.716 235.634 360.317 236.064 360.04C236.494 359.763 236.982 359.624 237.526 359.624C237.948 359.624 238.286 359.695 238.542 359.837C238.802 359.975 239.002 360.137 239.143 360.322C239.288 360.508 239.399 360.671 239.479 360.813H239.558V357.451H240.879V366.498H239.589V365.442H239.479C239.399 365.587 239.285 365.752 239.134 365.937C238.987 366.123 238.784 366.285 238.525 366.423C238.266 366.562 237.93 366.631 237.518 366.631ZM237.809 365.504C238.189 365.504 238.51 365.404 238.772 365.204C239.037 365.001 239.237 364.719 239.373 364.36C239.511 364.001 239.581 363.583 239.581 363.106C239.581 362.634 239.513 362.222 239.377 361.869C239.242 361.515 239.043 361.24 238.781 361.043C238.519 360.845 238.195 360.747 237.809 360.747C237.412 360.747 237.08 360.85 236.815 361.056C236.55 361.262 236.35 361.543 236.214 361.9C236.082 362.256 236.016 362.658 236.016 363.106C236.016 363.559 236.083 363.967 236.219 364.329C236.354 364.691 236.555 364.979 236.82 365.191C237.088 365.4 237.417 365.504 237.809 365.504ZM245.689 366.635C245.021 366.635 244.445 366.492 243.962 366.207C243.482 365.918 243.111 365.513 242.849 364.992C242.589 364.468 242.46 363.854 242.46 363.15C242.46 362.455 242.589 361.842 242.849 361.312C243.111 360.782 243.476 360.368 243.944 360.071C244.415 359.773 244.966 359.624 245.596 359.624C245.979 359.624 246.35 359.688 246.71 359.814C247.069 359.941 247.391 360.14 247.677 360.411C247.963 360.682 248.188 361.034 248.353 361.467C248.518 361.897 248.6 362.419 248.6 363.035V363.503H243.206V362.514H247.306C247.306 362.166 247.235 361.858 247.094 361.59C246.952 361.319 246.754 361.106 246.497 360.95C246.244 360.794 245.947 360.716 245.605 360.716C245.234 360.716 244.91 360.807 244.633 360.99C244.359 361.169 244.147 361.405 243.997 361.696C243.85 361.985 243.776 362.299 243.776 362.637V363.41C243.776 363.864 243.856 364.25 244.015 364.568C244.177 364.886 244.402 365.129 244.691 365.297C244.979 365.462 245.316 365.544 245.702 365.544C245.953 365.544 246.181 365.509 246.387 365.438C246.593 365.364 246.771 365.255 246.922 365.111C247.072 364.967 247.187 364.789 247.266 364.577L248.516 364.802C248.416 365.17 248.237 365.493 247.977 365.769C247.721 366.043 247.399 366.257 247.01 366.41C246.624 366.56 246.184 366.635 245.689 366.635ZM250.066 366.498V359.713H251.342V360.791H251.413C251.537 360.426 251.755 360.138 252.067 359.929C252.382 359.717 252.738 359.611 253.136 359.611C253.218 359.611 253.316 359.614 253.428 359.62C253.542 359.626 253.632 359.633 253.697 359.642V360.906C253.644 360.891 253.55 360.875 253.414 360.857C253.279 360.836 253.143 360.826 253.008 360.826C252.696 360.826 252.417 360.892 252.173 361.025C251.931 361.154 251.74 361.336 251.599 361.568C251.457 361.798 251.387 362.06 251.387 362.355V366.498H250.066ZM258.233 366.498L259.717 357.451H260.777L259.293 366.498H258.233ZM254.138 364.077L254.31 363.017H261.166L260.994 364.077H254.138ZM255.052 366.498L256.536 357.451H257.597L256.112 366.498H255.052ZM254.663 360.932L254.836 359.872H261.692L261.52 360.932H254.663Z" fill="#977669"/>
<path d="M262.867 366.498V357.451H268.539V358.626H264.232V361.383H268.243V362.553H264.232V365.323H268.592V366.498H262.867ZM272.797 366.631C272.249 366.631 271.76 366.491 271.33 366.211C270.903 365.928 270.567 365.526 270.323 365.005C270.081 364.481 269.961 363.852 269.961 363.119C269.961 362.385 270.083 361.758 270.327 361.237C270.575 360.716 270.913 360.317 271.343 360.04C271.773 359.763 272.261 359.624 272.805 359.624C273.227 359.624 273.565 359.695 273.822 359.837C274.081 359.975 274.281 360.137 274.422 360.322C274.567 360.508 274.679 360.671 274.758 360.813H274.838V357.451H276.158V366.498H274.868V365.442H274.758C274.679 365.587 274.564 365.752 274.413 365.937C274.266 366.123 274.063 366.285 273.804 366.423C273.545 366.562 273.209 366.631 272.797 366.631ZM273.088 365.504C273.468 365.504 273.789 365.404 274.051 365.204C274.316 365.001 274.517 364.719 274.652 364.36C274.79 364.001 274.86 363.583 274.86 363.106C274.86 362.634 274.792 362.222 274.656 361.869C274.521 361.515 274.322 361.24 274.06 361.043C273.798 360.845 273.474 360.747 273.088 360.747C272.691 360.747 272.359 360.85 272.094 361.056C271.829 361.262 271.629 361.543 271.493 361.9C271.361 362.256 271.295 362.658 271.295 363.106C271.295 363.559 271.362 363.967 271.498 364.329C271.633 364.691 271.834 364.979 272.099 365.191C272.367 365.4 272.696 365.504 273.088 365.504ZM278.044 366.498V359.713H279.365V366.498H278.044ZM278.711 358.666C278.481 358.666 278.284 358.589 278.119 358.436C277.957 358.28 277.876 358.095 277.876 357.88C277.876 357.662 277.957 357.476 278.119 357.323C278.284 357.167 278.481 357.089 278.711 357.089C278.94 357.089 279.136 357.167 279.298 357.323C279.463 357.476 279.546 357.662 279.546 357.88C279.546 358.095 279.463 358.28 279.298 358.436C279.136 358.589 278.94 358.666 278.711 358.666ZM284.309 359.713V360.773H280.603V359.713H284.309ZM281.597 358.087H282.917V364.506C282.917 364.762 282.956 364.955 283.032 365.085C283.109 365.211 283.207 365.298 283.328 365.345C283.452 365.389 283.586 365.412 283.73 365.412C283.836 365.412 283.929 365.404 284.009 365.389C284.088 365.375 284.15 365.363 284.194 365.354L284.433 366.445C284.356 366.475 284.247 366.504 284.106 366.534C283.964 366.566 283.788 366.584 283.576 366.587C283.228 366.593 282.904 366.531 282.604 366.401C282.303 366.272 282.06 366.071 281.875 365.8C281.689 365.529 281.597 365.189 281.597 364.78V358.087ZM288.555 366.635C287.919 366.635 287.364 366.489 286.89 366.198C286.416 365.906 286.048 365.498 285.786 364.974C285.523 364.45 285.392 363.837 285.392 363.136C285.392 362.433 285.523 361.817 285.786 361.29C286.048 360.763 286.416 360.353 286.89 360.062C287.364 359.77 287.919 359.624 288.555 359.624C289.191 359.624 289.747 359.77 290.221 360.062C290.695 360.353 291.063 360.763 291.325 361.29C291.587 361.817 291.718 362.433 291.718 363.136C291.718 363.837 291.587 364.45 291.325 364.974C291.063 365.498 290.695 365.906 290.221 366.198C289.747 366.489 289.191 366.635 288.555 366.635ZM288.56 365.526C288.972 365.526 289.314 365.417 289.585 365.2C289.856 364.982 290.056 364.691 290.185 364.329C290.318 363.967 290.384 363.568 290.384 363.132C290.384 362.699 290.318 362.302 290.185 361.939C290.056 361.574 289.856 361.281 289.585 361.06C289.314 360.839 288.972 360.729 288.56 360.729C288.145 360.729 287.8 360.839 287.526 361.06C287.255 361.281 287.053 361.574 286.921 361.939C286.791 362.302 286.726 362.699 286.726 363.132C286.726 363.568 286.791 363.967 286.921 364.329C287.053 364.691 287.255 364.982 287.526 365.2C287.8 365.417 288.145 365.526 288.56 365.526ZM293.193 366.498V359.713H294.469V360.791H294.54C294.664 360.426 294.882 360.138 295.194 359.929C295.509 359.717 295.865 359.611 296.263 359.611C296.345 359.611 296.443 359.614 296.555 359.62C296.669 359.626 296.759 359.633 296.824 359.642V360.906C296.771 360.891 296.677 360.875 296.541 360.857C296.406 360.836 296.27 360.826 296.135 360.826C295.823 360.826 295.544 360.892 295.3 361.025C295.058 361.154 294.867 361.336 294.726 361.568C294.584 361.798 294.514 362.06 294.514 362.355V366.498H293.193Z" fill="#43302B"/>
<path d="M308.705 360.674L311.593 357.786L312.418 358.611L309.53 361.499L312.418 364.386L311.593 365.211L308.705 362.324L305.818 365.211L304.993 364.386L307.881 361.499L304.993 358.611L305.818 357.786L308.705 360.674Z" fill="#846358"/>
<rect x="209.205" y="347.998" width="110" height="27" rx="1.5" stroke="#EADDD7"/>
<rect x="324.205" y="347.998" width="86" height="27" rx="1.5" fill="#F8F1EE"/>
<path d="M332.699 366.498V357.451H338.309V358.626H334.064V361.383H337.907V362.553H334.064V366.498H332.699ZM342.242 366.635C341.606 366.635 341.051 366.489 340.577 366.198C340.103 365.906 339.734 365.498 339.472 364.974C339.21 364.45 339.079 363.837 339.079 363.136C339.079 362.433 339.21 361.817 339.472 361.29C339.734 360.763 340.103 360.353 340.577 360.062C341.051 359.77 341.606 359.624 342.242 359.624C342.878 359.624 343.433 359.77 343.908 360.062C344.382 360.353 344.75 360.763 345.012 361.29C345.274 361.817 345.405 362.433 345.405 363.136C345.405 363.837 345.274 364.45 345.012 364.974C344.75 365.498 344.382 365.906 343.908 366.198C343.433 366.489 342.878 366.635 342.242 366.635ZM342.247 365.526C342.659 365.526 343.001 365.417 343.271 365.2C343.542 364.982 343.743 364.691 343.872 364.329C344.005 363.967 344.071 363.568 344.071 363.132C344.071 362.699 344.005 362.302 343.872 361.939C343.743 361.574 343.542 361.281 343.271 361.06C343.001 360.839 342.659 360.729 342.247 360.729C341.831 360.729 341.487 360.839 341.213 361.06C340.942 361.281 340.74 361.574 340.608 361.939C340.478 362.302 340.413 362.699 340.413 363.132C340.413 363.568 340.478 363.967 340.608 364.329C340.74 364.691 340.942 364.982 341.213 365.2C341.487 365.417 341.831 365.526 342.247 365.526ZM348.2 357.451V366.498H346.88V357.451H348.2ZM352.518 366.631C351.97 366.631 351.481 366.491 351.051 366.211C350.624 365.928 350.288 365.526 350.044 365.005C349.802 364.481 349.681 363.852 349.681 363.119C349.681 362.385 349.804 361.758 350.048 361.237C350.296 360.716 350.634 360.317 351.064 360.04C351.494 359.763 351.982 359.624 352.526 359.624C352.948 359.624 353.286 359.695 353.542 359.837C353.802 359.975 354.002 360.137 354.143 360.322C354.288 360.508 354.399 360.671 354.479 360.813H354.558V357.451H355.879V366.498H354.589V365.442H354.479C354.399 365.587 354.285 365.752 354.134 365.937C353.987 366.123 353.784 366.285 353.525 366.423C353.266 366.562 352.93 366.631 352.518 366.631ZM352.809 365.504C353.189 365.504 353.51 365.404 353.772 365.204C354.037 365.001 354.237 364.719 354.373 364.36C354.511 364.001 354.581 363.583 354.581 363.106C354.581 362.634 354.513 362.222 354.377 361.869C354.242 361.515 354.043 361.24 353.781 361.043C353.519 360.845 353.195 360.747 352.809 360.747C352.412 360.747 352.08 360.85 351.815 361.056C351.55 361.262 351.35 361.543 351.214 361.9C351.082 362.256 351.016 362.658 351.016 363.106C351.016 363.559 351.083 363.967 351.219 364.329C351.354 364.691 351.555 364.979 351.82 365.191C352.088 365.4 352.417 365.504 352.809 365.504ZM360.689 366.635C360.021 366.635 359.445 366.492 358.962 366.207C358.482 365.918 358.111 365.513 357.849 364.992C357.589 364.468 357.46 363.854 357.46 363.15C357.46 362.455 357.589 361.842 357.849 361.312C358.111 360.782 358.476 360.368 358.944 360.071C359.415 359.773 359.966 359.624 360.596 359.624C360.979 359.624 361.35 359.688 361.71 359.814C362.069 359.941 362.391 360.14 362.677 360.411C362.963 360.682 363.188 361.034 363.353 361.467C363.518 361.897 363.6 362.419 363.6 363.035V363.503H358.206V362.514H362.306C362.306 362.166 362.235 361.858 362.094 361.59C361.952 361.319 361.754 361.106 361.497 360.95C361.244 360.794 360.947 360.716 360.605 360.716C360.234 360.716 359.91 360.807 359.633 360.99C359.359 361.169 359.147 361.405 358.997 361.696C358.85 361.985 358.776 362.299 358.776 362.637V363.41C358.776 363.864 358.856 364.25 359.015 364.568C359.177 364.886 359.402 365.129 359.691 365.297C359.979 365.462 360.316 365.544 360.702 365.544C360.953 365.544 361.181 365.509 361.387 365.438C361.593 365.364 361.771 365.255 361.922 365.111C362.072 364.967 362.187 364.789 362.266 364.577L363.516 364.802C363.416 365.17 363.237 365.493 362.977 365.769C362.721 366.043 362.399 366.257 362.01 366.41C361.624 366.56 361.184 366.635 360.689 366.635ZM365.066 366.498V359.713H366.342V360.791H366.413C366.537 360.426 366.755 360.138 367.067 359.929C367.382 359.717 367.738 359.611 368.136 359.611C368.218 359.611 368.316 359.614 368.428 359.62C368.542 359.626 368.632 359.633 368.697 359.642V360.906C368.644 360.891 368.55 360.875 368.414 360.857C368.279 360.836 368.143 360.826 368.008 360.826C367.696 360.826 367.417 360.892 367.173 361.025C366.931 361.154 366.74 361.336 366.599 361.568C366.457 361.798 366.387 362.06 366.387 362.355V366.498H365.066ZM373.233 366.498L374.717 357.451H375.777L374.293 366.498H373.233ZM369.138 364.077L369.31 363.017H376.166L375.994 364.077H369.138ZM370.052 366.498L371.536 357.451H372.597L371.112 366.498H370.052ZM369.663 360.932L369.836 359.872H376.692L376.52 360.932H369.663ZM377.867 366.498V357.451H381.092C381.793 357.451 382.374 357.572 382.837 357.813C383.302 358.055 383.65 358.389 383.879 358.816C384.109 359.24 384.224 359.731 384.224 360.287C384.224 360.841 384.108 361.328 383.875 361.749C383.645 362.168 383.298 362.493 382.832 362.726C382.37 362.958 381.788 363.075 381.087 363.075H378.644V361.9H380.964C381.405 361.9 381.765 361.836 382.042 361.71C382.321 361.583 382.526 361.399 382.656 361.157C382.785 360.916 382.85 360.626 382.85 360.287C382.85 359.945 382.784 359.65 382.651 359.399C382.522 359.149 382.317 358.957 382.037 358.825C381.76 358.689 381.397 358.622 380.946 358.622H379.232V366.498H377.867ZM382.333 362.416L384.568 366.498H383.013L380.822 362.416H382.333ZM388.552 366.635C387.916 366.635 387.361 366.489 386.887 366.198C386.412 365.906 386.044 365.498 385.782 364.974C385.52 364.45 385.389 363.837 385.389 363.136C385.389 362.433 385.52 361.817 385.782 361.29C386.044 360.763 386.412 360.353 386.887 360.062C387.361 359.77 387.916 359.624 388.552 359.624C389.188 359.624 389.743 359.77 390.217 360.062C390.692 360.353 391.06 360.763 391.322 361.29C391.584 361.817 391.715 362.433 391.715 363.136C391.715 363.837 391.584 364.45 391.322 364.974C391.06 365.498 390.692 365.906 390.217 366.198C389.743 366.489 389.188 366.635 388.552 366.635ZM388.556 365.526C388.969 365.526 389.31 365.417 389.581 365.2C389.852 364.982 390.053 364.691 390.182 364.329C390.315 363.967 390.381 363.568 390.381 363.132C390.381 362.699 390.315 362.302 390.182 361.939C390.053 361.574 389.852 361.281 389.581 361.06C389.31 360.839 388.969 360.729 388.556 360.729C388.141 360.729 387.797 360.839 387.523 361.06C387.252 361.281 387.05 361.574 386.918 361.939C386.788 362.302 386.723 362.699 386.723 363.132C386.723 363.568 386.788 363.967 386.918 364.329C387.05 364.691 387.252 364.982 387.523 365.2C387.797 365.417 388.141 365.526 388.556 365.526ZM394.51 357.451V366.498H393.189V357.451H394.51ZM399.212 366.635C398.543 366.635 397.967 366.492 397.484 366.207C397.004 365.918 396.633 365.513 396.371 364.992C396.112 364.468 395.982 363.854 395.982 363.15C395.982 362.455 396.112 361.842 396.371 361.312C396.633 360.782 396.999 360.368 397.467 360.071C397.938 359.773 398.489 359.624 399.119 359.624C399.502 359.624 399.873 359.688 400.232 359.814C400.592 359.941 400.914 360.14 401.2 360.411C401.485 360.682 401.711 361.034 401.876 361.467C402.04 361.897 402.123 362.419 402.123 363.035V363.503H396.729V362.514H400.829C400.829 362.166 400.758 361.858 400.617 361.59C400.475 361.319 400.276 361.106 400.02 360.95C399.767 360.794 399.469 360.716 399.128 360.716C398.757 360.716 398.433 360.807 398.156 360.99C397.882 361.169 397.67 361.405 397.52 361.696C397.373 361.985 397.299 362.299 397.299 362.637V363.41C397.299 363.864 397.378 364.25 397.537 364.568C397.699 364.886 397.925 365.129 398.213 365.297C398.502 365.462 398.839 365.544 399.225 365.544C399.475 365.544 399.704 365.509 399.91 365.438C400.116 365.364 400.294 365.255 400.444 365.111C400.594 364.967 400.709 364.789 400.789 364.577L402.039 364.802C401.939 365.17 401.759 365.493 401.5 365.769C401.244 366.043 400.921 366.257 400.533 366.41C400.147 366.56 399.707 366.635 399.212 366.635Z" fill="#D1B9B0"/>
<rect x="324.205" y="347.998" width="86" height="27" rx="1.5" stroke="#EADDD7" stroke-dasharray="4 4"/>
<rect x="85.2051" y="341.998" width="387" height="39" rx="1.5" stroke="#D1B9B0"/>
<defs>
<linearGradient id="paint0_linear_20369_2300" x1="199.886" y1="114.464" x2="128.125" y2="129.933" gradientUnits="userSpaceOnUse">
<stop stop-color="#FFB171"/>
<stop offset="1" stop-color="#BD8AFC"/>
</linearGradient>
<linearGradient id="paint1_linear_20369_2300" x1="427.886" y1="114.464" x2="356.125" y2="129.933" gradientUnits="userSpaceOnUse">
<stop stop-color="#FFB171"/>
<stop offset="1" stop-color="#BD8AFC"/>
</linearGradient>
<clipPath id="clip0_20369_2300">
<rect width="388" height="20" fill="white" transform="translate(84.7051 321.498)"/>
</clipPath>
</defs>
</svg>
