<svg width="557" height="510" viewBox="0 0 557 510" fill="none" xmlns="http://www.w3.org/2000/svg">
<rect x="0.902344" y="0.998291" width="555.803" height="509" rx="20" fill="#FEF8F4"/>
<rect x="132.205" y="114.464" width="66" height="37.9321" rx="2.98868" fill="#F8F1EE"/>
<path d="M142.335 139.43V127.976H149.673V129.715H144.41V132.825H149.17V134.564H144.41V139.43H142.335ZM154.591 139.598C153.752 139.598 153.025 139.414 152.409 139.045C151.794 138.675 151.317 138.159 150.978 137.495C150.642 136.832 150.474 136.056 150.474 135.169C150.474 134.281 150.642 133.504 150.978 132.836C151.317 132.169 151.794 131.651 152.409 131.281C153.025 130.912 153.752 130.728 154.591 130.728C155.43 130.728 156.157 130.912 156.772 131.281C157.387 131.651 157.863 132.169 158.198 132.836C158.537 133.504 158.707 134.281 158.707 135.169C158.707 136.056 158.537 136.832 158.198 137.495C157.863 138.159 157.387 138.675 156.772 139.045C156.157 139.414 155.43 139.598 154.591 139.598ZM154.602 137.976C155.057 137.976 155.437 137.851 155.743 137.601C156.049 137.348 156.276 137.009 156.425 136.584C156.578 136.158 156.654 135.685 156.654 135.163C156.654 134.637 156.578 134.162 156.425 133.737C156.276 133.308 156.049 132.967 155.743 132.713C155.437 132.46 155.057 132.333 154.602 132.333C154.136 132.333 153.748 132.46 153.438 132.713C153.133 132.967 152.903 133.308 152.751 133.737C152.601 134.162 152.527 134.637 152.527 135.163C152.527 135.685 152.601 136.158 152.751 136.584C152.903 137.009 153.133 137.348 153.438 137.601C153.748 137.851 154.136 137.976 154.602 137.976ZM162.45 127.976V139.43H160.426V127.976H162.45ZM167.72 139.581C167.045 139.581 166.441 139.408 165.908 139.061C165.375 138.715 164.954 138.211 164.644 137.551C164.335 136.891 164.18 136.09 164.18 135.146C164.18 134.192 164.336 133.386 164.65 132.73C164.967 132.07 165.394 131.572 165.931 131.237C166.467 130.897 167.066 130.728 167.726 130.728C168.229 130.728 168.643 130.813 168.968 130.985C169.292 131.153 169.549 131.356 169.739 131.595C169.93 131.829 170.077 132.051 170.181 132.26H170.265V127.976H172.295V139.43H170.304V138.077H170.181C170.077 138.286 169.926 138.508 169.728 138.742C169.531 138.974 169.27 139.171 168.945 139.335C168.621 139.499 168.212 139.581 167.72 139.581ZM168.285 137.92C168.714 137.92 169.079 137.805 169.381 137.574C169.683 137.339 169.913 137.012 170.069 136.595C170.226 136.177 170.304 135.691 170.304 135.135C170.304 134.579 170.226 134.097 170.069 133.686C169.916 133.276 169.689 132.957 169.387 132.73C169.089 132.503 168.721 132.389 168.285 132.389C167.834 132.389 167.457 132.506 167.155 132.741C166.853 132.976 166.626 133.3 166.473 133.714C166.32 134.128 166.244 134.602 166.244 135.135C166.244 135.672 166.32 136.151 166.473 136.572C166.63 136.99 166.859 137.32 167.161 137.562C167.467 137.801 167.841 137.92 168.285 137.92ZM178.256 139.598C177.395 139.598 176.651 139.419 176.025 139.061C175.402 138.7 174.923 138.189 174.587 137.529C174.252 136.865 174.084 136.084 174.084 135.185C174.084 134.302 174.252 133.526 174.587 132.859C174.926 132.187 175.4 131.665 176.008 131.293C176.616 130.916 177.33 130.728 178.15 130.728C178.679 130.728 179.179 130.813 179.649 130.985C180.122 131.153 180.54 131.414 180.902 131.768C181.267 132.122 181.554 132.573 181.763 133.121C181.972 133.666 182.076 134.315 182.076 135.068V135.689H175.035V134.324H180.135C180.132 133.936 180.048 133.591 179.884 133.289C179.72 132.984 179.49 132.743 179.196 132.568C178.905 132.393 178.566 132.305 178.178 132.305C177.764 132.305 177.4 132.406 177.087 132.607C176.774 132.805 176.53 133.066 176.355 133.39C176.183 133.711 176.095 134.063 176.092 134.447V135.638C176.092 136.138 176.183 136.567 176.366 136.925C176.548 137.279 176.804 137.551 177.132 137.741C177.46 137.928 177.844 138.021 178.284 138.021C178.579 138.021 178.845 137.98 179.084 137.898C179.323 137.812 179.53 137.687 179.705 137.523C179.88 137.359 180.012 137.156 180.102 136.914L181.992 137.126C181.873 137.626 181.646 138.062 181.31 138.435C180.978 138.804 180.553 139.091 180.035 139.296C179.516 139.498 178.924 139.598 178.256 139.598ZM183.789 139.43V130.84H185.752V132.271H185.842C185.998 131.775 186.267 131.393 186.647 131.125C187.031 130.853 187.469 130.716 187.961 130.716C188.073 130.716 188.198 130.722 188.336 130.733C188.478 130.741 188.595 130.754 188.689 130.772V132.635C188.603 132.605 188.467 132.579 188.28 132.557C188.098 132.53 187.92 132.517 187.749 132.517C187.38 132.517 187.048 132.598 186.753 132.758C186.463 132.915 186.233 133.133 186.065 133.412C185.898 133.692 185.814 134.014 185.814 134.38V139.43H183.789Z" fill="#43302B"/>
<rect x="132.952" y="115.212" width="64.5057" height="36.4377" rx="2.24151" stroke="url(#paint0_linear_20369_1720)" stroke-opacity="0.4" stroke-width="1.49434"/>
<path d="M198.205 133.43H235.705" stroke="#B7D9F8" stroke-width="2"/>
<rect width="87" height="20" transform="translate(235.705 123.43)" fill="#B7D9F8"/>
<path d="M243.647 129.983V137.43H242.523V129.983H243.647ZM249.845 131.94C249.806 131.595 249.646 131.329 249.365 131.14C249.084 130.948 248.73 130.852 248.303 130.852C247.998 130.852 247.734 130.901 247.511 130.998C247.288 131.092 247.114 131.223 246.991 131.39C246.869 131.555 246.809 131.743 246.809 131.954C246.809 132.131 246.85 132.284 246.932 132.412C247.017 132.541 247.128 132.649 247.263 132.736C247.401 132.821 247.549 132.892 247.707 132.95C247.864 133.006 248.016 133.052 248.161 133.089L248.889 133.278C249.126 133.336 249.37 133.415 249.62 133.514C249.869 133.613 250.101 133.744 250.314 133.907C250.528 134.069 250.7 134.27 250.831 134.51C250.964 134.75 251.031 135.038 251.031 135.372C251.031 135.794 250.921 136.169 250.703 136.496C250.488 136.823 250.174 137.081 249.761 137.27C249.352 137.46 248.856 137.554 248.274 137.554C247.717 137.554 247.234 137.466 246.827 137.289C246.42 137.112 246.101 136.861 245.871 136.536C245.64 136.209 245.513 135.821 245.489 135.372H246.616C246.638 135.641 246.725 135.866 246.878 136.045C247.033 136.222 247.231 136.354 247.471 136.441C247.713 136.526 247.978 136.569 248.267 136.569C248.584 136.569 248.867 136.519 249.114 136.42C249.364 136.318 249.56 136.177 249.703 135.998C249.846 135.816 249.918 135.604 249.918 135.361C249.918 135.141 249.855 134.96 249.729 134.82C249.605 134.679 249.437 134.563 249.223 134.47C249.012 134.378 248.774 134.297 248.507 134.227L247.627 133.987C247.031 133.824 246.558 133.586 246.209 133.27C245.862 132.955 245.689 132.538 245.689 132.02C245.689 131.59 245.805 131.216 246.038 130.896C246.271 130.576 246.586 130.327 246.983 130.15C247.381 129.971 247.829 129.881 248.329 129.881C248.833 129.881 249.278 129.97 249.663 130.147C250.051 130.324 250.357 130.567 250.58 130.878C250.803 131.186 250.919 131.54 250.929 131.94H249.845ZM256.083 137.43V129.983H258.738C259.317 129.983 259.797 130.089 260.178 130.3C260.558 130.51 260.843 130.799 261.032 131.165C261.221 131.529 261.316 131.938 261.316 132.394C261.316 132.852 261.22 133.264 261.029 133.63C260.84 133.994 260.554 134.283 260.171 134.496C259.79 134.707 259.311 134.812 258.734 134.812H256.909V133.86H258.632C258.998 133.86 259.295 133.796 259.523 133.67C259.751 133.542 259.918 133.367 260.025 133.147C260.132 132.926 260.185 132.675 260.185 132.394C260.185 132.113 260.132 131.863 260.025 131.645C259.918 131.427 259.75 131.256 259.52 131.132C259.292 131.009 258.991 130.947 258.618 130.947H257.207V137.43H256.083ZM262.972 137.43H261.78L264.46 129.983H265.758L268.438 137.43H267.245L265.14 131.336H265.081L262.972 137.43ZM263.172 134.514H267.041V135.46H263.172V134.514ZM270.013 137.43V129.983H272.668C273.245 129.983 273.724 130.083 274.104 130.281C274.487 130.48 274.773 130.755 274.962 131.107C275.151 131.456 275.246 131.86 275.246 132.318C275.246 132.773 275.15 133.175 274.959 133.521C274.77 133.866 274.484 134.133 274.101 134.325C273.72 134.516 273.241 134.612 272.664 134.612H270.653V133.645H272.562C272.926 133.645 273.222 133.593 273.45 133.489C273.68 133.384 273.848 133.233 273.955 133.034C274.062 132.835 274.115 132.596 274.115 132.318C274.115 132.036 274.061 131.793 273.951 131.587C273.845 131.381 273.676 131.223 273.446 131.114C273.218 131.003 272.919 130.947 272.548 130.947H271.137V137.43H270.013ZM273.69 134.07L275.53 137.43H274.25L272.446 134.07H273.69ZM277.113 137.43V129.983H281.782V130.95H278.237V133.22H281.539V134.183H278.237V136.463H281.826V137.43H277.113ZM289.794 129.983V137.43H288.761L284.976 131.969H284.907V137.43H283.783V129.983H284.823L288.612 135.452H288.681V129.983H289.794ZM291.566 130.95V129.983H297.33V130.95H295.006V137.43H293.886V130.95H291.566ZM308.782 133.707C308.782 134.502 308.637 135.186 308.346 135.758C308.055 136.327 307.656 136.766 307.15 137.074C306.645 137.38 306.072 137.532 305.43 137.532C304.785 137.532 304.209 137.38 303.702 137.074C303.198 136.766 302.801 136.326 302.51 135.754C302.219 135.182 302.073 134.5 302.073 133.707C302.073 132.912 302.219 132.229 302.51 131.66C302.801 131.087 303.198 130.649 303.702 130.343C304.209 130.035 304.785 129.881 305.43 129.881C306.072 129.881 306.645 130.035 307.15 130.343C307.656 130.649 308.055 131.087 308.346 131.66C308.637 132.229 308.782 132.912 308.782 133.707ZM307.67 133.707C307.67 133.101 307.571 132.59 307.375 132.176C307.181 131.759 306.914 131.444 306.575 131.23C306.238 131.015 305.856 130.907 305.43 130.907C305.001 130.907 304.618 131.015 304.281 131.23C303.944 131.444 303.677 131.759 303.481 132.176C303.287 132.59 303.19 133.101 303.19 133.707C303.19 134.313 303.287 134.824 303.481 135.241C303.677 135.656 303.944 135.971 304.281 136.187C304.618 136.4 305.001 136.507 305.43 136.507C305.856 136.507 306.238 136.4 306.575 136.187C306.914 135.971 307.181 135.656 307.375 135.241C307.571 134.824 307.67 134.313 307.67 133.707ZM310.683 137.43V129.983H315.301V130.95H311.807V133.22H314.971V134.183H311.807V137.43H310.683Z" fill="#0F3058"/>
<path d="M322.705 133.43H360.205" stroke="#B7D9F8" stroke-width="2"/>
<rect x="360.205" y="114.464" width="66" height="37.9321" rx="2.98868" fill="#F8F1EE"/>
<path d="M380.835 139.43V127.976H388.173V129.715H382.91V132.825H387.67V134.564H382.91V139.43H380.835ZM389.974 139.43V130.84H391.999V139.43H389.974ZM390.992 129.62C390.671 129.62 390.395 129.514 390.164 129.301C389.933 129.085 389.817 128.826 389.817 128.524C389.817 128.218 389.933 127.959 390.164 127.747C390.395 127.53 390.671 127.422 390.992 127.422C391.316 127.422 391.592 127.53 391.82 127.747C392.051 127.959 392.166 128.218 392.166 128.524C392.166 128.826 392.051 129.085 391.82 129.301C391.592 129.514 391.316 129.62 390.992 129.62ZM396.105 127.976V139.43H394.081V127.976H396.105ZM401.991 139.598C401.129 139.598 400.385 139.419 399.759 139.061C399.136 138.7 398.657 138.189 398.322 137.529C397.986 136.865 397.818 136.084 397.818 135.185C397.818 134.302 397.986 133.526 398.322 132.859C398.661 132.187 399.134 131.665 399.742 131.293C400.35 130.916 401.064 130.728 401.884 130.728C402.414 130.728 402.913 130.813 403.383 130.985C403.857 131.153 404.274 131.414 404.636 131.768C405.001 132.122 405.289 132.573 405.497 133.121C405.706 133.666 405.811 134.315 405.811 135.068V135.689H398.769V134.324H403.87C403.866 133.936 403.782 133.591 403.618 133.289C403.454 132.984 403.225 132.743 402.93 132.568C402.639 132.393 402.3 132.305 401.912 132.305C401.498 132.305 401.135 132.406 400.822 132.607C400.508 132.805 400.264 133.066 400.089 133.39C399.917 133.711 399.83 134.063 399.826 134.447V135.638C399.826 136.138 399.917 136.567 400.1 136.925C400.283 137.279 400.538 137.551 400.866 137.741C401.194 137.928 401.579 138.021 402.019 138.021C402.313 138.021 402.58 137.98 402.818 137.898C403.057 137.812 403.264 137.687 403.439 137.523C403.614 137.359 403.747 137.156 403.836 136.914L405.727 137.126C405.607 137.626 405.38 138.062 405.044 138.435C404.712 138.804 404.287 139.091 403.769 139.296C403.251 139.498 402.658 139.598 401.991 139.598Z" fill="#43302B"/>
<rect x="360.952" y="115.212" width="64.5057" height="36.4377" rx="2.24151" stroke="url(#paint1_linear_20369_1720)" stroke-opacity="0.4" stroke-width="1.49434"/>
<rect x="90.3037" y="49.4983" width="115" height="28" rx="14" fill="#EADDD7"/>
<path d="M103.696 68.4983V58.3165H110.01V59.6389H105.232V62.7412H109.557V64.0587H105.232V68.4983H103.696ZM114.436 68.6524C113.72 68.6524 113.095 68.4883 112.561 68.1602C112.028 67.8321 111.613 67.3731 111.318 66.7831C111.023 66.1931 110.876 65.5037 110.876 64.7149C110.876 63.9228 111.023 63.2301 111.318 62.6368C111.613 62.0435 112.028 61.5828 112.561 61.2547C113.095 60.9266 113.72 60.7625 114.436 60.7625C115.152 60.7625 115.776 60.9266 116.31 61.2547C116.844 61.5828 117.258 62.0435 117.553 62.6368C117.848 63.2301 117.995 63.9228 117.995 64.7149C117.995 65.5037 117.848 66.1931 117.553 66.7831C117.258 67.3731 116.844 67.8321 116.31 68.1602C115.776 68.4883 115.152 68.6524 114.436 68.6524ZM114.441 67.4045C114.905 67.4045 115.289 67.2819 115.594 67.0366C115.899 66.7914 116.124 66.4649 116.27 66.0572C116.419 65.6496 116.494 65.2005 116.494 64.7099C116.494 64.2227 116.419 63.7753 116.27 63.3676C116.124 62.9566 115.899 62.6268 115.594 62.3783C115.289 62.1297 114.905 62.0054 114.441 62.0054C113.973 62.0054 113.585 62.1297 113.277 62.3783C112.972 62.6268 112.745 62.9566 112.596 63.3676C112.45 63.7753 112.377 64.2227 112.377 64.7099C112.377 65.2005 112.45 65.6496 112.596 66.0572C112.745 66.4649 112.972 66.7914 113.277 67.0366C113.585 67.2819 113.973 67.4045 114.441 67.4045ZM121.141 58.3165V68.4983H119.655V58.3165H121.141ZM126 68.6474C125.383 68.6474 124.833 68.49 124.349 68.1751C123.868 67.857 123.491 67.4045 123.215 66.8179C122.944 66.2279 122.808 65.5203 122.808 64.695C122.808 63.8697 122.945 63.1638 123.22 62.5771C123.499 61.9905 123.88 61.5414 124.364 61.2298C124.848 60.9183 125.396 60.7625 126.009 60.7625C126.483 60.7625 126.865 60.842 127.153 61.0011C127.445 61.1569 127.67 61.3392 127.829 61.548C127.992 61.7568 128.117 61.9408 128.207 62.0999H128.296V58.3165H129.783V68.4983H128.331V67.3101H128.207C128.117 67.4725 127.988 67.6581 127.819 67.8669C127.653 68.0757 127.425 68.258 127.133 68.4138C126.841 68.5696 126.464 68.6474 126 68.6474ZM126.328 67.3797C126.755 67.3797 127.117 67.267 127.411 67.0416C127.71 66.8129 127.935 66.4964 128.088 66.092C128.243 65.6877 128.321 65.217 128.321 64.6801C128.321 64.1498 128.245 63.6858 128.093 63.2881C127.94 62.8903 127.716 62.5804 127.421 62.3584C127.126 62.1363 126.762 62.0253 126.328 62.0253C125.88 62.0253 125.507 62.1413 125.209 62.3733C124.911 62.6053 124.685 62.9218 124.533 63.3229C124.384 63.7239 124.309 64.1763 124.309 64.6801C124.309 65.1905 124.385 65.6496 124.538 66.0572C124.69 66.4649 124.916 66.7881 125.214 67.0267C125.516 67.262 125.887 67.3797 126.328 67.3797ZM135.196 68.6524C134.443 68.6524 133.795 68.4917 133.252 68.1702C132.712 67.8454 132.294 67.3896 131.999 66.803C131.707 66.213 131.562 65.522 131.562 64.7298C131.562 63.9476 131.707 63.2582 131.999 62.6616C132.294 62.0651 132.705 61.5994 133.232 61.2646C133.762 60.9299 134.382 60.7625 135.091 60.7625C135.522 60.7625 135.94 60.8338 136.344 60.9763C136.749 61.1188 137.111 61.3425 137.433 61.6474C137.754 61.9524 138.008 62.3484 138.194 62.8356C138.379 63.3196 138.472 63.9079 138.472 64.6006V65.1276H132.402V64.0139H137.015C137.015 63.6228 136.936 63.2765 136.777 62.9749C136.618 62.6699 136.394 62.4296 136.106 62.254C135.821 62.0783 135.486 61.9905 135.101 61.9905C134.684 61.9905 134.319 62.0932 134.008 62.2987C133.699 62.5009 133.461 62.766 133.292 63.0942C133.126 63.419 133.043 63.772 133.043 64.1531V65.0231C133.043 65.5336 133.133 65.9678 133.312 66.3257C133.494 66.6837 133.747 66.9571 134.072 67.146C134.397 67.3316 134.776 67.4244 135.211 67.4244C135.492 67.4244 135.749 67.3847 135.981 67.3051C136.213 67.2222 136.414 67.0996 136.583 66.9372C136.752 66.7748 136.881 66.5743 136.971 66.3356L138.378 66.5892C138.265 67.0035 138.063 67.3664 137.771 67.678C137.483 67.9862 137.12 68.2265 136.682 68.3989C136.248 68.5679 135.753 68.6524 135.196 68.6524ZM140.121 68.4983V60.8619H141.558V62.075H141.638C141.777 61.664 142.022 61.3409 142.373 61.1055C142.728 60.8669 143.129 60.7476 143.577 60.7476C143.669 60.7476 143.779 60.7509 143.905 60.7575C144.034 60.7642 144.135 60.7724 144.208 60.7824V62.2043C144.148 62.1877 144.042 62.1695 143.89 62.1496C143.737 62.1264 143.585 62.1148 143.432 62.1148C143.081 62.1148 142.768 62.1893 142.493 62.3385C142.221 62.4843 142.006 62.6882 141.847 62.95C141.687 63.2085 141.608 63.5035 141.608 63.8349V68.4983H140.121ZM149.313 68.4983L150.983 58.3165H152.176L150.506 68.4983H149.313ZM144.704 65.7739L144.898 64.5807H152.614L152.42 65.7739H144.704ZM145.733 68.4983L147.403 58.3165H148.597L146.926 68.4983H145.733ZM145.296 62.2341L145.489 61.0409H153.205L153.011 62.2341H145.296Z" fill="#977669"/>
<path d="M154.528 68.4983V58.3165H160.911V59.6389H156.064V62.7412H160.578V64.0587H156.064V67.1758H160.971V68.4983H154.528ZM165.703 68.6474C165.086 68.6474 164.536 68.49 164.052 68.1751C163.572 67.857 163.194 67.4045 162.919 66.8179C162.647 66.2279 162.511 65.5203 162.511 64.695C162.511 63.8697 162.648 63.1638 162.924 62.5771C163.202 61.9905 163.583 61.5414 164.067 61.2298C164.551 60.9183 165.099 60.7625 165.713 60.7625C166.187 60.7625 166.568 60.842 166.856 61.0011C167.148 61.1569 167.373 61.3392 167.532 61.548C167.695 61.7568 167.821 61.9408 167.91 62.0999H168V58.3165H169.486V68.4983H168.034V67.3101H167.91C167.821 67.4725 167.691 67.6581 167.522 67.8669C167.357 68.0757 167.128 68.258 166.836 68.4138C166.545 68.5696 166.167 68.6474 165.703 68.6474ZM166.031 67.3797C166.458 67.3797 166.82 67.267 167.115 67.0416C167.413 66.8129 167.638 66.4964 167.791 66.092C167.947 65.6877 168.024 65.217 168.024 64.6801C168.024 64.1498 167.948 63.6858 167.796 63.2881C167.643 62.8903 167.42 62.5804 167.125 62.3584C166.83 62.1363 166.465 62.0253 166.031 62.0253C165.583 62.0253 165.21 62.1413 164.912 62.3733C164.614 62.6053 164.389 62.9218 164.236 63.3229C164.087 63.7239 164.012 64.1763 164.012 64.6801C164.012 65.1905 164.089 65.6496 164.241 66.0572C164.393 66.4649 164.619 66.7881 164.917 67.0267C165.219 67.262 165.59 67.3797 166.031 67.3797ZM171.608 68.4983V60.8619H173.094V68.4983H171.608ZM172.358 59.6837C172.1 59.6837 171.878 59.5975 171.692 59.4251C171.51 59.2495 171.419 59.0407 171.419 58.7987C171.419 58.5535 171.51 58.3446 171.692 58.1723C171.878 57.9966 172.1 57.9088 172.358 57.9088C172.617 57.9088 172.837 57.9966 173.02 58.1723C173.205 58.3446 173.298 58.5535 173.298 58.7987C173.298 59.0407 173.205 59.2495 173.02 59.4251C172.837 59.5975 172.617 59.6837 172.358 59.6837ZM178.659 60.8619V62.0551H174.487V60.8619H178.659ZM175.606 59.0324H177.093V66.2561C177.093 66.5445 177.136 66.7615 177.222 66.9074C177.308 67.0499 177.419 67.1477 177.555 67.2007C177.694 67.2504 177.845 67.2753 178.007 67.2753C178.127 67.2753 178.231 67.267 178.321 67.2504C178.41 67.2338 178.48 67.2206 178.529 67.2106L178.798 68.4386C178.712 68.4718 178.589 68.5049 178.43 68.5381C178.271 68.5745 178.072 68.5944 177.833 68.5977C177.442 68.6044 177.078 68.5347 176.74 68.3889C176.402 68.2431 176.128 68.0177 175.919 67.7128C175.71 67.4079 175.606 67.025 175.606 66.5643V59.0324ZM183.438 68.6524C182.722 68.6524 182.097 68.4883 181.563 68.1602C181.03 67.8321 180.615 67.3731 180.32 66.7831C180.025 66.1931 179.878 65.5037 179.878 64.7149C179.878 63.9228 180.025 63.2301 180.32 62.6368C180.615 62.0435 181.03 61.5828 181.563 61.2547C182.097 60.9266 182.722 60.7625 183.438 60.7625C184.153 60.7625 184.778 60.9266 185.312 61.2547C185.845 61.5828 186.26 62.0435 186.555 62.6368C186.85 63.2301 186.997 63.9228 186.997 64.7149C186.997 65.5037 186.85 66.1931 186.555 66.7831C186.26 67.3731 185.845 67.8321 185.312 68.1602C184.778 68.4883 184.153 68.6524 183.438 68.6524ZM183.443 67.4045C183.907 67.4045 184.291 67.2819 184.596 67.0366C184.901 66.7914 185.126 66.4649 185.272 66.0572C185.421 65.6496 185.496 65.2005 185.496 64.7099C185.496 64.2227 185.421 63.7753 185.272 63.3676C185.126 62.9566 184.901 62.6268 184.596 62.3783C184.291 62.1297 183.907 62.0054 183.443 62.0054C182.975 62.0054 182.587 62.1297 182.279 62.3783C181.974 62.6268 181.747 62.9566 181.598 63.3676C181.452 63.7753 181.379 64.2227 181.379 64.7099C181.379 65.2005 181.452 65.6496 181.598 66.0572C181.747 66.4649 181.974 66.7914 182.279 67.0366C182.587 67.2819 182.975 67.4045 183.443 67.4045ZM188.657 68.4983V60.8619H190.093V62.075H190.173C190.312 61.664 190.557 61.3409 190.909 61.1055C191.263 60.8669 191.664 60.7476 192.112 60.7476C192.205 60.7476 192.314 60.7509 192.44 60.7575C192.569 60.7642 192.67 60.7724 192.743 60.7824V62.2043C192.684 62.1877 192.577 62.1695 192.425 62.1496C192.273 62.1264 192.12 62.1148 191.968 62.1148C191.616 62.1148 191.303 62.1893 191.028 62.3385C190.756 62.4843 190.541 62.6882 190.382 62.95C190.223 63.2085 190.143 63.5035 190.143 63.8349V68.4983H188.657Z" fill="#43302B"/>
<rect x="352.304" y="49.4983" width="99" height="28" rx="14" fill="#EADDD7"/>
<path d="M365.434 68.4983V58.3165H371.748V59.6389H366.97V62.7412H371.296V64.0587H366.97V68.4983H365.434ZM373.518 68.4983V60.8619H375.004V68.4983H373.518ZM374.269 59.6837C374.01 59.6837 373.788 59.5975 373.602 59.4251C373.42 59.2495 373.329 59.0407 373.329 58.7987C373.329 58.5535 373.42 58.3446 373.602 58.1723C373.788 57.9966 374.01 57.9088 374.269 57.9088C374.527 57.9088 374.747 57.9966 374.93 58.1723C375.115 58.3446 375.208 58.5535 375.208 58.7987C375.208 59.0407 375.115 59.2495 374.93 59.4251C374.747 59.5975 374.527 59.6837 374.269 59.6837ZM378.491 58.3165V68.4983H377.004V58.3165H378.491ZM383.782 68.6524C383.029 68.6524 382.381 68.4917 381.838 68.1702C381.298 67.8454 380.88 67.3896 380.585 66.803C380.293 66.213 380.147 65.522 380.147 64.7298C380.147 63.9476 380.293 63.2582 380.585 62.6616C380.88 62.0651 381.291 61.5994 381.818 61.2646C382.348 60.9299 382.968 60.7625 383.677 60.7625C384.108 60.7625 384.526 60.8338 384.93 60.9763C385.334 61.1188 385.697 61.3425 386.019 61.6474C386.34 61.9524 386.594 62.3484 386.78 62.8356C386.965 63.3196 387.058 63.9079 387.058 64.6006V65.1276H380.988V64.0139H385.601C385.601 63.6228 385.522 63.2765 385.363 62.9749C385.204 62.6699 384.98 62.4296 384.691 62.254C384.406 62.0783 384.072 61.9905 383.687 61.9905C383.27 61.9905 382.905 62.0932 382.593 62.2987C382.285 62.5009 382.047 62.766 381.878 63.0942C381.712 63.419 381.629 63.772 381.629 64.1531V65.0231C381.629 65.5336 381.718 65.9678 381.897 66.3257C382.08 66.6837 382.333 66.9571 382.658 67.146C382.983 67.3316 383.362 67.4244 383.797 67.4244C384.078 67.4244 384.335 67.3847 384.567 67.3051C384.799 67.2222 385 67.0996 385.169 66.9372C385.338 66.7748 385.467 66.5743 385.557 66.3356L386.964 66.5892C386.851 67.0035 386.649 67.3664 386.357 67.678C386.069 67.9862 385.706 68.2265 385.268 68.3989C384.834 68.5679 384.339 68.6524 383.782 68.6524ZM392.525 68.4983L394.196 58.3165H395.389L393.719 68.4983H392.525ZM387.917 65.7739L388.111 64.5807H395.827L395.633 65.7739H387.917ZM388.946 68.4983L390.616 58.3165H391.81L390.139 68.4983H388.946ZM388.508 62.2341L388.702 61.0409H396.418L396.224 62.2341H388.508Z" fill="#977669"/>
<path d="M398.601 68.4983H396.97L400.634 58.3165H402.409L406.073 68.4983H404.442L401.564 60.1659H401.484L398.601 68.4983ZM398.874 64.5111H404.164V65.8037H398.874V64.5111ZM410.16 68.6474C409.543 68.6474 408.993 68.49 408.509 68.1751C408.029 67.857 407.651 67.4045 407.376 66.8179C407.104 66.2279 406.968 65.5203 406.968 64.695C406.968 63.8697 407.105 63.1638 407.381 62.5771C407.659 61.9905 408.04 61.5414 408.524 61.2298C409.008 60.9183 409.556 60.7625 410.17 60.7625C410.644 60.7625 411.025 60.842 411.313 61.0011C411.605 61.1569 411.83 61.3392 411.989 61.548C412.152 61.7568 412.278 61.9408 412.367 62.0999H412.457V58.3165H413.943V68.4983H412.491V67.3101H412.367C412.278 67.4725 412.148 67.6581 411.979 67.8669C411.814 68.0757 411.585 68.258 411.293 68.4138C411.002 68.5696 410.624 68.6474 410.16 68.6474ZM410.488 67.3797C410.915 67.3797 411.277 67.267 411.572 67.0416C411.87 66.8129 412.095 66.4964 412.248 66.092C412.404 65.6877 412.481 65.217 412.481 64.6801C412.481 64.1498 412.405 63.6858 412.253 63.2881C412.1 62.8903 411.877 62.5804 411.582 62.3584C411.287 62.1363 410.922 62.0253 410.488 62.0253C410.04 62.0253 409.668 62.1413 409.369 62.3733C409.071 62.6053 408.846 62.9218 408.693 63.3229C408.544 63.7239 408.469 64.1763 408.469 64.6801C408.469 65.1905 408.546 65.6496 408.698 66.0572C408.851 66.4649 409.076 66.7881 409.374 67.0267C409.676 67.262 410.047 67.3797 410.488 67.3797ZM416.065 68.4983V60.8619H417.492V62.1048H417.586C417.745 61.6839 418.005 61.3558 418.367 61.1205C418.728 60.8818 419.16 60.7625 419.664 60.7625C420.175 60.7625 420.602 60.8818 420.947 61.1205C421.295 61.3591 421.552 61.6872 421.717 62.1048H421.797C421.979 61.6972 422.269 61.3723 422.667 61.1304C423.065 60.8851 423.539 60.7625 424.089 60.7625C424.782 60.7625 425.347 60.9796 425.784 61.4138C426.225 61.848 426.445 62.5026 426.445 63.3776V68.4983H424.959V63.5168C424.959 62.9997 424.818 62.6252 424.536 62.3932C424.255 62.1612 423.918 62.0452 423.527 62.0452C423.043 62.0452 422.667 62.1943 422.399 62.4926C422.13 62.7876 421.996 63.1671 421.996 63.6311V68.4983H420.514V63.4223C420.514 63.008 420.385 62.6749 420.127 62.423C419.868 62.1711 419.532 62.0452 419.117 62.0452C418.836 62.0452 418.575 62.1197 418.337 62.2689C418.101 62.4147 417.911 62.6186 417.765 62.8804C417.622 63.1422 417.551 63.4455 417.551 63.7902V68.4983H416.065ZM428.438 68.4983V60.8619H429.924V68.4983H428.438ZM429.188 59.6837C428.93 59.6837 428.708 59.5975 428.522 59.4251C428.34 59.2495 428.249 59.0407 428.249 58.7987C428.249 58.5535 428.34 58.3446 428.522 58.1723C428.708 57.9966 428.93 57.9088 429.188 57.9088C429.447 57.9088 429.667 57.9966 429.85 58.1723C430.035 58.3446 430.128 58.5535 430.128 58.7987C430.128 59.0407 430.035 59.2495 429.85 59.4251C429.667 59.5975 429.447 59.6837 429.188 59.6837ZM433.411 63.9642V68.4983H431.924V60.8619H433.351V62.1048H433.445C433.621 61.7005 433.896 61.3757 434.271 61.1304C434.649 60.8851 435.124 60.7625 435.698 60.7625C436.218 60.7625 436.674 60.8719 437.065 61.0906C437.456 61.3061 437.759 61.6276 437.975 62.0551C438.19 62.4827 438.298 63.0113 438.298 63.641V68.4983H436.811V63.82C436.811 63.2665 436.667 62.834 436.379 62.5224C436.09 62.2076 435.694 62.0501 435.19 62.0501C434.846 62.0501 434.539 62.1247 434.271 62.2739C434.006 62.423 433.795 62.6418 433.639 62.9301C433.487 63.2151 433.411 63.5598 433.411 63.9642Z" fill="#43302B"/>
<rect x="90.3037" y="189.498" width="118" height="28" rx="14" fill="#EADDD7"/>
<path d="M103.671 208.498V198.316H109.985V199.639H105.208V202.741H109.533V204.059H105.208V208.498H103.671ZM114.411 208.652C113.695 208.652 113.071 208.488 112.537 208.16C112.003 207.832 111.589 207.373 111.294 206.783C110.999 206.193 110.852 205.504 110.852 204.715C110.852 203.923 110.999 203.23 111.294 202.637C111.589 202.044 112.003 201.583 112.537 201.255C113.071 200.927 113.695 200.762 114.411 200.762C115.127 200.762 115.752 200.927 116.286 201.255C116.819 201.583 117.233 202.044 117.528 202.637C117.823 203.23 117.971 203.923 117.971 204.715C117.971 205.504 117.823 206.193 117.528 206.783C117.233 207.373 116.819 207.832 116.286 208.16C115.752 208.488 115.127 208.652 114.411 208.652ZM114.416 207.405C114.88 207.405 115.265 207.282 115.57 207.037C115.875 206.791 116.1 206.465 116.246 206.057C116.395 205.65 116.469 205.2 116.469 204.71C116.469 204.223 116.395 203.775 116.246 203.368C116.1 202.957 115.875 202.627 115.57 202.378C115.265 202.13 114.88 202.005 114.416 202.005C113.949 202.005 113.561 202.13 113.253 202.378C112.948 202.627 112.721 202.957 112.572 203.368C112.426 203.775 112.353 204.223 112.353 204.71C112.353 205.2 112.426 205.65 112.572 206.057C112.721 206.465 112.948 206.791 113.253 207.037C113.561 207.282 113.949 207.405 114.416 207.405ZM121.117 198.316V208.498H119.63V198.316H121.117ZM125.975 208.647C125.359 208.647 124.808 208.49 124.325 208.175C123.844 207.857 123.466 207.405 123.191 206.818C122.919 206.228 122.783 205.52 122.783 204.695C122.783 203.87 122.921 203.164 123.196 202.577C123.474 201.99 123.856 201.541 124.339 201.23C124.823 200.918 125.372 200.762 125.985 200.762C126.459 200.762 126.84 200.842 127.129 201.001C127.42 201.157 127.646 201.339 127.805 201.548C127.967 201.757 128.093 201.941 128.183 202.1H128.272V198.316H129.759V208.498H128.307V207.31H128.183C128.093 207.472 127.964 207.658 127.795 207.867C127.629 208.076 127.4 208.258 127.109 208.414C126.817 208.57 126.439 208.647 125.975 208.647ZM126.303 207.38C126.731 207.38 127.092 207.267 127.387 207.042C127.685 206.813 127.911 206.496 128.063 206.092C128.219 205.688 128.297 205.217 128.297 204.68C128.297 204.15 128.221 203.686 128.068 203.288C127.916 202.89 127.692 202.58 127.397 202.358C127.102 202.136 126.737 202.025 126.303 202.025C125.856 202.025 125.483 202.141 125.185 202.373C124.886 202.605 124.661 202.922 124.509 203.323C124.359 203.724 124.285 204.176 124.285 204.68C124.285 205.191 124.361 205.65 124.513 206.057C124.666 206.465 124.891 206.788 125.19 207.027C125.491 207.262 125.862 207.38 126.303 207.38ZM135.171 208.652C134.419 208.652 133.771 208.492 133.227 208.17C132.687 207.845 132.27 207.39 131.975 206.803C131.683 206.213 131.537 205.522 131.537 204.73C131.537 203.948 131.683 203.258 131.975 202.662C132.27 202.065 132.681 201.599 133.208 201.265C133.738 200.93 134.358 200.762 135.067 200.762C135.498 200.762 135.915 200.834 136.32 200.976C136.724 201.119 137.087 201.343 137.409 201.647C137.73 201.952 137.984 202.348 138.169 202.836C138.355 203.32 138.448 203.908 138.448 204.601V205.128H132.377V204.014H136.991C136.991 203.623 136.911 203.276 136.752 202.975C136.593 202.67 136.369 202.43 136.081 202.254C135.796 202.078 135.461 201.99 135.077 201.99C134.659 201.99 134.295 202.093 133.983 202.299C133.675 202.501 133.436 202.766 133.267 203.094C133.102 203.419 133.019 203.772 133.019 204.153V205.023C133.019 205.534 133.108 205.968 133.287 206.326C133.469 206.684 133.723 206.957 134.048 207.146C134.373 207.332 134.752 207.424 135.186 207.424C135.468 207.424 135.725 207.385 135.957 207.305C136.189 207.222 136.389 207.1 136.558 206.937C136.727 206.775 136.857 206.574 136.946 206.336L138.353 206.589C138.24 207.003 138.038 207.366 137.747 207.678C137.458 207.986 137.095 208.227 136.658 208.399C136.224 208.568 135.728 208.652 135.171 208.652ZM140.097 208.498V200.862H141.534V202.075H141.613C141.752 201.664 141.998 201.341 142.349 201.106C142.704 200.867 143.105 200.748 143.552 200.748C143.645 200.748 143.754 200.751 143.88 200.758C144.01 200.764 144.111 200.772 144.184 200.782V202.204C144.124 202.188 144.018 202.169 143.865 202.15C143.713 202.126 143.56 202.115 143.408 202.115C143.057 202.115 142.743 202.189 142.468 202.338C142.197 202.484 141.981 202.688 141.822 202.95C141.663 203.209 141.583 203.503 141.583 203.835V208.498H140.097ZM149.288 208.498L150.959 198.316H152.152L150.481 208.498H149.288ZM144.68 205.774L144.873 204.581H152.589L152.395 205.774H144.68ZM145.709 208.498L147.379 198.316H148.572L146.902 208.498H145.709ZM145.271 202.234L145.465 201.041H153.181L152.987 202.234H145.271Z" fill="#977669"/>
<path d="M155.363 208.498H153.733L157.397 198.316H159.172L162.836 208.498H161.205L158.327 200.166H158.247L155.363 208.498ZM155.637 204.511H160.927V205.804H155.637V204.511ZM166.922 208.647C166.306 208.647 165.756 208.49 165.272 208.175C164.791 207.857 164.413 207.405 164.138 206.818C163.867 206.228 163.731 205.52 163.731 204.695C163.731 203.87 163.868 203.164 164.143 202.577C164.422 201.99 164.803 201.541 165.287 201.23C165.771 200.918 166.319 200.762 166.932 200.762C167.406 200.762 167.787 200.842 168.076 201.001C168.367 201.157 168.593 201.339 168.752 201.548C168.914 201.757 169.04 201.941 169.13 202.1H169.219V198.316H170.706V208.498H169.254V207.31H169.13C169.04 207.472 168.911 207.658 168.742 207.867C168.576 208.076 168.348 208.258 168.056 208.414C167.764 208.57 167.386 208.647 166.922 208.647ZM167.251 207.38C167.678 207.38 168.039 207.267 168.334 207.042C168.633 206.813 168.858 206.496 169.01 206.092C169.166 205.688 169.244 205.217 169.244 204.68C169.244 204.15 169.168 203.686 169.015 203.288C168.863 202.89 168.639 202.58 168.344 202.358C168.049 202.136 167.685 202.025 167.251 202.025C166.803 202.025 166.43 202.141 166.132 202.373C165.834 202.605 165.608 202.922 165.456 203.323C165.307 203.724 165.232 204.176 165.232 204.68C165.232 205.191 165.308 205.65 165.461 206.057C165.613 206.465 165.839 206.788 166.137 207.027C166.439 207.262 166.81 207.38 167.251 207.38ZM172.827 208.498V200.862H174.254V202.105H174.349C174.508 201.684 174.768 201.356 175.129 201.12C175.491 200.882 175.923 200.762 176.427 200.762C176.937 200.762 177.365 200.882 177.71 201.12C178.058 201.359 178.314 201.687 178.48 202.105H178.56C178.742 201.697 179.032 201.372 179.43 201.13C179.827 200.885 180.301 200.762 180.852 200.762C181.544 200.762 182.109 200.98 182.547 201.414C182.988 201.848 183.208 202.503 183.208 203.378V208.498H181.722V203.517C181.722 203 181.581 202.625 181.299 202.393C181.017 202.161 180.681 202.045 180.29 202.045C179.806 202.045 179.43 202.194 179.161 202.493C178.893 202.788 178.759 203.167 178.759 203.631V208.498H177.277V203.422C177.277 203.008 177.148 202.675 176.889 202.423C176.631 202.171 176.294 202.045 175.88 202.045C175.598 202.045 175.338 202.12 175.099 202.269C174.864 202.415 174.674 202.619 174.528 202.88C174.385 203.142 174.314 203.445 174.314 203.79V208.498H172.827ZM185.2 208.498V200.862H186.687V208.498H185.2ZM185.951 199.684C185.693 199.684 185.471 199.597 185.285 199.425C185.103 199.249 185.012 199.041 185.012 198.799C185.012 198.553 185.103 198.345 185.285 198.172C185.471 197.997 185.693 197.909 185.951 197.909C186.21 197.909 186.43 197.997 186.612 198.172C186.798 198.345 186.891 198.553 186.891 198.799C186.891 199.041 186.798 199.249 186.612 199.425C186.43 199.597 186.21 199.684 185.951 199.684ZM190.173 203.964V208.498H188.687V200.862H190.114V202.105H190.208C190.384 201.7 190.659 201.376 191.033 201.13C191.411 200.885 191.887 200.762 192.46 200.762C192.981 200.762 193.436 200.872 193.827 201.091C194.219 201.306 194.522 201.628 194.737 202.055C194.953 202.483 195.06 203.011 195.06 203.641V208.498H193.574V203.82C193.574 203.267 193.43 202.834 193.141 202.522C192.853 202.208 192.457 202.05 191.953 202.05C191.608 202.05 191.302 202.125 191.033 202.274C190.768 202.423 190.558 202.642 190.402 202.93C190.25 203.215 190.173 203.56 190.173 203.964Z" fill="#43302B"/>
<path d="M208.304 203.498H251.304" stroke="#B7D9F8" stroke-width="2"/>
<rect width="58" height="20" transform="translate(251.304 193.498)" fill="#B7D9F8"/>
<path d="M260.608 207.498H258.197V200.051H260.684C261.414 200.051 262.041 200.2 262.564 200.498C263.088 200.794 263.489 201.22 263.768 201.775C264.049 202.327 264.19 202.99 264.19 203.764C264.19 204.54 264.048 205.206 263.764 205.764C263.483 206.321 263.076 206.75 262.542 207.051C262.009 207.349 261.364 207.498 260.608 207.498ZM259.321 206.516H260.546C261.113 206.516 261.585 206.41 261.961 206.196C262.336 205.981 262.617 205.669 262.804 205.262C262.991 204.852 263.084 204.353 263.084 203.764C263.084 203.18 262.991 202.684 262.804 202.276C262.62 201.869 262.345 201.56 261.979 201.349C261.613 201.138 261.158 201.033 260.615 201.033H259.321V206.516ZM266.087 207.498V200.051H270.756V201.018H267.211V203.287H270.512V204.251H267.211V206.531H270.8V207.498H266.087ZM272.757 207.498V200.051H275.411C275.988 200.051 276.467 200.15 276.848 200.349C277.231 200.548 277.517 200.823 277.706 201.175C277.895 201.524 277.99 201.927 277.99 202.386C277.99 202.841 277.894 203.243 277.702 203.589C277.513 203.933 277.227 204.201 276.844 204.393C276.464 204.584 275.985 204.68 275.408 204.68H273.397V203.713H275.306C275.67 203.713 275.965 203.661 276.193 203.556C276.424 203.452 276.592 203.301 276.699 203.102C276.805 202.903 276.859 202.664 276.859 202.386C276.859 202.104 276.804 201.861 276.695 201.655C276.588 201.449 276.42 201.291 276.19 201.182C275.962 201.07 275.662 201.015 275.291 201.015H273.881V207.498H272.757ZM276.433 204.138L278.273 207.498H276.993L275.19 204.138H276.433ZM280.981 200.051V207.498H279.857V200.051H280.981ZM283.768 200.051L285.841 206.116H285.924L287.997 200.051H289.211L286.531 207.498H285.233L282.553 200.051H283.768ZM290.787 207.498V200.051H295.456V201.018H291.911V203.287H295.212V204.251H291.911V206.531H295.5V207.498H290.787ZM301.519 202.007C301.48 201.663 301.32 201.396 301.039 201.207C300.757 201.016 300.404 200.92 299.977 200.92C299.671 200.92 299.407 200.969 299.184 201.066C298.961 201.16 298.788 201.291 298.664 201.458C298.543 201.623 298.482 201.811 298.482 202.022C298.482 202.199 298.524 202.352 298.606 202.48C298.691 202.609 298.801 202.716 298.937 202.804C299.075 202.889 299.223 202.96 299.381 203.018C299.538 203.074 299.69 203.12 299.835 203.156L300.562 203.346C300.8 203.404 301.044 203.483 301.293 203.582C301.543 203.681 301.774 203.812 301.988 203.975C302.201 204.137 302.373 204.338 302.504 204.578C302.637 204.818 302.704 205.106 302.704 205.44C302.704 205.862 302.595 206.236 302.377 206.564C302.161 206.891 301.847 207.149 301.435 207.338C301.025 207.527 300.53 207.622 299.948 207.622C299.39 207.622 298.908 207.533 298.501 207.356C298.093 207.18 297.774 206.929 297.544 206.604C297.314 206.276 297.187 205.889 297.162 205.44H298.29C298.311 205.709 298.399 205.933 298.551 206.113C298.707 206.29 298.904 206.422 299.144 206.509C299.387 206.594 299.652 206.636 299.941 206.636C300.258 206.636 300.541 206.587 300.788 206.487C301.037 206.386 301.234 206.245 301.377 206.066C301.52 205.884 301.591 205.672 301.591 205.429C301.591 205.209 301.528 205.028 301.402 204.887C301.279 204.747 301.11 204.63 300.897 204.538C300.686 204.446 300.447 204.365 300.181 204.295L299.301 204.055C298.704 203.892 298.231 203.653 297.882 203.338C297.536 203.023 297.362 202.606 297.362 202.087C297.362 201.658 297.479 201.284 297.711 200.964C297.944 200.644 298.259 200.395 298.657 200.218C299.054 200.039 299.503 199.949 300.002 199.949C300.507 199.949 300.951 200.038 301.337 200.215C301.725 200.392 302.03 200.635 302.253 200.946C302.476 201.253 302.593 201.607 302.602 202.007H301.519Z" fill="#0F3058"/>
<path d="M352.304 203.498L342.304 197.725V209.272L352.304 203.498ZM309.304 204.498H343.304V202.498H309.304V204.498Z" fill="#B7D9F8"/>
<rect x="352.304" y="189.498" width="96" height="28" rx="14" fill="#EADDD7"/>
<path d="M365.458 208.498V198.316H371.772V199.639H366.995V202.741H371.32V204.059H366.995V208.498H365.458ZM373.542 208.498V200.862H375.029V208.498H373.542ZM374.293 199.684C374.034 199.684 373.812 199.597 373.627 199.425C373.444 199.249 373.353 199.041 373.353 198.799C373.353 198.553 373.444 198.345 373.627 198.172C373.812 197.997 374.034 197.909 374.293 197.909C374.551 197.909 374.772 197.997 374.954 198.172C375.14 198.345 375.233 198.553 375.233 198.799C375.233 199.041 375.14 199.249 374.954 199.425C374.772 199.597 374.551 199.684 374.293 199.684ZM378.515 198.316V208.498H377.029V198.316H378.515ZM383.806 208.652C383.054 208.652 382.406 208.492 381.862 208.17C381.322 207.845 380.904 207.39 380.609 206.803C380.318 206.213 380.172 205.522 380.172 204.73C380.172 203.948 380.318 203.258 380.609 202.662C380.904 202.065 381.315 201.599 381.842 201.265C382.373 200.93 382.992 200.762 383.702 200.762C384.133 200.762 384.55 200.834 384.955 200.976C385.359 201.119 385.722 201.343 386.043 201.647C386.365 201.952 386.618 202.348 386.804 202.836C386.99 203.32 387.082 203.908 387.082 204.601V205.128H381.012V204.014H385.626C385.626 203.623 385.546 203.276 385.387 202.975C385.228 202.67 385.004 202.43 384.716 202.254C384.431 202.078 384.096 201.99 383.712 201.99C383.294 201.99 382.929 202.093 382.618 202.299C382.31 202.501 382.071 202.766 381.902 203.094C381.736 203.419 381.653 203.772 381.653 204.153V205.023C381.653 205.534 381.743 205.968 381.922 206.326C382.104 206.684 382.358 206.957 382.683 207.146C383.007 207.332 383.387 207.424 383.821 207.424C384.103 207.424 384.36 207.385 384.592 207.305C384.824 207.222 385.024 207.1 385.193 206.937C385.362 206.775 385.491 206.574 385.581 206.336L386.988 206.589C386.875 207.003 386.673 207.366 386.381 207.678C386.093 207.986 385.73 208.227 385.293 208.399C384.858 208.568 384.363 208.652 383.806 208.652ZM392.55 208.498L394.22 198.316H395.414L393.743 208.498H392.55ZM387.941 205.774L388.135 204.581H395.851L395.657 205.774H387.941ZM388.97 208.498L390.641 198.316H391.834L390.164 208.498H388.97ZM388.533 202.234L388.727 201.041H396.443L396.249 202.234H388.533Z" fill="#977669"/>
<path d="M397.765 208.498V198.316H404.149V199.639H399.301V202.741H403.816V204.059H399.301V207.176H404.208V208.498H397.765ZM408.94 208.647C408.324 208.647 407.773 208.49 407.289 208.175C406.809 207.857 406.431 207.405 406.156 206.818C405.884 206.228 405.748 205.52 405.748 204.695C405.748 203.87 405.886 203.164 406.161 202.577C406.439 201.99 406.82 201.541 407.304 201.23C407.788 200.918 408.337 200.762 408.95 200.762C409.424 200.762 409.805 200.842 410.093 201.001C410.385 201.157 410.61 201.339 410.77 201.548C410.932 201.757 411.058 201.941 411.147 202.1H411.237V198.316H412.723V208.498H411.272V207.31H411.147C411.058 207.472 410.929 207.658 410.76 207.867C410.594 208.076 410.365 208.258 410.074 208.414C409.782 208.57 409.404 208.647 408.94 208.647ZM409.268 207.38C409.696 207.38 410.057 207.267 410.352 207.042C410.65 206.813 410.876 206.496 411.028 206.092C411.184 205.688 411.262 205.217 411.262 204.68C411.262 204.15 411.185 203.686 411.033 203.288C410.881 202.89 410.657 202.58 410.362 202.358C410.067 202.136 409.702 202.025 409.268 202.025C408.821 202.025 408.448 202.141 408.15 202.373C407.851 202.605 407.626 202.922 407.473 203.323C407.324 203.724 407.25 204.176 407.25 204.68C407.25 205.191 407.326 205.65 407.478 206.057C407.631 206.465 407.856 206.788 408.154 207.027C408.456 207.262 408.827 207.38 409.268 207.38ZM414.845 208.498V200.862H416.331V208.498H414.845ZM415.596 199.684C415.337 199.684 415.115 199.597 414.93 199.425C414.747 199.249 414.656 199.041 414.656 198.799C414.656 198.553 414.747 198.345 414.93 198.172C415.115 197.997 415.337 197.909 415.596 197.909C415.854 197.909 416.075 197.997 416.257 198.172C416.443 198.345 416.535 198.553 416.535 198.799C416.535 199.041 416.443 199.249 416.257 199.425C416.075 199.597 415.854 199.684 415.596 199.684ZM421.896 200.862V202.055H417.725V200.862H421.896ZM418.843 199.032H420.33V206.256C420.33 206.544 420.373 206.762 420.459 206.907C420.545 207.05 420.656 207.148 420.792 207.201C420.931 207.25 421.082 207.275 421.245 207.275C421.364 207.275 421.468 207.267 421.558 207.25C421.647 207.234 421.717 207.221 421.767 207.211L422.035 208.439C421.949 208.472 421.826 208.505 421.667 208.538C421.508 208.575 421.309 208.594 421.071 208.598C420.68 208.604 420.315 208.535 419.977 208.389C419.639 208.243 419.365 208.018 419.157 207.713C418.948 207.408 418.843 207.025 418.843 206.564V199.032ZM426.675 208.652C425.959 208.652 425.334 208.488 424.801 208.16C424.267 207.832 423.853 207.373 423.558 206.783C423.263 206.193 423.115 205.504 423.115 204.715C423.115 203.923 423.263 203.23 423.558 202.637C423.853 202.044 424.267 201.583 424.801 201.255C425.334 200.927 425.959 200.762 426.675 200.762C427.391 200.762 428.016 200.927 428.549 201.255C429.083 201.583 429.497 202.044 429.792 202.637C430.087 203.23 430.235 203.923 430.235 204.715C430.235 205.504 430.087 206.193 429.792 206.783C429.497 207.373 429.083 207.832 428.549 208.16C428.016 208.488 427.391 208.652 426.675 208.652ZM426.68 207.405C427.144 207.405 427.528 207.282 427.833 207.037C428.138 206.791 428.364 206.465 428.509 206.057C428.659 205.65 428.733 205.2 428.733 204.71C428.733 204.223 428.659 203.775 428.509 203.368C428.364 202.957 428.138 202.627 427.833 202.378C427.528 202.13 427.144 202.005 426.68 202.005C426.213 202.005 425.825 202.13 425.517 202.378C425.212 202.627 424.985 202.957 424.835 203.368C424.69 203.775 424.617 204.223 424.617 204.71C424.617 205.2 424.69 205.65 424.835 206.057C424.985 206.465 425.212 206.791 425.517 207.037C425.825 207.282 426.213 207.405 426.68 207.405ZM431.894 208.498V200.862H433.331V202.075H433.41C433.549 201.664 433.795 201.341 434.146 201.106C434.501 200.867 434.902 200.748 435.349 200.748C435.442 200.748 435.551 200.751 435.677 200.758C435.806 200.764 435.908 200.772 435.98 200.782V202.204C435.921 202.188 435.815 202.169 435.662 202.15C435.51 202.126 435.357 202.115 435.205 202.115C434.854 202.115 434.54 202.189 434.265 202.338C433.993 202.484 433.778 202.688 433.619 202.95C433.46 203.209 433.38 203.503 433.38 203.835V208.498H431.894Z" fill="#43302B"/>
<path d="M393.205 79.4983V114.464" stroke="#BFA094" stroke-width="2" stroke-linejoin="round" stroke-dasharray="4 4"/>
<path d="M392.455 153.532V188.498" stroke="#BFA094" stroke-width="2" stroke-linejoin="round" stroke-dasharray="4 4"/>
<path d="M162.83 79.4983V114.464" stroke="#BFA094" stroke-width="2" stroke-linejoin="round" stroke-dasharray="4 4"/>
<path d="M162.83 153.532V188.498" stroke="#BFA094" stroke-width="2" stroke-linejoin="round" stroke-dasharray="4 4"/>
<line x1="0.902344" y1="256.998" x2="556.705" y2="256.998" stroke="#FFF1E7" stroke-width="2" stroke-linejoin="round"/>
<path d="M49.4223 286.998V276.816H53.0516C53.8404 276.816 54.495 276.952 55.0154 277.224C55.539 277.496 55.9301 277.872 56.1887 278.353C56.4472 278.83 56.5764 279.382 56.5764 280.008C56.5764 280.631 56.4455 281.18 56.1837 281.654C55.9252 282.124 55.5341 282.491 55.0104 282.753C54.49 283.014 53.8354 283.145 53.0466 283.145H50.2973V281.823H52.9074C53.4046 281.823 53.8089 281.752 54.1205 281.609C54.4353 281.467 54.6657 281.259 54.8115 280.988C54.9574 280.716 55.0303 280.389 55.0303 280.008C55.0303 279.624 54.9557 279.291 54.8066 279.009C54.6607 278.727 54.4304 278.512 54.1155 278.363C53.8039 278.21 53.3946 278.134 52.8875 278.134H50.9585V286.998H49.4223ZM54.4486 282.405L56.9642 286.998H55.2142L52.7483 282.405H54.4486ZM61.4474 287.152C60.7314 287.152 60.1067 286.988 59.5731 286.66C59.0394 286.332 58.6251 285.873 58.3302 285.283C58.0352 284.693 57.8877 284.004 57.8877 283.215C57.8877 282.423 58.0352 281.73 58.3302 281.137C58.6251 280.544 59.0394 280.083 59.5731 279.755C60.1067 279.427 60.7314 279.262 61.4474 279.262C62.1633 279.262 62.788 279.427 63.3216 279.755C63.8553 280.083 64.2696 280.544 64.5645 281.137C64.8595 281.73 65.007 282.423 65.007 283.215C65.007 284.004 64.8595 284.693 64.5645 285.283C64.2696 285.873 63.8553 286.332 63.3216 286.66C62.788 286.988 62.1633 287.152 61.4474 287.152ZM61.4523 285.905C61.9163 285.905 62.3008 285.782 62.6057 285.537C62.9107 285.291 63.136 284.965 63.2819 284.557C63.431 284.15 63.5056 283.7 63.5056 283.21C63.5056 282.723 63.431 282.275 63.2819 281.868C63.136 281.457 62.9107 281.127 62.6057 280.878C62.3008 280.63 61.9163 280.505 61.4523 280.505C60.985 280.505 60.5972 280.63 60.289 280.878C59.984 281.127 59.757 281.457 59.6079 281.868C59.462 282.275 59.3891 282.723 59.3891 283.21C59.3891 283.7 59.462 284.15 59.6079 284.557C59.757 284.965 59.984 285.291 60.289 285.537C60.5972 285.782 60.985 285.905 61.4523 285.905ZM68.1528 276.816V286.998H66.6663V276.816H68.1528ZM73.4438 287.152C72.6914 287.152 72.0435 286.992 71.4999 286.67C70.9597 286.345 70.5421 285.89 70.2471 285.303C69.9554 284.713 69.8096 284.022 69.8096 283.23C69.8096 282.448 69.9554 281.758 70.2471 281.162C70.5421 280.565 70.953 280.099 71.48 279.765C72.0103 279.43 72.6301 279.262 73.3394 279.262C73.7703 279.262 74.1879 279.334 74.5922 279.476C74.9966 279.619 75.3595 279.843 75.681 280.147C76.0025 280.452 76.2561 280.848 76.4417 281.336C76.6273 281.82 76.7201 282.408 76.7201 283.101V283.628H70.6498V282.514H75.2634C75.2634 282.123 75.1839 281.776 75.0248 281.475C74.8657 281.17 74.642 280.93 74.3536 280.754C74.0686 280.578 73.7338 280.49 73.3493 280.49C72.9317 280.49 72.5671 280.593 72.2556 280.799C71.9474 281.001 71.7087 281.266 71.5397 281.594C71.374 281.919 71.2911 282.272 71.2911 282.653V283.523C71.2911 284.034 71.3806 284.468 71.5596 284.826C71.7419 285.184 71.9954 285.457 72.3202 285.646C72.645 285.832 73.0245 285.924 73.4587 285.924C73.7404 285.924 73.9973 285.885 74.2293 285.805C74.4613 285.722 74.6618 285.6 74.8309 285.437C74.9999 285.275 75.1292 285.074 75.2187 284.836L76.6256 285.089C76.5129 285.503 76.3108 285.866 76.0191 286.178C75.7307 286.486 75.3678 286.727 74.9303 286.899C74.4961 287.068 74.0006 287.152 73.4438 287.152ZM85.49 286.998H82.1938V276.816H85.5944C86.592 276.816 87.4488 277.02 88.1647 277.428C88.8806 277.832 89.4291 278.414 89.8103 279.173C90.1948 279.929 90.387 280.835 90.387 281.892C90.387 282.953 90.1931 283.865 89.8053 284.627C89.4208 285.389 88.864 285.976 88.1349 286.387C87.4057 286.794 86.5241 286.998 85.49 286.998ZM83.73 285.656H85.4055C86.181 285.656 86.8257 285.51 87.3394 285.218C87.8531 284.923 88.2376 284.498 88.4928 283.941C88.748 283.381 88.8756 282.698 88.8756 281.892C88.8756 281.094 88.748 280.416 88.4928 279.859C88.2409 279.302 87.8647 278.88 87.3643 278.591C86.8638 278.303 86.2423 278.159 85.4999 278.159H83.73V285.656ZM95.4692 287.152C94.7168 287.152 94.0689 286.992 93.5253 286.67C92.9851 286.345 92.5674 285.89 92.2725 285.303C91.9808 284.713 91.835 284.022 91.835 283.23C91.835 282.448 91.9808 281.758 92.2725 281.162C92.5674 280.565 92.9784 280.099 93.5054 279.765C94.0357 279.43 94.6555 279.262 95.3648 279.262C95.7957 279.262 96.2133 279.334 96.6176 279.476C97.022 279.619 97.3849 279.843 97.7064 280.147C98.0279 280.452 98.2815 280.848 98.4671 281.336C98.6527 281.82 98.7455 282.408 98.7455 283.101V283.628H92.6752V282.514H97.2888C97.2888 282.123 97.2093 281.776 97.0502 281.475C96.8911 281.17 96.6673 280.93 96.379 280.754C96.094 280.578 95.7592 280.49 95.3747 280.49C94.9571 280.49 94.5925 280.593 94.281 280.799C93.9727 281.001 93.7341 281.266 93.5651 281.594C93.3994 281.919 93.3165 282.272 93.3165 282.653V283.523C93.3165 284.034 93.406 284.468 93.585 284.826C93.7673 285.184 94.0208 285.457 94.3456 285.646C94.6704 285.832 95.0499 285.924 95.4841 285.924C95.7658 285.924 96.0227 285.885 96.2547 285.805C96.4867 285.722 96.6872 285.6 96.8563 285.437C97.0253 285.275 97.1546 285.074 97.2441 284.836L98.651 285.089C98.5383 285.503 98.3361 285.866 98.0445 286.178C97.7561 286.486 97.3932 286.727 96.9557 286.899C96.5215 287.068 96.026 287.152 95.4692 287.152ZM100.395 286.998V279.362H101.832V280.575H101.911C102.05 280.164 102.296 279.841 102.647 279.606C103.002 279.367 103.403 279.248 103.85 279.248C103.943 279.248 104.052 279.251 104.178 279.258C104.307 279.264 104.409 279.272 104.481 279.282V280.704C104.422 280.688 104.316 280.669 104.163 280.65C104.011 280.626 103.858 280.615 103.706 280.615C103.355 280.615 103.041 280.689 102.766 280.838C102.494 280.984 102.279 281.188 102.12 281.45C101.961 281.709 101.881 282.003 101.881 282.335V286.998H100.395ZM105.768 286.998V279.362H107.254V286.998H105.768ZM106.519 278.184C106.26 278.184 106.038 278.097 105.852 277.925C105.67 277.749 105.579 277.541 105.579 277.299C105.579 277.053 105.67 276.845 105.852 276.672C106.038 276.497 106.26 276.409 106.519 276.409C106.777 276.409 106.997 276.497 107.18 276.672C107.365 276.845 107.458 277.053 107.458 277.299C107.458 277.541 107.365 277.749 107.18 277.925C106.997 278.097 106.777 278.184 106.519 278.184ZM115.787 279.362L113.018 286.998H111.427L108.653 279.362H110.248L112.182 285.238H112.262L114.191 279.362H115.787ZM119.187 287.167C118.704 287.167 118.266 287.078 117.875 286.899C117.484 286.717 117.174 286.453 116.945 286.108C116.72 285.764 116.607 285.341 116.607 284.841C116.607 284.41 116.69 284.055 116.856 283.777C117.021 283.498 117.245 283.278 117.527 283.115C117.809 282.953 118.123 282.83 118.472 282.748C118.82 282.665 119.174 282.602 119.535 282.559C119.993 282.506 120.364 282.463 120.649 282.429C120.934 282.393 121.141 282.335 121.271 282.255C121.4 282.176 121.464 282.047 121.464 281.868V281.833C121.464 281.399 121.342 281.062 121.097 280.824C120.855 280.585 120.493 280.466 120.013 280.466C119.512 280.466 119.118 280.577 118.829 280.799C118.544 281.017 118.347 281.261 118.238 281.53L116.841 281.211C117.007 280.747 117.248 280.373 117.567 280.088C117.888 279.799 118.258 279.591 118.675 279.461C119.093 279.329 119.532 279.262 119.993 279.262C120.298 279.262 120.621 279.299 120.962 279.372C121.307 279.441 121.628 279.571 121.927 279.76C122.228 279.949 122.475 280.219 122.668 280.57C122.86 280.918 122.956 281.37 122.956 281.927V286.998H121.504V285.954H121.445C121.348 286.146 121.204 286.335 121.012 286.521C120.82 286.707 120.573 286.861 120.271 286.983C119.97 287.106 119.608 287.167 119.187 287.167ZM119.511 285.974C119.922 285.974 120.273 285.893 120.565 285.731C120.86 285.568 121.083 285.356 121.236 285.094C121.391 284.829 121.469 284.546 121.469 284.244V283.26C121.416 283.313 121.314 283.362 121.161 283.409C121.012 283.452 120.841 283.49 120.649 283.523C120.457 283.553 120.27 283.581 120.087 283.608C119.905 283.631 119.753 283.651 119.63 283.667C119.342 283.704 119.078 283.765 118.839 283.851C118.604 283.937 118.415 284.062 118.273 284.224C118.133 284.383 118.064 284.595 118.064 284.861C118.064 285.228 118.2 285.507 118.472 285.696C118.743 285.881 119.09 285.974 119.511 285.974ZM128.5 279.362V280.555H124.329V279.362H128.5ZM125.448 277.532H126.934V284.756C126.934 285.044 126.977 285.262 127.064 285.407C127.15 285.55 127.261 285.648 127.397 285.701C127.536 285.75 127.687 285.775 127.849 285.775C127.968 285.775 128.073 285.767 128.162 285.75C128.252 285.734 128.321 285.721 128.371 285.711L128.64 286.939C128.553 286.972 128.431 287.005 128.272 287.038C128.113 287.075 127.914 287.094 127.675 287.098C127.284 287.104 126.919 287.035 126.581 286.889C126.243 286.743 125.97 286.518 125.761 286.213C125.552 285.908 125.448 285.525 125.448 285.064V277.532ZM130.145 286.998V279.362H131.631V286.998H130.145ZM130.896 278.184C130.637 278.184 130.415 278.097 130.229 277.925C130.047 277.749 129.956 277.541 129.956 277.299C129.956 277.053 130.047 276.845 130.229 276.672C130.415 276.497 130.637 276.409 130.896 276.409C131.154 276.409 131.374 276.497 131.557 276.672C131.742 276.845 131.835 277.053 131.835 277.299C131.835 277.541 131.742 277.749 131.557 277.925C131.374 278.097 131.154 278.184 130.896 278.184ZM136.848 287.152C136.132 287.152 135.507 286.988 134.973 286.66C134.44 286.332 134.026 285.873 133.731 285.283C133.436 284.693 133.288 284.004 133.288 283.215C133.288 282.423 133.436 281.73 133.731 281.137C134.026 280.544 134.44 280.083 134.973 279.755C135.507 279.427 136.132 279.262 136.848 279.262C137.564 279.262 138.188 279.427 138.722 279.755C139.256 280.083 139.67 280.544 139.965 281.137C140.26 281.73 140.407 282.423 140.407 283.215C140.407 284.004 140.26 284.693 139.965 285.283C139.67 285.873 139.256 286.332 138.722 286.66C138.188 286.988 137.564 287.152 136.848 287.152ZM136.853 285.905C137.317 285.905 137.701 285.782 138.006 285.537C138.311 285.291 138.536 284.965 138.682 284.557C138.831 284.15 138.906 283.7 138.906 283.21C138.906 282.723 138.831 282.275 138.682 281.868C138.536 281.457 138.311 281.127 138.006 280.878C137.701 280.63 137.317 280.505 136.853 280.505C136.385 280.505 135.998 280.63 135.689 280.878C135.384 281.127 135.157 281.457 135.008 281.868C134.862 282.275 134.79 282.723 134.79 283.21C134.79 283.7 134.862 284.15 135.008 284.557C135.157 284.965 135.384 285.291 135.689 285.537C135.998 285.782 136.385 285.905 136.853 285.905ZM143.553 282.464V286.998H142.067V279.362H143.494V280.605H143.588C143.764 280.2 144.039 279.876 144.413 279.63C144.791 279.385 145.267 279.262 145.84 279.262C146.36 279.262 146.816 279.372 147.207 279.591C147.598 279.806 147.902 280.128 148.117 280.555C148.333 280.983 148.44 281.511 148.44 282.141V286.998H146.954V282.32C146.954 281.767 146.81 281.334 146.521 281.022C146.233 280.708 145.837 280.55 145.333 280.55C144.988 280.55 144.682 280.625 144.413 280.774C144.148 280.923 143.938 281.142 143.782 281.43C143.629 281.715 143.553 282.06 143.553 282.464Z" fill="#43302B"/>
<path d="M49.3037 302.998C49.3037 300.789 51.0946 298.998 53.3037 298.998H508.304V450.998H49.3037V302.998Z" fill="#FDF8F6"/>
<path d="M67.3037 315.498H172.304C173.132 315.498 173.804 316.17 173.804 316.998V352.998C173.804 353.827 173.132 354.498 172.304 354.498H67.3037C66.4753 354.498 65.8037 353.827 65.8037 352.998V316.998C65.8037 316.17 66.4753 315.498 67.3037 315.498Z" fill="#F8F1EE"/>
<g clip-path="url(#clip0_20369_1720)">
<path d="M74.5367 339.998V329.816H80.6418V330.91H75.7696V334.351H80.1844V335.444H75.7696V339.998H74.5367ZM85.1361 340.157C84.4467 340.157 83.8418 339.993 83.3215 339.665C82.8044 339.337 82.4001 338.878 82.1084 338.288C81.82 337.698 81.6759 337.009 81.6759 336.22C81.6759 335.424 81.82 334.73 82.1084 334.137C82.4001 333.544 82.8044 333.083 83.3215 332.755C83.8418 332.427 84.4467 332.262 85.1361 332.262C85.8255 332.262 86.4287 332.427 86.9458 332.755C87.4661 333.083 87.8705 333.544 88.1588 334.137C88.4505 334.73 88.5963 335.424 88.5963 336.22C88.5963 337.009 88.4505 337.698 88.1588 338.288C87.8705 338.878 87.4661 339.337 86.9458 339.665C86.4287 339.993 85.8255 340.157 85.1361 340.157ZM85.1361 339.103C85.6598 339.103 86.0906 338.969 86.4287 338.701C86.7668 338.432 87.017 338.079 87.1794 337.642C87.3418 337.204 87.423 336.73 87.423 336.22C87.423 335.709 87.3418 335.234 87.1794 334.793C87.017 334.352 86.7668 333.996 86.4287 333.724C86.0906 333.452 85.6598 333.316 85.1361 333.316C84.6124 333.316 84.1816 333.452 83.8435 333.724C83.5054 333.996 83.2552 334.352 83.0928 334.793C82.9304 335.234 82.8492 335.709 82.8492 336.22C82.8492 336.73 82.9304 337.204 83.0928 337.642C83.2552 338.079 83.5054 338.432 83.8435 338.701C84.1816 338.969 84.6124 339.103 85.1361 339.103ZM91.5606 329.816V339.998H90.3873V329.816H91.5606ZM96.5931 340.157C95.9568 340.157 95.395 339.997 94.9078 339.675C94.4205 339.35 94.0394 338.893 93.7643 338.303C93.4892 337.71 93.3517 337.009 93.3517 336.2C93.3517 335.398 93.4892 334.702 93.7643 334.112C94.0394 333.522 94.4222 333.066 94.9127 332.745C95.4033 332.423 95.97 332.262 96.613 332.262C97.1102 332.262 97.5029 332.345 97.7913 332.511C98.0829 332.673 98.305 332.859 98.4575 333.068C98.6133 333.273 98.7342 333.442 98.8204 333.575H98.9198V329.816H100.093V339.998H98.9596V338.825H98.8204C98.7342 338.964 98.6116 339.14 98.4525 339.352C98.2934 339.561 98.0664 339.748 97.7714 339.914C97.4764 340.076 97.0837 340.157 96.5931 340.157ZM96.7522 339.103C97.2229 339.103 97.6206 338.981 97.9454 338.736C98.2702 338.487 98.5171 338.144 98.6862 337.706C98.8552 337.266 98.9397 336.757 98.9397 336.18C98.9397 335.61 98.8569 335.111 98.6911 334.684C98.5254 334.253 98.2802 333.918 97.9553 333.679C97.6305 333.437 97.2295 333.316 96.7522 333.316C96.2551 333.316 95.8408 333.444 95.5093 333.699C95.1812 333.951 94.9343 334.294 94.7686 334.728C94.6061 335.159 94.5249 335.643 94.5249 336.18C94.5249 336.724 94.6078 337.218 94.7735 337.662C94.9426 338.102 95.1911 338.454 95.5193 338.716C95.8507 338.974 96.2617 339.103 96.7522 339.103ZM105.607 340.157C104.871 340.157 104.236 339.995 103.703 339.67C103.172 339.342 102.763 338.885 102.475 338.298C102.189 337.708 102.047 337.022 102.047 336.24C102.047 335.458 102.189 334.768 102.475 334.172C102.763 333.572 103.164 333.104 103.678 332.77C104.195 332.432 104.798 332.262 105.487 332.262C105.885 332.262 106.278 332.329 106.666 332.461C107.053 332.594 107.406 332.809 107.725 333.108C108.043 333.403 108.296 333.794 108.485 334.281C108.674 334.768 108.769 335.368 108.769 336.081V336.578H102.882V335.564H107.575C107.575 335.133 107.489 334.748 107.317 334.41C107.148 334.072 106.906 333.805 106.591 333.61C106.279 333.414 105.912 333.316 105.487 333.316C105.02 333.316 104.616 333.432 104.274 333.664C103.936 333.893 103.676 334.191 103.494 334.559C103.311 334.927 103.22 335.322 103.22 335.743V336.419C103.22 336.995 103.32 337.484 103.519 337.885C103.721 338.283 104.001 338.586 104.359 338.795C104.717 339.001 105.133 339.103 105.607 339.103C105.915 339.103 106.193 339.06 106.442 338.974C106.694 338.885 106.911 338.752 107.093 338.576C107.275 338.397 107.416 338.175 107.516 337.91L108.649 338.228C108.53 338.613 108.329 338.951 108.048 339.243C107.766 339.531 107.418 339.756 107.004 339.919C106.589 340.078 106.124 340.157 105.607 340.157ZM110.553 339.998V332.362H111.687V333.515H111.766C111.906 333.137 112.158 332.831 112.522 332.596C112.887 332.36 113.298 332.243 113.755 332.243C113.841 332.243 113.949 332.244 114.078 332.248C114.207 332.251 114.305 332.256 114.372 332.262V333.456C114.332 333.446 114.241 333.431 114.098 333.411C113.959 333.388 113.811 333.376 113.656 333.376C113.284 333.376 112.953 333.454 112.661 333.61C112.373 333.762 112.144 333.974 111.975 334.246C111.81 334.515 111.727 334.821 111.727 335.166V339.998H110.553ZM119.561 339.998L121.231 329.816H122.225L120.555 339.998H119.561ZM114.927 337.174L115.086 336.18H122.683L122.524 337.174H114.927ZM115.981 339.998L117.652 329.816H118.646L116.975 339.998H115.981ZM115.524 333.635L115.683 332.64H123.279L123.12 333.635H115.524Z" fill="#846358"/>
<path d="M125.171 339.998H123.878L127.617 329.816H128.89L132.628 339.998H131.336L128.293 331.427H128.214L125.171 339.998ZM125.648 336.021H130.859V337.115H125.648V336.021ZM136.939 340.157C136.302 340.157 135.741 339.997 135.253 339.675C134.766 339.35 134.385 338.893 134.11 338.303C133.835 337.71 133.697 337.009 133.697 336.2C133.697 335.398 133.835 334.702 134.11 334.112C134.385 333.522 134.768 333.066 135.258 332.745C135.749 332.423 136.316 332.262 136.959 332.262C137.456 332.262 137.849 332.345 138.137 332.511C138.429 332.673 138.651 332.859 138.803 333.068C138.959 333.273 139.08 333.442 139.166 333.575H139.266V329.816H140.439V339.998H139.305V338.825H139.166C139.08 338.964 138.957 339.14 138.798 339.352C138.639 339.561 138.412 339.748 138.117 339.914C137.822 340.076 137.429 340.157 136.939 340.157ZM137.098 339.103C137.569 339.103 137.966 338.981 138.291 338.736C138.616 338.487 138.863 338.144 139.032 337.706C139.201 337.266 139.285 336.757 139.285 336.18C139.285 335.61 139.203 335.111 139.037 334.684C138.871 334.253 138.626 333.918 138.301 333.679C137.976 333.437 137.575 333.316 137.098 333.316C136.601 333.316 136.186 333.444 135.855 333.699C135.527 333.951 135.28 334.294 135.114 334.728C134.952 335.159 134.871 335.643 134.871 336.18C134.871 336.724 134.954 337.218 135.119 337.662C135.288 338.102 135.537 338.454 135.865 338.716C136.196 338.974 136.607 339.103 137.098 339.103ZM142.751 339.998V332.362H143.884V333.555H143.984C144.143 333.147 144.4 332.831 144.754 332.606C145.109 332.377 145.535 332.262 146.032 332.262C146.536 332.262 146.955 332.377 147.29 332.606C147.628 332.831 147.891 333.147 148.08 333.555H148.16C148.355 333.161 148.649 332.847 149.04 332.615C149.431 332.38 149.9 332.262 150.447 332.262C151.129 332.262 151.688 332.476 152.122 332.904C152.556 333.328 152.773 333.989 152.773 334.887V339.998H151.6V334.887C151.6 334.324 151.446 333.921 151.138 333.679C150.829 333.437 150.467 333.316 150.049 333.316C149.512 333.316 149.096 333.479 148.801 333.804C148.506 334.125 148.359 334.533 148.359 335.027V339.998H147.165V334.768C147.165 334.334 147.025 333.984 146.743 333.719C146.461 333.451 146.098 333.316 145.654 333.316C145.349 333.316 145.064 333.398 144.799 333.56C144.537 333.722 144.325 333.948 144.163 334.236C144.003 334.521 143.924 334.851 143.924 335.226V339.998H142.751ZM154.919 339.998V332.362H156.092V339.998H154.919ZM155.515 331.089C155.286 331.089 155.089 331.011 154.924 330.856C154.761 330.7 154.68 330.512 154.68 330.294C154.68 330.075 154.761 329.888 154.924 329.732C155.089 329.576 155.286 329.498 155.515 329.498C155.744 329.498 155.939 329.576 156.102 329.732C156.268 329.888 156.35 330.075 156.35 330.294C156.35 330.512 156.268 330.7 156.102 330.856C155.939 331.011 155.744 331.089 155.515 331.089ZM159.414 335.405V339.998H158.241V332.362H159.374V333.555H159.474C159.653 333.167 159.925 332.856 160.289 332.62C160.654 332.382 161.124 332.262 161.701 332.262C162.218 332.262 162.671 332.369 163.058 332.581C163.446 332.789 163.748 333.108 163.963 333.535C164.179 333.959 164.286 334.496 164.286 335.146V339.998H163.113V335.226C163.113 334.626 162.957 334.158 162.646 333.824C162.334 333.486 161.907 333.316 161.363 333.316C160.988 333.316 160.654 333.398 160.359 333.56C160.067 333.722 159.837 333.959 159.668 334.271C159.499 334.583 159.414 334.96 159.414 335.405Z" fill="#43302B"/>
</g>
<path d="M67.3037 315.498H172.304C173.132 315.498 173.804 316.17 173.804 316.998V352.998C173.804 353.827 173.132 354.498 172.304 354.498H67.3037C66.4753 354.498 65.8037 353.827 65.8037 352.998V316.998C65.8037 316.17 66.4753 315.498 67.3037 315.498Z" stroke="#D1B9B0"/>
<path d="M174.304 334.998H184.304" stroke="#96C7F2" stroke-width="2"/>
<rect x="184.804" y="315.498" width="65" height="39" rx="1.5" fill="#CEE7FE"/>
<path d="M196.679 339.998H193.537V329.816H196.818C197.806 329.816 198.651 330.02 199.353 330.428C200.056 330.832 200.595 331.414 200.969 332.173C201.344 332.929 201.531 333.834 201.531 334.887C201.531 335.948 201.342 336.861 200.964 337.627C200.586 338.389 200.036 338.976 199.314 339.387C198.591 339.794 197.713 339.998 196.679 339.998ZM194.77 338.905H196.599C197.441 338.905 198.139 338.742 198.692 338.417C199.246 338.093 199.658 337.63 199.93 337.03C200.202 336.43 200.338 335.716 200.338 334.887C200.338 334.066 200.204 333.358 199.935 332.765C199.667 332.168 199.266 331.711 198.732 331.392C198.198 331.071 197.534 330.91 196.738 330.91H194.77V338.905ZM206.642 340.157C205.906 340.157 205.271 339.995 204.738 339.67C204.207 339.342 203.798 338.885 203.51 338.298C203.225 337.708 203.082 337.022 203.082 336.24C203.082 335.458 203.225 334.768 203.51 334.172C203.798 333.572 204.199 333.104 204.713 332.77C205.23 332.432 205.833 332.262 206.522 332.262C206.92 332.262 207.313 332.329 207.701 332.461C208.089 332.594 208.441 332.809 208.76 333.108C209.078 333.403 209.331 333.794 209.52 334.281C209.709 334.768 209.804 335.368 209.804 336.081V336.578H203.917V335.564H208.611C208.611 335.133 208.524 334.748 208.352 334.41C208.183 334.072 207.941 333.805 207.626 333.61C207.315 333.414 206.947 333.316 206.522 333.316C206.055 333.316 205.651 333.432 205.309 333.664C204.971 333.893 204.711 334.191 204.529 334.559C204.347 334.927 204.255 335.322 204.255 335.743V336.419C204.255 336.995 204.355 337.484 204.554 337.885C204.756 338.283 205.036 338.586 205.394 338.795C205.752 339.001 206.168 339.103 206.642 339.103C206.95 339.103 207.228 339.06 207.477 338.974C207.729 338.885 207.946 338.752 208.128 338.576C208.311 338.397 208.451 338.175 208.551 337.91L209.684 338.228C209.565 338.613 209.365 338.951 209.083 339.243C208.801 339.531 208.453 339.756 208.039 339.919C207.624 340.078 207.159 340.157 206.642 340.157ZM211.589 339.998V332.362H212.722V333.515H212.802C212.941 333.137 213.193 332.831 213.557 332.596C213.922 332.36 214.333 332.243 214.79 332.243C214.876 332.243 214.984 332.244 215.113 332.248C215.243 332.251 215.34 332.256 215.407 332.262V333.456C215.367 333.446 215.276 333.431 215.133 333.411C214.994 333.388 214.847 333.376 214.691 333.376C214.32 333.376 213.988 333.454 213.696 333.61C213.408 333.762 213.179 333.974 213.01 334.246C212.845 334.515 212.762 334.821 212.762 335.166V339.998H211.589ZM216.797 339.998V332.362H217.971V339.998H216.797ZM217.394 331.089C217.165 331.089 216.968 331.011 216.802 330.856C216.64 330.7 216.559 330.512 216.559 330.294C216.559 330.075 216.64 329.888 216.802 329.732C216.968 329.576 217.165 329.498 217.394 329.498C217.623 329.498 217.818 329.576 217.981 329.732C218.146 329.888 218.229 330.075 218.229 330.294C218.229 330.512 218.146 330.7 217.981 330.856C217.818 331.011 217.623 331.089 217.394 331.089ZM226.364 332.362L223.54 339.998H222.347L219.523 332.362H220.796L222.904 338.447H222.983L225.091 332.362H226.364ZM230.841 340.157C230.105 340.157 229.47 339.995 228.937 339.67C228.407 339.342 227.997 338.885 227.709 338.298C227.424 337.708 227.281 337.022 227.281 336.24C227.281 335.458 227.424 334.768 227.709 334.172C227.997 333.572 228.398 333.104 228.912 332.77C229.429 332.432 230.032 332.262 230.722 332.262C231.119 332.262 231.512 332.329 231.9 332.461C232.288 332.594 232.641 332.809 232.959 333.108C233.277 333.403 233.531 333.794 233.72 334.281C233.908 334.768 234.003 335.368 234.003 336.081V336.578H228.117V335.564H232.81C232.81 335.133 232.724 334.748 232.551 334.41C232.382 334.072 232.14 333.805 231.825 333.61C231.514 333.414 231.146 333.316 230.722 333.316C230.254 333.316 229.85 333.432 229.509 333.664C229.171 333.893 228.91 334.191 228.728 334.559C228.546 334.927 228.455 335.322 228.455 335.743V336.419C228.455 336.995 228.554 337.484 228.753 337.885C228.955 338.283 229.235 338.586 229.593 338.795C229.951 339.001 230.367 339.103 230.841 339.103C231.149 339.103 231.428 339.06 231.676 338.974C231.928 338.885 232.145 338.752 232.328 338.576C232.51 338.397 232.651 338.175 232.75 337.91L233.884 338.228C233.764 338.613 233.564 338.951 233.282 339.243C233 339.531 232.652 339.756 232.238 339.919C231.824 340.078 231.358 340.157 230.841 340.157ZM241.197 334.072L240.143 334.37C240.077 334.195 239.979 334.024 239.85 333.858C239.724 333.689 239.551 333.55 239.332 333.441C239.114 333.331 238.834 333.277 238.492 333.277C238.025 333.277 237.636 333.384 237.324 333.6C237.016 333.812 236.862 334.082 236.862 334.41C236.862 334.702 236.968 334.932 237.18 335.101C237.392 335.27 237.723 335.411 238.174 335.524L239.308 335.802C239.99 335.968 240.499 336.222 240.834 336.563C241.169 336.901 241.336 337.337 241.336 337.87C241.336 338.308 241.21 338.699 240.958 339.044C240.71 339.388 240.362 339.66 239.914 339.859C239.467 340.058 238.946 340.157 238.353 340.157C237.574 340.157 236.93 339.988 236.419 339.65C235.909 339.312 235.586 338.818 235.45 338.169L236.563 337.89C236.669 338.301 236.87 338.61 237.165 338.815C237.463 339.021 237.853 339.123 238.333 339.123C238.88 339.123 239.314 339.007 239.636 338.775C239.961 338.54 240.123 338.258 240.123 337.93C240.123 337.665 240.03 337.443 239.845 337.264C239.659 337.082 239.374 336.946 238.989 336.856L237.717 336.558C237.017 336.392 236.504 336.135 236.176 335.787C235.851 335.436 235.688 334.997 235.688 334.47C235.688 334.039 235.809 333.658 236.051 333.326C236.296 332.995 236.63 332.735 237.051 332.546C237.475 332.357 237.955 332.262 238.492 332.262C239.248 332.262 239.841 332.428 240.272 332.76C240.706 333.091 241.015 333.529 241.197 334.072Z" fill="#0F3058"/>
<rect x="184.804" y="315.498" width="65" height="39" rx="1.5" stroke="#96C7F2"/>
<path d="M270.304 334.998L260.304 329.225V340.772L270.304 334.998ZM250.304 335.998H261.304V333.998H250.304V335.998Z" fill="#96C7F2"/>
<path d="M272.304 315.498H416.304C417.132 315.498 417.804 316.17 417.804 316.998V352.998C417.804 353.827 417.132 354.498 416.304 354.498H272.304C271.475 354.498 270.804 353.827 270.804 352.998V316.998C270.804 316.17 271.475 315.498 272.304 315.498Z" fill="#FDFCFC"/>
<path d="M279.537 339.998V329.816H285.642V330.91H280.77V334.351H285.184V335.444H280.77V339.998H279.537ZM287.594 339.998V332.362H288.768V339.998H287.594ZM288.191 331.089C287.962 331.089 287.765 331.011 287.599 330.856C287.437 330.7 287.356 330.512 287.356 330.294C287.356 330.075 287.437 329.888 287.599 329.732C287.765 329.576 287.962 329.498 288.191 329.498C288.42 329.498 288.615 329.576 288.778 329.732C288.943 329.888 289.026 330.075 289.026 330.294C289.026 330.512 288.943 330.7 288.778 330.856C288.615 331.011 288.42 331.089 288.191 331.089ZM292.09 329.816V339.998H290.917V329.816H292.09ZM297.441 340.157C296.705 340.157 296.07 339.995 295.536 339.67C295.006 339.342 294.597 338.885 294.309 338.298C294.023 337.708 293.881 337.022 293.881 336.24C293.881 335.458 294.023 334.768 294.309 334.172C294.597 333.572 294.998 333.104 295.512 332.77C296.029 332.432 296.632 332.262 297.321 332.262C297.719 332.262 298.112 332.329 298.5 332.461C298.887 332.594 299.24 332.809 299.559 333.108C299.877 333.403 300.13 333.794 300.319 334.281C300.508 334.768 300.603 335.368 300.603 336.081V336.578H294.716V335.564H299.409C299.409 335.133 299.323 334.748 299.151 334.41C298.982 334.072 298.74 333.805 298.425 333.61C298.113 333.414 297.746 333.316 297.321 333.316C296.854 333.316 296.45 333.432 296.108 333.664C295.77 333.893 295.51 334.191 295.328 334.559C295.145 334.927 295.054 335.322 295.054 335.743V336.419C295.054 336.995 295.154 337.484 295.353 337.885C295.555 338.283 295.835 338.586 296.193 338.795C296.551 339.001 296.967 339.103 297.441 339.103C297.749 339.103 298.027 339.06 298.276 338.974C298.528 338.885 298.745 338.752 298.927 338.576C299.109 338.397 299.25 338.175 299.35 337.91L300.483 338.228C300.364 338.613 300.163 338.951 299.882 339.243C299.6 339.531 299.252 339.756 298.838 339.919C298.423 340.078 297.958 340.157 297.441 340.157ZM306.186 339.998L307.856 329.816H308.85L307.18 339.998H306.186ZM301.552 337.174L301.711 336.18H309.308L309.149 337.174H301.552ZM302.606 339.998L304.277 329.816H305.271L303.6 339.998H302.606ZM302.149 333.635L302.308 332.64H309.904L309.745 333.635H302.149Z" fill="#846358"/>
<path d="M311.378 339.998V329.816H317.523V330.91H312.611V334.351H317.205V335.444H312.611V338.905H317.603V339.998H311.378ZM322.47 340.157C321.834 340.157 321.272 339.997 320.785 339.675C320.297 339.35 319.916 338.893 319.641 338.303C319.366 337.71 319.229 337.009 319.229 336.2C319.229 335.398 319.366 334.702 319.641 334.112C319.916 333.522 320.299 333.066 320.79 332.745C321.28 332.423 321.847 332.262 322.49 332.262C322.987 332.262 323.38 332.345 323.668 332.511C323.96 332.673 324.182 332.859 324.334 333.068C324.49 333.273 324.611 333.442 324.697 333.575H324.797V329.816H325.97V339.998H324.837V338.825H324.697C324.611 338.964 324.489 339.14 324.329 339.352C324.17 339.561 323.943 339.748 323.648 339.914C323.353 340.076 322.961 340.157 322.47 340.157ZM322.629 339.103C323.1 339.103 323.498 338.981 323.822 338.736C324.147 338.487 324.394 338.144 324.563 337.706C324.732 337.266 324.817 336.757 324.817 336.18C324.817 335.61 324.734 335.111 324.568 334.684C324.402 334.253 324.157 333.918 323.832 333.679C323.507 333.437 323.106 333.316 322.629 333.316C322.132 333.316 321.718 333.444 321.386 333.699C321.058 333.951 320.811 334.294 320.646 334.728C320.483 335.159 320.402 335.643 320.402 336.18C320.402 336.724 320.485 337.218 320.65 337.662C320.82 338.102 321.068 338.454 321.396 338.716C321.728 338.974 322.139 339.103 322.629 339.103ZM328.282 339.998V332.362H329.455V339.998H328.282ZM328.878 331.089C328.65 331.089 328.453 331.011 328.287 330.856C328.124 330.7 328.043 330.512 328.043 330.294C328.043 330.075 328.124 329.888 328.287 329.732C328.453 329.576 328.65 329.498 328.878 329.498C329.107 329.498 329.303 329.576 329.465 329.732C329.631 329.888 329.714 330.075 329.714 330.294C329.714 330.512 329.631 330.7 329.465 330.856C329.303 331.011 329.107 331.089 328.878 331.089ZM334.925 332.362V333.356H330.968V332.362H334.925ZM332.121 330.532H333.294V337.811C333.294 338.142 333.343 338.391 333.439 338.557C333.538 338.719 333.664 338.828 333.816 338.885C333.972 338.938 334.136 338.964 334.309 338.964C334.438 338.964 334.544 338.958 334.627 338.944C334.71 338.928 334.776 338.914 334.826 338.905L335.064 339.959C334.985 339.988 334.874 340.018 334.731 340.048C334.589 340.081 334.408 340.098 334.189 340.098C333.858 340.098 333.533 340.026 333.215 339.884C332.9 339.741 332.638 339.524 332.429 339.233C332.224 338.941 332.121 338.573 332.121 338.129V330.532ZM339.71 340.157C339.021 340.157 338.416 339.993 337.896 339.665C337.379 339.337 336.974 338.878 336.683 338.288C336.394 337.698 336.25 337.009 336.25 336.22C336.25 335.424 336.394 334.73 336.683 334.137C336.974 333.544 337.379 333.083 337.896 332.755C338.416 332.427 339.021 332.262 339.71 332.262C340.4 332.262 341.003 332.427 341.52 332.755C342.04 333.083 342.445 333.544 342.733 334.137C343.025 334.73 343.171 335.424 343.171 336.22C343.171 337.009 343.025 337.698 342.733 338.288C342.445 338.878 342.04 339.337 341.52 339.665C341.003 339.993 340.4 340.157 339.71 340.157ZM339.71 339.103C340.234 339.103 340.665 338.969 341.003 338.701C341.341 338.432 341.591 338.079 341.754 337.642C341.916 337.204 341.997 336.73 341.997 336.22C341.997 335.709 341.916 335.234 341.754 334.793C341.591 334.352 341.341 333.996 341.003 333.724C340.665 333.452 340.234 333.316 339.71 333.316C339.187 333.316 338.756 333.452 338.418 333.724C338.08 333.996 337.829 334.352 337.667 334.793C337.505 335.234 337.423 335.709 337.423 336.22C337.423 336.73 337.505 337.204 337.667 337.642C337.829 338.079 338.08 338.432 338.418 338.701C338.756 338.969 339.187 339.103 339.71 339.103ZM344.962 339.998V332.362H346.095V333.515H346.175C346.314 333.137 346.566 332.831 346.93 332.596C347.295 332.36 347.706 332.243 348.163 332.243C348.249 332.243 348.357 332.244 348.486 332.248C348.616 332.251 348.713 332.256 348.78 332.262V333.456C348.74 333.446 348.649 333.431 348.506 333.411C348.367 333.388 348.22 333.376 348.064 333.376C347.693 333.376 347.361 333.454 347.07 333.61C346.781 333.762 346.552 333.974 346.383 334.246C346.218 334.515 346.135 334.821 346.135 335.166V339.998H344.962Z" fill="#43302B"/>
<path d="M401.304 335.493L405.009 331.788L406.074 332.838L401.304 337.608L396.534 332.838L397.599 331.788L401.304 335.493Z" fill="#846358"/>
<path d="M272.304 315.498H416.304C417.132 315.498 417.804 316.17 417.804 316.998V352.998C417.804 353.827 417.132 354.498 416.304 354.498H272.304C271.475 354.498 270.804 353.827 270.804 352.998V316.998C270.804 316.17 271.475 315.498 272.304 315.498Z" stroke="#D1B9B0"/>
<path d="M68.4159 379.998L65.5921 369.816H67.2078L69.1915 377.701H69.286L71.3492 369.816H72.95L75.0132 377.706H75.1077L77.0864 369.816H78.7071L75.8783 379.998H74.3321L72.1894 372.372H72.1098L69.9671 379.998H68.4159ZM81.4751 375.464V379.998H79.9885V369.816H81.4552V373.605H81.5496C81.7286 373.194 82.002 372.867 82.3699 372.625C82.7378 372.383 83.2184 372.262 83.8117 372.262C84.3354 372.262 84.7928 372.37 85.1839 372.586C85.5783 372.801 85.8832 373.123 86.0986 373.55C86.3174 373.974 86.4268 374.505 86.4268 375.141V379.998H84.9403V375.32C84.9403 374.76 84.7961 374.326 84.5077 374.017C84.2194 373.706 83.8183 373.55 83.3046 373.55C82.9533 373.55 82.6384 373.625 82.36 373.774C82.0849 373.923 81.8678 374.142 81.7087 374.43C81.5529 374.715 81.4751 375.06 81.4751 375.464ZM91.7016 380.152C90.9492 380.152 90.3013 379.992 89.7577 379.67C89.2175 379.345 88.7999 378.89 88.5049 378.303C88.2132 377.713 88.0674 377.022 88.0674 376.23C88.0674 375.448 88.2132 374.758 88.5049 374.162C88.7999 373.565 89.2108 373.099 89.7378 372.765C90.2681 372.43 90.8879 372.262 91.5972 372.262C92.0281 372.262 92.4457 372.334 92.8501 372.476C93.2544 372.619 93.6173 372.843 93.9388 373.147C94.2603 373.452 94.5139 373.848 94.6995 374.336C94.8851 374.82 94.9779 375.408 94.9779 376.101V376.628H88.9076V375.514H93.5212C93.5212 375.123 93.4417 374.776 93.2826 374.475C93.1235 374.17 92.8998 373.93 92.6114 373.754C92.3264 373.578 91.9916 373.49 91.6072 373.49C91.1895 373.49 90.825 373.593 90.5134 373.799C90.2052 374.001 89.9665 374.266 89.7975 374.594C89.6318 374.919 89.5489 375.272 89.5489 375.653V376.523C89.5489 377.034 89.6384 377.468 89.8174 377.826C89.9997 378.184 90.2532 378.457 90.578 378.646C90.9028 378.832 91.2823 378.924 91.7165 378.924C91.9983 378.924 92.2551 378.885 92.4871 378.805C92.7191 378.722 92.9197 378.6 93.0887 378.437C93.2577 378.275 93.387 378.074 93.4765 377.836L94.8834 378.089C94.7707 378.503 94.5686 378.866 94.2769 379.178C93.9885 379.486 93.6256 379.727 93.1881 379.899C92.7539 380.068 92.2584 380.152 91.7016 380.152ZM98.1137 375.464V379.998H96.6272V372.362H98.0541V373.605H98.1485C98.3242 373.2 98.5993 372.876 98.9738 372.63C99.3517 372.385 99.8273 372.262 100.401 372.262C100.921 372.262 101.377 372.372 101.768 372.591C102.159 372.806 102.462 373.128 102.678 373.555C102.893 373.983 103.001 374.511 103.001 375.141V379.998H101.514V375.32C101.514 374.767 101.37 374.334 101.082 374.022C100.793 373.708 100.397 373.55 99.8936 373.55C99.5489 373.55 99.2423 373.625 98.9738 373.774C98.7087 373.923 98.4982 374.142 98.3424 374.43C98.19 374.715 98.1137 375.06 98.1137 375.464Z" fill="#43302B"/>
<rect x="65.8037" y="395.498" width="57" height="39" rx="1.5" fill="#F8F1EE"/>
<g clip-path="url(#clip1_20369_1720)">
<path d="M74.5367 419.998V409.816H80.6418V410.91H75.7696V414.351H80.1844V415.444H75.7696V419.998H74.5367ZM85.1361 420.157C84.4467 420.157 83.8418 419.993 83.3215 419.665C82.8044 419.337 82.4001 418.878 82.1084 418.288C81.82 417.698 81.6759 417.009 81.6759 416.22C81.6759 415.424 81.82 414.73 82.1084 414.137C82.4001 413.544 82.8044 413.083 83.3215 412.755C83.8418 412.427 84.4467 412.262 85.1361 412.262C85.8255 412.262 86.4287 412.427 86.9458 412.755C87.4661 413.083 87.8705 413.544 88.1588 414.137C88.4505 414.73 88.5963 415.424 88.5963 416.22C88.5963 417.009 88.4505 417.698 88.1588 418.288C87.8705 418.878 87.4661 419.337 86.9458 419.665C86.4287 419.993 85.8255 420.157 85.1361 420.157ZM85.1361 419.103C85.6598 419.103 86.0906 418.969 86.4287 418.701C86.7668 418.432 87.017 418.079 87.1794 417.642C87.3418 417.204 87.423 416.73 87.423 416.22C87.423 415.709 87.3418 415.234 87.1794 414.793C87.017 414.352 86.7668 413.996 86.4287 413.724C86.0906 413.452 85.6598 413.316 85.1361 413.316C84.6124 413.316 84.1816 413.452 83.8435 413.724C83.5054 413.996 83.2552 414.352 83.0928 414.793C82.9304 415.234 82.8492 415.709 82.8492 416.22C82.8492 416.73 82.9304 417.204 83.0928 417.642C83.2552 418.079 83.5054 418.432 83.8435 418.701C84.1816 418.969 84.6124 419.103 85.1361 419.103ZM91.5606 409.816V419.998H90.3873V409.816H91.5606ZM96.5931 420.157C95.9568 420.157 95.395 419.997 94.9078 419.675C94.4205 419.35 94.0394 418.893 93.7643 418.303C93.4892 417.71 93.3517 417.009 93.3517 416.2C93.3517 415.398 93.4892 414.702 93.7643 414.112C94.0394 413.522 94.4222 413.066 94.9127 412.745C95.4033 412.423 95.97 412.262 96.613 412.262C97.1102 412.262 97.5029 412.345 97.7913 412.511C98.0829 412.673 98.305 412.859 98.4575 413.068C98.6133 413.273 98.7342 413.442 98.8204 413.575H98.9198V409.816H100.093V419.998H98.9596V418.825H98.8204C98.7342 418.964 98.6116 419.14 98.4525 419.352C98.2934 419.561 98.0664 419.748 97.7714 419.914C97.4764 420.076 97.0837 420.157 96.5931 420.157ZM96.7522 419.103C97.2229 419.103 97.6206 418.981 97.9454 418.736C98.2702 418.487 98.5171 418.144 98.6862 417.706C98.8552 417.266 98.9397 416.757 98.9397 416.18C98.9397 415.61 98.8569 415.111 98.6911 414.684C98.5254 414.253 98.2802 413.918 97.9553 413.679C97.6305 413.437 97.2295 413.316 96.7522 413.316C96.2551 413.316 95.8408 413.444 95.5093 413.699C95.1812 413.951 94.9343 414.294 94.7686 414.728C94.6061 415.159 94.5249 415.643 94.5249 416.18C94.5249 416.724 94.6078 417.218 94.7735 417.662C94.9426 418.102 95.1911 418.454 95.5193 418.716C95.8507 418.974 96.2617 419.103 96.7522 419.103ZM105.607 420.157C104.871 420.157 104.236 419.995 103.703 419.67C103.172 419.342 102.763 418.885 102.475 418.298C102.189 417.708 102.047 417.022 102.047 416.24C102.047 415.458 102.189 414.768 102.475 414.172C102.763 413.572 103.164 413.104 103.678 412.77C104.195 412.432 104.798 412.262 105.487 412.262C105.885 412.262 106.278 412.329 106.666 412.461C107.053 412.594 107.406 412.809 107.725 413.108C108.043 413.403 108.296 413.794 108.485 414.281C108.674 414.768 108.769 415.368 108.769 416.081V416.578H102.882V415.564H107.575C107.575 415.133 107.489 414.748 107.317 414.41C107.148 414.072 106.906 413.805 106.591 413.61C106.279 413.414 105.912 413.316 105.487 413.316C105.02 413.316 104.616 413.432 104.274 413.664C103.936 413.893 103.676 414.191 103.494 414.559C103.311 414.927 103.22 415.322 103.22 415.743V416.419C103.22 416.995 103.32 417.484 103.519 417.885C103.721 418.283 104.001 418.586 104.359 418.795C104.717 419.001 105.133 419.103 105.607 419.103C105.915 419.103 106.193 419.06 106.442 418.974C106.694 418.885 106.911 418.752 107.093 418.576C107.275 418.397 107.416 418.175 107.516 417.91L108.649 418.228C108.53 418.613 108.329 418.951 108.048 419.243C107.766 419.531 107.418 419.756 107.004 419.919C106.589 420.078 106.124 420.157 105.607 420.157ZM110.553 419.998V412.362H111.687V413.515H111.766C111.906 413.137 112.158 412.831 112.522 412.596C112.887 412.36 113.298 412.243 113.755 412.243C113.841 412.243 113.949 412.244 114.078 412.248C114.207 412.251 114.305 412.256 114.372 412.262V413.456C114.332 413.446 114.241 413.431 114.098 413.411C113.959 413.388 113.811 413.376 113.656 413.376C113.284 413.376 112.953 413.454 112.661 413.61C112.373 413.762 112.144 413.974 111.975 414.246C111.81 414.515 111.727 414.821 111.727 415.166V419.998H110.553Z" fill="#846358"/>
</g>
<rect x="65.8037" y="395.498" width="57" height="39" rx="1.5" stroke="#D1B9B0"/>
<path d="M128.378 419.998V412.362H129.551V419.998H128.378ZM128.974 411.089C128.745 411.089 128.548 411.011 128.383 410.856C128.22 410.7 128.139 410.512 128.139 410.294C128.139 410.075 128.22 409.888 128.383 409.732C128.548 409.576 128.745 409.498 128.974 409.498C129.203 409.498 129.398 409.576 129.561 409.732C129.727 409.888 129.809 410.075 129.809 410.294C129.809 410.512 129.727 410.7 129.561 410.856C129.398 411.011 129.203 411.089 128.974 411.089ZM137.109 414.072L136.055 414.37C135.989 414.195 135.891 414.024 135.762 413.858C135.636 413.689 135.463 413.55 135.245 413.441C135.026 413.331 134.746 413.277 134.404 413.277C133.937 413.277 133.548 413.384 133.236 413.6C132.928 413.812 132.774 414.082 132.774 414.41C132.774 414.702 132.88 414.932 133.092 415.101C133.304 415.27 133.635 415.411 134.086 415.524L135.22 415.802C135.902 415.968 136.411 416.222 136.746 416.563C137.081 416.901 137.248 417.337 137.248 417.87C137.248 418.308 137.122 418.699 136.87 419.044C136.622 419.388 136.274 419.66 135.826 419.859C135.379 420.058 134.858 420.157 134.265 420.157C133.486 420.157 132.842 419.988 132.331 419.65C131.821 419.312 131.498 418.818 131.362 418.169L132.475 417.89C132.581 418.301 132.782 418.61 133.077 418.815C133.375 419.021 133.765 419.123 134.245 419.123C134.792 419.123 135.226 419.007 135.548 418.775C135.873 418.54 136.035 418.258 136.035 417.93C136.035 417.665 135.942 417.443 135.757 417.264C135.571 417.082 135.286 416.946 134.902 416.856L133.629 416.558C132.929 416.392 132.416 416.135 132.088 415.787C131.763 415.436 131.6 414.997 131.6 414.47C131.6 414.039 131.721 413.658 131.963 413.326C132.209 412.995 132.542 412.735 132.963 412.546C133.387 412.357 133.867 412.262 134.404 412.262C135.16 412.262 135.753 412.428 136.184 412.76C136.618 413.091 136.927 413.529 137.109 414.072Z" fill="#846358"/>
<rect x="142.804" y="395.498" width="87" height="39" rx="1.5" fill="#CEE7FE"/>
<g clip-path="url(#clip2_20369_1720)">
<path d="M151.537 419.998V409.816H154.977C155.776 409.816 156.429 409.961 156.936 410.249C157.446 410.534 157.824 410.92 158.069 411.407C158.315 411.895 158.437 412.438 158.437 413.038C158.437 413.638 158.315 414.183 158.069 414.674C157.827 415.164 157.453 415.555 156.946 415.847C156.439 416.135 155.789 416.28 154.997 416.28H152.531V415.186H154.957C155.504 415.186 155.943 415.091 156.275 414.902C156.606 414.713 156.846 414.458 156.995 414.137C157.148 413.812 157.224 413.446 157.224 413.038C157.224 412.63 157.148 412.266 156.995 411.944C156.846 411.623 156.604 411.371 156.27 411.189C155.935 411.003 155.491 410.91 154.937 410.91H152.77V419.998H151.537ZM162.511 420.177C162.028 420.177 161.588 420.086 161.194 419.904C160.8 419.718 160.486 419.451 160.254 419.103C160.022 418.752 159.906 418.328 159.906 417.831C159.906 417.393 159.993 417.039 160.165 416.767C160.337 416.492 160.568 416.276 160.856 416.12C161.144 415.965 161.462 415.849 161.81 415.772C162.162 415.693 162.515 415.63 162.869 415.584C163.333 415.524 163.71 415.479 163.998 415.449C164.29 415.416 164.502 415.361 164.634 415.285C164.77 415.209 164.838 415.076 164.838 414.887V414.848C164.838 414.357 164.704 413.976 164.435 413.704C164.17 413.432 163.768 413.297 163.227 413.297C162.667 413.297 162.228 413.419 161.91 413.664C161.592 413.91 161.368 414.172 161.239 414.45L160.125 414.052C160.324 413.588 160.589 413.227 160.921 412.968C161.255 412.707 161.62 412.524 162.014 412.422C162.412 412.316 162.803 412.262 163.188 412.262C163.433 412.262 163.715 412.292 164.033 412.352C164.354 412.408 164.664 412.526 164.962 412.705C165.264 412.884 165.514 413.154 165.713 413.515C165.912 413.877 166.011 414.361 166.011 414.967V419.998H164.838V418.964H164.778C164.699 419.13 164.566 419.307 164.381 419.496C164.195 419.685 163.948 419.846 163.64 419.978C163.332 420.111 162.956 420.177 162.511 420.177ZM162.69 419.123C163.154 419.123 163.546 419.032 163.864 418.85C164.185 418.668 164.427 418.432 164.59 418.144C164.755 417.856 164.838 417.552 164.838 417.234V416.16C164.788 416.22 164.679 416.275 164.51 416.324C164.344 416.371 164.152 416.412 163.933 416.449C163.718 416.482 163.507 416.512 163.302 416.538C163.1 416.561 162.936 416.581 162.81 416.598C162.505 416.637 162.22 416.702 161.955 416.792C161.693 416.878 161.481 417.009 161.318 417.184C161.159 417.357 161.08 417.592 161.08 417.89C161.08 418.298 161.23 418.606 161.532 418.815C161.837 419.021 162.223 419.123 162.69 419.123ZM168.153 419.998V412.362H169.286V413.515H169.366C169.505 413.137 169.757 412.831 170.122 412.596C170.486 412.36 170.897 412.243 171.355 412.243C171.441 412.243 171.549 412.244 171.678 412.248C171.807 412.251 171.905 412.256 171.971 412.262V413.456C171.931 413.446 171.84 413.431 171.698 413.411C171.559 413.388 171.411 413.376 171.255 413.376C170.884 413.376 170.553 413.454 170.261 413.61C169.973 413.762 169.744 413.974 169.575 414.246C169.409 414.515 169.326 414.821 169.326 415.166V419.998H168.153ZM176.331 420.157C175.595 420.157 174.961 419.995 174.427 419.67C173.897 419.342 173.487 418.885 173.199 418.298C172.914 417.708 172.772 417.022 172.772 416.24C172.772 415.458 172.914 414.768 173.199 414.172C173.487 413.572 173.889 413.104 174.402 412.77C174.919 412.432 175.523 412.262 176.212 412.262C176.61 412.262 177.002 412.329 177.39 412.461C177.778 412.594 178.131 412.809 178.449 413.108C178.767 413.403 179.021 413.794 179.21 414.281C179.399 414.768 179.493 415.368 179.493 416.081V416.578H173.607V415.564H178.3C178.3 415.133 178.214 414.748 178.041 414.41C177.872 414.072 177.63 413.805 177.316 413.61C177.004 413.414 176.636 413.316 176.212 413.316C175.745 413.316 175.34 413.432 174.999 413.664C174.661 413.893 174.401 414.191 174.218 414.559C174.036 414.927 173.945 415.322 173.945 415.743V416.419C173.945 416.995 174.044 417.484 174.243 417.885C174.445 418.283 174.725 418.586 175.083 418.795C175.441 419.001 175.857 419.103 176.331 419.103C176.639 419.103 176.918 419.06 177.166 418.974C177.418 418.885 177.635 418.752 177.818 418.576C178 418.397 178.141 418.175 178.24 417.91L179.374 418.228C179.255 418.613 179.054 418.951 178.772 419.243C178.491 419.531 178.143 419.756 177.728 419.919C177.314 420.078 176.848 420.157 176.331 420.157ZM182.451 415.405V419.998H181.278V412.362H182.411V413.555H182.511C182.69 413.167 182.962 412.856 183.326 412.62C183.691 412.382 184.161 412.262 184.738 412.262C185.255 412.262 185.708 412.369 186.095 412.581C186.483 412.789 186.785 413.108 187 413.535C187.216 413.959 187.323 414.496 187.323 415.146V419.998H186.15V415.226C186.15 414.626 185.994 414.158 185.683 413.824C185.371 413.486 184.944 413.316 184.4 413.316C184.026 413.316 183.691 413.398 183.396 413.56C183.104 413.722 182.874 413.959 182.705 414.271C182.536 414.583 182.451 414.96 182.451 415.405ZM192.788 412.362V413.356H188.831V412.362H192.788ZM189.984 410.532H191.158V417.811C191.158 418.142 191.206 418.391 191.302 418.557C191.401 418.719 191.527 418.828 191.68 418.885C191.836 418.938 192 418.964 192.172 418.964C192.301 418.964 192.407 418.958 192.49 418.944C192.573 418.928 192.639 418.914 192.689 418.905L192.928 419.959C192.848 419.988 192.737 420.018 192.595 420.048C192.452 420.081 192.271 420.098 192.053 420.098C191.721 420.098 191.396 420.026 191.078 419.884C190.763 419.741 190.502 419.524 190.293 419.233C190.087 418.941 189.984 418.573 189.984 418.129V410.532Z" fill="#00254D"/>
</g>
<path d="M211.304 415.493L215.009 411.788L216.074 412.838L211.304 417.608L206.534 412.838L207.599 411.788L211.304 415.493Z" fill="#00254D"/>
<rect x="142.804" y="395.498" width="87" height="39" rx="1.5" stroke="#96C7F2"/>
<path d="M238.48 420.157C237.79 420.157 237.186 419.993 236.665 419.665C236.148 419.337 235.744 418.878 235.452 418.288C235.164 417.698 235.02 417.009 235.02 416.22C235.02 415.424 235.164 414.73 235.452 414.137C235.744 413.544 236.148 413.083 236.665 412.755C237.186 412.427 237.79 412.262 238.48 412.262C239.169 412.262 239.772 412.427 240.29 412.755C240.81 413.083 241.214 413.544 241.503 414.137C241.794 414.73 241.94 415.424 241.94 416.22C241.94 417.009 241.794 417.698 241.503 418.288C241.214 418.878 240.81 419.337 240.29 419.665C239.772 419.993 239.169 420.157 238.48 420.157ZM238.48 419.103C239.004 419.103 239.434 418.969 239.772 418.701C240.111 418.432 240.361 418.079 240.523 417.642C240.686 417.204 240.767 416.73 240.767 416.22C240.767 415.709 240.686 415.234 240.523 414.793C240.361 414.352 240.111 413.996 239.772 413.724C239.434 413.452 239.004 413.316 238.48 413.316C237.956 413.316 237.525 413.452 237.187 413.724C236.849 413.996 236.599 414.352 236.437 414.793C236.274 415.234 236.193 415.709 236.193 416.22C236.193 416.73 236.274 417.204 236.437 417.642C236.599 418.079 236.849 418.432 237.187 418.701C237.525 418.969 237.956 419.103 238.48 419.103ZM247.132 412.362V413.356H243.015V412.362H247.132ZM244.248 419.998V411.308C244.248 410.87 244.351 410.506 244.556 410.214C244.762 409.923 245.029 409.704 245.357 409.558C245.685 409.412 246.031 409.339 246.396 409.339C246.684 409.339 246.92 409.362 247.102 409.409C247.284 409.455 247.42 409.498 247.509 409.538L247.171 410.552C247.112 410.532 247.029 410.508 246.923 410.478C246.82 410.448 246.684 410.433 246.515 410.433C246.127 410.433 245.847 410.531 245.675 410.726C245.506 410.922 245.421 411.209 245.421 411.586V419.998H244.248Z" fill="#846358"/>
<rect x="252.804" y="395.498" width="39" height="39" rx="1.5" fill="#F8F1EE"/>
<g clip-path="url(#clip3_20369_1720)">
<path d="M261.537 419.998V409.816H267.642V410.91H262.77V414.351H267.184V415.444H262.77V419.998H261.537ZM269.594 419.998V412.362H270.768V419.998H269.594ZM270.191 411.089C269.962 411.089 269.765 411.011 269.599 410.856C269.437 410.7 269.356 410.512 269.356 410.294C269.356 410.075 269.437 409.888 269.599 409.732C269.765 409.576 269.962 409.498 270.191 409.498C270.42 409.498 270.615 409.576 270.778 409.732C270.943 409.888 271.026 410.075 271.026 410.294C271.026 410.512 270.943 410.7 270.778 410.856C270.615 411.011 270.42 411.089 270.191 411.089ZM274.09 409.816V419.998H272.917V409.816H274.09ZM279.441 420.157C278.705 420.157 278.07 419.995 277.536 419.67C277.006 419.342 276.597 418.885 276.309 418.298C276.023 417.708 275.881 417.022 275.881 416.24C275.881 415.458 276.023 414.768 276.309 414.172C276.597 413.572 276.998 413.104 277.512 412.77C278.029 412.432 278.632 412.262 279.321 412.262C279.719 412.262 280.112 412.329 280.5 412.461C280.887 412.594 281.24 412.809 281.559 413.108C281.877 413.403 282.13 413.794 282.319 414.281C282.508 414.768 282.603 415.368 282.603 416.081V416.578H276.716V415.564H281.409C281.409 415.133 281.323 414.748 281.151 414.41C280.982 414.072 280.74 413.805 280.425 413.61C280.113 413.414 279.746 413.316 279.321 413.316C278.854 413.316 278.45 413.432 278.108 413.664C277.77 413.893 277.51 414.191 277.328 414.559C277.145 414.927 277.054 415.322 277.054 415.743V416.419C277.054 416.995 277.154 417.484 277.353 417.885C277.555 418.283 277.835 418.586 278.193 418.795C278.551 419.001 278.967 419.103 279.441 419.103C279.749 419.103 280.027 419.06 280.276 418.974C280.528 418.885 280.745 418.752 280.927 418.576C281.109 418.397 281.25 418.175 281.35 417.91L282.483 418.228C282.364 418.613 282.163 418.951 281.882 419.243C281.6 419.531 281.252 419.756 280.838 419.919C280.423 420.078 279.958 420.157 279.441 420.157Z" fill="#846358"/>
</g>
<rect x="252.804" y="395.498" width="39" height="39" rx="1.5" stroke="#D1B9B0"/>
<rect width="459" height="1" transform="translate(49.3037 450.998)" fill="#EADDD7"/>
<rect x="48.8037" y="298.498" width="460" height="154" rx="3.5" stroke="#BFA094" stroke-dasharray="4 4"/>
<defs>
<linearGradient id="paint0_linear_20369_1720" x1="199.984" y1="114.464" x2="128.224" y2="129.933" gradientUnits="userSpaceOnUse">
<stop stop-color="#FFB171"/>
<stop offset="1" stop-color="#BD8AFC"/>
</linearGradient>
<linearGradient id="paint1_linear_20369_1720" x1="427.984" y1="114.464" x2="356.224" y2="129.933" gradientUnits="userSpaceOnUse">
<stop stop-color="#FFB171"/>
<stop offset="1" stop-color="#BD8AFC"/>
</linearGradient>
<clipPath id="clip0_20369_1720">
<rect width="93" height="16" fill="white" transform="translate(73.3037 326.998)"/>
</clipPath>
<clipPath id="clip1_20369_1720">
<rect width="42" height="16" fill="white" transform="translate(73.3037 406.998)"/>
</clipPath>
<clipPath id="clip2_20369_1720">
<rect width="44" height="16" fill="white" transform="translate(150.304 406.998)"/>
</clipPath>
<clipPath id="clip3_20369_1720">
<rect width="24" height="16" fill="white" transform="translate(260.304 406.998)"/>
</clipPath>
</defs>
</svg>
