<svg width="332" height="180" viewBox="0 0 332 180" fill="none" xmlns="http://www.w3.org/2000/svg">
<path d="M150.829 121.221C151.977 120.532 153.354 120.226 154.732 120.226C155.803 120.226 156.875 120.455 157.793 120.915C158.788 121.374 159.63 122.063 160.319 122.828L162.845 120.302C161.85 119.078 160.625 118.159 159.247 117.547C157.564 116.858 155.803 116.552 153.967 116.629C152.13 116.705 150.369 117.241 148.839 118.083C147.155 119.078 145.777 120.455 144.782 122.216C143.787 124.053 143.328 126.042 143.328 128.109C143.328 130.175 143.787 132.165 144.782 134.002C145.701 135.686 147.078 137.14 148.762 138.135C150.522 139.13 152.512 139.666 154.502 139.589C156.11 139.589 157.717 139.283 159.247 138.671C160.625 138.059 161.926 137.064 162.845 135.916L160.319 133.39C159.63 134.232 158.788 134.921 157.793 135.38C156.798 135.839 155.727 136.069 154.655 136.069C153.278 136.069 151.977 135.763 150.752 135.074C149.604 134.385 148.686 133.466 148.073 132.318C147.461 131.094 147.078 129.64 147.078 128.262C147.078 126.884 147.384 125.507 148.073 124.206C148.762 122.905 149.681 121.91 150.829 121.221ZM146.925 95.3518H157.64V104.919H161.467V82.5704H157.64V91.7546H146.925V82.5704H143.099V104.919H146.925V95.3518ZM166.212 104.919H170.039V82.5704H166.212V104.919ZM186.418 83.5653C184.963 82.8765 183.356 82.5704 181.749 82.6469H174.861V104.919H178.687V98.4897H181.749C183.356 98.4897 184.963 98.1836 186.418 97.5713C187.719 96.959 188.79 96.0406 189.479 94.816C190.168 93.5149 190.55 92.0608 190.55 90.6066C190.55 89.1524 190.168 87.6982 189.479 86.3971C188.79 85.096 187.719 84.1776 186.418 83.5653ZM185.346 93.8211C184.504 94.5864 183.203 94.9691 181.519 94.9691H178.687V86.091H181.519C183.203 86.091 184.504 86.4737 185.346 87.239C186.188 88.0044 186.647 89.0759 186.647 90.5301C186.647 91.9842 186.265 93.0557 185.346 93.8211ZM224.073 82.6469L213.741 104.919H218.103L220.399 99.7908H231.88L234.176 104.919H238.615L228.282 82.5704H224.073V82.6469ZM221.853 96.4998L226.139 86.7798L230.425 96.4998H221.853ZM182.973 118.083C181.213 117.088 179.223 116.629 177.157 116.629C175.09 116.629 173.177 117.164 171.34 118.083C169.656 119.078 168.202 120.455 167.284 122.216C166.289 124.053 165.83 126.042 165.83 128.109C165.83 130.175 166.365 132.165 167.284 134.002C168.202 135.686 169.656 137.14 171.34 138.135C173.1 139.13 175.09 139.589 177.157 139.589C179.223 139.589 181.137 139.054 182.973 138.135C184.657 137.14 186.035 135.763 187.03 134.002C188.025 132.165 188.484 130.175 188.484 128.109C188.484 126.042 187.948 124.053 187.03 122.216C186.035 120.455 184.657 119.078 182.973 118.083ZM183.586 132.089C182.973 133.237 182.055 134.232 180.984 134.921C179.836 135.609 178.534 135.916 177.233 135.916C175.932 135.916 174.631 135.533 173.483 134.921C172.335 134.232 171.417 133.313 170.881 132.089C170.269 130.864 169.886 129.487 169.886 128.032C169.886 126.578 170.192 125.277 170.881 123.976C171.493 122.828 172.412 121.833 173.483 121.144C174.631 120.455 175.932 120.149 177.233 120.149C178.534 120.149 179.836 120.532 180.984 121.144C182.132 121.833 183.05 122.751 183.586 123.976C184.198 125.201 184.581 126.578 184.581 128.032C184.581 129.487 184.198 130.864 183.586 132.089ZM313.696 116.935V120.455H320.661V139.283H324.564V120.455H331.529V116.935H313.696ZM307.497 132.012L295.94 116.935H292.725V139.283H296.629V124.206L308.185 139.283H311.4V116.935H307.497V132.012ZM210.909 116.935L204.403 128.798L197.745 116.935H192.923V139.283H197.056V123.823L204.327 136.681L211.751 123.593V139.207H215.884V116.858H210.909V116.935ZM232.033 117.853C230.579 117.164 228.895 116.858 227.288 116.935H220.323V139.283H224.226V132.854H227.288C228.895 132.854 230.579 132.548 232.033 131.936C233.334 131.323 234.405 130.405 235.171 129.18C235.859 127.879 236.242 126.425 236.242 124.971C236.242 123.517 235.859 122.063 235.171 120.762C234.405 119.46 233.334 118.465 232.033 117.853ZM230.961 128.185C230.119 128.951 228.818 129.334 227.058 129.334H224.15V120.455H227.058C228.742 120.455 230.043 120.838 230.961 121.603C231.803 122.369 232.262 123.44 232.262 124.894C232.339 126.272 231.88 127.42 230.961 128.185ZM206.393 99.7908L208.689 104.919H213.128L202.796 82.5704H198.587L188.331 104.919H192.693L194.99 99.7908H206.393ZM200.73 86.7798L205.016 96.4998H196.444L200.73 86.7798ZM243.743 116.935H239.839V139.283H254.687V135.762H243.743V116.935ZM257.902 139.207H261.805V116.858H257.902V139.207ZM101.004 164.387C101.081 169.744 101.157 173.648 101.234 175.561C101.31 175.791 101.31 176.097 101.234 176.326C101.234 176.632 101.234 176.862 101.234 176.862C101.234 177.934 101.387 179.005 101.693 180C101.999 179.005 102.152 177.934 102.152 176.862C102.152 176.479 102.305 170.892 102.535 161.938C102.458 162.014 102.382 162.091 102.382 162.167C101.846 162.856 101.387 163.621 101.004 164.387ZM85.0846 52.645C86.3092 51.3439 87.4572 49.8132 88.2991 48.2059C87.6868 49.5836 85.3142 54.788 87.6103 55.2472C90.136 55.7064 92.9678 54.9411 98.0957 48.4356C97.9426 40.0932 97.7895 32.8223 97.713 27.3118H94.9577C94.8046 27.3118 94.7281 27.3118 94.575 27.3118C93.0443 27.3118 90.5187 27.1587 88.8349 24.633C86.998 21.8778 86.9215 19.0459 86.8449 16.9795C86.7684 13.9946 86.0031 8.56059 82.2528 5.49917C79.6506 3.43271 72.6093 1.82546 66.1038 4.42767C63.9608 5.26956 59.6749 7.48909 55.4654 9.55555C51.6386 11.4689 46.7404 13.8415 45.2097 13.8415C47.7353 12.6935 51.1029 11.0097 54.7766 8.94326C58.986 6.6472 63.4251 4.19806 65.6446 3.27964C70.0837 1.51932 78.5791 0.983579 82.9416 4.50421C87.0745 7.87177 87.9164 13.6885 87.993 16.8264C88.0695 18.8929 88.1461 21.4185 89.7533 23.9442C91.2075 26.0872 93.5035 26.0872 94.8812 26.0872H95.1873H97.6364C97.6364 25.3984 97.6364 24.7861 97.6364 24.0973C95.1873 24.2503 91.6667 24.4034 90.136 21.1124C88.2991 17.1326 90.289 6.95334 84.1662 2.66736C78.0434 -1.61863 68.2468 -0.54713 59.5218 4.50421C50.8733 9.47901 39.393 15.9845 25.2339 21.6481C11.0748 27.3118 2.27328 29.6078 0.589496 29.8374C-1.01775 30.1436 1.8906 31.2151 7.9369 31.3681C13.9832 31.5212 19.0345 31.062 19.0345 31.062L63.4251 10.8566C63.4251 10.8566 25.1574 29.914 21.9429 31.9804C18.7284 34.0469 16.1262 34.7357 16.3558 36.6491C16.5854 38.5625 19.0345 38.3329 25.7697 38.1798C32.5048 38.0267 33.9589 37.4144 36.255 36.7256C38.5511 36.0368 63.4251 24.5565 63.4251 24.5565C63.4251 24.5565 36.7908 37.7971 32.964 40.8585C29.1372 43.92 33.2701 44.9149 35.8723 44.9915C38.5511 45.068 45.6689 44.6853 49.6487 42.6954C53.6286 40.7055 66.0273 32.7458 66.0273 32.7458C66.0273 32.7458 53.7816 41.5474 51.409 43.5373C49.4956 45.1445 48.5007 46.5222 48.9599 48.2059C49.6487 50.3489 53.3224 50.1193 58.2207 48.359C58.2207 48.359 63.272 46.5987 65.1854 44.9149C67.0988 43.1546 72.4563 38.4094 72.4563 38.4094C72.4563 38.4094 66.1038 44.9915 64.4966 47.8233C62.9659 50.6551 62.6597 51.3439 63.4251 52.9512C64.4966 55.2472 72.6093 52.8746 74.9054 50.4255C76.5892 48.5121 78.1964 46.5222 79.6506 44.3792C79.6506 44.3792 77.2015 48.359 76.6657 50.6551C76.13 52.9512 75.5177 54.788 77.7372 55.0176C80.1864 55.4003 82.4824 55.4768 85.0846 52.645ZM100.239 104.766C100.468 104.613 100.698 104.46 100.927 104.306C101.387 104 101.769 103.771 102.076 103.465C102.688 103.082 103.3 102.623 103.912 102.24C103.989 97.8775 104.142 93.4384 104.218 89.0759C102.994 88.5401 101.693 88.0044 100.315 87.4686C100.239 87.4686 100.162 87.3921 100.086 87.3921C99.9325 87.3156 99.856 87.3156 99.7029 87.239C98.7845 86.9329 97.9426 86.5502 96.9476 86.2441C95.7996 85.7849 94.6516 85.4022 93.5035 84.943C85.85 88.9993 84.3193 90.9127 84.3193 94.663C84.3193 99.9439 88.8349 102.317 96.6415 107.291C97.8661 106.373 99.0906 105.531 100.239 104.766ZM90.8248 95.3518C90.8248 95.3518 90.289 91.9842 98.9376 88.0809C99.1672 88.0044 99.3968 87.8513 99.6264 87.7748C99.7029 93.0557 99.7794 98.3367 99.9325 103.618C95.6465 100.709 90.8248 97.954 90.8248 95.3518ZM103.912 160.33C103.53 160.79 103.147 161.249 102.764 161.631C104.984 164.616 104.831 167.525 103.606 171.275C104.754 169.974 107.05 166.683 105.137 162.397C104.754 161.708 104.372 161.019 103.912 160.33ZM100.392 128.951C101.234 129.793 102.229 130.788 103.224 131.783C103.836 132.395 104.448 133.007 105.137 133.696C105.213 133.773 105.367 133.849 105.52 134.002C110.724 129.487 115.469 125.201 115.469 119.843C115.469 115.634 111.413 111.807 107.356 108.745C106.974 108.975 106.591 109.205 106.208 109.511C105.29 110.123 104.448 110.659 103.683 111.195C103.683 111.195 103.606 111.195 103.606 111.271C103.453 111.424 103.224 111.501 103.07 111.654C101.999 112.419 101.004 113.108 100.086 113.797C100.239 118.925 100.315 124.053 100.392 128.951ZM103.683 112.037C108.734 115.71 110.724 118.083 110.724 120.685C110.724 123.364 107.892 126.502 103.3 131.094C103.377 124.971 103.53 118.619 103.683 112.037ZM131.618 38.4859C131.618 38.4859 136.976 43.2311 138.889 44.9915C140.802 46.7518 145.854 48.4356 145.854 48.4356C150.752 50.1959 154.426 50.4255 155.115 48.2825C155.65 46.5987 154.579 45.1445 152.665 43.6138C150.293 41.6239 138.047 32.8223 138.047 32.8223C138.047 32.8223 150.446 40.782 154.426 42.7719C158.406 44.7619 165.523 45.1445 168.202 45.068C170.881 44.9915 174.937 43.9965 171.11 40.9351C167.284 37.8737 140.649 24.633 140.649 24.633C140.649 24.633 165.447 36.1899 167.819 36.8022C170.116 37.491 171.57 38.0267 178.305 38.2563C185.04 38.4094 187.413 38.639 187.719 36.7256C188.025 34.8888 185.346 34.2 182.132 32.057C178.917 29.9905 140.649 10.9332 140.649 10.9332L185.04 31.1385C185.04 31.1385 190.091 31.5978 196.138 31.4447C202.184 31.2916 205.092 30.2201 203.485 29.914C201.878 29.6078 193 27.3883 178.841 21.7247C164.682 16.0611 153.201 9.63208 144.553 4.58074C135.904 -0.39406 126.031 -1.54209 119.908 2.74389C113.785 7.02988 115.775 17.1326 113.938 21.1889C112.408 24.48 108.887 24.3269 106.438 24.1738C106.438 24.7861 106.438 25.4749 106.361 26.1637H108.887H109.193C110.571 26.1637 112.867 26.1637 114.321 24.0207C115.928 21.5716 116.005 18.9694 116.081 16.903C116.158 13.765 117 7.9483 121.133 4.58074C125.495 1.06011 133.991 1.59586 138.43 3.35618C140.649 4.19807 145.088 6.6472 149.298 9.0198C152.972 11.0863 156.339 12.77 158.865 13.9181C157.258 13.9181 152.436 11.5455 148.609 9.63208C144.476 7.48909 140.19 5.3461 137.971 4.50421C131.465 1.902 124.424 3.50924 121.822 5.5757C117.995 8.63712 117.306 14.0711 117.23 17.056C117.153 19.1225 117.076 22.0308 115.24 24.7096C113.632 27.2352 111.107 27.3883 109.499 27.3883C109.346 27.3883 109.27 27.3883 109.117 27.3883H106.361C106.208 32.8989 106.055 40.0932 105.902 48.2825C111.107 54.9411 114.092 55.783 116.541 55.2472C118.837 54.788 116.541 49.5836 115.852 48.2059C116.77 49.8132 117.842 51.2674 119.066 52.645C121.592 55.4768 123.965 55.4003 126.261 55.0941C128.557 54.788 127.868 53.0277 127.332 50.7316C126.796 48.4356 124.347 44.4557 124.347 44.4557C125.801 46.5222 127.409 48.5886 129.093 50.502C131.389 52.9511 139.501 55.4003 140.573 53.0277C141.262 51.497 141.032 50.7316 139.501 47.8998C138.047 45.068 131.618 38.4859 131.618 38.4859ZM102.152 15.0661C103.377 15.0661 104.601 14.6834 105.596 13.9946C106.591 13.3058 107.433 12.3108 107.892 11.2393C108.351 10.0913 108.504 8.86673 108.275 7.64216C108.045 6.41759 107.433 5.34609 106.591 4.42767C105.749 3.58578 104.601 2.9735 103.377 2.74389C102.152 2.51429 100.927 2.59082 99.7794 3.12657C98.6314 3.58578 97.6364 4.42767 97.0242 5.42263C96.3353 6.41759 95.9527 7.64216 95.9527 8.86673C95.9527 9.70862 96.1057 10.474 96.4119 11.2393C96.718 12.0047 97.1772 12.6935 97.7895 13.2292C98.4018 13.8415 99.0141 14.3007 99.7794 14.6069C100.468 14.913 101.31 15.0661 102.152 15.0661ZM122.51 61.5997C122.51 61.5997 122.357 57.3137 115.393 56.8545C108.275 56.3952 107.969 59.4567 108.122 60.6047C108.658 60.6047 109.117 60.7578 109.117 60.9108C109.117 61.0639 108.734 61.217 108.275 61.217C108.658 62.365 109.729 63.7426 112.79 65.2734C115.316 66.4979 116.541 66.4214 117.995 66.1918C117.995 66.1918 119.679 67.1867 119.679 68.794C119.679 70.3247 117 73.3096 104.448 79.5855C105.213 45.7568 105.902 16.0611 105.902 16.0611H106.668C106.974 16.0611 107.28 15.908 107.51 15.6784C107.739 15.4488 107.892 15.1426 107.892 14.8365V14.4538C107.892 14.3007 107.892 14.1477 107.816 13.9946C107.739 13.8415 107.663 13.6885 107.51 13.6119C106.821 14.3773 106.055 14.9896 105.137 15.4488C104.218 15.908 103.224 16.0611 102.229 16.0611C101.234 16.0611 100.239 15.8315 99.3202 15.4488C98.4018 15.0661 97.5599 14.3773 96.9476 13.6119C96.7946 13.765 96.718 13.8415 96.6415 13.9946C96.565 14.1477 96.5649 14.3007 96.5649 14.4538V14.8365C96.5649 15.1426 96.718 15.4488 96.9476 15.6784C97.1772 15.908 97.4834 16.0611 97.7895 16.0611H98.5549C98.5549 16.0611 99.0906 44.9149 99.6264 78.1313C100.698 78.6671 101.769 79.2028 102.994 79.8151C103.147 79.8916 103.377 79.9682 103.53 80.0447C106.361 81.4223 108.734 82.5704 110.724 83.6419C117.459 81.0397 124.041 78.0548 126.031 73.8453C129.552 66.0387 122.51 61.5997 122.51 61.5997ZM113.173 59.8393C112.408 59.8393 111.796 59.4567 111.796 58.9975C111.796 58.5382 112.408 58.1556 113.173 58.1556C113.938 58.1556 114.551 58.5382 114.551 58.9975C114.551 59.4567 113.938 59.8393 113.173 59.8393ZM101.004 156.733C101.616 155.968 102.152 155.203 102.764 154.514C102.841 150.151 102.994 145.253 103.07 139.972C102.305 139.207 101.463 138.441 100.545 137.599C100.239 137.37 100.009 137.064 99.7029 136.834C99.3202 136.451 98.9376 136.145 98.5549 135.839C96.4119 137.829 92.2024 142.268 92.2024 146.095C92.2024 150.61 96.565 155.203 99.856 158.494C100.162 157.805 100.545 157.269 101.004 156.733ZM100.545 138.518C100.698 145.023 100.774 150.993 100.851 156.121C98.3253 152.753 95.6465 149.309 95.6465 146.937C95.6465 144.717 96.9476 142.191 100.545 138.518ZM102.305 80.8101C87.3807 73.6157 84.3193 70.3247 84.3193 68.7175C84.3193 67.1102 86.0031 66.1153 86.0031 66.1153C87.4572 66.4214 88.6818 66.4214 91.2075 65.1968C94.2689 63.7427 95.3404 62.2885 95.7231 61.1404C95.2639 61.1404 94.8812 60.9874 94.8812 60.8343C94.8812 60.6812 95.3404 60.5282 95.8761 60.5282V60.4516C95.9527 59.3036 95.57 56.3187 88.5287 56.7779C81.564 57.2371 81.4109 61.5231 81.4109 61.5231C81.4109 61.5231 74.3697 66.0387 78.0434 73.6923C81.2579 80.5039 96.3354 84.1011 105.06 88.0044C113.709 91.9077 113.173 95.2753 113.173 95.2753C113.173 98.1836 107.356 101.245 102.764 104.46C98.1722 107.674 88.4522 113.261 88.4522 119.843C88.4522 125.889 94.4985 130.558 100.392 135.762C106.361 140.967 108.275 144.105 108.275 147.013C108.275 150.993 101.693 156.351 98.3253 163.009C94.9577 169.668 101.616 180 99.5498 174.566C97.4068 169.132 98.5549 165.305 101.31 161.478C104.678 156.81 111.872 152.218 111.872 146.018C111.872 140.814 104.295 134.691 104.295 134.691C97.5599 127.956 93.2739 124.129 93.2739 120.762C93.2739 117.394 96.4884 114.409 105.52 108.516C114.474 102.699 119.755 100.403 119.755 94.7395C119.755 89.7647 117.23 88.0044 102.305 80.8101ZM90.8248 58.2321C91.5901 58.2321 92.2024 58.6148 92.2024 59.074C92.2024 59.5332 91.5901 59.9159 90.8248 59.9159C90.0594 59.9159 89.4471 59.5332 89.4471 59.074C89.4471 58.6148 90.0594 58.2321 90.8248 58.2321ZM275.122 116.935L264.79 139.283H269.152L271.448 134.155H282.929L285.225 139.283H289.664L279.332 116.935H275.122ZM272.903 130.864L277.189 121.144L281.475 130.864H272.903Z" fill="#0D405F"/>
</svg>
