<svg width="222" height="180" viewBox="0 0 222 180" fill="none" xmlns="http://www.w3.org/2000/svg">
<g clip-path="url(#clip0_4480_5501)">
<path d="M218.613 70.9438C216.505 65.4101 212.176 60.4697 206.908 56.9075C191.698 47.2499 168.518 46.5621 152.847 55.2931C144.299 59.6507 138.682 68.2741 136.934 77.1547C133.762 91.7449 134.581 109.105 145.822 120.041C158.929 131.531 178.005 134.069 194.969 129.349C195.775 129.194 198.329 128.551 200.09 127.617L200.586 127.404C205.855 125.215 210.879 121.65 214.631 116.822C223.288 104.164 223.881 85.198 218.613 70.9438M190.994 103.707C190.396 106.474 188.535 109.341 185.6 110.38C180.927 112.436 174.606 111.866 170.277 109.462C166.647 106.923 166.179 102.673 165.712 98.6515C165.358 90.7238 164.786 82.3288 167.006 75.0809C168.747 70.592 173.548 69.437 177.89 69.0984C182.45 69.0984 186.889 69.794 189.705 73.4717C191.459 76.11 191.351 79.5619 191.698 82.67C191.574 89.2196 192.163 97.0318 190.994 103.707ZM52.3194 110.848C48.4553 110.611 44.1266 110.95 40.3858 110.491L40.5013 70.1222L40.7376 69.7861L52.3194 69.6733C52.4402 63.1211 52.5557 56.0937 52.1987 50.1217L8.08952 49.9983L0.825933 50.1243C0.71043 56.2145 0.71043 63.3363 0.825933 69.5525C4.80817 69.6759 8.54628 69.5525 12.4104 69.9121V109.007L12.2975 110.614L0.71043 110.85C0.468919 117.173 0.468919 123.502 0.71043 129.824H52.3168L52.3194 110.848V110.848ZM182.208 138.44C177.299 145.462 171.096 152.245 164.324 157.521C164.077 157.881 163.376 157.745 163.153 157.414C160.218 155.579 157.06 154.077 154.246 152.245C157.995 147.764 161.625 143.28 164.434 138.316H160.793C157.884 142.587 154.834 147.068 150.975 150.851C145.822 148.785 141.144 146.948 135.878 145.556L135.293 145.118C136.112 142.795 137.629 140.613 138.094 138.311H134.936L131.778 144.525C124.882 143.031 117.272 142.217 110.25 141.763C109.895 140.731 110.36 139.235 109.895 138.311H106.853C106.611 139.695 107.205 140.737 106.501 141.884C99.2453 142.217 92.2258 143.031 85.4453 144.425L82.2742 138.311C81.1165 138.311 79.8145 138.091 79.006 138.435L81.925 145.22L81.5759 145.556C76.3312 147.074 71.1746 148.881 66.13 150.969L65.6653 150.733C62.3814 147.168 59.2208 143.275 56.6429 139.364C56.0628 137.398 53.7212 138.547 52.4323 138.316C55.2306 143.383 58.9871 147.861 62.7252 152.468C59.5673 154.314 56.4198 156.372 53.128 157.881C45.9699 152.429 39.73 145.868 34.6448 138.445C33.2378 138.219 32.3111 138.322 30.8962 138.445C39.3227 151.555 52.4323 163.05 66.1247 169.836C66.1247 169.836 66.1247 169.733 66.2507 169.733C66.3505 169.733 66.5841 169.946 66.3505 170.067C75.6012 174.553 85.4374 177.771 95.8432 179.157C131.773 183.867 166.064 168.581 185.946 138.445C184.704 138.317 183.451 138.315 182.208 138.44M133.421 148.788L133.765 148.557C138.81 149.707 143.599 151.318 148.048 153.497C144.299 157.742 139.501 161.43 135.059 164.533C132.371 166.137 129.67 167.88 126.858 169.25L121.837 167.066L122.181 166.271C126.402 160.64 130.148 154.883 133.421 148.788M110.36 145.336C117.035 145.462 123.708 146.15 129.901 147.638L130.024 147.987C126.753 154.19 122.648 160.183 118.209 165.806C116.209 166.042 114.345 165.247 112.358 165.124L110.357 164.887C110.129 158.102 110.005 152.122 110.36 145.336ZM87.7842 147.404C93.8691 146.255 100.185 145.336 106.735 145.336L106.855 164.79C104.393 165.347 101.702 165.347 99.3608 165.937C94.5622 160.288 90.5878 154.19 87.1988 147.861L87.7842 147.404ZM68.9335 153.621C73.5091 151.429 78.2998 149.809 83.2087 148.554L83.6839 148.675C87.0676 155.001 91.2861 160.976 95.4967 166.956C93.8718 167.883 91.8715 168.437 90.2387 169.371C82.325 165.462 75.124 160.251 68.9362 153.957V153.621H68.9335ZM84.0356 173.282C74.2047 170.744 65.0694 166.376 56.6456 160.406V160.049C59.4544 158.34 62.2737 156.495 65.3057 155.217C71.9813 161.79 78.88 166.735 86.3693 171.44C85.7865 172.13 84.852 172.823 84.0356 173.282ZM127.446 174.768C115.046 177.43 101.23 177.532 88.8316 174.548C88.5954 173.975 89.417 173.852 89.7661 173.516C100.65 166.494 117.61 166.494 128.271 174.075C128.617 174.768 127.683 174.548 127.446 174.768M138.684 171.56L133.185 173.28C132.245 172.82 131.431 172.13 130.604 171.437L130.841 171.085C138.333 166.733 145.116 161.428 151.555 155.104C154.716 156.366 157.761 158.102 160.578 160.047C154.018 165.247 146.407 168.681 138.684 171.56M34.4164 41.2621C37.311 37.2563 40.4773 33.4541 43.8929 29.8824C46.9249 27.0079 49.7442 24.2489 53.0256 22.1699C56.0707 24.1229 59.4596 25.7505 62.384 27.5828C58.7587 32.0454 55.0128 36.5501 52.3221 41.3671C53.1358 41.7267 54.6636 41.6138 55.837 41.3671C58.7588 37.1197 61.9088 32.8671 65.6679 29.0686C70.6871 30.914 75.6091 32.8618 80.7648 34.2479L81.2189 34.7046L78.3051 41.3671C79.5966 41.6138 80.4156 41.4931 81.694 41.3671C82.7441 39.4245 83.5578 37.2457 84.7286 35.2795C91.525 36.7811 98.6652 37.5817 105.921 37.8048C106.85 38.6212 106.152 40.338 106.504 41.3671H109.662C110.005 40.2383 109.543 38.9572 110.005 37.9335C116.799 37.5765 123.934 36.8861 130.51 35.2743L131.08 35.395L134.24 41.3618C135.295 41.3618 136.697 41.6086 137.516 41.1256L134.584 34.4736L134.828 34.2426C140.202 32.8618 145.242 30.7933 150.39 28.7273C154.028 32.5206 157.412 37.0042 160.465 41.3592C161.746 41.3592 163.035 41.4852 163.972 41.1229C162.527 38.5556 160.841 36.1314 158.937 33.883C157.391 31.6807 155.667 29.6095 153.781 27.6904V27.0945L161.974 22.3878L163.155 21.9284C170.28 27.3213 176.515 33.7981 181.633 41.1229C183.038 41.1229 184.211 41.606 185.385 41.0258C169.687 17.5865 143.83 2.50544 115.875 0.334502L115.752 0.557633L115.513 0.334502C112.358 -0.00413332 108.48 -0.138012 105.091 0.200623C103.808 0.10087 102.29 0.200623 100.765 0.334502C72.6848 2.50544 46.8251 16.8882 30.6678 41.3723C31.8386 41.2621 33.243 41.7293 34.4164 41.2621M82.9882 31.1581L82.5209 31.2579C77.7171 30.0057 73.0313 28.4963 68.5844 26.5485L68.8102 25.8581C75.2469 19.7653 82.0327 14.7015 89.522 10.8007C91.2861 11.4911 93.0396 12.0607 94.7932 12.8771L94.4493 13.7749C89.9945 19.3086 86.4927 25.2754 82.9882 31.1581ZM106.267 34.2531C102.999 34.7125 100.072 34.1507 96.783 33.8961C93.6381 33.4341 89.6506 33.1007 86.4927 32.0507C89.8869 25.7557 93.8718 19.6498 98.6652 14.0295L106.157 15.0507C106.504 21.0201 106.267 27.9241 106.267 34.2531M109.893 34.3765C109.662 28.2627 109.782 21.4874 109.893 15.1609C112.242 14.8249 114.804 14.4679 117.151 14.1293C121.713 19.8703 126.171 25.7557 129.216 32.0507C122.888 33.5816 116.403 34.3622 109.893 34.3765ZM147.234 26.3149C142.661 28.2601 137.976 30.1029 132.951 31.1581C129.326 25.0627 125.349 18.9699 120.889 13.0819C122.53 12.1815 124.53 11.4911 126.281 10.5749C133.902 14.3655 141.265 19.7653 147.46 25.9552L147.234 26.3149V26.3149ZM132.245 6.65306C142.076 9.18888 151.322 13.5518 159.748 19.5317L159.514 19.9911L151.448 24.4695H150.852C144.659 18.2821 137.406 12.8771 130.024 8.61137C130.258 7.80547 131.434 7.22533 132.245 6.65306M127.57 5.49803V5.74216C117.382 13.0819 100.886 13.7749 90.1258 6.98907C89.522 6.52968 88.367 6.30655 88.241 5.50065C100.652 2.63932 115.271 2.40831 127.57 5.49803M56.1809 19.7653C63.56 14.3655 71.7476 10.3413 80.4104 7.57971C80.7648 7.22008 80.9905 6.88144 81.4525 6.88144V7.1177C82.3871 7.34346 83.0932 6.3013 83.9096 6.98382C84.6157 7.57971 85.4427 8.03385 86.0202 8.60612C78.7697 13.0819 71.6269 18.3819 65.0721 24.8081C61.9115 23.6793 58.9976 21.9441 56.1783 19.9911L56.1809 19.7653V19.7653ZM106.388 111.745C95.3891 114.741 83.445 112.457 75.491 104.164C74.5591 103.014 73.9684 101.644 73.0287 100.5L57.2362 100.61C56.9868 109.921 56.8766 120.618 57.2362 129.822L74.7822 129.709L75.0158 124.186C77.0135 125.104 79.006 126.252 80.9905 127.283C93.1604 132.35 108.827 133.499 120.884 127.283C129.667 122.466 134.35 113.155 133.059 103.13C131.778 93.3672 122.412 84.5076 112.94 82.1004L84.6131 73.9285L82.5183 72.889C81.5812 72.091 80.9931 71.0619 81.2215 69.7861C83.445 66.0008 88.6006 67.1506 92.4621 67.2529C100.652 68.4054 109.076 71.1643 113.877 78.6431C119.02 78.6431 124.987 78.7429 130.599 78.5224C130.838 69.0957 130.507 60.8215 130.368 51.2741C125.102 51.1534 118.663 51.1534 113.405 51.3949C113.169 52.7625 113.631 54.7103 113.045 56.0964L107.667 53.2193C94.7879 47.8169 76.7641 47.2525 65.0668 55.6475C57.4567 61.1575 55.123 71.0567 57.1128 79.7929C58.6275 88.0593 66.5841 94.16 74.1942 97.0266C84.6079 100.702 95.4862 103.363 106.036 106.923C107.081 107.39 108.483 108.433 108.257 109.695C108.262 110.716 107.202 111.307 106.388 111.745" fill="#006BB6"/>
</g>
<defs>
<clipPath id="clip0_4480_5501">
<rect width="221.457" height="180" fill="white" transform="translate(0.529297)"/>
</clipPath>
</defs>
</svg>
