<svg width="431" height="180" viewBox="0 0 431 180" fill="none" xmlns="http://www.w3.org/2000/svg">
<path d="M142.528 11.0127C127.564 2.84338 110.659 -0.877295 93.6736 0.174199C76.6879 1.30658 60.3493 7.21113 46.599 17.2408C32.606 27.3513 21.8484 41.2634 15.6204 57.3593C12.385 65.6904 10.3629 74.4259 9.71582 83.3231H32.0398C33.5766 66.7419 41.1798 51.293 53.3933 39.9692C65.6068 28.6454 81.5409 22.1747 98.2031 21.932C115.27 21.6085 131.851 27.7557 144.631 39.1604C157.329 50.565 165.337 66.3374 166.955 83.3231H189.198C187.742 58.977 174.072 28.3219 142.528 11.0127ZM105.806 67.7934C104.35 69.5728 102.409 70.7861 100.144 71.4331C97.9604 72.0802 95.6148 71.9993 93.4309 71.1905C91.8132 70.7861 90.3573 69.9772 89.1441 68.764C87.9308 67.6316 87.0411 66.1757 86.5558 64.6389C86.0705 63.1021 85.9896 61.4035 86.3131 59.7858C86.6367 58.1681 87.3646 56.6313 88.4161 55.4181C90.3573 53.3151 93.0265 51.9401 95.9383 51.6974C98.8502 51.4548 101.681 52.2636 103.946 54.0431C104.674 54.6092 105.321 55.2563 105.968 55.9034C106.777 55.3372 107.586 54.6901 108.556 54.0431C107.505 52.5063 106.13 51.2121 104.512 50.3224C101.519 48.7047 98.1222 48.0576 94.7251 48.5429C92.9456 48.7047 91.1662 49.2709 89.5485 50.0797C87.9308 50.9694 86.5558 52.1018 85.4234 53.4769C84.291 54.8519 83.4822 56.3887 82.9969 58.0873C82.5116 59.7858 82.4307 61.5653 82.6733 63.2638C82.916 65.4477 83.7248 67.6316 85.019 69.411C86.3131 71.1905 88.0926 72.6464 90.1147 73.5361C92.5412 74.6685 95.2913 75.0729 97.9604 74.8303C101.196 74.7494 104.35 73.4552 106.858 71.3523C107.505 70.7861 107.99 70.139 108.637 69.5728L105.887 67.6316C105.887 67.6316 105.887 67.7125 105.806 67.7934ZM126.27 74.4259H130.152L134.197 66.3374H144.954L149.079 74.4259H152.881C148.432 65.4477 144.064 56.5505 139.616 47.6532C135.167 56.5505 130.719 65.4477 126.27 74.4259ZM135.895 63.0212C137.108 60.5138 138.403 58.0873 139.616 55.5798C140.91 58.0873 142.123 60.5947 143.336 63.0212H135.895ZM46.3563 74.4259H50.2388C51.6138 71.7567 52.9888 69.0066 54.283 66.3374H65.0406C66.4156 69.0066 67.7906 71.7567 69.1657 74.4259H72.9672L59.7022 47.5723C55.2536 56.5505 50.805 65.4477 46.3563 74.4259ZM55.9007 63.0212C57.1139 60.5138 58.4081 58.0873 59.7022 55.499C60.9964 58.0873 62.2096 60.5138 63.4229 63.0212H55.9007ZM129.424 59.6241C129.991 58.7343 130.395 57.6828 130.476 56.6313C130.557 55.5799 130.395 54.4475 129.991 53.4769C129.586 52.5063 128.939 51.6165 128.13 50.8886C127.321 50.1606 126.351 49.6753 125.299 49.4327C124.086 49.1091 122.792 48.9474 121.498 49.0282C118.909 48.9474 116.321 49.0282 113.652 49.0282C113.49 49.0282 113.328 49.0282 113.248 49.0282V74.4259H116.645V63.0212C117.534 63.0212 118.343 63.0212 119.152 63.0212C120.77 62.9403 122.468 62.9403 124.086 62.7785C125.138 62.6977 126.189 62.3741 127.16 61.8888C128.049 61.2417 128.858 60.5138 129.424 59.6241ZM126.674 57.1975C126.432 57.9255 125.946 58.4917 125.299 58.8961C124.652 59.3005 123.924 59.5432 123.196 59.5432C121.093 59.6241 118.909 59.5432 116.726 59.5432V52.1018C118.99 52.1827 121.174 52.1827 123.358 52.2636C123.924 52.2636 124.49 52.4254 124.976 52.668C125.461 52.9107 125.946 53.3151 126.27 53.8004C126.593 54.2857 126.755 54.8519 126.836 55.4181C126.917 56.0652 126.836 56.7122 126.674 57.1975ZM74.9893 74.345H78.4674V48.9474H74.9893V74.345ZM304.7 140.67H310.686V159.516H317.399V140.67H323.385V135.413H304.781V140.67H304.7ZM325.245 159.435H331.958V135.332H325.245V159.435ZM356.709 159.435H363.422V135.332H356.709V159.435ZM336.164 140.104V144.957V149.891V159.435H342.878V149.891H351.128V144.957H342.878V140.104H353.635V135.332H336.245L336.164 140.104ZM367.628 140.104V144.391V149.325V154.744V159.516H385.018V154.744H374.261V149.325H382.511V144.391H374.261V140.104H385.018V135.332H367.628V140.104V140.104ZM261.67 159.516H279.06V154.744H268.302V149.325H276.553V144.391H268.302V140.104H279.06V135.332H261.67V159.516ZM398.607 135.332H388.658V159.435H398.607C401.438 159.435 404.188 158.303 406.21 156.281C408.232 154.259 409.364 151.508 409.364 148.678V146.008C409.364 143.177 408.232 140.427 406.21 138.405C404.188 136.464 401.438 135.332 398.607 135.332ZM395.291 154.744V140.185C397.636 140.185 402.57 139.133 402.57 147.464C402.651 155.714 397.717 154.744 395.291 154.744ZM302.84 142.854C302.84 141.883 302.678 140.913 302.274 139.942C301.869 139.052 301.303 138.243 300.656 137.515C299.928 136.788 299.119 136.302 298.23 135.898C297.34 135.493 296.369 135.332 295.318 135.332H282.781V159.435H289.494V150.376H291.921L295.641 159.435H303.164L299.038 149.405C300.171 148.758 301.141 147.788 301.869 146.655C302.516 145.523 302.84 144.229 302.84 142.854ZM293.457 145.604H289.494V140.104H293.457C294.185 140.104 294.913 140.427 295.399 140.913C295.884 141.398 296.208 142.126 296.208 142.854C296.208 143.582 295.884 144.31 295.399 144.795C294.913 145.361 294.185 145.604 293.457 145.604ZM249.376 110.419H258.515V84.6173H266.685V82.5952L274.531 96.7499V110.5H283.67V96.7499L294.428 77.4186H284.641L279.141 87.7717L273.641 77.4186H241.206V84.6981H249.376V110.419ZM349.51 83.8893V77.3377H325.568V110.419H349.51V103.949H334.789V96.5072H346.113V89.713H334.789V83.8893H349.51V83.8893ZM248.971 134.685H248.081C245.251 134.685 242.581 135.817 240.559 137.758C238.537 139.78 237.405 142.449 237.405 145.28V149.405C237.405 150.781 237.647 152.156 238.214 153.45C238.78 154.744 239.508 155.876 240.478 156.928C241.449 157.898 242.662 158.707 243.956 159.192C245.25 159.759 246.626 160.001 248.001 160.001H248.89C251.479 160.001 253.905 158.95 255.765 157.17C257.626 155.391 258.596 152.883 258.596 150.295H252.207C251.721 153.854 250.104 155.067 248.162 155.067C245.817 155.067 243.956 153.369 243.956 147.707C243.956 142.126 245.817 139.618 248.162 139.618C250.023 139.618 251.64 141.317 252.207 144.876H258.596V144.391C258.596 141.802 257.545 139.295 255.765 137.515C254.067 135.736 251.559 134.685 248.971 134.685ZM327.671 55.2563H328.885C332.363 55.2563 335.679 53.8813 338.106 51.4548C340.532 49.0282 341.988 45.712 341.988 42.234H333.414C332.767 47.0061 330.583 48.6238 327.995 48.6238C324.841 48.6238 322.333 46.2782 322.333 38.7559C322.333 31.2337 324.841 27.8366 327.995 27.8366C330.502 27.8366 332.686 30.1013 333.414 34.8735H341.988V34.1455C341.988 30.6675 340.613 27.3513 338.186 24.8439C335.76 22.4173 332.363 21.0423 328.885 21.0423H327.671C323.87 21.0423 320.23 22.5791 317.561 25.2483C314.892 27.9175 313.355 31.5573 313.355 35.3588V40.9398C313.355 42.8002 313.759 44.6605 314.406 46.4399C315.134 48.1385 316.186 49.7562 317.48 51.0503C318.774 52.3445 320.392 53.396 322.09 54.1239C323.87 54.9328 325.73 55.2563 327.671 55.2563ZM318.289 95.9411C318.612 95.6984 318.936 95.4557 319.179 95.2131C319.26 95.1322 319.34 95.1322 319.34 95.0513C319.583 94.8087 319.745 94.6469 319.907 94.4042C319.987 94.3234 320.149 94.1616 320.23 93.9998C320.392 93.8381 320.473 93.6763 320.554 93.5145C320.715 93.3528 320.877 93.1101 320.958 92.8675C321.848 91.3307 322.333 89.4703 322.333 87.6909C322.333 86.3158 322.09 85.0217 321.524 83.7275C321.039 82.5143 320.23 81.301 319.26 80.4113C318.289 79.4407 317.157 78.7127 315.943 78.1465C314.73 77.6612 313.355 77.3377 311.98 77.3377H294.752V110.419H303.892V98.044H311.899C314.326 98.044 316.509 97.3161 318.289 95.9411ZM304.134 91.4115V83.8893H309.553C310.524 83.8893 311.495 84.2937 312.223 85.0217C312.951 85.7496 313.355 86.7202 313.355 87.6909C313.355 88.6615 312.951 89.6321 312.223 90.36C311.495 91.088 310.524 91.4924 309.553 91.4924H304.134V91.4115ZM376.687 77.3377H367.547V110.419H376.687V77.3377ZM382.592 110.419H391.732V77.3377H382.592V110.419ZM294.994 55.2563H296.774C298.796 55.2563 300.737 54.771 302.597 53.8813C304.377 52.9916 305.995 51.6974 307.208 50.0797C309.392 47.4914 310.524 44.2561 310.524 40.9398V35.3588C310.524 32.0426 309.392 28.8072 307.208 26.2189C305.995 24.6012 304.377 23.3071 302.597 22.4173C300.818 21.5276 298.796 21.0423 296.774 21.0423H294.994C292.972 21.0423 290.95 21.5276 289.171 22.4173C287.391 23.3071 285.773 24.6012 284.56 26.2189C282.457 28.8072 281.244 32.0426 281.244 35.3588V40.9398C281.244 44.2561 282.376 47.4914 284.56 50.0797C285.773 51.6974 287.391 52.9916 289.171 53.8813C290.95 54.771 292.972 55.2563 294.994 55.2563ZM291.193 31.9617C291.354 31.3955 291.597 30.9102 291.84 30.5058C291.921 30.4249 291.921 30.344 292.002 30.2631C292.082 30.1822 292.163 30.0205 292.244 29.9396C292.325 29.8587 292.325 29.7778 292.406 29.6969C292.487 29.616 292.568 29.5351 292.649 29.4543C292.73 29.3734 292.81 29.2925 292.81 29.2116C292.891 29.1307 292.972 29.0498 293.053 28.969C293.134 28.8881 293.134 28.8881 293.215 28.8072C293.377 28.7263 293.538 28.5645 293.619 28.4837L293.7 28.4028C293.862 28.3219 293.943 28.241 294.105 28.241C294.185 28.241 294.185 28.1601 294.266 28.1601C294.428 28.0792 294.509 28.0792 294.671 27.9984C294.752 27.9984 294.752 27.9984 294.832 27.9984C294.994 27.9984 295.156 27.9175 295.318 27.9175H295.399C295.56 27.9175 295.722 27.9175 295.965 27.9175C296.127 27.9175 296.369 27.9175 296.531 27.9175H296.612C296.774 27.9175 296.935 27.9984 297.097 27.9984C297.097 27.9984 297.178 27.9984 297.259 27.9984C297.421 27.9984 297.502 28.0792 297.663 28.1601C297.744 28.1601 297.744 28.1601 297.825 28.241C297.987 28.3219 298.068 28.4028 298.23 28.4028L298.311 28.4837C298.472 28.5645 298.634 28.7263 298.715 28.8072C298.796 28.8881 298.796 28.8881 298.877 28.969C298.958 29.0498 299.038 29.1307 299.119 29.2116C299.2 29.2925 299.281 29.3734 299.281 29.4543C299.362 29.5351 299.443 29.616 299.524 29.6969C299.605 29.7778 299.686 29.8587 299.686 29.9396C299.766 30.0205 299.847 30.1822 299.928 30.2631C300.009 30.344 300.009 30.4249 300.09 30.5058C300.333 30.9911 300.575 31.4764 300.737 31.9617C301.465 34.1455 301.789 36.4103 301.708 38.7559C301.789 40.6163 301.546 42.4766 301.061 44.337C301.061 44.4178 301.061 44.4178 301.061 44.4987C300.98 44.7414 300.899 44.9031 300.818 45.0649C300.656 45.4693 300.413 45.9546 300.252 46.2782C300.252 46.2782 300.252 46.3591 300.171 46.3591C300.09 46.5208 300.009 46.6826 299.847 46.7635C299.847 46.7635 299.847 46.7635 299.847 46.8444C299.766 47.0061 299.605 47.087 299.524 47.2488C299.2 47.5723 298.796 47.8959 298.391 48.1385C298.311 48.2194 298.23 48.2194 298.068 48.3003C297.987 48.3003 297.906 48.3812 297.906 48.3812C297.825 48.3812 297.744 48.462 297.663 48.462C297.583 48.462 297.502 48.5429 297.34 48.5429C297.259 48.5429 297.178 48.5429 297.178 48.6238C297.016 48.6238 296.935 48.7047 296.774 48.7047H296.693C296.531 48.7047 296.369 48.7047 296.127 48.7047C295.965 48.7047 295.722 48.7047 295.56 48.7047H295.48C295.318 48.7047 295.237 48.7047 295.075 48.6238C294.994 48.6238 294.913 48.6238 294.913 48.5429C294.832 48.5429 294.752 48.462 294.59 48.462C294.509 48.462 294.428 48.3812 294.347 48.3812C294.266 48.3812 294.185 48.3003 294.105 48.3003C294.024 48.3003 293.943 48.2194 293.781 48.1385C293.377 47.8959 292.972 47.6532 292.649 47.2488C292.568 47.1679 292.406 47.0061 292.325 46.8444C292.325 46.8444 292.325 46.8444 292.325 46.7635C292.244 46.6017 292.163 46.5208 292.002 46.3591C292.002 46.3591 292.002 46.2782 291.921 46.2782C291.678 45.8737 291.516 45.4693 291.354 45.0649C291.274 44.9031 291.193 44.6605 291.112 44.4987C291.112 44.4987 291.112 44.4178 291.112 44.337C290.627 42.5575 290.384 40.6163 290.465 38.7559C290.141 36.4912 290.465 34.1455 291.193 31.9617ZM263.854 48.7856C259.324 48.7856 257.949 44.3369 257.788 43.609L253.258 44.6605L249.456 45.3885C250.265 49.6753 253.743 55.7416 263.611 55.7416C276.31 55.7416 277.523 47.3297 277.523 44.6605C277.523 37.7853 271.861 36.0059 265.633 33.9029C261.751 32.6087 260.699 32.1235 260.699 30.4249C260.699 28.7263 262.317 27.7557 264.339 27.7557C267.008 27.7557 268.545 29.2116 269.678 31.6381L277.038 29.0498C275.582 24.8439 272.751 20.8805 264.016 20.8805C255.28 20.8805 251.479 26.4615 251.479 30.6675C251.479 36.4912 254.229 38.9986 261.104 41.3442C266.2 43.1237 268.383 43.609 268.383 45.8737C268.302 47.5723 266.847 48.7856 263.854 48.7856ZM372.239 28.4028C374.746 29.1307 375.07 31.719 374.261 33.4985C373.452 35.3588 369.974 38.3515 368.275 39.6457C365.606 41.6678 357.841 47.6532 357.841 47.6532V54.9328H383.805V47.6532H369.489C369.489 47.6532 371.592 46.1973 376.445 42.7193C381.298 39.2413 383.239 35.197 383.239 32.447C383.239 29.6969 383.158 21.0423 370.783 21.0423C358.407 21.0423 357.356 32.1234 357.356 32.1234L365.444 34.4691C366.334 28.3219 370.378 27.8366 372.239 28.4028Z" fill="#2175BB"/>
<path d="M100.792 157.25C86.3948 157.655 72.1592 153.287 60.5119 144.875C45.1439 133.875 35.9231 118.992 32.6069 100.389H10.1211C14.8124 144.713 54.3647 182.971 105.16 179.817C151.992 176.986 185.074 139.456 188.875 100.389H166.389C163.882 116.08 155.874 130.316 143.903 140.669C131.933 151.103 116.646 156.927 100.792 157.25ZM92.2994 132.419C94.0788 133.147 96.0201 133.551 97.9613 133.47C99.9025 133.47 101.844 132.985 103.623 132.176C105.241 131.529 106.697 130.397 107.91 129.103C109.042 127.728 109.932 126.11 110.337 124.411C111.065 121.661 111.065 118.83 110.175 116.08C109.77 114.624 109.042 113.249 108.072 112.036C107.101 110.823 105.888 109.852 104.513 109.205C102.491 108.154 100.226 107.668 97.9613 107.749C97.476 107.749 96.9907 107.749 96.5054 107.749C96.1818 107.749 95.9392 107.83 95.6156 107.83C93.7553 107.992 91.895 108.72 90.2773 109.771C88.6596 110.823 87.3655 112.279 86.4757 113.896C85.1816 116.242 84.6963 118.911 84.858 121.499C85.1816 126.595 87.5272 130.397 92.2994 132.419ZM94.4833 112.279C96.101 111.632 97.9613 111.47 99.6598 111.793C101.358 112.198 102.976 113.087 104.108 114.463C105.564 116.404 106.292 118.749 106.131 121.176C105.969 123.602 104.917 125.867 103.138 127.566C99.3363 130.963 91.3288 130.235 89.6302 122.955C89.4684 122.227 89.3876 121.499 89.3876 121.176C89.2258 117.051 91.167 113.654 94.4833 112.279ZM73.2107 129.426C72.2401 129.426 71.1886 129.264 70.2989 128.779C69.4092 128.294 68.6812 127.647 68.115 126.838C67.0635 127.97 66.012 129.103 64.9606 130.235C65.7694 131.206 66.8209 131.933 67.9533 132.419C70.218 133.389 72.6445 133.632 75.0711 133.228C79.0344 132.581 81.6227 129.992 81.8653 126.191C82.0271 124.897 81.7845 123.522 81.1374 122.389C80.4903 121.257 79.5197 120.286 78.3064 119.72C77.2549 119.235 76.1226 118.83 75.0711 118.426C73.8578 118.021 72.6445 117.455 71.4313 116.889C70.8651 116.565 70.4607 116.08 70.2989 115.514C70.1371 114.948 70.1371 114.301 70.3798 113.735C70.5416 113.33 70.7842 112.926 71.1077 112.602C71.4313 112.279 71.8357 112.117 72.2401 111.955C73.2916 111.551 74.5049 111.47 75.6373 111.793C76.7696 112.117 77.7402 112.683 78.4682 113.573C79.5197 112.44 80.5712 111.389 81.6227 110.257C81.38 110.014 81.2183 109.852 80.9756 109.771C79.0344 108.396 76.6887 107.668 74.3431 107.749C72.321 107.749 70.2989 108.315 68.5194 109.367C64.5561 111.793 64.1517 118.83 69.1665 121.095C70.3798 121.661 71.6739 121.985 72.8872 122.47C73.9387 122.874 74.9902 123.36 75.9608 123.926C76.2843 124.169 76.6079 124.492 76.7696 124.897C77.0123 125.301 77.0932 125.705 77.0932 126.11C77.0932 126.514 77.0123 127 76.8505 127.404C76.6888 127.808 76.3652 128.132 76.0417 128.455C75.4755 129.103 74.3431 129.426 73.2107 129.426ZM116.646 129.588C120.69 133.551 125.462 134.279 130.719 132.661C132.661 132.014 134.278 130.72 135.411 129.103L131.771 126.514C131.609 126.676 131.528 126.757 131.447 126.919C127.888 131.206 122.227 129.588 119.881 126.595C119.072 125.544 118.506 124.33 118.182 122.955C117.859 121.661 117.778 120.286 118.021 118.911C118.263 116.889 119.234 115.029 120.771 113.654C123.197 111.47 128.05 110.418 131.205 113.896C131.286 113.977 131.366 114.058 131.447 114.058L134.844 111.551C133.955 110.418 132.822 109.529 131.528 108.882C129.183 107.749 126.513 107.426 124.006 107.83C122.388 107.992 120.851 108.558 119.476 109.367C118.101 110.176 116.888 111.227 115.918 112.521C114.057 115.11 113.168 118.264 113.41 121.419C113.329 124.492 114.543 127.404 116.646 129.588ZM107.506 138.647C106.939 139.132 106.616 139.86 106.535 140.588C106.454 141.316 106.616 142.044 107.101 142.691C107.344 143.015 107.667 143.257 108.072 143.5C108.476 143.662 108.881 143.823 109.285 143.823C109.689 143.904 110.094 143.823 110.498 143.662C110.903 143.5 111.226 143.257 111.469 142.934C111.55 144.39 111.307 145.198 110.498 145.522C109.932 145.765 109.366 145.846 108.8 145.684C108.234 145.522 107.667 145.198 107.344 144.794C107.101 145.037 106.859 145.279 106.697 145.603C107.182 146.088 107.748 146.412 108.395 146.574C109.042 146.735 109.689 146.735 110.337 146.574C110.822 146.493 111.307 146.25 111.631 145.926C112.035 145.603 112.278 145.118 112.359 144.632C112.44 144.228 112.52 143.823 112.52 143.419C112.52 141.801 112.52 140.265 112.52 138.647C112.52 138.485 112.52 138.323 112.52 138.242H111.631C111.631 138.485 111.631 138.728 111.55 139.051C111.065 138.485 110.417 138.162 109.609 138.081C108.8 138 108.072 138.242 107.506 138.647ZM111.469 140.912C111.469 141.154 111.469 141.478 111.307 141.72C111.226 141.963 111.065 142.206 110.903 142.368C110.741 142.529 110.498 142.691 110.256 142.853C110.013 142.934 109.77 143.015 109.447 143.015C108.962 143.015 108.476 142.772 108.072 142.448C107.748 142.044 107.506 141.559 107.506 141.073C107.506 140.831 107.506 140.588 107.586 140.345C107.667 140.103 107.829 139.86 107.991 139.698C108.153 139.537 108.395 139.375 108.638 139.294C108.881 139.213 109.123 139.132 109.366 139.132C109.609 139.132 109.851 139.213 110.094 139.294C110.337 139.375 110.579 139.537 110.741 139.698C110.903 139.86 111.065 140.103 111.145 140.345C111.388 140.345 111.469 140.588 111.469 140.912ZM80.5712 138.162H79.6815V146.412H80.5712V142.934C82.0271 144.147 83.483 144.228 84.6154 143.176C85.1007 142.691 85.4242 141.963 85.5051 141.235C85.586 140.507 85.3434 139.779 84.9389 139.213C84.5345 138.647 83.9683 138.323 83.3213 138.162C82.8359 138 82.3506 138.081 81.8653 138.162C81.38 138.242 80.9756 138.566 80.5712 138.97C80.5712 138.647 80.5712 138.404 80.5712 138.162ZM82.5933 138.89C82.8359 138.89 83.1595 138.97 83.4021 139.051C83.6448 139.132 83.8874 139.294 84.0492 139.537C84.211 139.698 84.3727 139.941 84.4536 140.184C84.5345 140.426 84.6154 140.669 84.5345 140.993C84.5345 141.235 84.5345 141.478 84.4536 141.72C84.3727 141.963 84.211 142.206 84.0492 142.368C83.8874 142.529 83.6448 142.691 83.4021 142.853C83.1595 142.934 82.9168 143.015 82.6742 143.015C82.4315 143.015 82.108 142.934 81.8653 142.853C81.6227 142.772 81.38 142.61 81.2183 142.448C81.0565 142.287 80.8947 142.044 80.8138 141.801C80.733 141.559 80.6521 141.316 80.6521 140.993C80.6521 140.75 80.6521 140.426 80.8138 140.184C80.8947 139.941 81.0565 139.698 81.2183 139.537C81.38 139.375 81.6227 139.213 81.8653 139.051C82.0271 138.97 82.2698 138.89 82.5933 138.89ZM95.6965 140.912C95.6965 141.316 95.7774 141.72 95.8583 142.044C96.0201 142.448 96.2627 142.772 96.5054 143.015C96.8289 143.257 97.1524 143.5 97.476 143.662C97.8804 143.823 98.2039 143.823 98.6084 143.823C99.0128 143.823 99.4172 143.823 99.7407 143.662C100.145 143.5 100.469 143.338 100.711 143.015C100.954 142.691 101.197 142.448 101.358 142.044C101.52 141.64 101.601 141.316 101.52 140.912C101.52 140.507 101.52 140.103 101.358 139.779C101.197 139.375 101.035 139.051 100.711 138.809C100.469 138.566 100.064 138.323 99.7407 138.162C99.3363 138 99.0128 138 98.6084 138C98.2039 138 97.7995 138 97.476 138.162C97.0716 138.323 96.748 138.485 96.5054 138.809C96.1818 139.051 96.0201 139.375 95.8583 139.779C95.7774 140.103 95.6965 140.507 95.6965 140.912ZM100.63 140.912C100.63 141.154 100.63 141.478 100.55 141.72C100.469 141.963 100.307 142.206 100.145 142.368C99.9834 142.529 99.7407 142.691 99.4981 142.853C99.2554 142.934 99.0128 143.015 98.6892 143.015C98.4466 143.015 98.2039 142.934 97.9613 142.853C97.7186 142.772 97.476 142.61 97.3142 142.448C97.1524 142.287 96.9907 142.044 96.9098 141.801C96.8289 141.559 96.748 141.316 96.748 141.073C96.748 140.831 96.748 140.507 96.8289 140.265C96.9098 140.022 97.0716 139.779 97.2333 139.617C97.3951 139.456 97.6377 139.294 97.8804 139.132C98.1231 139.051 98.3657 138.97 98.6892 138.97C98.9319 138.97 99.2554 139.051 99.4981 139.132C99.7407 139.213 99.9834 139.375 100.145 139.617C100.307 139.779 100.469 140.022 100.55 140.265C100.63 140.426 100.63 140.669 100.63 140.912ZM122.874 140.912C122.874 141.316 122.954 141.72 123.116 142.044C123.278 142.448 123.521 142.772 123.763 143.015C124.087 143.257 124.41 143.5 124.734 143.662C125.138 143.823 125.462 143.823 125.866 143.823C126.271 143.823 126.675 143.743 126.999 143.662C127.403 143.5 127.727 143.338 127.969 143.015C128.212 142.772 128.455 142.368 128.616 142.044C128.778 141.64 128.778 141.316 128.778 140.912C128.778 140.507 128.697 140.103 128.616 139.779C128.455 139.456 128.293 139.051 127.969 138.809C127.646 138.566 127.322 138.323 126.999 138.162C126.594 138 126.271 138 125.866 138C125.462 138 125.057 138 124.734 138.162C124.33 138.323 124.006 138.485 123.763 138.809C123.44 139.051 123.278 139.375 123.116 139.779C122.954 140.184 122.874 140.507 122.874 140.912ZM127.808 140.993C127.808 141.235 127.808 141.478 127.727 141.72C127.646 141.963 127.484 142.206 127.322 142.368C127.16 142.529 126.918 142.691 126.675 142.772C126.432 142.853 126.19 142.934 125.947 142.934C125.705 142.934 125.381 142.853 125.138 142.772C124.896 142.691 124.653 142.529 124.491 142.287C124.33 142.125 124.168 141.882 124.087 141.64C124.006 141.397 123.925 141.154 123.925 140.831C123.925 140.588 123.925 140.265 124.087 140.022C124.249 139.779 124.33 139.537 124.491 139.375C124.653 139.213 124.896 139.051 125.138 138.89C125.381 138.809 125.624 138.728 125.947 138.728C126.19 138.728 126.513 138.809 126.756 138.89C126.999 138.97 127.241 139.132 127.403 139.375C127.565 139.537 127.727 139.779 127.808 140.022C127.727 140.426 127.808 140.669 127.808 140.993ZM66.2547 143.743C66.74 143.904 67.2253 143.904 67.7106 143.743C68.1959 143.581 68.6003 143.338 68.9239 142.934C68.9239 143.257 69.0048 143.419 69.0048 143.581H69.8136C69.8136 142.448 69.8136 141.316 69.8136 140.184C69.8136 138.97 69.4092 138.323 68.6003 138.081C67.5488 137.757 65.8503 138 65.365 138.89C65.5267 139.051 65.6885 139.213 65.8503 139.375C67.7106 138.404 68.843 138.728 68.843 140.184C68.6003 140.184 68.2768 140.184 68.0342 140.184C67.3871 140.265 66.6591 140.345 66.012 140.588C65.6885 140.669 65.365 140.912 65.2032 141.235C65.0414 141.559 64.9605 141.963 65.0414 142.287C65.0414 142.61 65.2032 142.934 65.4458 143.176C65.6076 143.5 65.9312 143.662 66.2547 143.743ZM66.74 141.235C67.3871 141.154 68.115 141.073 68.7621 140.993C68.843 142.368 68.1959 143.176 66.9827 143.095C66.74 143.095 66.4973 143.015 66.3356 142.934C66.1738 142.772 66.012 142.61 66.012 142.368C66.012 142.287 66.012 142.125 66.012 142.044C66.012 141.963 66.0929 141.801 66.1738 141.72C66.2547 141.64 66.3356 141.559 66.4165 141.478C66.4974 141.316 66.6591 141.235 66.74 141.235ZM89.5493 140.265C88.9023 140.345 88.1743 140.426 87.5272 140.669C87.2037 140.75 86.8802 140.993 86.7184 141.316C86.5566 141.64 86.4757 141.963 86.5566 142.368C86.5566 142.691 86.7184 143.015 86.961 143.257C87.2037 143.5 87.4463 143.662 87.8508 143.743C88.3361 143.904 88.8214 143.904 89.3067 143.823C89.792 143.662 90.1964 143.419 90.5199 143.015C90.6008 143.257 90.6008 143.5 90.6817 143.662H91.4905C91.4905 142.448 91.4905 141.316 91.4905 140.103C91.4905 139.698 91.4906 139.375 91.2479 138.97C91.0052 138.566 90.7626 138.323 90.4391 138.162C89.8729 137.919 89.2258 137.838 88.6596 138C88.0125 138.081 87.4463 138.404 87.0419 138.809L87.5272 139.456C87.8508 139.132 88.2552 138.97 88.7405 138.89C89.2258 138.809 89.6302 138.89 90.0346 139.051C90.1964 139.132 90.3582 139.375 90.5199 139.537C90.6008 139.779 90.6008 139.941 90.6008 140.184C90.0346 140.265 89.792 140.265 89.5493 140.265ZM88.417 143.015C88.1743 143.015 88.0125 142.934 87.8508 142.772C87.689 142.61 87.6081 142.448 87.5272 142.206C87.4463 141.963 87.5272 141.801 87.6081 141.64C87.689 141.478 87.9316 141.316 88.0934 141.316C88.8214 141.154 89.5493 141.154 90.2773 140.993C90.439 142.448 89.6302 143.176 88.417 143.015ZM120.285 142.934C119.962 143.015 119.557 143.015 119.234 142.934C118.91 142.853 118.587 142.61 118.425 142.287C118.182 142.529 117.94 142.691 117.697 142.853C118.021 143.338 118.506 143.662 118.991 143.823C119.557 143.985 120.124 143.985 120.609 143.823C121.013 143.743 121.418 143.581 121.66 143.257C121.903 142.934 122.065 142.529 122.065 142.125C122.065 141.316 121.579 140.831 120.69 140.588C120.285 140.507 119.881 140.426 119.476 140.265C119.234 140.184 118.91 139.86 118.991 139.698C119.072 139.537 119.153 139.456 119.234 139.294C119.315 139.213 119.476 139.132 119.638 139.051C119.962 138.97 120.285 138.97 120.528 139.051C120.851 139.132 121.094 139.375 121.256 139.617C121.499 139.456 121.741 139.294 121.984 139.132C121.418 137.838 119.315 137.838 118.506 138.647C118.344 138.809 118.182 139.051 118.101 139.294C118.021 139.537 118.021 139.779 118.101 140.022C118.182 140.265 118.263 140.507 118.425 140.669C118.587 140.831 118.829 140.993 118.991 141.073C119.476 141.235 120.043 141.397 120.528 141.478C120.932 141.559 121.256 141.801 121.175 142.206C121.094 142.368 121.013 142.529 120.932 142.61C120.609 142.772 120.447 142.853 120.285 142.934ZM134.117 139.537C134.359 139.294 134.602 139.132 134.844 138.89C134.278 138.323 133.469 138 132.661 138C131.852 138 131.043 138.323 130.477 138.89C129.991 139.537 129.749 140.345 129.749 141.154C129.83 141.963 130.153 142.691 130.8 143.257C131.366 143.662 132.094 143.904 132.822 143.823C133.55 143.743 134.197 143.419 134.683 142.853C134.521 142.691 134.278 142.448 134.036 142.287C133.874 142.448 133.712 142.61 133.469 142.772C133.227 142.853 132.984 142.934 132.741 142.934C132.499 142.934 132.256 142.934 132.014 142.853C131.771 142.772 131.528 142.61 131.366 142.448C130.962 142.044 130.8 141.559 130.719 140.993C130.719 140.426 130.8 139.941 131.124 139.456C131.286 139.213 131.528 139.051 131.771 138.97C132.014 138.89 132.256 138.809 132.58 138.809C132.822 138.809 133.146 138.89 133.389 138.97C133.712 139.213 133.955 139.375 134.117 139.537ZM76.2034 138.97C76.527 138.89 76.8505 138.89 77.1741 138.97C77.4976 139.051 77.7402 139.294 77.9829 139.537C78.2255 139.294 78.4682 139.051 78.7109 138.89C78.1447 138.323 77.4167 138 76.6888 138C75.8799 138 75.152 138.242 74.5858 138.809C74.0196 139.375 73.7769 140.184 73.7769 140.993C73.7769 141.801 74.1005 142.529 74.6667 143.176C75.2328 143.662 75.9608 143.904 76.6888 143.904C77.4167 143.904 78.1447 143.581 78.7109 143.095L78.1447 142.368C77.0932 143.176 76.1226 143.257 75.3946 142.529C75.0711 142.125 74.8284 141.64 74.8284 141.154C74.8284 140.669 74.9093 140.103 75.2328 139.698C75.4755 139.294 75.8799 139.051 76.2034 138.97ZM117.454 135.088C117.131 135.007 116.969 134.926 116.646 134.764C115.432 137.838 114.3 140.831 113.087 143.823L113.895 144.147C115.109 141.154 116.241 138.162 117.454 135.088ZM104.028 140.184C104.028 140.022 104.108 139.779 104.189 139.617C104.27 139.456 104.432 139.294 104.594 139.213C104.756 139.132 104.917 139.051 105.16 138.97C105.322 138.89 105.564 138.89 105.726 138.97C105.807 138.97 105.969 138.97 106.05 138.97V138.081C105.645 138 105.241 138.081 104.836 138.162C104.432 138.323 104.108 138.566 103.866 138.89C103.785 138.566 103.785 138.404 103.785 138.242H102.976V143.743H103.866C103.866 143.338 103.866 142.934 103.866 142.61C103.947 141.801 103.947 140.993 104.028 140.184ZM71.5122 143.662H72.4019V138.162H71.5122V143.662ZM92.9465 143.015C92.9465 143.095 92.9465 143.176 92.9465 143.338C92.9465 143.419 93.0273 143.5 93.1082 143.581C93.1891 143.662 93.27 143.743 93.3509 143.743C93.4318 143.743 93.5127 143.823 93.5935 143.743C93.998 143.743 94.2406 143.5 94.3215 143.015C94.3215 142.934 94.3215 142.853 94.2406 142.772C94.2406 142.691 94.1597 142.61 94.0788 142.529C93.998 142.448 93.9171 142.448 93.8362 142.368C93.7553 142.368 93.6744 142.287 93.5935 142.368C93.5127 142.368 93.4318 142.368 93.3509 142.368C93.27 142.368 93.1891 142.448 93.1082 142.529C93.0273 142.61 93.0273 142.691 92.9465 142.772C92.9465 142.853 92.9465 142.934 92.9465 143.015ZM72.5637 136.059C72.5637 135.573 72.321 135.331 71.9166 135.331C71.8357 135.331 71.7548 135.331 71.6739 135.331C71.593 135.331 71.5122 135.412 71.4313 135.492C71.3504 135.573 71.3504 135.654 71.2695 135.735C71.1886 135.816 71.1886 135.897 71.1886 135.978C71.1886 136.059 71.1886 136.139 71.1886 136.22C71.1886 136.301 71.2695 136.382 71.3504 136.463C71.4313 136.544 71.5122 136.544 71.593 136.625C71.6739 136.625 71.7548 136.706 71.8357 136.706C71.9166 136.706 71.9975 136.706 72.0783 136.706C72.1592 136.706 72.2401 136.625 72.321 136.544C72.4019 136.463 72.4019 136.382 72.4828 136.301C72.5637 136.22 72.5637 136.139 72.5637 136.059ZM216.537 120.771V122.632H430.152V120.771H216.537ZM216.537 175.207H430.152V173.346H216.537V175.207Z" fill="#242021"/>
<path d="M198.5 99.2569V84.4551H0.900391V99.2569H198.5Z" fill="#818486"/>
</svg>
