<svg width="927" height="227" viewBox="0 0 927 227" fill="none" xmlns="http://www.w3.org/2000/svg">
<path d="M290.872 145.308C284.882 145.308 279.479 143.876 274.727 141.076C269.975 138.212 266.199 134.371 263.465 129.423C260.731 124.541 259.298 119.007 259.298 112.822C259.298 106.572 260.731 101.039 263.595 96.0911C266.459 91.2084 270.3 87.3025 275.248 84.4378C280.13 81.5732 285.664 80.2061 291.848 80.2061C297.968 80.2061 303.501 81.6386 308.384 84.4378C313.266 87.3025 317.107 91.1435 319.971 96.0911C322.836 100.974 324.268 106.572 324.333 112.822L320.687 115.621C320.687 121.22 319.386 126.298 316.782 130.725C314.178 135.217 310.597 138.733 306.17 141.337C301.613 144.006 296.535 145.308 290.872 145.308ZM291.783 137.105C296.275 137.105 300.311 136.064 303.891 133.98C307.407 131.897 310.206 128.967 312.289 125.257C314.373 121.546 315.414 117.379 315.414 112.822C315.414 108.135 314.373 103.968 312.289 100.323C310.206 96.6771 307.407 93.7475 303.891 91.5992C300.376 89.4508 296.34 88.4091 291.783 88.4091C287.356 88.4091 283.32 89.4508 279.74 91.5992C276.159 93.7475 273.295 96.6117 271.212 100.323C269.128 103.968 268.087 108.135 268.087 112.822C268.087 117.444 269.128 121.546 271.212 125.257C273.295 128.967 276.159 131.832 279.74 133.98C283.385 136.064 287.356 137.105 291.783 137.105ZM319.711 144.722C318.409 144.722 317.302 144.332 316.456 143.485C315.61 142.639 315.154 141.597 315.154 140.295V120.309L317.367 111.065L324.268 112.822V140.295C324.268 141.597 323.812 142.704 322.966 143.485C322.119 144.332 321.078 144.722 319.711 144.722Z" fill="#04293E"/>
<path d="M338.462 144.722C337.03 144.722 335.923 144.331 335.141 143.485C334.295 142.639 333.905 141.597 333.905 140.295V85.3489C333.905 83.9168 334.295 82.8097 335.141 82.0285C335.988 81.1824 337.094 80.7916 338.462 80.7916C339.764 80.7916 340.87 81.1824 341.652 82.0285C342.498 82.8751 342.888 83.9817 342.888 85.3489V140.23C342.888 141.532 342.498 142.639 341.652 143.42C340.805 144.331 339.764 144.722 338.462 144.722ZM388.654 144.722C387.351 144.722 386.245 144.266 385.398 143.42C384.552 142.574 384.097 141.532 384.097 140.295V109.892C384.097 105.075 383.185 101.104 381.362 97.9789C379.539 94.8537 377.066 92.5102 373.876 90.9478C370.751 89.3851 367.17 88.6039 363.2 88.6039C359.358 88.6039 355.908 89.3201 352.849 90.8176C349.789 92.315 347.315 94.3331 345.557 96.8718C343.735 99.411 342.888 102.341 342.888 105.661H336.444C336.574 100.778 337.941 96.3512 340.415 92.5102C342.888 88.6692 346.209 85.6094 350.375 83.3957C354.476 81.1824 359.098 80.0758 364.176 80.0758C369.709 80.0758 374.657 81.2474 379.019 83.526C383.38 85.8046 386.831 89.1899 389.369 93.6168C391.908 98.0438 393.145 103.447 393.145 109.827V140.23C393.145 141.467 392.69 142.508 391.844 143.355C390.997 144.266 389.89 144.722 388.654 144.722Z" fill="#04293E"/>
<path d="M435.328 145.308C429.014 145.308 423.415 143.941 418.533 141.142C413.65 138.407 409.875 134.566 407.075 129.619C404.341 124.736 402.909 119.072 402.909 112.822C402.909 106.442 404.211 100.778 406.815 95.9608C409.419 91.0781 412.999 87.2371 417.621 84.4378C422.243 81.6386 427.517 80.2061 433.506 80.2061C439.43 80.2061 444.572 81.5732 448.999 84.2427C453.426 86.9117 456.811 90.6224 459.22 95.3748C461.629 100.127 462.866 105.531 462.866 111.585C462.866 112.822 462.475 113.799 461.694 114.58C460.913 115.296 459.871 115.687 458.634 115.687H408.963V108.265H459.546L454.533 111.911C454.598 107.419 453.817 103.317 452.059 99.7369C450.366 96.156 447.893 93.3567 444.768 91.3386C441.643 89.3205 437.868 88.2788 433.506 88.2788C429.079 88.2788 425.173 89.3205 421.853 91.4036C418.533 93.487 415.929 96.4165 414.106 100.127C412.283 103.838 411.372 108.07 411.372 112.822C411.372 117.575 412.413 121.806 414.497 125.452C416.58 129.098 419.379 131.962 422.959 134.111C426.54 136.194 430.641 137.235 435.328 137.235C438.128 137.235 440.927 136.78 443.791 135.803C446.656 134.827 448.934 133.59 450.627 132.092C451.473 131.376 452.45 131.051 453.556 130.986C454.663 130.92 455.574 131.246 456.356 131.832C457.397 132.743 457.918 133.785 457.918 134.892C457.983 135.998 457.527 136.91 456.551 137.691C454.012 139.905 450.692 141.662 446.721 143.095C442.815 144.592 438.974 145.308 435.328 145.308Z" fill="#04293E"/>
<path d="M504.139 145.308C497.955 145.308 492.486 143.876 487.734 141.076C482.917 138.212 479.141 134.371 476.407 129.423C473.673 124.541 472.24 119.007 472.24 112.822C472.24 106.572 473.542 101.039 476.212 96.0911C478.88 91.2084 482.461 87.3025 487.083 84.4378C491.705 81.5732 496.978 80.2061 502.967 80.2061C507.721 80.2061 512.083 81.1175 516.118 83.0058C520.153 84.8936 523.671 87.6928 526.662 91.4036C527.511 92.315 527.837 93.3567 527.574 94.3984C527.315 95.4401 526.662 96.3516 525.559 97.1328C524.71 97.7837 523.734 97.9789 522.695 97.7837C521.651 97.5885 520.739 97.0025 519.958 96.0911C515.464 90.9478 509.736 88.4091 502.902 88.4091C498.54 88.4091 494.7 89.4508 491.38 91.5338C488.06 93.6173 485.521 96.5468 483.698 100.193C481.875 103.838 480.964 108.07 480.964 112.822C480.964 117.51 481.94 121.676 483.893 125.322C485.846 128.967 488.58 131.832 492.096 133.98C495.611 136.064 499.582 137.105 504.139 137.105C507.199 137.105 509.931 136.715 512.473 135.868C515.01 135.022 517.225 133.785 519.177 132.092C520.089 131.311 521.065 130.856 522.105 130.79C523.149 130.725 524.061 131.051 524.905 131.702C525.818 132.548 526.34 133.525 526.467 134.631C526.598 135.738 526.208 136.65 525.364 137.431C519.699 142.704 512.6 145.308 504.139 145.308Z" fill="#04293E"/>
<path d="M569.632 145.308C563.445 145.308 557.976 143.876 553.029 141.077C548.149 138.212 544.241 134.372 541.377 129.423C538.513 124.541 537.079 118.942 537.079 112.692C537.079 106.573 538.449 101.039 541.245 96.0915C543.982 91.2088 547.754 87.3029 552.507 84.4383C557.259 81.5737 562.665 80.2065 568.652 80.2065C573.862 80.2065 578.614 81.3131 582.781 83.5268C587.011 85.7401 590.397 88.6697 592.935 92.3155V58.0067C592.935 56.5746 593.393 55.468 594.237 54.6868C595.082 53.8403 596.189 53.4499 597.492 53.4499C598.795 53.4499 599.902 53.8403 600.746 54.6868C601.595 55.5329 602.049 56.6395 602.049 58.0067V113.148C601.917 119.203 600.424 124.671 597.556 129.554C594.691 134.436 590.851 138.277 585.972 141.077C581.22 143.876 575.75 145.308 569.632 145.308ZM569.632 137.105C574.121 137.105 578.156 136.064 581.737 133.916C585.255 131.767 588.051 128.903 590.134 125.192C592.218 121.546 593.262 117.38 593.262 112.692C593.262 108.07 592.218 103.969 590.134 100.258C588.051 96.5472 585.255 93.6826 581.737 91.5343C578.224 89.4513 574.189 88.4095 569.632 88.4095C565.202 88.4095 561.167 89.4513 557.586 91.5343C554.004 93.6177 551.14 96.5472 549.057 100.258C546.974 103.969 545.934 108.135 545.934 112.692C545.934 117.38 546.974 121.546 549.057 125.192C551.14 128.838 554.004 131.767 557.586 133.916C561.23 136.064 565.202 137.105 569.632 137.105Z" fill="#04293E"/>
<path d="M644.298 145.308C638.047 145.308 632.515 143.876 627.567 141.076C622.687 138.277 618.78 134.436 615.979 129.488C613.183 124.606 611.749 119.007 611.749 112.757C611.749 106.442 613.183 100.844 615.979 95.9608C618.78 91.0781 622.62 87.1718 627.567 84.3725C632.451 81.5733 638.047 80.1407 644.298 80.1407C650.548 80.1407 656.081 81.5733 660.964 84.3725C665.848 87.1718 669.688 91.0128 672.489 95.9608C675.285 100.908 676.719 106.507 676.783 112.757C676.783 119.007 675.353 124.54 672.552 129.488C669.688 134.371 665.848 138.277 660.964 141.076C656.081 143.876 650.548 145.308 644.298 145.308ZM644.298 137.105C648.791 137.105 652.89 136.063 656.471 133.98C660.052 131.897 662.853 128.967 664.868 125.322C666.888 121.676 667.932 117.509 667.932 112.822C667.932 108.135 666.888 103.968 664.868 100.258C662.853 96.5464 660.052 93.6822 656.471 91.5339C652.89 89.4504 648.855 88.4087 644.298 88.4087C639.808 88.4087 635.705 89.4504 632.124 91.5339C628.543 93.6169 625.747 96.5464 623.663 100.258C621.58 103.968 620.536 108.135 620.536 112.822C620.536 117.509 621.58 121.676 623.663 125.322C625.747 128.967 628.543 131.832 632.124 133.98C635.769 136.063 639.808 137.105 644.298 137.105Z" fill="#04293E"/>
<path d="M692.079 91.0132C690.908 91.0132 689.932 90.6228 689.151 89.9066C688.371 89.1903 687.98 88.2789 687.98 87.1722C687.98 86.0002 688.371 85.0239 689.151 84.3076C689.932 83.5918 690.908 83.201 692.079 83.201H711.156C712.327 83.201 713.303 83.5918 714.084 84.3076C714.865 85.0239 715.255 86.0002 715.255 87.1722C715.255 88.2789 714.865 89.1903 714.084 89.9066C713.303 90.6228 712.327 91.0132 711.156 91.0132H692.079ZM708.16 144.722C704.057 144.722 700.349 143.746 697.094 141.793C693.84 139.84 691.298 137.171 689.41 133.785C687.522 130.4 686.614 126.559 686.614 122.197V57.8765C686.614 56.5742 687.004 55.4676 687.849 54.6215C688.693 53.7749 689.737 53.3192 691.04 53.3192C692.342 53.3192 693.445 53.7749 694.294 54.6215C695.138 55.4676 695.597 56.5742 695.597 57.8765V122.197C695.597 126.168 696.768 129.423 699.11 131.963C701.456 134.501 704.448 135.738 708.097 135.738H711.22C712.459 135.738 713.498 136.194 714.279 137.041C715.06 137.887 715.45 138.993 715.45 140.296C715.45 141.597 714.996 142.704 714.02 143.486C713.108 144.332 711.937 144.722 710.503 144.722H708.16Z" fill="#04293E"/>
<path d="M756.981 145.308C750.668 145.308 745.071 143.941 740.187 141.142C735.303 138.407 731.531 134.566 728.731 129.619C725.994 124.736 724.564 119.072 724.564 112.822C724.564 106.442 725.867 100.778 728.468 95.9608C731.073 91.0781 734.654 87.2371 739.275 84.4378C743.9 81.6386 749.17 80.2061 755.161 80.2061C761.085 80.2061 766.227 81.5732 770.653 84.2427C775.082 86.9117 778.464 90.6224 780.874 95.3748C783.284 100.127 784.519 105.531 784.519 111.585C784.519 112.822 784.129 113.799 783.348 114.58C782.567 115.296 781.528 115.687 780.289 115.687H730.619V108.265H781.201L776.186 111.911C776.254 107.419 775.473 103.317 773.712 99.7369C772.023 96.156 769.549 93.3567 766.422 91.3386C763.299 89.3205 759.523 88.2788 755.161 88.2788C750.736 88.2788 746.828 89.3205 743.51 91.4036C740.187 93.487 737.582 96.4165 735.762 100.127C733.937 103.838 733.025 108.07 733.025 112.822C733.025 117.575 734.069 121.806 736.152 125.452C738.235 129.098 741.036 131.962 744.613 134.111C748.194 136.194 752.297 137.235 756.981 137.235C759.782 137.235 762.582 136.78 765.446 135.803C768.31 134.827 770.589 133.59 772.282 132.092C773.126 131.376 774.107 131.051 775.21 130.986C776.317 130.92 777.229 131.246 778.01 131.832C779.054 132.743 779.572 133.785 779.572 134.892C779.64 135.998 779.181 136.91 778.205 137.691C775.668 139.905 772.346 141.662 768.374 143.095C764.47 144.592 760.631 145.308 756.981 145.308Z" fill="#04293E"/>
<path d="M817.395 145.308C812.774 145.308 808.217 144.527 803.728 142.964C799.234 141.402 795.521 139.058 792.725 135.933C791.877 135.022 791.486 133.915 791.681 132.808C791.813 131.637 792.399 130.66 793.438 129.748C794.546 128.967 795.653 128.642 796.824 128.837C797.995 128.967 798.975 129.488 799.756 130.334C801.644 132.548 804.118 134.175 807.177 135.347C810.237 136.519 813.686 137.105 817.395 137.105C823.191 137.105 827.357 136.129 829.895 134.111C832.436 132.092 833.803 129.748 833.866 126.949C833.866 124.15 832.564 121.806 829.895 119.983C827.226 118.161 822.864 116.729 816.809 115.752C808.934 114.515 803.206 112.302 799.493 109.242C795.848 106.117 794.024 102.406 794.024 98.1741C794.024 94.2032 795.067 90.8829 797.151 88.2135C799.234 85.5445 802.035 83.5913 805.548 82.2241C809.065 80.9223 812.905 80.2061 817.136 80.2061C822.342 80.2061 826.836 81.1175 830.612 82.8755C834.388 84.6984 837.447 87.1068 839.79 90.1017C840.57 91.1434 840.897 92.1847 840.702 93.2264C840.57 94.3331 839.921 95.2445 838.814 95.8959C837.902 96.4165 836.798 96.6117 835.623 96.4165C834.388 96.2213 833.412 95.6353 832.5 94.7239C830.548 92.4453 828.27 90.8176 825.728 89.7763C823.191 88.7346 820.195 88.2135 816.877 88.2135C812.579 88.2135 809.193 89.06 806.592 90.8176C804.05 92.5755 802.747 94.7888 802.747 97.3929C802.747 99.2158 803.206 100.713 804.182 102.08C805.158 103.382 806.851 104.554 809.193 105.596C811.539 106.638 814.921 107.484 819.156 108.135C825.015 109.046 829.636 110.479 833.022 112.302C836.404 114.124 838.814 116.273 840.248 118.747C841.678 121.22 842.395 123.889 842.395 126.754C842.395 130.4 841.351 133.655 839.204 136.389C837.057 139.123 834.125 141.337 830.353 142.899C826.64 144.527 822.278 145.308 817.395 145.308Z" fill="#04293E"/>
<path d="M137.771 54.5434C119.612 58.7039 109.123 70.6843 102.467 78.3603C95.3047 86.5387 86.551 96.3669 85.1765 111.575C84.1636 123.412 87.5639 135.679 94.0025 145.579C108.399 167.746 136.179 175.71 161.5 171.907C174.233 169.97 188.05 165.02 196.66 155.049C208.307 141.634 208.452 125.636 208.524 119.108C208.669 94.9319 194.995 65.3755 168.734 55.978C154.338 50.8844 141.388 53.6824 137.771 54.5434Z" fill="#00DCE8"/>
<path d="M183.153 69.9659C186.756 100.413 191.991 130.522 199.266 160.291C201.374 168.903 211.64 174.87 220.206 172.158C229.181 169.242 234.348 160.562 232.104 151.272C228.705 137.371 225.713 123.334 223.13 109.229C221.838 102.312 220.682 95.3273 219.662 88.3429C219.39 86.5799 219.118 84.8843 218.915 83.1212C218.778 82.2399 218.643 81.3581 218.574 80.4768C218.506 80.0699 218.099 77.086 218.439 79.4597C218.778 81.8329 218.371 78.8491 218.303 78.4422C218.167 77.5608 218.099 76.6791 217.962 75.7978C217.69 73.831 217.487 71.8647 217.215 69.898C216.671 65.2189 215.719 61.3538 212.252 57.8955C209.192 55.0475 204.365 52.8096 200.15 53.0128C191.787 53.4198 181.997 60.5399 183.153 69.9659Z" fill="#FFA84F"/>
<path fill-rule="evenodd" clip-rule="evenodd" d="M183.736 64.4382C183.144 66.1554 182.913 68.011 183.153 69.9658C186.494 98.1991 191.239 126.14 197.711 153.791C208.283 140.686 208.451 125.521 208.522 119.163L208.522 119.108C208.636 100.061 200.174 77.6754 183.736 64.4382Z" fill="#FF3499"/>
</svg>
