<svg width="151" height="42" viewBox="0 0 151 42" fill="none" xmlns="http://www.w3.org/2000/svg">
<path fill-rule="evenodd" clip-rule="evenodd" d="M65.7369 5.7567C64.7454 3.41611 63.5283 1.62868 63.0476 0.90625C62.565 1.62868 61.3479 3.41611 60.3574 5.7567C61.3277 6.80055 62.2849 8.02878 63.0476 9.42326C63.8084 8.02878 64.7686 6.80055 65.7369 5.7567Z" fill="#009900"/>
<path fill-rule="evenodd" clip-rule="evenodd" d="M60.3574 36.2457C61.3469 38.5863 62.565 40.3717 63.0476 41.0951C63.5283 40.3717 64.7464 38.5873 65.7369 36.2457C64.7686 35.2018 63.8084 33.9716 63.0476 32.5781C62.2849 33.9726 61.3277 35.2018 60.3574 36.2457Z" fill="#009900"/>
<path fill-rule="evenodd" clip-rule="evenodd" d="M60.3575 5.75553C58.6306 3.89253 56.8744 2.63206 56.1751 2.11719C55.9686 2.95952 55.4376 5.05527 55.3086 7.59435C56.5741 8.24323 57.896 9.07145 59.088 10.1173C59.3278 8.54751 59.8054 7.06537 60.3575 5.75553Z" fill="#009900"/>
<path fill-rule="evenodd" clip-rule="evenodd" d="M65.7363 36.2466C67.4623 38.1096 69.2195 39.3701 69.9198 39.8829C70.1243 39.0406 70.6583 36.9459 70.7853 34.4088C69.5198 33.7599 68.1978 32.9287 67.0069 31.8828C66.7681 33.4526 66.2875 34.9347 65.7363 36.2466Z" fill="#009900"/>
<path fill-rule="evenodd" clip-rule="evenodd" d="M55.3077 7.59542C53.0457 6.43772 50.9641 5.85232 50.1318 5.60547C50.2255 6.47097 50.4412 8.62214 51.1898 11.0514C52.6014 11.2257 54.1259 11.5522 55.605 12.1305C55.2916 10.5738 55.2342 9.01509 55.3077 7.59542Z" fill="#009900"/>
<path fill-rule="evenodd" clip-rule="evenodd" d="M70.7855 34.4092C73.0475 35.5659 75.1282 36.1513 75.9625 36.3951C75.8687 35.5326 75.6511 33.3805 74.9025 30.9522C73.4909 30.7769 71.9684 30.4474 70.4873 29.8711C70.8007 31.4318 70.8591 32.9865 70.7855 34.4092Z" fill="#009900"/>
<path fill-rule="evenodd" clip-rule="evenodd" d="M53.0199 15.2132C52.1947 13.856 51.6093 12.4102 51.1902 11.053C48.6682 10.7366 46.513 10.8988 45.6455 10.9552C46.0294 11.7321 46.9685 13.6797 48.499 15.7079C49.8874 15.3895 51.433 15.178 53.0199 15.2132Z" fill="#009900"/>
<path fill-rule="evenodd" clip-rule="evenodd" d="M73.0723 26.7887C73.8985 28.1469 74.4879 29.5918 74.902 30.951C77.426 31.2653 79.5812 31.1041 80.4487 31.0507C80.0638 30.2688 79.1258 28.3212 77.5922 26.293C76.2058 26.6114 74.6622 26.825 73.0723 26.7887Z" fill="#009900"/>
<path fill-rule="evenodd" clip-rule="evenodd" d="M48.4982 15.707C46.0226 16.2733 44.0528 17.161 43.2578 17.5126C43.8855 18.1111 45.4342 19.6204 47.5672 21.0018C48.7602 20.231 50.1385 19.4985 51.6448 18.9917C50.4035 17.9972 49.3587 16.8385 48.4982 15.707Z" fill="#009900"/>
<path fill-rule="evenodd" clip-rule="evenodd" d="M78.5268 21C77.3329 21.7738 75.9545 22.5033 74.4502 23.0111C75.6895 24.0036 76.7364 25.1593 77.5948 26.2918C80.0724 25.7265 82.0423 24.8388 82.8382 24.4892C82.2095 23.8907 80.6609 22.3784 78.5268 21Z" fill="#009900"/>
<path fill-rule="evenodd" clip-rule="evenodd" d="M51.6448 23.0111C50.1385 22.5033 48.7602 21.7728 47.5672 21C45.4342 22.3784 43.8855 23.8907 43.2578 24.4902C44.0528 24.8399 46.0226 25.7275 48.4982 26.2928C49.3597 25.1603 50.4045 24.0036 51.6448 23.0111Z" fill="#009900"/>
<path fill-rule="evenodd" clip-rule="evenodd" d="M74.4502 18.9878C75.9545 19.4946 77.3329 20.2271 78.5268 20.9979C80.6609 19.6175 82.2105 18.1072 82.8382 17.5087C82.0423 17.1581 80.0735 16.2694 77.5948 15.7031C76.7354 16.8366 75.6895 17.9954 74.4502 18.9878Z" fill="#009900"/>
<path fill-rule="evenodd" clip-rule="evenodd" d="M48.499 26.293C46.9685 28.3212 46.0294 30.2688 45.6455 31.0507C46.513 31.1051 48.6682 31.2653 51.1902 30.951C51.6093 29.5918 52.1947 28.1469 53.0199 26.7887C51.433 26.825 49.8874 26.6114 48.499 26.293Z" fill="#009900"/>
<path fill-rule="evenodd" clip-rule="evenodd" d="M77.5942 15.7082C79.1267 13.681 80.0658 11.7334 80.4507 10.9525C79.5831 10.8991 77.4279 10.7369 74.904 11.0532C74.4889 12.4104 73.9004 13.8563 73.0742 15.2135C74.6632 15.1782 76.2068 15.3898 77.5942 15.7082Z" fill="#009900"/>
<path fill-rule="evenodd" clip-rule="evenodd" d="M55.605 29.8711C54.1259 30.4474 52.6014 30.7759 51.1898 30.9522C50.4412 33.3805 50.2255 35.5326 50.1318 36.3951C50.9641 36.1513 53.0457 35.5659 55.3077 34.4092C55.2352 32.9855 55.2926 31.4308 55.605 29.8711Z" fill="#009900"/>
<path fill-rule="evenodd" clip-rule="evenodd" d="M70.4873 12.1305C71.9684 11.5512 73.4909 11.2257 74.9025 11.0514C75.6511 8.62113 75.8687 6.46997 75.9625 5.60547C75.1282 5.85031 73.0475 6.43571 70.7855 7.59341C70.8581 9.01509 70.7997 10.5708 70.4873 12.1305Z" fill="#009900"/>
<path fill-rule="evenodd" clip-rule="evenodd" d="M55.3086 34.4088C55.4366 36.9459 55.9686 39.0406 56.1751 39.8829C56.8744 39.3701 58.6306 38.1096 60.3575 36.2466C59.8054 34.9347 59.3268 33.4516 59.088 31.8828C57.896 32.9287 56.5741 33.7609 55.3086 34.4088Z" fill="#009900"/>
<path fill-rule="evenodd" clip-rule="evenodd" d="M70.7853 7.59133C70.6583 5.05426 70.1243 2.95851 69.9198 2.11719C69.2195 2.63105 67.4623 3.89152 65.7363 5.75553C66.2875 7.06336 66.7671 8.54751 67.0069 10.1173C68.1978 9.07145 69.5208 8.24222 70.7853 7.59133Z" fill="#009900"/>
<path fill-rule="evenodd" clip-rule="evenodd" d="M61.6693 13.1868C61.9232 11.8286 62.4179 10.5691 63.0467 9.42046C62.2839 8.02699 61.3278 6.79876 60.3565 5.75391C59.8043 7.06476 59.3257 8.54589 59.0869 10.1157C60.0713 10.9842 60.9681 11.9978 61.6693 13.1868Z" fill="#99CC00"/>
<path fill-rule="evenodd" clip-rule="evenodd" d="M64.4242 28.8086C64.1683 30.1678 63.6766 31.4273 63.0469 32.5749C63.8076 33.9684 64.7678 35.1976 65.7361 36.2425C66.2872 34.9306 66.7668 33.4475 67.0066 31.8787C66.0222 31.0122 65.1245 29.9985 64.4242 28.8086Z" fill="#99CC00"/>
<path fill-rule="evenodd" clip-rule="evenodd" d="M55.6042 12.1298C56.8234 12.6064 58.0123 13.2523 59.0803 14.1279C58.8546 12.7666 58.8889 11.4135 59.0874 10.1167C57.8954 9.07085 56.5735 8.24363 55.308 7.59375C55.2344 9.01443 55.2918 10.5731 55.6042 12.1298Z" fill="#99CC00"/>
<path fill-rule="evenodd" clip-rule="evenodd" d="M70.487 29.8662C69.2679 29.3906 68.0809 28.7418 67.0139 27.8672C67.2386 29.2294 67.2033 30.5806 67.0059 31.8783C68.1968 32.9242 69.5198 33.7554 70.7843 34.4043C70.8578 32.9806 70.7994 31.4259 70.487 29.8662Z" fill="#99CC00"/>
<path fill-rule="evenodd" clip-rule="evenodd" d="M56.9719 15.9002C56.2918 14.6982 55.8636 13.4145 55.6046 12.1299C54.1255 11.5515 52.6011 11.2251 51.1895 11.0508C51.6086 12.408 52.194 13.8538 53.0192 15.211C54.328 15.2403 55.6691 15.4428 56.9719 15.9002Z" fill="#99CC00"/>
<path fill-rule="evenodd" clip-rule="evenodd" d="M69.123 26.0977C69.8001 27.3007 70.2304 28.5823 70.4873 29.868C71.9684 30.4443 73.4909 30.7738 74.9025 30.9491C74.4874 29.5899 73.8989 28.145 73.0727 26.7868C71.7629 26.7586 70.4248 26.5571 69.123 26.0977Z" fill="#99CC00"/>
<path fill-rule="evenodd" clip-rule="evenodd" d="M51.6437 18.9885C52.883 18.5683 54.211 18.3003 55.5924 18.2852C54.5435 17.3874 53.6981 16.3295 53.019 15.2111C51.4321 15.1748 49.8865 15.3864 48.498 15.7048C49.3585 16.8373 50.4034 17.996 51.6437 18.9885Z" fill="#99CC00"/>
<path fill-rule="evenodd" clip-rule="evenodd" d="M74.4487 23.0078C73.2084 23.426 71.8814 23.694 70.5 23.7091C71.5489 24.6078 72.3932 25.6678 73.0723 26.7852C74.6623 26.8215 76.2059 26.6079 77.5933 26.2895C76.7338 25.156 75.688 24.0003 74.4487 23.0078Z" fill="#99CC00"/>
<path fill-rule="evenodd" clip-rule="evenodd" d="M55.1131 20.9984C53.8214 20.5137 52.6667 19.8054 51.644 18.9883C50.1377 19.4951 48.7594 20.2276 47.5664 20.9984C48.7594 21.7722 50.1377 22.5017 51.644 23.0095C52.6667 22.1893 53.8214 21.483 55.1131 20.9984Z" fill="#99CC00"/>
<path fill-rule="evenodd" clip-rule="evenodd" d="M70.9785 20.9984C72.2732 21.484 73.4259 22.1893 74.4486 23.0095C75.9529 22.5017 77.3313 21.7712 78.5252 20.9984C77.3313 20.2276 75.9529 19.4951 74.4486 18.9883C73.4259 19.8054 72.2722 20.5137 70.9785 20.9984Z" fill="#99CC00"/>
<path fill-rule="evenodd" clip-rule="evenodd" d="M53.019 26.7852C53.6981 25.6678 54.5435 24.6088 55.5924 23.7091C54.211 23.694 52.883 23.428 51.6437 23.0078C50.4034 24.0003 49.3585 25.157 48.498 26.2885C49.8865 26.6079 51.4321 26.8215 53.019 26.7852Z" fill="#99CC00"/>
<path fill-rule="evenodd" clip-rule="evenodd" d="M73.0723 15.2109C72.3932 16.3303 71.5489 17.3872 70.5 18.285C71.8814 18.2991 73.2084 18.5681 74.4487 18.9882C75.688 17.9958 76.7349 16.8371 77.5933 15.7046C76.2059 15.3872 74.6623 15.1756 73.0723 15.2109Z" fill="#99CC00"/>
<path fill-rule="evenodd" clip-rule="evenodd" d="M56.9709 26.0977C55.6681 26.5571 54.327 26.7576 53.0192 26.7868C52.194 28.145 51.6086 29.5899 51.1895 30.9491C52.6011 30.7728 54.1255 30.4443 55.6046 29.868C55.8626 28.5833 56.2908 27.3017 56.9709 26.0977Z" fill="#99CC00"/>
<path fill-rule="evenodd" clip-rule="evenodd" d="M69.123 15.9002C70.4248 15.4428 71.7629 15.2403 73.0717 15.211C73.8979 13.8538 74.4874 12.408 74.9015 11.0508C73.4899 11.2251 71.9674 11.5505 70.4863 12.1299C70.2314 13.4156 69.8001 14.6982 69.123 15.9002Z" fill="#99CC00"/>
<path fill-rule="evenodd" clip-rule="evenodd" d="M61.6693 28.8086C60.9681 29.9975 60.0713 31.0122 59.0869 31.8787C59.3267 33.4475 59.8053 34.9306 60.3565 36.2425C61.3267 35.1986 62.2839 33.9684 63.0467 32.5749C62.4169 31.4273 61.9232 30.1678 61.6693 28.8086Z" fill="#99CC00"/>
<path fill-rule="evenodd" clip-rule="evenodd" d="M59.0803 27.8672C58.0133 28.7428 56.8244 29.3906 55.6042 29.8662C55.2918 31.4259 55.2344 32.9816 55.308 34.4043C56.5735 33.7554 57.8954 32.9242 59.0874 31.8783C58.8889 30.5806 58.8546 29.2284 59.0803 27.8672Z" fill="#99CC00"/>
<path fill-rule="evenodd" clip-rule="evenodd" d="M64.4242 13.1868C65.1245 11.9978 66.0222 10.9822 67.0066 10.1157C66.7678 8.54589 66.2872 7.06173 65.7361 5.75391C64.7678 6.79775 63.8076 8.02598 63.0469 9.42046C63.6766 10.5691 64.1683 11.8286 64.4242 13.1868Z" fill="#99CC00"/>
<path fill-rule="evenodd" clip-rule="evenodd" d="M67.0149 14.126C68.0819 13.2504 69.2688 12.6045 70.488 12.1279C70.8013 10.5682 70.8598 9.01153 70.7862 7.58984C69.5207 8.23973 68.1988 9.06896 67.0078 10.1148C67.2043 11.4116 67.2396 12.7647 67.0149 14.126Z" fill="#99CC00"/>
<path fill-rule="evenodd" clip-rule="evenodd" d="M61.6736 17.2329C60.9653 15.9684 60.0756 14.9487 59.0791 14.1296C59.2897 15.4032 59.728 16.6818 60.4675 17.9281C59.3693 16.983 58.1864 16.3291 56.9702 15.9009C57.6 17.0233 58.4504 18.0772 59.5748 18.9951C58.2166 18.4813 56.8806 18.2717 55.5929 18.2868C56.5712 19.1271 57.7269 19.8224 59.0972 20.304C57.6473 20.2848 56.3214 20.5458 55.1133 20.9992C56.3214 21.4526 57.6473 21.7136 59.0972 21.6954C57.7279 22.175 56.5712 22.8733 55.5929 23.7116C56.8806 23.7257 58.2166 23.5181 59.5748 23.0043C58.4514 23.9212 57.6 24.9731 56.9702 26.0975C58.1864 25.6703 59.3693 25.0144 60.4675 24.0703C59.728 25.3167 59.2897 26.5953 59.0791 27.8688C60.0756 27.0497 60.9653 26.031 61.6736 24.7685C61.4046 26.1912 61.4328 27.5434 61.6685 28.8099C62.3255 27.6986 62.8101 26.4381 63.0459 25.0093C63.2817 26.4381 63.7663 27.6986 64.4232 28.8099C64.661 27.5434 64.6852 26.1912 64.4172 24.7685C65.1255 26.031 66.0142 27.0497 67.0127 27.8688C66.8021 26.5953 66.3618 25.3167 65.6213 24.0703C66.7215 25.0144 67.9054 25.6703 69.1226 26.0975C68.4888 24.9731 67.6394 23.9222 66.518 23.0043C67.8752 23.5181 69.2092 23.7257 70.4989 23.7116C69.5195 22.8723 68.3618 22.175 66.9946 21.6934C68.4425 21.7136 69.7694 21.4526 70.9765 20.9992C69.7694 20.5458 68.4425 20.2848 66.9946 20.304C68.3618 19.8224 69.5185 19.1271 70.4989 18.2868C69.2092 18.2727 67.8752 18.4813 66.516 18.9951C67.6394 18.0772 68.4888 17.0243 69.1226 15.9009C67.9054 16.3311 66.7215 16.983 65.6213 17.9281C66.3628 16.6808 66.8021 15.4011 67.0127 14.1286C66.0142 14.9487 65.1255 15.9674 64.4172 17.2319C64.6852 15.8062 64.66 14.454 64.4232 13.1875C63.7653 14.2958 63.2817 15.5583 63.0459 16.9891C62.8101 15.5583 62.3255 14.2958 61.6685 13.1875C61.4328 14.455 61.4046 15.8072 61.6736 17.2329Z" fill="white"/>
<path fill-rule="evenodd" clip-rule="evenodd" d="M61.6739 17.2327C61.4048 15.8069 61.433 14.4548 61.6688 13.1883C60.9675 11.9993 60.0708 10.9857 59.0864 10.1172C58.8879 11.4139 58.8547 12.7671 59.0794 14.1283C60.0758 14.9485 60.9655 15.9682 61.6739 17.2327Z" fill="#FFE600"/>
<path fill-rule="evenodd" clip-rule="evenodd" d="M64.4189 24.7695C64.687 26.1922 64.6618 27.5444 64.425 28.8109C65.1253 29.9998 66.023 31.0145 67.0074 31.881C67.2049 30.5832 67.2401 29.2321 67.0155 27.8698C66.0159 27.0507 65.1263 26.032 64.4189 24.7695Z" fill="#FFE600"/>
<path fill-rule="evenodd" clip-rule="evenodd" d="M59.0806 14.1308C58.0136 13.2552 56.8247 12.6094 55.6045 12.1328C55.8634 13.4175 56.2917 14.7011 56.9718 15.9031C58.1879 16.3304 59.3708 16.9853 60.4691 17.9304C59.7295 16.683 59.2912 15.4034 59.0806 14.1308Z" fill="#FFE600"/>
<path fill-rule="evenodd" clip-rule="evenodd" d="M67.0155 27.8689C68.0825 28.7444 69.2695 29.3923 70.4886 29.8679C70.2327 28.5822 69.8014 27.3006 69.1244 26.0975C67.9072 25.6703 66.7233 25.0144 65.623 24.0703C66.3646 25.3167 66.8049 26.5953 67.0155 27.8689Z" fill="#FFE600"/>
<path fill-rule="evenodd" clip-rule="evenodd" d="M59.5758 18.9944C58.4524 18.0765 57.601 17.0236 56.9712 15.9001C55.6684 15.4427 54.3274 15.2402 53.0195 15.2109C53.6986 16.3304 54.544 17.3873 55.5929 18.285C56.8805 18.2709 58.2176 18.4805 59.5758 18.9944Z" fill="#FFE600"/>
<path fill-rule="evenodd" clip-rule="evenodd" d="M66.5186 23.0078C67.64 23.9247 68.4894 24.9766 69.1231 26.1011C70.4249 26.5605 71.763 26.761 73.0718 26.7902C72.3927 25.6728 71.5484 24.6139 70.4995 23.7141C69.2098 23.7282 67.8758 23.5217 66.5186 23.0078Z" fill="#FFE600"/>
<path fill-rule="evenodd" clip-rule="evenodd" d="M59.0975 20.3023C57.7283 19.8207 56.5716 19.1255 55.5932 18.2852C54.2118 18.2993 52.8838 18.5683 51.6445 18.9884C52.6672 19.8066 53.8209 20.5149 55.1136 20.9986C56.3217 20.5451 57.6476 20.2832 59.0975 20.3023Z" fill="#FFE600"/>
<path fill-rule="evenodd" clip-rule="evenodd" d="M66.9951 21.6942C68.3624 22.1758 69.5191 22.8741 70.4995 23.7124C71.8808 23.6973 73.2078 23.4293 74.4481 23.0111C73.4254 22.1909 72.2718 21.4846 70.9781 21C69.771 21.4534 68.444 21.7144 66.9951 21.6942Z" fill="#FFE600"/>
<path fill-rule="evenodd" clip-rule="evenodd" d="M55.1136 21C53.8219 21.4856 52.6672 22.1909 51.6445 23.0111C52.8838 23.4313 54.2118 23.6973 55.5932 23.7124C56.5716 22.8731 57.7272 22.1758 59.0975 21.6962C57.6476 21.7144 56.3217 21.4534 55.1136 21Z" fill="#FFE600"/>
<path fill-rule="evenodd" clip-rule="evenodd" d="M70.9781 20.9986C72.2728 20.5139 73.4254 19.8056 74.4481 18.9884C73.2078 18.5683 71.8808 18.3003 70.4995 18.2852C69.5201 19.1255 68.3624 19.8207 66.9951 20.3023C68.444 20.2832 69.771 20.5451 70.9781 20.9986Z" fill="#FFE600"/>
<path fill-rule="evenodd" clip-rule="evenodd" d="M59.5748 23.0078C58.2166 23.5217 56.8805 23.7292 55.5929 23.7151C54.544 24.6139 53.6986 25.6739 53.0195 26.7912C54.3274 26.762 55.6684 26.5605 56.9712 26.1021C57.6 24.9766 58.4503 23.9247 59.5748 23.0078Z" fill="#FFE600"/>
<path fill-rule="evenodd" clip-rule="evenodd" d="M66.5166 18.9934C67.8758 18.4795 69.2098 18.2699 70.4995 18.285C71.5484 17.3873 72.3928 16.3293 73.0719 15.2109C71.763 15.2402 70.425 15.4427 69.1232 15.9001C68.4894 17.0226 67.64 18.0755 66.5166 18.9934Z" fill="#FFE600"/>
<path fill-rule="evenodd" clip-rule="evenodd" d="M61.6699 28.8123C61.9238 30.1715 62.4185 31.431 63.0473 32.5786C63.677 31.431 64.1687 30.1715 64.4246 28.8123C63.7667 27.7009 63.283 26.4405 63.0473 25.0117C62.8115 26.4415 62.3269 27.7009 61.6699 28.8123Z" fill="#FFE600"/>
<path fill-rule="evenodd" clip-rule="evenodd" d="M61.6742 24.7695C60.9659 26.032 60.0762 27.0507 59.0797 27.8698C58.8541 29.2311 58.8883 30.5832 59.0868 31.881C60.0712 31.0145 60.9679 30.0008 61.6692 28.8109C61.4334 27.5444 61.4052 26.1932 61.6742 24.7695Z" fill="#FFE600"/>
<path fill-rule="evenodd" clip-rule="evenodd" d="M56.9718 26.0975C56.2917 27.3006 55.8634 28.5822 55.6045 29.8679C56.8237 29.3923 58.0126 28.7434 59.0806 27.8689C59.2912 26.5953 59.7295 25.3167 60.4691 24.0703C59.3708 25.0144 58.1879 25.6703 56.9718 26.0975Z" fill="#FFE600"/>
<path fill-rule="evenodd" clip-rule="evenodd" d="M64.4246 13.1882C64.1687 11.83 63.677 10.5705 63.0473 9.42188C62.4175 10.5705 61.9238 11.83 61.6699 13.1882C62.3269 14.2965 62.8115 15.559 63.0473 16.9898C63.283 15.56 63.7677 14.2965 64.4246 13.1882Z" fill="#FFE600"/>
<path fill-rule="evenodd" clip-rule="evenodd" d="M64.4189 17.2317C65.1273 15.9672 66.0159 14.9475 67.0145 14.1283C67.2391 12.7671 67.2039 11.4139 67.0064 10.1172C66.022 10.9827 65.1242 11.9983 64.424 13.1883C64.6618 14.4538 64.686 15.8059 64.4189 17.2317Z" fill="#FFE600"/>
<path fill-rule="evenodd" clip-rule="evenodd" d="M69.1234 15.8992C69.8004 14.6972 70.2307 13.4136 70.4876 12.1289C69.2684 12.6055 68.0815 13.2513 67.0145 14.1269C66.8039 15.4005 66.3636 16.6791 65.623 17.9265C66.7223 16.9814 67.9062 16.3295 69.1234 15.8992Z" fill="#FFE600"/>
<path d="M95.7703 17.158C94.8837 16.1524 93.6665 15.9207 92.7013 15.9207C90.4997 15.9207 89.7874 17.1368 89.5375 17.5812V12.4688H87.7229V24.1254L87.6846 25.8614H89.4428L89.4801 24.3954C89.6715 24.6856 89.8851 25.012 90.4232 25.3758C91.2564 25.939 92.1229 25.9964 92.5864 25.9964C93.9174 25.9964 95.2131 25.4372 95.9829 24.3369C96.4666 23.6981 96.9069 22.6755 96.9069 20.8024C96.9079 18.6814 96.253 17.7162 95.7703 17.158ZM92.2025 24.6856C89.4972 24.6856 89.4972 21.6548 89.4972 21.016C89.4972 20.3993 89.4972 17.158 92.2761 17.158C94.8041 17.158 94.9995 19.955 94.9995 20.9203C94.9995 22.5022 94.4414 24.6856 92.2025 24.6856Z" fill="#009900"/>
<path d="M103.335 16.0195C102.544 16.0195 100.943 16.2503 100.034 17.7747L99.9969 16.1727H98.1611C98.1994 17.0966 98.2196 17.3294 98.2196 17.7546V29.5865H100.017V24.7804C100.536 25.6298 101.578 26.2293 102.989 26.2293C105.305 26.2293 107.41 24.6464 107.41 21.0362C107.41 17.4463 105.42 16.0195 103.335 16.0195ZM104.726 23.9511C104.109 24.8025 103.143 24.8972 102.679 24.8972C100.13 24.8972 99.9566 22.4831 99.9566 21.3073C99.9566 20.4377 99.9566 17.3717 102.852 17.3717C104.995 17.3717 105.516 19.1823 105.516 20.9214C105.517 21.6166 105.42 23.006 104.726 23.9511Z" fill="#009900"/>
</svg>
