<svg width="150" height="38" viewBox="0 0 150 38" fill="none" xmlns="http://www.w3.org/2000/svg">
<g clip-path="url(#clip0_9637_1479)">
<path d="M74.5144 25.1831C74.4238 25.1584 73.0295 24.7988 71.5479 24.7988C68.7428 24.7988 67.0539 26.3135 67.0539 28.5692C67.0539 30.5659 68.4667 31.5617 70.1624 32.0974C70.3503 32.1594 70.6273 32.2461 70.8118 32.3072C71.5665 32.5446 72.169 32.8974 72.169 33.5086C72.169 34.1921 71.4727 34.6345 69.959 34.6345C68.6287 34.6345 67.3534 34.2541 67.0847 34.1863V36.9615C67.2345 36.9933 68.7502 37.2909 70.3693 37.2909C72.6982 37.2909 75.3623 36.2733 75.3623 33.2438C75.3623 31.7744 74.4626 30.4217 72.4875 29.7938L71.6478 29.5265C71.1469 29.3684 70.2527 29.1123 70.2527 28.378C70.2527 27.7981 70.9152 27.3897 72.1353 27.3897C73.1879 27.3897 74.4691 27.7434 74.5144 27.7576V25.1831ZM100.233 31.045C100.233 32.7998 98.8893 34.2194 97.0857 34.2194C95.2802 34.2194 93.9396 32.7998 93.9396 31.045C93.9396 29.2938 95.2802 27.8736 97.0857 27.8736C98.8893 27.8736 100.233 29.2938 100.233 31.045ZM97.0857 24.8027C93.3763 24.8027 90.7161 27.6004 90.7161 31.045C90.7161 34.4951 93.3763 37.2909 97.0857 37.2909C100.795 37.2909 103.459 34.4951 103.459 31.045C103.459 27.6004 100.795 24.8027 97.0857 24.8027ZM62.9728 37.0763H59.9292V25.0164H62.9728" fill="#049FD9"/>
<path d="M55.7441 25.2349C55.4581 25.1501 54.401 24.8027 52.9692 24.8027C49.2656 24.8027 46.5469 27.4434 46.5469 31.0451C46.5469 34.9308 49.548 37.2909 52.9692 37.2909C54.3283 37.2909 55.3659 36.969 55.7441 36.8617V33.6243C55.6133 33.697 54.6185 34.2644 53.1873 34.2644C51.1598 34.2644 49.852 32.8374 49.852 31.0451C49.852 29.1981 51.2163 27.8283 53.1873 27.8283C54.6429 27.8283 55.6217 28.4083 55.7441 28.4722" fill="#049FD9"/>
<path d="M87.5102 25.2349C87.2242 25.1501 86.1671 24.8027 84.7353 24.8027C81.0317 24.8027 78.313 27.4434 78.313 31.0451C78.313 34.9308 81.3141 37.2909 84.7353 37.2909C86.0945 37.2909 87.132 36.969 87.5102 36.8617V33.6243C87.3794 33.697 86.3846 34.2644 84.9534 34.2644C82.9259 34.2644 81.6181 32.8374 81.6181 31.0451C81.6181 29.1981 82.9825 27.8283 84.9534 27.8283C86.409 27.8283 87.3878 28.4083 87.5102 28.4722" fill="#049FD9"/>
<path d="M59.9157 2.21438C59.9157 1.38312 59.2368 0.708984 58.4045 0.708984C57.5726 0.708984 56.8937 1.38312 56.8937 2.21438V18.2291C56.8937 19.0652 57.5726 19.739 58.4045 19.739C59.2368 19.739 59.9157 19.0652 59.9157 18.2291V2.21438ZM51.6163 7.89923C51.6163 7.06828 50.9376 6.39319 50.1054 6.39319C49.2732 6.39319 48.5945 7.06828 48.5945 7.89923V15.2206C48.5945 16.0563 49.2732 16.7305 50.1054 16.7305C50.9376 16.7305 51.6163 16.0563 51.6163 15.2206V7.89923ZM43.3171 12.0546C43.3171 11.2233 42.6385 10.5495 41.8063 10.5495C40.975 10.5495 40.2954 11.2233 40.2954 12.0546V15.2206C40.2954 16.0563 40.975 16.7305 41.8063 16.7305C42.6385 16.7305 43.3171 16.0563 43.3171 15.2206" fill="#049FD9"/>
<path d="M56.8934 2.21438C56.8934 1.38312 57.5723 0.708984 58.4046 0.708984C59.2365 0.708984 59.9154 1.38312 59.9154 2.21438V18.2291C59.9154 19.0652 59.2365 19.739 58.4046 19.739C57.5723 19.739 56.8934 19.0652 56.8934 18.2291V2.21438ZM65.1928 7.89923C65.1928 7.06828 65.8715 6.39319 66.7037 6.39319C67.5359 6.39319 68.2145 7.06828 68.2145 7.89923V15.2206C68.2145 16.0563 67.5359 16.7305 66.7037 16.7305C65.8715 16.7305 65.1928 16.0563 65.1928 15.2206V7.89923ZM73.492 12.0546C73.492 11.2233 74.1706 10.5495 75.0028 10.5495C75.8341 10.5495 76.5137 11.2233 76.5137 12.0546V15.2206C76.5137 16.0563 75.8341 16.7305 75.0028 16.7305C74.1706 16.7305 73.492 16.0563 73.492 15.2206" fill="#049FD9"/>
<path d="M90.0838 2.21438C90.0838 1.38312 90.7628 0.708984 91.595 0.708984C92.4269 0.708984 93.1058 1.38312 93.1058 2.21438V18.2291C93.1058 19.0652 92.4269 19.739 91.595 19.739C90.7628 19.739 90.0838 19.0652 90.0838 18.2291V2.21438ZM98.3833 7.89923C98.3833 7.06828 99.0619 6.39319 99.8941 6.39319C100.726 6.39319 101.405 7.06828 101.405 7.89923V15.2206C101.405 16.0563 100.726 16.7305 99.8941 16.7305C99.0619 16.7305 98.3833 16.0563 98.3833 15.2206V7.89923ZM106.682 12.0546C106.682 11.2233 107.361 10.5495 108.193 10.5495C109.025 10.5495 109.704 11.2233 109.704 12.0546V15.2206C109.704 16.0563 109.025 16.7305 108.193 16.7305C107.361 16.7305 106.682 16.0563 106.682 15.2206" fill="#049FD9"/>
<path d="M93.1061 2.21438C93.1061 1.38312 92.4272 0.708984 91.595 0.708984C90.7631 0.708984 90.0841 1.38312 90.0841 2.21438V18.2291C90.0841 19.0652 90.7631 19.739 91.595 19.739C92.4272 19.739 93.1061 19.0652 93.1061 18.2291V2.21438ZM84.8067 7.89923C84.8067 7.06828 84.1281 6.39319 83.2958 6.39319C82.4636 6.39319 81.785 7.06828 81.785 7.89923V15.2206C81.785 16.0563 82.4636 16.7305 83.2958 16.7305C84.1281 16.7305 84.8067 16.0563 84.8067 15.2206V7.89923ZM76.5076 12.0546C76.5076 11.2233 75.8289 10.5495 74.9967 10.5495C74.1654 10.5495 73.4858 11.2233 73.4858 12.0546V15.2206C73.4858 16.0563 74.1654 16.7305 74.9967 16.7305C75.8289 16.7305 76.5076 16.0563 76.5076 15.2206" fill="#049FD9"/>
</g>
<defs>
<clipPath id="clip0_9637_1479">
<rect width="69.4057" height="36.6308" fill="white" transform="translate(40.2974 0.685547)"/>
</clipPath>
</defs>
</svg>
