<svg width="151" height="38" viewBox="0 0 151 38" fill="none" xmlns="http://www.w3.org/2000/svg">
<g clip-path="url(#clip0_9746_88)">
<mask id="mask0_9746_88" style="mask-type:luminance" maskUnits="userSpaceOnUse" x="49" y="10" width="53" height="18">
<path d="M101.148 10.8438H49.5195V27.1595H101.148V10.8438Z" fill="white"/>
</mask>
<g mask="url(#mask0_9746_88)">
<path d="M65.7111 19.7601C65.7111 19.4997 65.7525 19.2273 65.7525 18.9609C65.7541 16.977 65.0295 15.0611 63.7155 13.5748C62.4016 12.0884 60.589 11.1343 58.6199 10.8926C56.6508 10.6508 54.6613 11.1381 53.0268 12.2625C51.3922 13.3869 50.2258 15.0706 49.7474 16.996C49.2691 18.9214 49.512 20.9553 50.4303 22.7139C51.3485 24.4724 52.8787 25.8342 54.732 26.5421C56.5853 27.2499 58.6336 27.2551 60.4904 26.5564C62.3472 25.8578 63.8842 24.5038 64.8112 22.7498H60.7145C60.0503 23.2904 59.2556 23.6468 58.4101 23.7833C57.5647 23.9199 56.6981 23.8317 55.8975 23.5276C55.0969 23.2236 54.3903 22.7143 53.8486 22.051C53.3069 21.3877 52.9491 20.5935 52.8112 19.7483L65.7111 19.7601ZM53.2789 16.9126C53.7348 15.3497 55.6469 14.0887 57.5177 14.0591C59.5187 14.0236 61.4308 15.2431 61.9873 16.9126H53.2789Z" fill="#4A4A49"/>
<path d="M101.148 25.0703C101.148 25.4836 101.026 25.8876 100.796 26.2313C100.566 26.5749 100.24 26.8428 99.8583 27.001C99.4764 27.1591 99.0562 27.2005 98.6508 27.1199C98.2455 27.0392 97.8731 26.8402 97.5808 26.5479C97.2886 26.2557 97.0895 25.8833 97.0089 25.4779C96.9283 25.0726 96.9697 24.6524 97.1278 24.2705C97.286 23.8887 97.5539 23.5623 97.8975 23.3327C98.2412 23.103 98.6452 22.9805 99.0585 22.9805C99.6128 22.9805 100.144 23.2006 100.536 23.5925C100.928 23.9845 101.148 24.516 101.148 25.0703Z" fill="#68C5B9"/>
<path d="M75.355 14.8305C75.0827 14.1971 74.763 13.4275 74.4493 12.7467C74.0585 11.8468 73.6974 11.095 73.6974 11.095C72.9989 10.9826 72.2895 10.9528 71.584 11.0062C68.8667 11.2489 67.4399 12.6875 67.0847 14.6233C66.7295 16.5592 67.5998 18.0688 69.2515 19.0989C69.9086 19.5074 70.6249 19.8212 71.2998 20.1941C71.9305 20.5177 72.5432 20.8754 73.135 21.2656C73.422 21.4268 73.6471 21.679 73.7747 21.9825C73.9023 22.2859 73.9251 22.6232 73.8395 22.941C73.6205 23.6751 72.9811 23.8705 72.3181 23.9415C71.1022 24.0078 69.8992 23.6638 68.9022 22.9647L68.3398 22.6095L66.9189 25.3919C69.1271 26.9371 71.5188 27.5468 74.1355 26.7358C74.8452 26.535 75.4928 26.1585 76.0185 25.6411C76.5442 25.1238 76.9309 24.4822 77.1429 23.7758C77.4417 22.8513 77.4298 21.8545 77.1092 20.9374C76.7885 20.0203 76.1766 19.2332 75.3669 18.6963C74.4106 18.0679 73.4226 17.4889 72.4069 16.9618C71.8695 16.6906 71.3565 16.3737 70.8736 16.0145C70.7611 15.938 70.665 15.8399 70.5907 15.726C70.5164 15.612 70.4654 15.4845 70.4406 15.3508C70.4158 15.217 70.4178 15.0797 70.4464 14.9467C70.475 14.8137 70.5296 14.6877 70.6072 14.576C70.6873 14.4564 70.7923 14.3554 70.9148 14.2798C71.0374 14.2042 71.1747 14.1559 71.3176 14.1379C71.7036 14.0364 72.1056 14.0103 72.5016 14.0609C73.461 14.1993 74.3983 14.462 75.2899 14.8424" fill="#4A4A49"/>
<path d="M99.6923 10.8438C98.7135 13.1171 97.7269 15.3923 96.7323 17.6696C95.4733 20.5744 94.2084 23.4791 92.9375 26.3839C92.8428 26.597 92.7422 26.8102 92.606 27.118L88.2133 17.3854L83.7851 27.047C83.7 26.9374 83.6248 26.8205 83.5601 26.6977C81.3342 21.567 79.1122 16.4224 76.8941 11.2641C76.8349 11.1279 76.7935 10.9858 76.7402 10.8438H80.3692C80.9257 12.0988 81.494 13.3539 82.0446 14.6148C82.7136 16.1481 83.3648 17.6814 84.0811 19.3509L88.2252 11.0036L92.3278 19.345L96.0515 10.8615L99.6923 10.8438Z" fill="#4A4A49"/>
</g>
</g>
<defs>
<clipPath id="clip0_9746_88">
<rect width="51.6289" height="16.3157" fill="white" transform="translate(49.5195 10.8438)"/>
</clipPath>
</defs>
</svg>
