<svg width="151" height="38" viewBox="0 0 151 38" fill="none" xmlns="http://www.w3.org/2000/svg">
<path d="M130.691 14.7478H126.843V24.4552H124.586V14.7478H120.764V13.0938H130.691V14.7428V14.7478Z" fill="#080F29"/>
<path d="M95.4167 22.7792C95.5138 22.5019 95.5703 22.1136 95.5703 21.5992H95.5545V13.1172H93.2989V21.3269C93.2989 21.9068 93.1453 22.285 92.8292 22.4918C92.5131 22.6935 91.9517 22.7943 91.1501 22.7943H88.8328C88.0215 22.7943 87.46 22.6985 87.1484 22.4868C86.8369 22.2749 86.6841 21.8766 86.6841 21.2916V13.1222H84.4277V21.5891C84.4277 22.1337 84.4789 22.5271 84.5662 22.7691C84.7137 23.1171 84.9945 23.4549 85.4287 23.7777C85.811 24.0702 86.2498 24.2568 86.73 24.3475C87.0566 24.4232 87.5616 24.4534 88.236 24.4534H91.7575C92.4672 24.4534 92.9775 24.4282 93.2883 24.3728C93.7429 24.282 94.1764 24.0903 94.5798 23.7878C94.993 23.4852 95.264 23.1473 95.4122 22.7792H95.4167Z" fill="#080F29"/>
<path d="M41.6386 21.7079C41.6386 22.5853 41.3527 23.246 40.776 23.6947C40.1584 24.199 39.3213 24.4512 38.2699 24.4512H34.3551C33.1353 24.4512 32.2064 24.2393 31.5735 23.8107C31.1396 23.5283 30.8589 23.1753 30.7109 22.7669C30.6394 22.5299 30.5986 22.1264 30.5986 21.5465V15.7977C30.5986 15.2682 30.6548 14.8597 30.7772 14.5874C30.9457 14.2294 31.2723 13.9218 31.7521 13.6444C32.3543 13.2965 33.2272 13.125 34.3551 13.125H40.827V14.7538H34.8196C34.1101 14.7538 33.6151 14.8446 33.3395 15.0161C33.0128 15.2127 32.8495 15.5607 32.8495 16.0549V21.4658C32.8495 21.9701 33.0281 22.3383 33.3803 22.5551C33.6559 22.7164 34.1204 22.8072 34.7736 22.8072H37.6931C38.8314 22.8072 39.403 22.3836 39.403 21.5364V18.1829H41.6335V21.7129H41.6436L41.6386 21.7079Z" fill="#080F29"/>
<path d="M55.1539 24.4556H52.3364L46.8191 20.1137C46.6302 19.9675 46.5332 19.7304 46.5332 19.3976C46.5332 18.7622 46.9977 18.4445 47.9266 18.4445L51.2238 18.4193C52.3212 18.4193 52.8673 18.0461 52.8673 17.2897V15.9887C52.8673 15.202 52.2497 14.7986 51.0094 14.7986H46.3545V24.4556H44.0986V13.1445H51.6678C53.9698 13.1445 55.1181 13.9514 55.1181 15.555V17.5167C55.1181 18.2176 54.817 18.7874 54.2249 19.2161C53.6329 19.6498 52.8417 19.8565 51.872 19.8565H49.274L55.1487 24.4556H55.1539Z" fill="#080F29"/>
<path fill-rule="evenodd" clip-rule="evenodd" d="M67.2322 24.4556H69.6515L64.6241 14.1632C64.2821 13.4874 63.6901 13.1445 62.8326 13.1445C61.9751 13.1445 61.3831 13.4874 61.0411 14.1632L56.0137 24.4556H58.4227L59.7753 21.682H65.8848L67.2373 24.4556H67.2322ZM62.7152 15.0911L65.1753 20.1288H60.4899L62.7203 15.0911H62.7152Z" fill="#080F29"/>
<path d="M81.9757 23.0974C81.9757 23.5311 81.8229 23.8791 81.5113 24.1614C81.1696 24.4792 80.7151 24.6355 80.1438 24.6355C79.608 24.6355 79.1895 24.5145 78.8982 24.2674C78.771 24.1614 78.541 23.8539 78.2246 23.3496L72.9827 15.3668V24.469H70.834V14.7818C70.834 13.6825 71.4465 13.1328 72.6663 13.1328C73.2278 13.1328 73.6513 13.2488 73.9372 13.4808C74.0903 13.6119 74.3302 13.9144 74.6364 14.3986L79.8375 22.3713V13.2387H81.9862V23.0974H81.9757Z" fill="#080F29"/>
<path d="M108.093 24.4523H102.106C100.794 24.4523 99.7885 24.2506 99.0795 23.8522C98.3796 23.4437 98.0273 22.7479 98.0273 21.7392V13.1211H100.284V21.3358C100.284 21.9158 100.473 22.3192 100.835 22.5461C101.111 22.7176 101.713 22.8083 102.627 22.8083H108.093V24.4523Z" fill="#080F29"/>
<path fill-rule="evenodd" clip-rule="evenodd" d="M119.414 24.4556H121.823L116.8 14.1632C116.459 13.4874 115.866 13.1445 115.009 13.1445C114.152 13.1445 113.56 13.4874 113.218 14.1632L108.19 24.4556H110.6L111.952 21.682H118.062L119.414 24.4556ZM114.892 15.0911L117.352 20.1288H112.666L114.897 15.0911H114.892Z" fill="#080F29"/>
<path d="M134.304 19.6145H141.653V17.9806H134.304V16.0442C134.304 15.2121 134.947 14.7986 136.249 14.7986H142.093V13.1445H135.462C134.396 13.1445 133.559 13.3715 132.956 13.8203C132.354 14.2741 132.053 14.8944 132.053 15.676V22.0451C132.053 22.8267 132.394 23.4369 133.069 23.8655C133.686 24.2488 134.559 24.4455 135.666 24.4455H142.097V22.7965H136.279C134.967 22.7965 134.309 22.3729 134.309 21.5257V19.6145H134.304Z" fill="#080F29"/>
<path d="M11.5054 14.8656H12.7712C12.9396 14.8656 13.0774 14.7344 13.0774 14.5731V13.3678C13.0774 13.2065 12.9396 13.0754 12.7712 13.0754H11.5054C11.337 13.0754 11.1992 13.2065 11.1992 13.3678V14.5731C11.1992 14.7344 11.337 14.8656 11.5054 14.8656ZM11.5054 18.1484H12.7712C12.9396 18.1484 13.0774 18.0173 13.0774 17.8559V16.6507C13.0774 16.4893 12.9396 16.3582 12.7712 16.3582H11.5054C11.337 16.3582 11.1992 16.4893 11.1992 16.6507V17.8559C11.1992 18.0173 11.337 18.1484 11.5054 18.1484ZM16.1756 16.3582H14.9097C14.7413 16.3582 14.6035 16.4893 14.6035 16.6507V17.8559C14.6035 18.0173 14.7413 18.1484 14.9097 18.1484H16.1756C16.344 18.1484 16.4818 18.0173 16.4818 17.8559V16.6507C16.4818 16.4893 16.344 16.3582 16.1756 16.3582ZM19.585 16.3582H18.3193C18.1508 16.3582 18.013 16.4893 18.013 16.6507V17.8559C18.013 18.0173 18.1508 18.1484 18.3193 18.1484H19.585C19.7535 18.1484 19.8913 18.0173 19.8913 17.8559V16.6507C19.8913 16.4893 19.7535 16.3582 19.585 16.3582ZM22.9945 16.3582H21.7287C21.5603 16.3582 21.4225 16.4893 21.4225 16.6507V17.8559C21.4225 18.0173 21.5603 18.1484 21.7287 18.1484H22.9945C23.1629 18.1484 23.3007 18.0173 23.3007 17.8559V16.6507C23.3007 16.4893 23.1629 16.3582 22.9945 16.3582ZM16.1756 13.0703H14.9097C14.7413 13.0703 14.6035 13.2014 14.6035 13.3628V14.568C14.6035 14.7294 14.7413 14.8605 14.9097 14.8605H16.1756C16.344 14.8605 16.4818 14.7294 16.4818 14.568V13.3678C16.4818 13.2065 16.344 13.0754 16.1756 13.0754V13.0703ZM19.585 13.0703H18.3193C18.1508 13.0703 18.013 13.2014 18.013 13.3628V14.568C18.013 14.7294 18.1508 14.8605 18.3193 14.8605H19.585C19.7535 14.8605 19.8913 14.7294 19.8913 14.568V13.3678C19.8913 13.2065 19.7535 13.0754 19.585 13.0754V13.0703ZM26.3938 13.0703H25.128C24.9596 13.0703 24.8218 13.2014 24.8218 13.3628V14.568C24.8218 14.7294 24.9596 14.8605 25.128 14.8605H26.3938C26.5622 14.8605 26.7 14.7294 26.7 14.568V13.3678C26.7 13.2065 26.5622 13.0754 26.3938 13.0754V13.0703ZM22.9894 13.0703H21.7236C21.5552 13.0703 21.4174 13.2014 21.4174 13.3628V14.568C21.4174 14.7294 21.5552 14.8605 21.7236 14.8605H22.9894C23.1579 14.8605 23.2957 14.7294 23.2957 14.568V13.3678C23.2957 13.2065 23.1579 13.0754 22.9894 13.0754V13.0703ZM16.1756 19.6764H14.9097C14.7413 19.6764 14.6035 19.8075 14.6035 19.9689V21.1741C14.6035 21.3355 14.7413 21.4666 14.9097 21.4666H16.1756C16.344 21.4666 16.4818 21.3355 16.4818 21.1741V19.9689C16.4818 19.8075 16.344 19.6764 16.1756 19.6764ZM19.5953 19.6814H18.3294C18.161 19.6814 18.0232 19.8126 18.0232 19.9739V21.1792C18.0232 21.3405 18.161 21.4716 18.3294 21.4716H19.5953C19.7637 21.4716 19.9015 21.3405 19.9015 21.1792V19.9739C19.9015 19.8126 19.7637 19.6814 19.5953 19.6814ZM16.1756 23.1408H14.9097C14.7413 23.1408 14.6035 23.2719 14.6035 23.4333V24.6385C14.6035 24.7999 14.7413 24.931 14.9097 24.931H16.1756C16.344 24.931 16.4818 24.7999 16.4818 24.6385V23.4333C16.4818 23.2719 16.344 23.1408 16.1756 23.1408ZM9.66284 20.9926C9.66284 21.0531 9.66284 21.1136 9.66284 21.1691C9.66284 21.4968 9.46889 21.5675 9.16265 21.5069C7.90196 21.2649 6.9373 20.1857 6.9322 19.0057C6.9322 17.7299 7.84071 16.6608 9.14223 16.4036C9.2188 16.3885 9.28515 16.3834 9.34639 16.3834H9.36171C9.41785 16.3834 9.62201 16.4036 9.66284 16.6255V18.0072C9.66284 18.0072 9.66284 18.1585 9.40254 18.2644L9.37192 18.2795L9.14223 18.3905C9.14223 18.3905 9.13713 18.3905 9.13203 18.3955C8.64204 18.6224 8.68288 19.3133 9.19327 19.5503C9.25452 19.5806 9.31067 19.6108 9.3566 19.6411C9.67816 19.7672 9.66794 19.979 9.66794 19.979V20.9825L9.66284 20.9926ZM9.18817 24.8856C8.9687 24.8755 8.49403 24.8352 7.88155 24.6536C6.53409 24.3057 5.25809 23.4181 4.42103 22.1877C4.0025 21.5725 3.69626 20.8766 3.54314 20.1202C3.16545 18.214 3.67585 16.5146 4.99268 15.0471C6.06962 13.862 7.48343 13.2771 9.1014 13.0804C9.43827 13.0401 9.64753 13.1359 9.62711 13.509C9.61181 13.8066 9.6067 14.1041 9.62711 14.4016C9.65264 14.7445 9.53014 14.8958 9.14223 14.9412C7.0547 15.1833 5.79401 16.4994 5.401 18.214C4.92633 20.3067 6.44732 22.6668 8.80026 22.9845H9.65774L10.9746 22.9895C11.0358 22.9845 11.1583 22.9542 11.1992 22.8231C11.1992 22.813 11.1992 22.803 11.1992 22.7878V21.7087V21.7591C11.1992 21.6078 11.1992 21.4616 11.1992 21.3103V20.0546C11.1992 20.0244 11.1992 19.9941 11.2042 19.9689C11.2145 19.8176 11.3523 19.6966 11.5105 19.6966H12.7763C12.9447 19.6966 13.0825 19.8277 13.0825 19.9891V24.457C13.0825 24.457 13.0825 24.4772 13.0825 24.4923C13.0672 24.6991 12.9958 24.82 12.8324 24.8755C12.8018 24.8856 12.7712 24.8957 12.7405 24.9007H11.924C11.0869 24.8957 10.2549 24.9007 9.41785 24.9007H9.18817V24.8856Z" fill="url(#paint0_linear_9746_47)"/>
<path d="M143.731 13.1875H145.268V13.4548H144.656V14.8466H144.349V13.4548H143.737V13.1875H143.731Z" fill="#080F29"/>
<path d="M147.246 14.8466H146.939V13.5254L146.464 14.4129H146.214L145.745 13.5304V14.8466H145.438V13.1875H145.878L146.337 14.0649L146.801 13.1875H147.24V14.8466H147.246Z" fill="#080F29"/>
<defs>
<linearGradient id="paint0_linear_9746_47" x1="4.51042" y1="24.931" x2="25.0967" y2="25.1343" gradientUnits="userSpaceOnUse">
<stop stop-color="#FFC21E"/>
<stop offset="0.963419" stop-color="#F3851C"/>
</linearGradient>
</defs>
</svg>
