<svg width="150" height="38" viewBox="0 0 150 38" fill="none" xmlns="http://www.w3.org/2000/svg">
<path d="M37.6881 12.4446H40.156V17.7833C40.8611 16.4783 42.0363 15.7665 43.564 15.7665C45.7969 15.7665 47.4421 17.4274 47.4421 20.1561V26.3253H44.9742V20.3934C44.9742 18.9697 44.2691 18.0206 42.8589 18.0206C41.2136 18.0206 40.156 18.9697 40.156 20.6307V26.3253H37.6881V12.4446ZM48.7348 21.1052C48.7348 18.0206 51.2026 15.7665 54.258 15.7665C57.431 15.7665 59.7814 18.0206 59.7814 21.1052C59.7814 24.1899 57.431 26.4439 54.258 26.4439C51.2026 26.5626 48.7348 24.1899 48.7348 21.1052ZM57.3135 21.1052C57.3135 19.207 56.1383 17.902 54.3756 17.902C52.4953 17.902 51.3201 19.207 51.3201 21.1052C51.3201 23.0035 52.4953 24.3084 54.3756 24.3084C56.1383 24.4271 57.3135 23.0035 57.3135 21.1052ZM61.3091 16.0038H63.7769V17.902C64.3645 16.5969 65.6572 15.7665 67.1849 15.7665C69.4178 15.7665 71.0631 17.4274 71.0631 20.1561V26.3253H68.5951V20.3934C68.5951 18.9697 67.8901 18.0206 66.4798 18.0206C64.8346 18.0206 63.7769 18.9697 63.7769 20.6307V26.3253H61.3091V16.0038ZM78.114 24.4271C79.4067 24.4271 80.4644 23.8339 81.052 23.3593L82.4622 24.9017C81.522 25.8508 80.2293 26.5626 78.114 26.5626C74.5885 26.5626 72.3557 24.3084 72.3557 21.2239C72.3557 18.1393 74.706 15.8851 77.7615 15.8851C81.287 15.8851 83.1673 18.4951 83.0498 22.0543H74.8236C75.1761 23.478 76.2338 24.4271 78.114 24.4271ZM80.6994 20.2747C80.4644 18.8511 79.6418 17.7833 77.879 17.7833C76.3513 17.7833 75.1761 18.6138 74.9411 20.2747H80.6994ZM87.1627 25.3762L82.9322 16.0038H85.6354L87.7508 21.2239C88.1027 22.0544 88.3381 22.8848 88.3381 22.8848C88.3381 22.8848 88.5735 22.0544 88.9254 21.2239L91.1588 16.0038H93.7442L88.1027 28.8167H85.5173L87.1627 25.3762ZM93.6261 21.1052C93.6261 18.0206 95.9769 15.7665 99.0322 15.7665C100.912 15.7665 102.205 16.4783 103.145 17.7833L101.382 19.207C100.912 18.4951 100.09 18.0206 99.0322 18.0206C97.1515 18.0206 96.0942 19.3256 96.0942 21.2239C96.0942 23.1221 97.1515 24.4271 99.0322 24.4271C100.208 24.4271 101.03 23.9526 101.5 23.2408L103.145 24.6644C102.088 25.8508 100.912 26.5626 98.9149 26.5626C95.8588 26.5626 93.6261 24.1899 93.6261 21.1052ZM103.615 21.1052C103.615 18.0206 106.083 15.7665 109.138 15.7665C112.312 15.7665 114.662 18.0206 114.662 21.1052C114.662 24.1899 112.312 26.4439 109.138 26.4439C105.966 26.5626 103.615 24.1899 103.615 21.1052ZM112.076 21.1052C112.076 19.207 110.901 17.902 109.138 17.902C107.258 17.902 106.083 19.207 106.083 21.1052C106.083 23.0035 107.258 24.3084 109.138 24.3084C110.901 24.4271 112.076 23.0035 112.076 21.1052ZM116.072 16.0038H118.54V17.7833C119.245 16.4783 120.185 15.7665 121.595 15.7665C123.123 15.7665 124.063 16.4783 124.651 17.7833C125.473 16.5969 126.649 15.7665 128.177 15.7665C130.644 15.7665 132.055 17.4274 132.055 20.0375V26.3253H129.587V20.2747C129.587 18.8511 129.117 18.0206 127.706 18.0206C126.296 18.0206 125.473 18.8511 125.473 20.6307V26.3253H122.771V20.2747C122.771 18.8511 122.301 18.0206 120.891 18.0206C119.48 18.0206 118.54 18.8511 118.54 20.6307V26.3253H116.072V16.0038ZM136.403 24.4271L136.52 26.3253H134.052V12.4446H136.52V17.7833C137.226 16.5969 138.4 15.7665 140.046 15.7665C142.748 15.7665 144.746 18.0206 144.746 21.1052C144.746 24.1899 142.631 26.5626 139.928 26.5626C138.283 26.5626 136.99 25.7321 136.403 24.4271ZM142.161 21.1052C142.161 19.207 140.986 17.902 139.223 17.902C137.46 17.902 136.285 19.207 136.285 21.1052C136.285 23.0035 137.46 24.3084 139.223 24.3084C141.104 24.3084 142.161 23.0035 142.161 21.1052ZM29.5795 11.8514L17.9453 5.08898C17.7102 4.97034 17.4752 4.97034 17.2401 5.08898L5.60597 11.8514C5.37094 11.97 5.25342 12.2073 5.25342 12.4446V26.0881C5.25342 26.3253 5.37094 26.5626 5.60597 26.6812L11.1293 29.8845L17.2401 33.4436C17.4752 33.5623 17.7102 33.5623 17.9453 33.4436L24.0562 29.8845L29.5795 26.6812C29.8145 26.5626 29.932 26.3253 29.932 26.0881V12.4446C29.932 12.2073 29.8145 11.97 29.5795 11.8514ZM14.1847 27.6303V17.6647C14.1847 17.4274 14.3022 17.1902 14.5373 17.0715L17.2401 15.5292C17.4752 15.4105 17.7102 15.4105 17.9453 15.5292L20.6482 17.0715C20.8832 17.1902 21.0007 17.4274 21.0007 17.6647V27.6303C21.0007 27.8676 20.8832 28.1049 20.6482 28.2236L17.9453 29.8845C17.7102 30.0031 17.4752 30.0031 17.2401 29.8845L14.5373 28.3421C14.3022 28.2236 14.1847 27.9863 14.1847 27.6303ZM26.524 24.9017L24.5263 26.0881C24.2912 26.2067 24.0562 26.0881 24.0562 25.8508V15.8851C24.0562 15.6478 23.9386 15.4105 23.7036 15.2919L17.9453 11.97C17.7102 11.8514 17.4752 11.8514 17.2401 11.97L11.4818 15.2919C11.2468 15.4105 11.1293 15.6478 11.1293 15.8851V25.7321C11.1293 25.9694 10.8942 26.0881 10.6592 25.9694L8.66142 24.783C8.42638 24.6644 8.30887 24.4271 8.30887 24.1899V14.2242C8.30887 13.9869 8.42638 13.7496 8.66142 13.631L17.2401 8.64814C17.4752 8.5295 17.7102 8.5295 17.9453 8.64814L26.524 13.631C26.7591 13.7496 26.8766 13.9869 26.8766 14.2242V24.1899C26.8766 24.5457 26.7591 24.783 26.524 24.9017Z" fill="#FF5B21"/>
</svg>
