<svg width="150" height="38" viewBox="0 0 150 38" fill="none" xmlns="http://www.w3.org/2000/svg">
<g clip-path="url(#clip0_9637_1505)">
<path d="M52.3981 9.0332H48.5723V12.8591H52.3981V9.0332Z" fill="#04C7FD"/>
<path d="M52.3028 28.9665V15.188H48.6812V28.9665H52.3028ZM76.3743 29.1027V25.7261C75.8433 25.7261 75.394 25.6989 75.0673 25.6444C74.6861 25.59 74.4001 25.4538 74.2095 25.2632C74.0189 25.0726 73.8964 24.8003 73.8283 24.4463C73.7738 24.1059 73.7466 23.6566 73.7466 23.112V18.2923H76.3743V15.188H73.7466V9.81003H70.1114V23.1392C70.1114 24.2693 70.2067 25.2224 70.3973 25.9848C70.5879 26.7336 70.9147 27.3463 71.364 27.8092C71.8133 28.2722 72.4123 28.5989 73.1339 28.8031C73.8691 29.0074 74.795 29.1027 75.8978 29.1027H76.3743ZM97.1783 28.9665V8.74805H93.543V28.9665H97.1783ZM66.6123 16.5359C65.6048 15.4467 64.1888 14.9021 62.3916 14.9021C61.5202 14.9021 60.7305 15.0791 60.0089 15.4331C59.301 15.7871 58.6883 16.2772 58.2117 16.9035L58.0075 17.1622V16.9307V15.188H54.4267V28.9665H58.0347V21.628V22.1317C58.0347 22.05 58.0347 21.9683 58.0347 21.8867C58.0756 20.5932 58.3887 19.6402 58.9878 19.0275C59.6277 18.3739 60.4038 18.0472 61.2888 18.0472C62.3371 18.0472 63.1404 18.3739 63.6714 19.0002C64.1888 19.6265 64.4611 20.5115 64.4611 21.6416V21.6688V28.9529H68.1236V21.1378C68.1372 19.1772 67.6198 17.6251 66.6123 16.5359ZM91.6641 22.05C91.6641 21.0561 91.4871 20.1303 91.1468 19.2589C90.7928 18.4012 90.3026 17.6387 89.6899 16.9852C89.0636 16.3317 88.3148 15.8279 87.4434 15.4603C86.5721 15.0927 85.6054 14.9157 84.557 14.9157C83.5631 14.9157 82.6237 15.1063 81.7523 15.4739C80.8809 15.8551 80.1185 16.3589 79.4786 16.9988C78.8387 17.6387 78.3213 18.4012 77.9537 19.2725C77.5725 20.1439 77.3955 21.0834 77.3955 22.0773C77.3955 23.0712 77.5725 24.0106 77.9265 24.882C78.2805 25.7534 78.7842 26.5158 79.4105 27.1557C80.0368 27.7956 80.8129 28.313 81.7115 28.6806C82.6101 29.0618 83.604 29.2524 84.666 29.2524C87.743 29.2524 89.6491 27.8501 90.7928 26.543L88.1787 24.5552C87.6341 25.2087 86.327 26.0937 84.6932 26.0937C83.672 26.0937 82.8279 25.8623 82.188 25.3857C81.5481 24.9228 81.1124 24.2693 80.8809 23.466L80.8401 23.3435H91.6641V22.05ZM80.8673 20.7838C80.8673 19.7763 82.0246 18.02 84.5162 18.0063C87.0078 18.0063 88.1787 19.7627 88.1787 20.7702L80.8673 20.7838Z" fill="#0068B5"/>
<path d="M101.316 27.1685C101.248 27.0051 101.153 26.8689 101.031 26.7464C100.908 26.6239 100.772 26.5286 100.608 26.4605C100.445 26.3924 100.268 26.3516 100.091 26.3516C99.9005 26.3516 99.7371 26.3924 99.5737 26.4605C99.4104 26.5286 99.2742 26.6239 99.1517 26.7464C99.0291 26.8689 98.9338 27.0051 98.8658 27.1685C98.7977 27.3319 98.7568 27.5088 98.7568 27.6858C98.7568 27.8765 98.7977 28.0398 98.8658 28.2032C98.9338 28.3666 99.0291 28.5028 99.1517 28.6253C99.2742 28.7478 99.4104 28.8431 99.5737 28.9112C99.7371 28.9793 99.9141 29.0201 100.091 29.0201C100.282 29.0201 100.445 28.9793 100.608 28.9112C100.772 28.8431 100.908 28.7478 101.031 28.6253C101.153 28.5028 101.248 28.3666 101.316 28.2032C101.385 28.0398 101.425 27.8628 101.425 27.6858C101.425 27.5088 101.385 27.3319 101.316 27.1685ZM101.099 28.1215C101.044 28.2577 100.962 28.3802 100.867 28.4755C100.772 28.5708 100.649 28.6525 100.513 28.707C100.377 28.7614 100.241 28.7887 100.078 28.7887C99.9277 28.7887 99.778 28.7614 99.6418 28.707C99.5057 28.6525 99.3831 28.5708 99.2878 28.4755C99.1925 28.3802 99.1108 28.2577 99.0564 28.1215C99.0019 27.9854 98.9747 27.8492 98.9747 27.6858C98.9747 27.5361 99.0019 27.3863 99.0564 27.2502C99.1108 27.114 99.1925 26.9915 99.2878 26.8962C99.3831 26.8009 99.5057 26.7192 99.6418 26.6647C99.778 26.6103 99.9141 26.583 100.078 26.583C100.227 26.583 100.377 26.6103 100.513 26.6647C100.649 26.7192 100.772 26.8009 100.867 26.8962C100.962 26.9915 101.044 27.114 101.099 27.2502C101.153 27.3863 101.18 27.5225 101.18 27.6858C101.194 27.8492 101.153 27.9854 101.099 28.1215ZM100.336 27.7948C100.445 27.7812 100.527 27.7403 100.595 27.6722C100.663 27.6042 100.704 27.5088 100.704 27.3727C100.704 27.2229 100.663 27.114 100.568 27.0323C100.486 26.9506 100.336 26.9098 100.159 26.9098H99.5601V28.4483H99.846V27.822H100.05L100.431 28.4483H100.731L100.336 27.7948ZM100.186 27.5769C100.146 27.5769 100.105 27.5769 100.05 27.5769H99.846V27.1412H100.05C100.091 27.1412 100.132 27.1412 100.186 27.1412C100.227 27.1412 100.268 27.1549 100.309 27.1685C100.35 27.1821 100.377 27.2093 100.391 27.2365C100.404 27.2638 100.418 27.3046 100.418 27.3591C100.418 27.4135 100.404 27.4544 100.391 27.4816C100.363 27.5088 100.336 27.5361 100.309 27.5497C100.268 27.5633 100.227 27.5769 100.186 27.5769Z" fill="#0068B5"/>
</g>
<defs>
<clipPath id="clip0_9637_1505">
<rect width="52.854" height="20.5044" fill="white" transform="translate(48.5732 8.74805)"/>
</clipPath>
</defs>
</svg>
