<svg width="150" height="36" viewBox="0 0 150 36" fill="none" xmlns="http://www.w3.org/2000/svg">
<mask id="mask0_10641_4386" style="mask-type:luminance" maskUnits="userSpaceOnUse" x="20" y="6" width="110" height="24">
<path d="M130 6H20V29.3731H130V6Z" fill="white"/>
</mask>
<g mask="url(#mask0_10641_4386)">
<path d="M129.48 14.2338C128.353 14.2338 127.222 14.2338 126.095 14.2338C125.831 14.2338 125.608 14.4316 125.579 14.6955C125.53 15.1202 125.48 15.549 125.43 15.9736C125.427 16.0231 125.36 16.0355 125.336 15.9943C124.543 14.6296 122.491 13.8214 120.7 13.8214C117.104 13.8214 113.153 16.8765 113.153 21.5973C113.153 26.2853 117.075 29.3444 120.7 29.3444C122.372 29.3444 124.51 28.6766 125.336 27.2005C125.36 27.1552 125.427 27.1718 125.435 27.221C125.484 27.6458 125.534 28.0746 125.583 28.4992C125.612 28.7632 125.835 28.9612 126.099 28.9612C127.226 28.9612 128.358 28.9612 129.485 28.9612C129.773 28.9612 130.005 28.73 130.005 28.4416C130.005 23.8815 130.005 19.3215 130.005 14.7574C130.001 14.4646 129.765 14.2338 129.48 14.2338ZM121.558 25.036C119.655 25.036 118.111 23.4941 118.111 21.5934C118.111 19.6927 119.655 18.1505 121.558 18.1505C123.461 18.1505 125.005 19.6927 125.005 21.5934C125.005 23.4941 123.461 25.036 121.558 25.036ZM111.646 14.7532C111.646 15.7015 111.646 16.6539 111.646 17.6022C111.646 17.8909 111.415 18.1218 111.126 18.1218C109.801 18.1218 108.476 18.1218 107.151 18.1218C107.122 18.1218 107.097 18.1465 107.101 18.1752C107.101 19.7298 107.101 21.288 107.101 22.8426C107.101 24.3556 108.022 25.275 109.537 25.275C109.925 25.275 110.33 25.205 110.986 25.0237C111.32 24.9286 111.646 25.1803 111.646 25.5225C111.646 26.4995 111.646 27.4808 111.646 28.4621C111.646 28.6724 111.523 28.858 111.333 28.9404C110.759 29.1878 109.838 29.3691 108.732 29.3691C104.777 29.3691 102.164 26.7551 102.164 23.2838C102.164 21.7995 102.164 20.3194 102.164 18.8351C102.164 18.5958 102.164 18.3568 102.164 18.1176C102.164 16.823 102.164 15.5242 102.164 14.2296C102.164 14.1307 102.164 14.0276 102.164 13.9245C102.164 12.9927 102.164 12.0609 102.164 11.1292C102.164 10.8405 102.395 10.6096 102.684 10.6096C103.98 10.6096 105.281 10.6096 106.577 10.6096C106.866 10.6096 107.097 10.8405 107.097 11.1292C107.097 12.1475 107.097 13.1618 107.097 14.1802C107.097 14.209 107.122 14.2338 107.151 14.2338C108.476 14.2338 109.801 14.2338 111.126 14.2338C111.415 14.2338 111.646 14.4646 111.646 14.7532ZM99.1917 20.7687C99.1917 23.3248 99.1917 25.8852 99.1917 28.4416C99.1917 28.73 98.9606 28.9612 98.6716 28.9612C97.3752 28.9612 96.0749 28.9612 94.7788 28.9612C94.4898 28.9612 94.2585 28.73 94.2585 28.4416C94.2585 26.042 94.2585 23.6423 94.2585 21.2428C94.2585 19.61 92.9829 18.2455 91.3483 18.2455C89.7753 18.2455 88.4668 19.61 88.4668 21.3004C88.4668 23.6794 88.4668 26.0584 88.4668 28.4373C88.4668 28.7261 88.2355 28.9569 87.9464 28.9569C86.6504 28.9569 85.3498 28.9569 84.0537 28.9569C83.7647 28.9569 83.5336 28.7261 83.5336 28.4373C83.5336 23.8734 83.5336 19.3134 83.5336 14.7532C83.5336 14.4646 83.7647 14.2338 84.0537 14.2338C85.1805 14.2338 86.3034 14.2338 87.4305 14.2338C87.6824 14.2338 87.9012 14.4193 87.9425 14.6708C88.0167 15.1202 88.087 15.5655 88.1612 16.0149C88.1694 16.0602 88.2273 16.0767 88.2521 16.0437C89.2386 14.6131 90.9477 13.8256 92.7147 13.8256C96.6943 13.8256 99.1917 16.8517 99.1917 20.7687ZM72.8911 13.8214C68.1352 13.8214 64.5107 17.3218 64.5107 21.6552C64.5107 26.1079 68.3748 29.3734 72.9487 29.3734C75.628 29.3734 78.0265 28.2518 79.4837 26.6109C79.715 26.3511 79.6282 25.9431 79.3144 25.7946C78.3237 25.3329 77.3329 24.871 76.3421 24.4093C76.1358 24.3145 75.8881 24.364 75.7354 24.533C75.1203 25.2216 74.055 25.5101 73.0108 25.5101C71.1944 25.5101 69.898 24.6154 69.4068 22.995C69.3987 22.9621 69.4234 22.9292 69.4563 22.9292C73.1801 22.9292 76.8994 22.9292 80.6232 22.9292C80.9122 22.9292 81.1514 22.6818 81.1391 22.3891C80.9203 17.5445 77.7912 13.8214 72.8911 13.8214ZM76.1771 20.0225C73.9355 20.0225 71.694 20.0225 69.4521 20.0225C69.415 20.0225 69.3902 19.9893 69.4026 19.9522C69.8941 18.4516 71.1035 17.6145 72.8869 17.6145C74.4433 17.6145 75.7065 18.2494 76.2266 19.9522C76.2348 19.9893 76.21 20.0225 76.1771 20.0225ZM64.5478 14.9882C62.1991 19.5524 59.8541 24.1124 57.5051 28.6724C57.4143 28.8456 57.2369 28.9527 57.0429 28.9527C56.5514 28.9527 56.0603 28.9527 55.5691 28.9527C55.3751 28.9527 55.1975 28.8456 55.1066 28.6724C52.7619 24.1124 50.4129 19.5524 48.0597 14.9882C47.9773 14.8274 47.9855 14.6337 48.0805 14.4811C48.1755 14.3286 48.3448 14.2338 48.5264 14.2338C49.9133 14.2338 51.3005 14.2338 52.6877 14.2338C52.894 14.2338 53.0798 14.3533 53.1622 14.5389C54.1901 16.8065 55.2182 19.0741 56.2461 21.3417C56.2666 21.3831 56.3203 21.3831 56.3327 21.3417C57.369 19.0741 58.4093 16.8065 59.4455 14.5389C59.5321 14.3533 59.718 14.2338 59.9201 14.2338C61.3073 14.2338 62.6945 14.2338 64.0814 14.2338C64.263 14.2338 64.4322 14.3286 64.5273 14.4811C64.6223 14.6337 64.6304 14.8274 64.5478 14.9882ZM47.329 20.7605C47.329 23.3167 47.329 25.877 47.329 28.4334C47.329 28.7219 47.0979 28.9527 46.8089 28.9527C45.5128 28.9527 44.2122 28.9527 42.9162 28.9527C42.6271 28.9527 42.396 28.7219 42.396 28.4334C42.396 26.0336 42.396 23.6341 42.396 21.2346C42.396 19.6019 41.1163 18.2371 39.4856 18.2371C37.9087 18.2371 36.6041 19.6019 36.6041 21.2923C36.6041 23.6712 36.6041 26.0502 36.6041 28.4292C36.6041 28.7177 36.373 28.9488 36.084 28.9488C34.7877 28.9488 33.4874 28.9488 32.191 28.9488C31.902 28.9488 31.6709 28.7177 31.6709 28.4292C31.6709 23.8692 31.6709 19.3092 31.6709 14.745C31.6709 14.4564 31.902 14.2255 32.191 14.2255C33.3181 14.2255 34.441 14.2255 35.5678 14.2255C35.8197 14.2338 36.0343 14.4193 36.0756 14.6708C36.1501 15.1202 36.2201 15.5655 36.2946 16.0149C36.3028 16.0602 36.3604 16.0726 36.3894 16.0355C37.3762 14.6048 39.0852 13.8173 40.852 13.8173C44.8358 13.8173 47.329 16.8436 47.329 20.7605ZM28.2156 14.7532C28.2156 19.3173 28.2156 23.8773 28.2156 28.4373C28.2156 28.7219 27.9803 28.9569 27.6955 28.9569C26.3991 28.9569 25.0988 28.9569 23.8025 28.9569C23.5134 28.9569 23.2823 28.7261 23.2823 28.4373C23.2823 23.8734 23.2823 19.3134 23.2823 14.7532C23.2823 14.4646 23.5134 14.2338 23.8025 14.2338C25.0988 14.2338 26.3991 14.2338 27.6955 14.2338C27.9845 14.2338 28.2156 14.4646 28.2156 14.7532ZM31.3942 7.43908C31.5182 7.60812 31.5264 7.83489 31.419 8.01216C30.2176 9.99531 28.0629 11.1992 25.7469 11.1992C24.6076 11.1992 23.4887 10.9065 22.494 10.3499C21.499 9.79329 20.6651 8.98521 20.0747 8.01216C19.9673 7.83489 19.9758 7.60812 20.0995 7.43908C20.3967 7.03091 20.698 6.6186 20.9994 6.20632C21.1687 5.97129 21.5072 5.92183 21.7385 6.10324C22.882 6.99793 24.2897 7.48854 25.7469 7.48854C27.2043 7.48854 28.612 6.99793 29.7596 6.10324C29.9907 5.92183 30.325 5.96718 30.4985 6.20632C30.7957 6.6186 31.0971 7.02678 31.3942 7.43908Z" fill="#4E585F"/>
</g>
</svg>
