<svg width="150" height="38" viewBox="0 0 150 38" fill="none" xmlns="http://www.w3.org/2000/svg">
<path d="M54.8661 13.8672C53.9825 13.8672 53.2623 14.0562 52.7055 14.4341C52.1973 14.762 51.7666 15.1964 51.4426 15.7071H51.4002C51.0762 15.1964 50.6453 14.762 50.1373 14.4341C49.5805 14.0562 48.8603 13.8672 47.9767 13.8672C46.5066 13.8672 45.3904 14.2774 44.6278 15.0978C43.8652 15.9182 43.4833 17.0614 43.4819 18.5274V24.1559H46.4354V18.7412C46.4354 18.0136 46.5821 17.4467 46.8752 17.0406C47.0372 16.8511 47.2381 16.6989 47.4645 16.5946C47.691 16.4903 47.9372 16.4362 48.1865 16.4362C48.4357 16.4362 48.682 16.4903 48.9083 16.5946C49.1349 16.6989 49.3358 16.8511 49.4978 17.0406C49.7897 17.444 49.9362 18.0109 49.9376 18.7412V24.1559H52.8911V18.7412C52.8911 18.0136 53.0369 17.4467 53.3289 17.0406C53.4911 16.8514 53.6922 16.6995 53.9185 16.5954C54.1449 16.4912 54.391 16.4373 54.6402 16.4373C54.8893 16.4373 55.1354 16.4912 55.3618 16.5954C55.5881 16.6995 55.7893 16.8514 55.9515 17.0406C56.2446 17.444 56.3907 18.0109 56.3893 18.7412V24.1559H59.3427V18.5274C59.3427 17.0587 58.9614 15.9155 58.1989 15.0978C57.4363 14.2801 56.3253 13.8699 54.8661 13.8672Z" fill="#00995C"/>
<path d="M68.7667 14.548C67.9559 14.0851 67.0352 13.8502 66.1017 13.8681C65.1648 13.8522 64.2409 14.0884 63.4267 14.552C62.6491 15.0003 62.0121 15.6563 61.5868 16.4464C61.1524 17.2766 60.9247 18.1994 60.9229 19.1364C60.9212 20.0733 61.1454 20.997 61.5767 21.8288C62.0022 22.619 62.6439 23.2718 63.4267 23.711C64.2707 24.1787 65.2235 24.4145 66.1885 24.3949C67.2359 24.4109 68.2664 24.1313 69.1621 23.588C70.0554 23.0348 70.6935 22.1508 70.9374 21.1288H68.2644C68.0723 21.4344 67.7905 21.6733 67.4574 21.8127C67.0299 21.9714 66.5754 22.0441 66.1199 22.0265C65.5516 22.0457 64.9936 21.8722 64.5362 21.5343C64.0863 21.1721 63.7763 20.6652 63.6587 20.0999H71.2118C71.2259 19.8296 71.234 19.5088 71.234 19.1376C71.2459 18.2017 71.0212 17.2781 70.5804 16.4524C70.166 15.6604 69.5376 15.0006 68.7667 14.548ZM63.6405 18.1208C63.764 17.5816 64.0706 17.1018 64.508 16.7631C64.9671 16.4204 65.529 16.2433 66.1017 16.2608C66.6833 16.2474 67.2522 16.4316 67.7156 16.7833C68.1542 17.1065 68.453 17.5849 68.5509 18.1208H63.6405Z" fill="#00995C"/>
<path d="M80.4135 15.5098C80.1321 14.9899 79.6996 14.5678 79.1728 14.2994C78.5777 14.0004 77.9182 13.8521 77.2523 13.8676C76.4798 13.8697 75.7219 14.0787 75.0573 14.4729C74.3371 14.9024 73.7515 15.5251 73.3668 16.2704C72.9122 17.156 72.6881 18.1419 72.7151 19.1371C72.6877 20.1323 72.9118 21.1184 73.3668 22.0038C73.7503 22.7498 74.3361 23.3728 75.0573 23.8013C75.7219 24.1955 76.4798 24.4045 77.2523 24.4065C77.9473 24.4275 78.6358 24.2691 79.2515 23.9466C79.7871 23.655 80.2176 23.2027 80.4821 22.6534L80.6536 24.1725H83.371V9.5625H80.4135V15.5098ZM79.7337 21.1303C79.519 21.3492 79.2624 21.5229 78.9794 21.6407C78.6961 21.7585 78.3921 21.8182 78.0855 21.8162C77.7566 21.8257 77.4294 21.7656 77.1254 21.6401C76.8212 21.5146 76.5468 21.3266 76.3202 21.0879C75.8562 20.6037 75.6242 19.9475 75.6242 19.1189C75.6242 18.2905 75.8562 17.6341 76.3202 17.1499C76.547 16.9116 76.8214 16.7238 77.1254 16.5987C77.4296 16.4735 77.7568 16.4139 78.0855 16.4237C78.3919 16.4218 78.6957 16.4813 78.9788 16.5988C79.262 16.7162 79.5186 16.8893 79.7337 17.1076C80.2045 17.5635 80.4398 18.236 80.4398 19.125C80.4398 20.014 80.2045 20.6824 79.7337 21.1303Z" fill="#00995C"/>
<path d="M88.7421 14.0977H85.7886V24.1544H88.7421V14.0977Z" fill="#00995C"/>
<path d="M87.2722 9.02548C87.0323 9.02304 86.7945 9.06813 86.5722 9.15815C86.3498 9.24819 86.1475 9.38137 85.977 9.55001C85.8019 9.71219 85.6629 9.90927 85.5687 10.1285C85.4745 10.3478 85.4273 10.5844 85.4303 10.823C85.4279 11.0571 85.4755 11.289 85.5697 11.5033C85.6639 11.7175 85.8029 11.9093 85.977 12.0657C86.3274 12.3949 86.7902 12.5782 87.2712 12.5782C87.7519 12.5782 88.2147 12.3949 88.5654 12.0657C88.7399 11.9096 88.8791 11.7179 88.9733 11.5036C89.0677 11.2892 89.1149 11.0571 89.1121 10.823C89.1155 10.5843 89.0685 10.3476 88.9743 10.1282C88.8801 9.90888 88.7409 9.71186 88.5654 9.55001C88.3951 9.38162 88.1931 9.24857 87.9712 9.15855C87.7491 9.06852 87.5117 9.02331 87.2722 9.02548Z" fill="#00995C"/>
<path d="M95.8245 16.432C96.8534 16.432 97.5528 16.8954 97.9226 17.822H100.769C100.605 16.6855 100.012 15.6551 99.1109 14.9432C98.2057 14.2264 97.0894 13.8679 95.762 13.8679C94.7977 13.8521 93.8459 14.0878 93.0002 14.5518C92.2001 14.9953 91.5375 15.6508 91.0856 16.4462C90.6293 17.2675 90.3896 18.1917 90.3896 19.1313C90.3896 20.071 90.6293 20.9952 91.0856 21.8165C91.5375 22.6119 92.2001 23.2674 93.0002 23.7108C93.8459 24.1748 94.7977 24.4105 95.762 24.3947C97.0868 24.3947 98.203 24.035 99.1109 23.3154C100.012 22.6035 100.605 21.5732 100.769 20.4366H97.9226C97.5514 21.3646 96.8522 21.8286 95.8245 21.8286C95.4852 21.8393 95.1473 21.7769 94.834 21.6456C94.5209 21.5145 94.2395 21.3174 94.0089 21.068C93.5529 20.5258 93.303 19.8398 93.303 19.1313C93.303 18.4228 93.5529 17.737 94.0089 17.1946C94.239 16.9447 94.5205 16.7473 94.8338 16.6157C95.1471 16.4841 95.485 16.4215 95.8245 16.432Z" fill="#00995C"/>
<path d="M109.928 15.6609C109.664 15.0986 109.229 14.6341 108.686 14.3334C108.06 14.0049 107.36 13.8444 106.654 13.8674C105.87 13.87 105.099 14.0787 104.421 14.4726C103.691 14.8969 103.098 15.5205 102.71 16.2701C102.254 17.1552 102.029 18.1414 102.057 19.1369C102.029 20.1322 102.254 21.1185 102.71 22.0036C103.096 22.7545 103.69 23.3784 104.421 23.8011C105.101 24.1957 105.872 24.4043 106.658 24.4063C107.359 24.4275 108.053 24.2691 108.676 23.9463C109.215 23.657 109.65 23.2045 109.916 22.6532L110.07 24.1561H112.692V14.0974H110.185L109.928 15.6609ZM109.158 21.13C108.939 21.3503 108.679 21.5246 108.392 21.6425C108.105 21.7603 107.797 21.8194 107.487 21.816C107.151 21.8277 106.815 21.7688 106.503 21.6435C106.19 21.518 105.907 21.3288 105.672 21.0877C105.2 20.6035 104.964 19.9472 104.966 19.1187C104.935 18.402 105.188 17.7021 105.672 17.1719C105.904 16.9253 106.186 16.731 106.499 16.6019C106.812 16.4728 107.149 16.412 107.487 16.4234C107.884 16.4266 108.273 16.5374 108.611 16.7442C108.987 16.9697 109.298 17.2905 109.511 17.6742C109.754 18.116 109.876 18.6144 109.864 19.1187C109.866 20.0104 109.631 20.6808 109.158 21.13Z" fill="#00995C"/>
<path d="M118.122 9.5625H115.168V24.1564H118.122V9.5625Z" fill="#1172D9"/>
<path d="M122.126 9.02548C121.886 9.02304 121.648 9.06813 121.426 9.15815C121.203 9.24819 121.001 9.38137 120.831 9.55001C120.655 9.71219 120.516 9.90927 120.422 10.1285C120.328 10.3478 120.281 10.5844 120.284 10.823C120.281 11.0571 120.329 11.289 120.423 11.5033C120.518 11.7175 120.656 11.9093 120.831 12.0657C121.181 12.3949 121.644 12.5782 122.125 12.5782C122.606 12.5782 123.068 12.3949 123.419 12.0657C123.593 11.9096 123.733 11.7179 123.827 11.5036C123.921 11.2892 123.968 11.0571 123.966 10.823C123.969 10.5843 123.922 10.3476 123.828 10.1282C123.734 9.90888 123.594 9.71186 123.419 9.55001C123.249 9.38162 123.047 9.24857 122.825 9.15855C122.603 9.06852 122.365 9.02331 122.126 9.02548Z" fill="#1172D9"/>
<path d="M123.601 14.0977H120.648V24.1544H123.601V14.0977Z" fill="#1172D9"/>
<path d="M136.134 16.2603C135.748 15.5187 135.163 14.8997 134.444 14.4729C133.78 14.079 133.023 13.87 132.251 13.8676C131.583 13.85 130.921 13.9969 130.324 14.2953C129.798 14.5638 129.365 14.9859 129.083 15.5058V9.5625H126.13V24.1564H128.847L129.019 22.6373C129.284 23.1862 129.714 23.6385 130.249 23.9304C130.866 24.2532 131.555 24.4116 132.251 24.3904C133.023 24.388 133.78 24.179 134.444 23.7852C135.165 23.3567 135.751 22.7337 136.134 21.9877C136.59 21.1024 136.814 20.1161 136.786 19.1209C136.813 18.1277 136.589 17.1438 136.134 16.2603ZM133.181 21.102C132.954 21.3407 132.68 21.5287 132.376 21.6542C132.072 21.7797 131.744 21.8398 131.415 21.8303C131.109 21.8321 130.805 21.7722 130.522 21.6544C130.239 21.5366 129.982 21.3633 129.767 21.1444C129.297 20.6885 129.061 20.0161 129.061 19.127C129.061 18.238 129.297 17.5655 129.767 17.1096C129.983 16.8915 130.239 16.7186 130.522 16.6011C130.805 16.4837 131.109 16.424 131.415 16.4257C131.744 16.4159 132.071 16.4755 132.376 16.6007C132.68 16.7258 132.954 16.9137 133.181 17.152C133.645 17.6375 133.877 18.2938 133.877 19.1209C133.877 19.9481 133.645 20.6064 133.181 21.096V21.102Z" fill="#1172D9"/>
<path d="M28.0313 15.6867C28.4019 14.7862 27.9724 13.7557 27.0718 13.3851C26.1714 13.0145 25.141 13.4441 24.7704 14.3446C24.3998 15.2451 24.8293 16.2755 25.7298 16.6461C26.6302 17.0168 27.6607 16.5872 28.0313 15.6867Z" fill="#00995C"/>
<path d="M30.6821 6C28.9794 6 27.7165 6.38129 26.375 6.95221C25.0314 6.38331 23.7705 6 22.0678 6C17.0687 6 13.2114 9.55869 13.2114 14.578C13.2114 18.7843 15.5355 21.3 18.38 23.975L26.3346 31.4576H26.4153L34.3679 23.975C37.2145 21.3 39.5385 18.7843 39.5385 14.578C39.5385 9.55869 35.6913 6 30.6821 6ZM26.4052 10.9689C28.6486 10.9689 30.3513 12.8531 30.3513 15.0158C30.3513 17.1784 28.7495 19.0627 26.4052 19.0627C24.061 19.0627 22.4572 17.1824 22.4572 15.0178C22.4572 12.8531 24.1599 10.9709 26.4052 10.9709V10.9689ZM32.1992 22.3409L26.379 27.7879L20.5548 22.3409C18.1803 20.1218 16.0055 18.1044 16.0055 14.5679C16.0055 11.0919 18.5313 8.667 22.0073 8.667C22.6361 8.65141 23.2628 8.74562 23.8593 8.9454C22.6343 9.41709 21.5822 10.251 20.8434 11.3359C20.1045 12.4208 19.7138 13.7052 19.7236 15.0178C19.7236 18.7843 22.7376 21.6106 26.4052 21.6106C30.0729 21.6106 33.0869 18.7863 33.0869 15.0178C33.0974 13.6982 32.7038 12.407 31.9591 11.3175C31.2145 10.2281 30.1542 9.39256 28.9209 8.92321C29.507 8.73319 30.1207 8.64318 30.7366 8.65691C34.2126 8.65691 36.7363 11.0778 36.7363 14.5578C36.7424 18.1044 34.5697 20.1077 32.1992 22.3409Z" fill="#00995C"/>
</svg>
