<svg width="151" height="38" viewBox="0 0 151 38" fill="none" xmlns="http://www.w3.org/2000/svg">
<g clip-path="url(#clip0_9746_99)">
<mask id="mask0_9746_99" style="mask-type:alpha" maskUnits="userSpaceOnUse" x="23" y="10" width="10" height="18">
<path fill-rule="evenodd" clip-rule="evenodd" d="M23.1396 10.0742H32.335V27.924H23.1396V10.0742Z" fill="white"/>
</mask>
<g mask="url(#mask0_9746_99)">
<path fill-rule="evenodd" clip-rule="evenodd" d="M27.7482 18.9999C27.7482 15.6968 29.5935 12.8149 32.335 11.2716C30.9852 10.5116 29.4201 10.0742 27.7482 10.0742C26.0677 10.0742 24.494 10.516 23.1396 11.283C25.8695 12.8297 27.7057 15.7052 27.7057 18.9999C27.7057 22.294 25.8695 25.1695 23.1396 26.7163C24.494 27.4832 26.0677 27.925 27.7482 27.925C29.4201 27.925 30.9852 27.4876 32.335 26.7276C29.5935 25.1843 27.7482 22.3029 27.7482 18.9999Z" fill="#5F2BE1"/>
</g>
<mask id="mask1_9746_99" style="mask-type:alpha" maskUnits="userSpaceOnUse" x="10" y="10" width="14" height="18">
<path fill-rule="evenodd" clip-rule="evenodd" d="M10.1553 10.0742H23.1369V27.924H10.1553V10.0742Z" fill="white"/>
</mask>
<g mask="url(#mask1_9746_99)">
<path fill-rule="evenodd" clip-rule="evenodd" d="M18.8363 18.9999C18.8363 15.7052 20.5663 12.8297 23.137 11.283C21.8619 10.516 20.3791 10.0742 18.7968 10.0742C14.024 10.0742 10.1553 14.0704 10.1553 18.9999C10.1553 23.9288 14.024 27.925 18.7968 27.925C20.3791 27.925 21.8619 27.4832 23.137 26.7163C20.5663 25.1695 18.8363 22.294 18.8363 18.9999Z" fill="#00C0FF"/>
</g>
<path fill-rule="evenodd" clip-rule="evenodd" d="M28.005 18.9996C28.005 15.6509 26.2649 12.7283 23.678 11.1562C21.0912 12.7283 19.3506 15.6509 19.3506 18.9996C19.3506 22.3477 21.0912 25.2703 23.678 26.8424C26.2649 25.2703 28.005 22.3477 28.005 18.9996Z" fill="#E91698"/>
<path fill-rule="evenodd" clip-rule="evenodd" d="M28.005 18.9996C28.005 15.6509 26.2649 12.7283 23.678 11.1562C21.0912 12.7283 19.3506 15.6509 19.3506 18.9996C19.3506 22.3477 21.0912 25.2703 23.678 26.8424C26.2649 25.2703 28.005 22.3477 28.005 18.9996Z" fill="#061BB7"/>
<mask id="mask2_9746_99" style="mask-type:alpha" maskUnits="userSpaceOnUse" x="32" y="10" width="14" height="18">
<path fill-rule="evenodd" clip-rule="evenodd" d="M32.8711 10.0742H45.8527V27.924H32.8711V10.0742Z" fill="white"/>
</mask>
<g mask="url(#mask2_9746_99)">
<path fill-rule="evenodd" clip-rule="evenodd" d="M37.1983 10.0742C35.6212 10.0742 34.1443 10.5116 32.8711 11.2716C35.4571 12.8144 37.1983 15.6969 37.1983 18.9998C37.1983 22.3023 35.4571 25.1843 32.8711 26.7275C34.1443 27.4876 35.6212 27.9245 37.1983 27.9245C41.9783 27.9245 45.8527 23.9283 45.8527 18.9998C45.8527 14.0704 41.9783 10.0742 37.1983 10.0742Z" fill="#29CC9A"/>
</g>
<path fill-rule="evenodd" clip-rule="evenodd" d="M37.2012 18.9996C37.2012 15.6474 35.3512 12.7225 32.6035 11.1562C29.8559 12.7225 28.0059 15.6474 28.0059 18.9996C28.0059 22.3518 29.8559 25.2761 32.6035 26.8424C35.3512 25.2761 37.2012 22.3518 37.2012 18.9996Z" fill="#E91698"/>
<path fill-rule="evenodd" clip-rule="evenodd" d="M37.2012 18.9996C37.2012 15.6474 35.3512 12.7225 32.6035 11.1562C29.8559 12.7225 28.0059 15.6474 28.0059 18.9996C28.0059 22.3518 29.8559 25.2761 32.6035 26.8424C35.3512 25.2761 37.2012 22.3518 37.2012 18.9996Z" fill="#122D82"/>
<path fill-rule="evenodd" clip-rule="evenodd" d="M63.6036 22.8451L54.4071 12.2383H53.4277V24.679H54.5903V14.0658L63.8078 24.679H64.7867V12.2383H63.6036V22.8451Z" fill="black"/>
<path fill-rule="evenodd" clip-rule="evenodd" d="M70.7373 24.679H79.3917V23.7525H71.943V18.8432H78.9963V17.8995H71.943V13.1643H79.3917V12.2383H70.7373V24.679Z" fill="black"/>
<path fill-rule="evenodd" clip-rule="evenodd" d="M92.0121 23.1586C91.4793 23.5549 90.649 23.7525 89.5218 23.7525H85.4055V18.8429H89.5218C90.6371 18.8429 91.4636 19.0528 92.0023 19.4722C92.5411 19.8916 92.811 20.5091 92.811 21.3242C92.811 22.1512 92.5443 22.7628 92.0121 23.1586ZM85.4055 13.1648H89.24C90.3423 13.1648 91.1629 13.3595 91.7021 13.7499C92.2403 14.1403 92.5103 14.7137 92.5103 15.471C92.5103 16.2631 92.2344 16.8629 91.6827 17.2705C91.1315 17.6781 90.3169 17.8821 89.24 17.8821H85.4055V13.1648ZM91.5366 18.3069C92.1533 18.0925 92.6579 17.7723 93.0365 17.3318C93.4622 16.8369 93.6754 16.2282 93.6754 15.5058C93.6754 14.4459 93.2994 13.6366 92.5476 13.077C91.7957 12.5183 90.7491 12.2383 89.4087 12.2383H84.2588V24.679H89.597C91.0001 24.679 92.0835 24.3906 92.8483 23.8139C93.6126 23.237 93.995 22.4018 93.995 21.307C93.995 20.4796 93.7538 19.8013 93.2713 19.2711C92.8364 18.7934 92.2522 18.477 91.5366 18.3069Z" fill="black"/>
<path fill-rule="evenodd" clip-rule="evenodd" d="M109.083 19.9273C109.083 21.183 108.744 22.1302 108.067 22.7695C107.389 23.4093 106.397 23.7289 105.092 23.7289C103.761 23.7289 102.758 23.4122 102.08 22.7782C101.402 22.1448 101.063 21.1942 101.063 19.9273V12.2383H99.9443V19.8065C99.9443 21.4076 100.379 22.6201 101.25 23.4437C102.12 24.2672 103.401 24.679 105.092 24.679C106.771 24.679 108.045 24.2672 108.915 23.4437C109.786 22.6201 110.221 21.4076 110.221 19.8065V12.2383H109.083V19.9273Z" fill="black"/>
<path fill-rule="evenodd" clip-rule="evenodd" d="M117.327 12.2383H116.173V24.679H124.286V23.7353H117.327V12.2383Z" fill="black"/>
<path fill-rule="evenodd" clip-rule="evenodd" d="M130.765 21.4336L129.153 24.679L130.776 21.4336H130.765Z" fill="black"/>
<path fill-rule="evenodd" clip-rule="evenodd" d="M134.572 12.2383H133.495L127.532 24.679H128.783L130.793 20.4157H130.808L134.052 13.5842L137.273 20.4157L134.033 13.543L139.283 24.679H140.514L134.572 12.2383Z" fill="black"/>
</g>
<defs>
<clipPath id="clip0_9746_99">
<rect width="130.357" height="17.8498" fill="white" transform="translate(10.1553 10.0742)"/>
</clipPath>
</defs>
</svg>
