<svg width="151" height="38" viewBox="0 0 151 38" fill="none" xmlns="http://www.w3.org/2000/svg">
<g clip-path="url(#clip0_9746_61)">
<path d="M91.306 26.1895V15.057H94.8377L94.8562 16.3825C95.5607 15.3629 96.5988 14.8901 97.8039 14.8901C99.324 14.8901 100.399 15.5946 100.983 16.6977C101.688 15.4926 103.022 14.8901 104.385 14.8901C106.814 14.8901 108.148 16.7162 108.148 19.0243V26.1895H104.552V19.5711C104.552 18.4866 103.866 17.8471 103.032 17.8471C102.198 17.8471 101.512 18.4866 101.512 19.5711V26.1987H97.9151V19.5711C97.9151 18.4866 97.2291 17.8471 96.3949 17.8471C95.5607 17.8471 94.8747 18.4866 94.8747 19.5711V26.1987H91.306V26.1895ZM90.101 21.9534C90.101 24.8176 87.8208 26.4397 84.9102 26.4397C81.9996 26.4397 79.7194 24.8176 79.7194 21.9534V15.057H83.3344V21.8514C83.3344 22.8247 83.974 23.455 84.9102 23.455C85.8464 23.455 86.486 22.834 86.486 21.8514V15.057H90.101V21.9534ZM78.7368 17.9305V15.057H75.7706V12.2113H72.1741V22.2036C72.1741 24.9659 73.8148 26.3563 76.4566 26.3563C77.2259 26.3563 78.0323 26.2729 78.7368 25.9855V23.1398C78.2177 23.3067 77.7635 23.3716 77.3649 23.3716C76.4102 23.3716 75.7614 22.9359 75.7614 21.9163V17.9305H78.7368ZM67.6321 20.6279C67.6321 22.2314 66.4735 23.4087 65.0367 23.4087C63.5814 23.4087 62.4228 22.2222 62.4228 20.6279C62.4228 19.0521 63.5814 17.8656 65.0367 17.8656C66.4642 17.8656 67.6321 19.0521 67.6321 20.6279ZM62.4135 30.509V25.0308C63.3312 25.8836 64.5362 26.3841 65.8617 26.3841C68.8742 26.3841 71.2379 23.8258 71.2379 20.6279C71.2379 17.4485 68.8742 14.8994 65.8617 14.8994C64.4713 14.8994 63.2477 15.437 62.3115 16.3547L62.293 15.0662H58.8077V30.5182H62.4135V30.509ZM53.9042 18.9223C53.9042 21.2026 52.2265 22.9081 50.1223 22.9081C48.0182 22.9081 46.3405 21.2026 46.3405 18.9223C46.3405 16.642 48.0182 14.9365 50.1223 14.9365C52.2265 14.9365 53.9042 16.642 53.9042 18.9223ZM50.1223 11.4883C45.8677 11.4883 42.5215 14.7882 42.5215 18.9223C42.5215 23.0564 45.8677 26.3563 50.1223 26.3563C54.377 26.3563 57.7232 23.0564 57.7232 18.9223C57.7232 14.7882 54.377 11.4883 50.1223 11.4883Z" fill="#FF612B"/>
</g>
<defs>
<clipPath id="clip0_9746_61">
<rect width="65.627" height="19.0207" fill="white" transform="translate(42.5215 11.4883)"/>
</clipPath>
</defs>
</svg>
