<svg width="150" height="36" viewBox="0 0 150 36" fill="none" xmlns="http://www.w3.org/2000/svg">
<path d="M39.0534 11.5363L35.323 7.80595L31.5927 11.5363L33.4578 13.4015L24.0943 22.765L27.8247 26.4953L31.555 22.765L29.6898 20.8998L39.0534 11.5363ZM27.8435 7.78711L18.48 17.1506L22.2103 20.881L31.5738 11.5174L27.8435 7.78711ZM40.9185 13.3826L31.555 22.7461L35.2853 26.4765L44.6489 17.113L40.9185 13.3826Z" fill="#FA582D"/>
<path d="M66.5012 11.4619C65.0505 11.4619 63.5244 11.8576 61.6404 12.8561L62.6766 15.4372C64.3157 14.5329 65.6534 14.1372 66.6331 14.1372C67.7446 14.1372 68.2533 14.5517 68.2533 15.0981V15.1358C68.2533 15.5126 67.9519 15.7198 67.2171 15.7952L65.936 15.927C62.7143 16.2662 61.3767 17.6792 61.3767 19.6009V19.7327C61.3767 21.5791 62.8839 23.0109 65.0316 23.0109C66.4447 23.0109 67.6693 22.408 68.404 21.3718L68.6489 22.8225H71.5692V16.2096C71.588 13.0822 69.7793 11.4619 66.5012 11.4619ZM66.2186 20.5052C65.1447 20.5052 64.6172 20.0907 64.6172 19.4501V19.4125C64.6172 18.8473 64.9374 18.4328 66.1055 18.2632L66.6142 18.1879C67.3678 18.0748 67.82 17.9429 68.2533 17.698V18.5458C68.2721 19.7893 67.462 20.5052 66.2186 20.5052ZM76.8067 7.65625H73.4908V22.8225H76.8067V7.65625ZM55.8188 11.4619C54.3116 11.4619 53.1059 12.1214 52.4276 13.1764L52.1827 11.6503H49.2437V26.6282H52.5595V21.4284C53.2001 22.408 54.387 23.0109 55.8 23.0109C58.4565 23.0109 60.6231 20.6559 60.6231 17.4154V17.0386C60.6231 13.817 58.4565 11.4619 55.8188 11.4619ZM57.213 17.3401C57.213 19.0545 56.3275 20.2791 54.8392 20.2791C53.3508 20.2791 52.4653 19.0545 52.4653 17.3401V17.1517C52.4653 15.4372 53.3508 14.2126 54.8392 14.2126C56.3275 14.2126 57.213 15.4372 57.213 17.1517V17.3401ZM121.571 11.4619C118.18 11.4619 115.787 13.817 115.787 17.0575V17.4343C115.787 20.6747 118.18 23.0298 121.571 23.0298C124.962 23.0298 127.355 20.6747 127.355 17.4343V17.0575C127.355 13.817 124.962 11.4619 121.571 11.4619ZM123.926 17.3401C123.926 19.0545 123.04 20.2791 121.552 20.2791C120.064 20.2791 119.178 19.0545 119.178 17.3401V17.1517C119.178 15.4372 120.064 14.2126 121.552 14.2126C123.04 14.2126 123.926 15.4372 123.926 17.1517V17.3401ZM130.482 12.1402V12.0837C130.482 11.7634 130.237 11.5373 129.804 11.5373H129.05V13.2894H129.408V12.7054H129.804L130.105 13.2894H130.501L130.124 12.5924C130.35 12.517 130.482 12.3474 130.482 12.1402ZM129.389 11.8576H129.785C130.011 11.8576 130.105 11.933 130.105 12.1025V12.1214C130.105 12.2721 130.011 12.3663 129.785 12.3663H129.389V11.8576ZM129.71 10.5953C128.692 10.5953 127.901 11.3677 127.901 12.404C127.901 13.4402 128.673 14.2126 129.71 14.2126C130.727 14.2126 131.518 13.4402 131.518 12.404C131.518 11.3677 130.746 10.5953 129.71 10.5953ZM129.71 13.9677C128.824 13.9677 128.165 13.3271 128.165 12.404C128.165 11.4996 128.805 10.8402 129.71 10.8402C130.595 10.8402 131.255 11.4808 131.255 12.404C131.255 13.3083 130.614 13.9677 129.71 13.9677ZM106.009 7.65625H102.693V22.8225H106.009V7.65625ZM112.565 20.2791C111.604 20.2791 111.246 19.8081 111.246 18.7907V14.2126H115.146V11.6503H111.246V9.0881L107.931 9.57794V19.0922C107.931 21.6921 109.249 23.0109 111.906 23.0109C113.074 23.0109 114.468 22.653 115.598 22.0124L114.656 19.6574C113.978 20.0342 113.055 20.2791 112.565 20.2791ZM95.7221 11.4619C94.2715 11.4619 92.7454 11.8576 90.8614 12.8561L91.8976 15.4372C93.5367 14.5329 94.8743 14.1372 95.854 14.1372C96.9656 14.1372 97.4743 14.5517 97.4743 15.0981V15.1358C97.4743 15.5126 97.1728 15.7198 96.4381 15.7952L95.1569 15.927C91.9353 16.2662 90.5976 17.6792 90.5976 19.6009V19.7327C90.5976 21.5791 92.1237 23.0109 94.2526 23.0109C95.6656 23.0109 96.8902 22.408 97.625 21.3718L97.8699 22.8225H100.809V16.2096C100.809 13.0822 99.0003 11.4619 95.7221 11.4619ZM95.4395 20.5052C94.3657 20.5052 93.8381 20.0907 93.8381 19.4501V19.4125C93.8381 18.8473 94.1584 18.4328 95.3265 18.2632L95.8352 18.1879C96.5888 18.0748 97.0409 17.9429 97.4743 17.698V18.5458C97.4931 19.7893 96.683 20.5052 95.4395 20.5052ZM84.0601 11.4619C80.6689 11.4619 78.2762 13.817 78.2762 17.0575V17.4343C78.2762 20.6747 80.6689 23.0298 84.0601 23.0298C87.4513 23.0298 89.844 20.6747 89.844 17.4343V17.0575C89.844 13.817 87.4513 11.4619 84.0601 11.4619ZM86.434 17.3401C86.434 19.0545 85.5485 20.2791 84.0601 20.2791C82.5718 20.2791 81.6863 19.0545 81.6863 17.3401V17.1517C81.6863 15.4372 82.5718 14.2126 84.0601 14.2126C85.5485 14.2126 86.434 15.4372 86.434 17.1517V17.3401ZM97.6438 25.5167H98.4916L99.6597 27.0615H99.6786V25.5167H100.451V28.2485H99.622L98.4163 26.6659H98.3974V28.2485H97.625V25.5167H97.6438ZM101.487 25.5167H103.88L103.918 26.1761H102.316V26.5529H103.578V27.1557H102.316V27.5891H103.974L103.936 28.2485H101.506V25.5167H101.487ZM105.613 26.2326H104.652L104.69 25.5355H107.365L107.403 26.2326H106.442V28.2673H105.613V26.2326ZM108.062 25.5167H108.929L109.381 27.4195H109.419L110.003 25.5167H110.794L111.359 27.4195H111.397L111.83 25.5167H112.659L111.943 28.2485H110.87L110.38 26.6094H110.361L109.852 28.2485H108.778L108.062 25.5167ZM113.281 26.892C113.281 26.0065 113.884 25.4413 114.845 25.4413C115.806 25.4413 116.409 26.0065 116.409 26.892C116.409 27.7775 115.806 28.3427 114.845 28.3427C113.884 28.3427 113.281 27.7775 113.281 26.892ZM115.58 26.892C115.58 26.421 115.316 26.1384 114.826 26.1384C114.336 26.1384 114.072 26.421 114.072 26.892C114.072 27.363 114.336 27.6456 114.807 27.6456C115.297 27.6456 115.58 27.363 115.58 26.892ZM117.275 25.5167H118.858C119.574 25.5167 119.932 25.8558 119.932 26.4963C119.932 26.9297 119.743 27.2311 119.404 27.363L120.045 28.2485H119.122L118.613 27.5325H118.066V28.2485H117.256V25.5167H117.275ZM118.764 26.892C119.027 26.892 119.14 26.7413 119.14 26.534C119.14 26.3268 119.046 26.1761 118.764 26.1761H118.104V26.892H118.764ZM121.006 25.5167H121.816V26.5152H122.155L122.946 25.5167H123.869L122.833 26.8166L123.945 28.2296H122.984L122.155 27.1746H121.816V28.2296H121.006V25.5167ZM124.585 28.0789V27.3253C125.037 27.5514 125.489 27.6644 125.866 27.6644C126.168 27.6644 126.3 27.5891 126.3 27.4572C126.3 27.3253 126.205 27.2876 125.621 27.1934C124.981 27.0992 124.547 26.892 124.547 26.3456C124.547 25.8369 125 25.4413 125.866 25.4413C126.224 25.4413 126.582 25.5167 126.921 25.6674V26.4021C126.601 26.2137 126.168 26.1007 125.81 26.1007C125.489 26.1007 125.376 26.1761 125.376 26.3079C125.376 26.4775 125.565 26.4775 126.055 26.5717C126.695 26.6847 127.11 26.8543 127.11 27.4383C127.11 27.8905 126.771 28.3427 125.81 28.3427C125.358 28.3238 124.981 28.2296 124.585 28.0789Z" fill="black"/>
</svg>
