<svg width="151" height="38" viewBox="0 0 151 38" fill="none" xmlns="http://www.w3.org/2000/svg">
<mask id="mask0_9746_64" style="mask-type:luminance" maskUnits="userSpaceOnUse" x="23" y="0" width="104" height="38">
<path d="M23.334 0H126.334V38H23.334V0Z" fill="white"/>
</mask>
<g mask="url(#mask0_9746_64)">
<path d="M70.957 24.7016C70.957 22.1543 72.7053 20.9009 74.5688 20.9009C76.1951 20.9009 77.381 21.8155 77.6859 23.2586L76.7372 23.4821C76.5068 22.4185 75.7072 21.7749 74.5688 21.7749C73.0441 21.7749 71.9803 22.7979 71.9803 24.7016C71.9803 26.5986 73.0848 27.6283 74.5688 27.6283C75.7072 27.6283 76.4662 27.0186 76.7372 25.9956L77.6859 26.2192C77.3064 27.6283 76.1612 28.5023 74.5688 28.5023C72.7053 28.5023 70.957 27.2828 70.957 24.7016ZM84.9027 26.524H81.5958L80.8776 28.421H79.8882L82.8156 21.0161H83.6897L86.651 28.421H85.6752L84.9095 26.524H84.9027ZM84.6045 25.6907L83.2696 22.2694L81.9414 25.6907H84.6045ZM94.2947 28.421L92.2414 25.1149H90.6083V28.421H89.6597V21.0161H92.316C93.7255 21.0161 94.6335 21.8088 94.6335 23.0689C94.6388 23.49 94.5086 23.9017 94.2622 24.2432C94.0157 24.5847 93.666 24.8381 93.2647 24.9658L95.3924 28.421H94.2947ZM90.6083 24.2409H92.2008C93.1156 24.2409 93.6441 23.8277 93.6441 23.0689C93.6441 22.3033 93.1156 21.8494 92.2008 21.8494H90.6083V24.2409ZM98.435 21.0161H101.132C102.541 21.0161 103.416 21.6936 103.416 22.9131C103.416 23.5973 102.921 24.1664 102.426 24.3561C103.185 24.6271 103.714 25.2368 103.714 26.253C103.714 27.5877 102.806 28.421 101.288 28.421H98.4418V21.0161H98.435ZM101.098 24.0512C101.972 24.0512 102.467 23.6718 102.467 22.9537C102.467 22.1949 101.972 21.8494 101.098 21.8494H99.4243V24.0919H101.098V24.0512ZM101.132 27.547C102.203 27.547 102.772 27.0931 102.772 26.2192C102.772 25.3452 102.203 24.8913 101.132 24.8913H99.4243V27.547H101.132ZM106.377 24.7016C106.377 22.493 107.902 20.9009 110.029 20.9009C112.116 20.9009 113.675 22.493 113.675 24.6948C113.675 26.9034 112.157 28.5023 110.029 28.5023C107.902 28.5023 106.377 26.9034 106.377 24.7016ZM112.686 24.7016C112.686 22.9876 111.588 21.7749 110.029 21.7749C108.505 21.7749 107.366 23.0282 107.366 24.7016C107.366 26.4089 108.505 27.6283 110.029 27.6283C111.588 27.6283 112.686 26.4089 112.686 24.7016ZM116.677 21.0161H117.741L121.468 26.9102V21.0161H122.416V28.421H121.352L117.626 22.5337V28.4278H116.677V21.0093V21.0161ZM76.3171 11.3213C76.3171 10.068 75.4023 9.27533 73.9996 9.27533H71.3365V16.6802H72.2852V13.3741H73.9183L75.9715 16.6802H77.076L74.9483 13.2251C75.3526 13.1021 75.7054 12.85 75.9527 12.5074C76.1999 12.1647 76.328 11.7505 76.3171 11.3281V11.3213ZM73.8776 12.5001H72.2852V10.1086H73.8844C74.7924 10.1086 75.3278 10.5625 75.3278 11.3281C75.3278 12.0869 74.7924 12.5001 73.8844 12.5001H73.8776ZM84.1099 14.1735C84.1099 15.2372 83.3441 15.8808 82.2125 15.8808C81.0605 15.8808 80.3422 15.2372 80.3422 14.1735V9.2821H79.3935V14.1397C79.3935 15.813 80.532 16.8022 82.2057 16.8022C83.9201 16.8022 85.0179 15.813 85.0179 14.1397V9.2821H84.0692V14.1803H84.1099V14.1735ZM92.6955 12.6153C93.1901 12.385 93.6848 11.8565 93.6848 11.1723C93.6848 9.95281 92.8106 9.27533 91.408 9.27533H88.7042V16.6802H91.5503C93.0749 16.6802 93.9897 15.8469 93.9897 14.5123C93.9897 13.496 93.4544 12.8863 92.7022 12.6153H92.6955ZM89.6935 10.1086H91.3673C92.2414 10.1086 92.7361 10.488 92.7361 11.2129C92.7361 11.9311 92.2414 12.3104 91.3673 12.3104H89.6935V10.1086ZM91.4012 15.8063H89.6935V13.1505H91.4012C92.4718 13.1505 93.041 13.6044 93.041 14.4784C93.041 15.3523 92.4718 15.8063 91.4012 15.8063ZM98.2791 9.27533H97.3305V16.6802H98.2791V9.2821V9.27533ZM104.852 10.0273C106.004 10.0273 106.797 10.6371 107.021 11.7414L107.969 11.5178C107.671 10.068 106.458 9.16016 104.852 9.16016C102.995 9.16016 101.247 10.4135 101.247 12.9541C101.247 15.5014 102.995 16.7615 104.859 16.7615C106.458 16.7615 107.637 15.8808 107.976 14.4784L107.027 14.2887C106.756 15.3117 105.997 15.9214 104.859 15.9214C103.334 15.9214 102.277 14.8984 102.277 12.9947C102.277 11.0978 103.375 10.0341 104.852 10.0341V10.0273ZM113.98 9.19403C111.852 9.19403 110.334 10.7929 110.334 12.9947C110.334 15.2033 111.852 16.7954 113.98 16.7954C116.074 16.7954 117.632 15.2033 117.632 13.0015C117.592 10.7929 116.074 9.19403 113.98 9.19403ZM113.939 15.9214C112.421 15.9214 111.283 14.702 111.283 12.9947C111.283 11.2875 112.421 10.068 113.946 10.068C115.505 10.068 116.602 11.3213 116.602 12.9947C116.643 14.6681 115.498 15.9214 113.946 15.9214H113.939ZM125.079 9.27533V15.1627L121.352 9.26855H120.289V16.6802H121.203V10.7861L124.964 16.6802H126.028V9.2821H125.079V9.27533Z" fill="#094436"/>
<path d="M52.1049 17.5958V19.9873H49.706V17.5958H52.1049ZM54.5376 17.5958V19.9873H56.9296V17.5958H54.5376ZM59.3284 17.5958V19.9873H61.7205V17.5958H59.3284ZM51.8406 21.3558L50.9258 23.5577L53.1281 24.4723L54.0429 22.2704L51.8406 21.3558ZM56.2858 23.2189L55.371 25.4207L57.5733 26.3353L58.4882 24.1335L56.2858 23.2189ZM48.4524 23.0699L46.7448 24.7771L48.4524 26.4844L50.1668 24.7771L48.4524 23.0699ZM51.8406 26.4505L50.1262 28.1578L51.8406 29.8718L53.5482 28.1578L51.8406 26.4505ZM55.2558 29.8311L53.5482 31.5384L55.2558 33.2524L56.9703 31.5384L55.2558 29.8311ZM47.3208 27.2093L45.1185 28.1239L46.0265 30.3257L48.2356 29.4111L47.3208 27.2093ZM49.1504 31.6536L46.9413 32.5682L47.8561 34.77L50.0584 33.8554L49.1436 31.6536H49.1504ZM41.3034 9.19502H43.6955V6.80351H41.3034V9.19502ZM41.3034 4.412H43.6955V2.01371H41.3034V4.412ZM43.5803 11.5933L45.8639 12.3521L46.6228 10.069L44.346 9.3102L43.5803 11.5933ZM45.071 7.03386L47.3479 7.79264L48.1068 5.50952L45.8232 4.75074L45.0643 7.03386H45.071ZM46.5483 2.4744L48.8251 3.23318L49.5908 0.950062L47.314 0.191282L46.5551 2.4744H46.5483ZM47.192 10.3332L49.1301 11.7424L50.5395 9.80476L48.6015 8.40237L47.192 10.34V10.3332ZM50.0042 6.458L51.9422 7.86716L53.3517 5.92956L51.4137 4.5204L50.0042 6.458ZM47.6596 13.6054L49.0623 15.543L51.0003 14.1339L49.5976 12.1963L47.6596 13.6054ZM51.5357 10.7939L52.9383 12.7315L54.8764 11.3223L53.4737 9.38472L51.5357 10.7939ZM55.4117 7.98233L56.8144 9.91993L58.7524 8.51077L57.3497 6.57317L55.4117 7.98233ZM51.2646 14.7097L52.0303 16.9861L54.3072 16.2273L53.5482 13.9442L51.2646 14.7097ZM55.8251 13.2193L56.5908 15.5024L58.8676 14.7436L58.1087 12.4673L55.8251 13.226V13.2193ZM32.9076 19.9941V17.5958H30.5155V19.9873H32.9076V19.9941ZM28.1235 19.9941V17.5958H25.7247V19.9873H28.1235V19.9941ZM35.2589 18.0904L35.8688 15.7734L33.5513 15.1636L32.9414 17.4806L35.2589 18.0904ZM30.6239 16.8709L31.2338 14.5539L28.9095 13.9442L28.2997 16.2679L30.6239 16.8777V16.8709ZM25.9889 15.6176L26.5988 13.3006L24.2745 12.6908L23.6647 15.0078L25.9889 15.6176ZM33.5852 15.0485L34.8049 12.9618L32.711 11.783L31.4913 13.8697L33.592 15.0485H33.5852ZM29.4449 12.657L30.6646 10.5635L28.5639 9.34407L27.351 11.4443L29.4449 12.657ZM36.5871 14.5539L38.3015 12.8467L36.5871 11.1326L34.8795 12.8467L36.5871 14.5539ZM33.1718 11.1733L34.8795 9.46602L33.1718 7.75199L31.4642 9.46602L33.1786 11.1733H33.1718ZM29.7837 7.78586L31.4981 6.07861L29.7837 4.37135L28.076 6.07861L29.7837 7.79264V7.78586ZM36.6684 11.0987L38.7555 9.87928L37.5358 7.79264L35.4893 9.0121L36.6684 11.0987ZM34.2696 6.95256L36.3635 5.73309L35.1437 3.64644L33.0566 4.86591L34.2764 6.95256H34.2696ZM39.4806 12.1624L41.7981 11.5527L41.1882 9.23567L38.8707 9.84541L39.4806 12.1624ZM38.2608 7.52842L40.5783 6.91868L39.9685 4.60169L37.651 5.21143L38.2608 7.52842ZM37.0208 2.88766L39.3383 2.27793L38.7284 -0.0390625L36.4109 0.570672L37.0208 2.88766ZM43.709 25.9898H41.317V28.3881H43.709V25.9898ZM43.709 30.8203H41.317V33.2118H43.709V30.827V30.8203ZM43.709 35.6033H41.317V38.0016H43.709V35.6033ZM42.0353 28.4626L39.6839 28.0426L39.2637 30.4002L41.6219 30.8203L42.0353 28.4626ZM41.2018 33.1779L38.8436 32.7579L38.4303 35.1155L40.7816 35.5288L41.2018 33.1779ZM41.2018 25.9966L38.9182 25.1497L38.0779 27.3922L40.3208 28.2255L41.2018 25.9898V25.9966ZM39.5687 30.4748L37.3257 29.6414L36.4922 31.8771L38.7284 32.7172L39.5687 30.4815V30.4748ZM37.8949 35.0003L35.6587 34.1603L34.8185 36.4027L37.0547 37.2428L37.8949 35.0003ZM38.7758 27.7038L36.6752 26.4844L35.4622 28.5778L37.5561 29.7973L38.7758 27.6971V27.7038ZM36.377 31.8839L34.2832 30.6644L33.0634 32.7579L35.1641 33.9773L36.377 31.8771V31.8839ZM38.8097 25.082L36.9801 23.5577L35.4216 25.3869L37.2512 26.9451L38.8097 25.082ZM35.7265 28.7675L33.9037 27.2093L32.3451 29.0385L34.1747 30.5967L35.7333 28.7675H35.7265ZM32.6501 32.453L30.8205 30.8948L29.2619 32.724L31.0915 34.2822L32.6501 32.453ZM35.9569 25.8814L34.3983 24.0522L32.5687 25.6104L34.1273 27.4396L35.9569 25.8814ZM32.2706 28.9978L30.712 27.1686L28.8824 28.7268L30.441 30.556L32.2706 28.9978ZM36.9056 23.4425L35.6858 21.3558L33.5987 22.5753L34.8185 24.662L36.9056 23.4425ZM32.7246 25.8408L31.5049 23.7541L29.4178 24.9668L30.6375 27.0602L32.7246 25.8408ZM28.5843 28.2323L27.3645 26.1456L25.3181 27.3651L26.5378 29.4518L28.5843 28.2323ZM33.9037 23.2189L33.0702 20.9832L30.8272 21.8097L31.6607 24.0522L33.9037 23.2189ZM29.4178 24.8516L28.5843 22.616L26.3413 23.4493L27.1748 25.685L29.4178 24.8516ZM35.652 21.2407L35.2318 18.8898L32.8805 19.3031L33.2938 21.6607L35.652 21.2407ZM30.9085 22.0807L30.4816 19.7231L28.1303 20.1431L28.5436 22.494L30.9018 22.0807H30.9085ZM26.1787 22.914L25.7585 20.5564L23.4004 20.9764L23.8205 23.3341L26.1787 22.914Z" fill="#9AB79A"/>
</g>
</svg>
