<svg width="151" height="38" viewBox="0 0 151 38" fill="none" xmlns="http://www.w3.org/2000/svg">
<g clip-path="url(#clip0_9746_132)">
<mask id="mask0_9746_132" style="mask-type:luminance" maskUnits="userSpaceOnUse" x="33" y="7" width="85" height="24">
<path d="M117.668 7.69141H33.002V30.3041H117.668V7.69141Z" fill="white"/>
</mask>
<g mask="url(#mask0_9746_132)">
<path d="M50.1793 14.2618C50.8591 14.2618 51.4103 13.7013 51.4103 13.0098C51.4103 12.3184 50.8591 11.7578 50.1793 11.7578C49.4994 11.7578 48.9482 12.3184 48.9482 13.0098C48.9482 13.7013 49.4994 14.2618 50.1793 14.2618Z" fill="#7A3EDE"/>
<path d="M46.1929 14.2618C46.8728 14.2618 47.424 13.7013 47.424 13.0098C47.424 12.3184 46.8728 11.7578 46.1929 11.7578C45.5131 11.7578 44.9619 12.3184 44.9619 13.0098C44.9619 13.7013 45.5131 14.2618 46.1929 14.2618Z" fill="#7A3EDE"/>
<path d="M42.2057 14.2618C42.8855 14.2618 43.4367 13.7013 43.4367 13.0098C43.4367 12.3184 42.8855 11.7578 42.2057 11.7578C41.5258 11.7578 40.9746 12.3184 40.9746 13.0098C40.9746 13.7013 41.5258 14.2618 42.2057 14.2618Z" fill="#7A3EDE"/>
<path d="M38.2174 14.2618C38.8972 14.2618 39.4484 13.7013 39.4484 13.0098C39.4484 12.3184 38.8972 11.7578 38.2174 11.7578C37.5375 11.7578 36.9863 12.3184 36.9863 13.0098C36.9863 13.7013 37.5375 14.2618 38.2174 14.2618Z" fill="#7A3EDE"/>
<path d="M34.233 14.2618C34.9129 14.2618 35.464 13.7013 35.464 13.0098C35.464 12.3184 34.9129 11.7578 34.233 11.7578C33.5531 11.7578 33.002 12.3184 33.002 13.0098C33.002 13.7013 33.5531 14.2618 34.233 14.2618Z" fill="#7A3EDE"/>
<path d="M38.2174 22.3282C38.8972 22.3282 39.4484 21.7677 39.4484 21.0762C39.4484 20.3847 38.8972 19.8242 38.2174 19.8242C37.5375 19.8242 36.9863 20.3847 36.9863 21.0762C36.9863 21.7677 37.5375 22.3282 38.2174 22.3282Z" fill="#7A3EDE"/>
<path d="M34.233 18.3282C34.9129 18.3282 35.464 17.7677 35.464 17.0762C35.464 16.3847 34.9129 15.8242 34.233 15.8242C33.5531 15.8242 33.002 16.3847 33.002 17.0762C33.002 17.7677 33.5531 18.3282 34.233 18.3282Z" fill="#7A3EDE"/>
<path d="M46.1929 10.1954C46.8728 10.1954 47.424 9.63489 47.424 8.94342C47.424 8.25195 46.8728 7.69141 46.1929 7.69141C45.5131 7.69141 44.9619 8.25195 44.9619 8.94342C44.9619 9.63489 45.5131 10.1954 46.1929 10.1954Z" fill="#7A3EDE"/>
<path d="M42.2057 10.1954C42.8855 10.1954 43.4367 9.63489 43.4367 8.94342C43.4367 8.25195 42.8855 7.69141 42.2057 7.69141C41.5258 7.69141 40.9746 8.25195 40.9746 8.94342C40.9746 9.63489 41.5258 10.1954 42.2057 10.1954Z" fill="#7A3EDE"/>
<path d="M38.2174 10.1954C38.8972 10.1954 39.4484 9.63489 39.4484 8.94342C39.4484 8.25195 38.8972 7.69141 38.2174 7.69141C37.5375 7.69141 36.9863 8.25195 36.9863 8.94342C36.9863 9.63489 37.5375 10.1954 38.2174 10.1954Z" fill="#7A3EDE"/>
<path d="M34.233 26.2384C34.9129 26.2384 35.464 25.6779 35.464 24.9864C35.464 24.2949 34.9129 23.7344 34.233 23.7344C33.5531 23.7344 33.002 24.2949 33.002 24.9864C33.002 25.6779 33.5531 26.2384 34.233 26.2384Z" fill="#7A3EDE"/>
<path d="M38.2174 26.2384C38.8972 26.2384 39.4484 25.6779 39.4484 24.9864C39.4484 24.2949 38.8972 23.7344 38.2174 23.7344C37.5375 23.7344 36.9863 24.2949 36.9863 24.9864C36.9863 25.6779 37.5375 26.2384 38.2174 26.2384Z" fill="#7A3EDE"/>
<path d="M42.2057 26.2384C42.8855 26.2384 43.4367 25.6779 43.4367 24.9864C43.4367 24.2949 42.8855 23.7344 42.2057 23.7344C41.5258 23.7344 40.9746 24.2949 40.9746 24.9864C40.9746 25.6779 41.5258 26.2384 42.2057 26.2384Z" fill="#7A3EDE"/>
<path d="M46.1929 26.2384C46.8728 26.2384 47.424 25.6779 47.424 24.9864C47.424 24.2949 46.8728 23.7344 46.1929 23.7344C45.5131 23.7344 44.9619 24.2949 44.9619 24.9864C44.9619 25.6779 45.5131 26.2384 46.1929 26.2384Z" fill="#7A3EDE"/>
<path d="M50.1793 26.2384C50.8591 26.2384 51.4103 25.6779 51.4103 24.9864C51.4103 24.2949 50.8591 23.7344 50.1793 23.7344C49.4994 23.7344 48.9482 24.2949 48.9482 24.9864C48.9482 25.6779 49.4994 26.2384 50.1793 26.2384Z" fill="#7A3EDE"/>
<path d="M38.2174 18.3282C38.8972 18.3282 39.4484 17.7677 39.4484 17.0762C39.4484 16.3847 38.8972 15.8242 38.2174 15.8242C37.5375 15.8242 36.9863 16.3847 36.9863 17.0762C36.9863 17.7677 37.5375 18.3282 38.2174 18.3282Z" fill="#7A3EDE"/>
<path d="M46.1929 22.3282C46.8728 22.3282 47.424 21.7677 47.424 21.0762C47.424 20.3847 46.8728 19.8242 46.1929 19.8242C45.5131 19.8242 44.9619 20.3847 44.9619 21.0762C44.9619 21.7677 45.5131 22.3282 46.1929 22.3282Z" fill="#7A3EDE"/>
<path d="M46.1929 18.3282C46.8728 18.3282 47.424 17.7677 47.424 17.0762C47.424 16.3847 46.8728 15.8242 46.1929 15.8242C45.5131 15.8242 44.9619 16.3847 44.9619 17.0762C44.9619 17.7677 45.5131 18.3282 46.1929 18.3282Z" fill="#7A3EDE"/>
<path d="M50.1793 22.3282C50.8591 22.3282 51.4103 21.7677 51.4103 21.0762C51.4103 20.3847 50.8591 19.8242 50.1793 19.8242C49.4994 19.8242 48.9482 20.3847 48.9482 21.0762C48.9482 21.7677 49.4994 22.3282 50.1793 22.3282Z" fill="#7A3EDE"/>
<path d="M38.2174 30.3048C38.8972 30.3048 39.4484 29.7443 39.4484 29.0528C39.4484 28.3613 38.8972 27.8008 38.2174 27.8008C37.5375 27.8008 36.9863 28.3613 36.9863 29.0528C36.9863 29.7443 37.5375 30.3048 38.2174 30.3048Z" fill="#7A3EDE"/>
<path d="M42.2057 30.3048C42.8855 30.3048 43.4367 29.7443 43.4367 29.0528C43.4367 28.3613 42.8855 27.8008 42.2057 27.8008C41.5258 27.8008 40.9746 28.3613 40.9746 29.0528C40.9746 29.7443 41.5258 30.3048 42.2057 30.3048Z" fill="#7A3EDE"/>
<path d="M46.1929 30.3048C46.8728 30.3048 47.424 29.7443 47.424 29.0528C47.424 28.3613 46.8728 27.8008 46.1929 27.8008C45.5131 27.8008 44.9619 28.3613 44.9619 29.0528C44.9619 29.7443 45.5131 30.3048 46.1929 30.3048Z" fill="#7A3EDE"/>
<path d="M63.0762 21.6988C63.1263 24.2538 64.4168 26.1111 68.1726 26.1111C71.5117 26.1111 72.536 24.9451 72.536 23.0368C72.536 21.3006 71.634 20.4341 69.5854 20.0868L65.7575 19.4911C62.929 19.0705 61.6384 17.6561 61.6384 15.1775C61.6384 12.5238 63.6118 10.418 67.8061 10.418C72.0004 10.418 74.1461 12.6002 74.3654 15.7733H72.4139C72.1946 13.5432 70.8289 12.03 67.7811 12.03C64.9055 12.03 63.6839 13.2947 63.6839 15.1297C63.6839 16.42 64.2947 17.4363 66.1209 17.7325L70.168 18.3538C73.0435 18.8253 74.5815 20.1155 74.5815 22.7661C74.5815 25.9136 72.6801 27.7263 68.1695 27.7263C62.9039 27.7263 61.0996 24.9483 61.0996 21.702H63.0731L63.0762 21.6988Z" fill="#190041"/>
<path d="M80.0197 23.1381L78.4347 27.3529H76.4111L82.5538 10.8633H85.5515L91.6941 27.3529H89.6458L84.0386 12.351L80.6242 21.4751L80.0134 23.1349L80.0197 23.1381Z" fill="#190041"/>
<path d="M97.2199 25.6899H105.705V27.3497H95.1963V10.8633H97.2199V25.6899Z" fill="#190041"/>
<path d="M79.7812 21.4766H87.4589C87.4589 22.4068 86.7163 23.165 85.7987 23.165H79.7812V21.4766Z" fill="#190041"/>
<path d="M109.877 12.5231H104.035V10.8633H117.667V12.5231H111.875" fill="#190041"/>
<path d="M111.872 14.5528V27.35H109.877V12.5234C110.98 12.5234 111.872 13.4314 111.872 14.5528Z" fill="#190041"/>
</g>
</g>
<defs>
<clipPath id="clip0_9746_132">
<rect width="84.666" height="22.6127" fill="white" transform="translate(33.002 7.69141)"/>
</clipPath>
</defs>
</svg>
