<svg width="151" height="38" viewBox="0 0 151 38" fill="none" xmlns="http://www.w3.org/2000/svg">
<path d="M32.3851 28.8588C32.3375 28.8349 32.2928 28.8051 32.2511 28.7694C32.2094 28.7337 32.1707 28.695 32.135 28.6533C32.0993 28.6056 32.0725 28.558 32.0546 28.5103C32.0308 28.4567 32.0129 28.4031 32.001 28.3495C32.001 28.2959 32.004 28.2393 32.0099 28.1798C32.0159 28.1262 32.0248 28.0696 32.0367 28.01C32.0546 27.9564 32.0754 27.9058 32.0993 27.8581C32.1231 27.8045 32.1529 27.7539 32.1886 27.7062L32.4298 27.3489C32.4536 27.3012 32.4834 27.2566 32.5192 27.2149C32.5549 27.1791 32.5966 27.1434 32.6442 27.1077C32.6859 27.0779 32.7306 27.0541 32.7783 27.0362C32.8259 27.0124 32.8765 26.9945 32.9301 26.9826C32.9897 26.9826 33.0463 26.9826 33.0999 26.9826C33.1594 26.9885 33.216 27.0004 33.2696 27.0183C33.3232 27.0302 33.3768 27.0481 33.4304 27.0719C33.484 27.0898 33.5347 27.1136 33.5823 27.1434C33.8265 27.2804 34.1392 27.4323 34.5204 27.599C34.6276 27.6407 34.7348 27.6794 34.842 27.7152C34.9552 27.745 35.0684 27.7718 35.1815 27.7956C35.2947 27.8135 35.4109 27.8283 35.53 27.8403C35.6431 27.8462 35.7593 27.8492 35.8784 27.8492C35.9677 27.8552 36.0571 27.8522 36.1464 27.8403C36.2417 27.8343 36.334 27.8194 36.4234 27.7956C36.5127 27.7718 36.5991 27.739 36.6825 27.6973C36.7659 27.6616 36.8463 27.6169 36.9237 27.5633C36.9833 27.5216 37.0369 27.474 37.0845 27.4204C37.1322 27.3608 37.1739 27.2983 37.2096 27.2327C37.2453 27.1672 37.2692 27.0987 37.2811 27.0272C37.2989 26.9498 37.3049 26.8754 37.2989 26.8039C37.3049 26.7324 37.2989 26.6639 37.2811 26.5984C37.2632 26.5388 37.2394 26.4793 37.2096 26.4197C37.1739 26.3602 37.1322 26.3036 37.0845 26.25C37.0369 26.2023 36.9862 26.1606 36.9326 26.1249C36.8552 26.0772 36.7778 26.0326 36.7003 25.9909C36.6229 25.9492 36.5455 25.9075 36.4681 25.8658C36.3906 25.8301 36.3102 25.7943 36.2268 25.7586C36.1435 25.7229 36.0601 25.6901 35.9767 25.6603L34.7438 25.2136C34.6366 25.1779 34.5293 25.1362 34.4221 25.0885C34.3149 25.0468 34.2107 24.9992 34.1094 24.9456C34.0082 24.8979 33.9069 24.8443 33.8057 24.7848C33.7104 24.7312 33.6121 24.6746 33.5109 24.615C33.4156 24.5555 33.3262 24.4899 33.2428 24.4185C33.1535 24.353 33.0701 24.2815 32.9927 24.2041C32.9152 24.1266 32.8408 24.0432 32.7693 23.9539C32.6978 23.8705 32.6293 23.7812 32.5638 23.6859C32.5043 23.5787 32.4507 23.4655 32.403 23.3464C32.3554 23.2273 32.3196 23.1081 32.2958 22.989C32.266 22.8639 32.2452 22.7389 32.2333 22.6138C32.2214 22.4887 32.2184 22.3636 32.2243 22.2385C32.2243 22.1254 32.2303 22.0092 32.2422 21.8901C32.2541 21.7769 32.272 21.6638 32.2958 21.5506C32.3256 21.4434 32.3613 21.3362 32.403 21.229C32.4388 21.1158 32.4834 21.0086 32.537 20.9073C32.5847 20.812 32.6413 20.7197 32.7068 20.6304C32.7663 20.541 32.8319 20.4547 32.9033 20.3713C32.9748 20.2939 33.0493 20.2194 33.1267 20.1479C33.2101 20.0765 33.2964 20.008 33.3858 19.9425C33.4751 19.8769 33.5704 19.8144 33.6717 19.7548C33.7729 19.6953 33.8742 19.6417 33.9754 19.594C34.0826 19.5464 34.1898 19.5017 34.2971 19.46C34.4043 19.4243 34.5145 19.3915 34.6276 19.3617C34.7527 19.326 34.8778 19.2962 35.0029 19.2724C35.1279 19.2426 35.253 19.2218 35.3781 19.2099C35.5032 19.192 35.6282 19.1771 35.7533 19.1652C35.8844 19.1592 36.0124 19.1562 36.1375 19.1562C36.2864 19.1562 36.4323 19.1592 36.5753 19.1652C36.7242 19.1771 36.8731 19.192 37.022 19.2099C37.1649 19.2337 37.3079 19.2635 37.4508 19.2992C37.5938 19.3349 37.7367 19.3766 37.8797 19.4243C37.975 19.4541 38.0703 19.4898 38.1656 19.5315C38.2608 19.5672 38.3532 19.6059 38.4425 19.6476C38.5378 19.6893 38.6301 19.734 38.7195 19.7816C38.8088 19.8293 38.9011 19.8769 38.9964 19.9246C39.0441 19.9484 39.0917 19.9752 39.1394 20.005C39.1811 20.0407 39.2198 20.0824 39.2555 20.1301C39.2913 20.1718 39.321 20.2164 39.3449 20.2641C39.3687 20.3177 39.3866 20.3713 39.3985 20.4249C39.4044 20.4785 39.4074 20.5351 39.4074 20.5947C39.4074 20.6483 39.4044 20.7019 39.3985 20.7555C39.3866 20.8091 39.3717 20.8627 39.3538 20.9163C39.3419 20.9699 39.321 21.0205 39.2913 21.0682L39.0947 21.4345C39.0709 21.4821 39.0441 21.5298 39.0143 21.5774C38.9845 21.6191 38.9488 21.6578 38.9071 21.6936C38.8714 21.7352 38.8297 21.768 38.782 21.7918C38.7344 21.8216 38.6837 21.8425 38.6301 21.8544C38.5765 21.8663 38.5199 21.8722 38.4604 21.8722C38.4008 21.8722 38.3442 21.8663 38.2906 21.8544C38.237 21.8484 38.1804 21.8365 38.1209 21.8186C38.0673 21.8008 38.0167 21.7769 37.969 21.7472C37.8975 21.7174 37.829 21.6876 37.7635 21.6578C37.698 21.628 37.6295 21.6012 37.558 21.5774C37.4925 21.5476 37.424 21.5208 37.3525 21.497C37.2811 21.4732 37.2096 21.4494 37.1381 21.4255C37.0488 21.3957 36.9594 21.3689 36.8701 21.3451C36.7748 21.3213 36.6795 21.3034 36.5842 21.2915C36.4889 21.2736 36.3936 21.2617 36.2983 21.2558C36.203 21.2498 36.1077 21.2498 36.0124 21.2558C35.929 21.2498 35.8427 21.2498 35.7533 21.2558C35.664 21.2677 35.5776 21.2826 35.4942 21.3004C35.4109 21.3243 35.3275 21.3541 35.2441 21.3898C35.1607 21.4255 35.0833 21.4672 35.0118 21.5149C34.9522 21.5566 34.8986 21.6042 34.851 21.6578C34.8033 21.7114 34.7646 21.771 34.7348 21.8365C34.7051 21.902 34.6812 21.9705 34.6634 22.042C34.6514 22.1135 34.6455 22.1849 34.6455 22.2564C34.6455 22.3279 34.6544 22.3964 34.6723 22.4619C34.6902 22.5274 34.714 22.5899 34.7438 22.6495C34.7795 22.7091 34.8212 22.7627 34.8688 22.8103C34.9105 22.8639 34.9612 22.9086 35.0207 22.9443C35.0922 22.992 35.1667 23.0367 35.2441 23.0783C35.3215 23.126 35.3989 23.1677 35.4764 23.2034C35.5538 23.2392 35.6342 23.2749 35.7176 23.3106C35.801 23.3404 35.8844 23.3702 35.9677 23.4L37.1917 23.8378C37.2989 23.8735 37.4061 23.9152 37.5134 23.9628C37.6146 24.0045 37.7188 24.0492 37.8261 24.0968C37.9273 24.1445 38.0286 24.1981 38.1298 24.2577C38.2251 24.3113 38.3204 24.3678 38.4157 24.4274C38.511 24.487 38.6033 24.5525 38.6927 24.624C38.7761 24.6895 38.8594 24.7609 38.9428 24.8384C39.0203 24.9158 39.0947 24.9992 39.1662 25.0885C39.2377 25.1719 39.3032 25.2613 39.3627 25.3566C39.4282 25.4638 39.4848 25.574 39.5325 25.6871C39.5801 25.8003 39.6218 25.9164 39.6576 26.0356C39.6873 26.1606 39.7082 26.2857 39.7201 26.4108C39.738 26.5359 39.7439 26.6609 39.738 26.786C39.738 27.0004 39.7171 27.2119 39.6754 27.4204C39.6278 27.6348 39.5593 27.8373 39.4699 28.0279C39.3806 28.2244 39.2674 28.4091 39.1304 28.5818C38.9994 28.7486 38.8505 28.9004 38.6837 29.0374C38.5884 29.1089 38.4931 29.1774 38.3978 29.2429C38.2966 29.3084 38.1953 29.368 38.0941 29.4216C37.9869 29.4812 37.8797 29.5348 37.7724 29.5824C37.6652 29.6241 37.5551 29.6628 37.4419 29.6986C37.3109 29.7403 37.1798 29.776 37.0488 29.8058C36.9177 29.8415 36.7837 29.8683 36.6467 29.8862C36.5157 29.9041 36.3817 29.9189 36.2447 29.9309C36.1077 29.9428 35.9707 29.9457 35.8337 29.9398C35.6551 29.9457 35.4764 29.9428 35.2977 29.9309C35.119 29.9189 34.9433 29.8981 34.7706 29.8683C34.5919 29.8385 34.4162 29.7998 34.2435 29.7522C34.0707 29.7045 33.901 29.6479 33.7342 29.5824C33.6151 29.5348 33.4989 29.4812 33.3858 29.4216C33.2667 29.368 33.1535 29.3114 33.0463 29.2519C32.9331 29.1923 32.8199 29.1298 32.7068 29.0642C32.5996 28.9987 32.4924 28.9302 32.3851 28.8588Z" fill="#040000"/>
<path d="M41.915 17.6454C41.7989 17.6633 41.6917 17.6543 41.5844 17.6186C41.4772 17.5829 41.379 17.5203 41.2985 17.4399C41.2181 17.3595 41.1556 17.2612 41.1199 17.154C41.0841 17.0468 41.0752 16.9307 41.0931 16.8235V16.2159C41.0752 16.1087 41.0841 15.9926 41.1109 15.8764C41.1467 15.7692 41.2092 15.6709 41.2896 15.5905C41.37 15.5101 41.4683 15.4476 41.5755 15.4029C41.6827 15.3672 41.7989 15.3583 41.915 15.3761H42.7816C42.8978 15.3583 43.0139 15.3672 43.1211 15.4029C43.2283 15.4387 43.3355 15.5012 43.4159 15.5816C43.4964 15.662 43.5589 15.7692 43.5946 15.8764C43.6304 15.9836 43.6393 16.0998 43.6214 16.2159V16.8235C43.6393 16.9396 43.6304 17.0557 43.5857 17.163C43.55 17.2702 43.4874 17.3684 43.407 17.4488C43.3266 17.5293 43.2283 17.5829 43.1211 17.6186C43.005 17.6543 42.8888 17.6633 42.7816 17.6454H41.915ZM41.0841 20.2452C41.0663 20.1291 41.0752 20.013 41.1109 19.9057C41.1467 19.7985 41.2092 19.6913 41.2896 19.6109C41.37 19.5305 41.4683 19.468 41.5755 19.4322C41.6827 19.3965 41.7989 19.3876 41.915 19.3965H42.7816C42.8888 19.3876 43.005 19.3965 43.1122 19.4322C43.2194 19.468 43.3177 19.5305 43.3981 19.6199C43.4785 19.7003 43.541 19.7985 43.5768 19.9057C43.6125 20.013 43.6214 20.1291 43.6036 20.2452V28.7952C43.6214 28.9114 43.6125 29.0275 43.5768 29.1437C43.55 29.2509 43.4874 29.3581 43.407 29.4385C43.3266 29.5189 43.2283 29.5814 43.1211 29.6261C43.005 29.6619 42.8888 29.6708 42.7816 29.6619H41.915C41.7989 29.6708 41.6827 29.6619 41.5755 29.6261C41.4683 29.5904 41.37 29.5278 41.2896 29.4474C41.2092 29.3581 41.1467 29.2598 41.1109 29.1526C41.0752 29.0454 41.0663 28.9293 41.0841 28.8131V20.2452Z" fill="#040000"/>
<path fill-rule="evenodd" clip-rule="evenodd" d="M46.4714 31.7947C46.4892 31.7411 46.5101 31.6875 46.5339 31.6339C46.5577 31.5863 46.5875 31.5416 46.6232 31.4999C46.659 31.4582 46.6977 31.4195 46.7394 31.3838C46.787 31.348 46.8347 31.3153 46.8823 31.2855C46.9359 31.2676 46.9895 31.2557 47.0431 31.2498C47.0967 31.2438 47.1533 31.2408 47.2129 31.2408C47.2665 31.2468 47.3201 31.2557 47.3737 31.2676C47.4273 31.2795 47.4809 31.2974 47.5345 31.3212C47.606 31.3451 47.6775 31.3689 47.7489 31.3927C47.8204 31.4165 47.8919 31.4404 47.9634 31.4642C48.0348 31.488 48.1063 31.5089 48.1778 31.5267C48.2493 31.5446 48.3237 31.5625 48.4011 31.5803C48.4964 31.6042 48.5947 31.622 48.696 31.6339C48.7972 31.6518 48.8985 31.6667 48.9997 31.6786C49.101 31.6846 49.2022 31.6905 49.3035 31.6965C49.4047 31.7024 49.506 31.7024 49.6072 31.6965C49.7025 31.7024 49.7949 31.7024 49.8842 31.6965C49.9795 31.6905 50.0748 31.6816 50.1701 31.6697C50.2594 31.6578 50.3518 31.6429 50.4471 31.625C50.5364 31.6131 50.6287 31.5952 50.724 31.5714C50.8074 31.5535 50.8878 31.5297 50.9652 31.4999C51.0486 31.4701 51.129 31.4374 51.2065 31.4016C51.2839 31.3659 51.3583 31.3242 51.4298 31.2766C51.5013 31.2349 51.5728 31.1872 51.6442 31.1336C51.7098 31.086 51.7723 31.0324 51.8319 30.9728C51.8914 30.9132 51.948 30.8507 52.0016 30.7852C52.0552 30.7197 52.1029 30.6512 52.1445 30.5797C52.1922 30.5082 52.2339 30.4368 52.2696 30.3653C52.3113 30.27 52.3471 30.1747 52.3768 30.0794C52.4066 29.99 52.4304 29.8948 52.4483 29.7935C52.4721 29.6982 52.487 29.5999 52.493 29.4987C52.4989 29.4034 52.5019 29.3051 52.5019 29.2038V28.2658C52.5019 28.2538 52.4989 28.2419 52.493 28.23C52.493 28.2181 52.493 28.2032 52.493 28.1853C52.493 28.1734 52.493 28.1615 52.493 28.1496C52.4989 28.1317 52.5019 28.1169 52.5019 28.1049C52.5019 28.093 52.5019 28.0781 52.5019 28.0603C52.5019 28.0484 52.5019 28.0335 52.5019 28.0156C52.5019 28.0037 52.5019 27.9888 52.5019 27.9709C52.5019 27.9531 52.5019 27.9382 52.5019 27.9263H52.4662C52.4007 28.0394 52.3262 28.1496 52.2428 28.2568C52.1654 28.364 52.079 28.4653 51.9837 28.5606C51.8944 28.6559 51.7961 28.7452 51.6889 28.8286C51.5817 28.912 51.4715 28.9864 51.3583 29.052C51.2273 29.1234 51.0933 29.186 50.9563 29.2396C50.8193 29.2932 50.6793 29.3379 50.5364 29.3736C50.3875 29.4034 50.2416 29.4272 50.0986 29.4451C49.9497 29.457 49.8008 29.46 49.6519 29.454C49.4792 29.46 49.3065 29.454 49.1337 29.4361C48.961 29.4242 48.7913 29.4004 48.6245 29.3647C48.4518 29.3289 48.285 29.2843 48.1242 29.2306C47.9574 29.177 47.7966 29.1145 47.6417 29.043C47.4988 28.9775 47.3618 28.906 47.2308 28.8286C47.0997 28.7452 46.9717 28.6559 46.8466 28.5606C46.7275 28.4653 46.6113 28.364 46.4982 28.2568C46.385 28.1496 46.2808 28.0364 46.1855 27.9173C46.0842 27.7922 45.9889 27.6642 45.8996 27.5332C45.8102 27.4021 45.7268 27.2681 45.6494 27.1311C45.5779 26.9882 45.5124 26.8452 45.4529 26.7023C45.3873 26.5534 45.3337 26.4045 45.292 26.2556C45.2384 26.0948 45.1908 25.931 45.1491 25.7642C45.1134 25.5974 45.0836 25.4306 45.0598 25.2639C45.0359 25.0911 45.0181 24.9214 45.0061 24.7546C44.9942 24.5819 44.9883 24.4121 44.9883 24.2454C44.9883 24.0786 44.9913 23.9118 44.9972 23.7451C45.0091 23.5783 45.027 23.4115 45.0508 23.2448C45.0806 23.078 45.1134 22.9142 45.1491 22.7534C45.1848 22.5926 45.2265 22.4317 45.2742 22.2709C45.3218 22.122 45.3754 21.9761 45.435 21.8332C45.4946 21.6902 45.5601 21.5502 45.6315 21.4132C45.703 21.2763 45.7834 21.1452 45.8728 21.0201C45.9621 20.8891 46.0544 20.767 46.1497 20.6538C46.251 20.5347 46.3552 20.4216 46.4624 20.3143C46.5756 20.2131 46.6917 20.1148 46.8109 20.0195C46.9359 19.9302 47.064 19.8438 47.195 19.7604C47.3261 19.683 47.4601 19.6145 47.5971 19.5549C47.7579 19.4835 47.9187 19.4209 48.0795 19.3673C48.2463 19.3137 48.413 19.272 48.5798 19.2422C48.7525 19.2065 48.9253 19.1797 49.098 19.1618C49.2648 19.1499 49.4345 19.1469 49.6072 19.1529C49.7383 19.1469 49.8663 19.1469 49.9914 19.1529C50.1224 19.1589 50.2505 19.1738 50.3756 19.1976C50.5007 19.2214 50.6257 19.2482 50.7508 19.278C50.8759 19.3137 50.998 19.3554 51.1171 19.4031C51.2005 19.4328 51.2839 19.4686 51.3673 19.5103C51.4447 19.552 51.5221 19.5937 51.5996 19.6354C51.677 19.683 51.7514 19.7306 51.8229 19.7783C51.9003 19.8259 51.9748 19.8796 52.0463 19.9391C52.1058 19.9927 52.1654 20.0493 52.225 20.1089C52.2845 20.1684 52.3381 20.231 52.3858 20.2965C52.4394 20.362 52.49 20.4305 52.5377 20.502C52.5853 20.5734 52.627 20.6449 52.6627 20.7164H52.7074C52.7074 20.7164 52.7044 20.7134 52.6985 20.7075C52.6985 20.7015 52.6985 20.6955 52.6985 20.6896C52.6985 20.6836 52.6985 20.6777 52.6985 20.6717C52.7044 20.6658 52.7074 20.6628 52.7074 20.6628V20.0821C52.7074 20.0344 52.7104 19.9868 52.7163 19.9391C52.7282 19.8915 52.7431 19.8468 52.761 19.8051C52.7789 19.7634 52.7997 19.7217 52.8235 19.68C52.8533 19.6443 52.8861 19.6115 52.9218 19.5817C52.9635 19.546 53.0082 19.5133 53.0558 19.4835C53.1035 19.4537 53.1541 19.4328 53.2077 19.4209C53.2613 19.4031 53.3149 19.3882 53.3685 19.3763C53.4221 19.3703 53.4787 19.3703 53.5383 19.3763H54.2173C54.3245 19.3584 54.4406 19.3763 54.5568 19.412C54.664 19.4477 54.7623 19.5103 54.8427 19.5907C54.9231 19.6711 54.9767 19.7694 55.0124 19.8855C55.0482 19.9927 55.0571 20.1089 55.0392 20.225V29.0341C55.0452 29.2247 55.0392 29.4183 55.0213 29.6148C55.0035 29.8054 54.9767 29.996 54.9409 30.1866C54.8992 30.3712 54.8486 30.5559 54.7891 30.7405C54.7235 30.9252 54.6491 31.1038 54.5657 31.2766C54.4942 31.4255 54.4138 31.5684 54.3245 31.7054C54.2351 31.8424 54.1398 31.9734 54.0386 32.0985C53.9373 32.2295 53.8271 32.3516 53.708 32.4648C53.5889 32.578 53.4668 32.6852 53.3417 32.7864C53.2166 32.8877 53.0856 32.98 52.9486 33.0634C52.8116 33.1468 52.6717 33.2242 52.5287 33.2957C52.3858 33.3672 52.2398 33.4297 52.0909 33.4833C51.942 33.5429 51.7902 33.5935 51.6353 33.6352C51.4804 33.6769 51.3226 33.7126 51.1618 33.7424C51.0069 33.7781 50.8491 33.8079 50.6883 33.8317C50.5334 33.8496 50.3756 33.8645 50.2148 33.8764C50.054 33.8883 49.8931 33.8943 49.7323 33.8943C49.5953 33.8943 49.4583 33.8883 49.3214 33.8764C49.1784 33.8705 49.0384 33.8615 48.9014 33.8496C48.7645 33.8317 48.6275 33.8109 48.4905 33.7871C48.3535 33.7692 48.2165 33.7454 48.0795 33.7156C47.9663 33.6918 47.8532 33.6679 47.74 33.6441C47.6268 33.6203 47.5137 33.5905 47.4005 33.5548C47.2933 33.525 47.1831 33.4893 47.0699 33.4476C46.9627 33.4118 46.8555 33.3731 46.7483 33.3314C46.6411 33.3046 46.5428 33.251 46.4535 33.1795C46.3641 33.0991 46.3016 33.0098 46.2569 32.9026C46.2123 32.8043 46.1944 32.6882 46.2033 32.572C46.2033 32.4648 46.2391 32.3487 46.3016 32.2504L46.4714 31.7947ZM50.188 27.3098C50.2594 27.3098 50.3339 27.3068 50.4113 27.3009C50.4828 27.2949 50.5543 27.289 50.6257 27.283C50.7032 27.2711 50.7776 27.2562 50.8491 27.2383C50.9206 27.2205 50.992 27.1996 51.0635 27.1758C51.135 27.152 51.2065 27.1252 51.2779 27.0954C51.3494 27.0596 51.4149 27.0209 51.4745 26.9792C51.54 26.9375 51.6025 26.8899 51.6621 26.8363C51.7217 26.7886 51.7753 26.735 51.8229 26.6755C51.8884 26.61 51.948 26.5415 52.0016 26.47C52.0493 26.3926 52.0969 26.3151 52.1445 26.2377C52.1922 26.1603 52.2339 26.0828 52.2696 26.0054C52.3054 25.922 52.3381 25.8357 52.3679 25.7463C52.4036 25.6332 52.4334 25.517 52.4572 25.3979C52.487 25.2788 52.5079 25.1596 52.5198 25.0405C52.5377 24.9214 52.5496 24.7993 52.5555 24.6742C52.5674 24.5551 52.5704 24.436 52.5645 24.3169C52.5704 24.1918 52.5674 24.0667 52.5555 23.9416C52.5496 23.8225 52.5377 23.7004 52.5198 23.5753C52.5079 23.4502 52.487 23.3281 52.4572 23.209C52.4334 23.0899 52.4036 22.9708 52.3679 22.8516C52.3381 22.7683 52.3054 22.6849 52.2696 22.6015C52.2339 22.5181 52.1922 22.4407 52.1445 22.3692C52.1029 22.2918 52.0552 22.2173 52.0016 22.1458C51.948 22.0744 51.8884 22.0059 51.8229 21.9404C51.7693 21.8868 51.7127 21.8332 51.6532 21.7796C51.5936 21.7319 51.5281 21.6902 51.4566 21.6545C51.3911 21.6128 51.3226 21.577 51.2511 21.5473C51.1797 21.5175 51.1052 21.4907 51.0278 21.4669C50.9503 21.443 50.8729 21.4222 50.7955 21.4043C50.7181 21.3924 50.6406 21.3805 50.5632 21.3686C50.4798 21.3567 50.3994 21.3477 50.322 21.3418C50.2386 21.3358 50.1582 21.3328 50.0808 21.3328C49.908 21.3209 49.7353 21.3299 49.5626 21.3596C49.3958 21.3894 49.232 21.4371 49.0712 21.5026C48.9104 21.5681 48.7615 21.6515 48.6245 21.7527C48.4875 21.86 48.3624 21.9791 48.2493 22.1101C48.1361 22.2531 48.0378 22.4049 47.9544 22.5658C47.871 22.7325 47.8025 22.9023 47.7489 23.075C47.6953 23.2537 47.6566 23.4324 47.6328 23.6111C47.609 23.7957 47.603 23.9774 47.6149 24.156C47.603 24.3585 47.609 24.5611 47.6328 24.7636C47.6626 24.9601 47.7043 25.1567 47.7579 25.3532C47.8115 25.5438 47.883 25.7314 47.9723 25.9161C48.0616 26.0948 48.1629 26.2675 48.2761 26.4342C48.3892 26.5772 48.5173 26.7082 48.6602 26.8274C48.8032 26.9405 48.958 27.0358 49.1248 27.1132C49.2916 27.1847 49.4643 27.2383 49.643 27.2741C49.8217 27.3098 50.0033 27.3217 50.188 27.3098Z" fill="#040000"/>
<path d="M57.0333 20.2435C57.0155 20.1274 57.0244 20.0112 57.0601 19.904C57.0959 19.7968 57.1584 19.6896 57.2388 19.6092C57.3192 19.5288 57.4175 19.4662 57.5247 19.4305C57.6319 19.3948 57.7481 19.3858 57.8642 19.3948H58.6415C58.7576 19.3858 58.8738 19.3948 58.981 19.4305C59.0882 19.4662 59.1865 19.5288 59.2669 19.6181C59.3473 19.6985 59.4098 19.7968 59.4456 19.904C59.4813 20.0112 59.4902 20.1274 59.4724 20.2435V20.8689C59.4724 20.9344 59.4724 20.994 59.4724 21.0476C59.4724 21.1012 59.4724 21.1488 59.4724 21.1905C59.4664 21.2024 59.4634 21.2144 59.4634 21.2263C59.4634 21.2382 59.4634 21.2501 59.4634 21.262C59.4634 21.2739 59.4634 21.2858 59.4634 21.2977C59.4634 21.3097 59.4664 21.3216 59.4724 21.3335H59.5081C59.5439 21.268 59.5796 21.2054 59.6153 21.1459C59.6451 21.0863 59.6808 21.0267 59.7225 20.9672C59.7583 20.9076 59.797 20.8481 59.8387 20.7885C59.8804 20.7349 59.925 20.6813 59.9727 20.6277C60.0263 20.5562 60.0829 20.4907 60.1424 20.4311C60.196 20.3656 60.2556 20.3031 60.3211 20.2435C60.3807 20.184 60.4432 20.1274 60.5087 20.0738C60.5743 20.0202 60.6428 19.9695 60.7142 19.9219C60.7976 19.8623 60.881 19.8087 60.9644 19.7611C61.0478 19.7075 61.1341 19.6568 61.2235 19.6092C61.3069 19.5675 61.3932 19.5258 61.4826 19.4841C61.5779 19.4484 61.6702 19.4126 61.7595 19.3769C61.8727 19.3352 61.9859 19.3024 62.099 19.2786C62.2122 19.2488 62.3283 19.225 62.4475 19.2071C62.5606 19.1893 62.6768 19.1744 62.7959 19.1625C62.915 19.1565 63.0341 19.1535 63.1533 19.1535C63.3915 19.1416 63.6297 19.1506 63.868 19.1803C64.1062 19.2161 64.3385 19.2727 64.5648 19.3501C64.7912 19.4275 65.0086 19.5288 65.217 19.6539C65.4255 19.7789 65.6161 19.9219 65.7888 20.0827C66.4142 20.6992 66.7269 21.6908 66.7269 23.0578V28.8114C66.7448 28.9275 66.7359 29.0437 66.7001 29.1509C66.6644 29.267 66.6018 29.3653 66.5214 29.4457C66.4321 29.5261 66.3338 29.5887 66.2266 29.6244C66.1194 29.6601 65.9943 29.678 65.8871 29.6601H65.0205C64.9044 29.678 64.7882 29.6601 64.681 29.6244C64.5648 29.5887 64.4666 29.5261 64.3862 29.4457C64.3058 29.3653 64.2432 29.267 64.2075 29.1509C64.1717 29.0437 64.1539 28.9275 64.1717 28.8114V23.576C64.1777 23.4449 64.1747 23.3169 64.1628 23.1918C64.1569 23.0608 64.139 22.9327 64.1092 22.8076C64.0854 22.6766 64.0496 22.5515 64.002 22.4324C63.9603 22.3073 63.9097 22.1852 63.8501 22.0661C63.7846 21.9648 63.7042 21.8755 63.6089 21.7981C63.5136 21.7147 63.4064 21.6492 63.2873 21.6015C63.1741 21.5479 63.058 21.5122 62.9388 21.4943C62.8138 21.4764 62.6887 21.4764 62.5636 21.4943C62.4623 21.4943 62.3581 21.5003 62.2509 21.5122C62.1437 21.5181 62.0395 21.533 61.9382 21.5568C61.837 21.5807 61.7357 21.6075 61.6344 21.6372C61.5332 21.673 61.4349 21.7117 61.3396 21.7534C61.2443 21.7951 61.155 21.8427 61.0716 21.8963C60.9823 21.944 60.8959 21.9976 60.8125 22.0571C60.7351 22.1227 60.6576 22.1882 60.5802 22.2537C60.5087 22.3252 60.4402 22.3996 60.3747 22.4771C60.3092 22.5545 60.2467 22.6379 60.1871 22.7272C60.1335 22.8106 60.0799 22.897 60.0263 22.9863C59.9786 23.0756 59.934 23.168 59.8923 23.2633C59.8506 23.3586 59.8149 23.4539 59.7851 23.5492C59.7493 23.6564 59.7166 23.7636 59.6868 23.8708C59.663 23.978 59.6421 24.0852 59.6243 24.1924C59.6064 24.2996 59.5915 24.4098 59.5796 24.523C59.5736 24.6302 59.5707 24.7404 59.5707 24.8535V28.8114C59.5885 28.9275 59.5796 29.0437 59.5438 29.1509C59.5081 29.2581 59.4456 29.3564 59.3652 29.4368C59.2848 29.5261 59.1865 29.5887 59.0793 29.6244C58.9721 29.6601 58.8559 29.6691 58.7487 29.6601H57.8642C57.7481 29.6691 57.6319 29.6601 57.5247 29.6244C57.4175 29.5887 57.3192 29.5261 57.2388 29.4368C57.1584 29.3564 57.0959 29.2581 57.0601 29.1509C57.0244 29.0437 57.0155 28.9275 57.0333 28.8114V20.2435Z" fill="#040000"/>
<path d="M69.4241 17.6454C69.3079 17.6633 69.1918 17.6543 69.0846 17.6186C68.9774 17.5829 68.8791 17.5203 68.8076 17.4399C68.7272 17.3595 68.6647 17.2612 68.6289 17.154C68.5932 17.0468 68.5843 16.9307 68.5932 16.8235V16.2159C68.5843 16.1087 68.5932 15.9926 68.62 15.8764C68.6557 15.7692 68.7183 15.6709 68.7987 15.5905C68.8791 15.5101 68.9774 15.4476 69.0846 15.4119C69.1918 15.3672 69.3079 15.3583 69.4241 15.3761H70.3085C70.4247 15.3583 70.5408 15.3672 70.6481 15.4029C70.7553 15.4387 70.8625 15.5012 70.9429 15.5816C71.0233 15.662 71.0858 15.7692 71.1216 15.8764C71.1573 15.9836 71.1662 16.0998 71.1484 16.2159V16.8235C71.1662 16.9396 71.1573 17.0557 71.1126 17.163C71.0769 17.2702 71.0143 17.3684 70.9339 17.4488C70.8535 17.5293 70.7553 17.5829 70.6481 17.6186C70.5319 17.6543 70.4158 17.6633 70.3085 17.6454H69.4241ZM68.5932 20.2452C68.5843 20.1291 68.5932 20.013 68.62 19.9057C68.6557 19.7985 68.7183 19.7003 68.7987 19.6199C68.8791 19.5305 68.9774 19.468 69.0846 19.4322C69.1918 19.3965 69.3079 19.3876 69.4241 19.3965H70.3085C70.4158 19.3876 70.5319 19.3965 70.6391 19.4322C70.7553 19.468 70.8535 19.5305 70.925 19.6199C71.0054 19.7003 71.068 19.7985 71.1037 19.9057C71.1394 20.013 71.1484 20.1291 71.1305 20.2452V28.7952C71.1484 28.9114 71.1394 29.0275 71.1037 29.1347C71.068 29.2419 71.0054 29.3492 70.925 29.4296C70.8535 29.51 70.7553 29.5725 70.6391 29.6082C70.5319 29.644 70.4158 29.6619 70.3085 29.644H69.4241C69.3079 29.6619 69.1918 29.644 69.0846 29.6082C68.9774 29.5725 68.8791 29.51 68.7987 29.4296C68.7183 29.3492 68.6557 29.2419 68.62 29.1347C68.5932 29.0275 68.5843 28.9114 68.5932 28.7952V20.2452Z" fill="#040000"/>
<path d="M73.5548 21.5764H73.0545C72.9384 21.5853 72.8222 21.5764 72.715 21.5406C72.6078 21.496 72.5095 21.4334 72.4291 21.353C72.3487 21.2726 72.2951 21.1743 72.2594 21.0671C72.2236 20.9599 72.2147 20.8438 72.2326 20.7276V20.3881C72.2147 20.272 72.2236 20.1558 72.2594 20.0486C72.2951 19.9414 72.3487 19.8431 72.4291 19.7538C72.5095 19.6734 72.6078 19.6109 72.715 19.5751C72.8222 19.5394 72.9384 19.5215 73.0545 19.5394H73.5548V19.0391C73.5489 18.8663 73.5518 18.6966 73.5638 18.5298C73.5816 18.3571 73.6114 18.1873 73.6531 18.0206C73.6888 17.8538 73.7395 17.693 73.805 17.5381C73.8645 17.3773 73.936 17.2225 74.0194 17.0735C74.0909 16.9604 74.1653 16.8502 74.2428 16.743C74.3261 16.6358 74.4155 16.5345 74.5108 16.4392C74.6001 16.3439 74.6984 16.2546 74.8056 16.1712C74.9069 16.0878 75.0141 16.0104 75.1272 15.9389C75.2225 15.8734 75.3238 15.8138 75.431 15.7602C75.5323 15.7066 75.6395 15.656 75.7526 15.6083C75.8598 15.5667 75.97 15.5279 76.0832 15.4922C76.1964 15.4565 76.3095 15.4267 76.4227 15.4029C76.5061 15.385 76.5924 15.3671 76.6818 15.3493C76.7711 15.3373 76.8605 15.3254 76.9498 15.3135C77.0332 15.3016 77.1196 15.2927 77.2089 15.2867C77.2982 15.2808 77.3876 15.2748 77.4769 15.2688H77.7807C77.8968 15.2599 78.013 15.2688 78.1202 15.3046C78.2274 15.3493 78.3257 15.4118 78.4061 15.4922C78.4865 15.5726 78.5401 15.6709 78.5758 15.787C78.6116 15.8942 78.6205 16.0104 78.6026 16.1265V16.6536C78.6026 17.154 78.3167 17.4488 77.736 17.4845C77.5752 17.4845 77.4054 17.5203 77.2357 17.556C77.188 17.562 77.1434 17.5739 77.1017 17.5917C77.06 17.6036 77.0183 17.6185 76.9766 17.6364C76.9349 17.6543 76.8932 17.6751 76.8515 17.6989C76.8098 17.7228 76.7711 17.7466 76.7354 17.7704C76.6877 17.8062 76.646 17.8419 76.6103 17.8776C76.5686 17.9193 76.5299 17.961 76.4942 18.0027C76.4644 18.0444 76.4346 18.0891 76.4048 18.1367C76.375 18.1784 76.3482 18.2261 76.3244 18.2797C76.2887 18.3452 76.2619 18.4137 76.244 18.4851C76.2202 18.5566 76.1993 18.6311 76.1815 18.7085C76.1696 18.78 76.1606 18.8514 76.1547 18.9229C76.1487 19.0004 76.1487 19.0778 76.1547 19.1552V19.5304H77.468C77.5841 19.5215 77.7003 19.5304 77.8075 19.5662C77.9147 19.6019 78.013 19.6645 78.0934 19.7538C78.1738 19.8342 78.2363 19.9325 78.2631 20.0397C78.2989 20.1469 78.3078 20.263 78.2899 20.3792V20.7187C78.3078 20.8348 78.2989 20.951 78.2721 21.0671C78.2363 21.1743 78.1738 21.2726 78.0934 21.353C78.013 21.4424 77.9147 21.5049 77.8075 21.5406C77.7003 21.5764 77.5841 21.5853 77.468 21.5764H76.11V28.813C76.1279 28.9292 76.1189 29.0453 76.0832 29.1525C76.0475 29.2687 75.9849 29.367 75.9045 29.4474C75.8152 29.5278 75.7169 29.5903 75.6097 29.6261C75.4935 29.6618 75.3774 29.6797 75.2613 29.6618H74.3768C74.2696 29.6707 74.1534 29.6618 74.0462 29.6261C73.939 29.5903 73.8407 29.5278 73.7603 29.4384C73.6799 29.358 73.6174 29.2598 73.5816 29.1525C73.5459 29.0453 73.537 28.9292 73.5548 28.813V21.5764Z" fill="#040000"/>
<path d="M80.0316 31.617C80.0733 31.6051 80.115 31.5932 80.1567 31.5813C80.1983 31.5753 80.24 31.5694 80.2817 31.5634C80.3234 31.5634 80.3651 31.5664 80.4068 31.5724C80.4485 31.5724 80.4902 31.5783 80.5319 31.5902L80.8535 31.7153C80.8893 31.7213 80.922 31.7302 80.9518 31.7421C80.9875 31.7481 81.0203 31.754 81.0501 31.76C81.0858 31.7659 81.1215 31.7689 81.1573 31.7689C81.1871 31.7689 81.2198 31.7689 81.2556 31.7689C81.3509 31.7749 81.4432 31.7689 81.5325 31.751C81.6278 31.7332 81.7172 31.7064 81.8005 31.6706C81.8899 31.6349 81.9733 31.5902 82.0507 31.5366C82.1281 31.483 82.1996 31.4235 82.2651 31.3579C82.3306 31.2924 82.3962 31.2209 82.4617 31.1435C82.5212 31.072 82.5778 30.9946 82.6314 30.9112C82.685 30.8338 82.7357 30.7534 82.7833 30.67C82.8309 30.5807 82.8726 30.4913 82.9084 30.402L83.2836 29.4996L79.3883 20.3868C79.3585 20.3332 79.3347 20.2736 79.3168 20.2081C79.299 20.1485 79.29 20.089 79.29 20.0294C79.29 19.9639 79.299 19.9014 79.3168 19.8418C79.3347 19.7822 79.3585 19.7257 79.3883 19.6721C79.4241 19.6184 79.4687 19.5738 79.5223 19.538C79.57 19.5023 79.6236 19.4725 79.6831 19.4487C79.7427 19.4249 79.8023 19.407 79.8618 19.3951C79.9273 19.3891 79.9899 19.3891 80.0494 19.3951H81.1394C81.2407 19.3891 81.3449 19.401 81.4521 19.4308C81.5534 19.4606 81.6457 19.5083 81.7291 19.5738C81.8184 19.6333 81.8929 19.7078 81.9524 19.7971C82.012 19.8865 82.0537 19.9818 82.0775 20.083L84.0073 25.3095C84.049 25.4584 84.0936 25.6103 84.1413 25.7652C84.186 25.917 84.2306 26.0689 84.2753 26.2119C84.2872 26.2536 84.2991 26.2952 84.311 26.3369C84.323 26.3786 84.3349 26.4203 84.3468 26.462C84.3527 26.5037 84.3617 26.5454 84.3736 26.5871C84.3795 26.6347 84.3855 26.6794 84.3915 26.7211H84.4361C84.4421 26.6794 84.448 26.6407 84.454 26.605C84.4599 26.5633 84.4689 26.5246 84.4808 26.4888C84.4867 26.4471 84.4957 26.4084 84.5076 26.3727C84.5136 26.331 84.5225 26.2923 84.5344 26.2565C84.5612 26.1225 84.5969 25.9796 84.6416 25.8277C84.6863 25.6669 84.7309 25.5239 84.7756 25.372L86.5446 20.1277C86.5684 20.0205 86.6101 19.9222 86.6697 19.8329C86.7233 19.7376 86.7947 19.6572 86.8841 19.5916C86.9734 19.5321 87.0687 19.4874 87.17 19.4576C87.2772 19.4279 87.3844 19.4159 87.4916 19.4219H88.4922C88.5577 19.4159 88.6203 19.4159 88.6799 19.4219C88.7394 19.4338 88.799 19.4517 88.8585 19.4755C88.9121 19.4934 88.9628 19.5231 89.0104 19.5648C89.064 19.6006 89.1087 19.6393 89.1444 19.681C89.1802 19.7346 89.207 19.7912 89.2248 19.8507C89.2427 19.9103 89.2516 19.9699 89.2516 20.0294C89.2576 20.0949 89.2546 20.1575 89.2427 20.217C89.2248 20.2766 89.204 20.3332 89.1802 20.3868L84.9543 31.1971C84.9186 31.3043 84.8769 31.4115 84.8292 31.5188C84.7816 31.626 84.731 31.7302 84.6773 31.8314C84.6178 31.9327 84.5582 32.031 84.4987 32.1263C84.4331 32.2216 84.3646 32.3139 84.2932 32.4032C84.2277 32.4807 84.1621 32.5551 84.0966 32.6266C84.0252 32.704 83.9537 32.7755 83.8822 32.841C83.8048 32.9065 83.7273 32.972 83.6499 33.0376C83.5725 33.0971 83.4921 33.1537 83.4087 33.2073C83.3313 33.2669 83.2509 33.3205 83.1675 33.3681C83.0841 33.4158 82.9977 33.4604 82.9084 33.5021C82.825 33.5438 82.7386 33.5825 82.6493 33.6183C82.5599 33.654 82.4676 33.6868 82.3723 33.7166C82.283 33.7404 82.1907 33.7642 82.0954 33.788C82.006 33.8059 81.9137 33.8208 81.8184 33.8327C81.7291 33.8506 81.6367 33.8625 81.5414 33.8684C81.4462 33.8744 81.3509 33.8774 81.2556 33.8774C81.19 33.8774 81.1245 33.8744 81.059 33.8684C80.9935 33.8684 80.928 33.8625 80.8625 33.8506C80.7969 33.8446 80.7314 33.8357 80.6659 33.8238C80.6004 33.8059 80.5349 33.788 80.4694 33.7702C80.2281 33.7076 80.0226 33.6451 79.8261 33.5736C79.7784 33.5557 79.7308 33.5349 79.6831 33.5111C79.6355 33.4813 79.5908 33.4456 79.5491 33.4039C79.5074 33.3681 79.4717 33.3264 79.4419 33.2788C79.4181 33.2311 79.3972 33.1805 79.3794 33.1269C79.3615 33.0733 79.3526 33.0197 79.3526 32.9661C79.3466 32.9125 79.3466 32.8589 79.3526 32.8053C79.3585 32.7457 79.3704 32.6891 79.3883 32.6355C79.4002 32.5819 79.4211 32.5313 79.4509 32.4836L79.6295 32.0459C79.6474 31.9982 79.6712 31.9536 79.701 31.9119C79.7248 31.8702 79.7546 31.8314 79.7904 31.7957C79.8261 31.76 79.8618 31.7272 79.8976 31.6974C79.9393 31.6677 79.9839 31.6409 80.0316 31.617Z" fill="#040000"/>
<path d="M90.7412 16.0193C90.7412 15.6798 90.902 15.51 91.2505 15.51H91.6257C91.6972 15.5041 91.7657 15.51 91.8312 15.5279C91.8967 15.5517 91.9563 15.5875 92.0099 15.6351C92.0575 15.6887 92.0933 15.7483 92.1171 15.8138C92.1349 15.8793 92.1409 15.9478 92.1349 16.0193V21.0492C92.1349 21.0909 92.1349 21.1326 92.1349 21.1743C92.129 21.216 92.126 21.2577 92.126 21.2994C92.126 21.3411 92.123 21.3828 92.1171 21.4245C92.1111 21.4662 92.1052 21.5078 92.0992 21.5495C92.0992 21.7104 92.0635 21.8176 92.0545 21.889H92.0903C92.132 21.7937 92.1737 21.7014 92.2153 21.6121C92.263 21.5227 92.3136 21.4364 92.3672 21.353C92.4208 21.2696 92.4774 21.1892 92.537 21.1118C92.5965 21.0284 92.6591 20.951 92.7246 20.8795C92.7961 20.7961 92.8675 20.7187 92.939 20.6472C93.0164 20.5698 93.0939 20.4983 93.1713 20.4328C93.2547 20.3613 93.3381 20.2958 93.4215 20.2362C93.5048 20.1707 93.5912 20.1082 93.6806 20.0486C93.7699 19.989 93.8622 19.9354 93.9575 19.8878C94.0528 19.8342 94.1511 19.7836 94.2523 19.7359C94.3476 19.6883 94.4459 19.6466 94.5472 19.6108C94.6484 19.5691 94.7527 19.5334 94.8599 19.5036C94.9611 19.4679 95.0654 19.4381 95.1726 19.4143C95.2738 19.3845 95.378 19.3636 95.4853 19.3517C95.5925 19.3339 95.6997 19.319 95.8069 19.3071C95.9141 19.3011 96.0243 19.2981 96.1374 19.2981C97.3078 19.2981 98.1744 19.6108 98.7194 20.2452C99.2644 20.8795 99.5324 21.8622 99.5324 23.2202V29.1525C99.5324 29.492 99.3716 29.6618 99.0321 29.6618H98.648C98.5765 29.6677 98.508 29.6618 98.4425 29.6439C98.3769 29.6201 98.3204 29.5843 98.2727 29.5367C98.2191 29.4831 98.1834 29.4235 98.1655 29.358C98.1417 29.2925 98.1357 29.224 98.1476 29.1525V23.5776C98.1595 23.381 98.1595 23.1845 98.1476 22.9879C98.1357 22.7914 98.1089 22.5948 98.0672 22.3983C98.0255 22.2017 97.969 22.0111 97.8975 21.8265C97.826 21.6419 97.7396 21.4632 97.6384 21.2905C97.5371 21.1654 97.424 21.0552 97.2989 20.9599C97.1679 20.8646 97.0279 20.7872 96.879 20.7276C96.7301 20.668 96.5782 20.6263 96.4233 20.6025C96.2625 20.5787 96.1017 20.5727 95.9409 20.5847C95.8099 20.5847 95.6818 20.5906 95.5567 20.6025C95.4257 20.6144 95.2976 20.6353 95.1726 20.6651C95.0415 20.6889 94.9164 20.7216 94.7973 20.7633C94.6722 20.805 94.5501 20.8527 94.431 20.9063C94.3179 20.9599 94.2077 21.0194 94.1005 21.085C93.9933 21.1445 93.889 21.213 93.7878 21.2905C93.6865 21.3619 93.5882 21.4423 93.4929 21.5317C93.3976 21.6151 93.3083 21.7014 93.2249 21.7908C93.1415 21.8861 93.0611 21.9873 92.9837 22.0945C92.9003 22.1958 92.8259 22.303 92.7603 22.4162C92.6948 22.5293 92.6323 22.6425 92.5727 22.7557C92.5191 22.8748 92.4685 22.9969 92.4208 23.122C92.3732 23.253 92.3315 23.384 92.2958 23.5151C92.26 23.652 92.2273 23.789 92.1975 23.926C92.1737 24.069 92.1558 24.2089 92.1439 24.3459C92.132 24.4889 92.129 24.6289 92.1349 24.7658V29.1525C92.1409 29.224 92.1349 29.2925 92.1171 29.358C92.0933 29.4235 92.0575 29.4831 92.0099 29.5367C91.9563 29.5843 91.8967 29.6201 91.8312 29.6439C91.7657 29.6618 91.6972 29.6677 91.6257 29.6618H91.2505C90.9288 29.6618 90.7412 29.492 90.7412 29.1525V16.0193Z" fill="#040000"/>
<path fill-rule="evenodd" clip-rule="evenodd" d="M101.321 24.6127C101.321 24.4281 101.327 24.2464 101.339 24.0677C101.357 23.8831 101.381 23.7014 101.411 23.5227C101.44 23.3381 101.479 23.1594 101.527 22.9867C101.568 22.808 101.622 22.6323 101.688 22.4596C101.741 22.3047 101.804 22.1528 101.875 22.0039C101.941 21.855 102.015 21.7121 102.099 21.5751C102.188 21.4321 102.28 21.2951 102.376 21.1641C102.477 21.0331 102.581 20.908 102.688 20.7889C102.801 20.6698 102.918 20.5566 103.037 20.4494C103.162 20.3422 103.29 20.2439 103.421 20.1546C103.552 20.0652 103.689 19.9788 103.832 19.8955C103.975 19.818 104.121 19.7495 104.27 19.69C104.43 19.6245 104.591 19.5649 104.752 19.5113C104.919 19.4636 105.086 19.422 105.252 19.3862C105.425 19.3564 105.595 19.3326 105.762 19.3147C105.934 19.3028 106.107 19.2969 106.28 19.2969C106.429 19.2969 106.578 19.3028 106.726 19.3147C106.875 19.3267 107.021 19.3475 107.164 19.3773C107.313 19.4011 107.459 19.4368 107.602 19.4845C107.745 19.5262 107.885 19.5738 108.022 19.6274C108.153 19.681 108.278 19.7436 108.397 19.8151C108.522 19.8806 108.641 19.955 108.755 20.0384C108.862 20.1158 108.969 20.2022 109.076 20.2975C109.177 20.3928 109.273 20.4911 109.362 20.5923C109.457 20.7055 109.547 20.8216 109.63 20.9408C109.713 21.0599 109.791 21.182 109.862 21.3071C109.934 21.4321 109.996 21.5632 110.05 21.7002C110.11 21.8312 110.16 21.9652 110.202 22.1022C110.255 22.269 110.3 22.4328 110.336 22.5936C110.378 22.7604 110.41 22.9301 110.434 23.1028C110.458 23.2696 110.476 23.4364 110.488 23.6031C110.494 23.7759 110.497 23.9486 110.497 24.1213C110.497 24.1511 110.494 24.1839 110.488 24.2196C110.482 24.2494 110.473 24.2821 110.461 24.3179C110.443 24.3477 110.425 24.3745 110.407 24.3983C110.389 24.4281 110.369 24.4549 110.345 24.4787C110.321 24.5025 110.294 24.5234 110.264 24.5412C110.235 24.5591 110.205 24.574 110.175 24.5859C110.139 24.5978 110.107 24.6067 110.077 24.6127C110.041 24.6187 110.005 24.6187 109.97 24.6127H102.733C102.733 24.7557 102.739 24.8956 102.751 25.0326C102.763 25.1756 102.784 25.3155 102.813 25.4525C102.837 25.5895 102.87 25.7265 102.912 25.8635C102.947 26.0005 102.992 26.1345 103.046 26.2655C103.135 26.5038 103.248 26.7301 103.385 26.9445C103.522 27.153 103.677 27.3495 103.85 27.5342C104.028 27.7129 104.225 27.8737 104.439 28.0166C104.654 28.1536 104.877 28.2698 105.109 28.3651C105.234 28.4127 105.363 28.4544 105.494 28.4901C105.619 28.5259 105.747 28.5556 105.878 28.5795C106.009 28.6033 106.14 28.6212 106.271 28.6331C106.402 28.645 106.533 28.6509 106.664 28.6509C106.783 28.6569 106.902 28.6539 107.021 28.642C107.14 28.6361 107.257 28.6241 107.37 28.6063C107.489 28.5825 107.605 28.5556 107.718 28.5259C107.831 28.4961 107.944 28.4604 108.058 28.4187C108.171 28.377 108.284 28.3323 108.397 28.2846C108.504 28.237 108.612 28.1834 108.719 28.1238C108.826 28.0643 108.93 28.0017 109.031 27.9362C109.133 27.8707 109.231 27.7992 109.326 27.7218C109.374 27.6801 109.431 27.6503 109.496 27.6325C109.556 27.6146 109.618 27.6116 109.684 27.6235C109.749 27.6354 109.809 27.6622 109.862 27.7039C109.916 27.7397 109.958 27.7873 109.987 27.8469L110.148 28.0881C110.184 28.1417 110.208 28.2013 110.22 28.2668C110.232 28.3263 110.232 28.3889 110.22 28.4544C110.208 28.5199 110.184 28.5765 110.148 28.6241C110.107 28.6777 110.059 28.7224 110.005 28.7582C109.88 28.8475 109.755 28.9339 109.63 29.0172C109.499 29.0947 109.368 29.1691 109.237 29.2406C109.1 29.3121 108.963 29.3776 108.826 29.4372C108.683 29.4908 108.54 29.5414 108.397 29.589C108.26 29.6426 108.117 29.6873 107.968 29.723C107.825 29.7588 107.679 29.7915 107.531 29.8213C107.382 29.8451 107.233 29.863 107.084 29.8749C106.935 29.8928 106.783 29.9017 106.628 29.9017C106.45 29.9017 106.271 29.8928 106.092 29.8749C105.907 29.863 105.726 29.8392 105.547 29.8035C105.374 29.7737 105.199 29.732 105.02 29.6784C104.847 29.6307 104.678 29.5741 104.511 29.5086C104.195 29.3835 103.897 29.2287 103.617 29.0441C103.331 28.8594 103.069 28.648 102.831 28.4097C102.593 28.1715 102.381 27.9094 102.197 27.6235C102.012 27.3436 101.857 27.0458 101.732 26.7301C101.667 26.5633 101.607 26.3936 101.554 26.2209C101.506 26.0422 101.464 25.8665 101.429 25.6937C101.393 25.5151 101.366 25.3334 101.348 25.1488C101.33 24.9701 101.321 24.7914 101.321 24.6127ZM109.139 23.6031C109.139 23.3947 109.121 23.1862 109.085 22.9778C109.049 22.7752 108.996 22.5757 108.924 22.3792C108.859 22.1826 108.772 21.992 108.665 21.8074C108.564 21.6287 108.445 21.4589 108.308 21.2981C108.183 21.1552 108.043 21.0271 107.888 20.914C107.727 20.8008 107.56 20.7085 107.388 20.637C107.209 20.5596 107.027 20.503 106.843 20.4673C106.652 20.4315 106.461 20.4196 106.271 20.4315C106.056 20.4256 105.845 20.4404 105.636 20.4762C105.428 20.506 105.226 20.5596 105.029 20.637C104.832 20.7085 104.642 20.8008 104.457 20.914C104.279 21.0271 104.112 21.1552 103.957 21.2981C103.796 21.447 103.65 21.6108 103.519 21.7895C103.388 21.9622 103.272 22.1469 103.171 22.3434C103.069 22.54 102.986 22.7455 102.921 22.9599C102.861 23.1683 102.816 23.3828 102.786 23.6031H109.139Z" fill="#040000"/>
<path fill-rule="evenodd" clip-rule="evenodd" d="M111.551 26.944C111.551 26.676 111.587 26.4079 111.658 26.1488C111.739 25.8987 111.846 25.6485 111.989 25.4252C112.132 25.2018 112.302 24.9963 112.498 24.8176C112.695 24.639 112.918 24.4871 113.159 24.3709C114.24 23.7634 115.759 23.4597 117.725 23.4597H118.305V23.147C118.305 21.4137 117.468 20.5471 115.795 20.5471C115.688 20.5471 115.58 20.5531 115.473 20.565C115.366 20.5709 115.259 20.5829 115.152 20.6007C115.05 20.6126 114.946 20.6305 114.839 20.6543C114.732 20.6782 114.627 20.705 114.526 20.7347C114.425 20.7586 114.324 20.7883 114.222 20.8241C114.115 20.8598 114.014 20.8985 113.919 20.9402C113.817 20.9819 113.719 21.0266 113.624 21.0742C113.529 21.1219 113.433 21.1755 113.338 21.235C113.284 21.2767 113.225 21.3035 113.159 21.3155C113.094 21.3333 113.028 21.3333 112.963 21.3155C112.897 21.2976 112.838 21.2678 112.784 21.2261C112.73 21.1844 112.689 21.1338 112.659 21.0742L112.534 20.8687C112.489 20.8241 112.453 20.7615 112.436 20.6901C112.418 20.6275 112.418 20.5561 112.436 20.4846C112.444 20.422 112.471 20.3595 112.516 20.3059C112.561 20.2523 112.614 20.2076 112.677 20.1808C112.921 20.0319 113.171 19.9039 113.427 19.7966C113.689 19.6835 113.957 19.5882 114.231 19.5108C114.499 19.4393 114.773 19.3827 115.053 19.341C115.333 19.3053 115.613 19.2844 115.893 19.2785C116.149 19.2606 116.405 19.2695 116.661 19.3053C116.912 19.341 117.156 19.4035 117.394 19.4929C117.638 19.5822 117.868 19.6924 118.082 19.8234C118.302 19.9545 118.505 20.1093 118.689 20.288C118.862 20.4846 119.017 20.696 119.154 20.9224C119.285 21.1487 119.392 21.384 119.476 21.6282C119.565 21.8783 119.628 22.1344 119.663 22.3965C119.699 22.6526 119.708 22.9117 119.69 23.1738V29.1507C119.69 29.4902 119.529 29.66 119.19 29.66H118.868C118.797 29.6659 118.728 29.66 118.663 29.6421C118.597 29.6183 118.541 29.5796 118.493 29.526C118.439 29.4783 118.404 29.4217 118.386 29.3562C118.362 29.2907 118.356 29.2222 118.368 29.1507C118.368 28.9899 118.368 28.0339 118.368 27.8999C118.368 27.8702 118.368 27.8434 118.368 27.8195C118.374 27.7897 118.377 27.7629 118.377 27.7391C118.383 27.7153 118.389 27.6885 118.395 27.6587C118.401 27.6349 118.407 27.6111 118.413 27.5872H118.377C118.323 27.6885 118.27 27.7897 118.216 27.891C118.156 27.9923 118.097 28.0935 118.037 28.1948C117.972 28.2901 117.903 28.3824 117.832 28.4717C117.76 28.567 117.686 28.6564 117.608 28.7397C117.531 28.8231 117.451 28.9006 117.367 28.972C117.284 29.0435 117.2 29.115 117.117 29.1865C117.028 29.252 116.935 29.3145 116.84 29.3741C116.745 29.4336 116.649 29.4872 116.554 29.5349C116.429 29.6004 116.304 29.657 116.179 29.7046C116.048 29.7523 115.914 29.791 115.777 29.8208C115.64 29.8506 115.503 29.8714 115.366 29.8833C115.229 29.9012 115.092 29.9071 114.955 29.9012C114.836 29.9012 114.72 29.8982 114.607 29.8923C114.487 29.8803 114.371 29.8655 114.258 29.8476C114.145 29.8297 114.029 29.8059 113.91 29.7761C113.797 29.7463 113.686 29.7136 113.579 29.6778C113.478 29.6421 113.38 29.6034 113.284 29.5617C113.189 29.52 113.097 29.4723 113.007 29.4187C112.918 29.3711 112.829 29.3175 112.739 29.2579C112.656 29.1984 112.573 29.1328 112.489 29.0614C112.34 28.9303 112.206 28.7844 112.087 28.6236C111.962 28.4628 111.861 28.2901 111.783 28.1054C111.7 27.9208 111.637 27.7302 111.596 27.5336C111.554 27.3371 111.533 27.1405 111.533 26.944H111.551ZM112.963 26.8189C112.957 26.9499 112.969 27.081 112.998 27.212C113.022 27.343 113.064 27.4681 113.123 27.5872C113.177 27.7064 113.243 27.8195 113.32 27.9267C113.403 28.028 113.496 28.1203 113.597 28.2037C113.71 28.299 113.829 28.3824 113.954 28.4539C114.085 28.5253 114.219 28.5849 114.356 28.6325C114.493 28.6742 114.633 28.707 114.776 28.7308C114.925 28.7487 115.071 28.7546 115.214 28.7487C115.315 28.7487 115.417 28.7427 115.518 28.7308C115.625 28.7189 115.726 28.701 115.822 28.6772C115.923 28.6534 116.021 28.6236 116.116 28.5879C116.218 28.5521 116.313 28.5104 116.402 28.4628C116.498 28.4151 116.59 28.3615 116.679 28.302C116.775 28.2424 116.864 28.1799 116.947 28.1144C117.031 28.0429 117.111 27.9684 117.189 27.891C117.266 27.8195 117.337 27.7421 117.403 27.6587C117.48 27.5634 117.552 27.4681 117.617 27.3728C117.677 27.2775 117.736 27.1792 117.796 27.078C117.85 26.9767 117.9 26.8725 117.948 26.7653C117.996 26.664 118.04 26.5568 118.082 26.4437C118.124 26.3305 118.159 26.2114 118.189 26.0863C118.225 25.9672 118.252 25.8451 118.27 25.72C118.293 25.5949 118.308 25.4698 118.314 25.3448C118.326 25.2197 118.332 25.0946 118.332 24.9695V24.4692H117.769C117.46 24.4513 117.153 24.4513 116.849 24.4692C116.539 24.4871 116.233 24.5228 115.929 24.5764C115.631 24.63 115.333 24.6985 115.035 24.7819C114.738 24.8653 114.446 24.9636 114.16 25.0767C113.99 25.1482 113.829 25.2376 113.677 25.3537C113.534 25.4698 113.4 25.6128 113.293 25.7647C113.186 25.9165 113.106 26.0863 113.052 26.265C112.989 26.4437 112.963 26.6313 112.963 26.8189Z" fill="#040000"/>
<path d="M122.145 16.0193C122.145 15.6798 122.305 15.51 122.645 15.51H123.029C123.1 15.5041 123.169 15.51 123.234 15.5279C123.3 15.5517 123.357 15.5875 123.404 15.6351C123.458 15.6887 123.497 15.7483 123.52 15.8138C123.538 15.8793 123.541 15.9478 123.529 16.0193V27.0262C123.529 27.9196 123.887 28.411 124.575 28.4914C124.634 28.4914 124.691 28.5033 124.744 28.5271C124.798 28.5509 124.846 28.5837 124.887 28.6254C124.923 28.6671 124.953 28.7147 124.977 28.7683C124.995 28.822 125.003 28.8785 125.003 28.9381V29.2329C125.003 29.5724 124.825 29.7422 124.494 29.7422C124.339 29.7481 124.184 29.7392 124.03 29.7154C123.875 29.6915 123.726 29.6528 123.583 29.5992C123.434 29.5397 123.294 29.4682 123.163 29.3848C123.032 29.2955 122.91 29.1972 122.797 29.09C122.69 28.9649 122.597 28.8309 122.52 28.6879C122.436 28.539 122.368 28.3872 122.314 28.2323C122.261 28.0774 122.225 27.9196 122.207 27.7588C122.183 27.592 122.177 27.4282 122.189 27.2674L122.145 16.0193Z" fill="#040000"/>
<path d="M126.854 20.7646H126.005C125.943 20.7825 125.871 20.7825 125.8 20.7557C125.737 20.7378 125.675 20.7021 125.621 20.6485C125.576 20.6038 125.532 20.5413 125.514 20.4698C125.496 20.4072 125.487 20.3358 125.505 20.2643V20.1303C125.505 19.7908 125.666 19.63 126.005 19.63H126.872V17.2446C126.86 17.179 126.866 17.1105 126.89 17.0391C126.913 16.9735 126.949 16.917 126.997 16.8693C127.045 16.8217 127.101 16.7859 127.167 16.7621C127.238 16.7383 127.307 16.7323 127.372 16.7442H127.729C128.051 16.7442 128.239 16.9051 128.239 17.2446V19.63H130.285C130.356 19.6181 130.425 19.624 130.49 19.6478C130.556 19.6657 130.612 19.7014 130.66 19.7551C130.713 19.8027 130.749 19.8593 130.767 19.9248C130.791 19.9903 130.797 20.0588 130.785 20.1303V20.2911C130.785 20.6127 130.624 20.7914 130.285 20.7914H128.239V25.8392C128.227 26.006 128.23 26.1757 128.248 26.3485C128.266 26.5152 128.301 26.682 128.355 26.8488C128.403 27.0096 128.465 27.1674 128.542 27.3223C128.62 27.4771 128.709 27.6231 128.81 27.7601C128.912 27.8792 129.025 27.9834 129.15 28.0728C129.269 28.1681 129.4 28.2455 129.543 28.305C129.686 28.3706 129.835 28.4182 129.99 28.448C130.139 28.4837 130.291 28.4986 130.445 28.4927C130.481 28.4986 130.52 28.5046 130.562 28.5105C130.597 28.5165 130.633 28.5254 130.669 28.5373C130.705 28.5492 130.737 28.5641 130.767 28.582C130.803 28.5999 130.836 28.6207 130.865 28.6445C130.889 28.6684 130.91 28.6922 130.928 28.716C130.946 28.7458 130.958 28.7756 130.964 28.8054C130.976 28.8351 130.984 28.8679 130.99 28.9036C130.99 28.9334 130.99 28.9632 130.99 28.993V29.261C130.99 29.5826 130.803 29.7613 130.428 29.7613C130.183 29.7792 129.942 29.7703 129.704 29.7345C129.466 29.6988 129.233 29.6392 129.007 29.5558C128.781 29.4724 128.563 29.3652 128.355 29.2342C128.152 29.1032 127.965 28.9543 127.792 28.7875C127.631 28.5969 127.488 28.3944 127.363 28.18C127.238 27.9655 127.137 27.7392 127.059 27.501C126.982 27.2687 126.925 27.0275 126.89 26.7773C126.86 26.5331 126.851 26.2859 126.863 26.0358L126.854 20.7646Z" fill="#040000"/>
<path d="M132.401 16.0193C132.401 15.6798 132.561 15.51 132.901 15.51H133.258C133.33 15.5041 133.398 15.51 133.464 15.5279C133.529 15.5517 133.586 15.5875 133.633 15.6351C133.687 15.6887 133.723 15.7483 133.741 15.8138C133.764 15.8793 133.77 15.9478 133.759 16.0193V21.0492C133.759 21.0909 133.759 21.1326 133.759 21.1743C133.759 21.216 133.759 21.2577 133.759 21.2994C133.753 21.3411 133.75 21.3828 133.75 21.4245C133.744 21.4662 133.738 21.5078 133.732 21.5495C133.732 21.7104 133.696 21.8176 133.678 21.889H133.723C133.759 21.7937 133.8 21.7014 133.848 21.6121C133.896 21.5227 133.946 21.4364 134 21.353C134.047 21.2696 134.104 21.1892 134.17 21.1118C134.229 21.0284 134.292 20.951 134.357 20.8795C134.423 20.7961 134.494 20.7187 134.572 20.6472C134.649 20.5698 134.726 20.4983 134.804 20.4328C134.881 20.3613 134.965 20.2958 135.054 20.2362C135.137 20.1707 135.224 20.1082 135.313 20.0486C135.402 19.989 135.495 19.9354 135.59 19.8878C135.685 19.8342 135.781 19.7836 135.876 19.7359C135.977 19.6883 136.078 19.6466 136.18 19.6108C136.281 19.5691 136.382 19.5334 136.483 19.5036C136.591 19.4679 136.695 19.4381 136.796 19.4143C136.903 19.3845 137.011 19.3636 137.118 19.3517C137.225 19.3339 137.332 19.319 137.439 19.3071C137.547 19.3011 137.654 19.2981 137.761 19.2981C138.94 19.2981 139.807 19.6108 140.343 20.2452C140.888 20.8795 141.165 21.8622 141.165 23.2202V29.1525C141.165 29.492 141.004 29.6618 140.656 29.6618H140.298C140.227 29.6677 140.158 29.6618 140.093 29.6439C140.027 29.6201 139.971 29.5843 139.923 29.5367C139.87 29.4831 139.834 29.4235 139.816 29.358C139.792 29.2925 139.786 29.224 139.798 29.1525V23.5776C139.81 23.381 139.81 23.1845 139.798 22.9879C139.786 22.7914 139.759 22.5948 139.718 22.3983C139.676 22.2017 139.619 22.0111 139.548 21.8265C139.476 21.6419 139.39 21.4632 139.289 21.2905C139.188 21.1654 139.074 21.0552 138.949 20.9599C138.818 20.8646 138.678 20.7872 138.529 20.7276C138.38 20.668 138.229 20.6263 138.074 20.6025C137.913 20.5787 137.752 20.5727 137.591 20.5847C137.46 20.5847 137.332 20.5906 137.207 20.6025C137.076 20.6144 136.948 20.6353 136.823 20.6651C136.692 20.6889 136.567 20.7216 136.448 20.7633C136.323 20.805 136.201 20.8527 136.081 20.9063C135.968 20.9599 135.858 21.0194 135.751 21.085C135.644 21.1445 135.539 21.213 135.438 21.2905C135.337 21.3619 135.239 21.4423 135.143 21.5317C135.048 21.6151 134.959 21.7014 134.875 21.7908C134.792 21.8861 134.712 21.9873 134.634 22.0945C134.551 22.1958 134.476 22.303 134.411 22.4162C134.345 22.5293 134.283 22.6425 134.223 22.7557C134.17 22.8748 134.119 22.9969 134.071 23.122C134.024 23.253 133.982 23.384 133.946 23.5151C133.91 23.652 133.878 23.789 133.848 23.926C133.824 24.069 133.806 24.2089 133.794 24.3459C133.782 24.4889 133.779 24.6289 133.785 24.7658V29.1525C133.791 29.224 133.785 29.2925 133.767 29.358C133.744 29.4235 133.708 29.4831 133.66 29.5367C133.607 29.5843 133.547 29.6201 133.482 29.6439C133.416 29.6618 133.348 29.6677 133.276 29.6618H132.901C132.579 29.6618 132.392 29.492 132.392 29.1525L132.401 16.0193Z" fill="#040000"/>
<path d="M21.1181 15.4204L17.053 11.6859C13.122 8.08542 17.5444 0 17.5444 0L26.6662 8.35345C27.5775 9.19326 28.3101 10.1939 28.8283 11.3196C29.3554 12.4364 29.6502 13.6425 29.7128 14.8843C29.7753 16.1172 29.5966 17.3502 29.1767 18.5116C28.7657 19.682 28.1314 20.7541 27.3095 21.6743L21.9132 27.6244C27.5864 21.2991 21.672 15.9207 21.1181 15.4204Z" fill="#C4D82E"/>
<path d="M13.5768 4.61719C13.5768 4.61719 9.14547 12.7026 13.0765 16.3031L17.1415 20.0376C17.6955 20.5379 22.922 26.756 17.2577 33.0814L8.14484 24.7191C7.23356 23.8882 6.50095 22.8786 5.97384 21.7619C5.44672 20.6361 5.1519 19.43 5.08936 18.1971C5.03575 16.9642 5.21443 15.7313 5.62541 14.5609C6.03638 13.3995 6.6707 12.3274 7.50158 11.4072L13.5768 4.61719Z" fill="#008890"/>
<path fill-rule="evenodd" clip-rule="evenodd" d="M142.688 27.9175C142.682 27.858 142.682 27.8014 142.688 27.7478C142.694 27.6882 142.703 27.6286 142.715 27.5691C142.727 27.5095 142.742 27.4499 142.76 27.3904C142.777 27.3368 142.795 27.2832 142.813 27.2295C142.837 27.1759 142.861 27.1223 142.885 27.0687C142.914 27.0211 142.944 26.9734 142.974 26.9258C143.004 26.8781 143.037 26.8334 143.072 26.7917C143.108 26.7441 143.147 26.7024 143.188 26.6667C143.224 26.625 143.266 26.5862 143.313 26.5505C143.355 26.5148 143.397 26.479 143.439 26.4433C143.486 26.4135 143.534 26.3837 143.582 26.3539C143.635 26.3301 143.686 26.3063 143.733 26.2825C143.841 26.2348 143.951 26.1991 144.064 26.1752C144.183 26.1574 144.299 26.1484 144.412 26.1484C144.532 26.1484 144.648 26.1574 144.761 26.1752C144.874 26.1991 144.984 26.2348 145.092 26.2825C145.199 26.3242 145.297 26.3778 145.386 26.4433C145.482 26.5088 145.568 26.5833 145.645 26.6667C145.729 26.7441 145.8 26.8305 145.86 26.9258C145.925 27.0211 145.979 27.1223 146.021 27.2295C146.045 27.2832 146.065 27.3368 146.083 27.3904C146.101 27.4499 146.116 27.5095 146.128 27.5691C146.14 27.6227 146.149 27.6793 146.155 27.7388C146.161 27.7984 146.164 27.858 146.164 27.9175C146.164 28.0367 146.152 28.1528 146.128 28.266C146.11 28.3792 146.077 28.4923 146.03 28.6055C145.988 28.7127 145.937 28.814 145.878 28.9093C145.812 29.0106 145.741 29.1029 145.663 29.1863C145.538 29.3114 145.395 29.4096 145.243 29.499C145.092 29.5794 144.931 29.633 144.761 29.6688C144.591 29.7045 144.412 29.7134 144.243 29.6956C144.073 29.6777 143.903 29.633 143.742 29.5615C143.695 29.5377 143.644 29.5139 143.59 29.4901C143.543 29.4603 143.498 29.4305 143.456 29.4007C143.409 29.3709 143.364 29.3382 143.322 29.3024C143.275 29.2607 143.233 29.222 143.197 29.1863C143.156 29.1446 143.117 29.1029 143.081 29.0612C143.045 29.0135 143.013 28.9659 142.983 28.9182C142.953 28.8706 142.923 28.8229 142.894 28.7753C142.87 28.7217 142.846 28.671 142.822 28.6234C142.798 28.5638 142.78 28.5072 142.768 28.4536C142.751 28.3941 142.736 28.3345 142.724 28.2749C142.712 28.2154 142.703 28.1558 142.697 28.0962C142.691 28.0367 142.688 27.9771 142.688 27.9175ZM142.974 27.9175C142.968 27.9711 142.968 28.0247 142.974 28.0784C142.98 28.126 142.986 28.1766 142.992 28.2302C143.004 28.2779 143.016 28.3256 143.028 28.3732C143.045 28.4209 143.063 28.4685 143.081 28.5162C143.099 28.5638 143.117 28.6115 143.135 28.6591C143.159 28.7008 143.182 28.7425 143.206 28.7842C143.236 28.8259 143.266 28.8676 143.296 28.9093C143.325 28.951 143.355 28.9897 143.385 29.0254C143.421 29.0552 143.456 29.088 143.492 29.1237C143.528 29.1535 143.564 29.1803 143.599 29.2041C143.641 29.2339 143.68 29.2607 143.716 29.2846C143.757 29.3084 143.799 29.3292 143.841 29.3471C143.888 29.365 143.936 29.3799 143.984 29.3918C144.031 29.4096 144.079 29.4245 144.127 29.4365C144.174 29.4424 144.222 29.4484 144.27 29.4543C144.317 29.4603 144.365 29.4633 144.412 29.4633C144.46 29.4633 144.511 29.4603 144.564 29.4543C144.612 29.4484 144.66 29.4394 144.707 29.4275C144.755 29.4216 144.803 29.4096 144.85 29.3918C144.898 29.3799 144.946 29.365 144.993 29.3471C145.077 29.3054 145.16 29.2578 145.243 29.2041C145.321 29.1505 145.392 29.088 145.458 29.0165C145.523 28.951 145.583 28.8765 145.637 28.7931C145.69 28.7157 145.732 28.6323 145.762 28.543C145.785 28.4953 145.803 28.4447 145.815 28.3911C145.827 28.3434 145.839 28.2958 145.851 28.2481C145.857 28.1945 145.863 28.1439 145.869 28.0962C145.875 28.0426 145.878 27.992 145.878 27.9443C145.878 27.8907 145.875 27.8401 145.869 27.7924C145.863 27.7388 145.857 27.6882 145.851 27.6406C145.839 27.5869 145.827 27.5363 145.815 27.4887C145.803 27.441 145.785 27.3934 145.762 27.3457C145.75 27.2981 145.732 27.2534 145.708 27.2117C145.684 27.164 145.66 27.1194 145.637 27.0777C145.607 27.036 145.577 26.9972 145.547 26.9615C145.517 26.9198 145.488 26.8811 145.458 26.8454C145.386 26.7739 145.312 26.7113 145.234 26.6577C145.151 26.6041 145.065 26.5594 144.975 26.5237C144.886 26.482 144.794 26.4522 144.698 26.4344C144.603 26.4165 144.508 26.4075 144.412 26.4075C144.365 26.4075 144.317 26.4105 144.27 26.4165C144.222 26.4165 144.174 26.4224 144.127 26.4344C144.079 26.4463 144.031 26.4582 143.984 26.4701C143.936 26.488 143.888 26.5058 143.841 26.5237C143.799 26.5416 143.757 26.5624 143.716 26.5862C143.68 26.6101 143.641 26.6369 143.599 26.6667C143.564 26.6905 143.528 26.7173 143.492 26.7471C143.456 26.7769 143.421 26.8096 143.385 26.8454C143.355 26.8811 143.325 26.9198 143.296 26.9615C143.266 26.9972 143.236 27.036 143.206 27.0777C143.182 27.1194 143.159 27.164 143.135 27.2117C143.117 27.2534 143.099 27.2981 143.081 27.3457C143.063 27.3934 143.048 27.441 143.037 27.4887C143.019 27.5363 143.007 27.584 143.001 27.6316C142.989 27.6793 142.98 27.7269 142.974 27.7746C142.974 27.8222 142.974 27.8699 142.974 27.9175ZM143.823 27.0866C143.817 27.0687 143.817 27.0509 143.823 27.033C143.829 27.0211 143.838 27.0092 143.85 26.9972C143.862 26.9853 143.876 26.9764 143.894 26.9704C143.906 26.9645 143.921 26.9615 143.939 26.9615H144.502C144.544 26.9615 144.582 26.9645 144.618 26.9704C144.654 26.9764 144.689 26.9883 144.725 27.0062C144.761 27.0181 144.794 27.033 144.823 27.0509C144.859 27.0747 144.889 27.0985 144.913 27.1223C144.96 27.17 144.999 27.2236 145.029 27.2832C145.053 27.3487 145.068 27.4142 145.074 27.4797C145.08 27.5452 145.074 27.6108 145.056 27.6763C145.038 27.7418 145.011 27.8044 144.975 27.8639C144.958 27.8818 144.94 27.8997 144.922 27.9175C144.904 27.9414 144.883 27.9592 144.859 27.9711C144.835 27.989 144.812 28.0009 144.788 28.0069C144.764 28.0188 144.74 28.0277 144.716 28.0337L144.743 28.0784L144.779 28.1498L145.083 28.7306C145.089 28.7366 145.092 28.7425 145.092 28.7485C145.092 28.7604 145.092 28.7693 145.092 28.7753C145.092 28.7872 145.092 28.7961 145.092 28.8021C145.092 28.808 145.089 28.817 145.083 28.8289C145.083 28.8378 145.038 28.8646 144.993 28.8646H144.94C144.922 28.8646 144.907 28.8646 144.895 28.8646C144.877 28.8587 144.862 28.8527 144.85 28.8468C144.838 28.8348 144.829 28.8229 144.823 28.811C144.812 28.7991 144.803 28.7872 144.797 28.7753L144.457 28.0962H144.1V28.7395C144.1 28.8229 144.058 28.8646 143.975 28.8646H143.939C143.856 28.8646 143.814 28.8229 143.814 28.7395L143.823 27.0866ZM144.457 27.8907C144.481 27.8907 144.505 27.8877 144.529 27.8818C144.547 27.8818 144.567 27.8788 144.591 27.8729C144.609 27.8609 144.63 27.849 144.654 27.8371C144.672 27.8252 144.689 27.8133 144.707 27.8014C144.719 27.7835 144.731 27.7627 144.743 27.7388C144.755 27.721 144.767 27.7001 144.779 27.6763C144.785 27.6525 144.788 27.6286 144.788 27.6048C144.794 27.581 144.797 27.5572 144.797 27.5333C144.797 27.5155 144.794 27.4946 144.788 27.4708C144.788 27.447 144.785 27.4261 144.779 27.4082C144.767 27.3844 144.758 27.3636 144.752 27.3457C144.74 27.3278 144.725 27.31 144.707 27.2921C144.689 27.2742 144.672 27.2593 144.654 27.2474C144.636 27.2355 144.615 27.2266 144.591 27.2206C144.573 27.2147 144.552 27.2087 144.529 27.2027C144.505 27.1968 144.484 27.1968 144.466 27.2027H144.109V27.8907H144.457Z" fill="#040000"/>
</svg>
