<svg width="150" height="38" viewBox="0 0 150 38" fill="none" xmlns="http://www.w3.org/2000/svg">
<path d="M108.741 17.7056V25.1932H111.143V20.2042H119.882V25.1932H122.281V17.7185L108.741 17.7056ZM110.875 15.2835H120.109C121.391 15.0286 122.345 13.8968 122.613 12.8019H108.371C108.637 13.8971 109.601 15.0286 110.875 15.2835ZM101.47 25.198C102.68 24.6847 103.332 23.797 103.581 22.7582H92.8106L92.8174 12.8081L90.4032 12.8149V25.198H101.469M72.4505 15.25H80.9777C82.2632 14.8765 83.3424 13.8968 83.6089 12.8115H70.0633V20.1293H81.1499V22.6973L72.4533 22.7042C71.0905 23.0841 69.9348 24.0027 69.3584 25.2079L70.063 25.1949H83.5317V17.6963H72.4533V15.2496M51.4002 15.2736H60.6265C61.9107 15.0173 62.8647 13.8869 63.1327 12.791H48.8934C49.1592 13.8869 50.1277 15.0176 51.3995 15.2736M51.3999 20.1676H60.6262C61.9103 19.9147 62.8644 18.7826 63.1323 17.6861H48.8934C49.1592 18.7796 50.128 19.9141 51.3999 20.1676ZM51.3999 25.1966H60.6262C61.9103 24.9414 62.8644 23.81 63.1323 22.7148H48.8934C49.1592 23.8103 50.128 24.9414 51.3999 25.1966ZM27.3872 12.8211C27.6647 13.9033 28.6017 15.0094 29.8872 15.2866H33.7691L33.9673 15.3652V25.1724H36.3934V15.3652L36.6139 15.2866H40.5026C41.8025 14.9517 42.7193 13.9033 42.992 12.8211V12.7972H27.3872V12.8211Z" fill="#E82127"/>
</svg>
