<svg width="39" height="40" viewBox="0 0 39 40" fill="none" xmlns="http://www.w3.org/2000/svg">
<g clip-path="url(#clip0_24614_9075)">
<path d="M19.417 0.545411C18.6398 0.545008 17.8603 0.74273 17.1505 1.1427L4.12015 8.48936C2.63132 9.32632 1.70898 10.9243 1.70898 12.6578V27.0619C1.70898 28.7954 2.63132 30.3934 4.12015 31.2304L17.1505 38.577C17.8587 38.9762 18.6365 39.1743 19.4139 39.1743C20.1897 39.1743 20.9691 38.9762 21.6773 38.577L34.7077 31.2304C36.1965 30.3934 37.1188 28.7954 37.1188 27.0619V12.6578C37.1188 10.9243 36.1965 9.32632 34.7077 8.48936L21.6773 1.1427C20.9699 0.74434 20.1943 0.545813 19.417 0.545411ZM19.4139 3.76763C19.6489 3.76763 19.882 3.8261 20.0961 3.94682L33.1264 11.2935C33.6028 11.5607 33.8997 12.0848 33.8997 12.6578V27.0619C33.8997 27.6349 33.6028 28.1575 33.1264 28.4263L20.0961 35.7729C19.6679 36.0111 19.1599 36.0143 18.7317 35.7729L5.70139 28.4263C5.22497 28.1591 4.92806 27.6349 4.92806 27.0619V12.6578C4.92806 12.0848 5.22497 11.5623 5.70139 11.2935L18.7317 3.94682C18.9458 3.82771 19.1789 3.76763 19.4139 3.76763Z" fill="#846358"/>
<path d="M7.85156 18.4197C7.85156 16.7555 9.20518 15.4019 10.8694 15.4019H13.0826C13.7489 15.4019 14.2897 15.9427 14.2897 16.609C14.2897 17.2754 13.7489 17.8162 13.0826 17.8162H10.8694C10.5363 17.8162 10.2659 18.0866 10.2659 18.4197C10.2659 18.7529 10.5363 19.0233 10.8694 19.0233H11.2718C12.9361 19.0233 14.2897 20.3769 14.2897 22.0412C14.2897 23.7055 12.9361 25.0591 11.2718 25.0591H9.05872C8.39237 25.0591 7.85156 24.5183 7.85156 23.8519C7.85156 23.1856 8.39237 22.6448 9.05872 22.6448H11.2718C11.605 22.6448 11.8754 22.3744 11.8754 22.0412C11.8754 21.708 11.605 21.4376 11.2718 21.4376H10.8694C9.20518 21.4376 7.85156 20.084 7.85156 18.4197Z" fill="#451E11"/>
<path d="M23.9453 16.6095C23.9453 15.9432 24.4861 15.4024 25.1525 15.4024C25.8188 15.4024 26.3596 15.9432 26.3596 16.6095V17.5212L28.3684 15.7105C28.8657 15.2662 29.6295 15.3059 30.0754 15.8016C30.5212 16.299 30.48 17.0628 29.9842 17.5086L26.9569 20.231L29.9842 22.9534C30.48 23.4008 30.5212 24.163 30.0754 24.6604C29.8356 24.9243 29.5063 25.0596 29.1763 25.0596C28.8882 25.0596 28.6002 24.9576 28.3684 24.7484L26.3596 22.9408V23.8525C26.3596 24.5188 25.8188 25.0596 25.1525 25.0596C24.4861 25.0596 23.9453 24.5188 23.9453 23.8525V16.6095Z" fill="#451E11"/>
<path fill-rule="evenodd" clip-rule="evenodd" d="M17.1056 15.4023C16.4392 15.4023 15.8984 15.9431 15.8984 16.6095V23.8524C15.8984 24.5188 16.4392 25.0596 17.1056 25.0596H19.5199C21.0731 25.0596 22.3366 23.7961 22.3366 22.2429V18.219C22.3366 16.6658 21.0731 15.4023 19.5199 15.4023H17.1056ZM18.3125 17.8167H19.5197C19.7418 17.8167 19.922 17.9969 19.922 18.219V22.2429C19.922 22.465 19.7418 22.6453 19.5197 22.6453H18.3125V17.8167Z" fill="#451E11"/>
</g>
<defs>
<clipPath id="clip0_24614_9075">
<rect width="38.6289" height="38.6289" fill="white" transform="translate(0.0996094 0.54541)"/>
</clipPath>
</defs>
</svg>
