<svg width="40" height="40" viewBox="0 0 40 40" fill="none" xmlns="http://www.w3.org/2000/svg">
<g clip-path="url(#clip0_24614_9082)">
<path d="M20.0459 0.545411C19.2687 0.545008 18.4892 0.74273 17.7794 1.1427L4.74905 8.48936C3.26023 9.32632 2.33789 10.9243 2.33789 12.6578V27.0619C2.33789 28.7954 3.26023 30.3934 4.74905 31.2304L17.7794 38.577C18.4876 38.9762 19.2654 39.1743 20.0428 39.1743C20.8186 39.1743 21.598 38.9762 22.3062 38.577L35.3366 31.2304C36.8254 30.3934 37.7477 28.7954 37.7477 27.0619V12.6578C37.7477 10.9243 36.8254 9.32632 35.3366 8.48936L22.3062 1.1427C21.5988 0.74434 20.8232 0.545813 20.0459 0.545411ZM20.0428 3.76763C20.2778 3.76763 20.5109 3.8261 20.725 3.94682L33.7553 11.2935C34.2317 11.5607 34.5286 12.0848 34.5286 12.6578V27.0619C34.5286 27.6349 34.2317 28.1575 33.7553 28.4263L20.725 35.7729C20.2968 36.0111 19.7888 36.0143 19.3606 35.7729L6.3303 28.4263C5.85388 28.1591 5.55697 27.6349 5.55697 27.0619V12.6578C5.55697 12.0848 5.85388 11.5623 6.3303 11.2935L19.3606 3.94682C19.5747 3.82771 19.8078 3.76763 20.0428 3.76763Z" fill="#846358"/>
<path d="M27.7734 16.3887C27.7734 15.6223 28.2001 15.1887 28.9294 15.1887C29.6588 15.1887 30.0792 15.6223 30.0792 16.3887V23.331C30.0792 24.0973 29.6588 24.5309 28.9294 24.5309C28.2001 24.5309 27.7734 24.0973 27.7734 23.331V16.3887Z" fill="#451E11"/>
<path fill-rule="evenodd" clip-rule="evenodd" d="M14.1944 15.1887C13.2953 15.1887 12.7352 15.61 12.4023 16.5332L10.1673 22.6776C10.0667 22.9542 10.0039 23.2369 10.0039 23.4315C10.0039 24.1166 10.4494 24.5317 11.1788 24.5309C11.7947 24.5309 12.1403 24.2167 12.3599 23.4503L12.6677 22.4828H15.7713L16.0792 23.488C16.2802 24.2295 16.6259 24.5309 17.2917 24.5309C17.964 24.5309 18.4477 24.0726 18.4477 23.4252C18.4477 23.1864 18.4039 22.9727 18.2969 22.6776L16.0415 16.5332C15.6957 15.5907 15.1433 15.1887 14.1944 15.1887ZM14.1573 17.2511H14.2076L15.2693 20.7442H13.1269L14.1573 17.2511Z" fill="#451E11"/>
<path fill-rule="evenodd" clip-rule="evenodd" d="M20.7107 15.3271C19.9813 15.3271 19.5547 15.767 19.5547 16.5334V23.3312C19.5547 24.0975 19.9797 24.5311 20.7091 24.5311C21.4385 24.5311 21.8604 24.0975 21.8604 23.3312V21.737H23.3431C25.3591 21.737 26.7467 20.4724 26.7467 18.5376C26.7467 16.5898 25.429 15.3271 23.4813 15.3271H20.7107ZM21.8603 17.0941H22.8718C23.8392 17.0941 24.4173 17.6028 24.4173 18.5453C24.4173 19.4934 23.838 20.0029 22.8577 20.0029H21.8603V17.0941Z" fill="#451E11"/>
</g>
<defs>
<clipPath id="clip0_24614_9082">
<rect width="38.6289" height="38.6289" fill="white" transform="translate(0.728516 0.54541)"/>
</clipPath>
</defs>
</svg>
