<svg xmlns="http://www.w3.org/2000/svg" width="53" height="54" viewBox="0 0 53 54" fill="none">
  <g filter="url(#filter0_d_30731_86817)">
    <mask id="path-1-outside-1_30731_86817" maskUnits="userSpaceOnUse" x="2.94531" y="2.41138" width="48" height="50" fill="black">
      <rect fill="white" x="2.94531" y="2.41138" width="48" height="50"/>
      <path d="M34.6313 6.41138C33.3375 6.41138 32.2195 9.17495 32.2195 13.4334C30.5739 13.044 28.8153 12.8304 26.9184 12.8304C25.0216 12.8304 23.263 13.044 21.6174 13.4334C21.6174 9.17495 20.4868 6.41138 19.2055 6.41138C14.1934 6.41138 6.94531 27.7788 6.94531 31.8111C6.94531 35.8435 14.9974 47.5886 26.9184 47.5886C38.8395 47.5886 46.8916 35.8435 46.8916 31.8111C46.8916 27.7788 39.656 6.41138 34.6313 6.41138Z"/>
    </mask>
    <path d="M34.6313 6.41138C33.3375 6.41138 32.2195 9.17495 32.2195 13.4334C30.5739 13.044 28.8153 12.8304 26.9184 12.8304C25.0216 12.8304 23.263 13.044 21.6174 13.4334C21.6174 9.17495 20.4868 6.41138 19.2055 6.41138C14.1934 6.41138 6.94531 27.7788 6.94531 31.8111C6.94531 35.8435 14.9974 47.5886 26.9184 47.5886C38.8395 47.5886 46.8916 35.8435 46.8916 31.8111C46.8916 27.7788 39.656 6.41138 34.6313 6.41138Z" fill="#F76808"/>
    <path d="M32.2195 13.4334L31.2984 17.3259L36.2195 18.4904V13.4334H32.2195ZM21.6174 13.4334H17.6174V18.4904L22.5385 17.3259L21.6174 13.4334ZM34.6313 2.41138C32.765 2.41138 31.4466 3.42595 30.7067 4.26611C29.9701 5.10264 29.4955 6.08681 29.1775 6.9682C28.5314 8.75948 28.2195 11.0075 28.2195 13.4334H36.2195C36.2195 11.6008 36.4666 10.3378 36.7029 9.68274C36.8262 9.34092 36.8737 9.36806 36.7105 9.55334C36.5441 9.74225 35.8507 10.4114 34.6313 10.4114V2.41138ZM33.1406 9.54087C31.1878 9.07876 29.1198 8.83041 26.9184 8.83041V16.8304C28.5107 16.8304 29.96 17.0092 31.2984 17.3259L33.1406 9.54087ZM26.9184 8.83041C24.717 8.83041 22.6491 9.07876 20.6963 9.54087L22.5385 17.3259C23.8769 17.0092 25.3262 16.8304 26.9184 16.8304V8.83041ZM25.6174 13.4334C25.6174 11.0025 25.3011 8.7541 24.6531 6.96392C24.3343 6.08336 23.8601 5.10274 23.1275 4.26917C22.3961 3.43689 21.0792 2.41138 19.2055 2.41138V10.4114C17.9725 10.4114 17.2775 9.73131 17.1184 9.55028C16.9581 9.36795 17.0068 9.34437 17.1308 9.68701C17.3684 10.3432 17.6174 11.6058 17.6174 13.4334H25.6174ZM19.2055 2.41138C17.1688 2.41138 15.5929 3.46475 14.6082 4.3249C13.5613 5.23937 12.6427 6.40694 11.8523 7.5866C10.2596 9.96378 8.76739 13.0309 7.50419 16.0592C6.22761 19.1195 5.11697 22.3051 4.31944 25.0101C3.92077 26.3622 3.59011 27.6288 3.35541 28.7236C3.13737 29.7407 2.94531 30.8611 2.94531 31.8111H10.9453C10.9453 31.8247 10.9467 31.7128 10.9873 31.4303C11.0252 31.1661 11.0871 30.823 11.1777 30.4005C11.3589 29.555 11.6337 28.4906 11.9928 27.2725C12.711 24.837 13.7256 21.9247 14.8876 19.1391C16.0629 16.3214 17.3225 13.7947 18.4985 12.0395C19.0925 11.153 19.5624 10.6197 19.8712 10.3499C20.2423 10.0257 19.9893 10.4114 19.2055 10.4114V2.41138ZM2.94531 31.8111C2.94531 33.8612 3.85761 36.0849 4.90592 37.943C6.0366 39.9471 7.64739 42.0906 9.65875 44.0659C13.6529 47.9884 19.5974 51.5886 26.9184 51.5886V43.5886C22.3184 43.5886 18.2764 41.3163 15.2642 38.3581C13.7724 36.8931 12.6251 35.3442 11.8735 34.012C11.0395 32.5338 10.9453 31.7773 10.9453 31.8111H2.94531ZM26.9184 51.5886C34.2395 51.5886 40.184 47.9884 44.1781 44.0659C46.1895 42.0906 47.8003 39.9471 48.9309 37.943C49.9793 36.0849 50.8916 33.8612 50.8916 31.8111H42.8916C42.8916 31.7773 42.7973 32.5338 41.9634 34.012C41.2117 35.3442 40.0645 36.8931 38.5727 38.3581C35.5605 41.3163 31.5185 43.5886 26.9184 43.5886V51.5886ZM50.8916 31.8111C50.8916 30.8619 50.7 29.742 50.4822 28.7248C50.2479 27.6301 49.9178 26.3636 49.5196 25.0114C48.7231 22.3065 47.6136 19.1207 46.3377 16.0601C45.0753 13.0316 43.5832 9.96378 41.9894 7.58595C41.1985 6.40588 40.2788 5.23793 39.2304 4.32325C38.2433 3.46203 36.667 2.41138 34.6313 2.41138V10.4114C33.8518 10.4114 33.6008 10.0285 33.9711 10.3515C34.2802 10.6211 34.7502 11.154 35.3441 12.0401C36.5202 13.7947 37.7792 16.3208 38.9537 19.1382C40.1148 21.9235 41.1282 24.8357 41.8454 27.2712C42.2041 28.4893 42.4784 29.5536 42.6594 30.3993C42.7499 30.8218 42.8117 31.1651 42.8496 31.4293C42.8901 31.712 42.8916 31.8242 42.8916 31.8111H50.8916Z" fill="#FDFCFC" mask="url(#path-1-outside-1_30731_86817)"/>
  </g>
  <g filter="url(#filter1_d_30731_86817)">
    <path d="M37.1748 24.6436C36.7261 24.6436 36.3194 24.8267 36.0234 25.1223L30.8065 24.0657L28.0861 19.2207C28.33 18.9323 28.4781 18.5593 28.4781 18.1515C28.4782 17.2408 27.7434 16.5 26.8402 16.5C25.9373 16.5 25.2027 17.2408 25.2027 18.1515C25.2027 18.5592 25.3507 18.9322 25.5945 19.2205L22.8743 24.0657L17.622 25.1296C17.3518 24.9313 17.0204 24.8127 16.6612 24.8127C15.7581 24.8127 15.0234 25.5536 15.0234 26.464C15.0234 27.3747 15.7581 28.1156 16.6612 28.1156C16.8274 28.1156 16.9878 28.0901 17.1392 28.0434L20.4251 31.6313L19.7805 37.2286C19.0278 37.3773 18.4579 38.0468 18.4579 38.8486C18.4579 39.7592 19.1926 40.5 20.0958 40.5C20.9987 40.5 21.7333 39.7592 21.7333 38.8486C21.7333 38.7851 21.7289 38.7226 21.722 38.6611L26.8402 36.3093L31.959 38.6611C31.9521 38.7227 31.9476 38.7851 31.9476 38.8486C31.9476 39.7592 32.6823 40.5 33.5854 40.5C34.4886 40.5 35.2233 39.7592 35.2233 38.8486C35.2233 38.0467 34.6532 37.3772 33.9003 37.2286L33.2558 31.6313L36.6968 27.8741C36.8482 27.9208 37.0086 27.9464 37.1749 27.9464C38.078 27.9464 38.8128 27.2056 38.8128 26.2949C38.8126 25.3844 38.0779 24.6436 37.1748 24.6436Z" fill="#FDFCFF"/>
  </g>
  <defs>
    <filter id="filter0_d_30731_86817" x="0.945312" y="0.411377" width="51.9463" height="53.1772" filterUnits="userSpaceOnUse" color-interpolation-filters="sRGB">
      <feFlood flood-opacity="0" result="BackgroundImageFix"/>
      <feColorMatrix in="SourceAlpha" type="matrix" values="0 0 0 0 0 0 0 0 0 0 0 0 0 0 0 0 0 0 127 0" result="hardAlpha"/>
      <feOffset/>
      <feGaussianBlur stdDeviation="1"/>
      <feComposite in2="hardAlpha" operator="out"/>
      <feColorMatrix type="matrix" values="0 0 0 0 0.262745 0 0 0 0 0.188235 0 0 0 0 0.168627 0 0 0 0.5 0"/>
      <feBlend mode="normal" in2="BackgroundImageFix" result="effect1_dropShadow_30731_86817"/>
      <feBlend mode="normal" in="SourceGraphic" in2="effect1_dropShadow_30731_86817" result="shape"/>
    </filter>
    <filter id="filter1_d_30731_86817" x="13.0234" y="14.5" width="27.7891" height="28" filterUnits="userSpaceOnUse" color-interpolation-filters="sRGB">
      <feFlood flood-opacity="0" result="BackgroundImageFix"/>
      <feColorMatrix in="SourceAlpha" type="matrix" values="0 0 0 0 0 0 0 0 0 0 0 0 0 0 0 0 0 0 127 0" result="hardAlpha"/>
      <feOffset/>
      <feGaussianBlur stdDeviation="1"/>
      <feComposite in2="hardAlpha" operator="out"/>
      <feColorMatrix type="matrix" values="0 0 0 0 0.270588 0 0 0 0 0.117647 0 0 0 0 0.0666667 0 0 0 0.3 0"/>
      <feBlend mode="normal" in2="BackgroundImageFix" result="effect1_dropShadow_30731_86817"/>
      <feBlend mode="normal" in="SourceGraphic" in2="effect1_dropShadow_30731_86817" result="shape"/>
    </filter>
  </defs>
</svg>