<svg width="1445" height="535" viewBox="0 0 1445 535" fill="none" xmlns="http://www.w3.org/2000/svg">
<path d="M0 527.777H1444.02V370.06C1278.43 404.159 812.499 480.918 0 391.771L0 527.777Z" fill="url(#paint0_linear_1049_491)"/>
<path d="M1444.02 534.277H0L0 485.101C675.799 374.549 972.304 520.511 1444.02 467.341V534.277Z" fill="url(#paint1_linear_1049_491)"/>
<path d="M1444.02 534.277H0L0 485.101C675.799 374.549 972.304 520.511 1444.02 467.341V534.277Z" fill="#EFF1F4"/>
<path d="M1009.79 4.5731C1014.36 1.81498 1019.75 0.745248 1025.02 1.54984C1029.79 2.32063 1034.18 4.607 1037.54 8.06957C1039.42 9.99748 1040.94 12.2439 1042.04 14.7043C1042.09 14.8039 1042.18 14.8866 1042.28 14.944C1042.38 15.0015 1042.49 15.0318 1042.6 15.0318C1042.72 15.0318 1042.83 15.0015 1042.93 14.944C1043.03 14.8866 1043.12 14.8039 1043.17 14.7043C1045.74 9.86815 1049.95 6.10188 1055.04 4.07689C1059.18 2.4894 1063.69 2.14124 1068.02 3.07492C1072.35 4.00859 1076.32 6.18371 1079.44 9.33474C1080.03 9.93939 1080.96 9.00612 1080.37 8.40476C1076.1 4.1265 1070.39 1.57759 1064.36 1.24751C1059.81 1.06368 1055.3 2.16704 1051.35 4.43072C1047.4 6.6944 1044.18 10.0265 1042.04 14.0438H1043.17C1041.1 9.46615 1037.66 5.64862 1033.31 3.1239C1029.62 1.02206 1025.43 -0.055559 1021.18 0.00220603C1016.92 0.0599711 1012.76 1.25103 1009.13 3.45252C1008.4 3.88958 1009.06 5.02658 1009.78 4.58624L1009.79 4.5731Z" fill="#CBCBFF"/>
<path d="M1095.71 79.5831C1097.64 78.3973 1099.81 77.64 1102.06 77.3625C1104.31 77.0849 1106.59 77.2935 1108.75 77.9741C1110.92 78.6548 1112.91 79.7917 1114.59 81.3079C1116.28 82.8242 1117.62 84.6845 1118.52 86.7633C1118.58 86.8621 1118.67 86.9441 1118.77 87.001C1118.86 87.058 1118.98 87.0879 1119.09 87.0879C1119.21 87.0879 1119.32 87.058 1119.42 87.001C1119.52 86.9441 1119.6 86.8621 1119.66 86.7633C1120.82 84.5906 1122.45 82.7066 1124.43 81.2514C1126.42 79.7961 1128.71 78.8069 1131.13 78.3573C1136.25 77.4372 1141.67 79.2807 1145.32 82.9579C1145.91 83.5593 1146.84 82.6293 1146.24 82.028C1143.15 78.9305 1139.02 77.087 1134.64 76.8523C1131.36 76.726 1128.11 77.5265 1125.26 79.1619C1122.42 80.7973 1120.09 83.2016 1118.54 86.0995H1119.67C1118.68 83.871 1117.23 81.8799 1115.4 80.2592C1113.58 78.6385 1111.43 77.4256 1109.1 76.7015C1106.77 75.9773 1104.32 75.7587 1101.89 76.0601C1099.47 76.3615 1097.15 77.1761 1095.06 78.4493C1094.34 78.8831 1095 80.0201 1095.72 79.5831H1095.71Z" fill="#CBCBFF"/>
<path d="M152.704 297.353C154.637 296.167 156.801 295.41 159.051 295.132C161.301 294.854 163.584 295.063 165.747 295.744C167.91 296.424 169.901 297.561 171.586 299.077C173.272 300.594 174.612 302.454 175.517 304.533C175.575 304.632 175.658 304.714 175.757 304.771C175.857 304.828 175.969 304.857 176.084 304.857C176.198 304.857 176.311 304.828 176.41 304.771C176.51 304.714 176.593 304.632 176.651 304.533C177.808 302.36 179.44 300.476 181.425 299.021C183.411 297.566 185.699 296.576 188.119 296.127C193.239 295.207 198.665 297.05 202.309 300.727C202.904 301.329 203.834 300.399 203.236 299.797C200.14 296.7 196.008 294.857 191.635 294.622C188.354 294.496 185.103 295.296 182.255 296.931C179.408 298.567 177.078 300.971 175.533 303.869H176.667C175.675 301.641 174.218 299.649 172.395 298.029C170.572 296.408 168.424 295.195 166.094 294.471C163.765 293.747 161.308 293.528 158.887 293.83C156.466 294.131 154.138 294.946 152.057 296.219C151.334 296.653 151.995 297.79 152.714 297.353H152.704Z" fill="#CBCBFF"/>
<path d="M514.875 20.4151C506.357 15.9393 495.651 17.8683 489.355 25.1734C487.734 27.0575 486.456 29.2107 485.579 31.5354L486.778 31.381C484.109 27.024 479.974 23.7615 475.116 22.1797C471.223 20.9699 467.064 20.9105 463.139 22.0089C459.213 23.1073 455.689 25.3165 452.99 28.3709C452.435 29.0018 453.361 29.9351 453.92 29.2975C457.192 25.5918 461.713 23.2187 466.621 22.6299C470.358 22.2357 474.13 22.9113 477.498 24.5781C480.866 26.2449 483.691 28.8344 485.644 32.0448C485.71 32.1569 485.806 32.2473 485.923 32.3046C486.039 32.3619 486.17 32.3834 486.298 32.3665C486.427 32.3497 486.548 32.2952 486.645 32.2098C486.743 32.1245 486.813 32.0122 486.847 31.887C488.727 26.9935 492.468 23.0429 497.251 20.8981C502.627 18.5091 509.025 18.8279 514.211 21.5554C514.96 21.9464 515.624 20.8127 514.868 20.4184L514.875 20.4151Z" fill="#CBCBFF"/>
<path d="M475.983 123.472H349.137L349.351 122.651C352.069 112.25 360.81 104.988 370.612 104.988C372.258 104.986 373.899 105.187 375.496 105.586C379.4 95.0307 387.829 88.248 397.112 88.248C406.546 88.248 415.028 95.172 418.87 105.951C424.981 104.087 431.339 103.157 437.729 103.193C447.324 103.193 456.493 105.165 463.548 108.764C470.669 112.378 475.05 117.34 475.868 122.717L475.983 123.472ZM350.856 122.158H474.415C472.178 112.201 456.325 104.508 437.719 104.508C430.979 104.508 424.387 105.494 418.659 107.396L418.032 107.603L417.821 106.982C414.269 96.401 406.136 89.5658 397.099 89.5658C388.226 89.5658 380.136 96.2498 376.518 106.595L376.314 107.18L375.716 107.012C374.056 106.536 372.339 106.293 370.612 106.289C361.667 106.289 353.652 112.779 350.856 122.158V122.158Z" fill="#CBCBFF"/>
<path d="M1077.83 173.465H994.361L994.643 172.604C996.457 167.113 1002.25 163.278 1008.73 163.278C1009.77 163.276 1010.8 163.372 1011.81 163.564C1013.11 160.868 1015.14 158.596 1017.68 157.012C1020.21 155.428 1023.15 154.597 1026.14 154.617C1029.13 154.636 1032.05 155.504 1034.56 157.121C1037.08 158.738 1039.08 161.036 1040.34 163.748C1044.34 162.8 1048.44 162.331 1052.55 162.351C1065.72 162.351 1076.53 166.794 1077.66 172.683L1077.83 173.465ZM996.234 172.151H1076.16C1074.31 167.333 1064.29 163.666 1052.56 163.666C1048.38 163.641 1044.21 164.141 1040.15 165.154L1039.59 165.299L1039.37 164.776C1038.28 162.17 1036.44 159.943 1034.09 158.37C1031.74 156.798 1028.98 155.948 1026.16 155.927C1023.33 155.906 1020.56 156.715 1018.18 158.252C1015.81 159.79 1013.94 161.99 1012.81 164.579L1012.59 165.072L1012.06 164.954C1010.97 164.712 1009.86 164.59 1008.74 164.592C1003.17 164.592 998.169 167.658 996.234 172.151V172.151Z" fill="#CBCBFF"/>
<path d="M818.539 41.684H709.139L709.425 40.8198C711.781 33.6724 719.333 28.6807 727.785 28.6807C729.187 28.679 730.586 28.8133 731.962 29.0816C733.637 25.5314 736.293 22.5343 739.615 20.4438C742.938 18.3533 746.789 17.2564 750.715 17.2827C754.64 17.3089 758.477 18.4572 761.771 20.592C765.066 22.7267 767.681 25.7591 769.309 29.3314C774.612 28.0589 780.049 27.43 785.503 27.4583C802.765 27.4583 816.902 33.2386 818.387 40.8986L818.539 41.684ZM710.989 40.3696H816.892C814.697 33.7972 801.253 28.7727 785.503 28.7727C779.974 28.7404 774.462 29.4028 769.098 30.7444L768.546 30.889L768.336 30.3796C766.87 26.9146 764.421 23.9546 761.293 21.8646C758.164 19.7746 754.492 18.646 750.73 18.618C746.967 18.5901 743.279 19.664 740.12 21.7073C736.96 23.7506 734.468 26.6739 732.951 30.1168L732.734 30.6097L732.205 30.4914C730.757 30.1698 729.278 30.0089 727.795 30.0116C720.24 29.9952 713.477 34.2146 710.989 40.3696Z" fill="#CBCBFF"/>
<path d="M1339.02 303.414H1229.62L1229.9 302.55C1232.26 295.403 1239.81 290.411 1248.26 290.411C1249.66 290.41 1251.06 290.544 1252.44 290.812C1254.11 287.262 1256.77 284.265 1260.09 282.174C1263.41 280.084 1267.27 278.987 1271.19 279.013C1275.12 279.039 1278.95 280.188 1282.25 282.322C1285.54 284.457 1288.16 287.49 1289.79 291.062C1295.09 289.789 1300.53 289.16 1305.98 289.189C1323.24 289.189 1337.38 294.969 1338.86 302.629L1339.02 303.414ZM1231.47 302.1H1337.37C1335.17 295.528 1321.73 290.503 1305.98 290.503C1300.45 290.471 1294.94 291.133 1289.57 292.475L1289.02 292.619L1288.81 292.11C1287.35 288.645 1284.9 285.685 1281.77 283.595C1278.64 281.505 1274.97 280.376 1271.21 280.349C1267.44 280.321 1263.76 281.394 1260.6 283.438C1257.44 285.481 1254.94 288.404 1253.43 291.847L1253.21 292.34L1252.68 292.222C1251.23 291.9 1249.75 291.739 1248.27 291.742C1240.72 291.726 1233.95 295.945 1231.47 302.1Z" fill="#CBCBFF"/>
<g clip-path="url(#clip0_1049_491)">
<path d="M811.853 432.935C811.714 431.912 810.48 431.905 810.153 430.926C807.465 423.152 808.113 405.067 808.88 389.872C809.648 374.678 824.24 379.209 824.24 379.209C824.24 379.209 820.029 362.398 838.062 359.165C856.094 355.933 854.666 368.559 854.666 368.559C854.666 368.559 856.016 358.563 870.048 359.165C881.557 359.664 880.294 378.237 880.294 378.237C895.269 370.787 899.706 388.58 897.785 415.734C897.361 421.697 896.549 423.736 896.5 429.777" fill="white"/>
</g>
<path d="M814.165 434.255C813.304 434.254 812.473 433.943 811.823 433.38C811.172 432.817 810.746 432.038 810.622 431.187C810.526 430.467 810.364 429.758 810.138 429.068C807.712 422.069 807.838 408.33 808.77 389.849C809.035 384.564 810.885 380.689 814.267 378.326C816.955 376.447 820.035 375.975 822.548 376.02C822.593 373.173 823.187 369.528 825.344 366.194C828.075 361.967 832.544 359.272 838.632 358.182C845.784 356.9 851.153 357.883 854.594 361.119C854.912 361.42 855.211 361.74 855.491 362.078C858.293 359.658 862.586 357.853 868.91 358.128C870.474 358.177 872.011 358.544 873.427 359.209C874.844 359.873 876.109 360.82 877.147 361.991C880.251 365.462 881.329 370.538 881.682 374.356C885.44 373.705 888.188 374.747 890.005 375.963C896.819 380.528 899.406 393.016 897.915 414.134C897.856 414.956 897.796 415.777 897.736 416.605C897.396 421.256 897.043 426.069 897.004 430.697C896.997 431.643 896.616 432.548 895.945 433.214C895.273 433.881 894.365 434.255 893.419 434.255H893.389C892.918 434.251 892.453 434.155 892.019 433.971C891.585 433.788 891.192 433.52 890.861 433.185C890.531 432.849 890.27 432.451 890.093 432.015C889.916 431.578 889.827 431.111 889.831 430.64C889.873 425.779 890.232 420.847 890.581 416.079C890.641 415.26 890.701 414.442 890.761 413.629C892.553 388.355 887.576 382.969 886.01 381.92C885.482 381.568 883.871 380.486 879.794 382.518C879.228 382.799 878.599 382.925 877.969 382.885C877.339 382.844 876.731 382.638 876.207 382.288C875.682 381.937 875.259 381.454 874.981 380.887C874.703 380.321 874.579 379.691 874.622 379.061C874.775 376.695 874.565 369.86 871.793 366.771C871.395 366.313 870.903 365.944 870.352 365.69C869.8 365.437 869.201 365.303 868.594 365.298C859.416 364.904 858.212 370.296 858.108 370.912V370.849L854.552 370.371L850.991 369.962V370.012C850.991 369.988 851.165 367.715 849.626 366.314C847.959 364.796 844.497 364.417 839.875 365.244C835.845 365.967 832.986 367.584 831.373 370.048C828.753 374.051 829.966 379.309 829.978 379.348C830.129 379.965 830.114 380.61 829.934 381.219C829.754 381.827 829.415 382.377 828.953 382.812C828.491 383.247 827.922 383.552 827.303 383.695C826.685 383.838 826.04 383.814 825.434 383.626C824.239 383.265 820.549 382.658 818.332 384.224C816.875 385.254 816.059 387.271 815.91 390.217C815.429 399.758 814.416 419.61 816.89 426.726C817.265 427.843 817.535 428.992 817.696 430.159C817.833 431.1 817.59 432.056 817.021 432.818C816.453 433.58 815.605 434.085 814.664 434.222C814.499 434.245 814.332 434.256 814.165 434.255Z" fill="#3A2F26"/>
<path d="M833.73 415.927C833.73 407.526 842.465 395.935 853.241 395.935C864.017 395.935 872.749 407.526 872.749 415.927C872.749 424.327 864.017 424.271 853.241 424.271C842.465 424.271 833.73 424.345 833.73 415.927Z" fill="#CA94D9"/>
<path d="M827.145 401.599C830.61 401.599 833.419 398.79 833.419 395.325C833.419 391.861 830.61 389.052 827.145 389.052C823.681 389.052 820.872 391.861 820.872 395.325C820.872 398.79 823.681 401.599 827.145 401.599Z" fill="#CA94D9"/>
<path d="M841.784 386.007C845.249 386.007 848.058 383.198 848.058 379.734C848.058 376.269 845.249 373.46 841.784 373.46C838.319 373.46 835.51 376.269 835.51 379.734C835.51 383.198 838.319 386.007 841.784 386.007Z" fill="#CA94D9"/>
<path d="M864.489 386.995C867.954 386.995 870.763 384.186 870.763 380.721C870.763 377.256 867.954 374.447 864.489 374.447C861.024 374.447 858.215 377.256 858.215 380.721C858.215 384.186 861.024 386.995 864.489 386.995Z" fill="#CA94D9"/>
<path d="M879.319 399.541C882.784 399.541 885.593 396.732 885.593 393.267C885.593 389.802 882.784 386.993 879.319 386.993C875.854 386.993 873.045 389.802 873.045 393.267C873.045 396.732 875.854 399.541 879.319 399.541Z" fill="#CA94D9"/>
<path d="M613.963 442.318C613.963 442.318 619.614 455.463 631.322 447.248C643.029 439.033 643.027 389.322 593.778 390.143C544.53 390.964 546.147 455.451 562.294 459.16C578.441 462.869 580.862 446.015 580.862 446.015C580.862 446.015 579.248 463.097 598.221 459.691C617.193 456.284 613.963 442.318 613.963 442.318Z" fill="white"/>
<path d="M591.019 460.141C585.71 460.141 581.525 458.495 578.579 455.251C578.004 454.615 577.486 453.929 577.032 453.202C573.689 457.456 569.046 459.687 563.475 459.687C561.692 459.676 559.915 459.467 558.178 459.066C553.455 458.002 549.58 453.688 547.271 446.91C545.23 440.935 544.534 433.466 545.308 425.938C546.464 414.714 550.754 404.401 557.395 396.903C565.572 387.666 577.262 382.665 591.195 382.438C591.631 382.438 592.056 382.438 592.486 382.438C604.997 382.438 615.435 385.461 623.514 391.424C630.31 396.44 635.281 403.52 637.892 411.9C639.951 418.514 640.461 425.75 639.323 432.268C638.167 438.91 635.49 443.973 631.789 446.528C628.559 448.753 625.342 449.882 622.229 449.882C619.455 449.878 616.757 448.978 614.536 447.316C614.123 448.363 613.602 449.364 612.983 450.304C609.804 455.128 604.235 458.271 596.429 459.648C594.644 459.97 592.833 460.134 591.019 460.141V460.141ZM577.997 438.727C578.499 438.725 578.995 438.828 579.455 439.03C579.915 439.231 580.327 439.527 580.665 439.899C581.003 440.27 581.259 440.708 581.417 441.184C581.575 441.661 581.631 442.165 581.582 442.665C581.582 442.692 581.205 447.507 583.918 450.459C585.45 452.126 587.84 452.971 591.025 452.971C592.421 452.959 593.814 452.825 595.186 452.571C600.976 451.552 604.949 449.455 606.999 446.345C608.311 444.29 608.833 441.828 608.466 439.417C608.263 438.547 608.392 437.633 608.828 436.853C609.264 436.073 609.975 435.484 610.823 435.201C611.67 434.919 612.593 434.963 613.41 435.325C614.226 435.687 614.879 436.341 615.238 437.159C615.256 437.198 617.79 442.701 622.232 442.701C623.863 442.701 625.712 441.999 627.72 440.609C631.604 437.921 634.851 426.228 631.048 414.021C628.21 404.897 619.421 389.595 592.489 389.595H591.315C558.727 390.13 553.323 418.102 552.445 426.664C551.077 439.952 555.175 451.033 559.752 452.057C560.974 452.341 562.223 452.491 563.478 452.502C567.31 452.502 570.184 450.874 572.261 447.519C573.331 445.749 574.077 443.803 574.465 441.771C574.594 440.926 575.021 440.155 575.669 439.597C576.316 439.039 577.142 438.73 577.997 438.727V438.727Z" fill="#3A2F26"/>
<path fill-rule="evenodd" clip-rule="evenodd" d="M688.206 327.701H745.659C768.199 332.762 786.321 343.608 795.448 357.373V397.987C782.689 417.234 752.343 430.774 716.933 430.774C681.522 430.774 651.177 417.234 638.417 397.987V357.373C647.544 343.608 665.667 332.762 688.206 327.701Z" fill="#B367D6"/>
<path fill-rule="evenodd" clip-rule="evenodd" d="M748.182 427.065C738.51 429.458 727.968 430.774 716.933 430.774C705.898 430.774 695.356 429.458 685.684 427.065L685.682 426.922C685.682 409.662 699.673 395.671 716.933 395.671C734.193 395.671 748.184 409.662 748.184 426.922L748.182 427.065Z" fill="#6649C6"/>
<path fill-rule="evenodd" clip-rule="evenodd" d="M716.933 401.486C730.983 401.486 742.372 412.875 742.372 426.925C742.372 440.975 730.983 452.364 716.933 452.364C702.884 452.364 691.495 440.975 691.495 426.925C691.495 412.875 702.884 401.486 716.933 401.486Z" fill="#6649C7"/>
<path fill-rule="evenodd" clip-rule="evenodd" d="M719.243 404.664C744.845 404.664 744.845 440.478 719.243 440.478C693.64 440.478 693.64 404.664 719.243 404.664Z" fill="#7151DD"/>
<path d="M748.583 204.991C727.377 202.4 706.173 202.529 684.967 204.991C677.598 192.227 648.27 156.777 635.142 156.777C629.561 156.777 625.038 161.301 625.038 166.882L604.347 321.612C598.645 364.252 671.425 410.056 716.933 410.056C762.442 410.056 835.221 364.253 829.519 321.612L808.83 166.882C808.83 161.301 804.306 156.777 798.724 156.777C785.595 156.777 755.952 192.228 748.583 204.991Z" fill="url(#paint2_linear_1049_491)"/>
<path d="M801.832 374.399C819.945 358.802 831.967 339.917 829.519 321.612C822.622 270.035 815.726 218.459 808.829 166.882C808.829 161.301 804.305 156.777 798.724 156.777C785.595 156.777 755.952 192.227 748.582 204.991C737.433 219.788 725.833 235.9 716.933 258.652C711.142 273.456 714.327 290.039 716.933 313.307C716.933 349.637 746.93 393.368 801.832 374.399Z" fill="url(#paint3_linear_1049_491)"/>
<path fill-rule="evenodd" clip-rule="evenodd" d="M796.657 185.081C798.21 197.232 798.933 202.051 799.822 211.924C800.144 215.488 800.762 217.712 797.165 216.761C787.394 214.178 782.649 212.921 772.877 210.338C768.531 209.189 765.142 209.344 767.694 205.788C774.229 196.681 780.999 188.494 790.256 181.636C794.858 178.227 795.965 179.668 796.657 185.081ZM637.209 185.081C635.655 197.232 634.933 202.051 634.042 211.924C633.721 215.488 633.104 217.712 636.701 216.761C646.471 214.178 651.217 212.921 660.988 210.338C665.334 209.189 668.724 209.344 666.172 205.788C659.636 196.681 652.866 188.494 643.61 181.636C639.008 178.227 637.901 179.668 637.209 185.081Z" fill="#FDFDFD"/>
<path d="M716.933 391.184C668.667 391.184 629.654 358.535 653.084 329.051C663.987 315.33 686.116 304.706 695.379 300.219C717.166 289.666 710.865 262.569 693.867 262.569C691.446 262.569 683.038 262.548 676.919 262.548C661.097 262.548 648.724 260.726 648.724 235.434H656.754C660.289 235.434 661.522 235.299 661.522 238.927C661.522 241.988 661.781 245.211 664.432 246.761C665.764 247.54 667.984 247.939 671.162 247.963C674.312 247.987 686.667 248.046 695.617 248.046C706.011 248.046 713.169 250.07 716.934 258.653C720.699 250.07 727.857 248.046 738.251 248.046C747.201 248.046 759.557 247.987 762.706 247.963C765.884 247.939 768.103 247.539 769.435 246.761C772.086 245.211 772.345 241.988 772.345 238.927C772.345 235.299 773.578 235.434 777.113 235.434H785.144C785.144 260.726 772.77 262.548 756.949 262.548C750.83 262.548 742.422 262.569 740 262.569C723.003 262.569 716.701 289.667 738.488 300.219C747.75 304.705 769.879 315.33 780.782 329.051C804.212 358.535 765.199 391.184 716.933 391.184Z" fill="white"/>
<path d="M741.821 324.915C744.164 327.95 743.817 332.493 741.05 335.06C719.242 355.271 714.662 355.307 692.816 335.06C690.048 332.493 689.702 327.95 692.045 324.915C699.103 317.177 735.05 317.491 741.821 324.915Z" fill="#3A2F26"/>
<path fill-rule="evenodd" clip-rule="evenodd" d="M680.375 271.593C687.071 271.593 692.5 277.021 692.5 283.719C692.5 290.415 687.071 295.844 680.375 295.844C673.677 295.844 668.249 290.415 668.249 283.719C668.249 277.021 673.677 271.593 680.375 271.593Z" fill="#3A2F26"/>
<path fill-rule="evenodd" clip-rule="evenodd" d="M684.804 276.108C686.35 276.236 687.883 277.743 688.23 279.475C688.577 281.207 687.606 282.508 686.061 282.38C684.516 282.252 682.983 280.745 682.635 279.013C682.289 277.281 683.26 275.98 684.804 276.108Z" fill="white"/>
<path fill-rule="evenodd" clip-rule="evenodd" d="M753.491 271.593C760.189 271.593 765.616 277.021 765.616 283.719C765.616 290.415 760.189 295.844 753.491 295.844C746.795 295.844 741.366 290.415 741.366 283.719C741.366 277.021 746.795 271.593 753.491 271.593Z" fill="#3A2F26"/>
<path fill-rule="evenodd" clip-rule="evenodd" d="M757.923 276.108C759.468 276.236 761.002 277.743 761.348 279.475C761.694 281.207 760.725 282.508 759.179 282.38C757.635 282.252 756.101 280.745 755.754 279.013C755.407 277.281 756.379 275.98 757.923 276.108Z" fill="white"/>
<path d="M676.053 362.095C675.294 360.774 675.75 359.085 677.072 358.326C678.393 357.567 680.082 358.022 680.841 359.343C681.948 361.262 683.709 362.768 685.703 363.837C688.038 365.089 690.664 365.726 692.955 365.726C697.491 365.726 700.078 363.928 704.349 362.331C716.407 357.825 717.005 357.661 729.064 362.166C733.335 363.763 736.376 365.726 740.912 365.726C743.202 365.726 745.828 365.089 748.163 363.837C750.157 362.768 751.917 361.262 753.025 359.343C753.784 358.022 755.473 357.566 756.794 358.326C758.116 359.086 758.573 360.774 757.813 362.095C756.147 364.979 753.602 367.188 750.763 368.712C747.596 370.41 744.029 371.273 740.912 371.273C735.434 371.273 730.104 369.281 725.369 367.511C717.082 364.414 716.785 364.414 708.497 367.511C703.762 369.281 698.432 371.273 692.955 371.273C689.837 371.273 686.27 370.41 683.103 368.712C680.263 367.188 677.718 364.98 676.053 362.095Z" fill="#3A2F26"/>
<path fill-rule="evenodd" clip-rule="evenodd" d="M705.088 424.325L699.359 430.053L712.682 443.375L734.506 421.551L728.778 415.821L712.682 431.917L705.088 424.325Z" fill="white"/>
<path d="M749.613 359.757L716.147 357.919L716.135 357.894L715.908 357.906L715.68 357.894L715.669 357.919L682.204 359.757C682.204 359.757 677.862 389.587 715.915 388.101C753.956 389.587 749.613 359.757 749.613 359.757Z" fill="#3A2F26"/>
<path d="M753.21 358.077C753.21 358.077 752.301 370.509 739.262 368.235C726.224 365.961 728.195 358.229 716.218 358.077C704.241 358.229 706.212 365.961 693.174 368.235C680.136 370.509 679.226 358.077 679.226 358.077" fill="white"/>
<path d="M753.21 358.074C753.21 358.074 753.21 358.164 753.21 358.338C753.21 358.513 753.2 358.769 753.165 359.105C753.13 359.442 753.084 359.854 752.993 360.338C752.893 360.896 752.757 361.447 752.586 361.987C752.37 362.666 752.098 363.326 751.771 363.958C751.379 364.72 750.897 365.432 750.337 366.081C749.682 366.838 748.915 367.491 748.063 368.018C747.106 368.601 746.064 369.03 744.975 369.292C743.803 369.568 742.601 369.7 741.397 369.686L740.465 369.651C740.313 369.651 740.161 369.628 739.998 369.613L739.528 369.563L739.053 369.513L738.582 369.442L738.127 369.374C737.975 369.349 737.824 369.331 737.672 369.298L736.7 369.107C736.379 369.033 736.062 368.955 735.739 368.873C735.096 368.702 734.447 368.51 733.798 368.278C733.636 368.225 733.474 368.162 733.313 368.097L732.827 367.906C732.502 367.776 732.185 367.618 731.862 367.474C731.218 367.161 730.591 366.815 729.982 366.437C728.748 365.688 727.614 364.769 726.553 363.905C726.019 363.469 725.504 363.044 724.987 362.659C724.491 362.275 723.973 361.92 723.435 361.598C722.912 361.292 722.366 361.027 721.802 360.808C721.662 360.749 721.515 360.706 721.373 360.656C721.23 360.606 721.086 360.556 720.936 360.518L720.493 360.389C720.342 360.352 720.19 360.32 720.039 360.283C719.735 360.206 719.421 360.164 719.111 360.106C718.8 360.048 718.475 360.026 718.159 359.983L717.184 359.91L716.688 359.897H716.441H716.317H716.279L715.217 359.93L714.279 360C713.962 360.044 713.639 360.071 713.327 360.124C713.015 360.177 712.699 360.223 712.399 360.302C712.247 360.338 712.096 360.37 711.944 360.408L711.502 360.537C711.35 360.576 711.209 360.626 711.066 360.676C710.924 360.726 710.775 360.77 710.637 360.828C710.073 361.048 709.527 361.313 709.005 361.619C708.466 361.94 707.947 362.295 707.452 362.68C706.937 363.065 706.42 363.49 705.886 363.926C704.825 364.795 703.692 365.709 702.458 366.46C701.257 367.212 699.977 367.829 698.641 368.3C697.992 368.532 697.343 368.726 696.7 368.896C696.377 368.973 696.059 369.057 695.74 369.13L694.788 369.316C694.475 369.377 694.161 369.416 693.85 369.468L693.347 369.544L692.902 369.589L692.46 369.634C692.308 369.648 692.175 369.668 692.005 369.672C691.68 369.69 691.36 369.702 691.044 369.71C689.838 369.725 688.635 369.592 687.461 369.316C686.371 369.054 685.328 368.624 684.37 368.041C683.518 367.514 682.751 366.861 682.096 366.104C681.536 365.455 681.055 364.742 680.662 363.981C680.335 363.348 680.063 362.689 679.847 362.01C679.677 361.469 679.542 360.917 679.441 360.359C679.352 359.876 679.303 359.462 679.27 359.127C679.237 358.792 679.23 358.532 679.226 358.359C679.221 358.187 679.226 358.096 679.226 358.096C679.226 358.096 679.291 358.449 679.476 359.087C679.743 360 680.094 360.886 680.525 361.734C681.165 363.017 682.039 364.168 683.102 365.129C683.736 365.689 684.448 366.153 685.216 366.507C686.058 366.892 686.955 367.148 687.874 367.265C688.88 367.392 689.897 367.402 690.906 367.295C691.16 367.259 691.418 367.224 691.677 367.194C691.8 367.183 691.952 367.15 692.096 367.125L692.531 367.044L692.971 366.962C693.016 366.962 692.942 366.962 692.958 366.962H692.984L693.037 366.95L693.142 366.924L693.353 366.874C693.632 366.804 693.917 366.745 694.197 366.666C695.336 366.372 696.451 365.992 697.532 365.529C698.078 365.292 698.612 365.026 699.143 364.745C699.673 364.465 700.183 364.139 700.683 363.784C701.727 363.035 702.726 362.225 703.674 361.358C704.185 360.903 704.717 360.432 705.295 359.965C705.89 359.481 706.515 359.034 707.166 358.628C707.843 358.208 708.553 357.843 709.288 357.536C710.028 357.232 710.792 356.991 711.573 356.815C711.958 356.715 712.344 356.663 712.731 356.584C713.118 356.505 713.501 356.478 713.888 356.433C714.274 356.387 714.682 356.366 715.075 356.337L716.136 356.298C716.177 356.295 716.217 356.295 716.257 356.298H716.292H716.364H716.506L716.791 356.308L717.363 356.329C717.745 356.36 718.128 356.389 718.512 356.425C718.895 356.461 719.282 356.514 719.669 356.577C720.055 356.639 720.442 356.707 720.827 356.809C721.607 356.985 722.37 357.227 723.11 357.53C723.848 357.837 724.56 358.203 725.24 358.623C726.588 359.454 727.713 360.452 728.727 361.352C729.675 362.219 730.673 363.029 731.717 363.778C732.214 364.123 732.729 364.444 733.259 364.738C733.526 364.874 733.786 365.02 734.056 365.148L734.461 365.341C734.594 365.406 734.729 365.468 734.867 365.523C735.413 365.761 735.969 365.969 736.527 366.158C736.808 366.246 737.088 366.34 737.366 366.423L738.189 366.657C738.321 366.696 738.477 366.73 738.623 366.765L739.064 366.869L739.476 366.968L739.887 367.045L740.295 367.122C740.43 367.147 740.566 367.178 740.7 367.191L741.502 367.295C742.514 367.402 743.534 367.392 744.544 367.266C745.463 367.148 746.359 366.893 747.202 366.508C747.973 366.154 748.688 365.689 749.324 365.129C750.387 364.168 751.261 363.016 751.902 361.734C752.332 360.886 752.683 359.999 752.949 359.086C753.146 358.428 753.21 358.074 753.21 358.074Z" fill="#3A2F26"/>
<path d="M714.399 358.076L716.218 348.65L718.037 358.076C718.13 358.558 718.028 359.058 717.752 359.465C717.477 359.872 717.051 360.153 716.569 360.246C716.086 360.339 715.587 360.237 715.18 359.961C714.773 359.686 714.492 359.26 714.399 358.778C714.355 358.546 714.355 358.308 714.399 358.076V358.076Z" fill="#3A2F26"/>
<path d="M716.218 407.728C742.598 407.728 736.382 382.095 731.834 375.817C727.286 369.539 716.218 375.817 716.218 375.817C716.218 375.817 705.151 369.539 700.603 375.817C696.054 382.095 689.839 407.728 716.218 407.728Z" fill="url(#paint4_linear_1049_491)"/>
<path d="M716.218 409.547C711.215 409.547 706.991 408.651 703.661 406.886C700.628 405.276 698.313 402.944 696.796 399.977C694.276 395.043 694.49 389.453 695.111 385.634C695.794 381.448 697.37 377.176 699.129 374.748C700.809 372.43 703.416 371.21 706.667 371.21C710.537 371.21 714.484 372.917 716.218 373.769C717.947 372.917 721.893 371.21 725.769 371.21C729.026 371.21 731.634 372.435 733.313 374.753C735.072 377.179 736.649 381.453 737.331 385.638C737.953 389.457 738.166 395.047 735.647 399.982C734.131 402.956 731.819 405.288 728.782 406.891C725.445 408.657 721.221 409.547 716.218 409.547ZM706.667 374.849C704.567 374.849 703.063 375.516 702.07 376.888C699.411 380.557 696.368 391.154 700.03 398.328C702.607 403.361 708.044 405.908 716.212 405.908C724.381 405.908 729.825 403.357 732.395 398.328C736.056 391.154 733.013 380.557 730.354 376.888C729.361 375.516 727.857 374.849 725.757 374.849C721.682 374.849 717.154 377.377 717.108 377.403C716.835 377.558 716.526 377.639 716.211 377.639C715.897 377.639 715.588 377.558 715.315 377.403C715.277 377.373 710.748 374.849 706.667 374.849Z" fill="#3A2F26"/>
<path d="M718.037 375.835L715.914 403.558L714.398 375.795C714.372 375.312 714.539 374.839 714.862 374.479C715.184 374.12 715.637 373.903 716.119 373.877C716.602 373.851 717.075 374.017 717.434 374.34C717.794 374.663 718.011 375.115 718.037 375.597C718.037 375.675 718.037 375.758 718.037 375.835Z" fill="#3A2F26"/>
<defs>
<linearGradient id="paint0_linear_1049_491" x1="1.24596e-05" y1="411.499" x2="1444.02" y2="411.499" gradientUnits="userSpaceOnUse">
<stop stop-color="#974EF2"/>
<stop offset="1" stop-color="#FFB171"/>
</linearGradient>
<linearGradient id="paint1_linear_1049_491" x1="1.25381e-05" y1="470.4" x2="1444.02" y2="470.4" gradientUnits="userSpaceOnUse">
<stop stop-color="#FFB171"/>
<stop offset="1" stop-color="#974EF2"/>
</linearGradient>
<linearGradient id="paint2_linear_1049_491" x1="716.933" y1="406.553" x2="716.933" y2="155.751" gradientUnits="userSpaceOnUse">
<stop stop-color="#FCAE75"/>
<stop offset="1" stop-color="#974EF2"/>
</linearGradient>
<linearGradient id="paint3_linear_1049_491" x1="771.756" y1="382.554" x2="771.756" y2="157.742" gradientUnits="userSpaceOnUse">
<stop stop-color="#FFC698"/>
<stop offset="1" stop-color="#BD87E9"/>
</linearGradient>
<linearGradient id="paint4_linear_1049_491" x1="716.218" y1="408.572" x2="716.218" y2="358.517" gradientUnits="userSpaceOnUse">
<stop stop-color="#FCAE75"/>
<stop offset="1" stop-color="#974EF2"/>
</linearGradient>
<clipPath id="clip0_1049_491">
<rect width="90" height="75.3007" fill="white" transform="translate(808.21 358.635)"/>
</clipPath>
</defs>
</svg>
