<svg width="88" height="114" viewBox="0 0 88 114" fill="none" xmlns="http://www.w3.org/2000/svg">
<path fill-rule="evenodd" clip-rule="evenodd" d="M32.4645 65.9214H54.6228C63.3158 67.8731 70.3051 72.0561 73.8251 77.3652V93.029C68.9041 100.452 57.2005 105.674 43.5436 105.674C29.8868 105.674 18.1832 100.452 13.2622 93.029V77.3652C16.7822 72.0561 23.7718 67.8731 32.4645 65.9214Z" fill="#B367D6"/>
<path fill-rule="evenodd" clip-rule="evenodd" d="M55.5956 104.244C51.8652 105.167 47.7994 105.674 43.5437 105.674C39.2879 105.674 35.2218 105.167 31.4917 104.244L31.4908 104.189C31.4908 97.5319 36.8869 92.1357 43.5437 92.1357C50.2004 92.1357 55.5965 97.5319 55.5965 104.189L55.5956 104.244Z" fill="#9550BC"/>
<path fill-rule="evenodd" clip-rule="evenodd" d="M43.5436 94.3779C48.9622 94.3779 53.3547 98.7704 53.3547 104.189C53.3547 109.608 48.9622 114 43.5436 114C38.125 114 33.7325 109.608 33.7325 104.189C33.7325 98.7704 38.1253 94.3779 43.5436 94.3779Z" fill="#6649C7"/>
<path fill-rule="evenodd" clip-rule="evenodd" d="M44.4344 95.604C54.3087 95.604 54.3087 109.416 44.4344 109.416C34.56 109.416 34.56 95.604 44.4344 95.604Z" fill="#7151DD"/>
<path d="M55.7502 18.5948C47.5718 17.5955 39.3937 17.6452 31.2153 18.5948C28.3732 13.672 17.062 0 11.9988 0C9.84655 0 8.10183 1.74471 8.10183 3.89729L0.121834 63.5725C-2.07703 80.0178 25.9923 97.6831 43.5437 97.6831C61.0953 97.6831 89.1644 80.0182 86.9652 63.5725L78.9858 3.89729C78.9858 1.74471 77.2411 0 75.0885 0C70.025 0 58.5923 13.6723 55.7502 18.5948Z" fill="url(#paint0_linear_840_514)"/>
<path d="M76.2871 83.9312C83.273 77.9159 87.9095 70.6325 86.9651 63.5725C84.3053 43.6807 81.6455 23.7891 78.9857 3.89729C78.9857 1.74471 77.241 0 75.0885 0C70.0249 0 58.5922 13.672 55.7501 18.5948C51.4499 24.3016 46.9763 30.5156 43.5436 39.2907C41.3102 44.9999 42.5387 51.3957 43.5436 60.3694C43.5436 74.3811 55.1127 91.2472 76.2871 83.9312Z" fill="url(#paint1_linear_840_514)"/>
<path fill-rule="evenodd" clip-rule="evenodd" d="M74.2912 10.9157C74.8904 15.6019 75.169 17.4604 75.5121 21.2683C75.6361 22.6427 75.8743 23.5004 74.4871 23.1336C70.7188 22.1377 68.8886 21.6527 65.12 20.6565C63.4438 20.2134 62.1366 20.2733 63.1207 18.9019C65.6414 15.3893 68.2525 12.2319 71.8224 9.58689C73.5973 8.27226 74.0243 8.82792 74.2912 10.9157ZM12.796 10.9157C12.1968 15.6019 11.9182 17.4604 11.5748 21.2683C11.4508 22.6427 11.2129 23.5004 12.6001 23.1336C16.3681 22.1377 18.1986 21.6527 21.9672 20.6565C23.6434 20.2134 24.9506 20.2733 23.9664 18.9019C21.4458 15.3893 18.8348 12.2319 15.2648 9.58689C13.4899 8.27226 13.0629 8.82792 12.796 10.9157Z" fill="#FDFDFD"/>
<path d="M43.5436 90.4038C24.9287 90.4038 9.88227 77.812 18.9187 66.4407C23.1236 61.1492 31.6583 57.0516 35.2307 55.3211C43.6334 51.2511 41.2031 40.8004 34.6476 40.8004C33.7137 40.8004 30.4711 40.7924 28.1112 40.7924C22.0089 40.7924 17.2369 40.0895 17.2369 30.3352H20.3342C21.6972 30.3352 22.173 30.2831 22.173 31.6822C22.173 32.863 22.273 34.1057 23.2954 34.7036C23.8091 35.0041 24.6653 35.1581 25.8907 35.1673C27.1057 35.1766 31.8709 35.1994 35.3226 35.1994C39.3313 35.1994 42.0917 35.9797 43.5439 39.2902C44.9961 35.9797 47.7565 35.1994 51.7652 35.1994C55.217 35.1994 59.9824 35.1766 61.1971 35.1673C62.4226 35.1581 63.2784 35.0038 63.7921 34.7036C64.8146 34.1057 64.9145 32.8626 64.9145 31.6822C64.9145 30.2831 65.3903 30.3352 66.7536 30.3352H69.8506C69.8506 40.0895 65.0786 40.7924 58.9766 40.7924C56.6167 40.7924 53.3738 40.8004 52.4399 40.8004C45.8844 40.8004 43.4541 51.2514 51.8568 55.3211C55.4289 57.0513 63.9633 61.1489 68.1685 66.4407C77.2049 77.812 62.1585 90.4038 43.5436 90.4038Z" fill="white"/>
<path d="M53.1422 64.8471C54.0459 66.0173 53.9123 67.7694 52.8451 68.7598C44.4344 76.5547 42.6677 76.5686 34.2422 68.7598C33.1747 67.7694 33.0415 66.0176 33.9448 64.8471C36.6669 61.8624 50.5308 61.9837 53.1422 64.8471Z" fill="#3A2F26"/>
<path fill-rule="evenodd" clip-rule="evenodd" d="M29.444 44.2817C32.0267 44.2817 34.1204 46.3754 34.1204 48.9584C34.1204 51.541 32.0267 53.6347 29.444 53.6347C26.8611 53.6347 24.7674 51.541 24.7674 48.9584C24.7674 46.3754 26.8611 44.2817 29.444 44.2817Z" fill="#3A2F26"/>
<path fill-rule="evenodd" clip-rule="evenodd" d="M31.1523 46.0229C31.7484 46.0722 32.3398 46.6535 32.4734 47.3215C32.6073 47.9894 32.2328 48.4911 31.637 48.4417C31.0412 48.3924 30.4498 47.8111 30.3159 47.1431C30.1823 46.4752 30.5569 45.9735 31.1523 46.0229Z" fill="white"/>
<path fill-rule="evenodd" clip-rule="evenodd" d="M57.6435 44.2817C60.2265 44.2817 62.3198 46.3754 62.3198 48.9584C62.3198 51.541 60.2265 53.6347 57.6435 53.6347C55.0608 53.6347 52.9672 51.541 52.9672 48.9584C52.9672 46.3754 55.0608 44.2817 57.6435 44.2817Z" fill="#3A2F26"/>
<path fill-rule="evenodd" clip-rule="evenodd" d="M59.3522 46.0229C59.9482 46.0722 60.5397 46.6535 60.6733 47.3215C60.8068 47.9894 60.4329 48.4911 59.8368 48.4417C59.2411 48.3924 58.6496 47.8111 58.5157 47.1431C58.3821 46.4752 58.7567 45.9735 59.3522 46.0229Z" fill="white"/>
<path d="M27.7774 79.1859C27.4846 78.6762 27.6604 78.0249 28.1701 77.7322C28.6798 77.4394 29.3311 77.6149 29.6239 78.1246C30.0509 78.8644 30.7299 79.4454 31.4991 79.8579C32.3997 80.3407 33.4123 80.5863 34.2959 80.5863C36.0452 80.5863 37.043 79.8928 38.6902 79.2769C43.3409 77.539 43.5714 77.4758 48.2221 79.2134C49.8693 79.8292 51.0423 80.5863 52.7916 80.5863C53.6749 80.5863 54.6878 80.3407 55.5884 79.8579C56.3573 79.4454 57.036 78.8644 57.4633 78.1246C57.7561 77.6149 58.4074 77.4391 58.9171 77.7322C59.4268 78.0253 59.603 78.6762 59.3099 79.1859C58.6675 80.2982 57.6861 81.1503 56.5908 81.7377C55.3697 82.3927 53.994 82.7256 52.7916 82.7256C50.6789 82.7256 48.6235 81.9574 46.7973 81.2746C43.601 80.0803 43.4865 80.0803 40.2899 81.2746C38.4641 81.9574 36.4083 82.7256 34.2959 82.7256C33.0936 82.7256 31.7178 82.3927 30.4964 81.7377C29.4008 81.1503 28.4194 80.2985 27.7774 79.1859Z" fill="#3A2F26"/>
<path fill-rule="evenodd" clip-rule="evenodd" d="M38.9753 103.186L36.7659 105.396L41.9041 110.534L50.3213 102.116L48.1119 99.9067L41.9041 106.115L38.9753 103.186Z" fill="white"/>
<defs>
<linearGradient id="paint0_linear_840_514" x1="43.5435" y1="96.3322" x2="43.5435" y2="-0.395774" gradientUnits="userSpaceOnUse">
<stop stop-color="#FCAE75"/>
<stop offset="1" stop-color="#974EF2"/>
</linearGradient>
<linearGradient id="paint1_linear_840_514" x1="64.6875" y1="87.0764" x2="64.6875" y2="0.372146" gradientUnits="userSpaceOnUse">
<stop stop-color="#FFC698"/>
<stop offset="1" stop-color="#BD87E9"/>
</linearGradient>
</defs>
</svg>
