<svg width="120" height="100" viewBox="0 0 120 100" fill="none" xmlns="http://www.w3.org/2000/svg">
<path d="M90.6354 91.4667C90.3517 91.4664 90.0777 91.364 89.8632 91.1783C89.6488 90.9927 89.5083 90.736 89.4674 90.4554C89.4358 90.2182 89.3824 89.9845 89.3079 89.7572C88.5082 87.4498 88.5496 82.9208 88.8568 76.829C88.9445 75.0869 89.5541 73.8097 90.6688 73.0307C91.5551 72.4113 92.5704 72.2557 93.3986 72.2705C93.4134 71.332 93.6094 70.1305 94.3204 69.0315C95.2205 67.6381 96.6937 66.7498 98.7007 66.3904C101.058 65.9679 102.828 66.2919 103.962 67.3584C104.067 67.4577 104.166 67.5633 104.258 67.6745C105.181 66.8768 106.597 66.282 108.681 66.3726C109.197 66.3886 109.704 66.5098 110.17 66.7288C110.637 66.9478 111.055 67.2599 111.396 67.6459C112.42 68.7903 112.775 70.4634 112.891 71.7219C114.13 71.5073 115.036 71.8509 115.635 72.2518C117.881 73.7565 118.734 77.8728 118.243 84.8342C118.223 85.1051 118.203 85.3759 118.184 85.6487C118.071 87.1819 117.955 88.7684 117.942 90.2938C117.94 90.6057 117.814 90.904 117.593 91.1237C117.372 91.3434 117.072 91.4667 116.761 91.4667H116.751C116.595 91.4656 116.442 91.4338 116.299 91.3733C116.156 91.3128 116.026 91.2247 115.917 91.114C115.808 91.0033 115.722 90.8723 115.664 90.7283C115.606 90.5844 115.576 90.4304 115.578 90.2751C115.592 88.6729 115.71 87.047 115.825 85.4753C115.845 85.2055 115.864 84.9357 115.884 84.6678C116.475 76.3366 114.834 74.561 114.318 74.2154C114.144 74.0992 113.613 73.7427 112.269 74.4123C112.083 74.5049 111.875 74.5466 111.668 74.5333C111.46 74.52 111.26 74.4521 111.087 74.3365C110.914 74.2208 110.774 74.0616 110.683 73.8749C110.591 73.6881 110.55 73.4805 110.564 73.273C110.615 72.493 110.546 70.2398 109.632 69.2216C109.5 69.0705 109.338 68.9491 109.157 68.8654C108.975 68.7817 108.777 68.7376 108.577 68.7361C105.552 68.6061 105.155 70.3836 105.12 70.5865V70.5658L103.949 70.4082L102.775 70.2733V70.2901C102.775 70.2822 102.832 69.5328 102.325 69.0709C101.775 68.5706 100.634 68.4456 99.1103 68.7184C97.7819 68.9567 96.8395 69.4894 96.3077 70.3019C95.444 71.6215 95.8438 73.3547 95.8478 73.3675C95.8976 73.5707 95.8926 73.7835 95.8333 73.9841C95.774 74.1847 95.6625 74.366 95.5101 74.5094C95.3578 74.6528 95.1701 74.7533 94.9663 74.8004C94.7625 74.8475 94.5498 74.8397 94.3499 74.7777C93.956 74.6585 92.7398 74.4586 92.0091 74.9746C91.5285 75.3144 91.2597 75.9791 91.2105 76.9501C91.0519 80.0955 90.7181 86.6393 91.5335 88.9851C91.6573 89.3531 91.7463 89.7319 91.7994 90.1166C91.8444 90.4267 91.7644 90.7421 91.577 90.9932C91.3895 91.2444 91.11 91.4108 90.7998 91.4559C90.7453 91.4636 90.6904 91.4672 90.6354 91.4667Z" fill="#3A2F26"/>
<path d="M97.0847 85.4256C97.0847 82.6564 99.9642 78.8354 103.516 78.8354C107.068 78.8354 109.947 82.6564 109.947 85.4256C109.947 88.1948 107.068 88.1761 103.516 88.1761C99.9642 88.1761 97.0847 88.2007 97.0847 85.4256Z" fill="#CA94D9"/>
<path d="M94.9142 80.703C96.0564 80.703 96.9823 79.7771 96.9823 78.6349C96.9823 77.4928 96.0564 76.5669 94.9142 76.5669C93.7721 76.5669 92.8462 77.4928 92.8462 78.6349C92.8462 79.7771 93.7721 80.703 94.9142 80.703Z" fill="#CA94D9"/>
<path d="M99.7396 75.5633C100.882 75.5633 101.808 74.6374 101.808 73.4953C101.808 72.3531 100.882 71.4272 99.7396 71.4272C98.5975 71.4272 97.6716 72.3531 97.6716 73.4953C97.6716 74.6374 98.5975 75.5633 99.7396 75.5633Z" fill="#CA94D9"/>
<path d="M107.224 75.8875C108.366 75.8875 109.292 74.9616 109.292 73.8195C109.292 72.6774 108.366 71.7515 107.224 71.7515C106.082 71.7515 105.156 72.6774 105.156 73.8195C105.156 74.9616 106.082 75.8875 107.224 75.8875Z" fill="#CA94D9"/>
<path d="M112.112 80.0238C113.255 80.0238 114.18 79.0979 114.18 77.9557C114.18 76.8136 113.255 75.8877 112.112 75.8877C110.97 75.8877 110.044 76.8136 110.044 77.9557C110.044 79.0979 110.97 80.0238 112.112 80.0238Z" fill="#CA94D9"/>
<path d="M118.831 92.5448H0.827297C0.607884 92.5448 0.397458 92.4102 0.24231 92.1704C0.0871618 91.9307 0 91.6056 0 91.2666C0 90.9275 0.0871618 90.6024 0.24231 90.3627C0.397458 90.1229 0.607884 89.9883 0.827297 89.9883H118.831C119.05 89.9883 119.261 90.1229 119.416 90.3627C119.571 90.6024 119.658 90.9275 119.658 91.2666C119.658 91.6056 119.571 91.9307 119.416 92.1704C119.261 92.4102 119.05 92.5448 118.831 92.5448Z" fill="#3A2F26"/>
<path d="M24.6415 94.1249C24.6415 94.1249 26.5044 98.4581 30.3636 95.7501C34.2229 93.0421 34.2219 76.6555 17.9879 76.9262C1.7538 77.1969 2.28674 98.4542 7.60944 99.6768C12.9321 100.899 13.7301 95.3436 13.7301 95.3436C13.7301 95.3436 13.1981 100.975 19.4523 99.8517C25.7064 98.7288 24.6415 94.1249 24.6415 94.1249Z" fill="white"/>
<path d="M17.0783 99.9998C15.3284 99.9998 13.9487 99.4572 12.9777 98.3877C12.788 98.1781 12.6173 97.952 12.4676 97.7122C11.3656 99.1145 9.8353 99.8501 7.99869 99.8501C7.41092 99.8463 6.82537 99.7776 6.25268 99.6453C4.69574 99.2947 3.41849 97.8727 2.65725 95.6382C1.98465 93.6687 1.7552 91.2067 2.01026 88.7251C2.39137 85.0253 3.80551 81.6258 5.99467 79.154C8.69 76.1091 12.5434 74.4606 17.1364 74.3857C17.2802 74.3857 17.4201 74.3857 17.5619 74.3857C21.6861 74.3857 25.1269 75.3823 27.7898 77.348C30.0301 79.0014 31.6688 81.3353 32.5295 84.0976C33.208 86.2779 33.3764 88.663 33.0012 90.8118C32.6201 93.001 31.7377 94.6702 30.5176 95.5122C29.453 96.2458 28.3924 96.6181 27.3663 96.6181C26.452 96.6165 25.5626 96.3198 24.8305 95.7722C24.6942 96.1172 24.5226 96.4472 24.3184 96.7569C23.2706 98.3473 21.435 99.3833 18.8618 99.8373C18.2731 99.9432 17.6764 99.9975 17.0783 99.9998ZM12.7857 92.9409C12.9512 92.9401 13.1149 92.9741 13.2665 93.0406C13.418 93.1071 13.5538 93.2047 13.6652 93.327C13.7766 93.4494 13.8611 93.5938 13.9131 93.7509C13.9652 93.9079 13.9837 94.0742 13.9674 94.2388C13.9674 94.2477 13.8433 95.8352 14.7375 96.8081C15.2427 97.3576 16.0305 97.6363 17.0803 97.6363C17.5405 97.6323 17.9995 97.5881 18.4521 97.5044C20.3606 97.1686 21.6703 96.4773 22.3459 95.4521C22.7786 94.7746 22.9504 93.9631 22.8294 93.1684C22.7625 92.8816 22.805 92.5801 22.9487 92.3231C23.0925 92.066 23.327 91.8719 23.6064 91.7787C23.8858 91.6855 24.1899 91.7 24.4591 91.8194C24.7284 91.9387 24.9433 92.1543 25.0619 92.4239C25.0678 92.4367 25.9029 94.2507 27.3673 94.2507C27.905 94.2507 28.5146 94.0192 29.1763 93.5613C30.4565 92.675 31.527 88.8206 30.2734 84.7968C29.3378 81.7893 26.4406 76.7453 17.5628 76.7453H17.1758C6.43387 76.9216 4.65241 86.142 4.36289 88.9644C3.91186 93.3447 5.26297 96.9972 6.77165 97.335C7.1744 97.4286 7.5862 97.4778 7.99967 97.4817C9.26314 97.4817 10.2105 96.945 10.8949 95.8391C11.2476 95.2556 11.4936 94.6141 11.6217 93.9444C11.6642 93.6658 11.8048 93.4116 12.0183 93.2276C12.2317 93.0436 12.5039 92.9419 12.7857 92.9409Z" fill="#3A2F26"/>
<path fill-rule="evenodd" clip-rule="evenodd" d="M49.115 56.3433H68.0537C75.4836 58.0114 81.4574 61.5866 84.4659 66.1243V79.5122C80.2599 85.8567 70.2569 90.3198 58.5843 90.3198C46.9118 90.3198 36.9087 85.8565 32.7028 79.5122V66.1243C35.7113 61.5866 41.6853 58.0114 49.115 56.3433Z" fill="#B367D6"/>
<path fill-rule="evenodd" clip-rule="evenodd" d="M68.8851 89.0973C65.6968 89.886 62.2218 90.3198 58.5843 90.3198C54.9469 90.3198 51.4717 89.886 48.2836 89.0973L48.2828 89.0501C48.2828 83.3606 52.8948 78.7485 58.5843 78.7485C64.2739 78.7485 68.8859 83.3606 68.8859 89.0501L68.8851 89.0973Z" fill="#9550BC"/>
<path fill-rule="evenodd" clip-rule="evenodd" d="M58.5843 80.665C63.2156 80.665 66.9699 84.4193 66.9699 89.0506C66.9699 93.6819 63.2156 97.4361 58.5843 97.4361C53.953 97.4361 50.1987 93.6819 50.1987 89.0506C50.1987 84.4193 53.9533 80.665 58.5843 80.665Z" fill="#6649C7"/>
<path fill-rule="evenodd" clip-rule="evenodd" d="M59.3456 81.7129C67.7852 81.7129 67.7852 93.5183 59.3456 93.5183C50.906 93.5183 50.906 81.7129 59.3456 81.7129Z" fill="#7151DD"/>
<path d="M69.0173 15.893C62.0272 15.0389 55.0374 15.0813 48.0473 15.893C45.6181 11.6855 35.9505 0 31.6229 0C29.7834 0 28.2922 1.49121 28.2922 3.33102L21.4717 54.3355C19.5923 68.3913 43.5832 83.4898 58.5844 83.4898C73.5858 83.4898 97.5764 68.3916 95.6968 54.3355L88.8768 3.33102C88.8768 1.49121 87.3856 0 85.5458 0C81.218 0 71.4464 11.6857 69.0173 15.893Z" fill="url(#paint0_linear_850_595)"/>
<path d="M86.5702 71.7361C92.5411 66.5948 96.5039 60.3697 95.6967 54.3355C93.4234 37.3339 91.1501 20.3326 88.8767 3.33102C88.8767 1.49121 87.3855 0 85.5457 0C81.2179 0 71.4464 11.6855 69.0172 15.893C65.3418 20.7706 61.5182 26.0817 58.5843 33.5818C56.6754 38.4615 57.7254 43.9279 58.5843 51.5978C58.5843 63.5736 68.4724 77.9891 86.5702 71.7361Z" fill="url(#paint1_linear_850_595)"/>
<path fill-rule="evenodd" clip-rule="evenodd" d="M84.8643 9.32965C85.3764 13.3349 85.6145 14.9234 85.9078 18.178C86.0138 19.3528 86.2173 20.0858 85.0318 19.7723C81.811 18.9211 80.2467 18.5066 77.0257 17.6551C75.593 17.2764 74.4757 17.3276 75.3169 16.1554C77.4713 13.1533 79.703 10.4546 82.7542 8.19391C84.2713 7.07029 84.6362 7.54521 84.8643 9.32965ZM32.3043 9.32965C31.7922 13.3349 31.5541 14.9234 31.2606 18.178C31.1546 19.3528 30.9513 20.0858 32.1368 19.7723C35.3574 18.9211 36.9219 18.5066 40.1429 17.6551C41.5756 17.2764 42.6929 17.3276 41.8517 16.1554C39.6973 13.1533 37.4656 10.4546 34.4144 8.19391C32.8973 7.07029 32.5324 7.54521 32.3043 9.32965Z" fill="#FDFDFD"/>
<path d="M58.5843 77.2682C42.6742 77.2682 29.8139 66.5059 37.5373 56.7868C41.1313 52.2642 48.4259 48.762 51.4792 47.2829C58.661 43.8043 56.5839 34.8721 50.9809 34.8721C50.1826 34.8721 47.4112 34.8652 45.3942 34.8652C40.1785 34.8652 36.0999 34.2645 36.0999 25.9275H38.7472C39.9122 25.9275 40.3188 25.8829 40.3188 27.0788C40.3188 28.0879 40.4042 29.1501 41.2781 29.6611C41.7172 29.918 42.4489 30.0496 43.4964 30.0575C44.5348 30.0654 48.6076 30.0849 51.5578 30.0849C54.984 30.0849 57.3433 30.7518 58.5846 33.5813C59.8258 30.7518 62.1851 30.0849 65.6113 30.0849C68.5615 30.0849 72.6346 30.0654 73.6728 30.0575C74.7202 30.0496 75.4517 29.9177 75.8907 29.6611C76.7646 29.1501 76.85 28.0877 76.85 27.0788C76.85 25.8829 77.2567 25.9275 78.4219 25.9275H81.0689C81.0689 34.2645 76.9903 34.8652 71.7749 34.8652C69.7579 34.8652 66.9862 34.8721 66.188 34.8721C60.585 34.8721 58.5078 43.8045 65.6896 47.2829C68.7427 48.7618 76.0371 52.2639 79.6312 56.7868C87.3547 66.5059 74.4944 77.2682 58.5843 77.2682Z" fill="white"/>
<path d="M66.7882 55.4249C67.5606 56.4251 67.4464 57.9226 66.5343 58.7691C59.3456 65.4314 57.8357 65.4432 50.6344 58.7691C49.722 57.9226 49.6081 56.4253 50.3802 55.4249C52.7068 52.8739 64.5563 52.9775 66.7882 55.4249Z" fill="#3A2F26"/>
<path fill-rule="evenodd" clip-rule="evenodd" d="M46.5334 37.8477C48.7408 37.8477 50.5303 39.6371 50.5303 41.8448C50.5303 44.0522 48.7408 45.8416 46.5334 45.8416C44.3257 45.8416 42.5363 44.0522 42.5363 41.8448C42.5363 39.6371 44.3257 37.8477 46.5334 37.8477Z" fill="#3A2F26"/>
<path fill-rule="evenodd" clip-rule="evenodd" d="M47.9934 39.3359C48.5029 39.3781 49.0084 39.8749 49.1226 40.4458C49.237 41.0167 48.9169 41.4454 48.4077 41.4033C47.8985 41.3611 47.393 40.8643 47.2786 40.2934C47.1644 39.7224 47.4845 39.2937 47.9934 39.3359Z" fill="white"/>
<path fill-rule="evenodd" clip-rule="evenodd" d="M70.6355 37.8477C72.8432 37.8477 74.6323 39.6371 74.6323 41.8448C74.6323 44.0522 72.8432 45.8416 70.6355 45.8416C68.4281 45.8416 66.6387 44.0522 66.6387 41.8448C66.6387 39.6371 68.4281 37.8477 70.6355 37.8477Z" fill="#3A2F26"/>
<path fill-rule="evenodd" clip-rule="evenodd" d="M72.0959 39.3359C72.6053 39.3781 73.1108 39.8749 73.225 40.4458C73.3392 41.0167 73.0196 41.4454 72.5101 41.4033C72.0009 41.3611 71.4954 40.8643 71.381 40.2934C71.2668 39.7224 71.5869 39.2937 72.0959 39.3359Z" fill="white"/>
<path d="M45.1089 67.6802C44.8586 67.2445 45.0089 66.6879 45.4446 66.4376C45.8802 66.1874 46.4368 66.3374 46.6871 66.773C47.052 67.4054 47.6324 67.9019 48.2898 68.2545C49.0596 68.6672 49.925 68.8771 50.6803 68.8771C52.1754 68.8771 53.0282 68.2843 54.4361 67.7579C58.4111 66.2725 58.608 66.2185 62.583 67.7036C63.9909 68.23 64.9934 68.8771 66.4886 68.8771C67.2436 68.8771 68.1093 68.6672 68.879 68.2545C69.5361 67.9019 70.1163 67.4054 70.4815 66.773C70.7318 66.3374 71.2884 66.1871 71.724 66.4376C72.1597 66.6881 72.3102 67.2445 72.0597 67.6802C71.5107 68.6308 70.6719 69.3591 69.7358 69.8612C68.6921 70.421 67.5162 70.7056 66.4886 70.7056C64.6828 70.7056 62.9261 70.0489 61.3652 69.4654C58.6333 68.4446 58.5355 68.4446 55.8034 69.4654C54.2428 70.0489 52.4858 70.7056 50.6803 70.7056C49.6526 70.7056 48.4768 70.421 47.4328 69.8612C46.4964 69.3591 45.6576 68.631 45.1089 67.6802Z" fill="#3A2F26"/>
<path fill-rule="evenodd" clip-rule="evenodd" d="M54.6798 88.1937L52.7914 90.0821L57.183 94.4734L64.3772 87.2792L62.4889 85.3906L57.183 90.6965L54.6798 88.1937Z" fill="white"/>
<path d="M69.3565 66.9086L58.325 66.3029L58.321 66.2944L58.246 66.2984L58.171 66.2944L58.1675 66.3029L47.136 66.9086C47.136 66.9086 45.7047 76.7418 58.2485 76.252C70.7883 76.7418 69.3565 66.9086 69.3565 66.9086Z" fill="#3A2F26"/>
<path d="M70.5424 66.3545C70.5424 66.3545 70.2426 70.4525 65.9447 69.7028C61.6468 68.9532 62.2965 66.4045 58.3485 66.3545C54.4004 66.4045 55.0501 68.9532 50.7522 69.7028C46.4543 70.4525 46.1545 66.3545 46.1545 66.3545" fill="white"/>
<path d="M70.5424 66.3543C70.5424 66.3543 70.5424 66.3838 70.5424 66.4413C70.5424 66.4988 70.5389 66.5832 70.5274 66.6942C70.5159 66.8051 70.5009 66.941 70.471 67.1005C70.438 67.2844 70.393 67.4661 70.3365 67.6442C70.2656 67.868 70.1758 68.0853 70.0682 68.2939C69.9388 68.545 69.7801 68.7798 69.5954 68.9935C69.3793 69.2432 69.1265 69.4585 68.8458 69.6322C68.5303 69.8242 68.1868 69.9658 67.8278 70.052C67.4413 70.143 67.0453 70.1866 66.6483 70.1819L66.341 70.1704C66.291 70.1704 66.2411 70.1629 66.1871 70.158L66.0322 70.1415L65.8757 70.125L65.7203 70.1015L65.5704 70.079C65.5204 70.071 65.4704 70.065 65.4205 70.054L65.1001 69.991C64.9942 69.9665 64.8897 69.9411 64.7833 69.9141C64.5714 69.8576 64.3575 69.7941 64.1436 69.7177C64.0901 69.7002 64.0366 69.6797 63.9837 69.6582L63.8233 69.5952C63.7163 69.5523 63.6119 69.5003 63.5054 69.4528C63.2931 69.3496 63.0862 69.2356 62.8857 69.111C62.4789 68.8641 62.1051 68.5612 61.7553 68.2764C61.5794 68.1325 61.4094 67.9925 61.239 67.8656C61.0755 67.7389 60.9047 67.6221 60.7273 67.5158C60.5551 67.4148 60.3751 67.3277 60.189 67.2554C60.1431 67.2359 60.0946 67.2219 60.0476 67.2054C60.0006 67.1889 59.9532 67.1724 59.9037 67.1599L59.7578 67.1175C59.7078 67.105 59.6578 67.0945 59.6078 67.0825C59.5079 67.057 59.4044 67.043 59.302 67.024C59.1995 67.005 59.0926 66.9975 58.9881 66.9835L58.6668 66.9595L58.5034 66.955H58.4219H58.3809H58.3685L58.0186 66.966L57.7093 66.989C57.6048 67.0035 57.4984 67.0125 57.3954 67.03C57.2925 67.0475 57.1885 67.0625 57.0896 67.0885C57.0396 67.1005 56.9896 67.111 56.9397 67.1235L56.7937 67.1659C56.7438 67.1789 56.6973 67.1954 56.6503 67.2119C56.6033 67.2284 56.5543 67.2429 56.5089 67.2619C56.3229 67.3345 56.1429 67.4217 55.9706 67.5228C55.793 67.6286 55.6221 67.7455 55.4589 67.8726C55.289 67.9995 55.1186 68.1394 54.9426 68.2834C54.5928 68.5697 54.2195 68.8711 53.8127 69.1185C53.4168 69.3663 52.9948 69.5698 52.5543 69.7252C52.3404 69.8016 52.1265 69.8656 51.9146 69.9216C51.8082 69.9471 51.7032 69.9745 51.5983 69.9985L51.2845 70.06C51.181 70.08 51.0776 70.093 50.9751 70.11L50.8092 70.135L50.6628 70.15L50.5168 70.1649C50.4669 70.1694 50.4229 70.1759 50.3669 70.1774C50.26 70.1831 50.1543 70.1873 50.0501 70.1899C49.6526 70.1947 49.2561 70.1511 48.8692 70.06C48.5097 69.9736 48.166 69.8318 47.8502 69.6397C47.5694 69.466 47.3166 69.2506 47.1005 69.001C46.916 68.7872 46.7573 68.5524 46.6278 68.3014C46.5201 68.0928 46.4303 67.8754 46.3594 67.6517C46.3033 67.4733 46.2586 67.2915 46.2255 67.1075C46.196 66.948 46.18 66.8116 46.169 66.7012C46.158 66.5907 46.156 66.5053 46.1545 66.4483C46.153 66.3913 46.1545 66.3613 46.1545 66.3613C46.1545 66.3613 46.176 66.4778 46.237 66.6882C46.3249 66.9891 46.4407 67.2812 46.5828 67.5607C46.7936 67.9835 47.0818 68.363 47.4324 68.6797C47.6412 68.8642 47.8759 69.0173 48.129 69.134C48.4068 69.2609 48.7021 69.3452 49.0051 69.3838C49.3368 69.4257 49.6721 69.429 50.0046 69.3938C50.0885 69.3818 50.1735 69.3703 50.259 69.3603C50.2994 69.3568 50.3494 69.3459 50.3969 69.3379L50.5403 69.3109L50.6853 69.2839C50.7002 69.2839 50.6758 69.2839 50.6813 69.2839H50.6897L50.7072 69.2799L50.7417 69.2714L50.8112 69.2549C50.9031 69.2319 50.9971 69.2124 51.0896 69.1864C51.465 69.0895 51.8325 68.9642 52.189 68.8116C52.3689 68.7337 52.5448 68.6457 52.7197 68.5532C52.8947 68.4608 53.0626 68.3533 53.2275 68.2364C53.5717 67.9896 53.9009 67.7226 54.2135 67.4368C54.3819 67.2869 54.5573 67.1314 54.7477 66.9775C54.944 66.818 55.15 66.6708 55.3644 66.5367C55.5878 66.3985 55.8217 66.2782 56.0641 66.1769C56.308 66.0766 56.5599 65.9971 56.8172 65.939C56.9442 65.9061 57.0716 65.8891 57.199 65.8631C57.3265 65.8371 57.4529 65.8281 57.5803 65.8131C57.7078 65.7981 57.8422 65.7911 57.9716 65.7816L58.3215 65.7686C58.3348 65.7679 58.3481 65.7679 58.3615 65.7686H58.3729H58.3964H58.4434L58.5374 65.7721L58.7258 65.7791C58.8517 65.7891 58.9781 65.7986 59.1046 65.8106C59.231 65.8226 59.3585 65.8401 59.4859 65.8606C59.6133 65.8811 59.7408 65.9036 59.8677 65.937C60.1248 65.9953 60.3765 66.0749 60.6203 66.1749C60.8636 66.2762 61.0984 66.3967 61.3225 66.5352C61.7668 66.8091 62.1376 67.1379 62.4719 67.4348C62.7844 67.7205 63.1134 67.9876 63.4574 68.2344C63.6214 68.3483 63.7911 68.4539 63.9657 68.5507C64.0536 68.5957 64.1396 68.6437 64.2285 68.6862L64.362 68.7497C64.406 68.7711 64.4504 68.7916 64.4959 68.8096C64.6758 68.8881 64.8592 68.9565 65.0431 69.019C65.1356 69.048 65.2281 69.079 65.3195 69.1065L65.5909 69.1834C65.6344 69.1964 65.6858 69.2074 65.7338 69.2189L65.8792 69.2534L66.0152 69.2859L66.1506 69.3114L66.285 69.3369C66.3295 69.3449 66.3745 69.3553 66.4185 69.3593L66.6828 69.3938C67.0164 69.4291 67.353 69.4259 67.6858 69.3843C67.9887 69.3454 68.284 69.2612 68.5619 69.1345C68.816 69.0177 69.0517 68.8645 69.2616 68.6797C69.6119 68.3628 69.9001 67.9834 70.1111 67.5607C70.253 67.281 70.3687 66.9888 70.4565 66.6877C70.5214 66.4708 70.5424 66.3543 70.5424 66.3543Z" fill="#3A2F26"/>
<path d="M57.7488 66.3545L58.3485 63.2476L58.9482 66.3545C58.9788 66.5136 58.9451 66.6783 58.8543 66.8125C58.7635 66.9466 58.6232 67.0392 58.4641 67.0699C58.3051 67.1006 58.1404 67.0668 58.0062 66.9761C57.872 66.8853 57.7794 66.745 57.7488 66.5859C57.7343 66.5095 57.7343 66.431 57.7488 66.3545Z" fill="#3A2F26"/>
<path d="M58.3485 82.7218C67.0442 82.7218 64.9952 74.272 63.4959 72.2025C61.9967 70.133 58.3485 72.2025 58.3485 72.2025C58.3485 72.2025 54.7003 70.133 53.201 72.2025C51.7017 74.272 49.6528 82.7218 58.3485 82.7218Z" fill="url(#paint2_linear_850_595)"/>
<path d="M58.3485 83.3213C56.6993 83.3213 55.307 83.026 54.209 82.4443C53.2095 81.9135 52.4464 81.1449 51.9461 80.1669C51.1155 78.5402 51.186 76.6976 51.3909 75.4387C51.6158 74.0589 52.1355 72.6506 52.7152 71.8505C53.269 71.0864 54.1285 70.6841 55.2 70.6841C56.4759 70.6841 57.7767 71.2468 58.3485 71.5277C58.9182 71.2468 60.219 70.6841 61.4969 70.6841C62.5704 70.6841 63.4299 71.0879 63.9837 71.852C64.5634 72.6516 65.0831 74.0604 65.308 75.4402C65.5129 76.6991 65.5834 78.5417 64.7528 80.1684C64.253 81.1489 63.4909 81.9175 62.4899 82.4458C61.39 83.028 59.9976 83.3213 58.3485 83.3213ZM55.2 71.8835C54.5079 71.8835 54.0121 72.1034 53.6848 72.5557C52.8082 73.7651 51.8052 77.2583 53.0121 79.6232C53.8617 81.2823 55.6538 82.1219 58.3465 82.1219C61.0391 82.1219 62.8337 81.2808 63.6808 79.6232C64.8877 77.2583 63.8847 73.7651 63.0082 72.5557C62.6808 72.1034 62.1851 71.8835 61.4929 71.8835C60.1496 71.8835 58.6568 72.7171 58.6418 72.7256C58.5517 72.7766 58.4498 72.8035 58.3462 72.8035C58.2426 72.8035 58.1408 72.7766 58.0506 72.7256C58.0381 72.7156 56.5453 71.8835 55.2 71.8835Z" fill="#3A2F26"/>
<path d="M58.9482 72.2086L58.2485 81.3471L57.7488 72.1951C57.7401 72.036 57.7951 71.8801 57.9014 71.7615C58.0078 71.643 58.1569 71.5715 58.316 71.5629C58.475 71.5543 58.631 71.6092 58.7495 71.7156C58.8681 71.8219 58.9395 71.9711 58.9482 72.1301C58.9482 72.1556 58.9482 72.1831 58.9482 72.2086Z" fill="#3A2F26"/>
<defs>
<linearGradient id="paint0_linear_850_595" x1="58.5842" y1="82.3352" x2="58.5842" y2="-0.338269" gradientUnits="userSpaceOnUse">
<stop stop-color="#FCAE75"/>
<stop offset="1" stop-color="#974EF2"/>
</linearGradient>
<linearGradient id="paint1_linear_850_595" x1="76.656" y1="74.4243" x2="76.656" y2="0.318074" gradientUnits="userSpaceOnUse">
<stop stop-color="#FFC698"/>
<stop offset="1" stop-color="#BD87E9"/>
</linearGradient>
<linearGradient id="paint2_linear_850_595" x1="58.3485" y1="83" x2="58.3485" y2="66.5" gradientUnits="userSpaceOnUse">
<stop stop-color="#FCAE75"/>
<stop offset="1" stop-color="#974EF2"/>
</linearGradient>
</defs>
</svg>
