<svg width="274" height="273" viewBox="0 0 274 273" fill="none" xmlns="http://www.w3.org/2000/svg">
<path d="M137 0L147.857 58.0086L173.962 5.08034L168.766 63.8671L208.183 19.9445L187.319 75.1494L237.125 43.4902L202.14 91.019L258.64 73.9711L212.13 110.299L271.135 109.127L216.548 131.559L273.681 146.349L215.066 153.222L266.09 182.879L207.795 173.683L248.925 216.005L195.272 191.423L223.459 243.272L178.429 205.126L191.581 262.658L158.512 213.777L155.655 272.724L137 216.734L118.345 272.724L115.488 213.777L82.4191 262.658L95.5715 205.126L50.541 243.272L78.7275 191.423L25.0751 216.005L66.2054 173.683L7.91025 182.879L58.9337 153.222L0.319382 146.349L57.4519 131.559L2.86548 109.127L61.8698 110.299L15.3597 73.9711L71.8597 91.019L36.8755 43.4902L86.6808 75.1494L65.817 19.9445L105.234 63.8671L100.038 5.08034L126.143 58.0086L137 0Z" fill="url(#paint0_linear_2239_1943)"/>
<defs>
<linearGradient id="paint0_linear_2239_1943" x1="2.3642e-06" y1="52.0093" x2="274" y2="52.0093" gradientUnits="userSpaceOnUse">
<stop stop-color="#974EF2"/>
<stop offset="1" stop-color="#FFB171"/>
</linearGradient>
</defs>
</svg>
