<svg width="137" height="62" viewBox="0 0 137 62" fill="none" xmlns="http://www.w3.org/2000/svg">
<path d="M30.4684 22.182L30.5067 22.3337C30.8739 23.7862 31.0707 25.1655 31.0934 26.4327C31.1235 28.105 30.8488 29.5891 30.2853 30.85L30.2853 30.85C30.0228 31.4378 29.4457 31.7872 28.8398 31.7872C28.6247 31.7872 28.4058 31.7431 28.1955 31.6495C27.3982 31.2926 27.0406 30.3575 27.3968 29.5595C27.776 28.7113 27.9512 27.6751 27.9301 26.4893L30.4684 22.182ZM30.4684 22.182C29.8549 19.8273 29.0016 18.079 28.9658 18.0059C28.5803 17.2232 27.6341 16.9007 26.8505 17.2854L26.8503 17.2855C26.0669 17.6694 25.7427 18.6173 26.126 19.401L26.1273 19.4038L26.1273 19.4039C26.1272 19.4037 26.1274 19.404 26.1297 19.4088L26.1372 19.4246C26.1436 19.438 26.1528 19.4574 26.1644 19.4824C26.1877 19.5324 26.2208 19.6047 26.262 19.6974C26.3442 19.8827 26.4583 20.1493 26.5886 20.4804C26.849 21.1422 27.1749 22.0639 27.4398 23.1103C27.746 24.3201 27.9123 25.4578 27.9301 26.4892C27.9301 26.4892 27.9301 26.4891 27.9301 26.4891L30.4684 22.182Z" fill="#7151DD" stroke="white" stroke-width="0.5"/>
<mask id="path-2-inside-1_2346_1871" fill="white">
<path d="M135.751 37.1154L126.46 27.8241C125.768 27.1323 124.662 27.1116 123.942 27.7588C123.064 26.2983 122.528 24.6353 122.404 22.9326L122.307 21.5878C122.294 21.4118 122.256 21.239 122.193 21.0737C120.383 16.2714 118.381 12.4049 116.071 9.25157C113.094 5.1866 109.627 2.41932 105.767 1.02576C103.407 0.157055 100.993 0.532308 98.5938 2.1416C97.8797 2.621 97.1928 3.18718 96.5275 3.80296C94.7223 2.48544 92.5369 2.09449 90.5879 2.82598C90.5433 2.84251 90.4995 2.8607 90.4565 2.88136C88.448 3.81867 87.0932 5.84288 87.0627 7.8919C85.6559 7.96794 84.3441 8.55066 83.3399 9.55409C82.3092 10.5848 81.7223 11.9403 81.6727 13.3909C80.2792 13.4405 78.9005 13.9943 77.8384 15.0556C77.3135 15.5805 76.9052 16.1896 76.6225 16.8517L75.5802 15.8078L75.8125 15.5689C78.0706 13.3455 78.2351 10.2269 76.2018 8.14648C75.5431 7.47119 74.7173 6.97526 73.8139 6.71241C72.2592 6.26029 70.6011 6.51074 69.2621 7.39514C69.2398 7.40919 69.2175 7.42407 69.196 7.43978C68.9315 7.61914 68.6786 7.82578 68.443 8.05473C68.4364 8.06051 68.4306 8.06713 68.424 8.07374L68.1438 8.35477L67.8628 8.07374C67.8561 8.06713 67.8487 8.05969 67.8421 8.05308C67.5966 7.81503 67.3329 7.60095 67.0618 7.42077C67.0594 7.41911 67.0569 7.41746 67.0544 7.41581C67.0445 7.40919 67.0346 7.40341 67.0246 7.3968C65.6823 6.51074 64.0267 6.26029 62.4737 6.71241C61.5736 6.9736 60.7487 7.46871 60.0858 8.14565C58.0525 10.2286 58.2169 13.3463 60.4742 15.5681L60.7073 15.8078L59.665 16.8517C59.3824 16.1888 58.9732 15.5796 58.4484 15.0548C57.3871 13.9935 56.0084 13.4389 54.6148 13.3901C54.5652 11.9403 53.9784 10.584 52.9477 9.55326C51.9434 8.54983 50.6317 7.96629 49.2249 7.89107C49.1943 5.84206 47.8396 3.81784 45.8311 2.88053C45.7881 2.8607 45.7443 2.84169 45.6997 2.82515C43.7507 2.09366 41.5653 2.48462 39.7601 3.80213C39.0939 3.18553 38.4079 2.61934 37.6937 2.14077C35.2943 0.532308 32.8807 0.157055 30.5209 1.02576C26.6601 2.41932 23.1928 5.1866 20.2164 9.25157C17.907 12.4049 15.9042 16.2723 14.0941 21.0737C14.0321 21.239 13.9941 21.4118 13.9809 21.5878L13.8833 22.9326C13.7594 24.6353 13.2237 26.2991 12.346 27.7588C11.6269 27.1116 10.5201 27.1323 9.82746 27.8241L0.536224 37.1154C-0.178741 37.8303 -0.178741 38.9908 0.536224 39.7058L21.7232 60.8927C22.081 61.2506 22.5497 61.4291 23.0184 61.4291C23.487 61.4291 23.9557 61.2506 24.3136 60.8927L33.6048 51.6015C33.9486 51.2576 34.1412 50.7923 34.1412 50.3062C34.1412 50.2757 34.1379 50.2459 34.1371 50.2162L35.0959 49.345C41.4801 46.5777 49.9267 41.9722 54.8206 37.1881C54.8322 37.1765 54.843 37.1658 54.8545 37.1542L68.1438 23.4674L81.4322 37.1542C81.443 37.1658 81.4545 37.1765 81.4661 37.1881C86.3584 41.9713 94.805 46.5777 101.191 49.345L102.15 50.2162C102.125 50.7146 102.301 51.2212 102.682 51.6023L111.973 60.8935C112.331 61.2514 112.8 61.4299 113.268 61.4299C113.737 61.4299 114.206 61.2514 114.564 60.8935L135.751 39.7066C136.094 39.3627 136.287 38.8974 136.287 38.4114C136.287 37.9254 136.094 37.4592 135.751 37.1162L135.751 37.1154ZM91.9418 6.23302C92.6253 6.00241 93.3196 6.15697 93.9255 6.48677C93.7412 6.6901 93.5569 6.89343 93.3742 7.09593C92.6601 7.88694 91.9658 8.65398 91.2805 9.34828C90.9789 8.90938 90.7912 8.44982 90.7251 7.97538C90.7144 7.33646 91.2351 6.59091 91.9418 6.23219V6.23302ZM85.9311 12.1453C86.3171 11.7593 86.8304 11.5469 87.3768 11.5469H87.3784C87.4346 11.5469 87.4908 11.5444 87.547 11.5395C87.871 11.5097 88.2041 11.6601 88.567 11.9354C87.8776 12.9272 87.5809 14.1365 87.7471 15.3631C87.9537 16.8922 88.8439 18.199 90.1887 18.947C93.0733 20.5538 95.0215 20.2166 96.2167 19.5421C96.2836 19.6049 96.3498 19.6686 96.4159 19.7314C96.8283 20.1199 97.2176 20.4877 97.5607 20.8638C98.2475 21.6167 98.5707 22.2176 98.6302 22.859C98.6153 23.3831 98.4046 23.874 98.0318 24.246C97.2342 25.0436 95.9357 25.0436 95.1372 24.246L85.932 15.0407C85.5451 14.6539 85.3327 14.1398 85.3319 13.5934C85.3319 13.0471 85.5443 12.533 85.9311 12.1461V12.1453ZM102.013 15.4846C102.337 15.7945 102.603 16.1781 102.762 16.5814C102.909 17.2121 102.637 17.7923 102.109 17.9477C102.102 17.9493 102.094 17.9518 102.088 17.9543C101.464 18.1461 100.887 17.751 99.8833 16.7178C100.54 16.2929 101.248 15.883 102.013 15.4837V15.4846ZM80.4296 17.6468C80.8288 17.2476 81.3529 17.0484 81.8769 17.0484C82.4009 17.0484 82.925 17.2476 83.3242 17.6468L92.5303 26.8529C92.9171 27.2398 93.1295 27.753 93.1295 28.3002C93.1295 28.8474 92.9163 29.3607 92.5303 29.7475C92.1435 30.1343 91.6302 30.3468 91.083 30.3468C90.5358 30.3468 90.0225 30.1335 89.6357 29.7475L80.4296 20.5414C80.0428 20.1546 79.8304 19.6413 79.8304 19.0941C79.8304 18.5469 80.0436 18.0337 80.4296 17.6468ZM63.0886 13.0008C63.077 12.9892 63.0663 12.9777 63.0539 12.9661C62.7472 12.666 61.8166 11.618 62.7059 10.7063C62.9266 10.4806 63.2002 10.3162 63.4969 10.2294C63.9738 10.0905 64.4764 10.1509 64.9029 10.3914L65.5087 10.9948L63.2953 13.2132L63.0878 13L63.0886 13.0008ZM56.458 19.0933C56.458 19.6396 56.2456 20.1537 55.8588 20.5406L46.6527 29.7467C46.2659 30.1335 45.7526 30.3459 45.2054 30.3459C44.6582 30.3459 44.1449 30.1327 43.7581 29.7467C43.3713 29.3599 43.1589 28.8466 43.1589 28.2994C43.1589 27.7522 43.3721 27.2389 43.7581 26.8521L52.9642 17.646C53.3634 17.2468 53.8875 17.0476 54.4115 17.0476C54.9355 17.0476 55.4596 17.2468 55.8588 17.646C56.2456 18.0328 56.458 18.5469 56.458 19.0933ZM50.9565 13.5901C50.9565 14.1381 50.7433 14.6522 50.3565 15.0391L41.1512 24.2443C40.3527 25.0428 39.0551 25.0428 38.2566 24.2443C37.8838 23.8724 37.6731 23.3814 37.6582 22.8574C37.7177 22.216 38.0401 21.6151 38.7277 20.8621C39.0708 20.486 39.4601 20.119 39.8725 19.7297C39.9386 19.6677 40.0056 19.6041 40.0717 19.5413C41.2669 20.2149 43.2151 20.5521 46.0997 18.9462C47.4445 18.1973 48.3339 16.8905 48.5414 15.3614C48.7075 14.1348 48.4108 12.9256 47.7214 11.9337C48.0843 11.6585 48.4165 11.508 48.7414 11.5378C48.7976 11.5428 48.8538 11.5452 48.91 11.5452H48.9116C49.458 11.5452 49.9713 11.7577 50.3573 12.1437C50.7433 12.5297 50.9565 13.0438 50.9565 13.5893V13.5901ZM33.5254 16.5814C33.685 16.1772 33.9511 15.7945 34.2743 15.4837C35.0397 15.883 35.7472 16.2929 36.4035 16.7178C35.4001 17.7501 34.8223 18.1461 34.1991 17.9543C34.1916 17.9518 34.1842 17.9502 34.1776 17.9477C33.6511 17.7931 33.3775 17.2129 33.5246 16.5814H33.5254ZM44.3466 6.23219C45.0525 6.59091 45.574 7.33563 45.5633 7.97538C45.4972 8.44899 45.3096 8.90855 45.0079 9.34745C44.3227 8.65398 43.6283 7.88611 42.9142 7.09593C42.7315 6.89343 42.5472 6.6901 42.3629 6.48677C42.9688 6.15697 43.6631 6.00158 44.3466 6.23302V6.23219ZM23.0192 57.0071L4.42266 38.4106L11.1227 31.7106L29.7192 50.3071L23.0184 57.0071H23.0192ZM52.2435 34.5845C47.628 39.0867 39.1947 43.6005 33.3692 46.0999C33.1824 46.1801 33.0105 46.2909 32.8592 46.4273L31.8963 47.3017L14.9959 30.4013C16.4572 28.2787 17.3499 25.771 17.5367 23.1963L17.6152 22.1185C21.2967 12.4652 26.0576 6.52809 31.7699 4.46916L31.7831 4.4642C34.4528 3.47813 36.7424 5.72799 40.1949 9.55078C41.6074 11.1146 43.0671 12.7305 44.6343 13.9224C44.8566 14.1844 44.9566 14.5241 44.9103 14.8696C44.8806 15.0895 44.764 15.4961 44.3169 15.7449C43.7209 16.0772 42.2745 16.7897 41.724 16.2384C41.7116 16.2252 41.6984 16.2128 41.6851 16.2004C41.5488 16.0714 41.4091 15.9441 41.2677 15.8177C41.2281 15.7755 41.1867 15.735 41.1421 15.6962C41.1016 15.6606 41.0586 15.6276 41.0156 15.5962C38.7691 13.6521 35.9481 12.0263 32.2228 10.522C31.2847 10.1434 30.2168 10.5964 29.8382 11.5345C29.463 12.4644 29.906 13.5207 30.8276 13.9083C30.5069 14.3737 30.244 14.8762 30.0539 15.3986C30.0374 15.4432 30.0234 15.4887 30.0101 15.5342C29.2902 18.1254 30.6615 20.7249 33.132 21.4572C33.4858 21.5655 33.8255 21.63 34.1528 21.6581C34.0751 21.9788 34.0197 22.3168 33.9957 22.6756C33.9933 22.7161 33.9916 22.7557 33.9916 22.7962C33.9916 24.3212 34.5851 25.7553 35.6637 26.8339C36.725 27.8952 38.1037 28.4498 39.4981 28.4986C39.5477 29.9484 40.1345 31.3039 41.1661 32.3354C42.2447 33.4141 43.6788 34.0075 45.2038 34.0075C46.7287 34.0075 48.1628 33.4132 49.2414 32.3354L55.6174 25.9594C55.7869 25.8743 55.9464 25.7619 56.0886 25.6214L64.5921 17.1534C64.5921 17.1534 64.5987 17.1476 64.6012 17.1451C64.6037 17.1426 64.6062 17.1393 64.6086 17.1368L69.4274 12.3387C69.4274 12.3387 69.4349 12.3321 69.4382 12.3288C69.4415 12.3255 69.444 12.3222 69.4473 12.3189L69.4729 12.2933C69.4729 12.2933 69.4787 12.2883 69.482 12.285C69.4844 12.2825 69.4869 12.2792 69.4894 12.2767L71.3913 10.3831C71.8128 10.1476 72.3154 10.0897 72.789 10.2277C73.0907 10.3153 73.356 10.4757 73.5792 10.7038C74.4702 11.6155 73.5387 12.6644 73.232 12.9644C73.2205 12.9752 73.2097 12.9867 73.1981 12.9983L71.7203 14.52C71.7203 14.52 71.7161 14.5233 71.7145 14.5258C71.6996 14.5407 71.6847 14.5564 71.6698 14.5721C71.6674 14.5745 71.6657 14.577 71.6632 14.5795L52.2418 34.582L52.2435 34.5845ZM84.0449 34.5845L70.6978 20.8381L73.0055 18.461L80.1982 25.6238C80.3403 25.7652 80.4999 25.8768 80.6693 25.9619L87.0453 32.3379C88.124 33.4166 89.558 34.01 91.083 34.01C92.608 34.01 94.042 33.4157 95.1207 32.3379C96.1514 31.3072 96.7383 29.9508 96.7887 28.5011C98.1822 28.4523 99.5609 27.8977 100.623 26.8364C101.702 25.7578 102.295 24.3237 102.295 22.7987C102.295 22.7582 102.293 22.7185 102.291 22.678C102.267 22.3201 102.212 21.9812 102.134 21.6605C102.461 21.6316 102.801 21.5671 103.156 21.4589C105.625 20.7257 106.997 18.1262 106.277 15.5358C106.264 15.4904 106.249 15.4449 106.233 15.4003C106.043 14.8779 105.78 14.3753 105.459 13.9092C106.381 13.5223 106.825 12.4652 106.449 11.5353C106.07 10.5972 105.002 10.1434 104.064 10.5228C100.339 12.0271 97.5177 13.6521 95.2711 15.597C95.2281 15.6284 95.186 15.6606 95.1447 15.697C95.1 15.7358 95.0587 15.7763 95.019 15.8185C94.8777 15.945 94.7388 16.0723 94.6016 16.2012C94.5884 16.2136 94.5752 16.226 94.5628 16.2392C94.0123 16.7905 92.5658 16.078 91.9699 15.7458C91.5227 15.497 91.4062 15.0903 91.3764 14.8704C91.3293 14.525 91.4302 14.1852 91.6525 13.9232C93.2196 12.7313 94.6793 11.1154 96.0919 9.55161C99.5452 5.72882 101.834 3.47895 104.504 4.46503L104.517 4.46999C110.228 6.52892 114.99 12.466 118.672 22.1193L118.75 23.1979C118.937 25.7726 119.83 28.2796 121.291 30.4021L104.391 47.3017L103.428 46.4273C103.278 46.2909 103.106 46.1801 102.919 46.0999C97.0928 43.6005 88.6587 39.0858 84.0449 34.5845V34.5845ZM113.268 57.0071L106.568 50.3071L125.164 31.7106L131.865 38.4106L113.268 57.0071Z"/>
</mask>
<path d="M135.751 37.1154L126.46 27.8241C125.768 27.1323 124.662 27.1116 123.942 27.7588C123.064 26.2983 122.528 24.6353 122.404 22.9326L122.307 21.5878C122.294 21.4118 122.256 21.239 122.193 21.0737C120.383 16.2714 118.381 12.4049 116.071 9.25157C113.094 5.1866 109.627 2.41932 105.767 1.02576C103.407 0.157055 100.993 0.532308 98.5938 2.1416C97.8797 2.621 97.1928 3.18718 96.5275 3.80296C94.7223 2.48544 92.5369 2.09449 90.5879 2.82598C90.5433 2.84251 90.4995 2.8607 90.4565 2.88136C88.448 3.81867 87.0932 5.84288 87.0627 7.8919C85.6559 7.96794 84.3441 8.55066 83.3399 9.55409C82.3092 10.5848 81.7223 11.9403 81.6727 13.3909C80.2792 13.4405 78.9005 13.9943 77.8384 15.0556C77.3135 15.5805 76.9052 16.1896 76.6225 16.8517L75.5802 15.8078L75.8125 15.5689C78.0706 13.3455 78.2351 10.2269 76.2018 8.14648C75.5431 7.47119 74.7173 6.97526 73.8139 6.71241C72.2592 6.26029 70.6011 6.51074 69.2621 7.39514C69.2398 7.40919 69.2175 7.42407 69.196 7.43978C68.9315 7.61914 68.6786 7.82578 68.443 8.05473C68.4364 8.06051 68.4306 8.06713 68.424 8.07374L68.1438 8.35477L67.8628 8.07374C67.8561 8.06713 67.8487 8.05969 67.8421 8.05308C67.5966 7.81503 67.3329 7.60095 67.0618 7.42077C67.0594 7.41911 67.0569 7.41746 67.0544 7.41581C67.0445 7.40919 67.0346 7.40341 67.0246 7.3968C65.6823 6.51074 64.0267 6.26029 62.4737 6.71241C61.5736 6.9736 60.7487 7.46871 60.0858 8.14565C58.0525 10.2286 58.2169 13.3463 60.4742 15.5681L60.7073 15.8078L59.665 16.8517C59.3824 16.1888 58.9732 15.5796 58.4484 15.0548C57.3871 13.9935 56.0084 13.4389 54.6148 13.3901C54.5652 11.9403 53.9784 10.584 52.9477 9.55326C51.9434 8.54983 50.6317 7.96629 49.2249 7.89107C49.1943 5.84206 47.8396 3.81784 45.8311 2.88053C45.7881 2.8607 45.7443 2.84169 45.6997 2.82515C43.7507 2.09366 41.5653 2.48462 39.7601 3.80213C39.0939 3.18553 38.4079 2.61934 37.6937 2.14077C35.2943 0.532308 32.8807 0.157055 30.5209 1.02576C26.6601 2.41932 23.1928 5.1866 20.2164 9.25157C17.907 12.4049 15.9042 16.2723 14.0941 21.0737C14.0321 21.239 13.9941 21.4118 13.9809 21.5878L13.8833 22.9326C13.7594 24.6353 13.2237 26.2991 12.346 27.7588C11.6269 27.1116 10.5201 27.1323 9.82746 27.8241L0.536224 37.1154C-0.178741 37.8303 -0.178741 38.9908 0.536224 39.7058L21.7232 60.8927C22.081 61.2506 22.5497 61.4291 23.0184 61.4291C23.487 61.4291 23.9557 61.2506 24.3136 60.8927L33.6048 51.6015C33.9486 51.2576 34.1412 50.7923 34.1412 50.3062C34.1412 50.2757 34.1379 50.2459 34.1371 50.2162L35.0959 49.345C41.4801 46.5777 49.9267 41.9722 54.8206 37.1881C54.8322 37.1765 54.843 37.1658 54.8545 37.1542L68.1438 23.4674L81.4322 37.1542C81.443 37.1658 81.4545 37.1765 81.4661 37.1881C86.3584 41.9713 94.805 46.5777 101.191 49.345L102.15 50.2162C102.125 50.7146 102.301 51.2212 102.682 51.6023L111.973 60.8935C112.331 61.2514 112.8 61.4299 113.268 61.4299C113.737 61.4299 114.206 61.2514 114.564 60.8935L135.751 39.7066C136.094 39.3627 136.287 38.8974 136.287 38.4114C136.287 37.9254 136.094 37.4592 135.751 37.1162L135.751 37.1154ZM91.9418 6.23302C92.6253 6.00241 93.3196 6.15697 93.9255 6.48677C93.7412 6.6901 93.5569 6.89343 93.3742 7.09593C92.6601 7.88694 91.9658 8.65398 91.2805 9.34828C90.9789 8.90938 90.7912 8.44982 90.7251 7.97538C90.7144 7.33646 91.2351 6.59091 91.9418 6.23219V6.23302ZM85.9311 12.1453C86.3171 11.7593 86.8304 11.5469 87.3768 11.5469H87.3784C87.4346 11.5469 87.4908 11.5444 87.547 11.5395C87.871 11.5097 88.2041 11.6601 88.567 11.9354C87.8776 12.9272 87.5809 14.1365 87.7471 15.3631C87.9537 16.8922 88.8439 18.199 90.1887 18.947C93.0733 20.5538 95.0215 20.2166 96.2167 19.5421C96.2836 19.6049 96.3498 19.6686 96.4159 19.7314C96.8283 20.1199 97.2176 20.4877 97.5607 20.8638C98.2475 21.6167 98.5707 22.2176 98.6302 22.859C98.6153 23.3831 98.4046 23.874 98.0318 24.246C97.2342 25.0436 95.9357 25.0436 95.1372 24.246L85.932 15.0407C85.5451 14.6539 85.3327 14.1398 85.3319 13.5934C85.3319 13.0471 85.5443 12.533 85.9311 12.1461V12.1453ZM102.013 15.4846C102.337 15.7945 102.603 16.1781 102.762 16.5814C102.909 17.2121 102.637 17.7923 102.109 17.9477C102.102 17.9493 102.094 17.9518 102.088 17.9543C101.464 18.1461 100.887 17.751 99.8833 16.7178C100.54 16.2929 101.248 15.883 102.013 15.4837V15.4846ZM80.4296 17.6468C80.8288 17.2476 81.3529 17.0484 81.8769 17.0484C82.4009 17.0484 82.925 17.2476 83.3242 17.6468L92.5303 26.8529C92.9171 27.2398 93.1295 27.753 93.1295 28.3002C93.1295 28.8474 92.9163 29.3607 92.5303 29.7475C92.1435 30.1343 91.6302 30.3468 91.083 30.3468C90.5358 30.3468 90.0225 30.1335 89.6357 29.7475L80.4296 20.5414C80.0428 20.1546 79.8304 19.6413 79.8304 19.0941C79.8304 18.5469 80.0436 18.0337 80.4296 17.6468ZM63.0886 13.0008C63.077 12.9892 63.0663 12.9777 63.0539 12.9661C62.7472 12.666 61.8166 11.618 62.7059 10.7063C62.9266 10.4806 63.2002 10.3162 63.4969 10.2294C63.9738 10.0905 64.4764 10.1509 64.9029 10.3914L65.5087 10.9948L63.2953 13.2132L63.0878 13L63.0886 13.0008ZM56.458 19.0933C56.458 19.6396 56.2456 20.1537 55.8588 20.5406L46.6527 29.7467C46.2659 30.1335 45.7526 30.3459 45.2054 30.3459C44.6582 30.3459 44.1449 30.1327 43.7581 29.7467C43.3713 29.3599 43.1589 28.8466 43.1589 28.2994C43.1589 27.7522 43.3721 27.2389 43.7581 26.8521L52.9642 17.646C53.3634 17.2468 53.8875 17.0476 54.4115 17.0476C54.9355 17.0476 55.4596 17.2468 55.8588 17.646C56.2456 18.0328 56.458 18.5469 56.458 19.0933ZM50.9565 13.5901C50.9565 14.1381 50.7433 14.6522 50.3565 15.0391L41.1512 24.2443C40.3527 25.0428 39.0551 25.0428 38.2566 24.2443C37.8838 23.8724 37.6731 23.3814 37.6582 22.8574C37.7177 22.216 38.0401 21.6151 38.7277 20.8621C39.0708 20.486 39.4601 20.119 39.8725 19.7297C39.9386 19.6677 40.0056 19.6041 40.0717 19.5413C41.2669 20.2149 43.2151 20.5521 46.0997 18.9462C47.4445 18.1973 48.3339 16.8905 48.5414 15.3614C48.7075 14.1348 48.4108 12.9256 47.7214 11.9337C48.0843 11.6585 48.4165 11.508 48.7414 11.5378C48.7976 11.5428 48.8538 11.5452 48.91 11.5452H48.9116C49.458 11.5452 49.9713 11.7577 50.3573 12.1437C50.7433 12.5297 50.9565 13.0438 50.9565 13.5893V13.5901ZM33.5254 16.5814C33.685 16.1772 33.9511 15.7945 34.2743 15.4837C35.0397 15.883 35.7472 16.2929 36.4035 16.7178C35.4001 17.7501 34.8223 18.1461 34.1991 17.9543C34.1916 17.9518 34.1842 17.9502 34.1776 17.9477C33.6511 17.7931 33.3775 17.2129 33.5246 16.5814H33.5254ZM44.3466 6.23219C45.0525 6.59091 45.574 7.33563 45.5633 7.97538C45.4972 8.44899 45.3096 8.90855 45.0079 9.34745C44.3227 8.65398 43.6283 7.88611 42.9142 7.09593C42.7315 6.89343 42.5472 6.6901 42.3629 6.48677C42.9688 6.15697 43.6631 6.00158 44.3466 6.23302V6.23219ZM23.0192 57.0071L4.42266 38.4106L11.1227 31.7106L29.7192 50.3071L23.0184 57.0071H23.0192ZM52.2435 34.5845C47.628 39.0867 39.1947 43.6005 33.3692 46.0999C33.1824 46.1801 33.0105 46.2909 32.8592 46.4273L31.8963 47.3017L14.9959 30.4013C16.4572 28.2787 17.3499 25.771 17.5367 23.1963L17.6152 22.1185C21.2967 12.4652 26.0576 6.52809 31.7699 4.46916L31.7831 4.4642C34.4528 3.47813 36.7424 5.72799 40.1949 9.55078C41.6074 11.1146 43.0671 12.7305 44.6343 13.9224C44.8566 14.1844 44.9566 14.5241 44.9103 14.8696C44.8806 15.0895 44.764 15.4961 44.3169 15.7449C43.7209 16.0772 42.2745 16.7897 41.724 16.2384C41.7116 16.2252 41.6984 16.2128 41.6851 16.2004C41.5488 16.0714 41.4091 15.9441 41.2677 15.8177C41.2281 15.7755 41.1867 15.735 41.1421 15.6962C41.1016 15.6606 41.0586 15.6276 41.0156 15.5962C38.7691 13.6521 35.9481 12.0263 32.2228 10.522C31.2847 10.1434 30.2168 10.5964 29.8382 11.5345C29.463 12.4644 29.906 13.5207 30.8276 13.9083C30.5069 14.3737 30.244 14.8762 30.0539 15.3986C30.0374 15.4432 30.0234 15.4887 30.0101 15.5342C29.2902 18.1254 30.6615 20.7249 33.132 21.4572C33.4858 21.5655 33.8255 21.63 34.1528 21.6581C34.0751 21.9788 34.0197 22.3168 33.9957 22.6756C33.9933 22.7161 33.9916 22.7557 33.9916 22.7962C33.9916 24.3212 34.5851 25.7553 35.6637 26.8339C36.725 27.8952 38.1037 28.4498 39.4981 28.4986C39.5477 29.9484 40.1345 31.3039 41.1661 32.3354C42.2447 33.4141 43.6788 34.0075 45.2038 34.0075C46.7287 34.0075 48.1628 33.4132 49.2414 32.3354L55.6174 25.9594C55.7869 25.8743 55.9464 25.7619 56.0886 25.6214L64.5921 17.1534C64.5921 17.1534 64.5987 17.1476 64.6012 17.1451C64.6037 17.1426 64.6062 17.1393 64.6086 17.1368L69.4274 12.3387C69.4274 12.3387 69.4349 12.3321 69.4382 12.3288C69.4415 12.3255 69.444 12.3222 69.4473 12.3189L69.4729 12.2933C69.4729 12.2933 69.4787 12.2883 69.482 12.285C69.4844 12.2825 69.4869 12.2792 69.4894 12.2767L71.3913 10.3831C71.8128 10.1476 72.3154 10.0897 72.789 10.2277C73.0907 10.3153 73.356 10.4757 73.5792 10.7038C74.4702 11.6155 73.5387 12.6644 73.232 12.9644C73.2205 12.9752 73.2097 12.9867 73.1981 12.9983L71.7203 14.52C71.7203 14.52 71.7161 14.5233 71.7145 14.5258C71.6996 14.5407 71.6847 14.5564 71.6698 14.5721C71.6674 14.5745 71.6657 14.577 71.6632 14.5795L52.2418 34.582L52.2435 34.5845ZM84.0449 34.5845L70.6978 20.8381L73.0055 18.461L80.1982 25.6238C80.3403 25.7652 80.4999 25.8768 80.6693 25.9619L87.0453 32.3379C88.124 33.4166 89.558 34.01 91.083 34.01C92.608 34.01 94.042 33.4157 95.1207 32.3379C96.1514 31.3072 96.7383 29.9508 96.7887 28.5011C98.1822 28.4523 99.5609 27.8977 100.623 26.8364C101.702 25.7578 102.295 24.3237 102.295 22.7987C102.295 22.7582 102.293 22.7185 102.291 22.678C102.267 22.3201 102.212 21.9812 102.134 21.6605C102.461 21.6316 102.801 21.5671 103.156 21.4589C105.625 20.7257 106.997 18.1262 106.277 15.5358C106.264 15.4904 106.249 15.4449 106.233 15.4003C106.043 14.8779 105.78 14.3753 105.459 13.9092C106.381 13.5223 106.825 12.4652 106.449 11.5353C106.07 10.5972 105.002 10.1434 104.064 10.5228C100.339 12.0271 97.5177 13.6521 95.2711 15.597C95.2281 15.6284 95.186 15.6606 95.1447 15.697C95.1 15.7358 95.0587 15.7763 95.019 15.8185C94.8777 15.945 94.7388 16.0723 94.6016 16.2012C94.5884 16.2136 94.5752 16.226 94.5628 16.2392C94.0123 16.7905 92.5658 16.078 91.9699 15.7458C91.5227 15.497 91.4062 15.0903 91.3764 14.8704C91.3293 14.525 91.4302 14.1852 91.6525 13.9232C93.2196 12.7313 94.6793 11.1154 96.0919 9.55161C99.5452 5.72882 101.834 3.47895 104.504 4.46503L104.517 4.46999C110.228 6.52892 114.99 12.466 118.672 22.1193L118.75 23.1979C118.937 25.7726 119.83 28.2796 121.291 30.4021L104.391 47.3017L103.428 46.4273C103.278 46.2909 103.106 46.1801 102.919 46.0999C97.0928 43.6005 88.6587 39.0858 84.0449 34.5845V34.5845ZM113.268 57.0071L106.568 50.3071L125.164 31.7106L131.865 38.4106L113.268 57.0071Z" fill="#7151DD" stroke="white" mask="url(#path-2-inside-1_2346_1871)"/>
<path d="M108.827 30.3104L108.827 30.3104C108.447 29.4622 108.272 28.4259 108.293 27.2399L108.293 27.2398C108.312 26.2087 108.477 25.0711 108.784 23.8611L108.827 30.3104ZM108.827 30.3104C109.184 31.1084 108.826 32.0439 108.028 32.4001C107.818 32.4939 107.599 32.538 107.384 32.538H107.383C106.777 32.538 106.2 32.1885 105.937 31.6008L105.937 31.6007C105.374 30.3399 105.099 28.8557 105.129 27.1835L104.902 27.1794M108.827 30.3104L104.902 27.1794M110.4 21.9466C110.249 22.0258 110.043 22.1479 109.827 22.3184C109.422 22.6377 108.966 23.1393 108.784 23.8611L110.4 21.9466ZM110.4 21.9466L109.312 18.9584C108.151 19.4585 106.296 20.7942 105.716 23.0844L110.4 21.9466ZM104.902 27.1794L105.129 27.1835M104.902 27.1794L105.129 27.1835M105.129 27.1835C105.152 25.9163 105.349 24.537 105.716 23.0845L105.129 27.1835Z" fill="#7151DD" stroke="white" stroke-width="0.5"/>
</svg>
