<svg width="100" height="100" viewBox="0 0 100 100" fill="none" xmlns="http://www.w3.org/2000/svg">
<path d="M84.6665 11.3337C84.6665 9.86144 85.8609 8.66699 87.3332 8.66699C90.2787 8.66699 92.6665 11.0548 92.6665 14.0003V28.667" stroke="#7151DD" stroke-width="2.66667" stroke-linecap="round" stroke-linejoin="round"/>
<path d="M76.6665 8.66699C76.6665 6.4581 78.4576 4.66699 80.6665 4.66699C82.8754 4.66699 84.6665 6.4581 84.6665 8.66699V18.0003" stroke="#7151DD" stroke-width="2.66667" stroke-linecap="round" stroke-linejoin="round"/>
<path d="M68.6665 7.33333C68.6665 4.38778 71.0543 2 73.9998 2C75.4721 2 76.6665 3.19444 76.6665 4.66667V15.3333" stroke="#7151DD" stroke-width="2.66667" stroke-linecap="round" stroke-linejoin="round"/>
<path d="M68.6665 15.333V7.33301" stroke="#7151DD" stroke-width="2.66667" stroke-linecap="round" stroke-linejoin="round"/>
<path d="M60.6665 12.6663C60.6665 9.72079 63.0543 7.33301 65.9998 7.33301C67.4721 7.33301 68.6665 8.52745 68.6665 9.99967" stroke="#7151DD" stroke-width="2.66667" stroke-linecap="round" stroke-linejoin="round"/>
<path d="M54.9243 36.6659L60.6665 45.4381L68.6665 49.5981V58.0003C68.6665 59.4725 69.861 60.667 71.3332 60.667H87.3332V44.667C87.3332 44.667 92.6665 40.5014 92.6665 34.0003V28.667" stroke="#7151DD" stroke-width="2.66667" stroke-linecap="round" stroke-linejoin="round"/>
<path d="M11.3332 15.333C9.86095 15.333 8.6665 14.1386 8.6665 12.6663C8.6665 9.72079 11.0543 7.33301 13.9998 7.33301H28.6665" stroke="#7151DD" stroke-width="2.66667" stroke-linecap="round" stroke-linejoin="round"/>
<path d="M8.6665 23.333C6.45762 23.333 4.6665 21.5419 4.6665 19.333C4.6665 17.1241 6.45762 15.333 8.6665 15.333H17.9998" stroke="#7151DD" stroke-width="2.66667" stroke-linecap="round" stroke-linejoin="round"/>
<path d="M7.33333 31.333C4.38778 31.333 2 28.9452 2 25.9997C2 24.5275 3.19444 23.333 4.66667 23.333H15.3333" stroke="#7151DD" stroke-width="2.66667" stroke-linecap="round" stroke-linejoin="round"/>
<path d="M15.3335 31.333H7.3335" stroke="#7151DD" stroke-width="2.66667" stroke-linecap="round" stroke-linejoin="round"/>
<path d="M12.6668 39.333C9.72127 39.333 7.3335 36.9452 7.3335 33.9997C7.3335 32.5275 8.52794 31.333 10.0002 31.333" stroke="#7151DD" stroke-width="2.66667" stroke-linecap="round" stroke-linejoin="round"/>
<path d="M36.6654 45.0752L45.4376 39.333L49.5976 31.333H57.9998C59.4721 31.333 60.6665 30.1386 60.6665 28.6663V12.6663H44.6665C44.6665 12.6663 40.5009 7.33301 33.9998 7.33301H28.6665" stroke="#7151DD" stroke-width="2.66667" stroke-linecap="round" stroke-linejoin="round"/>
<path d="M15.3335 88.6663C15.3335 90.1386 14.1391 91.333 12.6668 91.333C9.72127 91.333 7.3335 88.9452 7.3335 85.9997V71.333" stroke="#7151DD" stroke-width="2.66667" stroke-linecap="round" stroke-linejoin="round"/>
<path d="M23.3335 91.3333C23.3335 93.5422 21.5424 95.3333 19.3335 95.3333C17.1246 95.3333 15.3335 93.5422 15.3335 91.3333V82" stroke="#7151DD" stroke-width="2.66667" stroke-linecap="round" stroke-linejoin="round"/>
<path d="M31.3335 92.666C31.3335 95.6116 28.9457 97.9993 26.0002 97.9993C24.5279 97.9993 23.3335 96.8049 23.3335 95.3327V84.666" stroke="#7151DD" stroke-width="2.66667" stroke-linecap="round" stroke-linejoin="round"/>
<path d="M31.3335 84.666V92.666" stroke="#7151DD" stroke-width="2.66667" stroke-linecap="round" stroke-linejoin="round"/>
<path d="M39.3335 87.333C39.3335 90.2786 36.9457 92.6663 34.0002 92.6663C32.5279 92.6663 31.3335 91.4719 31.3335 89.9997" stroke="#7151DD" stroke-width="2.66667" stroke-linecap="round" stroke-linejoin="round"/>
<path d="M45.0757 63.3341L39.3335 54.5619L31.3335 50.4019V41.9997C31.3335 40.5275 30.1391 39.333 28.6668 39.333H12.6668V55.333C12.6668 55.333 7.3335 59.4986 7.3335 65.9997V71.333" stroke="#7151DD" stroke-width="2.66667" stroke-linecap="round" stroke-linejoin="round"/>
<path d="M88.6668 84.667C90.1391 84.667 91.3335 85.8614 91.3335 87.3337C91.3335 90.2792 88.9457 92.667 86.0002 92.667H71.3335" stroke="#7151DD" stroke-width="2.66667" stroke-linecap="round" stroke-linejoin="round"/>
<path d="M91.3333 76.667C93.5422 76.667 95.3333 78.4581 95.3333 80.667C95.3333 82.8759 93.5422 84.667 91.3333 84.667H82" stroke="#7151DD" stroke-width="2.66667" stroke-linecap="round" stroke-linejoin="round"/>
<path d="M92.667 68.667C95.6125 68.667 98.0003 71.0548 98.0003 74.0003C98.0003 75.4725 96.8059 76.667 95.3337 76.667H84.667" stroke="#7151DD" stroke-width="2.66667" stroke-linecap="round" stroke-linejoin="round"/>
<path d="M84.667 68.667H92.667" stroke="#7151DD" stroke-width="2.66667" stroke-linecap="round" stroke-linejoin="round"/>
<path d="M87.3335 60.667C90.2791 60.667 92.6668 63.0548 92.6668 66.0003C92.6668 67.4725 91.4724 68.667 90.0002 68.667" stroke="#7151DD" stroke-width="2.66667" stroke-linecap="round" stroke-linejoin="round"/>
<path d="M63.3346 54.9248L54.5624 60.667L50.4024 68.667H42.0002C40.5279 68.667 39.3335 69.8615 39.3335 71.3337V87.3337H55.3335C55.3335 87.3337 59.4991 92.667 66.0002 92.667H71.3335" stroke="#7151DD" stroke-width="2.66667" stroke-linecap="round" stroke-linejoin="round"/>
</svg>
