<svg width="85" height="106" viewBox="0 0 85 106" fill="none" xmlns="http://www.w3.org/2000/svg">
<path d="M54.0554 84.0393H30.4061C27.8385 84.0393 25.7607 81.9616 25.7607 79.3939V73.8701C25.7607 71.1674 24.5445 68.6335 22.4329 66.9443C14.8821 60.8968 10.5576 51.8932 10.5576 42.2308C10.5576 24.7641 24.7641 10.5576 42.2308 10.5576C59.6974 10.5576 73.9039 24.7641 73.9039 42.2308C73.9039 51.8932 69.5795 60.8968 62.0286 66.9443C59.917 68.6335 58.7008 71.1674 58.7008 73.8701V79.3939C58.7008 81.9616 56.623 84.0393 54.0554 84.0393ZM42.2308 13.0915C26.1661 13.0915 13.0915 26.1661 13.0915 42.2308C13.0915 51.1161 17.0781 59.4103 24.0039 64.9679C26.7236 67.147 28.2946 70.3903 28.2946 73.8701V79.3939C28.2946 80.5595 29.2406 81.5055 30.4061 81.5055H54.0554C55.221 81.5055 56.167 80.5595 56.167 79.3939V73.8701C56.167 70.3903 57.721 67.147 60.4576 64.9679C67.4004 59.4103 71.3701 51.133 71.3701 42.2308C71.3701 26.1661 58.2954 13.0915 42.2308 13.0915Z" fill="#7151DD"/>
<path d="M55.745 86.5732H28.7173V89.1071H55.745V86.5732Z" fill="#7151DD"/>
<path d="M55.745 91.6416H28.7173V94.1755H55.745V91.6416Z" fill="#7151DD"/>
<path d="M42.2305 105.999C40.5244 105.999 38.9027 105.492 37.5007 104.512L29.6795 99.022C29.2234 98.701 29.0376 98.1267 29.2065 97.603C29.3755 97.0793 29.8653 96.7246 30.4059 96.7246H54.0552C54.6126 96.7246 55.1025 97.0793 55.2545 97.603C55.4235 98.1267 55.2208 98.701 54.7816 99.022L46.9604 104.512C45.5752 105.492 43.9367 105.999 42.2305 105.999ZM34.4094 99.2416L38.9534 102.434C40.8623 103.769 43.565 103.786 45.4908 102.434L50.0348 99.2416H34.4094Z" fill="#7151DD"/>
<path d="M43.4977 0H40.9639V6.75694H43.4977V0Z" fill="#7151DD"/>
<path d="M62.2486 5.02234L58.8701 10.874L61.0645 12.1409L64.443 6.28927L62.2486 5.02234Z" fill="#7151DD"/>
<path d="M22.2166 5.02545L20.022 6.29199L23.3994 12.1443L25.594 10.8777L22.2166 5.02545Z" fill="#7151DD"/>
<path d="M78.1759 20.02L72.3242 23.3984L73.5911 25.5928L79.4428 22.2143L78.1759 20.02Z" fill="#7151DD"/>
<path d="M6.29123 20.0236L5.02393 22.2178L10.875 25.5973L12.1423 23.4031L6.29123 20.0236Z" fill="#7151DD"/>
<path d="M84.462 40.9639H77.7051V43.4977H84.462V40.9639Z" fill="#7151DD"/>
<path d="M6.75694 40.9639H0V43.4977H6.75694V40.9639Z" fill="#7151DD"/>
<path d="M73.581 58.8679L72.3145 61.0625L78.1667 64.4399L79.4333 62.2453L73.581 58.8679Z" fill="#7151DD"/>
<path d="M10.8727 58.8706L5.021 62.249L6.28792 64.4434L12.1396 61.0649L10.8727 58.8706Z" fill="#7151DD"/>
<path d="M53.6331 42.2304H51.0992C51.0992 41.0648 50.1533 40.1188 48.9877 40.1188C47.8221 40.1188 46.8761 41.0648 46.8761 42.2304H44.3423C44.3423 39.6627 46.42 37.585 48.9877 37.585C51.5553 37.585 53.6331 39.6627 53.6331 42.2304Z" fill="#7151DD"/>
<path d="M40.1194 42.2304H37.5856C37.5856 41.0648 36.6396 40.1188 35.474 40.1188C34.3084 40.1188 33.3625 41.0648 33.3625 42.2304H30.8286C30.8286 39.6627 32.9064 37.585 35.474 37.585C38.0416 37.585 40.1194 39.6627 40.1194 42.2304Z" fill="#7151DD"/>
<path d="M62.13 36.3356L60.2549 34.6295C60.8968 33.92 61.2516 33.0247 61.2516 32.0788C61.2516 29.9841 59.5454 28.278 57.4508 28.278C56.9947 28.278 56.5724 28.3456 56.2008 28.4976L55.2886 26.1327C55.9643 25.8793 56.6906 25.7441 57.4508 25.7441C60.9475 25.7441 63.7854 28.5821 63.7854 32.0788C63.7854 33.6498 63.1942 35.1532 62.1469 36.3187L62.13 36.3356Z" fill="#7151DD"/>
<path d="M22.3314 36.3354C21.2672 35.1698 20.6929 33.6495 20.6929 32.0954C20.6929 28.5987 23.5308 25.7607 27.0275 25.7607C27.7877 25.7607 28.514 25.8959 29.1897 26.1493L28.2775 28.5142C27.9059 28.3622 27.4836 28.2946 27.0275 28.2946C24.9328 28.2946 23.2267 30.0007 23.2267 32.0954C23.2267 33.0244 23.5815 33.9366 24.2234 34.6461L22.3483 36.3522L22.3314 36.3354Z" fill="#7151DD"/>
<path d="M61.2682 46.8588L61.0824 44.325C63.0926 44.1898 64.596 42.5513 64.596 40.5411C64.596 38.5309 63.0757 36.8923 61.0824 36.7572C60.9303 36.7572 60.8628 36.7572 60.7952 36.7572C59.7141 36.7572 58.7005 37.2133 57.9911 38.0072L56.0991 36.3349C57.2816 35.0004 58.9877 34.2402 60.7952 34.2402C60.9641 34.2402 61.1668 34.2402 61.3358 34.274C64.5453 34.4936 67.1298 37.264 67.1298 40.5749C67.1298 43.8858 64.5453 46.6561 61.2513 46.8926L61.2682 46.8588Z" fill="#7151DD"/>
<path d="M23.1935 46.8594C19.8995 46.6229 17.3149 43.8526 17.3149 40.5417C17.3149 37.2308 19.8995 34.4604 23.1935 34.2239C23.2779 34.2239 23.4806 34.207 23.6496 34.207C25.4571 34.207 27.1632 34.9672 28.3456 36.3017L26.4537 37.974C25.7273 37.1632 24.7476 36.7409 23.5651 36.724C23.5313 36.724 23.4975 36.724 23.4638 36.724C21.3691 36.876 19.8657 38.4977 19.8657 40.5248C19.8657 42.5518 21.386 44.1735 23.3793 44.3087L23.1935 46.8425V46.8594Z" fill="#7151DD"/>
<path d="M57.4332 55.3226C56.6562 55.3226 55.9298 55.1874 55.271 54.9341L56.1832 52.5691C56.5548 52.7212 56.9771 52.7887 57.4332 52.7887C59.5279 52.7887 61.234 51.0826 61.234 48.9879C61.234 46.8933 59.5279 45.1872 57.4332 45.1872V42.6533C60.9299 42.6533 63.7678 45.4912 63.7678 48.9879C63.7678 52.4847 60.9299 55.3226 57.4332 55.3226Z" fill="#7151DD"/>
<path d="M27.0275 55.3226C23.5308 55.3226 20.6929 52.4847 20.6929 48.9879C20.6929 45.4912 23.5308 42.6533 27.0275 42.6533V45.1872C24.9328 45.1872 23.2267 46.8933 23.2267 48.9879C23.2267 51.0826 24.9328 52.7887 27.0275 52.7887C27.4836 52.7887 27.9059 52.7212 28.2775 52.5691L29.1897 54.9341C28.5309 55.1874 27.7877 55.3226 27.0275 55.3226Z" fill="#7151DD"/>
<path d="M50.6769 60.3904C47.1802 60.3904 44.3423 57.5525 44.3423 54.0557V27.028C44.3423 23.5313 47.1802 20.6934 50.6769 20.6934C54.1736 20.6934 57.0115 23.5313 57.0115 27.028C57.0115 30.5247 54.1736 33.3626 50.6769 33.3626V30.8288C52.7716 30.8288 54.4777 29.1226 54.4777 27.028C54.4777 24.9333 52.7716 23.2272 50.6769 23.2272C48.5823 23.2272 46.8761 24.9333 46.8761 27.028V54.0557C46.8761 56.1504 48.5823 57.8565 50.6769 57.8565C52.7716 57.8565 54.4777 56.1504 54.4777 54.0557C54.4777 51.9611 52.7716 50.255 50.6769 50.255V47.7211C54.1736 47.7211 57.0115 50.559 57.0115 54.0557C57.0115 57.5525 54.1736 60.3904 50.6769 60.3904Z" fill="#7151DD"/>
<path d="M33.7848 60.3904C30.2881 60.3904 27.4502 57.5525 27.4502 54.0557C27.4502 50.559 30.2881 47.7211 33.7848 47.7211V50.255C31.6902 50.255 29.984 51.9611 29.984 54.0557C29.984 56.1504 31.6902 57.8565 33.7848 57.8565C35.8795 57.8565 37.5856 56.1504 37.5856 54.0557V27.028C37.5856 24.9333 35.8795 23.2272 33.7848 23.2272C31.6902 23.2272 29.984 24.9333 29.984 27.028C29.984 29.1226 31.6902 30.8288 33.7848 30.8288V33.3626C30.2881 33.3626 27.4502 30.5247 27.4502 27.028C27.4502 23.5313 30.2881 20.6934 33.7848 20.6934C37.2815 20.6934 40.1195 23.5313 40.1195 27.028V54.0557C40.1195 57.5525 37.2815 60.3904 33.7848 60.3904Z" fill="#7151DD"/>
<path d="M45.609 51.0996H38.8521V53.6335H45.609V51.0996Z" fill="#7151DD"/>
<path d="M47.776 58.448L44.3955 68.877L46.8059 69.6583L50.1864 59.2294L47.776 58.448Z" fill="#7151DD"/>
<path d="M36.7097 58.4391L34.2979 59.2158L37.6583 69.6512L40.0702 68.8745L36.7097 58.4391Z" fill="#7151DD"/>
<path d="M50.2548 82.773H47.7209V72.6376C47.7209 71.472 46.7749 70.526 45.6094 70.526H38.8524C37.6869 70.526 36.7409 71.472 36.7409 72.6376V82.773H34.207V72.6376C34.207 70.0699 36.2848 67.9922 38.8524 67.9922H45.6094C48.177 67.9922 50.2548 70.0699 50.2548 72.6376V82.773Z" fill="#7151DD"/>
</svg>
