<svg width="118" height="98" viewBox="0 0 118 98" fill="none" xmlns="http://www.w3.org/2000/svg">
<path d="M92.5966 27.4722C92.3424 28.0663 92.6178 28.7544 93.2124 29.0085C98.1819 31.1348 101.269 35.0009 101.269 39.0987C101.269 39.7452 101.793 40.2692 102.439 40.2692C103.086 40.2692 103.61 39.7452 103.61 39.0987C103.61 36.5313 102.685 34.0209 100.936 31.839C99.2813 29.7756 96.929 28.0523 94.1329 26.8563C93.5384 26.6022 92.8507 26.8776 92.5966 27.4722Z" fill="#7151DD"/>
<path d="M92.7183 38.897V43.3696C92.7183 44.0161 93.2423 44.5401 93.8887 44.5401C94.5351 44.5401 95.0591 44.0161 95.0591 43.3696V38.897C95.0591 38.2506 94.5351 37.7266 93.8887 37.7266C93.2423 37.7266 92.7183 38.2506 92.7183 38.897Z" fill="#7151DD"/>
<path d="M77.0196 29.0085C77.6137 28.7544 77.8895 28.0663 77.6354 27.4722C77.3812 26.8776 76.6932 26.6022 76.099 26.8563C73.3034 28.0527 70.9511 29.7756 69.2961 31.839C67.5469 34.0209 66.6221 36.5309 66.6221 39.0966L66.6123 45.7656V45.7673C66.6123 48.7703 69.0552 51.2132 72.0582 51.2132C75.0612 51.2132 77.5024 48.772 77.5041 45.7707V45.769L77.5134 39.1102C77.5134 39.1064 77.5134 39.1021 77.5134 39.0983C77.5134 39.0902 77.5134 39.0817 77.5134 39.0737V38.8986C77.5134 38.862 77.5117 38.8259 77.5087 38.7902C77.445 36.6019 76.7034 34.4408 75.3527 32.5211C74.9809 31.9924 74.2507 31.8653 73.722 32.2372C73.1933 32.6091 73.0663 33.3392 73.4381 33.8679C74.5839 35.4965 75.167 37.2475 75.1726 39.0728L75.1632 45.7656V45.7673C75.1632 47.4792 73.7705 48.8719 72.0586 48.8719C70.3467 48.8719 68.954 47.4792 68.954 45.7673L68.9638 39.0983C68.9638 35.0005 72.051 31.1343 77.0204 29.0081L77.0196 29.0085Z" fill="#7151DD"/>
<path d="M67.1161 29.0085C67.5284 29.1849 67.9351 29.3766 68.3252 29.5784C68.4974 29.6673 68.681 29.7098 68.862 29.7098C69.2857 29.7098 69.6946 29.479 69.9024 29.0769C70.1995 28.5028 69.9746 27.7964 69.4005 27.4994C68.9602 27.2716 68.5012 27.0552 68.0367 26.8563C67.4425 26.6022 66.7545 26.8776 66.4999 27.4722C66.2457 28.0663 66.5211 28.7544 67.1157 29.0089L67.1161 29.0085Z" fill="#7151DD"/>
<path d="M15.5797 40.32C16.2261 40.32 16.7501 39.7959 16.7501 39.1495C16.7501 35.0517 19.8373 31.1855 24.8067 29.0593C25.4009 28.8051 25.6767 28.1171 25.4226 27.5229C25.1684 26.9284 24.4803 26.653 23.8862 26.9071C21.0906 28.1035 18.7382 29.8264 17.0837 31.8898C15.3345 34.0717 14.4097 36.5817 14.4097 39.1495C14.4097 39.7959 14.9337 40.32 15.5801 40.32H15.5797Z" fill="#7151DD"/>
<path d="M24.1304 37.7783C23.484 37.7783 22.96 38.3023 22.96 38.9488V43.4214C22.96 44.0678 23.484 44.5918 24.1304 44.5918C24.7768 44.5918 25.3008 44.0678 25.3008 43.4214V38.9488C25.3008 38.3023 24.7768 37.7783 24.1304 37.7783Z" fill="#7151DD"/>
<path d="M85.1286 25.2269C87.8409 25.2269 90.3904 24.1708 92.3084 22.2528C94.226 20.3348 95.2826 17.7852 95.2826 15.0729C95.2826 12.3606 94.2264 9.81106 92.3084 7.89306C90.3904 5.97506 87.8409 4.91895 85.1286 4.91895C82.4163 4.91895 79.8663 5.97506 77.9487 7.89306C76.0307 9.81106 74.9746 12.3606 74.9746 15.0729C74.9746 17.7852 76.0307 20.3348 77.9487 22.2528C79.8667 24.1708 82.4163 25.2269 85.1286 25.2269ZM85.1286 7.26024C89.4368 7.26024 92.9413 10.7652 92.9413 15.0729C92.9413 19.3807 89.4363 22.8856 85.1286 22.8856C80.8208 22.8856 77.3159 19.3807 77.3159 15.0729C77.3159 10.7652 80.8208 7.26024 85.1286 7.26024Z" fill="#7151DD"/>
<path d="M32.9163 25.2789C35.6354 25.2789 38.1918 24.2202 40.1144 22.2975C42.0371 20.3749 43.0958 17.8185 43.0958 15.0994C43.0958 12.3803 42.0371 9.82394 40.1144 7.90126C38.1918 5.97858 35.6354 4.91992 32.9163 4.91992C30.1972 4.91992 27.6408 5.97858 25.7182 7.90126C23.7955 9.82394 22.7368 12.3803 22.7368 15.0994C22.7368 17.8185 23.7955 20.3749 25.7182 22.2975C27.6408 24.2202 30.1972 25.2789 32.9163 25.2789ZM32.9163 7.26079C37.2385 7.26079 40.7549 10.7772 40.7549 15.0994C40.7549 19.4216 37.2385 22.938 32.9163 22.938C28.5941 22.938 25.0777 19.4216 25.0777 15.0994C25.0777 10.7772 28.5941 7.26079 32.9163 7.26079Z" fill="#7151DD"/>
<path d="M59.0093 25.2273C62.3787 25.2273 65.5462 23.9153 67.9287 21.5328C70.3112 19.1503 71.6232 15.9828 71.6232 12.6134C71.6232 9.24406 70.3112 6.07657 67.9287 3.69405C65.5462 1.31196 62.3787 0 59.0093 0C55.64 0 52.4725 1.31196 50.09 3.69448C47.7075 6.077 46.3955 9.24448 46.3955 12.6138C46.3955 15.9832 47.7075 19.1507 50.09 21.5332C52.4725 23.9157 55.64 25.2277 59.0093 25.2277V25.2273ZM59.0093 2.34087C64.6737 2.34087 69.2819 6.94909 69.2819 12.6134C69.2819 18.2777 64.6737 22.886 59.0093 22.886C53.345 22.886 48.7368 18.2777 48.7368 12.6134C48.7368 6.94909 53.345 2.34087 59.0093 2.34087Z" fill="#7151DD"/>
<path d="M40.5054 39.097L40.4956 45.766V45.7677C40.4956 48.7707 42.9385 51.2136 45.9415 51.2136C48.9445 51.2136 51.3857 48.7724 51.3874 45.7711V45.7694L51.3967 39.1106C51.3967 39.1068 51.3967 39.1025 51.3967 39.0987C51.3967 39.0906 51.3967 39.0825 51.3967 39.074V38.8989C51.3967 38.8624 51.395 38.8263 51.392 38.7906C51.3283 36.6023 50.5867 34.4412 49.236 32.5215C48.8642 31.9928 48.134 31.8657 47.6053 32.2376C47.0766 32.6094 46.9496 33.3396 47.3214 33.8683C48.4672 35.4968 49.0503 37.2478 49.0558 39.0732L49.0465 45.766V45.7677C49.0465 47.4796 47.6538 48.8723 45.9415 48.8723C44.2292 48.8723 42.8369 47.4796 42.8369 45.7677L42.8467 39.0987C42.8467 35.0009 45.9338 31.1347 50.9033 29.0084C51.4974 28.7543 51.7733 28.0662 51.5191 27.4721C51.265 26.878 50.5769 26.6021 49.9828 26.8563C47.1871 28.0526 44.8348 29.7756 43.1803 31.8389C41.431 34.0208 40.5062 36.5309 40.5062 39.0965L40.5054 39.097Z" fill="#7151DD"/>
<path d="M40.3842 27.4719C40.13 28.0661 40.4054 28.7541 41 29.0087C41.4122 29.1851 41.819 29.3767 42.2091 29.5786C42.3812 29.6674 42.5648 29.7099 42.7459 29.7099C43.1696 29.7099 43.5784 29.4792 43.7863 29.0771C44.0833 28.5029 43.8585 27.7966 43.2843 27.4995C42.844 27.2717 42.385 27.0554 41.9205 26.8565C41.3264 26.6019 40.6383 26.8778 40.3842 27.4723V27.4719Z" fill="#7151DD"/>
<path d="M53.6031 75.6782L53.6133 75.7007C53.7166 75.9395 53.8955 76.1342 54.1293 76.26C54.1522 76.2727 54.1777 76.2851 54.2024 76.2961C54.7579 76.5469 55.4192 76.3229 55.7086 75.7861C55.8837 75.4614 55.8956 75.0713 55.7404 74.7432L52.5696 68.248C52.462 68.0325 52.2937 67.8587 52.0821 67.7448C52.0596 67.7329 52.0353 67.7206 52.0103 67.7091C51.6915 67.5654 51.3299 67.5718 51.0175 67.7261L49.6885 68.3827L46.0705 60.9313C45.3204 59.4111 44.1432 58.1871 42.6655 57.3906C42.2847 57.1854 41.8954 57.0179 41.4398 56.8641C40.9498 56.6983 20.6605 52.3766 19.7969 52.1925C17.1037 51.606 14.3995 53.2937 13.7701 55.955C13.4598 57.2674 13.6864 58.6223 14.4084 59.7702C14.8772 60.5161 15.5325 61.1293 16.3026 61.5441C16.6864 61.7507 17.0982 61.9088 17.527 62.0142L28.3436 64.8451C28.6122 64.9177 28.9008 64.8888 29.1545 64.7635C29.4524 64.6164 29.673 64.3482 29.7597 64.0274C29.9016 63.5042 29.6679 62.9589 29.1923 62.7031C29.1188 62.6627 29.0346 62.6287 28.9509 62.6062L18.1403 59.777L18.0982 59.7668C17.8577 59.709 17.6256 59.621 17.4089 59.5041C16.9873 59.2772 16.6299 58.9423 16.3745 58.536C15.9856 57.9185 15.8632 57.1917 16.0289 56.4897C16.3689 55.0536 17.8352 54.1428 19.2971 54.4595C19.5054 54.5045 40.1193 58.9364 40.2264 58.9597C40.7534 59.0762 41.1652 59.2224 41.5613 59.4344C42.6153 60.0022 43.4547 60.8748 43.9893 61.9568L47.6086 69.4116L35.9948 75.1512L35.3492 73.8447C34.8779 72.8983 34.1409 72.135 33.217 71.6369C32.9862 71.5132 32.747 71.407 32.506 71.3207C32.4656 71.3062 32.4257 71.2952 32.3683 71.2812C32.1885 71.2361 14.4246 66.7937 13.9014 66.6619L13.8895 66.6568C13.8156 66.6254 13.7352 66.5871 13.6515 66.5425C13.3804 66.3967 13.139 66.2093 12.935 65.987C12.751 65.7877 12.6018 65.5701 12.4913 65.3402L2.6042 45.4037C2.28121 44.7445 2.23318 43.9969 2.46948 43.2995C2.70705 42.5983 3.20217 42.0322 3.86346 41.7049C4.60848 41.3369 5.47164 41.3224 6.23196 41.6658C6.28933 41.6918 6.34798 41.7207 6.40663 41.7521C6.91067 42.0237 7.31229 42.4376 7.56687 42.9493L11.5593 50.8946C11.5703 50.9188 11.5835 50.9456 11.5996 50.9749L11.6243 51.023C11.7288 51.2354 11.8971 51.4097 12.1109 51.5244L12.1203 51.5291C12.4492 51.7021 12.8436 51.7072 13.1755 51.5431C13.4535 51.4054 13.6617 51.1679 13.7607 50.8746C13.8598 50.5831 13.8398 50.2707 13.7046 49.9953L9.64339 41.9136C9.17505 40.9727 8.43725 40.2115 7.51034 39.7117C7.40664 39.6556 7.29869 39.6025 7.1899 39.5532C5.79166 38.9216 4.20431 38.948 2.8354 39.6246C1.61906 40.2255 0.708725 41.2663 0.272256 42.5554C-0.162089 43.838 -0.0745402 45.2111 0.519177 46.422L10.408 66.3653C10.6256 66.8026 10.8997 67.2029 11.2239 67.5552C11.6047 67.9696 12.0531 68.3173 12.5563 68.5884C12.7327 68.684 12.9184 68.7703 13.1088 68.8447L13.1517 68.8604C13.1517 68.8604 13.1551 68.8617 13.1572 68.8621L13.2129 68.8795C13.221 68.8825 13.2299 68.8851 13.235 68.8868L13.2648 68.8953L31.7397 73.5145L31.7882 73.5298C31.8948 73.571 32.0041 73.6212 32.1124 73.679C32.6144 73.9493 33.0147 74.3637 33.2705 74.8771L33.9127 76.1775L32.5549 76.8482C31.9832 77.1308 31.7457 77.8265 32.0262 78.3986L41.3778 97.1578C41.4691 97.3474 41.6111 97.5072 41.7913 97.6228C41.8176 97.6398 41.8448 97.6559 41.8729 97.6708C41.895 97.6827 41.9205 97.6954 41.9451 97.7065C42.5006 97.9572 43.1619 97.7333 43.4513 97.1969C43.6077 96.9062 43.6336 96.5611 43.5223 96.25C43.4959 96.1769 43.4628 96.1064 43.4228 96.0409L43.4156 96.029L34.6233 78.4151L51.0047 70.3198L53.6031 75.6777V75.6782Z" fill="#7151DD"/>
<path d="M117.727 42.5565C117.291 41.2675 116.38 40.2267 115.164 39.6257C113.795 38.9487 112.208 38.9228 110.809 39.5543C110.701 39.6036 110.593 39.6567 110.489 39.7128C109.562 40.2126 108.824 40.9738 108.356 41.9147L104.295 49.9964C104.159 50.2718 104.14 50.5842 104.239 50.8758C104.338 51.1694 104.546 51.407 104.824 51.5443C105.156 51.7083 105.55 51.7032 105.879 51.5302L105.888 51.5256C106.102 51.4108 106.27 51.2366 106.375 51.0241L106.4 50.9761C106.416 50.9467 106.429 50.92 106.44 50.8957L110.432 42.9505C110.687 42.4388 111.089 42.0244 111.593 41.7532C111.651 41.7218 111.71 41.6929 111.767 41.667C112.528 41.3236 113.391 41.338 114.136 41.7061C114.798 42.0329 115.293 42.599 115.53 43.3006C115.766 43.9981 115.718 44.7456 115.395 45.4048L105.509 65.3413C105.399 65.5708 105.25 65.7884 105.066 65.9881C104.862 66.2104 104.62 66.3974 104.349 66.5436C104.265 66.5882 104.185 66.6265 104.111 66.6579L104.099 66.663C103.576 66.7948 85.8125 71.2373 85.6323 71.2823C85.5745 71.2963 85.5349 71.3078 85.4946 71.3218C85.2536 71.4077 85.0143 71.5139 84.7836 71.638C83.8596 72.1361 83.1222 72.8994 82.6514 73.8459L82.0058 75.1523L70.392 69.4128L74.0112 61.9579C74.5459 60.8759 75.3852 60.0034 76.4392 59.4356C76.8353 59.2235 77.2471 59.0773 77.7741 58.9609C77.8812 58.9371 98.4952 54.5052 98.7034 54.4606C100.165 54.144 101.632 55.0547 101.972 56.4908C102.137 57.1929 102.015 57.9196 101.626 58.5371C101.371 58.9434 101.013 59.2783 100.592 59.5053C100.374 59.6217 100.143 59.7101 99.9023 59.7679L99.8602 59.7781L89.0496 62.6073C88.9659 62.6298 88.8822 62.6638 88.8083 62.7042C88.3327 62.9601 88.0989 63.5049 88.2409 64.0285C88.328 64.3494 88.5486 64.6175 88.8461 64.7646C89.0998 64.8904 89.3884 64.9193 89.657 64.8462L100.474 62.0153C100.902 61.9099 101.314 61.7518 101.698 61.5452C102.468 61.1305 103.123 60.5168 103.592 59.7713C104.314 58.6238 104.541 57.269 104.23 55.9561C103.601 53.2948 100.897 51.6072 98.2036 52.1937C97.34 52.3777 77.0508 56.6995 76.5608 56.8652C76.1056 57.0191 75.7159 57.1865 75.3351 57.3918C73.8574 58.1882 72.6801 59.4122 71.93 60.9324L68.312 68.3838L66.9831 67.7272C66.6703 67.5729 66.3086 67.5666 65.9903 67.7102C65.9648 67.7217 65.941 67.734 65.9185 67.7459C65.7068 67.8598 65.5381 68.0336 65.431 68.2491L51.7398 96.1555C51.5847 96.4836 51.5966 96.8738 51.7717 97.1985C52.0611 97.7352 52.7224 97.9592 53.2778 97.7085C53.3021 97.6974 53.3276 97.6847 53.3509 97.6723C53.5847 97.5465 53.7636 97.3523 53.8669 97.1131L66.9958 70.321L83.3772 78.4163L74.6147 96.0302L74.6075 96.0421C74.568 96.1079 74.5344 96.1781 74.508 96.2512C74.3967 96.5627 74.4226 96.9074 74.579 97.1981C74.8684 97.7344 75.5297 97.9584 76.0852 97.7076C76.1103 97.6961 76.1353 97.6838 76.1574 97.6719C76.1855 97.657 76.2127 97.6409 76.239 97.6239C76.4192 97.5083 76.5612 97.3485 76.6526 97.159L85.9744 78.3997C86.2545 77.8276 86.0173 77.1324 85.4457 76.8493L84.0878 76.1787L84.73 74.8782C84.9854 74.3652 85.3862 73.9504 85.8881 73.6801C85.9965 73.6223 86.1053 73.5722 86.2124 73.5309L86.2608 73.5157L104.736 68.8964L104.766 68.8879C104.771 68.8862 104.78 68.8832 104.788 68.8807L104.843 68.8632C104.843 68.8632 104.847 68.862 104.849 68.8615L104.892 68.8458C105.082 68.7714 105.268 68.6852 105.444 68.5895C105.947 68.318 106.396 67.9707 106.777 67.5564C107.1 67.2036 107.375 66.8033 107.593 66.3664L117.481 46.4231C118.075 45.2123 118.162 43.8391 117.728 42.5565H117.727Z" fill="#7151DD"/>
</svg>
