<svg width="111" height="119" viewBox="0 0 111 119" fill="none" xmlns="http://www.w3.org/2000/svg">
<path d="M56.335 35.4933C56.335 35.4933 66.9105 31.2256 80.4227 22.3464C81.7409 21.4807 83.5851 20.5756 85.0582 19.9452C96.105 15.2182 109.926 19.349 109.926 19.349C110.627 25.3694 94.5952 27.1931 94.5952 27.1931L107.862 29.0905C106.776 34.5164 95.1299 33.9672 95.1299 33.9672L104.819 38.5659C102.841 42.9936 93.3472 39.5522 93.3472 39.5522L97.9793 45.2638C93.8288 47.6949 87.6433 43.0577 87.6433 43.0577L89.8152 49.0354C85.7733 50.8608 81.5048 46.1637 81.5048 46.1637L82.5167 51.635C76.6383 51.6136 74.9275 45.8498 74.9275 45.8498C74.9275 45.8498 74.6306 51.2826 70.1739 51.079C65.7172 50.8754 62.7754 46.0876 62.7754 46.0876L56.3358 35.4916L56.335 35.4933Z" fill="white" stroke="#7151DD" stroke-width="1.95206" stroke-linecap="round" stroke-linejoin="round"/>
<path d="M54.6134 35.4933C54.6134 35.4933 44.0379 31.2256 30.5257 22.3464C29.2075 21.4807 27.3632 20.5756 25.8902 19.9452C14.8433 15.2182 1.02236 19.349 1.02236 19.349C0.320921 25.3694 16.3532 27.1931 16.3532 27.1931L3.08649 29.0905C4.17201 34.5164 15.8185 33.9672 15.8185 33.9672L6.12921 38.5659C8.10693 42.9936 17.6012 39.5522 17.6012 39.5522L12.9691 45.2638C17.1196 47.6949 23.3051 43.0577 23.3051 43.0577L21.1332 49.0354C25.1751 50.8608 29.4436 46.1637 29.4436 46.1637L28.4317 51.635C34.3101 51.6136 36.0209 45.8498 36.0209 45.8498C36.0209 45.8498 36.3178 51.2826 40.7745 51.079C45.2312 50.8754 48.173 46.0876 48.173 46.0876L54.6126 35.4916L54.6134 35.4933Z" fill="white" stroke="#7151DD" stroke-width="1.95206" stroke-linecap="round" stroke-linejoin="round"/>
<path d="M54.6133 22.5993C60.5561 22.5993 65.3736 17.7641 65.3736 11.7996C65.3736 5.83517 60.5561 1 54.6133 1C48.6706 1 43.853 5.83517 43.853 11.7996C43.853 17.7641 48.6706 22.5993 54.6133 22.5993Z" fill="white" stroke="#7151DD" stroke-width="1.95206" stroke-linecap="round" stroke-linejoin="round"/>
<path d="M56.0448 111.8C56.0448 115.159 53.3228 117.88 49.9644 117.88C46.6061 117.88 43.8841 115.159 43.8841 111.8L43.3829 71.9711C42.4419 73.3115 40.6968 74.2285 38.2016 74.2285C35.2495 74.2285 33.3967 72.161 33.3711 69.5596L33.0699 38.993C33.0015 32.0932 38.6977 26.3456 46.5299 26.1823L46.7181 26.1797C46.7523 26.1797 46.7874 26.1797 46.8199 26.1797L62.7777 26.2481C62.8376 26.2481 62.8984 26.2481 62.9574 26.2481C71.278 26.1805 77.1453 32.0521 77.4028 37.8673L77.6098 69.7076C77.6269 72.3089 75.2206 74.4287 72.2361 74.4441H72.2053C70.6117 74.4441 69.1814 73.8384 68.1917 72.8804V111.802C68.1917 115.16 65.4697 117.882 62.1114 117.882C58.753 117.882 56.0311 115.16 56.0311 111.802" fill="white"/>
<path d="M56.0448 111.8C56.0448 115.159 53.3228 117.88 49.9644 117.88C46.6061 117.88 43.8841 115.159 43.8841 111.8L43.3829 71.9711C42.4419 73.3115 40.6968 74.2285 38.2016 74.2285C35.2495 74.2285 33.3967 72.161 33.3711 69.5596L33.0699 38.993C33.0015 32.0932 38.6977 26.3456 46.5299 26.1823L46.7181 26.1797C46.7523 26.1797 46.7874 26.1797 46.8199 26.1797L62.7777 26.2481C62.8376 26.2481 62.8984 26.2481 62.9574 26.2481C71.278 26.1805 77.1453 32.0521 77.4028 37.8673L77.6098 69.7076C77.6269 72.3089 75.2206 74.4287 72.2361 74.4441H72.2053C70.6117 74.4441 69.1814 73.8384 68.1917 72.8804V111.802C68.1917 115.16 65.4697 117.882 62.1114 117.882C58.753 117.882 56.0311 115.16 56.0311 111.802" stroke="#7151DD" stroke-width="1.95206" stroke-linecap="round" stroke-linejoin="round"/>
<path d="M43.4235 41.4346L43.3833 71.9713" stroke="#7151DD" stroke-width="1.95206" stroke-linecap="round" stroke-linejoin="round"/>
<path d="M68.1934 41.4346V72.8797" stroke="#7151DD" stroke-width="1.95206" stroke-linecap="round" stroke-linejoin="round"/>
<path d="M56.0444 71.4873V111.94" stroke="#7151DD" stroke-width="1.95206" stroke-linecap="round" stroke-linejoin="round"/>
</svg>
