<svg width="1520" height="418" viewBox="0 0 1520 418" fill="none" xmlns="http://www.w3.org/2000/svg">
<path d="M1466 345.778L1458.36 349.273L1457.06 250.759C1462.19 250.239 1474.06 247.601 1488.12 234.869C1506.97 217.803 1504.48 154.872 1504.12 143.495C1503.77 132.118 1505.19 102.963 1495.23 101.541C1485.28 100.119 1487.06 131.407 1487.06 131.407C1487.06 131.407 1487.77 179.405 1484.57 202.515C1481.95 221.393 1463.45 226.746 1456.76 228.074L1455.89 161.909C1462.75 161.046 1476.22 157.669 1476.49 144.429C1476.84 126.652 1481.46 91.098 1470.44 89.676C1459.42 88.254 1464.04 128.786 1462.98 135.541C1462.27 140.049 1458.24 141.701 1455.63 142.305L1454.35 44.878C1454.35 44.878 1457.9 2.21297 1445.81 0.0799725C1433.72 -2.05303 1435.15 39.19 1435.15 39.19V203.777C1425.98 199.506 1417.83 181.696 1418.08 151.585C1418.44 109.631 1414.53 96.832 1405.99 99.676C1398.54 102.16 1398.88 145.185 1398.88 145.185C1398.88 145.185 1396.04 180.739 1408.13 203.494C1416.44 219.145 1428.46 221.676 1435.15 221.731V359.884L1400.48 375.731V352.914C1403.95 352.885 1410.17 351.574 1414.48 343.465C1420.75 331.676 1419.27 313.255 1419.27 313.255C1419.27 313.255 1419.45 290.963 1415.59 289.676C1411.17 288.202 1409.14 294.834 1409.32 316.57C1409.46 332.171 1405.23 341.398 1400.48 343.611V267.571C1400.48 267.571 1401.22 246.203 1394.96 247.308C1388.69 248.413 1390.54 270.518 1390.54 270.518L1389.6 320.586C1388.46 320.089 1387.3 319.177 1387.04 317.491C1386.48 313.991 1388.88 292.991 1383.17 293.728C1377.46 294.465 1379.85 312.886 1380.04 322.096C1380.16 328.19 1385.68 330.251 1389.41 330.948L1389.28 337.732C1385.81 337.042 1376.23 334.265 1374.88 324.491C1373.22 312.518 1373.59 287.649 1373.59 287.649C1373.59 287.649 1374.51 271.439 1369.35 272.176C1364.2 272.913 1364.93 288.018 1364.75 293.912C1364.56 299.807 1363.27 332.411 1373.04 341.253C1380.26 347.798 1386.37 349.192 1389.06 349.477L1388.53 377.902L1274 379.778L1186 369.778L1150 385.778L1058.94 389.196L260 381.778L222 367.778L221.376 367.728C219.715 361.456 214.535 338.668 214.795 299.577C221.756 299.504 231.614 297.419 236.043 287.096C243.261 270.272 237.222 248.961 229.102 248.961C220.982 248.961 234.239 282.61 222.51 285.414C219.714 286.082 217.236 286.458 215.067 286.652C215.191 283.168 215.355 279.583 215.569 275.881C219.178 213.631 212.862 205.78 205.645 205.78C200.993 205.78 200.464 274.724 200.675 323.75C198.255 323.597 195.405 323.216 192.112 322.429C180.383 319.625 191.21 254.571 183.09 254.571C174.97 254.571 171.361 307.287 178.579 324.112C183.207 334.901 193.765 336.692 200.749 336.592C200.841 349.473 200.969 360.02 201.051 366.105L172 363.778C172 363.778 172 363.778 150 355.778C141.753 352.779 118.61 353.153 92.898 354.792L91.522 273.287C97.733 272.598 111.541 269.341 127.84 254.58C150.067 234.45 147.131 160.221 146.712 146.801C146.293 133.381 147.97 98.992 136.228 97.315C124.486 95.637 126.582 132.542 126.582 132.542C126.582 132.542 127.421 189.157 123.646 216.416C120.592 238.474 99.145 244.877 91.07 246.519L90.809 231.075C99.284 229.443 111.629 224.708 111.904 210.965C112.323 189.996 117.775 148.059 104.775 146.382C91.775 144.705 97.226 192.513 95.968 200.481C95.384 204.18 92.902 206.251 90.41 207.409L88 64.619C88 64.619 92.194 14.294 77.935 11.778C63.676 9.26197 65.354 57.909 65.354 57.909V259.946C54.537 254.909 44.923 233.901 45.224 198.384C45.643 148.898 41.03 133.801 30.965 137.156C22.176 140.086 22.577 190.836 22.577 190.836C22.577 190.836 19.222 232.773 33.481 259.613C43.288 278.074 57.461 281.059 65.353 281.124V356.9C31.149 359.885 0 363.778 0 363.778V417.778H1520V353.778L1466 345.778Z" fill="#E0CEC7"/>
</svg>
