<svg width="44" height="45" viewBox="0 0 44 45" fill="none" xmlns="http://www.w3.org/2000/svg">
<g filter="url(#filter0_d_31046_12856)">
<path d="M28.2803 4.9563C27.182 4.9563 26.2226 7.30974 26.2226 10.9365C24.8195 10.6106 23.317 10.4265 21.7088 10.4265C20.1006 10.4265 18.598 10.6106 17.195 10.9365C17.195 7.30672 16.2355 4.9563 15.1372 4.9563C10.8558 4.9563 4.68555 23.1653 4.68555 26.6019C4.68555 30.0386 11.5528 40.0437 21.7088 40.0437C31.8648 40.0437 38.732 30.0355 38.732 26.6019C38.732 23.1683 32.5618 4.9563 28.2803 4.9563Z" fill="#451E11"/>
<path d="M28.2803 3.43977C27.4199 3.43977 26.7728 3.90704 26.3577 4.37798C25.9432 4.84834 25.6393 5.44693 25.4136 6.07009C25.1077 6.91504 24.8934 7.95199 24.7857 9.12624C23.8005 8.98552 22.7752 8.91002 21.7088 8.91002C20.6424 8.91002 19.6171 8.98551 18.6319 9.12622C18.5243 7.95114 18.3099 6.91385 18.0039 6.06879C17.7782 5.4457 17.4741 4.84727 17.0594 4.37707C16.644 3.90615 15.997 3.43977 15.1372 3.43977C14.0684 3.43977 13.1573 3.99606 12.462 4.60262C11.7434 5.22948 11.0659 6.07454 10.4383 7.01063C9.17859 8.88953 7.96173 11.3757 6.90618 13.9066C5.84554 16.4497 4.92226 19.0999 4.26185 21.3414C3.93168 22.462 3.66334 23.4935 3.47614 24.3676C3.29524 25.2122 3.16902 26.0034 3.16902 26.6019C3.16902 27.8564 3.75355 29.4044 4.59668 30.8977C5.47109 32.4463 6.73477 34.1318 8.32641 35.6939C11.4988 38.8074 16.1151 41.5602 21.7088 41.5602C27.3026 41.5602 31.9189 38.8065 35.0912 35.6927C36.6828 34.1304 37.9465 32.4449 38.8208 30.8964C39.6639 29.4035 40.2485 27.8558 40.2485 26.6019C40.2485 26.0037 40.1223 25.2127 39.9414 24.3683C39.7542 23.4945 39.4859 22.4631 39.1557 21.3426C38.4953 19.1013 37.572 16.4511 36.5114 13.9078C35.4558 11.3767 34.239 8.89026 32.9793 7.01113C32.3517 6.07493 31.6742 5.22976 30.9556 4.60282C30.2603 3.99619 29.3492 3.43977 28.2803 3.43977Z" stroke="#FDFCFC" stroke-width="3.03305"/>
</g>
<path d="M21.5368 15.6072L24.5389 21.2645L30.851 22.3718L26.3945 26.9761L27.2936 33.3214L21.5368 30.5063L15.7799 33.3214L16.679 26.9761L12.2256 22.3718L18.5346 21.2645L21.5368 15.6072Z" fill="#FF8D1C"/>
<path d="M21.5364 17.0975C22.3596 17.0975 23.0269 16.4302 23.0269 15.607C23.0269 14.7838 22.3596 14.1165 21.5364 14.1165C20.7132 14.1165 20.0459 14.7838 20.0459 15.607C20.0459 16.4302 20.7132 17.0975 21.5364 17.0975Z" fill="#FF8D1C"/>
<path d="M27.2786 34.8118C28.1018 34.8118 28.7691 34.1445 28.7691 33.3213C28.7691 32.4981 28.1018 31.8308 27.2786 31.8308C26.4554 31.8308 25.7881 32.4981 25.7881 33.3213C25.7881 34.1445 26.4554 34.8118 27.2786 34.8118Z" fill="#F57100"/>
<path d="M30.8518 23.805C31.675 23.805 32.3424 23.1377 32.3424 22.3145C32.3424 21.4913 31.675 20.824 30.8518 20.824C30.0287 20.824 29.3613 21.4913 29.3613 22.3145C29.3613 23.1377 30.0287 23.805 30.8518 23.805Z" fill="#FF8D1C"/>
<path d="M12.5696 23.805C13.3928 23.805 14.0601 23.1377 14.0601 22.3145C14.0601 21.4913 13.3928 20.824 12.5696 20.824C11.7464 20.824 11.0791 21.4913 11.0791 22.3145C11.0791 23.1377 11.7464 23.805 12.5696 23.805Z" fill="#FF8D1C"/>
<path d="M15.7962 34.8118C16.6194 34.8118 17.2867 34.1445 17.2867 33.3213C17.2867 32.4981 16.6194 31.8308 15.7962 31.8308C14.973 31.8308 14.3057 32.4981 14.3057 33.3213C14.3057 34.1445 14.973 34.8118 15.7962 34.8118Z" fill="#FF8D1C"/>
<path d="M16.6804 26.9761L16.3485 29.3265L27.1109 21.7171L24.5402 21.2645L23.3545 19.0317L15.2773 25.5278L16.6804 26.9761Z" fill="#F57100"/>
<path d="M27.294 33.3214L26.591 28.3521L23.1846 31.312L27.294 33.3214Z" fill="#F57100"/>
<defs>
<filter id="filter0_d_31046_12856" x="0.135819" y="0.406815" width="43.1454" height="44.1864" filterUnits="userSpaceOnUse" color-interpolation-filters="sRGB">
<feFlood flood-opacity="0" result="BackgroundImageFix"/>
<feColorMatrix in="SourceAlpha" type="matrix" values="0 0 0 0 0 0 0 0 0 0 0 0 0 0 0 0 0 0 127 0" result="hardAlpha"/>
<feOffset/>
<feGaussianBlur stdDeviation="0.758262"/>
<feComposite in2="hardAlpha" operator="out"/>
<feColorMatrix type="matrix" values="0 0 0 0 0.262745 0 0 0 0 0.188235 0 0 0 0 0.168627 0 0 0 0.5 0"/>
<feBlend mode="normal" in2="BackgroundImageFix" result="effect1_dropShadow_31046_12856"/>
<feBlend mode="normal" in="SourceGraphic" in2="effect1_dropShadow_31046_12856" result="shape"/>
</filter>
</defs>
</svg>
