<svg width="1513" height="418" viewBox="0 0 1513 418" fill="none" xmlns="http://www.w3.org/2000/svg">
<path d="M1462.09 346L1454.45 349.495L1453.15 250.981C1458.28 250.461 1470.16 247.823 1484.22 235.091C1503.06 218.025 1500.57 155.094 1500.22 143.717C1499.86 132.34 1501.28 103.185 1491.33 101.763C1481.37 100.341 1483.15 131.629 1483.15 131.629C1483.15 131.629 1483.86 179.627 1480.66 202.737C1478.05 221.615 1459.55 226.968 1452.85 228.296L1451.98 162.131C1458.84 161.268 1472.32 157.891 1472.58 144.651C1472.94 126.874 1477.56 91.3199 1466.54 89.8979C1455.52 88.4759 1460.14 129.008 1459.07 135.763C1458.36 140.271 1454.33 141.923 1451.72 142.527L1450.44 45.0999C1450.44 45.0999 1454 2.4349 1441.91 0.301896C1429.82 -1.8311 1431.24 39.4119 1431.24 39.4119V203.999C1422.07 199.728 1413.92 181.918 1414.18 151.807C1414.53 109.853 1410.62 97.0539 1402.09 99.8979C1394.64 102.382 1394.98 145.407 1394.98 145.407C1394.98 145.407 1392.13 180.961 1404.22 203.716C1412.54 219.367 1424.55 221.898 1431.24 221.953V360.106L1396.58 375.953V353.136C1400.04 353.107 1406.27 351.796 1410.58 343.687C1416.84 331.898 1415.37 313.477 1415.37 313.477C1415.37 313.477 1415.54 291.185 1411.68 289.898C1407.26 288.424 1405.24 295.056 1405.42 316.792C1405.55 332.393 1401.33 341.62 1396.58 343.833V267.793C1396.58 267.793 1397.31 246.425 1391.05 247.53C1384.79 248.635 1386.63 270.74 1386.63 270.74L1385.69 320.808C1384.56 320.311 1383.4 319.399 1383.13 317.713C1382.58 314.213 1384.97 293.213 1379.26 293.95C1373.55 294.687 1375.95 313.108 1376.13 322.318C1376.25 328.412 1381.78 330.473 1385.5 331.17L1385.37 337.954C1381.9 337.264 1372.33 334.487 1370.97 324.713C1369.32 312.74 1369.68 287.871 1369.68 287.871C1369.68 287.871 1370.61 271.661 1365.45 272.398C1360.29 273.135 1361.03 288.24 1360.84 294.134C1360.66 300.029 1359.37 332.633 1369.13 341.475C1376.36 348.02 1382.47 349.414 1385.16 349.699L1384.62 378.124L1270.09 380L1182.09 370L1146.09 386L1055.03 389.418L256.095 382L218.095 368L217.471 367.95C215.81 361.678 210.63 338.89 210.89 299.799C217.851 299.726 227.709 297.641 232.138 287.318C239.356 270.494 233.317 249.183 225.197 249.183C217.077 249.183 230.334 282.832 218.605 285.636C215.809 286.304 213.331 286.68 211.162 286.874C211.286 283.39 211.45 279.805 211.664 276.103C215.273 213.853 208.957 206.002 201.74 206.002C197.088 206.002 196.559 274.946 196.77 323.972C194.35 323.819 191.5 323.438 188.207 322.651C176.478 319.847 187.305 254.793 179.185 254.793C171.065 254.793 167.456 307.509 174.674 324.334C179.302 335.123 189.86 336.914 196.844 336.814C196.936 349.695 197.064 360.242 197.146 366.327L168.095 364C168.095 364 168.095 364 146.095 356C137.848 353.001 114.705 353.375 88.9927 355.014L87.6167 273.509C93.8277 272.82 107.636 269.563 123.935 254.802C146.162 234.672 143.226 160.443 142.807 147.023C142.388 133.603 144.065 99.2139 132.323 97.5369C120.581 95.8589 122.677 132.764 122.677 132.764C122.677 132.764 123.516 189.379 119.741 216.638C116.687 238.696 95.2397 245.099 87.1647 246.741L86.9037 231.297C95.3787 229.665 107.724 224.93 107.999 211.187C108.418 190.218 113.87 148.281 100.87 146.604C87.8697 144.927 93.3207 192.735 92.0627 200.703C91.4787 204.402 88.9967 206.473 86.5047 207.631L84.0947 64.8409C84.0947 64.8409 88.2887 14.5159 74.0297 11.9999C59.7707 9.48389 61.4487 58.1309 61.4487 58.1309V260.168C50.6317 255.131 41.0177 234.123 41.3187 198.606C41.7377 149.12 37.1247 134.023 27.0597 137.378C18.2707 140.308 18.6717 191.058 18.6717 191.058C18.6717 191.058 15.3167 232.995 29.5757 259.835C39.3827 278.296 53.5557 281.281 61.4477 281.346V357.122C27.2437 360.107 -3.90527 364 -3.90527 364V418H1516.09V354L1462.09 346Z" fill="#E0CEC7"/>
</svg>
