<svg width="382" height="364" viewBox="0 0 382 364" fill="none" xmlns="http://www.w3.org/2000/svg">
<path d="M2.17578 286.945C2.17578 286.945 131.576 261.045 270.656 265.345C285.606 265.185 307.006 267.945 307.006 267.945C307.006 267.945 312.296 259.895 318.276 259.895C324.256 259.895 315.746 269.615 315.746 269.615C315.746 269.615 327.246 267.035 329.776 266.805C332.306 266.575 328.166 273.425 328.166 273.425C328.166 273.425 358.766 281.065 373.946 288.885" stroke="#D1B9B0" stroke-width="2" stroke-miterlimit="10"/>
<path d="M144.282 237.474C144.282 237.474 143.472 260.634 144.282 264.144C145.092 267.644 145.632 290.544 149.132 291.884C152.632 293.234 175.802 298.884 177.142 287.574C178.492 276.264 169.872 274.374 169.872 274.374C169.872 274.374 160.172 255.254 180.372 235.044C200.572 214.844 162.142 209.184 162.142 209.184L139.152 219.684L144.272 237.464L144.282 237.474Z" fill="#F57100"/>
<path d="M107.383 184.953C75.3334 194.923 64.2834 155.053 64.8234 153.173C65.3634 151.283 68.7334 153.173 68.7334 153.173C68.7334 153.173 66.9834 120.043 78.7034 112.773C82.6134 110.083 82.0734 116.143 82.0734 116.143C82.0734 116.143 93.5234 99.173 115.603 98.503C137.693 97.833 136.073 104.703 136.073 104.703C136.073 104.703 145.093 106.453 156.683 116.693C168.263 126.933 158.703 125.583 158.703 125.583C158.703 125.583 168.673 133.533 163.823 148.343C158.973 163.153 107.393 184.973 107.393 184.973L107.383 184.953Z" fill="#FF953F"/>
<path d="M155.063 137.274C155.063 137.274 149.403 132.024 147.383 132.694C145.363 133.364 149.533 138.894 149.533 138.894C137.273 138.494 125.293 146.974 125.293 146.974C125.293 146.974 118.423 139.164 108.593 146.974C98.7634 154.784 113.713 165.964 113.713 165.964C113.713 165.964 115.803 173.824 117.783 180.254C133.113 173.024 160.353 158.894 163.813 148.324C165.203 144.064 165.373 140.374 164.903 137.274C160.553 136.434 155.053 137.274 155.053 137.274H155.063Z" fill="#F57100"/>
<path d="M132.364 100.394C129.494 99.1638 124.454 98.2238 115.604 98.4938C93.5137 99.1638 82.0737 116.134 82.0737 116.134C82.0737 116.134 82.6137 110.074 78.7037 112.764C66.9837 120.034 68.7337 153.164 68.7337 153.164C68.7337 153.164 65.3637 151.274 64.8237 153.164C64.4037 154.614 70.8837 178.664 88.5737 185.014C80.4737 179.004 74.1137 161.144 76.6437 159.634C79.1737 158.114 81.7937 160.244 81.7937 160.244C81.7937 160.244 78.8637 141.454 79.9737 140.044C81.0837 138.634 81.8937 140.044 81.8937 140.044C81.8937 140.044 82.7037 126.814 86.7437 120.854C90.7837 114.894 93.9137 114.084 93.8137 116.004C93.8137 116.004 108.584 98.6238 132.364 100.394Z" fill="white"/>
<path d="M260.794 56.9044C260.794 56.9044 260.384 37.1144 264.524 35.7044C268.664 34.2944 278.964 46.7144 287.454 61.0544C295.934 75.3944 305.434 105.574 305.434 106.504C305.434 107.434 304.794 108.244 304.794 108.244C304.794 108.244 305.434 108.244 305.634 109.224C306.034 111.144 303.044 115.504 303.044 115.504C303.044 115.504 304.544 115.504 304.684 116.774C304.824 118.044 297.954 128.944 294.994 132.154C294.994 132.154 303.744 170.404 301.864 194.104C299.974 217.804 302.674 260.364 304.284 276.254C305.904 292.144 311.824 306.554 311.824 306.554C311.824 306.554 321.384 307.904 321.924 318.274C322.464 328.644 320.304 332.014 303.744 331.744C287.184 331.474 285.154 324.744 280.044 305.754C274.924 286.764 266.844 253.634 262.944 250.674C259.044 247.714 243.684 248.384 238.164 250.674C232.644 252.964 226.724 308.904 224.564 323.454C227.194 326.414 226.564 335.824 225.684 338.284C223.594 344.084 217.964 345.594 207.034 345.674C196.124 345.754 190.184 344.484 188.704 339.094C187.224 333.704 188.354 324.794 191.304 321.094C193.124 320.894 191.214 228.824 156.284 212.244C152.044 213.254 146.244 249.124 125.034 259.224C114.324 265.894 113.314 289.324 114.734 295.994C120.184 298.214 125.844 300.234 124.024 312.964C122.204 325.694 103.824 322.254 95.3345 322.864C86.8545 323.474 84.6245 304.884 86.0445 298.824C87.4645 292.764 82.6245 270.944 85.6545 264.684C85.9545 264.064 86.2645 263.374 86.5845 262.624C90.7345 252.884 92.3845 242.284 91.6245 231.724C90.3345 213.714 91.3045 180.494 112.514 160.984C142.684 133.244 188.204 144.884 188.204 144.884C188.204 144.884 186.034 142.484 188.074 141.734C189.474 141.224 193.324 141.054 193.324 141.054C193.324 141.054 198.774 134.404 196.014 131.584C193.764 129.294 192.944 127.994 193.064 127.474C193.364 126.064 195.794 125.754 195.794 125.754C195.794 125.754 189.284 120.774 188.474 117.544C187.664 114.314 189.984 113.684 189.984 113.684C189.984 113.684 187.254 113.834 188.484 109.534C189.424 105.774 201.414 52.9544 225.654 35.5844C237.234 30.3444 233.194 57.8144 233.194 57.8144C233.194 57.8144 245.964 55.2844 260.804 56.8944L260.794 56.9044Z" fill="#FF953F"/>
<path d="M222.132 134.285L219.572 132.165C219.572 132.165 201.592 117.115 205.432 105.905C209.272 94.6954 218.092 99.6354 220.882 100.345C223.672 101.055 228.542 102.475 232.112 102.365C238.672 102.165 240.332 90.6354 239.052 85.3954C238.042 81.2554 228.762 82.9654 224.312 82.5654C219.872 82.1654 215.832 79.5354 215.932 74.1854C216.032 68.8354 219.872 69.2354 221.282 70.6454C222.692 72.0554 219.402 77.7554 228.192 77.1554C236.982 76.5454 243.362 76.4454 246.772 84.0854C246.772 84.0854 249.562 76.9854 255.362 76.7154C261.162 76.4454 271.082 77.8954 271.622 74.9254C272.162 71.9554 270.742 69.8054 273.842 69.4754C276.942 69.1354 278.132 77.1054 276.862 79.1054C275.602 81.1054 272.092 83.2854 265.422 82.4754C258.752 81.6654 254.852 82.0054 254.582 86.0454C254.312 90.0854 255.462 99.1754 259.502 100.995C263.542 102.815 271.742 100.315 277.212 100.155C282.682 99.9954 284.952 101.265 287.112 105.435C289.152 109.395 283.272 127.875 271.032 134.525C267.362 136.515 265.172 140.505 265.352 144.675C265.872 156.805 279.502 174.095 279.302 189.285C279.032 208.945 255.942 228.615 246.212 228.345C236.482 228.075 213.582 209.205 213.582 186.565C213.582 170.255 233.052 145.145 222.142 134.295L222.132 134.285Z" fill="white"/>
<path d="M238.863 116.064C238.863 116.064 241.373 123.294 248.073 122.624C254.773 121.954 255.733 115.594 255.733 115.594C255.733 115.594 249.733 117.954 247.483 113.574C247.483 113.574 246.443 118.014 238.863 116.064Z" fill="#49250D"/>
<path d="M265.303 90.4451C269.253 91.0451 269.093 98.0051 265.303 98.0051C261.513 98.0051 259.753 89.5951 265.303 90.4451Z" fill="#49250D"/>
<path d="M229.665 90.4451C225.715 91.0451 225.875 98.0051 229.665 98.0051C233.455 98.0051 235.215 89.5951 229.665 90.4451Z" fill="#49250D"/>
<path d="M247.485 98.2858C255.515 98.2458 256.955 100.086 255.715 102.116C254.475 104.146 249.135 108.906 247.485 108.906C245.835 108.906 241.395 104.806 239.745 102.846C238.095 100.886 237.845 98.3358 247.485 98.2858Z" fill="#49250D"/>
<path d="M249.665 107.886C247.485 108.906 247.665 115.906 253.105 115.456C257.215 114.906 256.005 112.266 257.625 112.236C259.315 112.206 258.485 116.906 253.315 117.536C248.145 118.166 247.465 114.786 247.465 114.786V105.996L249.665 107.906V107.886Z" fill="#49250D"/>
<path d="M245.283 107.886C247.463 108.906 247.283 115.906 241.843 115.456C237.733 114.906 238.943 112.266 237.323 112.236C235.703 112.206 236.463 116.906 241.633 117.536C246.803 118.166 247.483 114.786 247.483 114.786V105.996L245.283 107.906V107.886Z" fill="#49250D"/>
<path d="M196.006 131.584C196.006 131.584 194.266 132.334 194.266 135.104C194.266 141.234 216.176 158.094 248.506 158.134C281.436 158.174 296.256 140.704 297.396 137.634C298.406 134.904 296.786 132.134 295.006 132.174C292.446 132.234 281.686 150.214 247.596 150.214C213.506 150.214 197.926 129.784 196.016 131.594L196.006 131.584Z" fill="#974EF2"/>
<path d="M250.013 177.294C257.176 177.294 262.983 171.667 262.983 164.724C262.983 157.782 257.176 152.154 250.013 152.154C242.85 152.154 237.043 157.782 237.043 164.724C237.043 171.667 242.85 177.294 250.013 177.294Z" fill="#974EF2"/>
<path d="M257.315 162.644L248.945 171.014C248.315 171.644 247.305 171.644 246.675 171.014L241.265 165.604C240.875 165.214 240.875 164.574 241.265 164.184L242.515 162.934C242.905 162.544 243.545 162.544 243.935 162.934L247.805 166.804L254.635 159.974C255.025 159.584 255.665 159.584 256.055 159.974L257.305 161.224C257.695 161.614 257.695 162.254 257.305 162.644H257.315Z" fill="white"/>
<path d="M265.931 57.9839C264.931 47.2739 264.241 41.8239 267.251 42.8339C270.271 43.8439 278.251 58.2839 276.031 59.8039C273.811 61.3239 265.931 59.9039 265.931 57.9839Z" fill="#F57100"/>
<path d="M228.172 57.9839C229.172 47.2739 229.862 41.8239 226.852 42.8339C223.832 43.8439 215.852 58.2839 218.072 59.8039C220.292 61.3239 228.172 59.9039 228.172 57.9839Z" fill="#F57100"/>
<path d="M224.263 298.484C222.513 298.054 219.413 300.394 219.413 300.394C219.413 300.394 219.283 296.084 218.063 296.614C216.843 297.144 216.043 299.714 216.043 299.714C203.113 297.284 191.413 299.714 191.413 299.714C191.303 299.724 191.193 299.754 191.073 299.784C192.063 312.314 191.863 321.044 191.303 321.104C188.353 324.804 187.223 333.714 188.703 339.104C190.183 344.494 196.123 345.764 207.033 345.684C217.963 345.604 223.593 344.094 225.683 338.294C226.573 335.834 227.193 326.424 224.563 323.464C225.163 319.394 226.063 312.084 227.163 303.624C225.683 303.204 224.253 302.834 224.253 302.834C224.253 302.834 226.003 298.924 224.253 298.494L224.263 298.484Z" fill="white"/>
<path d="M303.775 331.754C320.345 332.024 322.495 328.654 321.955 318.284C321.415 307.914 311.855 306.564 311.855 306.564C311.855 306.564 309.225 300.154 306.985 291.174C304.045 291.074 301.555 291.104 301.555 291.104C301.555 291.104 301.655 289.894 299.935 289.894C298.215 289.894 297.305 291.814 297.305 291.814C297.305 291.814 295.185 288.684 294.275 289.084C293.365 289.484 294.275 292.414 294.275 292.414C287.815 292.514 277.875 297.494 277.875 297.494C278.645 300.424 279.385 303.214 280.065 305.754C285.185 324.744 287.205 331.474 303.765 331.744L303.775 331.754Z" fill="white"/>
<path d="M113.274 267.475C113.274 267.475 112.664 264.345 111.554 264.545C110.444 264.745 110.244 266.495 110.244 266.495C100.954 265.825 89.6037 253.865 89.6037 253.865C88.8137 256.845 87.8237 259.775 86.6037 262.625C86.2837 263.375 85.9737 264.075 85.6737 264.685C82.6537 270.945 87.4837 292.765 86.0637 298.825C84.6537 304.885 86.8737 323.475 95.3537 322.865C103.834 322.255 122.224 325.695 124.044 312.965C125.864 300.235 120.204 298.215 114.754 295.995C113.744 291.245 113.974 277.995 118.054 268.355C114.494 268.945 113.274 267.475 113.274 267.475Z" fill="white"/>
<path d="M169.903 274.385C169.903 274.385 166.623 267.915 167.853 258.535C165.083 258.975 162.733 258.695 162.733 258.695C162.733 258.695 160.843 257.175 158.123 256.785C155.393 256.395 155.393 258.105 155.393 258.105C155.393 258.105 152.863 256.765 152.063 256.785C151.253 256.795 151.553 258.085 151.553 258.085C147.113 258.385 143.953 255.465 143.953 255.455C143.953 259.505 144.033 262.955 144.313 264.145C145.123 267.645 145.663 290.545 149.163 291.885C152.663 293.235 175.833 298.885 177.173 287.575C178.523 276.265 169.903 274.375 169.903 274.375V274.385Z" fill="white"/>
<path d="M265.963 57.9839C264.963 47.2739 264.273 41.8239 267.283 42.8339C270.303 43.8439 278.283 58.2839 276.063 59.8039C273.843 61.3239 265.963 59.9039 265.963 57.9839Z" fill="#F57100"/>
<path d="M228.204 57.9839C229.204 47.2739 229.894 41.8239 226.884 42.8339C223.864 43.8439 215.884 58.2839 218.104 59.8039C220.324 61.3239 228.204 59.9039 228.204 57.9839Z" fill="#F57100"/>
<path d="M172.795 279.444C173.905 280.404 177.315 285.454 174.775 291.984C175.635 291.284 176.315 290.424 176.735 289.354C176.835 288.264 176.855 286.944 176.705 285.424C176.245 280.784 171.685 278.484 172.795 279.444Z" fill="#FFEDDF"/>
<path d="M228.314 34.9238C236.534 34.9238 233.174 57.8238 233.174 57.8238C233.174 57.8238 240.514 56.3638 250.534 56.3638C253.734 56.3638 257.204 56.5138 260.794 56.9038C260.794 56.9038 260.384 37.1138 264.524 35.7038C264.744 35.6338 264.974 35.5938 265.224 35.5938C269.734 35.5938 279.414 47.4638 287.454 61.0538C295.934 75.3938 305.434 105.574 305.434 106.504C305.434 107.444 304.794 108.244 304.794 108.244C304.794 108.244 305.434 108.244 305.634 109.224C306.034 111.144 303.044 115.504 303.044 115.504C303.044 115.504 304.544 115.504 304.684 116.784C304.824 118.054 297.954 128.954 294.994 132.164C295.004 132.164 295.024 132.164 295.034 132.164C296.804 132.164 298.394 134.924 297.384 137.624C297.254 137.974 296.944 138.504 296.464 139.174C298.874 151.324 303.254 176.664 301.864 194.114C299.974 217.814 302.674 260.374 304.284 276.264C305.904 292.154 311.824 306.564 311.824 306.564C311.824 306.564 321.384 307.914 321.924 318.284C322.444 328.274 320.464 331.764 305.494 331.764C304.924 331.764 304.344 331.764 303.744 331.754C287.174 331.484 285.154 324.754 280.044 305.764C274.934 286.774 266.844 253.644 262.944 250.684C261.114 249.294 256.774 248.704 252.114 248.704C246.814 248.704 241.104 249.464 238.164 250.684C232.644 252.974 226.724 308.914 224.564 323.464C227.194 326.424 226.564 335.834 225.684 338.294C223.594 344.094 217.964 345.604 207.034 345.684C206.724 345.684 206.414 345.684 206.104 345.684C195.784 345.684 190.144 344.334 188.704 339.104C187.224 333.714 188.354 324.804 191.304 321.104C192.644 320.954 191.964 271.054 177.584 238.094C161.164 257.134 169.884 274.384 169.884 274.384C169.884 274.384 178.504 276.274 177.154 287.584C176.514 292.954 170.964 294.504 164.934 294.504C158.254 294.504 150.984 292.604 149.144 291.894C145.644 290.544 145.104 267.654 144.294 264.154C143.564 260.974 144.154 241.624 144.274 238.054C139.804 246.664 133.714 255.104 125.034 259.234C114.324 265.904 113.314 289.334 114.734 296.004C120.184 298.224 125.844 300.244 124.024 312.974C122.754 321.884 113.364 322.874 104.934 322.874C102.524 322.874 100.194 322.794 98.1537 322.794C97.1337 322.794 96.1837 322.814 95.3337 322.874C95.1937 322.874 95.0637 322.884 94.9337 322.884C86.7837 322.884 84.6537 304.794 86.0437 298.834C87.4537 292.774 82.6237 270.954 85.6437 264.694C85.9437 264.074 86.2537 263.384 86.5737 262.634C90.7237 252.894 92.3737 242.294 91.6137 231.734C90.7937 220.324 90.8937 202.814 96.4637 186.544C72.7837 185.674 64.3537 154.834 64.8337 153.184C65.0137 152.554 65.5037 152.344 66.0837 152.344C67.2437 152.344 68.7337 153.184 68.7337 153.184C68.7337 153.184 66.9837 120.054 78.7037 112.784C79.4137 112.294 79.9737 112.094 80.4237 112.094C82.4337 112.094 82.0737 116.154 82.0737 116.154C82.0737 116.154 93.5237 99.1838 115.604 98.5138C116.634 98.4838 117.614 98.4638 118.544 98.4638C137.534 98.4638 136.074 104.704 136.074 104.704C136.074 104.704 145.094 106.454 156.684 116.694C165.854 124.794 161.774 125.644 159.674 125.644C159.124 125.644 158.704 125.584 158.704 125.584C158.704 125.584 166.044 131.444 165.054 142.484C165.224 142.484 165.384 142.484 165.544 142.484C178.714 142.484 188.204 144.904 188.204 144.904C188.204 144.904 186.034 142.504 188.074 141.754C189.474 141.244 193.324 141.074 193.324 141.074C193.324 141.074 194.414 139.744 195.374 138.014C194.654 136.914 194.274 135.924 194.274 135.124C194.274 132.354 196.014 131.604 196.014 131.604C193.764 129.314 192.944 128.014 193.064 127.494C193.364 126.084 195.794 125.774 195.794 125.774C195.794 125.774 189.284 120.794 188.474 117.564C187.664 114.334 189.984 113.704 189.984 113.704C189.984 113.704 189.974 113.704 189.954 113.704C189.644 113.704 187.344 113.574 188.484 109.554C189.424 105.794 201.414 52.9738 225.654 35.6038C226.664 35.1438 227.554 34.9338 228.334 34.9338M228.334 32.9338C227.244 32.9338 226.064 33.2138 224.824 33.7738L224.644 33.8538L224.484 33.9638C214.354 41.2238 205.154 55.0938 197.144 75.1938C194.324 82.2738 190.224 93.7838 186.674 108.464L186.534 109.024C185.944 111.104 186.044 112.774 186.814 113.984C186.304 114.994 186.094 116.344 186.524 118.034C187.134 120.484 189.924 123.364 192.094 125.294C191.614 125.764 191.254 126.344 191.104 127.054C190.884 128.064 191.204 129.224 193.234 131.544C192.684 132.404 192.264 133.584 192.264 135.104C192.264 135.984 192.524 136.954 193.044 137.984C192.764 138.424 192.494 138.814 192.274 139.114C190.914 139.204 188.594 139.414 187.374 139.864C185.894 140.404 185.424 141.484 185.274 142.074C185.264 142.124 185.254 142.174 185.244 142.224C181.534 141.534 175.094 140.594 167.134 140.484C167.154 134.204 164.724 129.664 162.684 126.954C163.584 126.444 163.994 125.734 164.184 125.234C165.094 122.834 163.244 119.824 157.994 115.184C148.724 106.994 141.014 104.044 137.904 103.114C137.734 102.544 137.434 101.894 136.914 101.234C134.404 98.0638 128.224 96.4538 118.544 96.4538C117.584 96.4538 116.574 96.4738 115.544 96.5038C98.7537 97.0138 87.9337 106.384 83.1837 111.604C83.0837 111.444 82.9637 111.294 82.8337 111.154C82.2037 110.464 81.3537 110.094 80.4237 110.094C79.4937 110.094 78.6137 110.424 77.6137 111.114C72.2337 114.484 68.7737 122.684 67.3437 135.494C66.6637 141.534 66.6137 147.134 66.6637 150.384C66.4737 150.364 66.2837 150.344 66.0937 150.344C64.5337 150.344 63.3237 151.224 62.9137 152.634C62.3737 154.534 65.3537 165.174 71.8837 174.154C77.8537 182.374 85.3837 187.234 93.7937 188.324C88.9337 204.074 88.8237 220.574 89.6337 231.874C90.3737 242.234 88.6837 252.604 84.7437 261.844C84.4237 262.584 84.1237 263.254 83.8537 263.824C81.8737 267.924 82.7337 276.664 83.5537 285.114C84.0837 290.524 84.6237 296.114 84.1037 298.384C82.9937 303.144 83.8437 315.544 88.5737 321.504C90.3337 323.724 92.5337 324.894 94.9437 324.894C95.1237 324.894 95.3037 324.894 95.4837 324.874C96.2037 324.824 97.0537 324.794 98.1537 324.794C99.1237 324.794 100.154 324.814 101.224 324.834C102.414 324.854 103.664 324.874 104.924 324.874C110.734 324.874 124.334 324.874 125.994 313.254C127.914 299.834 121.794 296.744 116.504 294.564C115.474 287.164 116.984 266.724 125.994 260.984C131.994 258.094 137.284 253.114 142.044 245.844C141.874 253.334 141.804 262.304 142.334 264.594C142.524 265.434 142.744 268.124 142.984 270.974C144.214 286.044 145.244 292.534 148.414 293.754C150.234 294.454 157.844 296.494 164.924 296.494C175.814 296.494 178.664 291.774 179.134 287.814C180.254 278.364 174.994 274.014 171.324 272.724C170.014 269.504 165.974 256.674 177.014 241.964C189.034 272.124 190.504 314.894 189.574 320.054C186.124 324.624 185.234 334.074 186.764 339.634C188.604 346.334 195.524 347.684 206.094 347.684C206.404 347.684 206.724 347.684 207.034 347.684C218.064 347.604 224.964 346.154 227.554 338.974C228.434 336.544 229.344 327.274 226.654 322.954C227.054 320.144 227.574 316.094 228.164 311.474C229.494 301.054 231.324 286.774 233.334 274.844C236.454 256.334 238.424 253.064 239.024 252.494C241.654 251.444 247.004 250.714 252.104 250.714C257.684 250.714 260.774 251.564 261.724 252.284C264.504 254.634 271.544 281.394 275.314 295.774C276.304 299.544 277.244 303.114 278.104 306.294C283.134 324.954 285.424 333.464 303.704 333.764C304.314 333.774 304.914 333.784 305.494 333.784C314.054 333.784 318.624 332.644 321.274 329.864C323.834 327.164 324.184 323.254 323.924 318.194C323.474 309.584 317.324 305.874 313.294 304.834C311.974 301.354 307.604 289.144 306.274 276.074C304.524 258.904 302.024 217.274 303.854 194.284C305.214 177.214 301.214 153.054 298.584 139.624C298.894 139.134 299.124 138.704 299.254 138.334C300.024 136.264 299.754 133.914 298.564 132.194C298.414 131.974 298.244 131.764 298.064 131.574C299.584 129.584 301.324 126.974 302.684 124.824C306.844 118.224 306.734 117.194 306.664 116.574C306.584 115.834 306.294 115.224 305.874 114.754C306.894 112.954 307.954 110.564 307.584 108.824C307.504 108.444 307.384 108.104 307.224 107.814C307.344 107.424 307.424 106.984 307.424 106.504C307.424 104.794 297.554 74.2238 289.164 60.0438C287.564 57.3338 273.284 33.6038 265.214 33.5938C264.744 33.5938 264.294 33.6638 263.864 33.8138C261.184 34.7338 259.754 38.5738 259.094 46.6738C258.844 49.7638 258.774 52.7538 258.764 54.7038C256.084 54.4838 253.324 54.3638 250.514 54.3638C243.934 54.3638 238.524 54.9738 235.464 55.4138C235.994 50.2238 236.574 39.3938 232.794 35.0238C231.604 33.6538 230.054 32.9238 228.294 32.9238L228.334 32.9338Z" fill="#49250D"/>
</svg>
