<svg width="24" height="25" viewBox="0 0 24 25" fill="none" xmlns="http://www.w3.org/2000/svg">
<g id="github-fill">
<path id="Vector" d="M12.001 2.01352C6.47598 2.01352 2.00098 6.48852 2.00098 12.0135C2.00098 16.4385 4.86348 20.176 8.83848 21.501C9.33848 21.5885 9.52598 21.2885 9.52598 21.026C9.52598 20.7885 9.51348 20.001 9.51348 19.1635C7.00098 19.626 6.35098 18.551 6.15098 17.9885C6.03848 17.701 5.55098 16.8135 5.12598 16.576C4.77598 16.3885 4.27598 15.926 5.11348 15.9135C5.90098 15.901 6.46348 16.6385 6.65098 16.9385C7.55098 18.451 8.98848 18.026 9.56348 17.7635C9.65098 17.1135 9.91348 16.676 10.201 16.426C7.97598 16.176 5.65098 15.3135 5.65098 11.4885C5.65098 10.401 6.03848 9.50102 6.67598 8.80102C6.57598 8.55102 6.22598 7.52602 6.77598 6.15102C6.77598 6.15102 7.61348 5.88852 9.52598 7.17602C10.326 6.95102 11.176 6.83852 12.026 6.83852C12.876 6.83852 13.726 6.95102 14.526 7.17602C16.4385 5.87602 17.276 6.15102 17.276 6.15102C17.826 7.52602 17.476 8.55102 17.376 8.80102C18.0135 9.50102 18.401 10.3885 18.401 11.4885C18.401 15.326 16.0635 16.176 13.8385 16.426C14.201 16.7385 14.5135 17.3385 14.5135 18.276C14.5135 19.6135 14.501 20.6885 14.501 21.026C14.501 21.2885 14.6885 21.601 15.1885 21.501C19.259 20.1268 21.9999 16.3098 22.001 12.0135C22.001 6.48852 17.526 2.01352 12.001 2.01352Z" fill="#43302B"/>
</g>
</svg>
