<svg width="371" height="384" viewBox="0 0 371 384" fill="none" xmlns="http://www.w3.org/2000/svg">
<path d="M212.058 209.258C212.359 204.762 215.632 176.078 216.58 169.819C208.971 149.719 184.046 126.576 163.991 120.589C162.556 129.706 158.635 137.99 152.247 142.627C171.433 146.834 183.838 152.828 206.119 207.821C208.027 208.559 210.024 209.042 212.058 209.258Z" fill="url(#paint0_linear_18442_141745)"/>
<path d="M14.5583 188.54C38.1356 122.496 96.8652 112.234 115.844 112.606C116.179 114.563 117.141 116.357 118.586 117.719C116.525 122.728 115.714 132.076 115.098 135.995C108.541 138.362 82.1711 147.714 69.4289 165.741C61.3082 177.229 61.3026 200.728 66.5572 234.38C70.0322 256.62 81.2869 269.654 92.5285 269.654C93.9653 274.191 96.4193 283.142 103.019 288.447C82.9185 284.657 70.817 269.21 62.7038 251.522C62.5764 251.195 62.3241 250.932 62.0025 250.79C61.6808 250.649 61.3162 250.641 60.9888 250.768C60.6614 250.896 60.398 251.148 60.2566 251.47C60.1152 251.791 60.1074 252.156 60.2348 252.483C67.8835 272.528 83.089 289.342 105.1 292.267C146.344 297.746 163.995 296.903 204.563 319.845C205.996 320.656 207.56 318.811 206.185 317.865C198.91 312.875 191.226 308.509 183.215 304.814C191.987 303.536 212.438 299.943 225.122 295.77C231.386 306.625 253.832 339.783 262.125 350.648C220.403 372.872 121.094 378.211 65.008 361.513C-11.4261 338.756 -9.02646 254.606 14.5583 188.54Z" fill="url(#paint1_linear_18442_141745)"/>
<path d="M163.982 109.636C162.858 116.005 159.735 127.871 156.803 133.44C149.767 146.81 135.873 145.886 130.675 139.182C130.54 138.982 130.479 138.743 130.502 138.504C130.525 138.264 130.631 138.041 130.801 137.871C130.971 137.701 131.195 137.596 131.434 137.573C131.673 137.551 131.912 137.612 132.111 137.747C139.397 142.909 146.895 142.617 152.512 135.564C156.745 130.252 161.018 116.269 162.562 109.525C162.777 108.578 164.27 108.707 164.083 109.698L163.982 109.636Z" fill="#451E11"/>
<path d="M164.988 104.254C173.142 103.59 178.361 100.046 179.861 93.6582C182.033 84.4098 172.336 83.1341 166.711 86.9968C162.215 90.0821 159.098 88.4336 157.12 85.9496C155.553 83.9398 153.356 82.5154 150.882 81.9058C148.408 81.2962 145.801 81.5368 143.48 82.5889C140.067 84.2 137.609 84.14 134.981 82.0588C133.381 80.9518 131.494 80.334 129.549 80.2804C127.605 80.2269 125.686 80.74 124.028 81.7572C123.117 82.3198 122.356 83.0946 121.809 84.0153C121.262 84.9359 120.947 85.9752 120.889 87.0444C120.831 88.1136 121.033 89.1808 121.477 90.1551C121.921 91.1293 122.595 91.9816 123.44 92.6392C126.461 94.9109 129.824 96.6895 133.402 97.9087C131.838 101.093 130.33 104.124 127.186 106.119C126.825 105.347 126.27 104.681 125.576 104.185C124.882 103.69 124.072 103.382 123.224 103.291C122.803 101.192 122.842 99.0277 123.339 96.9459C123.453 95.6533 121.904 95.5821 121.501 96.6724C120.911 98.9685 120.843 101.367 121.3 103.693C117.395 105.754 118.084 113.744 121.587 117.533C119.161 123.118 118.065 133.741 117.539 139.93C117.307 142.643 124.5 149.194 129.196 150.899C135.468 153.173 142.456 152.33 144.988 147.583C145.533 146.562 144.042 145.816 143.424 146.764C139.677 152.504 125.8 150.885 119.894 140.174C120.461 132.676 121.647 125.238 123.44 117.936C123.927 116.745 124.002 116.887 122.621 114.821C119.663 110.383 120.855 105.046 123.209 105.201C126.081 105.389 125.851 109.609 127.66 108.56C131.242 106.148 133.92 102.612 135.27 98.5101C145.792 102.251 159.188 104.726 164.988 104.254Z" fill="#451E11"/>
<path d="M150.588 125.014C150.689 122.989 150.745 120.951 150.904 118.926C150.925 118.767 151.003 118.621 151.124 118.515C151.244 118.409 151.399 118.351 151.56 118.351C151.72 118.351 151.875 118.409 151.996 118.515C152.117 118.621 152.195 118.767 152.216 118.926C152.373 121.373 152.311 123.828 152.028 126.264C151.813 127.388 148.441 127.004 147.564 126.479C147.466 126.418 147.381 126.339 147.314 126.245C147.247 126.151 147.2 126.045 147.175 125.932C147.149 125.82 147.147 125.703 147.167 125.59C147.187 125.476 147.23 125.368 147.293 125.271C147.695 124.627 148.194 124.971 150.588 125.014Z" fill="#451E11"/>
<path d="M142.892 131.443C137.437 130.941 136.234 125.373 137.064 124.48C137.396 124.122 138.655 123.676 138.816 125.615C139.054 128.486 140.667 129.346 143.124 130.281C143.55 130.281 143.743 131.422 142.892 131.443Z" fill="#451E11"/>
<path d="M160.091 113.185C160.422 114.377 159.654 115.034 158.856 113.659C158.363 112.791 157.588 112.117 156.661 111.748C155.138 111.061 156.043 109.826 157.178 110.184C158.484 110.777 159.512 111.851 160.048 113.181L160.091 113.185Z" fill="#451E11"/>
<path d="M141.931 107.87C143.93 106.972 148.074 106.721 147.429 108.673C147.098 109.679 145.893 109.115 144.788 109.19C143.582 109.277 142.392 109.508 141.242 109.88C140.423 110.142 138.906 109.23 141.931 107.87Z" fill="#451E11"/>
<path d="M156.288 118.664C157.879 118.183 156.831 122.443 155.599 121.437C154.894 120.862 155.683 118.848 156.288 118.664Z" fill="#451E11"/>
<path d="M143.308 117.464C143.988 115.138 146.179 116.153 144.486 118.899C144.126 119.56 142.731 119.442 143.308 117.464Z" fill="#451E11"/>
<path d="M173.228 225.795C171.168 229.959 164.611 234.94 160.303 234.509C160.065 234.457 159.858 234.313 159.726 234.108C159.595 233.903 159.55 233.655 159.602 233.417C159.872 232.179 163.028 232.177 166.85 229.371C171.585 225.892 171.484 222.011 174.804 223.627C180.148 226.231 182.141 226.36 179.212 233.677C179.117 233.897 178.943 234.074 178.725 234.173C178.507 234.272 178.26 234.286 178.032 234.213C177.804 234.139 177.611 233.983 177.492 233.776C177.373 233.568 177.335 233.323 177.387 233.089C177.898 231.49 178.112 229.812 178.02 228.136C172.878 225.469 173.309 225.607 173.228 225.795Z" fill="#451E11"/>
<path d="M186.881 204.552C187.844 204.552 187.902 206.208 186.881 206.26C180.594 206.581 180.553 205.562 176.765 208.988C175.551 210.086 173.449 212.232 172.456 210.423C172.349 210.179 172.325 209.906 172.387 209.647C172.449 209.388 172.595 209.156 172.801 208.988C178.917 205.039 176.821 204.179 186.798 204.509L186.881 204.552Z" fill="#451E11"/>
<path d="M199.6 216.322C195.252 213.099 190.035 211.258 184.627 211.039C177.771 210.689 176.463 211.644 169.337 213.637C167.464 214.158 161.256 215.548 160.048 216.408C159.298 216.94 159.832 218.017 160.61 218.131C162.483 218.407 176.72 214.068 178.886 213.019C180.107 213.81 190.918 212.304 198.583 217.686C198.774 217.812 199.006 217.859 199.231 217.817C199.456 217.776 199.655 217.648 199.788 217.462C199.92 217.275 199.975 217.045 199.94 216.819C199.905 216.593 199.784 216.389 199.602 216.251L199.6 216.322Z" fill="#451E11"/>
<path d="M195.739 226C192.276 220.416 188.561 219.382 183.033 216.926C182.13 216.194 182.658 214.586 183.795 214.865C186.665 215.519 189.359 216.783 191.696 218.572C194.032 220.361 195.955 222.633 197.334 225.232C197.866 226.264 196.322 226.948 195.739 226Z" fill="#451E11"/>
<path d="M189.093 233.462C189.192 234.625 191.088 234.711 190.944 233.462C190.088 226.053 186.763 222.198 178.899 218.157C177.923 217.655 176.727 219.264 177.664 220.124C179.65 221.952 188.304 224.359 189.093 233.462Z" fill="#451E11"/>
<path d="M194.346 210.766C193.313 210.509 193.83 208.971 194.763 208.857C197.155 209.008 199.526 209.398 201.841 210.02C194.763 195.663 187.827 176.093 178.05 163.677C169.019 152.203 158.38 149.108 151.46 147.192C150.484 146.92 151.103 145.391 152.05 145.554C181.579 150.646 189.529 178.584 204.222 210.546C206.604 211.108 209 211.712 211.4 212.399C212.593 212.74 212.219 214.595 210.999 214.295C210.81 214.299 196.569 211.32 194.346 210.766Z" fill="#451E11"/>
<path d="M98.6299 269.829C99.6789 270.706 99.5815 275.207 104.072 281.588C104.759 282.565 103.229 285.994 98.8884 277.007C98.3845 275.962 96.4775 271.479 97.0151 270.29C97.0785 270.142 97.1741 270.01 97.2948 269.904C97.4155 269.798 97.5584 269.72 97.713 269.676C97.8676 269.631 98.0301 269.622 98.1887 269.649C98.3474 269.675 98.498 269.737 98.6299 269.829Z" fill="#451E11"/>
<path d="M74.0371 164.072C61.3886 179.706 65.4199 218.055 70.7794 238.726C74.7845 254.188 80.2957 269.087 98.6016 266.981C113.747 265.239 151.938 254.483 159.618 240.809C160.836 238.64 159.264 236.924 157.966 235.21C153.633 229.487 153.141 220.623 157.479 215.269C158.339 214.205 158.041 212.834 156.775 212.8C144.786 212.425 120.808 220.838 109.397 224.976C107.45 212.669 106.449 200.23 106.404 187.769C106.404 186.907 104.952 186.761 104.855 187.668C104.012 200.411 104.83 213.21 107.29 225.743C104.032 226.962 100.771 228.191 97.5488 229.474C96.8294 229.761 97.3184 230.911 98.0358 230.739C114.806 225.081 139.857 215.951 155.147 214.945C147.395 223.674 155.018 238.477 158.348 239.18C151.831 249.661 120.778 262.152 98.0508 264.791C81.2249 266.747 76.4424 251.613 72.9112 237.816C67.8533 218.047 64.5526 180.186 76.2569 165.2C85.7452 153.051 101.082 147.356 114.532 140.865C115.607 140.347 114.834 138.814 113.742 139.213C99.3958 144.468 83.5928 152.139 73.9884 164.109L74.0371 164.072Z" fill="#451E11"/>
<path d="M179.275 201.523C179.524 202.613 181.203 202.544 181.07 201.364C180.367 194.235 178.599 187.252 175.824 180.647C171.857 171.556 170.579 175.552 170.871 176.082C175.551 184.691 176.696 190.173 179.275 201.523Z" fill="#451E11"/>
<path d="M284.133 370.01C288.13 370.974 292.051 372.231 295.863 373.771C316.248 382.356 318.225 383.293 333.363 375.644C336.227 374.196 339.187 373.31 335.631 370.075C332.338 367.078 307.822 355.044 302.999 352.357C302.811 352.235 302.675 352.048 302.616 351.832C302.556 351.616 302.578 351.385 302.677 351.184C302.776 350.983 302.945 350.825 303.152 350.74C303.359 350.655 303.591 350.648 303.802 350.722C309.928 352.91 333.962 364.251 338.014 368.955C340.892 372.293 339.088 375.324 335.746 377.152C314.81 388.606 311.822 383.094 293.597 375.573C288.454 373.451 283.338 372.686 280.33 371.366C277.022 369.914 273.455 366.323 274.588 362.365C274.901 361.272 276.799 361.158 276.756 362.494C277.061 362.486 275.546 367.803 284.133 370.01Z" fill="#451E11"/>
<path d="M321.777 353.617C320.729 353.759 320.714 355.34 321.777 355.303C335.53 354.917 350.678 353.641 364.43 352.159C373.877 351.142 371.867 342.903 365.636 341.247C357.926 339.2 338.359 333.496 331.036 333.911C329.912 333.911 329.601 335.742 330.793 335.922C342.293 337.706 353.668 340.223 364.847 343.458C370.211 344.985 370.001 349.265 364.531 349.804C350.307 351.198 336.132 351.657 321.777 353.617Z" fill="#451E11"/>
<path d="M162.073 250.201C168.189 248.165 209.679 236.462 211.316 235.372C212.753 234.452 218.925 173.222 219.341 168.053C219.757 162.885 222.327 156.9 229.391 154.86C236.456 152.82 292.001 146.561 297.643 146.158C303.285 145.756 305.123 147.595 304.994 155.677C304.864 163.758 301.82 228.997 291.972 231.77C292.4 232.395 244.565 242.23 162.073 257.827C157.335 258.715 155.956 252.241 162.073 250.201Z" fill="#451E11"/>
<path d="M304.319 343.046C292.905 319.343 261.55 253.517 244.825 244.458C259.928 241.401 272.906 238.816 279.065 237.714C293.567 240.7 302.51 259.609 329.315 331.148C325.812 339.204 316.951 341.541 304.289 343.049L304.319 343.046ZM155.205 256.417C149.211 258.5 118.301 272.11 117.764 289.797C131.626 288.36 174.974 298.602 180.933 301.858C195.372 299.954 209.672 297.115 223.743 293.358C222.548 291.299 221.366 289.246 220.197 287.199C220.008 286.928 219.933 286.594 219.99 286.268C220.047 285.943 220.231 285.654 220.501 285.463C220.771 285.273 221.105 285.198 221.431 285.254C221.756 285.31 222.046 285.493 222.237 285.762C237.28 306.743 254.196 334.934 270.031 355.306C279.161 357.474 297.551 357.762 301.888 345.515C287.904 320.864 260.325 252.197 238.833 245.668C207.822 251.972 170.695 259.635 164.088 260.772C155.928 262.172 155.297 259.043 155.196 256.421L155.205 256.417Z" fill="#451E11"/>
<path d="M170.832 29.9463C170.832 24.6484 165.255 20.8005 157.169 18.514C157.392 17.5102 157.615 16.5343 157.782 15.5862C159.455 6.21732 156.695 2.48091 154.101 0.975194C151.508 -0.530522 146.88 -1.03243 139.602 5.07409C138.849 5.71541 138.124 6.38462 137.371 7.10959C136.618 6.38462 135.893 5.71541 135.141 5.07409C127.863 -1.03243 123.234 -0.530522 120.641 0.975194C118.048 2.48091 115.287 6.21732 116.96 15.5862C117.128 16.5343 117.351 17.5102 117.574 18.514C109.488 20.8005 103.911 24.6484 103.911 29.9463C103.911 35.2442 109.488 39.0921 117.574 41.3786C117.351 42.3824 117.128 43.3583 116.96 44.1669C115.287 53.5359 118.048 57.2723 120.641 58.778C121.776 59.4338 123.067 59.771 124.377 59.7539C128.309 59.7539 132.882 56.9655 137.371 52.6715C141.861 56.9934 146.433 59.7539 150.365 59.7539C151.663 59.8136 152.953 59.5247 154.101 58.9174C156.695 57.4117 159.455 53.6753 157.782 44.3064C157.615 43.3583 157.392 42.3824 157.169 41.518C165.255 39.0921 170.832 35.2442 170.832 29.9463ZM150.365 5.57599C150.695 5.56654 151.022 5.64343 151.313 5.79906C152.456 6.46827 153.209 9.45182 152.289 14.6103C152.15 15.4747 151.954 16.367 151.731 17.3987C149.64 17.0083 147.437 16.7294 145.207 16.5064C143.896 14.6661 142.418 12.9094 141.191 11.32C141.861 10.6787 142.53 10.0374 143.171 9.50759C145.095 7.47227 147.613 6.09636 150.365 5.57599ZM149.724 36.3874L150.058 37.2518L149.138 37.4191C149.25 37.2582 149.353 37.0906 149.445 36.9172C149.554 36.7498 149.648 36.5724 149.724 36.3874ZM144.621 34.1288C143.784 35.5509 142.948 36.9172 142.111 38.172C140.578 38.172 139.016 38.3114 137.371 38.3114C135.726 38.3114 134.165 38.3114 132.631 38.172C131.795 36.8893 130.958 35.5509 130.122 34.1288C129.285 32.7068 128.588 31.3405 127.891 29.9463C128.588 28.5521 129.313 27.1579 130.122 25.7637C130.93 24.3696 131.767 22.9754 132.631 21.7206C134.165 21.5812 135.726 21.5812 137.371 21.5812C139.016 21.5812 140.578 21.5812 142.111 21.7206C142.976 23.0312 143.812 24.3696 144.621 25.7637C145.43 27.1579 146.155 28.5521 146.852 29.9463C146.155 31.3405 145.43 32.7347 144.621 34.1288ZM137.957 43.8881L137.371 44.5573L136.786 43.8881H137.957ZM125.298 36.9172C125.39 37.0906 125.492 37.2582 125.604 37.4191L124.684 37.2518L125.019 36.3874C125.095 36.5724 125.188 36.7498 125.298 36.9172ZM125.019 23.5052L124.684 22.6408L125.604 22.4735C125.492 22.6344 125.39 22.802 125.298 22.9754C125.188 23.1428 125.095 23.3202 125.019 23.5052ZM137.371 15.3074L137.957 16.0045H136.786L137.371 15.3074ZM149.445 22.9754C149.353 22.802 149.25 22.6344 149.138 22.4735L150.058 22.6408L149.724 23.5052C149.648 23.3202 149.554 23.1428 149.445 22.9754ZM122.454 14.6103C121.533 9.45182 122.286 6.46827 123.429 5.79906C123.71 5.64321 124.028 5.56614 124.35 5.57599C127.095 6.05065 129.622 7.37739 131.571 9.36817C132.241 9.89796 132.882 10.5393 133.551 11.1806C132.185 12.77 130.763 14.5266 129.536 16.367C127.305 16.59 125.102 16.8689 123.011 17.2592C122.788 16.367 122.593 15.4747 122.454 14.6103ZM109.488 29.9463C109.488 28.0502 113.057 25.6243 119.219 23.8677C119.916 25.8474 120.753 27.8829 121.701 29.9463C120.753 32.0097 119.916 34.0452 119.219 36.0249C113.057 34.2683 109.488 31.8424 109.488 29.9463ZM123.429 54.0935C122.286 53.4243 121.533 50.4408 122.454 45.2823C122.454 44.4179 122.788 43.5256 123.011 42.6333C125.102 43.0237 127.277 43.3026 129.508 43.5256C130.819 45.3381 132.296 47.0947 133.551 48.712C129.006 53.1455 125.075 55.0416 123.429 54.0935ZM152.289 45.2823C153.209 50.4408 152.456 53.4243 151.313 54.0935C149.696 55.0416 145.736 53.1455 141.191 48.712C142.585 47.0947 143.98 45.3381 145.234 43.5256C147.465 43.3026 149.64 43.0237 151.731 42.6333C151.954 43.5256 152.15 44.4179 152.289 45.2823ZM155.523 36.0249C154.826 34.0452 153.99 32.0097 153.042 29.9463C153.99 27.8829 154.826 25.8474 155.523 23.8677C161.686 25.6243 165.255 28.0502 165.255 29.9463C165.255 31.8424 161.686 34.2683 155.523 36.0249Z" fill="#FFB381"/>
<path d="M137.371 35.523C140.451 35.523 142.948 33.0262 142.948 29.9463C142.948 26.8664 140.451 24.3696 137.371 24.3696C134.291 24.3696 131.794 26.8664 131.794 29.9463C131.794 33.0262 134.291 35.523 137.371 35.523Z" fill="#FFB381"/>
<path d="M235.192 72.333H239.443H243.694L239.443 62.7617L235.192 72.333Z" fill="#FFB381"/>
<path d="M265.925 50.9817L239.8 42.6217C239.567 42.5503 239.319 42.5503 239.087 42.6217L212.962 50.9342C212.704 51.0227 212.482 51.1942 212.332 51.4219C212.181 51.6496 212.111 51.9208 212.131 52.1929L215.693 86.6779C215.715 86.8734 215.785 87.0603 215.897 87.2219C216.009 87.3836 216.159 87.515 216.335 87.6042L238.897 99.4792C239.064 99.5728 239.252 99.622 239.443 99.622C239.635 99.622 239.823 99.5728 239.99 99.4792L262.552 87.6042C262.727 87.515 262.878 87.3836 262.989 87.2219C263.101 87.0603 263.171 86.8734 263.193 86.6779L266.756 52.2404C266.776 51.9683 266.705 51.6971 266.555 51.4694C266.404 51.2417 266.183 51.0702 265.925 50.9817ZM247.827 84.0417L245.001 77.6529H233.886L231.06 84.0417H224.671L239.443 50.7917L254.216 84.0417H247.827Z" fill="#FFB381"/>
<path d="M61.3734 44.9784H18.5834C17.4486 44.9784 16.3602 45.437 15.5577 46.2533C14.7553 47.0696 14.3044 48.1767 14.3044 49.3312V92.8589C14.3044 94.0133 14.7553 95.1204 15.5577 95.9367C16.3602 96.753 17.4486 97.2116 18.5834 97.2116H61.3734C62.5082 97.2116 63.5966 96.753 64.3991 95.9367C65.2015 95.1204 65.6524 94.0133 65.6524 92.8589V49.3312C65.6524 48.1767 65.2015 47.0696 64.3991 46.2533C63.5966 45.437 62.5082 44.9784 61.3734 44.9784ZM41.0482 84.1533C41.0482 86.1736 40.2592 88.1111 38.8549 89.5396C37.4506 90.9681 35.5459 91.7707 33.5599 91.7707C31.5739 91.7707 29.6692 90.9681 28.2649 89.5396C26.8606 88.1111 26.0717 86.1736 26.0717 84.1533H31.4204C31.4204 84.7305 31.6458 85.2841 32.0471 85.6923C32.4483 86.1004 32.9925 86.3297 33.5599 86.3297C34.1273 86.3297 34.6715 86.1004 35.0728 85.6923C35.474 85.2841 35.6994 84.7305 35.6994 84.1533V66.7422H41.0482V84.1533ZM52.8154 91.7707C51.3576 91.7716 49.9311 91.3396 48.7112 90.5278C47.4912 89.7159 46.5307 88.5594 45.9476 87.2003C45.8047 86.8684 45.7455 86.5054 45.7754 86.1444C45.8053 85.7833 45.9233 85.4356 46.1188 85.1327C46.3146 84.8302 46.5815 84.5823 46.8953 84.4112C47.2091 84.2402 47.5599 84.1516 47.9159 84.1533H49.1141C49.4874 84.1556 49.8537 84.2573 50.1765 84.4482C50.4993 84.6391 50.7673 84.9126 50.954 85.2415C51.1876 85.6608 51.5513 85.9893 51.9882 86.1757C52.4251 86.362 52.9104 86.3955 53.3681 86.2711C53.8257 86.1466 54.2298 85.8711 54.517 85.4879C54.8042 85.1046 54.9582 84.6352 54.9549 84.1533C54.9549 83.5439 54.9549 82.8475 51.9596 81.8464C49.9913 81.1717 45.3272 79.67 45.3272 74.3596C45.3247 72.6076 45.9159 70.9083 47.0014 69.548C48.0868 68.1877 49.6 67.2497 51.2859 66.8918C52.9719 66.534 54.7276 66.7783 56.2572 67.5836C57.7868 68.3888 58.9967 69.7058 59.6832 71.3127C59.8456 71.6586 59.9153 72.0421 59.8853 72.4243C59.8552 72.8064 59.7265 73.1738 59.512 73.489C59.3162 73.7915 59.0493 74.0395 58.7355 74.2105C58.4217 74.3815 58.0709 74.4702 57.7148 74.4684H56.5167C56.1433 74.4661 55.7771 74.3645 55.4543 74.1736C55.1315 73.9827 54.8634 73.7092 54.6768 73.3802C54.4432 72.961 54.0795 72.6324 53.6426 72.4461C53.2057 72.2597 52.7204 72.2262 52.2627 72.3507C51.805 72.4751 51.4009 72.7506 51.1138 73.1339C50.8266 73.5171 50.6726 73.9865 50.6759 74.4684C50.6759 75.0778 50.6759 75.7742 53.6712 76.7754C55.6395 77.4501 60.3036 78.9518 60.3036 84.2621C60.2755 86.2635 59.4742 88.1731 58.0729 89.5782C56.6716 90.9833 54.783 91.7709 52.8154 91.7707Z" fill="#FFB381"/>
<defs>
<linearGradient id="paint0_linear_18442_141745" x1="184.414" y1="120.589" x2="184.414" y2="209.258" gradientUnits="userSpaceOnUse">
<stop stop-color="#FFB171"/>
<stop offset="1" stop-color="#BD8AFC"/>
</linearGradient>
<linearGradient id="paint1_linear_18442_141745" x1="131.063" y1="112.597" x2="131.063" y2="371.303" gradientUnits="userSpaceOnUse">
<stop stop-color="#FFB171"/>
<stop offset="1" stop-color="#BD8AFC"/>
</linearGradient>
</defs>
</svg>
