<svg width="288" height="73" viewBox="0 0 288 73" fill="none" xmlns="http://www.w3.org/2000/svg">
<g clip-path="url(#clip0_22134_75765)">
<path d="M49.8817 8C48.1113 8 46.5816 11.7813 46.5816 17.6079C44.33 17.0751 41.9238 16.7829 39.3284 16.7829C36.7331 16.7829 34.3268 17.0751 32.0752 17.6079C32.0752 11.7813 30.5283 8 28.7752 8C21.9173 8 12 37.2363 12 42.7535C12 48.2708 23.0173 64.3412 39.3284 64.3412C55.6395 64.3412 66.6569 48.2708 66.6569 42.7535C66.6569 37.2363 56.7567 8 49.8817 8ZM52.8208 36.1534L38.7612 50.213C37.7128 51.2614 35.994 51.2614 34.9456 50.213L25.8533 41.1207C25.2001 40.4675 25.2001 39.3847 25.8533 38.7316L27.9674 36.6175C28.6205 35.9644 29.7033 35.9644 30.3565 36.6175L36.8706 43.1316L48.352 31.6503C49.0051 30.9971 50.0879 30.9971 50.7411 31.6503L52.8551 33.7643C53.5083 34.4175 53.5083 35.5003 52.8551 36.1534H52.8208Z" fill="#2F1708"/>
</g>
<mask id="path-2-outside-1_22134_75765" maskUnits="userSpaceOnUse" x="79.6741" y="15.6003" width="197" height="39" fill="black">
<rect fill="white" x="79.6741" y="15.6003" width="197" height="39"/>
<path d="M200.509 23.2042C201.289 23.9223 202.257 24.2814 203.412 24.2814C204.568 24.2814 205.52 23.9223 206.269 23.2042C207.05 22.4548 207.44 21.5337 207.44 20.4409C207.44 19.348 207.05 18.4425 206.269 17.7244C205.52 16.975 204.568 16.6003 203.412 16.6003C202.257 16.6003 201.289 16.975 200.509 17.7244C199.759 18.4425 199.385 19.348 199.385 20.4409C199.385 21.5337 199.759 22.4548 200.509 23.2042Z"/>
<path d="M206.644 53.3194V27.3725H200.087V53.3194H206.644Z"/>
<path d="M219.257 32.7586V45.3105C219.257 46.1848 219.46 46.8249 219.865 47.2308C220.303 47.6055 221.021 47.7928 222.02 47.7928H225.064V53.3194H220.943C215.416 53.3194 212.653 50.6342 212.653 45.2637V32.7586H209.562V27.3725H212.653V20.9561H219.257V27.3725H225.064V32.7586H219.257Z"/>
<path fill-rule="evenodd" clip-rule="evenodd" d="M262.003 53.7409C259.506 53.7409 257.257 53.1945 255.259 52.1017C253.261 50.9776 251.684 49.4008 250.529 47.3713C249.405 45.3417 248.843 43 248.843 40.3459C248.843 37.6919 249.42 35.3502 250.576 33.3206C251.762 31.2911 253.37 29.7299 255.4 28.6371C257.429 27.513 259.693 26.951 262.191 26.951C264.689 26.951 266.952 27.513 268.982 28.6371C271.011 29.7299 272.604 31.2911 273.759 33.3206C274.946 35.3502 275.539 37.6919 275.539 40.3459C275.539 43 274.93 45.3417 273.712 47.3713C272.526 49.4008 270.902 50.9776 268.841 52.1017C266.812 53.1945 264.533 53.7409 262.003 53.7409ZM262.003 48.027C263.19 48.027 264.298 47.746 265.329 47.1839C266.39 46.5907 267.233 45.7164 267.858 44.5611C268.482 43.4059 268.795 42.0008 268.795 40.3459C268.795 37.8793 268.139 35.9902 266.827 34.6788C265.547 33.3362 263.971 32.6649 262.097 32.6649C260.224 32.6649 258.647 33.3362 257.367 34.6788C256.118 35.9902 255.493 37.8793 255.493 40.3459C255.493 42.8126 256.102 44.7173 257.32 46.0599C258.569 47.3713 260.13 48.027 262.003 48.027Z"/>
<path d="M184.733 26.9979C187.918 26.9979 190.478 27.9814 192.414 29.9485C194.381 31.8844 195.365 34.6008 195.365 38.0979V53.3194H188.808V38.9878C188.808 36.9582 188.293 35.4126 187.262 34.351C186.232 33.2582 184.827 32.7118 183.047 32.7118C181.268 32.7118 179.847 33.2582 178.785 34.351C177.755 35.4126 177.24 36.9582 177.24 38.9878V53.3194H170.683V38.9878C170.683 36.9582 170.167 35.4126 169.137 34.351C168.107 33.2582 166.702 32.7118 164.922 32.7118C163.111 32.7118 161.675 33.2582 160.613 34.351C159.583 35.4126 159.067 36.9582 159.067 38.9878V53.3194H152.51V26.9979H159.067V30.5105C159.911 29.4177 160.988 28.559 162.299 27.9346C163.642 27.3101 165.109 26.9979 166.702 26.9979C168.731 26.9979 170.542 27.435 172.135 28.3093C173.727 29.1523 174.96 30.37 175.835 31.9624C176.678 30.4637 177.895 29.2616 179.488 28.3561C181.111 27.4506 182.86 26.9979 184.733 26.9979Z"/>
<path d="M144.91 28.1688C143.568 28.9493 142.475 30.0266 141.632 31.4004V27.3725H135.075V53.3194H141.632V40.3928C141.632 37.9886 142.147 36.3025 143.177 35.3346C144.239 34.3667 145.8 33.8827 147.861 33.8827H149.594V26.9979C147.845 26.9979 146.284 27.3882 144.91 28.1688Z"/>
<path fill-rule="evenodd" clip-rule="evenodd" d="M131.789 39.7839C131.789 40.7206 131.727 41.5637 131.602 42.313H112.633C112.789 44.1865 113.445 45.654 114.6 46.7156C115.756 47.7772 117.176 48.308 118.862 48.308C121.298 48.308 123.031 47.262 124.061 45.17H131.133C130.384 47.6679 128.948 49.7287 126.824 51.3523C124.701 52.9447 122.094 53.7409 119.003 53.7409C116.505 53.7409 114.257 53.1945 112.259 52.1017C110.292 50.9776 108.746 49.4008 107.622 47.3713C106.529 45.3417 105.983 43 105.983 40.3459C105.983 37.6607 106.529 35.3033 107.622 33.2738C108.715 31.2442 110.245 29.6831 112.212 28.5902C114.179 27.4974 116.443 26.951 119.003 26.951C121.47 26.951 123.671 27.4818 125.607 28.5434C127.574 29.605 129.088 31.1193 130.15 33.0864C131.243 35.0223 131.789 37.2548 131.789 39.7839ZM124.998 37.9105C124.967 36.2244 124.358 34.8818 123.171 33.8826C121.985 32.8523 120.533 32.3371 118.816 32.3371C117.192 32.3371 115.818 32.8367 114.694 33.8358C113.601 34.8037 112.93 36.162 112.68 37.9105H124.998Z"/>
<path fill-rule="evenodd" clip-rule="evenodd" d="M103.249 35.6624C104.092 34.1325 104.513 32.4932 104.513 30.7447C104.513 28.8088 104.061 27.0759 103.155 25.546C102.281 24.016 100.954 22.8139 99.1741 21.9396C97.3944 21.0654 95.2399 20.6282 92.7108 20.6282H80.6741V53.3194H87.231V40.7675H92.7108C95.396 40.7675 97.6129 40.2992 99.3614 39.3624C101.141 38.4257 102.437 37.1924 103.249 35.6624ZM96.4576 34.2574C95.5834 35.0692 94.2408 35.4751 92.4298 35.4751H87.231V25.9675H92.4298C95.9893 25.9675 97.769 27.5599 97.769 30.7447C97.769 32.2434 97.3319 33.4143 96.4576 34.2574Z"/>
<path d="M242.272 24.2814C241.117 24.2814 240.149 23.9223 239.368 23.2042C238.619 22.4548 238.244 21.5337 238.244 20.4409C238.244 19.348 238.619 18.4425 239.368 17.7244C240.149 16.975 241.117 16.6003 242.272 16.6003C243.427 16.6003 244.379 16.975 245.129 17.7244C245.909 18.4425 246.3 19.348 246.3 20.4409C246.3 21.5337 245.909 22.4548 245.129 23.2042C244.379 23.9223 243.427 24.2814 242.272 24.2814Z"/>
<path d="M245.504 53.3194V27.3725H238.947V53.3194H245.504Z"/>
<path d="M232.005 53.7409C230.85 53.7409 229.882 53.3818 229.101 52.6637C228.352 51.9143 227.977 50.9932 227.977 49.9004C227.977 48.8076 228.352 47.9021 229.101 47.1839C229.882 46.4346 230.85 46.0599 232.005 46.0599C233.161 46.0599 234.113 46.4346 234.862 47.1839C235.643 47.9021 236.033 48.8076 236.033 49.9004C236.033 50.9932 235.643 51.9143 234.862 52.6637C234.113 53.3818 233.161 53.7409 232.005 53.7409Z"/>
</mask>
<path d="M200.509 23.2042C201.289 23.9223 202.257 24.2814 203.412 24.2814C204.568 24.2814 205.52 23.9223 206.269 23.2042C207.05 22.4548 207.44 21.5337 207.44 20.4409C207.44 19.348 207.05 18.4425 206.269 17.7244C205.52 16.975 204.568 16.6003 203.412 16.6003C202.257 16.6003 201.289 16.975 200.509 17.7244C199.759 18.4425 199.385 19.348 199.385 20.4409C199.385 21.5337 199.759 22.4548 200.509 23.2042Z" fill="#2F1708"/>
<path d="M206.644 53.3194V27.3725H200.087V53.3194H206.644Z" fill="#2F1708"/>
<path d="M219.257 32.7586V45.3105C219.257 46.1848 219.46 46.8249 219.865 47.2308C220.303 47.6055 221.021 47.7928 222.02 47.7928H225.064V53.3194H220.943C215.416 53.3194 212.653 50.6342 212.653 45.2637V32.7586H209.562V27.3725H212.653V20.9561H219.257V27.3725H225.064V32.7586H219.257Z" fill="#2F1708"/>
<path fill-rule="evenodd" clip-rule="evenodd" d="M262.003 53.7409C259.506 53.7409 257.257 53.1945 255.259 52.1017C253.261 50.9776 251.684 49.4008 250.529 47.3713C249.405 45.3417 248.843 43 248.843 40.3459C248.843 37.6919 249.42 35.3502 250.576 33.3206C251.762 31.2911 253.37 29.7299 255.4 28.6371C257.429 27.513 259.693 26.951 262.191 26.951C264.689 26.951 266.952 27.513 268.982 28.6371C271.011 29.7299 272.604 31.2911 273.759 33.3206C274.946 35.3502 275.539 37.6919 275.539 40.3459C275.539 43 274.93 45.3417 273.712 47.3713C272.526 49.4008 270.902 50.9776 268.841 52.1017C266.812 53.1945 264.533 53.7409 262.003 53.7409ZM262.003 48.027C263.19 48.027 264.298 47.746 265.329 47.1839C266.39 46.5907 267.233 45.7164 267.858 44.5611C268.482 43.4059 268.795 42.0008 268.795 40.3459C268.795 37.8793 268.139 35.9902 266.827 34.6788C265.547 33.3362 263.971 32.6649 262.097 32.6649C260.224 32.6649 258.647 33.3362 257.367 34.6788C256.118 35.9902 255.493 37.8793 255.493 40.3459C255.493 42.8126 256.102 44.7173 257.32 46.0599C258.569 47.3713 260.13 48.027 262.003 48.027Z" fill="#2F1708"/>
<path d="M184.733 26.9979C187.918 26.9979 190.478 27.9814 192.414 29.9485C194.381 31.8844 195.365 34.6008 195.365 38.0979V53.3194H188.808V38.9878C188.808 36.9582 188.293 35.4126 187.262 34.351C186.232 33.2582 184.827 32.7118 183.047 32.7118C181.268 32.7118 179.847 33.2582 178.785 34.351C177.755 35.4126 177.24 36.9582 177.24 38.9878V53.3194H170.683V38.9878C170.683 36.9582 170.167 35.4126 169.137 34.351C168.107 33.2582 166.702 32.7118 164.922 32.7118C163.111 32.7118 161.675 33.2582 160.613 34.351C159.583 35.4126 159.067 36.9582 159.067 38.9878V53.3194H152.51V26.9979H159.067V30.5105C159.911 29.4177 160.988 28.559 162.299 27.9346C163.642 27.3101 165.109 26.9979 166.702 26.9979C168.731 26.9979 170.542 27.435 172.135 28.3093C173.727 29.1523 174.96 30.37 175.835 31.9624C176.678 30.4637 177.895 29.2616 179.488 28.3561C181.111 27.4506 182.86 26.9979 184.733 26.9979Z" fill="#2F1708"/>
<path d="M144.91 28.1688C143.568 28.9493 142.475 30.0266 141.632 31.4004V27.3725H135.075V53.3194H141.632V40.3928C141.632 37.9886 142.147 36.3025 143.177 35.3346C144.239 34.3667 145.8 33.8827 147.861 33.8827H149.594V26.9979C147.845 26.9979 146.284 27.3882 144.91 28.1688Z" fill="#2F1708"/>
<path fill-rule="evenodd" clip-rule="evenodd" d="M131.789 39.7839C131.789 40.7206 131.727 41.5637 131.602 42.313H112.633C112.789 44.1865 113.445 45.654 114.6 46.7156C115.756 47.7772 117.176 48.308 118.862 48.308C121.298 48.308 123.031 47.262 124.061 45.17H131.133C130.384 47.6679 128.948 49.7287 126.824 51.3523C124.701 52.9447 122.094 53.7409 119.003 53.7409C116.505 53.7409 114.257 53.1945 112.259 52.1017C110.292 50.9776 108.746 49.4008 107.622 47.3713C106.529 45.3417 105.983 43 105.983 40.3459C105.983 37.6607 106.529 35.3033 107.622 33.2738C108.715 31.2442 110.245 29.6831 112.212 28.5902C114.179 27.4974 116.443 26.951 119.003 26.951C121.47 26.951 123.671 27.4818 125.607 28.5434C127.574 29.605 129.088 31.1193 130.15 33.0864C131.243 35.0223 131.789 37.2548 131.789 39.7839ZM124.998 37.9105C124.967 36.2244 124.358 34.8818 123.171 33.8826C121.985 32.8523 120.533 32.3371 118.816 32.3371C117.192 32.3371 115.818 32.8367 114.694 33.8358C113.601 34.8037 112.93 36.162 112.68 37.9105H124.998Z" fill="#2F1708"/>
<path fill-rule="evenodd" clip-rule="evenodd" d="M103.249 35.6624C104.092 34.1325 104.513 32.4932 104.513 30.7447C104.513 28.8088 104.061 27.0759 103.155 25.546C102.281 24.016 100.954 22.8139 99.1741 21.9396C97.3944 21.0654 95.2399 20.6282 92.7108 20.6282H80.6741V53.3194H87.231V40.7675H92.7108C95.396 40.7675 97.6129 40.2992 99.3614 39.3624C101.141 38.4257 102.437 37.1924 103.249 35.6624ZM96.4576 34.2574C95.5834 35.0692 94.2408 35.4751 92.4298 35.4751H87.231V25.9675H92.4298C95.9893 25.9675 97.769 27.5599 97.769 30.7447C97.769 32.2434 97.3319 33.4143 96.4576 34.2574Z" fill="#2F1708"/>
<path d="M242.272 24.2814C241.117 24.2814 240.149 23.9223 239.368 23.2042C238.619 22.4548 238.244 21.5337 238.244 20.4409C238.244 19.348 238.619 18.4425 239.368 17.7244C240.149 16.975 241.117 16.6003 242.272 16.6003C243.427 16.6003 244.379 16.975 245.129 17.7244C245.909 18.4425 246.3 19.348 246.3 20.4409C246.3 21.5337 245.909 22.4548 245.129 23.2042C244.379 23.9223 243.427 24.2814 242.272 24.2814Z" fill="#2F1708"/>
<path d="M245.504 53.3194V27.3725H238.947V53.3194H245.504Z" fill="#2F1708"/>
<path d="M232.005 53.7409C230.85 53.7409 229.882 53.3818 229.101 52.6637C228.352 51.9143 227.977 50.9932 227.977 49.9004C227.977 48.8076 228.352 47.9021 229.101 47.1839C229.882 46.4346 230.85 46.0599 232.005 46.0599C233.161 46.0599 234.113 46.4346 234.862 47.1839C235.643 47.9021 236.033 48.8076 236.033 49.9004C236.033 50.9932 235.643 51.9143 234.862 52.6637C234.113 53.3818 233.161 53.7409 232.005 53.7409Z" fill="#2F1708"/>
<path d="M200.509 23.2042C201.289 23.9223 202.257 24.2814 203.412 24.2814C204.568 24.2814 205.52 23.9223 206.269 23.2042C207.05 22.4548 207.44 21.5337 207.44 20.4409C207.44 19.348 207.05 18.4425 206.269 17.7244C205.52 16.975 204.568 16.6003 203.412 16.6003C202.257 16.6003 201.289 16.975 200.509 17.7244C199.759 18.4425 199.385 19.348 199.385 20.4409C199.385 21.5337 199.759 22.4548 200.509 23.2042Z" stroke="#2F1708" stroke-width="0.4" mask="url(#path-2-outside-1_22134_75765)"/>
<path d="M206.644 53.3194V27.3725H200.087V53.3194H206.644Z" stroke="#2F1708" stroke-width="0.4" mask="url(#path-2-outside-1_22134_75765)"/>
<path d="M219.257 32.7586V45.3105C219.257 46.1848 219.46 46.8249 219.865 47.2308C220.303 47.6055 221.021 47.7928 222.02 47.7928H225.064V53.3194H220.943C215.416 53.3194 212.653 50.6342 212.653 45.2637V32.7586H209.562V27.3725H212.653V20.9561H219.257V27.3725H225.064V32.7586H219.257Z" stroke="#2F1708" stroke-width="0.4" mask="url(#path-2-outside-1_22134_75765)"/>
<path fill-rule="evenodd" clip-rule="evenodd" d="M262.003 53.7409C259.506 53.7409 257.257 53.1945 255.259 52.1017C253.261 50.9776 251.684 49.4008 250.529 47.3713C249.405 45.3417 248.843 43 248.843 40.3459C248.843 37.6919 249.42 35.3502 250.576 33.3206C251.762 31.2911 253.37 29.7299 255.4 28.6371C257.429 27.513 259.693 26.951 262.191 26.951C264.689 26.951 266.952 27.513 268.982 28.6371C271.011 29.7299 272.604 31.2911 273.759 33.3206C274.946 35.3502 275.539 37.6919 275.539 40.3459C275.539 43 274.93 45.3417 273.712 47.3713C272.526 49.4008 270.902 50.9776 268.841 52.1017C266.812 53.1945 264.533 53.7409 262.003 53.7409ZM262.003 48.027C263.19 48.027 264.298 47.746 265.329 47.1839C266.39 46.5907 267.233 45.7164 267.858 44.5611C268.482 43.4059 268.795 42.0008 268.795 40.3459C268.795 37.8793 268.139 35.9902 266.827 34.6788C265.547 33.3362 263.971 32.6649 262.097 32.6649C260.224 32.6649 258.647 33.3362 257.367 34.6788C256.118 35.9902 255.493 37.8793 255.493 40.3459C255.493 42.8126 256.102 44.7173 257.32 46.0599C258.569 47.3713 260.13 48.027 262.003 48.027Z" stroke="#2F1708" stroke-width="0.4" mask="url(#path-2-outside-1_22134_75765)"/>
<path d="M184.733 26.9979C187.918 26.9979 190.478 27.9814 192.414 29.9485C194.381 31.8844 195.365 34.6008 195.365 38.0979V53.3194H188.808V38.9878C188.808 36.9582 188.293 35.4126 187.262 34.351C186.232 33.2582 184.827 32.7118 183.047 32.7118C181.268 32.7118 179.847 33.2582 178.785 34.351C177.755 35.4126 177.24 36.9582 177.24 38.9878V53.3194H170.683V38.9878C170.683 36.9582 170.167 35.4126 169.137 34.351C168.107 33.2582 166.702 32.7118 164.922 32.7118C163.111 32.7118 161.675 33.2582 160.613 34.351C159.583 35.4126 159.067 36.9582 159.067 38.9878V53.3194H152.51V26.9979H159.067V30.5105C159.911 29.4177 160.988 28.559 162.299 27.9346C163.642 27.3101 165.109 26.9979 166.702 26.9979C168.731 26.9979 170.542 27.435 172.135 28.3093C173.727 29.1523 174.96 30.37 175.835 31.9624C176.678 30.4637 177.895 29.2616 179.488 28.3561C181.111 27.4506 182.86 26.9979 184.733 26.9979Z" stroke="#2F1708" stroke-width="0.4" mask="url(#path-2-outside-1_22134_75765)"/>
<path d="M144.91 28.1688C143.568 28.9493 142.475 30.0266 141.632 31.4004V27.3725H135.075V53.3194H141.632V40.3928C141.632 37.9886 142.147 36.3025 143.177 35.3346C144.239 34.3667 145.8 33.8827 147.861 33.8827H149.594V26.9979C147.845 26.9979 146.284 27.3882 144.91 28.1688Z" stroke="#2F1708" stroke-width="0.4" mask="url(#path-2-outside-1_22134_75765)"/>
<path fill-rule="evenodd" clip-rule="evenodd" d="M131.789 39.7839C131.789 40.7206 131.727 41.5637 131.602 42.313H112.633C112.789 44.1865 113.445 45.654 114.6 46.7156C115.756 47.7772 117.176 48.308 118.862 48.308C121.298 48.308 123.031 47.262 124.061 45.17H131.133C130.384 47.6679 128.948 49.7287 126.824 51.3523C124.701 52.9447 122.094 53.7409 119.003 53.7409C116.505 53.7409 114.257 53.1945 112.259 52.1017C110.292 50.9776 108.746 49.4008 107.622 47.3713C106.529 45.3417 105.983 43 105.983 40.3459C105.983 37.6607 106.529 35.3033 107.622 33.2738C108.715 31.2442 110.245 29.6831 112.212 28.5902C114.179 27.4974 116.443 26.951 119.003 26.951C121.47 26.951 123.671 27.4818 125.607 28.5434C127.574 29.605 129.088 31.1193 130.15 33.0864C131.243 35.0223 131.789 37.2548 131.789 39.7839ZM124.998 37.9105C124.967 36.2244 124.358 34.8818 123.171 33.8826C121.985 32.8523 120.533 32.3371 118.816 32.3371C117.192 32.3371 115.818 32.8367 114.694 33.8358C113.601 34.8037 112.93 36.162 112.68 37.9105H124.998Z" stroke="#2F1708" stroke-width="0.4" mask="url(#path-2-outside-1_22134_75765)"/>
<path fill-rule="evenodd" clip-rule="evenodd" d="M103.249 35.6624C104.092 34.1325 104.513 32.4932 104.513 30.7447C104.513 28.8088 104.061 27.0759 103.155 25.546C102.281 24.016 100.954 22.8139 99.1741 21.9396C97.3944 21.0654 95.2399 20.6282 92.7108 20.6282H80.6741V53.3194H87.231V40.7675H92.7108C95.396 40.7675 97.6129 40.2992 99.3614 39.3624C101.141 38.4257 102.437 37.1924 103.249 35.6624ZM96.4576 34.2574C95.5834 35.0692 94.2408 35.4751 92.4298 35.4751H87.231V25.9675H92.4298C95.9893 25.9675 97.769 27.5599 97.769 30.7447C97.769 32.2434 97.3319 33.4143 96.4576 34.2574Z" stroke="#2F1708" stroke-width="0.4" mask="url(#path-2-outside-1_22134_75765)"/>
<path d="M242.272 24.2814C241.117 24.2814 240.149 23.9223 239.368 23.2042C238.619 22.4548 238.244 21.5337 238.244 20.4409C238.244 19.348 238.619 18.4425 239.368 17.7244C240.149 16.975 241.117 16.6003 242.272 16.6003C243.427 16.6003 244.379 16.975 245.129 17.7244C245.909 18.4425 246.3 19.348 246.3 20.4409C246.3 21.5337 245.909 22.4548 245.129 23.2042C244.379 23.9223 243.427 24.2814 242.272 24.2814Z" stroke="#2F1708" stroke-width="0.4" mask="url(#path-2-outside-1_22134_75765)"/>
<path d="M245.504 53.3194V27.3725H238.947V53.3194H245.504Z" stroke="#2F1708" stroke-width="0.4" mask="url(#path-2-outside-1_22134_75765)"/>
<path d="M232.005 53.7409C230.85 53.7409 229.882 53.3818 229.101 52.6637C228.352 51.9143 227.977 50.9932 227.977 49.9004C227.977 48.8076 228.352 47.9021 229.101 47.1839C229.882 46.4346 230.85 46.0599 232.005 46.0599C233.161 46.0599 234.113 46.4346 234.862 47.1839C235.643 47.9021 236.033 48.8076 236.033 49.9004C236.033 50.9932 235.643 51.9143 234.862 52.6637C234.113 53.3818 233.161 53.7409 232.005 53.7409Z" stroke="#2F1708" stroke-width="0.4" mask="url(#path-2-outside-1_22134_75765)"/>
<defs>
<clipPath id="clip0_22134_75765">
<rect width="54.674" height="56.3412" fill="white" transform="translate(12 8)"/>
</clipPath>
</defs>
</svg>
