<svg width="191" height="177" viewBox="0 0 191 177" fill="none" xmlns="http://www.w3.org/2000/svg">
<path fill-rule="evenodd" clip-rule="evenodd" d="M83.4124 76.9243H107.862C117.454 79.2018 125.166 84.083 129.05 90.2782V108.556C123.62 117.219 110.706 123.312 95.6371 123.312C80.5681 123.312 67.6544 117.218 62.2246 108.556V90.2782C66.1085 84.083 73.8209 79.2018 83.4124 76.9243Z" fill="#3A2F26"/>
<path fill-rule="evenodd" clip-rule="evenodd" d="M108.935 121.643C104.819 122.72 100.333 123.312 95.637 123.312C90.9411 123.312 86.4547 122.72 82.3389 121.643L82.3379 121.578C82.3379 113.81 88.2919 107.514 95.637 107.514C102.982 107.514 108.936 113.81 108.936 121.578L108.935 121.643Z" fill="#2F261F"/>
<path fill-rule="evenodd" clip-rule="evenodd" d="M95.6371 110.13C101.616 110.13 106.463 115.256 106.463 121.579C106.463 127.902 101.616 133.028 95.6371 133.028C89.6582 133.028 84.8115 127.902 84.8115 121.579C84.8115 115.256 89.6585 110.13 95.6371 110.13Z" fill="#6649C7"/>
<path fill-rule="evenodd" clip-rule="evenodd" d="M96.6198 111.562C107.515 111.562 107.515 127.679 96.6198 127.679C85.7244 127.679 85.7244 111.562 96.6198 111.562Z" fill="#7151DD"/>
<path d="M109.105 21.6985C100.081 20.5324 91.0577 20.5903 82.0337 21.6985C78.8977 15.954 66.417 0 60.8303 0C58.4555 0 56.5304 2.03592 56.5304 4.54779L47.7253 74.1834C45.299 93.3736 76.2706 113.987 95.6367 113.987C115.003 113.987 145.974 93.374 143.548 74.1834L134.743 4.54779C134.743 2.03592 132.818 0 130.443 0C124.856 0 112.241 15.9543 109.105 21.6985Z" fill="url(#paint0_linear_1329_491)"/>
<path d="M131.766 97.9401C139.474 90.9208 144.59 82.4218 143.548 74.1834C140.614 50.9714 137.679 27.7598 134.744 4.54779C134.744 2.03592 132.819 0 130.444 0C124.857 0 112.242 15.954 109.106 21.6985C104.361 28.3578 99.4247 35.609 95.6371 45.8487C93.1727 52.5109 94.5283 59.9741 95.6371 70.4457C95.6371 86.796 108.402 106.477 131.766 97.9401Z" fill="url(#paint1_linear_1329_491)"/>
<path fill-rule="evenodd" clip-rule="evenodd" d="M129.564 12.7377C130.225 18.2061 130.532 20.3748 130.911 24.8182C131.048 26.4221 131.31 27.423 129.78 26.9949C125.622 25.8328 123.602 25.2668 119.444 24.1043C117.595 23.5873 116.152 23.6571 117.238 22.0568C120.019 17.958 122.901 14.2735 126.84 11.1871C128.798 9.65302 129.269 10.3014 129.564 12.7377ZM61.71 12.7377C61.0489 18.2061 60.7415 20.3748 60.3626 24.8182C60.2258 26.4221 59.9633 27.423 61.4939 26.9949C65.6515 25.8328 67.6712 25.2668 71.8295 24.1043C73.6791 23.5873 75.1214 23.6571 74.0355 22.0568C71.2542 17.958 68.3732 14.2735 64.4341 11.1871C62.4757 9.65302 62.0045 10.3014 61.71 12.7377Z" fill="#FDFDFD"/>
<path d="M95.6367 105.493C75.0971 105.493 58.4949 90.7999 68.4656 77.5306C73.1053 71.3558 82.5225 66.5744 86.4643 64.555C95.7358 59.8057 93.0542 47.6107 85.8209 47.6107C84.7904 47.6107 81.2125 47.6013 78.6086 47.6013C71.8753 47.6013 66.61 46.7812 66.61 35.3987H70.0275C71.5315 35.3987 72.0564 35.3379 72.0564 36.9706C72.0564 38.3484 72.1667 39.7985 73.2949 40.4963C73.8617 40.8469 74.8064 41.0266 76.1586 41.0374C77.4992 41.0482 82.757 41.0748 86.5657 41.0748C90.9889 41.0748 94.0347 41.9853 95.6371 45.8483C97.2394 41.9853 100.285 41.0748 104.708 41.0748C108.517 41.0748 113.775 41.0482 115.116 41.0374C116.468 41.0266 117.412 40.8466 117.979 40.4963C119.107 39.7985 119.217 38.348 119.217 36.9706C119.217 35.3379 119.742 35.3987 121.247 35.3987H124.664C124.664 46.7812 119.398 47.6013 112.665 47.6013C110.062 47.6013 106.483 47.6107 105.453 47.6107C98.2195 47.6107 95.538 59.806 104.809 64.555C108.751 66.574 118.168 71.3555 122.808 77.5306C132.779 90.7999 116.176 105.493 95.6367 105.493Z" fill="white"/>
<path d="M106.228 75.6707C107.225 77.0362 107.077 79.0808 105.9 80.2364C96.6196 89.3324 94.6703 89.3486 85.3736 80.2364C84.1957 79.0808 84.0486 77.0366 85.0454 75.6707C88.049 72.1878 103.346 72.3293 106.228 75.6707Z" fill="#3A2F26"/>
<path fill-rule="evenodd" clip-rule="evenodd" d="M80.0796 51.6729C82.9294 51.6729 85.2395 54.116 85.2395 57.1301C85.2395 60.1438 82.9294 62.5869 80.0796 62.5869C77.2296 62.5869 74.9194 60.1438 74.9194 57.1301C74.9194 54.116 77.2296 51.6729 80.0796 51.6729Z" fill="#3A2F26"/>
<path fill-rule="evenodd" clip-rule="evenodd" d="M81.9644 53.7046C82.6221 53.7622 83.2747 54.4405 83.4221 55.2199C83.5698 55.9994 83.1566 56.5848 82.4992 56.5272C81.8419 56.4696 81.1893 55.7913 81.0415 55.0118C80.8941 54.2324 81.3074 53.647 81.9644 53.7046Z" fill="white"/>
<path fill-rule="evenodd" clip-rule="evenodd" d="M111.195 51.6729C114.045 51.6729 116.354 54.116 116.354 57.1301C116.354 60.1438 114.045 62.5869 111.195 62.5869C108.345 62.5869 106.035 60.1438 106.035 57.1301C106.035 54.116 108.345 51.6729 111.195 51.6729Z" fill="#3A2F26"/>
<path fill-rule="evenodd" clip-rule="evenodd" d="M113.08 53.7046C113.738 53.7622 114.39 54.4405 114.538 55.2199C114.685 55.9994 114.273 56.5848 113.615 56.5272C112.958 56.4696 112.305 55.7913 112.157 55.0118C112.01 54.2324 112.423 53.647 113.08 53.7046Z" fill="white"/>
<path d="M78.2402 92.4024C77.9172 91.8077 78.1112 91.0477 78.6736 90.706C79.236 90.3644 79.9546 90.5692 80.2777 91.164C80.7488 92.0273 81.4981 92.7052 82.3468 93.1866C83.3405 93.75 84.4578 94.0366 85.4327 94.0366C87.3629 94.0366 88.4639 93.2272 90.2814 92.5086C95.413 90.4806 95.6673 90.4068 100.799 92.4345C102.616 93.1531 103.911 94.0366 105.841 94.0366C106.816 94.0366 107.933 93.75 108.927 93.1866C109.775 92.7052 110.524 92.0273 110.996 91.164C111.319 90.5692 112.037 90.364 112.6 90.706C113.162 91.048 113.356 91.8077 113.033 92.4024C112.324 93.7003 111.241 94.6947 110.033 95.3802C108.685 96.1445 107.168 96.533 105.841 96.533C103.51 96.533 101.242 95.6365 99.2268 94.8398C95.7 93.4461 95.5737 93.4461 92.0465 94.8398C90.0319 95.6365 87.7636 96.533 85.4327 96.533C84.1061 96.533 82.5881 96.1445 81.2404 95.3802C80.0315 94.6947 78.9487 93.7007 78.2402 92.4024Z" fill="#3A2F26"/>
<path fill-rule="evenodd" clip-rule="evenodd" d="M90.596 120.409L88.1582 122.987L93.8276 128.983L103.115 119.161L100.677 116.582L93.8276 123.826L90.596 120.409Z" fill="white"/>
<path d="M0 175.877V142.209H13.4414C13.7566 142.209 14.177 142.209 14.7016 142.246C15.2095 142.264 15.6821 142.32 16.1018 142.393C17.9929 142.708 19.55 143.374 20.7748 144.374C21.9833 145.392 22.8756 146.669 23.4533 148.205C24.031 149.742 24.3108 151.445 24.3108 153.333C24.3108 155.221 24.031 156.923 23.4533 158.459C22.8582 159.995 21.965 161.272 20.7581 162.291C19.533 163.309 17.9748 163.957 16.1021 164.272C15.6824 164.346 15.2099 164.383 14.685 164.42C14.1423 164.457 13.7396 164.457 13.4417 164.457H6.02111V175.877H0V175.877ZM6.02043 158.534H13.1789C13.4941 158.534 13.8264 158.515 14.1934 158.478C14.5614 158.441 14.8943 158.386 15.2089 158.293C16.0143 158.052 16.6438 157.664 17.0815 157.108C17.5367 156.553 17.8339 155.943 18.0089 155.258C18.1842 154.59 18.2543 153.943 18.2543 153.333C18.2543 152.722 18.1842 152.074 18.0089 151.407C17.8339 150.722 17.5367 150.111 17.0815 149.556C16.6438 149 16.0143 148.612 15.2089 148.371C14.894 148.278 14.561 148.224 14.1934 148.187C13.8264 148.167 13.4941 148.149 13.1789 148.149H6.02043V158.534V158.534ZM38.6795 176.58C36.2298 176.58 34.0766 176.007 32.2213 174.896C30.3486 173.785 28.8957 172.249 27.8461 170.287C26.7959 168.344 26.253 166.104 26.253 163.568C26.253 160.81 26.7779 158.422 27.8111 156.367C28.8436 154.332 30.2608 152.74 32.064 151.611C33.8843 150.481 35.967 149.926 38.3292 149.926C40.8327 149.926 42.9675 150.537 44.7183 151.796C46.4681 153.035 47.7634 154.794 48.604 157.052C49.4434 159.31 49.7413 161.976 49.4966 165.03H46.5907H43.5452H32.7296C32.9222 166.529 33.377 167.77 34.077 168.695C35.04 169.991 36.4569 170.638 38.3296 170.638C39.503 170.638 40.5178 170.361 41.358 169.824C42.1985 169.269 42.828 168.492 43.2831 167.455L49.2868 169.288C48.3939 171.582 46.976 173.378 45.0336 174.655C43.1074 175.932 40.9726 176.58 38.6795 176.58ZM43.405 160.31C43.23 158.941 42.8971 157.867 42.3902 157.126C41.6201 155.997 40.3418 155.442 38.592 155.442C36.5444 155.442 35.0393 156.09 34.0763 157.404C33.5159 158.163 33.1316 159.125 32.8862 160.31H43.405V160.31ZM53.7488 175.877V150.63H59.052V156.794L58.4743 155.997C58.7895 155.128 59.2099 154.332 59.7175 153.61C60.2424 152.907 60.8722 152.314 61.6246 151.833C62.2023 151.463 62.815 151.166 63.4972 150.963C64.1798 150.741 64.8801 150.611 65.5973 150.556C66.3146 150.5 67.0506 150.537 67.7679 150.629V156.553C67.1024 156.349 66.333 156.257 65.4574 156.33C64.5818 156.405 63.7944 156.627 63.0768 156.979C62.3772 157.33 61.7815 157.774 61.292 158.348C60.8018 158.922 60.4344 159.589 60.1893 160.348C59.9269 161.125 59.804 161.994 59.804 162.976V175.877H53.7488ZM99.9892 175.877V160.958C99.9892 159.292 99.6215 157.978 98.8689 157.052C98.1342 156.127 97.101 155.664 95.7883 155.664C94.9485 155.664 94.2135 155.868 93.6011 156.294C92.9883 156.701 92.4981 157.275 92.1659 158.015C91.8156 158.756 91.6406 159.607 91.6406 160.588V175.876H85.6202V160.958C85.6202 159.292 85.2528 157.978 84.5172 157.052C83.7648 156.127 82.7323 155.664 81.4193 155.664C80.1771 155.664 79.1616 156.127 78.4093 157.034C77.6566 157.941 77.2716 159.126 77.2716 160.588V175.876H71.2161V150.629H76.5189V153.388C77.2014 152.481 78.0593 151.74 79.0741 151.166C80.3868 150.39 81.8567 150.019 83.5017 150.019C85.3744 150.019 86.9151 150.444 88.1046 151.278C89.1027 151.981 89.8908 152.869 90.4501 153.942C91.2025 152.758 92.1829 151.814 93.3907 151.129C94.7034 150.389 96.1383 150.019 97.7308 150.019C100.462 150.019 102.527 150.87 103.909 152.573C105.309 154.276 106.01 156.516 106.01 159.273V175.876H99.9892V175.877ZM111.488 147.113V141.504H117.492V147.113H111.488ZM111.488 175.877V150.63H117.492V175.877H111.488ZM137.742 175.877C136.078 176.192 134.469 176.34 132.893 176.303C131.301 176.266 129.883 175.97 128.641 175.414C127.398 174.859 126.452 173.971 125.805 172.73C125.21 171.583 124.895 170.416 124.877 169.214C124.842 168.029 124.825 166.677 124.825 165.16V155.535H120.765V150.63H124.825V143.616H130.846V150.63H137.742V155.535H130.846V164.789C130.846 165.771 130.863 166.659 130.881 167.437C130.899 168.233 131.038 168.862 131.319 169.325C131.862 170.213 132.701 170.695 133.874 170.768C135.029 170.861 136.324 170.787 137.742 170.584V175.877H137.742ZM143.307 175.877V169.51H149.31V175.877H143.307ZM156.206 147.113V141.504H162.227V147.113H156.206ZM156.206 175.877V150.63H162.227V175.877H156.206ZM178.889 176.58C176.474 176.58 174.373 176.007 172.553 174.859C170.75 173.73 169.333 172.157 168.335 170.157C167.32 168.14 166.812 165.845 166.812 163.253C166.812 160.606 167.337 158.293 168.352 156.294C169.385 154.295 170.82 152.722 172.623 151.611C174.443 150.481 176.525 149.926 178.889 149.926C181.286 149.926 183.404 150.5 185.224 151.629C187.045 152.758 188.462 154.331 189.477 156.33C190.492 158.33 191 160.643 191 163.253C191 165.863 190.492 168.177 189.46 170.176C188.445 172.175 187.01 173.748 185.189 174.878C183.369 176.007 181.269 176.58 178.889 176.58ZM178.889 170.639C180.814 170.639 182.249 169.936 183.211 168.566C184.157 167.178 184.63 165.419 184.63 163.253C184.63 160.996 184.157 159.218 183.195 157.867C182.214 156.534 180.779 155.868 178.889 155.868C177.576 155.868 176.491 156.164 175.651 156.793C174.811 157.423 174.198 158.293 173.796 159.385C173.393 160.495 173.183 161.791 173.183 163.253C173.183 165.511 173.674 167.307 174.636 168.639C175.598 169.973 177.017 170.639 178.889 170.639Z" fill="#3A2F26"/>
<defs>
<linearGradient id="paint0_linear_1329_491" x1="95.6366" y1="112.411" x2="95.6366" y2="-0.461833" gradientUnits="userSpaceOnUse">
<stop stop-color="#FCAE75"/>
<stop offset="1" stop-color="#974EF2"/>
</linearGradient>
<linearGradient id="paint1_linear_1329_491" x1="118.967" y1="101.61" x2="118.967" y2="0.434261" gradientUnits="userSpaceOnUse">
<stop stop-color="#FFC698"/>
<stop offset="1" stop-color="#BD87E9"/>
</linearGradient>
</defs>
</svg>
