<svg width="107" height="28" viewBox="0 0 107 28" fill="none" xmlns="http://www.w3.org/2000/svg">
<g clip-path="url(#clip0_9004_9284)">
<path d="M19.0748 3.60742C18.4218 3.60742 17.8575 5.00221 17.8575 7.15145C17.027 6.95491 16.1394 6.84714 15.1821 6.84714C14.2248 6.84714 13.3372 6.95491 12.5066 7.15145C12.5066 5.00221 11.936 3.60742 11.2894 3.60742C8.75972 3.60742 5.10156 14.3917 5.10156 16.4268C5.10156 18.4619 9.16547 24.3898 15.1821 24.3898C21.1987 24.3898 25.2626 18.4619 25.2626 16.4268C25.2626 14.3917 21.6108 3.60742 19.0748 3.60742ZM20.159 13.9923L14.9729 19.1783C14.5861 19.5651 13.9521 19.5651 13.5654 19.1783L10.2116 15.8245C9.97065 15.5836 9.97065 15.1842 10.2116 14.9432L10.9914 14.1634C11.2323 13.9225 11.6317 13.9225 11.8726 14.1634L14.2755 16.5663L18.5106 12.3312C18.7515 12.0903 19.1509 12.0903 19.3918 12.3312L20.1716 13.111C20.4125 13.3519 20.4125 13.7513 20.1716 13.9923H20.159Z" fill="#2F1708"/>
</g>
<path d="M94.8136 19.907L94.814 19.9072C95.557 20.3136 96.3924 20.5164 97.3194 20.5164C98.2578 20.5164 99.1047 20.3136 99.8592 19.9074L99.8594 19.9073C100.625 19.4895 101.229 18.9031 101.67 18.1488C102.123 17.3938 102.349 16.5234 102.349 15.5386C102.349 14.554 102.129 13.6837 101.688 12.9288C101.258 12.1744 100.666 11.5936 99.9112 11.1872C99.1568 10.7694 98.3156 10.5608 97.3885 10.5608C96.4614 10.5608 95.6203 10.7694 94.8658 11.1872C94.1112 11.5936 93.5132 12.1743 93.0722 12.9286L93.0722 12.9286L93.072 12.9289C92.6423 13.6839 92.428 14.5541 92.428 15.5386C92.428 16.5229 92.6364 17.393 93.0545 18.1479L93.0547 18.1482C93.4841 18.9026 94.0705 19.4891 94.8136 19.907ZM92.4648 15.5386C92.4648 14.5596 92.6779 13.6958 93.1041 12.9472L99.8417 19.8749C99.0931 20.278 98.2523 20.4795 97.3194 20.4795C96.398 20.4795 95.5688 20.278 94.8317 19.8749C94.0945 19.4602 93.5129 18.8786 93.0868 18.13C92.6722 17.3814 92.4648 16.5176 92.4648 15.5386ZM99.0721 13.4737L99.0721 13.4737L99.0728 13.4743C99.5475 13.949 99.7875 14.6352 99.7875 15.5386C99.7875 16.1445 99.6732 16.6564 99.4465 17.0759C99.2192 17.4963 98.9131 17.8135 98.5282 18.0286C98.1536 18.2329 97.7509 18.335 97.3194 18.335C96.6382 18.335 96.0722 18.0971 95.6188 17.6212C95.1779 17.1348 94.9549 16.4424 94.9549 15.5386C94.9549 14.6347 95.1837 13.9483 95.6358 13.4736C96.101 12.9858 96.6729 12.7422 97.354 12.7422C98.035 12.7422 98.607 12.9858 99.0721 13.4737Z" fill="#2F1708" stroke="#2F1708" stroke-width="0.0737732"/>
<path d="M83.7318 18.2859V18.249H83.6949H82.572C82.2072 18.249 81.9536 18.1804 81.8024 18.0515C81.6631 17.9115 81.5896 17.6872 81.5896 17.3702V12.7772H83.6949H83.7318V12.7403V10.7535V10.7166H83.6949H81.5896V8.38672V8.34983H81.5527H79.1168H79.0799V8.38672V10.7166H77.9766H77.9397V10.7535V12.7403V12.7772H77.9766H79.0799V17.353C79.0799 18.3494 79.3363 19.1035 79.8555 19.608C80.3746 20.1124 81.1499 20.3613 82.1746 20.3613H83.6949H83.7318V20.3244V18.2859Z" fill="#2F1708" stroke="#2F1708" stroke-width="0.0737732"/>
<path d="M74.6151 9.24132L74.6151 9.2413C74.3315 8.95773 74.1897 8.60848 74.1897 8.19593C74.1897 7.78337 74.3316 7.43957 74.6156 7.16731L74.6151 9.24132ZM74.6151 9.24132L74.6162 9.24236M74.6151 9.24132L74.6162 9.24236M74.6162 9.24236C74.9116 9.51411 75.2778 9.64945 75.7123 9.64945C76.1468 9.64945 76.5076 9.51409 76.7917 9.24185L76.7917 9.24182M74.6162 9.24236L76.7917 9.24182M76.7917 9.24182C77.0869 8.95837 77.2349 8.60897 77.2349 8.19593C77.2349 7.78312 77.0871 7.43933 76.7917 7.16729C76.5078 6.88367 76.147 6.74241 75.7123 6.74241C75.2773 6.74241 74.9109 6.88382 74.6157 7.1673L76.7917 9.24182ZM76.9412 10.7528V10.7159H76.9043H74.4857H74.4488V10.7528V20.3237V20.3606H74.4857H76.9043H76.9412V20.3237V10.7528Z" fill="#2F1708" stroke="#2F1708" stroke-width="0.0737732"/>
<path d="M72.7412 20.3612H72.778V20.3244V14.7096C72.778 13.4127 72.4131 12.4003 71.6789 11.6775C70.9568 10.9439 70.0024 10.5783 68.8195 10.5783C68.1222 10.5783 67.4711 10.7469 66.8666 11.084L66.8664 11.0842C66.2937 11.4098 65.8504 11.839 65.5375 12.3718C65.2137 11.806 64.7643 11.3707 64.1897 11.0665C63.5964 10.7408 62.9222 10.5783 62.1682 10.5783C61.5759 10.5783 61.0292 10.6945 60.5287 10.9273L60.5284 10.9275C60.0733 11.1442 59.6934 11.4369 59.3891 11.8056V10.6152V10.5783H59.3522H56.9336H56.8967V10.6152V20.3244V20.3612H56.9336H59.3522H59.3891V20.3244V15.0379C59.3891 14.2952 59.5776 13.7357 59.9488 13.3533C60.3322 12.9586 60.8517 12.7598 61.5117 12.7598C62.1601 12.7598 62.6679 12.9585 63.0397 13.3529L63.0397 13.3529L63.0401 13.3533C63.4113 13.7357 63.5998 14.2952 63.5998 15.0379V20.3244V20.3612H63.6367H66.0553H66.0922V20.3244V15.0379C66.0922 14.2952 66.2807 13.7357 66.6519 13.3533C67.0354 12.9585 67.5492 12.7598 68.1976 12.7598C68.8459 12.7598 69.3537 12.9585 69.7256 13.3529L69.7259 13.3533C70.0972 13.7357 70.2856 14.2952 70.2856 15.0379V20.3244V20.3612H70.3225H72.7412Z" fill="#2F1708" stroke="#2F1708" stroke-width="0.0737732"/>
<path d="M52.9555 12.1125V10.7534V10.7166H52.9186H50.5H50.4631V10.7534V20.3244V20.3612H50.5H52.9186H52.9555V20.3244V15.5562C52.9555 14.6729 53.1451 14.064 53.5138 13.7174C53.8961 13.369 54.4616 13.1917 55.2164 13.1917H55.8556H55.8925V13.1548V10.6152V10.5783H55.8556C55.2049 10.5783 54.6226 10.7236 54.1097 11.0151L54.1097 11.0151L54.1094 11.0152C53.6443 11.2857 53.2596 11.6516 52.9555 12.1125Z" fill="#2F1708" stroke="#2F1708" stroke-width="0.0737732"/>
<path d="M49.2156 16.3011H49.2469L49.252 16.2703C49.2985 15.9914 49.3216 15.6784 49.3216 15.3313C49.3216 14.393 49.1189 13.5633 48.7124 12.843C48.3174 12.1113 47.7537 11.5476 47.0219 11.1526C46.3018 10.7578 45.4836 10.5608 44.5684 10.5608C43.6185 10.5608 42.7772 10.7635 42.0454 11.1701C41.3135 11.5767 40.7442 12.1578 40.3378 12.9124C39.9314 13.6673 39.7287 14.543 39.7287 15.5386C39.7287 16.5227 39.9314 17.3927 40.3378 18.1475L40.338 18.1479C40.7558 18.9023 41.3307 19.4888 42.0623 19.9069L42.0629 19.9072C42.806 20.3136 43.6414 20.5164 44.5684 20.5164C45.7152 20.5164 46.685 20.2209 47.4756 19.628L47.4759 19.6278C48.265 19.0243 48.7995 18.2576 49.0782 17.3286L49.0924 17.2811H49.0429H46.4342H46.4112L46.4011 17.3017C46.2137 17.6822 45.9633 17.9658 45.6506 18.1546C45.3379 18.3434 44.9604 18.4386 44.5165 18.4386C43.9031 18.4386 43.3882 18.2458 42.9694 17.861C42.5595 17.4844 42.322 16.9656 42.2591 16.3011H49.2156ZM46.0817 13.1824L46.0822 13.1827C46.5021 13.5364 46.7223 14.0087 46.7418 14.6034H42.2789C42.3747 13.9856 42.6169 13.5072 43.0034 13.1648L43.0035 13.1648C43.4108 12.8027 43.9086 12.6213 44.4993 12.6213C45.1247 12.6213 45.6514 12.8087 46.0817 13.1824Z" fill="#2F1708" stroke="#2F1708" stroke-width="0.0737732"/>
<path d="M32.8522 20.3631H32.8891V20.3262V15.7331H34.8735C35.868 15.7331 36.6922 15.5597 37.344 15.2106C38.0058 14.8622 38.4896 14.4025 38.7931 13.8307C39.107 13.261 39.264 12.6503 39.264 11.9992C39.264 11.2792 39.0955 10.6335 38.758 10.063C38.4314 9.4916 37.936 9.04347 37.2739 8.7182C36.6111 8.39264 35.8106 8.23069 34.8735 8.23069H30.4336H30.3967V8.26758V20.3262V20.3631H30.4336H32.8522ZM36.2303 13.2681C35.9174 13.5585 35.4331 13.7072 34.7699 13.7072H32.8891V10.2739H34.7699C35.4216 10.2739 35.9036 10.4198 36.2224 10.7051C36.5404 10.9896 36.7025 11.4186 36.7025 11.9992C36.7025 12.5444 36.5438 12.9657 36.2303 13.2681Z" fill="#2F1708" stroke="#2F1708" stroke-width="0.0737732"/>
<mask id="path-9-outside-1_9004_9284" maskUnits="userSpaceOnUse" x="87.5586" y="5.7793" width="5" height="15" fill="black">
<rect fill="white" x="87.5586" y="5.7793" width="5" height="15"/>
<path fill-rule="evenodd" clip-rule="evenodd" d="M90.0443 9.61256C89.6182 9.61256 89.2612 9.48011 88.9732 9.21521C88.6968 8.9388 88.5586 8.59904 88.5586 8.19593C88.5586 7.79282 88.6968 7.45882 88.9732 7.19392C89.2612 6.91751 89.6182 6.7793 90.0443 6.7793C90.4705 6.7793 90.8218 6.91751 91.0982 7.19392C91.3861 7.45882 91.5301 7.79282 91.5301 8.19593C91.5301 8.59904 91.3861 8.9388 91.0982 9.21521C90.8218 9.48011 90.4705 9.61256 90.0443 9.61256ZM91.2395 20.3227V10.7518H88.8208V20.3227H91.2395Z"/>
</mask>
<path fill-rule="evenodd" clip-rule="evenodd" d="M90.0443 9.61256C89.6182 9.61256 89.2612 9.48011 88.9732 9.21521C88.6968 8.9388 88.5586 8.59904 88.5586 8.19593C88.5586 7.79282 88.6968 7.45882 88.9732 7.19392C89.2612 6.91751 89.6182 6.7793 90.0443 6.7793C90.4705 6.7793 90.8218 6.91751 91.0982 7.19392C91.3861 7.45882 91.5301 7.79282 91.5301 8.19593C91.5301 8.59904 91.3861 8.9388 91.0982 9.21521C90.8218 9.48011 90.4705 9.61256 90.0443 9.61256ZM91.2395 20.3227V10.7518H88.8208V20.3227H91.2395Z" fill="#2F1708"/>
<path d="M88.9732 9.21521L88.921 9.26743L88.9233 9.26951L88.9732 9.21521ZM88.9732 7.19392L89.0243 7.24718L89.0243 7.24714L88.9732 7.19392ZM91.0982 7.19392L91.046 7.24613L91.0482 7.24821L91.0982 7.19392ZM91.0982 9.21521L91.1492 9.26848L91.1493 9.26843L91.0982 9.21521ZM91.2395 10.7518H91.3133V10.678H91.2395V10.7518ZM91.2395 20.3227V20.3965H91.3133V20.3227H91.2395ZM88.8208 10.7518V10.678H88.7471V10.7518H88.8208ZM88.8208 20.3227H88.7471V20.3965H88.8208V20.3227ZM88.9233 9.26951C89.2261 9.5481 89.6015 9.68634 90.0443 9.68634V9.53879C89.6349 9.53879 89.2962 9.41213 89.0232 9.16092L88.9233 9.26951ZM88.4848 8.19593C88.4848 8.61792 88.6303 8.97665 88.9211 9.26738L89.0254 9.16305C88.7633 8.90094 88.6324 8.58015 88.6324 8.19593H88.4848ZM88.9222 7.14066C88.6304 7.42027 88.4848 7.7739 88.4848 8.19593H88.6324C88.6324 7.81174 88.7632 7.49737 89.0243 7.24718L88.9222 7.14066ZM90.0443 6.70552C89.6006 6.70552 89.2248 6.85015 88.9221 7.1407L89.0243 7.24714C89.2975 6.98486 89.6358 6.85307 90.0443 6.85307V6.70552ZM91.1503 7.14176C90.8588 6.85019 90.4881 6.70552 90.0443 6.70552V6.85307C90.4529 6.85307 90.7847 6.98482 91.046 7.24609L91.1503 7.14176ZM91.6038 8.19593C91.6038 7.7729 91.4518 7.41897 91.1481 7.13963L91.0482 7.24821C91.3205 7.49867 91.4563 7.81275 91.4563 8.19593H91.6038ZM91.1493 9.26843C91.4518 8.97795 91.6038 8.6189 91.6038 8.19593H91.4563C91.4563 8.57917 91.3204 8.89965 91.0471 9.162L91.1493 9.26843ZM90.0443 9.68634C90.4872 9.68634 90.8575 9.54807 91.1492 9.26848L91.0471 9.16195C90.786 9.41215 90.4538 9.53879 90.0443 9.53879V9.68634ZM91.1657 10.7518V20.3227H91.3133V10.7518H91.1657ZM88.8208 10.8256H91.2395V10.678H88.8208V10.8256ZM88.8946 20.3227V10.7518H88.7471V20.3227H88.8946ZM91.2395 20.2489H88.8208V20.3965H91.2395V20.2489Z" fill="#2F1708" mask="url(#path-9-outside-1_9004_9284)"/>
<path d="M85.162 20.1085L85.162 20.1085C84.8784 19.8249 84.7366 19.4757 84.7366 19.0631C84.7366 18.6506 84.8784 18.3068 85.1625 18.0345L85.162 20.1085ZM85.162 20.1085L85.1631 20.1095M85.162 20.1085L85.1631 20.1095M85.1631 20.1095C85.4585 20.3813 85.8247 20.5166 86.2592 20.5166C86.6937 20.5166 87.0545 20.3813 87.3385 20.109L87.3386 20.109M85.1631 20.1095L87.3386 20.109M87.3386 20.109C87.6338 19.8256 87.7818 19.4762 87.7818 19.0631C87.7818 18.6503 87.634 18.3065 87.3386 18.0345C87.0546 17.7509 86.6939 17.6096 86.2592 17.6096C85.8242 17.6096 85.4578 17.751 85.1625 18.0345L87.3386 20.109Z" fill="#2F1708" stroke="#2F1708" stroke-width="0.0737732"/>
<defs>
<clipPath id="clip0_9004_9284">
<rect width="20.1674" height="20.7824" fill="white" transform="translate(5.10156 3.60742)"/>
</clipPath>
</defs>
</svg>
