<svg width="344" height="270" viewBox="0 0 344 270" fill="none" xmlns="http://www.w3.org/2000/svg">
<path d="M232.606 17.6602C232.18 16.3376 231.462 15.1279 230.505 14.1208C229.548 13.1136 228.376 12.3348 227.077 11.8421C215.807 7.15012 100.33 5.08745 89.6339 11.4198C88.2538 11.9419 86.9982 12.7468 85.9477 13.783C84.8973 14.8192 84.0752 16.0636 83.5343 17.4364C79.5335 26.279 82.8305 46.0035 85.4057 55.1637C87.0298 60.9168 90.0977 69.3209 95.5115 71.9087C105.453 76.6296 207.398 76.9219 217.455 70.465C229.161 62.9398 232.121 42.7732 233.036 28.8885C233.294 25.1223 233.736 20.9933 232.606 17.6602ZM150.442 22.1988C157.312 22.5778 158.231 22.7077 158.202 23.7093C158.146 25.5139 153.362 24.3463 124.88 24.2615C118.168 24.2416 117.941 24.1785 117.892 23.388C117.688 20.5458 147.566 22.031 150.446 22.1988H150.442ZM103.035 30.5397C99.22 30.4188 98.0993 30.6588 98.0669 29.6519C98.0254 28.6792 99.377 28.7496 102.988 28.4662C113.222 27.6848 137.391 28.6467 144.55 29.2476C151.169 29.8125 151.958 29.7042 151.906 30.7671C151.868 31.6694 151.579 31.6568 144.754 31.5828C144.527 31.581 103.255 30.547 103.035 30.5397ZM115.573 45.7941C114.631 45.7941 113.7 45.7671 112.764 45.7761C112.565 45.7915 112.367 45.7286 112.214 45.6008C112.06 45.473 111.963 45.2904 111.942 45.0917C111.921 44.8931 111.978 44.6942 112.102 44.5372C112.225 44.3802 112.405 44.2776 112.603 44.2512C113.541 44.0599 114.469 43.8758 115.418 43.7279C122.041 42.6902 138.01 43.2731 143.543 43.8055C145.036 43.948 146.497 44.1375 147.968 44.2927C148.185 44.3069 148.387 44.4046 148.533 44.5651C148.679 44.7257 148.757 44.9367 148.75 45.1535C148.744 45.3704 148.653 45.5762 148.498 45.7277C148.343 45.8792 148.134 45.9645 147.918 45.9656C139.831 46.3265 140.91 46.0107 129.575 45.7635C124.411 45.6516 121.05 45.8194 115.57 45.7941H115.573ZM155.008 61.7036C146.616 62.4976 144.722 61.3806 128.448 60.9601C127.294 60.9294 124.564 60.7797 123.438 60.7544C123.241 60.7625 123.048 60.6942 122.9 60.5638C122.751 60.4333 122.659 60.2507 122.642 60.054C122.625 59.8573 122.685 59.6616 122.808 59.5077C122.932 59.3538 123.11 59.2535 123.306 59.2277C130.077 57.8814 133.953 58.5058 148.416 59.4659C153.066 59.7745 152.566 59.8557 154.988 60.0307C155.203 60.0379 155.408 60.1278 155.559 60.2818C155.709 60.4359 155.795 60.6421 155.798 60.8577C155.8 61.0732 155.72 61.2815 155.572 61.4391C155.425 61.5966 155.223 61.6914 155.008 61.7036ZM156.654 55.9288C147.992 55.9956 149.751 55.7484 140.571 55.4705C131.458 55.189 137.608 55.6672 125.773 55.1096C125.574 55.1163 125.379 55.045 125.232 54.9108C125.084 54.7766 124.994 54.5901 124.982 54.3909C124.969 54.1916 125.035 53.9954 125.165 53.8438C125.295 53.6923 125.479 53.5974 125.677 53.5792C126.508 53.4385 127.32 53.2941 128.161 53.1822C136.406 52.627 144.684 52.7816 152.904 53.6442C154.217 53.8247 155.501 54.0521 156.787 54.2632C156.991 54.3014 157.173 54.414 157.298 54.5789C157.424 54.7439 157.483 54.9496 157.465 55.156C157.448 55.3624 157.354 55.5549 157.202 55.696C157.051 55.8372 156.852 55.9169 156.645 55.9198L156.654 55.9288ZM172.67 39.7956C170.479 39.7 163.17 39.6603 161.708 39.6151C139.974 38.9077 123.945 37.233 116.068 37.2204C115.871 37.2213 115.681 37.1461 115.537 37.0105C115.394 36.8749 115.309 36.6893 115.299 36.4923C115.289 36.2953 115.355 36.102 115.484 35.9526C115.613 35.8032 115.794 35.7092 115.99 35.6901C121.675 35.05 127.41 34.9793 133.109 35.479C181.534 38.3375 155.914 36.6285 172.783 38.1281C172.985 38.1673 173.164 38.2789 173.289 38.4417C173.413 38.6046 173.474 38.8074 173.458 39.0118C173.443 39.2162 173.354 39.408 173.207 39.5508C173.06 39.6936 172.865 39.7775 172.661 39.7866L172.67 39.7956Z" fill="#451E11"/>
<path d="M249.239 209.493C248.461 212.656 246.853 216.139 248.291 219.368C250.424 224.148 253.185 224.202 297.075 234.346C299.133 234.822 301.406 235.595 303.415 234.505C306.808 232.664 307.006 226.517 307.943 223.186C305.218 223.219 310.873 224.242 249.239 209.493Z" fill="#FA934E"/>
<path d="M74.1609 200.294C71.9629 192.634 54.3607 144.84 49.86 138.937C48.8845 137.56 47.5064 136.519 45.9151 135.956C43.9912 135.335 41.9383 135.227 39.9599 135.644C35.7136 136.472 16.6371 144.745 14.2514 145.813C8.16801 148.542 4.88361 150.584 4.23034 157.002C3.61858 163.007 6.12699 170.379 7.36135 175.497C10.9826 189.051 15.3774 202.387 20.5242 215.439C24.368 225.783 27.5207 233.436 38.6028 232.447C46.1515 231.776 55.171 227.308 63.6761 223.594C65.6736 222.794 67.6108 221.852 69.4726 220.773C71.2278 219.725 72.7179 218.287 73.8271 216.569C74.9362 214.852 75.6347 212.902 75.8681 210.871C75.9775 207.269 75.3981 203.679 74.1609 200.294ZM73.2983 210.601C73.1013 212.239 72.5299 213.81 71.6284 215.192C70.7268 216.575 69.5193 217.731 68.0992 218.571C66.3447 219.583 64.519 220.466 62.6367 221.213C53.9745 224.989 45.3358 229.242 38.3718 229.867C36.154 230.269 33.8656 229.941 31.8499 228.932C29.8342 227.924 28.1999 226.288 27.1923 224.272C25.4591 221.177 24.0344 217.918 22.9388 214.544C17.8403 201.57 13.4018 188.347 9.64057 174.925C7.25848 165.987 2.51415 154.087 10.6566 149.399C11.2692 150.174 12.0501 150.8 12.9401 151.229C13.8302 151.659 14.8062 151.88 15.7943 151.877C19.2375 151.756 34.8041 146.428 33.9812 139.685C37.7583 138.026 41.3621 136.499 45.2655 137.88C48.3965 138.977 49.7626 142.235 56.3025 158.983C59.8612 168.091 69.265 192.549 71.6814 201.014C72.8206 204.079 73.3692 207.332 73.2983 210.601Z" fill="#451E11"/>
<path d="M49.6353 170.254C48.4839 166.663 43.3606 153.395 43.2758 153.18C43.1948 152.979 43.1948 152.754 43.2757 152.552C43.3566 152.351 43.5123 152.188 43.7101 152.099C43.908 152.009 44.1328 151.999 44.3377 152.071C44.5425 152.143 44.7117 152.292 44.8097 152.486C47.9394 158.258 50.4978 164.322 52.4487 170.591C52.5418 170.895 52.5197 171.222 52.3865 171.511C52.2533 171.799 52.0184 172.028 51.7268 172.154C45.7716 174.774 39.7009 177.164 33.6049 179.472C26.6643 182.105 26.8556 181.87 21.3173 183.678C21.127 183.754 20.9147 183.75 20.7271 183.669C20.5394 183.587 20.3918 183.435 20.3166 183.244C20.2415 183.054 20.245 182.842 20.3264 182.654C20.4078 182.466 20.5604 182.319 20.7506 182.244C33.0689 176.505 37.0373 175.731 49.6353 170.254Z" fill="#451E11"/>
<path d="M41.4367 156.599C40.5968 157.908 39.9535 159.332 39.5274 160.828C39.4248 161.342 39.2662 161.844 39.0546 162.324C38.5728 163.204 36.4091 160.941 34.4402 160.588C33.4117 160.456 32.371 160.713 31.523 161.31C30.675 161.907 30.0812 162.8 29.8583 163.813C29.1798 166.198 30.0388 169.174 28.4922 170.398C27.3643 171.289 21.7231 167.886 19.1678 172.765C18.4532 174.484 18.2648 176.376 18.6264 178.203C18.624 178.313 18.6435 178.423 18.6838 178.526C18.7242 178.629 18.7845 178.723 18.8613 178.803C18.9381 178.883 19.0299 178.946 19.1315 178.991C19.233 179.035 19.3423 179.058 19.4529 179.06C21.0771 179.09 19.7308 176.145 21.1998 173.947C23.2733 170.62 27.2128 174.678 30.0929 172.428C32.1249 170.84 32.0455 168.483 32.1538 166.128C32.1003 165.661 32.1428 165.187 32.2788 164.737C32.4147 164.287 32.6411 163.869 32.9442 163.509C34.6712 161.988 36.4795 165.675 39.4805 164.942C39.9905 164.798 40.4495 164.512 40.805 164.119C41.1605 163.726 41.3982 163.241 41.4909 162.719C41.7175 160.849 42.1708 159.013 42.8407 157.253C42.9273 157.067 42.9365 156.854 42.8661 156.661C42.7957 156.468 42.6515 156.311 42.4654 156.224C42.2792 156.138 42.0662 156.128 41.8733 156.199C41.6804 156.269 41.5234 156.413 41.4367 156.599Z" fill="#FA934E"/>
<path d="M20.8739 156.475C19.1737 156.948 17.5077 157.537 15.8878 158.238C13.3342 159.631 13.7818 161.412 17.225 160.386C18.5947 159.985 19.9319 159.505 21.28 159.034C25.8673 157.413 24.4489 155.482 20.8739 156.475Z" fill="#FA934E"/>
<path d="M33.0961 186.397C31.0039 186.993 28.9541 187.729 26.9604 188.6C26.7709 188.708 24.9915 189.759 25.3272 190.574C25.6177 191.276 26.3703 191.136 27.619 190.912C29.7645 190.298 31.8692 189.55 33.9208 188.672C34.1698 188.533 35.8228 187.535 35.5287 186.77C35.2508 186.052 33.2928 186.359 33.0961 186.397Z" fill="#FA934E"/>
<path d="M33.9342 192.162C32.2789 192.654 30.6744 193.303 29.143 194.101C28.3887 194.489 26.9919 195.38 27.3167 196.21C27.7174 197.212 29.8071 196.555 30.8141 196.145C31.9943 195.663 33.1745 195.18 34.3349 194.647C35.0567 194.317 36.4445 193.474 36.2135 192.711C35.9933 191.98 34.2392 192.114 33.9342 192.162Z" fill="#FA934E"/>
<path d="M34.748 198.002C33.6524 198.231 32.5828 198.571 31.5557 199.016C30.9818 199.276 29.8864 200.061 30.0993 200.783C30.3123 201.505 31.8444 201.479 32.0249 201.468C33.2102 201.202 34.3651 200.815 35.4717 200.314C35.6521 200.198 36.771 199.308 36.5996 198.72C36.4209 198.087 34.9303 197.995 34.748 198.002Z" fill="#FA934E"/>
<path d="M57.5286 188.47C57.4223 188.439 57.311 188.429 57.2009 188.441C57.0909 188.453 56.9843 188.487 56.8873 188.54C56.7903 188.594 56.7047 188.666 56.6354 188.752C56.5662 188.838 56.5147 188.938 56.4837 189.044C55.972 190.188 55.095 191.131 53.9902 191.723C52.8853 192.315 51.6152 192.524 50.3787 192.317C49.4196 192.242 48.5083 191.868 47.7732 191.248C47.0381 190.627 46.5164 189.791 46.2815 188.858C46.0467 187.925 46.1107 186.942 46.4643 186.048C46.818 185.153 47.4436 184.392 48.2529 183.872C48.464 185.149 49.1372 186.781 49.7219 189.105C49.7741 189.303 49.8723 189.486 50.0085 189.639C50.1446 189.793 50.315 189.912 50.5056 189.987C50.6963 190.062 50.902 190.091 51.106 190.071C51.31 190.052 51.5066 189.985 51.6799 189.876C53.4496 188.914 55.1068 187.758 56.6209 186.429C56.6732 186.572 56.7202 186.718 56.7635 186.873C56.8081 187.067 56.9259 187.236 57.0922 187.345C57.2585 187.454 57.4605 187.495 57.6561 187.459C57.8518 187.423 58.0259 187.313 58.1424 187.152C58.2588 186.99 58.3085 186.79 58.2811 186.593C57.4709 177.868 44.2196 178.527 43.6006 187.423C43.034 196.309 56.3249 197.634 58.1007 189.522C58.1325 189.415 58.143 189.304 58.1314 189.193C58.1198 189.082 58.0865 188.975 58.0334 188.877C57.9802 188.779 57.9083 188.693 57.8216 188.623C57.735 188.553 57.6354 188.501 57.5286 188.47ZM55.6121 184.736C54.2463 185.236 52.9526 185.915 51.7647 186.754C51.4238 185.451 50.9039 184.202 50.2199 183.042C51.1885 182.834 52.1945 182.881 53.1396 183.178C54.0847 183.475 54.9366 184.012 55.6121 184.736Z" fill="#FA934E"/>
<path d="M55.3925 202.535C54.2479 202.602 53.1104 202.76 51.9908 203.008C47.5365 204.345 43.182 205.994 38.9597 207.944C37.673 208.541 36.8302 209.095 35.6482 209.772C35.4419 209.857 35.2779 210.02 35.1923 210.227C35.1067 210.433 35.1065 210.664 35.1917 210.871C35.2768 211.077 35.4405 211.241 35.6466 211.327C35.8527 211.412 36.0844 211.412 36.2907 211.327C40.9213 210.064 39.5155 210.338 46.5048 207.612C48.5656 206.807 50.6554 206.115 52.7108 205.35C53.7124 204.975 55.2211 204.268 55.7624 204.031C55.8653 204.012 55.9633 203.972 56.0503 203.914C56.1373 203.856 56.2115 203.781 56.2685 203.693C56.3254 203.605 56.3639 203.506 56.3815 203.403C56.3991 203.3 56.3956 203.195 56.371 203.093C56.3465 202.991 56.3015 202.895 56.2387 202.812C56.176 202.728 56.0969 202.658 56.0061 202.606C55.9154 202.553 55.815 202.52 55.7111 202.508C55.6071 202.496 55.5018 202.505 55.4015 202.535H55.3925Z" fill="#FA934E"/>
<path d="M66.2077 206.022C60.7073 206.625 58.475 208.047 50.9263 211.098C43.1267 214.251 47.1366 212.21 37.8175 216.141C37.6138 216.217 37.4473 216.369 37.353 216.564C37.2586 216.76 37.2437 216.985 37.3113 217.192C37.3788 217.399 37.5237 217.571 37.7156 217.674C37.9075 217.776 38.1315 217.8 38.3409 217.741C42.991 216.792 47.5329 215.374 51.8971 213.509C56.36 211.719 65.2116 207.973 66.5452 207.527C66.644 207.505 66.7375 207.464 66.8203 207.405C66.9032 207.347 66.9737 207.273 67.0279 207.187C67.0821 207.102 67.1189 207.006 67.1363 206.907C67.1536 206.807 67.1512 206.705 67.129 206.606C67.1068 206.507 67.0654 206.414 67.0071 206.331C66.9489 206.248 66.8748 206.177 66.7893 206.123C66.7037 206.069 66.6083 206.032 66.5086 206.015C66.4088 205.997 66.3066 206 66.2077 206.022Z" fill="#FA934E"/>
<path d="M139.911 256.407C142.698 256.226 144.766 256.179 146.937 254.228C149.108 252.278 149.378 248.869 149.904 246.267C150.642 242.598 153.314 230.205 153.222 225.8C153.256 224.27 152.846 222.762 152.043 221.459C151.24 220.156 150.077 219.113 148.695 218.456C145.643 217.196 142.393 216.481 139.094 216.344C107.742 212.928 109.015 214.199 97.7827 214.088C93.4048 214.045 91.3601 217.396 90.4289 221.715C90.2593 222.484 89.3967 232.362 89.3462 236.067C89.3009 238.774 89.4215 241.481 89.7071 244.173C90.2485 249.17 91.3691 252.808 96.6296 253.243C106.125 254.016 126.29 254.604 135.855 255.887C136.076 255.919 136.3 255.861 136.478 255.727C136.657 255.593 136.775 255.394 136.807 255.173C136.838 254.952 136.781 254.728 136.647 254.549C136.513 254.371 136.314 254.253 136.093 254.221C127.277 252.893 129.271 253.18 96.8443 250.724C96.1364 250.735 95.4384 250.556 94.8224 250.208C94.2063 249.859 93.6945 249.352 93.3398 248.739C92.0206 246.317 91.8708 238.864 91.9159 236.107C91.9773 232.506 92.8182 222.857 92.9536 222.265C93.5996 219.293 94.7311 216.655 97.7485 216.685C112.988 216.525 113.708 216.211 138.809 218.9C144.831 219.546 150.755 220.051 150.708 226.181C150.681 230.002 148.44 242.184 147.821 245.882C147.211 249.504 147.26 252.855 143.68 254.201C142.422 254.601 141.115 254.826 139.796 254.869C139.695 254.877 139.597 254.904 139.506 254.95C139.416 254.995 139.335 255.058 139.269 255.135C139.203 255.212 139.153 255.301 139.121 255.397C139.09 255.493 139.077 255.595 139.085 255.696C139.093 255.797 139.12 255.895 139.166 255.985C139.211 256.076 139.274 256.156 139.351 256.222C139.428 256.288 139.517 256.339 139.613 256.37C139.709 256.402 139.811 256.414 139.911 256.407Z" fill="#451E11"/>
<path d="M133.713 237.522C135.709 237.624 138.293 237.856 139.562 237.802C141.204 237.732 142.188 237.728 142.269 236.871C142.334 236.14 141.78 235.934 139.678 235.467C136.154 234.944 132.589 234.763 129.03 234.926C128.408 234.996 125.861 235.37 125.937 236.335C126.029 237.625 129.88 237.32 133.713 237.522Z" fill="#451E11"/>
<path d="M115.822 242.863C116.695 242.852 118.505 242.951 119.213 242.962C120.339 242.98 121.467 242.962 122.596 243.005C124.136 243.054 125.664 243.128 127.196 243.186C136.093 243.496 137.248 243.209 139.199 243.274C139.418 243.3 139.638 243.239 139.813 243.104C139.988 242.969 140.102 242.771 140.132 242.553C140.163 242.334 140.106 242.113 139.975 241.935C139.843 241.758 139.648 241.64 139.43 241.605C134.355 240.354 133.02 240.807 127.294 240.585C121.351 240.356 119.464 240.177 115.58 241.345C115.391 241.39 115.226 241.505 115.118 241.666C115.009 241.828 114.966 242.024 114.997 242.216C115.027 242.408 115.13 242.581 115.282 242.701C115.435 242.821 115.628 242.879 115.822 242.863Z" fill="#451E11"/>
<path d="M116.815 248.185C118.32 248.432 119.84 248.57 121.364 248.598C136.298 248.928 136.105 248.576 138.557 248.26C138.671 248.264 138.784 248.244 138.89 248.203C138.996 248.161 139.092 248.099 139.174 248.019C139.255 247.939 139.319 247.843 139.362 247.738C139.405 247.633 139.427 247.52 139.425 247.406C139.424 247.292 139.399 247.18 139.353 247.076C139.307 246.972 139.24 246.878 139.157 246.801C139.073 246.723 138.975 246.664 138.868 246.625C138.761 246.586 138.647 246.57 138.534 246.577C137.615 246.477 136.729 246.338 135.801 246.263C130.005 245.943 124.196 245.971 118.403 246.344C117.851 246.429 117.32 246.539 116.77 246.642C116.571 246.655 116.384 246.745 116.25 246.893C116.116 247.041 116.044 247.235 116.05 247.435C116.056 247.634 116.139 247.824 116.282 247.964C116.424 248.104 116.615 248.183 116.815 248.185Z" fill="#451E11"/>
<path d="M99.5355 225.41C99.716 225.493 101.881 226.831 102.062 226.95C103.325 227.756 104.46 228.464 104.047 229.287C103.686 229.994 102.988 229.756 101.456 229.272C99.7133 228.629 98.1062 227.666 96.7167 226.434C96.5622 226.287 96.4391 226.11 96.355 225.915C96.2709 225.719 96.2275 225.508 96.2275 225.295C96.2275 225.082 96.2709 224.871 96.355 224.675C96.4391 224.48 96.5622 224.303 96.7167 224.156C97.1695 223.818 97.6453 223.512 98.1405 223.239C99.1971 222.445 100.344 221.778 101.558 221.254C102.585 220.841 103.183 220.533 103.581 221.106C104.006 221.718 103.43 222.189 102.71 222.947C101.759 223.897 100.692 224.725 99.5355 225.41Z" fill="#974EF2"/>
<path d="M112.209 219.649C110.052 221.931 108.051 224.354 106.219 226.904C105.281 228.398 104.931 229.024 105.483 229.519C106.172 230.138 107.56 228.865 108.248 228.21C108.97 227.537 113.708 221.725 114.174 221.023C115.116 219.59 115.472 218.994 114.99 218.511C114.356 217.884 112.88 219.061 112.209 219.649Z" fill="#974EF2"/>
<path d="M120.225 227.034C119.502 226.529 118.836 225.947 118.24 225.298C117.788 224.789 116.202 222.757 116.94 222.113C117.843 221.328 119.916 223.69 121.65 224.885C121.721 224.934 122.583 225.477 122.897 225.731C123.818 226.482 123.513 227.597 122.67 228.438C121.121 229.552 119.442 230.475 117.671 231.185C115.522 232.038 114.695 232.248 114.327 231.546C113.56 230.091 118.884 227.837 120.225 227.034Z" fill="#974EF2"/>
<path d="M43.7812 83.7103C42.9398 81.0959 41.6022 78.6683 39.8417 76.5604C37.1798 72.2262 34.0241 68.2154 30.4379 64.6084C28.9091 62.7129 26.9352 61.225 24.692 60.2773C17.3273 57.8826 8.88895 63.6881 9.36898 71.2855C8.85286 70.5841 8.33734 69.8809 7.82243 69.1759C7.63489 68.9213 7.36075 68.7441 7.05162 68.6776C6.7425 68.6111 6.41974 68.66 6.14413 68.815C4.07744 69.9757 2.188 71.4269 0.533588 73.1244C0.366163 73.3001 0.250974 73.5189 0.200932 73.7564C0.15089 73.9938 0.167972 74.2405 0.250264 74.4688C2.30161 79.4345 5.02822 84.0934 8.35298 88.3138C12.8374 94.4946 16.564 99.5024 22.6094 104.138C22.724 104.23 22.8564 104.296 22.9981 104.334C23.1397 104.371 23.2877 104.378 23.4323 104.355C25.6518 103.641 27.5426 102.157 28.7632 100.17C28.852 100.048 28.9068 99.9044 28.922 99.7542C28.9373 99.6039 28.9123 99.4522 28.8498 99.3148C28.9572 99.1807 29.0171 99.0147 29.02 98.8429C29.023 98.6711 28.9688 98.5032 28.866 98.3655C27.462 96.4165 22.0265 88.5069 20.6189 86.5634C8.86008 70.3525 11.9063 75.1835 11.4154 73.581C9.378 65.4873 20.018 59.2523 25.8523 63.7981C28.2643 65.951 30.5069 68.2864 32.5601 70.7838C34.399 73.0739 36.0538 75.4975 37.6906 77.9878C39.244 79.8474 40.4606 81.9642 41.2854 84.2426C41.7216 86.3351 41.6455 88.5021 41.0634 90.5588C40.6839 92.1405 39.8117 93.5607 38.5727 94.6145C37.3337 95.6683 35.7919 96.3013 34.1698 96.422C32.926 96.6169 31.6633 96.6612 30.409 96.5537C30.1914 96.5383 29.9762 96.6079 29.8089 96.7478C29.6415 96.8878 29.5349 97.0872 29.5116 97.3041C29.4882 97.521 29.5498 97.7385 29.6835 97.9109C29.8173 98.0833 30.0126 98.1971 30.2285 98.2284C35.7958 98.9502 40.5816 97.853 42.9222 92.7442C44.1314 89.893 44.4313 86.7382 43.7812 83.7103ZM27.4061 99.1668C26.4194 100.501 25.0908 101.545 23.5605 102.188C17.2172 96.6872 6.01059 82.0013 2.98786 74.3515C4.04601 73.3437 5.19979 72.4414 6.43287 71.6572C27.0289 99.6288 27.6876 98.7968 27.4061 99.1668Z" fill="#451E11"/>
<path d="M17.4783 67.1462C17.7696 66.4247 18.2714 65.8076 18.9184 65.3753C19.5654 64.9431 20.3275 64.7156 21.1055 64.7226C26.3967 64.4031 28.8852 72.9769 26.5194 76.7611C26.0731 77.4143 25.4782 77.9524 24.7837 78.3311C24.0891 78.7098 23.3146 78.9183 22.5238 78.9396C21.733 78.9609 20.9484 78.7944 20.2344 78.4537C19.5205 78.1129 18.8975 77.6077 18.4167 76.9795C17.2792 75.6302 16.58 73.9662 16.4123 72.2093C16.2447 70.4525 16.6165 68.6863 17.4783 67.1462ZM22.5005 76.3497C26.2758 76.4363 24.9782 68.6837 22.1558 67.2905C21.662 66.9899 21.0807 66.8659 20.5072 66.939C19.9337 67.0122 19.4021 67.278 18.9996 67.6929C17.7472 69.4091 19.0483 76.2613 22.5005 76.3497Z" fill="#451E11"/>
<path d="M33.6725 82.332C32.5648 81.5762 31.3574 80.9779 30.0849 80.5544C29.5166 80.3307 28.903 80.2461 28.2953 80.3075C27.6876 80.369 27.1034 80.5748 26.5914 80.9078C26.0793 81.2408 25.6543 81.6914 25.3517 82.2219C25.049 82.7525 24.8776 83.3477 24.8516 83.9579C24.9079 85.9579 25.6273 87.8824 26.8968 89.4289C28.1662 90.9753 29.9137 92.056 31.8643 92.501C32.7748 92.822 33.7591 92.8712 34.697 92.6424C35.6349 92.4136 36.486 91.9167 37.1464 91.2125C39.6296 88.1663 36.91 84.5498 33.6725 82.332ZM35.1361 89.5685C34.019 90.9436 29.3451 89.8807 27.3094 85.6164C26.6075 84.2467 26.2411 82.9943 27.748 82.6496C28.6846 82.4348 29.3721 82.8535 30.953 83.6403L31.904 84.2268C31.8914 84.4867 31.6532 84.8765 30.574 85.7282C28.6268 87.2676 32.449 88.2024 33.5372 85.4774C34.7264 86.571 36.1611 88.3179 35.1361 89.5685Z" fill="#451E11"/>
<path d="M69.3317 92.8149C66.6338 86.8777 58.0005 88.6282 53.4962 92.1183C52.4457 92.8351 51.6078 93.8218 51.0708 94.9746C50.5338 96.1274 50.3175 97.4036 50.4446 98.669C50.4769 100.287 51.1017 101.837 52.2005 103.025C55.0356 105.675 61.765 105.833 63.8331 103.76C62.6197 109.273 61.9787 114.898 61.9202 120.543C61.923 120.713 61.9603 120.881 62.0298 121.037C62.0993 121.192 62.1995 121.332 62.3244 121.448C62.4493 121.564 62.5963 121.653 62.7567 121.711C62.917 121.768 63.0873 121.793 63.2574 121.783C64.3442 121.681 65.4365 121.65 66.5273 121.69C66.8505 121.713 67.1699 121.611 67.4212 121.407C67.6725 121.203 67.8367 120.911 67.8808 120.59L69.2415 107.93C69.7522 103.599 71.2518 97.034 69.3317 92.8149ZM62.7106 102.516C60.8085 103.96 55.5228 103.096 53.8535 101.352C53.2883 100.508 52.966 99.5238 52.9218 98.5083C52.8776 97.4929 53.1131 96.4847 53.6027 95.594C54.7917 94.2659 56.2568 93.214 57.8953 92.5119C59.5338 91.8099 61.306 91.4747 63.0878 91.53C69.7648 91.788 67.4459 101.031 66.6717 107.642L65.8957 114.591C65.6575 114.58 64.7859 114.631 64.5477 114.658C64.6903 111.431 65.0151 106.748 65.4915 103.329C65.5194 103.145 65.4799 102.957 65.3803 102.799C65.2806 102.642 65.1276 102.526 64.9493 102.473C64.771 102.42 64.5794 102.432 64.4098 102.509C64.2402 102.586 64.1039 102.721 64.0262 102.89C63.9803 102.765 63.9055 102.652 63.8077 102.561C63.7099 102.47 63.592 102.404 63.4637 102.368C63.3353 102.331 63.2001 102.326 63.0692 102.352C62.9383 102.377 62.8154 102.434 62.7106 102.516ZM65.4626 119.139C65.1125 119.139 64.7769 119.164 64.425 119.189C64.425 118.55 64.4394 117.906 64.4575 117.262C64.7751 117.242 65.1973 117.239 65.6467 117.206L65.4626 119.139Z" fill="#451E11"/>
<path d="M270.453 163.547C272.536 165.43 274.497 167.445 276.323 169.578C276.475 169.735 276.56 169.946 276.56 170.164C276.559 170.383 276.474 170.593 276.322 170.75C276.17 170.907 275.962 170.998 275.744 171.005C275.525 171.012 275.312 170.934 275.15 170.787C272.313 168.909 269.737 166.663 267.488 164.11C267.372 163.968 267.287 163.804 267.239 163.628C267.19 163.451 267.18 163.266 267.208 163.086C267.236 162.905 267.301 162.732 267.401 162.578C267.5 162.424 267.631 162.293 267.784 162.193C273.432 158.559 274.616 157.427 278.655 156.282C278.841 156.196 279.053 156.188 279.245 156.26C279.437 156.331 279.592 156.475 279.677 156.661C279.763 156.847 279.77 157.059 279.699 157.251C279.628 157.443 279.483 157.599 279.297 157.684C278.834 157.985 277.17 159.191 276.332 159.741C275.39 160.353 271.469 162.883 270.453 163.547Z" fill="#451E11"/>
<path d="M300.986 157.113C297.503 158.479 296.07 160.432 292.997 163.536C291.279 165.272 289.337 166.822 287.563 168.54C286.778 169.3 286.091 170.122 285.364 170.926C285.27 170.995 285.193 171.082 285.135 171.183C285.078 171.284 285.042 171.395 285.029 171.511C285.017 171.626 285.028 171.743 285.063 171.853C285.098 171.964 285.156 172.066 285.232 172.153C285.308 172.241 285.402 172.311 285.506 172.361C285.611 172.41 285.725 172.438 285.841 172.441C285.957 172.444 286.073 172.424 286.18 172.38C286.288 172.337 286.385 172.272 286.466 172.189C290.85 169.249 294.834 165.752 298.317 161.785C298.604 161.502 299.761 160.385 300.035 160.101C300.578 159.516 301.154 158.961 301.758 158.439C301.915 158.328 302.025 158.162 302.066 157.974C302.106 157.786 302.075 157.59 301.978 157.423C301.881 157.257 301.726 157.133 301.542 157.076C301.359 157.018 301.16 157.032 300.986 157.113Z" fill="#451E11"/>
<path d="M310.485 171.655C308.62 169.792 307.169 167.557 306.227 165.095C306.14 164.916 306.125 164.709 306.187 164.519C306.249 164.329 306.382 164.17 306.559 164.076C306.735 163.982 306.941 163.961 307.134 164.017C307.326 164.072 307.489 164.2 307.588 164.373C308.092 165.03 311.538 168.641 313.558 171.384C313.673 171.541 313.752 171.721 313.788 171.912C313.824 172.103 313.817 172.299 313.767 172.487C313.717 172.675 313.626 172.849 313.5 172.997C313.373 173.144 313.216 173.262 313.038 173.341C309.609 174.833 308.675 175.643 303.232 177.984C303.04 178.1 302.81 178.136 302.593 178.083C302.375 178.03 302.187 177.893 302.07 177.701C301.954 177.51 301.918 177.28 301.971 177.062C302.024 176.844 302.161 176.657 302.353 176.54C304.789 174.493 307.533 172.844 310.485 171.655Z" fill="#451E11"/>
<path d="M266.817 181.048C273.469 181.436 284.165 185.135 301.926 188.039C302.14 188.085 302.364 188.046 302.549 187.93C302.735 187.814 302.868 187.63 302.921 187.418C302.974 187.206 302.942 186.981 302.832 186.792C302.722 186.603 302.543 186.463 302.332 186.404C296.063 184.475 289.695 182.886 283.256 181.642C277.014 180.162 272.643 178.754 266.756 179.507C266.552 179.515 266.359 179.604 266.22 179.754C266.081 179.904 266.008 180.104 266.016 180.308C266.024 180.512 266.113 180.705 266.264 180.844C266.414 180.983 266.613 181.056 266.817 181.048Z" fill="#451E11"/>
<path d="M274.329 191.094C274.601 191.159 275.989 191.576 276.689 191.736C277.429 191.906 278.178 192.029 278.918 192.195C289.475 194.58 286.239 193.655 289.161 194.102C289.266 194.138 289.377 194.152 289.487 194.145C289.597 194.138 289.705 194.109 289.804 194.06C289.904 194.011 289.992 193.943 290.065 193.86C290.138 193.777 290.194 193.68 290.229 193.575C290.265 193.471 290.28 193.36 290.272 193.249C290.265 193.139 290.236 193.031 290.187 192.932C290.138 192.833 290.07 192.744 289.987 192.671C289.904 192.598 289.807 192.542 289.702 192.507C287.03 191.063 286.492 191.294 282.933 190.461C278.359 189.39 277.03 188.992 274.343 189.558C274.145 189.566 273.958 189.65 273.82 189.793C273.682 189.936 273.604 190.126 273.603 190.325C273.601 190.523 273.676 190.714 273.812 190.859C273.948 191.004 274.134 191.09 274.333 191.101L274.329 191.094Z" fill="#451E11"/>
<path d="M301.736 73.9721C301.458 66.6201 294.249 59.8709 287.175 63.0362C287.036 63.0958 286.916 63.1912 286.826 63.3126C286.736 63.4341 286.68 63.5772 286.664 63.7273C284.497 64.6324 282.614 66.1047 281.213 67.9895C279.812 69.8742 278.944 72.1017 278.702 74.4377C277.955 82.2824 286.875 87.1603 293.76 84.6139C297.965 83.0457 301.881 78.4855 301.736 73.9721Z" fill="#451E11"/>
<path d="M322.134 72.813C321.993 69.6567 319.136 68.3863 315.964 68.2365C313.575 68.2344 311.19 68.4269 308.832 68.8122C306.251 55.4183 288.079 49.5443 275.883 61.8987C269.085 68.7797 266.909 78.7231 274.209 86.0625C277.904 89.6331 282.717 91.821 287.837 92.2577C291.908 92.4371 295.947 91.4669 299.492 89.4583C303.038 87.4496 305.946 84.4836 307.884 80.8995C310.131 80.8676 312.37 80.6332 314.574 80.1993C320.026 78.9686 322.258 75.8087 322.134 72.813ZM319.773 73.5204C319.152 78.3821 311.199 78.9884 306.655 79.4035C306.519 79.4129 306.388 79.4583 306.275 79.5349C306.162 79.6116 306.072 79.7168 306.013 79.8398C305.954 79.9629 305.928 80.0994 305.939 80.2354C305.95 80.3715 305.997 80.5022 306.074 80.6144C304.15 83.5997 301.468 86.0212 298.303 87.632C295.137 89.2428 291.601 89.9853 288.055 89.7836C283.531 89.3782 279.285 87.4291 276.028 84.2633C263.899 71.9919 283.679 51.0873 299.307 59.7783C301.674 61.0128 303.617 62.9293 304.883 65.2799C306.149 67.6305 306.68 70.3069 306.408 72.9628C306.327 74.4985 305.789 77.2109 306.95 77.5285C308.778 78.0247 309.075 73.3616 309.023 71.3441C312.936 70.8297 320.28 69.516 319.77 73.5204H319.773Z" fill="#451E11"/>
<path d="M314.754 39.1743C315.221 37.5789 316.042 36.1095 317.156 34.8756C318.27 33.6416 319.648 32.6751 321.188 32.0479C327.266 29.9437 333.318 36.0631 332.589 42.206C331.079 54.9358 308.227 57.1356 302.348 50.5596C301.388 49.3091 300.946 47.7372 301.114 46.1698C301.282 44.6023 302.047 43.1597 303.25 42.1411C304.865 40.8902 306.718 39.9819 308.696 39.4718C310.674 38.9617 312.736 38.8605 314.754 39.1743ZM314.52 40.7569C311.043 40.5712 307.623 41.6926 304.932 43.9006C304.229 44.4988 303.771 45.3343 303.644 46.2483C303.518 47.1623 303.731 48.091 304.244 48.8578C308.673 53.77 328.764 52.3209 330.036 41.8992C330.552 37.6674 326.385 32.9411 321.915 34.2838C320.523 34.8328 319.272 35.6871 318.254 36.7836C317.236 37.8801 316.477 39.191 316.032 40.6198C315.976 40.7679 315.879 40.8971 315.752 40.9925C315.625 41.0879 315.475 41.1457 315.317 41.1593C315.159 41.1729 315 41.1416 314.859 41.0692C314.718 40.9967 314.601 40.886 314.52 40.7497V40.7569Z" fill="#451E11"/>
<path d="M331.84 15.9763C332.049 15.6626 332.275 15.3614 332.519 15.0739C332.955 14.7097 333.465 14.4438 334.013 14.2944C334.88 14.0582 335.797 14.0782 336.653 14.3521C338.172 14.4461 339.624 15.0141 340.804 15.9763C347.147 20.8307 339.145 27.8705 330.783 26.739C328.401 26.2936 326.256 25.014 324.734 23.1297C324.094 22.3674 323.77 21.3897 323.827 20.3963C323.884 19.4029 324.318 18.4687 325.04 17.7845C327.348 15.3031 330.077 16.2794 331.84 15.9763ZM336.261 15.7543C335.837 15.7136 335.409 15.7661 335.006 15.9083C334.604 16.0504 334.238 16.2787 333.933 16.5772C333.946 16.5628 334 16.5176 334 16.5176C333.437 17.6149 333.374 17.8278 332.815 18.0462C331.426 18.3932 330.002 18.5803 328.57 18.6038C327.585 18.7842 326.475 19.6487 326.432 20.5383C326.37 22.1029 329.404 23.9364 331.124 24.1692C332.662 24.3949 334.232 24.2796 335.721 23.8315C337.21 23.3833 338.582 22.6133 339.741 21.576C340.175 21.2057 340.453 20.685 340.52 20.1182C340.587 19.5514 340.438 18.9802 340.102 18.519C339.279 17.3119 338.069 16.4209 336.673 15.9925C336.516 15.9546 336.373 15.8719 336.261 15.7543Z" fill="#451E11"/>
<path d="M321.591 55.1545C325.28 61.5647 326.97 68.9305 326.446 76.3077C325.922 83.685 323.206 90.7376 318.647 96.5614C312.684 104.099 303.981 108.971 294.438 110.113C284.894 111.255 275.287 108.575 267.714 102.658C260.14 96.7403 255.215 88.0665 254.016 78.5305C252.816 68.9945 255.438 59.3711 261.309 51.7619C266.178 45.5271 272.919 41.0185 280.54 38.8984C288.161 36.7782 296.262 37.1585 303.651 39.9831C303.858 40.0662 304.09 40.0635 304.295 39.9757C304.5 39.8879 304.662 39.7221 304.745 39.5148C304.828 39.3076 304.826 39.0759 304.738 38.8706C304.65 38.6654 304.484 38.5034 304.277 38.4203C296.528 35.1804 287.929 34.5784 279.804 36.7072C271.679 38.836 264.48 43.5774 259.315 50.2009C256.169 54.227 253.847 58.8334 252.481 63.757C251.115 68.6805 250.733 73.8249 251.355 78.8964C252.612 89.1387 257.886 98.4621 266.017 104.816C274.149 111.169 284.471 114.033 294.713 112.776C304.955 111.519 314.279 106.245 320.632 98.1134C325.464 91.939 328.275 84.4255 328.683 76.596C329.091 68.7666 327.075 61.0017 322.912 54.3587C322.806 54.1835 322.635 54.0575 322.437 54.0082C322.238 53.959 322.028 53.9906 321.853 54.0961C321.678 54.2017 321.552 54.3725 321.503 54.571C321.453 54.7694 321.485 54.9794 321.591 55.1545Z" fill="#451E11"/>
<path d="M226.717 220.221C226.376 218.83 225.899 217.477 225.294 216.18C226.788 210.115 221.953 202.696 216.518 206.219C203.557 214.668 194.74 225.328 183.556 235.535C176.271 242.195 167.34 248.627 161.847 257.064C157.381 263.943 165.523 272.953 172.805 267.933C176.439 265.432 179.061 261.858 181.965 258.747C191.284 248.744 202.438 237.612 212.342 228.19C214.868 225.757 217.575 223.514 220.235 221.217C221.334 224.438 219.01 226.248 216.48 228.894C215.202 230.536 213.719 232.007 212.066 233.272C210.461 234.248 208.763 234.325 207.004 235.509C204.58 237.133 201.841 242.766 203.593 245.435C204.192 246.337 205.233 246.229 206.194 245.685C208.916 243.638 211.495 241.407 213.914 239.008C219.156 234.053 228.533 228.457 226.717 220.221ZM171.336 265.8C166.497 269.133 161.076 263.093 164.012 258.513C164.58 258.861 165.103 259.277 165.57 259.752C166.801 261.034 167.6 263.091 168.663 262.735C170.024 262.279 168.968 258.224 165.447 256.452C166.049 255.649 166.677 254.864 167.333 254.095C170.942 256.044 171.881 257.946 172.855 261.895C173.023 262.578 173.245 263.215 173.351 263.894C173.35 263.987 173.364 264.08 173.393 264.168C172.743 264.756 172.056 265.301 171.336 265.8ZM189.003 237.231C184.345 242.482 186.198 240.23 181.604 244.949C175.795 250.913 176.656 250.271 173.156 253.001C173.012 253.138 172.821 253.213 172.622 253.212C172.424 253.212 172.233 253.134 172.09 252.996C171.947 252.859 171.863 252.671 171.854 252.473C171.846 252.275 171.914 252.081 172.045 251.931C172.802 250.806 173.617 249.722 174.488 248.683C177.435 245.314 183.203 239.586 184.955 238.106C185.901 237.342 186.886 236.626 187.904 235.96C187.985 235.88 188.083 235.817 188.189 235.776C188.296 235.735 188.41 235.716 188.525 235.72C188.639 235.724 188.751 235.752 188.855 235.801C188.958 235.85 189.05 235.92 189.126 236.006C189.201 236.092 189.258 236.193 189.293 236.302C189.329 236.411 189.341 236.526 189.33 236.64C189.319 236.754 189.285 236.864 189.23 236.965C189.175 237.065 189.1 237.153 189.01 237.224L189.003 237.231ZM197.342 239.308C197.198 237.618 196.644 235.988 195.729 234.56C194.814 233.132 193.564 231.948 192.089 231.111C191.908 231.034 191.795 231.231 193.061 229.98C195.976 232.542 196.335 232.591 197.862 238.799L197.342 239.308ZM211.548 215.996C209.741 217.997 207.8 219.872 205.737 221.608C200.993 226.037 201.915 225.418 199.011 227.338C198.864 227.48 198.666 227.557 198.462 227.554C198.258 227.55 198.063 227.465 197.921 227.318C197.779 227.171 197.702 226.973 197.705 226.769C197.709 226.565 197.794 226.37 197.941 226.228C198.908 224.802 199.139 224.176 203.716 219.937C205.676 217.817 207.973 216.036 210.516 214.668C210.602 214.595 210.703 214.54 210.811 214.507C210.919 214.474 211.033 214.463 211.146 214.475C211.259 214.486 211.368 214.521 211.467 214.576C211.566 214.631 211.653 214.705 211.723 214.794C211.792 214.884 211.843 214.986 211.872 215.096C211.901 215.205 211.908 215.319 211.892 215.432C211.876 215.544 211.838 215.652 211.779 215.748C211.721 215.845 211.643 215.93 211.551 215.996H211.548ZM217.716 208.023C221.363 205.511 224.723 211.775 223.53 216.144C223.137 216.492 222.741 216.836 222.341 217.178C222.863 213.886 220.567 209.203 217.716 208.023ZM204.703 243.533C204.638 243.352 204.905 243.444 205.111 243.533C204.921 243.655 204.766 243.695 204.703 243.533ZM224.788 222.839C223.852 228.336 215.937 233.578 212.14 237.13C207.809 241.205 206.69 241.977 205.612 243.085C205.901 241.002 206.899 239.083 208.438 237.651C210.707 236.143 212.54 236.791 215.657 233.569C216.59 232.604 217.429 231.516 218.293 230.554C221.206 227.157 223.947 224.451 221.61 220.015C224.613 217.366 223.624 218.008 224.24 217.909C224.774 219.494 224.961 221.175 224.788 222.839Z" fill="#451E11"/>
<path d="M332.245 158.64C332.245 158.64 328.861 168.437 328.131 170.731C327.835 171.66 312.347 222.475 309.197 235.006C309.161 235.113 309.147 235.226 309.156 235.338C309.165 235.451 309.196 235.56 309.248 235.66C309.3 235.761 309.371 235.849 309.458 235.921C309.545 235.993 309.645 236.047 309.753 236.08C309.861 236.112 309.975 236.123 310.087 236.11C310.199 236.098 310.307 236.064 310.406 236.009C310.504 235.954 310.591 235.88 310.66 235.791C310.73 235.702 310.781 235.6 310.81 235.491C319.111 210.658 332.196 165.323 333.729 159.084C333.787 158.887 333.766 158.675 333.668 158.495C333.571 158.314 333.405 158.179 333.209 158.12C333.012 158.062 332.8 158.083 332.619 158.181C332.439 158.278 332.304 158.443 332.245 158.64Z" fill="#451E11"/>
<path d="M309.25 235.085C308.919 236.014 308.347 236.839 307.591 237.473C306.835 238.108 305.924 238.529 304.951 238.694C302.865 238.955 300.747 238.72 298.769 238.01C293.174 236.241 264.12 228.536 243.833 224.36C243.724 224.33 243.61 224.322 243.498 224.336C243.386 224.351 243.278 224.388 243.181 224.445C243.084 224.502 242.999 224.578 242.931 224.669C242.864 224.759 242.815 224.863 242.789 224.972C242.762 225.082 242.757 225.196 242.776 225.307C242.794 225.419 242.834 225.526 242.894 225.621C242.955 225.717 243.033 225.799 243.126 225.864C243.219 225.928 243.323 225.973 243.434 225.997C261.491 231.185 292.148 238.641 298.032 240.406C300.915 241.48 304.097 241.428 306.942 240.258C307.894 239.782 308.73 239.101 309.389 238.264C310.048 237.427 310.514 236.456 310.755 235.418C310.777 235.32 310.779 235.217 310.762 235.118C310.744 235.018 310.707 234.923 310.653 234.837C310.598 234.752 310.528 234.678 310.445 234.62C310.362 234.562 310.268 234.521 310.169 234.499C310.071 234.477 309.968 234.475 309.869 234.492C309.769 234.51 309.674 234.547 309.588 234.601C309.503 234.656 309.429 234.726 309.371 234.809C309.313 234.892 309.272 234.986 309.25 235.085Z" fill="#451E11"/>
<path d="M331.544 152.029C331.425 150.94 330.969 149.916 330.241 149.098C329.513 148.279 328.548 147.708 327.48 147.464C327.3 147.424 272.169 135.113 272.169 135.293C270.994 135.013 269.757 135.183 268.701 135.771C267.646 136.358 266.849 137.32 266.468 138.466C265.345 141.817 243.28 208.967 240.927 216.221C240.705 216.912 240.626 217.641 240.697 218.364C240.768 219.086 240.987 219.786 241.339 220.421C241.692 221.055 242.171 221.611 242.747 222.052C243.323 222.494 243.984 222.813 244.688 222.989L300.073 236.761C301.385 237.087 302.77 236.9 303.949 236.24C305.127 235.579 306.01 234.494 306.417 233.206C333.529 147.206 331.714 153.672 331.544 152.029ZM303.933 232.423C303.725 233.079 303.273 233.631 302.672 233.966C302.071 234.302 301.364 234.395 300.696 234.228C241.485 219.533 244.971 220.513 244.311 220.002C244.013 219.775 243.766 219.49 243.583 219.164C243.401 218.837 243.287 218.477 243.25 218.105C243.174 217.351 243.172 217.602 245.892 209.165C247.59 209.66 253.428 211.352 254.972 211.757C257.095 212.311 290.491 220.289 297.641 221.792C300.665 222.429 303.708 222.954 306.745 223.532L303.933 232.423ZM328.926 153.421L307.256 221.924C307.256 221.924 302.194 220.48 299.647 219.812C297.953 219.365 252.46 208.793 250.923 208.507C249.385 208.22 247.893 207.965 246.373 207.696C248.978 199.613 267.025 142.357 268.07 138.982C268.31 138.219 268.825 137.573 269.516 137.17C270.207 136.767 271.024 136.636 271.806 136.804V136.874C330.115 150.795 327.027 149.701 327.949 150.384C328.408 150.725 328.748 151.201 328.924 151.746C329.099 152.29 329.1 152.876 328.927 153.421H328.926Z" fill="#451E11"/>
<path d="M100.257 23.5101C100.93 23.5823 109.235 23.853 110.494 23.7555C112.18 23.6274 113.127 23.575 113.176 22.7323C113.221 21.9563 112.427 21.6766 110.269 21.3644C106.943 21.0799 103.602 20.9919 100.266 21.1009C99.3978 21.1893 97.3585 21.4438 97.3604 22.31C97.3622 23.1762 99.3996 23.418 100.257 23.5101Z" fill="#974EF2"/>
<path d="M101.413 37.1262C102.434 37.1749 103.457 37.137 104.48 37.137C105.536 37.137 109.894 37.4528 109.981 36.0326C110.086 34.246 103.674 34.4951 101.884 34.5997C97.8341 34.8325 97.5363 36.9385 101.413 37.1262Z" fill="#974EF2"/>
<path d="M100.114 45.1063C101.352 45.1063 104.012 45.1514 104.053 43.8196C104.096 42.4228 101.146 42.3903 99.7707 42.5762C98.789 42.7097 97.8993 43.6481 97.9264 43.9802C97.9571 44.3628 98.8197 45.1135 100.114 45.1063Z" fill="#974EF2"/>
<path d="M113.205 55.333C113.954 55.3764 114.706 55.3764 115.455 55.333C116.02 55.2843 117.278 54.8873 117.307 54.1546C117.375 52.7543 114.277 52.6767 112.961 52.7976C112.173 52.8679 111 53.6024 111.016 54.1258C111.032 54.5011 111.855 55.2861 113.205 55.333Z" fill="#974EF2"/>
<path d="M112.902 60.2775C113.879 60.3592 114.861 60.3592 115.838 60.2775C118.184 60.0483 118.855 57.733 114.475 57.7366C114.084 57.7338 113.693 57.7519 113.304 57.7907C112.301 57.9008 111.37 58.8122 111.384 59.146C111.415 59.7469 112.719 60.2306 112.902 60.2775Z" fill="#974EF2"/>
<path d="M177.401 175.813C177.587 175.88 177.744 176.012 177.842 176.185C177.94 176.357 177.974 176.559 177.938 176.754C177.901 176.949 177.796 177.125 177.642 177.25C177.488 177.375 177.294 177.441 177.096 177.437C166.387 177.247 152.497 179.184 138.257 177.964C137.937 177.935 137.64 177.787 137.424 177.55C137.208 177.312 137.09 177.002 137.093 176.681C137.161 168.217 136.624 159.934 137.578 151.416C137.612 151.107 137.756 150.82 137.985 150.609C138.213 150.398 138.511 150.276 138.822 150.266C141.424 150.187 166.125 149.855 177.26 149.528C177.431 149.523 177.602 149.554 177.761 149.617C177.92 149.681 178.064 149.777 178.184 149.899C178.305 150.021 178.399 150.166 178.46 150.326C178.522 150.486 178.55 150.657 178.543 150.828C177.399 175.715 178.205 175.327 177.401 175.813ZM176.009 152.057C173.844 152.127 149.952 152.519 140.031 152.815C139.293 160.372 139.679 167.99 139.652 175.517C151.084 176.395 163.002 175.156 176.498 175.735C176.416 175.663 176.351 175.574 176.305 175.474C176.26 175.375 176.236 175.267 176.235 175.158C176.139 166.999 175.71 162.877 176.009 152.057Z" fill="#451E11"/>
<path d="M174.255 105.832C168.901 105.754 157.472 105.72 157.111 105.722C157.185 109.205 157.488 119.027 157.557 120.446C163.151 120.55 168.76 120.709 174.362 120.884C174.302 116.385 174.253 106.35 174.255 105.832Z" fill="#451E11"/>
<path d="M154.554 105.723C149.395 105.723 144.239 105.754 139.083 105.734C139.206 109.668 139.52 119.417 139.559 120.351C144.688 120.292 149.817 120.319 154.947 120.396C154.664 113.743 154.574 109.374 154.554 105.723Z" fill="#451E11"/>
<path d="M136.531 105.719C133.563 105.699 122.609 105.476 120.099 105.358C120.169 109.612 120.261 120.111 120.279 121.104C125.724 120.665 131.484 120.488 136.961 120.396C136.919 119.167 136.586 109.388 136.531 105.719Z" fill="#451E11"/>
<path d="M214.57 95.3734C214.425 94.7092 214.122 94.09 213.685 93.5687C213.249 93.0473 212.693 92.6393 212.065 92.3796C202.446 89.9343 117.698 86.2908 102.588 92.3074C100.998 92.9228 99.5005 100.439 99.2316 102.202C98.0135 110.198 96.5102 135.551 102.415 140.225C109.002 145.401 209.533 141.822 212.265 140.478C215.6 138.825 217.614 104.216 214.57 95.3734ZM207.023 123.673C203.183 123.769 199.343 123.854 195.499 123.854C195.594 127.189 195.387 130.525 194.88 133.823C194.867 134.044 194.766 134.251 194.6 134.398C194.434 134.545 194.217 134.621 193.995 134.608C193.774 134.594 193.567 134.494 193.42 134.328C193.273 134.162 193.197 133.945 193.21 133.723C193.194 132.751 192.965 125.205 192.934 123.85C190.623 123.836 179.966 123.61 176.951 123.533C177.027 127.319 176.841 131.107 176.391 134.867C176.388 134.977 176.363 135.085 176.318 135.185C176.273 135.285 176.208 135.375 176.128 135.451C176.048 135.526 175.954 135.584 175.851 135.623C175.749 135.662 175.639 135.68 175.53 135.677C175.42 135.673 175.312 135.648 175.212 135.603C175.112 135.558 175.022 135.494 174.947 135.414C174.871 135.334 174.813 135.239 174.774 135.137C174.735 135.034 174.717 134.925 174.72 134.815C174.518 129.385 174.518 133.595 174.392 123.466C168.823 123.32 163.254 123.166 157.685 123.056C158.208 133.357 158.026 131.386 158.136 136.41C158.155 136.632 158.085 136.852 157.942 137.021C157.799 137.191 157.594 137.297 157.373 137.316C157.151 137.335 156.931 137.265 156.762 137.122C156.592 136.979 156.486 136.774 156.467 136.553C155.722 132.075 155.256 127.554 155.072 123.018C149.936 122.93 144.802 122.885 139.669 122.921C140.117 133.155 140.066 133.366 140.03 139.384C140.037 139.494 140.021 139.604 139.985 139.707C139.949 139.811 139.893 139.907 139.82 139.989C139.747 140.07 139.658 140.137 139.559 140.185C139.46 140.233 139.353 140.261 139.243 140.267C139.134 140.273 139.024 140.258 138.92 140.222C138.817 140.185 138.721 140.129 138.639 140.056C138.557 139.983 138.491 139.895 138.443 139.796C138.395 139.697 138.367 139.59 138.361 139.48C138 135.311 137.547 134.815 137.069 122.946C131.074 123.022 125.797 123.229 120.346 123.446C120.651 135.046 120.562 136.439 120.571 138.572C120.579 138.682 120.565 138.792 120.53 138.896C120.495 139.001 120.439 139.097 120.367 139.18C120.295 139.263 120.207 139.331 120.109 139.38C120.01 139.429 119.903 139.458 119.793 139.466C119.684 139.473 119.573 139.459 119.469 139.424C119.365 139.389 119.269 139.334 119.186 139.262C119.103 139.189 119.035 139.102 118.986 139.003C118.937 138.905 118.908 138.797 118.9 138.688C118.171 133.675 117.792 128.618 117.763 123.552C116.733 123.596 109.695 123.913 107.21 124.132C107.11 124.143 107.009 124.134 106.912 124.105C106.816 124.077 106.726 124.03 106.647 123.967C106.569 123.904 106.504 123.826 106.456 123.737C106.407 123.649 106.377 123.552 106.366 123.452C106.355 123.352 106.364 123.251 106.393 123.155C106.421 123.058 106.468 122.968 106.531 122.89C106.594 122.811 106.672 122.746 106.76 122.698C106.849 122.65 106.946 122.619 107.046 122.609C110.904 122.125 112.443 121.825 117.709 121.326C117.584 115.959 117.496 110.585 117.574 105.218C114.556 105.037 111.552 104.748 108.531 104.55C108.334 104.531 108.153 104.437 108.024 104.287C107.895 104.138 107.829 103.945 107.839 103.748C107.849 103.551 107.935 103.365 108.078 103.229C108.221 103.094 108.411 103.019 108.608 103.02C111.613 103.119 114.614 103.065 117.615 103.061C117.696 100.04 117.891 98.2554 118.054 95.9328C118.054 95.7294 118.135 95.5344 118.278 95.3905C118.422 95.2467 118.617 95.1659 118.821 95.1659C119.024 95.1659 119.219 95.2467 119.363 95.3905C119.507 95.5344 119.588 95.7294 119.588 95.9328C119.84 99.2208 119.968 100.017 120.055 103.068C120.235 103.068 133.875 103.142 136.504 103.146C136.47 99.4536 136.623 97.6003 136.876 93.9026C136.875 93.6992 136.954 93.5037 137.097 93.359C137.24 93.2143 137.435 93.1324 137.638 93.1312C137.842 93.13 138.037 93.2096 138.182 93.3526C138.327 93.4956 138.409 93.6902 138.41 93.8936C138.704 97.8421 138.836 98.1652 138.998 102.989C139.007 103.243 137.805 103.13 154.55 103.126C154.559 100.16 154.728 97.1969 155.056 94.2491C155.067 94.0519 155.154 93.8666 155.298 93.7317C155.443 93.5969 155.634 93.5228 155.831 93.5249C156.029 93.527 156.218 93.6051 156.359 93.7429C156.501 93.8808 156.584 94.0679 156.591 94.2654C156.846 98.2879 156.93 97.7645 157.057 103.126C162.801 103.126 168.543 103.162 174.287 103.261C174.348 100.694 174.557 98.1319 174.912 95.5882C174.918 95.3848 175.006 95.1923 175.154 95.0532C175.303 94.9141 175.5 94.8398 175.704 94.8465C175.907 94.8532 176.1 94.9404 176.239 95.089C176.378 95.2375 176.452 95.4353 176.446 95.6387C176.586 98.7914 176.734 99.1848 176.781 103.307C182.103 103.413 187.095 103.557 192.346 103.933C192.365 101.691 192.528 99.4529 192.833 97.2322C192.839 97.0288 192.925 96.8359 193.073 96.6959C193.22 96.556 193.418 96.4805 193.621 96.486C193.824 96.4915 194.017 96.5776 194.157 96.7253C194.297 96.873 194.373 97.0703 194.367 97.2737C194.504 99.7207 194.687 100.459 194.82 104.131C197.899 104.386 200.974 104.696 204.051 105.034C204.272 105.052 204.477 105.157 204.621 105.326C204.765 105.496 204.835 105.715 204.817 105.937C204.799 106.158 204.693 106.363 204.524 106.507C204.355 106.65 204.135 106.721 203.914 106.703C201.376 106.567 195.371 106.356 194.905 106.342C195.109 111.42 195.365 116.505 195.468 121.587C199.326 121.737 203.177 121.91 207.032 122.017C207.231 122.047 207.411 122.148 207.542 122.301C207.672 122.454 207.743 122.648 207.742 122.849C207.741 123.05 207.668 123.244 207.536 123.395C207.404 123.546 207.222 123.645 207.023 123.673Z" fill="#451E11"/>
<path d="M192.351 106.249C191.128 106.216 180.762 105.938 176.803 105.872C176.86 110.903 176.929 115.936 176.945 120.965C179.986 121.061 190.604 121.397 192.875 121.474C192.831 119.749 192.402 109.598 192.351 106.249Z" fill="#451E11"/>
<path d="M235.675 0.609375H76.165C74.5586 0.610422 72.9736 0.977469 71.5303 1.68265C70.087 2.38783 68.8234 3.4126 67.8353 4.67915C66.8472 5.9457 66.1608 7.42073 65.828 8.99224C65.4952 10.5638 65.5249 12.1904 65.9148 13.7488C67.9432 21.7775 79.4855 67.0084 81.2991 74.0391C81.8384 76.1317 83.028 77.9991 84.6966 79.3722C86.3652 80.7453 88.4266 81.5534 90.5838 81.6799C88.1903 83.058 86.2019 85.042 84.8184 87.4325C83.435 89.823 82.7055 92.5356 82.7031 95.2975V174.993C82.7005 177.059 83.1058 179.106 83.8959 181.016C84.686 182.925 85.8453 184.66 87.3073 186.12C88.7693 187.581 90.5052 188.738 92.4155 189.526C94.3258 190.314 96.3728 190.718 98.4393 190.713H217.629C221.79 190.702 225.777 189.041 228.716 186.094C231.654 183.147 233.302 179.154 233.3 174.993C233.3 174.812 233.094 95.2975 232.843 95.2975C232.861 92.5174 232.119 89.7853 230.698 87.3959C229.277 85.0066 227.23 83.0507 224.779 81.7394C227.096 81.6573 229.318 80.7917 231.08 79.2839C232.842 77.7761 234.041 75.7153 234.48 73.4382C235.875 66.2558 244.55 21.0557 246.055 13.1226C246.338 11.5974 246.283 10.0285 245.892 8.52714C245.502 7.02576 244.786 5.6286 243.796 4.43463C242.805 3.24066 241.565 2.27909 240.161 1.61804C238.758 0.956996 237.226 0.612642 235.675 0.609375ZM231.304 95.2975C231.051 95.2975 230.847 174.701 230.847 174.993C230.845 176.726 230.501 178.442 229.835 180.043C229.168 181.643 228.193 183.097 226.965 184.32C225.737 185.544 224.28 186.513 222.677 187.173C221.074 187.833 219.357 188.171 217.623 188.167H98.4393C94.9501 188.155 91.6073 186.763 89.1412 184.295C86.6752 181.826 85.2864 178.482 85.2783 174.993V95.2975C85.2783 91.8058 86.6645 88.4569 89.1323 85.9867C91.6001 83.5166 94.9476 82.1272 98.4393 82.1238C115.091 82.104 205.946 81.8423 217.623 81.7773C219.409 81.7666 221.18 82.1079 222.834 82.7816C224.488 83.4552 225.994 84.4482 227.264 85.7037C228.535 86.9592 229.545 88.4526 230.238 90.0987C230.932 91.7449 231.294 93.5114 231.304 95.2975ZM243.575 12.6642C242.103 20.6045 233.814 65.8751 232.511 73.0755C232.162 74.9947 231.157 76.7328 229.667 77.9921C228.177 79.2514 226.296 79.9535 224.345 79.9781C224.246 79.9781 154.606 79.6389 98.4375 79.5739C97.1479 79.5729 95.863 79.7305 94.6117 80.0431L91.2552 80.0088C89.3811 79.9914 87.5666 79.3481 86.1001 78.1811C84.6336 77.0141 83.5992 75.3904 83.1615 73.5681C67.3855 8.51719 67.6634 12.5054 68.2987 9.50432C68.6831 7.70323 69.6736 6.08845 71.1048 4.92946C72.5361 3.77047 74.3215 3.13738 76.1632 3.13583H235.675C236.857 3.13668 238.025 3.39802 239.094 3.90126C240.164 4.4045 241.11 5.13727 241.864 6.04747C242.619 6.95766 243.163 8.02292 243.459 9.16747C243.755 10.312 243.796 11.5078 243.577 12.6696L243.575 12.6642Z" fill="#451E11"/>
</svg>