<svg width="22" height="23" viewBox="0 0 22 23" fill="none" xmlns="http://www.w3.org/2000/svg">
<g id="slack-fill">
<path id="Vector" d="M5.98323 13.3178C5.98323 14.3107 5.17221 15.1217 4.17942 15.1217C3.18662 15.1217 2.37561 14.3107 2.37561 13.3178C2.37561 12.3251 3.18662 11.514 4.17942 11.514H5.98323V13.3178ZM6.89214 13.3178C6.89214 12.3251 7.70315 11.514 8.69594 11.514C9.68878 11.514 10.4998 12.3251 10.4998 13.3178V17.8344C10.4998 18.8272 9.68878 19.6382 8.69594 19.6382C7.70315 19.6382 6.89214 18.8272 6.89214 17.8344V13.3178ZM8.69594 5.99697C7.70315 5.99697 6.89214 5.18595 6.89214 4.19315C6.89214 3.20035 7.70315 2.38934 8.69594 2.38934C9.68878 2.38934 10.4998 3.20035 10.4998 4.19315V5.99697H8.69594ZM8.69594 6.90587C9.68878 6.90587 10.4998 7.71688 10.4998 8.70968C10.4998 9.70251 9.68878 10.5135 8.69594 10.5135H4.17942C3.18662 10.5135 2.37561 9.70251 2.37561 8.70968C2.37561 7.71688 3.18662 6.90587 4.17942 6.90587H8.69594ZM16.0169 8.70968C16.0169 7.71688 16.8279 6.90587 17.8206 6.90587C18.8135 6.90587 19.6244 7.71688 19.6244 8.70968C19.6244 9.70251 18.8135 10.5135 17.8206 10.5135H16.0169V8.70968ZM15.1079 8.70968C15.1079 9.70251 14.297 10.5135 13.3041 10.5135C12.3114 10.5135 11.5003 9.70251 11.5003 8.70968V4.19315C11.5003 3.20035 12.3114 2.38934 13.3041 2.38934C14.297 2.38934 15.1079 3.20035 15.1079 4.19315V8.70968ZM13.3041 16.0306C14.297 16.0306 15.1079 16.8416 15.1079 17.8344C15.1079 18.8272 14.297 19.6382 13.3041 19.6382C12.3114 19.6382 11.5003 18.8272 11.5003 17.8344V16.0306H13.3041ZM13.3041 15.1217C12.3114 15.1217 11.5003 14.3107 11.5003 13.3178C11.5003 12.3251 12.3114 11.514 13.3041 11.514H17.8206C18.8135 11.514 19.6244 12.3251 19.6244 13.3178C19.6244 14.3107 18.8135 15.1217 17.8206 15.1217H13.3041Z" fill="#43302B"/>
</g>
</svg>
