<svg width="97" height="59" viewBox="0 0 97 59" fill="none" xmlns="http://www.w3.org/2000/svg">
<g clip-path="url(#clip0_24151_2488)">
<path d="M47.025 7.59399H45.5625V11.7726H47.025V7.59399Z" fill="#FD4B2D"/>
<path d="M50.8317 7.41748H49.3691V10.6846H50.8317V7.41748Z" fill="#FD4B2D"/>
<path d="M28.0536 12.2017C27.0938 12.2011 26.1517 12.4595 25.3266 12.9497C24.5014 13.4398 23.8238 14.1436 23.3652 14.9866H25.8449C26.9446 14.0384 28.538 13.7629 29.6997 14.9866H32.3148C31.2908 13.5999 29.7548 12.2017 28.0536 12.2017Z" fill="#FD4B2D"/>
<path d="M31.5911 17.508C28.1725 24.6598 22.1778 18.5641 25.8513 14.9824H23.3625C21.4178 18.3712 24.1064 22.9448 28.0508 22.8414C31.0998 22.8414 33.6162 18.3138 33.6162 17.5126C33.6162 17.159 33.1248 16.0776 32.3121 14.987H29.697C30.4672 15.7134 31.1078 16.566 31.5911 17.508Z" fill="#FD4B2D"/>
<path d="M64.5113 7.54393V26.4373C64.5065 28.1768 63.812 29.8434 62.5803 31.0718C61.3485 32.3001 59.6799 32.9899 57.9403 32.9899H55.16V26.5612H41.855V32.9899H39.07C37.3316 32.9881 35.6648 32.2975 34.4345 31.0693C33.2042 29.8412 32.5107 28.1756 32.5059 26.4373V20.4862H53.5987V9.13043H43.4162V15.5109H32.5059V7.54393C32.5053 7.29149 32.5198 7.03925 32.5495 6.78856C32.5826 6.49114 32.637 6.1965 32.7125 5.90692C32.7355 5.81279 32.763 5.71865 32.7906 5.62911C32.7958 5.60568 32.8027 5.58265 32.8112 5.56023C32.8273 5.51202 32.8411 5.4684 32.8572 5.42477C32.8732 5.38115 32.8893 5.33294 32.9054 5.28931C32.9214 5.24569 32.9421 5.18829 32.9628 5.14008C32.9834 5.09186 33.0041 5.04135 33.0225 4.99314C33.1865 4.60645 33.3864 4.23596 33.6194 3.88649V3.87501C33.6791 3.79006 33.7411 3.70281 33.8054 3.61786C33.8697 3.53291 33.9133 3.47781 33.9661 3.40893C34.0189 3.34006 34.097 3.25511 34.1635 3.17934C34.2301 3.10357 34.2921 3.03469 34.361 2.96582C34.3956 2.9255 34.4332 2.88789 34.4735 2.85332C34.7168 2.61653 34.9778 2.39856 35.2541 2.20127C35.3276 2.14616 35.4057 2.09565 35.4837 2.04514C35.5618 1.99463 35.6605 1.93264 35.7523 1.87983C35.9224 1.77775 36.0979 1.68501 36.2781 1.60203L36.4503 1.52396C36.7005 1.41504 36.9574 1.32225 37.2195 1.24615C37.3205 1.21631 37.4215 1.19105 37.5248 1.1658C37.5739 1.15164 37.6237 1.14015 37.674 1.13136C37.9669 1.06769 38.2638 1.02397 38.5626 1.00049H38.6912H38.7554C38.8542 1.00049 38.9552 1.00049 39.0562 1.00049H57.9403C58.0391 1.00049 58.1401 1.00049 58.2388 1.00049H58.3031H58.4317C58.7312 1.02413 59.0288 1.06785 59.3225 1.13136C59.373 1.13136 59.4212 1.15202 59.4717 1.1658C59.5751 1.19105 59.6738 1.21631 59.7748 1.24615C60.037 1.32187 60.2939 1.41467 60.5439 1.52396L60.7161 1.60203C60.8968 1.68548 61.0731 1.77821 61.2442 1.87983C61.3338 1.93264 61.4233 1.98774 61.5105 2.04514C61.5978 2.10254 61.669 2.14616 61.7401 2.20127C62.0615 2.43147 62.3619 2.68962 62.6378 2.9727C62.7067 3.04158 62.7733 3.11276 62.8376 3.18623C62.9042 3.2597 62.9685 3.33776 63.0327 3.41582L63.1958 3.62475C63.26 3.7097 63.3197 3.79695 63.3794 3.8819V3.89338C63.6133 4.24232 63.8132 4.6129 63.9764 5.00002L64.0384 5.14696L64.0935 5.2962C64.1118 5.33982 64.1279 5.38574 64.144 5.43166L64.1876 5.56712C64.1876 5.58778 64.2014 5.61074 64.2106 5.636C64.2358 5.72554 64.2634 5.81968 64.2886 5.91381C64.3622 6.20368 64.4159 6.49825 64.4494 6.79545C64.4849 7.04349 64.5056 7.29343 64.5113 7.54393Z" fill="#FD4B2D"/>
<path d="M63.3913 3.88592H33.6152C34.2153 2.99168 35.0261 2.2588 35.9762 1.7519C36.9264 1.245 37.9866 0.979654 39.0635 0.97925H57.9362C59.0142 0.978524 60.0759 1.24333 61.0273 1.75028C61.9787 2.25723 62.7907 2.99071 63.3913 3.88592Z" fill="#FD4B2D"/>
<path d="M64.4654 6.79036H32.5449C32.663 5.74996 33.0308 4.75353 33.6171 3.88599H63.3932C63.9805 4.75303 64.3484 5.74971 64.4654 6.79036Z" fill="#FD4B2D"/>
<path d="M64.512 7.54321V9.69451H53.5971V9.1297H43.4146V9.69451H32.502V7.54321C32.5014 7.29077 32.5159 7.03853 32.5456 6.78784H64.4592C64.492 7.03834 64.5096 7.29059 64.512 7.54321Z" fill="#FD4B2D"/>
<path d="M43.4169 9.69482H32.502V12.6015H43.4169V9.69482Z" fill="#FD4B2D"/>
<path d="M64.5145 9.69482H53.5996V12.6015H64.5145V9.69482Z" fill="#FD4B2D"/>
<path d="M43.4169 12.6021H32.502V15.5064H43.4169V12.6021Z" fill="#FD4B2D"/>
<path d="M64.5145 12.6021H53.5996V15.5064H64.5145V12.6021Z" fill="#FD4B2D"/>
<path d="M8.6642 47.2021H11.2306V57.4332H8.6642V56.3513C8.22848 56.7837 7.71742 57.1327 7.15621 57.3814C6.63635 57.5945 6.07913 57.7016 5.5173 57.6963C4.1958 57.6963 3.05297 57.1837 2.08882 56.1587C1.12466 55.1336 0.642578 53.8606 0.642578 52.3399C0.642578 50.7607 1.10901 49.4659 2.04188 48.4557C2.97476 47.4454 4.10812 46.9407 5.44196 46.9415C6.03615 46.9373 6.6248 47.0559 7.17103 47.2898C7.73208 47.5375 8.23963 47.892 8.66543 48.3334L8.6642 47.2021ZM5.96562 49.3079C5.59519 49.299 5.22715 49.3695 4.88629 49.5148C4.54542 49.6601 4.23964 49.8768 3.98955 50.1502C3.46507 50.7109 3.20242 51.4301 3.20159 52.3078C3.20077 53.1855 3.46877 53.9125 4.00561 54.4889C4.25446 54.7648 4.55969 54.9839 4.90061 55.1316C5.24154 55.2793 5.61022 55.352 5.98168 55.3448C6.35651 55.3547 6.72918 55.2849 7.07497 55.1399C7.42076 54.9949 7.73177 54.778 7.98739 54.5037C8.51846 53.943 8.784 53.2077 8.784 52.2979C8.784 51.4087 8.51846 50.6878 7.98739 50.1353C7.72735 49.8632 7.41293 49.6489 7.0646 49.5064C6.71627 49.3638 6.34182 49.2962 5.96562 49.3079Z" fill="#FD4B2D"/>
<path d="M14.9739 47.2026H17.5675V52.1292C17.5675 53.0885 17.6334 53.7546 17.7651 54.1275C17.8816 54.4754 18.1045 54.7779 18.4024 54.9921C18.7206 55.2064 19.0983 55.3149 19.4818 55.3021C19.8673 55.3138 20.2471 55.2069 20.5699 54.9958C20.8815 54.775 21.1143 54.4604 21.2343 54.0979C21.3422 53.804 21.3957 53.1741 21.3949 52.2083V47.2026H23.9625V51.5376C23.9625 53.3235 23.8213 54.5458 23.5389 55.2045C23.2332 55.9635 22.7016 56.6102 22.0161 57.0571C21.3443 57.4869 20.4917 57.7018 19.4583 57.7018C18.3353 57.7018 17.4275 57.451 16.7351 56.9496C16.0297 56.4299 15.5156 55.6919 15.2728 54.85C15.0727 54.2284 14.9727 53.1 14.9727 51.4648L14.9739 47.2026Z" fill="#FD4B2D"/>
<path d="M28.006 43.4302H30.5724V47.202H32.0965V49.4115H30.5724V57.4393H28.006V49.4115H26.6895V47.202H28.006V43.4302Z" fill="#FD4B2D"/>
<path d="M34.6348 43.2524H37.1827V48.2358C37.6342 47.8353 38.145 47.5071 38.6968 47.2626C39.1836 47.0506 39.7085 46.9401 40.2394 46.9378C40.7166 46.9277 41.1908 47.016 41.6323 47.1973C42.0739 47.3785 42.4734 47.6488 42.8058 47.9913C43.4011 48.6006 43.6992 49.4939 43.7 50.6714V57.4332H41.1682V52.9475C41.1682 51.7619 41.1118 50.9595 40.999 50.5404C40.9179 50.1706 40.7142 49.8389 40.4209 49.5993C40.128 49.3866 39.7725 49.2775 39.4107 49.2893C38.9136 49.2804 38.4327 49.4661 38.0707 49.8068C37.6765 50.1885 37.4062 50.6799 37.2951 51.2172C37.2201 51.5235 37.1823 52.2234 37.1814 53.3168V57.4271H34.6348V43.2524Z" fill="#FD4B2D"/>
<path d="M57.5865 53.0601H49.3389C49.4318 53.7349 49.7721 54.3511 50.2936 54.7892C50.8115 55.219 51.4702 55.4335 52.2697 55.4326C52.7277 55.439 53.1824 55.3533 53.6067 55.1806C54.031 55.0079 54.4163 54.7517 54.7397 54.4273L56.9023 55.4425C56.4125 56.1644 55.7457 56.7487 54.9658 57.1395C54.214 57.5067 53.3207 57.6903 52.2857 57.6903C50.6802 57.6903 49.3731 57.1839 48.3644 56.1712C47.3558 55.1585 46.8548 53.8925 46.8614 52.3734C46.8614 50.809 47.3645 49.5131 48.3706 48.4855C49.3768 47.4579 50.6386 46.9421 52.156 46.938C53.7665 46.938 55.0765 47.4538 56.0859 48.4855C57.0954 49.5172 57.6001 50.879 57.6001 52.571L57.5865 53.0601ZM55.0189 51.0383C54.8533 50.4735 54.4994 49.9823 54.016 49.6464C53.5084 49.2869 52.899 49.099 52.2771 49.1104C51.6 49.0983 50.9379 49.3102 50.3936 49.7131C50.0552 49.9601 49.7415 50.4019 49.4525 51.0383H55.0189Z" fill="#FD4B2D"/>
<path d="M60.8164 47.2024H63.3853V48.2509C63.8573 47.8305 64.3908 47.4848 64.9674 47.2259C65.4279 47.0367 65.9208 46.939 66.4186 46.9381C66.8989 46.9293 67.3759 47.0192 67.82 47.2021C68.2642 47.385 68.6662 47.657 69.0011 48.0015C69.5955 48.6033 69.8928 49.4934 69.8928 50.6716V57.4335H67.3535V52.9577C67.3535 51.7366 67.2987 50.9256 67.1892 50.5247C67.1075 50.1633 66.9076 49.8395 66.6211 49.6045C66.3303 49.389 65.9752 49.278 65.6133 49.2896C65.1159 49.2806 64.6349 49.4678 64.2745 49.8108C63.8782 50.2031 63.6085 50.7051 63.5002 51.2521C63.4261 51.5724 63.3886 52.2644 63.3878 53.3282V57.4335H60.8164V47.2024Z" fill="#FD4B2D"/>
<path d="M73.8439 43.4302H76.4116V47.202H77.9344V49.4115H76.4116V57.4393H73.8439V49.4115H72.5273V47.202H73.8439V43.4302Z" fill="#FD4B2D"/>
<path d="M81.4617 42.9899C81.6779 42.9872 81.8924 43.0291 82.0917 43.1131C82.2911 43.197 82.4709 43.3211 82.6201 43.4777C82.7766 43.6324 82.9001 43.8173 82.9831 44.0211C83.0661 44.2248 83.1069 44.4433 83.1031 44.6634C83.1068 44.8807 83.0664 45.0965 82.9842 45.2978C82.902 45.4991 82.7799 45.6815 82.6251 45.8342C82.4778 45.9892 82.3001 46.1122 82.1031 46.1955C81.9061 46.2788 81.6941 46.3206 81.4802 46.3183C81.262 46.3215 81.0456 46.2792 80.8447 46.1941C80.6437 46.1091 80.4627 45.9831 80.3131 45.8243C80.1573 45.6666 80.0348 45.4791 79.9529 45.2731C79.871 45.0671 79.8314 44.8467 79.8364 44.6251C79.833 44.41 79.8737 44.1965 79.9559 43.9977C80.0381 43.7989 80.1601 43.619 80.3143 43.4691C80.4628 43.3153 80.6412 43.1934 80.8385 43.111C81.0358 43.0286 81.2479 42.9874 81.4617 42.9899Z" fill="#FD4B2D"/>
<path d="M82.7454 47.2026H80.1777V57.4338H82.7454V47.2026Z" fill="#FD4B2D"/>
<path d="M86.2598 43.2524H88.8262V51.4198L92.6005 47.2021H95.8252L91.4173 52.1052L96.3575 57.4332H93.1711L88.82 52.7178V57.4332H86.2598V43.2524Z" fill="#FD4B2D"/>
</g>
<defs>
<clipPath id="clip0_24151_2488">
<rect width="95.7148" height="58.204" fill="white" transform="translate(0.642578 0.238525)"/>
</clipPath>
</defs>
</svg>
