<svg width="91" height="73" viewBox="0 0 91 73" fill="none" xmlns="http://www.w3.org/2000/svg">
<g clip-path="url(#clip0_24151_2179)">
<path d="M59.623 10.5511L64.1309 9.39038L64.1645 9.43988L64.2783 36.6585L64.1309 36.8065L63.2021 36.8462L59.6759 36.2973L59.623 36.1584V10.5511Z" fill="#7A3E65"/>
<path d="M33.5527 38.6973L33.5694 38.6985L45.4686 42.1561L45.4988 42.1794L45.5506 42.2207L45.5338 52.5815L45.4988 52.6256L33.5527 46.8221V38.6973Z" fill="#7A3E65"/>
<path d="M59.6239 36.158L45.5184 39.536L38.4363 37.8265L33.5527 38.6969L45.4988 42.179L63.9362 37.1874L64.1317 36.806L59.6239 36.158Z" fill="#CFB2C1"/>
<path d="M57.4442 14.3229L57.3293 14.1919L45.6265 10.7915L45.4981 10.841L45.3806 10.781L26.9658 16.091L26.8652 16.214L27.013 16.295L31.2242 16.9124L31.3731 16.8619L45.4786 13.484L52.5607 15.1935L57.4442 14.3229Z" fill="#512843"/>
<path d="M31.3749 42.4697L26.8671 43.5579L26.8592 43.5318L26.6816 16.4148L26.8671 16.2144L31.3749 16.8623V42.4697Z" fill="#C17B9E"/>
<path d="M37.4609 31.951L45.5002 32.894L45.5606 32.8039L45.5933 20.2295L45.5002 20.1265L37.4609 21.0696V31.951Z" fill="#7A3E65"/>
<path d="M53.5373 31.951L45.498 32.894V20.1265L53.5373 21.0696V31.951Z" fill="#C17B9E"/>
<path d="M57.4441 14.3231L45.498 10.8412V0.39502L57.4441 6.19831V14.3231Z" fill="#C17B9E"/>
<path d="M45.499 0.39502L23.1094 11.2038V41.8166L26.8661 43.5577V16.2142L45.499 10.8412V0.39502Z" fill="#7A3E65"/>
<path d="M64.131 9.39038V36.8065L45.498 42.1795V52.6257L67.8877 41.8167V11.2039L64.131 9.39038Z" fill="#C17B9E"/>
</g>
<path d="M2.81179 69.6958H0.84304L4.42756 59.514H6.70455L10.294 69.6958H8.32528L5.60582 61.6021H5.52628L2.81179 69.6958ZM2.87642 65.7036H8.24574V67.1851H2.87642V65.7036ZM12.8208 69.6958L9.94727 59.514H11.9309L13.7654 66.9962H13.8599L15.8187 59.514H17.6234L19.5872 67.0012H19.6767L21.5112 59.514H23.4949L20.6213 69.6958H18.8017L16.7633 62.5516H16.6838L14.6404 69.6958H12.8208ZM30.2388 62.313C30.1924 61.8788 29.9969 61.5407 29.6522 61.2988C29.3108 61.0568 28.8667 60.9359 28.3198 60.9359C27.9353 60.9359 27.6055 60.9939 27.3304 61.1099C27.0553 61.2259 26.8449 61.3833 26.699 61.5822C26.5532 61.781 26.4786 62.0081 26.4753 62.2633C26.4753 62.4754 26.5234 62.6593 26.6195 62.8151C26.7189 62.9709 26.8532 63.1035 27.0222 63.2128C27.1912 63.3189 27.3785 63.4084 27.584 63.4813C27.7895 63.5542 27.9966 63.6155 28.2054 63.6653L29.16 63.9039C29.5444 63.9934 29.914 64.1144 30.2686 64.2668C30.6266 64.4193 30.9464 64.6115 31.2282 64.8435C31.5132 65.0755 31.7386 65.3556 31.9043 65.6837C32.07 66.0119 32.1529 66.3963 32.1529 66.8371C32.1529 67.4337 32.0004 67.9591 31.6955 68.4131C31.3906 68.8639 30.9498 69.2169 30.373 69.4721C29.7997 69.724 29.1053 69.8499 28.29 69.8499C27.4978 69.8499 26.8101 69.7273 26.2267 69.482C25.6467 69.2368 25.1926 68.8788 24.8645 68.4082C24.5397 67.9375 24.3641 67.3641 24.3375 66.688H26.1522C26.1787 67.0426 26.2881 67.3376 26.4803 67.5729C26.6725 67.8083 26.9228 67.9839 27.231 68.0999C27.5426 68.2159 27.8906 68.2739 28.275 68.2739C28.6761 68.2739 29.0274 68.2143 29.329 68.0949C29.6339 67.9723 29.8726 67.8033 30.0449 67.5878C30.2173 67.3691 30.3051 67.1139 30.3084 66.8222C30.3051 66.5571 30.2272 66.3383 30.0748 66.166C29.9223 65.9903 29.7085 65.8445 29.4334 65.7285C29.1616 65.6092 28.8435 65.5031 28.4789 65.4103L27.3205 65.112C26.4819 64.8966 25.8191 64.5701 25.3319 64.1326C24.848 63.6918 24.606 63.1068 24.606 62.3776C24.606 61.7777 24.7684 61.2524 25.0932 60.8016C25.4213 60.3509 25.8671 60.0012 26.4306 59.7526C26.994 59.5007 27.632 59.3748 28.3446 59.3748C29.0672 59.3748 29.7002 59.5007 30.2438 59.7526C30.7907 60.0012 31.2199 60.3476 31.5314 60.7917C31.843 61.2325 32.0037 61.7396 32.0137 62.313H30.2388ZM45.9851 62.9494H44.1257C44.0727 62.6444 43.9749 62.3743 43.8324 62.139C43.6899 61.9003 43.5125 61.6982 43.3004 61.5324C43.0883 61.3667 42.8464 61.2424 42.5746 61.1596C42.3061 61.0734 42.0161 61.0303 41.7045 61.0303C41.151 61.0303 40.6605 61.1695 40.233 61.4479C39.8054 61.723 39.4706 62.1274 39.2287 62.661C38.9867 63.1913 38.8658 63.8393 38.8658 64.6049C38.8658 65.3838 38.9867 66.04 39.2287 66.5736C39.474 67.1039 39.8087 67.505 40.233 67.7768C40.6605 68.0452 41.1494 68.1795 41.6996 68.1795C42.0045 68.1795 42.2895 68.1397 42.5547 68.0601C42.8232 67.9773 43.0634 67.8563 43.2756 67.6972C43.491 67.5381 43.6716 67.3426 43.8175 67.1106C43.9666 66.8786 44.0694 66.6134 44.1257 66.3151L45.9851 66.3251C45.9155 66.809 45.7647 67.263 45.5327 67.6873C45.304 68.1115 45.004 68.486 44.6328 68.8109C44.2616 69.1324 43.8274 69.3842 43.3303 69.5665C42.8331 69.7455 42.2813 69.835 41.6747 69.835C40.7798 69.835 39.9811 69.6279 39.2784 69.2136C38.5758 68.7993 38.0223 68.201 37.6179 67.4188C37.2135 66.6366 37.0114 65.6986 37.0114 64.6049C37.0114 63.5078 37.2152 62.5699 37.6229 61.791C38.0305 61.0088 38.5857 60.4105 39.2884 59.9962C39.991 59.5819 40.7865 59.3748 41.6747 59.3748C42.2415 59.3748 42.7685 59.4543 43.2557 59.6134C43.7429 59.7725 44.1771 60.0062 44.5582 60.3144C44.9394 60.6193 45.2526 60.9939 45.4979 61.438C45.7464 61.8788 45.9089 62.3826 45.9851 62.9494ZM50.9256 69.8449C50.1799 69.8449 49.5336 69.6809 48.9867 69.3528C48.4398 69.0246 48.0156 68.5656 47.714 67.9756C47.4157 67.3857 47.2665 66.6963 47.2665 65.9074C47.2665 65.1186 47.4157 64.4276 47.714 63.8343C48.0156 63.241 48.4398 62.7803 48.9867 62.4522C49.5336 62.1241 50.1799 61.96 50.9256 61.96C51.6713 61.96 52.3176 62.1241 52.8645 62.4522C53.4114 62.7803 53.834 63.241 54.1323 63.8343C54.4339 64.4276 54.5847 65.1186 54.5847 65.9074C54.5847 66.6963 54.4339 67.3857 54.1323 67.9756C53.834 68.5656 53.4114 69.0246 52.8645 69.3528C52.3176 69.6809 51.6713 69.8449 50.9256 69.8449ZM50.9355 68.4032C51.3399 68.4032 51.678 68.2922 51.9498 68.0701C52.2215 67.8447 52.4237 67.5431 52.5563 67.1653C52.6922 66.7874 52.7601 66.3665 52.7601 65.9025C52.7601 65.4351 52.6922 65.0126 52.5563 64.6347C52.4237 64.2536 52.2215 63.9503 51.9498 63.7249C51.678 63.4995 51.3399 63.3869 50.9355 63.3869C50.5212 63.3869 50.1766 63.4995 49.9015 63.7249C49.6297 63.9503 49.4258 64.2536 49.29 64.6347C49.1574 65.0126 49.0911 65.4351 49.0911 65.9025C49.0911 66.3665 49.1574 66.7874 49.29 67.1653C49.4258 67.5431 49.6297 67.8447 49.9015 68.0701C50.1766 68.2922 50.5212 68.4032 50.9355 68.4032ZM59.4332 72.7185C58.7869 72.7185 58.2318 72.6307 57.7678 72.455C57.3037 72.2827 56.9309 72.0507 56.6491 71.759C56.3674 71.4673 56.1719 71.1442 56.0625 70.7896L57.6832 70.3968C57.7562 70.5459 57.8622 70.6934 58.0014 70.8393C58.1406 70.9884 58.3279 71.111 58.5632 71.2072C58.8018 71.3066 59.1018 71.3563 59.4631 71.3563C59.9735 71.3563 60.3961 71.232 60.7308 70.9834C61.0656 70.7382 61.233 70.3338 61.233 69.7704V68.3236H61.1435C61.0507 68.5092 60.9148 68.6998 60.7358 68.8954C60.5601 69.0909 60.3265 69.255 60.0348 69.3876C59.7464 69.5201 59.3835 69.5864 58.946 69.5864C58.3594 69.5864 57.8274 69.4489 57.3501 69.1738C56.8762 68.8954 56.4983 68.4811 56.2166 67.9309C55.9382 67.3774 55.799 66.6847 55.799 65.8528C55.799 65.0142 55.9382 64.3066 56.2166 63.7299C56.4983 63.1499 56.8778 62.7107 57.3551 62.4124C57.8324 62.1108 58.3643 61.96 58.951 61.96C59.3984 61.96 59.7663 62.0362 60.0547 62.1887C60.3464 62.3378 60.5784 62.5185 60.7507 62.7306C60.9231 62.9394 61.054 63.1366 61.1435 63.3222H61.2429V62.0594H63.0178V69.8201C63.0178 70.473 62.862 71.0133 62.5504 71.4408C62.2389 71.8684 61.813 72.1882 61.2727 72.4003C60.7325 72.6125 60.1193 72.7185 59.4332 72.7185ZM59.4482 68.1745C59.8293 68.1745 60.1541 68.0817 60.4226 67.8961C60.6911 67.7105 60.8949 67.4437 61.0341 67.0957C61.1733 66.7476 61.2429 66.33 61.2429 65.8428C61.2429 65.3622 61.1733 64.9413 61.0341 64.58C60.8982 64.2188 60.696 63.9387 60.4276 63.7398C60.1624 63.5377 59.8359 63.4366 59.4482 63.4366C59.0471 63.4366 58.7124 63.541 58.4439 63.7498C58.1754 63.9586 57.9732 64.2453 57.8374 64.6099C57.7015 64.9711 57.6335 65.3821 57.6335 65.8428C57.6335 66.3101 57.7015 66.7195 57.8374 67.0708C57.9766 67.4188 58.1804 67.6906 58.4489 67.8861C58.7206 68.0784 59.0537 68.1745 59.4482 68.1745ZM66.6619 65.2214V69.6958H64.8622V62.0594H66.5824V63.357H66.6719C66.8475 62.9295 67.1276 62.5897 67.5121 62.3378C67.8999 62.086 68.3788 61.96 68.9489 61.96C69.4759 61.96 69.9349 62.0727 70.326 62.2981C70.7204 62.5235 71.0253 62.8499 71.2408 63.2775C71.4595 63.705 71.5672 64.2237 71.5639 64.8336V69.6958H69.7642V65.112C69.7642 64.6016 69.6316 64.2022 69.3665 63.9138C69.1046 63.6255 68.7417 63.4813 68.2777 63.4813C67.9628 63.4813 67.6828 63.5509 67.4375 63.6901C67.1955 63.826 67.005 64.0232 66.8658 64.2817C66.7299 64.5403 66.6619 64.8535 66.6619 65.2214ZM73.3935 69.6958V62.0594H75.1932V69.6958H73.3935ZM74.2983 60.9756C74.0133 60.9756 73.768 60.8812 73.5625 60.6922C73.357 60.5 73.2543 60.2697 73.2543 60.0012C73.2543 59.7294 73.357 59.4991 73.5625 59.3101C73.768 59.1179 74.0133 59.0218 74.2983 59.0218C74.5866 59.0218 74.8319 59.1179 75.0341 59.3101C75.2396 59.4991 75.3423 59.7294 75.3423 60.0012C75.3423 60.2697 75.2396 60.5 75.0341 60.6922C74.8319 60.8812 74.5866 60.9756 74.2983 60.9756ZM80.8571 62.0594V63.4515H76.4672V62.0594H80.8571ZM77.551 60.2299H79.3507V67.3989C79.3507 67.6409 79.3871 67.8265 79.46 67.9557C79.5363 68.0817 79.6357 68.1679 79.7583 68.2143C79.881 68.2607 80.0169 68.2839 80.166 68.2839C80.2787 68.2839 80.3815 68.2756 80.4743 68.259C80.5704 68.2424 80.6433 68.2275 80.693 68.2143L80.9963 69.6212C80.9002 69.6544 80.7626 69.6908 80.5836 69.7306C80.408 69.7704 80.1925 69.7936 79.9373 69.8002C79.4866 69.8135 79.0806 69.7455 78.7193 69.5964C78.358 69.4439 78.0713 69.2086 77.8592 68.8904C77.6504 68.5722 77.5476 68.1745 77.551 67.6972V60.2299ZM85.6112 69.8449C84.8654 69.8449 84.2191 69.6809 83.6722 69.3528C83.1254 69.0246 82.7011 68.5656 82.3995 67.9756C82.1012 67.3857 81.9521 66.6963 81.9521 65.9074C81.9521 65.1186 82.1012 64.4276 82.3995 63.8343C82.7011 63.241 83.1254 62.7803 83.6722 62.4522C84.2191 62.1241 84.8654 61.96 85.6112 61.96C86.3569 61.96 87.0032 62.1241 87.5501 62.4522C88.0969 62.7803 88.5195 63.241 88.8178 63.8343C89.1194 64.4276 89.2702 65.1186 89.2702 65.9074C89.2702 66.6963 89.1194 67.3857 88.8178 67.9756C88.5195 68.5656 88.0969 69.0246 87.5501 69.3528C87.0032 69.6809 86.3569 69.8449 85.6112 69.8449ZM85.6211 68.4032C86.0254 68.4032 86.3635 68.2922 86.6353 68.0701C86.9071 67.8447 87.1093 67.5431 87.2418 67.1653C87.3777 66.7874 87.4457 66.3665 87.4457 65.9025C87.4457 65.4351 87.3777 65.0126 87.2418 64.6347C87.1093 64.2536 86.9071 63.9503 86.6353 63.7249C86.3635 63.4995 86.0254 63.3869 85.6211 63.3869C85.2068 63.3869 84.8621 63.4995 84.587 63.7249C84.3152 63.9503 84.1114 64.2536 83.9755 64.6347C83.8429 65.0126 83.7766 65.4351 83.7766 65.9025C83.7766 66.3665 83.8429 66.7874 83.9755 67.1653C84.1114 67.5431 84.3152 67.8447 84.587 68.0701C84.8621 68.2922 85.2068 68.4032 85.6211 68.4032Z" fill="black"/>
<defs>
<clipPath id="clip0_24151_2179">
<rect width="44.7793" height="52.3008" fill="white" transform="translate(23.1094 0.39502)"/>
</clipPath>
</defs>
</svg>
