<svg width="53" height="60" viewBox="0 0 53 60" fill="none" xmlns="http://www.w3.org/2000/svg">
<path d="M39.8624 4.99001L35.7989 9.05344C35.6712 9.18099 35.5043 9.26198 35.3252 9.28341C35.1459 9.30484 34.9647 9.26546 34.8106 9.17163C33.2122 8.20734 31.3687 7.72642 29.5029 7.78695C27.637 7.84748 25.8287 8.44685 24.2961 9.51271C23.3535 10.1688 22.5351 10.9872 21.879 11.9298C20.8144 13.4633 20.2156 15.2718 20.1546 17.1376C20.0936 19.0035 20.573 20.8472 21.5352 22.447C21.6284 22.6009 21.6674 22.7815 21.646 22.9602C21.6245 23.1388 21.5439 23.3051 21.417 23.4326L17.3536 27.496C17.2718 27.5784 17.1731 27.6421 17.0644 27.6828C16.9556 27.7235 16.8394 27.7402 16.7236 27.7319C16.6078 27.7234 16.4952 27.6901 16.3935 27.6341C16.2918 27.5781 16.2033 27.5008 16.1343 27.4074C13.9357 24.3854 12.7995 20.7205 12.903 16.9849C13.0065 13.2492 14.3438 9.65283 16.7063 6.75718C17.4276 5.87123 18.2375 5.06131 19.1235 4.34007C22.0189 1.9782 25.6147 0.641227 29.3498 0.537744C33.0849 0.43426 36.7492 1.57009 39.771 3.76801C39.865 3.83684 39.9429 3.92523 39.9993 4.02708C40.0559 4.12893 40.0896 4.24181 40.0984 4.35796C40.1071 4.47411 40.0905 4.59077 40.0497 4.69989C40.0089 4.809 39.945 4.90798 39.8624 4.99001Z" fill="url(#paint0_linear_9738_765)"/>
<path d="M39.859 29.9124L35.7955 25.8489C35.6678 25.7214 35.5009 25.6404 35.3218 25.619C35.1426 25.5975 34.9613 25.6369 34.8072 25.7307C33.3 26.6399 31.5733 27.1205 29.8132 27.1205C28.053 27.1205 26.3262 26.6399 24.8191 25.7307C24.6649 25.6369 24.4837 25.5975 24.3045 25.619C24.1253 25.6404 23.9585 25.7214 23.8308 25.8489L19.7673 29.9124C19.6821 29.9942 19.616 30.094 19.5736 30.2043C19.5312 30.3146 19.5136 30.433 19.5221 30.5509C19.5305 30.6688 19.5648 30.7834 19.6225 30.8865C19.6802 30.9897 19.7599 31.0789 19.856 31.1477C22.7484 33.2523 26.2334 34.3859 29.8105 34.3859C33.3875 34.3859 36.8725 33.2523 39.765 31.1477C39.8614 31.0793 39.9415 30.9904 39.9997 30.8875C40.0579 30.7845 40.0927 30.6701 40.1017 30.5522C40.1106 30.4342 40.0935 30.3157 40.0516 30.2053C40.0096 30.0947 39.9439 29.9947 39.859 29.9124Z" fill="#1F0256"/>
<path d="M29.8206 22.2857C32.4904 22.2857 34.6549 20.1213 34.6549 17.4514C34.6549 14.7816 32.4904 12.6172 29.8206 12.6172C27.1507 12.6172 24.9863 14.7816 24.9863 17.4514C24.9863 20.1213 27.1507 22.2857 29.8206 22.2857Z" fill="#1F0256"/>
<path d="M10.3519 55.9968C9.94702 56.4166 9.46069 56.7494 8.92283 56.975C8.38496 57.2007 7.80671 57.3143 7.22344 57.309C6.73088 57.3239 6.24046 57.2378 5.78246 57.056C5.32446 56.8742 4.90849 56.6006 4.5602 56.2519C3.92755 55.5919 3.56342 54.6496 3.56342 53.5264C3.56342 51.2778 5.02741 49.7397 7.22344 49.7397C7.81244 49.7315 8.39601 49.8533 8.93244 50.0966C9.46887 50.34 9.94497 50.6987 10.3267 51.1473L12.2268 49.4672C10.9886 47.9643 8.97948 47.1875 7.0716 47.1875C3.33764 47.1875 0.689941 49.7612 0.689941 53.5477C0.689941 55.4205 1.34796 56.9975 2.45763 58.1111C3.56731 59.2246 5.14817 59.8788 6.97231 59.8788C9.34156 59.8788 11.232 58.9171 12.293 57.7081L10.3519 55.9968Z" fill="#1F0256"/>
<path d="M14.0112 42.3867H16.8399V59.6802H14.0112V42.3867Z" fill="#1F0256"/>
<path d="M30.4653 54.5106C30.5119 54.134 30.5379 53.7551 30.5431 53.3756C30.5431 49.7896 28.1952 47.1925 24.5644 47.1925C23.7637 47.1768 22.9681 47.3252 22.2269 47.6285C21.4856 47.9318 20.8142 48.3837 20.2542 48.9564C19.1932 50.0699 18.5566 51.6469 18.5566 53.5275C18.5566 57.3607 21.2587 59.8837 24.8409 59.8837C27.2452 59.8837 28.976 58.9104 30.0136 57.5905L28.1603 55.9493L28.0687 55.8715C27.701 56.3314 27.2322 56.7004 26.6987 56.9499C26.1653 57.1994 25.5816 57.3227 24.9928 57.3101C23.1745 57.3101 21.8622 56.2491 21.4885 54.5106H30.4653ZM21.5352 52.2406C21.6615 51.6926 21.9202 51.184 22.2887 50.7591C22.5952 50.4251 22.9704 50.1612 23.3883 49.9854C23.8063 49.8098 24.2573 49.7263 24.7105 49.7409C26.3263 49.7409 27.3386 50.7513 27.6871 52.2406H21.5352Z" fill="#1F0256"/>
<path d="M39.2872 47.1523V50.3062C38.9601 50.2809 38.6312 50.2555 38.4306 50.2555C36.2891 50.2555 35.0743 51.7936 35.0743 53.8124V59.6782H32.2495V47.3276H35.0743V49.1984H35.0997C36.0594 47.8863 37.4358 47.1563 38.9349 47.1563L39.2872 47.1523Z" fill="#1F0256"/>
<path d="M45.8739 54.5075L43.8316 56.7795V59.6802H41.0049V42.3867H43.8316V52.9949L48.8759 47.3686H52.2321L47.7934 52.3388L52.31 59.6802H49.1309L45.9264 54.5075H45.8739Z" fill="#1F0256"/>
<defs>
<linearGradient id="paint0_linear_9738_765" x1="36.0433" y1="-1.94981" x2="1.77394" y2="32.3222" gradientUnits="userSpaceOnUse">
<stop stop-color="#17CCFC"/>
<stop offset="0.5" stop-color="#5D31FF"/>
<stop offset="1" stop-color="#F35AFF"/>
</linearGradient>
</defs>
</svg>
