<svg width="333" height="295" viewBox="0 0 333 295" fill="none" xmlns="http://www.w3.org/2000/svg">
<path d="M175.166 184.262C160.447 193.589 150.387 214.892 137.124 223.242C123.871 231.583 109.275 244.226 102.643 250.435C96.0117 256.644 79.6963 265.107 67.044 270.742C58.581 274.509 51.7054 275.627 49.0472 267.774C46.0039 258.757 58.0174 253.234 63.3526 247.72C68.6878 242.207 75.9767 235.641 79.0294 227.667C82.0821 219.683 86.3276 221.627 93.7856 216.01C99.8252 211.464 105.752 183.238 107.894 163.569C110.026 143.901 139.801 133.597 158.165 148.691C176.537 163.785 175.156 184.29 175.156 184.29L175.166 184.262Z" fill="#F57100"/>
<path d="M113.023 241.266C109.811 228.699 96.5389 223.082 96.5389 223.082L86.3945 220.17C83.2103 221.616 80.9185 222.8 79.0587 227.647C76.006 235.631 68.7171 242.187 63.3819 247.701C58.0467 253.224 46.0332 258.747 49.0765 267.754C51.7253 275.607 58.6103 274.489 67.0733 270.723C79.7162 265.087 96.041 256.633 102.672 250.415C105.162 248.076 108.787 244.836 113.042 241.248L113.023 241.266Z" fill="white"/>
<path d="M266.634 158.844C312.293 161.906 310.753 172.398 308.217 208.495C305.474 227.196 278.056 223.955 276.403 214.534C275.727 210.646 278.329 205.179 279.108 202.511C280.358 198.247 279.653 194.819 278.808 193.87C277.352 192.254 259.627 192.254 247.107 192.414C234.586 192.574 240.964 160.384 266.634 158.844Z" fill="#F57100"/>
<path d="M276.412 214.525C278.056 223.946 305.474 227.177 308.226 208.485C310.067 182.222 311.382 169.523 294.371 163.361C290.201 166.395 290.191 167.457 290.191 167.457C290.191 167.457 289.074 166.123 287.665 167.457C286.256 168.79 287.665 172.745 287.665 172.745C278.431 182.786 276.187 193.071 276.187 193.071C277.586 193.278 278.525 193.531 278.817 193.851C279.671 194.799 280.366 198.237 279.117 202.492C278.337 205.16 275.736 210.626 276.412 214.515V214.525Z" fill="white"/>
<path d="M81.4338 166.857C51.3296 176.221 32.5907 134.254 33.0979 132.488C33.6052 130.713 36.7706 132.488 36.7706 132.488C36.7706 132.488 35.1268 101.369 46.1353 94.5406C49.8079 92.014 49.3007 97.706 49.3007 97.706C49.3007 97.706 60.0556 81.7663 80.7951 81.137C101.544 80.5076 100.022 86.9606 100.022 86.9606C100.022 86.9606 108.495 88.6043 119.381 98.2227C130.258 107.841 121.279 106.573 121.279 106.573C121.279 106.573 130.643 114.04 126.088 127.951C121.532 141.862 81.4432 166.875 81.4432 166.875L81.4338 166.857Z" fill="#FF923F"/>
<path d="M117.851 117.553C117.851 117.553 112.534 112.621 110.637 113.251C108.739 113.88 112.656 119.074 112.656 119.074C101.141 118.699 89.8879 126.664 89.8879 126.664C89.8879 126.664 83.435 119.328 74.2017 126.664C64.9685 134 79.0109 144.501 79.0109 144.501C79.0109 144.501 80.974 151.884 82.8338 157.923C97.2331 151.132 122.819 137.86 126.069 127.932C127.375 123.931 127.535 120.465 127.093 117.553C123.007 116.764 117.841 117.553 117.841 117.553H117.851Z" fill="#F57100"/>
<path d="M96.5299 82.9026C93.8341 81.7473 89.1001 80.8643 80.7873 81.1179C60.0384 81.7473 49.2929 97.687 49.2929 97.687C49.2929 97.687 49.8001 91.9949 46.1275 94.5216C35.119 101.35 36.7628 132.469 36.7628 132.469C36.7628 132.469 33.5974 130.694 33.0902 132.469C32.6957 133.831 38.7823 156.421 55.3983 162.385C47.7901 156.74 41.8162 139.965 44.1926 138.546C46.569 137.118 49.0299 139.119 49.0299 139.119C49.0299 139.119 46.2778 121.47 47.3204 120.145C48.363 118.821 49.1239 120.145 49.1239 120.145C49.1239 120.145 49.8847 107.719 53.6794 102.12C57.4742 96.5223 60.4141 95.7615 60.3202 97.5649C60.3202 97.5649 74.1935 81.2401 96.5299 82.9026Z" fill="white"/>
<path d="M206.38 81.5586C175.665 121.056 141.184 126.372 117.833 125.17C93.9283 123.949 63.8992 145.393 72.7849 174.811C81.6706 204.23 108.816 208.419 121.985 203.422C135.163 198.425 151.159 201.825 173.486 210.279C236.973 227.909 262.522 176.84 262.522 176.84C262.522 176.84 261.704 182.683 264.541 181.386C285.901 170.481 283.618 128.035 287.666 112.283C287.666 112.283 236.259 129.368 206.38 81.5586Z" fill="#FF923F"/>
<path d="M271.914 115.45C260.971 129.906 241.847 137.542 238.841 156.516C236.503 171.225 233.44 184.704 239.161 194.153C249.183 186.714 223.418 220.237 253.41 197.281C288.38 170.511 284.932 129.211 287.675 113.158L271.914 115.441V115.45Z" fill="white"/>
<path d="M146.772 190.46C129.921 201.14 118.405 225.524 103.236 235.076C88.0662 244.629 70.1821 252.415 62.5926 259.526C55.0032 266.636 37.4948 282.999 23.0203 289.442C13.3362 293.754 5.45559 295.031 2.42168 286.042C-1.06308 275.729 12.6881 269.407 18.7935 263.086C24.8989 256.764 33.2398 249.259 36.7434 240.13C40.2375 230.99 45.0937 233.216 53.6318 226.782C60.545 221.579 67.3267 189.267 69.7782 166.752C72.2298 144.237 106.298 132.44 127.329 149.723C148.359 167.006 146.772 190.469 146.772 190.469V190.46Z" fill="#FF923F"/>
<path d="M299.998 28.0005C299.998 28.0005 301.482 7.34545 293.47 8.6041C285.458 9.86275 275.896 33.4671 273.426 42.4749C270.955 51.4921 297.546 37.6282 299.998 28.0005Z" fill="#F57100"/>
<path d="M292.4 88.5289C312.642 77.4171 311.308 51.5396 311.308 51.5396C307.1 34.5573 299.172 18.965 275.962 20.2237C260.164 20.7685 254.434 20.4397 238.212 30.9222C229.59 36.4922 223.503 46.5238 220.356 50.187C212.927 58.4998 215.406 61.327 218.412 61.327C214.88 63.3747 208.324 68.7944 207.366 71.6686C206.22 75.1158 209.498 79.1736 209.498 79.1736C209.498 79.1736 221.934 109.87 265.856 119.262C278.996 121.902 292.419 88.5289 292.419 88.5289H292.4Z" fill="#FF923F"/>
<path d="M276.311 21.3227C276.311 21.3227 277.795 0.667717 269.782 1.92637C261.77 3.18502 252.208 26.7894 249.738 35.7972C247.268 44.8144 273.859 30.9504 276.311 21.3227Z" fill="#FF923F"/>
<path d="M272.008 21.9524C271.83 12.5501 271.886 7.75028 269.369 8.92439C266.842 10.0985 261.338 23.427 263.423 24.526C265.508 25.625 272.205 23.6149 272.017 21.9524H272.008Z" fill="#F57100"/>
<path d="M298.261 47.9983C294.889 48.9094 295.716 54.9397 299.003 54.564C302.291 54.1883 302.995 46.7115 298.261 47.9983Z" fill="#49250D"/>
<path d="M315.572 50.0079C321.734 50.6748 328.938 51.5295 330.056 55.3149C330.92 58.4991 330.695 67.4411 325.895 74.3825C319.855 83.1179 299.444 88.5188 295.715 89.7586C291.986 90.9985 291.686 103.228 287.102 117.599C282.406 132.327 264.024 123.836 268.852 119.637C272.881 116.012 279.456 110.958 280.527 107.727C284.181 96.7 271.557 79.9712 269.5 69.1037C267.189 56.9586 276.695 54.6104 290.23 56.7614C296.251 57.7194 299.689 57.0807 302.535 56.0475C306.959 52.9666 304.62 46.4761 301.699 42.2118C298.205 37.1114 283.185 45.612 277.136 39.1591C271.087 32.7155 276.638 30.2828 280.339 31.0624C284.031 31.842 281.955 37.4026 289.018 36.2567C295.415 35.2234 300.111 33.7394 303.662 36.4257C305.672 38.1634 307.222 40.0514 308.48 42.0521C308.668 43.1229 310.857 49.4819 315.572 49.9985V50.0079Z" fill="white"/>
<path d="M330.056 55.3166C329.633 53.8795 328.318 52.8651 326.533 52.123C317.15 54.9785 318.07 58.5196 319.968 59.1114C321.602 59.6186 327.303 62.0232 328.572 61.1966C328.665 61.1308 328.797 61.0181 328.947 60.8584C329.53 60.4358 330.046 59.9286 330.441 59.4025C330.459 57.6836 330.309 56.2465 330.056 55.3166Z" fill="#49250D"/>
<path d="M328.413 59.1008C330.038 64.8587 325.172 71.2458 319.151 71.1801C317.414 71.3022 311.693 69.4518 313.384 67.1036C313.891 66.4836 314.831 66.4085 315.422 66.9533C318.917 70.3347 324.468 68.1462 326.196 63.9851C326.816 62.595 326.994 61.0264 326.666 59.5329C326.431 58.4057 328.093 57.9925 328.413 59.1008Z" fill="#49250D"/>
<path d="M315.421 70.0525C315.421 70.0525 312.679 79.0791 317.694 77.2662C324.316 74.8804 325.162 69.7707 326.486 66.6992C326.486 66.6992 323.546 71.7902 315.431 70.0431L315.421 70.0525Z" fill="#49250D"/>
<path d="M71.065 237.829C70.2103 236.213 67.4206 237.829 67.4206 237.829C67.4206 237.829 68.8577 230.455 67.4206 230.991C65.9835 231.526 64.8094 234.945 64.8094 234.945C64.8094 234.945 62.7429 226.849 56.5154 223.082C55.5667 224.763 54.5993 226.041 53.6318 226.764C45.0937 233.198 40.2375 230.972 36.7434 240.111C33.2492 249.251 24.9083 256.746 18.7935 263.068C12.6881 269.389 -1.06308 275.71 2.42168 286.024C5.45559 295.013 13.3362 293.735 23.0203 289.424C37.4948 282.981 55.0126 266.618 62.5926 259.508C64.7342 257.498 67.7024 255.431 71.1965 253.29C73.5354 248.443 71.9198 239.426 71.065 237.81V237.829Z" fill="white"/>
<path d="M199.747 152.571C222.102 125.472 265.338 144.446 265.046 167.083C264.755 189.72 246.204 211.276 232.397 218.283C222.487 223.309 200.179 229.142 195.116 213.343C190.053 197.544 201.043 192.256 208.548 191.035C208.548 191.035 181.722 174.419 199.747 152.571Z" fill="#FF923F"/>
<path d="M234.342 172.708C234.342 170.754 231.055 176.361 228.612 177.094C226.17 177.827 229.834 168.443 229.834 168.443C229.834 168.443 225.447 168.932 223.136 167.955C220.826 166.978 225.935 164.789 225.935 164.789C225.935 164.789 193.042 157.115 193.521 167.589C194 178.062 199.851 183.312 199.851 183.312C196.667 192.574 164.046 203.291 144.424 201.826C152.83 203.122 162.374 206.071 173.485 210.27C198.705 217.277 218.074 214.722 232.257 209.105L221.624 187.464C232.764 182.42 234.333 174.652 234.333 172.698L234.342 172.708Z" fill="#F57100"/>
<path d="M245.134 208.739C245.031 198.811 228.602 188.544 228.602 188.544C228.602 188.544 232.068 182.204 228.602 182.364C225.136 182.524 224.338 185.285 224.338 185.285C224.338 185.285 223.944 180.899 222.206 181.434C220.468 181.969 220.215 187.013 220.215 187.013C220.215 187.013 217.688 188.61 208.539 191.043C201.034 192.255 190.045 197.552 195.107 213.351C200.17 229.15 222.478 223.317 232.388 218.292C236.427 216.244 240.86 212.947 245.134 208.749V208.739Z" fill="white"/>
<path d="M209.151 78.4137C209.151 78.4137 204.483 79.6723 203.628 82.1239C201.749 87.5624 214.749 105.531 243.435 115.497C272.656 125.641 291.762 116.849 293.715 114.464C295.453 112.35 294.871 109.391 293.264 108.875C290.973 108.142 276.517 117.638 246.253 107.165C215.989 96.6923 210.954 79.9823 209.151 78.4043V78.4137Z" fill="#944EEF"/>
<path d="M293.217 136.697C298.543 136.443 301.596 132.348 301.596 132.348C301.596 132.348 292.456 114.501 288.239 115.544C284.022 116.587 281.852 118.662 280.65 120.842C279.447 123.021 293.217 136.687 293.217 136.687V136.697Z" fill="#6D2BD3"/>
<path d="M280.527 128.344C283.232 135.211 291.009 138.507 296.204 135.68C300.308 133.454 300.9 128.157 298.411 123.789C296.1 119.74 291.348 116.829 286.961 117.073C281.607 117.373 278.104 122.192 280.518 128.335L280.527 128.344Z" fill="#6D2BD3"/>
<path d="M284.181 126.335C286.886 133.201 294.664 136.498 299.858 133.67C303.963 131.444 304.554 126.147 302.065 121.779C299.755 117.731 295.002 114.819 290.615 115.063C285.261 115.364 281.758 120.182 284.172 126.325L284.181 126.335Z" fill="#944EEF"/>
<path d="M298.504 121.159L296.551 128.71C296.372 129.396 295.658 129.678 294.954 129.321L288.51 126.071C288.012 125.817 287.778 125.263 287.984 124.841L288.604 123.544C288.792 123.15 289.318 123.037 289.778 123.281L294.127 125.592L296.071 119.721C296.165 119.43 296.532 119.374 296.889 119.581L298.006 120.247C298.354 120.454 298.57 120.858 298.495 121.149L298.504 121.159Z" fill="white"/>
<path d="M203.684 84.9316C199.203 86.1433 193.032 92.2675 198.217 92.3614Z" fill="#FF923F"/>
<path d="M270.467 1.86919C276.657 1.86919 276.535 16.09 276.366 20.2041C277.098 20.1666 277.812 20.1572 278.517 20.1572C279.935 20.1572 281.288 20.2229 282.584 20.3544C286.012 14.1739 289.892 9.15809 293.47 8.59451C293.705 8.55694 293.931 8.53815 294.156 8.53815C301.398 8.53815 299.998 27.9909 299.998 27.9909C299.98 28.0566 299.951 28.1224 299.933 28.1881C303.643 31.8889 306.301 36.6135 308.311 41.8172C308.367 41.9018 308.424 41.9769 308.471 42.0614C308.499 42.2023 308.555 42.4278 308.649 42.7189C308.771 43.0383 308.884 43.367 309.006 43.6864C309.927 45.9501 312.04 49.6133 315.572 49.9984C321.734 50.6653 328.938 51.5201 330.056 55.3054C330.92 58.4896 330.694 67.4317 325.895 74.373C319.855 83.1084 299.444 88.5094 295.715 89.7492C292.691 90.7543 291.92 99.0012 289.29 109.756C291.075 109.24 292.287 108.836 292.963 108.836C293.085 108.836 293.189 108.845 293.273 108.873C294.87 109.39 295.452 112.349 293.724 114.462C293.555 114.669 293.254 114.922 292.841 115.204C296.532 115.833 300.158 118.407 302.074 121.779C304.15 125.433 304.075 129.725 301.595 132.337C301.595 132.337 298.542 136.432 293.217 136.686C293.217 136.686 293.188 136.657 293.151 136.62C292.794 136.657 292.437 136.676 292.071 136.676C289.863 136.676 287.553 135.925 285.524 134.563C284.613 142.378 283.091 151.188 279.991 160.13C311.946 164.498 310.471 176.342 308.217 208.476C306.78 218.301 298.524 222.067 290.775 222.067C283.777 222.067 277.183 218.986 276.403 214.515C275.727 210.627 278.329 205.16 279.109 202.492C280.358 198.228 279.653 194.799 278.808 193.851C277.794 192.724 268.842 192.386 259.271 192.339C258.219 193.315 257.12 194.273 255.983 195.222C249.314 205.883 240.119 214.356 232.398 218.272C227.344 220.837 219.06 223.608 211.489 223.608C204.407 223.608 197.935 221.175 195.324 213.876C188.608 213.567 181.347 212.439 173.495 210.26C166.976 207.799 161.012 205.77 155.488 204.249C149.515 211.735 143.719 219.08 137.135 223.222C123.881 231.563 109.285 244.206 102.653 250.415C96.0314 256.624 79.7065 265.087 67.0543 270.722C63.175 272.451 59.6339 273.615 56.6751 273.615C54.0827 273.615 51.9317 272.714 50.4194 270.516C42.1913 277.579 32.0187 285.422 23.0109 289.433C18.5587 291.415 14.501 292.758 11.1101 292.758C7.11814 292.758 4.05605 290.898 2.42169 286.033C-1.06308 275.719 12.6881 269.398 18.7935 263.077C24.8989 256.755 33.2398 249.25 36.7434 240.12C40.2469 230.99 45.0937 233.207 53.6318 226.773C60.4135 221.663 67.0731 190.469 69.6279 168.03C64.2552 167.41 59.3897 165.249 55.0783 162.262C38.7347 156.129 32.7232 133.905 33.0895 132.487C33.2492 131.933 33.6625 131.726 34.1603 131.698C34.1979 131.698 34.2261 131.698 34.2636 131.698C34.8366 131.698 35.5129 131.923 36.0107 132.13C36.4522 132.318 36.7622 132.487 36.7622 132.487C36.7622 132.487 36.687 130.993 36.6776 128.598C36.6776 127.913 36.6776 127.152 36.6964 126.335C36.7058 125.517 36.734 124.634 36.7622 123.705C37.1285 113.964 38.9037 99.02 46.1269 94.5396C46.7938 94.0794 47.3198 93.8915 47.7425 93.8915C47.9021 93.8915 48.043 93.9197 48.1651 93.9666C48.2779 94.0136 48.3906 94.07 48.4845 94.1545C49.4238 94.9341 49.3205 97.2072 49.2923 97.6299C49.2923 97.6299 49.2923 97.6393 49.2923 97.6487C49.2923 97.6862 49.2923 97.705 49.2923 97.705C49.2923 97.705 59.3803 82.7421 78.8799 81.2393C79.5093 81.1923 80.148 81.1547 80.7961 81.1359C81.3879 81.1171 81.9608 81.1077 82.515 81.0984C82.6935 81.0984 82.8625 81.0984 83.041 81.0984C83.2289 81.0984 83.4167 81.0984 83.6046 81.0984C83.7924 81.0984 83.9709 81.0984 84.1494 81.0984C84.3372 81.0984 84.5157 81.0984 84.7036 81.0984C85.0511 81.0984 85.3892 81.1077 85.7274 81.1171C85.8871 81.1171 86.0467 81.1171 86.2064 81.1359C86.6385 81.1547 87.0518 81.1735 87.4463 81.1923C87.5026 81.1923 87.559 81.1923 87.6154 81.1923C88.038 81.2205 88.4513 81.2486 88.8458 81.2862C88.9961 81.2956 89.1464 81.3144 89.2967 81.3238C89.5503 81.352 89.7945 81.3708 90.0387 81.3989C90.1984 81.4177 90.3581 81.4365 90.5178 81.4553C90.7338 81.4835 90.9498 81.5116 91.1565 81.5398C91.3068 81.5586 91.4571 81.5774 91.6073 81.6056C91.8234 81.6431 92.0394 81.6807 92.246 81.7089C92.4527 81.7465 92.6593 81.784 92.8566 81.8216C93.0445 81.8592 93.2417 81.8967 93.4202 81.9343C93.5704 81.9719 93.7113 82.0001 93.8616 82.0376C93.9837 82.0658 94.1152 82.094 94.2374 82.1316C94.3876 82.1691 94.5285 82.2067 94.6694 82.2537C94.7727 82.2819 94.8761 82.31 94.97 82.3382C95.1109 82.3852 95.2612 82.4228 95.3927 82.4697C95.4584 82.4885 95.5242 82.5167 95.5899 82.5355C95.9281 82.6482 96.238 82.7703 96.5292 82.8924C96.5292 82.8924 96.5292 82.8924 96.5386 82.8924C100.559 84.6113 100.023 86.9314 100.023 86.9314C100.023 86.9314 108.496 88.5751 119.382 98.1935C127.995 105.802 124.163 106.6 122.191 106.6C121.674 106.6 121.28 106.544 121.28 106.544C121.28 106.544 129.442 113.062 126.812 125.264C146.969 124.644 172.809 118.012 197.24 92.229C193.999 91.346 199.551 86.0484 203.693 84.9307C203.411 83.8129 203.392 82.8642 203.646 82.141C204.397 79.9618 208.155 78.7313 208.99 78.4777C208.117 77.1627 206.511 74.2603 207.366 71.6867C208.324 68.803 214.88 63.3927 218.412 61.3451C215.406 61.3451 212.926 58.5178 220.356 50.2051C223.512 46.5325 229.599 36.5102 238.212 30.9402C244.994 26.5537 249.944 24.0646 254.555 22.6087C258.698 13.0467 264.568 2.76151 269.781 1.94433C270.016 1.90676 270.251 1.88797 270.467 1.88797M270.467 0.00939133C270.148 0.00939133 269.819 0.0375718 269.49 0.0845363C263.263 1.0614 257.232 11.8632 253.175 21.0871C248.563 22.6463 243.594 25.2293 237.197 29.3622C230.322 33.8051 225.043 40.8967 221.558 45.5838C220.525 46.9739 219.633 48.1668 218.938 48.984C214.382 54.0844 212.757 57.9167 213.988 60.6688C214.147 61.0257 214.354 61.3451 214.598 61.6362C210.991 64.2663 206.53 68.2864 205.59 71.0949C204.829 73.368 205.449 75.6974 206.285 77.4915C204.548 78.2805 202.547 79.5767 201.871 81.5304C201.645 82.1785 201.561 82.9018 201.608 83.7096C198.311 85.1749 194.394 88.4154 194.385 91.1863C194.385 91.5433 194.45 91.919 194.601 92.2853C175.805 111.56 153.77 121.986 129.047 123.31C129.93 115.984 127.244 110.789 125.037 107.868C125.873 107.389 126.267 106.732 126.446 106.253C127.3 103.998 125.563 101.171 120.631 96.8127C111.924 89.1199 104.673 86.349 101.761 85.4754C101.338 84.0759 100.117 82.4228 97.3182 81.2111L97.29 81.1923L97.2431 81.1735C96.9143 81.0326 96.5856 80.9105 96.2193 80.7884L96.1629 80.7696L96.0032 80.7132C95.8529 80.6663 95.6932 80.6193 95.5336 80.563C95.4209 80.5348 95.3175 80.4972 95.2048 80.469C95.0545 80.4221 94.8948 80.3845 94.7258 80.3375C94.5943 80.3 94.4628 80.2718 94.3219 80.2342L94.2374 80.2154C94.1059 80.1872 93.9744 80.1497 93.8429 80.1215C93.655 80.0839 93.4671 80.0463 93.2699 79.9994C93.0257 79.9524 92.8096 79.9148 92.5842 79.8679C92.3682 79.8303 92.1427 79.7927 91.9079 79.7552C91.7764 79.7364 91.6449 79.7176 91.5134 79.6988H91.4289C91.2128 79.6612 90.9874 79.6237 90.762 79.5955C90.6023 79.5767 90.4332 79.5579 90.2641 79.5391C90.0105 79.5109 89.7569 79.4828 89.4939 79.464H89.3906L89.0243 79.417C88.611 79.3795 88.1883 79.3513 87.7469 79.3231H87.6435H87.5778C87.1551 79.2949 86.7324 79.2761 86.2909 79.2667H85.9246L85.7931 79.2479C85.455 79.2386 85.1074 79.2292 84.7505 79.2292H84.1869H83.6234H83.0504H82.8813H82.515C81.942 79.2386 81.3597 79.248 80.7585 79.2667C80.0916 79.2855 79.4153 79.3231 78.7578 79.3701C64.1894 80.4972 54.6744 88.7442 50.3725 93.4594C50.194 93.187 49.9686 92.9334 49.715 92.7174C49.4614 92.5107 49.1702 92.3417 48.8696 92.229C48.5221 92.0974 48.1557 92.0317 47.78 92.0317C46.9441 92.0317 46.0799 92.3417 45.1312 92.9898C37.4666 97.7895 35.3438 112.311 34.9211 123.658C34.8836 124.597 34.8648 125.499 34.846 126.325C34.8272 127.152 34.8272 127.931 34.8272 128.626C34.8272 129.077 34.8272 129.491 34.8366 129.876C34.6487 129.857 34.4703 129.838 34.3012 129.838C34.2355 129.838 34.1697 129.838 34.1134 129.838C32.742 129.904 31.7088 130.693 31.3331 131.942L31.2579 132.168V132.431H31.2673C31.2016 136.563 38.0396 157.716 54.233 163.953C58.5443 166.903 63.0247 168.809 67.5803 169.636C64.6873 193.522 58.0934 221.1 52.5328 225.289C49.5553 227.534 47.0474 228.661 44.8307 229.666C40.895 231.441 37.5042 232.972 35.0151 239.463C32.1502 246.94 25.7912 253.364 20.1837 259.028C19.2444 259.977 18.3333 260.897 17.4691 261.79C16.0038 263.311 14.0125 264.871 11.9085 266.514C5.54952 271.502 -2.3593 277.711 0.665216 286.653C2.45926 291.96 5.9816 294.655 11.1383 294.655C14.4446 294.655 18.4742 293.547 23.8093 291.171C31.0513 287.949 39.9464 281.891 50.2504 273.174C51.9223 274.733 54.0921 275.513 56.7033 275.513C59.6245 275.513 63.1656 274.545 67.8433 272.46C80.8149 266.683 97.121 258.22 103.959 251.814C110.525 245.653 125.121 233.047 138.159 224.847C144.724 220.715 150.322 213.801 156.202 206.428C161.105 207.827 166.563 209.668 172.847 212.045L172.922 212.073L173.006 212.092C180.192 214.083 187.265 215.304 194.037 215.708C196.845 222.123 202.857 225.505 211.498 225.505C219.492 225.505 227.983 222.64 233.262 219.963C241.772 215.652 251.014 206.672 257.43 196.49C258.322 195.748 259.186 194.987 260.013 194.236C273.341 194.33 276.676 194.969 277.502 195.26C277.812 195.945 278.348 198.482 277.324 201.985C277.164 202.539 276.901 203.262 276.591 204.108C275.483 207.179 273.961 211.378 274.572 214.863C275.605 220.78 283.702 223.974 290.793 223.974C299.04 223.974 308.443 219.982 310.096 208.776V208.71L310.115 208.635L310.246 206.804C311.373 190.892 312.115 180.372 308.452 172.679C304.836 165.062 297.246 160.91 282.509 158.618C284.556 152.25 286.031 145.44 287.074 137.531C288.708 138.217 290.427 138.574 292.09 138.574C292.212 138.574 292.334 138.574 292.456 138.574L292.503 138.621L293.32 138.583C299.284 138.301 302.769 133.943 303.098 133.511C305.982 130.336 306.235 125.283 303.727 120.868C302.055 117.928 299.228 115.514 296.1 114.218C296.711 112.865 296.852 111.334 296.448 109.953C296.035 108.535 295.095 107.502 293.865 107.107C293.592 107.023 293.301 106.976 292.982 106.976C292.662 106.976 292.277 107.023 291.864 107.107C292.24 105.435 292.578 103.848 292.888 102.383C293.827 97.9774 295.105 91.9472 296.326 91.5433C296.72 91.4118 297.303 91.2333 298.035 91.0079C304.507 89.026 321.696 83.7753 327.454 75.4532C332.357 68.3616 332.996 58.9499 331.887 54.8264C330.375 49.726 322.288 48.8525 315.788 48.1386C312.97 47.8287 311.251 44.203 310.772 43.0289C310.678 42.7565 310.575 42.4841 310.481 42.2117L310.443 42.1178C310.378 41.9018 310.349 41.7703 310.34 41.7421L310.274 41.3945L310.086 41.0752C310.086 41.0752 310.03 40.9906 310.002 40.9531C307.832 35.3925 305.183 30.9872 301.924 27.54C302.093 24.4967 302.441 12.9528 298.345 8.55694C297.199 7.32647 295.753 6.67836 294.165 6.67836C293.846 6.67836 293.517 6.70653 293.189 6.7535C289.535 7.32647 285.721 11.14 281.551 18.3913C280.564 18.3256 279.55 18.288 278.526 18.288C278.451 18.288 278.376 18.288 278.301 18.288C278.366 12.9059 277.831 5.19428 274.572 1.80344C273.445 0.629323 272.026 0 270.467 0V0.00939133Z" fill="#49250D"/>
</svg>
