<svg width="81" height="64" viewBox="0 0 81 64" fill="none" xmlns="http://www.w3.org/2000/svg">
<g clip-path="url(#clip0_9738_612)">
<path d="M26.166 31.8822L31.0202 0.821012C31.0795 0.440075 31.3758 0.139779 31.7559 0.0752058C32.136 0.0106331 32.5147 0.196408 32.6965 0.536393L37.7165 9.89954L39.7175 6.08971C39.8725 5.79513 40.178 5.61068 40.5108 5.61068C40.8437 5.61068 41.1492 5.79513 41.3042 6.08971L54.8514 31.8821L26.166 31.8822Z" fill="#FFA000"/>
<path d="M42.9359 19.7821L37.7142 9.89453L26.166 31.8816L42.9359 19.7821Z" fill="#F57C00"/>
<path d="M54.8516 31.8824L51.1337 8.87564C51.0775 8.54525 50.8418 8.27384 50.5224 8.17154C50.2031 8.06923 49.8537 8.15439 49.6165 8.39125L26.166 31.8821L39.1418 39.1588C39.9566 39.6138 40.949 39.6138 41.7638 39.1588L54.8516 31.8821V31.8824Z" fill="#FFCA28"/>
<path d="M51.1318 8.87489C51.0756 8.5445 50.8398 8.27309 50.5205 8.17079C50.2012 8.06848 49.8517 8.15364 49.6146 8.3905L44.9602 13.0567L41.3002 6.08905C41.1453 5.79447 40.8398 5.61002 40.5069 5.61002C40.174 5.61002 39.8685 5.79447 39.7135 6.08905L37.7126 9.89888L32.6923 0.535883C32.5102 0.195807 32.131 0.0103334 31.7505 0.0753876C31.3699 0.140442 31.0747 0.441491 31.016 0.822729L26.1641 31.8817H26.1484L26.1641 31.8996L26.2918 31.9623L49.6078 8.6194C49.8448 8.38124 50.1952 8.29563 50.5153 8.39764C50.8355 8.49964 51.0717 8.7721 51.1273 9.10345L54.8139 31.904L54.8497 31.8816L51.1318 8.87489ZM26.2067 31.8391L31.0182 1.04238C31.0769 0.661146 31.3728 0.360098 31.753 0.295043C32.1332 0.229989 32.5125 0.415403 32.6948 0.755538L37.7146 10.1187L39.7156 6.30886C39.8705 6.01428 40.176 5.82983 40.5089 5.82983C40.8418 5.82983 41.1473 6.01428 41.3023 6.30886L44.888 13.1284L26.2067 31.8391Z" fill="white" fill-opacity="0.2"/>
<path opacity="0.2" d="M41.7638 38.939C40.949 39.3939 39.9566 39.3939 39.1418 38.939L26.1974 31.6825L26.166 31.882L39.1418 39.1565C39.9566 39.6114 40.949 39.6114 41.7638 39.1565L54.8516 31.882L54.818 31.6758L41.7638 38.939Z" fill="#A52714"/>
<path d="M51.0991 8.87886C51.0432 8.54857 50.8082 8.27707 50.49 8.17536C50.1718 8.07366 49.8236 8.15821 49.5872 8.39502L44.9489 13.0589L41.302 6.09444C41.1475 5.79998 40.8431 5.61559 40.5114 5.61559C40.1797 5.61559 39.8753 5.79998 39.7209 6.09444L37.7266 9.90261L32.7242 0.543497C32.5427 0.203572 32.1649 0.0181281 31.786 0.0832124C31.4071 0.148297 31.1121 0.449105 31.0537 0.830253L26.2188 31.8756L39.1492 39.1469C39.9611 39.6016 40.95 39.6016 41.762 39.1469L54.8041 31.8756L51.0991 8.8788V8.87886Z" fill="url(#paint0_linear_9738_612)"/>
<path opacity="0.54" d="M2.99229 63.5896H0.932129V47.6797H10.2885V49.6344H2.99253V54.8578H9.57349V56.7674H2.99253V63.5896L2.99229 63.5896ZM14.1623 49.9694C13.6712 50.459 12.9 50.5359 12.3205 50.1531C11.7411 49.7703 11.5149 49.0344 11.7804 48.3958C12.046 47.7571 12.729 47.3936 13.4118 47.5277C14.0946 47.6618 14.5868 48.2561 14.5873 48.9469C14.5939 49.3317 14.4394 49.702 14.1606 49.9694H14.1623ZM14.1623 63.5896H12.1021V52.7018H14.1623V63.5896ZM18.6831 63.5896H16.6229V52.7018H18.5921V54.4794H18.6813C18.9192 53.853 19.376 53.3324 19.9685 53.0126C20.5343 52.6521 21.1887 52.4521 21.8608 52.4345C22.3884 52.4196 22.9136 52.5105 23.405 52.7018L22.6215 54.6113C22.2682 54.4946 21.8969 54.4417 21.525 54.4551C20.7696 54.4589 20.0506 54.7777 19.5435 55.3335C18.9688 55.9191 18.6814 56.6858 18.6814 57.6336L18.6831 63.5896ZM29.0503 63.9368C27.3936 63.9368 26.0469 63.3888 25.0105 62.293C23.974 61.1972 23.4552 59.8147 23.454 58.1459C23.4235 56.6433 23.9628 55.1842 24.965 54.0577C25.9248 52.9364 27.3447 52.3071 28.8265 52.3458C30.4529 52.3458 31.7552 52.8719 32.7334 53.9238C33.7116 54.9758 34.2001 56.3831 34.1987 58.1456L34.176 58.5241H25.5104C25.5699 59.62 25.9394 60.488 26.6192 61.128C27.2548 61.7473 28.1122 62.0908 29.0026 62.0828C30.4798 62.0828 31.4796 61.4605 32.0019 60.2166L33.8383 60.9718C33.4662 61.8326 32.8524 62.569 32.0702 63.0931C31.2483 63.6555 30.2415 63.9368 29.0499 63.9368L29.0503 63.9368ZM32.0059 56.8194C31.9616 56.1968 31.6742 55.6043 31.1437 55.0418C30.6133 54.4793 29.8245 54.204 28.7775 54.2155C28.0514 54.2029 27.3459 54.4563 26.7961 54.9273C26.22 55.4283 25.8169 56.0962 25.6436 56.8368L32.0059 56.8194ZM41.6421 63.9368C40.8627 63.9521 40.0918 63.7731 39.4001 63.416C38.7927 63.1119 38.2787 62.6515 37.9118 62.0828H37.8227V63.5896H35.8517V47.6797H37.9119V52.7018L37.8227 54.2121H37.9119C38.2787 53.6434 38.7927 53.183 39.4001 52.8789C40.0908 52.5177 40.8617 52.3344 41.6422 52.346C43.0599 52.346 44.2841 52.9015 45.3148 54.0125C46.3454 55.1235 46.8602 56.5012 46.859 58.1457C46.8579 59.7902 46.3443 61.168 45.3148 62.279C44.2853 63.39 43.0611 63.9426 41.6421 63.9368ZM41.3063 62.0706C42.2448 62.078 43.1414 61.6855 43.7687 60.9926C44.4554 60.274 44.7988 59.3221 44.7988 58.137C44.7988 56.9519 44.4554 56.0001 43.7687 55.2814C43.1342 54.5968 42.2405 54.2063 41.3034 54.2043C40.3662 54.2023 39.4708 54.589 38.8334 55.2709C38.1549 55.9815 37.8156 56.9368 37.8156 58.137C37.8156 59.3371 38.1584 60.2953 38.8439 61.0117C39.4751 61.702 40.3741 62.0907 41.3133 62.0793L41.3063 62.0706ZM52.1038 63.9368C50.9379 63.9368 49.9644 63.6035 49.1832 62.9369C48.4021 62.2703 48.0103 61.389 48.008 60.2931C48.008 59.108 48.4709 58.1787 49.3966 57.5051C50.3224 56.8316 51.4638 56.4948 52.8209 56.4948C54.0299 56.4948 55.0212 56.717 55.7939 57.1614V56.8507C55.8234 56.1189 55.5189 55.4129 54.965 54.929C54.4009 54.4468 53.6751 54.1922 52.9311 54.2155C52.3617 54.2085 51.8009 54.354 51.3081 54.6374C50.8465 54.8912 50.4926 55.3017 50.3113 55.7935L48.4313 54.9932C48.6855 54.3394 49.1856 53.7329 49.9342 53.174C50.6827 52.615 51.6655 52.3373 52.8897 52.3407C54.2888 52.3407 55.4547 52.7458 56.3874 53.5559C57.3202 54.366 57.783 55.514 57.776 57V63.5896H55.7998V62.0794H55.7106C54.8887 63.3177 53.6872 63.9345 52.1062 63.9345L52.1038 63.9368ZM52.4396 62.0706C53.3053 62.0676 54.1363 61.7324 54.7586 61.135C55.4218 60.58 55.8056 59.7636 55.8079 58.9025C55.225 58.428 54.3505 58.1908 53.1846 58.1908C52.1843 58.1908 51.4305 58.4055 50.9234 58.8348C50.45 59.196 50.1697 59.7525 50.1626 60.3451C50.153 60.8607 50.4191 61.3431 50.8624 61.6123C51.3283 61.9232 51.8785 62.0861 52.4399 62.0793V62.0706L52.4396 62.0706ZM63.8335 63.9368C62.6092 63.9368 61.5984 63.6405 60.8009 63.048C60.0251 62.4792 59.4204 61.7109 59.0521 60.826L60.8884 60.0709C61.4714 61.4342 62.4624 62.1158 63.8615 62.1158C64.4173 62.1384 64.9667 61.9912 65.4355 61.694C65.822 61.4557 66.0554 61.0346 66.051 60.583C66.051 59.8724 65.5509 59.3909 64.5482 59.1386L62.3324 58.6057C61.6032 58.4142 60.924 58.0697 60.3404 57.5954C59.7193 57.1146 59.3691 56.3665 59.3995 55.5852C59.3995 54.6224 59.8285 53.8411 60.6867 53.2416C61.5843 52.63 62.6535 52.3153 63.742 52.3424C64.6507 52.328 65.5468 52.5552 66.3372 53.0004C67.0835 53.4209 67.6605 54.0844 67.9707 54.8786L66.1816 55.6043C65.7793 54.6415 64.9434 54.1599 63.6737 54.1599C63.1336 54.1421 62.5992 54.2731 62.1295 54.5384C61.7447 54.7363 61.5032 55.1307 61.5034 55.5609C61.5034 56.1835 61.9884 56.6059 62.9584 56.8281L65.1288 57.3402C66.1582 57.5717 66.9196 57.9767 67.4128 58.5553C67.8905 59.0959 68.1529 59.791 68.1508 60.51C68.1603 61.4687 67.7122 62.3752 66.9423 62.9542C66.1367 63.6092 65.0996 63.9368 63.8312 63.9368L63.8335 63.9368ZM74.9142 63.9368C73.2575 63.9368 71.9108 63.3888 70.8744 62.293C69.8379 61.1972 69.319 59.8116 69.3178 58.137C69.2874 56.6345 69.8267 55.1754 70.8288 54.0489C71.7923 52.9304 73.2136 52.3044 74.6956 52.3459C76.3276 52.3459 77.6302 52.872 78.6025 53.9239C79.5748 54.9759 80.0634 56.3832 80.0681 58.1457L80.0453 58.5242H71.3725C71.432 59.6201 71.8015 60.4881 72.4813 61.1281C73.1188 61.7474 73.9783 62.0897 74.8702 62.0793C76.3474 62.0793 77.3472 61.457 77.8695 60.2132L79.7058 60.9683C79.3338 61.8292 78.7201 62.5656 77.9378 63.0896C77.1159 63.6544 76.1079 63.9368 74.914 63.9368L74.9142 63.9368ZM77.8698 56.8194C77.8255 56.1968 77.5381 55.6043 77.0076 55.0418C76.4771 54.4793 75.6895 54.204 74.6449 54.2155C73.9188 54.2031 73.2134 54.4565 72.6635 54.9273C72.0874 55.4283 71.6843 56.0962 71.5109 56.8368L77.8698 56.8194Z" fill="black"/>
</g>
<defs>
<linearGradient id="paint0_linear_9738_612" x1="-73.5441" y1="670.959" x2="3493.65" y2="2552.61" gradientUnits="userSpaceOnUse">
<stop stop-color="white" stop-opacity="0.1"/>
<stop offset="0.14" stop-color="white" stop-opacity="0.08"/>
<stop offset="0.61" stop-color="white" stop-opacity="0.02"/>
<stop offset="1" stop-color="white" stop-opacity="0"/>
</linearGradient>
<clipPath id="clip0_9738_612">
<rect width="79.1359" height="63.8756" fill="white" transform="translate(0.932129 0.0625)"/>
</clipPath>
</defs>
</svg>
