<svg width="57" height="64" viewBox="0 0 57 64" fill="none" xmlns="http://www.w3.org/2000/svg">
<path d="M37.0305 10.0664V31.1671H34.1484V19.6226H22.7788V22.4783H31.2672V23.9522C31.267 27.6389 31.2611 31.3257 31.2707 35.0123C31.2713 35.2419 31.2835 35.4247 31.3099 35.5691C34.5338 35.0434 37.4631 33.645 39.8501 31.6241V16.7839C39.8501 14.5466 39.354 12.0924 37.0305 10.0664Z" fill="#FF2E4C"/>
<path d="M31.3184 10.9471H34.1983V4.61836C35.9312 4.99385 42.5041 9.29269 42.772 16.0275V28.5367C44.8994 25.62 46.1578 22.0289 46.1578 18.1423C46.1578 9.3632 39.7515 2.08351 31.3594 0.714844C31.3346 0.86298 31.3237 1.05142 31.3224 1.28891L31.3184 10.9471Z" fill="#FF2E4C"/>
<path d="M19.8738 26.2175V5.11683H22.7559V16.6613H34.1255V13.8056H25.6371V12.3318C25.6372 8.64501 25.6432 4.95827 25.6336 1.27168C25.633 1.04211 25.6208 0.859228 25.5944 0.714844C22.3704 1.24055 19.4412 2.63895 17.0542 4.65991V19.5001C17.0542 21.7373 17.5503 24.1916 19.8738 26.2175Z" fill="#FF2E4C"/>
<path d="M25.6842 25.3396H22.8043V31.6683C21.0714 31.2929 14.4985 26.994 14.2306 20.2592V7.75C12.1032 10.6667 10.8447 14.2579 10.8447 18.1445C10.8447 26.9235 17.2511 34.2032 25.6432 35.5718C25.6679 35.4237 25.679 35.2353 25.6802 34.9978L25.6842 25.3396Z" fill="#FF2E4C"/>
<path d="M0.290039 63.5247V47.7617H2.69047V54.1386H4.83996V47.7617H7.24032V63.5247H4.83996V56.1986H2.69047V63.5247H0.290039Z" fill="#042F4B"/>
<path d="M17.2922 58.7869L16.2352 50.8696H16.1995L15.2321 58.7869H17.2922ZM12.3481 63.5247L14.5963 47.7617H17.7669L20.1583 63.5247H17.9192L17.543 60.7125H14.9993L14.6589 63.5247H12.3481Z" fill="#042F4B"/>
<path d="M25.2192 63.5247V47.7617H27.1L30.4407 57.2195L30.2708 52.9205V47.7617H32.4292V63.5247H30.7274L27.2971 53.7356L27.4314 57.8733V63.5247H25.2192Z" fill="#042F4B"/>
<path d="M37.8867 63.5247V47.7617H40.287V55.0163L42.6873 47.7617H45.168L42.553 55.5358L45.3742 63.5247H42.8397L40.3044 56.1627V63.5247H37.8867Z" fill="#042F4B"/>
<path d="M52.3712 61.0763C52.5115 61.4406 52.7997 61.6227 53.2358 61.6227C53.6711 61.6227 53.9578 61.4361 54.0958 61.0628C54.2331 60.6898 54.3013 60.0494 54.3013 59.1418V51.7978C54.3013 51.0514 54.2315 50.5065 54.0912 50.1631C53.9509 49.8199 53.6757 49.6481 53.2669 49.6481C52.8581 49.6481 52.5714 49.8199 52.4069 50.1631C52.2431 50.5065 52.1612 51.0484 52.1612 51.7887V59.1418C52.1612 60.0674 52.2309 60.7122 52.3712 61.0763ZM55.8871 62.563C55.3373 63.3214 54.4583 63.7005 53.2494 63.7005C52.0398 63.7005 51.1533 63.3198 50.589 62.5586C50.0248 61.7973 49.7427 60.6495 49.7427 59.1149V51.9052C49.7427 49.0153 50.922 47.5703 53.2805 47.5703C54.4985 47.5703 55.3752 47.9375 55.9091 48.672C56.4437 49.4064 56.7107 50.4842 56.7107 51.9052V59.1149C56.7107 60.6555 56.4362 61.8049 55.8871 62.563Z" fill="#042F4B"/>
</svg>
