<svg width="67" height="22" viewBox="0 0 67 22" fill="none" xmlns="http://www.w3.org/2000/svg">
<g clip-path="url(#clip0_9738_623)">
<path fill-rule="evenodd" clip-rule="evenodd" d="M15.944 21.6938C14.5865 21.6938 13.3536 21.7024 12.1215 21.6813C11.9813 21.679 11.8161 21.5309 11.7109 21.4094C9.01683 18.2844 6.32903 15.1547 3.64046 12.0266C3.55318 11.9253 3.46356 11.8264 3.30225 11.6448V21.6634H-0.00976562V0.119758H3.26874V10.0028C3.44797 9.80408 3.54617 9.70355 3.63345 9.59523C6.08278 6.55052 8.53367 3.50502 10.9744 0.452518C11.177 0.198467 11.3812 0.0831312 11.7187 0.0901449C12.858 0.112745 13.9981 0.0987172 15.2645 0.0987172L6.39839 10.7361L15.9432 21.693M48.6028 14.2235C48.595 13.226 48.4368 12.4584 48.1079 11.7243C46.7769 8.75515 42.9443 8.12625 40.8269 10.5296C39.3198 12.2409 39.1328 15.0519 40.4014 16.9456C41.72 18.9141 44.1421 19.5733 46.1293 18.4551C47.8492 17.4872 48.5303 15.9145 48.6028 14.2235ZM48.2552 7.73972V0.152489H51.349V21.7125C50.6391 21.7125 49.926 21.7203 49.2137 21.7016C49.1381 21.6993 49.0454 21.5489 48.9971 21.4499C48.8046 21.054 48.6269 20.6511 48.4251 20.2108C47.4977 21.1031 46.4161 21.5793 45.1988 21.7951C41.5517 22.4419 37.9591 20.3293 36.8845 16.8209C35.9883 13.8977 36.3055 11.1227 38.3005 8.69202C40.3578 6.18503 44.1179 5.39326 46.8883 6.8334C47.3582 7.0781 47.7767 7.42021 48.2552 7.7405M63.983 12.795C63.9939 10.8351 62.0628 9.0918 59.8714 9.05673C57.6886 9.02167 55.8066 10.7221 55.7583 12.795H63.983ZM55.7411 15.3979C55.8183 16.9393 57.1143 18.4278 58.7258 18.8244C60.4691 19.2531 61.9677 18.84 63.1772 17.4911C63.266 17.3921 63.411 17.2807 63.531 17.2791C64.5464 17.262 65.5618 17.269 66.6326 17.269C66.2406 18.3031 65.6881 19.1814 64.9392 19.9326C63.5092 21.3673 61.7363 21.9253 59.7342 21.8886C55.9913 21.8208 52.952 19.0668 52.4985 15.3659C52.239 13.2439 52.5102 11.2286 53.7087 9.423C55.3 7.02589 57.5881 5.88811 60.4738 6.19204C63.3151 6.49051 65.2485 8.10521 66.3435 10.6769C66.9591 12.1209 67.1929 13.639 66.8555 15.2046C66.8446 15.2545 66.8251 15.3036 66.797 15.3971L55.7411 15.3979ZM35.2534 21.6985H32.1495V21.2325C32.1487 18.4005 32.1588 15.5685 32.1417 12.7366C32.1339 11.1702 31.0172 9.68719 29.5513 9.22272C27.4285 8.55019 25.1116 9.98098 24.7384 12.2035C24.6899 12.5082 24.6665 12.8162 24.6682 13.1247C24.6636 15.8093 24.6651 18.494 24.6651 21.1787V21.6876H21.5822V6.31829C22.2836 6.31829 22.9849 6.30893 23.6848 6.32997C23.772 6.33309 23.8819 6.48661 23.9341 6.59338C24.1282 6.98692 24.3027 7.38982 24.4983 7.82077C26.039 6.38141 27.8657 5.97695 29.8459 6.19204C32.4152 6.47259 34.563 8.48707 35.0703 11.04C35.1872 11.6284 35.2573 12.2355 35.2604 12.8348C35.2807 15.6808 35.2698 18.526 35.2698 21.3712C35.2698 21.4647 35.2612 21.5582 35.2534 21.6985ZM16.7428 21.6985H19.8155V6.32842H16.7428V21.6985ZM20.1849 2.0228C20.1826 3.05693 19.309 3.9126 18.264 3.9048C17.2485 3.89701 16.3718 3.03433 16.3594 2.03215C16.3477 1.02374 17.247 0.12833 18.2749 0.125993C19.3152 0.122875 20.1873 0.990233 20.1849 2.0228Z" fill="black"/>
</g>
<defs>
<clipPath id="clip0_9738_623">
<rect width="67.0195" height="21.8203" fill="white" transform="translate(-0.00976562 0.0898438)"/>
</clipPath>
</defs>
</svg>
