<svg width="57" height="63" viewBox="0 0 57 63" fill="none" xmlns="http://www.w3.org/2000/svg">
<path fill-rule="evenodd" clip-rule="evenodd" d="M30.1202 0.844134L29.4564 9.02516C29.1424 8.98928 28.8285 8.97134 28.5055 8.97134C28.1018 8.97134 27.7072 8.99825 27.3214 9.06104L26.9447 5.09612C26.9357 4.97053 27.0344 4.86288 27.16 4.86288H27.8327L27.5098 0.853104C27.5008 0.727518 27.5995 0.619873 27.7161 0.619873H29.9139C30.0395 0.619873 30.1381 0.727518 30.1202 0.853104V0.844134ZM24.5765 1.2478C24.5406 1.13119 24.415 1.05942 24.2984 1.10428L22.2352 1.85779C22.1186 1.90264 22.0648 2.0372 22.1186 2.14485L23.796 5.80478L23.1591 6.03801C23.0425 6.08286 22.9887 6.21742 23.0425 6.32506L24.7559 9.9222C25.3748 9.58133 26.0476 9.32119 26.7563 9.15972L24.5854 1.2478H24.5765ZM19.5172 3.52629L24.2625 10.2182C23.6615 10.6129 23.1143 11.0794 22.6478 11.6176L19.8042 8.81884C19.7145 8.72914 19.7235 8.58561 19.8132 8.50488L20.3335 8.0743L17.5078 5.21273C17.4181 5.12303 17.427 4.9795 17.5257 4.89877L19.2032 3.49041C19.3019 3.40968 19.4364 3.42762 19.5082 3.52629H19.5172ZM15.5343 7.40151C15.4356 7.32975 15.2921 7.36563 15.2293 7.47328L14.1349 9.37501C14.0721 9.48265 14.117 9.61721 14.2246 9.67103L17.8666 11.3934L17.5257 11.9764C17.4629 12.0841 17.5078 12.2276 17.6244 12.2725L21.2484 13.932C21.5086 13.2592 21.8584 12.6313 22.289 12.0661L15.5343 7.40151ZM12.8521 12.5685C12.8701 12.4429 12.9957 12.3711 13.1123 12.398L21.0511 14.4702C20.8448 15.143 20.7282 15.8517 20.7102 16.5872L16.7363 16.2643C16.6107 16.2553 16.521 16.1387 16.5479 16.0131L16.6646 15.3493L12.6548 14.9726C12.5292 14.9636 12.4485 14.847 12.4664 14.7214L12.8432 12.5595L12.8521 12.5685ZM12.5561 17.9328C12.4305 17.9418 12.3498 18.0584 12.3677 18.184L12.7535 20.3458C12.7714 20.4714 12.897 20.5432 13.0136 20.5163L16.9068 19.5026L17.0234 20.1664C17.0413 20.292 17.1669 20.3638 17.2835 20.3369L21.1229 19.2784C20.8986 18.6145 20.7551 17.9059 20.7192 17.1793L12.5471 17.9328H12.5561ZM13.8299 23.62C13.7671 23.5124 13.812 23.3778 13.9196 23.324L21.3292 19.8076C21.6073 20.4714 21.984 21.0904 22.4325 21.6465L19.1852 23.9609C19.0866 24.0327 18.943 24.0058 18.8803 23.8981L18.5394 23.3061L15.2293 25.5935C15.1306 25.6653 14.9871 25.6294 14.9243 25.5218L13.8209 23.62H13.8299ZM22.8093 22.0771L17.0413 27.9169C16.9516 28.0066 16.9606 28.1501 17.0593 28.2308L18.7457 29.6392C18.8444 29.7199 18.9789 29.702 19.0507 29.6033L21.383 26.3201L21.9033 26.7597C22.002 26.8404 22.1455 26.8225 22.2172 26.7148L24.4778 23.4317C23.8678 23.0549 23.3027 22.5974 22.8183 22.0771H22.8093ZM21.6701 31.4512C21.5534 31.4064 21.4996 31.2718 21.5534 31.1642L24.9712 23.7008C25.5991 24.0237 26.2809 24.2659 26.9895 24.4005L25.9848 28.2578C25.9579 28.3744 25.8234 28.4461 25.7067 28.4013L25.0698 28.168L24.0024 32.0522C23.9665 32.1689 23.8409 32.2406 23.7243 32.1958L21.6611 31.4423L21.6701 31.4512ZM27.5547 24.4991L26.8908 32.6802C26.8819 32.8058 26.9805 32.9134 27.0972 32.9134H29.2949C29.4205 32.9134 29.5192 32.8058 29.5012 32.6802L29.1783 28.6704H29.8511C29.9767 28.6704 30.0753 28.5627 30.0664 28.4372L29.6896 24.4722C29.3039 24.535 28.9092 24.5619 28.5055 24.5619C28.1826 24.5619 27.8686 24.544 27.5547 24.4991ZM35.4666 2.35117C35.5204 2.23455 35.4666 2.10896 35.35 2.06411L33.2868 1.3106C33.1701 1.26574 33.0446 1.33751 33.0087 1.45412L31.9412 5.33832L31.3043 5.10509C31.1877 5.06023 31.0621 5.132 31.0262 5.24861L30.0215 9.1059C30.7392 9.24942 31.4119 9.49162 32.0399 9.80559L35.4666 2.35117ZM39.9697 5.60743L34.2017 11.4472C33.7173 10.9269 33.1612 10.4694 32.5422 10.0926L34.8028 6.80947C34.8745 6.71079 35.018 6.68388 35.1167 6.76461L35.637 7.20416L37.9693 3.92099C38.0411 3.82231 38.1846 3.80437 38.2743 3.88511L39.9608 5.29346C40.0594 5.3742 40.0594 5.51772 39.9787 5.60743H39.9697ZM43.0914 10.2003C43.208 10.1465 43.2439 10.0119 43.1811 9.90426L42.0778 8.00253C42.015 7.89489 41.8715 7.86798 41.7728 7.93077L38.4627 10.2182L38.1218 9.63515C38.059 9.5275 37.9155 9.49162 37.8168 9.57236L34.5695 11.8867C35.018 12.4429 35.3858 13.0619 35.6729 13.7257L43.0825 10.2093L43.0914 10.2003ZM44.2576 13.1785L44.6343 15.3403C44.6523 15.4659 44.5715 15.5736 44.446 15.5915L36.2739 16.354C36.238 15.6184 36.0945 14.9187 35.8702 14.2549L39.7096 13.1964C39.8262 13.1605 39.9518 13.2413 39.9697 13.3668L40.0863 14.0307L43.9795 13.017C44.0961 12.9901 44.2217 13.0619 44.2396 13.1874L44.2576 13.1785ZM43.8898 21.1173C44.0064 21.1442 44.132 21.0724 44.1499 20.9469L44.5267 18.785C44.5446 18.6594 44.4639 18.5518 44.3383 18.5338L40.3285 18.1571L40.4452 17.4932C40.4631 17.3677 40.3824 17.26 40.2568 17.2421L36.2829 16.9191C36.2649 17.6547 36.1483 18.3634 35.942 19.0362L43.8808 21.1083L43.8898 21.1173ZM41.7728 26.051C41.71 26.1587 41.5665 26.1856 41.4678 26.1228L34.7131 21.4582C35.1436 20.893 35.4935 20.2651 35.7536 19.5923L39.3777 21.2519C39.4943 21.3057 39.5391 21.4402 39.4763 21.5479L39.1355 22.131L42.7775 23.8533C42.8851 23.9071 42.93 24.0417 42.8672 24.1493L41.7728 26.051ZM32.7396 23.2971L37.4849 29.989C37.5567 30.0877 37.7002 30.1057 37.7899 30.0249L39.4674 28.6166C39.5661 28.5358 39.5661 28.3923 39.4853 28.3026L36.6596 25.441L37.1799 25.0105C37.2786 24.9297 37.2786 24.7862 37.1889 24.6965L34.3453 21.8977C33.8698 22.4359 33.3316 22.9114 32.7306 23.2971H32.7396ZM32.6947 32.4111C32.5781 32.4559 32.4525 32.3842 32.4166 32.2675L30.2458 24.3556C30.9544 24.1941 31.6272 23.934 32.2462 23.5931L33.9595 27.1903C34.0134 27.3069 33.9595 27.4414 33.8429 27.4773L33.206 27.7106L34.8835 31.3705C34.9373 31.4871 34.8835 31.6127 34.7669 31.6575L32.7037 32.4111H32.6947Z" fill="black"/>
<path d="M47.4907 59.5286C44.7547 59.5286 42.8261 57.3937 42.8261 54.5859C42.8261 51.7782 44.7547 49.6432 47.4907 49.6432C50.2267 49.6432 52.1015 51.7782 52.1015 54.5859C52.1015 57.3937 50.1998 59.5286 47.4907 59.5286ZM47.0512 62.4709C49.2579 62.4709 51.1327 61.6098 52.3168 59.8067C52.5411 61.5559 53.8059 62.1928 55.4026 62.1928H56.6764V59.421H56.1292C55.2232 59.421 54.999 58.9814 54.999 57.9498V46.988H52.0746V49.2395C51.0789 47.6607 49.2041 46.7099 47.0512 46.7099C43.2118 46.7099 39.6864 49.9303 39.6864 54.5859C39.6864 59.2416 43.2208 62.4619 47.0512 62.4619V62.4709ZM31.9898 58.6675C31.9898 61.1612 33.5327 62.1928 35.3806 62.1928H38.9419V59.421H36.3494C35.273 59.421 35.0487 59.0083 35.0487 57.9498V49.7598H38.9419V46.988H35.0487V41.8838H31.9898V58.6675ZM18.0588 62.1928H21.1177V55.6713H22.1403L27.3521 62.1928H31.2184L24.5713 53.9221L29.6754 46.988H26.2308L22.0596 52.8456H21.1177V41.8838H18.0588V62.1928ZM8.12849 46.7099C3.8496 46.7099 0.324219 49.9303 0.324219 54.5859C0.324219 59.2416 3.85857 62.4619 8.12849 62.4619C12.3984 62.4619 15.9328 59.2416 15.9328 54.5859C15.9328 49.9303 12.3984 46.7099 8.12849 46.7099ZM8.12849 59.5286C5.39251 59.5286 3.46387 57.3937 3.46387 54.5859C3.46387 51.7782 5.39251 49.6432 8.12849 49.6432C10.8645 49.6432 12.7931 51.7782 12.7931 54.5859C12.7931 57.3937 10.8645 59.5286 8.12849 59.5286Z" fill="black"/>
</svg>
