<svg width="49" height="62" viewBox="0 0 49 62" fill="none" xmlns="http://www.w3.org/2000/svg">
<g clip-path="url(#clip0_9738_701)">
<path d="M24.4998 9.73828C19.6677 9.73828 15.752 13.6373 15.752 18.4489C15.752 23.2604 19.6677 27.1596 24.4998 27.1596C29.332 27.1596 33.2477 23.2604 33.2477 18.4489C33.2477 13.6373 29.332 9.73828 24.4998 9.73828Z" fill="#302E7C"/>
<path d="M24.4998 0.199219L33.2477 4.51305V8.24618L24.4998 3.93235L15.752 8.24618L15.752 4.51305L24.4998 0.199219Z" fill="#302E7C"/>
<path d="M24.4998 36.6993L15.752 32.3854L15.752 28.6523L24.4998 32.9662L33.2477 28.6523V32.3854L24.4998 36.6993Z" fill="#302E7C"/>
<path d="M9.67029 43.6992C4.83808 43.6992 0.922363 47.5983 0.922363 52.4098C0.922363 57.2214 4.83808 61.1205 9.67029 61.1205C14.5024 61.1205 18.4181 57.2214 18.4181 52.4098C18.4181 47.5983 14.5024 43.6992 9.67029 43.6992ZM9.67029 57.8022C6.67928 57.8022 4.25497 55.3881 4.25497 52.4098C4.25497 49.4316 6.67928 47.0176 9.67029 47.0176C12.6611 47.0176 15.0856 49.4316 15.0856 52.4098C15.0856 55.3881 12.6611 57.8022 9.67029 57.8022Z" fill="#302E7C"/>
<path d="M29.4421 54.2847C31.7151 53.6625 33.3887 51.5886 33.4052 49.133C33.4052 49.1164 33.4052 49.1081 33.4052 49.0915C33.4052 49.0749 33.4052 49.0666 33.4052 49.05C33.3803 46.0884 30.9657 43.6992 27.9934 43.6992H20.9165V46.835L23.5808 51.1572H20.9249V61.1205H24.2552V54.4755H25.654L29.7476 61.1205H33.6633L29.4421 54.2847ZM28.0018 51.1654H27.5105L24.9379 47.0176H28.0018C29.1508 47.0176 30.0833 47.9467 30.0833 49.0915C30.0833 50.2363 29.1508 51.1654 28.0018 51.1654Z" fill="#302E7C"/>
<path d="M39.3297 61.1205H35.5806L39.9795 52.4182L35.5806 43.6992H39.3297L41.8374 48.7099L44.4117 43.6992H48.0775L39.3297 61.1205Z" fill="#302E7C"/>
</g>
<defs>
<clipPath id="clip0_9738_701">
<rect width="47.1552" height="60.9228" fill="white" transform="translate(0.922363 0.199219)"/>
</clipPath>
</defs>
</svg>
