<svg width="111" height="24" viewBox="0 0 111 24" fill="none" xmlns="http://www.w3.org/2000/svg">
<path d="M26.834 14.9909C26.9439 16.09 27.9513 17.9583 30.827 17.9583C33.3364 17.9583 34.5453 16.3647 34.5453 14.8078C34.5453 13.3974 33.5929 12.2617 31.7062 11.8588L30.3508 11.5657C29.8196 11.4741 29.4716 11.1811 29.4716 10.7048C29.4716 10.1553 30.0211 9.75235 30.6988 9.75235C31.7978 9.75235 32.2008 10.4667 32.2741 11.0345L34.4354 10.54C34.3255 9.51423 33.4097 7.77414 30.6805 7.77414C28.6107 7.77414 27.0904 9.20285 27.0904 10.9063C27.0904 12.2434 27.933 13.3608 29.783 13.7637L31.0468 14.0568C31.7795 14.2216 32.0726 14.5697 32.0726 14.9909C32.0726 15.5038 31.6696 15.9434 30.8087 15.9434C29.6731 15.9434 29.1236 15.2474 29.0503 14.4781L26.834 14.9909ZM42.8245 17.6652H45.2973C45.2606 17.3355 45.2057 16.6761 45.2057 15.9251V8.06721H42.623V13.6355C42.623 14.7528 41.9636 15.5221 40.8097 15.5221C39.6008 15.5221 39.0513 14.6612 39.0513 13.5989V8.06721H36.4503V14.1301C36.4503 16.2182 37.7691 17.9033 40.0953 17.9033C41.1027 17.9033 42.2201 17.5187 42.7513 16.6211C42.7329 17.0241 42.7696 17.4637 42.8245 17.6652ZM50.5542 21.3652V16.731C51.0304 17.3721 52.0012 17.9033 53.32 17.9033C56.0309 17.9033 57.8443 15.7602 57.8443 12.8479C57.8443 10.0088 56.2324 7.86572 53.4299 7.86572C51.9829 7.86572 50.9205 8.50681 50.4809 9.2578V8.08552H47.9715V21.3652H50.5542ZM55.2799 12.8662C55.2799 14.588 54.2359 15.5771 52.8987 15.5771C51.5799 15.5771 50.4992 14.5697 50.4992 12.8662C50.4992 11.1627 51.5616 10.1736 52.8987 10.1736C54.2175 10.1736 55.2799 11.1627 55.2799 12.8662ZM59.2913 15.0459C59.2913 16.5479 60.5368 17.9399 62.5883 17.9399C64.017 17.9399 64.9329 17.2805 65.4091 16.5112C65.4091 16.8776 65.4457 17.4088 65.5007 17.6652H67.8819C67.8269 17.3355 67.772 16.6578 67.772 16.1449V11.4192C67.772 9.49592 66.6363 7.77414 63.614 7.77414C61.0497 7.77414 59.6576 9.42265 59.5111 10.9246L61.8007 11.4192C61.874 10.5766 62.4967 9.86225 63.6324 9.86225C64.7314 9.86225 65.2442 10.4301 65.2442 11.1078C65.2442 11.4375 65.0611 11.7122 64.5299 11.7855L62.167 12.1335C60.5551 12.3716 59.2913 13.3241 59.2913 15.0459ZM63.1378 15.9984C62.2952 15.9984 61.8923 15.4489 61.8923 14.881C61.8923 14.1484 62.4235 13.7637 63.0829 13.6721L65.2442 13.3424V13.7637C65.2259 15.4855 64.2185 15.9984 63.1378 15.9984ZM72.8823 17.6652V16.4929C73.3952 17.3172 74.4026 17.9033 75.7214 17.9033C78.4506 17.9033 80.2457 15.7419 80.2457 12.8296C80.2457 9.99047 78.6338 7.81077 75.8313 7.81077C74.4026 7.81077 73.3586 8.43354 72.9373 9.11126V3.54297H70.3912V17.6469H72.8823V17.6652ZM77.663 12.8479C77.663 14.6063 76.619 15.5771 75.2818 15.5771C73.9813 15.5771 72.8823 14.588 72.8823 12.8479C72.8823 11.0895 73.9813 10.137 75.2818 10.137C76.6006 10.137 77.663 11.0895 77.663 12.8479ZM81.711 15.0459C81.711 16.5479 82.9566 17.9399 85.008 17.9399C86.4367 17.9399 87.3526 17.2805 87.8288 16.5112C87.8288 16.8776 87.8654 17.4088 87.9204 17.6652H90.3016C90.2466 17.3355 90.1917 16.6578 90.1917 16.1449V11.4192C90.1917 9.49592 89.056 7.77414 86.0338 7.77414C83.4694 7.77414 82.0773 9.42265 81.9308 10.9246L84.2204 11.4192C84.2937 10.5766 84.9164 9.86225 86.0521 9.86225C87.1511 9.86225 87.664 10.4301 87.664 11.1078C87.664 11.4375 87.4808 11.7122 86.9496 11.7855L84.5867 12.1335C82.9749 12.3716 81.711 13.3241 81.711 15.0459ZM85.5392 15.9984C84.6966 15.9984 84.2937 15.4489 84.2937 14.881C84.2937 14.1484 84.8249 13.7637 85.4843 13.6721L87.6456 13.3424V13.7637C87.6456 15.4855 86.6382 15.9984 85.5392 15.9984ZM91.9684 14.9909C92.0783 16.09 93.0857 17.9583 95.9615 17.9583C98.4709 17.9583 99.6798 16.3647 99.6798 14.8078C99.6798 13.3974 98.7273 12.2617 96.8407 11.8588L95.4852 11.5657C94.954 11.4741 94.606 11.1811 94.606 10.7048C94.606 10.1553 95.1555 9.75235 95.8332 9.75235C96.9322 9.75235 97.3352 10.4667 97.4085 11.0345L99.5699 10.54C99.46 9.51423 98.5441 7.77414 95.8149 7.77414C93.7451 7.77414 92.2248 9.20285 92.2248 10.9063C92.2248 12.2434 93.0674 13.3608 94.9174 13.7637L96.1813 14.0568C96.9139 14.2216 97.207 14.5697 97.207 14.9909C97.207 15.5038 96.804 15.9434 95.9431 15.9434C94.8075 15.9434 94.258 15.2474 94.1847 14.4781L91.9684 14.9909ZM103.618 11.7672C103.673 10.888 104.424 9.88057 105.761 9.88057C107.245 9.88057 107.867 10.8147 107.904 11.7672H103.618ZM108.16 14.2766C107.849 15.1375 107.19 15.7419 105.981 15.7419C104.699 15.7419 103.618 14.8261 103.563 13.5622H110.413C110.413 13.5256 110.45 13.141 110.45 12.7563C110.45 9.67908 108.673 7.79245 105.724 7.79245C103.27 7.79245 101.017 9.78898 101.017 12.8479C101.017 16.09 103.325 17.9766 105.962 17.9766C108.325 17.9766 109.846 16.5845 110.322 14.936L108.16 14.2766Z" fill="#1F1F1F"/>
<path d="M1.57554 14.4592C1.00772 14.4592 0.549805 14.0013 0.549805 13.4335C0.549805 13.2137 0.623072 12.9939 0.751289 12.829L1.13594 12.2795L10.0196 0.282037C10.0928 0.190453 10.2027 0.117188 10.331 0.117188C10.5508 0.117188 10.7156 0.28204 10.7156 0.501841V0.538471V14.4409H1.57554V14.4592Z" fill="#3ECF8E"/>
<path d="M19.8915 9.27344C20.4594 9.27344 20.9173 9.73136 20.9173 10.2992C20.9173 10.519 20.844 10.7388 20.7158 10.9036L20.3311 11.4531L11.4475 23.4506C11.3742 23.5422 11.2643 23.6155 11.1361 23.6155C10.9163 23.6155 10.7515 23.4506 10.7515 23.2308V23.1942V9.27344H19.8915Z" fill="url(#paint0_linear_9738_549)"/>
<path d="M19.8915 9.27344C20.4594 9.27344 20.9173 9.73136 20.9173 10.2992C20.9173 10.519 20.844 10.7388 20.7158 10.9036L20.3311 11.4531L11.4475 23.4506C11.3742 23.5422 11.2643 23.6155 11.1361 23.6155C10.9163 23.6155 10.7515 23.4506 10.7515 23.2308V23.1942V9.27344H19.8915Z" fill="url(#paint1_linear_9738_549)" fill-opacity="0.2"/>
<defs>
<linearGradient id="paint0_linear_9738_549" x1="9.94337" y1="14.245" x2="17.5297" y2="17.2053" gradientUnits="userSpaceOnUse">
<stop stop-color="#249361"/>
<stop offset="1" stop-color="#3ECF8E"/>
</linearGradient>
<linearGradient id="paint1_linear_9738_549" x1="9.75815" y1="6.05789" x2="13.5451" y2="12.6906" gradientUnits="userSpaceOnUse">
<stop/>
<stop offset="1" stop-opacity="0"/>
</linearGradient>
</defs>
</svg>
