<svg width="55" height="50" viewBox="0 0 55 50" fill="none" xmlns="http://www.w3.org/2000/svg">
<g clip-path="url(#clip0_9738_539)">
<path d="M23.4383 49.3764C23.3137 49.3764 23.1891 49.3764 23.0621 49.3764C21.4338 49.2426 19.8716 48.6728 18.5395 47.7269C18.1608 47.4777 17.792 47.1986 17.4158 46.932L17.3834 46.9096C16.6149 46.3242 15.8055 45.7946 14.9614 45.3248C13.6698 44.6442 12.2327 44.286 10.7728 44.2808H10.5709C10.0165 44.273 9.46303 44.329 8.92141 44.4477C8.19927 44.9075 7.77455 45.7152 7.80511 46.5707C7.83254 47.0745 7.95602 47.5684 8.1689 48.0259C8.31689 48.3023 8.42989 48.5961 8.50529 48.9005C8.46293 48.9005 8.35329 48.7684 8.14897 48.5143C6.70764 46.4745 4.62812 44.9727 2.23855 44.2459C1.52312 44.1062 0.925824 43.6162 0.648882 42.9419C0.371939 42.2676 0.45243 41.4993 0.863106 40.897C8.12903 30.2224 9.03603 26.405 12.4123 12.2145L12.7039 10.9886C12.9182 10.0849 13.1441 9.13972 13.3816 8.15299C13.5467 7.48021 14.0209 6.92552 14.6599 6.65795L18.7538 4.94113C19.0177 4.83204 19.3005 4.77615 19.5861 4.77668C19.7013 4.77771 19.8163 4.7877 19.9299 4.80658C21.9918 4.07911 24.1708 3.74114 26.3561 3.80988H29.1893C31.3787 3.73953 33.5622 4.07753 35.6279 4.80658C35.1506 4.88329 34.7124 5.11644 34.3821 5.46938L22.0579 6.40379L21.1758 5.4644C20.8445 5.1136 20.4065 4.8823 19.9299 4.80658C19.1066 5.11797 18.3467 5.57643 17.6874 6.1596C15.828 8.34567 14.9495 11.2002 15.2579 14.0534V29.4748C14.9478 32.3321 15.8263 35.1911 17.6874 37.3812C20.1987 39.1823 23.2769 40.0142 26.3537 39.7234H29.1868C32.2635 40.0142 35.3417 39.1823 37.8531 37.3812C39.7159 35.1919 40.5963 32.3328 40.2875 29.4748V14.0485C40.5934 11.1962 39.7152 8.34342 37.858 6.15711C37.2019 5.57646 36.4465 5.11896 35.6279 4.80658C35.7393 4.78984 35.8517 4.78151 35.9643 4.78166C36.25 4.7816 36.5329 4.83834 36.7966 4.94861L40.8905 6.65296C41.5285 6.92117 42.0017 7.47575 42.1663 8.14801C42.9138 11.2976 43.5616 14.1083 44.0276 16.159C46.6215 27.5437 47.5908 31.8021 54.1366 41.4327C54.5472 42.0346 54.628 42.8026 54.3516 43.4768C54.0752 44.151 53.4786 44.6412 52.7636 44.7816C50.5065 45.3962 48.5382 46.7867 47.2046 48.7086C47.0725 48.8806 47.0127 48.9578 46.9978 48.9578C47.0565 48.7476 47.1402 48.5452 47.2469 48.3548L47.3939 48.0184C47.6053 47.5606 47.7279 47.0668 47.7552 46.5632C47.7872 45.846 47.4888 45.1537 46.9454 44.6845C46.0473 44.4691 45.128 44.3537 44.2045 44.3406H43.913C42.5666 44.2391 41.2503 44.7729 40.3548 45.7833C40.2217 45.9634 40.0986 46.1505 39.986 46.344L39.971 46.3714C39.8378 46.6058 39.687 46.8299 39.52 47.0416C39.2055 47.4614 38.7089 47.7051 38.1845 47.697C37.3822 47.6093 36.6089 47.3465 35.9195 46.927C35.6204 46.7775 35.3763 46.6529 35.142 46.5533C34.2757 46.1566 33.3386 45.938 32.3862 45.9104C32.1206 45.9097 31.8554 45.9322 31.5938 45.9777C30.3565 46.291 29.1954 46.8512 28.1801 47.6247C27.9309 47.7817 27.7042 47.9362 27.4675 48.0857C26.2786 48.8987 24.8783 49.3473 23.4383 49.3764Z" fill="#FF9933"/>
<path d="M29.8184 46.5627L30.0177 43.2013L33.0502 42.3242L34.296 46.2437C32.8205 45.7496 31.2089 45.8644 29.8184 46.5627Z" fill="#DB902E"/>
<path d="M12.1505 43.0324C12.1505 43.1121 12.1505 44.2783 12.1505 44.3829C9.72108 43.9519 7.73765 44.7492 7.79994 46.5632H7.78001V46.0449C7.68034 42.539 9.40961 39.6013 10.3814 36.357C11.1787 33.6759 11.5425 25.5204 12.1879 28.214C12.625 30.5005 12.6098 32.8505 12.1431 35.1311C12.0525 36.4435 12.0525 37.7606 12.1431 39.073L12.1505 43.0324Z" fill="#DB902E"/>
<path d="M43.4052 43.0324C43.4052 43.1121 43.4052 44.2783 43.4052 44.3829C45.5307 44.4951 47.8181 44.7492 47.7558 46.5632H47.7758V46.0449C47.8754 42.539 46.1462 39.6013 45.1744 36.357C44.377 33.6759 44.0132 25.5204 43.3679 28.214C42.931 30.5006 42.9471 32.8507 43.4152 35.1311C43.5056 36.4435 43.5056 37.7606 43.4152 39.073L43.4052 43.0324Z" fill="#DB902E"/>
<path d="M29.187 0.334689C33.1364 0.0102289 37.0648 1.17159 40.203 3.5914C42.8199 6.41714 44.1134 10.2215 43.7612 14.0567V29.4906C44.1137 33.3259 42.8202 37.1303 40.203 39.9559C37.065 42.3762 33.1365 43.5376 29.187 43.2126H26.3563C22.4068 43.5373 18.4784 42.3759 15.3403 39.9559C12.7231 37.1303 11.4296 33.3259 11.7821 29.4906V14.0567C11.4296 10.2214 12.7231 6.41698 15.3403 3.5914C18.4786 1.17181 22.4069 0.010472 26.3563 0.334689H29.187ZM20.7899 9.63298C19.3098 11.5197 18.5782 14.06 18.7776 16.6209V26.9265C18.5782 29.4874 19.3098 32.0277 20.7899 33.9144C22.5646 35.5303 24.7863 36.3058 27.0199 36.089H28.6207C30.8543 36.3059 33.076 35.5304 34.8506 33.9144C36.3307 32.0277 37.0623 29.4874 36.8629 26.9265V16.6209C37.0621 14.06 36.3306 11.5198 34.8506 9.63298C33.0759 8.01722 30.8542 7.24175 28.6207 7.4584H27.0199C24.7863 7.24191 22.5647 8.01736 20.7899 9.63298Z" fill="#292E37"/>
<path d="M27.7708 19.2305C29.4346 19.2305 30.7833 20.5792 30.7833 22.243C30.7833 23.3207 30.2175 24.2662 29.3667 24.7986L29.8091 29.3793C29.8266 29.5575 29.7682 29.7348 29.6482 29.8676C29.5282 30.0005 29.3577 30.0765 29.1787 30.077H26.363C26.1835 30.0772 26.0124 30.0015 25.8918 29.8685C25.7712 29.7356 25.7125 29.5579 25.7301 29.3793L26.1725 24.797C25.3231 24.2643 24.7583 23.3196 24.7583 22.243C24.7583 20.5792 26.1071 19.2305 27.7708 19.2305Z" fill="#292E37"/>
</g>
<defs>
<clipPath id="clip0_9738_539">
<rect width="54.0273" height="49.1733" fill="white" transform="translate(0.486328 0.28125)"/>
</clipPath>
</defs>
</svg>
