<svg width="81" height="81" viewBox="0 0 81 81" fill="none" xmlns="http://www.w3.org/2000/svg">
<path fill-rule="evenodd" clip-rule="evenodd" d="M57.3432 56.946L55.0643 48.4408L56.3809 48.088L59.276 58.8929L23.4952 49.082L49.6065 22.8057L52.5003 33.6054L51.1837 33.9581L48.9033 25.4476L26.112 48.3856L57.3432 56.946Z" fill="#101010"/>
<path fill-rule="evenodd" clip-rule="evenodd" d="M17.7942 40.0053L19.22 45.3266L12.5424 52.004L21.6641 54.448L23.0899 59.7693L3.32626 54.4735L17.7942 40.0053Z" fill="url(#paint0_linear_9738_678)"/>
<path fill-rule="evenodd" clip-rule="evenodd" d="M59.4995 23.2514L54.1782 21.8256L51.7342 12.7039L45.0569 19.3815L39.7356 17.9557L54.2037 3.48771L59.4995 23.2514Z" fill="url(#paint1_linear_9738_678)"/>
<path fill-rule="evenodd" clip-rule="evenodd" d="M53.3239 67.9542L57.2193 64.0588L66.3409 66.503L63.8967 57.3814L67.7921 53.486L73.0877 73.2497L53.3239 67.9542Z" fill="url(#paint2_linear_9738_678)"/>
<path fill-rule="evenodd" clip-rule="evenodd" d="M37.1124 70.3816L35.9365 58.3071L44.1679 60.5127L37.1124 70.3816Z" fill="url(#paint3_linear_9738_678)"/>
<path fill-rule="evenodd" clip-rule="evenodd" d="M23.6761 24.677L28.695 35.7217L34.7208 29.6959L23.6761 24.677Z" fill="url(#paint4_linear_9738_678)"/>
<path fill-rule="evenodd" clip-rule="evenodd" d="M70.0002 37.0445L57.9258 35.8686L60.1314 44.1L70.0002 37.0445Z" fill="url(#paint5_linear_9738_678)"/>
<path d="M52.5538 36.8522C54.2505 36.3976 55.2573 34.6537 54.8027 32.957C54.3481 31.2603 52.6042 30.2535 50.9075 30.7081C49.2109 31.1627 48.204 32.9067 48.6586 34.6033C49.1132 36.3 50.8572 37.3069 52.5538 36.8522Z" fill="#101010"/>
<path d="M56.6632 51.3366C58.3598 50.882 59.3667 49.138 58.9121 47.4414C58.4575 45.7447 56.7135 44.7378 55.0169 45.1925C53.3202 45.6471 52.3134 47.391 52.768 49.0877C53.2226 50.7844 54.9665 51.7912 56.6632 51.3366Z" fill="#101010"/>
<path d="M59.1319 60.9929C60.8286 60.5382 61.8355 58.7943 61.3808 57.0976C60.9262 55.401 59.1823 54.3941 57.4856 54.8487C55.789 55.3033 54.7821 57.0473 55.2367 58.7439C55.6913 60.4406 57.4353 61.4475 59.1319 60.9929Z" fill="#101010"/>
<path d="M25.714 51.8054C27.4106 51.3507 28.4175 49.6068 27.9629 47.9101C27.5083 46.2135 25.7643 45.2066 24.0677 45.6612C22.371 46.1158 21.3641 47.8598 21.8188 49.5564C22.2734 51.2531 24.0173 52.26 25.714 51.8054Z" fill="#101010"/>
<path d="M50.0929 27.196C51.7895 26.7414 52.7964 24.9974 52.3418 23.3008C51.8872 21.6041 50.1432 20.5972 48.4466 21.0518C46.7499 21.5065 45.7431 23.2504 46.1977 24.9471C46.6523 26.6437 48.3962 27.6506 50.0929 27.196Z" fill="#101010"/>
<path fill-rule="evenodd" clip-rule="evenodd" d="M53.0624 30.8097C53.0624 30.8097 52.0994 30.5335 51.8043 30.082C51.5723 29.7252 51.1487 28.3899 51.0674 28.1392C50.7329 27.1188 51.791 26.1525 51.791 26.1525L47.7731 27.3077C47.7731 27.3077 49.1385 26.8916 49.7157 28.5014C49.8056 28.7494 49.9724 29.8633 50.0489 30.5524C50.1377 31.0418 49.5129 31.7118 49.5129 31.7118L53.0624 30.8097Z" fill="#101010"/>
<path fill-rule="evenodd" clip-rule="evenodd" d="M58.8538 54.7918C58.8538 54.7918 58.1057 54.7383 57.9086 54.1079C57.7911 53.6694 57.7479 53.5258 57.6221 53.0389C57.5388 52.7805 57.4509 52.5052 57.4094 52.2451C57.1462 51.0344 57.831 50.571 57.831 50.571L54.7183 51.3125C54.7183 51.3125 55.6376 51.3905 56.0806 52.5522C56.1747 52.7982 56.2729 53.1995 56.3254 53.4658C56.4364 53.8978 56.4449 53.9293 56.563 54.3524C56.763 55.0463 56.3309 55.365 56.3309 55.365L58.8538 54.7918Z" fill="#101010"/>
<path fill-rule="evenodd" clip-rule="evenodd" d="M28.1817 48.1246C28.1817 48.1246 27.5724 47.6063 28.687 46.0959C29.3151 45.2448 30.2078 44.3282 31.1757 43.2885C32.9433 41.3887 35.1189 39.2212 37.2815 37.0402C39.1073 35.1998 40.9327 33.3578 42.5932 31.7609C43.9772 30.4307 45.2274 29.2507 46.254 28.3599C46.4564 28.1846 46.6708 28.0544 46.8374 27.8862C47.8312 26.8906 48.9376 27.2984 48.9376 27.2984L46.0163 24.5061C46.0163 24.5061 46.2374 25.7525 45.5228 26.579C45.3687 26.7586 45.2263 26.9646 45.0547 27.1666C44.1696 28.1994 42.9965 29.4566 41.6762 30.8488C40.0878 32.5219 38.2604 34.3566 36.4291 36.194C34.265 38.3692 32.1097 40.5601 30.2207 42.3401C29.1881 43.314 28.2684 44.2 27.4299 44.8449C26.205 45.7856 24.8645 45.5401 24.8645 45.5401L28.1817 48.1246Z" fill="#101010"/>
<path fill-rule="evenodd" clip-rule="evenodd" d="M26.7431 51.1744C26.7431 51.1744 27.0977 50.567 29.0292 50.8763C30.0716 51.0452 31.3173 51.323 32.6985 51.6502C35.2244 52.2472 38.1863 53.0669 41.1481 53.8686C43.6528 54.5441 46.1068 55.2588 48.3189 55.9132C50.1584 56.4587 53.4409 57.316 53.6702 57.3817C55.1683 57.8117 55.076 58.4678 55.076 58.4678L55.8236 55.8161C55.8236 55.8161 55.2892 56.4725 54.0532 56.0728C53.8266 55.9997 50.5666 55.0857 48.703 54.6257C46.4664 54.073 43.9646 53.3905 41.4632 52.7095C38.4999 51.9021 35.532 51.1128 33.0513 50.3513C31.6932 49.9349 30.4557 49.5997 29.4924 49.1643C27.5554 48.2901 28.0897 47.1419 28.0897 47.1419L26.7431 51.1744Z" fill="#101010"/>
<defs>
<linearGradient id="paint0_linear_9738_678" x1="4.53467" y1="48.7328" x2="77.5589" y2="48.7329" gradientUnits="userSpaceOnUse">
<stop stop-color="#FF8F00"/>
<stop offset="1" stop-color="#FE00FF"/>
</linearGradient>
<linearGradient id="paint1_linear_9738_678" x1="4.4881" y1="48.7326" x2="77.5124" y2="48.7325" gradientUnits="userSpaceOnUse">
<stop stop-color="#FF8F00"/>
<stop offset="1" stop-color="#FE00FF"/>
</linearGradient>
<linearGradient id="paint2_linear_9738_678" x1="4.67958" y1="48.734" x2="77.7044" y2="48.734" gradientUnits="userSpaceOnUse">
<stop stop-color="#FF8F00"/>
<stop offset="1" stop-color="#FE00FF"/>
</linearGradient>
<linearGradient id="paint3_linear_9738_678" x1="4.67534" y1="48.7331" x2="77.6996" y2="48.7331" gradientUnits="userSpaceOnUse">
<stop stop-color="#FF8F00"/>
<stop offset="1" stop-color="#FE00FF"/>
</linearGradient>
<linearGradient id="paint4_linear_9738_678" x1="4.54295" y1="48.7326" x2="77.5677" y2="48.7326" gradientUnits="userSpaceOnUse">
<stop stop-color="#FF8F00"/>
<stop offset="1" stop-color="#FE00FF"/>
</linearGradient>
<linearGradient id="paint5_linear_9738_678" x1="4.55172" y1="48.7337" x2="77.576" y2="48.7337" gradientUnits="userSpaceOnUse">
<stop stop-color="#FF8F00"/>
<stop offset="1" stop-color="#FE00FF"/>
</linearGradient>
</defs>
</svg>
