<svg width="79" height="55" viewBox="0 0 79 55" fill="none" xmlns="http://www.w3.org/2000/svg">
<path d="M24.3809 13.5015C24.3809 14.0758 24.5316 14.6502 24.8242 15.1448L30.1266 24.3268C30.6703 25.2637 31.4969 26.0302 32.5244 26.3731C33.4688 26.696 34.4961 26.6806 35.4304 26.3294C36.3647 25.9782 37.1477 25.3131 37.6455 24.448L38.9253 22.2303L33.8751 13.5015L39.207 4.25838L40.4878 2.04178C40.8643 1.39241 41.3764 0.831887 41.9892 0.398438L33.7648 0.398438C32.3235 0.398438 30.9924 1.16497 30.2772 2.41412L24.8242 11.8592C24.5328 12.3574 24.3798 12.9244 24.3809 13.5015Z" fill="#6363F1"/>
<path d="M54.6191 13.5003C54.6191 12.926 54.4684 12.3505 54.1757 11.857L48.8035 2.55383C48.3024 1.69205 47.519 1.02978 46.5859 0.679004C45.6527 0.328232 44.6271 0.310487 43.6824 0.628769C42.656 0.971632 41.8283 1.73707 41.2845 2.67503L40.0747 4.7606L45.1248 13.5003L39.793 22.7424L38.5121 24.9601C38.13 25.6152 37.6157 26.1699 37.0107 26.6034H45.2351C46.6764 26.6034 48.0075 25.8369 48.7227 24.5877L54.1757 15.1426C54.4684 14.649 54.6191 14.0747 54.6191 13.5003Z" fill="#6363F1"/>
<path d="M0.0361328 38.8095H3.10848L5.32067 47.9241C5.73044 49.6444 5.81168 50.6688 5.81168 50.6688H5.85319C5.85319 50.6688 5.99625 49.6656 6.40602 47.9241L8.51489 38.8104H11.997L14.2286 47.9241C14.6587 49.7062 14.762 50.6688 14.762 50.6688H14.8238C14.8238 50.6688 14.8645 49.7062 15.2733 47.9241L17.4034 38.8104H20.4758L16.5848 53.7614H13.1645L10.8101 44.7078C10.3182 42.742 10.2767 41.8615 10.2767 41.8615H10.2352C10.2352 41.8615 10.1937 42.742 9.74419 44.7078L7.53199 53.7606H4.01014L0.0361328 38.8095ZM19.9627 48.3294C19.9627 44.9082 22.1749 42.6969 25.5139 42.6969C28.8318 42.6969 31.0431 44.9082 31.0431 48.3285C31.0431 51.7691 28.8309 54.0025 25.5139 54.0025C22.1758 54.0016 19.9627 51.77 19.9627 48.3294ZM28.1756 48.3294C28.1756 46.1172 27.1106 44.8676 25.5139 44.8676C23.7936 44.8676 22.8301 46.2603 22.8301 48.3294C22.8301 50.5822 23.8952 51.831 25.5139 51.831C27.2342 51.831 28.1756 50.4383 28.1756 48.3294ZM32.4146 42.8638H35.1381V44.872H35.1999C35.6715 43.8273 36.7966 42.7826 38.7217 42.7826C39.0485 42.7826 39.2543 42.8241 39.3973 42.8638V45.5874H39.3161C39.3161 45.5874 39.0706 45.5061 38.3941 45.5061C36.2852 45.5061 35.1381 46.7548 35.1381 49.0898V53.7588H32.4146V42.8638ZM40.6672 38.8095H43.3908V43.6021C43.3908 46.4281 43.3493 46.9403 43.3493 46.9403H43.3908L47.446 42.8647H50.8451L46.0957 47.5752L51.6055 53.7606H48.3883L44.4143 49.254L43.3899 50.2573V53.7588H40.6664L40.6672 38.8095ZM51.6443 46.3398C51.6443 41.7317 54.5127 38.6602 58.8134 38.6602C63.1142 38.6602 65.9816 41.7317 65.9816 46.3398C65.9816 50.9478 63.1142 54.0193 58.8134 54.0193C54.5127 54.0193 51.6443 50.9478 51.6443 46.3398ZM63.0109 46.3398C63.0109 43.2065 61.3321 41.0958 58.8117 41.0958C56.2913 41.0958 54.6142 43.2065 54.6142 46.3398C54.6142 49.473 56.2921 51.5837 58.8117 51.5837C61.3303 51.5837 63.0109 49.473 63.0109 46.3398ZM67.0237 48.7842H70.1376C70.1376 50.546 71.3466 51.5289 73.1896 51.5289C74.7457 51.5289 75.8116 50.75 75.8116 49.6444C75.8116 48.3957 74.9929 48.0671 72.3904 47.5558C70.0148 47.0842 67.4953 46.285 67.4953 43.172C67.4953 40.5713 69.7075 38.6055 73.0863 38.6055C76.6081 38.6055 78.7806 40.4485 78.7806 43.233H75.6667C75.6667 41.8818 74.6229 41.0411 73.0863 41.0411C71.5302 41.0411 70.5677 41.7988 70.5677 42.9045C70.5677 44.0719 71.2432 44.5214 73.3327 44.9515C76.4245 45.6077 78.9643 45.9547 78.9643 49.3953C78.9643 52.1215 76.5887 53.9646 73.0863 53.9646C69.5229 53.9646 67.0237 51.8963 67.0237 48.7842Z" fill="#29363D"/>
</svg>
