<svg width="43" height="44" viewBox="0 0 43 44" fill="none" xmlns="http://www.w3.org/2000/svg">
<path d="M19.0175 32.4512L20.5898 28.8496C21.9893 25.6447 24.508 23.0933 27.6499 21.6987L31.978 19.7775C33.354 19.1667 33.354 17.1649 31.978 16.5541L27.785 14.6928C24.5623 13.2623 21.9984 10.6166 20.623 7.3022L19.0302 3.46408C18.4391 2.03976 16.4711 2.03977 15.8801 3.46408L14.2872 7.30217C12.9118 10.6166 10.3478 13.2623 7.12519 14.6928L2.9322 16.5541C1.55613 17.1649 1.55613 19.1667 2.9322 19.7775L7.26037 21.6987C10.4022 23.0933 12.921 25.6447 14.3203 28.8496L15.8928 32.4512C16.4972 33.8355 18.413 33.8355 19.0175 32.4512ZM34.7608 41.2202L35.203 40.2066C35.9914 38.3996 37.4113 36.9607 39.1829 36.1736L40.5452 35.5682C41.2822 35.2408 41.2822 34.17 40.5452 33.8426L39.2592 33.2711C37.4419 32.4638 35.9966 30.9717 35.2217 29.1031L34.7676 28.0079C34.4511 27.2446 33.3958 27.2446 33.0792 28.0079L32.6252 29.1031C31.8505 30.9717 30.4051 32.4638 28.5878 33.2711L27.3016 33.8426C26.5649 34.17 26.5649 35.2408 27.3016 35.5682L28.664 36.1736C30.4358 36.9607 31.8555 38.3996 32.6438 40.2066L33.0862 41.2202C33.4097 41.9621 34.4371 41.9621 34.7608 41.2202Z" fill="#FEEADD"/>
</svg>
