<svg width="265" height="338" viewBox="0 0 265 338" fill="none" xmlns="http://www.w3.org/2000/svg">
<g clip-path="url(#clip0_31094_12277)">
<path d="M81.7355 227.795C81.7355 227.795 80.9255 250.955 81.7355 254.465C82.5455 257.965 83.0855 280.865 86.5855 282.205C90.0855 283.555 113.255 289.205 114.595 277.895C115.945 266.585 107.325 264.695 107.325 264.695C107.325 264.695 97.6255 245.575 117.825 225.365C138.025 205.155 99.5955 199.505 99.5955 199.505L76.6055 210.005L81.7255 227.785L81.7355 227.795Z" fill="#F57100"/>
<path d="M44.8256 175.265C12.7756 185.235 1.7356 145.365 2.2756 143.485C2.8156 141.595 6.1856 143.485 6.1856 143.485C6.1856 143.485 4.4356 110.355 16.1556 103.085C20.0656 100.395 19.5256 106.455 19.5256 106.455C19.5256 106.455 30.9756 89.4854 53.0556 88.8154C75.1456 88.1454 73.5256 95.0154 73.5256 95.0154C73.5256 95.0154 82.5456 96.7654 94.1356 107.005C105.716 117.245 96.1556 115.895 96.1556 115.895C96.1556 115.895 106.126 123.845 101.276 138.655C96.4256 153.465 44.8456 175.285 44.8456 175.285L44.8256 175.265Z" fill="#FF8D1C"/>
<path d="M92.5048 127.595C92.5048 127.595 86.8448 122.345 84.8248 123.015C82.8048 123.685 86.9748 129.215 86.9748 129.215C74.7148 128.815 62.7348 137.295 62.7348 137.295C62.7348 137.295 55.8648 129.485 46.0348 137.295C36.2048 145.105 51.1548 156.285 51.1548 156.285C51.1548 156.285 53.2448 164.145 55.2248 170.575C70.5548 163.345 97.7948 149.215 101.255 138.645C102.645 134.385 102.815 130.695 102.345 127.595C97.9948 126.755 92.4948 127.595 92.4948 127.595H92.5048Z" fill="#F57100"/>
<path d="M69.8051 90.7053C66.9351 89.4753 61.8951 88.5353 53.0451 88.8053C30.9551 89.4753 19.5151 106.445 19.5151 106.445C19.5151 106.445 20.0551 100.385 16.1451 103.075C4.42515 110.345 6.17515 143.475 6.17515 143.475C6.17515 143.475 2.80515 141.585 2.26515 143.475C1.84515 144.925 8.32515 168.975 26.0151 175.325C17.9151 169.315 11.5551 151.455 14.0851 149.945C16.6151 148.425 19.2351 150.555 19.2351 150.555C19.2351 150.555 16.3051 131.765 17.4151 130.355C18.5251 128.945 19.3351 130.355 19.3351 130.355C19.3351 130.355 20.1451 117.125 24.1851 111.165C28.2251 105.205 31.3551 104.395 31.2551 106.315C31.2551 106.315 46.0251 88.9353 69.8051 90.7053Z" fill="white"/>
<path d="M198.235 47.2154C198.235 47.2154 197.825 27.4254 201.965 26.0154C206.105 24.6054 216.405 37.0254 224.895 51.3654C233.385 65.7054 242.875 95.8854 242.875 96.8154C242.875 97.7454 242.235 98.5554 242.235 98.5554C242.235 98.5554 242.875 98.5554 243.075 99.5354C243.475 101.455 240.485 105.815 240.485 105.815C240.485 105.815 241.985 105.815 242.125 107.085C242.265 108.355 235.395 119.255 232.435 122.465C232.435 122.465 241.185 160.715 239.305 184.415C237.415 208.115 240.115 250.675 241.725 266.565C243.345 282.455 249.265 296.865 249.265 296.865C249.265 296.865 258.825 298.215 259.365 308.585C259.905 318.955 257.745 322.325 241.185 322.055C224.615 321.785 222.595 315.055 217.485 296.065C212.365 277.075 204.285 243.945 200.385 240.985C196.475 238.025 181.125 238.695 175.605 240.985C170.085 243.275 164.165 299.215 162.005 313.765C164.635 316.725 164.005 326.135 163.125 328.595C161.035 334.395 155.405 335.905 144.475 335.985C133.565 336.065 127.625 334.795 126.145 329.405C124.665 324.015 125.795 315.105 128.745 311.405C130.565 311.205 128.655 219.135 93.7249 202.555C89.4849 203.565 83.6849 239.435 62.4749 249.535C51.7649 256.205 50.7549 279.635 52.1749 286.305C57.6249 288.525 63.2849 290.545 61.4649 303.275C59.6449 316.005 41.2649 312.565 32.7749 313.175C24.2949 313.785 22.0649 295.195 23.4849 289.135C24.9049 283.075 20.0649 261.255 23.0949 254.995C23.3949 254.375 23.7049 253.685 24.0249 252.935C28.1749 243.195 29.8249 232.595 29.0649 222.035C27.7749 204.025 28.7449 170.805 49.9549 151.295C80.1249 123.555 125.645 135.195 125.645 135.195C125.645 135.195 123.475 132.795 125.515 132.045C126.915 131.535 130.765 131.365 130.765 131.365C130.765 131.365 136.215 124.715 133.455 121.895C131.205 119.605 130.385 118.305 130.505 117.785C130.805 116.375 133.235 116.065 133.235 116.065C133.235 116.065 126.725 111.085 125.915 107.855C125.105 104.625 127.425 103.995 127.425 103.995C127.425 103.995 124.695 104.145 125.925 99.8454C126.865 96.0854 138.855 43.2654 163.095 25.8954C174.675 20.6554 170.635 48.1254 170.635 48.1254C170.635 48.1254 183.405 45.5954 198.245 47.2054L198.235 47.2154Z" fill="#FF8D1C"/>
<path d="M159.575 124.595L157.015 122.475C157.015 122.475 139.035 107.425 142.875 96.2153C146.715 85.0053 155.535 89.9453 158.325 90.6553C161.115 91.3653 165.985 92.7853 169.555 92.6753C176.115 92.4753 177.775 80.9453 176.495 75.7053C175.485 71.5653 166.205 73.2753 161.755 72.8753C157.315 72.4753 153.275 69.8453 153.375 64.4953C153.475 59.1453 157.315 59.5453 158.725 60.9553C160.135 62.3653 156.845 68.0653 165.635 67.4653C174.425 66.8553 180.805 66.7553 184.215 74.3953C184.215 74.3953 187.005 67.2953 192.805 67.0253C198.595 66.7553 208.525 68.2053 209.065 65.2353C209.605 62.2753 208.185 60.1153 211.285 59.7853C214.385 59.4453 215.575 67.4153 214.305 69.4153C213.045 71.4153 209.535 73.5953 202.865 72.7853C196.195 71.9753 192.295 72.3153 192.025 76.3553C191.755 80.3953 192.905 89.4853 196.945 91.3053C200.985 93.1253 209.185 90.6253 214.655 90.4653C220.125 90.3053 222.395 91.5753 224.555 95.7453C226.595 99.7053 220.715 118.185 208.475 124.835C204.805 126.825 202.615 130.815 202.795 134.985C203.315 147.115 216.945 164.405 216.745 179.595C216.475 199.255 193.385 218.925 183.655 218.655C173.925 218.385 151.025 199.515 151.025 176.875C151.025 160.565 170.495 135.455 159.585 124.605L159.575 124.595Z" fill="white"/>
<path d="M176.305 106.375C176.305 106.375 178.815 113.605 185.515 112.935C192.215 112.265 193.175 105.905 193.175 105.905C193.175 105.905 187.175 108.265 184.925 103.885C184.925 103.885 183.885 108.325 176.305 106.375Z" fill="#4F2305"/>
<path d="M202.745 80.7554C206.695 81.3554 206.535 88.3154 202.745 88.3154C198.955 88.3154 197.195 79.9054 202.745 80.7554Z" fill="#4F2305"/>
<path d="M167.105 80.7554C163.155 81.3554 163.315 88.3154 167.105 88.3154C170.895 88.3154 172.655 79.9054 167.105 80.7554Z" fill="#4F2305"/>
<path d="M184.925 88.5954C192.955 88.5554 194.395 90.3954 193.155 92.4254C191.915 94.4554 186.575 99.2154 184.925 99.2154C183.275 99.2154 178.835 95.1154 177.185 93.1554C175.535 91.1954 175.285 88.6454 184.925 88.5954Z" fill="#4F2305"/>
<path d="M187.105 98.1954C184.925 99.2154 185.105 106.215 190.545 105.765C194.655 105.215 193.445 102.575 195.065 102.545C196.755 102.515 195.925 107.215 190.755 107.845C185.595 108.475 184.905 105.095 184.905 105.095V96.3054L187.105 98.2154V98.1954Z" fill="#4F2305"/>
<path d="M182.725 98.1954C184.905 99.2154 184.725 106.215 179.285 105.765C175.175 105.215 176.385 102.575 174.765 102.545C173.075 102.515 173.905 107.215 179.075 107.845C184.235 108.475 184.925 105.095 184.925 105.095V96.3054L182.725 98.2154V98.1954Z" fill="#4F2305"/>
<path d="M133.445 121.895C133.445 121.895 131.705 122.645 131.705 125.415C131.705 131.545 153.615 148.405 185.945 148.445C218.875 148.485 233.695 131.015 234.835 127.945C235.845 125.215 234.225 122.445 232.445 122.485C229.885 122.545 219.125 140.525 185.035 140.525C150.945 140.525 135.365 120.095 133.455 121.905L133.445 121.895Z" fill="#A149FA"/>
<path d="M187.455 167.605C194.618 167.605 200.425 161.978 200.425 155.035C200.425 148.093 194.618 142.465 187.455 142.465C180.292 142.465 174.485 148.093 174.485 155.035C174.485 161.978 180.292 167.605 187.455 167.605Z" fill="#A149FA"/>
<path d="M194.756 152.955L186.386 161.325C185.756 161.955 184.746 161.955 184.116 161.325L178.706 155.915C178.316 155.525 178.316 154.885 178.706 154.495L179.956 153.245C180.346 152.855 180.986 152.855 181.376 153.245L185.246 157.115L192.076 150.285C192.466 149.895 193.106 149.895 193.496 150.285L194.746 151.535C195.136 151.925 195.136 152.565 194.746 152.955H194.756Z" fill="white"/>
<path d="M203.375 48.2954C202.375 37.5854 201.685 32.1354 204.695 33.1454C207.715 34.1554 215.695 48.5954 213.475 50.1154C211.255 51.6354 203.375 50.2154 203.375 48.2954Z" fill="#F57100"/>
<path d="M165.616 48.2954C166.616 37.5854 167.306 32.1354 164.296 33.1454C161.276 34.1554 153.296 48.5954 155.516 50.1154C157.736 51.6354 165.616 50.2154 165.616 48.2954Z" fill="#F57100"/>
<path d="M161.705 288.795C159.955 288.365 156.855 290.705 156.855 290.705C156.855 290.705 156.725 286.395 155.505 286.925C154.295 287.455 153.485 290.025 153.485 290.025C140.555 287.595 128.855 290.025 128.855 290.025C128.745 290.035 128.635 290.065 128.515 290.095C129.505 302.625 129.305 311.355 128.745 311.415C125.795 315.115 124.665 324.025 126.145 329.415C127.625 334.805 133.565 336.075 144.475 335.995C155.405 335.915 161.035 334.405 163.125 328.605C164.015 326.145 164.635 316.735 162.005 313.775C162.605 309.705 163.505 302.395 164.605 293.935C163.125 293.515 161.695 293.145 161.695 293.145C161.695 293.145 163.445 289.235 161.695 288.805L161.705 288.795Z" fill="white"/>
<path d="M241.215 322.065C257.785 322.335 259.935 318.965 259.395 308.595C258.855 298.225 249.295 296.875 249.295 296.875C249.295 296.875 246.665 290.465 244.425 281.485C241.485 281.385 238.995 281.415 238.995 281.415C238.995 281.415 239.095 280.205 237.375 280.205C235.655 280.205 234.745 282.125 234.745 282.125C234.745 282.125 232.625 278.995 231.715 279.395C230.805 279.795 231.715 282.725 231.715 282.725C225.255 282.825 215.315 287.805 215.315 287.805C216.085 290.735 216.825 293.525 217.505 296.065C222.625 315.055 224.645 321.785 241.205 322.055L241.215 322.065Z" fill="white"/>
<path d="M50.7249 257.785C50.7249 257.785 50.1149 254.655 49.0049 254.855C47.8949 255.055 47.6949 256.805 47.6949 256.805C38.4049 256.135 27.0549 244.175 27.0549 244.175C26.2649 247.155 25.2749 250.085 24.0549 252.935C23.7349 253.685 23.4249 254.385 23.1249 254.995C20.1049 261.255 24.9349 283.075 23.5149 289.135C22.1049 295.195 24.3249 313.785 32.8049 313.175C41.2849 312.565 59.6749 316.005 61.4949 303.275C63.3149 290.545 57.6549 288.525 52.2049 286.305C51.1949 281.555 51.4249 268.305 55.5049 258.665C51.9449 259.255 50.7249 257.785 50.7249 257.785Z" fill="white"/>
<path d="M107.346 264.695C107.346 264.695 104.066 258.225 105.296 248.845C102.526 249.285 100.176 249.005 100.176 249.005C100.176 249.005 98.2855 247.485 95.5655 247.095C92.8355 246.705 92.8355 248.415 92.8355 248.415C92.8355 248.415 90.3055 247.075 89.5055 247.095C88.6955 247.105 88.9955 248.395 88.9955 248.395C84.5555 248.695 81.3955 245.775 81.3955 245.765C81.3955 249.815 81.4755 253.265 81.7555 254.455C82.5655 257.955 83.1055 280.855 86.6055 282.195C90.1055 283.545 113.276 289.195 114.616 277.885C115.966 266.575 107.346 264.685 107.346 264.685V264.695Z" fill="white"/>
<path d="M203.405 48.2954C202.405 37.5854 201.715 32.1354 204.725 33.1454C207.745 34.1554 215.725 48.5954 213.505 50.1154C211.285 51.6354 203.405 50.2154 203.405 48.2954Z" fill="#F57100"/>
<path d="M165.645 48.2954C166.645 37.5854 167.335 32.1354 164.325 33.1454C161.305 34.1554 153.325 48.5954 155.545 50.1154C157.765 51.6354 165.645 50.2154 165.645 48.2954Z" fill="#F57100"/>
<path d="M110.235 269.765C111.345 270.725 114.755 275.775 112.215 282.305C113.075 281.605 113.755 280.745 114.175 279.675C114.275 278.585 114.295 277.265 114.145 275.745C113.685 271.105 109.125 268.805 110.235 269.765Z" fill="#FFEBDC"/>
<path d="M251.105 41.2953C241.765 48.0953 224.345 46.7753 224.345 46.7753C224.345 46.7753 224.745 26.0153 216.005 11.2653C204.925 -7.45469 198.195 11.3253 185.435 11.7953C172.655 11.3253 164.945 -7.45469 153.865 11.2653C145.125 26.0153 145.525 46.7753 145.525 46.7753C145.525 46.7753 128.095 48.0953 118.765 41.2953C109.425 34.4953 100.835 42.3853 112.765 62.7853C124.585 83.0153 166.505 76.0853 185.445 75.9653C204.365 76.0853 245.295 83.0153 257.125 62.7853C269.055 42.3853 260.465 34.4953 251.125 41.2953H251.105Z" fill="#7C492D"/>
<path d="M253.115 40.0553C252.455 40.3953 251.785 40.8053 251.105 41.2953C241.765 48.0953 224.345 46.7753 224.345 46.7753C207.355 66.3653 185.115 57.8153 184.945 57.7753C184.765 57.8253 162.515 66.3753 145.525 46.7753C145.525 46.7753 128.095 48.0953 118.765 41.2953C118.085 40.8053 117.415 40.3953 116.755 40.0553C111.585 40.8453 110.525 46.9953 116.225 58.1853C123.875 73.2053 169.005 60.6953 185.435 60.4553C201.845 60.6953 245.995 73.2053 253.645 58.1853C259.345 46.9853 258.285 40.8353 253.115 40.0553Z" fill="#966042"/>
<path d="M184.614 18.7753L190.044 29.0153L201.454 31.0153L193.394 39.3453L195.024 50.8153L184.614 45.7253L174.204 50.8153L175.824 39.3453L167.774 31.0153L179.184 29.0153L184.614 18.7753Z" fill="#FF8D1C"/>
<path d="M184.614 21.4753C186.105 21.4753 187.314 20.2665 187.314 18.7753C187.314 17.2841 186.105 16.0753 184.614 16.0753C183.123 16.0753 181.914 17.2841 181.914 18.7753C181.914 20.2665 183.123 21.4753 184.614 21.4753Z" fill="#FF8D1C"/>
<path d="M194.994 53.5154C196.485 53.5154 197.694 52.3065 197.694 50.8154C197.694 49.3242 196.485 48.1154 194.994 48.1154C193.503 48.1154 192.294 49.3242 192.294 50.8154C192.294 52.3065 193.503 53.5154 194.994 53.5154Z" fill="#F57100"/>
<path d="M201.454 33.6053C202.945 33.6053 204.154 32.3965 204.154 30.9053C204.154 29.4142 202.945 28.2053 201.454 28.2053C199.963 28.2053 198.754 29.4142 198.754 30.9053C198.754 32.3965 199.963 33.6053 201.454 33.6053Z" fill="#FF8D1C"/>
<path d="M168.394 33.6053C169.886 33.6053 171.094 32.3965 171.094 30.9053C171.094 29.4142 169.886 28.2053 168.394 28.2053C166.903 28.2053 165.694 29.4142 165.694 30.9053C165.694 32.3965 166.903 33.6053 168.394 33.6053Z" fill="#FF8D1C"/>
<path d="M174.224 53.5154C175.716 53.5154 176.924 52.3065 176.924 50.8154C176.924 49.3242 175.716 48.1154 174.224 48.1154C172.733 48.1154 171.524 49.3242 171.524 50.8154C171.524 52.3065 172.733 53.5154 174.224 53.5154Z" fill="#FF8D1C"/>
<path d="M175.824 39.3453L175.224 43.5853L194.694 29.8253L190.044 29.0153L187.894 24.9753L173.294 36.7253L175.824 39.3453Z" fill="#F57100"/>
<path d="M195.025 50.8153L193.755 41.8253L187.595 47.1853L195.025 50.8153Z" fill="#F57100"/>
<path d="M206.045 2.98535C209.135 2.98535 212.325 5.07535 215.995 11.2654C224.735 26.0154 224.335 46.7754 224.335 46.7754C224.335 46.7754 225.695 46.8754 227.855 46.8754C233.435 46.8754 244.365 46.1954 251.105 41.2854C251.435 41.0453 251.775 40.8254 252.105 40.6154C252.125 40.6054 252.145 40.5953 252.165 40.5854C252.485 40.3853 252.805 40.2154 253.115 40.0454C254.605 39.2754 256.035 38.9053 257.325 38.9053C263.355 38.9053 266.225 47.1854 257.105 62.7754C252.905 69.9654 245.015 73.7154 235.755 75.5654C239.815 86.4154 242.875 96.2954 242.875 96.8154C242.875 97.7554 242.235 98.5554 242.235 98.5554C242.235 98.5554 242.875 98.5554 243.075 99.5354C243.475 101.455 240.485 105.815 240.485 105.815C240.485 105.815 241.985 105.815 242.125 107.085C242.265 108.355 235.395 119.255 232.435 122.465C232.445 122.465 232.465 122.465 232.475 122.465C234.245 122.465 235.835 125.225 234.825 127.925C234.695 128.275 234.385 128.805 233.905 129.475C236.315 141.615 240.695 166.955 239.305 184.415C237.415 208.115 240.115 250.675 241.725 266.565C243.345 282.455 249.265 296.865 249.265 296.865C249.265 296.865 258.825 298.215 259.365 308.585C259.885 318.575 257.905 322.065 242.935 322.065C242.365 322.065 241.785 322.065 241.185 322.055C224.615 321.785 222.595 315.055 217.485 296.065C212.365 277.075 204.285 243.945 200.385 240.985C198.555 239.595 194.215 239.005 189.555 239.005C184.255 239.005 178.545 239.765 175.605 240.985C170.085 243.275 164.165 299.215 162.005 313.765C164.635 316.725 164.005 326.135 163.125 328.595C161.035 334.395 155.405 335.905 144.475 335.985C144.165 335.985 143.855 335.985 143.545 335.985C133.225 335.985 127.575 334.635 126.145 329.405C124.665 324.015 125.795 315.105 128.745 311.405C130.085 311.255 129.405 261.355 115.025 228.395C98.6051 247.435 107.325 264.685 107.325 264.685C107.325 264.685 115.945 266.575 114.595 277.885C113.955 283.255 108.405 284.805 102.375 284.805C95.6951 284.805 88.4251 282.905 86.5851 282.195C83.0851 280.845 82.5451 257.955 81.7351 254.455C81.0051 251.275 81.5951 231.915 81.7151 228.355C77.2451 236.965 71.1551 245.405 62.4751 249.545C51.7651 256.215 50.7551 279.645 52.1751 286.315C57.6251 288.535 63.2851 290.555 61.4651 303.285C60.1951 312.195 50.8051 313.185 42.3751 313.185C39.9651 313.185 37.6351 313.105 35.5951 313.105C34.5751 313.105 33.6251 313.125 32.7751 313.185C32.6351 313.185 32.5051 313.195 32.3751 313.195C24.2251 313.195 22.0951 295.105 23.4851 289.145C24.8951 283.085 20.0651 261.265 23.0851 255.005C23.3851 254.385 23.6951 253.695 24.0151 252.945C32.1851 237.935 28.2051 223.795 28.9551 207.285C29.5751 193.665 31.9551 181.715 33.8951 176.855C10.2151 175.985 1.78509 145.145 2.26509 143.495C2.44509 142.865 2.93509 142.655 3.51509 142.655C4.67509 142.655 6.16509 143.495 6.16509 143.495C6.16509 143.495 4.41509 110.365 16.1351 103.095C16.8451 102.605 17.4051 102.405 17.8551 102.405C19.8651 102.405 19.5051 106.465 19.5051 106.465C19.5051 106.465 30.9551 89.4953 53.0351 88.8253C54.0651 88.7953 55.0451 88.7754 55.9751 88.7754C74.9651 88.7754 73.5051 95.0154 73.5051 95.0154C73.5051 95.0154 82.5251 96.7654 94.1151 107.005C103.285 115.105 99.2051 115.955 97.1051 115.955C96.5551 115.955 96.1351 115.895 96.1351 115.895C96.1351 115.895 103.475 121.755 102.485 132.795C102.655 132.795 102.815 132.795 102.985 132.795C116.155 132.795 125.645 135.215 125.645 135.215C125.645 135.215 123.475 132.815 125.515 132.065C126.915 131.555 130.765 131.385 130.765 131.385C130.765 131.385 131.855 130.045 132.815 128.325C132.095 127.225 131.715 126.235 131.715 125.435C131.715 122.665 133.455 121.915 133.455 121.915C131.205 119.625 130.385 118.325 130.505 117.805C130.805 116.395 133.235 116.085 133.235 116.085C133.235 116.085 126.725 111.105 125.915 107.875C125.105 104.645 127.425 104.015 127.425 104.015C127.425 104.015 127.415 104.015 127.395 104.015C127.085 104.015 124.785 103.885 125.925 99.8653C126.315 98.2953 128.665 87.8654 132.985 75.3554C124.215 73.4254 116.795 69.6954 112.765 62.7954C103.645 47.1954 106.515 38.9254 112.545 38.9254C113.835 38.9254 115.265 39.3054 116.755 40.0654C117.075 40.2254 117.385 40.4053 117.705 40.6054C117.725 40.6153 117.745 40.6254 117.765 40.6454C118.095 40.8554 118.425 41.0654 118.765 41.3154C125.495 46.2154 136.435 46.9053 142.015 46.9053C144.175 46.9053 145.535 46.8054 145.535 46.8054C145.535 46.8054 145.135 26.0454 153.875 11.2954C157.545 5.09535 160.735 3.01535 163.825 3.01535C170.185 3.01535 176.125 11.8454 184.925 11.8454H184.975C193.775 11.8454 199.705 3.01535 206.075 3.01535M206.045 0.985352C202.525 0.985352 199.415 3.03535 196.125 5.19535C192.675 7.46535 189.105 9.81535 184.955 9.81535C180.805 9.81535 177.185 7.46535 173.735 5.19535C170.435 3.03535 167.325 0.985352 163.805 0.985352C159.585 0.985352 155.875 3.92535 152.135 10.2454C144.695 22.8054 143.655 39.2354 143.525 44.8554C143.085 44.8653 142.565 44.8754 141.995 44.8754C137.505 44.8754 126.375 44.3653 119.925 39.6754C119.585 39.4254 119.215 39.1853 118.805 38.9254L118.775 38.9053L118.715 38.8654C118.385 38.6654 118.015 38.4553 117.645 38.2654C115.885 37.3653 114.155 36.9053 112.525 36.9053C109.785 36.9053 107.545 38.1854 106.215 40.5054C104.585 43.3454 103.045 50.1354 111.025 63.7854C114.705 70.0753 121.045 74.3354 130.375 76.7654C128.045 83.7153 125.955 91.0754 124.135 98.6754C124.065 98.9654 124.015 99.1853 123.975 99.3354C123.385 101.415 123.485 103.085 124.255 104.295C123.745 105.305 123.535 106.655 123.965 108.345C124.575 110.795 127.365 113.675 129.535 115.605C129.055 116.075 128.695 116.655 128.545 117.365C128.325 118.375 128.645 119.535 130.675 121.855C130.125 122.715 129.705 123.895 129.705 125.415C129.705 126.295 129.965 127.255 130.485 128.285C130.205 128.725 129.935 129.115 129.715 129.415C128.355 129.505 126.035 129.715 124.815 130.165C123.335 130.705 122.865 131.785 122.725 132.375C122.715 132.425 122.705 132.475 122.695 132.525C118.985 131.835 112.545 130.895 104.585 130.785C104.605 124.505 102.175 119.965 100.135 117.255C101.035 116.745 101.445 116.035 101.635 115.535C102.545 113.135 100.695 110.125 95.4451 105.485C86.1751 97.2953 78.4651 94.3454 75.3551 93.4154C75.1851 92.8454 74.8851 92.1954 74.3651 91.5354C71.8551 88.3654 65.6751 86.7553 55.9951 86.7553C55.0351 86.7553 54.0251 86.7754 52.9951 86.8054C36.2051 87.3154 25.3851 96.6853 20.6351 101.905C20.5351 101.745 20.4151 101.595 20.2851 101.455C19.6551 100.765 18.8051 100.395 17.8751 100.395C16.9451 100.395 16.0651 100.725 15.0651 101.415C4.55509 107.995 3.97509 132.215 4.10509 140.695C3.91509 140.675 3.72509 140.655 3.53509 140.655C1.97509 140.655 0.765086 141.535 0.355086 142.945C-0.184914 144.845 2.79509 155.475 9.32509 164.465C15.2851 172.675 22.7951 177.525 31.1951 178.635C29.3751 184.685 27.5051 195.465 26.9751 207.195C26.7551 211.955 26.9251 216.505 27.0951 220.895C27.4951 231.605 27.8651 241.715 22.2751 251.985L22.2251 252.065L22.1851 252.155C21.8651 252.905 21.5651 253.565 21.2951 254.135C19.3151 258.235 20.1751 266.975 20.9951 275.425C21.5251 280.835 22.0651 286.425 21.5451 288.695C20.4351 293.455 21.2851 305.855 26.0151 311.815C27.7751 314.035 29.9751 315.205 32.3851 315.205C32.5651 315.205 32.7451 315.205 32.9351 315.185C33.6551 315.135 34.5051 315.105 35.6051 315.105C36.5751 315.105 37.6051 315.125 38.6751 315.145C39.8651 315.165 41.1151 315.185 42.3751 315.185C48.1851 315.185 61.7851 315.185 63.4451 303.565C65.3651 290.145 59.2451 287.055 53.9551 284.875C52.9251 277.475 54.4351 257.035 63.4451 251.295C69.4451 248.405 74.7351 243.425 79.4951 236.155C79.3251 243.645 79.2551 252.615 79.7851 254.915C79.9751 255.755 80.1951 258.445 80.4351 261.295C81.6651 276.365 82.6951 282.855 85.8651 284.075C87.6951 284.775 95.2951 286.815 102.375 286.815C113.265 286.815 116.115 282.095 116.585 278.135C117.705 268.685 112.445 264.335 108.775 263.045C107.465 259.825 103.415 246.995 114.465 232.285C126.485 262.445 127.955 305.215 127.025 310.375C123.575 314.945 122.685 324.395 124.215 329.955C126.055 336.655 132.975 338.005 143.545 338.005C143.855 338.005 144.165 338.005 144.485 338.005C155.515 337.925 162.415 336.475 165.005 329.295C165.885 326.865 166.795 317.595 164.105 313.275C164.505 310.465 165.025 306.415 165.615 301.795C166.945 291.375 168.775 277.095 170.785 265.165C173.905 246.655 175.875 243.385 176.475 242.815C179.105 241.765 184.455 241.035 189.555 241.035C195.135 241.035 198.225 241.885 199.175 242.605C201.955 244.955 208.995 271.725 212.775 286.095C213.765 289.865 214.705 293.435 215.565 296.615C220.595 315.275 222.885 323.795 241.165 324.085C241.775 324.095 242.375 324.105 242.955 324.105C251.515 324.105 256.095 322.965 258.735 320.185C261.295 317.485 261.645 313.575 261.385 308.515C260.935 299.905 254.785 296.195 250.755 295.155C249.435 291.675 245.065 279.465 243.735 266.395C241.985 249.225 239.485 207.595 241.315 184.605C242.675 167.535 238.675 143.365 236.045 129.945C236.355 129.455 236.585 129.025 236.725 128.655C237.495 126.585 237.225 124.235 236.035 122.515C235.885 122.295 235.715 122.085 235.535 121.895C237.055 119.905 238.795 117.295 240.155 115.145C244.315 108.545 244.205 107.515 244.135 106.895C244.055 106.155 243.765 105.545 243.345 105.075C244.365 103.275 245.425 100.885 245.055 99.1454C244.975 98.7654 244.845 98.4254 244.695 98.1354C244.815 97.7454 244.895 97.3054 244.895 96.8253C244.895 95.6954 241.615 85.6753 238.445 77.0453C248.345 74.6753 255.035 70.3253 258.845 63.8054C266.815 50.1654 265.275 43.3654 263.645 40.5254C262.315 38.2054 260.065 36.9254 257.335 36.9254C255.695 36.9254 253.975 37.3853 252.215 38.2854C251.845 38.4753 251.475 38.6854 251.125 38.8954L251.065 38.9354C250.645 39.1954 250.285 39.4354 249.945 39.6854C243.495 44.3854 232.365 44.8854 227.875 44.8854C227.305 44.8854 226.785 44.8854 226.345 44.8654C226.215 39.2454 225.175 22.8154 217.735 10.2554C213.975 3.92535 210.265 0.985352 206.045 0.985352Z" fill="#4F2305"/>
</g>
<defs>
<clipPath id="clip0_31094_12277">
<rect width="264.66" height="337.01" fill="white" transform="translate(0.285156 0.985352)"/>
</clipPath>
</defs>
</svg>
