<svg width="294" height="325" viewBox="0 0 294 325" fill="none" xmlns="http://www.w3.org/2000/svg">
<g clip-path="url(#clip0_10133_2393)">
<g clip-path="url(#clip1_10133_2393)">
<path d="M128.64 189.604C128.64 189.604 119.45 221.694 144.43 234.444C144.43 234.444 117.06 229.394 111.48 244.274C105.9 259.154 127.69 254.374 140.71 253.974C153.73 253.574 201.78 254.144 200.29 246.934C198.8 239.724 208.33 241.104 227.32 240.314C246.3 239.524 243.86 175.714 213.23 167.714C182.6 159.714 138.48 158.664 128.65 189.594L128.64 189.604Z" fill="#F57100"/>
<path d="M239.56 194.353C271.61 204.323 291.56 159.643 291.02 157.763C290.48 155.873 287.11 157.763 287.11 157.763C287.11 157.763 288.86 124.633 277.14 117.363C273.23 114.673 273.77 120.733 273.77 120.733C273.77 120.733 262.32 103.763 240.24 103.093C218.15 102.423 219.77 109.293 219.77 109.293C219.77 109.293 210.75 111.043 199.16 121.283C187.58 131.523 197.14 130.173 197.14 130.173C197.14 130.173 187.17 138.123 192.02 152.933C196.87 167.743 239.55 194.373 239.55 194.373L239.56 194.353Z" fill="#FF923F"/>
<path d="M222.47 105.475C219.31 107.225 219.78 109.275 219.78 109.275C219.78 109.275 210.76 111.025 199.17 121.265C187.59 131.505 197.15 130.155 197.15 130.155C197.15 130.155 187.18 138.105 192.03 152.915C196.88 167.725 239.56 194.355 239.56 194.355C263.21 201.705 280.26 179.325 287.37 166.315C285.63 158.775 281.31 151.725 274 146.325C266.13 140.515 252.38 132.655 230.84 128.415C233.36 121.765 230.57 111.635 222.46 105.465L222.47 105.475Z" fill="#F57100"/>
<path d="M223.49 104.974C226.36 103.744 231.4 102.804 240.25 103.074C262.34 103.744 273.78 120.714 273.78 120.714C273.78 120.714 273.24 114.654 277.15 117.344C288.87 124.614 287.12 157.744 287.12 157.744C287.12 157.744 290.49 155.854 291.03 157.744C291.45 159.194 284.97 183.244 267.28 189.594C275.38 183.584 281.74 165.724 279.21 164.214C276.68 162.694 274.06 164.824 274.06 164.824C274.06 164.824 276.99 146.034 275.88 144.624C274.77 143.214 273.96 144.624 273.96 144.624C273.96 144.624 273.15 131.394 269.11 125.434C265.07 119.474 261.94 118.664 262.04 120.584C262.04 120.584 247.27 103.204 223.49 104.974Z" fill="white"/>
<path d="M58.8304 40.9965C58.8304 40.9965 33.3904 38.7165 27.0804 44.3365C20.7704 49.9565 44.3904 70.4165 49.7804 70.8365C55.1704 71.2465 71.0804 43.9465 58.8304 40.9965Z" fill="#F57100"/>
<path d="M280.431 190.365C280.091 188.985 279.701 187.625 279.271 186.305C279.261 186.255 279.241 186.215 279.231 186.165C271.371 162.115 249.791 147.925 223.681 137.355C188.601 123.155 170.321 90.545 155.291 64.675C121.761 45.365 63.5309 124.065 88.8009 167.755C114.081 211.445 172.571 199.165 181.961 217.595C196.321 245.465 219.461 255.585 239.901 253.785C243.741 257.905 248.611 260.305 254.031 259.955C280.871 258.205 295.881 245.925 280.431 190.365Z" fill="#FF923F"/>
<path d="M239.891 253.777C243.731 257.897 248.601 260.297 254.021 259.947C272.261 258.757 285.031 252.697 286.501 231.497C282.751 244.927 257.261 228.637 257.261 228.637C257.261 228.637 259.051 230.557 256.171 231.207C253.291 231.857 251.731 231.207 251.731 231.207C251.731 231.207 256.291 235.597 250.171 236.317C244.051 237.037 240.131 233.247 240.131 233.247C240.131 233.247 215.221 246.057 190.701 231.207C204.741 248.777 223.211 255.257 239.891 253.787V253.777Z" fill="#F57100"/>
<path d="M286.521 223.036C286.461 221.866 286.361 220.666 286.251 219.426C286.201 220.416 286.281 221.606 286.521 223.036Z" fill="#F57100"/>
<path d="M115.62 182.076C115.62 182.076 119.5 219.646 100.93 218.446C82.3603 217.246 77.6203 209.326 77.6203 209.326C77.6203 209.326 85.9003 236.706 71.0503 239.076C56.1903 241.446 44.4003 237.296 42.6803 213.756C40.9603 190.216 47.9203 183.076 60.7803 182.076C73.6403 181.086 78.8203 183.856 78.8203 183.856C78.8203 183.856 76.9803 143.476 84.3603 125.596C91.7403 107.706 114.02 148.046 115.63 182.076H115.62Z" fill="#FF923F"/>
<path d="M92.33 21.6463C68.4 24.0863 45.9 47.0763 43.04 66.2463C40.18 85.4163 55.03 119.256 60.35 119.176C61.82 119.156 63.88 118.236 63.88 118.236C63.88 118.236 62.62 121.906 64.45 122.016C66.28 122.126 81.02 126.376 81.02 126.376C81.02 126.376 78.81 124.446 95.97 124.446C114.14 124.446 149.73 99.8863 155.28 64.6663C149.16 50.3063 116.25 19.2163 92.33 21.6463Z" fill="#FF923F"/>
<path d="M88.6003 56.714C93.4403 54.254 91.4603 44.334 88.6003 44.024C85.7403 43.704 84.1403 46.214 84.3903 47.514C84.9303 50.224 88.0503 50.884 79.5003 54.854C70.5303 59.024 58.9103 63.294 58.9403 70.844C58.9403 70.844 55.8703 68.054 51.5103 70.844C48.5903 72.714 45.1603 76.644 43.0703 77.874C43.2803 79.664 43.5703 81.494 43.9203 83.324C46.7503 81.004 51.0003 77.714 52.7903 77.424C55.5903 76.964 58.3703 86.434 59.2703 93.944C60.1703 101.454 75.8703 87.074 75.8703 87.074C66.6203 84.194 64.7303 77.564 64.1203 74.164C62.9103 67.444 83.7403 59.174 88.5803 56.714H88.6003Z" fill="white"/>
<path d="M69.0698 37.6158C69.0698 37.6158 67.2898 7.49584 73.7198 2.79584C80.1498 -1.90416 94.0798 16.6558 98.7498 23.7558C103.41 30.8558 70.5198 47.6658 69.0798 37.6158H69.0698Z" fill="#FF923F"/>
<path d="M84.5492 31.6646C87.4692 28.0746 77.8392 11.0346 75.1692 10.4446C72.4992 9.84462 71.6992 33.9346 73.4892 35.4946C75.2792 37.0546 81.6292 35.2646 84.5492 31.6746V31.6646Z" fill="#F57100"/>
<path d="M64.2309 88.555C72.8909 82.255 83.8309 87.955 88.9809 86.295C94.1309 84.635 101.041 71.135 108.781 70.045C116.521 68.965 123.531 87.525 120.671 102.165C118.001 115.845 111.741 121.995 101.671 124.935C91.6008 127.875 68.3108 126.905 55.2808 109.345C53.1608 104.135 60.4708 103.985 60.1808 101.445C59.8908 98.905 59.1909 92.225 64.2309 88.555Z" fill="white"/>
<path d="M56.2207 78.5677C73.5207 65.8777 90.0007 58.6077 92.3307 59.1277C94.6607 59.6477 106.691 79.0277 91.9107 86.5977C77.1307 94.1677 64.7107 81.7977 64.7107 81.7977L61.5407 84.0477C61.5407 84.0477 68.0407 102.848 59.8807 108.708C56.9907 110.778 46.3407 101.218 43.0507 95.2077C42.0807 92.8577 48.6307 84.1677 56.2307 78.5777L56.2207 78.5677Z" fill="#49250D"/>
<path d="M69.0312 77.5595C74.0712 84.8795 85.1512 83.6195 90.3812 80.5995C95.6112 77.5695 93.1112 66.6395 90.1412 65.4295C87.5212 64.3695 66.7012 74.9995 69.0312 77.5595Z" fill="#BA90FF"/>
<path d="M79.7203 78.1675C83.3803 76.5575 86.9803 82.5075 83.7803 84.5475C80.5803 86.5875 74.5803 80.4275 79.7203 78.1675Z" fill="#49250D"/>
<path d="M55.7606 86.5282C57.5606 89.4782 59.7406 101.138 56.6706 103.398C54.5406 104.958 47.6706 97.2882 47.3906 95.1982C47.1106 93.1082 54.4806 84.4282 55.7706 86.5282H55.7606Z" fill="#BA90FF"/>
<path d="M52.3807 94.1871C49.3707 96.8171 53.2407 102.607 56.4407 100.567C59.6407 98.5271 56.6107 90.4871 52.3807 94.1871Z" fill="#49250D"/>
<path d="M66.5513 88.7863C62.7813 90.4063 58.1713 93.6763 56.1213 95.6563C51.1413 100.456 53.0013 110.336 59.7013 115.396C86.7513 135.836 80.2913 101.766 80.2913 101.766C80.2913 101.766 101.241 79.7263 96.0413 83.5163C92.6913 85.9563 87.0613 87.7163 83.8813 88.1263C76.8913 89.0363 72.6913 86.1463 66.5613 88.7863H66.5513Z" fill="white"/>
<path d="M55.1309 110.008C63.7009 126.258 82.5209 126.058 99.7409 126.218L55.1309 110.008Z" fill="white"/>
<path d="M62.1714 95.2149C68.9214 90.8649 71.1214 91.6549 71.1714 94.0249C71.2114 96.3949 69.2714 103.295 67.8814 104.175C66.4914 105.055 60.5414 103.985 58.0914 103.215C55.6414 102.445 54.0714 100.425 62.1714 95.2149Z" fill="white"/>
<path d="M69.7917 118.004C69.6317 117.064 68.1817 109.554 69.9017 107.354C71.6217 105.154 83.4717 108.044 85.5517 108.604C87.6317 109.164 86.6317 111.184 85.2917 110.944C80.7917 110.124 71.9717 108.724 71.4817 109.124C70.8017 109.684 71.7817 116.694 71.8117 118.184C71.8317 119.284 70.0517 119.554 69.7917 118.004Z" fill="white"/>
<path d="M69.602 101.026C68.542 103.826 70.512 106.516 72.362 106.546C74.212 106.576 71.162 108.736 71.162 108.736C71.162 108.736 68.962 112.846 69.092 110.286C69.222 107.726 67.282 104.716 65.032 104.476C62.782 104.236 67.402 97.6762 69.602 101.016V101.026Z" fill="white"/>
<path d="M62.4707 94.6159C69.2307 90.8759 71.3707 91.7859 71.1407 94.1759C70.9207 96.5259 68.2807 102.906 66.8807 103.536C65.4807 104.166 60.3607 102.386 58.3807 101.416C56.4007 100.446 55.3207 98.5659 62.4707 94.6159Z" fill="#49250D"/>
<path d="M68.5509 101.177C67.0509 103.317 70.9209 110.037 76.0909 107.037C80.2209 104.357 77.4109 102.237 79.1809 101.297C81.0709 100.287 82.7809 105.797 77.4409 109.037C72.5709 111.997 70.1309 109.037 70.1309 109.037L65.4609 100.457L68.5509 101.177Z" fill="#49250D"/>
<path d="M64.5107 103.425C67.0307 103.325 70.5607 110.205 65.4007 112.095C61.6707 113.245 61.3507 110.385 60.0207 111.025C58.6707 111.675 61.6407 115.485 66.2707 114.085C71.2807 112.575 70.1607 109.025 70.1607 109.025L65.4907 100.445L64.5107 103.425Z" fill="#49250D"/>
<path d="M156.87 101.938C156.87 101.938 181.12 145.157 179.23 168.857C177.34 192.557 182.43 218.267 184.04 234.167C185.66 250.057 191.58 264.468 191.58 264.468C191.58 264.468 201.14 265.818 201.68 276.188C202.22 286.558 200.06 289.927 183.5 289.657C166.93 289.387 164.91 282.658 159.8 263.667C154.68 244.677 146.6 211.547 142.7 208.587C138.79 205.627 122.67 196.237 117.92 194.137C117.92 194.137 130.36 112.228 156.87 101.948V101.938Z" fill="#FF923F"/>
<path d="M183.541 289.647C200.111 289.917 202.261 286.547 201.721 276.177C201.181 265.807 191.621 264.457 191.621 264.457C191.621 264.457 188.991 258.047 186.751 249.067C183.811 248.967 181.321 248.997 181.321 248.997C181.321 248.997 181.421 247.787 179.701 247.787C177.981 247.787 177.071 249.707 177.071 249.707C177.071 249.707 174.951 246.577 174.041 246.977C173.131 247.377 174.041 250.307 174.041 250.307C167.581 250.407 157.641 255.387 157.641 255.387C158.411 258.317 159.151 261.107 159.831 263.647C164.951 282.637 166.971 289.367 183.531 289.637L183.541 289.647Z" fill="white"/>
<path d="M239.07 239.086C268.74 239.836 276.47 252.066 275.83 260.946C275.63 263.676 258.43 265.976 255.69 265.976C255.69 265.976 216.38 267.526 208.61 265.806C200.83 264.086 209.42 238.336 239.08 239.086H239.07Z" fill="white"/>
<path d="M79.19 205.376C79.19 205.376 83.7 206.266 83.76 203.716C83.82 201.166 80.32 199.226 80.32 199.226C80.32 199.226 84.31 198.116 83.7 196.676C83.09 195.236 77.55 195.126 77.55 195.126C77.55 195.126 77.18 185.296 59.69 182.176C47.53 183.486 41.01 190.886 42.68 213.746C44.4 237.276 56.19 241.436 71.05 239.066C85.91 236.696 77.62 209.316 77.62 209.316C79.53 207.666 79.19 205.366 79.19 205.366V205.376Z" fill="white"/>
<path d="M120.371 103.595C115.311 123.455 120.551 136.005 125.351 141.085C142.071 158.765 138.991 192.115 130.841 197.495C122.741 202.835 100.991 179.785 97.8311 163.505C94.1311 144.455 102.231 129.235 88.7111 125.465C75.1911 121.695 118.641 87.6346 120.371 103.595Z" fill="white"/>
<path d="M130.611 36.9648C161.331 58.1648 151.471 58.1248 151.471 58.1248C151.471 58.1248 155.531 59.6348 157.791 61.6648C160.051 63.6948 155.281 64.6548 155.281 64.6548" fill="#FF923F"/>
<path d="M163.481 74.1141C162.601 71.3441 159.621 70.1441 158.231 71.2741C156.251 72.8941 158.811 93.6941 131.921 114.644C118.211 125.324 103.091 126.644 93.4108 127.894C91.3408 128.134 93.6307 134.304 96.7107 135.204C108.641 135.214 123.071 131.564 137.511 120.334C163.511 100.124 164.461 77.2441 163.471 74.1141H163.481Z" fill="#944EEF"/>
<path d="M90.35 144.475C90.19 150.375 94.53 155.545 100.63 155.995C107.5 156.505 113.73 150.955 113.73 143.665C113.73 136.375 107.68 131.615 100.98 132.545C95.01 133.375 90.51 138.655 90.35 144.475Z" fill="#944EEF"/>
<path d="M107.739 141.816L99.7791 149.996C99.2191 150.566 98.3391 150.546 97.8091 149.956L93.5091 145.126C93.2091 144.796 93.2291 144.236 93.5391 143.886L94.5491 142.746C94.8691 142.386 95.3791 142.356 95.6891 142.686L98.8491 146.076L105.139 139.376C105.519 138.966 106.139 138.926 106.519 139.276L107.749 140.416C108.139 140.776 108.139 141.406 107.749 141.816H107.739Z" fill="white"/>
<path d="M76.0801 2.04688C82.3901 2.04688 92.3301 14.5169 97.2801 21.6169C108.13 22.4269 120.21 28.9169 130.61 36.9769C161.23 58.0969 151.54 58.1369 151.47 58.1369C151.47 58.1369 155.53 59.6469 157.79 61.6769C160.05 63.7169 155.28 64.6669 155.28 64.6669C156.47 66.7169 157.69 68.8169 158.93 70.9469C159.12 70.8969 159.33 70.8669 159.54 70.8669C161 70.8669 162.82 72.0469 163.48 74.1169C163.7 74.8069 163.82 76.4569 163.6 78.8369C172.72 93.9269 183.55 109.717 198.32 122.027C198.59 121.777 198.87 121.527 199.17 121.267C210.75 111.027 219.78 109.277 219.78 109.277C219.78 109.277 219.21 106.817 223.49 104.977C223.49 104.977 223.49 104.977 223.5 104.977C223.81 104.847 224.14 104.717 224.5 104.597C224.57 104.577 224.63 104.547 224.71 104.527C224.86 104.477 225.01 104.437 225.16 104.387C225.26 104.357 225.37 104.327 225.48 104.297C225.63 104.257 225.79 104.217 225.94 104.167C226.07 104.137 226.2 104.097 226.34 104.067C226.49 104.027 226.65 103.997 226.81 103.957C227 103.917 227.21 103.877 227.41 103.837C227.62 103.797 227.84 103.757 228.06 103.717C228.28 103.677 228.51 103.637 228.74 103.607C228.89 103.587 229.05 103.557 229.21 103.537C229.43 103.507 229.66 103.477 229.89 103.447C230.06 103.427 230.22 103.407 230.4 103.387C230.66 103.357 230.92 103.337 231.19 103.307C231.35 103.297 231.5 103.277 231.67 103.267C232.1 103.227 232.54 103.197 233 103.167C233.04 103.167 233.09 103.167 233.13 103.167C233.57 103.137 234.02 103.117 234.48 103.107C234.64 103.107 234.81 103.107 234.98 103.097C235.34 103.087 235.7 103.077 236.08 103.077C236.27 103.077 236.47 103.077 236.66 103.077C236.84 103.077 237.03 103.077 237.22 103.077C237.43 103.077 237.64 103.077 237.85 103.077C238.04 103.077 238.22 103.077 238.41 103.077C239 103.077 239.61 103.097 240.24 103.117C240.93 103.137 241.61 103.177 242.28 103.227C255.66 104.267 264.88 111.247 269.74 116.087C269.74 116.087 269.74 116.087 269.75 116.097C272.42 118.757 273.77 120.757 273.78 120.757C273.78 120.757 273.78 120.737 273.78 120.697C273.78 120.697 273.78 120.697 273.78 120.677C273.75 120.217 273.64 117.807 274.64 116.977C274.74 116.897 274.85 116.827 274.98 116.777C275.12 116.727 275.27 116.697 275.43 116.697C275.88 116.697 276.44 116.897 277.15 117.387C283.74 121.477 286.07 133.747 286.85 143.707C286.98 145.367 287.07 146.957 287.12 148.447C287.16 149.437 287.18 150.387 287.19 151.257C287.2 152.127 287.21 152.927 287.2 153.657C287.2 156.207 287.11 157.797 287.11 157.797C287.11 157.797 288.61 156.957 289.76 156.957C289.8 156.957 289.83 156.957 289.87 156.957C290.01 156.957 290.15 156.987 290.27 157.027C290.43 157.077 290.57 157.137 290.69 157.247C290.83 157.377 290.95 157.557 291.01 157.787C291.31 158.947 287.59 173.217 277.94 182.717C278.39 183.847 278.82 184.997 279.21 186.177C279.22 186.227 279.24 186.267 279.25 186.317C279.68 187.637 280.06 188.997 280.41 190.377C291.14 228.967 287.17 246.677 274.74 254.477C275.65 256.697 275.95 258.917 275.8 260.957C275.6 263.687 258.4 265.987 255.66 265.987C255.66 265.987 239.37 266.627 225.69 266.627C218.12 266.627 211.35 266.427 208.58 265.817C204.12 264.837 205.05 255.957 212.23 248.697C208.74 247.027 205.32 244.937 202.02 242.397C200.41 243.297 199.81 244.707 200.27 246.947C200.79 249.447 195.36 251.007 187.51 251.997C189.54 259.407 191.61 264.467 191.61 264.467C191.61 264.467 201.17 265.817 201.71 276.187C202.23 286.177 200.25 289.667 185.28 289.667C185.19 289.667 185.11 289.667 185.02 289.667C184.53 289.667 184.02 289.667 183.5 289.657C166.93 289.387 164.91 282.657 159.8 263.667C158.99 260.647 158.1 257.267 157.16 253.707C150.24 253.847 144.2 253.887 140.7 253.987C135.42 254.147 128.71 255.027 122.95 255.027C114.51 255.027 108.15 253.127 111.47 244.277C114.79 235.417 125.85 233.617 134.25 233.617C139.95 233.617 144.42 234.437 144.42 234.437C128.09 226.097 126.37 209.497 127.13 199.007C123.77 197.097 120.68 195.427 118.72 194.487C118.45 194.367 118.18 194.237 117.92 194.117C117.24 193.787 116.57 193.457 115.9 193.107C115.52 203.817 112.95 218.477 101.79 218.477C101.51 218.477 101.22 218.477 100.93 218.447C82.3601 217.247 77.6201 209.327 77.6201 209.327C77.6201 209.327 79.6901 216.167 79.9001 223.307C79.9501 225.097 79.9001 226.897 79.6501 228.617C78.9301 233.777 76.6101 238.177 71.0401 239.067C70.1101 239.217 69.1901 239.337 68.2901 239.427C67.8401 239.477 67.3901 239.517 66.9501 239.547C66.0601 239.607 65.1901 239.647 64.3301 239.647H64.2901C60.4401 239.647 56.9201 238.977 53.8901 237.347C53.2101 236.987 52.5601 236.577 51.9301 236.117C51.6201 235.887 51.3101 235.647 51.0101 235.387C46.5001 231.547 43.4801 224.777 42.6801 213.747C42.6801 213.747 42.6801 213.727 42.6801 213.717C42.6301 212.997 42.5801 212.297 42.5501 211.617C42.5401 211.377 42.5301 211.157 42.5201 210.917C42.5001 210.467 42.4801 210.017 42.4601 209.577C42.4601 209.307 42.4501 209.037 42.4401 208.767C42.4401 208.387 42.4201 207.997 42.4201 207.627C42.4201 207.347 42.4201 207.077 42.4201 206.797C42.4201 206.457 42.4201 206.107 42.4201 205.767C42.4201 205.487 42.4401 205.217 42.4501 204.947C42.4601 204.627 42.4701 204.307 42.4801 203.997C42.4901 203.727 42.5101 203.457 42.5301 203.197C42.5501 202.897 42.5601 202.597 42.5901 202.307C42.6101 202.047 42.6401 201.787 42.6601 201.527C42.6901 201.247 42.7101 200.967 42.7401 200.697C42.7701 200.447 42.8001 200.197 42.8301 199.947C42.8601 199.687 42.9001 199.427 42.9301 199.177C42.9701 198.927 43.0101 198.697 43.0501 198.457C43.0901 198.217 43.1301 197.967 43.1801 197.737C43.2301 197.507 43.2701 197.277 43.3201 197.047C43.3701 196.817 43.4101 196.597 43.4701 196.377C43.5201 196.147 43.5801 195.927 43.6401 195.707C43.6901 195.497 43.7501 195.287 43.8101 195.077C43.8701 194.857 43.9401 194.657 44.0001 194.447C44.0601 194.247 44.1201 194.057 44.1901 193.857C44.2601 193.657 44.3301 193.457 44.4001 193.257C44.4701 193.077 44.5301 192.887 44.6101 192.717C44.6901 192.527 44.7701 192.337 44.8501 192.147C44.9201 191.977 45.0001 191.807 45.0701 191.647C45.1601 191.467 45.2401 191.287 45.3301 191.107C45.4101 190.947 45.4901 190.787 45.5701 190.637C45.6601 190.467 45.7601 190.297 45.8601 190.127C45.9501 189.977 46.0301 189.837 46.1201 189.697C46.2201 189.537 46.3301 189.377 46.4301 189.217C46.5201 189.087 46.6101 188.947 46.7001 188.817C46.8101 188.667 46.9201 188.507 47.0401 188.367C47.1401 188.247 47.2301 188.127 47.3301 188.007C47.4501 187.867 47.5701 187.717 47.6901 187.587C47.7901 187.477 47.8901 187.367 47.9901 187.257C48.1201 187.127 48.2501 186.987 48.3801 186.857C48.4801 186.757 48.5901 186.657 48.7001 186.557C48.8401 186.427 48.9801 186.307 49.1201 186.187C49.2301 186.097 49.3401 186.007 49.4501 185.917C49.6001 185.797 49.7401 185.687 49.8901 185.577C50.0001 185.497 50.1201 185.417 50.2301 185.337C50.3901 185.227 50.5401 185.127 50.7001 185.017C50.8101 184.947 50.9301 184.877 51.0501 184.807C51.2201 184.707 51.3801 184.607 51.5501 184.517C51.6701 184.457 51.7801 184.397 51.9001 184.337C52.0801 184.247 52.2601 184.157 52.4401 184.067C52.5601 184.017 52.6801 183.957 52.7901 183.907C52.9801 183.827 53.1701 183.737 53.3601 183.667C53.4801 183.617 53.5901 183.577 53.7101 183.537C53.9101 183.457 54.1101 183.387 54.3201 183.317C54.4301 183.277 54.5501 183.247 54.6601 183.207C54.8801 183.137 55.0901 183.067 55.3101 183.007C55.4201 182.977 55.5301 182.947 55.6401 182.917C55.8701 182.857 56.1101 182.797 56.3501 182.737C56.4501 182.717 56.5501 182.697 56.6501 182.677C56.9101 182.617 57.1601 182.567 57.4201 182.517C57.5001 182.507 57.5801 182.487 57.6701 182.477C57.9501 182.427 58.2401 182.377 58.5301 182.337C58.5801 182.337 58.6401 182.327 58.6901 182.317C59.3601 182.227 60.0501 182.147 60.7601 182.087C62.7101 181.937 64.4801 181.877 66.0901 181.877C75.0701 181.877 78.8001 183.867 78.8001 183.867C78.8001 183.867 76.9701 143.667 84.2901 125.727C82.4001 125.467 75.9601 124.647 75.9601 124.647C75.9601 124.647 66.2701 122.137 64.4401 122.027C63.6001 121.977 63.4101 121.167 63.4501 120.317C62.8601 119.917 62.2901 119.477 61.7201 118.977C61.2501 119.097 60.7701 119.177 60.3301 119.187C60.3301 119.187 60.3201 119.187 60.3101 119.187C57.9601 119.187 53.7601 112.617 50.0501 103.637C47.1501 100.967 44.4101 97.7669 43.0101 95.2069C42.6001 94.2169 43.5401 92.0969 45.3101 89.5569C43.2601 81.7669 42.1401 73.7369 42.8901 67.2269C34.2801 60.9969 22.3301 48.5569 27.0401 44.3569C30.5301 41.2469 39.8301 40.5569 47.4801 40.5569C51.2101 40.5569 54.5401 40.7269 56.6101 40.8569C60.2001 37.0069 64.3301 33.4769 68.8201 30.5069C68.7301 21.2969 69.2601 6.04688 73.6801 2.81687C74.3901 2.29688 75.1901 2.06687 76.0501 2.06687M76.0501 0.066875C74.7301 0.066875 73.5301 0.446875 72.5001 1.20687C68.6401 4.02688 66.7301 13.5269 66.8101 29.4569C62.8501 32.1569 59.1501 35.2969 55.7901 38.8069C53.6601 38.6869 50.7201 38.5669 47.4701 38.5669C36.2401 38.5669 28.9101 40.0169 25.7001 42.8769C24.4801 43.9669 23.8901 45.4669 23.9701 47.2269C24.2901 53.5969 34.0801 63.1269 40.7701 68.1769C40.1801 75.3469 41.6501 83.3569 43.1301 89.1969C40.5001 93.1869 40.7201 94.9769 41.1401 95.9869L41.1801 96.0869L41.2301 96.1769C42.6301 98.7269 45.2701 101.937 48.3401 104.817C50.9701 111.127 55.8701 121.197 60.2801 121.197H60.3401C60.5901 121.197 60.8601 121.167 61.1401 121.127C61.2501 121.217 61.3701 121.307 61.4901 121.397C61.8001 123.207 63.1101 123.957 64.2901 124.027C65.4201 124.097 71.4901 125.567 75.4401 126.587L75.5601 126.617L75.6901 126.637C75.6901 126.637 78.9901 127.057 81.5301 127.377C76.1301 143.467 76.4201 171.807 76.6801 181.027C74.4801 180.457 71.0301 179.877 66.0701 179.877C64.3301 179.877 62.4801 179.947 60.5801 180.097C59.8601 180.157 59.1401 180.227 58.3901 180.337L58.2201 180.357C57.9101 180.397 57.6101 180.457 57.3001 180.507H57.2101L57.0401 180.547C56.7501 180.597 56.4801 180.657 56.2001 180.717L56.1001 180.737L55.8801 180.787C55.6201 180.847 55.3601 180.917 55.1101 180.987L55.0101 181.017C54.9301 181.037 54.8401 181.057 54.7601 181.087C54.5201 181.157 54.2801 181.227 54.0501 181.307L53.9401 181.347C53.8501 181.377 53.7601 181.407 53.6701 181.437C53.4401 181.517 53.2201 181.597 53.0001 181.677L52.9101 181.707C52.8101 181.747 52.7101 181.787 52.6101 181.827C52.4001 181.917 52.1901 182.007 51.9801 182.097L51.9101 182.127C51.8001 182.177 51.7001 182.217 51.5901 182.267C51.3801 182.367 51.1801 182.467 50.9801 182.567L50.9101 182.597C50.8001 182.657 50.6901 182.707 50.5801 182.767C50.3901 182.867 50.2001 182.987 50.0101 183.097C49.8601 183.187 49.7401 183.257 49.6201 183.337C49.4401 183.457 49.2601 183.577 49.0801 183.697C48.9401 183.797 48.8201 183.877 48.6901 183.967C48.5201 184.097 48.3501 184.227 48.1801 184.357C48.0501 184.457 47.9301 184.557 47.8101 184.667C47.6501 184.807 47.4901 184.947 47.3401 185.087C47.2201 185.197 47.1001 185.317 46.9801 185.427C46.8301 185.577 46.6801 185.727 46.5401 185.877C46.4201 185.997 46.3101 186.127 46.1901 186.257C46.0501 186.417 45.9101 186.577 45.7801 186.737C45.6701 186.867 45.5601 187.007 45.4501 187.147C45.3201 187.317 45.1901 187.487 45.0701 187.657C44.9701 187.807 44.8601 187.947 44.7601 188.097C44.6401 188.277 44.5201 188.457 44.4101 188.637C44.3101 188.797 44.2101 188.957 44.1201 189.127C44.0101 189.307 43.9101 189.497 43.8001 189.697C43.7101 189.867 43.6201 190.037 43.5301 190.217C43.4301 190.417 43.3301 190.607 43.2401 190.817C43.1601 190.997 43.0701 191.187 42.9901 191.377C42.9001 191.587 42.8101 191.787 42.7301 191.997C42.6501 192.187 42.5801 192.387 42.5101 192.587C42.4301 192.797 42.3501 193.017 42.2801 193.237C42.2101 193.437 42.1501 193.647 42.0801 193.857C42.0101 194.097 41.9401 194.317 41.8701 194.557C41.8101 194.767 41.7601 194.977 41.7001 195.187L41.6801 195.277C41.6201 195.497 41.5701 195.717 41.5201 195.937C41.4701 196.147 41.4301 196.357 41.3801 196.567L41.3601 196.647L41.3401 196.747C41.3001 196.957 41.2501 197.167 41.2101 197.387C41.1701 197.597 41.1301 197.817 41.1001 198.027L41.0801 198.147L41.0601 198.287C41.0301 198.497 40.9901 198.697 40.9601 198.907C40.9301 199.127 40.9001 199.347 40.8701 199.577L40.8501 199.717L40.8301 199.877C40.8001 200.077 40.7801 200.287 40.7501 200.497C40.7201 200.727 40.7001 200.957 40.6801 201.197L40.6601 201.367L40.6401 201.567C40.6201 201.767 40.6001 201.967 40.5901 202.167C40.5701 202.407 40.5601 202.647 40.5401 202.887V203.087L40.5101 203.307C40.5001 203.507 40.4801 203.707 40.4701 203.917C40.4601 204.167 40.4501 204.427 40.4401 204.677V204.897L40.4201 205.157C40.4201 205.357 40.4101 205.547 40.4001 205.747C40.4001 206.017 40.4001 206.297 40.4001 206.567V206.797V207.067C40.4001 207.257 40.4001 207.447 40.4001 207.647C40.4001 207.947 40.4001 208.267 40.4201 208.577V208.817L40.4301 209.097C40.4301 209.277 40.4301 209.457 40.4401 209.637C40.4501 210.027 40.4701 210.427 40.4901 210.827V211.007L40.5101 211.277C40.5101 211.427 40.5201 211.567 40.5301 211.727C40.5701 212.427 40.6101 213.137 40.6601 213.867C41.4601 224.897 44.4201 232.427 49.6901 236.917C50.0201 237.197 50.3701 237.477 50.7201 237.737C51.4101 238.247 52.1501 238.707 52.9201 239.117C56.1101 240.817 59.8201 241.647 64.2701 241.647C65.2001 241.647 66.1301 241.607 67.0701 241.537C67.5301 241.507 68.0001 241.457 68.4801 241.417C69.4001 241.317 70.3601 241.197 71.3401 241.037C75.3401 240.397 80.3701 237.777 81.6101 228.887C81.8501 227.177 81.9401 225.277 81.8801 223.247C81.7901 220.267 81.4001 217.357 80.9501 214.937C84.7101 217.297 90.9301 219.807 100.78 220.447C101.12 220.467 101.45 220.477 101.77 220.477C105.79 220.477 111.31 218.757 114.71 210.577C116.28 206.797 117.29 201.987 117.71 196.237L117.85 196.307C119.45 197.077 121.98 198.427 125.03 200.147C124.6 208.837 125.96 222.447 136.65 231.677C135.87 231.647 135.06 231.627 134.22 231.627C121.03 231.627 112.5 235.757 109.57 243.577C108.14 247.397 108.22 250.497 109.81 252.797C112.41 256.547 118.18 257.027 122.92 257.027C126.29 257.027 129.92 256.737 133.43 256.457C136.04 256.247 138.51 256.047 140.72 255.987C142.63 255.927 145.34 255.887 148.48 255.847C150.65 255.817 153.05 255.787 155.59 255.737C156.38 258.737 157.13 261.597 157.83 264.187C162.86 282.847 165.15 291.367 183.43 291.657C183.96 291.657 184.48 291.667 184.98 291.667H185.25C193.81 291.667 198.39 290.527 201.03 287.747C203.59 285.047 203.94 281.137 203.68 276.077C203.23 267.467 197.08 263.757 193.05 262.717C192.46 261.177 191.28 257.917 190.03 253.657C198.41 252.387 200.62 250.727 201.58 249.387C202.2 248.527 202.41 247.537 202.21 246.537C202.06 245.837 202.07 245.357 202.17 245.017C204.37 246.607 206.65 248.037 208.98 249.297C204.96 254.207 203.02 259.957 204.19 263.907C204.8 265.967 206.2 267.337 208.13 267.767C210.74 268.347 216.48 268.627 225.68 268.627C238.94 268.627 254.83 268.017 255.69 267.987C257.25 267.977 262.28 267.397 267.06 266.457C275.76 264.747 277.64 263.077 277.79 261.097C277.93 259.167 277.71 257.177 277.14 255.267C283.47 250.737 287.11 243.827 288.24 234.197C289.53 223.277 287.6 208.777 282.34 189.857C281.99 188.437 281.59 187.047 281.16 185.717V185.687L281.13 185.607L280.67 184.027H280.58C280.48 183.757 280.38 183.477 280.27 183.187C285.1 178.097 288.23 172.127 290.05 167.897C291.31 164.957 293.1 159.877 293.01 157.737V157.387L292.9 157.127C292.73 156.577 292.43 156.117 292.02 155.747C291.69 155.457 291.3 155.237 290.85 155.097C290.55 155.007 290.26 154.957 289.96 154.937C289.89 154.937 289.83 154.937 289.76 154.937C289.57 154.937 289.38 154.947 289.19 154.977C289.19 154.567 289.19 154.127 289.2 153.647C289.2 152.907 289.2 152.097 289.18 151.207C289.17 150.317 289.14 149.357 289.1 148.347C289.04 146.707 288.95 145.087 288.82 143.527C287.67 128.737 284.1 119.367 278.22 115.687C277.22 115.007 276.3 114.667 275.41 114.667C275 114.667 274.61 114.737 274.25 114.877C273.92 114.997 273.62 115.177 273.35 115.397C273.07 115.627 272.84 115.897 272.64 116.187C272.2 115.697 271.7 115.177 271.15 114.637C265.56 109.077 256.05 102.247 242.42 101.187C241.72 101.137 241 101.097 240.29 101.077C239.65 101.057 239.03 101.047 238.42 101.037H238.01H237.85H237.21H236.64H236.04C235.65 101.047 235.28 101.057 234.91 101.067H234.75L234.4 101.077C233.92 101.097 233.46 101.117 233.01 101.147H232.87C232.4 101.187 231.94 101.217 231.49 101.257L231.14 101.287H230.99C230.71 101.327 230.43 101.357 230.17 101.387C229.99 101.407 229.82 101.427 229.64 101.447C229.39 101.477 229.16 101.507 228.92 101.547H228.83C228.69 101.577 228.55 101.597 228.42 101.617C228.17 101.657 227.94 101.697 227.7 101.737C227.46 101.777 227.23 101.817 227 101.867C226.76 101.917 226.55 101.957 226.36 101.997C226.22 102.027 226.08 102.057 225.94 102.097L225.85 102.117C225.7 102.157 225.56 102.187 225.42 102.227C225.24 102.277 225.08 102.317 224.91 102.367C224.79 102.397 224.67 102.437 224.56 102.467C224.39 102.517 224.22 102.567 224.06 102.627L223.89 102.687L223.83 102.707C223.42 102.847 223.07 102.987 222.74 103.117L222.7 103.137C219.7 104.427 218.39 106.187 217.94 107.687C214.88 108.607 207.37 111.467 198.29 119.367C184.09 107.137 173.84 91.8569 165.65 78.3469C165.8 76.2569 165.71 74.5169 165.39 73.5069C164.5 70.6869 162.12 69.1169 160.05 68.8869C159.43 67.8269 158.82 66.7769 158.22 65.7369C159.06 65.2969 159.85 64.6569 160.2 63.7369C160.42 63.1569 160.76 61.6569 159.12 60.1769C157.91 59.0869 156.29 58.1469 154.92 57.4669C155.26 55.6169 154 53.3769 150.9 50.2769C147.2 46.5669 140.76 41.5369 131.76 35.3369C129.29 33.4269 125.99 31.0469 122.17 28.7169L118.73 26.3369L119.37 27.0769C113.09 23.5569 105.72 20.4569 98.3801 19.6969C93.7901 13.2169 83.5401 0.046875 76.0901 0.046875L76.0501 0.066875Z" fill="#49250D"/>
<path d="M52.7897 214.715C120.54 227.985 121.95 239.525 120.53 275.025C120.53 275.025 154.57 280.415 155.28 289.215C155.98 298.015 128.17 318.695 110.58 323.495C92.6797 328.385 17.2197 314.595 6.62974 291.805C-3.96026 269.015 0.0197415 224.645 5.49974 214.335C10.9397 204.075 29.9197 210.235 52.7997 214.715H52.7897Z" fill="#BA90FF"/>
<path d="M120.391 277.969C120.211 298.569 120.531 307.009 120.531 307.009C120.531 307.009 141.841 293.239 144.361 287.629C146.891 282.019 120.391 277.969 120.391 277.969Z" fill="#944EEF"/>
<path d="M54.5306 255.966C78.8406 258.396 77.3106 289.736 54.5306 284.836C31.7506 279.936 38.6406 254.376 54.5306 255.966Z" fill="#944EEF"/>
<path d="M55.6603 266.846C61.9303 267.476 61.5303 275.556 55.6603 274.286C49.7903 273.026 51.5603 266.436 55.6603 266.846Z" fill="#BA90FF"/>
<path d="M63.9807 255.046C70.2507 255.676 69.8507 263.756 63.9807 262.486C58.1107 261.226 59.8807 254.636 63.9807 255.046Z" fill="#BA90FF"/>
<path d="M73.09 265.866C79.36 266.496 78.96 274.576 73.09 273.306C67.22 272.046 68.99 265.456 73.09 265.866Z" fill="#BA90FF"/>
<path d="M67.9204 257.876C77.6604 258.846 77.0504 271.406 67.9204 269.446C58.7904 267.486 61.5504 257.236 67.9204 257.876Z" fill="#BA90FF"/>
<path d="M69.0809 262.218C72.9009 262.598 72.6609 267.518 69.0809 266.748C65.5009 265.978 66.5809 261.968 69.0809 262.218Z" fill="#944EEF"/>
<path d="M74.3091 268.658C72.1791 268.448 72.3191 265.698 74.3091 266.128C76.2991 266.558 75.6991 268.798 74.3091 268.658Z" fill="#944EEF"/>
</g>
</g>
<defs>
<clipPath id="clip0_10133_2393">
<rect width="293.03" height="324.43" fill="white"/>
</clipPath>
<clipPath id="clip1_10133_2393">
<rect width="293.03" height="324.43" fill="white" transform="translate(0 0.046875)"/>
</clipPath>
</defs>
</svg>
