<svg width="113" height="24" viewBox="0 0 113 24" fill="none" xmlns="http://www.w3.org/2000/svg">
<path d="M39.5489 13.7849L38.8811 15.677H38.8254C38.7141 15.2504 38.5101 14.6011 38.1762 13.822L34.5959 4.82495H31.0898V19.1645H33.4087V10.3159C33.4087 9.7594 33.4087 9.12868 33.3901 8.34956C33.3716 7.95999 33.3345 7.66319 33.3159 7.44058H33.3716C33.4829 7.9971 33.6127 8.40521 33.7055 8.66492L38.0092 19.1274H39.6416L43.9083 8.57216C44.001 8.33101 44.0938 7.84869 44.1865 7.44058H44.2422C44.1865 8.49796 44.1494 9.44404 44.1309 10.0191V19.1089H46.5981V4.78785H43.2219L39.5489 13.7849ZM48.9355 8.83187H51.347V19.1089H48.9355V8.83187ZM50.1598 4.49104C49.7517 4.49104 49.4178 4.63945 49.1395 4.89915C48.8613 5.15886 48.7129 5.49277 48.7129 5.90088C48.7129 6.29044 48.8613 6.62435 49.1395 6.88406C49.4178 7.14377 49.7517 7.27362 50.1598 7.27362C50.5679 7.27362 50.9204 7.12522 51.1801 6.88406C51.4583 6.62435 51.6068 6.29044 51.6068 5.90088C51.6068 5.51132 51.4583 5.17741 51.1801 4.89915C50.9389 4.63945 50.5865 4.49104 50.1598 4.49104ZM59.8988 8.73912C59.4536 8.64636 58.9899 8.59071 58.5447 8.59071C57.4502 8.59071 56.4484 8.83187 55.6137 9.31419C54.7789 9.7965 54.1111 10.4643 53.6844 11.2991C53.2392 12.1524 53.0166 13.1356 53.0166 14.2672C53.0166 15.2504 53.2392 16.1222 53.6659 16.9199C54.0925 17.699 54.6861 18.3298 55.4838 18.7564C56.2444 19.1831 57.1348 19.4057 58.1365 19.4057C59.2867 19.4057 60.2699 19.1645 61.049 18.7193L61.0675 18.7008V16.4747L60.9748 16.5489C60.6223 16.8086 60.2142 17.0312 59.8061 17.1611C59.3794 17.3095 58.9899 17.3837 58.656 17.3837C57.6913 17.3837 56.9308 17.1054 56.3928 16.4932C55.8363 15.8996 55.558 15.0834 55.558 14.0631C55.558 13.0057 55.8363 12.171 56.4113 11.5588C56.9864 10.9466 57.747 10.6313 58.6745 10.6313C59.4536 10.6313 60.2513 10.891 60.9748 11.4104L61.0675 11.4846V9.12868L61.049 9.11013C60.7336 8.98027 60.3812 8.83187 59.8988 8.73912ZM67.857 8.66492C67.2634 8.66492 66.7069 8.85042 66.2246 9.23998C65.8165 9.57389 65.5382 10.0562 65.2971 10.6313H65.2785V8.83187H62.8669V19.1089H65.2785V13.8591C65.2785 12.9686 65.464 12.2266 65.8721 11.6887C66.2802 11.1321 66.7997 10.8539 67.4304 10.8539C67.653 10.8539 67.8756 10.9095 68.1538 10.9466C68.4136 11.0208 68.5991 11.095 68.7289 11.1878L68.8217 11.262V8.85042L68.766 8.83187C68.5991 8.72057 68.2651 8.66492 67.857 8.66492ZM74.4239 8.60926C72.7358 8.60926 71.3816 9.11013 70.4356 10.0933C69.4709 11.0765 69.0072 12.4307 69.0072 14.1373C69.0072 15.7327 69.4895 17.0312 70.417 17.9773C71.3445 18.9048 72.606 19.3871 74.1828 19.3871C75.8338 19.3871 77.1509 18.8863 78.0969 17.8845C79.0616 16.8828 79.5253 15.5472 79.5253 13.8962C79.5253 12.2637 79.0801 10.9652 78.1711 10.0191C77.2993 9.07303 76.0193 8.60926 74.4239 8.60926ZM76.3532 16.5118C75.908 17.0869 75.2031 17.3651 74.3312 17.3651C73.4593 17.3651 72.7544 17.0869 72.2535 16.4747C71.7527 15.8996 71.5115 15.0649 71.5115 14.0075C71.5115 12.913 71.7712 12.0782 72.2535 11.4846C72.7544 10.891 73.4408 10.5942 74.3126 10.5942C75.166 10.5942 75.8338 10.8724 76.3161 11.4475C76.7984 12.0226 77.0581 12.8573 77.0581 13.9518C77.021 15.0649 76.817 15.9367 76.3532 16.5118ZM84.905 13.0985C84.1444 12.7831 83.6621 12.542 83.4395 12.3379C83.254 12.1524 83.1612 11.8927 83.1612 11.5588C83.1612 11.2805 83.2725 11.0023 83.5508 10.8168C83.8291 10.6313 84.1444 10.5385 84.6082 10.5385C85.0163 10.5385 85.443 10.6127 85.8511 10.724C86.2592 10.8353 86.6302 11.0023 86.927 11.2249L87.0198 11.2991V9.03593L86.9641 9.01738C86.6858 8.90607 86.3148 8.79477 85.8696 8.70202C85.4244 8.62781 85.0163 8.59071 84.6824 8.59071C83.5323 8.59071 82.5862 8.86897 81.8442 9.48114C81.1021 10.0562 80.7497 10.8353 80.7497 11.7443C80.7497 12.2266 80.8239 12.6533 80.9908 13.0057C81.1578 13.3582 81.3989 13.6921 81.7329 13.9704C82.0668 14.2301 82.5491 14.5269 83.2169 14.8051C83.7734 15.0463 84.2001 15.2318 84.4598 15.3802C84.7195 15.5286 84.8864 15.6956 85.0163 15.8254C85.109 15.9738 85.1647 16.1593 85.1647 16.4005C85.1647 17.0869 84.6453 17.4208 83.5879 17.4208C83.1798 17.4208 82.7531 17.3466 82.2523 17.1796C81.7514 17.0127 81.2876 16.7715 80.8981 16.4932L80.8053 16.419V18.775L80.861 18.7935C81.2134 18.9605 81.6401 19.0718 82.1595 19.2016C82.6789 19.2944 83.1427 19.3686 83.5508 19.3686C84.7937 19.3686 85.814 19.0903 86.5374 18.4782C87.2795 17.8845 87.669 17.124 87.669 16.1408C87.669 15.4544 87.4835 14.8422 87.0754 14.3785C86.5374 13.9333 85.8696 13.4695 84.905 13.0985ZM94.0319 8.60926C92.3438 8.60926 90.9896 9.11013 90.0435 10.0933C89.0974 11.0765 88.6151 12.4307 88.6151 14.1373C88.6151 15.7327 89.0974 17.0312 90.0249 17.9773C90.9525 18.9048 92.2139 19.3871 93.7907 19.3871C95.4417 19.3871 96.7588 18.8863 97.7049 17.8845C98.6695 16.8828 99.1333 15.5472 99.1333 13.8962C99.1333 12.2637 98.6881 10.9652 97.7791 10.0191C96.9072 9.07303 95.6272 8.60926 94.0319 8.60926ZM95.9426 16.5118C95.4974 17.0869 94.7924 17.3651 93.9206 17.3651C93.0301 17.3651 92.3438 17.0869 91.8429 16.4747C91.342 15.8996 91.1009 15.0649 91.1009 14.0075C91.1009 12.913 91.3606 12.0782 91.8429 11.4846C92.3438 10.891 93.0301 10.5942 93.902 10.5942C94.7368 10.5942 95.4232 10.8724 95.9055 11.4475C96.3878 12.0226 96.6475 12.8573 96.6475 13.9518C96.6475 15.0649 96.4063 15.9367 95.9426 16.5118ZM112.026 10.8168V8.83187H109.596V5.78958L109.522 5.80813L107.221 6.4945L107.166 6.51305V8.83187H103.53V7.53333C103.53 6.93971 103.678 6.47595 103.938 6.17914C104.198 5.88233 104.587 5.73393 105.069 5.73393C105.403 5.73393 105.756 5.80813 106.145 5.97509L106.238 6.03074V3.93452L106.182 3.91597C105.849 3.80467 105.403 3.73047 104.828 3.73047C104.105 3.73047 103.474 3.89742 102.899 4.17568C102.324 4.49104 101.897 4.9177 101.582 5.49277C101.267 6.04929 101.1 6.68001 101.1 7.40348V8.83187H99.4115V10.7982H101.1V19.1089H103.53V10.8168H107.166V16.1037C107.166 18.2741 108.186 19.3686 110.227 19.3686C110.56 19.3686 110.913 19.3129 111.247 19.2573C111.599 19.1831 111.859 19.0903 112.007 19.0161L112.026 18.9976V17.0127L111.933 17.0869C111.785 17.1796 111.655 17.2538 111.432 17.3095C111.247 17.3651 111.08 17.3837 110.95 17.3837C110.468 17.3837 110.134 17.2724 109.893 16.9941C109.67 16.7344 109.559 16.3077 109.559 15.677V10.8168H112.026Z" fill="#737373"/>
<path d="M0 0H11.3715V11.3715H0V0Z" fill="#F25022"/>
<path d="M12.5586 0H23.9301V11.3715H12.5586V0Z" fill="#7FBA00"/>
<path d="M0 12.5586H11.3715V23.9301H0V12.5586Z" fill="#00A4EF"/>
<path d="M12.5586 12.5586H23.9301V23.9301H12.5586V12.5586Z" fill="#FFB900"/>
</svg>
