<svg width="125" height="38" viewBox="0 0 125 38" fill="none" xmlns="http://www.w3.org/2000/svg">
<path fill-rule="evenodd" clip-rule="evenodd" d="M20.343 0C20.0432 0.513928 19.7006 0.985028 19.2723 1.37047C18.3729 2.09854 17.2166 2.18419 16.1031 2.09854H16.0174C12.3343 2.09854 9.33635 5.09645 9.33635 8.7796V11.7347L9.20787 11.8632C7.53761 13.3193 6.8952 15.375 6.8952 17.5164C6.8952 19.9147 7.79457 22.4843 9.12222 24.6257H4.92514C3.64032 24.6257 2.69812 23.8976 2.3555 22.7841H0V23.0839C0 25.9534 2.31267 27.2382 4.83949 27.2382H10.1929L9.07939 31.3068C8.7796 32.3346 8.7796 33.491 9.29353 34.476C9.67897 35.2041 10.3214 35.7608 11.1351 35.9321C11.6919 36.0606 12.2914 36.0178 12.8482 35.8036L13.1908 35.6752L13.3621 35.9749L13.6191 36.3604C14.2187 37.1313 15.118 37.6024 16.1031 37.6024C17.0881 37.6024 17.9875 37.1313 18.5871 36.3604L18.844 35.9749L19.0153 35.6752L19.3579 35.8036C19.8719 36.0178 20.4715 36.0606 21.0282 35.9321C21.8419 35.718 22.4843 35.2041 22.8698 34.476C23.3837 33.491 23.3409 32.3346 23.0411 31.3068L21.9276 27.2382H27.281C29.8078 27.2382 32.1205 25.9534 32.1205 23.0839V22.827H29.7222C29.3795 23.9405 28.4373 24.6685 27.1525 24.6685H22.9554C24.2831 22.5272 25.1825 19.9575 25.1825 17.5592C25.1825 15.375 24.5401 13.3621 22.8698 11.906L22.827 11.8632L26.0818 9.76463C25.5679 8.3085 23.3409 6.38127 22.1417 5.73886C21.9704 5.35341 21.7563 5.0108 21.4993 4.71101L21.328 4.5397L21.4137 4.32556C21.8848 3.08357 21.071 1.19916 20.343 0Z" fill="#54476E"/>
<path fill-rule="evenodd" clip-rule="evenodd" d="M20.7722 27.2829L21.9713 31.6513C22.9135 35.1203 19.573 36.2766 18.331 33.3215C18.5451 37.7328 13.5772 37.7328 13.7913 33.3215C12.5921 36.2766 9.16596 35.1203 10.1082 31.6513L11.3073 27.2829H11.9497C13.363 27.2829 14.4765 28.0538 14.8192 29.4671H17.2603C17.6029 28.0538 18.6736 27.2829 20.1298 27.2829H20.7722ZM16.6179 5.86923C17.7314 5.86923 18.6308 6.76861 18.6308 7.88212C18.6308 8.99563 17.7314 9.895 16.6179 9.895C15.5044 9.895 14.605 8.99563 14.605 7.88212C14.605 6.76861 15.5044 5.86923 16.6179 5.86923ZM21.6715 12.2933C23.2133 13.364 24.1555 15.0343 24.1555 17.5611C24.1555 19.4883 23.5131 21.5869 22.4424 23.4284C22.1855 23.2571 21.8 23.2571 21.2861 23.1715C20.9863 23.1286 20.7293 22.8289 20.2154 22.8289C19.6587 22.8289 19.4017 23.1286 19.1019 23.1715C18.5023 23.2571 18.1169 23.2143 17.8599 23.4713C17.6886 23.6426 17.5601 23.9852 17.5173 24.2422C17.5173 24.3706 17.4745 24.5419 17.4745 24.7133V25.1844C17.0034 25.4413 16.6179 25.8696 16.3181 26.4692L16.0612 26.8974L15.8042 26.4692C15.4616 25.8268 15.0761 25.4413 14.6479 25.1415V24.6704C14.6479 24.4991 14.6479 24.3278 14.605 24.1993C14.5622 23.9424 14.4765 23.5997 14.2624 23.4284C14.0054 23.1715 13.62 23.2143 13.0204 23.1286C12.7206 23.0858 12.4637 22.786 11.9069 22.786C11.3502 22.786 11.136 23.0858 10.8362 23.1286C10.3223 23.2143 9.93685 23.2143 9.67989 23.3856C8.65203 21.544 7.9668 19.4455 7.9668 17.5183C7.9668 15.0343 8.909 13.3212 10.4508 12.2505L11.8641 11.3511C12.2067 11.137 12.2495 10.88 11.6928 10.9229L10.408 11.0513V8.73867C10.408 5.6551 12.9348 3.12829 16.0183 3.12829C16.0183 3.12829 19.5302 3.2996 20.2154 1.75781C20.8578 2.9998 20.5152 4.02766 19.8728 4.62724C20.3867 4.84138 20.815 5.39813 21.1576 6.04054C19.8728 7.88212 19.83 10.7516 21.6715 12.2933Z" fill="#AF6BD6"/>
<path fill-rule="evenodd" clip-rule="evenodd" d="M9.67989 23.4248C8.65203 21.5832 7.9668 19.4847 7.9668 17.5575C7.9668 15.0735 8.909 13.3604 10.4508 12.2897L11.8641 11.3903C12.2067 11.1762 12.2495 10.9192 11.6928 10.9621L10.408 11.0905V8.77787C10.408 6.80781 11.4358 5.09472 12.9776 4.06686C10.9219 6.46519 12.121 10.4481 14.1768 11.476C9.16596 14.5596 10.7077 18.9279 12.9776 23.125C12.6778 23.0822 12.4208 22.8252 11.9069 22.8252C11.3502 22.8252 11.136 23.125 10.8362 23.1678C10.3223 23.2535 9.93685 23.2535 9.67989 23.4248ZM20.2154 1.83984C20.8578 3.08184 20.5152 4.10969 19.8728 4.70927C19.5302 4.58079 19.3589 4.49514 19.0591 4.45231C18.9734 4.45231 18.9306 4.32383 19.0591 4.23817C19.7871 3.72425 20.2582 3.03901 20.2154 1.83984ZM16.2325 36.6156C14.9905 36.7013 13.7057 35.6306 13.7913 33.3179C12.5921 36.273 9.16596 35.1167 10.1082 31.6477L11.3073 27.2793H11.9497C13.363 27.2793 14.4765 28.0502 14.8192 29.4635H17.2175V29.5063C16.0612 31.8618 16.2325 34.0888 16.2325 36.6156Z" fill="#8C55B7"/>
<path fill-rule="evenodd" clip-rule="evenodd" d="M16.061 13.918C18.8876 13.918 21.2003 16.0593 21.2003 19.6997C21.2003 20.7703 20.9433 21.8838 20.5151 22.8689C20.3866 22.8261 20.3009 22.8261 20.1724 22.8261C19.6157 22.8261 19.3587 23.1258 19.0589 23.1687C18.4593 23.2543 18.0739 23.2115 17.8169 23.4685C17.6456 23.6398 17.5171 23.9824 17.4743 24.2394C17.4743 24.3678 17.4315 24.5391 17.4315 24.7105V25.1816C16.9604 25.4385 16.5749 25.8668 16.2751 26.4664L16.0182 26.8946L15.7612 26.4664C15.4186 25.824 15.0332 25.4385 14.6049 25.1387V24.6676C14.6049 24.4963 14.6049 24.325 14.5621 24.1965C14.5192 23.9396 14.4336 23.5969 14.2194 23.4256C13.9625 23.1687 13.577 23.2115 12.9774 23.1258C12.6777 23.083 12.4207 22.7832 11.8639 22.7832C11.7355 22.7832 11.6498 22.7832 11.5641 22.8261C11.1359 21.841 10.8789 20.7275 10.8789 19.6568C10.9217 16.0593 13.1916 13.918 16.061 13.918Z" fill="white"/>
<path d="M23.5119 7.8356C22.9552 7.32167 22.3127 6.8934 21.7132 6.55078C21.1992 7.45015 21.0279 8.3067 21.0708 9.03477C21.1136 9.93414 21.4134 10.705 21.7988 11.1761L24.8824 9.37738C24.4969 8.86346 24.0258 8.3067 23.5119 7.8356Z" fill="#FFB03F"/>
<path d="M21.1562 9.89297C21.2847 10.4497 21.5417 10.878 21.7987 11.2206L24.8822 9.42188C23.6831 9.76449 22.3982 9.9358 21.1562 9.89297Z" fill="#ED9140"/>
<path d="M24.197 8.99406C23.6403 8.266 22.955 7.75207 22.0557 7.19531C21.8843 7.40945 21.7987 7.66641 21.7559 7.9662L24.197 8.99406Z" fill="#FFCE92"/>
<path fill-rule="evenodd" clip-rule="evenodd" d="M17.2598 6.55078C17.4288 6.55512 17.5897 6.62419 17.7092 6.74374C17.8288 6.86329 17.8978 7.02418 17.9022 7.19319C17.8978 7.3622 17.8288 7.52309 17.7092 7.64264C17.5897 7.76219 17.4288 7.83127 17.2598 7.8356C17.0908 7.83127 16.9299 7.76219 16.8103 7.64264C16.6908 7.52309 16.6217 7.3622 16.6174 7.19319C16.5745 6.80775 16.8743 6.55078 17.2598 6.55078Z" fill="white"/>
<path d="M12.2484 23.855C12.1627 23.7694 12.0342 23.7266 11.9057 23.7266C11.7773 23.7266 11.6916 23.7694 11.606 23.855C11.5203 23.9407 11.4775 24.0264 11.4775 24.1548V26.2105C11.4775 26.339 11.5203 26.4247 11.606 26.5103C11.687 26.5881 11.7935 26.6338 11.9057 26.6388C12.0342 26.6388 12.1199 26.596 12.2055 26.5103C12.2912 26.4247 12.334 26.339 12.334 26.2105V24.1548C12.3768 24.0264 12.334 23.8979 12.2484 23.855ZM10.5781 23.855C10.5353 23.855 10.5353 23.855 10.5781 23.855C10.4068 23.855 10.2783 23.9407 10.1927 24.0264C10.107 24.112 10.0213 24.2405 10.0213 24.369C10.0213 24.4975 9.97852 24.6259 9.97852 24.7544V25.9108C9.97852 26.0392 10.0642 26.1677 10.1498 26.2534C10.2355 26.339 10.364 26.4247 10.4924 26.4247H10.5353C10.6209 26.4247 10.7066 26.3819 10.7922 26.2962C10.8779 26.2105 10.9207 26.1249 10.9207 25.9964V24.2405C10.9207 24.112 10.8779 24.0264 10.7922 23.9407C10.7494 23.8979 10.6638 23.855 10.5781 23.855ZM13.6617 24.0692C13.576 23.9835 13.4475 23.8979 13.319 23.8979H13.2762C13.1906 23.8979 13.1049 23.9407 13.0193 24.0264C12.9336 24.112 12.8908 24.1977 12.8908 24.3261V26.1677C12.8908 26.2962 12.9336 26.3819 13.0193 26.4675C13.0621 26.5532 13.1477 26.5532 13.2334 26.596H13.2762C13.4047 26.596 13.5332 26.5103 13.6188 26.4247C13.7045 26.339 13.7901 26.1677 13.833 26.0392C13.833 25.9108 13.8758 25.7823 13.8758 25.6538V24.8829C13.8758 24.7544 13.8758 24.6259 13.833 24.4975C13.833 24.2833 13.7473 24.1548 13.6617 24.0692Z" fill="#ED9140"/>
<path d="M12.4195 25.3112C12.291 25.5253 12.1197 25.6538 11.9484 25.6538C11.7771 25.6538 11.6058 25.5253 11.4773 25.2683V24.1548C11.4773 24.0264 11.5202 23.9407 11.6058 23.855C11.6868 23.7772 11.7934 23.7316 11.9056 23.7266C12.0341 23.7266 12.1626 23.7694 12.2482 23.855C12.3339 23.9407 12.3767 24.0264 12.3767 24.1548V25.1827L12.4195 25.3112ZM10.9206 25.097C10.7921 25.3112 10.6208 25.3968 10.4495 25.3968C10.2353 25.3968 10.064 25.2255 9.93555 25.0114V24.7544C9.93555 24.6259 9.93555 24.4975 9.97837 24.369C9.97837 24.2405 10.064 24.112 10.1497 24.0264C10.2353 23.9407 10.3638 23.855 10.4923 23.855H10.5351C10.6208 23.855 10.7064 23.8979 10.7921 23.9835C10.8777 24.0692 10.9206 24.1548 10.9206 24.2833V25.097ZM13.6615 24.0692C13.5759 23.9835 13.4474 23.8979 13.3189 23.8979H13.2761C13.1904 23.8979 13.1048 23.9407 13.0191 24.0264C12.9335 24.112 12.8906 24.1977 12.8906 24.3261V25.0542C13.0191 25.2683 13.1904 25.4397 13.3617 25.4397C13.533 25.4397 13.7044 25.3112 13.8328 25.097V24.8401C13.8328 24.7116 13.8328 24.5831 13.79 24.4546C13.8328 24.2833 13.7472 24.1548 13.6615 24.0692Z" fill="#FFB03F"/>
<path d="M19.8286 23.855C19.9143 23.7694 20.0427 23.7266 20.1712 23.7266C20.2997 23.7266 20.3854 23.7694 20.471 23.855C20.5567 23.9407 20.5995 24.0264 20.5995 24.1548V26.2105C20.5995 26.339 20.5567 26.4247 20.471 26.5103C20.39 26.5881 20.2834 26.6338 20.1712 26.6388C20.0427 26.6388 19.9571 26.596 19.8714 26.5103C19.743 26.4675 19.7001 26.339 19.7001 26.2534V24.1977C19.7001 24.0264 19.743 23.8979 19.8286 23.855ZM21.5417 23.855C21.713 23.855 21.8415 23.9407 21.9271 24.0264C22.0128 24.112 22.0985 24.2405 22.0985 24.369C22.0985 24.4975 22.1413 24.6259 22.1413 24.7544V25.9108C22.1413 26.0392 22.0556 26.1677 21.97 26.2534C21.8843 26.339 21.7558 26.4247 21.6274 26.4247H21.5845C21.4989 26.4247 21.4132 26.3819 21.3276 26.2962C21.2419 26.2105 21.1991 26.1249 21.1991 25.9964V24.2405C21.1991 24.112 21.2419 24.0264 21.3276 23.9407C21.3276 23.8979 21.4132 23.855 21.5417 23.855ZM18.4153 24.0692C18.501 23.9835 18.6294 23.8979 18.7579 23.8979H18.8008C18.8864 23.8979 18.9721 23.9407 19.0577 24.0264C19.1434 24.112 19.1862 24.1977 19.1862 24.3261V26.1677C19.1862 26.2962 19.1434 26.3819 19.0577 26.4675C19.0149 26.5532 18.9292 26.5532 18.8436 26.596H18.8008C18.6723 26.596 18.5438 26.5103 18.4581 26.4247C18.3725 26.339 18.2868 26.1677 18.244 26.0392C18.244 25.9108 18.2012 25.7823 18.2012 25.6538V24.8829C18.2012 24.7544 18.2012 24.6259 18.244 24.4975C18.244 24.2833 18.3297 24.1548 18.4153 24.0692Z" fill="#ED9140"/>
<path d="M19.7003 25.3112C19.8288 25.5253 20.0001 25.6538 20.1714 25.6538C20.3427 25.6538 20.514 25.5253 20.6425 25.2683V24.1548C20.6425 24.0264 20.5996 23.9407 20.514 23.855C20.433 23.7772 20.3264 23.7316 20.2142 23.7266C20.0857 23.7266 19.9572 23.7694 19.8716 23.855C19.7859 23.9407 19.7431 24.0264 19.7431 24.1548V25.1827L19.7003 25.3112ZM21.1564 25.097C21.2849 25.3112 21.4562 25.3968 21.6275 25.3968C21.8416 25.3968 22.0129 25.2255 22.1414 25.0114V24.7544C22.1414 24.6259 22.1414 24.4975 22.0986 24.369C22.0986 24.2405 22.0129 24.112 21.9273 24.0264C21.8416 23.9407 21.7132 23.855 21.5847 23.855H21.5418C21.4562 23.855 21.3705 23.8979 21.2849 23.9835C21.1992 24.0692 21.1564 24.1548 21.1564 24.2833V25.097ZM18.4155 24.0692C18.5011 23.9835 18.6296 23.8979 18.7581 23.8979H18.8009C18.8866 23.8979 18.9722 23.9407 19.0579 24.0264C19.1435 24.112 19.1863 24.1977 19.1863 24.3261V25.0542C19.0579 25.2683 18.8866 25.4397 18.7152 25.4397C18.5439 25.4397 18.3726 25.3112 18.2441 25.097V24.8401C18.2441 24.7116 18.2441 24.5831 18.287 24.4546C18.2441 24.2833 18.3298 24.1548 18.4155 24.0692Z" fill="#FFB03F"/>
<path d="M16.8303 10.0629C18.1075 10.0629 19.1429 9.02743 19.1429 7.75018C19.1429 6.47292 18.1075 5.4375 16.8303 5.4375C15.553 5.4375 14.5176 6.47292 14.5176 7.75018C14.5176 9.02743 15.553 10.0629 16.8303 10.0629Z" fill="#AF6BD6"/>
<path d="M16.6585 9.46162C17.581 9.46162 18.3288 8.71382 18.3288 7.79136C18.3288 6.8689 17.581 6.12109 16.6585 6.12109C15.7361 6.12109 14.9883 6.8689 14.9883 7.79136C14.9883 8.71382 15.7361 9.46162 16.6585 9.46162Z" fill="#54476E"/>
<path d="M17.215 7.70726C17.5224 7.70726 17.7717 7.45799 17.7717 7.1505C17.7717 6.84302 17.5224 6.59375 17.215 6.59375C16.9075 6.59375 16.6582 6.84302 16.6582 7.1505C16.6582 7.45799 16.9075 7.70726 17.215 7.70726Z" fill="white"/>
<path d="M50.0818 24.8141L46.3302 20.5918C48.6895 20.1199 49.4678 18.3979 49.4678 16.7004C49.4678 14.5543 47.9346 12.5958 45.009 12.5958H39.1113V24.9574H41.4462V20.826H43.6866L47.2961 24.9539H50.0807L50.0818 24.8141ZM45.0102 14.7418C46.4724 14.7418 47.133 15.7322 47.133 16.7225C47.133 17.7128 46.4957 18.7032 45.0102 18.7032H41.4485V14.7418H45.0102ZM56.8988 12.3359C52.6287 12.3359 50.5292 15.6145 50.5292 18.8698C50.5292 22.125 52.5565 25.2626 56.8988 25.2626C61.241 25.2626 63.2205 22.054 63.2438 18.8465C63.2671 15.6145 61.1443 12.3359 56.8988 12.3359ZM56.8988 14.4587C59.8231 14.4587 60.9801 16.7936 60.9556 18.8698C60.9323 20.897 59.8231 23.0921 56.8988 23.0921C53.9744 23.0921 52.8885 20.9215 52.8419 18.8931C52.772 16.8169 53.9744 14.4587 56.8988 14.4587ZM70.5804 12.3359C66.2871 12.3359 64.2109 15.6145 64.2109 18.8698C64.2109 22.125 66.2148 25.2626 70.5804 25.2626C74.9204 25.2626 76.9022 22.054 76.9255 18.8465C76.9721 15.6145 74.8493 12.3359 70.5804 12.3359ZM70.5804 14.4587C73.5048 14.4587 74.6617 16.7936 74.6373 18.8698C74.614 20.897 73.5048 23.0921 70.5804 23.0921C67.656 23.0921 66.5702 20.9215 66.5236 18.8931C66.4537 16.8169 67.656 14.4587 70.5804 14.4587ZM94.6162 12.3359C90.3462 12.3359 88.2467 15.6145 88.2467 18.8698C88.2467 22.125 90.2739 25.2626 94.6162 25.2626C98.9807 25.2626 100.938 22.054 100.961 18.8465C100.985 15.6145 98.8618 12.3359 94.6162 12.3359ZM94.6162 14.4587C97.5406 14.4587 98.6975 16.7936 98.6731 18.8698C98.6498 20.897 97.5406 23.0921 94.6162 23.0921C91.6918 23.0921 90.606 20.9215 90.5594 18.8931C90.4895 16.8169 91.6918 14.4587 94.6162 14.4587ZM110.846 12.5946V19.6946C110.846 21.8174 109.737 23.1154 107.826 23.1154C105.892 23.1154 104.617 21.9363 104.617 19.6946V12.5946H102.306V19.6946C102.306 23.4229 104.829 25.2381 107.802 25.2381C110.916 25.2381 113.156 23.3507 113.156 19.6946V12.5946H110.846ZM78.1046 24.9562H80.4394V19.436L85.6765 24.9562H88.5543V24.8164L82.5867 18.5657L88.0824 12.6214V12.5515H85.1697L80.4278 17.8829V12.5759H78.0929L78.1046 24.9562ZM118.277 24.9562H120.612V14.6952H124.526V12.5725H114.337V14.6952H118.275L118.277 24.9562Z" fill="#54476E"/>
</svg>
