<svg width="1445" height="375" viewBox="0 0 1445 375" fill="none" xmlns="http://www.w3.org/2000/svg">
<path d="M0.492188 368.777H1444.51V211.059C1278.93 245.159 812.991 321.918 0.492188 232.771L0.492188 368.777Z" fill="url(#paint0_linear_935_1307)"/>
<path d="M1444.51 374.277H0.492188L0.492188 325.101C676.291 214.548 972.796 360.511 1444.51 307.34V374.277Z" fill="url(#paint1_linear_935_1307)"/>
<path d="M1444.51 374.277H0.492188L0.492188 325.101C676.291 214.548 972.796 360.511 1444.51 307.34V374.277Z" fill="#EFF1F4"/>
<path d="M661.974 63.5731C666.543 60.815 671.935 59.7452 677.211 60.5498C681.975 61.3206 686.364 63.607 689.725 67.0696C691.605 68.9975 693.129 71.2439 694.224 73.7043C694.282 73.8039 694.365 73.8866 694.464 73.944C694.564 74.0015 694.677 74.0318 694.792 74.0318C694.908 74.0318 695.021 74.0015 695.12 73.944C695.22 73.8866 695.303 73.8039 695.361 73.7043C697.931 68.8681 702.135 65.1019 707.224 63.0769C711.363 61.4894 715.874 61.1412 720.208 62.0749C724.541 63.0086 728.509 65.1837 731.627 68.3347C732.222 68.9394 733.152 68.0061 732.557 67.4048C728.284 63.1265 722.581 60.5776 716.543 60.2475C711.996 60.0637 707.489 61.167 703.54 63.4307C699.592 65.6944 696.363 69.0265 694.224 73.0438H695.361C693.292 68.4662 689.845 64.6486 685.502 62.1239C681.806 60.0221 677.615 58.9444 673.363 59.0022C669.111 59.06 664.951 60.251 661.313 62.4525C660.59 62.8896 661.251 64.0266 661.97 63.5862L661.974 63.5731Z" fill="#CBCBFF"/>
<path d="M747.9 138.583C749.832 137.397 751.996 136.64 754.246 136.362C756.496 136.085 758.78 136.293 760.942 136.974C763.105 137.654 765.096 138.791 766.782 140.308C768.467 141.824 769.807 143.684 770.712 145.763C770.77 145.862 770.853 145.944 770.953 146.001C771.052 146.058 771.165 146.088 771.279 146.088C771.394 146.088 771.506 146.058 771.606 146.001C771.705 145.944 771.788 145.862 771.846 145.763C773.003 143.59 774.635 141.706 776.621 140.251C778.606 138.796 780.894 137.807 783.315 137.357C788.435 136.437 793.86 138.28 797.504 141.958C798.099 142.559 799.029 141.629 798.431 141.028C795.335 137.93 791.204 136.087 786.831 135.852C783.549 135.726 780.299 136.526 777.451 138.162C774.603 139.797 772.274 142.201 770.729 145.099H771.862C770.87 142.871 769.414 140.879 767.591 139.259C765.767 137.638 763.619 136.425 761.29 135.701C758.96 134.977 756.503 134.758 754.082 135.06C751.662 135.361 749.333 136.176 747.252 137.449C746.529 137.883 747.19 139.02 747.91 138.583H747.9Z" fill="#CBCBFF"/>
<path d="M153.197 138.352C155.129 137.167 157.293 136.409 159.543 136.132C161.793 135.854 164.077 136.063 166.239 136.743C168.402 137.424 170.393 138.561 172.079 140.077C173.764 141.593 175.104 143.454 176.009 145.533C176.067 145.631 176.15 145.713 176.249 145.77C176.349 145.827 176.461 145.857 176.576 145.857C176.691 145.857 176.803 145.827 176.903 145.77C177.002 145.713 177.085 145.631 177.143 145.533C178.3 143.36 179.932 141.476 181.918 140.021C183.903 138.565 186.191 137.576 188.612 137.127C193.731 136.206 199.157 138.05 202.801 141.727C203.396 142.329 204.326 141.399 203.728 140.797C200.632 137.7 196.501 135.856 192.128 135.622C188.846 135.495 185.596 136.296 182.748 137.931C179.9 139.567 177.57 141.971 176.026 144.869H177.159C176.167 142.64 174.711 140.649 172.888 139.028C171.064 137.408 168.916 136.195 166.587 135.471C164.257 134.747 161.8 134.528 159.379 134.829C156.959 135.131 154.63 135.945 152.549 137.219C151.826 137.652 152.487 138.789 153.207 138.352H153.197Z" fill="#CBCBFF"/>
<path d="M98.0559 2.39164C89.5382 -2.08411 78.8319 -0.155129 72.5357 7.14999C70.9154 9.03407 69.6376 11.1872 68.7599 13.512L69.9593 13.3575C67.2904 9.00052 63.1552 5.73806 58.2968 4.1563C54.4044 2.94642 50.2453 2.8871 46.3199 3.98546C42.3946 5.08383 38.8703 7.29311 36.1711 10.3474C35.6157 10.9784 36.5424 11.9116 37.1011 11.2741C40.3732 7.56839 44.8937 5.19528 49.802 4.60651C53.5392 4.21224 57.3114 4.88785 60.6794 6.55468C64.0474 8.2215 66.8724 10.8109 68.8256 14.0213C68.8907 14.1335 68.9875 14.2239 69.1039 14.2812C69.2202 14.3384 69.3509 14.36 69.4795 14.3431C69.6081 14.3262 69.7288 14.2717 69.8265 14.1864C69.9241 14.1011 69.9944 13.9888 70.0283 13.8636C71.9085 8.97008 75.6488 5.01946 80.4323 2.8747C85.8084 0.485668 92.2066 0.804425 97.3921 3.53193C98.1414 3.92299 98.8052 2.78926 98.0494 2.39493L98.0559 2.39164Z" fill="#CBCBFF"/>
<path d="M470.846 149.224H344L344.214 148.403C346.931 138.002 355.672 130.74 365.475 130.74C367.121 130.738 368.761 130.939 370.358 131.338C374.262 120.783 382.691 114 391.975 114C401.409 114 409.891 120.924 413.732 131.703C419.844 129.839 426.202 128.909 432.591 128.945C442.187 128.945 451.355 130.917 458.411 134.515C465.532 138.13 469.912 143.092 470.731 148.468L470.846 149.224ZM345.719 147.91H469.278C467.04 137.953 451.188 130.26 432.582 130.26C425.842 130.26 419.25 131.246 413.522 133.148L412.894 133.355L412.684 132.734C409.132 122.153 400.998 115.318 391.961 115.318C383.089 115.318 374.998 122.002 371.38 132.347L371.176 132.932L370.578 132.764C368.919 132.288 367.201 132.044 365.475 132.041C356.53 132.041 348.515 138.531 345.719 147.91V147.91Z" fill="#CBCBFF"/>
<path d="M1098.47 73.8488H1015L1015.28 72.9879C1017.1 67.4967 1022.89 63.6617 1029.37 63.6617C1030.4 63.6602 1031.44 63.756 1032.45 63.9476C1033.75 61.2523 1035.78 58.9801 1038.32 57.396C1040.85 55.8119 1043.78 54.981 1046.77 55.0003C1049.76 55.0196 1052.69 55.8882 1055.2 57.5049C1057.72 59.1216 1059.72 61.4198 1060.98 64.1317C1064.98 63.1838 1069.08 62.715 1073.18 62.735C1086.36 62.735 1097.17 67.1779 1098.3 73.0667L1098.47 73.8488ZM1016.87 72.5344H1096.8C1094.95 67.7169 1084.93 64.0495 1073.2 64.0495C1069.01 64.0247 1064.84 64.5249 1060.79 65.5381L1060.23 65.6827L1060.01 65.1602C1058.92 62.5543 1057.08 60.3271 1054.73 58.7543C1052.38 57.1814 1049.62 56.332 1046.79 56.311C1043.97 56.29 1041.2 57.0984 1038.82 58.6362C1036.45 60.174 1034.58 62.3737 1033.45 64.9631L1033.23 65.456L1032.7 65.3377C1031.61 65.0955 1030.5 64.9742 1029.38 64.9762C1023.81 64.9762 1018.81 68.0422 1016.87 72.5344V72.5344Z" fill="#CBCBFF"/>
<path d="M1339.51 144.415H1230.11L1230.39 143.551C1232.75 136.403 1240.3 131.412 1248.75 131.412C1250.16 131.41 1251.55 131.544 1252.93 131.812C1254.61 128.262 1257.26 125.265 1260.58 123.175C1263.91 121.084 1267.76 119.987 1271.68 120.014C1275.61 120.04 1279.45 121.188 1282.74 123.323C1286.03 125.458 1288.65 128.49 1290.28 132.062C1295.58 130.79 1301.02 130.161 1306.47 130.189C1323.73 130.189 1337.87 135.969 1339.36 143.629L1339.51 144.415ZM1231.96 143.1H1337.86C1335.67 136.528 1322.22 131.504 1306.47 131.504C1300.94 131.471 1295.43 132.134 1290.07 133.475L1289.52 133.62L1289.3 133.11C1287.84 129.645 1285.39 126.685 1282.26 124.595C1279.13 122.505 1275.46 121.377 1271.7 121.349C1267.94 121.321 1264.25 122.395 1261.09 124.438C1257.93 126.481 1255.44 129.405 1253.92 132.848L1253.7 133.341L1253.17 133.222C1251.73 132.901 1250.25 132.74 1248.76 132.742C1241.21 132.726 1234.45 136.945 1231.96 143.1Z" fill="#CBCBFF"/>
<defs>
<linearGradient id="paint0_linear_935_1307" x1="0.4922" y1="252.499" x2="1444.51" y2="252.499" gradientUnits="userSpaceOnUse">
<stop stop-color="#974EF2"/>
<stop offset="1" stop-color="#FFB171"/>
</linearGradient>
<linearGradient id="paint1_linear_935_1307" x1="0.4922" y1="310.4" x2="1444.51" y2="310.4" gradientUnits="userSpaceOnUse">
<stop stop-color="#FFB171"/>
<stop offset="1" stop-color="#974EF2"/>
</linearGradient>
</defs>
</svg>
