<svg width="102" height="102" viewBox="0 0 102 102" fill="none" xmlns="http://www.w3.org/2000/svg">
<path opacity="0.1" d="M1.5 51L51.5 1H102L1.5 101.5V51Z" fill="#7151DD"/>
<path d="M13.9875 69.5327L14.9242 68.5949L12.9668 66.6399L14.296 65.309L17.2018 66.3145L18.2628 65.2521L15.1042 64.1651C15.2803 63.7035 15.3007 63.2498 15.1656 62.8039C15.0305 62.358 14.7736 61.9459 14.3948 61.5676C13.9304 61.1038 13.4182 60.8254 12.8581 60.7324C12.298 60.6343 11.7368 60.7915 11.1744 61.2041C11.0889 61.2637 11.0021 61.3351 10.914 61.4181C10.8233 61.4986 10.7507 61.566 10.6963 61.6205L8.38375 63.9359L13.9875 69.5327ZM12.0912 65.7654L10.1999 63.8765L11.5369 62.5378C11.5887 62.4859 11.6496 62.4301 11.7196 62.3705C11.7896 62.3108 11.8583 62.2602 11.9256 62.2186C12.12 62.1019 12.3118 62.0499 12.5011 62.0627C12.6904 62.0704 12.8654 62.1182 13.0262 62.2063C13.1896 62.2918 13.331 62.3941 13.4503 62.5133C13.5697 62.6325 13.6722 62.7737 13.7578 62.937C13.8461 63.0977 13.8942 63.2727 13.9021 63.4619C13.9126 63.6486 13.8595 63.8392 13.743 64.0337C13.7041 64.1038 13.6549 64.1738 13.5953 64.2438C13.5357 64.3139 13.48 64.3748 13.4282 64.4267L12.0912 65.7654ZM21.1442 62.6006C21.5484 62.1959 21.8139 61.7226 21.9406 61.1806C22.0673 60.6335 22.0203 60.089 21.7996 59.5473L20.5944 60.1936C20.8073 60.7794 20.6793 61.3071 20.2103 61.7767C19.8916 62.0958 19.5482 62.2555 19.18 62.2557C18.8093 62.2533 18.4319 62.0967 18.048 61.7858L21.0874 58.7427C20.6178 58.2011 20.1236 57.819 19.6049 57.5963C19.0862 57.3737 18.5728 57.3143 18.0647 57.4184C17.5592 57.5198 17.0888 57.7884 16.6535 58.2243C16.2415 58.6368 15.9722 59.0933 15.8454 59.5938C15.7161 60.0916 15.7333 60.5985 15.8969 61.1144C16.0606 61.6302 16.372 62.1174 16.8312 62.5761C17.2567 63.001 17.7223 63.2872 18.2279 63.4347C18.7362 63.5796 19.2431 63.5831 19.7486 63.4454C20.2541 63.3077 20.7193 63.0261 21.1442 62.6006ZM17.5135 59.0055C17.8037 58.7149 18.103 58.5682 18.4116 58.5654C18.7201 58.5575 19.0598 58.6973 19.4308 58.9848L17.3631 61.0551C16.8415 60.3113 16.8916 59.6281 17.5135 59.0055ZM25.7349 58.0043C26.2039 57.5347 26.4862 57.0237 26.5817 56.4714C26.6747 55.9165 26.572 55.3605 26.2735 54.8032L25.1033 55.5467C25.2461 55.8344 25.302 56.1079 25.2711 56.3672C25.2427 56.6239 25.1041 56.8768 24.8554 57.1259C24.503 57.4787 24.1142 57.6215 23.6889 57.5544C23.2663 57.4847 22.8539 57.2516 22.4518 56.8551C22.0678 56.4665 21.8342 56.0621 21.751 55.6422C21.6677 55.217 21.8101 54.8202 22.178 54.4518C22.3931 54.2365 22.6484 54.108 22.9439 54.0663C23.2369 54.0221 23.5325 54.0764 23.8308 54.2291L24.5106 53.0425C23.9971 52.7265 23.4551 52.6154 22.8848 52.7091C22.3118 52.8002 21.787 53.0844 21.3102 53.5618C20.8853 53.9873 20.6146 54.4502 20.4983 54.9507C20.3793 55.4486 20.4029 55.9489 20.5692 56.4518C20.7354 56.9495 21.0326 57.4147 21.4607 57.8475C21.8861 58.2672 22.3465 58.5638 22.8418 58.7372C23.3398 58.908 23.8389 58.9375 24.3392 58.8257C24.8369 58.7113 25.3022 58.4375 25.7349 58.0043ZM30.1233 53.6104C30.543 53.1901 30.8163 52.7297 30.943 52.2292C31.0672 51.7262 31.05 51.2219 30.8915 50.7164C30.7331 50.2058 30.4359 49.7328 30 49.2975C29.5668 48.8647 29.0973 48.5695 28.5916 48.4116C28.0834 48.2512 27.5778 48.2334 27.0749 48.3581C26.572 48.4829 26.1093 48.7567 25.687 49.1796C25.275 49.5921 25.0056 50.0486 24.8789 50.549C24.7522 51.0495 24.7667 51.5538 24.9226 52.0619C25.0785 52.5699 25.3769 53.0442 25.818 53.4847C26.2512 53.9174 26.7207 54.2153 27.2264 54.3783C27.7321 54.5362 28.2364 54.5527 28.7393 54.428C29.2422 54.3032 29.7035 54.0307 30.1233 53.6104ZM29.2438 52.732C28.8836 53.0926 28.4896 53.2458 28.0618 53.1916C27.634 53.1323 27.2164 52.8992 26.8091 52.4924C26.4122 52.0959 26.1786 51.6864 26.1083 51.2639C26.038 50.8361 26.1907 50.4341 26.5664 50.058C26.9344 49.6896 27.3323 49.5351 27.7601 49.5944C28.1854 49.6512 28.6016 49.883 29.0089 50.2898C29.4033 50.6836 29.633 51.097 29.6981 51.53C29.7658 51.9603 29.6143 52.361 29.2438 52.732ZM32.95 50.5466L33.8945 49.601L31.3066 47.0164C31.0446 46.7547 30.9031 46.4708 30.8822 46.1649C30.8639 45.8564 30.9739 45.5828 31.2123 45.3441C31.4584 45.0977 31.7345 44.9847 32.0404 45.0053C32.3464 45.0258 32.6459 45.1825 32.9391 45.4753L35.4802 48.0133L36.413 47.0793L33.8252 44.4947C33.5476 44.2174 33.4061 43.9258 33.4007 43.6199C33.398 43.3114 33.5093 43.0442 33.7347 42.8185C33.9757 42.5773 34.2491 42.4669 34.5551 42.4874C34.861 42.5028 35.158 42.6543 35.446 42.9419L37.9988 45.4916L38.9355 44.5537L36.1453 41.767C35.6887 41.3109 35.1972 41.0688 34.6709 41.0406C34.1471 41.0098 33.6533 41.2266 33.1895 41.691C32.9175 41.9634 32.7284 42.2721 32.6223 42.617C32.5162 42.9619 32.5022 43.3028 32.5802 43.6398C32.2638 43.5467 31.9436 43.543 31.6195 43.6288C31.2929 43.7119 30.9819 43.9014 30.6865 44.1972C30.4352 44.4488 30.2539 44.7315 30.1426 45.0453C30.0313 45.3539 29.9939 45.6638 30.0304 45.9749L29.5751 45.5201L28.7472 46.349L32.95 50.5466ZM39.9415 43.5465L40.8859 42.6009L38.2981 40.0162C38.0361 39.7545 37.8946 39.4707 37.8736 39.1648C37.8553 38.8562 37.9653 38.5826 38.2037 38.344C38.4499 38.0975 38.7259 37.9846 39.0319 38.0051C39.3378 38.0257 39.6374 38.1823 39.9305 38.4751L42.4717 41.0131L43.4045 40.0792L40.8166 37.4945C40.539 37.2173 40.3976 36.9257 40.3922 36.6197C40.3894 36.3112 40.5007 36.0441 40.7262 35.8184C40.9671 35.5771 41.2406 35.4667 41.5465 35.4873C41.8525 35.5027 42.1495 35.6542 42.4374 35.9418L44.9903 38.4914L45.9269 37.5536L43.1367 34.7668C42.6801 34.3108 42.1887 34.0687 41.6623 34.0405C41.1386 34.0097 40.6448 34.2265 40.181 34.6909C39.9089 34.9633 39.7198 35.2719 39.6137 35.6168C39.5077 35.9617 39.4936 36.3027 39.5716 36.6397C39.2552 36.5466 38.935 36.5429 38.611 36.6286C38.2844 36.7118 37.9734 36.9013 37.678 37.197C37.4266 37.4487 37.2453 37.7314 37.134 38.0452C37.0227 38.3538 36.9853 38.6636 37.0218 38.9747L36.5665 38.52L35.7386 39.3489L39.9415 43.5465ZM48.8975 34.8128C49.3017 34.4081 49.5671 33.9348 49.6939 33.3928C49.8206 32.8457 49.7735 32.3012 49.5528 31.7595L48.3476 32.4058C48.5606 32.9917 48.4326 33.5194 47.9636 33.9889C47.6449 34.308 47.3014 34.4677 46.9333 34.4679C46.5625 34.4656 46.1852 34.3089 45.8013 33.9981L48.8406 30.9549C48.371 30.4133 47.8769 30.0312 47.3582 29.8085C46.8395 29.5859 46.3261 29.5266 45.818 29.6306C45.3125 29.732 44.8421 30.0007 44.4067 30.4365C43.9948 30.849 43.7254 31.3055 43.5987 31.806C43.4693 32.3039 43.4865 32.8107 43.6502 33.3266C43.8138 33.8424 44.1253 34.3297 44.5845 34.7883C45.0099 35.2132 45.4755 35.4994 45.9812 35.6469C46.4894 35.7918 46.9963 35.7954 47.5018 35.6576C48.0073 35.5199 48.4725 35.2383 48.8975 34.8128ZM45.2667 31.2177C45.5569 30.9271 45.8563 30.7804 46.1648 30.7777C46.4734 30.7697 46.8131 30.9095 47.184 31.197L45.1163 33.2673C44.5947 32.5235 44.6449 31.8403 45.2667 31.2177ZM51.4269 32.0468L52.3752 31.0973L50.2154 28.9402C49.8756 28.6007 49.6615 28.291 49.5732 28.0111C49.4848 27.7259 49.4808 27.4731 49.561 27.2527C49.6413 27.0271 49.7604 26.8352 49.9185 26.6769C50.1413 26.4538 50.3681 26.3253 50.5988 26.2915C50.827 26.255 51.0474 26.2808 51.26 26.3688C51.4727 26.4517 51.6685 26.5643 51.8475 26.7068C52.029 26.8467 52.1847 26.9814 52.3144 27.111L54.338 29.1321L55.2863 28.1825L52.9398 25.8389C52.8412 25.7404 52.7011 25.6186 52.5195 25.4736C52.3405 25.3259 52.1317 25.1899 51.8931 25.0656C51.6545 24.9413 51.3952 24.8585 51.1151 24.8172C50.8325 24.7733 50.5383 24.8033 50.2324 24.9072C49.9265 25.0059 49.6194 25.2096 49.311 25.5183C49.0079 25.8219 48.7942 26.1422 48.6699 26.4793C48.5457 26.8113 48.4979 27.1445 48.5267 27.4789L48.0597 27.0125L47.2241 27.8492L51.4269 32.0468ZM58.0319 25.667C58.2807 25.418 58.4672 25.156 58.5915 24.8811C58.7158 24.6062 58.7856 24.3261 58.801 24.0409L59.1123 24.3518L59.9401 23.5229L54.3364 17.9261L53.3919 18.8718L54.9991 20.477C54.7554 20.5134 54.5195 20.5913 54.2914 20.7107C54.0608 20.8276 53.8405 20.991 53.6306 21.2012C53.2342 21.5981 52.9855 22.039 52.8847 22.5239C52.7865 23.0062 52.8244 23.4949 52.9984 23.9901C53.1724 24.4852 53.4722 24.9452 53.8976 25.3701C54.3179 25.7899 54.7744 26.0878 55.2672 26.2638C55.7599 26.4398 56.2473 26.4809 56.7295 26.3873C57.2117 26.2937 57.6459 26.0536 58.0319 25.667ZM57.3352 24.6835C57.0916 24.9274 56.8298 25.0675 56.5498 25.104C56.2673 25.1379 55.9833 25.0901 55.698 24.9606C55.4154 24.8286 55.1456 24.6343 54.8887 24.3778C54.6345 24.1239 54.4425 23.8543 54.3127 23.5692C54.1828 23.2789 54.1373 22.9924 54.176 22.7098C54.2147 22.422 54.3597 22.1523 54.6111 21.9006C54.9687 21.5426 55.3549 21.4101 55.7698 21.5032C56.1873 21.5937 56.601 21.8436 57.0109 22.253C57.4182 22.6598 57.6686 23.0732 57.7622 23.4932C57.8558 23.908 57.7135 24.3047 57.3352 24.6835ZM63.055 20.6377C63.4592 20.233 63.7246 19.7597 63.8513 19.2177C63.978 18.6706 63.931 18.1261 63.7103 17.5844L62.5051 18.2307C62.7181 18.8165 62.5901 19.3442 62.1211 19.8138C61.8024 20.1329 61.4589 20.2926 61.0908 20.2928C60.72 20.2905 60.3427 20.1338 59.9587 19.8229L62.9981 16.7798C62.5285 16.2382 62.0343 15.8561 61.5157 15.6334C60.997 15.4108 60.4836 15.3515 59.9755 15.4555C59.47 15.5569 58.9995 15.8256 58.5642 16.2614C58.1523 16.6739 57.8829 17.1304 57.7562 17.6309C57.6268 18.1287 57.644 18.6356 57.8077 19.1515C57.9713 19.6673 58.2828 20.1546 58.742 20.6132C59.1674 21.0381 59.633 21.3243 60.1387 21.4718C60.6469 21.6167 61.1538 21.6203 61.6593 21.4825C62.1648 21.3448 62.63 21.0632 63.055 20.6377ZM59.4242 17.0426C59.7144 16.752 60.0138 16.6053 60.3223 16.6026C60.6308 16.5946 60.9706 16.7344 61.3415 17.0219L59.2738 19.0922C58.7522 18.3484 58.8023 17.6652 59.4242 17.0426ZM67.5057 16.1815C67.7544 15.9324 67.9409 15.6704 68.0652 15.3955C68.1895 15.1206 68.2593 14.8406 68.2747 14.5553L68.586 14.8663L69.4139 14.0374L63.8101 8.44059L62.8657 9.38623L64.4729 10.9914C64.2292 11.0279 63.9933 11.1058 63.7652 11.2252C63.5345 11.342 63.3142 11.5055 63.1044 11.7156C62.7079 12.1126 62.4593 12.5535 62.3585 13.0384C62.2602 13.5207 62.2981 14.0094 62.4722 14.5045C62.6462 14.9996 62.9459 15.4596 63.3714 15.8846C63.7917 16.3043 64.2482 16.6022 64.7409 16.7782C65.2336 16.9542 65.7211 16.9954 66.2033 16.9018C66.6855 16.8081 67.1196 16.568 67.5057 16.1815ZM66.8089 15.198C66.5654 15.4418 66.3036 15.582 66.0236 15.6185C65.741 15.6524 65.4571 15.6046 65.1718 15.4751C64.8891 15.3431 64.6193 15.1488 64.3625 14.8922C64.1083 14.6383 63.9162 14.3688 63.7864 14.0837C63.6566 13.7934 63.611 13.5069 63.6498 13.2243C63.6885 12.9365 63.8335 12.6667 64.0848 12.4151C64.4424 12.057 64.8286 11.9246 65.2435 12.0177C65.661 12.1081 66.0747 12.3581 66.4846 12.7675C66.8919 13.1743 67.1424 13.5877 67.236 14.0076C67.3296 14.4224 67.1872 14.8192 66.8089 15.198Z" fill="#7151DD"/>
</svg>
