<svg width="262" height="304" viewBox="0 0 262 304" fill="none" xmlns="http://www.w3.org/2000/svg">
<g clip-path="url(#clip0_24471_31983)">
<path d="M187.619 4.82694C217.319 2.54694 231.339 6.65694 232.229 11.8369C233.119 17.0169 211.369 25.7569 211.369 25.7569L187.619 4.82694Z" fill="#FF923F"/>
<path d="M123.429 41.0771C123.429 41.0771 109.949 56.7171 110.459 65.7371C110.969 74.7571 133.729 63.7071 133.729 63.7071L123.429 41.0771Z" fill="#F57100"/>
<path d="M81.8995 207.566C81.8995 207.566 81.0895 230.726 81.8995 234.236C82.7095 237.736 83.2495 260.636 86.7495 261.976C90.2495 263.326 113.42 268.976 114.76 257.666C116.11 246.356 107.49 244.466 107.49 244.466C107.49 244.466 97.7895 225.346 117.99 205.136C138.19 184.936 99.7595 179.276 99.7595 179.276L76.7695 189.776L81.8895 207.556L81.8995 207.566Z" fill="#F57100"/>
<path d="M44.9887 155.047C12.9387 165.017 1.89869 125.147 2.43869 123.267C2.97869 121.377 6.34869 123.267 6.34869 123.267C6.34869 123.267 4.59869 90.1368 16.3187 82.8668C20.2287 80.1768 19.6887 86.2368 19.6887 86.2368C19.6887 86.2368 31.1387 69.2668 53.2187 68.5968C75.3087 67.9268 73.6887 74.7968 73.6887 74.7968C73.6887 74.7968 82.7087 76.5468 94.2987 86.7868C105.879 97.0268 96.3187 95.6768 96.3187 95.6768C96.3187 95.6768 106.289 103.627 101.439 118.437C96.5887 133.247 45.0087 155.067 45.0087 155.067L44.9887 155.047Z" fill="#FF923F"/>
<path d="M92.6689 107.367C92.6689 107.367 87.0089 102.117 84.9889 102.787C82.9689 103.457 87.1389 108.987 87.1389 108.987C74.8789 108.587 62.8989 117.067 62.8989 117.067C62.8989 117.067 56.0289 109.257 46.1989 117.067C36.3689 124.877 51.3189 136.057 51.3189 136.057C51.3189 136.057 53.4089 143.917 55.3889 150.347C70.7189 143.117 97.9589 128.987 101.419 118.417C102.809 114.157 102.979 110.467 102.509 107.367C98.1589 106.527 92.6589 107.367 92.6589 107.367H92.6689Z" fill="#F57100"/>
<path d="M69.9692 70.4866C67.0992 69.2566 62.0592 68.3166 53.2092 68.5866C31.1192 69.2566 19.6792 86.2266 19.6792 86.2266C19.6792 86.2266 20.2192 80.1666 16.3092 82.8566C4.58921 90.1266 6.33921 123.257 6.33921 123.257C6.33921 123.257 2.96921 121.367 2.42921 123.257C2.00921 124.707 8.48921 148.757 26.1792 155.107C18.0792 149.097 11.7192 131.237 14.2492 129.727C16.7792 128.207 19.3992 130.337 19.3992 130.337C19.3992 130.337 16.4692 111.547 17.5792 110.137C18.6892 108.727 19.4992 110.137 19.4992 110.137C19.4992 110.137 20.3092 96.9066 24.3492 90.9466C28.3892 84.9866 31.5192 84.1766 31.4192 86.0966C31.4192 86.0966 46.1892 68.7166 69.9692 70.4866Z" fill="white"/>
<path d="M171.11 216.047C176.63 213.757 196.65 217.807 200.55 220.777C204.46 223.737 212.54 256.867 217.65 275.857C222.77 294.847 224.79 301.577 241.35 301.847C257.92 302.117 260.07 298.747 259.53 288.377C258.99 278.007 249.43 276.657 249.43 276.657C249.43 276.657 243.5 262.247 241.89 246.357C240.27 230.467 237.58 187.907 239.47 164.207C240.93 145.797 236.3 123.137 230.19 109.797C225.24 116.257 216.18 124.727 187.62 124.727C159.06 124.727 143.56 116.047 133.72 106.547C132.71 108.947 130.92 111.147 130.92 111.147C130.92 111.147 127.07 111.317 125.67 111.827C123.63 112.577 125.8 114.977 125.8 114.977C125.8 114.977 80.2797 103.337 50.1097 131.077C28.8997 150.587 27.9297 183.807 29.2197 201.817C29.9797 212.377 28.3297 222.977 24.1797 232.717C23.8597 233.467 23.5497 234.167 23.2497 234.777C20.2297 241.037 25.0597 262.857 23.6497 268.917C22.2397 274.977 24.4597 293.567 32.9397 292.957C41.4197 292.347 59.8097 295.787 61.6297 283.057C63.4497 270.327 57.7897 268.307 52.3397 266.087C50.9297 259.417 51.9397 235.987 62.6397 229.317C83.8497 219.217 89.6497 183.347 93.8897 182.337" fill="#FF923F"/>
<path d="M230.189 109.787C226.449 103.597 222.599 96.5667 223.859 89.4467C225.989 77.3967 225.119 55.1367 225.119 55.1367C225.119 55.1367 229.149 54.1767 231.199 52.2367C233.249 50.2967 226.209 46.5667 226.209 46.5667C226.209 46.5667 228.409 46.4767 229.749 44.9067C231.089 43.3367 206.209 7.19668 183.809 3.97668C161.409 0.756675 145.269 5.06668 131.859 21.6667C118.449 38.2667 118.089 56.3367 119.079 66.3567C120.069 76.3667 122.349 84.8767 124.119 85.4667C125.889 86.0567 128.249 85.6167 128.249 85.6167C128.249 85.6167 125.269 92.1867 127.559 93.7167C129.849 95.2467 132.719 95.3267 132.719 95.3267C132.719 95.3267 127.869 94.8567 126.419 96.7667C124.969 98.6767 131.689 105.297 139.559 105.197C139.559 105.197 147.789 122.237 187.609 122.237C227.429 122.237 230.179 109.777 230.179 109.777L230.189 109.787Z" fill="#FF923F"/>
<path d="M127.179 8.9467C142.969 -2.6333 153.959 14.2867 160.239 18.4167C166.939 22.8267 173.339 13.6667 185.069 14.7267C196.809 15.7867 204.129 35.6767 196.019 64.9167C187.909 94.1567 203.199 107.997 214.039 122.257C224.879 136.517 223.079 188.357 183.819 198.437C174.409 198.097 146.939 175.697 151.649 151.947C156.359 128.197 170.779 112.007 161.369 93.0267C155.899 83.9967 123.859 76.5967 120.749 61.6267C118.179 51.3367 123.439 47.3067 123.579 41.4467C123.709 35.5867 111.389 20.5367 127.179 8.9567V8.9467Z" fill="white"/>
<path d="M129.73 27.627C129.73 27.627 145.89 50.547 151.25 46.457C156.6 42.367 143.85 18.377 143.85 18.377C143.85 18.377 139.98 23.527 135.76 20.987C135.76 20.987 137.2 25.317 129.73 27.627Z" fill="#49250D"/>
<path d="M134.63 14.9967C133.31 17.0067 137.13 22.8767 141.52 19.6367C144.74 17.0167 142.32 15.4067 143.68 14.5267C145.1 13.6167 146.86 18.0567 142.79 21.2967C138.72 24.5367 136.36 22.0167 136.36 22.0167L131.75 14.5267L134.62 14.9967H134.63Z" fill="#49250D"/>
<path d="M130.899 17.2966C133.289 17.0266 136.809 23.0766 131.939 25.5466C128.149 27.2366 127.799 24.3566 126.399 25.1766C124.949 26.0366 128.119 29.5966 132.849 27.4266C137.579 25.2566 136.389 22.0066 136.389 22.0066L131.779 14.5166L130.899 17.2966Z" fill="#49250D"/>
<path d="M133.31 17.007C134.71 16.147 136.76 9.27695 136.75 6.90695C136.75 6.05695 136.46 5.41695 135.79 5.12695C133.09 5.53695 130.22 6.69695 127.17 8.93695C124.74 10.717 122.93 12.467 121.6 14.167C121.7 15.027 122.54 15.567 123.53 15.897C125.96 16.707 131.9 17.867 133.3 16.997L133.31 17.007Z" fill="#49250D"/>
<path d="M133.609 101.677C133.609 101.677 131.869 102.427 131.869 105.197C131.869 111.327 153.779 128.187 186.109 128.227C219.039 128.267 228.479 112.597 230.189 109.797C234.519 102.737 225.649 97.1966 224.719 98.7266C223.569 100.617 219.289 120.297 185.199 120.297C151.109 120.297 135.529 99.8666 133.619 101.677H133.609Z" fill="#944EEF"/>
<path d="M187.618 147.387C194.782 147.387 200.588 141.759 200.588 134.817C200.588 127.875 194.782 122.247 187.618 122.247C180.455 122.247 174.648 127.875 174.648 134.817C174.648 141.759 180.455 147.387 187.618 147.387Z" fill="#944EEF"/>
<path d="M194.919 132.737L186.549 141.107C185.919 141.737 184.909 141.737 184.279 141.107L178.869 135.697C178.479 135.307 178.479 134.667 178.869 134.277L180.119 133.027C180.509 132.637 181.149 132.637 181.539 133.027L185.409 136.897L192.239 130.067C192.629 129.677 193.269 129.677 193.659 130.067L194.909 131.317C195.299 131.707 195.299 132.347 194.909 132.737H194.919Z" fill="white"/>
<path d="M241.379 301.847C257.949 302.117 260.099 298.747 259.559 288.377C259.019 278.007 249.459 276.657 249.459 276.657C249.459 276.657 246.829 270.247 244.589 261.267C241.649 261.167 239.159 261.197 239.159 261.197C239.159 261.197 239.259 259.987 237.539 259.987C235.819 259.987 234.909 261.907 234.909 261.907C234.909 261.907 232.789 258.777 231.879 259.177C230.969 259.577 231.879 262.507 231.879 262.507C225.419 262.607 215.479 267.587 215.479 267.587C216.249 270.517 216.989 273.307 217.669 275.847C222.789 294.837 224.809 301.567 241.369 301.837L241.379 301.847Z" fill="white"/>
<path d="M50.8889 237.567C50.8889 237.567 50.2789 234.437 49.1689 234.637C48.0589 234.837 47.8589 236.587 47.8589 236.587C38.5689 235.917 27.2189 223.957 27.2189 223.957C26.4289 226.937 25.4389 229.867 24.2189 232.717C23.8989 233.467 23.5889 234.167 23.2889 234.777C20.2689 241.037 25.0989 262.857 23.6789 268.917C22.2689 274.977 24.4889 293.567 32.9689 292.957C41.4489 292.347 59.8389 295.787 61.6589 283.057C63.4789 270.327 57.8189 268.307 52.3689 266.087C51.3589 261.337 51.5889 248.087 55.6689 238.447C52.1089 239.037 50.8889 237.567 50.8889 237.567Z" fill="white"/>
<path d="M107.509 244.477C107.509 244.477 104.229 238.007 105.459 228.627C102.689 229.067 100.339 228.787 100.339 228.787C100.339 228.787 98.4486 227.267 95.7286 226.877C92.9986 226.487 92.9986 228.197 92.9986 228.197C92.9986 228.197 90.4686 226.857 89.6686 226.877C88.8586 226.887 89.1586 228.177 89.1586 228.177C84.7186 228.477 81.5586 225.557 81.5586 225.547C81.5586 229.597 81.6386 233.047 81.9186 234.237C82.7286 237.737 83.2686 260.637 86.7686 261.977C90.2686 263.327 113.439 268.977 114.779 257.667C116.129 246.357 107.509 244.467 107.509 244.467V244.477Z" fill="white"/>
<path d="M165.609 10.4365C165.609 10.4365 160.669 11.3365 160.229 16.0865" stroke="#49250D" stroke-width="2" stroke-miterlimit="10" stroke-linecap="round"/>
<path d="M120.068 169.637C141.908 143.237 184.148 161.717 183.868 183.777C183.588 205.837 164.508 225.237 151.968 233.667C142.198 240.237 123.778 248.537 117.948 233.457C111.888 217.767 122.848 212.597 128.658 207.127C128.658 207.127 102.448 190.937 120.058 169.647L120.068 169.637Z" fill="#FF923F"/>
<path d="M153.869 189.266C153.869 187.366 150.659 192.826 148.279 193.536C145.899 194.246 149.469 185.106 149.469 185.106C149.469 185.106 145.179 185.576 142.919 184.636C140.659 183.686 145.659 181.546 145.659 181.546C145.659 181.546 108.209 173.876 108.209 186.776C107.789 196.916 128.669 207.126 128.669 207.126C123.339 212.146 113.669 216.926 116.799 229.796C130.899 230.746 142.519 228.416 151.849 224.736L141.459 203.646C152.339 198.726 153.879 191.156 153.879 189.266H153.869Z" fill="#F57100"/>
<path d="M148.27 204.697C148.27 204.697 151.66 198.517 148.27 198.667C144.88 198.817 144.1 201.517 144.1 201.517C144.1 201.517 143.71 197.237 142.02 197.767C140.33 198.287 140.19 202.027 140.19 202.027C140.19 202.027 137.98 201.327 134.09 201.647C132.99 202.767 131.51 204.717 128.61 207.097C128.65 207.127 128.67 207.137 128.67 207.137C122.86 212.607 111.89 217.777 117.96 233.467C123.79 248.547 142.21 240.247 151.98 233.677C155.75 231.147 160.1 227.617 164.36 223.337C163.2 213.997 148.28 204.697 148.28 204.697H148.27Z" fill="white"/>
<path d="M171.04 2.98605C175.06 2.98605 179.31 3.32605 183.81 3.97605C185.08 4.15605 186.36 4.45605 187.63 4.84605L187.61 4.82605C193.37 4.38605 198.54 4.18605 203.14 4.18605C222.25 4.18605 231.5 7.66605 232.22 11.8361C232.88 15.6861 221.02 21.5161 214.9 24.2461C224.17 34.1561 230.43 44.1061 229.74 44.9161C228.4 46.4861 226.2 46.5761 226.2 46.5761C226.2 46.5761 233.23 50.3061 231.19 52.2461C229.15 54.1861 225.11 55.1461 225.11 55.1461C225.11 55.1461 225.98 77.4061 223.85 89.4561C223.3 92.5861 223.73 95.6961 224.71 98.7261C224.82 98.5561 225.02 98.4761 225.3 98.4761C227.48 98.4761 234.02 103.536 230.18 109.806C236.3 123.146 240.93 145.806 239.46 164.216C237.57 187.916 240.27 230.476 241.88 246.366C243.5 262.256 249.42 276.666 249.42 276.666C249.42 276.666 258.98 278.016 259.52 288.386C260.04 298.376 258.06 301.866 243.09 301.866C242.53 301.866 241.94 301.866 241.34 301.856C224.77 301.586 222.75 294.856 217.64 275.866C212.52 256.876 204.44 223.746 200.54 220.786C197.44 218.426 184.16 215.386 176.06 215.386C173.97 215.386 172.23 215.586 171.09 216.056L170.88 215.966C164.82 223.646 157.7 229.816 151.95 233.686C146.23 237.526 137.56 241.966 130.17 241.966C124.93 241.966 120.35 239.736 117.93 233.476C117.43 232.186 117.06 230.976 116.78 229.816C116.68 229.416 116.6 229.026 116.52 228.636C116.52 228.636 116.52 228.636 116.52 228.626C114.5 217.976 121.57 213.126 126.79 208.766C126.84 208.726 126.88 208.686 126.93 208.656C127.07 208.546 127.2 208.426 127.33 208.316C127.4 208.256 127.47 208.196 127.54 208.136C127.67 208.026 127.79 207.916 127.91 207.806C127.97 207.746 128.04 207.696 128.11 207.636C128.28 207.476 128.45 207.326 128.62 207.166C128.62 207.166 128.64 207.146 128.65 207.136C128.65 207.136 124.83 205.266 120.49 202.336C119.78 203.246 118.94 204.186 117.97 205.156C97.7702 225.356 107.47 244.486 107.47 244.486C107.47 244.486 116.09 246.376 114.74 257.686C114.1 263.056 108.55 264.606 102.52 264.606C95.8402 264.606 88.5702 262.706 86.7302 261.996C83.2302 260.646 82.6902 237.756 81.8802 234.256C81.1502 231.076 81.7402 211.716 81.8602 208.156C77.3902 216.766 71.3002 225.206 62.6202 229.346C51.9102 236.016 50.9002 259.446 52.3202 266.116C57.7702 268.336 63.4302 270.356 61.6102 283.086C60.3402 291.996 50.9502 292.986 42.5202 292.986C40.1102 292.986 37.7802 292.906 35.7402 292.906C34.7202 292.906 33.7702 292.926 32.9202 292.986C32.7802 292.986 32.6502 292.996 32.5202 292.996C24.3702 292.996 22.2402 274.906 23.6302 268.946C25.0402 262.886 20.2102 241.066 23.2302 234.806C23.5302 234.186 23.8402 233.496 24.1602 232.746C28.3102 223.006 29.9602 212.406 29.2002 201.846C28.3802 190.436 28.4802 172.926 34.0502 156.656C31.2102 156.556 28.5802 156.016 26.1702 155.146C15.1102 151.176 8.44023 140.296 5.09023 132.346C4.76023 131.556 4.46023 130.796 4.19023 130.076C4.19023 130.066 4.19023 130.056 4.18023 130.046C3.92023 129.336 3.69023 128.666 3.48023 128.036C3.48023 128.016 3.47023 127.996 3.46023 127.976C3.36023 127.666 3.27023 127.376 3.18023 127.086C3.18023 127.076 3.18023 127.066 3.18023 127.056C3.10023 126.786 3.03023 126.526 2.96023 126.286C2.96023 126.266 2.95023 126.246 2.94023 126.216C2.87023 125.966 2.81023 125.736 2.76023 125.516C2.76023 125.486 2.75023 125.456 2.74023 125.426C2.69023 125.226 2.65023 125.036 2.61023 124.866C2.61023 124.846 2.61023 124.826 2.60023 124.816C2.56023 124.636 2.53023 124.466 2.50023 124.316C2.50023 124.286 2.49023 124.256 2.49023 124.226C2.47023 124.086 2.45023 123.966 2.44023 123.856C2.44023 123.846 2.44023 123.836 2.44023 123.826C2.43023 123.716 2.42023 123.616 2.42023 123.536C2.42023 123.516 2.42023 123.496 2.42023 123.486C2.42023 123.416 2.42023 123.346 2.44023 123.306C2.51023 123.066 2.62023 122.896 2.76023 122.766C2.88023 122.656 3.02023 122.596 3.18023 122.546C3.31023 122.506 3.44023 122.476 3.58023 122.476C3.62023 122.476 3.65023 122.476 3.69023 122.476C4.85023 122.476 6.34023 123.316 6.34023 123.316C6.34023 123.316 6.26023 121.726 6.25023 119.176C6.25023 118.436 6.25023 117.616 6.27023 116.736C6.28023 115.866 6.31023 114.946 6.34023 113.966C6.43023 111.496 6.61023 108.716 6.93023 105.836C7.96023 96.646 10.4502 86.5461 16.3102 82.9061C17.0202 82.4161 17.5702 82.2261 18.0202 82.2261C18.1702 82.2261 18.3002 82.2461 18.4202 82.2861C19.6002 82.6561 19.7202 84.7361 19.7002 85.7361C19.7002 86.0661 19.6802 86.2761 19.6802 86.2761C19.6802 86.2761 20.5902 84.9361 22.3802 82.9861C22.5802 82.7661 22.7902 82.5461 23.0102 82.3161C23.3402 81.9761 23.7102 81.6061 24.0902 81.2361C24.4702 80.8661 24.8702 80.4861 25.3002 80.0961C25.5902 79.8361 25.8802 79.576 26.1902 79.3061C31.4302 74.7961 39.8002 69.6161 51.1802 68.7361C51.8502 68.6861 52.5302 68.646 53.2202 68.6261C53.8502 68.6061 54.4602 68.5961 55.0502 68.5861C55.2402 68.5861 55.4202 68.5861 55.6102 68.5861C55.8102 68.5861 56.0102 68.5861 56.2102 68.5861C56.4102 68.5861 56.6002 68.5861 56.8002 68.5861C57.0002 68.5861 57.1902 68.5861 57.3802 68.5861C57.7602 68.5861 58.1202 68.5961 58.4802 68.6061C58.6502 68.6061 58.8202 68.606 58.9802 68.6161C59.4402 68.636 59.8902 68.6561 60.3302 68.6761C60.3702 68.6761 60.4202 68.6761 60.4602 68.6761C60.9202 68.7061 61.3602 68.7361 61.7902 68.7761C61.9502 68.7861 62.1102 68.8061 62.2702 68.8161C62.5402 68.8461 62.8002 68.8661 63.0602 68.8961C63.2302 68.9161 63.4002 68.9361 63.5702 68.9561C63.8002 68.9861 64.0302 69.0161 64.2502 69.0461C64.4102 69.066 64.5702 69.0861 64.7302 69.1161C64.9602 69.1561 65.1902 69.1861 65.4102 69.2261C65.6402 69.2661 65.8602 69.3061 66.0702 69.3461C66.2702 69.3861 66.4702 69.4261 66.6702 69.4661C66.8302 69.5061 66.9902 69.536 67.1402 69.576C67.2702 69.606 67.4102 69.6361 67.5402 69.6761C67.7002 69.7161 67.8502 69.7561 68.0002 69.8061C68.1102 69.8361 68.2102 69.8661 68.3202 69.8961C68.4702 69.9461 68.6302 69.9861 68.7702 70.0361C68.8402 70.0561 68.9002 70.0861 68.9702 70.1061C69.3302 70.2261 69.6602 70.3561 69.9702 70.4861C69.9702 70.4861 69.9702 70.4861 69.9802 70.4861C74.2602 72.3161 73.6902 74.7861 73.6902 74.7861C73.6902 74.7861 82.7102 76.5361 94.3002 86.7761C103.47 94.8761 99.3902 95.7261 97.2902 95.7261C96.7402 95.7261 96.3202 95.6661 96.3202 95.6661C96.3202 95.6661 101.37 99.7061 102.53 107.376C102.7 108.516 102.79 109.736 102.76 111.036C102.76 111.126 102.76 111.216 102.75 111.306C102.74 111.636 102.72 111.966 102.69 112.296C102.69 112.386 102.68 112.466 102.67 112.556C102.83 112.556 103 112.556 103.16 112.556C116.33 112.556 125.82 114.976 125.82 114.976C125.82 114.976 123.65 112.576 125.69 111.826C127.09 111.316 130.94 111.146 130.94 111.146C130.94 111.146 132.03 109.806 132.98 108.076C132.26 106.976 131.88 105.986 131.88 105.196C131.88 104.456 132.01 103.876 132.19 103.396C128.07 101.316 125.48 98.0361 126.44 96.7761C127.41 95.4961 129.91 95.2861 131.45 95.2861C131.84 95.2861 132.17 95.2961 132.4 95.3161C131.58 95.2461 129.4 94.9361 127.59 93.7261C125.3 92.1961 128.28 85.6261 128.28 85.6261C128.28 85.6261 127.44 85.7761 126.39 85.7761C125.68 85.7761 124.87 85.7061 124.15 85.4661C122.52 84.9261 120.48 77.7361 119.38 68.8361C117.98 69.1161 116.63 69.2961 115.43 69.2961C112.64 69.2961 110.63 68.3661 110.48 65.7561C110.13 59.4761 116.54 50.0061 120.47 44.8161C121.04 42.4461 121.77 40.0161 122.71 37.5461C120.24 30.3761 114.18 18.4861 127.19 8.94605C131.1 6.07606 134.71 4.95605 138.03 4.95605C141.66 4.95605 144.94 6.29605 147.87 8.14605C154.75 4.57605 162.38 2.98605 171.05 2.98605M171.05 0.986055C162.26 0.986055 154.69 2.58606 147.96 5.86606C144.59 3.90605 141.33 2.95605 138.03 2.95605C134.01 2.95605 129.96 4.42605 126.01 7.32606C112.99 16.8761 117.43 28.9261 120.08 36.1261C120.26 36.6061 120.43 37.0661 120.59 37.5161C119.82 39.6061 119.16 41.7561 118.63 43.9261C113.74 50.4261 108.12 59.3761 108.49 65.8561C108.58 67.4861 109.44 71.2861 115.44 71.2861C116.13 71.2861 116.88 71.2361 117.68 71.1361C118.2 74.7761 118.89 78.1661 119.65 80.8361C121.11 85.9461 122.43 87.0061 123.53 87.3661C124.08 87.5461 124.69 87.6661 125.36 87.7261C124.67 90.036 124.26 92.9661 125.72 94.7061C125.38 94.9561 125.09 95.2461 124.85 95.5661C124.29 96.2961 124.11 97.2561 124.34 98.2661C124.8 100.276 126.98 102.636 129.92 104.426C129.89 104.676 129.88 104.936 129.88 105.196C129.88 106.076 130.14 107.036 130.66 108.066C130.38 108.506 130.11 108.896 129.89 109.206C128.53 109.296 126.21 109.506 124.99 109.956C123.51 110.496 123.04 111.576 122.9 112.166C122.89 112.216 122.88 112.266 122.87 112.316C119.16 111.626 112.72 110.686 104.77 110.576C104.77 109.446 104.69 108.326 104.54 107.236L104.53 107.146C104.53 107.126 104.53 107.106 104.53 107.086L104.48 106.776C103.76 102.436 101.92 99.1861 100.33 97.0561C101.23 96.5461 101.65 95.8361 101.84 95.3361C102.75 92.9361 100.9 89.9261 95.6502 85.2861C86.3802 77.0961 78.6602 74.1461 75.5602 73.2161C75.1102 71.7161 73.8002 69.9461 70.8002 68.6661H70.7702L70.7602 68.6461C70.4202 68.4961 70.0602 68.3661 69.6602 68.2261L69.6002 68.2061L69.4402 68.1461C69.2802 68.0961 69.1102 68.0461 68.9402 67.9961C68.8202 67.9561 68.7002 67.9261 68.5802 67.8861C68.4202 67.8361 68.2502 67.7961 68.0702 67.7461C67.9302 67.7061 67.7802 67.6761 67.6402 67.6361L67.5702 67.6161C67.4302 67.5861 67.2802 67.5461 67.1302 67.5161C66.9402 67.4761 66.7502 67.4361 66.5502 67.3961H66.4902C66.2602 67.3361 66.0302 67.2961 65.7802 67.2561C65.5402 67.216 65.3102 67.1761 65.0602 67.1361C64.9302 67.1161 64.7902 67.096 64.6502 67.076H64.5602C64.3302 67.026 64.0902 66.9961 63.8402 66.9661C63.6702 66.9461 63.4902 66.926 63.3102 66.9061C63.0402 66.8761 62.7702 66.846 62.4902 66.826H62.3402L62.0002 66.7761C61.5502 66.7361 61.0902 66.7061 60.6202 66.6761H60.5202C60.0402 66.6461 59.5702 66.6261 59.0902 66.6061H58.7402L58.5802 66.5861C58.2102 66.576 57.8402 66.5661 57.4502 66.5561H56.8502H56.2502H55.6402H55.4602H55.0702C54.4702 66.5661 53.8502 66.5761 53.2002 66.5961C52.4902 66.6161 51.7702 66.6561 51.0702 66.7061C39.0002 67.6461 30.1902 73.2361 24.9302 77.7561C24.6102 78.036 24.3002 78.3061 24.0002 78.576C23.5502 78.9861 23.1402 79.3761 22.7402 79.7661C22.3402 80.1561 21.9602 80.5261 21.6202 80.8861C21.3902 81.1261 21.1702 81.356 20.9602 81.5861C20.9202 81.6261 20.8802 81.6661 20.8502 81.7061C20.3002 80.8661 19.6002 80.496 19.0802 80.326C18.7602 80.2261 18.4202 80.1761 18.0802 80.1761C17.1902 80.1761 16.2702 80.5061 15.2802 81.1861C9.90023 84.5561 6.44023 92.7561 5.01023 105.566C4.72023 108.176 4.52023 110.966 4.41023 113.836C4.37023 114.826 4.35023 115.766 4.33023 116.646C4.32023 117.546 4.31023 118.376 4.31023 119.126C4.31023 119.606 4.31023 120.046 4.32023 120.456C4.13023 120.436 3.94023 120.416 3.75023 120.416C3.68023 120.416 3.61023 120.416 3.55023 120.416C3.25023 120.426 2.96023 120.486 2.66023 120.576C2.21023 120.716 1.81023 120.926 1.49023 121.226C1.05023 121.616 0.750234 122.116 0.580234 122.706C0.500234 122.986 0.490234 123.226 0.490234 123.406V123.506C0.490234 123.656 0.500234 123.806 0.520234 123.986V124.016L0.530234 124.066C0.540234 124.166 0.560234 124.316 0.590234 124.496L0.610234 124.606C0.640234 124.776 0.680234 124.966 0.720234 125.176V125.226C0.760234 125.426 0.810234 125.636 0.860234 125.846L0.890234 125.956C0.940234 126.176 1.01023 126.426 1.08023 126.686L1.10023 126.766C1.17023 127.016 1.25023 127.296 1.33023 127.576C1.43023 127.906 1.53023 128.216 1.63023 128.536L1.65023 128.596C1.87023 129.276 2.11023 129.976 2.37023 130.686C2.65023 131.446 2.95023 132.196 3.26023 132.946L3.31023 133.076C6.26023 140.086 13.0702 152.506 25.5602 156.986H25.5802L25.6602 157.016C27.5302 157.676 29.4602 158.136 31.4402 158.396C26.5802 174.146 26.4702 190.646 27.2802 201.946C28.0202 212.306 26.3302 222.676 22.3902 231.916C22.0702 232.666 21.7702 233.326 21.5002 233.896C19.5202 237.996 20.3802 246.736 21.2002 255.186C21.7302 260.596 22.2702 266.186 21.7502 268.456C20.6402 273.216 21.4902 285.616 26.2202 291.576C27.9802 293.796 30.1802 294.966 32.5902 294.966C32.7702 294.966 32.9502 294.966 33.1302 294.946C33.8502 294.896 34.7002 294.866 35.8002 294.866C36.7702 294.866 37.8002 294.886 38.8702 294.906C40.0602 294.926 41.3102 294.946 42.5702 294.946C48.3802 294.946 61.9802 294.946 63.6402 283.326C65.5602 269.906 59.4402 266.816 54.1502 264.636C53.1202 257.236 54.6302 236.796 63.6402 231.056C69.6402 228.166 74.9302 223.186 79.6902 215.906C79.5202 223.396 79.4502 232.366 79.9802 234.666C80.1702 235.506 80.3902 238.196 80.6302 241.046C81.8602 256.116 82.8902 262.606 86.0602 263.826C87.8902 264.526 95.4902 266.566 102.57 266.566C113.46 266.566 116.31 261.846 116.78 257.886C117.9 248.436 112.64 244.086 108.97 242.796C107.49 239.176 102.55 223.436 119.44 206.546C119.97 206.016 120.47 205.486 120.94 204.956C122.55 205.986 124.03 206.856 125.2 207.506C124.94 207.716 124.69 207.926 124.44 208.126C119.41 212.256 112.52 217.906 114.62 228.956C114.7 229.386 114.79 229.816 114.9 230.246C115.22 231.556 115.62 232.836 116.13 234.146C118.6 240.536 123.48 243.916 130.24 243.916C139.33 243.916 149.28 237.886 153.13 235.296C159.77 230.836 166.59 224.506 171.97 217.836C172.47 217.636 173.64 217.336 176.12 217.336C184.02 217.336 196.73 220.316 199.39 222.326C202.17 224.676 209.21 251.436 212.99 265.816C213.98 269.586 214.92 273.156 215.78 276.336C220.81 294.996 223.1 303.516 241.38 303.806C241.99 303.816 242.59 303.826 243.17 303.826C251.73 303.826 256.31 302.686 258.95 299.906C261.51 297.206 261.86 293.296 261.6 288.236C261.15 279.626 255 275.916 250.97 274.876C249.65 271.396 245.28 259.186 243.95 246.116C242.2 228.946 239.7 187.316 241.53 164.326C243.04 145.326 238.18 122.816 232.49 109.836C233.83 107.076 233.76 104.136 232.26 101.466C230.9 99.0361 228.36 96.9961 226.25 96.5261C225.64 94.0961 225.53 91.8661 225.9 89.7561C227.74 79.356 227.4 61.9061 227.24 56.5861C228.79 56.0761 231.1 55.1161 232.64 53.6561C233.4 52.9361 233.74 51.9761 233.6 50.9561C233.4 49.4761 232.09 48.0661 230.59 46.9061C230.85 46.6961 231.1 46.4461 231.33 46.1761C232.27 45.0761 232.56 43.7661 227.78 36.8261C226.18 34.4961 222.95 30.0661 218.31 24.8861C221.12 23.5661 224.42 21.8861 227.25 20.1261C232.57 16.8061 234.74 14.1361 234.28 11.4661C233.25 5.45605 222.22 2.15605 203.23 2.15605C198.54 2.15605 193.37 2.36605 187.88 2.77605C186.57 2.40605 185.35 2.13605 184.18 1.96605C179.45 1.28605 175.18 0.956055 171.12 0.956055L171.05 0.986055Z" fill="#49250D"/>
</g>
<defs>
<clipPath id="clip0_24471_31983">
<rect width="261.19" height="302.87" fill="white" transform="translate(0.419922 0.986328)"/>
</clipPath>
</defs>
</svg>
