<svg width="171" height="195" viewBox="0 0 171 195" fill="none" xmlns="http://www.w3.org/2000/svg">
<g clip-path="url(#clip0_1379_559)">
<path d="M13.4146 41.5166C13.4146 42.392 12.7082 43.0969 11.8312 43.0969C10.9541 43.0969 10.2478 42.392 10.2478 41.5166V31.5002C10.2478 30.6308 10.9541 29.9199 11.8312 29.9199C12.7082 29.9199 13.4146 30.6249 13.4146 31.5002V41.5166Z" fill="#FFB171"/>
<path d="M6.81019 38.0922C5.93315 38.0922 5.22681 37.3873 5.22681 36.5119C5.22681 35.6366 5.93315 34.9316 6.81019 34.9316H16.8462C17.7232 34.9316 18.4296 35.6366 18.4296 36.5119C18.4296 37.3873 17.7232 38.0922 16.8462 38.0922H6.81019Z" fill="#FFB171"/>
<path d="M141.592 42.0804C141.592 43.2964 140.603 44.2834 139.385 44.2834C138.166 44.2834 137.177 43.2964 137.177 42.0804V28.1161C137.177 26.9 138.166 25.9131 139.385 25.9131C140.603 25.9131 141.592 26.9 141.592 28.1161V42.0804Z" fill="#FFB171"/>
<path d="M132.386 37.2986C131.168 37.2986 130.179 36.3117 130.179 35.0956C130.179 33.8795 131.168 32.8926 132.386 32.8926H146.378C147.596 32.8926 148.585 33.8795 148.585 35.0956C148.585 36.3117 147.596 37.2986 146.378 37.2986H132.386Z" fill="#FFB171"/>
<path d="M5.83916 65.8556C5.83916 66.4783 5.33295 66.9836 4.70901 66.9836C4.08507 66.9836 3.57886 66.4783 3.57886 65.8556V58.7119C3.57886 58.0892 4.08507 57.584 4.70901 57.584C5.33295 57.584 5.83916 58.0892 5.83916 58.7119V65.8556Z" fill="#974EF2"/>
<path d="M1.13015 63.4063C0.506213 63.4063 0 62.9011 0 62.2783C0 61.6556 0.506213 61.1504 1.13015 61.1504H8.28777C8.91171 61.1504 9.41792 61.6556 9.41792 62.2783C9.41792 62.9011 8.91171 63.4063 8.28777 63.4063H1.13015Z" fill="#974EF2"/>
<path d="M167.421 84.3322C167.421 84.9549 166.915 85.4601 166.291 85.4601C165.667 85.4601 165.161 84.9549 165.161 84.3322V77.1885C165.161 76.5658 165.667 76.0605 166.291 76.0605C166.915 76.0605 167.421 76.5658 167.421 77.1885V84.3322Z" fill="#15B6CC"/>
<path d="M162.712 81.8887C162.088 81.8887 161.582 81.3835 161.582 80.7608C161.582 80.138 162.088 79.6328 162.712 79.6328H169.87C170.494 79.6328 171 80.138 171 80.7608C171 81.3835 170.494 81.8887 169.87 81.8887H162.712Z" fill="#15B6CC"/>
<path d="M91.3243 8.27162C91.3243 8.89435 90.8181 9.39957 90.1941 9.39957C89.5702 9.39957 89.064 8.89435 89.064 8.27162V1.12795C89.064 0.505227 89.5702 0 90.1941 0C90.8181 0 91.3243 0.505227 91.3243 1.12795V8.27162Z" fill="#974EF2"/>
<path d="M86.6153 5.82816C85.9913 5.82816 85.4851 5.32294 85.4851 4.70021C85.4851 4.07749 85.9913 3.57227 86.6153 3.57227H93.7729C94.3968 3.57227 94.903 4.07749 94.903 4.70021C94.903 5.32294 94.3968 5.82816 93.7729 5.82816H86.6153Z" fill="#974EF2"/>
<path d="M39.4611 12.6009C39.4611 13.1178 39.0432 13.5291 38.5311 13.5291C38.0131 13.5291 37.5952 13.112 37.5952 12.6009V6.70262C37.5952 6.19152 38.0131 5.77441 38.5311 5.77441C39.0432 5.77441 39.4611 6.19152 39.4611 6.70262V12.6009Z" fill="#15B6CC"/>
<path d="M35.5704 10.58C35.0583 10.58 34.6404 10.1629 34.6404 9.65184C34.6404 9.13486 35.0583 8.72363 35.5704 8.72363H41.4801C41.9922 8.72363 42.4102 9.14074 42.4102 9.65184C42.4102 10.1629 41.9922 10.58 41.4801 10.58H35.5704Z" fill="#15B6CC"/>
<g style="mix-blend-mode:multiply">
<path d="M145.536 178.593C145.536 187.652 116.517 195.001 80.7175 195.001C44.9177 195.001 15.8987 187.657 15.8987 178.593C15.8987 169.528 44.9177 162.185 80.7175 162.185C116.517 162.185 145.536 169.528 145.536 178.593Z" fill="#DDDDDD"/>
</g>
<path d="M124.14 87.9919C123.587 82.0408 104.356 77.2588 80.7175 77.2588C57.0785 77.2588 37.8483 82.0408 37.295 87.9919H37.2832V172.882C37.2832 178.956 56.7312 183.879 80.7175 183.879C104.704 183.879 124.152 178.956 124.152 172.882V87.9919H124.14Z" fill="#7C7C7C"/>
<path d="M124.14 79.0456C123.587 73.0945 104.356 68.3125 80.7175 68.3125C57.0785 68.3125 37.8483 73.0945 37.295 79.0456H37.2832V99.3487C37.2832 105.423 56.7312 110.346 80.7175 110.346C104.704 110.346 124.152 105.423 124.152 99.3487V79.0456H124.14Z" fill="#FFB171"/>
<g style="mix-blend-mode:screen" opacity="0.3">
<path d="M64.3184 183.339L48.0725 179.515V92.3281L64.3184 95.5122V183.339Z" fill="#D1D1D1"/>
</g>
<path d="M80.7174 186.153C68.9332 186.153 57.826 184.984 49.444 182.863C39.8613 180.437 34.9993 177.076 34.9993 172.882V85.7126H35.6526C37.2949 82.6284 42.0392 80.1023 49.7972 78.1812C58.1379 76.1192 69.1157 74.9795 80.7174 74.9795C92.3191 74.9795 103.297 76.1192 111.638 78.1812C119.396 80.1023 124.14 82.6284 125.782 85.7126H126.424L126.436 87.992V172.882C126.436 177.082 121.573 180.437 111.991 182.863C103.609 184.984 92.5016 186.153 80.7174 186.153ZM39.5611 88.2329V172.876C39.5611 173.651 41.5388 176.16 50.5624 178.445C58.5912 180.478 69.2982 181.594 80.7174 181.594C92.1366 181.594 102.844 180.478 110.872 178.445C119.896 176.16 121.874 173.651 121.874 172.876V88.2035C121.797 87.4104 119.619 84.8549 110.543 82.6049C102.555 80.6251 91.9659 79.5383 80.7233 79.5383C69.4806 79.5383 58.8914 80.6251 50.9038 82.6049C41.8273 84.8549 39.6494 87.4046 39.5728 88.2035V88.2388L39.5611 88.2329Z" fill="#070707"/>
<path d="M80.7174 112.62C68.9332 112.62 57.826 111.451 49.444 109.33C39.8613 106.904 34.9993 103.543 34.9993 99.3488V76.7663H35.6526C37.2949 73.6821 42.0392 71.156 49.7972 69.2349C58.1379 67.1729 69.1157 66.0332 80.7174 66.0332C92.3191 66.0332 103.297 67.1729 111.638 69.2349C119.396 71.156 124.14 73.6821 125.782 76.7663H126.424L126.436 79.0457V99.3488C126.436 103.549 121.573 106.904 111.991 109.33C103.609 111.451 92.5016 112.62 80.7174 112.62ZM39.5611 79.2866V99.3488C39.5611 100.124 41.5388 102.633 50.5624 104.918C58.5912 106.951 69.2982 108.067 80.7174 108.067C92.1366 108.067 102.844 106.951 110.872 104.918C119.896 102.633 121.874 100.124 121.874 99.3488V79.2572C121.797 78.4641 119.619 75.9086 110.543 73.6586C102.555 71.6788 91.9659 70.592 80.7233 70.592C69.4806 70.592 58.8914 71.6788 50.9038 73.6586C41.8273 75.9086 39.6494 78.4583 39.5728 79.2572V79.2925L39.5611 79.2866Z" fill="#070707"/>
<path d="M80.7176 93.7266C114.159 93.7266 141.269 86.8644 141.269 78.3994C141.269 69.9345 114.159 63.0723 80.7176 63.0723C47.276 63.0723 20.1663 69.9345 20.1663 78.3994C20.1663 86.8644 47.276 93.7266 80.7176 93.7266Z" fill="#7C7C7C"/>
<path d="M80.7175 96.0002C49.4971 96.0002 17.8882 89.9551 17.8882 78.3995C17.8882 66.8439 49.4971 60.7988 80.7175 60.7988C111.938 60.7988 143.547 66.8439 143.547 78.3995C143.547 89.9551 111.938 96.0002 80.7175 96.0002ZM80.7175 65.3517C64.7306 65.3517 49.7208 66.9203 38.4663 69.7695C26.6468 72.7598 22.4559 76.2905 22.4559 78.3995C22.4559 80.5086 26.6468 84.0393 38.4663 87.0295C49.7266 89.8788 64.7306 91.4473 80.7175 91.4473C96.7044 91.4473 111.714 89.8788 122.969 87.0295C134.788 84.0393 138.979 80.5086 138.979 78.3995C138.979 76.2905 134.788 72.7598 122.969 69.7695C111.708 66.9203 96.7044 65.3517 80.7175 65.3517Z" fill="#070707"/>
<path d="M124.14 77.8529C124.14 83.2988 104.698 87.7166 80.7177 87.7166C56.7373 87.7166 37.2952 83.2988 37.2952 77.8529C37.2952 72.4071 56.7373 67.9893 80.7177 67.9893C104.698 67.9893 124.14 72.4071 124.14 77.8529Z" fill="#444444"/>
<path d="M47.3957 82.118C47.3957 76.6721 66.8378 72.2543 90.8182 72.2543C103.491 72.2543 114.899 73.488 122.839 75.456C118.118 71.1675 101.048 67.9951 80.7116 67.9951C56.7312 67.9951 37.2891 72.4129 37.2891 77.8588C37.2891 80.4261 41.6095 82.7642 48.6906 84.5207C47.843 83.7511 47.3898 82.9463 47.3898 82.118H47.3957Z" fill="#070707"/>
<mask id="mask0_1379_559" style="mask-type:alpha" maskUnits="userSpaceOnUse" x="38" y="14" width="88" height="74">
<path d="M125.172 77.444C125.172 82.8898 105.73 87.3076 81.7499 87.3076C57.7695 87.3076 38.3274 82.8898 38.3274 77.444C38.3274 71.9981 43.7314 14.0264 67.7118 14.0264C125.172 14.0264 125.172 71.9981 125.172 77.444Z" fill="#444444"/>
</mask>
<g mask="url(#mask0_1379_559)">
<path d="M91.5461 65.7432C84.4888 64.8826 77.4317 64.9254 70.3743 65.7432C67.9218 61.5035 58.161 49.7285 53.7919 49.7285C51.9346 49.7285 50.429 51.2311 50.429 53.085L43.5429 104.48C41.6454 118.644 65.8672 133.858 81.0128 133.858C96.1587 133.858 120.38 118.644 118.482 104.48L111.597 53.085C111.597 51.2311 110.091 49.7285 108.234 49.7285C103.864 49.7285 93.9987 61.5037 91.5461 65.7432Z" fill="url(#paint0_linear_1379_559)"/>
<path d="M109.268 122.014C115.296 116.833 119.297 110.561 118.482 104.48C116.187 87.3484 113.892 70.2168 111.597 53.085C111.597 51.2311 110.091 49.7285 108.234 49.7285C103.864 49.7285 93.9986 61.5035 91.546 65.7432C87.8352 70.6582 83.9748 76.01 81.0127 83.5675C79.0854 88.4846 80.1456 93.9929 81.0127 101.722C81.0127 113.789 90.996 128.315 109.268 122.014Z" fill="url(#paint1_linear_1379_559)"/>
<path fill-rule="evenodd" clip-rule="evenodd" d="M107.546 59.1296C108.063 63.1656 108.303 64.7662 108.599 68.0457C108.706 69.2295 108.912 69.9682 107.715 69.6522C104.463 68.7945 102.884 68.3768 99.6317 67.5188C98.1852 67.1372 97.0572 67.1888 97.9065 66.0077C100.082 62.9825 102.335 60.2632 105.415 57.9852C106.947 56.8529 107.315 57.3315 107.546 59.1296ZM54.4798 59.1296C53.9628 63.1656 53.7224 64.7662 53.4261 68.0457C53.319 69.2295 53.1138 69.9682 54.3108 69.6522C57.5623 68.7945 59.1419 68.3768 62.3939 67.5188C63.8404 67.1372 64.9684 67.1888 64.1191 66.0077C61.944 62.9825 59.6908 60.2632 56.6102 57.9852C55.0786 56.8529 54.7101 57.3315 54.4798 59.1296Z" fill="#FDFDFD"/>
</g>
</g>
<defs>
<linearGradient id="paint0_linear_1379_559" x1="81.0127" y1="132.694" x2="81.0127" y2="49.3877" gradientUnits="userSpaceOnUse">
<stop stop-color="#FCAE75"/>
<stop offset="1" stop-color="#974EF2"/>
</linearGradient>
<linearGradient id="paint1_linear_1379_559" x1="99.2584" y1="124.723" x2="99.2584" y2="50.049" gradientUnits="userSpaceOnUse">
<stop stop-color="#FFC698"/>
<stop offset="1" stop-color="#BD87E9"/>
</linearGradient>
<clipPath id="clip0_1379_559">
<rect width="171" height="195" fill="white"/>
</clipPath>
</defs>
</svg>
