<svg width="218" height="38" viewBox="0 0 218 38" fill="none" xmlns="http://www.w3.org/2000/svg">
<path d="M0.390625 36.9949V0.757929H15.6903C16.0491 0.757929 16.5277 0.757927 17.1248 0.797839C17.7029 0.817601 18.2408 0.877276 18.7185 0.956711C20.871 1.29577 22.6434 2.01262 24.0376 3.08868C25.4132 4.18412 26.4288 5.55855 27.0864 7.21235C27.744 8.86655 28.0625 10.699 28.0625 12.731C28.0625 14.763 27.744 16.5954 27.0864 18.2485C26.4091 19.9019 25.3923 21.2763 24.0186 22.3729C22.6241 23.4684 20.8505 24.1655 18.7189 24.5049C18.2411 24.5847 17.7033 24.6242 17.1058 24.6638C16.4881 24.7041 16.0297 24.7041 15.6907 24.7041H7.24379V36.9952H0.390625V36.9949ZM7.24379 18.3291H15.3919C15.7507 18.3291 16.1289 18.3085 16.5467 18.2686C16.9655 18.2287 17.3445 18.1694 17.7025 18.0695C18.6193 17.8102 19.3358 17.3925 19.8341 16.7946C20.3522 16.1971 20.6905 15.5399 20.8896 14.8025C21.0892 14.0845 21.169 13.3874 21.169 12.7306C21.169 12.073 21.0892 11.3756 20.8896 10.6583C20.6905 9.9213 20.3522 9.26334 19.8341 8.66622C19.3358 8.06793 18.6193 7.64983 17.7025 7.39099C17.3441 7.29063 16.9651 7.23212 16.5467 7.19221C16.1289 7.17129 15.7507 7.15152 15.3919 7.15152H7.24379V18.3291ZM44.4177 37.7516C41.6293 37.7516 39.1784 37.1348 37.0666 35.939C34.935 34.7432 33.2812 33.0901 32.0866 30.9779C30.8912 28.887 30.2731 26.4764 30.2731 23.747C30.2731 20.7784 30.8706 18.2086 32.0467 15.9968C33.2219 13.8055 34.835 12.0928 36.8876 10.8772C38.9595 9.6613 41.3302 9.06417 44.019 9.06417C46.8686 9.06417 49.2985 9.72174 51.2914 11.0764C53.2831 12.4105 54.7575 14.3034 55.7142 16.7338C56.6698 19.1641 57.0088 22.0331 56.7302 25.3206H53.4226H49.9561H37.6451C37.8645 26.9341 38.3821 28.269 39.1788 29.2652C40.275 30.6602 41.8878 31.3569 44.0193 31.3569C45.355 31.3569 46.5101 31.0581 47.4665 30.4804C48.4232 29.8825 49.1396 29.0463 49.6577 27.9299L56.4915 29.903C55.4751 32.3725 53.8612 34.3053 51.6502 35.6805C49.4582 37.0549 47.0278 37.7516 44.4177 37.7516ZM49.7964 20.2409C49.5973 18.7665 49.2183 17.6107 48.6413 16.814C47.7648 15.5984 46.3098 15.0013 44.3181 15.0013C41.9873 15.0013 40.2743 15.6988 39.178 17.1124C38.5402 17.9296 38.1028 18.9653 37.8234 20.2406H49.7964V20.2409ZM61.5704 36.9949V9.82172H67.6071V16.4559L66.9495 15.5988C67.3083 14.6626 67.7872 13.8059 68.3646 13.029C68.9617 12.2722 69.6794 11.6344 70.5353 11.1171C71.1929 10.7184 71.8908 10.3987 72.6673 10.1805C73.4446 9.94106 74.2417 9.80157 75.0581 9.74228C75.8746 9.68222 76.7119 9.72213 77.5284 9.82133V16.1967C76.7708 15.9774 75.8951 15.8782 74.8992 15.9572C73.9026 16.0371 73.0056 16.2765 72.1892 16.6551C71.3929 17.0333 70.7147 17.5115 70.1579 18.1291C69.6003 18.7468 69.1814 19.464 68.9024 20.2809C68.6041 21.1175 68.4642 22.0532 68.4642 23.1099V36.9949H61.5704ZM114.204 36.9949V20.9384C114.204 19.1447 113.785 17.7304 112.929 16.7342C112.093 15.7387 110.916 15.2404 109.422 15.2404C108.466 15.2404 107.629 15.4597 106.932 15.9181C106.235 16.3564 105.677 16.974 105.299 17.7703C104.9 18.5678 104.701 19.4838 104.701 20.5393V36.9945H97.848V20.938C97.848 19.1444 97.4303 17.73 96.5925 16.7338C95.7358 15.7383 94.5613 15.24 93.0664 15.24C91.6528 15.24 90.4961 15.7383 89.6402 16.7144C88.7834 17.6905 88.3452 18.9657 88.3452 20.5393V36.9945H81.4521V9.82133H87.4884V12.7899C88.265 11.8138 89.2418 11.0167 90.3969 10.3987C91.8907 9.56326 93.5643 9.16376 95.4366 9.16376C97.5686 9.16376 99.322 9.62177 100.676 10.5188C101.812 11.2756 102.709 12.2319 103.346 13.3866C104.202 12.1122 105.318 11.0958 106.693 10.3588C108.187 9.56288 109.821 9.16376 111.633 9.16376C114.741 9.16376 117.092 10.0802 118.666 11.9126C120.259 13.7458 121.056 16.1572 121.056 19.1246V36.9945H114.204V36.9949ZM127.292 6.03671V0H134.126V6.03671H127.292ZM127.292 36.9949V9.82172H134.126V36.9949H127.292ZM157.176 36.9949C155.283 37.3339 153.451 37.4928 151.657 37.4537C149.844 37.4134 148.231 37.0948 146.816 36.4969C145.402 35.899 144.326 34.9439 143.589 33.6082C142.911 32.3729 142.553 31.1174 142.533 29.8232C142.493 28.548 142.474 27.0933 142.474 25.4608V15.1009H137.851V9.82133H142.473V2.27185H149.326V9.82133H157.176V15.1009H149.326V25.0613C149.326 26.118 149.346 27.0736 149.366 27.9109C149.387 28.7677 149.545 29.445 149.864 29.9429C150.482 30.8989 151.438 31.4173 152.773 31.4968C154.087 31.5967 155.561 31.5173 157.176 31.2976V36.9949ZM163.511 36.9949V30.1417H170.343V36.9949H163.511ZM178.193 6.03671V0H185.046V6.03671H178.193ZM178.193 36.9949V9.82172H185.046V36.9949H178.193ZM204.012 37.7516C201.262 37.7516 198.871 37.1348 196.8 35.899C194.748 34.6843 193.134 32.9905 191.998 30.8388C190.843 28.6673 190.266 26.1971 190.266 23.4083C190.266 20.5595 190.863 18.0695 192.018 15.9181C193.194 13.7664 194.827 12.073 196.879 10.8776C198.951 9.66168 201.321 9.06456 204.011 9.06456C206.741 9.06456 209.151 9.68222 211.222 10.897C213.295 12.1126 214.908 13.8055 216.064 15.9572C217.219 18.109 217.797 20.599 217.797 23.4083C217.797 26.2176 217.22 28.7076 216.044 30.8593C214.889 33.0103 213.255 34.704 211.182 35.9196C209.111 37.1351 206.72 37.7516 204.012 37.7516ZM204.012 31.3573C206.203 31.3573 207.836 30.6005 208.932 29.1261C210.008 27.6323 210.546 25.7394 210.546 23.4083C210.546 20.9783 210.008 19.0653 208.913 17.6107C207.797 16.1766 206.163 15.4597 204.012 15.4597C202.517 15.4597 201.282 15.7782 200.326 16.4556C199.369 17.1329 198.672 18.0691 198.214 19.2447C197.756 20.4397 197.517 21.8347 197.517 23.4079C197.517 25.8382 198.075 27.7711 199.171 29.2052C200.266 30.6408 201.881 31.3573 204.012 31.3573Z" fill="#7011E4"/>
</svg>
