<svg width="370" height="340" viewBox="0 0 370 340" fill="none" xmlns="http://www.w3.org/2000/svg">
<path d="M10.0669 156.757C10.0669 156.757 36.8454 146.724 87.8224 96.0004C128.44 55.5845 197.182 35.1566 238.197 41.4922C307.192 52.1499 359.122 26.7049 385.927 18.0555C398.817 13.8961 419.291 100.331 419.291 100.331L370.875 201.419C370.875 201.419 297.47 235.202 238.197 206.867C212.291 194.482 183.546 163.216 165.491 156.757C136.694 146.454 116.13 156.757 116.13 156.757L47.4266 177.663L10.0669 156.757Z" fill="url(#paint0_linear_6783_8596)" fill-opacity="0.5"/>
<rect opacity="0.29" x="108" y="168.154" width="4.14774" height="4.14774" fill="#F76808"/>
<rect opacity="0.8" x="108" y="176.303" width="4.14774" height="4.14774" fill="#F76808"/>
<rect x="108" y="184.449" width="4.14774" height="4.14774" fill="#F76808"/>
<rect opacity="0.8" x="108" y="192.598" width="4.14774" height="4.14774" fill="#F76808"/>
<rect opacity="0.29" width="4.14774" height="4.14774" transform="matrix(-1 0 0 1 77.1479 176.301)" fill="#974EF2"/>
<rect opacity="0.3" width="4.14774" height="4.14774" transform="matrix(-1 0 0 1 77.1479 184.449)" fill="#974EF2"/>
<rect opacity="0.4" width="4.14774" height="4.14774" transform="matrix(-1 0 0 1 77.1479 192.596)" fill="#974EF2"/>
<rect opacity="0.6" width="4.14774" height="4.14774" transform="matrix(-1 0 0 1 77.1479 200.744)" fill="#974EF2"/>
<rect opacity="0.8" width="4.14774" height="4.14774" transform="matrix(-1 0 0 1 77.1479 208.893)" fill="#974EF2"/>
<rect width="4.14774" height="4.14774" transform="matrix(-1 0 0 1 77.1479 217.039)" fill="#974EF2"/>
<rect opacity="0.8" width="4.14774" height="4.14774" transform="matrix(-1 0 0 1 77.1479 225.188)" fill="#974EF2"/>
<rect opacity="0.2" width="4.14774" height="4.14774" transform="matrix(-1 0 0 1 77.1479 233.336)" fill="#974EF2"/>
<g opacity="0.4" filter="url(#filter0_i_6783_8596)">
<rect x="115.958" y="79.7188" width="22.3864" height="22.2644" rx="11.1322" fill="white"/>
<rect x="116.958" y="80.7188" width="20.3864" height="20.2644" rx="10.1322" stroke="white" stroke-width="2"/>
</g>
<g opacity="0.5" filter="url(#filter1_i_6783_8596)">
<rect x="252.056" y="114.764" width="22.3864" height="22.2644" rx="11.1322" fill="white"/>
<rect x="253.056" y="115.764" width="20.3864" height="20.2644" rx="10.1322" stroke="white" stroke-width="2"/>
</g>
<g opacity="0.5" filter="url(#filter2_i_6783_8596)">
<rect x="189.087" y="95.3574" width="22.3864" height="22.2644" rx="11.1322" fill="white"/>
<rect x="190.087" y="96.3574" width="20.3864" height="20.2644" rx="10.1322" stroke="white" stroke-width="2"/>
</g>
<g opacity="0.5" filter="url(#filter3_i_6783_8596)">
<rect x="246.289" y="62.9453" width="22.3864" height="22.2644" rx="11.1322" fill="white"/>
<rect x="247.289" y="63.9453" width="20.3864" height="20.2644" rx="10.1322" stroke="white" stroke-width="2"/>
</g>
<g opacity="0.2" filter="url(#filter4_i_6783_8596)">
<rect x="166.521" y="50.8184" width="29.7679" height="29.6024" rx="14.8012" fill="white"/>
<rect x="167.521" y="51.8184" width="27.7679" height="27.6024" rx="13.8012" stroke="white" stroke-width="2"/>
</g>
<g opacity="0.5" filter="url(#filter5_i_6783_8596)">
<rect x="252.219" y="167.447" width="29.7679" height="29.6024" rx="14.8012" fill="white"/>
<rect x="253.219" y="168.447" width="27.7679" height="27.6024" rx="13.8012" stroke="white" stroke-width="2"/>
</g>
<g opacity="0.5" filter="url(#filter6_i_6783_8596)">
<rect x="348.799" y="79.7188" width="34.8854" height="33.7003" rx="16.8501" fill="white"/>
<rect x="349.799" y="80.7188" width="32.8854" height="31.7003" rx="15.8501" stroke="white" stroke-width="2"/>
</g>
<g opacity="0.2" filter="url(#filter7_i_6783_8596)">
<rect x="286.017" y="128.5" width="22.3864" height="22.2644" rx="11.1322" fill="white"/>
<rect x="287.017" y="129.5" width="20.3864" height="20.2644" rx="10.1322" stroke="white" stroke-width="2"/>
</g>
<g opacity="0.2" filter="url(#filter8_i_6783_8596)">
<rect x="353.5" y="42.9082" width="22.3864" height="22.2644" rx="11.1322" fill="white"/>
<rect x="354.5" y="43.9082" width="20.3864" height="20.2644" rx="10.1322" stroke="white" stroke-width="2"/>
</g>
<g opacity="0.5" filter="url(#filter9_i_6783_8596)">
<rect x="343.855" y="145.104" width="22.3864" height="22.2644" rx="11.1322" fill="white"/>
<rect x="344.855" y="146.104" width="20.3864" height="20.2644" rx="10.1322" stroke="white" stroke-width="2"/>
</g>
<g opacity="0.5" filter="url(#filter10_i_6783_8596)">
<rect x="369.021" y="54.248" width="22.3864" height="22.2644" rx="11.1322" fill="white"/>
<rect x="370.021" y="55.248" width="20.3864" height="20.2644" rx="10.1322" stroke="white" stroke-width="2"/>
</g>
<g filter="url(#filter11_di_6783_8596)">
<rect x="216.092" y="135.918" width="52.0701" height="51.7807" rx="25.8903" fill="white"/>
<path d="M248.874 161.022C249.069 160.997 249.267 160.997 249.463 161.022C249.568 160.781 249.586 160.365 249.491 159.913C249.35 159.242 249.159 158.835 248.764 158.898C248.37 158.962 248.355 159.448 248.496 160.12C248.576 160.498 248.717 160.822 248.876 161.022H248.874ZM245.484 161.555C245.767 161.681 245.94 161.761 246.008 161.69C246.128 161.567 245.788 161.099 245.241 160.866C244.925 160.736 244.581 160.689 244.242 160.729C243.902 160.77 243.579 160.896 243.304 161.097C243.114 161.234 242.936 161.426 242.961 161.542C243.015 161.777 243.594 161.371 244.392 161.323C244.835 161.295 245.202 161.433 245.484 161.556V161.555ZM244.914 161.878C244.34 161.968 243.965 162.289 244.062 162.514C244.119 162.535 244.136 162.565 244.392 162.463C244.769 162.321 245.177 162.279 245.576 162.34C245.761 162.362 245.849 162.373 245.889 162.309C245.982 162.17 245.528 161.806 244.915 161.878H244.914ZM248.343 162.955C248.557 162.522 247.653 162.078 247.438 162.514C247.223 162.95 248.129 163.388 248.344 162.953L248.343 162.955ZM249.334 161.666C248.849 161.658 248.831 162.661 249.318 162.669C249.804 162.677 249.823 161.674 249.335 161.664L249.334 161.666ZM235.486 166.632C235.403 166.652 235.107 166.724 234.95 166.484C234.621 165.981 235.653 165.202 235.14 164.233C234.564 163.133 233.379 163.381 232.922 163.884C232.37 164.488 232.37 165.366 232.605 165.4C232.876 165.436 232.864 164.993 233.072 164.668C233.131 164.578 233.206 164.501 233.295 164.441C233.383 164.381 233.483 164.338 233.588 164.317C233.693 164.295 233.802 164.294 233.907 164.314C234.012 164.334 234.113 164.375 234.202 164.434C234.936 164.911 234.289 165.552 234.346 166.235C234.434 167.285 235.512 167.265 235.712 166.802C235.725 166.779 235.731 166.752 235.729 166.726C235.726 166.7 235.716 166.675 235.7 166.655C235.702 166.711 235.743 166.573 235.488 166.63L235.486 166.632ZM254.456 165.558C254.244 164.82 254.294 164.978 254.027 164.266C254.182 164.035 254.995 162.756 253.833 161.544C253.175 160.857 251.687 160.503 251.232 160.377C251.137 159.66 251.526 156.683 249.87 155.153C251.185 153.797 252.006 152.303 252.004 151.021C252.001 148.556 248.957 147.811 245.206 149.355L244.411 149.691C244.407 149.687 242.974 148.289 242.952 148.27C238.677 144.561 225.305 159.341 229.581 162.931L230.515 163.718C230.263 164.391 230.174 165.113 230.255 165.827C230.468 167.929 232.534 169.629 234.529 169.627C238.183 178.002 251.485 178.016 254.928 169.816C255.038 169.534 255.505 168.267 255.505 167.148C255.505 166.03 254.866 165.558 254.458 165.558H254.456ZM234.456 168.589C233.012 168.551 231.452 167.258 231.297 165.725C230.907 161.866 235.997 160.987 236.614 164.949C236.901 166.814 236.318 168.63 234.454 168.587L234.456 168.589ZM233.284 161.401C232.325 161.587 231.479 162.128 230.962 162.877C230.653 162.621 230.075 162.122 229.975 161.933C229.151 160.369 230.876 157.338 232.082 155.626C235.064 151.394 239.733 148.192 241.896 148.773C242.247 148.872 243.411 150.214 243.411 150.214C243.411 150.214 241.25 151.406 239.247 153.068C236.547 155.136 234.507 158.14 233.284 161.401ZM248.404 167.768C248.404 167.768 246.142 168.101 244.004 167.323C244.397 166.054 245.713 167.707 250.106 166.454C251.073 166.178 252.344 165.635 253.334 164.858C253.546 165.347 253.698 165.86 253.784 166.386C254.016 166.345 254.686 166.353 254.508 167.525C254.3 168.776 253.766 169.791 252.867 170.725C252.306 171.33 251.637 171.827 250.896 172.192C250.482 172.408 250.052 172.588 249.608 172.732C246.221 173.833 242.754 172.623 241.633 170.026C241.542 169.828 241.467 169.623 241.409 169.413C240.932 167.701 241.336 165.647 242.601 164.354C242.679 164.272 242.758 164.175 242.758 164.053C242.747 163.948 242.705 163.848 242.637 163.767C242.193 163.13 240.662 162.043 240.97 159.939C241.192 158.428 242.52 157.364 243.759 157.427L244.076 157.445C244.613 157.476 245.081 157.545 245.524 157.563C246.264 157.595 246.929 157.488 247.716 156.836C247.982 156.615 248.195 156.424 248.556 156.363C248.701 156.327 248.853 156.321 249.001 156.345C249.149 156.369 249.29 156.423 249.416 156.504C250.049 156.922 250.138 157.934 250.171 158.675C250.189 159.098 250.24 160.122 250.258 160.414C250.298 161.085 250.475 161.18 250.835 161.295C251.037 161.361 251.224 161.41 251.5 161.487C252.336 161.721 252.829 161.958 253.146 162.262C253.307 162.419 253.412 162.625 253.446 162.847C253.544 163.563 252.887 164.446 251.147 165.249C248.191 166.613 245.218 166.158 244.788 166.11C243.512 165.939 242.786 167.578 243.55 168.7C244.983 170.803 251.297 169.959 253.131 167.356C253.175 167.293 253.139 167.256 253.085 167.293C250.441 169.092 246.942 169.698 244.954 168.93C244.652 168.813 244.022 168.524 243.945 167.88C246.705 168.729 248.439 167.927 248.439 167.927C248.439 167.927 248.568 167.751 248.404 167.768ZM238.791 155.608C239.851 154.39 241.156 153.33 242.325 152.736C242.334 152.73 242.344 152.728 242.354 152.73C242.365 152.731 242.374 152.735 242.381 152.743C242.389 152.75 242.393 152.759 242.394 152.769C242.396 152.779 242.394 152.79 242.388 152.799C242.296 152.966 242.117 153.323 242.06 153.595C242.058 153.604 242.058 153.614 242.062 153.623C242.065 153.632 242.071 153.639 242.079 153.645C242.087 153.65 242.097 153.653 242.106 153.653C242.116 153.653 242.125 153.65 242.133 153.644C242.861 153.152 244.126 152.624 245.235 152.556C245.245 152.555 245.256 152.558 245.264 152.563C245.273 152.569 245.28 152.577 245.284 152.587C245.287 152.597 245.288 152.607 245.285 152.617C245.282 152.627 245.276 152.636 245.268 152.642C245.084 152.783 244.92 152.947 244.78 153.13C244.775 153.137 244.771 153.145 244.771 153.153C244.77 153.162 244.772 153.171 244.775 153.178C244.779 153.186 244.785 153.192 244.793 153.197C244.8 153.202 244.808 153.204 244.817 153.204C245.596 153.21 246.694 153.481 247.412 153.88C247.46 153.908 247.426 154.001 247.371 153.989C242.969 152.985 239.581 155.155 238.859 155.677C238.849 155.684 238.837 155.686 238.826 155.685C238.815 155.683 238.804 155.678 238.797 155.669C238.789 155.661 238.785 155.65 238.784 155.638C238.784 155.627 238.788 155.616 238.795 155.607L238.791 155.608Z" fill="black"/>
<rect x="217.092" y="136.918" width="50.0701" height="49.7807" rx="24.8903" stroke="white" stroke-width="2"/>
</g>
<g filter="url(#filter12_di_6783_8596)">
<rect x="190.821" y="46.8477" width="49.6912" height="49.415" rx="24.7075" fill="white"/>
<g clip-path="url(#clip0_6783_8596)">
<path d="M209.405 74.5405C209.405 75.7997 208.388 76.8174 207.128 76.8174C205.869 76.8174 204.852 75.7997 204.852 74.5405C204.852 73.2814 205.869 72.2637 207.128 72.2637H209.405V74.5405ZM210.544 74.5405C210.544 73.2814 211.561 72.2637 212.821 72.2637C214.08 72.2637 215.097 73.2814 215.097 74.5405V80.2327C215.097 81.4919 214.08 82.5096 212.821 82.5096C211.561 82.5096 210.544 81.4919 210.544 80.2327V74.5405Z" fill="#E01E5A"/>
<path d="M212.821 65.3975C211.562 65.3975 210.544 64.3798 210.544 63.1206C210.544 61.8614 211.562 60.8438 212.821 60.8438C214.08 60.8438 215.098 61.8614 215.098 63.1206V65.3975H212.821ZM212.821 66.5532C214.08 66.5532 215.098 67.5709 215.098 68.83C215.098 70.0892 214.08 71.1069 212.821 71.1069H207.111C205.852 71.1069 204.834 70.0892 204.834 68.83C204.834 67.5709 205.852 66.5532 207.111 66.5532H212.821Z" fill="#36C5F0"/>
<path d="M221.946 68.83C221.946 67.5709 222.964 66.5532 224.223 66.5532C225.482 66.5532 226.5 67.5709 226.5 68.83C226.5 70.0892 225.482 71.1069 224.223 71.1069H221.946V68.83ZM220.808 68.83C220.808 70.0892 219.79 71.1069 218.531 71.1069C217.272 71.1069 216.254 70.0892 216.254 68.83V63.1206C216.254 61.8614 217.272 60.8438 218.531 60.8438C219.79 60.8438 220.808 61.8614 220.808 63.1206V68.83Z" fill="#2EB67D"/>
<path d="M218.531 77.9558C219.79 77.9558 220.808 78.9735 220.808 80.2327C220.808 81.4919 219.79 82.5096 218.531 82.5096C217.272 82.5096 216.254 81.4919 216.254 80.2327V77.9558H218.531ZM218.531 76.8174C217.272 76.8174 216.254 75.7997 216.254 74.5405C216.254 73.2814 217.272 72.2637 218.531 72.2637H224.24C225.499 72.2637 226.517 73.2814 226.517 74.5405C226.517 75.7997 225.499 76.8174 224.24 76.8174H218.531Z" fill="#ECB22E"/>
</g>
<rect x="191.821" y="47.8477" width="47.6912" height="47.415" rx="23.7075" stroke="white" stroke-width="2"/>
</g>
<g filter="url(#filter13_di_6783_8596)">
<rect x="278.992" y="147.289" width="58.8229" height="58.4959" rx="29.248" fill="white"/>
<g clip-path="url(#clip1_6783_8596)">
<path d="M312.858 175.374H311.748C311.725 175.283 311.708 175.178 311.697 175.058C311.675 174.825 311.675 174.591 311.697 174.358C311.708 174.239 311.725 174.134 311.748 174.042H314.514V182.8C314.375 182.824 314.236 182.841 314.096 182.851C313.956 182.861 313.817 182.867 313.677 182.867C313.543 182.867 313.41 182.861 313.276 182.851C313.136 182.841 312.997 182.824 312.858 182.799V175.373V175.374L312.858 175.374ZM322.486 177.576C322.486 177.257 322.443 176.953 322.358 176.663C322.272 176.373 322.147 176.119 321.982 175.903C321.817 175.687 321.606 175.513 321.35 175.383C321.094 175.252 320.79 175.186 320.437 175.186C319.743 175.186 319.211 175.397 318.841 175.818C318.471 176.239 318.246 176.825 318.167 177.576H322.486H322.486ZM318.15 178.839C318.172 179.795 318.42 180.495 318.892 180.939C319.364 181.383 320.062 181.605 320.983 181.605C321.791 181.605 322.559 181.462 323.288 181.178C323.379 181.349 323.452 181.556 323.509 181.801C323.565 182.039 323.6 182.282 323.612 182.526C323.236 182.686 322.824 182.805 322.374 182.885C321.925 182.964 321.427 183.004 320.881 183.004C320.084 183.004 319.401 182.893 318.832 182.671C318.263 182.449 317.794 182.136 317.424 181.732C317.054 181.329 316.784 180.851 316.613 180.298C316.442 179.747 316.357 179.141 316.357 178.481C316.357 177.832 316.439 177.226 316.604 176.662C316.769 176.099 317.023 175.61 317.364 175.195C317.705 174.779 318.135 174.449 318.653 174.204C319.17 173.96 319.782 173.837 320.488 173.837C321.091 173.837 321.62 173.94 322.076 174.145C322.53 174.349 322.912 174.631 323.219 174.99C323.526 175.348 323.76 175.775 323.919 176.27C324.078 176.765 324.158 177.303 324.158 177.883C324.158 178.042 324.152 178.21 324.141 178.387C324.132 178.537 324.12 178.688 324.107 178.839H318.149L318.149 178.839L318.15 178.839ZM326.02 174.042C326.139 174.021 326.258 174.004 326.378 173.991C326.492 173.98 326.612 173.974 326.737 173.974C326.862 173.974 326.987 173.98 327.112 173.991C327.237 174.003 327.351 174.02 327.454 174.042C327.488 174.213 327.522 174.438 327.556 174.717C327.59 174.995 327.607 175.231 327.607 175.425C327.846 175.038 328.162 174.702 328.555 174.418C328.947 174.133 329.451 173.991 330.065 173.991C330.156 173.991 330.25 173.994 330.347 174C330.43 174.004 330.512 174.012 330.594 174.025C330.617 174.128 330.634 174.236 330.646 174.349C330.657 174.463 330.663 174.583 330.663 174.708C330.663 174.845 330.654 174.987 330.637 175.135C330.621 175.277 330.601 175.419 330.577 175.561C330.485 175.539 330.391 175.527 330.296 175.527H330.065C329.758 175.527 329.465 175.57 329.186 175.655C328.907 175.741 328.657 175.891 328.435 176.107C328.213 176.324 328.037 176.62 327.906 176.995C327.775 177.371 327.709 177.855 327.709 178.446V182.799C327.571 182.823 327.431 182.841 327.291 182.85C327.138 182.862 326.998 182.867 326.873 182.867C326.734 182.867 326.594 182.861 326.455 182.85C326.309 182.84 326.164 182.823 326.019 182.799V174.042L326.02 174.042ZM314.039 169.366C314.039 169.571 314.002 169.773 313.93 169.964C313.739 170.036 313.536 170.073 313.332 170.073H313.329C313.125 170.073 312.922 170.037 312.731 169.965C312.659 169.773 312.622 169.571 312.622 169.366V169.364C312.622 169.153 312.661 168.951 312.731 168.765C312.922 168.693 313.125 168.656 313.329 168.656H313.332C313.542 168.656 313.744 168.695 313.93 168.765C314.002 168.956 314.039 169.159 314.039 169.364V169.366H314.039L314.039 169.366ZM316.125 168.893H314.471L315.641 167.723C315.457 167.465 315.231 167.239 314.973 167.055L313.803 168.225V166.571C313.647 166.545 313.49 166.531 313.332 166.531H313.329C313.169 166.531 313.012 166.545 312.858 166.571V168.225L311.689 167.055C311.56 167.147 311.439 167.249 311.327 167.361L311.327 167.362C311.215 167.473 311.113 167.594 311.021 167.723L312.191 168.893H310.536C310.536 168.893 310.497 169.203 310.497 169.364V169.366C310.497 169.527 310.511 169.684 310.536 169.837H312.191L311.021 171.007C311.205 171.265 311.431 171.491 311.689 171.675L312.859 170.505V172.159C313.012 172.185 313.168 172.198 313.329 172.199H313.333C313.49 172.198 313.647 172.185 313.803 172.159V170.505L314.973 171.675C315.101 171.583 315.222 171.481 315.334 171.369H315.335C315.446 171.257 315.549 171.136 315.64 171.007L314.471 169.837H316.125C316.151 169.684 316.164 169.527 316.164 169.367V169.363C316.164 169.205 316.151 169.048 316.125 168.893L316.125 168.893ZM286.143 182.561L290.752 175.391H286.689C286.655 175.186 286.638 174.959 286.638 174.708C286.638 174.469 286.655 174.247 286.69 174.042H293.262L293.347 174.265L288.704 181.451H293.057C293.091 181.679 293.108 181.912 293.108 182.151C293.108 182.379 293.091 182.595 293.057 182.8H286.229L286.143 182.56V182.561ZM299.441 178.685C299.27 178.663 299.054 178.64 298.792 178.617C298.53 178.595 298.308 178.583 298.127 178.583C297.421 178.583 296.883 178.714 296.514 178.976C296.143 179.238 295.959 179.636 295.959 180.171C295.959 180.512 296.021 180.78 296.147 180.973C296.272 181.167 296.428 181.314 296.616 181.417C296.804 181.519 297.011 181.582 297.239 181.605C297.466 181.627 297.683 181.639 297.887 181.639C298.149 181.639 298.419 181.625 298.698 181.596C298.977 181.568 299.225 181.525 299.441 181.468V178.685H299.441ZM299.441 177.03C299.441 176.358 299.27 175.892 298.929 175.63C298.587 175.368 298.092 175.237 297.444 175.237C297.045 175.237 296.673 175.269 296.326 175.331C295.982 175.393 295.643 175.475 295.31 175.578C295.093 175.203 294.986 174.754 294.986 174.23C295.372 174.105 295.799 174.008 296.265 173.94C296.732 173.871 297.182 173.837 297.614 173.837C298.752 173.837 299.617 174.096 300.209 174.614C300.8 175.132 301.096 175.96 301.096 177.098V182.578C300.698 182.669 300.214 182.762 299.646 182.859C299.07 182.956 298.488 183.005 297.904 183.004C297.347 183.004 296.843 182.953 296.394 182.851C295.944 182.748 295.563 182.584 295.25 182.356C294.937 182.128 294.695 181.838 294.524 181.485C294.354 181.132 294.268 180.706 294.268 180.205C294.268 179.716 294.368 179.286 294.567 178.916C294.763 178.55 295.04 178.235 295.378 177.994C295.719 177.75 296.112 177.568 296.556 177.448C297 177.329 297.466 177.269 297.955 177.269C298.32 177.269 298.618 177.278 298.852 177.295C299.085 177.312 299.281 177.332 299.441 177.354V177.03L299.441 177.03ZM304.63 181.365C304.846 181.445 305.069 181.502 305.296 181.536C305.523 181.57 305.819 181.587 306.184 181.587C306.593 181.587 306.969 181.522 307.31 181.391C307.652 181.261 307.944 181.058 308.189 180.785C308.434 180.512 308.627 180.168 308.769 179.752C308.912 179.337 308.983 178.845 308.983 178.276C308.983 177.366 308.815 176.643 308.479 176.108C308.143 175.573 307.594 175.306 306.832 175.306C306.548 175.306 306.274 175.357 306.013 175.459C305.751 175.562 305.518 175.715 305.313 175.92C305.108 176.125 304.943 176.384 304.818 176.697C304.692 177.01 304.63 177.383 304.63 177.815V181.366V181.365L304.63 181.365ZM302.94 174.042C303.056 174.019 303.172 174.002 303.29 173.991C303.412 173.98 303.535 173.974 303.657 173.974C303.771 173.974 303.89 173.98 304.015 173.991C304.14 174.003 304.26 174.02 304.374 174.042C304.385 174.065 304.4 174.136 304.417 174.256C304.434 174.375 304.451 174.503 304.468 174.64C304.485 174.776 304.502 174.907 304.519 175.032C304.536 175.158 304.545 175.237 304.545 175.271C304.658 175.09 304.795 174.913 304.954 174.742C305.114 174.572 305.304 174.418 305.526 174.282C305.748 174.145 305.998 174.037 306.277 173.957C306.556 173.877 306.866 173.837 307.208 173.837C307.72 173.837 308.195 173.923 308.633 174.094C309.071 174.265 309.446 174.529 309.76 174.887C310.072 175.246 310.317 175.701 310.493 176.253C310.67 176.805 310.758 177.457 310.758 178.208C310.758 179.71 310.351 180.885 309.537 181.733C308.723 182.581 307.571 183.004 306.081 183.004C305.83 183.004 305.574 182.987 305.313 182.953C305.051 182.919 304.823 182.873 304.63 182.817V186.828C304.485 186.852 304.34 186.869 304.195 186.88C304.041 186.891 303.901 186.896 303.776 186.896C303.637 186.896 303.497 186.89 303.358 186.88C303.218 186.87 303.078 186.852 302.94 186.828V174.042L302.94 174.042Z" fill="#FF4A00"/>
</g>
<rect x="279.992" y="148.289" width="56.8229" height="56.4959" rx="28.248" stroke="white" stroke-width="2"/>
</g>
<g filter="url(#filter14_di_6783_8596)">
<rect x="263.249" y="26.8711" width="39.2152" height="38.9973" rx="19.4986" fill="white"/>
<g clip-path="url(#clip2_6783_8596)">
<path d="M274.344 52.8776L275.228 54.4056C275.412 54.7273 275.676 54.9801 275.987 55.1639L279.146 49.6953H272.827C272.827 50.0515 272.919 50.4076 273.103 50.7293L274.344 52.8776Z" fill="#0066DA"/>
<path d="M282.857 43.2596L279.697 37.791C279.387 37.9748 279.123 38.2276 278.939 38.5493L273.103 48.6592C272.922 48.974 272.827 49.3304 272.827 49.6932H279.146L282.857 43.2596Z" fill="#00AC47"/>
<path d="M289.727 55.1639C290.037 54.9801 290.301 54.7273 290.485 54.4056L290.853 53.7738L292.61 50.7293C292.794 50.4076 292.886 50.0515 292.886 49.6953H286.567L287.912 52.3377L289.727 55.1639Z" fill="#EA4335"/>
<path d="M282.856 43.2619L286.015 37.7933C285.705 37.6095 285.349 37.5176 284.982 37.5176H280.731C280.363 37.5176 280.007 37.621 279.697 37.7933L282.856 43.2619Z" fill="#00832D"/>
<path d="M286.567 49.6953H279.146L275.986 55.1639C276.297 55.3477 276.653 55.4396 277.02 55.4396H288.693C289.06 55.4396 289.416 55.3362 289.727 55.1639L286.567 49.6953Z" fill="#2684FC"/>
<path d="M289.692 43.6042L286.774 38.5493C286.59 38.2276 286.326 37.9748 286.016 37.791L282.856 43.2596L286.567 49.6932H292.874C292.874 49.337 292.783 48.9809 292.599 48.6592L289.692 43.6042Z" fill="#FFBA00"/>
</g>
<rect x="264.249" y="27.8711" width="37.2152" height="36.9973" rx="18.4986" stroke="white" stroke-width="2"/>
</g>
<g filter="url(#filter15_di_6783_8596)">
<rect x="312.79" y="45.793" width="41.7354" height="41.5034" rx="20.7517" fill="white"/>
<g clip-path="url(#clip3_6783_8596)">
<path d="M332.713 77.7387C332.522 77.7391 332.348 77.6313 332.264 77.4611C332.183 77.3009 332.2 77.1087 332.309 76.9655L337.612 69.7043L328.327 73.4762C328.264 73.5034 328.196 73.5177 328.127 73.5183C327.907 73.5172 327.713 73.372 327.651 73.1614C327.588 72.9554 327.672 72.7327 327.856 72.6187L336.022 67.8234L321.643 67.0006C321.404 66.9591 321.23 66.7531 321.23 66.5124C321.23 66.2716 321.404 66.0657 321.643 66.0242L336.03 65.2039L327.861 60.4085C327.677 60.2945 327.593 60.0719 327.656 59.8658C327.718 59.6561 327.91 59.5111 328.13 59.5089C328.199 59.5087 328.267 59.524 328.329 59.5535L337.617 63.3304L332.314 56.0717C332.205 55.9284 332.188 55.7362 332.269 55.576C332.35 55.4037 332.524 55.293 332.715 55.291C332.846 55.2919 332.971 55.3455 333.062 55.4397L343.63 65.9473C343.943 66.2589 343.943 66.7634 343.63 67.0749L333.057 77.595C332.966 77.6869 332.842 77.7387 332.713 77.7387Z" fill="black"/>
</g>
<rect x="313.79" y="46.793" width="39.7354" height="39.5034" rx="19.7517" stroke="white" stroke-width="2"/>
</g>
<g filter="url(#filter16_di_6783_8596)">
<rect x="268.162" y="78.7285" width="39.2152" height="38.9973" rx="19.4986" fill="white"/>
<path d="M287.396 95.9302C287.396 96.986 286.521 97.8555 285.46 97.8555C284.398 97.8555 283.524 96.986 283.524 95.9302C283.524 94.8744 284.398 94.0049 285.46 94.0049C286.521 94.0049 287.396 94.8744 287.396 95.9302ZM285.46 98.6008C284.398 98.6008 283.524 99.4703 283.524 100.526C283.524 101.582 284.398 102.451 285.46 102.451C286.521 102.451 287.396 101.582 287.396 100.526C287.396 99.4703 286.521 98.6008 285.46 98.6008ZM297.139 98.2282C297.139 103.383 292.954 107.544 287.77 107.544C282.587 107.544 278.402 103.383 278.402 98.2282C278.402 93.0733 282.587 88.9121 287.77 88.9121C292.954 88.9121 297.139 93.0733 297.139 98.2282ZM294.64 98.2282C294.64 94.4396 291.58 91.3964 287.77 91.3964C283.961 91.3964 280.901 94.4396 280.901 98.2282C280.901 102.017 283.961 105.06 287.77 105.06C291.58 105.06 294.64 102.017 294.64 98.2282ZM290.081 98.6008C289.02 98.6008 288.145 99.4703 288.145 100.526C288.145 101.582 289.02 102.451 290.081 102.451C291.143 102.451 292.017 101.582 292.017 100.526C292.017 99.4703 291.143 98.6008 290.081 98.6008ZM290.081 94.0049C289.02 94.0049 288.145 94.8744 288.145 95.9302C288.145 96.986 289.02 97.8555 290.081 97.8555C291.143 97.8555 292.017 96.986 292.017 95.9302C292.017 94.8744 291.143 94.0049 290.081 94.0049Z" fill="#F22F46"/>
<rect x="269.162" y="79.7285" width="37.2152" height="36.9973" rx="18.4986" stroke="white" stroke-width="2"/>
</g>
<g filter="url(#filter17_di_6783_8596)">
<rect x="305.086" y="104.566" width="39.2152" height="38.9973" rx="19.4986" fill="white"/>
<g clip-path="url(#clip4_6783_8596)">
<path d="M332.186 122.486C332.381 121.901 332.448 121.281 332.384 120.667C332.319 120.054 332.123 119.461 331.81 118.929C331.345 118.124 330.635 117.487 329.782 117.109C328.93 116.732 327.979 116.633 327.066 116.828C326.548 116.254 325.887 115.827 325.15 115.588C324.413 115.349 323.626 115.307 322.867 115.466C322.109 115.625 321.406 115.98 320.829 116.495C320.252 117.01 319.821 117.667 319.58 118.399C318.972 118.523 318.398 118.775 317.896 119.137C317.393 119.499 316.975 119.964 316.667 120.5C316.197 121.304 315.996 122.235 316.094 123.159C316.191 124.084 316.582 124.953 317.209 125.643C317.012 126.228 316.944 126.848 317.008 127.462C317.072 128.075 317.267 128.668 317.58 129.201C318.046 130.006 318.756 130.643 319.609 131.021C320.462 131.398 321.414 131.497 322.327 131.302C322.739 131.763 323.245 132.132 323.811 132.383C324.378 132.635 324.992 132.763 325.612 132.76C326.547 132.761 327.459 132.466 328.215 131.918C328.971 131.37 329.532 130.598 329.818 129.712C330.425 129.588 330.999 129.336 331.502 128.974C332.004 128.612 332.422 128.147 332.73 127.611C333.194 126.809 333.392 125.881 333.294 124.961C333.196 124.04 332.808 123.174 332.186 122.486ZM325.612 131.622C324.846 131.623 324.105 131.357 323.517 130.869L323.619 130.81L327.101 128.812C327.188 128.761 327.26 128.689 327.31 128.602C327.36 128.516 327.386 128.418 327.387 128.318V123.437L328.859 124.283C328.866 124.287 328.872 124.292 328.877 124.299C328.882 124.305 328.885 124.313 328.886 124.321V128.366C328.885 129.229 328.539 130.056 327.925 130.666C327.312 131.277 326.48 131.62 325.612 131.622ZM318.574 128.633C318.19 127.973 318.052 127.2 318.184 126.449L318.288 126.511L321.773 128.51C321.859 128.56 321.957 128.586 322.057 128.586C322.157 128.586 322.255 128.56 322.341 128.51L326.598 126.069V127.758C326.598 127.767 326.595 127.776 326.591 127.783C326.587 127.791 326.581 127.798 326.574 127.803L323.048 129.825C322.295 130.256 321.401 130.372 320.563 130.149C319.724 129.925 319.009 129.38 318.574 128.633ZM317.656 121.092C318.043 120.428 318.654 119.921 319.38 119.662V123.775C319.379 123.875 319.404 123.973 319.454 124.059C319.504 124.145 319.576 124.216 319.663 124.265L323.899 126.696L322.428 127.542C322.42 127.546 322.411 127.549 322.402 127.549C322.393 127.549 322.384 127.546 322.376 127.542L318.857 125.524C318.105 125.091 317.557 124.38 317.332 123.546C317.107 122.712 317.223 121.823 317.656 121.074V121.092ZM329.748 123.885L325.499 121.431L326.967 120.587C326.975 120.583 326.983 120.581 326.993 120.581C327.002 120.581 327.01 120.583 327.018 120.587L330.537 122.61C331.076 122.918 331.515 123.373 331.803 123.92C332.091 124.468 332.217 125.085 332.165 125.701C332.114 126.317 331.887 126.906 331.511 127.398C331.136 127.89 330.627 128.266 330.045 128.482V124.368C330.042 124.269 330.013 124.172 329.961 124.087C329.909 124.003 329.836 123.933 329.748 123.885ZM331.213 121.694L331.11 121.633L327.632 119.617C327.545 119.567 327.446 119.54 327.346 119.54C327.245 119.54 327.147 119.567 327.06 119.617L322.806 122.058V120.368C322.806 120.359 322.807 120.351 322.811 120.343C322.814 120.335 322.82 120.329 322.827 120.324L326.346 118.304C326.885 117.996 327.502 117.846 328.124 117.873C328.745 117.9 329.347 118.102 329.857 118.456C330.368 118.81 330.766 119.302 331.006 119.873C331.246 120.444 331.318 121.071 331.213 121.681V121.694ZM322.003 124.69L320.532 123.847C320.524 123.843 320.518 123.837 320.513 123.83C320.508 123.822 320.505 123.814 320.504 123.806V119.772C320.505 119.154 320.683 118.548 321.018 118.026C321.352 117.505 321.829 117.088 322.392 116.826C322.956 116.564 323.583 116.466 324.2 116.545C324.817 116.623 325.399 116.875 325.877 117.27L325.774 117.328L322.293 119.327C322.206 119.377 322.134 119.449 322.084 119.536C322.034 119.622 322.007 119.72 322.006 119.82L322.003 124.69ZM322.803 122.977L324.699 121.89L326.598 122.977V125.15L324.706 126.237L322.806 125.15L322.803 122.977Z" fill="black"/>
</g>
<rect x="306.086" y="105.566" width="37.2152" height="36.9973" rx="18.4986" stroke="white" stroke-width="2"/>
</g>
<g filter="url(#filter18_di_6783_8596)">
<rect x="374.713" y="74.1504" width="28.6553" height="28.4961" rx="14.248" fill="white"/>
<rect x="375.713" y="75.1504" width="26.6553" height="26.4961" rx="13.248" stroke="white" stroke-width="2"/>
</g>
<g filter="url(#filter19_di_6783_8596)">
<rect x="135.965" y="82.6777" width="61.1122" height="60.7725" rx="30.3862" fill="white"/>
<path fill-rule="evenodd" clip-rule="evenodd" d="M186.402 113.473C186.402 110.645 185.033 108.414 182.415 108.414C179.786 108.414 178.196 110.645 178.196 113.451C178.196 116.775 180.073 118.454 182.768 118.454C184.083 118.454 185.077 118.156 185.828 117.736V115.527C185.077 115.903 184.215 116.134 183.122 116.134C182.05 116.134 181.101 115.759 180.979 114.456H186.38C186.38 114.312 186.402 113.738 186.402 113.473ZM180.946 112.423C180.946 111.175 181.708 110.656 182.404 110.656C183.078 110.656 183.796 111.175 183.796 112.423H180.946Z" fill="#635BFF"/>
<path fill-rule="evenodd" clip-rule="evenodd" d="M173.932 108.414C172.849 108.414 172.153 108.922 171.767 109.276L171.623 108.591H169.193V121.469L171.955 120.884L171.966 117.758C172.363 118.045 172.949 118.454 173.921 118.454C175.898 118.454 177.698 116.863 177.698 113.362C177.687 110.159 175.864 108.414 173.932 108.414ZM173.269 116.024C172.617 116.024 172.231 115.792 171.966 115.505L171.955 111.407C172.242 111.087 172.639 110.866 173.269 110.866C174.274 110.866 174.97 111.993 174.97 113.44C174.97 114.92 174.285 116.024 173.269 116.024Z" fill="#635BFF"/>
<path fill-rule="evenodd" clip-rule="evenodd" d="M165.393 107.762L168.165 107.166V104.924L165.393 105.509V107.762Z" fill="#635BFF"/>
<path d="M168.165 108.602H165.393V118.266H168.165V108.602Z" fill="#635BFF"/>
<path fill-rule="evenodd" clip-rule="evenodd" d="M162.422 109.42L162.246 108.602H159.86V118.267H162.621V111.717C163.273 110.867 164.377 111.021 164.72 111.143V108.602C164.366 108.47 163.074 108.227 162.422 109.42Z" fill="#635BFF"/>
<path fill-rule="evenodd" clip-rule="evenodd" d="M156.899 106.205L154.204 106.779L154.193 115.626C154.193 117.261 155.419 118.465 157.054 118.465C157.96 118.465 158.622 118.299 158.987 118.1V115.858C158.633 116.002 156.888 116.51 156.888 114.875V110.954H158.987V108.602H156.888L156.899 106.205Z" fill="#635BFF"/>
<path fill-rule="evenodd" clip-rule="evenodd" d="M149.434 111.407C149.434 110.976 149.787 110.811 150.372 110.811C151.212 110.811 152.272 111.065 153.111 111.518V108.922C152.195 108.558 151.289 108.414 150.372 108.414C148.13 108.414 146.639 109.585 146.639 111.54C146.639 114.588 150.836 114.102 150.836 115.417C150.836 115.925 150.394 116.09 149.776 116.09C148.859 116.09 147.688 115.715 146.761 115.207V117.835C147.788 118.277 148.826 118.465 149.776 118.465C152.073 118.465 153.653 117.327 153.653 115.35C153.642 112.059 149.434 112.644 149.434 111.407Z" fill="#635BFF"/>
<rect x="136.965" y="83.6777" width="59.1122" height="58.7725" rx="29.3862" stroke="white" stroke-width="2"/>
</g>
<g opacity="0.4" filter="url(#filter20_i_6783_8596)">
<rect x="190.66" y="139.064" width="22.3864" height="22.2644" rx="11.1322" fill="white"/>
<rect x="191.66" y="140.064" width="20.3864" height="20.2644" rx="10.1322" stroke="white" stroke-width="2"/>
</g>
<g filter="url(#filter21_di_6783_8596)">
<rect x="216.393" y="99.9531" width="32.4543" height="32.2739" rx="16.137" fill="white"/>
<path d="M237.255 113.995C236.127 109.017 233.775 107.691 233.175 106.755C232.928 106.342 232.709 105.913 232.519 105.471C232.487 105.913 232.429 106.192 232.053 106.527C231.299 107.2 228.093 109.812 227.824 115.468C227.572 120.741 231.7 123.993 232.246 124.329C232.665 124.536 233.176 124.334 233.425 124.144C235.415 122.779 238.134 119.138 237.258 113.995" fill="#10AA50"/>
<path d="M232.69 121.521C232.586 122.827 232.512 123.585 232.248 124.331C232.248 124.331 232.421 125.574 232.543 126.89H232.973C233.076 125.963 233.233 125.043 233.443 124.134C232.886 123.86 232.712 122.667 232.69 121.521Z" fill="#B8C4C2"/>
<path d="M233.442 124.134C232.879 123.874 232.716 122.656 232.691 121.52C232.83 119.648 232.871 117.77 232.812 115.893C232.783 114.909 232.826 106.773 232.57 105.582C232.745 105.985 232.947 106.377 233.175 106.753C233.775 107.691 236.128 109.016 237.255 113.994C238.134 119.128 235.43 122.759 233.442 124.134Z" fill="#12924F"/>
<rect x="217.393" y="100.953" width="30.4543" height="30.2739" rx="15.137" stroke="white" stroke-width="2"/>
</g>
<path d="M9.33691 155.236L47.7786 177.845V153.914L9.33691 131.342V155.236Z" fill="#F7EDEF"/>
<path d="M47.7788 177.845L122.501 154.21V130.26L47.7788 153.913V177.845Z" fill="#E2D7DA"/>
<path d="M47.7786 153.913L122.5 130.259L84.0586 107.688L9.33691 131.341L47.7786 153.913Z" fill="white"/>
<path d="M47.8154 153.488L47.8155 178.008L122.401 154.234V130.676" stroke="#974EF2" stroke-width="2" stroke-linejoin="round"/>
<path d="M48.0567 177.066C48.5289 177.352 48.6795 177.967 48.3931 178.439C48.1067 178.911 47.4917 179.062 47.0195 178.776L48.0567 177.066ZM10.2864 155.326L9.76783 156.181C9.46896 156 9.28643 155.676 9.28643 155.326H10.2864ZM9.28643 155.326V131.578H11.2864V155.326H9.28643ZM47.0195 178.776L9.76783 156.181L10.805 154.471L48.0567 177.066L47.0195 178.776Z" fill="#974EF2"/>
<path d="M10.228 132.029L47.9002 154.187L122.31 130.653L84.058 108.68L10.228 132.029Z" stroke="#974EF2" stroke-width="2" stroke-linejoin="round"/>
<path d="M9.33691 125.345L47.7786 147.954V124.023L9.33691 101.451V125.345Z" fill="#F7EDEF"/>
<path d="M47.7788 147.954L122.501 124.319V100.369L47.7788 124.023V147.954Z" fill="#E2D7DA"/>
<path d="M47.7786 124.022L122.5 100.369L84.0586 77.7969L9.33691 101.451L47.7786 124.022Z" fill="white"/>
<path d="M10.228 102.138L47.9002 124.296L122.31 100.762L84.058 78.7891L10.228 102.138Z" stroke="#974EF2" stroke-width="2" stroke-linejoin="round"/>
<path d="M47.8154 123.598L47.8155 148.118L122.401 124.343V100.785" stroke="#974EF2" stroke-width="2" stroke-linejoin="round"/>
<path d="M48.0567 147.175C48.5289 147.461 48.6795 148.076 48.3931 148.549C48.1067 149.021 47.4917 149.171 47.0195 148.885L48.0567 147.175ZM10.2864 125.435L9.76783 126.29C9.46896 126.109 9.28643 125.785 9.28643 125.435H10.2864ZM9.28643 125.435V101.688H11.2864V125.435H9.28643ZM47.0195 148.885L9.76783 126.29L10.805 124.58L48.0567 147.175L47.0195 148.885Z" fill="#974EF2"/>
<path d="M9.33691 95.4544L47.7786 118.064V94.1323L9.33691 71.5605V95.4544Z" fill="#F7EDEF"/>
<path d="M47.7788 118.063L122.501 94.4284V70.4785L47.7788 94.1322V118.063Z" fill="#E2D7DA"/>
<path d="M47.7786 94.1317L122.5 70.478L84.0586 47.9062L9.33691 71.56L47.7786 94.1317Z" fill="white"/>
<path d="M10.228 72.2474L47.9002 94.4057L122.31 70.8713L84.058 48.8984L10.228 72.2474Z" stroke="#974EF2" stroke-width="2" stroke-linejoin="round"/>
<path d="M47.8154 93.707L47.8155 118.227L122.401 94.4524V70.8945" stroke="#974EF2" stroke-width="2" stroke-linejoin="round"/>
<path d="M48.0567 117.284C48.5289 117.571 48.6795 118.186 48.3931 118.658C48.1067 119.13 47.4917 119.281 47.0195 118.994L48.0567 117.284ZM10.2864 95.5448L9.76783 96.3998C9.46896 96.2185 9.28643 95.8943 9.28643 95.5448H10.2864ZM9.28643 95.5448V71.7969H11.2864V95.5448H9.28643ZM47.0195 118.994L9.76783 96.3998L10.805 94.6898L48.0567 117.284L47.0195 118.994Z" fill="#974EF2"/>
<path d="M52.5841 74.6654L50.5714 75.38L43.4942 68.4021L49.7068 66.1964L50.9539 67.4261L46.754 68.9172L48.3763 70.5167L52.1334 69.1828L53.3806 70.4124L49.6234 71.7463L52.5841 74.6654ZM61.6908 71.5955C59.5304 72.3625 57.1711 71.7996 55.4778 70.1301C53.7846 68.4606 54.0552 66.9641 56.2156 66.1971C58.3759 65.4301 60.7353 65.9929 62.4285 67.6624C64.1218 69.3319 63.8511 70.8285 61.6908 71.5955ZM60.5755 70.4958C61.4611 70.1814 61.5618 69.561 60.7912 68.8012L59.9598 67.9814C59.1892 67.2217 58.2165 66.9823 57.3309 67.2968C56.4453 67.6112 56.3446 68.2316 57.1151 68.9914L57.9466 69.8111C58.7171 70.5709 59.6899 70.8102 60.5755 70.4958ZM73.5732 67.2137L71.4263 67.9759L69.1325 66.5061L66.5696 67.4159L67.696 69.3003L65.6565 70.0244L61.1153 62.1461L63.96 61.1362L73.5732 67.2137ZM67.597 65.406L64.0078 63.0907L63.9005 63.1288L65.6648 66.092L67.597 65.406ZM80.8005 64.6479L74.5207 66.8774L73.2736 65.6477L74.3059 61.5013L70.589 62.8209L69.423 61.6713L75.4344 59.537L76.6815 60.7667L75.6492 64.9131L79.6344 63.4982L80.8005 64.6479ZM57.066 84.5331L55.0398 85.2524L47.9626 78.2745L51.5856 76.9883C53.4239 76.3356 55.3392 76.8385 56.708 78.1881C58.0768 79.5377 57.9257 80.7743 56.0874 81.4269L54.4906 81.9938L57.066 84.5331ZM51.2156 78.7648L53.2638 80.7842L54.3506 80.3983C55.2899 80.0649 55.3585 79.7006 54.74 79.0908L54.4358 78.7909C53.8173 78.1811 53.2418 78.0455 52.3025 78.3789L51.2156 78.7648ZM63.0587 82.4055L61.8927 81.2558L63.4895 80.6889L60.5897 77.8298L58.9929 78.3967L57.8269 77.247L61.4095 75.9751L62.8899 77.4347L62.9838 77.4013C62.4682 76.551 62.3488 75.6416 63.7175 75.1557L64.375 74.9223L65.7539 76.2819L64.2779 76.8059C63.2984 77.1537 63.2955 77.8345 63.9241 78.4544L65.4754 79.9839L67.7565 79.174L68.9225 80.3237L63.0587 82.4055ZM74.2587 78.5924C72.0983 79.3594 69.739 78.7965 68.0457 77.127C66.3525 75.4575 66.6231 73.961 68.7835 73.194C70.9438 72.427 73.3031 72.9898 74.9964 74.6593C76.6897 76.3289 76.419 77.8254 74.2587 78.5924ZM73.1433 77.4927C74.029 77.1783 74.1297 76.5579 73.3591 75.7981L72.5277 74.9783C71.7571 74.2186 70.7844 73.9793 69.8988 74.2937C69.0132 74.6081 68.9124 75.2285 69.683 75.9883L70.5144 76.808C71.285 77.5678 72.2577 77.8071 73.1433 77.4927ZM80.5591 76.1924L78.4659 76.9356L78.3991 73.3969L73.4084 71.7152L75.6761 70.9101L77.2557 71.4778L78.4986 71.9475L78.6059 71.9094L78.5036 71.0348L78.4135 69.9382L80.4933 69.1998L80.5723 72.5166L85.8996 74.2964L83.6185 75.1062L81.7628 74.4462L80.4594 73.9708L80.352 74.0089L80.4612 74.9083L80.5591 76.1924ZM87.908 69.5179L86.741 66.9818L88.7671 66.2624L91.5799 73.4082C91.9378 74.3009 91.733 74.9447 90.5522 75.3639L89.1835 75.8498L88.0175 74.7002L89.6814 74.1095L89.2185 73.0773L81.2261 68.9397L83.3596 68.1822L86.5662 69.9943L88.7177 71.27L88.8251 71.2318L87.908 69.5179Z" fill="#974EF2"/>
<path d="M192.922 308.156L105 280.399V204.074L192.922 231.854V308.156Z" fill="white"/>
<path d="M88.6622 328.344L0.740234 300.586V224.262L88.6622 252.041V328.344Z" fill="white"/>
<path d="M192.922 239.156L105 211.909V204.074L192.922 231.343V239.156Z" fill="#696969"/>
<path d="M88.6622 259.344L0.740234 232.096V224.262L88.6622 251.531V259.344Z" fill="#696969"/>
<g filter="url(#filter22_d_6783_8596)">
<g clip-path="url(#clip5_6783_8596)">
<rect width="60.3" height="22.1338" rx="2.98501" transform="matrix(0.951057 0.309017 0 1 118.617 236.666)" fill="#F76808"/>
<path d="M122.491 245.822V244.309L129.274 246.513V248.026L126.745 247.205V254.375L125.02 253.814V246.644L122.491 245.822ZM130.07 255.455V248.942L131.736 249.483V250.62L131.8 250.641C131.913 250.273 132.103 250.029 132.369 249.91C132.635 249.787 132.941 249.782 133.288 249.895C133.374 249.922 133.467 249.958 133.567 250.002C133.666 250.046 133.753 250.089 133.829 250.134V251.736C133.748 251.685 133.636 251.626 133.494 251.56C133.351 251.494 133.221 251.442 133.103 251.403C132.85 251.321 132.624 251.306 132.425 251.357C132.229 251.406 132.073 251.514 131.958 251.68C131.845 251.847 131.788 252.063 131.788 252.329V256.013L130.07 255.455ZM136.661 257.719C136.265 257.591 135.913 257.404 135.604 257.16C135.295 256.912 135.05 256.617 134.87 256.272C134.693 255.927 134.604 255.539 134.604 255.109C134.604 254.747 134.667 254.464 134.793 254.259C134.92 254.054 135.092 253.912 135.31 253.833C135.527 253.754 135.775 253.721 136.052 253.735C136.331 253.75 136.624 253.791 136.931 253.86C137.291 253.937 137.581 253.995 137.802 254.032C138.022 254.067 138.182 254.065 138.282 254.027C138.381 253.989 138.431 253.9 138.431 253.762V253.736C138.431 253.468 138.35 253.234 138.189 253.034C138.03 252.836 137.804 252.689 137.511 252.594C137.202 252.493 136.956 252.486 136.773 252.57C136.591 252.652 136.47 252.791 136.41 252.987L134.822 252.335C134.902 251.965 135.061 251.675 135.298 251.463C135.534 251.249 135.839 251.125 136.213 251.091C136.589 251.055 137.025 251.117 137.519 251.278C137.864 251.39 138.193 251.539 138.507 251.726C138.825 251.914 139.106 252.137 139.35 252.394C139.598 252.653 139.792 252.945 139.935 253.271C140.077 253.594 140.149 253.95 140.149 254.337V258.73L138.52 258.2V257.297L138.471 257.281C138.372 257.453 138.239 257.589 138.072 257.69C137.905 257.789 137.705 257.844 137.471 257.855C137.237 257.864 136.967 257.819 136.661 257.719ZM137.152 256.632C137.405 256.715 137.628 256.735 137.822 256.693C138.015 256.649 138.167 256.554 138.278 256.409C138.388 256.264 138.443 256.077 138.443 255.848V255.156C138.389 255.176 138.315 255.186 138.221 255.186C138.13 255.185 138.026 255.178 137.911 255.166C137.795 255.151 137.679 255.135 137.564 255.117C137.448 255.096 137.343 255.078 137.249 255.061C137.048 255.027 136.872 255.019 136.721 255.038C136.57 255.057 136.454 255.111 136.37 255.2C136.287 255.286 136.245 255.413 136.245 255.583C136.245 255.829 136.33 256.044 136.499 256.229C136.671 256.413 136.889 256.547 137.152 256.632ZM143.554 256.071V259.836L141.836 259.278V252.765L143.474 253.297V254.446L143.546 254.47C143.683 254.136 143.913 253.911 144.236 253.795C144.558 253.676 144.949 253.692 145.409 253.841C145.839 253.981 146.214 254.202 146.534 254.504C146.854 254.805 147.103 255.169 147.28 255.594C147.458 256.016 147.546 256.481 147.546 256.987V261.133L145.829 260.575V256.751C145.831 256.353 145.734 256.011 145.538 255.723C145.342 255.434 145.072 255.233 144.728 255.121C144.496 255.046 144.292 255.032 144.115 255.079C143.94 255.126 143.803 255.234 143.703 255.403C143.607 255.569 143.557 255.792 143.554 256.071ZM154.409 258.707L152.836 258.298C152.809 258.148 152.751 258.002 152.663 257.86C152.574 257.716 152.457 257.586 152.312 257.471C152.169 257.354 151.999 257.263 151.8 257.198C151.534 257.112 151.309 257.098 151.126 257.158C150.943 257.214 150.852 257.34 150.852 257.535C150.852 257.69 150.911 257.841 151.029 257.987C151.148 258.133 151.351 258.285 151.638 258.443L152.759 259.045C153.362 259.371 153.811 259.726 154.106 260.11C154.402 260.495 154.55 260.921 154.55 261.391C154.55 261.817 154.43 262.153 154.191 262.398C153.954 262.643 153.629 262.789 153.215 262.835C152.804 262.88 152.329 262.815 151.792 262.64C150.972 262.373 150.318 261.982 149.832 261.465C149.348 260.946 149.064 260.362 148.981 259.713L150.671 260.168C150.722 260.448 150.845 260.689 151.042 260.891C151.238 261.09 151.489 261.24 151.796 261.339C152.097 261.437 152.339 261.455 152.522 261.393C152.707 261.329 152.801 261.2 152.804 261.006C152.801 260.841 152.735 260.685 152.606 260.539C152.477 260.389 152.278 260.243 152.009 260.099L150.937 259.525C150.332 259.202 149.882 258.835 149.586 258.425C149.293 258.016 149.146 257.569 149.146 257.082C149.146 256.664 149.254 256.339 149.469 256.106C149.687 255.874 149.992 255.74 150.384 255.704C150.779 255.668 151.242 255.736 151.771 255.909C152.554 256.163 153.169 256.537 153.618 257.03C154.07 257.525 154.333 258.084 154.409 258.707ZM159.317 258.445V259.802L155.495 258.56V257.203L159.317 258.445ZM156.37 264V257.017C156.37 256.545 156.457 256.182 156.632 255.927C156.809 255.674 157.051 255.52 157.358 255.464C157.664 255.408 158.012 255.443 158.402 255.57C158.665 255.655 158.906 255.755 159.124 255.868C159.344 255.982 159.508 256.073 159.616 256.142L159.309 257.399C159.242 257.355 159.159 257.307 159.059 257.255C158.963 257.203 158.863 257.161 158.761 257.128C158.508 257.046 158.332 257.051 158.233 257.143C158.133 257.232 158.083 257.387 158.083 257.608V264.557L156.37 264ZM163.323 266.387C162.686 266.18 162.137 265.866 161.677 265.445C161.22 265.022 160.868 264.521 160.621 263.94C160.374 263.356 160.25 262.721 160.25 262.034C160.25 261.364 160.374 260.817 160.621 260.391C160.868 259.965 161.216 259.684 161.665 259.547C162.117 259.411 162.647 259.442 163.254 259.64C163.663 259.772 164.043 259.965 164.395 260.218C164.75 260.469 165.059 260.774 165.323 261.134C165.589 261.495 165.796 261.907 165.944 262.371C166.092 262.831 166.166 263.339 166.166 263.893V264.389L160.935 262.689V261.57L164.549 262.744C164.549 262.484 164.495 262.236 164.387 262.001C164.28 261.765 164.131 261.56 163.94 261.384C163.752 261.207 163.532 261.078 163.282 260.997C163.022 260.912 162.79 260.901 162.589 260.962C162.39 261.022 162.234 261.14 162.121 261.315C162.008 261.488 161.95 261.702 161.948 261.958V263.023C161.948 263.345 162.004 263.642 162.117 263.913C162.233 264.185 162.395 264.419 162.605 264.614C162.815 264.81 163.063 264.954 163.351 265.047C163.542 265.109 163.717 265.138 163.875 265.133C164.034 265.128 164.17 265.087 164.282 265.011C164.395 264.934 164.481 264.824 164.541 264.679L166.129 265.306C166.049 265.681 165.883 265.978 165.633 266.196C165.386 266.412 165.066 266.54 164.674 266.58C164.284 266.617 163.834 266.553 163.323 266.387ZM167.642 267.663V261.15L169.307 261.691V262.827L169.372 262.848C169.484 262.481 169.674 262.237 169.94 262.117C170.206 261.994 170.513 261.989 170.86 262.102C170.946 262.13 171.038 262.166 171.138 262.21C171.237 262.253 171.325 262.297 171.4 262.341V263.944C171.319 263.892 171.208 263.834 171.065 263.767C170.923 263.701 170.792 263.649 170.674 263.611C170.421 263.529 170.196 263.513 169.997 263.564C169.8 263.614 169.644 263.721 169.529 263.887C169.416 264.054 169.359 264.27 169.359 264.536V268.221L167.642 267.663Z" fill="#FDFCFE"/>
</g>
</g>
<path d="M192.922 231.196L105 204.048L112.869 201L200.791 228.147L192.922 231.196Z" fill="#D0D0D0"/>
<path d="M88.6622 251.383L0.740234 224.236L8.60887 221.187L96.5308 248.335L88.6622 251.383Z" fill="#D0D0D0"/>
<path d="M200.338 305.897L193.194 309.165V232.903L200.338 229.678V305.897Z" fill="#E2D7DA"/>
<path d="M96.0775 326.084L88.9336 329.353V253.09L96.0775 249.865V326.084Z" fill="#E2D7DA"/>
<path d="M200.338 236.172L193.194 239.166V231.501L200.338 228.547V236.172Z" fill="#696969"/>
<path d="M96 255.529L89 259V251.425L96 248V255.529Z" fill="#696969"/>
<rect width="39.6538" height="38.6538" rx="19.3269" transform="matrix(0.975342 0.220697 -0.0165799 0.999863 19.3687 252.977)" fill="#EDE9FE"/>
<path d="M35.845 282.469L46.9075 273.779L45.2377 271.594L35.9037 278.926L31.6712 273.538L29.9427 274.895L35.845 282.469ZM47.0106 267.564C47.6904 267.718 48.2528 268.098 48.6977 268.704C49.181 269.28 49.4169 269.916 49.4053 270.613L49.1183 287.92C49.1067 288.617 48.8513 289.162 48.3519 289.554C47.891 289.916 47.3206 290.02 46.6408 289.867L29.7578 286.046C29.0779 285.893 28.4963 285.528 28.013 284.952C27.5681 284.346 27.3515 283.695 27.363 282.998L27.65 265.69C27.6616 264.993 27.8978 264.464 28.3588 264.102C28.8581 263.71 29.4477 263.59 30.1276 263.744L47.0106 267.564Z" fill="#974EF2"/>
<rect width="87.4" height="24.2" transform="translate(54.3955 315.367)" fill="#974EF2"/>
<path d="M67.249 333.467H63.7125V323.03H67.3204C68.3565 323.03 69.2466 323.239 69.9906 323.657C70.738 324.072 71.3122 324.668 71.713 325.446C72.1139 326.224 72.3143 327.155 72.3143 328.238C72.3143 329.326 72.1122 330.26 71.7079 331.041C71.3071 331.823 70.7278 332.422 69.9702 332.84C69.216 333.258 68.309 333.467 67.249 333.467ZM65.6031 331.831H67.1573C67.8843 331.831 68.4907 331.699 68.9765 331.434C69.4623 331.165 69.8275 330.766 70.0722 330.236C70.3168 329.703 70.4391 329.037 70.4391 328.238C70.4391 327.44 70.3168 326.778 70.0722 326.251C69.8275 325.721 69.4657 325.325 68.9867 325.064C68.5111 324.799 67.92 324.666 67.2134 324.666H65.6031V331.831ZM77.4943 333.62C76.7095 333.62 76.0318 333.457 75.4611 333.13C74.8937 332.801 74.4572 332.336 74.1514 331.734C73.8457 331.129 73.6928 330.418 73.6928 329.599C73.6928 328.794 73.8457 328.087 74.1514 327.479C74.4606 326.868 74.892 326.392 75.4458 326.052C75.9995 325.709 76.6501 325.538 77.3975 325.538C77.8799 325.538 78.3351 325.616 78.7632 325.772C79.1946 325.925 79.5751 326.163 79.9047 326.485C80.2376 326.808 80.4992 327.219 80.6894 327.719C80.8797 328.215 80.9748 328.806 80.9748 329.492V330.058H74.5591V328.814H79.2065C79.2031 328.461 79.1267 328.147 78.9772 327.872C78.8277 327.593 78.6188 327.374 78.3504 327.214C78.0854 327.054 77.7763 326.975 77.423 326.975C77.0459 326.975 76.7146 327.066 76.4293 327.25C76.1439 327.43 75.9214 327.668 75.7617 327.963C75.6054 328.255 75.5256 328.576 75.5222 328.926V330.012C75.5222 330.467 75.6054 330.858 75.7719 331.184C75.9384 331.507 76.1711 331.755 76.47 331.928C76.769 332.098 77.1189 332.183 77.5198 332.183C77.7882 332.183 78.0311 332.145 78.2485 332.071C78.4659 331.992 78.6545 331.879 78.8141 331.729C78.9738 331.58 79.0944 331.394 79.176 331.174L80.8984 331.367C80.7896 331.823 80.5824 332.22 80.2767 332.56C79.9743 332.896 79.587 333.158 79.1148 333.344C78.6426 333.528 78.1024 333.62 77.4943 333.62ZM89.3028 325.64L86.5153 333.467H84.4769L81.6895 325.64H83.6565L85.4554 331.454H85.5369L87.3408 325.64H89.3028ZM93.7782 333.62C92.9934 333.62 92.3157 333.457 91.745 333.13C91.1776 332.801 90.7411 332.336 90.4353 331.734C90.1296 331.129 89.9767 330.418 89.9767 329.599C89.9767 328.794 90.1296 328.087 90.4353 327.479C90.7445 326.868 91.1759 326.392 91.7297 326.052C92.2834 325.709 92.934 325.538 93.6814 325.538C94.1638 325.538 94.619 325.616 95.0471 325.772C95.4785 325.925 95.859 326.163 96.1886 326.485C96.5215 326.808 96.7831 327.219 96.9733 327.719C97.1636 328.215 97.2587 328.806 97.2587 329.492V330.058H90.843V328.814H95.4904C95.487 328.461 95.4106 328.147 95.2611 327.872C95.1116 327.593 94.9027 327.374 94.6343 327.214C94.3693 327.054 94.0602 326.975 93.7069 326.975C93.3298 326.975 92.9985 327.066 92.7132 327.25C92.4278 327.43 92.2053 327.668 92.0456 327.963C91.8893 328.255 91.8095 328.576 91.8061 328.926V330.012C91.8061 330.467 91.8893 330.858 92.0558 331.184C92.2223 331.507 92.455 331.755 92.7539 331.928C93.0529 332.098 93.4028 332.183 93.8037 332.183C94.0721 332.183 94.315 332.145 94.5324 332.071C94.7498 331.992 94.9384 331.879 95.098 331.729C95.2577 331.58 95.3783 331.394 95.4599 331.174L97.1823 331.367C97.0736 331.823 96.8663 332.22 96.5606 332.56C96.2582 332.896 95.8709 333.158 95.3987 333.344C94.9265 333.528 94.3863 333.62 93.7782 333.62ZM100.664 323.03V333.467H98.8193V323.03H100.664ZM105.975 333.62C105.211 333.62 104.548 333.452 103.988 333.115C103.427 332.779 102.992 332.308 102.683 331.704C102.378 331.099 102.225 330.392 102.225 329.584C102.225 328.775 102.378 328.067 102.683 327.459C102.992 326.851 103.427 326.378 103.988 326.042C104.548 325.706 105.211 325.538 105.975 325.538C106.74 325.538 107.402 325.706 107.963 326.042C108.523 326.378 108.956 326.851 109.262 327.459C109.571 328.067 109.726 328.775 109.726 329.584C109.726 330.392 109.571 331.099 109.262 331.704C108.956 332.308 108.523 332.779 107.963 333.115C107.402 333.452 106.74 333.62 105.975 333.62ZM105.985 332.142C106.4 332.142 106.746 332.028 107.025 331.8C107.304 331.569 107.511 331.26 107.647 330.873C107.786 330.486 107.856 330.054 107.856 329.579C107.856 329.1 107.786 328.666 107.647 328.279C107.511 327.889 107.304 327.578 107.025 327.347C106.746 327.116 106.4 327 105.985 327C105.561 327 105.207 327.116 104.925 327.347C104.647 327.578 104.438 327.889 104.299 328.279C104.163 328.666 104.095 329.1 104.095 329.579C104.095 330.054 104.163 330.486 104.299 330.873C104.438 331.26 104.647 331.569 104.925 331.8C105.207 332.028 105.561 332.142 105.985 332.142ZM111.291 336.402V325.64H113.106V326.934H113.213C113.308 326.744 113.442 326.541 113.615 326.327C113.788 326.11 114.023 325.925 114.318 325.772C114.614 325.616 114.991 325.538 115.45 325.538C116.054 325.538 116.6 325.692 117.086 326.001C117.575 326.307 117.962 326.761 118.247 327.362C118.536 327.96 118.681 328.694 118.681 329.563C118.681 330.423 118.54 331.153 118.258 331.755C117.976 332.356 117.592 332.815 117.106 333.13C116.62 333.446 116.07 333.604 115.455 333.604C115.006 333.604 114.634 333.53 114.339 333.38C114.043 333.231 113.805 333.051 113.625 332.84C113.449 332.626 113.311 332.424 113.213 332.234H113.136V336.402H111.291ZM113.101 329.553C113.101 330.059 113.172 330.503 113.315 330.883C113.461 331.264 113.67 331.561 113.941 331.775C114.217 331.986 114.549 332.091 114.94 332.091C115.348 332.091 115.689 331.982 115.964 331.765C116.24 331.544 116.447 331.243 116.586 330.863C116.729 330.479 116.8 330.042 116.8 329.553C116.8 329.067 116.731 328.636 116.591 328.259C116.452 327.882 116.245 327.586 115.97 327.372C115.694 327.158 115.351 327.051 114.94 327.051C114.546 327.051 114.211 327.155 113.936 327.362C113.661 327.569 113.452 327.86 113.309 328.233C113.17 328.607 113.101 329.047 113.101 329.553ZM123.725 333.62C122.941 333.62 122.263 333.457 121.692 333.13C121.125 332.801 120.688 332.336 120.383 331.734C120.077 331.129 119.924 330.418 119.924 329.599C119.924 328.794 120.077 328.087 120.383 327.479C120.692 326.868 121.123 326.392 121.677 326.052C122.231 325.709 122.881 325.538 123.629 325.538C124.111 325.538 124.566 325.616 124.994 325.772C125.426 325.925 125.806 326.163 126.136 326.485C126.469 326.808 126.73 327.219 126.921 327.719C127.111 328.215 127.206 328.806 127.206 329.492V330.058H120.79V328.814H125.438C125.434 328.461 125.358 328.147 125.208 327.872C125.059 327.593 124.85 327.374 124.582 327.214C124.317 327.054 124.007 326.975 123.654 326.975C123.277 326.975 122.946 327.066 122.66 327.25C122.375 327.43 122.153 327.668 121.993 327.963C121.837 328.255 121.757 328.576 121.753 328.926V330.012C121.753 330.467 121.837 330.858 122.003 331.184C122.17 331.507 122.402 331.755 122.701 331.928C123 332.098 123.35 332.183 123.751 332.183C124.019 332.183 124.262 332.145 124.48 332.071C124.697 331.992 124.886 331.879 125.045 331.729C125.205 331.58 125.326 331.394 125.407 331.174L127.13 331.367C127.021 331.823 126.814 332.22 126.508 332.56C126.205 332.896 125.818 333.158 125.346 333.344C124.874 333.528 124.334 333.62 123.725 333.62ZM128.767 333.467V325.64H130.555V326.944H130.637C130.779 326.492 131.024 326.144 131.371 325.899C131.72 325.651 132.12 325.527 132.568 325.527C132.67 325.527 132.784 325.533 132.91 325.543C133.039 325.549 133.146 325.561 133.231 325.578V327.275C133.152 327.248 133.028 327.224 132.859 327.204C132.692 327.18 132.531 327.168 132.374 327.168C132.038 327.168 131.736 327.241 131.467 327.387C131.202 327.53 130.993 327.729 130.841 327.984C130.688 328.238 130.611 328.532 130.611 328.865V333.467H128.767Z" fill="#FEFCFB"/>
<g filter="url(#filter23_d_6783_8596)">
<path fill-rule="evenodd" clip-rule="evenodd" d="M43.3219 322.984L36.0718 284.646L69.8388 307.07L52.5221 310.344L52.2069 310.711L43.3219 322.984Z" fill="white"/>
<path fill-rule="evenodd" clip-rule="evenodd" d="M39.5718 289.695L44.6468 316.532L50.6431 308.277L50.9732 307.869L63.353 305.549L39.5718 289.695Z" fill="#974EF2"/>
</g>
<rect width="79.4001" height="25.2001" transform="translate(169.598 296.332)" fill="#FA934E"/>
<path d="M178.828 314.432V303.995H185.615V305.58H180.718V308.413H185.264V309.998H180.718V312.847H185.656V314.432H178.828ZM189.307 309.845V314.432H187.463V306.604H189.226V307.934H189.318C189.498 307.496 189.785 307.148 190.179 306.89C190.576 306.631 191.067 306.502 191.652 306.502C192.192 306.502 192.662 306.618 193.063 306.849C193.467 307.08 193.78 307.415 194.001 307.853C194.225 308.291 194.335 308.823 194.332 309.448V314.432H192.487V309.733C192.487 309.21 192.351 308.801 192.08 308.505C191.811 308.21 191.439 308.062 190.964 308.062C190.641 308.062 190.354 308.133 190.102 308.276C189.854 308.415 189.659 308.617 189.516 308.882C189.377 309.147 189.307 309.468 189.307 309.845ZM199.112 314.569C198.497 314.569 197.947 314.411 197.461 314.095C196.975 313.779 196.591 313.321 196.309 312.719C196.027 312.118 195.886 311.388 195.886 310.528C195.886 309.658 196.029 308.925 196.314 308.327C196.603 307.725 196.992 307.272 197.481 306.966C197.971 306.657 198.516 306.502 199.117 306.502C199.576 306.502 199.953 306.581 200.248 306.737C200.544 306.89 200.778 307.075 200.952 307.292C201.125 307.506 201.259 307.708 201.354 307.899H201.431V303.995H203.28V314.432H201.466V313.198H201.354C201.259 313.389 201.122 313.591 200.941 313.805C200.761 314.015 200.524 314.196 200.228 314.345C199.932 314.494 199.56 314.569 199.112 314.569ZM199.627 313.056C200.017 313.056 200.35 312.95 200.626 312.74C200.901 312.526 201.11 312.229 201.252 311.848C201.395 311.468 201.466 311.024 201.466 310.518C201.466 310.012 201.395 309.572 201.252 309.198C201.113 308.824 200.906 308.534 200.631 308.327C200.359 308.119 200.024 308.016 199.627 308.016C199.216 308.016 198.873 308.123 198.597 308.337C198.322 308.551 198.115 308.847 197.976 309.224C197.836 309.601 197.767 310.032 197.767 310.518C197.767 311.007 197.836 311.444 197.976 311.828C198.118 312.208 198.327 312.509 198.602 312.73C198.881 312.947 199.222 313.056 199.627 313.056ZM215.466 303.995H217.357V310.814C217.357 311.561 217.18 312.218 216.827 312.786C216.477 313.353 215.984 313.796 215.349 314.116C214.714 314.432 213.971 314.59 213.122 314.59C212.269 314.59 211.525 314.432 210.89 314.116C210.255 313.796 209.762 313.353 209.412 312.786C209.062 312.218 208.887 311.561 208.887 310.814V303.995H210.778V310.656C210.778 311.09 210.873 311.478 211.063 311.817C211.257 312.157 211.529 312.424 211.879 312.617C212.229 312.808 212.643 312.903 213.122 312.903C213.601 312.903 214.015 312.808 214.365 312.617C214.719 312.424 214.991 312.157 215.181 311.817C215.371 311.478 215.466 311.09 215.466 310.656V303.995ZM225.517 308.673L223.835 308.857C223.787 308.687 223.704 308.527 223.585 308.378C223.47 308.228 223.313 308.108 223.116 308.016C222.919 307.924 222.678 307.878 222.393 307.878C222.009 307.878 221.686 307.962 221.425 308.128C221.166 308.294 221.039 308.51 221.042 308.775C221.039 309.003 221.122 309.188 221.292 309.331C221.465 309.473 221.751 309.591 222.148 309.682L223.483 309.968C224.224 310.127 224.774 310.38 225.134 310.727C225.498 311.073 225.681 311.527 225.685 312.088C225.681 312.58 225.537 313.015 225.252 313.392C224.97 313.766 224.577 314.058 224.074 314.269C223.572 314.479 222.994 314.585 222.342 314.585C221.384 314.585 220.613 314.384 220.028 313.983C219.444 313.579 219.096 313.017 218.984 312.296L220.782 312.123C220.864 312.477 221.037 312.743 221.302 312.923C221.567 313.103 221.912 313.193 222.337 313.193C222.775 313.193 223.127 313.103 223.392 312.923C223.66 312.743 223.794 312.521 223.794 312.256C223.794 312.031 223.708 311.846 223.534 311.7C223.364 311.554 223.099 311.442 222.739 311.364L221.404 311.084C220.653 310.927 220.098 310.664 219.738 310.294C219.378 309.92 219.199 309.448 219.203 308.877C219.199 308.395 219.33 307.977 219.595 307.623C219.863 307.267 220.235 306.992 220.711 306.798C221.19 306.601 221.742 306.502 222.367 306.502C223.285 306.502 224.006 306.698 224.533 307.088C225.063 307.479 225.391 308.007 225.517 308.673ZM230.671 314.585C229.886 314.585 229.209 314.421 228.638 314.095C228.07 313.766 227.634 313.3 227.328 312.699C227.022 312.094 226.87 311.383 226.87 310.564C226.87 309.759 227.022 309.052 227.328 308.444C227.637 307.832 228.069 307.357 228.623 307.017C229.176 306.674 229.827 306.502 230.574 306.502C231.057 306.502 231.512 306.581 231.94 306.737C232.371 306.89 232.752 307.127 233.081 307.45C233.414 307.773 233.676 308.184 233.866 308.683C234.056 309.179 234.152 309.771 234.152 310.457V311.022H227.736V309.779H232.383C232.38 309.426 232.303 309.111 232.154 308.836C232.005 308.558 231.796 308.339 231.527 308.179C231.262 308.019 230.953 307.939 230.6 307.939C230.223 307.939 229.891 308.031 229.606 308.215C229.321 308.395 229.098 308.632 228.938 308.928C228.782 309.22 228.702 309.541 228.699 309.891V310.977C228.699 311.432 228.782 311.823 228.949 312.149C229.115 312.471 229.348 312.719 229.647 312.893C229.946 313.063 230.296 313.147 230.697 313.147C230.965 313.147 231.208 313.11 231.425 313.035C231.643 312.957 231.831 312.843 231.991 312.694C232.151 312.544 232.271 312.359 232.353 312.138L234.075 312.332C233.966 312.787 233.759 313.185 233.453 313.525C233.151 313.861 232.764 314.122 232.292 314.309C231.819 314.493 231.279 314.585 230.671 314.585ZM235.712 314.432V306.604H237.501V307.909H237.582C237.725 307.457 237.97 307.109 238.316 306.864C238.666 306.616 239.065 306.492 239.514 306.492C239.616 306.492 239.73 306.497 239.855 306.507C239.984 306.514 240.091 306.526 240.176 306.543V308.24C240.098 308.213 239.974 308.189 239.804 308.169C239.638 308.145 239.476 308.133 239.32 308.133C238.984 308.133 238.681 308.206 238.413 308.352C238.148 308.495 237.939 308.694 237.786 308.948C237.633 309.203 237.557 309.497 237.557 309.83V314.432H235.712Z" fill="#FEFCFB"/>
<g filter="url(#filter24_d_6783_8596)">
<path fill-rule="evenodd" clip-rule="evenodd" d="M158.804 304.218L151.274 265.486L185.15 288.359L167.89 291.534L167.579 291.902L158.804 304.218Z" fill="white"/>
<path fill-rule="evenodd" clip-rule="evenodd" d="M154.801 270.609L160.072 297.722L165.994 289.439L166.32 289.03L178.66 286.78L154.801 270.609Z" fill="#FA934E"/>
</g>
<defs>
<filter id="filter0_i_6783_8596" x="115.958" y="73.7967" width="22.3862" height="28.1857" filterUnits="userSpaceOnUse" color-interpolation-filters="sRGB">
<feFlood flood-opacity="0" result="BackgroundImageFix"/>
<feBlend mode="normal" in="SourceGraphic" in2="BackgroundImageFix" result="shape"/>
<feColorMatrix in="SourceAlpha" type="matrix" values="0 0 0 0 0 0 0 0 0 0 0 0 0 0 0 0 0 0 127 0" result="hardAlpha"/>
<feOffset dy="-5.92207"/>
<feGaussianBlur stdDeviation="2.96104"/>
<feComposite in2="hardAlpha" operator="arithmetic" k2="-1" k3="1"/>
<feColorMatrix type="matrix" values="0 0 0 0 0 0 0 0 0 0 0 0 0 0 0 0 0 0 0.1 0"/>
<feBlend mode="normal" in2="shape" result="effect1_innerShadow_6783_8596"/>
</filter>
<filter id="filter1_i_6783_8596" x="252.056" y="108.842" width="22.3862" height="28.1857" filterUnits="userSpaceOnUse" color-interpolation-filters="sRGB">
<feFlood flood-opacity="0" result="BackgroundImageFix"/>
<feBlend mode="normal" in="SourceGraphic" in2="BackgroundImageFix" result="shape"/>
<feColorMatrix in="SourceAlpha" type="matrix" values="0 0 0 0 0 0 0 0 0 0 0 0 0 0 0 0 0 0 127 0" result="hardAlpha"/>
<feOffset dy="-5.92207"/>
<feGaussianBlur stdDeviation="2.96104"/>
<feComposite in2="hardAlpha" operator="arithmetic" k2="-1" k3="1"/>
<feColorMatrix type="matrix" values="0 0 0 0 0 0 0 0 0 0 0 0 0 0 0 0 0 0 0.1 0"/>
<feBlend mode="normal" in2="shape" result="effect1_innerShadow_6783_8596"/>
</filter>
<filter id="filter2_i_6783_8596" x="189.087" y="89.4353" width="22.3862" height="28.1857" filterUnits="userSpaceOnUse" color-interpolation-filters="sRGB">
<feFlood flood-opacity="0" result="BackgroundImageFix"/>
<feBlend mode="normal" in="SourceGraphic" in2="BackgroundImageFix" result="shape"/>
<feColorMatrix in="SourceAlpha" type="matrix" values="0 0 0 0 0 0 0 0 0 0 0 0 0 0 0 0 0 0 127 0" result="hardAlpha"/>
<feOffset dy="-5.92207"/>
<feGaussianBlur stdDeviation="2.96104"/>
<feComposite in2="hardAlpha" operator="arithmetic" k2="-1" k3="1"/>
<feColorMatrix type="matrix" values="0 0 0 0 0 0 0 0 0 0 0 0 0 0 0 0 0 0 0.1 0"/>
<feBlend mode="normal" in2="shape" result="effect1_innerShadow_6783_8596"/>
</filter>
<filter id="filter3_i_6783_8596" x="246.289" y="57.0232" width="22.3862" height="28.1857" filterUnits="userSpaceOnUse" color-interpolation-filters="sRGB">
<feFlood flood-opacity="0" result="BackgroundImageFix"/>
<feBlend mode="normal" in="SourceGraphic" in2="BackgroundImageFix" result="shape"/>
<feColorMatrix in="SourceAlpha" type="matrix" values="0 0 0 0 0 0 0 0 0 0 0 0 0 0 0 0 0 0 127 0" result="hardAlpha"/>
<feOffset dy="-5.92207"/>
<feGaussianBlur stdDeviation="2.96104"/>
<feComposite in2="hardAlpha" operator="arithmetic" k2="-1" k3="1"/>
<feColorMatrix type="matrix" values="0 0 0 0 0 0 0 0 0 0 0 0 0 0 0 0 0 0 0.1 0"/>
<feBlend mode="normal" in2="shape" result="effect1_innerShadow_6783_8596"/>
</filter>
<filter id="filter4_i_6783_8596" x="166.521" y="44.8963" width="29.7681" height="35.5236" filterUnits="userSpaceOnUse" color-interpolation-filters="sRGB">
<feFlood flood-opacity="0" result="BackgroundImageFix"/>
<feBlend mode="normal" in="SourceGraphic" in2="BackgroundImageFix" result="shape"/>
<feColorMatrix in="SourceAlpha" type="matrix" values="0 0 0 0 0 0 0 0 0 0 0 0 0 0 0 0 0 0 127 0" result="hardAlpha"/>
<feOffset dy="-5.92207"/>
<feGaussianBlur stdDeviation="2.96104"/>
<feComposite in2="hardAlpha" operator="arithmetic" k2="-1" k3="1"/>
<feColorMatrix type="matrix" values="0 0 0 0 0 0 0 0 0 0 0 0 0 0 0 0 0 0 0.1 0"/>
<feBlend mode="normal" in2="shape" result="effect1_innerShadow_6783_8596"/>
</filter>
<filter id="filter5_i_6783_8596" x="252.219" y="161.525" width="29.7681" height="35.5236" filterUnits="userSpaceOnUse" color-interpolation-filters="sRGB">
<feFlood flood-opacity="0" result="BackgroundImageFix"/>
<feBlend mode="normal" in="SourceGraphic" in2="BackgroundImageFix" result="shape"/>
<feColorMatrix in="SourceAlpha" type="matrix" values="0 0 0 0 0 0 0 0 0 0 0 0 0 0 0 0 0 0 127 0" result="hardAlpha"/>
<feOffset dy="-5.92207"/>
<feGaussianBlur stdDeviation="2.96104"/>
<feComposite in2="hardAlpha" operator="arithmetic" k2="-1" k3="1"/>
<feColorMatrix type="matrix" values="0 0 0 0 0 0 0 0 0 0 0 0 0 0 0 0 0 0 0.1 0"/>
<feBlend mode="normal" in2="shape" result="effect1_innerShadow_6783_8596"/>
</filter>
<filter id="filter6_i_6783_8596" x="348.799" y="73.7967" width="34.8853" height="39.6232" filterUnits="userSpaceOnUse" color-interpolation-filters="sRGB">
<feFlood flood-opacity="0" result="BackgroundImageFix"/>
<feBlend mode="normal" in="SourceGraphic" in2="BackgroundImageFix" result="shape"/>
<feColorMatrix in="SourceAlpha" type="matrix" values="0 0 0 0 0 0 0 0 0 0 0 0 0 0 0 0 0 0 127 0" result="hardAlpha"/>
<feOffset dy="-5.92207"/>
<feGaussianBlur stdDeviation="2.96104"/>
<feComposite in2="hardAlpha" operator="arithmetic" k2="-1" k3="1"/>
<feColorMatrix type="matrix" values="0 0 0 0 0 0 0 0 0 0 0 0 0 0 0 0 0 0 0.1 0"/>
<feBlend mode="normal" in2="shape" result="effect1_innerShadow_6783_8596"/>
</filter>
<filter id="filter7_i_6783_8596" x="286.017" y="122.578" width="22.3862" height="28.1857" filterUnits="userSpaceOnUse" color-interpolation-filters="sRGB">
<feFlood flood-opacity="0" result="BackgroundImageFix"/>
<feBlend mode="normal" in="SourceGraphic" in2="BackgroundImageFix" result="shape"/>
<feColorMatrix in="SourceAlpha" type="matrix" values="0 0 0 0 0 0 0 0 0 0 0 0 0 0 0 0 0 0 127 0" result="hardAlpha"/>
<feOffset dy="-5.92207"/>
<feGaussianBlur stdDeviation="2.96104"/>
<feComposite in2="hardAlpha" operator="arithmetic" k2="-1" k3="1"/>
<feColorMatrix type="matrix" values="0 0 0 0 0 0 0 0 0 0 0 0 0 0 0 0 0 0 0.1 0"/>
<feBlend mode="normal" in2="shape" result="effect1_innerShadow_6783_8596"/>
</filter>
<filter id="filter8_i_6783_8596" x="353.5" y="36.9861" width="22.3862" height="28.1857" filterUnits="userSpaceOnUse" color-interpolation-filters="sRGB">
<feFlood flood-opacity="0" result="BackgroundImageFix"/>
<feBlend mode="normal" in="SourceGraphic" in2="BackgroundImageFix" result="shape"/>
<feColorMatrix in="SourceAlpha" type="matrix" values="0 0 0 0 0 0 0 0 0 0 0 0 0 0 0 0 0 0 127 0" result="hardAlpha"/>
<feOffset dy="-5.92207"/>
<feGaussianBlur stdDeviation="2.96104"/>
<feComposite in2="hardAlpha" operator="arithmetic" k2="-1" k3="1"/>
<feColorMatrix type="matrix" values="0 0 0 0 0 0 0 0 0 0 0 0 0 0 0 0 0 0 0.1 0"/>
<feBlend mode="normal" in2="shape" result="effect1_innerShadow_6783_8596"/>
</filter>
<filter id="filter9_i_6783_8596" x="343.855" y="139.181" width="22.3862" height="28.1857" filterUnits="userSpaceOnUse" color-interpolation-filters="sRGB">
<feFlood flood-opacity="0" result="BackgroundImageFix"/>
<feBlend mode="normal" in="SourceGraphic" in2="BackgroundImageFix" result="shape"/>
<feColorMatrix in="SourceAlpha" type="matrix" values="0 0 0 0 0 0 0 0 0 0 0 0 0 0 0 0 0 0 127 0" result="hardAlpha"/>
<feOffset dy="-5.92207"/>
<feGaussianBlur stdDeviation="2.96104"/>
<feComposite in2="hardAlpha" operator="arithmetic" k2="-1" k3="1"/>
<feColorMatrix type="matrix" values="0 0 0 0 0 0 0 0 0 0 0 0 0 0 0 0 0 0 0.1 0"/>
<feBlend mode="normal" in2="shape" result="effect1_innerShadow_6783_8596"/>
</filter>
<filter id="filter10_i_6783_8596" x="369.021" y="48.326" width="22.3862" height="28.1857" filterUnits="userSpaceOnUse" color-interpolation-filters="sRGB">
<feFlood flood-opacity="0" result="BackgroundImageFix"/>
<feBlend mode="normal" in="SourceGraphic" in2="BackgroundImageFix" result="shape"/>
<feColorMatrix in="SourceAlpha" type="matrix" values="0 0 0 0 0 0 0 0 0 0 0 0 0 0 0 0 0 0 127 0" result="hardAlpha"/>
<feOffset dy="-5.92207"/>
<feGaussianBlur stdDeviation="2.96104"/>
<feComposite in2="hardAlpha" operator="arithmetic" k2="-1" k3="1"/>
<feColorMatrix type="matrix" values="0 0 0 0 0 0 0 0 0 0 0 0 0 0 0 0 0 0 0.1 0"/>
<feBlend mode="normal" in2="shape" result="effect1_innerShadow_6783_8596"/>
</filter>
<filter id="filter11_di_6783_8596" x="189.752" y="109.578" width="104.75" height="104.461" filterUnits="userSpaceOnUse" color-interpolation-filters="sRGB">
<feFlood flood-opacity="0" result="BackgroundImageFix"/>
<feColorMatrix in="SourceAlpha" type="matrix" values="0 0 0 0 0 0 0 0 0 0 0 0 0 0 0 0 0 0 127 0" result="hardAlpha"/>
<feOffset/>
<feGaussianBlur stdDeviation="13.1699"/>
<feComposite in2="hardAlpha" operator="out"/>
<feColorMatrix type="matrix" values="0 0 0 0 0 0 0 0 0 0 0 0 0 0 0 0 0 0 0.1 0"/>
<feBlend mode="normal" in2="BackgroundImageFix" result="effect1_dropShadow_6783_8596"/>
<feBlend mode="normal" in="SourceGraphic" in2="effect1_dropShadow_6783_8596" result="shape"/>
<feColorMatrix in="SourceAlpha" type="matrix" values="0 0 0 0 0 0 0 0 0 0 0 0 0 0 0 0 0 0 127 0" result="hardAlpha"/>
<feOffset dy="-5.92207"/>
<feGaussianBlur stdDeviation="2.96104"/>
<feComposite in2="hardAlpha" operator="arithmetic" k2="-1" k3="1"/>
<feColorMatrix type="matrix" values="0 0 0 0 0 0 0 0 0 0 0 0 0 0 0 0 0 0 0.1 0"/>
<feBlend mode="normal" in2="shape" result="effect2_innerShadow_6783_8596"/>
</filter>
<filter id="filter12_di_6783_8596" x="164.481" y="20.5078" width="102.371" height="102.094" filterUnits="userSpaceOnUse" color-interpolation-filters="sRGB">
<feFlood flood-opacity="0" result="BackgroundImageFix"/>
<feColorMatrix in="SourceAlpha" type="matrix" values="0 0 0 0 0 0 0 0 0 0 0 0 0 0 0 0 0 0 127 0" result="hardAlpha"/>
<feOffset/>
<feGaussianBlur stdDeviation="13.1699"/>
<feComposite in2="hardAlpha" operator="out"/>
<feColorMatrix type="matrix" values="0 0 0 0 0 0 0 0 0 0 0 0 0 0 0 0 0 0 0.1 0"/>
<feBlend mode="normal" in2="BackgroundImageFix" result="effect1_dropShadow_6783_8596"/>
<feBlend mode="normal" in="SourceGraphic" in2="effect1_dropShadow_6783_8596" result="shape"/>
<feColorMatrix in="SourceAlpha" type="matrix" values="0 0 0 0 0 0 0 0 0 0 0 0 0 0 0 0 0 0 127 0" result="hardAlpha"/>
<feOffset dy="-5.92207"/>
<feGaussianBlur stdDeviation="2.96104"/>
<feComposite in2="hardAlpha" operator="arithmetic" k2="-1" k3="1"/>
<feColorMatrix type="matrix" values="0 0 0 0 0 0 0 0 0 0 0 0 0 0 0 0 0 0 0.1 0"/>
<feBlend mode="normal" in2="shape" result="effect2_innerShadow_6783_8596"/>
</filter>
<filter id="filter13_di_6783_8596" x="252.652" y="120.949" width="111.502" height="111.176" filterUnits="userSpaceOnUse" color-interpolation-filters="sRGB">
<feFlood flood-opacity="0" result="BackgroundImageFix"/>
<feColorMatrix in="SourceAlpha" type="matrix" values="0 0 0 0 0 0 0 0 0 0 0 0 0 0 0 0 0 0 127 0" result="hardAlpha"/>
<feOffset/>
<feGaussianBlur stdDeviation="13.1699"/>
<feComposite in2="hardAlpha" operator="out"/>
<feColorMatrix type="matrix" values="0 0 0 0 0 0 0 0 0 0 0 0 0 0 0 0 0 0 0.1 0"/>
<feBlend mode="normal" in2="BackgroundImageFix" result="effect1_dropShadow_6783_8596"/>
<feBlend mode="normal" in="SourceGraphic" in2="effect1_dropShadow_6783_8596" result="shape"/>
<feColorMatrix in="SourceAlpha" type="matrix" values="0 0 0 0 0 0 0 0 0 0 0 0 0 0 0 0 0 0 127 0" result="hardAlpha"/>
<feOffset dy="-5.92207"/>
<feGaussianBlur stdDeviation="2.96104"/>
<feComposite in2="hardAlpha" operator="arithmetic" k2="-1" k3="1"/>
<feColorMatrix type="matrix" values="0 0 0 0 0 0 0 0 0 0 0 0 0 0 0 0 0 0 0.1 0"/>
<feBlend mode="normal" in2="shape" result="effect2_innerShadow_6783_8596"/>
</filter>
<filter id="filter14_di_6783_8596" x="236.909" y="0.531244" width="91.895" height="91.6777" filterUnits="userSpaceOnUse" color-interpolation-filters="sRGB">
<feFlood flood-opacity="0" result="BackgroundImageFix"/>
<feColorMatrix in="SourceAlpha" type="matrix" values="0 0 0 0 0 0 0 0 0 0 0 0 0 0 0 0 0 0 127 0" result="hardAlpha"/>
<feOffset/>
<feGaussianBlur stdDeviation="13.1699"/>
<feComposite in2="hardAlpha" operator="out"/>
<feColorMatrix type="matrix" values="0 0 0 0 0 0 0 0 0 0 0 0 0 0 0 0 0 0 0.1 0"/>
<feBlend mode="normal" in2="BackgroundImageFix" result="effect1_dropShadow_6783_8596"/>
<feBlend mode="normal" in="SourceGraphic" in2="effect1_dropShadow_6783_8596" result="shape"/>
<feColorMatrix in="SourceAlpha" type="matrix" values="0 0 0 0 0 0 0 0 0 0 0 0 0 0 0 0 0 0 127 0" result="hardAlpha"/>
<feOffset dy="-5.92207"/>
<feGaussianBlur stdDeviation="2.96104"/>
<feComposite in2="hardAlpha" operator="arithmetic" k2="-1" k3="1"/>
<feColorMatrix type="matrix" values="0 0 0 0 0 0 0 0 0 0 0 0 0 0 0 0 0 0 0.1 0"/>
<feBlend mode="normal" in2="shape" result="effect2_innerShadow_6783_8596"/>
</filter>
<filter id="filter15_di_6783_8596" x="275.861" y="8.86372" width="115.594" height="115.362" filterUnits="userSpaceOnUse" color-interpolation-filters="sRGB">
<feFlood flood-opacity="0" result="BackgroundImageFix"/>
<feColorMatrix in="SourceAlpha" type="matrix" values="0 0 0 0 0 0 0 0 0 0 0 0 0 0 0 0 0 0 127 0" result="hardAlpha"/>
<feOffset/>
<feGaussianBlur stdDeviation="18.4646"/>
<feComposite in2="hardAlpha" operator="out"/>
<feColorMatrix type="matrix" values="0 0 0 0 0 0 0 0 0 0 0 0 0 0 0 0 0 0 0.1 0"/>
<feBlend mode="normal" in2="BackgroundImageFix" result="effect1_dropShadow_6783_8596"/>
<feBlend mode="normal" in="SourceGraphic" in2="effect1_dropShadow_6783_8596" result="shape"/>
<feColorMatrix in="SourceAlpha" type="matrix" values="0 0 0 0 0 0 0 0 0 0 0 0 0 0 0 0 0 0 127 0" result="hardAlpha"/>
<feOffset dy="-8.30293"/>
<feGaussianBlur stdDeviation="4.15146"/>
<feComposite in2="hardAlpha" operator="arithmetic" k2="-1" k3="1"/>
<feColorMatrix type="matrix" values="0 0 0 0 0 0 0 0 0 0 0 0 0 0 0 0 0 0 0.1 0"/>
<feBlend mode="normal" in2="shape" result="effect2_innerShadow_6783_8596"/>
</filter>
<filter id="filter16_di_6783_8596" x="241.822" y="52.3887" width="91.895" height="91.6777" filterUnits="userSpaceOnUse" color-interpolation-filters="sRGB">
<feFlood flood-opacity="0" result="BackgroundImageFix"/>
<feColorMatrix in="SourceAlpha" type="matrix" values="0 0 0 0 0 0 0 0 0 0 0 0 0 0 0 0 0 0 127 0" result="hardAlpha"/>
<feOffset/>
<feGaussianBlur stdDeviation="13.1699"/>
<feComposite in2="hardAlpha" operator="out"/>
<feColorMatrix type="matrix" values="0 0 0 0 0 0 0 0 0 0 0 0 0 0 0 0 0 0 0.1 0"/>
<feBlend mode="normal" in2="BackgroundImageFix" result="effect1_dropShadow_6783_8596"/>
<feBlend mode="normal" in="SourceGraphic" in2="effect1_dropShadow_6783_8596" result="shape"/>
<feColorMatrix in="SourceAlpha" type="matrix" values="0 0 0 0 0 0 0 0 0 0 0 0 0 0 0 0 0 0 127 0" result="hardAlpha"/>
<feOffset dy="-5.92207"/>
<feGaussianBlur stdDeviation="2.96104"/>
<feComposite in2="hardAlpha" operator="arithmetic" k2="-1" k3="1"/>
<feColorMatrix type="matrix" values="0 0 0 0 0 0 0 0 0 0 0 0 0 0 0 0 0 0 0.1 0"/>
<feBlend mode="normal" in2="shape" result="effect2_innerShadow_6783_8596"/>
</filter>
<filter id="filter17_di_6783_8596" x="278.746" y="78.2266" width="91.895" height="91.6777" filterUnits="userSpaceOnUse" color-interpolation-filters="sRGB">
<feFlood flood-opacity="0" result="BackgroundImageFix"/>
<feColorMatrix in="SourceAlpha" type="matrix" values="0 0 0 0 0 0 0 0 0 0 0 0 0 0 0 0 0 0 127 0" result="hardAlpha"/>
<feOffset/>
<feGaussianBlur stdDeviation="13.1699"/>
<feComposite in2="hardAlpha" operator="out"/>
<feColorMatrix type="matrix" values="0 0 0 0 0 0 0 0 0 0 0 0 0 0 0 0 0 0 0.1 0"/>
<feBlend mode="normal" in2="BackgroundImageFix" result="effect1_dropShadow_6783_8596"/>
<feBlend mode="normal" in="SourceGraphic" in2="effect1_dropShadow_6783_8596" result="shape"/>
<feColorMatrix in="SourceAlpha" type="matrix" values="0 0 0 0 0 0 0 0 0 0 0 0 0 0 0 0 0 0 127 0" result="hardAlpha"/>
<feOffset dy="-5.92207"/>
<feGaussianBlur stdDeviation="2.96104"/>
<feComposite in2="hardAlpha" operator="arithmetic" k2="-1" k3="1"/>
<feColorMatrix type="matrix" values="0 0 0 0 0 0 0 0 0 0 0 0 0 0 0 0 0 0 0.1 0"/>
<feBlend mode="normal" in2="shape" result="effect2_innerShadow_6783_8596"/>
</filter>
<filter id="filter18_di_6783_8596" x="349.358" y="48.7949" width="79.3662" height="79.207" filterUnits="userSpaceOnUse" color-interpolation-filters="sRGB">
<feFlood flood-opacity="0" result="BackgroundImageFix"/>
<feColorMatrix in="SourceAlpha" type="matrix" values="0 0 0 0 0 0 0 0 0 0 0 0 0 0 0 0 0 0 127 0" result="hardAlpha"/>
<feOffset/>
<feGaussianBlur stdDeviation="12.6777"/>
<feComposite in2="hardAlpha" operator="out"/>
<feColorMatrix type="matrix" values="0 0 0 0 0 0 0 0 0 0 0 0 0 0 0 0 0 0 0.1 0"/>
<feBlend mode="normal" in2="BackgroundImageFix" result="effect1_dropShadow_6783_8596"/>
<feBlend mode="normal" in="SourceGraphic" in2="effect1_dropShadow_6783_8596" result="shape"/>
<feColorMatrix in="SourceAlpha" type="matrix" values="0 0 0 0 0 0 0 0 0 0 0 0 0 0 0 0 0 0 127 0" result="hardAlpha"/>
<feOffset dy="-5.70075"/>
<feGaussianBlur stdDeviation="2.85038"/>
<feComposite in2="hardAlpha" operator="arithmetic" k2="-1" k3="1"/>
<feColorMatrix type="matrix" values="0 0 0 0 0 0 0 0 0 0 0 0 0 0 0 0 0 0 0.1 0"/>
<feBlend mode="normal" in2="shape" result="effect2_innerShadow_6783_8596"/>
</filter>
<filter id="filter19_di_6783_8596" x="109.625" y="56.3379" width="113.792" height="113.453" filterUnits="userSpaceOnUse" color-interpolation-filters="sRGB">
<feFlood flood-opacity="0" result="BackgroundImageFix"/>
<feColorMatrix in="SourceAlpha" type="matrix" values="0 0 0 0 0 0 0 0 0 0 0 0 0 0 0 0 0 0 127 0" result="hardAlpha"/>
<feOffset/>
<feGaussianBlur stdDeviation="13.1699"/>
<feComposite in2="hardAlpha" operator="out"/>
<feColorMatrix type="matrix" values="0 0 0 0 0 0 0 0 0 0 0 0 0 0 0 0 0 0 0.1 0"/>
<feBlend mode="normal" in2="BackgroundImageFix" result="effect1_dropShadow_6783_8596"/>
<feBlend mode="normal" in="SourceGraphic" in2="effect1_dropShadow_6783_8596" result="shape"/>
<feColorMatrix in="SourceAlpha" type="matrix" values="0 0 0 0 0 0 0 0 0 0 0 0 0 0 0 0 0 0 127 0" result="hardAlpha"/>
<feOffset dy="-5.92207"/>
<feGaussianBlur stdDeviation="2.96104"/>
<feComposite in2="hardAlpha" operator="arithmetic" k2="-1" k3="1"/>
<feColorMatrix type="matrix" values="0 0 0 0 0 0 0 0 0 0 0 0 0 0 0 0 0 0 0.1 0"/>
<feBlend mode="normal" in2="shape" result="effect2_innerShadow_6783_8596"/>
</filter>
<filter id="filter20_i_6783_8596" x="190.66" y="133.142" width="22.3862" height="28.1857" filterUnits="userSpaceOnUse" color-interpolation-filters="sRGB">
<feFlood flood-opacity="0" result="BackgroundImageFix"/>
<feBlend mode="normal" in="SourceGraphic" in2="BackgroundImageFix" result="shape"/>
<feColorMatrix in="SourceAlpha" type="matrix" values="0 0 0 0 0 0 0 0 0 0 0 0 0 0 0 0 0 0 127 0" result="hardAlpha"/>
<feOffset dy="-5.92207"/>
<feGaussianBlur stdDeviation="2.96104"/>
<feComposite in2="hardAlpha" operator="arithmetic" k2="-1" k3="1"/>
<feColorMatrix type="matrix" values="0 0 0 0 0 0 0 0 0 0 0 0 0 0 0 0 0 0 0.1 0"/>
<feBlend mode="normal" in2="shape" result="effect1_innerShadow_6783_8596"/>
</filter>
<filter id="filter21_di_6783_8596" x="187.676" y="71.2362" width="89.888" height="89.7073" filterUnits="userSpaceOnUse" color-interpolation-filters="sRGB">
<feFlood flood-opacity="0" result="BackgroundImageFix"/>
<feColorMatrix in="SourceAlpha" type="matrix" values="0 0 0 0 0 0 0 0 0 0 0 0 0 0 0 0 0 0 127 0" result="hardAlpha"/>
<feOffset/>
<feGaussianBlur stdDeviation="14.3585"/>
<feComposite in2="hardAlpha" operator="out"/>
<feColorMatrix type="matrix" values="0 0 0 0 0 0 0 0 0 0 0 0 0 0 0 0 0 0 0.1 0"/>
<feBlend mode="normal" in2="BackgroundImageFix" result="effect1_dropShadow_6783_8596"/>
<feBlend mode="normal" in="SourceGraphic" in2="effect1_dropShadow_6783_8596" result="shape"/>
<feColorMatrix in="SourceAlpha" type="matrix" values="0 0 0 0 0 0 0 0 0 0 0 0 0 0 0 0 0 0 127 0" result="hardAlpha"/>
<feOffset dy="-6.45653"/>
<feGaussianBlur stdDeviation="3.22826"/>
<feComposite in2="hardAlpha" operator="arithmetic" k2="-1" k3="1"/>
<feColorMatrix type="matrix" values="0 0 0 0 0 0 0 0 0 0 0 0 0 0 0 0 0 0 0.1 0"/>
<feBlend mode="normal" in2="shape" result="effect2_innerShadow_6783_8596"/>
</filter>
<filter id="filter22_d_6783_8596" x="115.632" y="233.681" width="63.3187" height="46.7376" filterUnits="userSpaceOnUse" color-interpolation-filters="sRGB">
<feFlood flood-opacity="0" result="BackgroundImageFix"/>
<feColorMatrix in="SourceAlpha" type="matrix" values="0 0 0 0 0 0 0 0 0 0 0 0 0 0 0 0 0 0 127 0" result="hardAlpha"/>
<feMorphology radius="2.98501" operator="dilate" in="SourceAlpha" result="effect1_dropShadow_6783_8596"/>
<feOffset/>
<feComposite in2="hardAlpha" operator="out"/>
<feColorMatrix type="matrix" values="0 0 0 0 1 0 0 0 0 0.694118 0 0 0 0 0.443137 0 0 0 0.3 0"/>
<feBlend mode="normal" in2="BackgroundImageFix" result="effect1_dropShadow_6783_8596"/>
<feBlend mode="normal" in="SourceGraphic" in2="effect1_dropShadow_6783_8596" result="shape"/>
</filter>
<filter id="filter23_d_6783_8596" x="31.9718" y="282.596" width="41.9671" height="46.5379" filterUnits="userSpaceOnUse" color-interpolation-filters="sRGB">
<feFlood flood-opacity="0" result="BackgroundImageFix"/>
<feColorMatrix in="SourceAlpha" type="matrix" values="0 0 0 0 0 0 0 0 0 0 0 0 0 0 0 0 0 0 127 0" result="hardAlpha"/>
<feOffset dy="2.05"/>
<feGaussianBlur stdDeviation="2.05"/>
<feComposite in2="hardAlpha" operator="out"/>
<feColorMatrix type="matrix" values="0 0 0 0 0 0 0 0 0 0 0 0 0 0 0 0 0 0 0.25 0"/>
<feBlend mode="normal" in2="BackgroundImageFix" result="effect1_dropShadow_6783_8596"/>
<feBlend mode="normal" in="SourceGraphic" in2="effect1_dropShadow_6783_8596" result="shape"/>
</filter>
<filter id="filter24_d_6783_8596" x="147.174" y="263.436" width="42.0765" height="46.9325" filterUnits="userSpaceOnUse" color-interpolation-filters="sRGB">
<feFlood flood-opacity="0" result="BackgroundImageFix"/>
<feColorMatrix in="SourceAlpha" type="matrix" values="0 0 0 0 0 0 0 0 0 0 0 0 0 0 0 0 0 0 127 0" result="hardAlpha"/>
<feOffset dy="2.05002"/>
<feGaussianBlur stdDeviation="2.05002"/>
<feComposite in2="hardAlpha" operator="out"/>
<feColorMatrix type="matrix" values="0 0 0 0 0 0 0 0 0 0 0 0 0 0 0 0 0 0 0.25 0"/>
<feBlend mode="normal" in2="BackgroundImageFix" result="effect1_dropShadow_6783_8596"/>
<feBlend mode="normal" in="SourceGraphic" in2="effect1_dropShadow_6783_8596" result="shape"/>
</filter>
<linearGradient id="paint0_linear_6783_8596" x1="306.121" y1="209.245" x2="179.252" y2="45.3861" gradientUnits="userSpaceOnUse">
<stop stop-color="#974EF2"/>
<stop offset="1" stop-color="#974EF2" stop-opacity="0"/>
</linearGradient>
<clipPath id="clip0_6783_8596">
<rect width="21.9063" height="21.9063" fill="white" transform="translate(204.714 60.7402)"/>
</clipPath>
<clipPath id="clip1_6783_8596">
<rect width="44.5199" height="20.3901" fill="white" transform="translate(286.143 166.506)"/>
</clipPath>
<clipPath id="clip2_6783_8596">
<rect width="20.0591" height="17.9222" fill="white" transform="translate(272.827 37.5176)"/>
</clipPath>
<clipPath id="clip3_6783_8596">
<rect width="22.6345" height="22.5087" fill="white" transform="translate(321.23 55.2891)"/>
</clipPath>
<clipPath id="clip4_6783_8596">
<rect width="17.4862" height="17.389" fill="white" transform="translate(315.951 115.371)"/>
</clipPath>
<clipPath id="clip5_6783_8596">
<rect width="60.3" height="22.1338" rx="2.98501" transform="matrix(0.951057 0.309017 0 1 118.617 236.666)" fill="white"/>
</clipPath>
</defs>
</svg>
