<svg width="375" height="280" viewBox="0 0 375 280" fill="none" xmlns="http://www.w3.org/2000/svg">
<path opacity="0.05" d="M245.193 126.619L319.876 131.863L309.297 151.689L218.815 156.932L245.177 126.635L245.193 126.619Z" fill="#191919"/>
<g clip-path="url(#clip0_6783_8726)">
<path d="M186.87 137.951L218.816 156.931V117.248L186.87 98.2988V137.951Z" fill="#F7EDEF"/>
<path d="M218.816 156.931L280.912 137.09V97.3906L218.816 117.248V156.931Z" fill="#E2D7DA"/>
<path d="M218.816 117.248L280.912 97.3904L248.965 78.4414L186.87 98.2987L218.816 117.248Z" fill="white"/>
<path d="M266.946 91.9414H248.809V97.4069H266.946V91.9414Z" fill="#E2D7DA"/>
<path d="M248.809 97.4057C248.809 99.6608 252.871 101.493 257.87 101.493C262.869 101.493 266.93 99.6608 266.93 97.4057C266.93 95.1506 262.869 93.3184 257.87 93.3184C252.871 93.3184 248.809 95.1506 248.809 97.4057Z" fill="#E2D7DA"/>
<path d="M248.809 91.9409C248.809 94.196 252.871 96.0282 257.87 96.0282C262.869 96.0282 266.93 94.196 266.93 91.9409C266.93 89.6858 262.869 87.8535 257.87 87.8535C252.871 87.8535 248.809 89.6858 248.809 91.9409Z" fill="white"/>
<path d="M250.637 81.7148H232.5V87.1803H250.637V81.7148Z" fill="#E2D7DA"/>
<path d="M232.5 87.1791C232.5 89.4342 236.562 91.2665 241.561 91.2665C246.559 91.2665 250.621 89.4342 250.621 87.1791C250.621 84.9241 246.559 83.0918 241.561 83.0918C236.562 83.0918 232.5 84.9241 232.5 87.1791Z" fill="#E2D7DA"/>
<path d="M232.5 81.7143C232.5 83.9694 236.562 85.8017 241.561 85.8017C246.559 85.8017 250.621 83.9694 250.621 81.7143C250.621 79.4592 246.559 77.627 241.561 77.627C236.562 77.627 232.5 79.4592 232.5 81.7143Z" fill="white"/>
<path d="M233.797 102.793H215.66V108.258H233.797V102.793Z" fill="#E2D7DA"/>
<path d="M215.66 108.257C215.66 110.512 219.722 112.345 224.721 112.345C229.72 112.345 233.781 110.512 233.781 108.257C233.781 106.002 229.72 104.17 224.721 104.17C219.722 104.17 215.66 106.002 215.66 108.257Z" fill="#E2D7DA"/>
<path d="M215.66 102.792C215.66 105.048 219.722 106.88 224.721 106.88C229.72 106.88 233.781 105.048 233.781 102.792C233.781 100.537 229.72 98.7051 224.721 98.7051C219.722 98.7051 215.66 100.537 215.66 102.792Z" fill="white"/>
<path d="M218.081 93.2871H199.945V98.7526H218.081V93.2871Z" fill="#E2D7DA"/>
<path d="M199.945 98.7514C199.945 101.007 204.006 102.839 209.005 102.839C214.004 102.839 218.066 101.007 218.066 98.7514C218.066 96.4963 214.004 94.6641 209.005 94.6641C204.006 94.6641 199.945 96.4963 199.945 98.7514Z" fill="#E2D7DA"/>
<path d="M199.945 93.2866C199.945 95.5417 204.006 97.3739 209.005 97.3739C214.004 97.3739 218.066 95.5417 218.066 93.2866C218.066 91.0315 214.004 89.1992 209.005 89.1992C204.006 89.1992 199.945 91.0315 199.945 93.2866Z" fill="white"/>
</g>
<path opacity="0.05" fill-rule="evenodd" clip-rule="evenodd" d="M393 197.706L318.317 192.463L318.301 192.479L298.426 215.321L254.211 212.216L254.195 212.232L227.833 242.529L318.315 237.286L318.353 237.214L382.421 217.533L393 197.706Z" fill="#191919"/>
<path opacity="0.05" fill-rule="evenodd" clip-rule="evenodd" d="M264.334 171.335L139.432 166.092L139.405 166.108L105.762 189.227L57.5892 185.845L57.5735 185.861L31.2119 216.158L121.693 210.915L122.134 210.089L123.311 210.689H193.632L246.641 191.162L264.334 171.335Z" fill="#191919"/>
<g clip-path="url(#clip1_6783_8726)">
<path d="M258.768 203.334L290.714 222.314V182.631L258.768 163.682V203.334Z" fill="#F7EDEF"/>
<path d="M290.714 222.314L352.81 202.472V162.773L290.714 182.631V222.314Z" fill="#E2D7DA"/>
<path d="M290.714 182.631L352.81 162.773L320.864 143.824L258.768 163.682L290.714 182.631Z" fill="white"/>
<path d="M338.844 157.324H320.708V162.79H338.844V157.324Z" fill="#E2D7DA"/>
<path d="M320.708 162.789C320.708 165.044 324.769 166.876 329.768 166.876C334.767 166.876 338.829 165.044 338.829 162.789C338.829 160.533 334.767 158.701 329.768 158.701C324.769 158.701 320.708 160.533 320.708 162.789Z" fill="#E2D7DA"/>
<path d="M320.708 157.324C320.708 159.579 324.769 161.411 329.768 161.411C334.767 161.411 338.829 159.579 338.829 157.324C338.829 155.069 334.767 153.236 329.768 153.236C324.769 153.236 320.708 155.069 320.708 157.324Z" fill="white"/>
<path d="M322.536 147.098H304.399V152.563H322.536V147.098Z" fill="#E2D7DA"/>
<path d="M304.399 152.562C304.399 154.817 308.461 156.649 313.459 156.649C318.458 156.649 322.52 154.817 322.52 152.562C322.52 150.307 318.458 148.475 313.459 148.475C308.461 148.475 304.399 150.307 304.399 152.562Z" fill="#E2D7DA"/>
<path d="M304.399 147.097C304.399 149.352 308.461 151.184 313.459 151.184C318.458 151.184 322.52 149.352 322.52 147.097C322.52 144.842 318.458 143.01 313.459 143.01C308.461 143.01 304.399 144.842 304.399 147.097Z" fill="white"/>
<path d="M305.695 168.176H287.559V173.641H305.695V168.176Z" fill="#E2D7DA"/>
<path d="M287.559 173.64C287.559 175.895 291.62 177.727 296.619 177.727C301.618 177.727 305.68 175.895 305.68 173.64C305.68 171.385 301.618 169.553 296.619 169.553C291.62 169.553 287.559 171.385 287.559 173.64Z" fill="#E2D7DA"/>
<path d="M287.559 168.175C287.559 170.43 291.62 172.263 296.619 172.263C301.618 172.263 305.68 170.43 305.68 168.175C305.68 165.92 301.618 164.088 296.619 164.088C291.62 164.088 287.559 165.92 287.559 168.175Z" fill="white"/>
<path d="M289.98 158.67H271.843V164.135H289.98V158.67Z" fill="#E2D7DA"/>
<path d="M271.843 164.134C271.843 166.389 275.905 168.222 280.904 168.222C285.903 168.222 289.964 166.389 289.964 164.134C289.964 161.879 285.903 160.047 280.904 160.047C275.905 160.047 271.843 161.879 271.843 164.134Z" fill="#E2D7DA"/>
<path d="M271.843 158.669C271.843 160.924 275.905 162.757 280.904 162.757C285.903 162.757 289.964 160.924 289.964 158.669C289.964 156.414 285.903 154.582 280.904 154.582C275.905 154.582 271.843 156.414 271.843 158.669Z" fill="white"/>
</g>
<g clip-path="url(#clip2_6783_8726)">
<path d="M61.9395 178.498L93.8856 197.478V157.795L61.9395 138.846V178.498Z" fill="#F7EDEF"/>
<path d="M93.8857 197.478L155.982 177.636V137.938L93.8857 157.795V197.478Z" fill="#E2D7DA"/>
<path d="M93.8856 157.795L155.981 137.937L124.035 118.988L61.9395 138.846L93.8856 157.795Z" fill="white"/>
<path d="M142.016 132.488H123.879V137.954H142.016V132.488Z" fill="#E2D7DA"/>
<path d="M123.879 137.953C123.879 140.208 127.941 142.04 132.939 142.04C137.938 142.04 142 140.208 142 137.953C142 135.697 137.938 133.865 132.939 133.865C127.941 133.865 123.879 135.697 123.879 137.953Z" fill="#E2D7DA"/>
<path d="M123.879 132.488C123.879 134.743 127.941 136.575 132.939 136.575C137.938 136.575 142 134.743 142 132.488C142 130.233 137.938 128.4 132.939 128.4C127.941 128.4 123.879 130.233 123.879 132.488Z" fill="white"/>
<path d="M125.706 122.262H107.57V127.727H125.706V122.262Z" fill="#E2D7DA"/>
<path d="M107.57 127.726C107.57 129.981 111.631 131.813 116.63 131.813C121.629 131.813 125.691 129.981 125.691 127.726C125.691 125.471 121.629 123.639 116.63 123.639C111.631 123.639 107.57 125.471 107.57 127.726Z" fill="#E2D7DA"/>
<path d="M107.57 122.261C107.57 124.516 111.631 126.349 116.63 126.349C121.629 126.349 125.691 124.516 125.691 122.261C125.691 120.006 121.629 118.174 116.63 118.174C111.631 118.174 107.57 120.006 107.57 122.261Z" fill="white"/>
<path d="M108.867 143.34H90.73V148.805H108.867V143.34Z" fill="#E2D7DA"/>
<path d="M90.73 148.804C90.73 151.059 94.7916 152.891 99.7905 152.891C104.789 152.891 108.851 151.059 108.851 148.804C108.851 146.549 104.789 144.717 99.7905 144.717C94.7916 144.717 90.73 146.549 90.73 148.804Z" fill="#E2D7DA"/>
<path d="M90.73 143.339C90.73 145.594 94.7916 147.427 99.7905 147.427C104.789 147.427 108.851 145.594 108.851 143.339C108.851 141.084 104.789 139.252 99.7905 139.252C94.7916 139.252 90.73 141.084 90.73 143.339Z" fill="white"/>
<path d="M93.1513 133.834H75.0146V139.299H93.1513V133.834Z" fill="#E2D7DA"/>
<path d="M75.0146 139.298C75.0146 141.553 79.0763 143.386 84.0752 143.386C89.0741 143.386 93.1357 141.553 93.1357 139.298C93.1357 137.043 89.0741 135.211 84.0752 135.211C79.0763 135.211 75.0146 137.043 75.0146 139.298Z" fill="#E2D7DA"/>
<path d="M75.0146 133.833C75.0146 136.089 79.0763 137.921 84.0752 137.921C89.0741 137.921 93.1357 136.089 93.1357 133.833C93.1357 131.578 89.0741 129.746 84.0752 129.746C79.0763 129.746 75.0146 131.578 75.0146 133.833Z" fill="white"/>
</g>
<g clip-path="url(#clip3_6783_8726)">
<path d="M62.252 139.273L94.1981 158.253V118.57L62.252 99.6211V139.273Z" fill="#F7EDEF"/>
<g filter="url(#filter0_ii_6783_8726)">
<path d="M94.1982 158.254L156.294 138.412V98.7129L94.1982 118.57V158.254Z" fill="#E2D7DA"/>
</g>
<path d="M94.1981 118.57L156.294 98.7127L124.348 79.7637L62.252 99.621L94.1981 118.57Z" fill="white"/>
<path d="M142.328 93.2637H124.191V98.7291H142.328V93.2637Z" fill="#E2D7DA"/>
<path d="M124.191 98.728C124.191 100.983 128.253 102.815 133.252 102.815C138.251 102.815 142.312 100.983 142.312 98.728C142.312 96.4729 138.251 94.6406 133.252 94.6406C128.253 94.6406 124.191 96.4729 124.191 98.728Z" fill="#E2D7DA"/>
<path d="M124.191 93.2631C124.191 95.5182 128.253 97.3505 133.252 97.3505C138.251 97.3505 142.312 95.5182 142.312 93.2631C142.312 91.008 138.251 89.1758 133.252 89.1758C128.253 89.1758 124.191 91.008 124.191 93.2631Z" fill="white"/>
<path d="M126.019 83.0371H107.883V88.5026H126.019V83.0371Z" fill="#E2D7DA"/>
<path d="M107.883 88.5014C107.883 90.7565 111.944 92.5888 116.943 92.5888C121.942 92.5888 126.004 90.7565 126.004 88.5014C126.004 86.2463 121.942 84.4141 116.943 84.4141C111.944 84.4141 107.883 86.2463 107.883 88.5014Z" fill="#E2D7DA"/>
<path d="M107.883 83.0366C107.883 85.2917 111.944 87.1239 116.943 87.1239C121.942 87.1239 126.004 85.2917 126.004 83.0366C126.004 80.7815 121.942 78.9492 116.943 78.9492C111.944 78.9492 107.883 80.7815 107.883 83.0366Z" fill="white"/>
<path d="M109.179 104.115H91.0425V109.581H109.179V104.115Z" fill="#E2D7DA"/>
<path d="M91.0425 109.58C91.0425 111.835 95.1041 113.667 100.103 113.667C105.102 113.667 109.164 111.835 109.164 109.58C109.164 107.324 105.102 105.492 100.103 105.492C95.1041 105.492 91.0425 107.324 91.0425 109.58Z" fill="#E2D7DA"/>
<path d="M91.0425 104.115C91.0425 106.37 95.1041 108.202 100.103 108.202C105.102 108.202 109.164 106.37 109.164 104.115C109.164 101.86 105.102 100.027 100.103 100.027C95.1041 100.027 91.0425 101.86 91.0425 104.115Z" fill="white"/>
<path d="M93.4638 94.6094H75.3271V100.075H93.4638V94.6094Z" fill="#E2D7DA"/>
<path d="M75.3271 100.074C75.3271 102.329 79.3888 104.161 84.3877 104.161C89.3866 104.161 93.4482 102.329 93.4482 100.074C93.4482 97.8186 89.3866 95.9863 84.3877 95.9863C79.3888 95.9863 75.3271 97.8186 75.3271 100.074Z" fill="#E2D7DA"/>
<path d="M75.3271 94.6088C75.3271 96.8639 79.3888 98.6962 84.3877 98.6962C89.3866 98.6962 93.4482 96.8639 93.4482 94.6088C93.4482 92.3537 89.3866 90.5215 84.3877 90.5215C79.3888 90.5215 75.3271 92.3537 75.3271 94.6088Z" fill="white"/>
</g>
<g clip-path="url(#clip4_6783_8726)">
<path d="M62.0322 100.125L93.9784 119.105V79.4217L62.0322 60.4727V100.125Z" fill="#F7EDEF"/>
<g filter="url(#filter1_i_6783_8726)">
<path d="M93.9785 119.105L156.074 99.2634V59.5645L93.9785 79.4218V119.105Z" fill="#E2D7DA"/>
</g>
<path d="M93.9784 79.4216L156.074 59.5643L124.128 40.6152L62.0322 60.4726L93.9784 79.4216Z" fill="white"/>
<path d="M142.108 54.1152H123.972V59.5807H142.108V54.1152Z" fill="#E2D7DA"/>
<path d="M123.972 59.5795C123.972 61.8346 128.033 63.6669 133.032 63.6669C138.031 63.6669 142.093 61.8346 142.093 59.5795C142.093 57.3244 138.031 55.4922 133.032 55.4922C128.033 55.4922 123.972 57.3244 123.972 59.5795Z" fill="#E2D7DA"/>
<path d="M123.972 54.1147C123.972 56.3698 128.033 58.202 133.032 58.202C138.031 58.202 142.093 56.3698 142.093 54.1147C142.093 51.8596 138.031 50.0273 133.032 50.0273C128.033 50.0273 123.972 51.8596 123.972 54.1147Z" fill="white"/>
<path d="M125.8 43.8887H107.663V49.3541H125.8V43.8887Z" fill="#E2D7DA"/>
<path d="M107.663 49.353C107.663 51.6081 111.725 53.4403 116.724 53.4403C121.723 53.4403 125.784 51.6081 125.784 49.353C125.784 47.0979 121.723 45.2656 116.724 45.2656C111.725 45.2656 107.663 47.0979 107.663 49.353Z" fill="#E2D7DA"/>
<path d="M107.663 43.8881C107.663 46.1432 111.725 47.9755 116.724 47.9755C121.723 47.9755 125.784 46.1432 125.784 43.8881C125.784 41.633 121.723 39.8008 116.724 39.8008C111.725 39.8008 107.663 41.633 107.663 43.8881Z" fill="white"/>
<path d="M108.959 64.9668H90.8228V70.4323H108.959V64.9668Z" fill="#E2D7DA"/>
<path d="M90.8228 70.4311C90.8228 72.6862 94.8844 74.5185 99.8833 74.5185C104.882 74.5185 108.944 72.6862 108.944 70.4311C108.944 68.176 104.882 66.3438 99.8833 66.3438C94.8844 66.3438 90.8228 68.176 90.8228 70.4311Z" fill="#E2D7DA"/>
<path d="M90.8228 64.9663C90.8228 67.2213 94.8844 69.0536 99.8833 69.0536C104.882 69.0536 108.944 67.2213 108.944 64.9663C108.944 62.7112 104.882 60.8789 99.8833 60.8789C94.8844 60.8789 90.8228 62.7112 90.8228 64.9663Z" fill="white"/>
<path d="M93.2441 55.4609H75.1074V60.9264H93.2441V55.4609Z" fill="#E2D7DA"/>
<path d="M75.1074 60.9252C75.1074 63.1803 79.169 65.0126 84.1679 65.0126C89.1668 65.0126 93.2285 63.1803 93.2285 60.9252C93.2285 58.6702 89.1668 56.8379 84.1679 56.8379C79.169 56.8379 75.1074 58.6702 75.1074 60.9252Z" fill="#E2D7DA"/>
<path d="M75.1074 55.4604C75.1074 57.7155 79.169 59.5477 84.1679 59.5477C89.1668 59.5477 93.2285 57.7155 93.2285 55.4604C93.2285 53.2053 89.1668 51.373 84.1679 51.373C79.169 51.373 75.1074 53.2053 75.1074 55.4604Z" fill="white"/>
</g>
<g clip-path="url(#clip5_6783_8726)">
<path d="M62.146 60.3239L94.0921 79.3042V39.6209L62.146 20.6719V60.3239Z" fill="#AA79CD"/>
<g filter="url(#filter2_i_6783_8726)">
<path d="M94.0923 79.3043L156.188 59.4627V19.7637L94.0923 39.621V79.3043Z" fill="#9163B1"/>
</g>
<path d="M94.0921 39.6208L156.188 19.7635L124.242 0.814453L62.146 20.6718L94.0921 39.6208Z" fill="#C690EC"/>
<path d="M142.222 14.3145H124.085V19.7799H142.222V14.3145Z" fill="#9163B1"/>
<path d="M124.085 19.7788C124.085 22.0338 128.147 23.8661 133.146 23.8661C138.145 23.8661 142.206 22.0338 142.206 19.7788C142.206 17.5237 138.145 15.6914 133.146 15.6914C128.147 15.6914 124.085 17.5237 124.085 19.7788Z" fill="#9163B1"/>
<path d="M124.085 14.3139C124.085 16.569 128.147 18.4013 133.146 18.4013C138.145 18.4013 142.206 16.569 142.206 14.3139C142.206 12.0588 138.145 10.2266 133.146 10.2266C128.147 10.2266 124.085 12.0588 124.085 14.3139Z" fill="#C690EC"/>
<path d="M125.913 4.08789H107.776V9.55335H125.913V4.08789Z" fill="#9163B1"/>
<path d="M107.776 9.55219C107.776 11.8073 111.838 13.6395 116.837 13.6395C121.836 13.6395 125.897 11.8073 125.897 9.55219C125.897 7.2971 121.836 5.46484 116.837 5.46484C111.838 5.46484 107.776 7.2971 107.776 9.55219Z" fill="#9163B1"/>
<path d="M107.776 4.08735C107.776 6.34244 111.838 8.1747 116.837 8.1747C121.836 8.1747 125.897 6.34244 125.897 4.08735C125.897 1.83226 121.836 0 116.837 0C111.838 0 107.776 1.83226 107.776 4.08735Z" fill="#C690EC"/>
<path d="M109.073 25.166H90.9365V30.6315H109.073V25.166Z" fill="#9163B1"/>
<path d="M90.9365 30.6303C90.9365 32.8854 94.9981 34.7177 99.997 34.7177C104.996 34.7177 109.058 32.8854 109.058 30.6303C109.058 28.3752 104.996 26.543 99.997 26.543C94.9981 26.543 90.9365 28.3752 90.9365 30.6303Z" fill="#9163B1"/>
<path d="M90.9365 25.1655C90.9365 27.4206 94.9981 29.2528 99.997 29.2528C104.996 29.2528 109.058 27.4206 109.058 25.1655C109.058 22.9104 104.996 21.0781 99.997 21.0781C94.9981 21.0781 90.9365 22.9104 90.9365 25.1655Z" fill="#C690EC"/>
<path d="M93.3578 15.6602H75.2212V21.1256H93.3578V15.6602Z" fill="#9163B1"/>
<path d="M75.2212 21.1245C75.2212 23.3796 79.2828 25.2118 84.2817 25.2118C89.2806 25.2118 93.3422 23.3796 93.3422 21.1245C93.3422 18.8694 89.2806 17.0371 84.2817 17.0371C79.2828 17.0371 75.2212 18.8694 75.2212 21.1245Z" fill="#9163B1"/>
<path d="M75.2212 15.6596C75.2212 17.9147 79.2828 19.747 84.2817 19.747C89.2806 19.747 93.3422 17.9147 93.3422 15.6596C93.3422 13.4045 89.2806 11.5723 84.2817 11.5723C79.2828 11.5723 75.2212 13.4045 75.2212 15.6596Z" fill="#C690EC"/>
<g clip-path="url(#clip6_6783_8726)">
<path d="M112.302 60.1645L110.74 60.7624V51.3417L114.413 49.9523C116.268 49.2514 117.291 49.9399 117.291 51.6921C117.291 53.1186 116.532 54.4049 115.172 55.1347L117.431 58.2062L115.691 58.87L113.609 55.8644L112.302 56.3633V60.1645ZM114.186 54.4338C115.172 54.0586 115.65 53.4608 115.65 52.5991V52.0219C115.65 51.1603 115.172 50.9211 114.186 51.2963L112.302 52.0096V55.1512L114.186 54.4338Z" fill="#FDFCFE"/>
<path d="M119.159 48.1572L122.535 46.8791C124.296 46.2112 125.331 46.776 125.331 48.2808C125.331 49.3693 124.729 50.2268 123.78 50.8576V50.9236C124.914 50.7504 125.665 51.1338 125.665 52.4243C125.665 53.9539 124.56 55.4917 122.91 56.1184L119.159 57.549V48.1572ZM122.214 51.0349C123.195 50.6638 123.723 50.1114 123.723 49.2662V48.7838C123.723 47.9387 123.191 47.7902 122.214 48.1613L120.701 48.7344V51.6121L122.214 51.039V51.0349ZM122.436 55.1412C123.471 54.7455 124.061 54.1188 124.061 53.22V52.7376C124.061 51.8224 123.475 51.6574 122.436 52.0491L120.701 52.7088V55.8009L122.436 55.1412Z" fill="#FDFCFE"/>
<path d="M132.826 52.3387L132.088 50.1289L128.995 51.3039L128.257 54.0785L126.666 54.6846L129.511 44.2415L131.642 43.4375L134.479 51.712L132.826 52.3428V52.3387ZM130.599 45.3422L130.488 45.3835L129.292 49.9392L131.799 48.9868L130.603 45.3381L130.599 45.3422Z" fill="#FDFCFE"/>
<path d="M135.551 46.628C135.551 43.5359 136.73 41.3508 139.183 40.4231C141.051 39.7181 141.908 40.4355 142.349 41.5363L140.952 42.5175C140.663 41.7713 140.259 41.2559 139.167 41.6682C137.794 42.1877 137.2 43.4946 137.2 45.2097V46.7888C137.2 48.4997 137.798 49.3573 139.167 48.8378C140.259 48.4214 140.663 47.601 140.952 46.6362L142.349 46.5579C141.908 47.9968 141.051 49.3655 139.183 50.0747C136.73 51.0105 135.551 49.7201 135.551 46.628Z" fill="#FDFCFE"/>
</g>
</g>
<g clip-path="url(#clip7_6783_8726)">
<path d="M196.637 223.55L228.583 242.531V202.847L196.637 183.898V223.55Z" fill="#F7EDEF"/>
<path d="M228.583 242.531L290.679 222.689V182.99L228.583 202.848V242.531Z" fill="#E2D7DA"/>
<path d="M228.583 202.847L290.679 182.99L258.733 164.041L196.637 183.898L228.583 202.847Z" fill="white"/>
<path d="M276.713 177.541H258.577V183.006H276.713V177.541Z" fill="#E2D7DA"/>
<path d="M258.577 183.005C258.577 185.26 262.638 187.093 267.637 187.093C272.636 187.093 276.698 185.26 276.698 183.005C276.698 180.75 272.636 178.918 267.637 178.918C262.638 178.918 258.577 180.75 258.577 183.005Z" fill="#E2D7DA"/>
<path d="M258.577 177.54C258.577 179.796 262.638 181.628 267.637 181.628C272.636 181.628 276.698 179.796 276.698 177.54C276.698 175.285 272.636 173.453 267.637 173.453C262.638 173.453 258.577 175.285 258.577 177.54Z" fill="white"/>
<path d="M260.405 167.314H242.268V172.78H260.405V167.314Z" fill="#E2D7DA"/>
<path d="M242.268 172.779C242.268 175.034 246.33 176.866 251.329 176.866C256.327 176.866 260.389 175.034 260.389 172.779C260.389 170.524 256.327 168.691 251.329 168.691C246.33 168.691 242.268 170.524 242.268 172.779Z" fill="#E2D7DA"/>
<path d="M242.268 167.314C242.268 169.569 246.33 171.401 251.329 171.401C256.327 171.401 260.389 169.569 260.389 167.314C260.389 165.059 256.327 163.227 251.329 163.227C246.33 163.227 242.268 165.059 242.268 167.314Z" fill="white"/>
<path d="M243.564 188.393H225.428V193.858H243.564V188.393Z" fill="#E2D7DA"/>
<path d="M225.428 193.857C225.428 196.112 229.489 197.944 234.488 197.944C239.487 197.944 243.549 196.112 243.549 193.857C243.549 191.602 239.487 189.77 234.488 189.77C229.489 189.77 225.428 191.602 225.428 193.857Z" fill="#E2D7DA"/>
<path d="M225.428 188.392C225.428 190.647 229.489 192.479 234.488 192.479C239.487 192.479 243.549 190.647 243.549 188.392C243.549 186.137 239.487 184.305 234.488 184.305C229.489 184.305 225.428 186.137 225.428 188.392Z" fill="white"/>
<path d="M227.849 178.887H209.712V184.352H227.849V178.887Z" fill="#E2D7DA"/>
<path d="M209.712 184.351C209.712 186.606 213.774 188.438 218.773 188.438C223.772 188.438 227.833 186.606 227.833 184.351C227.833 182.096 223.772 180.264 218.773 180.264C213.774 180.264 209.712 182.096 209.712 184.351Z" fill="#E2D7DA"/>
<path d="M209.712 178.886C209.712 181.141 213.774 182.974 218.773 182.974C223.772 182.974 227.833 181.141 227.833 178.886C227.833 176.631 223.772 174.799 218.773 174.799C213.774 174.799 209.712 176.631 209.712 178.886Z" fill="white"/>
</g>
<g clip-path="url(#clip8_6783_8726)">
<path d="M0 198.148L31.9461 217.128V177.445L0 158.496V198.148Z" fill="#F7EDEF"/>
<path d="M31.9463 217.129L94.0421 197.287V157.588L31.9463 177.445V217.129Z" fill="#E2D7DA"/>
<path d="M31.9461 177.445L94.0419 157.588L62.0958 138.639L0 158.496L31.9461 177.445Z" fill="white"/>
<path d="M80.0761 152.139H61.9395V157.604H80.0761V152.139Z" fill="#E2D7DA"/>
<path d="M61.9395 157.603C61.9395 159.858 66.0011 161.69 71 161.69C75.9989 161.69 80.0605 159.858 80.0605 157.603C80.0605 155.348 75.9989 153.516 71 153.516C66.0011 153.516 61.9395 155.348 61.9395 157.603Z" fill="#E2D7DA"/>
<path d="M61.9395 152.138C61.9395 154.393 66.0011 156.225 71 156.225C75.9989 156.225 80.0605 154.393 80.0605 152.138C80.0605 149.883 75.9989 148.051 71 148.051C66.0011 148.051 61.9395 149.883 61.9395 152.138Z" fill="white"/>
<path d="M63.7675 141.912H45.6309V147.378H63.7675V141.912Z" fill="#E2D7DA"/>
<path d="M45.6309 147.376C45.6309 149.632 49.6925 151.464 54.6914 151.464C59.6903 151.464 63.7519 149.632 63.7519 147.376C63.7519 145.121 59.6903 143.289 54.6914 143.289C49.6925 143.289 45.6309 145.121 45.6309 147.376Z" fill="#E2D7DA"/>
<path d="M45.6309 141.912C45.6309 144.167 49.6925 145.999 54.6914 145.999C59.6903 145.999 63.7519 144.167 63.7519 141.912C63.7519 139.656 59.6903 137.824 54.6914 137.824C49.6925 137.824 45.6309 139.656 45.6309 141.912Z" fill="white"/>
<path d="M46.9272 162.99H28.7905V168.456H46.9272V162.99Z" fill="#E2D7DA"/>
<path d="M28.7905 168.455C28.7905 170.71 32.8521 172.542 37.851 172.542C42.8499 172.542 46.9116 170.71 46.9116 168.455C46.9116 166.199 42.8499 164.367 37.851 164.367C32.8521 164.367 28.7905 166.199 28.7905 168.455Z" fill="#E2D7DA"/>
<path d="M28.7905 162.99C28.7905 165.245 32.8521 167.077 37.851 167.077C42.8499 167.077 46.9116 165.245 46.9116 162.99C46.9116 160.735 42.8499 158.902 37.851 158.902C32.8521 158.902 28.7905 160.735 28.7905 162.99Z" fill="white"/>
<path d="M31.2118 153.484H13.0752V158.95H31.2118V153.484Z" fill="#E2D7DA"/>
<path d="M13.0752 158.949C13.0752 161.204 17.1368 163.036 22.1357 163.036C27.1346 163.036 31.1962 161.204 31.1962 158.949C31.1962 156.694 27.1346 154.861 22.1357 154.861C17.1368 154.861 13.0752 156.694 13.0752 158.949Z" fill="#E2D7DA"/>
<path d="M13.0752 153.484C13.0752 155.739 17.1368 157.571 22.1357 157.571C27.1346 157.571 31.1962 155.739 31.1962 153.484C31.1962 151.229 27.1346 149.396 22.1357 149.396C17.1368 149.396 13.0752 151.229 13.0752 153.484Z" fill="white"/>
</g>
<g clip-path="url(#clip9_6783_8726)">
<g filter="url(#filter3_i_6783_8726)">
<path d="M0.3125 158.923L32.2586 177.904V138.221L0.3125 119.271V158.923Z" fill="#F7EDEF"/>
</g>
<g filter="url(#filter4_i_6783_8726)">
<path d="M32.2588 177.904L94.3546 158.062V118.363L32.2588 138.221V177.904Z" fill="#E2D7DA"/>
</g>
<path d="M32.2586 138.22L94.3544 118.363L62.4083 99.4141L0.3125 119.271L32.2586 138.22Z" fill="white"/>
<path d="M80.3886 112.914H62.252V118.38H80.3886V112.914Z" fill="#E2D7DA"/>
<path d="M62.252 118.378C62.252 120.633 66.3136 122.466 71.3125 122.466C76.3114 122.466 80.373 120.633 80.373 118.378C80.373 116.123 76.3114 114.291 71.3125 114.291C66.3136 114.291 62.252 116.123 62.252 118.378Z" fill="#E2D7DA"/>
<path d="M62.252 112.914C62.252 115.169 66.3136 117.001 71.3125 117.001C76.3114 117.001 80.373 115.169 80.373 112.914C80.373 110.658 76.3114 108.826 71.3125 108.826C66.3136 108.826 62.252 110.658 62.252 112.914Z" fill="white"/>
<path d="M64.08 102.688H45.9434V108.153H64.08V102.688Z" fill="#E2D7DA"/>
<path d="M45.9434 108.152C45.9434 110.407 50.005 112.239 55.0039 112.239C60.0028 112.239 64.0644 110.407 64.0644 108.152C64.0644 105.897 60.0028 104.064 55.0039 104.064C50.005 104.064 45.9434 105.897 45.9434 108.152Z" fill="#E2D7DA"/>
<path d="M45.9434 102.687C45.9434 104.942 50.005 106.774 55.0039 106.774C60.0028 106.774 64.0644 104.942 64.0644 102.687C64.0644 100.432 60.0028 98.5996 55.0039 98.5996C50.005 98.5996 45.9434 100.432 45.9434 102.687Z" fill="white"/>
<path d="M47.2397 123.766H29.103V129.231H47.2397V123.766Z" fill="#E2D7DA"/>
<path d="M29.103 129.23C29.103 131.485 33.1646 133.317 38.1635 133.317C43.1624 133.317 47.2241 131.485 47.2241 129.23C47.2241 126.975 43.1624 125.143 38.1635 125.143C33.1646 125.143 29.103 126.975 29.103 129.23Z" fill="#E2D7DA"/>
<path d="M29.103 123.765C29.103 126.02 33.1646 127.852 38.1635 127.852C43.1624 127.852 47.2241 126.02 47.2241 123.765C47.2241 121.51 43.1624 119.678 38.1635 119.678C33.1646 119.678 29.103 121.51 29.103 123.765Z" fill="white"/>
<path d="M31.5243 114.26H13.3877V119.725H31.5243V114.26Z" fill="#E2D7DA"/>
<path d="M13.3877 119.724C13.3877 121.979 17.4493 123.811 22.4482 123.811C27.4471 123.811 31.5087 121.979 31.5087 119.724C31.5087 117.469 27.4471 115.637 22.4482 115.637C17.4493 115.637 13.3877 117.469 13.3877 119.724Z" fill="#E2D7DA"/>
<path d="M13.3877 114.259C13.3877 116.514 17.4493 118.347 22.4482 118.347C27.4471 118.347 31.5087 116.514 31.5087 114.259C31.5087 112.004 27.4471 110.172 22.4482 110.172C17.4493 110.172 13.3877 112.004 13.3877 114.259Z" fill="white"/>
</g>
<g clip-path="url(#clip10_6783_8726)">
<g filter="url(#filter5_i_6783_8726)">
<path d="M0.0927734 119.775L32.0389 138.755V99.0721L0.0927734 80.123V119.775Z" fill="#F7EDEF"/>
</g>
<g filter="url(#filter6_i_6783_8726)">
<path d="M32.0391 138.755L94.1348 118.914V79.2148L32.0391 99.0722V138.755Z" fill="#E2D7DA"/>
</g>
<path d="M32.0389 99.072L94.1347 79.2146L62.1886 60.2656L0.0927734 80.1229L32.0389 99.072Z" fill="white"/>
<path d="M80.1689 73.7656H62.0322V79.2311H80.1689V73.7656Z" fill="#E2D7DA"/>
<path d="M62.0322 79.2299C62.0322 81.485 66.0938 83.3173 71.0927 83.3173C76.0916 83.3173 80.1533 81.485 80.1533 79.2299C80.1533 76.9748 76.0916 75.1426 71.0927 75.1426C66.0938 75.1426 62.0322 76.9748 62.0322 79.2299Z" fill="#E2D7DA"/>
<path d="M62.0322 73.7651C62.0322 76.0202 66.0938 77.8524 71.0927 77.8524C76.0916 77.8524 80.1533 76.0202 80.1533 73.7651C80.1533 71.51 76.0916 69.6777 71.0927 69.6777C66.0938 69.6777 62.0322 71.51 62.0322 73.7651Z" fill="white"/>
<path d="M63.8598 63.5391H45.7231V69.0045H63.8598V63.5391Z" fill="#E2D7DA"/>
<path d="M45.7231 69.0034C45.7231 71.2585 49.7848 73.0907 54.7837 73.0907C59.7826 73.0907 63.8442 71.2585 63.8442 69.0034C63.8442 66.7483 59.7826 64.916 54.7837 64.916C49.7848 64.916 45.7231 66.7483 45.7231 69.0034Z" fill="#E2D7DA"/>
<path d="M45.7231 63.5385C45.7231 65.7936 49.7848 67.6259 54.7837 67.6259C59.7826 67.6259 63.8442 65.7936 63.8442 63.5385C63.8442 61.2834 59.7826 59.4512 54.7837 59.4512C49.7848 59.4512 45.7231 61.2834 45.7231 63.5385Z" fill="white"/>
<path d="M47.02 84.6172H28.8833V90.0826H47.02V84.6172Z" fill="#E2D7DA"/>
<path d="M28.8833 90.0815C28.8833 92.3366 32.9449 94.1688 37.9438 94.1688C42.9427 94.1688 47.0043 92.3366 47.0043 90.0815C47.0043 87.8264 42.9427 85.9941 37.9438 85.9941C32.9449 85.9941 28.8833 87.8264 28.8833 90.0815Z" fill="#E2D7DA"/>
<path d="M28.8833 84.6166C28.8833 86.8717 32.9449 88.704 37.9438 88.704C42.9427 88.704 47.0043 86.8717 47.0043 84.6166C47.0043 82.3616 42.9427 80.5293 37.9438 80.5293C32.9449 80.5293 28.8833 82.3616 28.8833 84.6166Z" fill="white"/>
<path d="M31.3046 75.1113H13.168V80.5768H31.3046V75.1113Z" fill="#E2D7DA"/>
<path d="M13.168 80.5756C13.168 82.8307 17.2296 84.663 22.2285 84.663C27.2274 84.663 31.289 82.8307 31.289 80.5756C31.289 78.3205 27.2274 76.4883 22.2285 76.4883C17.2296 76.4883 13.168 78.3205 13.168 80.5756Z" fill="#E2D7DA"/>
<path d="M13.168 75.1108C13.168 77.3659 17.2296 79.1981 22.2285 79.1981C27.2274 79.1981 31.289 77.3659 31.289 75.1108C31.289 72.8557 27.2274 71.0234 22.2285 71.0234C17.2296 71.0234 13.168 72.8557 13.168 75.1108Z" fill="white"/>
</g>
<g clip-path="url(#clip11_6783_8726)">
<path d="M258.781 163.91L290.727 182.89V143.207L258.781 124.258V163.91Z" fill="#AA79CD"/>
<g filter="url(#filter7_i_6783_8726)">
<path d="M290.728 182.89L352.823 163.049V123.35L290.728 143.207V182.89Z" fill="#9163B1"/>
</g>
<path d="M290.727 143.207L352.823 123.349L320.877 104.4L258.781 124.258L290.727 143.207Z" fill="#C690EC"/>
<path d="M338.857 117.9H320.721V123.366H338.857V117.9Z" fill="#9163B1"/>
<path d="M320.721 123.365C320.721 125.62 324.782 127.452 329.781 127.452C334.78 127.452 338.842 125.62 338.842 123.365C338.842 121.11 334.78 119.277 329.781 119.277C324.782 119.277 320.721 121.11 320.721 123.365Z" fill="#9163B1"/>
<path d="M320.721 117.9C320.721 120.155 324.782 121.987 329.781 121.987C334.78 121.987 338.842 120.155 338.842 117.9C338.842 115.645 334.78 113.812 329.781 113.812C324.782 113.812 320.721 115.645 320.721 117.9Z" fill="#C690EC"/>
<path d="M322.549 107.674H304.412V113.139H322.549V107.674Z" fill="#9163B1"/>
<path d="M304.412 113.138C304.412 115.393 308.474 117.225 313.473 117.225C318.472 117.225 322.533 115.393 322.533 113.138C322.533 110.883 318.472 109.051 313.473 109.051C308.474 109.051 304.412 110.883 304.412 113.138Z" fill="#9163B1"/>
<path d="M304.412 107.673C304.412 109.928 308.474 111.761 313.473 111.761C318.472 111.761 322.533 109.928 322.533 107.673C322.533 105.418 318.472 103.586 313.473 103.586C308.474 103.586 304.412 105.418 304.412 107.673Z" fill="#C690EC"/>
<path d="M305.708 128.752H287.572V134.217H305.708V128.752Z" fill="#9163B1"/>
<path d="M287.572 134.216C287.572 136.471 291.633 138.304 296.632 138.304C301.631 138.304 305.693 136.471 305.693 134.216C305.693 131.961 301.631 130.129 296.632 130.129C291.633 130.129 287.572 131.961 287.572 134.216Z" fill="#9163B1"/>
<path d="M287.572 128.751C287.572 131.007 291.633 132.839 296.632 132.839C301.631 132.839 305.693 131.007 305.693 128.751C305.693 126.496 301.631 124.664 296.632 124.664C291.633 124.664 287.572 126.496 287.572 128.751Z" fill="#C690EC"/>
<path d="M289.993 119.246H271.856V124.712H289.993V119.246Z" fill="#9163B1"/>
<path d="M271.856 124.71C271.856 126.965 275.918 128.798 280.917 128.798C285.916 128.798 289.977 126.965 289.977 124.71C289.977 122.455 285.916 120.623 280.917 120.623C275.918 120.623 271.856 122.455 271.856 124.71Z" fill="#9163B1"/>
<path d="M271.856 119.246C271.856 121.501 275.918 123.333 280.917 123.333C285.916 123.333 289.977 121.501 289.977 119.246C289.977 116.99 285.916 115.158 280.917 115.158C275.918 115.158 271.856 116.99 271.856 119.246Z" fill="#C690EC"/>
<path d="M307.159 163.582L305.802 164.085V155.341L308.995 154.167C310.606 153.575 311.497 154.249 311.497 155.872C311.497 157.196 310.839 158.366 309.653 159.003L311.619 161.926L310.107 162.486L308.3 159.629L307.164 160.05V163.578L307.159 163.582ZM308.799 158.321C309.653 158.006 310.07 157.466 310.07 156.665V156.125C310.07 155.324 309.653 155.091 308.799 155.406L307.159 156.007V158.922L308.799 158.317V158.321Z" fill="#FDFCFE"/>
<path d="M312.842 158.267C312.842 156.195 314.011 154.449 315.802 153.791C317.592 153.133 318.684 154.028 318.684 155.921V156.432L314.183 158.091V158.304C314.183 159.314 314.841 159.784 315.924 159.383C316.725 159.085 317.31 158.484 317.662 157.756L318.487 158.198C318.062 159.105 317.187 160.013 315.9 160.491C313.978 161.202 312.842 160.311 312.842 158.263V158.267ZM314.183 157.135V157.221L317.335 156.06V155.933C317.335 154.923 316.725 154.486 315.802 154.825C314.878 155.164 314.183 156.133 314.183 157.131V157.135Z" fill="#FDFCFE"/>
<path d="M320.417 149.974L323.336 148.903C324.861 148.343 325.756 148.899 325.756 150.293C325.756 151.298 325.237 152.075 324.415 152.627V152.688C325.396 152.562 326.046 152.946 326.046 154.14C326.046 155.558 325.09 156.944 323.663 157.471L320.417 158.673V149.974ZM323.058 152.737C323.904 152.427 324.366 151.932 324.366 151.147V150.698C324.366 149.913 323.908 149.757 323.058 150.072L321.75 150.554V153.22L323.058 152.737ZM323.25 156.552C324.145 156.22 324.652 155.66 324.652 154.826V154.377C324.652 153.531 324.145 153.359 323.25 153.686L321.75 154.242V157.108L323.25 156.552Z" fill="#FDFCFE"/>
<path d="M332.248 154.294L331.61 152.222L328.936 153.211L328.299 155.758L326.921 156.269L329.382 146.686L331.226 146.008L333.678 153.767L332.248 154.298V154.294ZM330.322 147.741L330.224 147.778L329.186 151.96L331.356 151.159L330.322 147.741Z" fill="#FDFCFE"/>
<path d="M334.606 149.09C334.606 146.225 335.628 144.238 337.75 143.457C339.369 142.864 340.109 143.555 340.493 144.589L339.283 145.456C339.03 144.757 338.686 144.266 337.738 144.614C336.552 145.051 336.033 146.245 336.033 147.831V149.295C336.033 150.881 336.548 151.694 337.738 151.257C338.686 150.905 339.034 150.157 339.283 149.274L340.493 149.25C340.109 150.566 339.369 151.809 337.75 152.406C335.624 153.19 334.606 151.956 334.606 149.094V149.09Z" fill="#FDFCFE"/>
</g>
<path opacity="0.05" d="M137.927 249.154L212.611 254.398L202.031 274.224L111.55 279.467L137.911 249.17L137.927 249.154Z" fill="#191919"/>
<g clip-path="url(#clip12_6783_8726)">
<path d="M80.3887 260.488L112.335 279.468V239.785L80.3887 220.836V260.488Z" fill="#AA79CD"/>
<path d="M112.335 279.468L174.431 259.627V219.928L112.335 239.785V279.468Z" fill="#9163B1"/>
<path d="M112.335 239.785L174.431 219.928L142.484 200.979L80.3887 220.836L112.335 239.785Z" fill="#C690EC"/>
<path d="M160.465 214.479H142.328V219.944H160.465V214.479Z" fill="#9163B1"/>
<path d="M142.328 219.943C142.328 222.198 146.39 224.03 151.389 224.03C156.388 224.03 160.449 222.198 160.449 219.943C160.449 217.688 156.388 215.855 151.389 215.855C146.39 215.855 142.328 217.688 142.328 219.943Z" fill="#9163B1"/>
<path d="M142.328 214.478C142.328 216.733 146.39 218.565 151.389 218.565C156.388 218.565 160.449 216.733 160.449 214.478C160.449 212.223 156.388 210.391 151.389 210.391C146.39 210.391 142.328 212.223 142.328 214.478Z" fill="#C690EC"/>
<path d="M144.156 204.252H126.02V209.717H144.156V204.252Z" fill="#9163B1"/>
<path d="M126.02 209.716C126.02 211.971 130.081 213.804 135.08 213.804C140.079 213.804 144.141 211.971 144.141 209.716C144.141 207.461 140.079 205.629 135.08 205.629C130.081 205.629 126.02 207.461 126.02 209.716Z" fill="#9163B1"/>
<path d="M126.02 204.251C126.02 206.507 130.081 208.339 135.08 208.339C140.079 208.339 144.141 206.507 144.141 204.251C144.141 201.996 140.079 200.164 135.08 200.164C130.081 200.164 126.02 201.996 126.02 204.251Z" fill="#C690EC"/>
<path d="M127.316 225.33H109.179V230.796H127.316V225.33Z" fill="#9163B1"/>
<path d="M109.179 230.794C109.179 233.049 113.241 234.882 118.24 234.882C123.239 234.882 127.3 233.049 127.3 230.794C127.3 228.539 123.239 226.707 118.24 226.707C113.241 226.707 109.179 228.539 109.179 230.794Z" fill="#9163B1"/>
<path d="M109.179 225.33C109.179 227.585 113.241 229.417 118.24 229.417C123.239 229.417 127.3 227.585 127.3 225.33C127.3 223.074 123.239 221.242 118.24 221.242C113.241 221.242 109.179 223.074 109.179 225.33Z" fill="#C690EC"/>
<path d="M111.601 215.824H93.4639V221.29H111.601V215.824Z" fill="#9163B1"/>
<path d="M93.4639 221.289C93.4639 223.544 97.5255 225.376 102.524 225.376C107.523 225.376 111.585 223.544 111.585 221.289C111.585 219.033 107.523 217.201 102.524 217.201C97.5255 217.201 93.4639 219.033 93.4639 221.289Z" fill="#9163B1"/>
<path d="M93.4639 215.824C93.4639 218.079 97.5255 219.911 102.524 219.911C107.523 219.911 111.585 218.079 111.585 215.824C111.585 213.569 107.523 211.736 102.524 211.736C97.5255 211.736 93.4639 213.569 93.4639 215.824Z" fill="#C690EC"/>
<g clip-path="url(#clip13_6783_8726)">
<path d="M134.183 257.822L133.439 255.578L130.316 256.624L129.568 259.372L127.961 259.911L130.839 249.577L132.989 248.861L135.855 257.262L134.187 257.822H134.183ZM131.934 250.725L131.82 250.762L130.61 255.271L133.14 254.425L131.93 250.725H131.934Z" fill="#FDFCFE"/>
<path d="M137.286 247.436L140.658 246.316C142.42 245.731 143.454 246.336 143.454 247.832C143.454 248.916 142.854 249.746 141.905 250.33V250.396C143.037 250.273 143.79 250.69 143.79 251.974C143.79 253.498 142.686 254.978 141.038 255.53L137.286 256.789V247.436ZM140.339 250.437C141.316 250.109 141.848 249.586 141.848 248.74V248.258C141.848 247.415 141.316 247.244 140.339 247.571L138.827 248.074V250.939L140.339 250.437ZM140.564 254.537C141.598 254.189 142.187 253.592 142.187 252.697V252.215C142.187 251.307 141.598 251.115 140.564 251.459L138.831 252.039V255.117L140.564 254.537Z" fill="#FDFCFE"/>
<path d="M150.948 252.201L150.212 249.965L147.122 250.999L146.382 253.73L144.792 254.262L147.633 243.988L149.763 243.281L152.596 251.645L150.944 252.201H150.948ZM148.724 245.137L148.614 245.174L147.416 249.659L149.922 248.82L148.724 245.137Z" fill="#FDFCFE"/>
<path d="M153.67 246.638C153.67 243.56 154.848 241.434 157.301 240.621C159.169 239.999 160.023 240.752 160.469 241.868L159.075 242.783C158.784 242.027 158.384 241.496 157.288 241.859C155.919 242.317 155.322 243.593 155.322 245.297V246.867C155.322 248.572 155.919 249.451 157.288 248.993C158.38 248.625 158.784 247.828 159.075 246.879L160.469 246.863C160.027 248.273 159.169 249.598 157.301 250.228C154.848 251.049 153.67 249.712 153.67 246.634V246.638Z" fill="#FDFCFE"/>
</g>
</g>
<g opacity="0.6" clip-path="url(#clip14_6783_8726)">
<path d="M241.892 224.437C241.044 224.731 240.617 224.441 240.535 223.82L240.468 223.842C240.193 224.713 239.453 225.434 238.341 225.821C236.898 226.323 235.964 225.906 235.964 224.69C235.964 223.474 236.968 222.411 239.07 221.685L240.427 221.217V220.715C240.427 219.852 239.921 219.577 238.906 219.926C237.999 220.239 237.463 220.774 237.08 221.447L236.187 221.09C236.585 220.25 237.549 219.328 239.044 218.814C240.825 218.201 241.922 218.636 241.922 220.112V223.355L242.811 223.046V224.121L241.892 224.441V224.437ZM240.427 223.017V222.076L239.096 222.537C237.999 222.916 237.474 223.411 237.474 223.987V224.237C237.474 224.813 237.969 224.943 238.765 224.668C239.724 224.333 240.423 223.653 240.423 223.017H240.427Z" fill="#451E11"/>
<path d="M244.451 217.098L245.938 216.585V217.685L246.02 217.656C246.429 216.741 247.113 216.03 248.151 215.67C249.802 215.101 250.862 215.897 250.862 218.102C250.862 220.307 249.798 221.839 248.151 222.412C247.113 222.773 246.433 222.535 246.02 221.903L245.938 221.932V225.532L244.451 226.049V217.094V217.098ZM249.296 219.173V218.124C249.296 217.075 248.657 216.611 247.537 216.997C246.678 217.295 245.942 217.949 245.942 218.738V220.887C245.942 221.676 246.678 221.821 247.537 221.52C248.657 221.133 249.296 220.222 249.296 219.173Z" fill="#451E11"/>
<path d="M252.934 219.508L255.325 218.678V214.443L252.934 215.268V214.171L256.805 212.836V218.165L259.04 217.388V218.485L252.934 220.605V219.508ZM255.053 211.531V211.27C255.053 210.858 255.325 210.441 256.057 210.188C256.79 209.935 257.076 210.162 257.076 210.571V210.832C257.076 211.244 256.805 211.661 256.072 211.914C255.34 212.167 255.053 211.94 255.053 211.531Z" fill="#451E11"/>
<path d="M260.825 219.582L265.377 206.845L266.682 206.395L262.134 219.124L260.821 219.582H260.825Z" fill="#451E11"/>
<path d="M268.594 214.089L269.494 213.033C270.1 213.431 270.837 213.509 271.871 213.152C272.811 212.825 273.455 212.319 273.455 211.687C273.455 211.14 272.986 211.155 272.395 211.285L271.294 211.505C270.204 211.732 268.981 211.798 268.981 210.482C268.981 209.165 270.164 208.076 271.937 207.466C273.224 207.02 274.15 207.075 274.779 207.488L273.961 208.563C273.6 208.303 272.968 208.139 271.882 208.515C270.93 208.846 270.416 209.318 270.416 209.876C270.416 210.434 270.9 210.404 271.476 210.277L272.577 210.058C273.678 209.827 274.883 209.757 274.883 211.07C274.883 212.382 273.73 213.539 271.837 214.193C270.346 214.71 269.245 214.61 268.583 214.093L268.594 214.089Z" fill="#451E11"/>
<path d="M276.657 209.188C276.657 207.135 277.94 205.391 279.903 204.714C281.867 204.038 283.064 204.908 283.064 206.786V207.292L278.126 209.002V209.214C278.126 210.215 278.847 210.672 280.037 210.259C280.919 209.954 281.558 209.348 281.945 208.623L282.852 209.051C282.388 209.954 281.424 210.865 280.011 211.36C277.899 212.093 276.657 211.226 276.657 209.196V209.188ZM278.129 208.047V208.132L281.588 206.935V206.812C281.588 205.811 280.922 205.388 279.907 205.737C278.892 206.087 278.129 207.057 278.129 208.047Z" fill="#451E11"/>
<path d="M284.983 209.478V203.111L286.433 202.609V203.695L286.5 203.673C286.794 202.906 287.352 202.144 288.479 201.757C289.858 201.281 290.788 201.835 290.788 203.375V207.462L289.341 207.964V204.07C289.341 203.059 288.851 202.724 287.921 203.044C287.177 203.301 286.433 203.914 286.433 204.654V208.972L284.983 209.474V209.478Z" fill="#451E11"/>
<path d="M297.282 204.126L297.203 204.152C296.806 205.052 296.147 205.747 295.143 206.097C293.544 206.651 292.51 205.866 292.51 203.687C292.51 201.508 293.544 200.009 295.143 199.455C296.147 199.109 296.806 199.347 297.203 199.972L297.282 199.946V196.112L298.721 195.617V204.706L297.282 205.204V204.122V204.126ZM297.282 203.092V200.98C297.282 200.206 296.568 200.058 295.738 200.348C294.656 200.723 294.035 201.612 294.035 202.646V203.68C294.035 204.714 294.656 205.175 295.738 204.799C296.571 204.509 297.282 203.869 297.282 203.096V203.092Z" fill="#451E11"/>
<path d="M300.852 205.658L305.281 193.115L306.553 192.676L302.127 205.216L300.852 205.658Z" fill="#451E11"/>
<path d="M308.427 198.191C308.427 196.16 309.684 194.438 311.607 193.776C313.5 193.122 314.701 193.981 314.701 195.837V196.339L309.866 198.012V198.22C309.866 199.213 310.573 199.663 311.737 199.262C312.6 198.964 313.225 198.366 313.604 197.648L314.493 198.072C314.035 198.964 313.098 199.864 311.711 200.344C309.643 201.062 308.427 200.199 308.427 198.191ZM309.866 197.068V197.153L313.251 195.982V195.859C313.251 194.87 312.596 194.446 311.603 194.788C310.61 195.13 309.863 196.086 309.863 197.064L309.866 197.068Z" fill="#451E11"/>
<path d="M316.058 198.686V192.386L317.271 191.969V192.787L317.334 192.765C317.542 192.155 317.896 191.609 318.621 191.356C319.346 191.103 319.714 191.371 319.818 191.966L319.87 191.947C320.105 191.292 320.506 190.705 321.313 190.426C322.34 190.073 322.7 190.653 322.7 191.958V196.38L321.492 196.8V192.546C321.492 191.679 321.283 191.46 320.778 191.635C320.324 191.791 319.986 192.189 319.986 192.761V197.321L318.777 197.741V193.483C318.777 192.616 318.58 192.393 318.074 192.568C317.605 192.732 317.267 193.126 317.267 193.702V198.265L316.055 198.686H316.058Z" fill="#451E11"/>
<path d="M329.647 193.967C328.848 194.246 328.446 193.959 328.368 193.353L328.305 193.375C328.044 194.22 327.349 194.911 326.3 195.276C324.943 195.748 324.062 195.335 324.062 194.153C324.062 192.97 325.006 191.951 326.988 191.267L328.268 190.824V190.337C328.268 189.497 327.788 189.225 326.832 189.556C325.977 189.85 325.475 190.367 325.11 191.014L324.27 190.661C324.645 189.85 325.553 188.965 326.962 188.478C328.643 187.897 329.677 188.333 329.677 189.764V192.911L330.518 192.62V193.665L329.651 193.967H329.647ZM328.264 192.576V191.665L327.011 192.1C325.977 192.457 325.482 192.933 325.482 193.494V193.736C325.482 194.298 325.947 194.428 326.698 194.167C327.602 193.855 328.264 193.201 328.264 192.58V192.576Z" fill="#451E11"/>
<path d="M332.343 191.96L334.608 191.175V187.051L332.343 187.832V186.765L336.01 185.5V190.692L338.13 189.955V191.023L332.343 193.031V191.964V191.96ZM334.351 184.213V183.957C334.351 183.555 334.608 183.154 335.303 182.912C335.999 182.67 336.267 182.897 336.267 183.295V183.548C336.267 183.949 336.01 184.351 335.315 184.593C334.619 184.835 334.351 184.611 334.351 184.21V184.213Z" fill="#451E11"/>
<path d="M339.722 189.403L341.912 188.645V181.817L339.722 182.572V181.508L343.307 180.273V188.161L345.493 187.403V188.466L339.722 190.471V189.403Z" fill="#451E11"/>
</g>
<g clip-path="url(#clip15_6783_8726)">
<g opacity="0.6">
<path d="M47.9278 118.801C47.0948 119.069 46.6745 118.764 46.5964 118.139L46.5295 118.162C46.258 119.024 45.5328 119.724 44.4395 120.073C43.0226 120.531 42.104 120.084 42.104 118.868C42.104 117.652 43.0895 116.622 45.1535 115.96L46.4886 115.532V115.03C46.4886 114.168 45.9903 113.874 44.9936 114.194C44.1048 114.48 43.5767 114.997 43.2011 115.659L42.3234 115.276C42.7139 114.446 43.6585 113.558 45.1312 113.089C46.8828 112.531 47.9613 113 47.9613 114.476V117.719L48.8352 117.44V118.515L47.9352 118.805L47.9278 118.801ZM46.4886 117.336V116.395L45.1832 116.815C44.1048 117.161 43.5916 117.637 43.5916 118.217V118.467C43.5916 119.043 44.0787 119.188 44.8597 118.935C45.8043 118.63 46.4886 117.972 46.4886 117.336Z" fill="#451E11"/>
<path d="M50.4419 111.538L51.9071 111.069V112.17L51.989 112.144C52.3906 111.24 53.0637 110.552 54.0827 110.225C55.7041 109.708 56.7454 110.534 56.7454 112.743C56.7454 114.952 55.7004 116.451 54.0827 116.971C53.0637 117.298 52.3943 117.038 51.989 116.395L51.9071 116.421V120.021L50.4419 120.493V111.538ZM55.2021 113.762V112.713C55.2021 111.664 54.5736 111.177 53.4728 111.53C52.6286 111.802 51.9034 112.43 51.9034 113.219V115.368C51.9034 116.157 52.6286 116.324 53.4728 116.053C54.5699 115.699 55.2021 114.811 55.2021 113.762Z" fill="#451E11"/>
<path d="M58.7759 114.216L61.1262 113.461V109.225L58.7759 109.976V108.879L62.5766 107.663V112.996L64.7745 112.289V113.387L58.7759 115.317V114.22V114.216ZM60.8585 106.306V106.045C60.8585 105.633 61.1262 105.224 61.844 104.997C62.5617 104.77 62.8444 105.004 62.8444 105.413V105.674C62.8444 106.086 62.5766 106.492 61.8588 106.722C61.1411 106.953 60.8585 106.719 60.8585 106.306Z" fill="#451E11"/>
<path d="M66.5298 114.536L70.9999 101.94L72.2829 101.531L67.8165 114.12L66.5298 114.536Z" fill="#451E11"/>
<path d="M74.4326 103.877L75.8718 103.416V104.506L75.9499 104.48C76.3478 103.583 77.0061 102.903 78.0102 102.583C79.6056 102.074 80.632 102.899 80.632 105.09C80.632 107.28 79.6056 108.764 78.0102 109.277C77.0061 109.601 76.3478 109.34 75.9499 108.697L75.8718 108.723V112.293L74.4326 112.758V103.874V103.877ZM79.1184 106.097V105.056C79.1184 104.015 78.4974 103.531 77.4189 103.877C76.5859 104.141 75.8755 104.766 75.8755 105.551V107.685C75.8755 108.466 76.5896 108.634 77.4189 108.366C78.5011 108.02 79.1184 107.139 79.1184 106.097Z" fill="#451E11"/>
<path d="M87.7646 105.993C86.9539 106.254 86.5448 105.953 86.4667 105.335L86.3997 105.358C86.1357 106.209 85.4291 106.893 84.3655 107.236C82.9858 107.678 82.0933 107.236 82.0933 106.034C82.0933 104.833 83.0527 103.822 85.0609 103.178L86.3588 102.762V102.267C86.3588 101.416 85.8754 101.125 84.901 101.434C84.0345 101.713 83.5213 102.223 83.1531 102.87L82.2978 102.487C82.6808 101.672 83.5994 100.794 85.0312 100.341C86.7382 99.7978 87.7869 100.263 87.7869 101.72V104.919L88.6385 104.647V105.711L87.7609 105.993H87.7646ZM86.3626 104.539V103.613L85.0907 104.022C84.042 104.361 83.5399 104.829 83.5399 105.398V105.648C83.5399 106.217 84.0122 106.362 84.7746 106.116C85.6932 105.822 86.3626 105.175 86.3626 104.543V104.539Z" fill="#451E11"/>
<path d="M95.0686 97.2836L96.5003 96.8262L93.2389 105.461C92.8856 106.387 92.4021 106.964 91.3311 107.31L90.1931 107.678V106.592L91.7885 106.079L92.4021 104.413L89.6836 99.0054L91.1749 98.5294L92.2459 100.85L93.0827 102.765L93.1608 102.739L93.9975 100.288L95.0648 97.2836H95.0686Z" fill="#451E11"/>
<path d="M97.5826 102.836V96.4844L98.7913 96.0977V96.9233L98.8545 96.9009C99.0628 96.291 99.4123 95.7518 100.141 95.5175C100.87 95.2832 101.231 95.5621 101.335 96.1683L101.387 96.1534C101.621 95.5026 102.023 94.9188 102.826 94.6622C103.849 94.3349 104.213 94.9336 104.213 96.2464V100.705L103.009 101.092V96.8043C103.009 95.9303 102.8 95.7035 102.294 95.8634C101.841 96.0084 101.502 96.3989 101.502 96.9753V101.576L100.294 101.962V97.6708C100.294 96.7968 100.1 96.5662 99.5908 96.7262C99.1223 96.8749 98.7838 97.2654 98.7838 97.8455V102.45L97.5752 102.84L97.5826 102.836Z" fill="#451E11"/>
<path d="M105.582 97.1091C105.582 95.0711 106.824 93.3865 108.724 92.7766C110.625 92.1667 111.781 93.0741 111.781 94.9373V95.4393L107.002 96.9715V97.1798C107.002 98.1727 107.702 98.6487 108.851 98.2806C109.702 98.0054 110.323 97.4289 110.695 96.7186L111.573 97.1723C111.123 98.0537 110.193 98.9276 108.825 99.3665C106.783 100.025 105.578 99.121 105.578 97.1054L105.582 97.1091ZM107.006 96.0269V96.1124L110.353 95.0414V94.9187C110.353 93.9257 109.706 93.4832 108.728 93.7956C107.75 94.108 107.01 95.0451 107.01 96.0269H107.006Z" fill="#451E11"/>
<path d="M113.637 97.6741V91.3557L115.039 90.9094V91.9879L115.102 91.9656C115.385 91.2144 115.924 90.4781 117.017 90.1285C118.353 89.7008 119.249 90.2847 119.249 91.8094V95.8667L117.851 96.3167V92.4528C117.851 91.4487 117.375 91.0991 116.475 91.3892C115.753 91.6198 115.035 92.2036 115.035 92.94V97.2241L113.633 97.6741H113.637Z" fill="#451E11"/>
<path d="M124.5 94.1774C123.351 94.5456 122.812 94.0621 122.812 93.1212V89.4953L120.777 90.1461V89.0713L122.224 88.6102C122.711 88.454 122.901 88.2346 122.901 87.7474V86.1743L124.206 85.7578V87.978L127.014 87.0817V88.1528L124.206 89.0528V93.1993L127.014 92.2956V93.3667L124.5 94.1737V94.1774Z" fill="#451E11"/>
<path d="M128.687 91.7758L129.539 90.7717C130.112 91.1845 130.811 91.2887 131.793 90.9726C132.681 90.6862 133.291 90.2102 133.291 89.5891C133.291 89.0536 132.845 89.0499 132.287 89.1577L131.246 89.3325C130.216 89.5185 129.055 89.5334 129.055 88.2429C129.055 86.9524 130.175 85.9223 131.856 85.3868C133.076 84.9963 133.953 85.0818 134.548 85.5132L133.775 86.5396C133.433 86.2719 132.834 86.0859 131.804 86.4132C130.9 86.7033 130.417 87.1495 130.417 87.6962C130.417 88.2429 130.874 88.2317 131.421 88.1276L132.462 87.9528C133.503 87.7669 134.645 87.7409 134.645 89.0276C134.645 90.3143 133.552 91.4077 131.763 91.9841C130.35 92.4378 129.308 92.3002 128.684 91.7684L128.687 91.7758Z" fill="#451E11"/>
<path d="M136.62 91.9618L140.882 79.6932L142.105 79.3027L137.843 91.5639L136.616 91.9581L136.62 91.9618Z" fill="#451E11"/>
</g>
</g>
<defs>
<filter id="filter0_ii_6783_8726" x="94.1982" y="98.7129" width="62.0957" height="59.541" filterUnits="userSpaceOnUse" color-interpolation-filters="sRGB">
<feFlood flood-opacity="0" result="BackgroundImageFix"/>
<feBlend mode="normal" in="SourceGraphic" in2="BackgroundImageFix" result="shape"/>
<feColorMatrix in="SourceAlpha" type="matrix" values="0 0 0 0 0 0 0 0 0 0 0 0 0 0 0 0 0 0 127 0" result="hardAlpha"/>
<feOffset dy="-1.40361"/>
<feComposite in2="hardAlpha" operator="arithmetic" k2="-1" k3="1"/>
<feColorMatrix type="matrix" values="0 0 0 0 0 0 0 0 0 0 0 0 0 0 0 0 0 0 0.05 0"/>
<feBlend mode="normal" in2="shape" result="effect1_innerShadow_6783_8726"/>
<feColorMatrix in="SourceAlpha" type="matrix" values="0 0 0 0 0 0 0 0 0 0 0 0 0 0 0 0 0 0 127 0" result="hardAlpha"/>
<feOffset dx="1.40361"/>
<feComposite in2="hardAlpha" operator="arithmetic" k2="-1" k3="1"/>
<feColorMatrix type="matrix" values="0 0 0 0 0 0 0 0 0 0 0 0 0 0 0 0 0 0 0.05 0"/>
<feBlend mode="normal" in2="effect1_innerShadow_6783_8726" result="effect2_innerShadow_6783_8726"/>
</filter>
<filter id="filter1_i_6783_8726" x="93.9785" y="59.5645" width="62.0957" height="59.541" filterUnits="userSpaceOnUse" color-interpolation-filters="sRGB">
<feFlood flood-opacity="0" result="BackgroundImageFix"/>
<feBlend mode="normal" in="SourceGraphic" in2="BackgroundImageFix" result="shape"/>
<feColorMatrix in="SourceAlpha" type="matrix" values="0 0 0 0 0 0 0 0 0 0 0 0 0 0 0 0 0 0 127 0" result="hardAlpha"/>
<feOffset dy="-1.40361"/>
<feComposite in2="hardAlpha" operator="arithmetic" k2="-1" k3="1"/>
<feColorMatrix type="matrix" values="0 0 0 0 0 0 0 0 0 0 0 0 0 0 0 0 0 0 0.05 0"/>
<feBlend mode="normal" in2="shape" result="effect1_innerShadow_6783_8726"/>
</filter>
<filter id="filter2_i_6783_8726" x="94.0923" y="19.7637" width="62.0957" height="59.541" filterUnits="userSpaceOnUse" color-interpolation-filters="sRGB">
<feFlood flood-opacity="0" result="BackgroundImageFix"/>
<feBlend mode="normal" in="SourceGraphic" in2="BackgroundImageFix" result="shape"/>
<feColorMatrix in="SourceAlpha" type="matrix" values="0 0 0 0 0 0 0 0 0 0 0 0 0 0 0 0 0 0 127 0" result="hardAlpha"/>
<feOffset dy="-1.40361"/>
<feComposite in2="hardAlpha" operator="arithmetic" k2="-1" k3="1"/>
<feColorMatrix type="matrix" values="0 0 0 0 0 0 0 0 0 0 0 0 0 0 0 0 0 0 0.05 0"/>
<feBlend mode="normal" in2="shape" result="effect1_innerShadow_6783_8726"/>
</filter>
<filter id="filter3_i_6783_8726" x="0.3125" y="119.271" width="31.9463" height="58.6328" filterUnits="userSpaceOnUse" color-interpolation-filters="sRGB">
<feFlood flood-opacity="0" result="BackgroundImageFix"/>
<feBlend mode="normal" in="SourceGraphic" in2="BackgroundImageFix" result="shape"/>
<feColorMatrix in="SourceAlpha" type="matrix" values="0 0 0 0 0 0 0 0 0 0 0 0 0 0 0 0 0 0 127 0" result="hardAlpha"/>
<feOffset dy="-1.40361"/>
<feComposite in2="hardAlpha" operator="arithmetic" k2="-1" k3="1"/>
<feColorMatrix type="matrix" values="0 0 0 0 0 0 0 0 0 0 0 0 0 0 0 0 0 0 0.05 0"/>
<feBlend mode="normal" in2="shape" result="effect1_innerShadow_6783_8726"/>
</filter>
<filter id="filter4_i_6783_8726" x="32.2588" y="118.363" width="62.0957" height="59.541" filterUnits="userSpaceOnUse" color-interpolation-filters="sRGB">
<feFlood flood-opacity="0" result="BackgroundImageFix"/>
<feBlend mode="normal" in="SourceGraphic" in2="BackgroundImageFix" result="shape"/>
<feColorMatrix in="SourceAlpha" type="matrix" values="0 0 0 0 0 0 0 0 0 0 0 0 0 0 0 0 0 0 127 0" result="hardAlpha"/>
<feOffset dy="-1.40361"/>
<feComposite in2="hardAlpha" operator="arithmetic" k2="-1" k3="1"/>
<feColorMatrix type="matrix" values="0 0 0 0 0 0 0 0 0 0 0 0 0 0 0 0 0 0 0.05 0"/>
<feBlend mode="normal" in2="shape" result="effect1_innerShadow_6783_8726"/>
</filter>
<filter id="filter5_i_6783_8726" x="0.0927734" y="80.123" width="31.9463" height="58.6328" filterUnits="userSpaceOnUse" color-interpolation-filters="sRGB">
<feFlood flood-opacity="0" result="BackgroundImageFix"/>
<feBlend mode="normal" in="SourceGraphic" in2="BackgroundImageFix" result="shape"/>
<feColorMatrix in="SourceAlpha" type="matrix" values="0 0 0 0 0 0 0 0 0 0 0 0 0 0 0 0 0 0 127 0" result="hardAlpha"/>
<feOffset dy="-1.40361"/>
<feComposite in2="hardAlpha" operator="arithmetic" k2="-1" k3="1"/>
<feColorMatrix type="matrix" values="0 0 0 0 0 0 0 0 0 0 0 0 0 0 0 0 0 0 0.05 0"/>
<feBlend mode="normal" in2="shape" result="effect1_innerShadow_6783_8726"/>
</filter>
<filter id="filter6_i_6783_8726" x="32.0391" y="79.2148" width="62.0957" height="59.541" filterUnits="userSpaceOnUse" color-interpolation-filters="sRGB">
<feFlood flood-opacity="0" result="BackgroundImageFix"/>
<feBlend mode="normal" in="SourceGraphic" in2="BackgroundImageFix" result="shape"/>
<feColorMatrix in="SourceAlpha" type="matrix" values="0 0 0 0 0 0 0 0 0 0 0 0 0 0 0 0 0 0 127 0" result="hardAlpha"/>
<feOffset dy="-1.40361"/>
<feComposite in2="hardAlpha" operator="arithmetic" k2="-1" k3="1"/>
<feColorMatrix type="matrix" values="0 0 0 0 0 0 0 0 0 0 0 0 0 0 0 0 0 0 0.05 0"/>
<feBlend mode="normal" in2="shape" result="effect1_innerShadow_6783_8726"/>
</filter>
<filter id="filter7_i_6783_8726" x="290.728" y="123.35" width="62.0957" height="59.541" filterUnits="userSpaceOnUse" color-interpolation-filters="sRGB">
<feFlood flood-opacity="0" result="BackgroundImageFix"/>
<feBlend mode="normal" in="SourceGraphic" in2="BackgroundImageFix" result="shape"/>
<feColorMatrix in="SourceAlpha" type="matrix" values="0 0 0 0 0 0 0 0 0 0 0 0 0 0 0 0 0 0 127 0" result="hardAlpha"/>
<feOffset dy="-1.40361"/>
<feComposite in2="hardAlpha" operator="arithmetic" k2="-1" k3="1"/>
<feColorMatrix type="matrix" values="0 0 0 0 0 0 0 0 0 0 0 0 0 0 0 0 0 0 0.05 0"/>
<feBlend mode="normal" in2="shape" result="effect1_innerShadow_6783_8726"/>
</filter>
<clipPath id="clip0_6783_8726">
<rect width="94.0419" height="79.304" fill="white" transform="translate(186.87 77.627)"/>
</clipPath>
<clipPath id="clip1_6783_8726">
<rect width="94.0419" height="79.304" fill="white" transform="translate(258.768 143.01)"/>
</clipPath>
<clipPath id="clip2_6783_8726">
<rect width="94.0419" height="79.304" fill="white" transform="translate(61.9395 118.174)"/>
</clipPath>
<clipPath id="clip3_6783_8726">
<rect width="94.0419" height="79.304" fill="white" transform="translate(62.252 78.9492)"/>
</clipPath>
<clipPath id="clip4_6783_8726">
<rect width="94.0419" height="79.304" fill="white" transform="translate(62.0322 39.8008)"/>
</clipPath>
<clipPath id="clip5_6783_8726">
<rect width="94.0419" height="79.304" fill="white" transform="translate(62.146)"/>
</clipPath>
<clipPath id="clip6_6783_8726">
<rect width="31.6098" height="20.6142" fill="white" transform="translate(110.74 40.1426)"/>
</clipPath>
<clipPath id="clip7_6783_8726">
<rect width="94.0419" height="79.304" fill="white" transform="translate(196.637 163.227)"/>
</clipPath>
<clipPath id="clip8_6783_8726">
<rect width="94.0419" height="79.304" fill="white" transform="translate(0 137.824)"/>
</clipPath>
<clipPath id="clip9_6783_8726">
<rect width="94.0419" height="79.304" fill="white" transform="translate(0.3125 98.5996)"/>
</clipPath>
<clipPath id="clip10_6783_8726">
<rect width="94.0419" height="79.304" fill="white" transform="translate(0.0927734 59.4512)"/>
</clipPath>
<clipPath id="clip11_6783_8726">
<rect width="94.0419" height="79.304" fill="white" transform="translate(258.781 103.586)"/>
</clipPath>
<clipPath id="clip12_6783_8726">
<rect width="94.0419" height="79.304" fill="white" transform="translate(80.3887 200.164)"/>
</clipPath>
<clipPath id="clip13_6783_8726">
<rect width="32.4996" height="19.512" fill="white" transform="translate(127.965 240.396)"/>
</clipPath>
<clipPath id="clip14_6783_8726">
<rect width="109.525" height="45.7796" fill="white" transform="translate(235.964 180.271)"/>
</clipPath>
<clipPath id="clip15_6783_8726">
<rect width="100.005" height="41.1905" fill="white" transform="translate(42.104 79.3047)"/>
</clipPath>
</defs>
</svg>
