<svg width="372" height="384" viewBox="0 0 372 384" fill="none" xmlns="http://www.w3.org/2000/svg">
<path d="M212.486 209.44C212.788 204.944 216.061 176.26 217.009 170.002C209.399 149.901 184.475 126.759 164.42 120.771C162.985 129.889 159.064 138.173 152.676 142.809C171.862 147.016 184.267 153.011 206.548 208.003C208.456 208.741 210.452 209.224 212.486 209.44Z" fill="url(#paint0_linear_6783_8556)"/>
<path d="M14.9868 188.723C38.564 122.678 97.2937 112.416 116.272 112.789C116.607 114.745 117.57 116.54 119.014 117.901C116.954 122.91 116.143 132.258 115.526 136.177C108.97 138.545 82.5995 147.896 69.8574 165.923C61.7367 177.412 61.7311 200.91 66.9857 234.562C70.4606 256.802 81.7154 269.836 92.957 269.836C94.3938 274.374 96.8478 283.324 103.447 288.629C83.347 284.84 71.2455 269.392 63.1323 251.705C63.0048 251.377 62.7526 251.114 62.4309 250.973C62.1093 250.831 61.7447 250.823 61.4173 250.951C61.0899 251.078 60.8265 251.331 60.6851 251.652C60.5437 251.974 60.5359 252.338 60.6633 252.666C68.312 272.71 83.5175 289.525 105.529 292.449C146.773 297.928 164.423 297.085 204.991 320.028C206.424 320.839 207.988 318.993 206.613 318.047C199.338 313.057 191.654 308.691 183.643 304.996C192.416 303.719 212.866 300.126 225.551 295.952C231.815 306.808 254.261 339.965 262.554 350.83C220.832 373.055 121.523 378.394 65.4364 361.695C-10.9977 338.938 -8.59799 254.788 14.9868 188.723Z" fill="url(#paint1_linear_6783_8556)"/>
<path d="M164.41 109.818C163.286 116.188 160.164 128.053 157.232 133.622C150.196 146.992 136.302 146.068 131.103 139.364C130.969 139.165 130.908 138.925 130.931 138.686C130.954 138.447 131.059 138.223 131.229 138.053C131.399 137.884 131.623 137.778 131.862 137.756C132.102 137.733 132.341 137.794 132.54 137.929C139.825 143.092 147.324 142.8 152.94 135.747C157.174 130.434 161.447 116.452 162.991 109.708C163.206 108.76 164.699 108.889 164.512 109.88L164.41 109.818Z" fill="#451E11"/>
<path d="M165.416 104.436C173.571 103.773 178.79 100.229 180.29 93.8406C182.461 84.5922 172.765 83.3164 167.14 87.1792C162.644 90.2645 159.527 88.616 157.548 86.132C155.982 84.1221 153.785 82.6978 151.311 82.0882C148.837 81.4786 146.23 81.7192 143.909 82.7713C140.496 84.3824 138.038 84.3224 135.41 82.2412C133.81 81.1342 131.923 80.5163 129.978 80.4628C128.033 80.4092 126.115 80.9223 124.457 81.9396C123.546 82.5022 122.784 83.2769 122.238 84.1976C121.691 85.1183 121.375 86.1576 121.318 87.2268C121.26 88.2959 121.462 89.3632 121.906 90.3375C122.35 91.3117 123.023 92.164 123.868 92.8215C126.89 95.0933 130.252 96.8719 133.831 98.0911C132.266 101.276 130.758 104.307 127.615 106.302C127.254 105.529 126.699 104.863 126.005 104.368C125.311 103.872 124.501 103.564 123.653 103.473C123.232 101.375 123.271 99.21 123.767 97.1282C123.882 95.8357 122.332 95.7645 121.93 96.8547C121.34 99.1509 121.272 101.55 121.729 103.876C117.823 105.936 118.513 113.926 122.016 117.716C119.59 123.3 118.494 133.923 117.968 140.113C117.735 142.825 124.929 149.376 129.625 151.081C135.897 153.355 142.884 152.512 145.417 147.765C145.962 146.744 144.471 145.999 143.853 146.947C140.106 152.686 126.229 151.068 120.322 140.356C120.89 132.859 122.076 125.421 123.868 118.118C124.355 116.927 124.43 117.069 123.05 115.003C120.092 110.565 121.283 105.228 123.638 105.384C126.51 105.571 126.279 109.792 128.089 108.743C131.671 106.331 134.348 102.795 135.698 98.6924C146.221 102.433 159.616 104.908 165.416 104.436Z" fill="#451E11"/>
<path d="M151.016 125.197C151.118 123.172 151.174 121.133 151.333 119.108C151.354 118.949 151.432 118.803 151.553 118.697C151.673 118.592 151.828 118.533 151.989 118.533C152.149 118.533 152.304 118.592 152.425 118.697C152.545 118.803 152.623 118.949 152.644 119.108C152.802 121.555 152.739 124.011 152.457 126.446C152.242 127.57 148.87 127.186 147.993 126.662C147.895 126.601 147.81 126.521 147.743 126.427C147.676 126.333 147.629 126.227 147.603 126.114C147.578 126.002 147.575 125.886 147.596 125.772C147.616 125.658 147.659 125.55 147.721 125.453C148.124 124.809 148.622 125.154 151.016 125.197Z" fill="#451E11"/>
<path d="M143.321 131.625C137.866 131.123 136.663 125.555 137.493 124.662C137.825 124.304 139.083 123.858 139.245 125.797C139.482 128.669 141.095 129.529 143.553 130.463C143.978 130.463 144.171 131.604 143.321 131.625Z" fill="#451E11"/>
<path d="M160.52 113.367C160.851 114.559 160.083 115.216 159.285 113.841C158.792 112.974 158.017 112.3 157.09 111.931C155.567 111.243 156.471 110.009 157.607 110.366C158.913 110.96 159.94 112.033 160.476 113.364L160.52 113.367Z" fill="#451E11"/>
<path d="M142.36 108.052C144.359 107.155 148.502 106.904 147.858 108.856C147.526 109.861 146.322 109.298 145.217 109.373C144.011 109.459 142.821 109.691 141.67 110.062C140.852 110.324 139.334 109.412 142.36 108.052Z" fill="#451E11"/>
<path d="M156.717 118.847C158.307 118.365 157.26 122.625 156.027 121.619C155.323 121.044 156.112 119.03 156.717 118.847Z" fill="#451E11"/>
<path d="M143.736 117.647C144.416 115.32 146.608 116.335 144.915 119.082C144.555 119.743 143.159 119.625 143.736 117.647Z" fill="#451E11"/>
<path d="M173.657 225.977C171.596 230.141 165.04 235.122 160.731 234.692C160.494 234.639 160.286 234.495 160.155 234.29C160.024 234.086 159.979 233.837 160.031 233.599C160.3 232.361 163.457 232.359 167.278 229.553C172.014 226.074 171.913 222.193 175.232 223.81C180.577 226.413 182.57 226.543 179.64 233.86C179.545 234.08 179.372 234.257 179.154 234.356C178.936 234.455 178.689 234.469 178.461 234.395C178.233 234.322 178.04 234.166 177.921 233.958C177.802 233.75 177.764 233.505 177.816 233.272C178.326 231.673 178.541 229.994 178.449 228.319C173.307 225.651 173.738 225.79 173.657 225.977Z" fill="#451E11"/>
<path d="M187.309 204.734C188.272 204.734 188.33 206.39 187.309 206.443C181.023 206.763 180.981 205.744 177.194 209.17C175.98 210.268 173.878 212.415 172.885 210.605C172.778 210.361 172.753 210.089 172.816 209.83C172.878 209.57 173.023 209.339 173.23 209.17C179.346 205.221 177.25 204.361 187.227 204.691L187.309 204.734Z" fill="#451E11"/>
<path d="M200.029 216.504C195.681 213.281 190.464 211.44 185.056 211.222C178.2 210.871 176.892 211.827 169.766 213.82C167.893 214.341 161.685 215.731 160.476 216.59C159.727 217.122 160.261 218.2 161.038 218.314C162.912 218.589 177.149 214.251 179.314 213.202C180.536 213.992 191.346 212.486 199.012 217.868C199.202 217.994 199.435 218.042 199.659 218C199.884 217.958 200.084 217.83 200.216 217.644C200.349 217.458 200.403 217.227 200.369 217.001C200.334 216.775 200.213 216.571 200.031 216.433L200.029 216.504Z" fill="#451E11"/>
<path d="M196.168 226.183C192.704 220.598 188.99 219.564 183.462 217.108C182.559 216.376 183.087 214.769 184.224 215.048C187.093 215.701 189.788 216.965 192.124 218.754C194.461 220.543 196.384 222.815 197.762 225.415C198.294 226.447 196.751 227.131 196.168 226.183Z" fill="#451E11"/>
<path d="M189.522 233.644C189.621 234.807 191.517 234.893 191.373 233.644C190.516 226.235 187.191 222.38 179.327 218.339C178.351 217.837 177.156 219.446 178.093 220.306C180.078 222.134 188.733 224.542 189.522 233.644Z" fill="#451E11"/>
<path d="M194.774 210.948C193.742 210.691 194.259 209.153 195.192 209.039C197.584 209.191 199.955 209.581 202.269 210.202C195.192 195.845 188.255 176.275 178.479 163.859C169.447 152.385 158.809 149.29 151.889 147.374C150.913 147.102 151.531 145.574 152.479 145.737C182.008 150.828 189.958 178.767 204.65 210.729C207.033 211.291 209.429 211.894 211.829 212.581C213.022 212.922 212.647 214.777 211.428 214.477C211.239 214.481 196.998 211.502 194.774 210.948Z" fill="#451E11"/>
<path d="M99.0586 270.011C100.108 270.888 100.01 275.39 104.501 281.77C105.188 282.748 103.658 286.176 99.3171 277.19C98.8132 276.144 96.9062 271.662 97.4438 270.472C97.5072 270.324 97.6028 270.193 97.7235 270.086C97.8442 269.98 97.9871 269.902 98.1417 269.858C98.2963 269.814 98.4589 269.805 98.6175 269.831C98.7761 269.858 98.9267 269.919 99.0586 270.011Z" fill="#451E11"/>
<path d="M74.4658 164.254C61.8173 179.889 65.8486 218.237 71.2081 238.909C75.2132 254.371 80.7244 269.269 99.0303 267.164C114.176 265.421 152.367 254.665 160.047 240.992C161.265 238.823 159.693 237.107 158.395 235.393C154.062 229.67 153.569 220.805 157.908 215.451C158.768 214.387 158.47 213.016 157.204 212.982C145.214 212.608 121.236 221.021 109.826 225.159C107.878 212.851 106.878 200.412 106.833 187.951C106.833 187.09 105.381 186.944 105.283 187.85C104.44 200.594 105.259 213.393 107.719 225.925C104.461 227.144 101.2 228.373 97.9775 229.656C97.2581 229.943 97.7471 231.093 98.4645 230.921C115.234 225.264 140.286 216.133 155.576 215.127C147.824 223.857 155.446 238.66 158.777 239.362C152.26 249.843 121.206 262.334 98.4795 264.974C81.6536 266.929 76.8711 251.795 73.34 237.998C68.2821 218.229 64.9813 180.368 76.6856 165.382C86.1739 153.234 101.511 147.539 114.961 141.048C116.036 140.529 115.262 138.997 114.17 139.396C99.8245 144.65 84.0215 152.321 74.4171 164.292L74.4658 164.254Z" fill="#451E11"/>
<path d="M179.704 201.705C179.953 202.796 181.631 202.726 181.498 201.546C180.795 194.417 179.027 187.434 176.253 180.829C172.286 171.738 171.008 175.734 171.3 176.264C175.98 184.874 177.124 190.355 179.704 201.705Z" fill="#451E11"/>
<path d="M284.562 370.192C288.559 371.156 292.48 372.413 296.292 373.953C316.677 382.539 318.654 383.475 333.792 375.827C336.656 374.379 339.616 373.493 336.06 370.257C332.767 367.26 308.251 355.226 303.428 352.54C303.24 352.417 303.104 352.23 303.045 352.014C302.985 351.798 303.007 351.568 303.106 351.367C303.205 351.165 303.374 351.007 303.581 350.922C303.788 350.837 304.02 350.831 304.231 350.904C310.357 353.092 334.391 364.433 338.443 369.137C341.321 372.475 339.517 375.506 336.175 377.335C315.239 388.788 312.251 383.277 294.026 375.756C288.883 373.633 283.767 372.869 280.759 371.548C277.451 370.096 273.884 366.505 275.017 362.547C275.33 361.455 277.228 361.341 277.185 362.676C277.49 362.669 275.975 367.985 284.562 370.192Z" fill="#451E11"/>
<path d="M322.205 353.799C321.158 353.941 321.143 355.522 322.205 355.485C335.959 355.099 351.106 353.823 364.858 352.342C374.305 351.324 372.295 343.086 366.064 341.43C358.354 339.382 338.787 333.678 331.465 334.094C330.341 334.094 330.03 335.924 331.221 336.104C342.722 337.888 354.096 340.406 365.276 343.64C370.639 345.167 370.429 349.447 364.959 349.987C350.735 351.381 336.56 351.84 322.205 353.799Z" fill="#451E11"/>
<path d="M162.501 250.383C168.618 248.347 210.107 236.645 211.745 235.554C213.181 234.635 219.354 173.404 219.77 168.236C220.186 163.067 222.756 157.082 229.82 155.042C236.884 153.002 292.429 146.743 298.072 146.341C303.714 145.938 305.552 147.778 305.422 155.859C305.293 163.94 302.249 229.18 292.401 231.952C292.828 232.578 244.994 242.413 162.501 258.01C157.764 258.898 156.385 252.423 162.501 250.383Z" fill="#451E11"/>
<path d="M304.748 343.228C293.334 319.525 261.979 253.7 245.254 244.64C260.356 241.583 273.335 238.998 279.494 237.896C293.995 240.883 302.938 259.792 329.743 331.331C326.24 339.386 317.379 341.724 304.718 343.232L304.748 343.228ZM155.634 256.599C149.639 258.683 118.73 272.292 118.192 289.98C132.055 288.543 175.403 298.784 181.361 302.04C195.8 300.136 210.101 297.297 224.172 293.541C222.977 291.481 221.795 289.428 220.626 287.381C220.436 287.111 220.362 286.776 220.419 286.451C220.476 286.126 220.659 285.836 220.929 285.646C221.199 285.456 221.534 285.38 221.859 285.436C222.185 285.492 222.475 285.675 222.666 285.945C237.708 306.925 254.624 335.117 270.459 355.489C279.589 357.656 297.98 357.945 302.316 345.697C288.332 321.046 260.754 252.379 239.261 245.85C208.251 252.154 171.124 259.818 164.517 260.955C156.357 262.354 155.725 259.226 155.624 256.603L155.634 256.599Z" fill="#451E11"/>
<path d="M171.26 30.1279C171.26 24.83 165.684 20.9821 157.597 18.6956C157.82 17.6918 158.043 16.7159 158.211 15.7679C159.884 6.39896 157.123 2.66255 154.53 1.15684C151.937 -0.348881 147.308 -0.850787 140.031 5.25573C139.278 5.89705 138.553 6.56626 137.8 7.29123C137.047 6.56626 136.322 5.89705 135.569 5.25573C128.292 -0.850787 123.663 -0.348881 121.07 1.15684C118.477 2.66255 115.716 6.39896 117.389 15.7679C117.556 16.7159 117.78 17.6918 118.003 18.6956C109.916 20.9821 104.34 24.83 104.34 30.1279C104.34 35.4258 109.916 39.2738 118.003 41.5602C117.78 42.564 117.556 43.54 117.389 44.3486C115.716 53.7175 118.477 57.4539 121.07 58.9596C122.205 59.6155 123.496 59.9526 124.806 59.9355C128.738 59.9355 133.311 57.1472 137.8 52.8531C142.289 57.1751 146.862 59.9355 150.794 59.9355C152.092 59.9952 153.382 59.7064 154.53 59.099C157.123 57.5933 159.884 53.8569 158.211 44.488C158.043 43.54 157.82 42.564 157.597 41.6996C165.684 39.2738 171.26 35.4258 171.26 30.1279ZM150.794 5.75763C151.124 5.74818 151.451 5.82507 151.742 5.9807C152.885 6.64991 153.638 9.63346 152.718 14.7919C152.578 15.6563 152.383 16.5486 152.16 17.5803C150.069 17.1899 147.866 16.9111 145.635 16.688C144.325 14.8477 142.847 13.091 141.62 11.5017C142.289 10.8603 142.958 10.219 143.6 9.68923C145.524 7.65391 148.042 6.278 150.794 5.75763ZM150.152 36.5691L150.487 37.4334L149.567 37.6007C149.679 37.4398 149.782 37.2722 149.874 37.0988C149.983 36.9314 150.076 36.754 150.152 36.5691ZM145.05 34.3105C144.213 35.7325 143.377 37.0988 142.54 38.3536C141.007 38.3536 139.445 38.493 137.8 38.493C136.155 38.493 134.593 38.493 133.06 38.3536C132.223 37.071 131.387 35.7325 130.55 34.3105C129.714 32.8884 129.017 31.5221 128.32 30.1279C129.017 28.7338 129.742 27.3396 130.55 25.9454C131.359 24.5512 132.195 23.157 133.06 21.9023C134.593 21.7628 136.155 21.7628 137.8 21.7628C139.445 21.7628 141.007 21.7628 142.54 21.9023C143.405 23.2128 144.241 24.5512 145.05 25.9454C145.858 27.3396 146.583 28.7338 147.28 30.1279C146.583 31.5221 145.858 32.9163 145.05 34.3105ZM138.386 44.0697L137.8 44.739L137.214 44.0697H138.386ZM125.726 37.0988C125.818 37.2722 125.921 37.4398 126.033 37.6007L125.113 37.4334L125.448 36.5691C125.524 36.754 125.617 36.9314 125.726 37.0988ZM125.448 23.6868L125.113 22.8224L126.033 22.6551C125.921 22.8161 125.818 22.9837 125.726 23.157C125.617 23.3245 125.524 23.5018 125.448 23.6868ZM137.8 15.489L138.386 16.1861H137.214L137.8 15.489ZM149.874 23.157C149.782 22.9837 149.679 22.8161 149.567 22.6551L150.487 22.8224L150.152 23.6868C150.076 23.5018 149.983 23.3245 149.874 23.157ZM122.882 14.7919C121.962 9.63346 122.715 6.64991 123.858 5.9807C124.139 5.82485 124.457 5.74778 124.778 5.75763C127.524 6.23229 130.051 7.55903 132 9.54981C132.669 10.0796 133.311 10.7209 133.98 11.3622C132.614 12.9516 131.192 14.7083 129.965 16.5486C127.734 16.7717 125.531 17.0505 123.44 17.4409C123.217 16.5486 123.022 15.6563 122.882 14.7919ZM109.916 30.1279C109.916 28.2318 113.485 25.806 119.648 24.0493C120.345 26.029 121.181 28.0645 122.129 30.1279C121.181 32.1913 120.345 34.2268 119.648 36.2066C113.485 34.4499 109.916 32.024 109.916 30.1279ZM123.858 54.2752C122.715 53.6059 121.962 50.6224 122.882 45.4639C122.882 44.5995 123.217 43.7073 123.44 42.815C125.531 43.2054 127.706 43.4842 129.937 43.7073C131.247 45.5197 132.725 47.2764 133.98 48.8936C129.435 53.3271 125.503 55.2232 123.858 54.2752ZM152.718 45.4639C153.638 50.6224 152.885 53.6059 151.742 54.2752C150.125 55.2232 146.165 53.3271 141.62 48.8936C143.014 47.2764 144.408 45.5197 145.663 43.7073C147.894 43.4842 150.069 43.2054 152.16 42.815C152.383 43.7073 152.578 44.5995 152.718 45.4639ZM155.952 36.2066C155.255 34.2268 154.419 32.1913 153.471 30.1279C154.419 28.0645 155.255 26.029 155.952 24.0493C162.114 25.806 165.684 28.2318 165.684 30.1279C165.684 32.024 162.114 34.4499 155.952 36.2066Z" fill="#FFB381"/>
<path d="M137.8 35.7042C140.88 35.7042 143.377 33.2074 143.377 30.1275C143.377 27.0476 140.88 24.5508 137.8 24.5508C134.72 24.5508 132.223 27.0476 132.223 30.1275C132.223 33.2074 134.72 35.7042 137.8 35.7042Z" fill="#FFB381"/>
<path d="M235.621 72.5146H239.872H244.123L239.872 62.9434L235.621 72.5146Z" fill="#FFB381"/>
<path d="M266.353 51.1636L240.228 42.8036C239.996 42.7321 239.748 42.7321 239.516 42.8036L213.391 51.1161C213.133 51.2046 212.911 51.3761 212.761 51.6038C212.61 51.8315 212.539 52.1027 212.559 52.3748L216.122 86.8598C216.144 87.0552 216.214 87.2422 216.326 87.4038C216.438 87.5655 216.588 87.6968 216.763 87.7861L239.326 99.6611C239.493 99.7547 239.681 99.8039 239.872 99.8039C240.063 99.8039 240.251 99.7547 240.418 99.6611L262.981 87.7861C263.156 87.6968 263.306 87.5655 263.418 87.4038C263.53 87.2422 263.6 87.0552 263.622 86.8598L267.184 52.4223C267.204 52.1502 267.134 51.879 266.983 51.6513C266.833 51.4236 266.611 51.2521 266.353 51.1636ZM248.256 84.2236L245.429 77.8348H234.314L231.488 84.2236H225.099L239.872 50.9736L254.644 84.2236H248.256Z" fill="#FFB381"/>
<path d="M61.8021 45.1602H19.0121C17.8773 45.1602 16.7889 45.6188 15.9864 46.4351C15.184 47.2514 14.7332 48.3585 14.7332 49.5129V93.0406C14.7332 94.195 15.184 95.3022 15.9864 96.1185C16.7889 96.9348 17.8773 97.3934 19.0121 97.3934H61.8021C62.937 97.3934 64.0253 96.9348 64.8278 96.1185C65.6303 95.3022 66.0811 94.195 66.0811 93.0406V49.5129C66.0811 48.3585 65.6303 47.2514 64.8278 46.4351C64.0253 45.6188 62.937 45.1602 61.8021 45.1602ZM41.4769 84.3351C41.4769 86.3553 40.6879 88.2928 39.2836 89.7214C37.8793 91.1499 35.9746 91.9524 33.9886 91.9524C32.0026 91.9524 30.098 91.1499 28.6936 89.7214C27.2893 88.2928 26.5004 86.3553 26.5004 84.3351H31.8491C31.8491 84.9123 32.0745 85.4659 32.4758 85.874C32.877 86.2822 33.4212 86.5115 33.9886 86.5115C34.5561 86.5115 35.1002 86.2822 35.5015 85.874C35.9027 85.4659 36.1281 84.9123 36.1281 84.3351V66.924H41.4769V84.3351ZM53.2441 91.9524C51.7863 91.9534 50.3599 91.5214 49.1399 90.7095C47.9199 89.8977 46.9594 88.7412 46.3763 87.382C46.2334 87.0501 46.1742 86.6872 46.2041 86.3262C46.234 85.9651 46.352 85.6174 46.5475 85.3145C46.7433 85.012 47.0102 84.764 47.324 84.593C47.6378 84.422 47.9886 84.3333 48.3447 84.3351H49.5428C49.9161 84.3374 50.2824 84.439 50.6052 84.6299C50.928 84.8208 51.1961 85.0943 51.3827 85.4233C51.6163 85.8425 51.98 86.1711 52.4169 86.3574C52.8538 86.5438 53.3391 86.5773 53.7968 86.4528C54.2545 86.3284 54.6586 86.0529 54.9457 85.6696C55.2329 85.2864 55.3869 84.817 55.3836 84.3351C55.3836 83.7257 55.3836 83.0293 52.3883 82.0281C50.42 81.3534 45.7559 79.8517 45.7559 74.5414C45.7534 72.7894 46.3447 71.0901 47.4301 69.7298C48.5155 68.3695 50.0287 67.4314 51.7147 67.0736C53.4006 66.7157 55.1563 66.96 56.6859 67.7653C58.2155 68.5706 59.4255 69.8876 60.1119 71.4944C60.2743 71.8404 60.3441 72.2238 60.314 72.606C60.284 72.9882 60.1552 73.3555 59.9407 73.6708C59.7449 73.9733 59.478 74.2212 59.1642 74.3923C58.8504 74.5633 58.4996 74.6519 58.1436 74.6502H56.9454C56.5721 74.6479 56.2058 74.5462 55.883 74.3553C55.5602 74.1644 55.2921 73.8909 55.1055 73.562C54.8719 73.1427 54.5082 72.8142 54.0713 72.6278C53.6344 72.4415 53.1491 72.408 52.6914 72.5324C52.2337 72.6569 51.8297 72.9324 51.5425 73.3156C51.2553 73.6989 51.1013 74.1683 51.1046 74.6502C51.1046 75.2596 51.1046 75.956 54.0999 76.9571C56.0682 77.6318 60.7323 79.1335 60.7323 84.4439C60.7042 86.4452 59.9029 88.3549 58.5016 89.76C57.1003 91.1651 55.2117 91.9526 53.2441 91.9524Z" fill="#FFB381"/>
<defs>
<linearGradient id="paint0_linear_6783_8556" x1="184.842" y1="120.771" x2="184.842" y2="209.44" gradientUnits="userSpaceOnUse">
<stop stop-color="#FFB171"/>
<stop offset="1" stop-color="#BD8AFC"/>
</linearGradient>
<linearGradient id="paint1_linear_6783_8556" x1="131.491" y1="112.779" x2="131.491" y2="371.486" gradientUnits="userSpaceOnUse">
<stop stop-color="#FFB171"/>
<stop offset="1" stop-color="#BD8AFC"/>
</linearGradient>
</defs>
</svg>
