<svg width="253" height="184" viewBox="0 0 253 184" fill="none" xmlns="http://www.w3.org/2000/svg">
<path opacity="0.05" d="M145.73 69.8066L252.147 77.278L237.072 105.528L108.146 113L145.708 69.8294L145.73 69.8066Z" fill="#191919"/>
<g clip-path="url(#clip0_6803_7437)">
<path d="M62.626 85.9551L108.146 113V56.4555L62.626 29.4551V85.9551Z" fill="#F7EDEF"/>
<path d="M108.146 112.999L196.626 84.7271V28.1602L108.146 56.4548V112.999Z" fill="#E2D7DA"/>
<path d="M108.146 56.4552L196.626 28.1606L151.106 1.16016L62.626 29.4548L108.146 56.4552Z" fill="white"/>
<path d="M176.726 20.3945H150.883V28.1822H176.726V20.3945Z" fill="#E2D7DA"/>
<path d="M150.883 28.1815C150.883 31.3947 156.671 34.0055 163.794 34.0055C170.917 34.0055 176.704 31.3947 176.704 28.1815C176.704 24.9682 170.917 22.3574 163.794 22.3574C156.671 22.3574 150.883 24.9682 150.883 28.1815Z" fill="#E2D7DA"/>
<path d="M150.883 20.3944C150.883 23.6076 156.671 26.2184 163.794 26.2184C170.917 26.2184 176.704 23.6076 176.704 20.3944C176.704 17.1811 170.917 14.5703 163.794 14.5703C156.671 14.5703 150.883 17.1811 150.883 20.3944Z" fill="white"/>
<path d="M153.488 5.82422H127.645V13.6119H153.488V5.82422Z" fill="#E2D7DA"/>
<path d="M127.645 13.6112C127.645 16.8244 133.432 19.4352 140.555 19.4352C147.678 19.4352 153.466 16.8244 153.466 13.6112C153.466 10.3979 147.678 7.78711 140.555 7.78711C133.432 7.78711 127.645 10.3979 127.645 13.6112Z" fill="#E2D7DA"/>
<path d="M127.645 5.82405C127.645 9.03732 133.432 11.6481 140.555 11.6481C147.678 11.6481 153.466 9.03732 153.466 5.82405C153.466 2.61078 147.678 0 140.555 0C133.432 0 127.645 2.61078 127.645 5.82405Z" fill="white"/>
<path d="M129.492 35.8594H103.649V43.6471H129.492V35.8594Z" fill="#E2D7DA"/>
<path d="M103.649 43.6463C103.649 46.8596 109.437 49.4704 116.56 49.4704C123.683 49.4704 129.47 46.8596 129.47 43.6463C129.47 40.433 123.683 37.8223 116.56 37.8223C109.437 37.8223 103.649 40.433 103.649 43.6463Z" fill="#E2D7DA"/>
<path d="M103.649 35.8592C103.649 39.0725 109.437 41.6833 116.56 41.6833C123.683 41.6833 129.47 39.0725 129.47 35.8592C129.47 32.6459 123.683 30.0352 116.56 30.0352C109.437 30.0352 103.649 32.6459 103.649 35.8592Z" fill="white"/>
<path d="M107.1 22.3145H81.2568V30.1022H107.1V22.3145Z" fill="#E2D7DA"/>
<path d="M81.2568 30.1014C81.2568 33.3147 87.0442 35.9254 94.1671 35.9254C101.29 35.9254 107.077 33.3147 107.077 30.1014C107.077 26.8881 101.29 24.2773 94.1671 24.2773C87.0442 24.2773 81.2568 26.8881 81.2568 30.1014Z" fill="#E2D7DA"/>
<path d="M81.2568 22.3143C81.2568 25.5276 87.0442 28.1383 94.1671 28.1383C101.29 28.1383 107.077 25.5276 107.077 22.3143C107.077 19.101 101.29 16.4902 94.1671 16.4902C87.0442 16.4902 81.2568 19.101 81.2568 22.3143Z" fill="white"/>
<g opacity="0.6" clip-path="url(#clip1_6803_7437)">
<path d="M128.626 79.4911V77.6311L136.887 70.5781V72.4699L130.528 77.859V78.0021L136.882 79.1308V81.0384L128.626 79.4911Z" fill="#451E11"/>
<path d="M151.56 78.7848L157.972 60.6992L159.811 60.0898L153.409 78.1702L151.565 78.7901L151.56 78.7848Z" fill="#451E11"/>
<path d="M174.33 66.6238L180.556 61.3089V61.1658L174.33 60.0265V58.1348L182.416 59.7033V61.5367L174.33 68.4997V66.6238Z" fill="#451E11"/>
</g>
</g>
<g clip-path="url(#clip2_6803_7437)">
<path opacity="0.05" d="M88.5491 183.236L187.729 168.748L172.622 151.452L56.3442 139.928L88.5491 183.236Z" fill="#191919"/>
<path d="M133.782 156.428L88.5488 183.236V127.187L133.782 100.424V156.428Z" fill="#E2D7DA"/>
<path d="M88.5489 183.236L0.626953 155.212V99.1406L88.5489 127.187V183.236Z" fill="#F7EDEF"/>
<path d="M88.5489 127.187L0.626953 99.1406L45.8598 72.377L133.782 100.424L88.5489 127.187Z" fill="white"/>
<path d="M46.0807 91.4434H20.4009V99.1628H46.0807V91.4434Z" fill="#E2D7DA"/>
<path d="M46.0806 99.1617C46.0806 102.347 40.3297 104.935 33.2517 104.935C26.1737 104.935 20.4229 102.347 20.4229 99.1617C20.4229 95.9766 26.1737 93.3887 33.2517 93.3887C40.3297 93.3887 46.0806 95.9766 46.0806 99.1617Z" fill="#E2D7DA"/>
<path d="M46.0806 91.4429C46.0806 94.628 40.3297 97.2159 33.2517 97.2159C26.1737 97.2159 20.4229 94.628 20.4229 91.4429C20.4229 88.2578 26.1737 85.6699 33.2517 85.6699C40.3297 85.6699 46.0806 88.2578 46.0806 91.4429Z" fill="white"/>
<path d="M69.195 77H43.5151V84.7194H69.195V77Z" fill="#E2D7DA"/>
<path d="M69.1729 84.7183C69.1729 87.9034 63.422 90.4913 56.344 90.4913C49.266 90.4913 43.5151 87.9034 43.5151 84.7183C43.5151 81.5332 49.266 78.9453 56.344 78.9453C63.422 78.9453 69.1729 81.5332 69.1729 84.7183Z" fill="#E2D7DA"/>
<path d="M69.1729 76.9996C69.1729 80.1846 63.422 82.7725 56.344 82.7725C49.266 82.7725 43.5151 80.1846 43.5151 76.9996C43.5151 73.8145 49.266 71.2266 56.344 71.2266C63.422 71.2266 69.1729 73.8145 69.1729 76.9996Z" fill="white"/>
<path d="M93.0168 106.771H67.3369V114.491H93.0168V106.771Z" fill="#E2D7DA"/>
<path d="M93.0166 114.49C93.0166 117.675 87.2657 120.263 80.1878 120.263C73.1098 120.263 67.3589 117.675 67.3589 114.49C67.3589 111.305 73.1098 108.717 80.1878 108.717C87.2657 108.717 93.0166 111.305 93.0166 114.49Z" fill="#E2D7DA"/>
<path d="M93.0166 106.771C93.0166 109.956 87.2657 112.544 80.1878 112.544C73.1098 112.544 67.3589 109.956 67.3589 106.771C67.3589 103.586 73.1098 100.998 80.1878 100.998C87.2657 100.998 93.0166 103.586 93.0166 106.771Z" fill="white"/>
<path d="M115.268 93.3457H89.5884V101.065H115.268V93.3457Z" fill="#E2D7DA"/>
<path d="M115.268 101.064C115.268 104.249 109.517 106.837 102.439 106.837C95.3612 106.837 89.6104 104.249 89.6104 101.064C89.6104 97.8789 95.3612 95.291 102.439 95.291C109.517 95.291 115.268 97.8789 115.268 101.064Z" fill="#E2D7DA"/>
<path d="M115.268 93.3453C115.268 96.5304 109.517 99.1182 102.439 99.1182C95.3612 99.1182 89.6104 96.5304 89.6104 93.3453C89.6104 90.1602 95.3612 87.5723 102.439 87.5723C109.517 87.5723 115.268 90.1602 115.268 93.3453Z" fill="white"/>
</g>
<defs>
<clipPath id="clip0_6803_7437">
<rect width="134" height="113" fill="white" transform="translate(62.626)"/>
</clipPath>
<clipPath id="clip1_6803_7437">
<rect width="53.7906" height="22.8971" fill="white" transform="translate(128.626 58.1328)"/>
</clipPath>
<clipPath id="clip2_6803_7437">
<rect width="187.102" height="112.009" fill="white" transform="translate(0.626953 71.2266)"/>
</clipPath>
</defs>
</svg>
