<svg width="561" height="399" viewBox="0 0 561 399" fill="none" xmlns="http://www.w3.org/2000/svg">
<path opacity="0.05" d="M350.038 180.418L456.454 187.889L441.38 216.14L312.453 223.611L350.016 180.441L350.038 180.418Z" fill="#191919"/>
<g clip-path="url(#clip0_6783_8092)">
<path d="M266.933 196.566L312.453 223.611V167.067L266.933 140.066V196.566Z" fill="#F7EDEF"/>
<path d="M312.453 223.611L400.933 195.338V138.771L312.453 167.066V223.611Z" fill="#E2D7DA"/>
<path d="M312.453 167.067L400.933 138.772L355.413 111.771L266.933 140.066L312.453 167.067Z" fill="white"/>
<path d="M381.033 131.006H355.19V138.794H381.033V131.006Z" fill="#E2D7DA"/>
<path d="M355.19 138.793C355.19 142.006 360.978 144.617 368.101 144.617C375.224 144.617 381.011 142.006 381.011 138.793C381.011 135.58 375.224 132.969 368.101 132.969C360.978 132.969 355.19 135.58 355.19 138.793Z" fill="#E2D7DA"/>
<path d="M355.19 131.006C355.19 134.219 360.978 136.83 368.101 136.83C375.224 136.83 381.011 134.219 381.011 131.006C381.011 127.792 375.224 125.182 368.101 125.182C360.978 125.182 355.19 127.792 355.19 131.006Z" fill="white"/>
<path d="M357.795 116.436H331.952V124.223H357.795V116.436Z" fill="#E2D7DA"/>
<path d="M331.952 124.222C331.952 127.436 337.74 130.047 344.862 130.047C351.985 130.047 357.773 127.436 357.773 124.222C357.773 121.009 351.985 118.398 344.862 118.398C337.74 118.398 331.952 121.009 331.952 124.222Z" fill="#E2D7DA"/>
<path d="M331.952 116.435C331.952 119.649 337.74 122.259 344.862 122.259C351.985 122.259 357.773 119.649 357.773 116.435C357.773 113.222 351.985 110.611 344.862 110.611C337.74 110.611 331.952 113.222 331.952 116.435Z" fill="white"/>
<path d="M333.799 146.471H307.957V154.258H333.799V146.471Z" fill="#E2D7DA"/>
<path d="M307.957 154.258C307.957 157.471 313.744 160.082 320.867 160.082C327.99 160.082 333.777 157.471 333.777 154.258C333.777 151.044 327.99 148.434 320.867 148.434C313.744 148.434 307.957 151.044 307.957 154.258Z" fill="#E2D7DA"/>
<path d="M307.957 146.471C307.957 149.684 313.744 152.295 320.867 152.295C327.99 152.295 333.777 149.684 333.777 146.471C333.777 143.257 327.99 140.646 320.867 140.646C313.744 140.646 307.957 143.257 307.957 146.471Z" fill="white"/>
<path d="M311.407 132.926H285.564V140.713H311.407V132.926Z" fill="#E2D7DA"/>
<path d="M285.564 140.713C285.564 143.926 291.351 146.537 298.474 146.537C305.597 146.537 311.385 143.926 311.385 140.713C311.385 137.499 305.597 134.889 298.474 134.889C291.351 134.889 285.564 137.499 285.564 140.713Z" fill="#E2D7DA"/>
<path d="M285.564 132.926C285.564 136.139 291.351 138.75 298.474 138.75C305.597 138.75 311.385 136.139 311.385 132.926C311.385 129.712 305.597 127.102 298.474 127.102C291.351 127.102 285.564 129.712 285.564 132.926Z" fill="white"/>
</g>
<path opacity="0.05" fill-rule="evenodd" clip-rule="evenodd" d="M560.648 281.712L454.232 274.24L454.209 274.263L425.89 306.81L362.888 302.387L362.865 302.409L325.303 345.58L454.229 338.108L454.284 338.006L545.573 309.962L560.648 281.712Z" fill="#191919"/>
<path opacity="0.05" fill-rule="evenodd" clip-rule="evenodd" d="M377.312 244.135L199.339 236.664L199.302 236.687L151.364 269.63L82.7222 264.811L82.6998 264.833L45.1372 308.004L174.064 300.532L174.692 299.355L176.368 300.21H276.569L352.102 272.386L377.312 244.135Z" fill="#191919"/>
<g clip-path="url(#clip1_6783_8092)">
<path d="M369.381 289.73L414.901 316.775V260.231L369.381 233.23V289.73Z" fill="#F7EDEF"/>
<path d="M414.901 316.775L503.381 288.502V231.936L414.901 260.23V316.775Z" fill="#E2D7DA"/>
<path d="M414.901 260.231L503.381 231.936L457.861 204.936L369.381 233.23L414.901 260.231Z" fill="white"/>
<path d="M483.481 224.17H457.638V231.958H483.481V224.17Z" fill="#E2D7DA"/>
<path d="M457.638 231.957C457.638 235.17 463.426 237.781 470.548 237.781C477.671 237.781 483.459 235.17 483.459 231.957C483.459 228.744 477.671 226.133 470.548 226.133C463.426 226.133 457.638 228.744 457.638 231.957Z" fill="#E2D7DA"/>
<path d="M457.638 224.17C457.638 227.383 463.426 229.994 470.548 229.994C477.671 229.994 483.459 227.383 483.459 224.17C483.459 220.956 477.671 218.346 470.548 218.346C463.426 218.346 457.638 220.956 457.638 224.17Z" fill="white"/>
<path d="M460.243 209.6H434.4V217.387H460.243V209.6Z" fill="#E2D7DA"/>
<path d="M434.4 217.387C434.4 220.6 440.187 223.211 447.31 223.211C454.433 223.211 460.221 220.6 460.221 217.387C460.221 214.173 454.433 211.562 447.31 211.562C440.187 211.562 434.4 214.173 434.4 217.387Z" fill="#E2D7DA"/>
<path d="M434.4 209.599C434.4 212.813 440.187 215.423 447.31 215.423C454.433 215.423 460.221 212.813 460.221 209.599C460.221 206.386 454.433 203.775 447.31 203.775C440.187 203.775 434.4 206.386 434.4 209.599Z" fill="white"/>
<path d="M436.247 239.635H410.404V247.422H436.247V239.635Z" fill="#E2D7DA"/>
<path d="M410.404 247.422C410.404 250.635 416.192 253.246 423.315 253.246C430.438 253.246 436.225 250.635 436.225 247.422C436.225 244.208 430.438 241.598 423.315 241.598C416.192 241.598 410.404 244.208 410.404 247.422Z" fill="#E2D7DA"/>
<path d="M410.404 239.635C410.404 242.848 416.192 245.459 423.315 245.459C430.438 245.459 436.225 242.848 436.225 239.635C436.225 236.421 430.438 233.811 423.315 233.811C416.192 233.811 410.404 236.421 410.404 239.635Z" fill="white"/>
<path d="M413.855 226.09H388.012V233.878H413.855V226.09Z" fill="#E2D7DA"/>
<path d="M388.012 233.877C388.012 237.09 393.799 239.701 400.922 239.701C408.045 239.701 413.832 237.09 413.832 233.877C413.832 230.664 408.045 228.053 400.922 228.053C393.799 228.053 388.012 230.664 388.012 233.877Z" fill="#E2D7DA"/>
<path d="M388.012 226.09C388.012 229.303 393.799 231.914 400.922 231.914C408.045 231.914 413.832 229.303 413.832 226.09C413.832 222.876 408.045 220.266 400.922 220.266C393.799 220.266 388.012 222.876 388.012 226.09Z" fill="white"/>
</g>
<g clip-path="url(#clip2_6783_8092)">
<path d="M88.9209 254.34L134.441 281.385V224.84L88.9209 197.84V254.34Z" fill="#F7EDEF"/>
<path d="M134.441 281.384L222.921 253.112V196.545L134.441 224.84V281.384Z" fill="#E2D7DA"/>
<path d="M134.441 224.84L222.921 196.545L177.401 169.545L88.9209 197.84L134.441 224.84Z" fill="white"/>
<path d="M203.021 188.779H177.178V196.567H203.021V188.779Z" fill="#E2D7DA"/>
<path d="M177.178 196.566C177.178 199.78 182.966 202.39 190.089 202.39C197.211 202.39 202.999 199.78 202.999 196.566C202.999 193.353 197.211 190.742 190.089 190.742C182.966 190.742 177.178 193.353 177.178 196.566Z" fill="#E2D7DA"/>
<path d="M177.178 188.779C177.178 191.992 182.966 194.603 190.089 194.603C197.211 194.603 202.999 191.992 202.999 188.779C202.999 185.566 197.211 182.955 190.089 182.955C182.966 182.955 177.178 185.566 177.178 188.779Z" fill="white"/>
<path d="M179.783 174.209H153.94V181.997H179.783V174.209Z" fill="#E2D7DA"/>
<path d="M153.94 181.996C153.94 185.209 159.727 187.82 166.85 187.82C173.973 187.82 179.761 185.209 179.761 181.996C179.761 178.783 173.973 176.172 166.85 176.172C159.727 176.172 153.94 178.783 153.94 181.996Z" fill="#E2D7DA"/>
<path d="M153.94 174.209C153.94 177.422 159.727 180.033 166.85 180.033C173.973 180.033 179.761 177.422 179.761 174.209C179.761 170.996 173.973 168.385 166.85 168.385C159.727 168.385 153.94 170.996 153.94 174.209Z" fill="white"/>
<path d="M155.787 204.244H129.944V212.032H155.787V204.244Z" fill="#E2D7DA"/>
<path d="M129.944 212.031C129.944 215.244 135.732 217.855 142.855 217.855C149.978 217.855 155.765 215.244 155.765 212.031C155.765 208.818 149.978 206.207 142.855 206.207C135.732 206.207 129.944 208.818 129.944 212.031Z" fill="#E2D7DA"/>
<path d="M129.944 204.244C129.944 207.457 135.732 210.068 142.855 210.068C149.978 210.068 155.765 207.457 155.765 204.244C155.765 201.031 149.978 198.42 142.855 198.42C135.732 198.42 129.944 201.031 129.944 204.244Z" fill="white"/>
<path d="M133.395 190.699H107.552V198.487H133.395V190.699Z" fill="#E2D7DA"/>
<path d="M107.552 198.486C107.552 201.699 113.339 204.31 120.462 204.31C127.585 204.31 133.372 201.699 133.372 198.486C133.372 195.273 127.585 192.662 120.462 192.662C113.339 192.662 107.552 195.273 107.552 198.486Z" fill="#E2D7DA"/>
<path d="M107.552 190.699C107.552 193.912 113.339 196.523 120.462 196.523C127.585 196.523 133.372 193.912 133.372 190.699C133.372 187.486 127.585 184.875 120.462 184.875C113.339 184.875 107.552 187.486 107.552 190.699Z" fill="white"/>
</g>
<g clip-path="url(#clip3_6783_8092)">
<path d="M89.3662 198.449L134.886 225.494V168.95L89.3662 141.949V198.449Z" fill="#F7EDEF"/>
<g filter="url(#filter0_ii_6783_8092)">
<path d="M134.886 225.494L223.366 197.221V140.654L134.886 168.949V225.494Z" fill="#E2D7DA"/>
</g>
<path d="M134.886 168.949L223.366 140.655L177.846 113.654L89.3662 141.949L134.886 168.949Z" fill="white"/>
<path d="M203.466 132.889H177.624V140.676H203.466V132.889Z" fill="#E2D7DA"/>
<path d="M177.624 140.676C177.624 143.889 183.411 146.5 190.534 146.5C197.657 146.5 203.444 143.889 203.444 140.676C203.444 137.462 197.657 134.852 190.534 134.852C183.411 134.852 177.624 137.462 177.624 140.676Z" fill="#E2D7DA"/>
<path d="M177.624 132.889C177.624 136.102 183.411 138.713 190.534 138.713C197.657 138.713 203.444 136.102 203.444 132.889C203.444 129.675 197.657 127.064 190.534 127.064C183.411 127.064 177.624 129.675 177.624 132.889Z" fill="white"/>
<path d="M180.228 118.318H154.385V126.106H180.228V118.318Z" fill="#E2D7DA"/>
<path d="M154.385 126.105C154.385 129.319 160.173 131.929 167.296 131.929C174.418 131.929 180.206 129.319 180.206 126.105C180.206 122.892 174.418 120.281 167.296 120.281C160.173 120.281 154.385 122.892 154.385 126.105Z" fill="#E2D7DA"/>
<path d="M154.385 118.318C154.385 121.531 160.173 124.142 167.296 124.142C174.418 124.142 180.206 121.531 180.206 118.318C180.206 115.105 174.418 112.494 167.296 112.494C160.173 112.494 154.385 115.105 154.385 118.318Z" fill="white"/>
<path d="M156.233 148.354H130.39V156.141H156.233V148.354Z" fill="#E2D7DA"/>
<path d="M130.39 156.14C130.39 159.354 136.177 161.965 143.3 161.965C150.423 161.965 156.21 159.354 156.21 156.14C156.21 152.927 150.423 150.316 143.3 150.316C136.177 150.316 130.39 152.927 130.39 156.14Z" fill="#E2D7DA"/>
<path d="M130.39 148.353C130.39 151.567 136.177 154.177 143.3 154.177C150.423 154.177 156.21 151.567 156.21 148.353C156.21 145.14 150.423 142.529 143.3 142.529C136.177 142.529 130.39 145.14 130.39 148.353Z" fill="white"/>
<path d="M133.84 134.809H107.997V142.596H133.84V134.809Z" fill="#E2D7DA"/>
<path d="M107.997 142.596C107.997 145.809 113.784 148.42 120.907 148.42C128.03 148.42 133.818 145.809 133.818 142.596C133.818 139.382 128.03 136.771 120.907 136.771C113.784 136.771 107.997 139.382 107.997 142.596Z" fill="#E2D7DA"/>
<path d="M107.997 134.808C107.997 138.022 113.784 140.632 120.907 140.632C128.03 140.632 133.818 138.022 133.818 134.808C133.818 131.595 128.03 128.984 120.907 128.984C113.784 128.984 107.997 131.595 107.997 134.808Z" fill="white"/>
</g>
<g clip-path="url(#clip4_6783_8092)">
<path d="M89.0532 142.666L134.573 169.711V113.166L89.0532 86.166V142.666Z" fill="#F7EDEF"/>
<g filter="url(#filter1_i_6783_8092)">
<path d="M134.573 169.71L223.053 141.438V84.8711L134.573 113.166V169.71Z" fill="#E2D7DA"/>
</g>
<path d="M134.573 113.166L223.053 84.8715L177.533 57.8711L89.0532 86.1657L134.573 113.166Z" fill="white"/>
<path d="M203.153 77.1055H177.311V84.8932H203.153V77.1055Z" fill="#E2D7DA"/>
<path d="M177.311 84.8924C177.311 88.1057 183.098 90.7165 190.221 90.7165C197.344 90.7165 203.131 88.1057 203.131 84.8924C203.131 81.6791 197.344 79.0684 190.221 79.0684C183.098 79.0684 177.311 81.6791 177.311 84.8924Z" fill="#E2D7DA"/>
<path d="M177.311 77.1053C177.311 80.3186 183.098 82.9294 190.221 82.9294C197.344 82.9294 203.131 80.3186 203.131 77.1053C203.131 73.892 197.344 71.2812 190.221 71.2812C183.098 71.2812 177.311 73.892 177.311 77.1053Z" fill="white"/>
<path d="M179.915 62.5352H154.072V70.3229H179.915V62.5352Z" fill="#E2D7DA"/>
<path d="M154.072 70.3221C154.072 73.5354 159.86 76.1462 166.983 76.1462C174.105 76.1462 179.893 73.5354 179.893 70.3221C179.893 67.1088 174.105 64.498 166.983 64.498C159.86 64.498 154.072 67.1088 154.072 70.3221Z" fill="#E2D7DA"/>
<path d="M154.072 62.535C154.072 65.7483 159.86 68.359 166.983 68.359C174.105 68.359 179.893 65.7483 179.893 62.535C179.893 59.3217 174.105 56.7109 166.983 56.7109C159.86 56.7109 154.072 59.3217 154.072 62.535Z" fill="white"/>
<path d="M155.92 92.5703H130.077V100.358H155.92V92.5703Z" fill="#E2D7DA"/>
<path d="M130.077 100.357C130.077 103.571 135.864 106.181 142.987 106.181C150.11 106.181 155.897 103.571 155.897 100.357C155.897 97.144 150.11 94.5332 142.987 94.5332C135.864 94.5332 130.077 97.144 130.077 100.357Z" fill="#E2D7DA"/>
<path d="M130.077 92.5701C130.077 95.7834 135.864 98.3942 142.987 98.3942C150.11 98.3942 155.897 95.7834 155.897 92.5701C155.897 89.3569 150.11 86.7461 142.987 86.7461C135.864 86.7461 130.077 89.3569 130.077 92.5701Z" fill="white"/>
<path d="M133.527 79.0254H107.684V86.8131H133.527V79.0254Z" fill="#E2D7DA"/>
<path d="M107.684 86.8123C107.684 90.0256 113.471 92.6364 120.594 92.6364C127.717 92.6364 133.505 90.0256 133.505 86.8123C133.505 83.5991 127.717 80.9883 120.594 80.9883C113.471 80.9883 107.684 83.5991 107.684 86.8123Z" fill="#E2D7DA"/>
<path d="M107.684 79.0252C107.684 82.2385 113.471 84.8493 120.594 84.8493C127.717 84.8493 133.505 82.2385 133.505 79.0252C133.505 75.812 127.717 73.2012 120.594 73.2012C113.471 73.2012 107.684 75.812 107.684 79.0252Z" fill="white"/>
</g>
<g clip-path="url(#clip5_6783_8092)">
<path d="M89.2153 85.9551L134.735 113V56.4555L89.2153 29.4551V85.9551Z" fill="#AA79CD"/>
<g filter="url(#filter2_i_6783_8092)">
<path d="M134.735 112.999L223.215 84.7271V28.1602L134.735 56.4548V112.999Z" fill="#9163B1"/>
</g>
<path d="M134.735 56.4552L223.215 28.1606L177.695 1.16016L89.2153 29.4548L134.735 56.4552Z" fill="#C690EC"/>
<path d="M203.316 20.3945H177.473V28.1822H203.316V20.3945Z" fill="#9163B1"/>
<path d="M177.473 28.1815C177.473 31.3947 183.26 34.0055 190.383 34.0055C197.506 34.0055 203.293 31.3947 203.293 28.1815C203.293 24.9682 197.506 22.3574 190.383 22.3574C183.26 22.3574 177.473 24.9682 177.473 28.1815Z" fill="#9163B1"/>
<path d="M177.473 20.3944C177.473 23.6076 183.26 26.2184 190.383 26.2184C197.506 26.2184 203.293 23.6076 203.293 20.3944C203.293 17.1811 197.506 14.5703 190.383 14.5703C183.26 14.5703 177.473 17.1811 177.473 20.3944Z" fill="#C690EC"/>
<path d="M180.077 5.82422H154.234V13.6119H180.077V5.82422Z" fill="#9163B1"/>
<path d="M154.234 13.6112C154.234 16.8244 160.022 19.4352 167.145 19.4352C174.268 19.4352 180.055 16.8244 180.055 13.6112C180.055 10.3979 174.268 7.78711 167.145 7.78711C160.022 7.78711 154.234 10.3979 154.234 13.6112Z" fill="#9163B1"/>
<path d="M154.234 5.82405C154.234 9.03732 160.022 11.6481 167.145 11.6481C174.268 11.6481 180.055 9.03732 180.055 5.82405C180.055 2.61078 174.268 0 167.145 0C160.022 0 154.234 2.61078 154.234 5.82405Z" fill="#C690EC"/>
<path d="M156.082 35.8594H130.239V43.6471H156.082V35.8594Z" fill="#9163B1"/>
<path d="M130.239 43.6463C130.239 46.8596 136.026 49.4704 143.149 49.4704C150.272 49.4704 156.059 46.8596 156.059 43.6463C156.059 40.433 150.272 37.8223 143.149 37.8223C136.026 37.8223 130.239 40.433 130.239 43.6463Z" fill="#9163B1"/>
<path d="M130.239 35.8592C130.239 39.0725 136.026 41.6833 143.149 41.6833C150.272 41.6833 156.059 39.0725 156.059 35.8592C156.059 32.6459 150.272 30.0352 143.149 30.0352C136.026 30.0352 130.239 32.6459 130.239 35.8592Z" fill="#C690EC"/>
<path d="M133.689 22.3145H107.846V30.1022H133.689V22.3145Z" fill="#9163B1"/>
<path d="M107.846 30.1014C107.846 33.3147 113.634 35.9254 120.756 35.9254C127.879 35.9254 133.667 33.3147 133.667 30.1014C133.667 26.8881 127.879 24.2773 120.756 24.2773C113.634 24.2773 107.846 26.8881 107.846 30.1014Z" fill="#9163B1"/>
<path d="M107.846 22.3143C107.846 25.5276 113.634 28.1383 120.756 28.1383C127.879 28.1383 133.667 25.5276 133.667 22.3143C133.667 19.101 127.879 16.4902 120.756 16.4902C113.634 16.4902 107.846 19.101 107.846 22.3143Z" fill="#C690EC"/>
<g clip-path="url(#clip6_6783_8092)">
<path d="M160.683 85.7281L158.457 86.5799V73.1564L163.691 71.1767C166.334 70.178 167.791 71.159 167.791 73.6557C167.791 75.6884 166.71 77.5212 164.772 78.561L167.991 82.9376L165.512 83.8834L162.545 79.6008L160.683 80.3117V85.7281ZM163.368 77.5624C164.772 77.0278 165.453 76.1759 165.453 74.9482V74.1257C165.453 72.8979 164.772 72.5572 163.368 73.0918L160.683 74.1081V78.5845L163.368 77.5624Z" fill="#FDFCFE"/>
<path d="M170.453 68.6209L175.264 66.7997C177.772 65.8481 179.247 66.6529 179.247 68.7971C179.247 70.348 178.389 71.5699 177.038 72.4687V72.5627C178.654 72.316 179.723 72.8623 179.723 74.7011C179.723 76.8806 178.148 79.0718 175.799 79.9647L170.453 82.0032V68.6209ZM174.806 72.7213C176.204 72.1926 176.956 71.4054 176.956 70.2011V69.5138C176.956 68.3095 176.198 68.098 174.806 68.6267L172.65 69.4433V73.5438L174.806 72.7272V72.7213ZM175.123 78.5725C176.597 78.0085 177.438 77.1156 177.438 75.8349V75.1476C177.438 73.8434 176.603 73.6084 175.123 74.1665L172.65 75.1064V79.5124L175.123 78.5725Z" fill="#FDFCFE"/>
<path d="M189.927 74.5778L188.875 71.429L184.469 73.1033L183.418 77.0569L181.15 77.9205L185.203 63.0401L188.241 61.8945L192.282 73.6849L189.927 74.5837V74.5778ZM186.754 64.6086L186.596 64.6673L184.892 71.1588L188.464 69.8018L186.76 64.6027L186.754 64.6086Z" fill="#FDFCFE"/>
<path d="M193.81 66.4402C193.81 62.0343 195.49 58.9207 198.986 57.599C201.647 56.5944 202.869 57.6166 203.497 59.1851L201.506 60.5833C201.095 59.5199 200.519 58.7856 198.962 59.3731C197.006 60.1133 196.16 61.9755 196.16 64.4194V66.6694C196.16 69.1073 197.012 70.3292 198.962 69.589C200.519 68.9957 201.095 67.8266 201.506 66.452L203.497 66.3404C202.869 68.3906 201.647 70.341 198.986 71.3514C195.49 72.685 193.81 70.8462 193.81 66.4402Z" fill="#FDFCFE"/>
</g>
</g>
<g clip-path="url(#clip7_6783_8092)">
<path d="M280.852 318.535L326.371 345.58V289.036L280.852 262.035V318.535Z" fill="#F7EDEF"/>
<path d="M326.372 345.579L414.852 317.307V260.74L326.372 289.035V345.579Z" fill="#E2D7DA"/>
<path d="M326.371 289.035L414.852 260.741L369.332 233.74L280.852 262.035L326.371 289.035Z" fill="white"/>
<path d="M394.952 252.975H369.109V260.762H394.952V252.975Z" fill="#E2D7DA"/>
<path d="M369.109 260.762C369.109 263.975 374.896 266.586 382.019 266.586C389.142 266.586 394.929 263.975 394.929 260.762C394.929 257.548 389.142 254.938 382.019 254.938C374.896 254.938 369.109 257.548 369.109 260.762Z" fill="#E2D7DA"/>
<path d="M369.109 252.974C369.109 256.188 374.896 258.798 382.019 258.798C389.142 258.798 394.929 256.188 394.929 252.974C394.929 249.761 389.142 247.15 382.019 247.15C374.896 247.15 369.109 249.761 369.109 252.974Z" fill="white"/>
<path d="M371.713 238.404H345.871V246.192H371.713V238.404Z" fill="#E2D7DA"/>
<path d="M345.871 246.191C345.871 249.405 351.658 252.015 358.781 252.015C365.904 252.015 371.691 249.405 371.691 246.191C371.691 242.978 365.904 240.367 358.781 240.367C351.658 240.367 345.871 242.978 345.871 246.191Z" fill="#E2D7DA"/>
<path d="M345.871 238.404C345.871 241.617 351.658 244.228 358.781 244.228C365.904 244.228 371.691 241.617 371.691 238.404C371.691 235.191 365.904 232.58 358.781 232.58C351.658 232.58 345.871 235.191 345.871 238.404Z" fill="white"/>
<path d="M347.718 268.439H321.875V276.227H347.718V268.439Z" fill="#E2D7DA"/>
<path d="M321.875 276.226C321.875 279.44 327.662 282.05 334.785 282.05C341.908 282.05 347.696 279.44 347.696 276.226C347.696 273.013 341.908 270.402 334.785 270.402C327.662 270.402 321.875 273.013 321.875 276.226Z" fill="#E2D7DA"/>
<path d="M321.875 268.439C321.875 271.653 327.662 274.263 334.785 274.263C341.908 274.263 347.696 271.653 347.696 268.439C347.696 265.226 341.908 262.615 334.785 262.615C327.662 262.615 321.875 265.226 321.875 268.439Z" fill="white"/>
<path d="M325.325 254.895H299.482V262.682H325.325V254.895Z" fill="#E2D7DA"/>
<path d="M299.482 262.681C299.482 265.895 305.27 268.506 312.393 268.506C319.516 268.506 325.303 265.895 325.303 262.681C325.303 259.468 319.516 256.857 312.393 256.857C305.27 256.857 299.482 259.468 299.482 262.681Z" fill="#E2D7DA"/>
<path d="M299.482 254.894C299.482 258.108 305.27 260.718 312.393 260.718C319.516 260.718 325.303 258.108 325.303 254.894C325.303 251.681 319.516 249.07 312.393 249.07C305.27 249.07 299.482 251.681 299.482 254.894Z" fill="white"/>
</g>
<g clip-path="url(#clip8_6783_8092)">
<path d="M0.663574 282.34L46.1835 309.385V252.84L0.663574 225.84V282.34Z" fill="#F7EDEF"/>
<path d="M46.1836 309.384L134.664 281.112V224.545L46.1836 252.84V309.384Z" fill="#E2D7DA"/>
<path d="M46.1835 252.84L134.664 224.545L89.1436 197.545L0.663574 225.84L46.1835 252.84Z" fill="white"/>
<path d="M114.764 216.779H88.9209V224.567H114.764V216.779Z" fill="#E2D7DA"/>
<path d="M88.9209 224.566C88.9209 227.78 94.7083 230.39 101.831 230.39C108.954 230.39 114.741 227.78 114.741 224.566C114.741 221.353 108.954 218.742 101.831 218.742C94.7083 218.742 88.9209 221.353 88.9209 224.566Z" fill="#E2D7DA"/>
<path d="M88.9209 216.779C88.9209 219.992 94.7083 222.603 101.831 222.603C108.954 222.603 114.741 219.992 114.741 216.779C114.741 213.566 108.954 210.955 101.831 210.955C94.7083 210.955 88.9209 213.566 88.9209 216.779Z" fill="white"/>
<path d="M91.5255 202.209H65.6826V209.997H91.5255V202.209Z" fill="#E2D7DA"/>
<path d="M65.6826 209.996C65.6826 213.209 71.47 215.82 78.5929 215.82C85.7158 215.82 91.5032 213.209 91.5032 209.996C91.5032 206.783 85.7158 204.172 78.5929 204.172C71.47 204.172 65.6826 206.783 65.6826 209.996Z" fill="#E2D7DA"/>
<path d="M65.6826 202.209C65.6826 205.422 71.47 208.033 78.5929 208.033C85.7158 208.033 91.5032 205.422 91.5032 202.209C91.5032 198.996 85.7158 196.385 78.5929 196.385C71.47 196.385 65.6826 198.996 65.6826 202.209Z" fill="white"/>
<path d="M67.5299 232.244H41.687V240.032H67.5299V232.244Z" fill="#E2D7DA"/>
<path d="M41.687 240.031C41.687 243.244 47.4744 245.855 54.5973 245.855C61.7202 245.855 67.5076 243.244 67.5076 240.031C67.5076 236.818 61.7202 234.207 54.5973 234.207C47.4744 234.207 41.687 236.818 41.687 240.031Z" fill="#E2D7DA"/>
<path d="M41.687 232.244C41.687 235.457 47.4744 238.068 54.5973 238.068C61.7202 238.068 67.5076 235.457 67.5076 232.244C67.5076 229.031 61.7202 226.42 54.5973 226.42C47.4744 226.42 41.687 229.031 41.687 232.244Z" fill="white"/>
<path d="M45.1373 218.699H19.2944V226.487H45.1373V218.699Z" fill="#E2D7DA"/>
<path d="M19.2944 226.486C19.2944 229.699 25.0818 232.31 32.2047 232.31C39.3277 232.31 45.115 229.699 45.115 226.486C45.115 223.273 39.3277 220.662 32.2047 220.662C25.0818 220.662 19.2944 223.273 19.2944 226.486Z" fill="#E2D7DA"/>
<path d="M19.2944 218.699C19.2944 221.912 25.0818 224.523 32.2047 224.523C39.3277 224.523 45.115 221.912 45.115 218.699C45.115 215.486 39.3277 212.875 32.2047 212.875C25.0818 212.875 19.2944 215.486 19.2944 218.699Z" fill="white"/>
</g>
<g clip-path="url(#clip9_6783_8092)">
<g filter="url(#filter3_i_6783_8092)">
<path d="M1.10889 226.449L46.6288 253.494V196.95L1.10889 169.949V226.449Z" fill="#F7EDEF"/>
</g>
<g filter="url(#filter4_i_6783_8092)">
<path d="M46.6289 253.494L135.109 225.221V168.654L46.6289 196.949V253.494Z" fill="#E2D7DA"/>
</g>
<path d="M46.6288 196.949L135.109 168.655L89.589 141.654L1.10889 169.949L46.6288 196.949Z" fill="white"/>
<path d="M115.209 160.889H89.3662V168.676H115.209V160.889Z" fill="#E2D7DA"/>
<path d="M89.3662 168.676C89.3662 171.889 95.1536 174.5 102.277 174.5C109.399 174.5 115.187 171.889 115.187 168.676C115.187 165.462 109.399 162.852 102.277 162.852C95.1536 162.852 89.3662 165.462 89.3662 168.676Z" fill="#E2D7DA"/>
<path d="M89.3662 160.889C89.3662 164.102 95.1536 166.713 102.277 166.713C109.399 166.713 115.187 164.102 115.187 160.889C115.187 157.675 109.399 155.064 102.277 155.064C95.1536 155.064 89.3662 157.675 89.3662 160.889Z" fill="white"/>
<path d="M91.9708 146.318H66.1279V154.106H91.9708V146.318Z" fill="#E2D7DA"/>
<path d="M66.1279 154.105C66.1279 157.319 71.9153 159.929 79.0382 159.929C86.1611 159.929 91.9485 157.319 91.9485 154.105C91.9485 150.892 86.1611 148.281 79.0382 148.281C71.9153 148.281 66.1279 150.892 66.1279 154.105Z" fill="#E2D7DA"/>
<path d="M66.1279 146.318C66.1279 149.531 71.9153 152.142 79.0382 152.142C86.1611 152.142 91.9485 149.531 91.9485 146.318C91.9485 143.105 86.1611 140.494 79.0382 140.494C71.9153 140.494 66.1279 143.105 66.1279 146.318Z" fill="white"/>
<path d="M67.9752 176.354H42.1323V184.141H67.9752V176.354Z" fill="#E2D7DA"/>
<path d="M42.1323 184.14C42.1323 187.354 47.9197 189.965 55.0426 189.965C62.1655 189.965 67.9529 187.354 67.9529 184.14C67.9529 180.927 62.1655 178.316 55.0426 178.316C47.9197 178.316 42.1323 180.927 42.1323 184.14Z" fill="#E2D7DA"/>
<path d="M42.1323 176.353C42.1323 179.567 47.9197 182.177 55.0426 182.177C62.1655 182.177 67.9529 179.567 67.9529 176.353C67.9529 173.14 62.1655 170.529 55.0426 170.529C47.9197 170.529 42.1323 173.14 42.1323 176.353Z" fill="white"/>
<path d="M45.5826 162.809H19.7397V170.596H45.5826V162.809Z" fill="#E2D7DA"/>
<path d="M19.7397 170.596C19.7397 173.809 25.5271 176.42 32.65 176.42C39.773 176.42 45.5603 173.809 45.5603 170.596C45.5603 167.382 39.773 164.771 32.65 164.771C25.5271 164.771 19.7397 167.382 19.7397 170.596Z" fill="#E2D7DA"/>
<path d="M19.7397 162.808C19.7397 166.022 25.5271 168.632 32.65 168.632C39.773 168.632 45.5603 166.022 45.5603 162.808C45.5603 159.595 39.773 156.984 32.65 156.984C25.5271 156.984 19.7397 159.595 19.7397 162.808Z" fill="white"/>
</g>
<g clip-path="url(#clip10_6783_8092)">
<g filter="url(#filter5_i_6783_8092)">
<path d="M0.795898 170.666L46.3158 197.711V141.166L0.795898 114.166V170.666Z" fill="#F7EDEF"/>
</g>
<g filter="url(#filter6_i_6783_8092)">
<path d="M46.3159 197.71L134.796 169.438V112.871L46.3159 141.166V197.71Z" fill="#E2D7DA"/>
</g>
<path d="M46.3158 141.166L134.796 112.871L89.276 85.8711L0.795898 114.166L46.3158 141.166Z" fill="white"/>
<path d="M114.896 105.105H89.0532V112.893H114.896V105.105Z" fill="#E2D7DA"/>
<path d="M89.0532 112.892C89.0532 116.106 94.8406 118.716 101.964 118.716C109.086 118.716 114.874 116.106 114.874 112.892C114.874 109.679 109.086 107.068 101.964 107.068C94.8406 107.068 89.0532 109.679 89.0532 112.892Z" fill="#E2D7DA"/>
<path d="M89.0532 105.105C89.0532 108.319 94.8406 110.929 101.964 110.929C109.086 110.929 114.874 108.319 114.874 105.105C114.874 101.892 109.086 99.2812 101.964 99.2812C94.8406 99.2812 89.0532 101.892 89.0532 105.105Z" fill="white"/>
<path d="M91.6578 90.5352H65.8149V98.3229H91.6578V90.5352Z" fill="#E2D7DA"/>
<path d="M65.8149 98.3221C65.8149 101.535 71.6023 104.146 78.7252 104.146C85.8482 104.146 91.6355 101.535 91.6355 98.3221C91.6355 95.1088 85.8482 92.498 78.7252 92.498C71.6023 92.498 65.8149 95.1088 65.8149 98.3221Z" fill="#E2D7DA"/>
<path d="M65.8149 90.535C65.8149 93.7483 71.6023 96.359 78.7252 96.359C85.8482 96.359 91.6355 93.7483 91.6355 90.535C91.6355 87.3217 85.8482 84.7109 78.7252 84.7109C71.6023 84.7109 65.8149 87.3217 65.8149 90.535Z" fill="white"/>
<path d="M67.6622 120.57H41.8193V128.358H67.6622V120.57Z" fill="#E2D7DA"/>
<path d="M41.8193 128.357C41.8193 131.571 47.6067 134.181 54.7296 134.181C61.8526 134.181 67.6399 131.571 67.6399 128.357C67.6399 125.144 61.8526 122.533 54.7296 122.533C47.6067 122.533 41.8193 125.144 41.8193 128.357Z" fill="#E2D7DA"/>
<path d="M41.8193 120.57C41.8193 123.783 47.6067 126.394 54.7296 126.394C61.8526 126.394 67.6399 123.783 67.6399 120.57C67.6399 117.357 61.8526 114.746 54.7296 114.746C47.6067 114.746 41.8193 117.357 41.8193 120.57Z" fill="white"/>
<path d="M45.2696 107.025H19.4268V114.813H45.2696V107.025Z" fill="#E2D7DA"/>
<path d="M19.4268 114.812C19.4268 118.026 25.2141 120.636 32.3371 120.636C39.46 120.636 45.2474 118.026 45.2474 114.812C45.2474 111.599 39.46 108.988 32.3371 108.988C25.2141 108.988 19.4268 111.599 19.4268 114.812Z" fill="#E2D7DA"/>
<path d="M19.4268 107.025C19.4268 110.238 25.2141 112.849 32.3371 112.849C39.46 112.849 45.2474 110.238 45.2474 107.025C45.2474 103.812 39.46 101.201 32.3371 101.201C25.2141 101.201 19.4268 103.812 19.4268 107.025Z" fill="white"/>
</g>
<g clip-path="url(#clip11_6783_8092)">
<path d="M369.4 233.555L414.92 260.6V204.055L369.4 177.055V233.555Z" fill="#AA79CD"/>
<g filter="url(#filter7_i_6783_8092)">
<path d="M414.92 260.599L503.4 232.327V175.76L414.92 204.054V260.599Z" fill="#9163B1"/>
</g>
<path d="M414.92 204.055L503.4 175.76L457.88 148.76L369.4 177.054L414.92 204.055Z" fill="#C690EC"/>
<path d="M483.5 167.994H457.657V175.782H483.5V167.994Z" fill="#9163B1"/>
<path d="M457.657 175.781C457.657 178.994 463.445 181.605 470.568 181.605C477.69 181.605 483.478 178.994 483.478 175.781C483.478 172.568 477.69 169.957 470.568 169.957C463.445 169.957 457.657 172.568 457.657 175.781Z" fill="#9163B1"/>
<path d="M457.657 167.994C457.657 171.207 463.445 173.818 470.568 173.818C477.69 173.818 483.478 171.207 483.478 167.994C483.478 164.781 477.69 162.17 470.568 162.17C463.445 162.17 457.657 164.781 457.657 167.994Z" fill="#C690EC"/>
<path d="M460.262 153.424H434.419V161.212H460.262V153.424Z" fill="#9163B1"/>
<path d="M434.419 161.211C434.419 164.424 440.206 167.035 447.329 167.035C454.452 167.035 460.24 164.424 460.24 161.211C460.24 157.998 454.452 155.387 447.329 155.387C440.206 155.387 434.419 157.998 434.419 161.211Z" fill="#9163B1"/>
<path d="M434.419 153.424C434.419 156.637 440.206 159.248 447.329 159.248C454.452 159.248 460.24 156.637 460.24 153.424C460.24 150.21 454.452 147.6 447.329 147.6C440.206 147.6 434.419 150.21 434.419 153.424Z" fill="#C690EC"/>
<path d="M436.266 183.459H410.423V191.247H436.266V183.459Z" fill="#9163B1"/>
<path d="M410.423 191.246C410.423 194.459 416.211 197.07 423.334 197.07C430.457 197.07 436.244 194.459 436.244 191.246C436.244 188.033 430.457 185.422 423.334 185.422C416.211 185.422 410.423 188.033 410.423 191.246Z" fill="#9163B1"/>
<path d="M410.423 183.459C410.423 186.672 416.211 189.283 423.334 189.283C430.457 189.283 436.244 186.672 436.244 183.459C436.244 180.246 430.457 177.635 423.334 177.635C416.211 177.635 410.423 180.246 410.423 183.459Z" fill="#C690EC"/>
<path d="M413.874 169.914H388.031V177.702H413.874V169.914Z" fill="#9163B1"/>
<path d="M388.031 177.701C388.031 180.914 393.818 183.525 400.941 183.525C408.064 183.525 413.851 180.914 413.851 177.701C413.851 174.488 408.064 171.877 400.941 171.877C393.818 171.877 388.031 174.488 388.031 177.701Z" fill="#9163B1"/>
<path d="M388.031 169.914C388.031 173.127 393.818 175.738 400.941 175.738C408.064 175.738 413.851 173.127 413.851 169.914C413.851 166.701 408.064 164.09 400.941 164.09C393.818 164.09 388.031 166.701 388.031 169.914Z" fill="#C690EC"/>
<path d="M438.334 233.088L436.4 233.805V221.345L440.949 219.673C443.244 218.829 444.514 219.79 444.514 222.102C444.514 223.99 443.576 225.656 441.887 226.564L444.689 230.729L442.534 231.527L439.959 227.456L438.34 228.056V233.083L438.334 233.088ZM440.67 225.592C441.887 225.143 442.481 224.374 442.481 223.233V222.464C442.481 221.322 441.887 220.99 440.67 221.438L438.334 222.295V226.448L440.67 225.586V225.592Z" fill="#FDFCFE"/>
<path d="M446.431 225.514C446.431 222.561 448.097 220.074 450.648 219.136C453.199 218.198 454.755 219.474 454.755 222.171V222.899L448.341 225.264V225.567C448.341 227.006 449.279 227.675 450.823 227.105C451.964 226.679 452.797 225.823 453.298 224.786L454.475 225.415C453.869 226.709 452.623 228.002 450.788 228.683C448.05 229.697 446.431 228.427 446.431 225.509V225.514ZM448.341 223.901V224.023L452.832 222.369V222.188C452.832 220.75 451.964 220.126 450.648 220.61C449.332 221.093 448.341 222.474 448.341 223.895V223.901Z" fill="#FDFCFE"/>
<path d="M457.224 213.696L461.383 212.17C463.556 211.372 464.832 212.164 464.832 214.151C464.832 215.584 464.092 216.69 462.921 217.477V217.564C464.319 217.384 465.245 217.931 465.245 219.632C465.245 221.653 463.882 223.628 461.849 224.379L457.224 226.092V213.696ZM460.987 217.634C462.193 217.191 462.851 216.487 462.851 215.368V214.727C462.851 213.609 462.199 213.388 460.987 213.836L459.123 214.523V218.321L460.987 217.634ZM461.261 223.069C462.537 222.597 463.259 221.799 463.259 220.611V219.97C463.259 218.764 462.537 218.519 461.261 218.985L459.123 219.778V223.861L461.261 223.069Z" fill="#FDFCFE"/>
<path d="M474.082 219.854L473.173 216.901L469.363 218.31L468.455 221.939L466.492 222.668L469.998 209.014L472.625 208.047L476.12 219.103L474.082 219.86V219.854ZM471.338 210.517L471.198 210.569L469.719 216.528L472.812 215.386L471.338 210.517Z" fill="#FDFCFE"/>
<path d="M477.443 212.438C477.443 208.355 478.899 205.524 481.922 204.411C484.229 203.567 485.283 204.551 485.831 206.025L484.107 207.26C483.746 206.264 483.256 205.565 481.905 206.06C480.216 206.683 479.476 208.384 479.476 210.644V212.729C479.476 214.989 480.21 216.148 481.905 215.525C483.256 215.024 483.751 213.958 484.107 212.7L485.831 212.665C485.283 214.541 484.229 216.312 481.922 217.162C478.893 218.28 477.443 216.521 477.443 212.444V212.438Z" fill="#FDFCFE"/>
</g>
<path opacity="0.05" d="M197.195 355.02L303.611 362.491L288.537 390.741L159.61 398.213L197.173 355.042L197.195 355.02Z" fill="#191919"/>
<g clip-path="url(#clip12_6783_8092)">
<path d="M115.209 371.168L160.729 398.213V341.668L115.209 314.668V371.168Z" fill="#AA79CD"/>
<path d="M160.729 398.212L249.21 369.94V313.373L160.729 341.668V398.212Z" fill="#9163B1"/>
<path d="M160.729 341.668L249.209 313.373L203.69 286.373L115.209 314.668L160.729 341.668Z" fill="#C690EC"/>
<path d="M229.31 305.607H203.467V313.395H229.31V305.607Z" fill="#9163B1"/>
<path d="M203.467 313.394C203.467 316.608 209.254 319.218 216.377 319.218C223.5 319.218 229.287 316.608 229.287 313.394C229.287 310.181 223.5 307.57 216.377 307.57C209.254 307.57 203.467 310.181 203.467 313.394Z" fill="#9163B1"/>
<path d="M203.467 305.607C203.467 308.821 209.254 311.431 216.377 311.431C223.5 311.431 229.287 308.821 229.287 305.607C229.287 302.394 223.5 299.783 216.377 299.783C209.254 299.783 203.467 302.394 203.467 305.607Z" fill="#C690EC"/>
<path d="M206.071 291.037H180.229V298.825H206.071V291.037Z" fill="#9163B1"/>
<path d="M180.229 298.824C180.229 302.037 186.016 304.648 193.139 304.648C200.262 304.648 206.049 302.037 206.049 298.824C206.049 295.611 200.262 293 193.139 293C186.016 293 180.229 295.611 180.229 298.824Z" fill="#9163B1"/>
<path d="M180.229 291.037C180.229 294.25 186.016 296.861 193.139 296.861C200.262 296.861 206.049 294.25 206.049 291.037C206.049 287.824 200.262 285.213 193.139 285.213C186.016 285.213 180.229 287.824 180.229 291.037Z" fill="#C690EC"/>
<path d="M182.076 321.072H156.233V328.86H182.076V321.072Z" fill="#9163B1"/>
<path d="M156.233 328.859C156.233 332.072 162.02 334.683 169.143 334.683C176.266 334.683 182.054 332.072 182.054 328.859C182.054 325.646 176.266 323.035 169.143 323.035C162.02 323.035 156.233 325.646 156.233 328.859Z" fill="#9163B1"/>
<path d="M156.233 321.072C156.233 324.285 162.02 326.896 169.143 326.896C176.266 326.896 182.054 324.285 182.054 321.072C182.054 317.859 176.266 315.248 169.143 315.248C162.02 315.248 156.233 317.859 156.233 321.072Z" fill="#C690EC"/>
<path d="M159.683 307.527H133.84V315.315H159.683V307.527Z" fill="#9163B1"/>
<path d="M133.84 315.314C133.84 318.528 139.628 321.138 146.751 321.138C153.874 321.138 159.661 318.528 159.661 315.314C159.661 312.101 153.874 309.49 146.751 309.49C139.628 309.49 133.84 312.101 133.84 315.314Z" fill="#9163B1"/>
<path d="M133.84 307.527C133.84 310.74 139.628 313.351 146.751 313.351C153.874 313.351 159.661 310.74 159.661 307.527C159.661 304.314 153.874 301.703 146.751 301.703C139.628 301.703 133.84 304.314 133.84 307.527Z" fill="#C690EC"/>
<g clip-path="url(#clip13_6783_8092)">
<path d="M191.861 367.37L190.801 364.172L186.35 365.663L185.284 369.578L182.995 370.346L187.096 355.621L190.16 354.602L194.243 366.572L191.867 367.37H191.861ZM188.657 357.258L188.494 357.31L186.77 363.735L190.375 362.529L188.651 357.258H188.657Z" fill="#FDFCFE"/>
<path d="M196.282 352.57L201.087 350.974C203.598 350.141 205.072 351.003 205.072 353.135C205.072 354.678 204.215 355.861 202.864 356.694V356.787C204.477 356.612 205.549 357.206 205.549 359.036C205.549 361.208 203.977 363.317 201.629 364.103L196.282 365.897V352.57ZM200.633 356.845C202.025 356.379 202.782 355.634 202.782 354.428V353.741C202.782 352.541 202.025 352.296 200.633 352.762L198.478 353.479V357.562L200.633 356.845ZM200.953 362.688C202.427 362.193 203.266 361.342 203.266 360.067V359.379C203.266 358.086 202.427 357.812 200.953 358.302L198.484 359.129V363.515L200.953 362.688Z" fill="#FDFCFE"/>
<path d="M215.749 359.36L214.7 356.174L210.297 357.648L209.242 361.539L206.977 362.296L211.025 347.658L214.06 346.65L218.096 358.568L215.743 359.36H215.749ZM212.58 349.295L212.423 349.347L210.716 355.737L214.287 354.543L212.58 349.295Z" fill="#FDFCFE"/>
<path d="M219.628 351.433C219.628 347.047 221.306 344.018 224.801 342.859C227.463 341.973 228.68 343.045 229.315 344.635L227.329 345.94C226.915 344.862 226.345 344.105 224.784 344.624C222.832 345.276 221.982 347.093 221.982 349.522V351.759C221.982 354.188 222.832 355.441 224.784 354.788C226.339 354.264 226.915 353.128 227.329 351.777L229.315 351.753C228.686 353.763 227.463 355.65 224.801 356.547C221.306 357.718 219.628 355.813 219.628 351.427V351.433Z" fill="#FDFCFE"/>
</g>
</g>
<g opacity="0.6" clip-path="url(#clip14_6783_8092)">
<path d="M345.335 319.802C344.127 320.221 343.518 319.808 343.401 318.923L343.306 318.955C342.914 320.194 341.859 321.222 340.275 321.774C338.219 322.489 336.889 321.895 336.889 320.163C336.889 318.43 338.319 316.914 341.313 315.881L343.248 315.213V314.498C343.248 313.269 342.527 312.877 341.08 313.375C339.787 313.82 339.024 314.583 338.478 315.542L337.207 315.033C337.774 313.836 339.146 312.521 341.276 311.79C343.815 310.916 345.378 311.536 345.378 313.64V318.26L346.644 317.821V319.352L345.335 319.808V319.802ZM343.248 317.778V316.437L341.35 317.095C339.787 317.635 339.04 318.34 339.04 319.161V319.516C339.04 320.338 339.745 320.523 340.879 320.131C342.246 319.654 343.242 318.684 343.242 317.778H343.248Z" fill="#451E11"/>
<path d="M348.981 309.342L351.101 308.611V310.18L351.217 310.137C351.8 308.834 352.775 307.822 354.254 307.308C356.606 306.497 358.117 307.631 358.117 310.773C358.117 313.916 356.601 316.099 354.254 316.915C352.775 317.429 351.805 317.09 351.217 316.189L351.101 316.231V321.361L348.981 322.097V309.337V309.342ZM355.886 312.299V310.805C355.886 309.311 354.974 308.648 353.379 309.199C352.155 309.623 351.106 310.556 351.106 311.679V314.742C351.106 315.866 352.155 316.072 353.379 315.643C354.974 315.092 355.886 313.794 355.886 312.299Z" fill="#451E11"/>
<path d="M361.068 312.776L364.476 311.595V305.559L361.068 306.736V305.172L366.585 303.27V310.864L369.769 309.756V311.319L361.068 314.34V312.776ZM364.089 301.41V301.039C364.089 300.451 364.476 299.857 365.52 299.497C366.563 299.137 366.971 299.46 366.971 300.043V300.414C366.971 301.002 366.585 301.595 365.541 301.956C364.497 302.316 364.089 301.993 364.089 301.41Z" fill="#451E11"/>
<path d="M372.313 312.882L378.799 294.733L380.659 294.092L374.178 312.23L372.308 312.882H372.313Z" fill="#451E11"/>
<path d="M383.383 305.055L384.665 303.551C385.529 304.118 386.578 304.229 388.051 303.72C389.392 303.254 390.308 302.533 390.308 301.632C390.308 300.853 389.641 300.875 388.798 301.06L387.23 301.373C385.677 301.696 383.934 301.791 383.934 299.915C383.934 298.04 385.619 296.487 388.146 295.618C389.98 294.982 391.299 295.062 392.195 295.65L391.029 297.181C390.515 296.81 389.614 296.577 388.067 297.112C386.71 297.584 385.979 298.257 385.979 299.052C385.979 299.847 386.668 299.804 387.489 299.624L389.058 299.311C390.626 298.983 392.343 298.882 392.343 300.753C392.343 302.623 390.701 304.271 388.003 305.204C385.878 305.94 384.31 305.797 383.367 305.061L383.383 305.055Z" fill="#451E11"/>
<path d="M394.871 298.073C394.871 295.148 396.699 292.662 399.497 291.698C402.295 290.734 404.001 291.974 404.001 294.65V295.37L396.964 297.808V298.11C396.964 299.535 397.992 300.187 399.687 299.599C400.943 299.164 401.855 298.301 402.406 297.267L403.699 297.877C403.036 299.164 401.664 300.463 399.65 301.167C396.64 302.211 394.871 300.977 394.871 298.083V298.073ZM396.969 296.446V296.568L401.897 294.862V294.687C401.897 293.261 400.949 292.657 399.502 293.155C398.055 293.653 396.969 295.036 396.969 296.446Z" fill="#451E11"/>
<path d="M406.735 298.483V289.411L408.802 288.695V290.243L408.897 290.211C409.316 289.119 410.111 288.033 411.716 287.482C413.682 286.804 415.007 287.593 415.007 289.787V295.611L412.946 296.326V290.778C412.946 289.337 412.246 288.86 410.922 289.315C409.862 289.681 408.802 290.555 408.802 291.61V297.762L406.735 298.477V298.483Z" fill="#451E11"/>
<path d="M424.259 290.859L424.148 290.896C423.581 292.178 422.643 293.169 421.212 293.667C418.934 294.457 417.46 293.339 417.46 290.233C417.46 287.128 418.934 284.993 421.212 284.203C422.643 283.71 423.581 284.049 424.148 284.94L424.259 284.902V279.439L426.31 278.734V291.685L424.259 292.395V290.853V290.859ZM424.259 289.385V286.376C424.259 285.273 423.242 285.061 422.06 285.475C420.518 286.01 419.633 287.276 419.633 288.75V290.223C419.633 291.696 420.518 292.353 422.06 291.818C423.247 291.404 424.259 290.493 424.259 289.391V289.385Z" fill="#451E11"/>
<path d="M429.346 293.042L435.657 275.168L437.47 274.543L431.164 292.411L429.346 293.042Z" fill="#451E11"/>
<path d="M440.141 282.403C440.141 279.51 441.932 277.056 444.671 276.113C447.369 275.18 449.08 276.405 449.08 279.049V279.764L442.191 282.149V282.445C442.191 283.86 443.198 284.501 444.857 283.929C446.086 283.505 446.976 282.652 447.517 281.629L448.783 282.233C448.132 283.505 446.796 284.788 444.82 285.471C441.873 286.494 440.141 285.265 440.141 282.403ZM442.191 280.803V280.925L447.013 279.255V279.081C447.013 277.671 446.081 277.067 444.666 277.554C443.251 278.042 442.186 279.404 442.186 280.797L442.191 280.803Z" fill="#451E11"/>
<path d="M451.014 283.106V274.129L452.742 273.535V274.701L452.832 274.669C453.128 273.8 453.632 273.021 454.665 272.661C455.698 272.301 456.223 272.682 456.371 273.53L456.446 273.504C456.779 272.571 457.352 271.734 458.502 271.336C459.964 270.833 460.478 271.66 460.478 273.52V279.82L458.756 280.419V274.357C458.756 273.122 458.459 272.81 457.739 273.059C457.092 273.281 456.61 273.848 456.61 274.664V281.161L454.888 281.76V275.692C454.888 274.458 454.607 274.14 453.886 274.389C453.218 274.622 452.736 275.183 452.736 276.005V282.507L451.009 283.106H451.014Z" fill="#451E11"/>
<path d="M470.377 276.383C469.237 276.781 468.665 276.373 468.554 275.509L468.464 275.541C468.093 276.744 467.102 277.729 465.608 278.249C463.673 278.922 462.417 278.333 462.417 276.648C462.417 274.963 463.763 273.511 466.588 272.536L468.411 271.906V271.211C468.411 270.014 467.727 269.627 466.365 270.099C465.146 270.517 464.431 271.254 463.912 272.176L462.714 271.672C463.249 270.517 464.542 269.256 466.551 268.562C468.946 267.735 470.419 268.355 470.419 270.395V274.878L471.617 274.465V275.954L470.382 276.383H470.377ZM468.405 274.401V273.103L466.62 273.723C465.146 274.232 464.442 274.91 464.442 275.71V276.055C464.442 276.855 465.104 277.04 466.174 276.669C467.462 276.224 468.405 275.292 468.405 274.407V274.401Z" fill="#451E11"/>
<path d="M474.219 273.524L477.446 272.406V266.53L474.219 267.642V266.122L479.444 264.32V271.717L482.464 270.668V272.189L474.219 275.051V273.53V273.524ZM477.08 262.487V262.121C477.08 261.549 477.446 260.976 478.437 260.632C479.428 260.287 479.809 260.611 479.809 261.178V261.538C479.809 262.11 479.444 262.683 478.453 263.027C477.462 263.371 477.08 263.054 477.08 262.481V262.487Z" fill="#451E11"/>
<path d="M484.732 269.88L487.853 268.799V259.07L484.732 260.146V258.63L489.84 256.871V268.11L492.956 267.029V268.545L484.732 271.401V269.88Z" fill="#451E11"/>
</g>
<g clip-path="url(#clip15_6783_8092)">
<g opacity="0.6">
<path d="M68.9555 169.28C67.7685 169.662 67.1697 169.227 67.0585 168.337L66.9631 168.369C66.5763 169.598 65.5429 170.594 63.985 171.093C61.9661 171.744 60.6572 171.108 60.6572 169.376C60.6572 167.643 62.0615 166.175 65.0024 165.232L66.9048 164.622V163.907C66.9048 162.678 66.1947 162.259 64.7746 162.715C63.5081 163.123 62.7556 163.859 62.2204 164.803L60.9699 164.257C61.5263 163.075 62.8722 161.809 64.9706 161.141C67.4665 160.346 69.0032 161.014 69.0032 163.117V167.738L70.2485 167.341V168.872L68.9661 169.286L68.9555 169.28ZM66.9048 167.192V165.852L65.0448 166.451C63.5081 166.943 62.7768 167.622 62.7768 168.448V168.803C62.7768 169.625 63.471 169.831 64.5838 169.471C65.9298 169.036 66.9048 168.099 66.9048 167.192Z" fill="#451E11"/>
<path d="M72.5376 158.931L74.6254 158.263V159.831L74.742 159.794C75.3143 158.507 76.2734 157.526 77.7254 157.06C80.0357 156.323 81.5195 157.5 81.5195 160.647C81.5195 163.795 80.0304 165.931 77.7254 166.672C76.2734 167.139 75.3196 166.768 74.742 165.851L74.6254 165.888V171.018L72.5376 171.691V158.931ZM79.3204 162.099V160.605C79.3204 159.111 78.4248 158.417 76.8563 158.92C75.6534 159.307 74.6201 160.202 74.6201 161.326V164.389C74.6201 165.512 75.6534 165.75 76.8563 165.364C78.4195 164.86 79.3204 163.594 79.3204 162.099Z" fill="#451E11"/>
<path d="M84.4126 162.747L87.7616 161.671V155.636L84.4126 156.706V155.143L89.8282 153.41V161.009L92.96 160.002V161.565L84.4126 164.315V162.752V162.747ZM87.3801 151.476V151.105C87.3801 150.517 87.7616 149.934 88.7843 149.611C89.807 149.287 90.2097 149.621 90.2097 150.204V150.575C90.2097 151.163 89.8282 151.741 88.8055 152.069C87.7828 152.398 87.3801 152.064 87.3801 151.476Z" fill="#451E11"/>
<path d="M95.4614 163.201L101.831 145.253L103.659 144.67L97.2949 162.607L95.4614 163.201Z" fill="#451E11"/>
<path d="M106.722 148.014L108.772 147.357V148.91L108.884 148.873C109.451 147.596 110.389 146.626 111.819 146.17C114.093 145.444 115.555 146.621 115.555 149.742C115.555 152.863 114.093 154.977 111.819 155.709C110.389 156.17 109.451 155.799 108.884 154.882L108.772 154.919V160.006L106.722 160.669V148.009V148.014ZM113.398 151.178V149.694C113.398 148.211 112.514 147.522 110.977 148.014C109.79 148.391 108.778 149.281 108.778 150.399V153.441C108.778 154.553 109.795 154.792 110.977 154.41C112.519 153.918 113.398 152.662 113.398 151.178Z" fill="#451E11"/>
<path d="M125.719 151.03C124.564 151.401 123.981 150.971 123.869 150.092L123.774 150.124C123.398 151.337 122.391 152.312 120.875 152.8C118.909 153.43 117.638 152.8 117.638 151.088C117.638 149.376 119.005 147.935 121.866 147.018L123.716 146.425V145.72C123.716 144.507 123.027 144.093 121.638 144.533C120.404 144.93 119.673 145.656 119.148 146.578L117.929 146.033C118.475 144.872 119.784 143.622 121.824 142.975C124.256 142.201 125.751 142.864 125.751 144.941V149.498L126.964 149.111V150.627L125.713 151.03H125.719ZM123.721 148.958V147.638L121.909 148.221C120.414 148.703 119.699 149.371 119.699 150.182V150.537C119.699 151.348 120.372 151.554 121.458 151.205C122.767 150.786 123.721 149.864 123.721 148.963V148.958Z" fill="#451E11"/>
<path d="M136.126 138.619L138.166 137.967L133.519 150.271C133.016 151.591 132.327 152.412 130.801 152.905L129.179 153.429V151.882L131.452 151.151L132.327 148.777L128.453 141.072L130.578 140.394L132.104 143.7L133.296 146.429L133.408 146.392L134.6 142.9L136.121 138.619H136.126Z" fill="#451E11"/>
<path d="M139.708 146.53V137.48L141.431 136.929V138.105L141.521 138.073C141.817 137.204 142.315 136.436 143.354 136.102C144.393 135.768 144.907 136.165 145.055 137.029L145.129 137.008C145.463 136.081 146.035 135.249 147.18 134.883C148.637 134.417 149.157 135.27 149.157 137.141V143.494L147.44 144.045V137.935C147.44 136.69 147.143 136.367 146.422 136.595C145.776 136.801 145.294 137.358 145.294 138.179V144.734L143.571 145.285V139.17C143.571 137.925 143.296 137.596 142.57 137.824C141.902 138.036 141.42 138.592 141.42 139.419V145.979L139.698 146.536L139.708 146.53Z" fill="#451E11"/>
<path d="M151.106 138.37C151.106 135.466 152.876 133.066 155.584 132.197C158.292 131.328 159.94 132.621 159.94 135.275V135.991L153.131 138.174V138.471C153.131 139.886 154.127 140.564 155.764 140.039C156.978 139.647 157.863 138.826 158.393 137.814L159.643 138.46C159.002 139.716 157.677 140.961 155.727 141.587C152.818 142.524 151.101 141.237 151.101 138.365L151.106 138.37ZM153.136 136.828V136.95L157.905 135.424V135.249C157.905 133.834 156.983 133.203 155.589 133.649C154.196 134.094 153.141 135.429 153.141 136.828H153.136Z" fill="#451E11"/>
<path d="M162.584 139.176V130.173L164.582 129.537V131.074L164.672 131.042C165.075 129.972 165.843 128.923 167.401 128.425C169.304 127.815 170.581 128.647 170.581 130.82V136.601L168.588 137.242V131.737C168.588 130.306 167.91 129.808 166.628 130.221C165.6 130.55 164.577 131.382 164.577 132.431V138.535L162.579 139.176H162.584Z" fill="#451E11"/>
<path d="M178.063 134.194C176.425 134.719 175.657 134.03 175.657 132.689V127.523L172.758 128.45V126.919L174.82 126.262C175.514 126.039 175.784 125.726 175.784 125.032V122.791L177.644 122.197V125.361L181.645 124.084V125.61L177.644 126.892V132.801L181.645 131.513V133.039L178.063 134.189V134.194Z" fill="#451E11"/>
<path d="M184.03 130.773L185.243 129.342C186.059 129.93 187.055 130.078 188.454 129.628C189.721 129.22 190.59 128.542 190.59 127.657C190.59 126.894 189.954 126.888 189.159 127.042L187.675 127.291C186.208 127.556 184.554 127.577 184.554 125.738C184.554 123.9 186.149 122.432 188.544 121.669C190.283 121.112 191.533 121.234 192.381 121.849L191.279 123.312C190.791 122.93 189.938 122.665 188.47 123.131C187.183 123.545 186.494 124.181 186.494 124.96C186.494 125.738 187.146 125.723 187.925 125.574L189.408 125.325C190.892 125.06 192.519 125.023 192.519 126.857C192.519 128.69 190.961 130.248 188.412 131.069C186.398 131.716 184.915 131.52 184.024 130.762L184.03 130.773Z" fill="#451E11"/>
<path d="M195.332 131.036L201.405 113.554L203.149 112.998L197.076 130.469L195.327 131.031L195.332 131.036Z" fill="#451E11"/>
</g>
</g>
<defs>
<filter id="filter0_ii_6783_8092" x="134.886" y="140.654" width="88.48" height="84.8398" filterUnits="userSpaceOnUse" color-interpolation-filters="sRGB">
<feFlood flood-opacity="0" result="BackgroundImageFix"/>
<feBlend mode="normal" in="SourceGraphic" in2="BackgroundImageFix" result="shape"/>
<feColorMatrix in="SourceAlpha" type="matrix" values="0 0 0 0 0 0 0 0 0 0 0 0 0 0 0 0 0 0 127 0" result="hardAlpha"/>
<feOffset dy="-2"/>
<feComposite in2="hardAlpha" operator="arithmetic" k2="-1" k3="1"/>
<feColorMatrix type="matrix" values="0 0 0 0 0 0 0 0 0 0 0 0 0 0 0 0 0 0 0.05 0"/>
<feBlend mode="normal" in2="shape" result="effect1_innerShadow_6783_8092"/>
<feColorMatrix in="SourceAlpha" type="matrix" values="0 0 0 0 0 0 0 0 0 0 0 0 0 0 0 0 0 0 127 0" result="hardAlpha"/>
<feOffset dx="2"/>
<feComposite in2="hardAlpha" operator="arithmetic" k2="-1" k3="1"/>
<feColorMatrix type="matrix" values="0 0 0 0 0 0 0 0 0 0 0 0 0 0 0 0 0 0 0.05 0"/>
<feBlend mode="normal" in2="effect1_innerShadow_6783_8092" result="effect2_innerShadow_6783_8092"/>
</filter>
<filter id="filter1_i_6783_8092" x="134.573" y="84.8711" width="88.48" height="84.8398" filterUnits="userSpaceOnUse" color-interpolation-filters="sRGB">
<feFlood flood-opacity="0" result="BackgroundImageFix"/>
<feBlend mode="normal" in="SourceGraphic" in2="BackgroundImageFix" result="shape"/>
<feColorMatrix in="SourceAlpha" type="matrix" values="0 0 0 0 0 0 0 0 0 0 0 0 0 0 0 0 0 0 127 0" result="hardAlpha"/>
<feOffset dy="-2"/>
<feComposite in2="hardAlpha" operator="arithmetic" k2="-1" k3="1"/>
<feColorMatrix type="matrix" values="0 0 0 0 0 0 0 0 0 0 0 0 0 0 0 0 0 0 0.05 0"/>
<feBlend mode="normal" in2="shape" result="effect1_innerShadow_6783_8092"/>
</filter>
<filter id="filter2_i_6783_8092" x="134.735" y="28.1602" width="88.48" height="84.8398" filterUnits="userSpaceOnUse" color-interpolation-filters="sRGB">
<feFlood flood-opacity="0" result="BackgroundImageFix"/>
<feBlend mode="normal" in="SourceGraphic" in2="BackgroundImageFix" result="shape"/>
<feColorMatrix in="SourceAlpha" type="matrix" values="0 0 0 0 0 0 0 0 0 0 0 0 0 0 0 0 0 0 127 0" result="hardAlpha"/>
<feOffset dy="-2"/>
<feComposite in2="hardAlpha" operator="arithmetic" k2="-1" k3="1"/>
<feColorMatrix type="matrix" values="0 0 0 0 0 0 0 0 0 0 0 0 0 0 0 0 0 0 0.05 0"/>
<feBlend mode="normal" in2="shape" result="effect1_innerShadow_6783_8092"/>
</filter>
<filter id="filter3_i_6783_8092" x="1.10889" y="169.949" width="45.52" height="83.5449" filterUnits="userSpaceOnUse" color-interpolation-filters="sRGB">
<feFlood flood-opacity="0" result="BackgroundImageFix"/>
<feBlend mode="normal" in="SourceGraphic" in2="BackgroundImageFix" result="shape"/>
<feColorMatrix in="SourceAlpha" type="matrix" values="0 0 0 0 0 0 0 0 0 0 0 0 0 0 0 0 0 0 127 0" result="hardAlpha"/>
<feOffset dy="-2"/>
<feComposite in2="hardAlpha" operator="arithmetic" k2="-1" k3="1"/>
<feColorMatrix type="matrix" values="0 0 0 0 0 0 0 0 0 0 0 0 0 0 0 0 0 0 0.05 0"/>
<feBlend mode="normal" in2="shape" result="effect1_innerShadow_6783_8092"/>
</filter>
<filter id="filter4_i_6783_8092" x="46.6289" y="168.654" width="88.48" height="84.8398" filterUnits="userSpaceOnUse" color-interpolation-filters="sRGB">
<feFlood flood-opacity="0" result="BackgroundImageFix"/>
<feBlend mode="normal" in="SourceGraphic" in2="BackgroundImageFix" result="shape"/>
<feColorMatrix in="SourceAlpha" type="matrix" values="0 0 0 0 0 0 0 0 0 0 0 0 0 0 0 0 0 0 127 0" result="hardAlpha"/>
<feOffset dy="-2"/>
<feComposite in2="hardAlpha" operator="arithmetic" k2="-1" k3="1"/>
<feColorMatrix type="matrix" values="0 0 0 0 0 0 0 0 0 0 0 0 0 0 0 0 0 0 0.05 0"/>
<feBlend mode="normal" in2="shape" result="effect1_innerShadow_6783_8092"/>
</filter>
<filter id="filter5_i_6783_8092" x="0.795898" y="114.166" width="45.52" height="83.5449" filterUnits="userSpaceOnUse" color-interpolation-filters="sRGB">
<feFlood flood-opacity="0" result="BackgroundImageFix"/>
<feBlend mode="normal" in="SourceGraphic" in2="BackgroundImageFix" result="shape"/>
<feColorMatrix in="SourceAlpha" type="matrix" values="0 0 0 0 0 0 0 0 0 0 0 0 0 0 0 0 0 0 127 0" result="hardAlpha"/>
<feOffset dy="-2"/>
<feComposite in2="hardAlpha" operator="arithmetic" k2="-1" k3="1"/>
<feColorMatrix type="matrix" values="0 0 0 0 0 0 0 0 0 0 0 0 0 0 0 0 0 0 0.05 0"/>
<feBlend mode="normal" in2="shape" result="effect1_innerShadow_6783_8092"/>
</filter>
<filter id="filter6_i_6783_8092" x="46.3159" y="112.871" width="88.48" height="84.8398" filterUnits="userSpaceOnUse" color-interpolation-filters="sRGB">
<feFlood flood-opacity="0" result="BackgroundImageFix"/>
<feBlend mode="normal" in="SourceGraphic" in2="BackgroundImageFix" result="shape"/>
<feColorMatrix in="SourceAlpha" type="matrix" values="0 0 0 0 0 0 0 0 0 0 0 0 0 0 0 0 0 0 127 0" result="hardAlpha"/>
<feOffset dy="-2"/>
<feComposite in2="hardAlpha" operator="arithmetic" k2="-1" k3="1"/>
<feColorMatrix type="matrix" values="0 0 0 0 0 0 0 0 0 0 0 0 0 0 0 0 0 0 0.05 0"/>
<feBlend mode="normal" in2="shape" result="effect1_innerShadow_6783_8092"/>
</filter>
<filter id="filter7_i_6783_8092" x="414.92" y="175.76" width="88.48" height="84.8398" filterUnits="userSpaceOnUse" color-interpolation-filters="sRGB">
<feFlood flood-opacity="0" result="BackgroundImageFix"/>
<feBlend mode="normal" in="SourceGraphic" in2="BackgroundImageFix" result="shape"/>
<feColorMatrix in="SourceAlpha" type="matrix" values="0 0 0 0 0 0 0 0 0 0 0 0 0 0 0 0 0 0 127 0" result="hardAlpha"/>
<feOffset dy="-2"/>
<feComposite in2="hardAlpha" operator="arithmetic" k2="-1" k3="1"/>
<feColorMatrix type="matrix" values="0 0 0 0 0 0 0 0 0 0 0 0 0 0 0 0 0 0 0.05 0"/>
<feBlend mode="normal" in2="shape" result="effect1_innerShadow_6783_8092"/>
</filter>
<clipPath id="clip0_6783_8092">
<rect width="134" height="113" fill="white" transform="translate(266.933 110.611)"/>
</clipPath>
<clipPath id="clip1_6783_8092">
<rect width="134" height="113" fill="white" transform="translate(369.381 203.775)"/>
</clipPath>
<clipPath id="clip2_6783_8092">
<rect width="134" height="113" fill="white" transform="translate(88.9209 168.385)"/>
</clipPath>
<clipPath id="clip3_6783_8092">
<rect width="134" height="113" fill="white" transform="translate(89.3662 112.494)"/>
</clipPath>
<clipPath id="clip4_6783_8092">
<rect width="134" height="113" fill="white" transform="translate(89.0532 56.7109)"/>
</clipPath>
<clipPath id="clip5_6783_8092">
<rect width="134" height="113" fill="white" transform="translate(89.2153)"/>
</clipPath>
<clipPath id="clip6_6783_8092">
<rect width="45.0406" height="29.373" fill="white" transform="translate(158.457 57.1992)"/>
</clipPath>
<clipPath id="clip7_6783_8092">
<rect width="134" height="113" fill="white" transform="translate(280.852 232.58)"/>
</clipPath>
<clipPath id="clip8_6783_8092">
<rect width="134" height="113" fill="white" transform="translate(0.663574 196.385)"/>
</clipPath>
<clipPath id="clip9_6783_8092">
<rect width="134" height="113" fill="white" transform="translate(1.10889 140.494)"/>
</clipPath>
<clipPath id="clip10_6783_8092">
<rect width="134" height="113" fill="white" transform="translate(0.795898 84.7109)"/>
</clipPath>
<clipPath id="clip11_6783_8092">
<rect width="134" height="113" fill="white" transform="translate(369.4 147.6)"/>
</clipPath>
<clipPath id="clip12_6783_8092">
<rect width="134" height="113" fill="white" transform="translate(115.209 285.213)"/>
</clipPath>
<clipPath id="clip13_6783_8092">
<rect width="46.3086" height="27.8026" fill="white" transform="translate(183.001 342.539)"/>
</clipPath>
<clipPath id="clip14_6783_8092">
<rect width="156.062" height="65.2311" fill="white" transform="translate(336.889 256.869)"/>
</clipPath>
<clipPath id="clip15_6783_8092">
<rect width="142.497" height="58.6921" fill="white" transform="translate(60.6572 113)"/>
</clipPath>
</defs>
</svg>
