<svg width="30" height="24" viewBox="0 0 30 24" fill="none" xmlns="http://www.w3.org/2000/svg">
<path d="M29.5327 2.84098C28.447 3.32357 27.2786 3.6491 26.0527 3.79477C27.3044 3.04541 28.2642 1.85842 28.7168 0.442424C27.546 1.13723 26.2499 1.6414 24.8693 1.91357C23.7644 0.736174 22.1895 0 20.4468 0C17.1011 0 14.3884 2.71269 14.3884 6.05905C14.3884 6.53325 14.4417 6.99545 14.5454 7.43968C9.50972 7.18669 5.04471 4.77494 2.05625 1.10906C1.5347 2.0035 1.23615 3.04421 1.23615 4.15567C1.23615 6.25748 2.30564 8.1123 3.93146 9.19858C2.9387 9.16681 2.0041 8.89404 1.18699 8.44023C1.18639 8.4654 1.18639 8.49118 1.18639 8.51696C1.18639 11.4521 3.27502 13.9004 6.04706 14.4579C5.53869 14.5958 5.00335 14.6701 4.45062 14.6701C4.05975 14.6701 3.68027 14.6324 3.31039 14.561C4.08193 16.968 6.31923 18.7203 8.97018 18.7688C6.89654 20.3941 4.28456 21.3628 1.44537 21.3628C0.956787 21.3628 0.474197 21.3341 0 21.2777C2.68212 22.9977 5.86661 24 9.28791 24C20.433 24 26.5269 14.7678 26.5269 6.76105C26.5269 6.49848 26.5215 6.2365 26.5101 5.97632C27.6935 5.12384 28.721 4.05615 29.5327 2.84098Z" fill="url(#paint0_linear_3603_5492)"/>
<defs>
<linearGradient id="paint0_linear_3603_5492" x1="0.255397" y1="-0.195536" x2="29.6304" y2="23.7841" gradientUnits="userSpaceOnUse">
<stop stop-color="#7151DD"/>
<stop offset="1" stop-color="#FFB171"/>
</linearGradient>
</defs>
</svg>
