<svg width="25" height="24" viewBox="0 0 25 24" fill="none" xmlns="http://www.w3.org/2000/svg">
<path fill-rule="evenodd" clip-rule="evenodd" d="M12.3038 0C5.50948 0 0 5.50832 0 12.3037C0 17.7398 3.52544 22.3518 8.41409 23.9788C9.02893 24.0926 9.25475 23.7117 9.25475 23.3868C9.25475 23.0936 9.24345 22.1242 9.2381 21.0961C5.81517 21.8404 5.09289 19.6444 5.09289 19.6444C4.53315 18.2223 3.72683 17.8441 3.72683 17.8441C2.6104 17.0804 3.81098 17.0962 3.81098 17.0962C5.04635 17.1829 5.69702 18.3643 5.69702 18.3643C6.79437 20.2451 8.57529 19.7013 9.2775 19.3869C9.38795 18.5918 9.70667 18.0489 10.0586 17.7416C7.32578 17.4306 4.45285 16.3755 4.45285 11.6611C4.45285 10.3179 4.93355 9.22026 5.72068 8.35859C5.59294 8.04858 5.17175 6.79726 5.83989 5.10241C5.83989 5.10241 6.87313 4.77192 9.22414 6.36377C10.2056 6.09112 11.2583 5.9544 12.3039 5.94966C13.3494 5.9544 14.4028 6.09112 15.386 6.36377C17.7345 4.77192 18.7662 5.10241 18.7662 5.10241C19.4359 6.79726 19.0147 8.04858 18.887 8.35859C19.6759 9.22026 20.1532 10.3178 20.1532 11.6611C20.1532 16.3869 17.2749 17.4272 14.535 17.7319C14.9763 18.1137 15.3695 18.8625 15.3695 20.0103C15.3695 21.6566 15.3554 22.9816 15.3554 23.3868C15.3554 23.7143 15.5768 24.098 16.2004 23.9772C21.0865 22.3485 24.6075 17.7381 24.6075 12.3037C24.6075 5.50832 19.0988 0 12.3038 0Z" fill="url(#paint0_linear_3595_5605)"/>
<path d="M4.6601 17.6656C4.63302 17.7269 4.53674 17.7451 4.44917 17.7032C4.35985 17.663 4.30991 17.5797 4.33874 17.5184C4.36521 17.4554 4.46147 17.4379 4.55064 17.4799C4.64001 17.5202 4.69097 17.6043 4.6601 17.6656Z" fill="url(#paint1_linear_3595_5605)"/>
<path d="M5.15854 18.2211C5.0999 18.2753 4.98501 18.2501 4.90719 18.1642C4.82661 18.0783 4.81172 17.9635 4.87127 17.9085C4.93176 17.8541 5.04301 17.8795 5.12354 17.9654C5.20417 18.0521 5.21984 18.166 5.15854 18.2211Z" fill="url(#paint2_linear_3595_5605)"/>
<path d="M5.64362 18.9297C5.56819 18.9822 5.44483 18.933 5.3686 18.8236C5.29317 18.7141 5.29319 18.5829 5.37037 18.5303C5.4466 18.4778 5.56821 18.5251 5.64539 18.6336C5.72062 18.7449 5.7206 18.8762 5.64362 18.9297Z" fill="url(#paint3_linear_3595_5605)"/>
<path d="M6.30839 19.6151C6.2409 19.6895 6.09722 19.6694 5.99221 19.5679C5.88456 19.4688 5.85471 19.328 5.92215 19.2536C5.99063 19.1791 6.13508 19.2 6.24089 19.3007C6.34774 19.3998 6.38018 19.5414 6.30839 19.6151Z" fill="url(#paint4_linear_3595_5605)"/>
<path d="M7.22507 20.0119C7.19525 20.1082 7.05699 20.152 6.91767 20.111C6.7784 20.0688 6.6875 19.956 6.71552 19.8587C6.74435 19.7616 6.88338 19.7161 7.02365 19.7598C7.16278 19.8018 7.25389 19.9138 7.22507 20.0119Z" fill="url(#paint5_linear_3595_5605)"/>
<path d="M8.232 20.0858C8.23535 20.1872 8.11716 20.2714 7.97095 20.2732C7.82388 20.2766 7.70467 20.1945 7.70312 20.0946C7.70312 19.9921 7.81865 19.9089 7.96576 19.9063C8.11198 19.9035 8.232 19.9851 8.232 20.0858Z" fill="url(#paint6_linear_3595_5605)"/>
<path d="M9.16922 19.9259C9.1867 20.0248 9.08496 20.1264 8.93969 20.1535C8.79687 20.1798 8.66478 20.1185 8.6465 20.0204C8.62882 19.9189 8.73221 19.8172 8.87493 19.791C9.0204 19.7657 9.15069 19.8251 9.16922 19.9259Z" fill="url(#paint7_linear_3595_5605)"/>
<defs>
<linearGradient id="paint0_linear_3595_5605" x1="3.14203" y1="3.38754" x2="21.875" y2="20.3721" gradientUnits="userSpaceOnUse">
<stop stop-color="#7151DD"/>
<stop offset="1" stop-color="#FFB171"/>
</linearGradient>
<linearGradient id="paint1_linear_3595_5605" x1="4.3738" y1="17.495" x2="4.58345" y2="17.7284" gradientUnits="userSpaceOnUse">
<stop stop-color="#7151DD"/>
<stop offset="1" stop-color="#FFB171"/>
</linearGradient>
<linearGradient id="paint2_linear_3595_5605" x1="4.88105" y1="17.9321" x2="5.16794" y2="18.1798" gradientUnits="userSpaceOnUse">
<stop stop-color="#7151DD"/>
<stop offset="1" stop-color="#FFB171"/>
</linearGradient>
<linearGradient id="paint3_linear_3595_5605" x1="5.36197" y1="18.5712" x2="5.69807" y2="18.833" gradientUnits="userSpaceOnUse">
<stop stop-color="#7151DD"/>
<stop offset="1" stop-color="#FFB171"/>
</linearGradient>
<linearGradient id="paint4_linear_3595_5605" x1="5.94504" y1="19.2726" x2="6.29682" y2="19.5904" gradientUnits="userSpaceOnUse">
<stop stop-color="#7151DD"/>
<stop offset="1" stop-color="#FFB171"/>
</linearGradient>
<linearGradient id="paint5_linear_3595_5605" x1="6.77684" y1="19.7973" x2="7.07246" y2="20.152" gradientUnits="userSpaceOnUse">
<stop stop-color="#7151DD"/>
<stop offset="1" stop-color="#FFB171"/>
</linearGradient>
<linearGradient id="paint6_linear_3595_5605" x1="7.77066" y1="19.9581" x2="8.05031" y2="20.3144" gradientUnits="userSpaceOnUse">
<stop stop-color="#7151DD"/>
<stop offset="1" stop-color="#FFB171"/>
</linearGradient>
<linearGradient id="paint7_linear_3595_5605" x1="8.71178" y1="19.838" x2="8.99859" y2="20.1947" gradientUnits="userSpaceOnUse">
<stop stop-color="#7151DD"/>
<stop offset="1" stop-color="#FFB171"/>
</linearGradient>
</defs>
</svg>
