<svg xmlns="http://www.w3.org/2000/svg" width="18" height="18" viewBox="0 0 18 18" fill="none">
  <path d="M9.00197 1.49951C4.8582 1.49951 1.50195 4.85576 1.50195 8.99951C1.50195 12.3183 3.64883 15.1214 6.63008 16.1151C7.00508 16.1808 7.1457 15.9558 7.1457 15.7589C7.1457 15.5808 7.13633 14.9901 7.13633 14.362C5.25195 14.7089 4.76445 13.9026 4.61445 13.4808C4.53008 13.2651 4.16445 12.5995 3.8457 12.4214C3.5832 12.2808 3.2082 11.9339 3.83633 11.9245C4.42695 11.9151 4.84883 12.4683 4.98945 12.6933C5.66445 13.8276 6.74258 13.5089 7.17383 13.312C7.23945 12.8245 7.43633 12.4964 7.65197 12.3089C5.9832 12.1214 4.23945 11.4745 4.23945 8.60576C4.23945 7.79014 4.53008 7.11514 5.0082 6.59014C4.9332 6.40264 4.6707 5.63389 5.0832 4.60264C5.0832 4.60264 5.71133 4.40576 7.1457 5.37139C7.74572 5.20264 8.38322 5.11826 9.02072 5.11826C9.65822 5.11826 10.2957 5.20264 10.8957 5.37139C12.3301 4.39639 12.9582 4.60264 12.9582 4.60264C13.3707 5.63389 13.1082 6.40264 13.0332 6.59014C13.5113 7.11514 13.802 7.78076 13.802 8.60576C13.802 11.4839 12.0488 12.1214 10.3801 12.3089C10.652 12.5433 10.8863 12.9933 10.8863 13.6964C10.8863 14.6995 10.877 15.5058 10.877 15.7589C10.877 15.9558 11.0176 16.1901 11.3926 16.1151C14.4455 15.0845 16.5011 12.2217 16.502 8.99951C16.502 4.85576 13.1457 1.49951 9.00197 1.49951Z" fill="#43302B"/>
</svg>