<svg xmlns="http://www.w3.org/2000/svg" width="18" height="18" viewBox="0 0 18 18" fill="none">
  <path d="M4.89505 10.8858C4.89505 11.6982 4.23149 12.3617 3.4192 12.3617C2.60691 12.3617 1.94336 11.6982 1.94336 10.8858C1.94336 10.0736 2.60691 9.40999 3.4192 9.40999H4.89505V10.8858ZM5.6387 10.8858C5.6387 10.0736 6.30225 9.40999 7.11454 9.40999C7.92686 9.40999 8.59038 10.0736 8.59038 10.8858V14.5812C8.59038 15.3935 7.92686 16.057 7.11454 16.057C6.30225 16.057 5.6387 15.3935 5.6387 14.5812V10.8858ZM7.11454 4.89603C6.30225 4.89603 5.6387 4.23247 5.6387 3.42018C5.6387 2.60789 6.30225 1.94434 7.11454 1.94434C7.92686 1.94434 8.59038 2.60789 8.59038 3.42018V4.89603H7.11454ZM7.11454 5.63968C7.92686 5.63968 8.59038 6.30323 8.59038 7.11552C8.59038 7.92784 7.92686 8.59136 7.11454 8.59136H3.4192C2.60691 8.59136 1.94336 7.92784 1.94336 7.11552C1.94336 6.30323 2.60691 5.63968 3.4192 5.63968H7.11454ZM13.1044 7.11552C13.1044 6.30323 13.7679 5.63968 14.5802 5.63968C15.3925 5.63968 16.056 6.30323 16.056 7.11552C16.056 7.92784 15.3925 8.59136 14.5802 8.59136H13.1044V7.11552ZM12.3607 7.11552C12.3607 7.92784 11.6972 8.59136 10.8849 8.59136C10.0726 8.59136 9.40901 7.92784 9.40901 7.11552V3.42018C9.40901 2.60789 10.0726 1.94434 10.8849 1.94434C11.6972 1.94434 12.3607 2.60789 12.3607 3.42018V7.11552ZM10.8849 13.1054C11.6972 13.1054 12.3607 13.7689 12.3607 14.5812C12.3607 15.3935 11.6972 16.057 10.8849 16.057C10.0726 16.057 9.40901 15.3935 9.40901 14.5812V13.1054H10.8849ZM10.8849 12.3617C10.0726 12.3617 9.40901 11.6982 9.40901 10.8858C9.40901 10.0736 10.0726 9.40999 10.8849 9.40999H14.5802C15.3925 9.40999 16.056 10.0736 16.056 10.8858C16.056 11.6982 15.3925 12.3617 14.5802 12.3617H10.8849Z" fill="#43302B"/>
</svg>