<svg width="24" height="25" viewBox="0 0 24 25" fill="none" xmlns="http://www.w3.org/2000/svg">
<g clip-path="url(#clip0_10557_5992)">
<path d="M23 0.236328H7C6.73478 0.236328 6.48043 0.341685 6.29289 0.529221C6.10536 0.716758 6 0.971112 6 1.23633V11.2363C6 11.5015 6.10536 11.7559 6.29289 11.9434C6.48043 12.131 6.73478 12.2363 7 12.2363H23C23.2652 12.2363 23.5196 12.131 23.7071 11.9434C23.8946 11.7559 24 11.5015 24 11.2363V1.23633C24 0.971112 23.8946 0.716758 23.7071 0.529221C23.5196 0.341685 23.2652 0.236328 23 0.236328ZM15 8.23633C14.6044 8.23633 14.2178 8.11903 13.8889 7.89927C13.56 7.6795 13.3036 7.36715 13.1522 7.0017C13.0009 6.63624 12.9613 6.23411 13.0384 5.84615C13.1156 5.45819 13.3061 5.10182 13.5858 4.82211C13.8655 4.54241 14.2219 4.35193 14.6098 4.27476C14.9978 4.19759 15.3999 4.23719 15.7654 4.38857C16.1308 4.53994 16.4432 4.79629 16.6629 5.12519C16.8827 5.45409 17 5.84077 17 6.23633C17 6.76676 16.7893 7.27547 16.4142 7.65054C16.0391 8.02561 15.5304 8.23633 15 8.23633Z" fill="#451E11"/>
<path d="M0.988281 15.2363H2.48828C2.48828 15.2363 3.48828 15.2363 3.48828 16.2363V23.2363C3.48828 23.2363 3.48828 24.2363 2.48828 24.2363H0.988281C0.988281 24.2363 -0.0117188 24.2363 -0.0117188 23.2363V16.2363C-0.0117188 16.2363 -0.0117188 15.2363 0.988281 15.2363Z" fill="#451E11"/>
<path d="M4.98828 16.236L9.98828 14.248H12.1633C12.2502 14.2481 12.3356 14.2703 12.4115 14.3127C12.4874 14.355 12.5513 14.416 12.5969 14.49C12.6426 14.5639 12.6687 14.6483 12.6726 14.7351C12.6765 14.8219 12.6581 14.9083 12.6193 14.986L11.3573 17.51C11.3184 17.5878 11.3001 17.6742 11.304 17.761C11.3079 17.8478 11.3339 17.9322 11.3796 18.0061C11.4253 18.0801 11.4891 18.1411 11.565 18.1834C11.6409 18.2258 11.7264 18.248 11.8133 18.248H20.0133C20.1963 18.2483 20.3756 18.2995 20.5312 18.396C20.6868 18.4924 20.8124 18.6302 20.8941 18.794C20.9758 18.9578 21.0103 19.1411 20.9937 19.3233C20.9772 19.5056 20.9102 19.6797 20.8003 19.826L18.9873 22.843C18.8955 22.9648 18.7768 23.0637 18.6404 23.1318C18.5041 23.2 18.3537 23.2357 18.2013 23.236H4.98828V16.236Z" fill="#451E11"/>
</g>
<defs>
<clipPath id="clip0_10557_5992">
<rect width="24" height="24" fill="white" transform="translate(0 0.236328)"/>
</clipPath>
</defs>
</svg>
