<svg width="24" height="25" viewBox="0 0 24 25" fill="none" xmlns="http://www.w3.org/2000/svg">
<g clip-path="url(#clip0_10557_6005)">
<path d="M23 10.2363H24V3.23633H0V10.2363H1C1.53043 10.2363 2.03914 10.447 2.41421 10.8221C2.78929 11.1972 3 11.7059 3 12.2363C3 12.7668 2.78929 13.2755 2.41421 13.6505C2.03914 14.0256 1.53043 14.2363 1 14.2363H0V21.2363H24V14.2363H23C22.4696 14.2363 21.9609 14.0256 21.5858 13.6505C21.2107 13.2755 21 12.7668 21 12.2363C21 11.7059 21.2107 11.1972 21.5858 10.8221C21.9609 10.447 22.4696 10.2363 23 10.2363ZM6 6.23633C6.39556 6.23633 6.78224 6.35363 7.11114 6.57339C7.44004 6.79315 7.69638 7.10551 7.84776 7.47096C7.99913 7.83641 8.03874 8.23855 7.96157 8.62651C7.8844 9.01447 7.69392 9.37084 7.41421 9.65054C7.13451 9.93025 6.77814 10.1207 6.39018 10.1979C6.00222 10.2751 5.60009 10.2355 5.23463 10.0841C4.86918 9.93271 4.55682 9.67637 4.33706 9.34747C4.1173 9.01857 4 8.63189 4 8.23633C4 7.7059 4.21071 7.19719 4.58579 6.82211C4.96086 6.44704 5.46957 6.23633 6 6.23633ZM4.293 15.5293L13.293 6.52933L14.707 7.94333L5.707 16.9433L4.293 15.5293ZM13 17.2363C12.6044 17.2363 12.2178 17.119 11.8889 16.8993C11.56 16.6795 11.3036 16.3671 11.1522 16.0017C11.0009 15.6362 10.9613 15.2341 11.0384 14.8461C11.1156 14.4582 11.3061 14.1018 11.5858 13.8221C11.8655 13.5424 12.2219 13.3519 12.6098 13.2748C12.9978 13.1976 13.3999 13.2372 13.7654 13.3886C14.1308 13.5399 14.4432 13.7963 14.6629 14.1252C14.8827 14.4541 15 14.8408 15 15.2363C15 15.7668 14.7893 16.2755 14.4142 16.6505C14.0391 17.0256 13.5304 17.2363 13 17.2363ZM18 19.2363H16V17.2363H18V19.2363ZM18 15.2363H16V13.2363H18V15.2363ZM18 11.2363H16V9.23633H18V11.2363ZM18 7.23633H16V5.23633H18V7.23633Z" fill="#451E11"/>
</g>
<defs>
<clipPath id="clip0_10557_6005">
<rect width="24" height="24" fill="white" transform="translate(0 0.236328)"/>
</clipPath>
</defs>
</svg>
