<svg width="24" height="25" viewBox="0 0 24 25" fill="none" xmlns="http://www.w3.org/2000/svg">
<g clip-path="url(#clip0_10557_6015)">
<path d="M11.7598 12.2403L15.2163 8.78379L17.5206 11.0881L18.6727 9.93599V1.87089C18.6774 1.01179 17.7741 0.449893 17.0056 0.833993L12.9949 2.84679L10.095 0.912293C9.7078 0.653993 9.2032 0.653993 8.8161 0.912293L5.9161 2.84679L1.9055 0.833993C1.137 0.449893 0.2336 1.01179 0.2383 1.87089V22.6096C0.2383 23.2459 0.7541 23.7618 1.3905 23.7618C1.5693 23.7619 1.7457 23.7201 1.9055 23.6396L5.9161 21.6349L8.8161 23.5682C9.2032 23.8265 9.7078 23.8265 10.095 23.5682L12.9938 21.6349L17.0056 23.6396C17.7714 24.0223 18.6722 23.4657 18.6727 22.6096V16.8489L17.5206 18.001L11.7598 12.2403ZM4.8469 7.63169H10.6077V9.93599H4.8469V7.63169ZM4.8469 11.0881H9.4555V13.3924H4.8469V11.0881ZM11.7598 16.8489H4.8469V14.5446H11.7598V16.8489Z" fill="#451E11"/>
<path d="M15.219 10.6109L13.5898 12.2401L17.5233 16.1747L23.761 9.93584L22.1319 8.30664L17.5233 12.9152L15.219 10.6109Z" fill="#451E11"/>
</g>
<defs>
<clipPath id="clip0_10557_6015">
<rect width="24" height="24" fill="white" transform="translate(0 0.236328)"/>
</clipPath>
</defs>
</svg>
