<svg width="140" height="33" viewBox="0 0 140 33" fill="none" xmlns="http://www.w3.org/2000/svg">
<rect x="1.33333" y="3.83333" width="25.3333" height="25.3333" rx="4.5117" fill="#0091FF" stroke="#D1B9B0" stroke-width="1.33333"/>
<path d="M42.8722 21L44.5426 10.8182H45.5369L43.8665 21H42.8722ZM38.2386 18.1761L38.3977 17.1818H45.9943L45.8352 18.1761H38.2386ZM39.2926 21L40.9631 10.8182H41.9574L40.2869 21H39.2926ZM38.8352 14.6364L38.9943 13.642H46.5909L46.4318 14.6364H38.8352ZM55.0053 21.1392C54.422 21.1392 53.8967 21.0232 53.4293 20.7912C52.962 20.5592 52.5875 20.241 52.3058 19.8366C52.024 19.4323 51.8699 18.9716 51.8434 18.4545H53.0366C53.083 18.9152 53.2918 19.2964 53.663 19.598C54.0375 19.8963 54.485 20.0455 55.0053 20.0455C55.4229 20.0455 55.7942 19.9477 56.119 19.7521C56.4471 19.5566 56.704 19.2881 56.8896 18.9467C57.0785 18.602 57.1729 18.2126 57.1729 17.7784C57.1729 17.3343 57.0752 16.9382 56.8796 16.5902C56.6874 16.2389 56.4222 15.9621 56.0842 15.7599C55.7461 15.5578 55.36 15.455 54.9258 15.4517C54.6142 15.4484 54.2944 15.4964 53.9663 15.5959C53.6381 15.692 53.368 15.8163 53.1559 15.9688L52.0025 15.8295L52.619 10.8182H57.9087V11.9119H53.6531L53.2951 14.9148H53.3548C53.5636 14.7491 53.8254 14.6115 54.1403 14.5021C54.4551 14.3928 54.7833 14.3381 55.1246 14.3381C55.7478 14.3381 56.3029 14.4872 56.7901 14.7855C57.2807 15.0805 57.6651 15.4848 57.9435 15.9986C58.2253 16.5123 58.3661 17.099 58.3661 17.7585C58.3661 18.4081 58.2203 18.9882 57.9286 19.4986C57.6403 20.0057 57.2425 20.4067 56.7354 20.7017C56.2283 20.9934 55.6516 21.1392 55.0053 21.1392ZM60.3411 21V20.1051L63.7019 16.4261C64.0963 15.9953 64.4211 15.6207 64.6763 15.3026C64.9315 14.9811 65.1204 14.6795 65.2431 14.3977C65.369 14.1127 65.432 13.8144 65.432 13.5028C65.432 13.1449 65.3458 12.835 65.1735 12.5732C65.0044 12.3113 64.7724 12.1091 64.4775 11.9666C64.1825 11.8241 63.851 11.7528 63.4831 11.7528C63.092 11.7528 62.7507 11.834 62.459 11.9964C62.1706 12.1555 61.9469 12.3793 61.7878 12.6676C61.632 12.956 61.5542 13.294 61.5542 13.6818H60.3809C60.3809 13.0852 60.5184 12.5616 60.7935 12.1108C61.0686 11.66 61.4431 11.3087 61.9171 11.0568C62.3944 10.8049 62.9296 10.679 63.5229 10.679C64.1195 10.679 64.6481 10.8049 65.1088 11.0568C65.5695 11.3087 65.9308 11.6484 66.1926 12.076C66.4545 12.5036 66.5854 12.9792 66.5854 13.5028C66.5854 13.8774 66.5175 14.2436 66.3816 14.6016C66.249 14.9562 66.017 15.3523 65.6855 15.7898C65.3574 16.224 64.9017 16.7543 64.3184 17.3807L62.0314 19.8267V19.9062H66.7644V21H60.3411ZM69.4142 21H68.1216L71.8603 10.8182H73.133L76.8716 21H75.579L72.5364 12.429H72.4569L69.4142 21ZM69.8915 17.0227H75.1017V18.1165H69.8915V17.0227ZM81.5201 10.679C81.9377 10.6823 82.3553 10.7618 82.7729 10.9176C83.1905 11.0734 83.5717 11.3319 83.9164 11.6932C84.2611 12.0511 84.5378 12.54 84.7466 13.1598C84.9554 13.7796 85.0598 14.5568 85.0598 15.4915C85.0598 16.3963 84.9737 17.2 84.8013 17.9027C84.6323 18.602 84.387 19.192 84.0655 19.6726C83.7473 20.1532 83.3596 20.5178 82.9022 20.7663C82.4481 21.0149 81.9344 21.1392 81.361 21.1392C80.7909 21.1392 80.2821 21.0265 79.8347 20.8011C79.3906 20.5724 79.026 20.2559 78.7409 19.8516C78.4592 19.4439 78.2786 18.9716 78.199 18.4347H79.4121C79.5215 18.902 79.7386 19.2881 80.0634 19.593C80.3915 19.8946 80.824 20.0455 81.361 20.0455C82.1465 20.0455 82.7663 19.7024 83.2203 19.0163C83.6777 18.3303 83.9064 17.3608 83.9064 16.108H83.8269C83.6413 16.3864 83.4209 16.6267 83.1657 16.8288C82.9105 17.031 82.6271 17.1868 82.3155 17.2962C82.004 17.4055 81.6725 17.4602 81.3212 17.4602C80.7379 17.4602 80.2026 17.3161 79.7154 17.0277C79.2315 16.736 78.8437 16.3366 78.552 15.8295C78.2637 15.3191 78.1195 14.7358 78.1195 14.0795C78.1195 13.4564 78.2587 12.8864 78.5371 12.3693C78.8188 11.849 79.2132 11.4347 79.7203 11.1264C80.2308 10.8182 80.8307 10.669 81.5201 10.679ZM81.5201 11.7727C81.1025 11.7727 80.7263 11.8771 80.3915 12.0859C80.0601 12.2914 79.7966 12.5698 79.601 12.9212C79.4088 13.2692 79.3127 13.6553 79.3127 14.0795C79.3127 14.5038 79.4055 14.8899 79.5911 15.2379C79.78 15.5826 80.0369 15.8577 80.3617 16.0632C80.6898 16.2654 81.0627 16.3665 81.4803 16.3665C81.7952 16.3665 82.0885 16.3052 82.3603 16.1825C82.632 16.0566 82.869 15.8859 83.0712 15.6705C83.2767 15.4517 83.4374 15.2048 83.5534 14.9297C83.6694 14.6513 83.7275 14.3613 83.7275 14.0597C83.7275 13.6619 83.6313 13.2891 83.4391 12.9411C83.2502 12.593 82.9883 12.3113 82.6536 12.0959C82.3221 11.8804 81.9443 11.7727 81.5201 11.7727ZM87.1939 21V10.8182H93.299V11.9119H88.4268V15.3523H92.8416V16.446H88.4268V21H87.1939ZM95.4107 21V10.8182H101.516V11.9119H96.6436V15.3523H101.058V16.446H96.6436V21H95.4107Z" fill="#451E11"/>
<rect width="102" height="1" transform="translate(38 28)" fill="#846358"/>
</svg>
