<svg width="482" height="34" viewBox="0 0 482 34" fill="none" xmlns="http://www.w3.org/2000/svg">
<rect x="1.18831" y="4.56087" width="25.3333" height="25.3333" rx="4.5117" fill="#006ADC" stroke="#D1B9B0" stroke-width="1.33333"/>
<g clip-path="url(#clip0_30023_64748)">
<path d="M42.7271 21.7275L44.3976 11.5457H45.3919L43.7215 21.7275H42.7271ZM38.0936 18.9037L38.2527 17.9094H45.8493L45.6902 18.9037H38.0936ZM39.1476 21.7275L40.818 11.5457H41.8124L40.1419 21.7275H39.1476ZM38.6902 15.3639L38.8493 14.3696H46.4459L46.2868 15.3639H38.6902ZM54.9995 21.8667C54.2505 21.8667 53.6124 21.6629 53.0854 21.2552C52.5585 20.8443 52.1558 20.2493 51.8774 19.4704C51.5989 18.6882 51.4597 17.7436 51.4597 16.6366C51.4597 15.5363 51.5989 14.5966 51.8774 13.8177C52.1591 13.0355 52.5634 12.4389 53.0904 12.028C53.6207 11.6137 54.2571 11.4065 54.9995 11.4065C55.7419 11.4065 56.3766 11.6137 56.9036 12.028C57.4339 12.4389 57.8383 13.0355 58.1167 13.8177C58.3984 14.5966 58.5393 15.5363 58.5393 16.6366C58.5393 17.7436 58.4001 18.6882 58.1217 19.4704C57.8433 20.2493 57.4406 20.8443 56.9136 21.2552C56.3866 21.6629 55.7486 21.8667 54.9995 21.8667ZM54.9995 20.773C55.7419 20.773 56.3186 20.415 56.7296 19.6991C57.1406 18.9832 57.3461 17.9624 57.3461 16.6366C57.3461 15.755 57.2516 15.0043 57.0627 14.3845C56.8771 13.7647 56.6087 13.2924 56.2573 12.9676C55.9093 12.6428 55.49 12.4804 54.9995 12.4804C54.2637 12.4804 53.6887 12.8433 53.2744 13.5692C52.8601 14.2917 52.6529 15.3142 52.6529 16.6366C52.6529 17.5183 52.7457 18.2673 52.9313 18.8838C53.1169 19.5003 53.3837 19.9693 53.7318 20.2907C54.0831 20.6122 54.5057 20.773 54.9995 20.773ZM63.7495 21.8667C63.0005 21.8667 62.3624 21.6629 61.8354 21.2552C61.3085 20.8443 60.9058 20.2493 60.6274 19.4704C60.3489 18.6882 60.2097 17.7436 60.2097 16.6366C60.2097 15.5363 60.3489 14.5966 60.6274 13.8177C60.9091 13.0355 61.3134 12.4389 61.8404 12.028C62.3707 11.6137 63.0071 11.4065 63.7495 11.4065C64.4919 11.4065 65.1266 11.6137 65.6536 12.028C66.1839 12.4389 66.5883 13.0355 66.8667 13.8177C67.1484 14.5966 67.2893 15.5363 67.2893 16.6366C67.2893 17.7436 67.1501 18.6882 66.8717 19.4704C66.5933 20.2493 66.1906 20.8443 65.6636 21.2552C65.1366 21.6629 64.4986 21.8667 63.7495 21.8667ZM63.7495 20.773C64.4919 20.773 65.0686 20.415 65.4796 19.6991C65.8906 18.9832 66.0961 17.9624 66.0961 16.6366C66.0961 15.755 66.0016 15.0043 65.8127 14.3845C65.6271 13.7647 65.3587 13.2924 65.0073 12.9676C64.6593 12.6428 64.24 12.4804 63.7495 12.4804C63.0137 12.4804 62.4387 12.8433 62.0244 13.5692C61.6101 14.2917 61.4029 15.3142 61.4029 16.6366C61.4029 17.5183 61.4957 18.2673 61.6813 18.8838C61.8669 19.5003 62.1337 19.9693 62.4818 20.2907C62.8331 20.6122 63.2557 20.773 63.7495 20.773ZM72.5592 21.8667C72.1416 21.8601 71.7239 21.7806 71.3063 21.6281C70.8887 21.4756 70.5076 21.2188 70.1629 20.8575C69.8182 20.4929 69.5414 20.0007 69.3326 19.3809C69.1238 18.7578 69.0194 17.9756 69.0194 17.0344C69.0194 16.1328 69.1039 15.3341 69.2729 14.6381C69.442 13.9387 69.6872 13.3504 70.0087 12.8731C70.3302 12.3925 70.718 12.028 71.1721 11.7794C71.6295 11.5308 72.1449 11.4065 72.7183 11.4065C73.2883 11.4065 73.7954 11.5209 74.2396 11.7496C74.687 11.9749 75.0516 12.2898 75.3333 12.6942C75.615 13.0985 75.7973 13.5642 75.8802 14.0912H74.6671C74.5544 13.6338 74.3357 13.2543 74.0109 12.9527C73.6861 12.6511 73.2552 12.5003 72.7183 12.5003C71.9294 12.5003 71.308 12.8433 70.8539 13.5294C70.4032 14.2155 70.1761 15.1783 70.1728 16.4179H70.2524C70.438 16.1362 70.6584 15.8959 70.9136 15.697C71.1721 15.4948 71.4571 15.339 71.7687 15.2297C72.0802 15.1203 72.41 15.0656 72.758 15.0656C73.3414 15.0656 73.875 15.2114 74.3589 15.5031C74.8428 15.7915 75.2306 16.1908 75.5222 16.7013C75.8139 17.2084 75.9597 17.79 75.9597 18.4463C75.9597 19.076 75.8189 19.6527 75.5372 20.1764C75.2554 20.6968 74.8594 21.1111 74.3489 21.4193C73.8418 21.7242 73.2453 21.8734 72.5592 21.8667ZM72.5592 20.773C72.9768 20.773 73.3513 20.6686 73.6828 20.4598C74.0175 20.251 74.281 19.9709 74.4732 19.6196C74.6688 19.2683 74.7666 18.8772 74.7666 18.4463C74.7666 18.0254 74.6721 17.6425 74.4832 17.2979C74.2976 16.9498 74.0407 16.6731 73.7126 16.4676C73.3878 16.2621 73.0166 16.1594 72.5989 16.1594C72.2841 16.1594 71.9908 16.2223 71.719 16.3483C71.4472 16.4709 71.2086 16.6399 71.0031 16.8554C70.8009 17.0708 70.6418 17.3177 70.5258 17.5961C70.4098 17.8712 70.3518 18.1613 70.3518 18.4662C70.3518 18.8705 70.4462 19.2484 70.6352 19.5997C70.8274 19.951 71.0892 20.2344 71.4207 20.4498C71.7554 20.6653 72.1349 20.773 72.5592 20.773ZM78.5114 21.7275H77.2188L80.9574 11.5457H82.2302L85.9688 21.7275H84.6762L81.6336 13.1565H81.554L78.5114 21.7275ZM78.9887 17.7503H84.1989V18.844H78.9887V17.7503ZM90.6968 21.7275H87.5547V11.5457H90.836C91.8237 11.5457 92.6688 11.7496 93.3715 12.1572C94.0741 12.5616 94.6127 13.1433 94.9873 13.9023C95.3618 14.6579 95.5491 15.5628 95.5491 16.6167C95.5491 17.6773 95.3601 18.5905 94.9823 19.3561C94.6044 20.1184 94.0543 20.705 93.3317 21.116C92.6092 21.5237 91.7309 21.7275 90.6968 21.7275ZM88.7877 20.6338H90.6172C91.4591 20.6338 92.1568 20.4714 92.7103 20.1466C93.2638 19.8218 93.6764 19.3594 93.9482 18.7595C94.22 18.1596 94.3559 17.4453 94.3559 16.6167C94.3559 15.7948 94.2216 15.0872 93.9532 14.4939C93.6847 13.8973 93.2837 13.4399 92.75 13.1217C92.2164 12.8002 91.5519 12.6395 90.7564 12.6395H88.7877V20.6338ZM105.81 14.7275H104.577C104.505 14.3729 104.377 14.0613 104.195 13.7929C104.016 13.5244 103.797 13.299 103.538 13.1167C103.283 12.9311 103 12.7919 102.688 12.6991C102.377 12.6063 102.052 12.5599 101.714 12.5599C101.097 12.5599 100.539 12.7157 100.038 13.0273C99.5412 13.3388 99.1452 13.7979 98.8502 14.4044C98.5585 15.0109 98.4127 15.755 98.4127 16.6366C98.4127 17.5183 98.5585 18.2623 98.8502 18.8689C99.1452 19.4754 99.5412 19.9345 100.038 20.246C100.539 20.5576 101.097 20.7133 101.714 20.7133C102.052 20.7133 102.377 20.6669 102.688 20.5741C103 20.4813 103.283 20.3438 103.538 20.1615C103.797 19.9759 104.016 19.7488 104.195 19.4804C104.377 19.2086 104.505 18.897 104.577 18.5457H105.81C105.718 19.0661 105.549 19.5318 105.303 19.9427C105.058 20.3537 104.753 20.7034 104.389 20.9917C104.024 21.2768 103.615 21.4939 103.161 21.643C102.71 21.7922 102.228 21.8667 101.714 21.8667C100.845 21.8667 100.073 21.6546 99.3971 21.2304C98.7209 20.8061 98.189 20.2029 97.8012 19.4207C97.4134 18.6385 97.2195 17.7105 97.2195 16.6366C97.2195 15.5628 97.4134 14.6347 97.8012 13.8525C98.189 13.0703 98.7209 12.4671 99.3971 12.0429C100.073 11.6186 100.845 11.4065 101.714 11.4065C102.228 11.4065 102.71 11.4811 103.161 11.6302C103.615 11.7794 104.024 11.9981 104.389 12.2865C104.753 12.5715 105.058 12.9195 105.303 13.3305C105.549 13.7382 105.718 14.2039 105.81 14.7275Z" fill="#451E11"/>
</g>
<rect width="102" height="1" transform="translate(37.855 28.7275)" fill="#846358"/>
<rect x="435.855" y="5.22754" width="46" height="24" rx="12" fill="#BFA094"/>
<g filter="url(#filter0_d_30023_64748)">
<g clip-path="url(#clip1_30023_64748)">
<rect x="437.855" y="8.22754" width="18" height="18" rx="9" fill="#FDFCFC"/>
</g>
</g>
<g clip-path="url(#clip2_30023_64748)">
<path d="M467.855 21.2276C465.646 21.2276 463.855 19.4368 463.855 17.2276C463.855 15.0185 465.646 13.2276 467.855 13.2276C470.064 13.2276 471.855 15.0185 471.855 17.2276C471.855 19.4368 470.064 21.2276 467.855 21.2276ZM467.189 9.89429H468.522V11.8943H467.189V9.89429ZM467.189 22.561H468.522V24.561H467.189V22.561ZM462.198 12.5136L463.141 11.5708L464.555 12.985L463.613 13.9278L462.198 12.5136ZM471.155 21.4703L472.098 20.5274L473.512 21.9417L472.569 22.8845L471.155 21.4703ZM472.569 11.5708L473.512 12.5136L472.098 13.9278L471.155 12.985L472.569 11.5708ZM463.613 20.5274L464.555 21.4703L463.141 22.8845L462.198 21.9417L463.613 20.5274ZM475.189 16.561V17.8943H473.189V16.561H475.189ZM462.522 16.561V17.8943H460.522V16.561H462.522Z" fill="#FEFCFB"/>
</g>
<defs>
<filter id="filter0_d_30023_64748" x="433.855" y="6.22754" width="26" height="26" filterUnits="userSpaceOnUse" color-interpolation-filters="sRGB">
<feFlood flood-opacity="0" result="BackgroundImageFix"/>
<feColorMatrix in="SourceAlpha" type="matrix" values="0 0 0 0 0 0 0 0 0 0 0 0 0 0 0 0 0 0 127 0" result="hardAlpha"/>
<feOffset dy="2"/>
<feGaussianBlur stdDeviation="2"/>
<feColorMatrix type="matrix" values="0 0 0 0 0 0 0 0 0 0.137255 0 0 0 0 0.0431373 0 0 0 0.2 0"/>
<feBlend mode="normal" in2="BackgroundImageFix" result="effect1_dropShadow_30023_64748"/>
<feBlend mode="normal" in="SourceGraphic" in2="effect1_dropShadow_30023_64748" result="shape"/>
</filter>
<clipPath id="clip0_30023_64748">
<rect width="102" height="24" fill="white" transform="translate(37.855 4.72754)"/>
</clipPath>
<clipPath id="clip1_30023_64748">
<rect x="437.855" y="8.22754" width="18" height="18" rx="9" fill="white"/>
</clipPath>
<clipPath id="clip2_30023_64748">
<rect width="16" height="16" fill="white" transform="translate(459.855 9.22748)"/>
</clipPath>
</defs>
</svg>
