<svg width="485" height="220" viewBox="0 0 485 220" fill="none" xmlns="http://www.w3.org/2000/svg">
<rect x="1.85498" y="1.72754" width="482" height="217" rx="11" fill="#FDFCFC"/>
<rect x="1.85498" y="1.72754" width="482" height="217" rx="11" stroke="#F2E8E4" stroke-width="2"/>
<rect x="36.855" y="59.9932" width="43" height="24" rx="12" fill="#12A594"/>
<circle cx="67.855" cy="71.9932" r="10" fill="#FDFCFE"/>
<path d="M40.3562 111.262L37.1794 99.8075H38.9971L41.2287 108.678H41.335L43.6561 99.8075H45.4571L47.7782 108.684H47.8845L50.1105 99.8075H51.9338L48.7514 111.262H47.0119L44.6013 102.682H44.5119L42.1013 111.262H40.3562ZM56.3108 111.435C55.4644 111.435 54.7354 111.255 54.1239 110.893C53.5162 110.528 53.0463 110.015 52.7145 109.355C52.3864 108.691 52.2223 107.914 52.2223 107.023C52.2223 106.143 52.3864 105.367 52.7145 104.696C53.0463 104.025 53.5087 103.501 54.1016 103.124C54.6982 102.748 55.3954 102.559 56.1934 102.559C56.6781 102.559 57.1479 102.639 57.6028 102.8C58.0577 102.96 58.466 103.212 58.8277 103.555C59.1894 103.898 59.4746 104.343 59.6834 104.892C59.8922 105.436 59.9966 106.098 59.9966 106.877V107.47H53.1675V106.217H58.3579C58.3579 105.777 58.2684 105.388 58.0894 105.048C57.9104 104.705 57.6587 104.435 57.3343 104.237C57.0137 104.04 56.6371 103.941 56.2045 103.941C55.7347 103.941 55.3246 104.056 54.9741 104.288C54.6273 104.515 54.3588 104.813 54.1687 105.182C53.9822 105.548 53.889 105.945 53.889 106.374V107.353C53.889 107.927 53.9897 108.415 54.1911 108.818C54.3961 109.221 54.6814 109.528 55.0468 109.741C55.4122 109.95 55.8391 110.054 56.3276 110.054C56.6445 110.054 56.9335 110.009 57.1945 109.92C57.4555 109.827 57.6811 109.689 57.8713 109.506C58.0614 109.323 58.2069 109.098 58.3075 108.829L59.8904 109.114C59.7636 109.58 59.5361 109.989 59.208 110.339C58.8836 110.686 58.4753 110.956 57.9831 111.15C57.4947 111.34 56.9372 111.435 56.3108 111.435ZM62.0651 111.262V99.8075H63.7374V104.064H63.8381C63.935 103.885 64.0749 103.678 64.2576 103.443C64.4403 103.208 64.6938 103.003 65.0182 102.828C65.3426 102.649 65.7714 102.559 66.3046 102.559C66.9982 102.559 67.6171 102.735 68.1615 103.085C68.7059 103.436 69.1328 103.941 69.4423 104.601C69.7555 105.261 69.9121 106.055 69.9121 106.983C69.9121 107.912 69.7574 108.708 69.4479 109.372C69.1384 110.032 68.7134 110.541 68.1727 110.899C67.632 111.253 67.0149 111.43 66.3214 111.43C65.7994 111.43 65.3725 111.342 65.0406 111.167C64.7125 110.992 64.4552 110.787 64.2688 110.552C64.0823 110.317 63.9388 110.108 63.8381 109.925H63.6983V111.262H62.0651ZM63.7039 106.967C63.7039 107.571 63.7915 108.1 63.9667 108.555C64.142 109.01 64.3955 109.366 64.7274 109.623C65.0592 109.877 65.4657 110.004 65.9467 110.004C66.4463 110.004 66.8639 109.871 67.1995 109.607C67.5351 109.338 67.7886 108.975 67.9602 108.516C68.1354 108.057 68.223 107.541 68.223 106.967C68.223 106.4 68.1373 105.891 67.9658 105.44C67.798 104.989 67.5444 104.632 67.2051 104.371C66.8695 104.11 66.45 103.98 65.9467 103.98C65.4619 103.98 65.0518 104.105 64.7162 104.355C64.3844 104.605 64.1327 104.953 63.9611 105.401C63.7896 105.848 63.7039 106.37 63.7039 106.967ZM73.5411 106.161V111.262H71.8688V99.8075H73.5187V104.069H73.625C73.8263 103.607 74.1339 103.24 74.5478 102.968C74.9617 102.695 75.5024 102.559 76.1698 102.559C76.7589 102.559 77.2735 102.68 77.7135 102.923C78.1572 103.165 78.5002 103.527 78.7426 104.008C78.9887 104.485 79.1117 105.082 79.1117 105.798V111.262H77.4394V105.999C77.4394 105.369 77.2772 104.88 76.9528 104.534C76.6284 104.183 76.1773 104.008 75.5993 104.008C75.2041 104.008 74.8498 104.092 74.5366 104.26C74.2272 104.427 73.9829 104.673 73.8039 104.998C73.6287 105.319 73.5411 105.706 73.5411 106.161ZM85.0408 111.435C84.2354 111.435 83.5326 111.251 82.9322 110.882C82.3319 110.513 81.8658 109.996 81.534 109.332C81.2021 108.669 81.0362 107.893 81.0362 107.006C81.0362 106.115 81.2021 105.335 81.534 104.668C81.8658 104 82.3319 103.482 82.9322 103.113C83.5326 102.744 84.2354 102.559 85.0408 102.559C85.8462 102.559 86.5491 102.744 87.1494 103.113C87.7497 103.482 88.2158 104 88.5476 104.668C88.8795 105.335 89.0454 106.115 89.0454 107.006C89.0454 107.893 88.8795 108.669 88.5476 109.332C88.2158 109.996 87.7497 110.513 87.1494 110.882C86.5491 111.251 85.8462 111.435 85.0408 111.435ZM85.0464 110.032C85.5684 110.032 86.0009 109.894 86.344 109.618C86.687 109.342 86.9406 108.975 87.1046 108.516C87.2724 108.057 87.3563 107.552 87.3563 107C87.3563 106.452 87.2724 105.949 87.1046 105.49C86.9406 105.028 86.687 104.657 86.344 104.377C86.0009 104.097 85.5684 103.958 85.0464 103.958C84.5207 103.958 84.0844 104.097 83.7376 104.377C83.3946 104.657 83.1392 105.028 82.9714 105.49C82.8073 105.949 82.7253 106.452 82.7253 107C82.7253 107.552 82.8073 108.057 82.9714 108.516C83.1392 108.975 83.3946 109.342 83.7376 109.618C84.0844 109.894 84.5207 110.032 85.0464 110.032ZM94.6095 111.435C93.8041 111.435 93.1013 111.251 92.501 110.882C91.9007 110.513 91.4346 109.996 91.1027 109.332C90.7709 108.669 90.6049 107.893 90.6049 107.006C90.6049 106.115 90.7709 105.335 91.1027 104.668C91.4346 104 91.9007 103.482 92.501 103.113C93.1013 102.744 93.8041 102.559 94.6095 102.559C95.4149 102.559 96.1178 102.744 96.7181 103.113C97.3184 103.482 97.7845 104 98.1164 104.668C98.4482 105.335 98.6142 106.115 98.6142 107.006C98.6142 107.893 98.4482 108.669 98.1164 109.332C97.7845 109.996 97.3184 110.513 96.7181 110.882C96.1178 111.251 95.4149 111.435 94.6095 111.435ZM94.6151 110.032C95.1372 110.032 95.5697 109.894 95.9127 109.618C96.2558 109.342 96.5093 108.975 96.6734 108.516C96.8412 108.057 96.9251 107.552 96.9251 107C96.9251 106.452 96.8412 105.949 96.6734 105.49C96.5093 105.028 96.2558 104.657 95.9127 104.377C95.5697 104.097 95.1372 103.958 94.6151 103.958C94.0894 103.958 93.6531 104.097 93.3064 104.377C92.9633 104.657 92.7079 105.028 92.5401 105.49C92.3761 105.949 92.294 106.452 92.294 107C92.294 107.552 92.3761 108.057 92.5401 108.516C92.7079 108.975 92.9633 109.342 93.3064 109.618C93.6531 109.894 94.0894 110.032 94.6151 110.032ZM102.098 108.348L102.086 106.307H102.377L105.8 102.671H107.803L103.899 106.81H103.636L102.098 108.348ZM100.56 111.262V99.8075H102.232V111.262H100.56ZM105.985 111.262L102.909 107.179L104.061 106.01L108.037 111.262H105.985ZM123.032 99.8075V111.262H121.443L115.621 102.861H115.515V111.262H113.787V99.8075H115.386L121.214 108.219H121.32V99.8075H123.032ZM129.116 111.435C128.311 111.435 127.608 111.251 127.008 110.882C126.407 110.513 125.941 109.996 125.609 109.332C125.278 108.669 125.112 107.893 125.112 107.006C125.112 106.115 125.278 105.335 125.609 104.668C125.941 104 126.407 103.482 127.008 103.113C127.608 102.744 128.311 102.559 129.116 102.559C129.922 102.559 130.624 102.744 131.225 103.113C131.825 103.482 132.291 104 132.623 104.668C132.955 105.335 133.121 106.115 133.121 107.006C133.121 107.893 132.955 108.669 132.623 109.332C132.291 109.996 131.825 110.513 131.225 110.882C130.624 111.251 129.922 111.435 129.116 111.435ZM129.122 110.032C129.644 110.032 130.076 109.894 130.419 109.618C130.762 109.342 131.016 108.975 131.18 108.516C131.348 108.057 131.432 107.552 131.432 107C131.432 106.452 131.348 105.949 131.18 105.49C131.016 105.028 130.762 104.657 130.419 104.377C130.076 104.097 129.644 103.958 129.122 103.958C128.596 103.958 128.16 104.097 127.813 104.377C127.47 104.657 127.215 105.028 127.047 105.49C126.883 105.949 126.801 106.452 126.801 107C126.801 107.552 126.883 108.057 127.047 108.516C127.215 108.975 127.47 109.342 127.813 109.618C128.16 109.894 128.596 110.032 129.122 110.032ZM139.076 102.671V104.014H134.384V102.671H139.076ZM135.642 100.613H137.315V108.74C137.315 109.064 137.363 109.308 137.46 109.472C137.557 109.633 137.682 109.743 137.835 109.802C137.991 109.858 138.161 109.886 138.344 109.886C138.478 109.886 138.595 109.877 138.696 109.858C138.797 109.84 138.875 109.825 138.931 109.813L139.233 111.195C139.136 111.232 138.998 111.27 138.819 111.307C138.64 111.348 138.416 111.37 138.148 111.374C137.708 111.381 137.298 111.303 136.918 111.139C136.537 110.975 136.23 110.721 135.995 110.378C135.76 110.035 135.642 109.605 135.642 109.086V100.613ZM141.005 111.262V102.671H142.677V111.262H141.005ZM141.85 101.346C141.559 101.346 141.309 101.249 141.1 101.055C140.895 100.857 140.793 100.622 140.793 100.35C140.793 100.074 140.895 99.8392 141.1 99.6453C141.309 99.4477 141.559 99.3489 141.85 99.3489C142.14 99.3489 142.388 99.4477 142.594 99.6453C142.802 99.8392 142.907 100.074 142.907 100.35C142.907 100.622 142.802 100.857 142.594 101.055C142.388 101.249 142.14 101.346 141.85 101.346ZM149.094 102.671V104.014H144.24V102.671H149.094ZM145.571 111.262V101.676C145.571 101.139 145.688 100.693 145.923 100.339C146.158 99.9809 146.469 99.7143 146.857 99.5391C147.245 99.3601 147.666 99.2706 148.121 99.2706C148.457 99.2706 148.744 99.2986 148.983 99.3545C149.221 99.4067 149.398 99.4552 149.514 99.4999L149.122 100.853C149.044 100.831 148.943 100.805 148.82 100.775C148.697 100.742 148.548 100.725 148.373 100.725C147.967 100.725 147.676 100.825 147.5 101.027C147.329 101.228 147.243 101.519 147.243 101.899V111.262H145.571ZM150.899 111.262V102.671H152.571V111.262H150.899ZM151.743 101.346C151.452 101.346 151.203 101.249 150.994 101.055C150.789 100.857 150.686 100.622 150.686 100.35C150.686 100.074 150.789 99.8392 150.994 99.6453C151.203 99.4477 151.452 99.3489 151.743 99.3489C152.034 99.3489 152.282 99.4477 152.487 99.6453C152.696 99.8392 152.8 100.074 152.8 100.35C152.8 100.622 152.696 100.857 152.487 101.055C152.282 101.249 152.034 101.346 151.743 101.346ZM158.518 111.435C157.687 111.435 156.971 111.247 156.371 110.871C155.774 110.49 155.315 109.966 154.995 109.299C154.674 108.631 154.514 107.867 154.514 107.006C154.514 106.133 154.678 105.363 155.006 104.696C155.334 104.025 155.796 103.501 156.393 103.124C156.989 102.748 157.692 102.559 158.501 102.559C159.154 102.559 159.736 102.68 160.246 102.923C160.757 103.161 161.169 103.497 161.483 103.93C161.8 104.362 161.988 104.867 162.047 105.445H160.42C160.33 105.043 160.125 104.696 159.805 104.405C159.488 104.114 159.063 103.969 158.529 103.969C158.063 103.969 157.655 104.092 157.305 104.338C156.958 104.58 156.687 104.927 156.494 105.378C156.3 105.826 156.203 106.355 156.203 106.967C156.203 107.593 156.298 108.134 156.488 108.589C156.678 109.044 156.947 109.396 157.293 109.646C157.644 109.896 158.056 110.02 158.529 110.02C158.846 110.02 159.133 109.963 159.391 109.847C159.652 109.728 159.87 109.558 160.045 109.338C160.224 109.118 160.349 108.853 160.42 108.544H162.047C161.988 109.099 161.807 109.595 161.505 110.032C161.203 110.468 160.798 110.811 160.291 111.061C159.788 111.311 159.197 111.435 158.518 111.435ZM166.415 111.452C165.87 111.452 165.378 111.352 164.938 111.15C164.498 110.945 164.149 110.649 163.892 110.261C163.639 109.873 163.512 109.398 163.512 108.835C163.512 108.35 163.605 107.951 163.792 107.638C163.978 107.325 164.23 107.077 164.547 106.894C164.864 106.711 165.218 106.573 165.609 106.48C166.001 106.387 166.4 106.316 166.806 106.268C167.321 106.208 167.738 106.159 168.059 106.122C168.38 106.081 168.613 106.016 168.758 105.926C168.904 105.837 168.976 105.691 168.976 105.49V105.451C168.976 104.962 168.838 104.584 168.562 104.316C168.29 104.047 167.884 103.913 167.343 103.913C166.78 103.913 166.336 104.038 166.012 104.288C165.691 104.534 165.469 104.808 165.346 105.11L163.775 104.752C163.961 104.23 164.233 103.808 164.591 103.488C164.953 103.163 165.369 102.928 165.839 102.783C166.308 102.634 166.802 102.559 167.321 102.559C167.664 102.559 168.027 102.6 168.411 102.682C168.799 102.761 169.161 102.906 169.496 103.119C169.836 103.331 170.114 103.635 170.33 104.03C170.546 104.422 170.654 104.931 170.654 105.557V111.262H169.021V110.088H168.954C168.846 110.304 168.684 110.516 168.467 110.725C168.251 110.934 167.973 111.107 167.634 111.245C167.295 111.383 166.888 111.452 166.415 111.452ZM166.778 110.11C167.241 110.11 167.636 110.019 167.964 109.836C168.296 109.653 168.547 109.415 168.719 109.12C168.894 108.822 168.982 108.503 168.982 108.164V107.056C168.922 107.116 168.807 107.172 168.635 107.224C168.467 107.272 168.275 107.315 168.059 107.353C167.843 107.386 167.632 107.418 167.427 107.448C167.222 107.474 167.05 107.496 166.912 107.515C166.588 107.556 166.292 107.625 166.023 107.722C165.758 107.819 165.546 107.958 165.386 108.141C165.229 108.32 165.151 108.559 165.151 108.857C165.151 109.271 165.304 109.584 165.609 109.797C165.915 110.006 166.305 110.11 166.778 110.11ZM176.971 102.671V104.014H172.278V102.671H176.971ZM173.536 100.613H175.209V108.74C175.209 109.064 175.257 109.308 175.354 109.472C175.451 109.633 175.576 109.743 175.729 109.802C175.886 109.858 176.055 109.886 176.238 109.886C176.372 109.886 176.49 109.877 176.59 109.858C176.691 109.84 176.769 109.825 176.825 109.813L177.127 111.195C177.03 111.232 176.892 111.27 176.713 111.307C176.534 111.348 176.311 111.37 176.042 111.374C175.602 111.381 175.192 111.303 174.812 111.139C174.431 110.975 174.124 110.721 173.889 110.378C173.654 110.035 173.536 109.605 173.536 109.086V100.613ZM178.899 111.262V102.671H180.572V111.262H178.899ZM179.744 101.346C179.453 101.346 179.203 101.249 178.994 101.055C178.789 100.857 178.687 100.622 178.687 100.35C178.687 100.074 178.789 99.8392 178.994 99.6453C179.203 99.4477 179.453 99.3489 179.744 99.3489C180.035 99.3489 180.283 99.4477 180.488 99.6453C180.696 99.8392 180.801 100.074 180.801 100.35C180.801 100.622 180.696 100.857 180.488 101.055C180.283 101.249 180.035 101.346 179.744 101.346ZM186.519 111.435C185.713 111.435 185.011 111.251 184.41 110.882C183.81 110.513 183.344 109.996 183.012 109.332C182.68 108.669 182.514 107.893 182.514 107.006C182.514 106.115 182.68 105.335 183.012 104.668C183.344 104 183.81 103.482 184.41 103.113C185.011 102.744 185.713 102.559 186.519 102.559C187.324 102.559 188.027 102.744 188.627 103.113C189.228 103.482 189.694 104 190.026 104.668C190.357 105.335 190.523 106.115 190.523 107.006C190.523 107.893 190.357 108.669 190.026 109.332C189.694 109.996 189.228 110.513 188.627 110.882C188.027 111.251 187.324 111.435 186.519 111.435ZM186.524 110.032C187.046 110.032 187.479 109.894 187.822 109.618C188.165 109.342 188.419 108.975 188.583 108.516C188.75 108.057 188.834 107.552 188.834 107C188.834 106.452 188.75 105.949 188.583 105.49C188.419 105.028 188.165 104.657 187.822 104.377C187.479 104.097 187.046 103.958 186.524 103.958C185.999 103.958 185.562 104.097 185.216 104.377C184.873 104.657 184.617 105.028 184.449 105.49C184.285 105.949 184.203 106.452 184.203 107C184.203 107.552 184.285 108.057 184.449 108.516C184.617 108.975 184.873 109.342 185.216 109.618C185.562 109.894 185.999 110.032 186.524 110.032ZM194.141 106.161V111.262H192.469V102.671H194.074V104.069H194.18C194.378 103.615 194.687 103.249 195.109 102.973C195.534 102.697 196.069 102.559 196.714 102.559C197.299 102.559 197.812 102.682 198.252 102.928C198.692 103.171 199.033 103.533 199.276 104.014C199.518 104.495 199.639 105.089 199.639 105.798V111.262H197.967V105.999C197.967 105.376 197.805 104.89 197.48 104.539C197.156 104.185 196.71 104.008 196.143 104.008C195.756 104.008 195.411 104.092 195.109 104.26C194.81 104.427 194.574 104.673 194.398 104.998C194.227 105.319 194.141 105.706 194.141 106.161Z" fill="#451E11"/>
<rect x="37.3713" y="127.047" width="251.751" height="32.8982" rx="3.61433" fill="#FDFCFC"/>
<rect x="37.3713" y="127.047" width="251.751" height="32.8982" rx="3.61433" stroke="#BFA094" stroke-width="1.03267"/>
<g clip-path="url(#clip0_30038_69189)">
<path d="M55.8974 148.997V145.014C55.8974 144.58 55.8565 144.182 55.7746 143.821C55.6926 143.455 55.5601 143.137 55.377 142.867C55.1987 142.592 54.9649 142.38 54.6758 142.231C54.3915 142.081 54.0445 142.006 53.6349 142.006C53.259 142.006 52.9265 142.072 52.6373 142.202C52.353 142.332 52.112 142.52 51.9144 142.765C51.7217 143.006 51.5747 143.3 51.4735 143.647C51.3723 143.994 51.3217 144.39 51.3217 144.833L50.5699 144.667C50.5699 143.867 50.7097 143.194 50.9892 142.65C51.2687 142.105 51.6542 141.693 52.1458 141.414C52.6373 141.134 53.2011 140.994 53.8373 140.994C54.3047 140.994 54.7119 141.067 55.0589 141.211C55.4107 141.356 55.7071 141.551 55.948 141.797C56.1938 142.043 56.3914 142.325 56.5408 142.643C56.6902 142.956 56.7986 143.291 56.8661 143.647C56.9335 143.999 56.9673 144.351 56.9673 144.703V148.997H55.8974ZM50.2519 148.997V138.587H51.2133V144.464H51.3217V148.997H50.2519ZM63.6099 148.997C63.1714 149.088 62.7376 149.124 62.3087 149.105C61.8847 149.086 61.504 148.994 61.1666 148.83C60.8341 148.666 60.5811 148.411 60.4076 148.064C60.2679 147.775 60.1907 147.483 60.1763 147.189C60.1667 146.891 60.1618 146.551 60.1618 146.17V139.021H61.2172V146.127C61.2172 146.455 61.2196 146.729 61.2244 146.951C61.2341 147.168 61.2847 147.36 61.3762 147.529C61.5497 147.852 61.8244 148.045 62.2003 148.107C62.581 148.17 63.0509 148.156 63.6099 148.064V148.997ZM58.492 142.1V141.19H63.6099V142.1H58.492ZM68.5326 148.997C68.0941 149.088 67.6604 149.124 67.2315 149.105C66.8074 149.086 66.4267 148.994 66.0893 148.83C65.7568 148.666 65.5038 148.411 65.3303 148.064C65.1906 147.775 65.1135 147.483 65.099 147.189C65.0894 146.891 65.0846 146.551 65.0846 146.17V139.021H66.1399V146.127C66.1399 146.455 66.1423 146.729 66.1472 146.951C66.1568 147.168 66.2074 147.36 66.299 147.529C66.4725 147.852 66.7471 148.045 67.123 148.107C67.5037 148.17 67.9736 148.156 68.5326 148.064V148.997ZM63.4147 142.1V141.19H68.5326V142.1H63.4147ZM74.0976 149.213C73.3796 149.213 72.7724 149.033 72.276 148.671C71.7796 148.305 71.4037 147.811 71.1483 147.189C70.8929 146.563 70.7652 145.862 70.7652 145.086C70.7652 144.296 70.8929 143.592 71.1483 142.975C71.4086 142.353 71.7893 141.864 72.2904 141.508C72.7916 141.151 73.4085 140.973 74.141 140.973C74.8542 140.973 75.4662 141.153 75.9771 141.515C76.4879 141.876 76.8782 142.368 77.1481 142.99C77.4228 143.611 77.5601 144.31 77.5601 145.086C77.5601 145.867 77.4228 146.568 77.1481 147.189C76.8734 147.811 76.4783 148.305 75.9626 148.671C75.447 149.033 74.8253 149.213 74.0976 149.213ZM70.5845 152.466V141.19H71.5387V147.067H71.6543V152.466H70.5845ZM73.9892 148.223C74.5337 148.223 74.9867 148.086 75.3482 147.811C75.7096 147.536 75.9795 147.163 76.1578 146.691C76.3409 146.214 76.4325 145.679 76.4325 145.086C76.4325 144.498 76.3433 143.968 76.165 143.496C75.9867 143.023 75.7144 142.65 75.3482 142.375C74.9867 142.1 74.5265 141.963 73.9675 141.963C73.4229 141.963 72.9699 142.096 72.6085 142.361C72.2519 142.626 71.9844 142.994 71.8061 143.467C71.6278 143.934 71.5387 144.474 71.5387 145.086C71.5387 145.688 71.6278 146.228 71.8061 146.705C71.9844 147.177 72.2543 147.548 72.6157 147.818C72.9772 148.088 73.435 148.223 73.9892 148.223ZM82.5064 149.206C81.5908 149.206 80.8366 149.009 80.2438 148.613C79.6559 148.218 79.2945 147.669 79.1595 146.965L80.2438 146.785C80.3595 147.228 80.6221 147.582 81.0318 147.847C81.4462 148.107 81.957 148.238 82.5642 148.238C83.157 148.238 83.6244 148.115 83.9666 147.869C84.3088 147.618 84.4798 147.279 84.4798 146.85C84.4798 146.609 84.4244 146.414 84.3136 146.264C84.2076 146.11 83.9883 145.968 83.6558 145.838C83.3232 145.708 82.8269 145.553 82.1667 145.375C81.4582 145.182 80.9041 144.989 80.5041 144.797C80.1041 144.604 79.8198 144.382 79.6511 144.132C79.4824 143.876 79.3981 143.565 79.3981 143.199C79.3981 142.756 79.5234 142.368 79.774 142.035C80.0246 141.698 80.3715 141.438 80.8149 141.255C81.2583 141.067 81.7739 140.973 82.3618 140.973C82.9498 140.973 83.475 141.069 83.9377 141.262C84.4051 141.45 84.781 141.715 85.0654 142.057C85.3497 142.399 85.5183 142.797 85.5714 143.25L84.4871 143.445C84.4148 142.987 84.1859 142.626 83.8003 142.361C83.4196 142.091 82.9353 141.951 82.3474 141.941C81.7932 141.927 81.3426 142.033 80.9956 142.259C80.6486 142.481 80.4752 142.778 80.4752 143.149C80.4752 143.356 80.5378 143.534 80.6631 143.684C80.7884 143.828 81.0149 143.965 81.3426 144.096C81.6751 144.226 82.1474 144.368 82.7594 144.522C83.4775 144.705 84.0413 144.898 84.4509 145.1C84.8605 145.303 85.1521 145.541 85.3256 145.816C85.4991 146.091 85.5858 146.43 85.5858 146.835C85.5858 147.573 85.3111 148.153 84.7617 148.577C84.2172 148.997 83.4654 149.206 82.5064 149.206ZM88.2836 147.84V146.604H89.5197V147.84H88.2836ZM88.2909 143.582V142.346H89.527V143.582H88.2909ZM94.0154 138.587H95.107L92.3312 148.997H91.2396L94.0154 138.587ZM98.1179 138.587H99.2094L96.4336 148.997H95.3421L98.1179 138.587ZM107.246 148.997V145.014C107.246 144.58 107.205 144.182 107.123 143.821C107.042 143.455 106.909 143.137 106.726 142.867C106.548 142.592 106.314 142.38 106.025 142.231C105.74 142.081 105.393 142.006 104.984 142.006C104.608 142.006 104.275 142.072 103.986 142.202C103.702 142.332 103.461 142.52 103.263 142.765C103.071 143.006 102.924 143.3 102.822 143.647C102.721 143.994 102.671 144.39 102.671 144.833L101.919 144.667C101.919 143.867 102.059 143.194 102.338 142.65C102.618 142.105 103.003 141.693 103.495 141.414C103.986 141.134 104.55 140.994 105.186 140.994C105.654 140.994 106.061 141.067 106.408 141.211C106.76 141.356 107.056 141.551 107.297 141.797C107.543 142.043 107.74 142.325 107.89 142.643C108.039 142.956 108.148 143.291 108.215 143.647C108.282 143.999 108.316 144.351 108.316 144.703V148.997H107.246ZM101.601 148.997V138.587H102.562V144.464H102.671V148.997H101.601ZM113.968 149.213C113.193 149.213 112.53 149.038 111.981 148.686C111.431 148.334 111.01 147.847 110.716 147.226C110.422 146.604 110.275 145.891 110.275 145.086C110.275 144.267 110.424 143.549 110.723 142.932C111.022 142.315 111.446 141.835 111.995 141.493C112.549 141.146 113.207 140.973 113.968 140.973C114.749 140.973 115.414 141.149 115.964 141.5C116.518 141.847 116.939 142.332 117.229 142.953C117.523 143.57 117.67 144.281 117.67 145.086C117.67 145.905 117.523 146.626 117.229 147.247C116.935 147.864 116.511 148.346 115.956 148.693C115.402 149.04 114.74 149.213 113.968 149.213ZM113.968 148.194C114.836 148.194 115.482 147.907 115.906 147.334C116.33 146.756 116.542 146.006 116.542 145.086C116.542 144.141 116.327 143.39 115.899 142.831C115.474 142.272 114.831 141.992 113.968 141.992C113.385 141.992 112.903 142.125 112.523 142.39C112.147 142.65 111.865 143.014 111.677 143.481C111.494 143.944 111.402 144.479 111.402 145.086C111.402 146.026 111.619 146.78 112.053 147.348C112.487 147.912 113.125 148.194 113.968 148.194ZM123.041 149.213C122.265 149.213 121.602 149.038 121.053 148.686C120.503 148.334 120.082 147.847 119.788 147.226C119.494 146.604 119.347 145.891 119.347 145.086C119.347 144.267 119.496 143.549 119.795 142.932C120.094 142.315 120.518 141.835 121.067 141.493C121.621 141.146 122.279 140.973 123.041 140.973C123.821 140.973 124.486 141.149 125.036 141.5C125.59 141.847 126.012 142.332 126.301 142.953C126.595 143.57 126.742 144.281 126.742 145.086C126.742 145.905 126.595 146.626 126.301 147.247C126.007 147.864 125.583 148.346 125.029 148.693C124.474 149.04 123.812 149.213 123.041 149.213ZM123.041 148.194C123.908 148.194 124.554 147.907 124.978 147.334C125.402 146.756 125.614 146.006 125.614 145.086C125.614 144.141 125.4 143.39 124.971 142.831C124.547 142.272 123.903 141.992 123.041 141.992C122.458 141.992 121.976 142.125 121.595 142.39C121.219 142.65 120.937 143.014 120.749 143.481C120.566 143.944 120.474 144.479 120.474 145.086C120.474 146.026 120.691 146.78 121.125 147.348C121.559 147.912 122.197 148.194 123.041 148.194ZM128.845 148.997L128.853 138.587H129.922V144.949L133.407 141.19H134.824L131.166 145.093L135.301 148.997H133.754L129.922 145.238V148.997H128.845ZM139.313 149.206C138.397 149.206 137.643 149.009 137.051 148.613C136.463 148.218 136.101 147.669 135.966 146.965L137.051 146.785C137.166 147.228 137.429 147.582 137.838 147.847C138.253 148.107 138.764 148.238 139.371 148.238C139.964 148.238 140.431 148.115 140.773 147.869C141.115 147.618 141.287 147.279 141.287 146.85C141.287 146.609 141.231 146.414 141.12 146.264C141.014 146.11 140.795 145.968 140.462 145.838C140.13 145.708 139.634 145.553 138.973 145.375C138.265 145.182 137.711 144.989 137.311 144.797C136.911 144.604 136.626 144.382 136.458 144.132C136.289 143.876 136.205 143.565 136.205 143.199C136.205 142.756 136.33 142.368 136.581 142.035C136.831 141.698 137.178 141.438 137.622 141.255C138.065 141.067 138.581 140.973 139.169 140.973C139.756 140.973 140.282 141.069 140.744 141.262C141.212 141.45 141.588 141.715 141.872 142.057C142.156 142.399 142.325 142.797 142.378 143.25L141.294 143.445C141.221 142.987 140.993 142.626 140.607 142.361C140.226 142.091 139.742 141.951 139.154 141.941C138.6 141.927 138.149 142.033 137.802 142.259C137.455 142.481 137.282 142.778 137.282 143.149C137.282 143.356 137.345 143.534 137.47 143.684C137.595 143.828 137.822 143.965 138.149 144.096C138.482 144.226 138.954 144.368 139.566 144.522C140.284 144.705 140.848 144.898 141.258 145.1C141.667 145.303 141.959 145.541 142.132 145.816C142.306 146.091 142.393 146.43 142.393 146.835C142.393 147.573 142.118 148.153 141.568 148.577C141.024 148.997 140.272 149.206 139.313 149.206ZM144.714 148.997V147.76H145.951V148.997H144.714ZM152.205 149.213C151.487 149.213 150.88 149.033 150.383 148.671C149.887 148.305 149.511 147.811 149.256 147.189C149 146.563 148.873 145.862 148.873 145.086C148.873 144.296 149 143.592 149.256 142.975C149.516 142.353 149.897 141.864 150.398 141.508C150.899 141.151 151.516 140.973 152.248 140.973C152.962 140.973 153.574 141.153 154.085 141.515C154.595 141.876 154.986 142.368 155.256 142.99C155.53 143.611 155.668 144.31 155.668 145.086C155.668 145.867 155.53 146.568 155.256 147.189C154.981 147.811 154.586 148.305 154.07 148.671C153.554 149.033 152.933 149.213 152.205 149.213ZM148.692 152.466V141.19H149.646V147.067H149.762V152.466H148.692ZM152.097 148.223C152.641 148.223 153.094 148.086 153.456 147.811C153.817 147.536 154.087 147.163 154.265 146.691C154.448 146.214 154.54 145.679 154.54 145.086C154.54 144.498 154.451 143.968 154.272 143.496C154.094 143.023 153.822 142.65 153.456 142.375C153.094 142.1 152.634 141.963 152.075 141.963C151.53 141.963 151.077 142.096 150.716 142.361C150.359 142.626 150.092 142.994 149.914 143.467C149.735 143.934 149.646 144.474 149.646 145.086C149.646 145.688 149.735 146.228 149.914 146.705C150.092 147.177 150.362 147.548 150.723 147.818C151.085 148.088 151.542 148.223 152.097 148.223ZM161.075 149.213C160.313 149.213 159.653 149.045 159.094 148.707C158.54 148.37 158.109 147.895 157.8 147.283C157.492 146.671 157.338 145.953 157.338 145.129C157.338 144.276 157.489 143.539 157.793 142.917C158.097 142.296 158.523 141.816 159.072 141.479C159.627 141.141 160.28 140.973 161.031 140.973C161.803 140.973 162.46 141.151 163.005 141.508C163.549 141.859 163.961 142.365 164.241 143.026C164.52 143.686 164.648 144.474 164.624 145.389H163.54V145.014C163.521 144.002 163.301 143.238 162.882 142.722C162.468 142.206 161.86 141.949 161.06 141.949C160.222 141.949 159.578 142.221 159.13 142.765C158.687 143.31 158.465 144.086 158.465 145.093C158.465 146.076 158.687 146.84 159.13 147.385C159.578 147.924 160.212 148.194 161.031 148.194C161.59 148.194 162.077 148.066 162.492 147.811C162.911 147.551 163.241 147.177 163.482 146.691L164.472 147.074C164.164 147.753 163.708 148.281 163.106 148.657C162.509 149.028 161.831 149.213 161.075 149.213ZM158.089 145.389V144.5H164.053V145.389H158.089ZM166.745 148.997V141.19H167.699V143.069L167.511 142.823C167.598 142.592 167.711 142.38 167.851 142.187C167.99 141.99 168.142 141.828 168.306 141.703C168.508 141.525 168.745 141.39 169.014 141.298C169.284 141.202 169.557 141.146 169.831 141.132C170.106 141.113 170.357 141.132 170.583 141.19V142.187C170.299 142.115 169.988 142.098 169.651 142.137C169.313 142.175 169.002 142.31 168.718 142.541C168.458 142.744 168.263 142.987 168.133 143.271C168.002 143.551 167.916 143.85 167.872 144.168C167.829 144.481 167.807 144.792 167.807 145.1V148.997H166.745ZM181.781 148.997L181.788 143.871C181.788 143.269 181.62 142.797 181.282 142.455C180.95 142.108 180.526 141.934 180.01 141.934C179.716 141.934 179.429 142.002 179.15 142.137C178.87 142.272 178.639 142.488 178.456 142.787C178.278 143.086 178.189 143.476 178.189 143.958L177.56 143.777C177.545 143.218 177.654 142.729 177.885 142.31C178.121 141.891 178.444 141.566 178.854 141.334C179.268 141.098 179.735 140.98 180.256 140.98C181.041 140.98 181.67 141.223 182.143 141.71C182.615 142.192 182.851 142.845 182.851 143.669L182.844 148.997H181.781ZM172.463 148.997V141.19H173.418V143.112H173.533V148.997H172.463ZM177.133 148.997L177.14 143.944C177.14 143.322 176.974 142.833 176.642 142.476C176.314 142.115 175.88 141.934 175.34 141.934C174.801 141.934 174.365 142.12 174.032 142.491C173.7 142.857 173.533 143.346 173.533 143.958L172.897 143.611C172.897 143.11 173.015 142.662 173.251 142.267C173.488 141.867 173.81 141.553 174.22 141.327C174.63 141.096 175.095 140.98 175.615 140.98C176.112 140.98 176.552 141.086 176.938 141.298C177.328 141.51 177.634 141.819 177.856 142.223C178.078 142.628 178.189 143.12 178.189 143.698L178.181 148.997H177.133ZM185.386 139.708V138.515H186.449V139.708H185.386ZM185.386 148.997V141.19H186.449V148.997H185.386ZM193.383 148.997C192.944 149.088 192.511 149.124 192.082 149.105C191.658 149.086 191.277 148.994 190.94 148.83C190.607 148.666 190.354 148.411 190.181 148.064C190.041 147.775 189.964 147.483 189.949 147.189C189.94 146.891 189.935 146.551 189.935 146.17V139.021H190.99V146.127C190.99 146.455 190.993 146.729 190.997 146.951C191.007 147.168 191.058 147.36 191.149 147.529C191.323 147.852 191.597 148.045 191.973 148.107C192.354 148.17 192.824 148.156 193.383 148.064V148.997ZM188.265 142.1V141.19H193.383V142.1H188.265ZM195.64 148.997V147.76H196.876V148.997H195.64ZM199.769 139.708V138.515H200.832V139.708H199.769ZM199.769 148.997V141.19H200.832V148.997H199.769ZM206.775 149.213C205.999 149.213 205.337 149.038 204.787 148.686C204.238 148.334 203.816 147.847 203.522 147.226C203.228 146.604 203.081 145.891 203.081 145.086C203.081 144.267 203.231 143.549 203.53 142.932C203.828 142.315 204.253 141.835 204.802 141.493C205.356 141.146 206.014 140.973 206.775 140.973C207.556 140.973 208.221 141.149 208.77 141.5C209.325 141.847 209.746 142.332 210.035 142.953C210.329 143.57 210.476 144.281 210.476 145.086C210.476 145.905 210.329 146.626 210.035 147.247C209.741 147.864 209.317 148.346 208.763 148.693C208.209 149.04 207.546 149.213 206.775 149.213ZM206.775 148.194C207.643 148.194 208.289 147.907 208.713 147.334C209.137 146.756 209.349 146.006 209.349 145.086C209.349 144.141 209.134 143.39 208.705 142.831C208.281 142.272 207.638 141.992 206.775 141.992C206.192 141.992 205.71 142.125 205.33 142.39C204.954 142.65 204.672 143.014 204.484 143.481C204.301 143.944 204.209 144.479 204.209 145.086C204.209 146.026 204.426 146.78 204.86 147.348C205.293 147.912 205.932 148.194 206.775 148.194ZM215.219 138.587H216.31L213.534 148.997H212.443L215.219 138.587ZM221.292 149.213C220.531 149.213 219.871 149.045 219.312 148.707C218.757 148.37 218.326 147.895 218.018 147.283C217.709 146.671 217.555 145.953 217.555 145.129C217.555 144.276 217.707 143.539 218.01 142.917C218.314 142.296 218.74 141.816 219.29 141.479C219.844 141.141 220.497 140.973 221.249 140.973C222.02 140.973 222.678 141.151 223.222 141.508C223.767 141.859 224.179 142.365 224.458 143.026C224.738 143.686 224.866 144.474 224.841 145.389H223.757V145.014C223.738 144.002 223.519 143.238 223.099 142.722C222.685 142.206 222.078 141.949 221.278 141.949C220.439 141.949 219.796 142.221 219.348 142.765C218.904 143.31 218.683 144.086 218.683 145.093C218.683 146.076 218.904 146.84 219.348 147.385C219.796 147.924 220.43 148.194 221.249 148.194C221.808 148.194 222.295 148.066 222.709 147.811C223.128 147.551 223.458 147.177 223.699 146.691L224.69 147.074C224.381 147.753 223.926 148.281 223.323 148.657C222.726 149.028 222.049 149.213 221.292 149.213ZM218.307 145.389V144.5H224.27V145.389H218.307ZM225.812 148.997L228.863 145.05L225.877 141.19H227.149L229.484 144.233L231.797 141.19H233.07L230.084 145.05L233.142 148.997H231.863L229.484 145.867L227.092 148.997H225.812ZM236.771 149.213C236.183 149.213 235.689 149.107 235.289 148.895C234.894 148.683 234.598 148.401 234.4 148.05C234.203 147.698 234.104 147.315 234.104 146.9C234.104 146.476 234.188 146.115 234.357 145.816C234.53 145.512 234.764 145.264 235.058 145.071C235.357 144.879 235.701 144.732 236.092 144.63C236.487 144.534 236.923 144.45 237.4 144.377C237.882 144.3 238.352 144.235 238.81 144.182C239.272 144.124 239.677 144.069 240.024 144.016L239.648 144.247C239.663 143.476 239.513 142.905 239.2 142.534C238.887 142.163 238.342 141.978 237.566 141.978C237.031 141.978 236.578 142.098 236.207 142.339C235.841 142.58 235.583 142.961 235.434 143.481L234.4 143.178C234.579 142.479 234.938 141.937 235.477 141.551C236.017 141.166 236.718 140.973 237.581 140.973C238.294 140.973 238.899 141.108 239.395 141.378C239.896 141.643 240.251 142.028 240.458 142.534C240.554 142.761 240.617 143.014 240.646 143.293C240.675 143.573 240.689 143.857 240.689 144.146V148.997H239.742V147.038L240.017 147.153C239.752 147.823 239.34 148.334 238.781 148.686C238.222 149.038 237.552 149.213 236.771 149.213ZM236.894 148.295C237.39 148.295 237.824 148.206 238.195 148.028C238.566 147.85 238.865 147.606 239.092 147.298C239.318 146.985 239.465 146.633 239.533 146.242C239.59 145.992 239.622 145.717 239.627 145.418C239.631 145.115 239.634 144.888 239.634 144.739L240.039 144.949C239.677 144.997 239.284 145.045 238.86 145.093C238.441 145.141 238.027 145.197 237.617 145.259C237.212 145.322 236.846 145.397 236.518 145.483C236.297 145.546 236.082 145.635 235.875 145.751C235.668 145.862 235.497 146.011 235.362 146.199C235.231 146.387 235.166 146.621 235.166 146.9C235.166 147.127 235.222 147.346 235.333 147.558C235.448 147.77 235.631 147.946 235.882 148.086C236.137 148.226 236.475 148.295 236.894 148.295ZM252.398 148.997L252.405 143.871C252.405 143.269 252.236 142.797 251.899 142.455C251.567 142.108 251.142 141.934 250.627 141.934C250.333 141.934 250.046 142.002 249.767 142.137C249.487 142.272 249.256 142.488 249.073 142.787C248.894 143.086 248.805 143.476 248.805 143.958L248.176 143.777C248.162 143.218 248.27 142.729 248.502 142.31C248.738 141.891 249.061 141.566 249.47 141.334C249.885 141.098 250.352 140.98 250.873 140.98C251.658 140.98 252.287 141.223 252.759 141.71C253.232 142.192 253.468 142.845 253.468 143.669L253.46 148.997H252.398ZM243.08 148.997V141.19H244.034V143.112H244.15V148.997H243.08ZM247.75 148.997L247.757 143.944C247.757 143.322 247.591 142.833 247.258 142.476C246.931 142.115 246.497 141.934 245.957 141.934C245.417 141.934 244.981 142.12 244.649 142.491C244.316 142.857 244.15 143.346 244.15 143.958L243.514 143.611C243.514 143.11 243.632 142.662 243.868 142.267C244.104 141.867 244.427 141.553 244.837 141.327C245.246 141.096 245.711 140.98 246.232 140.98C246.728 140.98 247.169 141.086 247.555 141.298C247.945 141.51 248.251 141.819 248.473 142.223C248.694 142.628 248.805 143.12 248.805 143.698L248.798 148.997H247.75ZM259.364 149.213C258.646 149.213 258.039 149.033 257.543 148.671C257.046 148.305 256.67 147.811 256.415 147.189C256.16 146.563 256.032 145.862 256.032 145.086C256.032 144.296 256.16 143.592 256.415 142.975C256.675 142.353 257.056 141.864 257.557 141.508C258.058 141.151 258.675 140.973 259.408 140.973C260.121 140.973 260.733 141.153 261.244 141.515C261.755 141.876 262.145 142.368 262.415 142.99C262.69 143.611 262.827 144.31 262.827 145.086C262.827 145.867 262.69 146.568 262.415 147.189C262.14 147.811 261.745 148.305 261.229 148.671C260.714 149.033 260.092 149.213 259.364 149.213ZM255.851 152.466V141.19H256.805V147.067H256.921V152.466H255.851ZM259.256 148.223C259.8 148.223 260.253 148.086 260.615 147.811C260.976 147.536 261.246 147.163 261.425 146.691C261.608 146.214 261.699 145.679 261.699 145.086C261.699 144.498 261.61 143.968 261.432 143.496C261.253 143.023 260.981 142.65 260.615 142.375C260.253 142.1 259.793 141.963 259.234 141.963C258.69 141.963 258.237 142.096 257.875 142.361C257.519 142.626 257.251 142.994 257.073 143.467C256.895 143.934 256.805 144.474 256.805 145.086C256.805 145.688 256.895 146.228 257.073 146.705C257.251 147.177 257.521 147.548 257.882 147.818C258.244 148.088 258.702 148.223 259.256 148.223ZM265.075 148.997V138.37H266.138V148.997H265.075ZM272.125 149.213C271.363 149.213 270.703 149.045 270.144 148.707C269.59 148.37 269.159 147.895 268.85 147.283C268.542 146.671 268.388 145.953 268.388 145.129C268.388 144.276 268.539 143.539 268.843 142.917C269.147 142.296 269.573 141.816 270.122 141.479C270.677 141.141 271.33 140.973 272.081 140.973C272.852 140.973 273.51 141.151 274.055 141.508C274.599 141.859 275.011 142.365 275.291 143.026C275.57 143.686 275.698 144.474 275.674 145.389H274.59V145.014C274.57 144.002 274.351 143.238 273.932 142.722C273.517 142.206 272.91 141.949 272.11 141.949C271.272 141.949 270.628 142.221 270.18 142.765C269.737 143.31 269.515 144.086 269.515 145.093C269.515 146.076 269.737 146.84 270.18 147.385C270.628 147.924 271.262 148.194 272.081 148.194C272.64 148.194 273.127 148.066 273.542 147.811C273.961 147.551 274.291 147.177 274.532 146.691L275.522 147.074C275.214 147.753 274.758 148.281 274.156 148.657C273.558 149.028 272.881 149.213 272.125 149.213ZM269.139 145.389V144.5H275.103V145.389H269.139Z" fill="#D1B9B0"/>
</g>
<rect x="333.556" y="56.496" width="115.299" height="28" rx="3.88312" fill="#12A594"/>
<path d="M353.297 63.5052V76.496H351.204L345.083 67.6473H344.975V76.496H342.621V63.5052H344.727L350.842 72.3602H350.956V63.5052H353.297ZM359.102 76.6863C358.125 76.6863 357.282 76.4833 356.571 76.0773C355.865 75.6671 355.322 75.0878 354.941 74.3393C354.561 73.5866 354.37 72.7006 354.37 71.6815C354.37 70.6793 354.561 69.7997 354.941 69.0428C355.326 68.2816 355.863 67.6896 356.552 67.2667C357.242 66.8396 358.051 66.626 358.982 66.626C359.582 66.626 360.149 66.7233 360.682 66.9178C361.219 67.1081 361.692 67.4041 362.103 67.8058C362.517 68.2076 362.843 68.7193 363.079 69.3409C363.316 69.9583 363.435 70.6941 363.435 71.5483V72.2524H355.449V70.7047H361.234C361.229 70.2649 361.134 69.8737 360.948 69.5312C360.762 69.1844 360.502 68.9117 360.168 68.7129C359.838 68.5142 359.453 68.4148 359.013 68.4148C358.544 68.4148 358.132 68.529 357.776 68.7573C357.421 68.9814 357.144 69.2775 356.946 69.6454C356.751 70.009 356.652 70.4087 356.647 70.8442V72.1953C356.647 72.762 356.751 73.2483 356.958 73.6542C357.165 74.056 357.455 74.3647 357.827 74.5803C358.199 74.7918 358.635 74.8975 359.134 74.8975C359.468 74.8975 359.77 74.851 360.041 74.7579C360.312 74.6607 360.546 74.519 360.745 74.333C360.944 74.1469 361.094 73.9164 361.195 73.6416L363.339 73.8826C363.204 74.4492 362.946 74.944 362.566 75.3669C362.189 75.7855 361.707 76.1112 361.119 76.3437C360.532 76.5721 359.859 76.6863 359.102 76.6863ZM366.365 76.496L363.612 66.7529H365.953L367.665 73.6035H367.754L369.505 66.7529H371.82L373.571 73.5654H373.666L375.353 66.7529H377.7L374.941 76.496H372.549L370.723 69.9118H370.589L368.763 76.496H366.365ZM390.083 63.5052H392.436V71.9923C392.436 72.9227 392.216 73.7409 391.777 74.4471C391.341 75.1533 390.728 75.7052 389.937 76.1027C389.146 76.496 388.222 76.6926 387.165 76.6926C386.104 76.6926 385.178 76.496 384.387 76.1027C383.596 75.7052 382.983 75.1533 382.547 74.4471C382.112 73.7409 381.894 72.9227 381.894 71.9923V63.5052H384.247V71.7957C384.247 72.337 384.366 72.8191 384.602 73.2419C384.843 73.6648 385.182 73.9968 385.617 74.2378C386.053 74.4746 386.569 74.593 387.165 74.593C387.761 74.593 388.277 74.4746 388.713 74.2378C389.153 73.9968 389.491 73.6648 389.728 73.2419C389.965 72.8191 390.083 72.337 390.083 71.7957V63.5052ZM401.622 69.3282L399.529 69.5566C399.47 69.3451 399.366 69.1464 399.218 68.9603C399.075 68.7742 398.88 68.6241 398.635 68.5099C398.39 68.3958 398.089 68.3387 397.734 68.3387C397.256 68.3387 396.855 68.4423 396.529 68.6495C396.208 68.8567 396.049 69.1252 396.053 69.4551C396.049 69.7384 396.153 69.9689 396.364 70.1465C396.58 70.3241 396.935 70.47 397.43 70.5841L399.092 70.9394C400.013 71.1381 400.698 71.4532 401.147 71.8845C401.599 72.3158 401.828 72.8804 401.832 73.5781C401.828 74.1913 401.648 74.7326 401.293 75.202C400.942 75.6671 400.453 76.0308 399.827 76.293C399.201 76.5552 398.483 76.6863 397.671 76.6863C396.478 76.6863 395.518 76.4368 394.791 75.9378C394.064 75.4345 393.63 74.7347 393.491 73.8382L395.73 73.6225C395.831 74.0623 396.047 74.3943 396.377 74.6184C396.707 74.8425 397.136 74.9546 397.664 74.9546C398.21 74.9546 398.648 74.8425 398.977 74.6184C399.311 74.3943 399.478 74.1173 399.478 73.7874C399.478 73.5083 399.371 73.2779 399.155 73.096C398.944 72.9142 398.614 72.7747 398.165 72.6774L396.504 72.3285C395.569 72.134 394.878 71.8063 394.429 71.3453C393.981 70.8802 393.759 70.2924 393.763 69.5819C393.759 68.9814 393.922 68.4613 394.252 68.0215C394.586 67.5775 395.049 67.235 395.641 66.9939C396.237 66.7487 396.924 66.626 397.702 66.626C398.844 66.626 399.743 66.8692 400.398 67.3555C401.058 67.8418 401.466 68.4994 401.622 69.3282ZM407.068 76.6863C406.091 76.6863 405.247 76.4833 404.537 76.0773C403.831 75.6671 403.287 75.0878 402.907 74.3393C402.526 73.5866 402.336 72.7006 402.336 71.6815C402.336 70.6793 402.526 69.7997 402.907 69.0428C403.291 68.2816 403.829 67.6896 404.518 67.2667C405.207 66.8396 406.017 66.626 406.947 66.626C407.548 66.626 408.114 66.7233 408.647 66.9178C409.184 67.1081 409.658 67.4041 410.068 67.8058C410.483 68.2076 410.808 68.7193 411.045 69.3409C411.282 69.9583 411.4 70.6941 411.4 71.5483V72.2524H403.414V70.7047H409.199C409.195 70.2649 409.1 69.8737 408.914 69.5312C408.728 69.1844 408.468 68.9117 408.133 68.7129C407.804 68.5142 407.419 68.4148 406.979 68.4148C406.51 68.4148 406.097 68.529 405.742 68.7573C405.387 68.9814 405.11 69.2775 404.911 69.6454C404.717 70.009 404.617 70.4087 404.613 70.8442V72.1953C404.613 72.762 404.717 73.2483 404.924 73.6542C405.131 74.056 405.421 74.3647 405.793 74.5803C406.165 74.7918 406.601 74.8975 407.099 74.8975C407.434 74.8975 407.736 74.851 408.007 74.7579C408.277 74.6607 408.512 74.519 408.711 74.333C408.909 74.1469 409.06 73.9164 409.161 73.6416L411.305 73.8826C411.17 74.4492 410.912 74.944 410.531 75.3669C410.155 75.7855 409.673 76.1112 409.085 76.3437C408.497 76.5721 407.825 76.6863 407.068 76.6863ZM412.372 76.496V66.7529H414.598V68.3767H414.7C414.878 67.8143 415.182 67.3809 415.613 67.0764C416.049 66.7677 416.546 66.6133 417.104 66.6133C417.231 66.6133 417.372 66.6197 417.529 66.6324C417.69 66.6408 417.823 66.6556 417.929 66.6768V68.789C417.831 68.7552 417.677 68.7256 417.466 68.7002C417.258 68.6706 417.057 68.6558 416.863 68.6558C416.444 68.6558 416.068 68.7467 415.734 68.9286C415.404 69.1062 415.144 69.3536 414.954 69.6707C414.763 69.9879 414.668 70.3537 414.668 70.7681V76.496H412.372Z" fill="#FEFCFB"/>
<path d="M437.775 74.6385H439.432V76.2955H422.862V74.6385H424.519V68.839C424.519 65.1785 427.487 62.2111 431.147 62.2111C434.808 62.2111 437.775 65.1785 437.775 68.839V74.6385ZM428.662 77.9525H433.633V79.6095H428.662V77.9525Z" fill="#FAFEFD"/>
<rect x="354.504" y="95.6036" width="73.4035" height="73.4035" rx="36.7017" stroke="#12A594" stroke-width="10.0961"/>
<path d="M357.028 132.305C357.028 141.37 360.629 150.063 367.039 156.472C373.448 162.882 382.141 166.483 391.206 166.483C400.27 166.483 408.964 162.882 415.373 156.472C421.783 150.063 425.384 141.37 425.384 132.305C425.384 123.241 421.783 114.547 415.373 108.138C408.964 101.728 400.27 98.1275 391.206 98.1275C382.141 98.1275 373.448 101.728 367.039 108.138C360.629 114.547 357.028 123.241 357.028 132.305Z" fill="#FEFCFB" stroke="#451E11" stroke-width="5.04805"/>
<path fill-rule="evenodd" clip-rule="evenodd" d="M391.207 134.566C397.45 134.566 402.512 129.505 402.512 123.261C402.512 117.018 397.45 111.956 391.207 111.956C384.963 111.956 379.902 117.018 379.902 123.261C379.902 129.505 384.963 134.566 391.207 134.566ZM391.207 141.349C381.543 141.349 373.167 146.86 369.05 154.911C374.759 160.508 382.58 163.959 391.207 163.959C399.833 163.959 407.654 160.508 413.364 154.911C409.246 146.86 400.87 141.349 391.207 141.349Z" fill="#451E11"/>
<defs>
<clipPath id="clip0_30038_69189">
<rect width="228" height="25" fill="white" transform="translate(49.2471 130.997)"/>
</clipPath>
</defs>
</svg>
