<svg width="485" height="251" viewBox="0 0 485 251" fill="none" xmlns="http://www.w3.org/2000/svg">
<g clip-path="url(#clip0_11880_2134)">
<rect x="2.85547" y="2.72754" width="480" height="246" rx="10" fill="#FDFDFD"/>
<path d="M22.7716 21.3432H25.381L28.8755 29.8726H29.0134L32.508 21.3432H35.1174V33.1143H33.0712V25.0274H32.962L29.7089 33.0798H28.18L24.9269 25.0102H24.8177V33.1143H22.7716V21.3432ZM41.2558 33.2867C40.3707 33.2867 39.6062 33.1028 38.9625 32.7349C38.3226 32.3632 37.8302 31.8383 37.4854 31.1601C37.1405 30.478 36.9681 29.6753 36.9681 28.7518C36.9681 27.8437 37.1405 27.0467 37.4854 26.3608C37.8341 25.6711 38.3207 25.1347 38.9453 24.7515C39.5698 24.3645 40.3036 24.171 41.1466 24.171C41.6907 24.171 42.2041 24.2591 42.6869 24.4354C43.1736 24.6078 43.6027 24.8761 43.9744 25.2401C44.3499 25.6041 44.6449 26.0677 44.8595 26.631C45.0741 27.1904 45.1814 27.8571 45.1814 28.6311V29.2691H37.9452V27.8667H43.187C43.1831 27.4682 43.0969 27.1138 42.9283 26.8034C42.7597 26.4892 42.5241 26.2421 42.2214 26.062C41.9225 25.8819 41.5738 25.7918 41.1753 25.7918C40.75 25.7918 40.3764 25.8953 40.0545 26.1022C39.7327 26.3053 39.4817 26.5735 39.3016 26.9069C39.1253 27.2364 39.0353 27.5985 39.0315 27.9932V29.2174C39.0315 29.7308 39.1253 30.1715 39.3131 30.5393C39.5009 30.9034 39.7633 31.1831 40.1005 31.3785C40.4377 31.5701 40.8324 31.6659 41.2845 31.6659C41.5872 31.6659 41.8612 31.6237 42.1064 31.5394C42.3517 31.4513 42.5643 31.3229 42.7444 31.1543C42.9245 30.9857 43.0605 30.7769 43.1525 30.5278L45.0952 30.7463C44.9726 31.2597 44.7388 31.708 44.394 32.0912C44.0529 32.4705 43.6161 32.7656 43.0835 32.9763C42.5509 33.1832 41.9417 33.2867 41.2558 33.2867ZM46.9416 33.1143V24.286H48.9302V25.7861H49.0337C49.2176 25.2803 49.5222 24.8856 49.9476 24.6021C50.3729 24.3147 50.8806 24.171 51.4707 24.171C52.0684 24.171 52.5723 24.3166 52.9823 24.6078C53.3961 24.8952 53.6873 25.288 53.8559 25.7861H53.9479C54.1433 25.2956 54.4728 24.9048 54.9365 24.6136C55.4039 24.3185 55.9576 24.171 56.5975 24.171C57.4098 24.171 58.0727 24.4277 58.5862 24.9412C59.0996 25.4546 59.3564 26.2037 59.3564 27.1885V33.1143H57.27V27.5104C57.27 26.9624 57.1244 26.562 56.8332 26.3091C56.542 26.0524 56.1856 25.924 55.7641 25.924C55.2622 25.924 54.8694 26.0811 54.5859 26.3953C54.3062 26.7057 54.1663 27.1099 54.1663 27.6081V33.1143H52.1259V27.4242C52.1259 26.9682 51.988 26.6042 51.7121 26.3321C51.44 26.0601 51.0837 25.924 50.643 25.924C50.3442 25.924 50.0721 26.0007 49.8269 26.1539C49.5816 26.3034 49.3862 26.516 49.2406 26.7919C49.095 27.064 49.0222 27.382 49.0222 27.746V33.1143H46.9416ZM61.5591 33.1143V21.3432H63.6398V25.7459H63.726C63.8333 25.5313 63.9846 25.3033 64.18 25.0619C64.3754 24.8167 64.6398 24.6078 64.9732 24.4354C65.3065 24.2591 65.7319 24.171 66.2492 24.171C66.9312 24.171 67.5462 24.3454 68.0941 24.694C68.6459 25.0389 69.0827 25.5504 69.4046 26.2287C69.7303 26.903 69.8931 27.7307 69.8931 28.7116C69.8931 29.681 69.7341 30.5049 69.4161 31.1831C69.098 31.8613 68.6651 32.3786 68.1171 32.7349C67.5692 33.0913 66.9484 33.2694 66.2549 33.2694C65.7491 33.2694 65.3295 33.1851 64.9962 33.0165C64.6628 32.848 64.3946 32.6449 64.1915 32.4073C63.9923 32.1659 63.8371 31.9379 63.726 31.7233H63.6053V33.1143H61.5591ZM63.5995 28.7001C63.5995 29.271 63.68 29.7711 63.8409 30.2002C64.0057 30.6294 64.2413 30.9647 64.5479 31.2061C64.8582 31.4436 65.2337 31.5624 65.6744 31.5624C66.1342 31.5624 66.5193 31.4398 66.8297 31.1946C67.14 30.9455 67.3738 30.6064 67.5309 30.1772C67.6918 29.7443 67.7723 29.2519 67.7723 28.7001C67.7723 28.1522 67.6937 27.6655 67.5366 27.2402C67.3795 26.8149 67.1458 26.4815 66.8354 26.2401C66.525 25.9987 66.138 25.8781 65.6744 25.8781C65.2299 25.8781 64.8525 25.9949 64.5421 26.2287C64.2318 26.4624 63.9961 26.79 63.8352 27.2115C63.6781 27.633 63.5995 28.1292 63.5995 28.7001ZM75.5703 33.2867C74.6852 33.2867 73.9207 33.1028 73.277 32.7349C72.6371 32.3632 72.1447 31.8383 71.7999 31.1601C71.455 30.478 71.2826 29.6753 71.2826 28.7518C71.2826 27.8437 71.455 27.0467 71.7999 26.3608C72.1486 25.6711 72.6352 25.1347 73.2598 24.7515C73.8843 24.3645 74.6181 24.171 75.4611 24.171C76.0052 24.171 76.5186 24.2591 77.0014 24.4354C77.4881 24.6078 77.9172 24.8761 78.2889 25.2401C78.6644 25.6041 78.9595 26.0677 79.174 26.631C79.3886 27.1904 79.4959 27.8571 79.4959 28.6311V29.2691H72.2597V27.8667H77.5015C77.4977 27.4682 77.4114 27.1138 77.2428 26.8034C77.0742 26.4892 76.8386 26.2421 76.5359 26.062C76.237 25.8819 75.8883 25.7918 75.4898 25.7918C75.0645 25.7918 74.6909 25.8953 74.3691 26.1022C74.0472 26.3053 73.7962 26.5735 73.6161 26.9069C73.4399 27.2364 73.3498 27.5985 73.346 27.9932V29.2174C73.346 29.7308 73.4399 30.1715 73.6276 30.5393C73.8154 30.9034 74.0778 31.1831 74.415 31.3785C74.7522 31.5701 75.1469 31.6659 75.599 31.6659C75.9017 31.6659 76.1757 31.6237 76.4209 31.5394C76.6662 31.4513 76.8788 31.3229 77.0589 31.1543C77.239 30.9857 77.375 30.7769 77.467 30.5278L79.4097 30.7463C79.2871 31.2597 79.0533 31.708 78.7085 32.0912C78.3675 32.4705 77.9306 32.7656 77.398 32.9763C76.8654 33.1832 76.2562 33.2867 75.5703 33.2867ZM81.2561 33.1143V24.286H83.2735V25.7574H83.3655C83.5264 25.2477 83.8023 24.855 84.1931 24.5791C84.5878 24.2994 85.038 24.1595 85.5438 24.1595C85.6587 24.1595 85.7871 24.1653 85.9289 24.1768C86.0745 24.1844 86.1952 24.1978 86.291 24.217V26.1309C86.2028 26.1003 86.063 26.0735 85.8714 26.0505C85.6836 26.0237 85.5016 26.0102 85.3254 26.0102C84.946 26.0102 84.605 26.0926 84.3023 26.2574C84.0034 26.4183 83.7678 26.6425 83.5954 26.9299C83.4229 27.2172 83.3367 27.5487 83.3367 27.9242V33.1143H81.2561ZM94.6508 26.6195L92.7541 26.8264C92.7005 26.6348 92.6066 26.4547 92.4725 26.2861C92.3422 26.1175 92.166 25.9815 91.9437 25.8781C91.7215 25.7746 91.4494 25.7229 91.1276 25.7229C90.6946 25.7229 90.3306 25.8167 90.0355 26.0045C89.7443 26.1923 89.6006 26.4356 89.6045 26.7344C89.6006 26.9912 89.6945 27.2 89.8861 27.3609C90.0815 27.5219 90.4034 27.6541 90.8517 27.7575L92.3575 28.0794C93.1929 28.2595 93.8136 28.5449 94.2198 28.9358C94.6298 29.3266 94.8367 29.8381 94.8405 30.4704C94.8367 31.026 94.6738 31.5164 94.352 31.9418C94.0339 32.3632 93.5914 32.6928 93.0243 32.9303C92.4572 33.1679 91.8058 33.2867 91.0701 33.2867C89.9895 33.2867 89.1197 33.0606 88.4607 32.6085C87.8016 32.1525 87.4089 31.5183 87.2824 30.706L89.3113 30.5106C89.4033 30.9091 89.5987 31.2099 89.8976 31.413C90.1965 31.6161 90.5854 31.7176 91.0643 31.7176C91.5586 31.7176 91.9552 31.6161 92.2541 31.413C92.5568 31.2099 92.7082 30.9589 92.7082 30.66C92.7082 30.4071 92.6104 30.1983 92.415 30.0336C92.2234 29.8688 91.9246 29.7423 91.5184 29.6542L90.0125 29.3381C89.1657 29.1618 88.5392 28.8649 88.1331 28.4472C87.7269 28.0257 87.5257 27.4931 87.5296 26.8494C87.5257 26.3053 87.6733 25.834 87.9721 25.4355C88.2748 25.0332 88.6944 24.7228 89.2309 24.5044C89.7711 24.2821 90.3938 24.171 91.0988 24.171C92.1334 24.171 92.9476 24.3913 93.5416 24.832C94.1393 25.2726 94.5091 25.8685 94.6508 26.6195Z" fill="#1B1B18"/>
<g clip-path="url(#clip1_11880_2134)">
<path d="M23.4904 79.6851C23.4904 78.8789 23.6779 78.1664 24.0529 77.5477C24.4091 76.9103 24.906 76.4134 25.5434 76.0572C26.1622 75.6822 26.8746 75.4947 27.6809 75.4947H43.5427C44.3489 75.4947 45.0614 75.6822 45.6801 76.0572C46.3176 76.4134 46.8145 76.9103 47.1707 77.5477C47.5457 78.1664 47.7332 78.8789 47.7332 79.6851V79.7414C47.7332 80.5476 47.5457 81.2694 47.1707 81.9069C46.8145 82.5256 46.3176 83.0225 45.6801 83.3975C45.0614 83.7537 44.3489 83.9318 43.5427 83.9318H27.6809C26.8746 83.9318 26.1622 83.7537 25.5434 83.3975C24.906 83.0225 24.4091 82.5256 24.0529 81.9069C23.6779 81.2694 23.4904 80.5476 23.4904 79.7414V79.6851ZM39.2826 79.6851C39.2826 78.8789 39.4701 78.1664 39.8451 77.5477C40.2013 76.9103 40.6982 76.4134 41.3356 76.0572C41.9544 75.6822 42.6668 75.4947 43.4731 75.4947H59.3349C60.1411 75.4947 60.8536 75.6822 61.4723 76.0572C62.1098 76.4134 62.6066 76.9103 62.9629 77.5477C63.3379 78.1664 63.5254 78.8789 63.5254 79.6851V79.7414C63.5254 80.5476 63.3379 81.2694 62.9629 81.9069C62.6066 82.5256 62.1098 83.0225 61.4723 83.3975C60.8536 83.7537 60.1411 83.9318 59.3349 83.9318H43.4731C42.6668 83.9318 41.9544 83.7537 41.3356 83.3975C40.6982 83.0225 40.2013 82.5256 39.8451 81.9069C39.4701 81.2694 39.2826 80.5476 39.2826 79.7414V79.6851ZM55.0748 79.6851C55.0748 78.8789 55.2623 78.1664 55.6373 77.5477C55.9935 76.9103 56.4904 76.4134 57.1278 76.0572C57.7466 75.6822 58.459 75.4947 59.2653 75.4947H75.1271C75.9333 75.4947 76.6458 75.6822 77.2645 76.0572C77.902 76.4134 78.3988 76.9103 78.7551 77.5477C79.1301 78.1664 79.3176 78.8789 79.3176 79.6851V79.7414C79.3176 80.5476 79.1301 81.2694 78.7551 81.9069C78.3988 82.5256 77.902 83.0225 77.2645 83.3975C76.6458 83.7537 75.9333 83.9318 75.1271 83.9318H59.2653C58.459 83.9318 57.7466 83.7537 57.1278 83.3975C56.4904 83.0225 55.9935 82.5256 55.6373 81.9069C55.2623 81.2694 55.0748 80.5476 55.0748 79.7414V79.6851ZM70.867 79.6851C70.867 78.8789 71.0545 78.1664 71.4295 77.5477C71.7857 76.9103 72.2826 76.4134 72.92 76.0572C73.5388 75.6822 74.2512 75.4947 75.0575 75.4947H90.9193C91.7255 75.4947 92.438 75.6822 93.0567 76.0572C93.6942 76.4134 94.191 76.9103 94.5473 77.5477C94.9223 78.1664 95.1098 78.8789 95.1098 79.6851V79.7414C95.1098 80.5476 94.9223 81.2694 94.5473 81.9069C94.191 82.5256 93.6942 83.0225 93.0567 83.3975C92.438 83.7537 91.7255 83.9318 90.9193 83.9318H75.0575C74.2512 83.9318 73.5388 83.7537 72.92 83.3975C72.2826 83.0225 71.7857 82.5256 71.4295 81.9069C71.0545 81.2694 70.867 80.5476 70.867 79.7414V79.6851ZM86.6592 79.6851C86.6592 78.8789 86.8467 78.1664 87.2217 77.5477C87.5779 76.9103 88.0748 76.4134 88.7122 76.0572C89.331 75.6822 90.0434 75.4947 90.8496 75.4947H106.711C107.518 75.4947 108.23 75.6822 108.849 76.0572C109.486 76.4134 109.983 76.9103 110.339 77.5477C110.714 78.1664 110.902 78.8789 110.902 79.6851V79.7414C110.902 80.5476 110.714 81.2694 110.339 81.9069C109.983 82.5256 109.486 83.0225 108.849 83.3975C108.23 83.7537 107.518 83.9318 106.711 83.9318H90.8496C90.0434 83.9318 89.331 83.7537 88.7122 83.3975C88.0748 83.0225 87.5779 82.5256 87.2217 81.9069C86.8467 81.2694 86.6592 80.5476 86.6592 79.7414V79.6851ZM102.451 79.6851C102.451 78.8789 102.639 78.1664 103.014 77.5477C103.37 76.9103 103.867 76.4134 104.504 76.0572C105.123 75.6822 105.836 75.4947 106.642 75.4947H122.504C123.31 75.4947 124.022 75.6822 124.641 76.0572C125.279 76.4134 125.775 76.9103 126.132 77.5477C126.507 78.1664 126.694 78.8789 126.694 79.6851V79.7414C126.694 80.5476 126.507 81.2694 126.132 81.9069C125.775 82.5256 125.279 83.0225 124.641 83.3975C124.022 83.7537 123.31 83.9318 122.504 83.9318H106.642C105.836 83.9318 105.123 83.7537 104.504 83.3975C103.867 83.0225 103.37 82.5256 103.014 81.9069C102.639 81.2694 102.451 80.5476 102.451 79.7414V79.6851ZM118.244 79.6851C118.244 78.8789 118.431 78.1664 118.806 77.5477C119.162 76.9103 119.659 76.4134 120.297 76.0572C120.915 75.6822 121.628 75.4947 122.434 75.4947H138.296C139.102 75.4947 139.815 75.6822 140.433 76.0572C141.071 76.4134 141.568 76.9103 141.924 77.5477C142.299 78.1664 142.486 78.8789 142.486 79.6851V79.7414C142.486 80.5476 142.299 81.2694 141.924 81.9069C141.568 82.5256 141.071 83.0225 140.433 83.3975C139.815 83.7537 139.102 83.9318 138.296 83.9318H122.434C121.628 83.9318 120.915 83.7537 120.297 83.3975C119.659 83.0225 119.162 82.5256 118.806 81.9069C118.431 81.2694 118.244 80.5476 118.244 79.7414V79.6851Z" fill="#EEEEEC"/>
<path d="M156.055 79.6842C156.055 78.8779 156.242 78.1655 156.617 77.5467C156.974 76.9093 157.47 76.4124 158.108 76.0562C158.727 75.6812 159.439 75.4937 160.245 75.4937H176.107C176.913 75.4937 177.626 75.6812 178.245 76.0562C178.882 76.4124 179.379 76.9093 179.735 77.5467C180.11 78.1655 180.298 78.8779 180.298 79.6842V79.7404C180.298 80.5466 180.11 81.2685 179.735 81.9059C179.379 82.5247 178.882 83.0215 178.245 83.3965C177.626 83.7527 176.913 83.9309 176.107 83.9309H160.245C159.439 83.9309 158.727 83.7527 158.108 83.3965C157.47 83.0215 156.974 82.5247 156.617 81.9059C156.242 81.2685 156.055 80.5466 156.055 79.7404V79.6842ZM171.847 79.6842C171.847 78.8779 172.035 78.1655 172.41 77.5467C172.766 76.9093 173.263 76.4124 173.9 76.0562C174.519 75.6812 175.231 75.4937 176.038 75.4937H191.899C192.706 75.4937 193.418 75.6812 194.037 76.0562C194.674 76.4124 195.171 76.9093 195.527 77.5467C195.902 78.1655 196.09 78.8779 196.09 79.6842V79.7404C196.09 80.5466 195.902 81.2685 195.527 81.9059C195.171 82.5247 194.674 83.0215 194.037 83.3965C193.418 83.7527 192.706 83.9309 191.899 83.9309H176.038C175.231 83.9309 174.519 83.7527 173.9 83.3965C173.263 83.0215 172.766 82.5247 172.41 81.9059C172.035 81.2685 171.847 80.5466 171.847 79.7404V79.6842ZM187.639 79.6842C187.639 78.8779 187.827 78.1655 188.202 77.5467C188.558 76.9093 189.055 76.4124 189.692 76.0562C190.311 75.6812 191.023 75.4937 191.83 75.4937H207.692C208.498 75.4937 209.21 75.6812 209.829 76.0562C210.466 76.4124 210.963 76.9093 211.32 77.5467C211.695 78.1655 211.882 78.8779 211.882 79.6842V79.7404C211.882 80.5466 211.695 81.2685 211.32 81.9059C210.963 82.5247 210.466 83.0215 209.829 83.3965C209.21 83.7527 208.498 83.9309 207.692 83.9309H191.83C191.023 83.9309 190.311 83.7527 189.692 83.3965C189.055 83.0215 188.558 82.5247 188.202 81.9059C187.827 81.2685 187.639 80.5466 187.639 79.7404V79.6842Z" fill="#EEEEEC"/>
<circle cx="222.309" cy="80.0554" r="4.66087" fill="#EEEEEC"/>
</g>
<rect x="17.3676" y="62.5228" width="352.08" height="35.0665" rx="3.14712" stroke="#EEEEEC" stroke-width="0.899177"/>
<rect x="378.889" y="62.0732" width="85.9835" height="35.9657" rx="3.59671" fill="#006ADC"/>
<path d="M393.786 77.4172C393.745 77.0268 393.569 76.7228 393.259 76.5053C392.952 76.2877 392.553 76.1789 392.061 76.1789C391.715 76.1789 391.419 76.2311 391.171 76.3354C390.924 76.4397 390.735 76.5813 390.604 76.7601C390.472 76.9389 390.405 77.143 390.402 77.3725C390.402 77.5632 390.446 77.7286 390.532 77.8687C390.621 78.0088 390.742 78.128 390.894 78.2263C391.046 78.3217 391.215 78.4022 391.399 78.4677C391.584 78.5333 391.77 78.5884 391.958 78.6331L392.816 78.8477C393.162 78.9282 393.494 79.037 393.813 79.1741C394.135 79.3111 394.423 79.484 394.676 79.6926C394.932 79.9012 395.135 80.1531 395.284 80.4481C395.433 80.7431 395.508 81.0888 395.508 81.4852C395.508 82.0217 395.37 82.494 395.096 82.9023C394.822 83.3076 394.426 83.625 393.907 83.8545C393.392 84.081 392.767 84.1942 392.034 84.1942C391.322 84.1942 390.703 84.084 390.179 83.8634C389.657 83.6429 389.249 83.321 388.954 82.8978C388.662 82.4747 388.504 81.9591 388.48 81.3511H390.112C390.136 81.67 390.234 81.9352 390.407 82.1468C390.58 82.3584 390.805 82.5164 391.082 82.6207C391.362 82.725 391.675 82.7771 392.021 82.7771C392.381 82.7771 392.697 82.7235 392.968 82.6162C393.243 82.5059 393.457 82.354 393.612 82.1602C393.767 81.9635 393.846 81.7341 393.849 81.4718C393.846 81.2334 393.776 81.0367 393.639 80.8817C393.502 80.7238 393.31 80.5926 393.062 80.4883C392.818 80.381 392.532 80.2857 392.204 80.2022L391.162 79.934C390.408 79.7403 389.812 79.4467 389.374 79.0534C388.939 78.657 388.722 78.131 388.722 77.4753C388.722 76.9359 388.868 76.4635 389.16 76.0582C389.455 75.6529 389.856 75.3385 390.362 75.115C390.869 74.8885 391.442 74.7752 392.083 74.7752C392.733 74.7752 393.302 74.8885 393.791 75.115C394.283 75.3385 394.669 75.6499 394.949 76.0493C395.229 76.4457 395.373 76.9016 395.382 77.4172H393.786ZM399.954 84.1898C399.266 84.1898 398.671 84.0467 398.171 83.7606C397.673 83.4715 397.29 83.0632 397.022 82.5357C396.754 82.0053 396.62 81.3809 396.62 80.6627C396.62 79.9564 396.754 79.3365 397.022 78.803C397.293 78.2666 397.672 77.8493 398.157 77.5513C398.643 77.2503 399.214 77.0998 399.869 77.0998C400.293 77.0998 400.692 77.1684 401.068 77.3054C401.446 77.4396 401.78 77.6482 402.069 77.9313C402.361 78.2144 402.59 78.575 402.757 79.0131C402.924 79.4482 403.008 79.9668 403.008 80.5688V81.065H397.379V79.9742H401.456C401.453 79.6643 401.386 79.3886 401.255 79.1472C401.124 78.9029 400.941 78.7106 400.705 78.5706C400.473 78.4305 400.202 78.3604 399.892 78.3604C399.561 78.3604 399.27 78.4409 399.02 78.6018C398.77 78.7598 398.575 78.9684 398.434 79.2277C398.297 79.484 398.227 79.7656 398.224 80.0726V81.0248C398.224 81.4241 398.297 81.7668 398.443 82.053C398.589 82.3361 398.794 82.5536 399.056 82.7056C399.318 82.8546 399.625 82.9291 399.977 82.9291C400.212 82.9291 400.425 82.8964 400.616 82.8308C400.807 82.7622 400.972 82.6624 401.112 82.5313C401.252 82.4001 401.358 82.2377 401.43 82.044L402.941 82.2139C402.845 82.6132 402.663 82.9619 402.395 83.2599C402.13 83.555 401.79 83.7845 401.376 83.9484C400.962 84.1093 400.488 84.1898 399.954 84.1898ZM405.995 80.0324V84.0557H404.377V77.1892H405.923V78.356H406.004C406.162 77.9715 406.414 77.6661 406.759 77.4396C407.108 77.2131 407.539 77.0998 408.051 77.0998C408.525 77.0998 408.938 77.2011 409.29 77.4038C409.644 77.6065 409.918 77.9 410.112 78.2845C410.309 78.6689 410.406 79.1353 410.403 79.6837V84.0557H408.784V79.934C408.784 79.4751 408.665 79.1159 408.427 78.8567C408.191 78.5974 407.865 78.4677 407.448 78.4677C407.165 78.4677 406.913 78.5303 406.692 78.6555C406.475 78.7777 406.303 78.955 406.178 79.1875C406.056 79.4199 405.995 79.7016 405.995 80.0324ZM414.596 84.1764C414.056 84.1764 413.574 84.0378 413.147 83.7606C412.721 83.4835 412.385 83.0811 412.137 82.5536C411.89 82.0261 411.766 81.3854 411.766 80.6314C411.766 79.8684 411.891 79.2247 412.142 78.7002C412.395 78.1727 412.736 77.7748 413.165 77.5066C413.595 77.2354 414.073 77.0998 414.6 77.0998C415.003 77.0998 415.333 77.1684 415.593 77.3054C415.852 77.4396 416.058 77.602 416.21 77.7927C416.362 77.9805 416.479 78.1578 416.563 78.3247H416.63V74.9004H418.253V84.0557H416.661V82.9738H416.563C416.479 83.1407 416.359 83.3181 416.201 83.5058C416.043 83.6906 415.834 83.8485 415.575 83.9797C415.316 84.1108 414.989 84.1764 414.596 84.1764ZM415.047 82.8487C415.39 82.8487 415.682 82.7563 415.924 82.5715C416.165 82.3838 416.348 82.123 416.473 81.7892C416.599 81.4554 416.661 81.0665 416.661 80.6224C416.661 80.1784 416.599 79.7924 416.473 79.4646C416.351 79.1368 416.169 78.882 415.928 78.7002C415.69 78.5184 415.396 78.4275 415.047 78.4275C414.687 78.4275 414.386 78.5214 414.144 78.7091C413.903 78.8969 413.721 79.1562 413.599 79.487C413.477 79.8178 413.416 80.1963 413.416 80.6224C413.416 81.0516 413.477 81.4346 413.599 81.7713C413.724 82.1051 413.907 82.3689 414.149 82.5626C414.393 82.7533 414.693 82.8487 415.047 82.8487ZM424.83 74.9004V84.0557H423.171V74.9004H424.83ZM428.172 80.0324V84.0557H426.554V77.1892H428.101V78.356H428.181C428.339 77.9715 428.591 77.6661 428.937 77.4396C429.285 77.2131 429.716 77.0998 430.229 77.0998C430.703 77.0998 431.115 77.2011 431.467 77.4038C431.822 77.6065 432.096 77.9 432.289 78.2845C432.486 78.6689 432.583 79.1353 432.58 79.6837V84.0557H430.962V79.934C430.962 79.4751 430.843 79.1159 430.604 78.8567C430.369 78.5974 430.042 78.4677 429.625 78.4677C429.342 78.4677 429.09 78.5303 428.87 78.6555C428.652 78.7777 428.481 78.955 428.356 79.1875C428.233 79.4199 428.172 79.7016 428.172 80.0324ZM440.113 77.1892L437.667 84.0557H435.879L433.434 77.1892H435.159L436.737 82.2899H436.809L438.392 77.1892H440.113ZM441.232 84.0557V77.1892H442.851V84.0557H441.232ZM442.046 76.2147C441.79 76.2147 441.569 76.1297 441.384 75.9599C441.2 75.787 441.107 75.5799 441.107 75.3385C441.107 75.0941 441.2 74.887 441.384 74.7171C441.569 74.5443 441.79 74.4578 442.046 74.4578C442.305 74.4578 442.526 74.5443 442.708 74.7171C442.892 74.887 442.985 75.0941 442.985 75.3385C442.985 75.5799 442.892 75.787 442.708 75.9599C442.526 76.1297 442.305 76.2147 442.046 76.2147ZM447.944 77.1892V78.4409H443.996V77.1892H447.944ZM444.971 75.5441H446.589V81.9904C446.589 82.2079 446.622 82.3748 446.687 82.491C446.756 82.6043 446.845 82.6818 446.956 82.7235C447.066 82.7652 447.188 82.7861 447.322 82.7861C447.423 82.7861 447.516 82.7786 447.599 82.7637C447.686 82.7488 447.751 82.7354 447.796 82.7235L448.069 83.9886C447.982 84.0184 447.859 84.0512 447.698 84.087C447.54 84.1227 447.346 84.1436 447.116 84.1495C446.711 84.1615 446.346 84.1004 446.021 83.9663C445.696 83.8292 445.439 83.6176 445.248 83.3315C445.06 83.0454 444.968 82.6877 444.971 82.2586V75.5441ZM452.263 84.1898C451.575 84.1898 450.98 84.0467 450.479 83.7606C449.982 83.4715 449.599 83.0632 449.33 82.5357C449.062 82.0053 448.928 81.3809 448.928 80.6627C448.928 79.9564 449.062 79.3365 449.33 78.803C449.602 78.2666 449.98 77.8493 450.466 77.5513C450.952 77.2503 451.522 77.0998 452.178 77.0998C452.601 77.0998 453.001 77.1684 453.376 77.3054C453.755 77.4396 454.088 77.6482 454.377 77.9313C454.67 78.2144 454.899 78.575 455.066 79.0131C455.233 79.4482 455.316 79.9668 455.316 80.5688V81.065H449.688V79.9742H453.765C453.762 79.6643 453.695 79.3886 453.564 79.1472C453.433 78.9029 453.249 78.7106 453.014 78.5706C452.782 78.4305 452.51 78.3604 452.2 78.3604C451.87 78.3604 451.579 78.4409 451.329 78.6018C451.078 78.7598 450.883 78.9684 450.743 79.2277C450.606 79.484 450.536 79.7656 450.533 80.0726V81.0248C450.533 81.4241 450.606 81.7668 450.752 82.053C450.898 82.3361 451.102 82.5536 451.364 82.7056C451.627 82.8546 451.934 82.9291 452.285 82.9291C452.521 82.9291 452.734 82.8964 452.925 82.8308C453.115 82.7622 453.281 82.6624 453.421 82.5313C453.561 82.4001 453.667 82.2377 453.738 82.044L455.249 82.2139C455.154 82.6132 454.972 82.9619 454.704 83.2599C454.439 83.555 454.099 83.7845 453.685 83.9484C453.27 84.1093 452.796 84.1898 452.263 84.1898Z" fill="white"/>
<mask id="path-12-inside-1_11880_2134" fill="white">
<path d="M2.85547 107.03H482.855V166.376H2.85547V107.03Z"/>
</mask>
<path d="M482.855 165.477H2.85547V167.275H482.855V165.477Z" fill="#EEEEEC" mask="url(#path-12-inside-1_11880_2134)"/>
<path d="M22.0744 130.276C22.0744 129.47 22.2619 128.757 22.6369 128.139C22.9931 127.501 23.49 127.004 24.1274 126.648C24.7462 126.273 25.4586 126.086 26.2648 126.086H42.1267C42.9329 126.086 43.6454 126.273 44.2641 126.648C44.9016 127.004 45.3984 127.501 45.7547 128.139C46.1297 128.757 46.3171 129.47 46.3171 130.276V130.332C46.3171 131.138 46.1297 131.86 45.7547 132.498C45.3984 133.116 44.9016 133.613 44.2641 133.988C43.6454 134.345 42.9329 134.523 42.1267 134.523H26.2648C25.4586 134.523 24.7462 134.345 24.1274 133.988C23.49 133.613 22.9931 133.116 22.6369 132.498C22.2619 131.86 22.0744 131.138 22.0744 130.332V130.276ZM37.8666 130.276C37.8666 129.47 38.0541 128.757 38.4291 128.139C38.7853 127.501 39.2822 127.004 39.9196 126.648C40.5384 126.273 41.2508 126.086 42.057 126.086H57.9189C58.7251 126.086 59.4376 126.273 60.0563 126.648C60.6938 127.004 61.1906 127.501 61.5469 128.139C61.9219 128.757 62.1093 129.47 62.1093 130.276V130.332C62.1093 131.138 61.9219 131.86 61.5469 132.498C61.1906 133.116 60.6938 133.613 60.0563 133.988C59.4376 134.345 58.7251 134.523 57.9189 134.523H42.057C41.2508 134.523 40.5384 134.345 39.9196 133.988C39.2822 133.613 38.7853 133.116 38.4291 132.498C38.0541 131.86 37.8666 131.138 37.8666 130.332V130.276ZM53.6588 130.276C53.6588 129.47 53.8463 128.757 54.2213 128.139C54.5775 127.501 55.0744 127.004 55.7118 126.648C56.3306 126.273 57.043 126.086 57.8492 126.086H73.7111C74.5173 126.086 75.2298 126.273 75.8485 126.648C76.486 127.004 76.9828 127.501 77.3391 128.139C77.714 128.757 77.9015 129.47 77.9015 130.276V130.332C77.9015 131.138 77.714 131.86 77.3391 132.498C76.9828 133.116 76.486 133.613 75.8485 133.988C75.2298 134.345 74.5173 134.523 73.7111 134.523H57.8492C57.043 134.523 56.3306 134.345 55.7118 133.988C55.0744 133.613 54.5775 133.116 54.2213 132.498C53.8463 131.86 53.6588 131.138 53.6588 130.332V130.276ZM69.451 130.276C69.451 129.47 69.6385 128.757 70.0135 128.139C70.3697 127.501 70.8665 127.004 71.504 126.648C72.1227 126.273 72.8352 126.086 73.6414 126.086H89.5033C90.3095 126.086 91.022 126.273 91.6407 126.648C92.2782 127.004 92.775 127.501 93.1313 128.139C93.5062 128.757 93.6937 129.47 93.6937 130.276V130.332C93.6937 131.138 93.5062 131.86 93.1313 132.498C92.775 133.116 92.2782 133.613 91.6407 133.988C91.022 134.345 90.3095 134.523 89.5033 134.523H73.6414C72.8352 134.523 72.1227 134.345 71.504 133.988C70.8665 133.613 70.3697 133.116 70.0135 132.498C69.6385 131.86 69.451 131.138 69.451 130.332V130.276ZM85.2432 130.276C85.2432 129.47 85.4307 128.757 85.8057 128.139C86.1619 127.501 86.6587 127.004 87.2962 126.648C87.9149 126.273 88.6274 126.086 89.4336 126.086H105.295C106.102 126.086 106.814 126.273 107.433 126.648C108.07 127.004 108.567 127.501 108.923 128.139C109.298 128.757 109.486 129.47 109.486 130.276V130.332C109.486 131.138 109.298 131.86 108.923 132.498C108.567 133.116 108.07 133.613 107.433 133.988C106.814 134.345 106.102 134.523 105.295 134.523H89.4336C88.6274 134.523 87.9149 134.345 87.2962 133.988C86.6587 133.613 86.1619 133.116 85.8057 132.498C85.4307 131.86 85.2432 131.138 85.2432 130.332V130.276ZM101.035 130.276C101.035 129.47 101.223 128.757 101.598 128.139C101.954 127.501 102.451 127.004 103.088 126.648C103.707 126.273 104.42 126.086 105.226 126.086H121.088C121.894 126.086 122.606 126.273 123.225 126.648C123.863 127.004 124.359 127.501 124.716 128.139C125.091 128.757 125.278 129.47 125.278 130.276V130.332C125.278 131.138 125.091 131.86 124.716 132.498C124.359 133.116 123.863 133.613 123.225 133.988C122.606 134.345 121.894 134.523 121.088 134.523H105.226C104.42 134.523 103.707 134.345 103.088 133.988C102.451 133.613 101.954 133.116 101.598 132.498C101.223 131.86 101.035 131.138 101.035 130.332V130.276ZM133.691 130.276C133.691 129.47 133.878 128.757 134.253 128.139C134.61 127.501 135.106 127.004 135.744 126.648C136.363 126.273 137.075 126.086 137.881 126.086H153.743C154.549 126.086 155.262 126.273 155.881 126.648C156.518 127.004 157.015 127.501 157.371 128.139C157.746 128.757 157.934 129.47 157.934 130.276V130.332C157.934 131.138 157.746 131.86 157.371 132.498C157.015 133.116 156.518 133.613 155.881 133.988C155.262 134.345 154.549 134.523 153.743 134.523H137.881C137.075 134.523 136.363 134.345 135.744 133.988C135.106 133.613 134.61 133.116 134.253 132.498C133.878 131.86 133.691 131.138 133.691 130.332V130.276ZM149.483 130.276C149.483 129.47 149.671 128.757 150.046 128.139C150.402 127.501 150.899 127.004 151.536 126.648C152.155 126.273 152.867 126.086 153.674 126.086H169.535C170.342 126.086 171.054 126.273 171.673 126.648C172.31 127.004 172.807 127.501 173.163 128.139C173.538 128.757 173.726 129.47 173.726 130.276V130.332C173.726 131.138 173.538 131.86 173.163 132.498C172.807 133.116 172.31 133.613 171.673 133.988C171.054 134.345 170.342 134.523 169.535 134.523H153.674C152.867 134.523 152.155 134.345 151.536 133.988C150.899 133.613 150.402 133.116 150.046 132.498C149.671 131.86 149.483 131.138 149.483 130.332V130.276ZM165.275 130.276C165.275 129.47 165.463 128.757 165.838 128.139C166.194 127.501 166.691 127.004 167.328 126.648C167.947 126.273 168.66 126.086 169.466 126.086H185.328C186.134 126.086 186.846 126.273 187.465 126.648C188.102 127.004 188.599 127.501 188.956 128.139C189.331 128.757 189.518 129.47 189.518 130.276V130.332C189.518 131.138 189.331 131.86 188.956 132.498C188.599 133.116 188.102 133.613 187.465 133.988C186.846 134.345 186.134 134.523 185.328 134.523H169.466C168.66 134.523 167.947 134.345 167.328 133.988C166.691 133.613 166.194 133.116 165.838 132.498C165.463 131.86 165.275 131.138 165.275 130.332V130.276Z" fill="#EEEEEC"/>
<path d="M22.7775 148.579C22.7775 147.908 22.9337 147.314 23.2462 146.798C23.5431 146.267 23.9571 145.853 24.4884 145.556C25.004 145.244 25.5977 145.087 26.2695 145.087H39.4877C40.1596 145.087 40.7533 145.244 41.2689 145.556C41.8001 145.853 42.2142 146.267 42.5111 146.798C42.8235 147.314 42.9798 147.908 42.9798 148.579V148.626C42.9798 149.298 42.8235 149.9 42.5111 150.431C42.2142 150.947 41.8001 151.361 41.2689 151.673C40.7533 151.97 40.1596 152.118 39.4877 152.118H26.2695C25.5977 152.118 25.004 151.97 24.4884 151.673C23.9571 151.361 23.5431 150.947 23.2462 150.431C22.9337 149.9 22.7775 149.298 22.7775 148.626V148.579ZM35.9377 148.579C35.9377 147.908 36.0939 147.314 36.4064 146.798C36.7032 146.267 37.1173 145.853 37.6485 145.556C38.1641 145.244 38.7578 145.087 39.4297 145.087H52.6479C53.3197 145.087 53.9135 145.244 54.4291 145.556C54.9603 145.853 55.3744 146.267 55.6712 146.798C55.9837 147.314 56.1399 147.908 56.1399 148.579V148.626C56.1399 149.298 55.9837 149.9 55.6712 150.431C55.3744 150.947 54.9603 151.361 54.4291 151.673C53.9135 151.97 53.3197 152.118 52.6479 152.118H39.4297C38.7578 152.118 38.1641 151.97 37.6485 151.673C37.1173 151.361 36.7032 150.947 36.4064 150.431C36.0939 149.9 35.9377 149.298 35.9377 148.626V148.579ZM49.0978 148.579C49.0978 147.908 49.2541 147.314 49.5665 146.798C49.8634 146.267 50.2775 145.853 50.8087 145.556C51.3243 145.244 51.918 145.087 52.5899 145.087H65.8081C66.4799 145.087 67.0736 145.244 67.5892 145.556C68.1205 145.853 68.5345 146.267 68.8314 146.798C69.1439 147.314 69.3001 147.908 69.3001 148.579V148.626C69.3001 149.298 69.1439 149.9 68.8314 150.431C68.5345 150.947 68.1205 151.361 67.5892 151.673C67.0736 151.97 66.4799 152.118 65.8081 152.118H52.5899C51.918 152.118 51.3243 151.97 50.8087 151.673C50.2775 151.361 49.8634 150.947 49.5665 150.431C49.2541 149.9 49.0978 149.298 49.0978 148.626V148.579ZM62.258 148.579C62.258 147.908 62.4142 147.314 62.7267 146.798C63.0236 146.267 63.4376 145.853 63.9688 145.556C64.4845 145.244 65.0782 145.087 65.75 145.087H78.9682C79.6401 145.087 80.2338 145.244 80.7494 145.556C81.2806 145.853 81.6947 146.267 81.9915 146.798C82.304 147.314 82.4603 147.908 82.4603 148.579V148.626C82.4603 149.298 82.304 149.9 81.9915 150.431C81.6947 150.947 81.2806 151.361 80.7494 151.673C80.2338 151.97 79.6401 152.118 78.9682 152.118H65.75C65.0782 152.118 64.4845 151.97 63.9688 151.673C63.4376 151.361 63.0236 150.947 62.7267 150.431C62.4142 149.9 62.258 149.298 62.258 148.626V148.579ZM75.4181 148.579C75.4181 147.908 75.5744 147.314 75.8869 146.798C76.1837 146.267 76.5978 145.853 77.129 145.556C77.6446 145.244 78.2383 145.087 78.9102 145.087H92.1284C92.8002 145.087 93.394 145.244 93.9096 145.556C94.4408 145.853 94.8548 146.267 95.1517 146.798C95.4642 147.314 95.6204 147.908 95.6204 148.579V148.626C95.6204 149.298 95.4642 149.9 95.1517 150.431C94.8548 150.947 94.4408 151.361 93.9096 151.673C93.394 151.97 92.8002 152.118 92.1284 152.118H78.9102C78.2383 152.118 77.6446 151.97 77.129 151.673C76.5978 151.361 76.1837 150.947 75.8869 150.431C75.5744 149.9 75.4181 149.298 75.4181 148.626V148.579ZM88.5783 148.579C88.5783 147.908 88.7346 147.314 89.047 146.798C89.3439 146.267 89.7579 145.853 90.2892 145.556C90.8048 145.244 91.3985 145.087 92.0704 145.087H105.289C105.96 145.087 106.554 145.244 107.07 145.556C107.601 145.853 108.015 146.267 108.312 146.798C108.624 147.314 108.781 147.908 108.781 148.579V148.626C108.781 149.298 108.624 149.9 108.312 150.431C108.015 150.947 107.601 151.361 107.07 151.673C106.554 151.97 105.96 152.118 105.289 152.118H92.0704C91.3985 152.118 90.8048 151.97 90.2892 151.673C89.7579 151.361 89.3439 150.947 89.047 150.431C88.7346 149.9 88.5783 149.298 88.5783 148.626V148.579ZM101.738 148.579C101.738 147.908 101.895 147.314 102.207 146.798C102.504 146.267 102.918 145.853 103.449 145.556C103.965 145.244 104.559 145.087 105.231 145.087H118.449C119.121 145.087 119.714 145.244 120.23 145.556C120.761 145.853 121.175 146.267 121.472 146.798C121.785 147.314 121.941 147.908 121.941 148.579V148.626C121.941 149.298 121.785 149.9 121.472 150.431C121.175 150.947 120.761 151.361 120.23 151.673C119.714 151.97 119.121 152.118 118.449 152.118H105.231C104.559 152.118 103.965 151.97 103.449 151.673C102.918 151.361 102.504 150.947 102.207 150.431C101.895 149.9 101.738 149.298 101.738 148.626V148.579ZM114.899 148.579C114.899 147.908 115.055 147.314 115.367 146.798C115.664 146.267 116.078 145.853 116.61 145.556C117.125 145.244 117.719 145.087 118.391 145.087H131.609C132.281 145.087 132.874 145.244 133.39 145.556C133.921 145.853 134.335 146.267 134.632 146.798C134.945 147.314 135.101 147.908 135.101 148.579V148.626C135.101 149.298 134.945 149.9 134.632 150.431C134.335 150.947 133.921 151.361 133.39 151.673C132.874 151.97 132.281 152.118 131.609 152.118H118.391C117.719 152.118 117.125 151.97 116.61 151.673C116.078 151.361 115.664 150.947 115.367 150.431C115.055 149.9 114.899 149.298 114.899 148.626V148.579ZM128.059 148.579C128.059 147.908 128.215 147.314 128.528 146.798C128.824 146.267 129.238 145.853 129.77 145.556C130.285 145.244 130.879 145.087 131.551 145.087H144.769C145.441 145.087 146.035 145.244 146.55 145.556C147.081 145.853 147.495 146.267 147.792 146.798C148.105 147.314 148.261 147.908 148.261 148.579V148.626C148.261 149.298 148.105 149.9 147.792 150.431C147.495 150.947 147.081 151.361 146.55 151.673C146.035 151.97 145.441 152.118 144.769 152.118H131.551C130.879 152.118 130.285 151.97 129.77 151.673C129.238 151.361 128.824 150.947 128.528 150.431C128.215 149.9 128.059 149.298 128.059 148.626V148.579ZM141.219 148.579C141.219 147.908 141.375 147.314 141.688 146.798C141.985 146.267 142.399 145.853 142.93 145.556C143.445 145.244 144.039 145.087 144.711 145.087H151.461C152.133 145.087 152.726 145.244 153.242 145.556C153.773 145.853 154.187 146.267 154.484 146.798C154.797 147.314 154.953 147.908 154.953 148.579V148.626C154.953 149.298 154.797 149.9 154.484 150.431C154.187 150.947 153.773 151.361 153.242 151.673C152.726 151.97 152.133 152.118 151.461 152.118H144.711C144.039 152.118 143.445 151.97 142.93 151.673C142.399 151.361 141.985 150.947 141.688 150.431C141.375 149.9 141.219 149.298 141.219 148.626V148.579ZM147.925 148.579C147.925 147.908 148.081 147.314 148.394 146.798C148.691 146.267 149.105 145.853 149.636 145.556C150.151 145.244 150.745 145.087 151.417 145.087H164.635C165.307 145.087 165.901 145.244 166.416 145.556C166.948 145.853 167.362 146.267 167.658 146.798C167.971 147.314 168.127 147.908 168.127 148.579V148.626C168.127 149.298 167.971 149.9 167.658 150.431C167.362 150.947 166.948 151.361 166.416 151.673C165.901 151.97 165.307 152.118 164.635 152.118H151.417C150.745 152.118 150.151 151.97 149.636 151.673C149.105 151.361 148.691 150.947 148.394 150.431C148.081 149.9 147.925 149.298 147.925 148.626V148.579ZM161.085 148.579C161.085 147.908 161.241 147.314 161.554 146.798C161.851 146.267 162.265 145.853 162.796 145.556C163.312 145.244 163.905 145.087 164.577 145.087H171.327C171.999 145.087 172.592 145.244 173.108 145.556C173.639 145.853 174.053 146.267 174.35 146.798C174.663 147.314 174.819 147.908 174.819 148.579V148.626C174.819 149.298 174.663 149.9 174.35 150.431C174.053 150.947 173.639 151.361 173.108 151.673C172.592 151.97 171.999 152.118 171.327 152.118H164.577C163.905 152.118 163.312 151.97 162.796 151.673C162.265 151.361 161.851 150.947 161.554 150.431C161.241 149.9 161.085 149.298 161.085 148.626V148.579ZM167.791 148.579C167.791 147.908 167.947 147.314 168.26 146.798C168.557 146.267 168.971 145.853 169.502 145.556C170.018 145.244 170.611 145.087 171.283 145.087H184.501C185.173 145.087 185.767 145.244 186.282 145.556C186.814 145.853 187.228 146.267 187.525 146.798C187.837 147.314 187.993 147.908 187.993 148.579V148.626C187.993 149.298 187.837 149.9 187.525 150.431C187.228 150.947 186.814 151.361 186.282 151.673C185.767 151.97 185.173 152.118 184.501 152.118H171.283C170.611 152.118 170.018 151.97 169.502 151.673C168.971 151.361 168.557 150.947 168.26 150.431C167.947 149.9 167.791 149.298 167.791 148.626V148.579ZM180.951 148.579C180.951 147.908 181.107 147.314 181.42 146.798C181.717 146.267 182.131 145.853 182.662 145.556C183.178 145.244 183.771 145.087 184.443 145.087H197.661C198.333 145.087 198.927 145.244 199.443 145.556C199.974 145.853 200.388 146.267 200.685 146.798C200.997 147.314 201.154 147.908 201.154 148.579V148.626C201.154 149.298 200.997 149.9 200.685 150.431C200.388 150.947 199.974 151.361 199.443 151.673C198.927 151.97 198.333 152.118 197.661 152.118H184.443C183.771 152.118 183.178 151.97 182.662 151.673C182.131 151.361 181.717 150.947 181.42 150.431C181.107 149.9 180.951 149.298 180.951 148.626V148.579ZM194.111 148.579C194.111 147.908 194.268 147.314 194.58 146.798C194.877 146.267 195.291 145.853 195.822 145.556C196.338 145.244 196.932 145.087 197.603 145.087H210.822C211.493 145.087 212.087 145.244 212.603 145.556C213.134 145.853 213.548 146.267 213.845 146.798C214.157 147.314 214.314 147.908 214.314 148.579V148.626C214.314 149.298 214.157 149.9 213.845 150.431C213.548 150.947 213.134 151.361 212.603 151.673C212.087 151.97 211.493 152.118 210.822 152.118H197.603C196.932 152.118 196.338 151.97 195.822 151.673C195.291 151.361 194.877 150.947 194.58 150.431C194.268 149.9 194.111 149.298 194.111 148.626V148.579ZM207.272 148.579C207.272 147.908 207.428 147.314 207.74 146.798C208.037 146.267 208.451 145.853 208.982 145.556C209.498 145.244 210.092 145.087 210.764 145.087H223.982C224.654 145.087 225.247 145.244 225.763 145.556C226.294 145.853 226.708 146.267 227.005 146.798C227.318 147.314 227.474 147.908 227.474 148.579V148.626C227.474 149.298 227.318 149.9 227.005 150.431C226.708 150.947 226.294 151.361 225.763 151.673C225.247 151.97 224.654 152.118 223.982 152.118H210.764C210.092 152.118 209.498 151.97 208.982 151.673C208.451 151.361 208.037 150.947 207.74 150.431C207.428 149.9 207.272 149.298 207.272 148.626V148.579Z" fill="#F3F3F2"/>
<path d="M389.076 136.332C389.076 135.525 389.264 134.813 389.639 134.194C389.995 133.557 390.492 133.06 391.129 132.704C391.748 132.329 392.461 132.141 393.267 132.141H409.129C409.935 132.141 410.647 132.329 411.266 132.704C411.904 133.06 412.4 133.557 412.757 134.194C413.132 134.813 413.319 135.525 413.319 136.332V136.388C413.319 137.194 413.132 137.916 412.757 138.553C412.4 139.172 411.904 139.669 411.266 140.044C410.647 140.4 409.935 140.578 409.129 140.578H393.267C392.461 140.578 391.748 140.4 391.129 140.044C390.492 139.669 389.995 139.172 389.639 138.553C389.264 137.916 389.076 137.194 389.076 136.388V136.332ZM404.869 136.332C404.869 135.525 405.056 134.813 405.431 134.194C405.787 133.557 406.284 133.06 406.922 132.704C407.54 132.329 408.253 132.141 409.059 132.141H424.921C425.727 132.141 426.44 132.329 427.058 132.704C427.696 133.06 428.193 133.557 428.549 134.194C428.924 134.813 429.111 135.525 429.111 136.332V136.388C429.111 137.194 428.924 137.916 428.549 138.553C428.193 139.172 427.696 139.669 427.058 140.044C426.44 140.4 425.727 140.578 424.921 140.578H409.059C408.253 140.578 407.54 140.4 406.922 140.044C406.284 139.669 405.787 139.172 405.431 138.553C405.056 137.916 404.869 137.194 404.869 136.388V136.332ZM420.661 136.332C420.661 135.525 420.848 134.813 421.223 134.194C421.579 133.557 422.076 133.06 422.714 132.704C423.333 132.329 424.045 132.141 424.851 132.141H440.713C441.519 132.141 442.232 132.329 442.85 132.704C443.488 133.06 443.985 133.557 444.341 134.194C444.716 134.813 444.903 135.525 444.903 136.332V136.388C444.903 137.194 444.716 137.916 444.341 138.553C443.985 139.172 443.488 139.669 442.85 140.044C442.232 140.4 441.519 140.578 440.713 140.578H424.851C424.045 140.578 423.333 140.4 422.714 140.044C422.076 139.669 421.579 139.172 421.223 138.553C420.848 137.916 420.661 137.194 420.661 136.388V136.332Z" fill="#EEEEEC"/>
<circle cx="455.331" cy="136.703" r="4.66087" fill="#EEEEEC"/>
<path d="M22.0744 189.622C22.0744 188.815 22.2619 188.103 22.6369 187.484C22.9931 186.847 23.49 186.35 24.1274 185.994C24.7462 185.619 25.4586 185.431 26.2648 185.431H42.1267C42.9329 185.431 43.6454 185.619 44.2641 185.994C44.9016 186.35 45.3984 186.847 45.7547 187.484C46.1297 188.103 46.3171 188.815 46.3171 189.622V189.678C46.3171 190.484 46.1297 191.206 45.7547 191.843C45.3984 192.462 44.9016 192.959 44.2641 193.334C43.6454 193.69 42.9329 193.868 42.1267 193.868H26.2648C25.4586 193.868 24.7462 193.69 24.1274 193.334C23.49 192.959 22.9931 192.462 22.6369 191.843C22.2619 191.206 22.0744 190.484 22.0744 189.678V189.622ZM37.8666 189.622C37.8666 188.815 38.0541 188.103 38.4291 187.484C38.7853 186.847 39.2822 186.35 39.9196 185.994C40.5384 185.619 41.2508 185.431 42.057 185.431H57.9189C58.7251 185.431 59.4376 185.619 60.0563 185.994C60.6938 186.35 61.1906 186.847 61.5469 187.484C61.9219 188.103 62.1093 188.815 62.1093 189.622V189.678C62.1093 190.484 61.9219 191.206 61.5469 191.843C61.1906 192.462 60.6938 192.959 60.0563 193.334C59.4376 193.69 58.7251 193.868 57.9189 193.868H42.057C41.2508 193.868 40.5384 193.69 39.9196 193.334C39.2822 192.959 38.7853 192.462 38.4291 191.843C38.0541 191.206 37.8666 190.484 37.8666 189.678V189.622ZM53.6588 189.622C53.6588 188.815 53.8463 188.103 54.2213 187.484C54.5775 186.847 55.0744 186.35 55.7118 185.994C56.3306 185.619 57.043 185.431 57.8492 185.431H73.7111C74.5173 185.431 75.2298 185.619 75.8485 185.994C76.486 186.35 76.9828 186.847 77.3391 187.484C77.714 188.103 77.9015 188.815 77.9015 189.622V189.678C77.9015 190.484 77.714 191.206 77.3391 191.843C76.9828 192.462 76.486 192.959 75.8485 193.334C75.2298 193.69 74.5173 193.868 73.7111 193.868H57.8492C57.043 193.868 56.3306 193.69 55.7118 193.334C55.0744 192.959 54.5775 192.462 54.2213 191.843C53.8463 191.206 53.6588 190.484 53.6588 189.678V189.622ZM69.451 189.622C69.451 188.815 69.6385 188.103 70.0135 187.484C70.3697 186.847 70.8665 186.35 71.504 185.994C72.1227 185.619 72.8352 185.431 73.6414 185.431H89.5033C90.3095 185.431 91.022 185.619 91.6407 185.994C92.2782 186.35 92.775 186.847 93.1313 187.484C93.5062 188.103 93.6937 188.815 93.6937 189.622V189.678C93.6937 190.484 93.5062 191.206 93.1313 191.843C92.775 192.462 92.2782 192.959 91.6407 193.334C91.022 193.69 90.3095 193.868 89.5033 193.868H73.6414C72.8352 193.868 72.1227 193.69 71.504 193.334C70.8665 192.959 70.3697 192.462 70.0135 191.843C69.6385 191.206 69.451 190.484 69.451 189.678V189.622ZM85.2432 189.622C85.2432 188.815 85.4307 188.103 85.8057 187.484C86.1619 186.847 86.6587 186.35 87.2962 185.994C87.9149 185.619 88.6274 185.431 89.4336 185.431H105.295C106.102 185.431 106.814 185.619 107.433 185.994C108.07 186.35 108.567 186.847 108.923 187.484C109.298 188.103 109.486 188.815 109.486 189.622V189.678C109.486 190.484 109.298 191.206 108.923 191.843C108.567 192.462 108.07 192.959 107.433 193.334C106.814 193.69 106.102 193.868 105.295 193.868H89.4336C88.6274 193.868 87.9149 193.69 87.2962 193.334C86.6587 192.959 86.1619 192.462 85.8057 191.843C85.4307 191.206 85.2432 190.484 85.2432 189.678V189.622ZM101.035 189.622C101.035 188.815 101.223 188.103 101.598 187.484C101.954 186.847 102.451 186.35 103.088 185.994C103.707 185.619 104.42 185.431 105.226 185.431H121.088C121.894 185.431 122.606 185.619 123.225 185.994C123.863 186.35 124.359 186.847 124.716 187.484C125.091 188.103 125.278 188.815 125.278 189.622V189.678C125.278 190.484 125.091 191.206 124.716 191.843C124.359 192.462 123.863 192.959 123.225 193.334C122.606 193.69 121.894 193.868 121.088 193.868H105.226C104.42 193.868 103.707 193.69 103.088 193.334C102.451 192.959 101.954 192.462 101.598 191.843C101.223 191.206 101.035 190.484 101.035 189.678V189.622ZM133.691 189.622C133.691 188.815 133.878 188.103 134.253 187.484C134.61 186.847 135.106 186.35 135.744 185.994C136.363 185.619 137.075 185.431 137.881 185.431H153.743C154.549 185.431 155.262 185.619 155.881 185.994C156.518 186.35 157.015 186.847 157.371 187.484C157.746 188.103 157.934 188.815 157.934 189.622V189.678C157.934 190.484 157.746 191.206 157.371 191.843C157.015 192.462 156.518 192.959 155.881 193.334C155.262 193.69 154.549 193.868 153.743 193.868H137.881C137.075 193.868 136.363 193.69 135.744 193.334C135.106 192.959 134.61 192.462 134.253 191.843C133.878 191.206 133.691 190.484 133.691 189.678V189.622ZM149.483 189.622C149.483 188.815 149.671 188.103 150.046 187.484C150.402 186.847 150.899 186.35 151.536 185.994C152.155 185.619 152.867 185.431 153.674 185.431H169.535C170.342 185.431 171.054 185.619 171.673 185.994C172.31 186.35 172.807 186.847 173.163 187.484C173.538 188.103 173.726 188.815 173.726 189.622V189.678C173.726 190.484 173.538 191.206 173.163 191.843C172.807 192.462 172.31 192.959 171.673 193.334C171.054 193.69 170.342 193.868 169.535 193.868H153.674C152.867 193.868 152.155 193.69 151.536 193.334C150.899 192.959 150.402 192.462 150.046 191.843C149.671 191.206 149.483 190.484 149.483 189.678V189.622ZM165.275 189.622C165.275 188.815 165.463 188.103 165.838 187.484C166.194 186.847 166.691 186.35 167.328 185.994C167.947 185.619 168.66 185.431 169.466 185.431H185.328C186.134 185.431 186.846 185.619 187.465 185.994C188.102 186.35 188.599 186.847 188.956 187.484C189.331 188.103 189.518 188.815 189.518 189.622V189.678C189.518 190.484 189.331 191.206 188.956 191.843C188.599 192.462 188.102 192.959 187.465 193.334C186.846 193.69 186.134 193.868 185.328 193.868H169.466C168.66 193.868 167.947 193.69 167.328 193.334C166.691 192.959 166.194 192.462 165.838 191.843C165.463 191.206 165.275 190.484 165.275 189.678V189.622Z" fill="#EEEEEC"/>
<path d="M22.7775 207.925C22.7775 207.253 22.9337 206.66 23.2462 206.144C23.5431 205.613 23.9571 205.199 24.4884 204.902C25.004 204.589 25.5977 204.433 26.2695 204.433H39.4877C40.1596 204.433 40.7533 204.589 41.2689 204.902C41.8001 205.199 42.2142 205.613 42.5111 206.144C42.8235 206.66 42.9798 207.253 42.9798 207.925V207.972C42.9798 208.644 42.8235 209.245 42.5111 209.777C42.2142 210.292 41.8001 210.706 41.2689 211.019C40.7533 211.316 40.1596 211.464 39.4877 211.464H26.2695C25.5977 211.464 25.004 211.316 24.4884 211.019C23.9571 210.706 23.5431 210.292 23.2462 209.777C22.9337 209.245 22.7775 208.644 22.7775 207.972V207.925ZM35.9377 207.925C35.9377 207.253 36.0939 206.66 36.4064 206.144C36.7032 205.613 37.1173 205.199 37.6485 204.902C38.1641 204.589 38.7578 204.433 39.4297 204.433H52.6479C53.3197 204.433 53.9135 204.589 54.4291 204.902C54.9603 205.199 55.3744 205.613 55.6712 206.144C55.9837 206.66 56.1399 207.253 56.1399 207.925V207.972C56.1399 208.644 55.9837 209.245 55.6712 209.777C55.3744 210.292 54.9603 210.706 54.4291 211.019C53.9135 211.316 53.3197 211.464 52.6479 211.464H39.4297C38.7578 211.464 38.1641 211.316 37.6485 211.019C37.1173 210.706 36.7032 210.292 36.4064 209.777C36.0939 209.245 35.9377 208.644 35.9377 207.972V207.925ZM49.0978 207.925C49.0978 207.253 49.2541 206.66 49.5665 206.144C49.8634 205.613 50.2775 205.199 50.8087 204.902C51.3243 204.589 51.918 204.433 52.5899 204.433H65.8081C66.4799 204.433 67.0736 204.589 67.5892 204.902C68.1205 205.199 68.5345 205.613 68.8314 206.144C69.1439 206.66 69.3001 207.253 69.3001 207.925V207.972C69.3001 208.644 69.1439 209.245 68.8314 209.777C68.5345 210.292 68.1205 210.706 67.5892 211.019C67.0736 211.316 66.4799 211.464 65.8081 211.464H52.5899C51.918 211.464 51.3243 211.316 50.8087 211.019C50.2775 210.706 49.8634 210.292 49.5665 209.777C49.2541 209.245 49.0978 208.644 49.0978 207.972V207.925ZM62.258 207.925C62.258 207.253 62.4142 206.66 62.7267 206.144C63.0236 205.613 63.4376 205.199 63.9688 204.902C64.4845 204.589 65.0782 204.433 65.75 204.433H78.9682C79.6401 204.433 80.2338 204.589 80.7494 204.902C81.2806 205.199 81.6947 205.613 81.9915 206.144C82.304 206.66 82.4603 207.253 82.4603 207.925V207.972C82.4603 208.644 82.304 209.245 81.9915 209.777C81.6947 210.292 81.2806 210.706 80.7494 211.019C80.2338 211.316 79.6401 211.464 78.9682 211.464H65.75C65.0782 211.464 64.4845 211.316 63.9688 211.019C63.4376 210.706 63.0236 210.292 62.7267 209.777C62.4142 209.245 62.258 208.644 62.258 207.972V207.925ZM75.4181 207.925C75.4181 207.253 75.5744 206.66 75.8869 206.144C76.1837 205.613 76.5978 205.199 77.129 204.902C77.6446 204.589 78.2383 204.433 78.9102 204.433H92.1284C92.8002 204.433 93.394 204.589 93.9096 204.902C94.4408 205.199 94.8548 205.613 95.1517 206.144C95.4642 206.66 95.6204 207.253 95.6204 207.925V207.972C95.6204 208.644 95.4642 209.245 95.1517 209.777C94.8548 210.292 94.4408 210.706 93.9096 211.019C93.394 211.316 92.8002 211.464 92.1284 211.464H78.9102C78.2383 211.464 77.6446 211.316 77.129 211.019C76.5978 210.706 76.1837 210.292 75.8869 209.777C75.5744 209.245 75.4181 208.644 75.4181 207.972V207.925ZM88.5783 207.925C88.5783 207.253 88.7346 206.66 89.047 206.144C89.3439 205.613 89.7579 205.199 90.2892 204.902C90.8048 204.589 91.3985 204.433 92.0704 204.433H105.289C105.96 204.433 106.554 204.589 107.07 204.902C107.601 205.199 108.015 205.613 108.312 206.144C108.624 206.66 108.781 207.253 108.781 207.925V207.972C108.781 208.644 108.624 209.245 108.312 209.777C108.015 210.292 107.601 210.706 107.07 211.019C106.554 211.316 105.96 211.464 105.289 211.464H92.0704C91.3985 211.464 90.8048 211.316 90.2892 211.019C89.7579 210.706 89.3439 210.292 89.047 209.777C88.7346 209.245 88.5783 208.644 88.5783 207.972V207.925ZM101.738 207.925C101.738 207.253 101.895 206.66 102.207 206.144C102.504 205.613 102.918 205.199 103.449 204.902C103.965 204.589 104.559 204.433 105.231 204.433H118.449C119.121 204.433 119.714 204.589 120.23 204.902C120.761 205.199 121.175 205.613 121.472 206.144C121.785 206.66 121.941 207.253 121.941 207.925V207.972C121.941 208.644 121.785 209.245 121.472 209.777C121.175 210.292 120.761 210.706 120.23 211.019C119.714 211.316 119.121 211.464 118.449 211.464H105.231C104.559 211.464 103.965 211.316 103.449 211.019C102.918 210.706 102.504 210.292 102.207 209.777C101.895 209.245 101.738 208.644 101.738 207.972V207.925ZM114.899 207.925C114.899 207.253 115.055 206.66 115.367 206.144C115.664 205.613 116.078 205.199 116.61 204.902C117.125 204.589 117.719 204.433 118.391 204.433H131.609C132.281 204.433 132.874 204.589 133.39 204.902C133.921 205.199 134.335 205.613 134.632 206.144C134.945 206.66 135.101 207.253 135.101 207.925V207.972C135.101 208.644 134.945 209.245 134.632 209.777C134.335 210.292 133.921 210.706 133.39 211.019C132.874 211.316 132.281 211.464 131.609 211.464H118.391C117.719 211.464 117.125 211.316 116.61 211.019C116.078 210.706 115.664 210.292 115.367 209.777C115.055 209.245 114.899 208.644 114.899 207.972V207.925ZM128.059 207.925C128.059 207.253 128.215 206.66 128.528 206.144C128.824 205.613 129.238 205.199 129.77 204.902C130.285 204.589 130.879 204.433 131.551 204.433H144.769C145.441 204.433 146.035 204.589 146.55 204.902C147.081 205.199 147.495 205.613 147.792 206.144C148.105 206.66 148.261 207.253 148.261 207.925V207.972C148.261 208.644 148.105 209.245 147.792 209.777C147.495 210.292 147.081 210.706 146.55 211.019C146.035 211.316 145.441 211.464 144.769 211.464H131.551C130.879 211.464 130.285 211.316 129.77 211.019C129.238 210.706 128.824 210.292 128.528 209.777C128.215 209.245 128.059 208.644 128.059 207.972V207.925ZM141.219 207.925C141.219 207.253 141.375 206.66 141.688 206.144C141.985 205.613 142.399 205.199 142.93 204.902C143.445 204.589 144.039 204.433 144.711 204.433H151.461C152.133 204.433 152.726 204.589 153.242 204.902C153.773 205.199 154.187 205.613 154.484 206.144C154.797 206.66 154.953 207.253 154.953 207.925V207.972C154.953 208.644 154.797 209.245 154.484 209.777C154.187 210.292 153.773 210.706 153.242 211.019C152.726 211.316 152.133 211.464 151.461 211.464H144.711C144.039 211.464 143.445 211.316 142.93 211.019C142.399 210.706 141.985 210.292 141.688 209.777C141.375 209.245 141.219 208.644 141.219 207.972V207.925ZM147.925 207.925C147.925 207.253 148.081 206.66 148.394 206.144C148.691 205.613 149.105 205.199 149.636 204.902C150.151 204.589 150.745 204.433 151.417 204.433H164.635C165.307 204.433 165.901 204.589 166.416 204.902C166.948 205.199 167.362 205.613 167.658 206.144C167.971 206.66 168.127 207.253 168.127 207.925V207.972C168.127 208.644 167.971 209.245 167.658 209.777C167.362 210.292 166.948 210.706 166.416 211.019C165.901 211.316 165.307 211.464 164.635 211.464H151.417C150.745 211.464 150.151 211.316 149.636 211.019C149.105 210.706 148.691 210.292 148.394 209.777C148.081 209.245 147.925 208.644 147.925 207.972V207.925ZM161.085 207.925C161.085 207.253 161.241 206.66 161.554 206.144C161.851 205.613 162.265 205.199 162.796 204.902C163.312 204.589 163.905 204.433 164.577 204.433H171.327C171.999 204.433 172.592 204.589 173.108 204.902C173.639 205.199 174.053 205.613 174.35 206.144C174.663 206.66 174.819 207.253 174.819 207.925V207.972C174.819 208.644 174.663 209.245 174.35 209.777C174.053 210.292 173.639 210.706 173.108 211.019C172.592 211.316 171.999 211.464 171.327 211.464H164.577C163.905 211.464 163.312 211.316 162.796 211.019C162.265 210.706 161.851 210.292 161.554 209.777C161.241 209.245 161.085 208.644 161.085 207.972V207.925ZM167.791 207.925C167.791 207.253 167.947 206.66 168.26 206.144C168.557 205.613 168.971 205.199 169.502 204.902C170.018 204.589 170.611 204.433 171.283 204.433H184.501C185.173 204.433 185.767 204.589 186.282 204.902C186.814 205.199 187.228 205.613 187.525 206.144C187.837 206.66 187.993 207.253 187.993 207.925V207.972C187.993 208.644 187.837 209.245 187.525 209.777C187.228 210.292 186.814 210.706 186.282 211.019C185.767 211.316 185.173 211.464 184.501 211.464H171.283C170.611 211.464 170.018 211.316 169.502 211.019C168.971 210.706 168.557 210.292 168.26 209.777C167.947 209.245 167.791 208.644 167.791 207.972V207.925ZM180.951 207.925C180.951 207.253 181.107 206.66 181.42 206.144C181.717 205.613 182.131 205.199 182.662 204.902C183.178 204.589 183.771 204.433 184.443 204.433H197.661C198.333 204.433 198.927 204.589 199.443 204.902C199.974 205.199 200.388 205.613 200.685 206.144C200.997 206.66 201.154 207.253 201.154 207.925V207.972C201.154 208.644 200.997 209.245 200.685 209.777C200.388 210.292 199.974 210.706 199.443 211.019C198.927 211.316 198.333 211.464 197.661 211.464H184.443C183.771 211.464 183.178 211.316 182.662 211.019C182.131 210.706 181.717 210.292 181.42 209.777C181.107 209.245 180.951 208.644 180.951 207.972V207.925ZM194.111 207.925C194.111 207.253 194.268 206.66 194.58 206.144C194.877 205.613 195.291 205.199 195.822 204.902C196.338 204.589 196.932 204.433 197.603 204.433H210.822C211.493 204.433 212.087 204.589 212.603 204.902C213.134 205.199 213.548 205.613 213.845 206.144C214.157 206.66 214.314 207.253 214.314 207.925V207.972C214.314 208.644 214.157 209.245 213.845 209.777C213.548 210.292 213.134 210.706 212.603 211.019C212.087 211.316 211.493 211.464 210.822 211.464H197.603C196.932 211.464 196.338 211.316 195.822 211.019C195.291 210.706 194.877 210.292 194.58 209.777C194.268 209.245 194.111 208.644 194.111 207.972V207.925ZM207.272 207.925C207.272 207.253 207.428 206.66 207.74 206.144C208.037 205.613 208.451 205.199 208.982 204.902C209.498 204.589 210.092 204.433 210.764 204.433H223.982C224.654 204.433 225.247 204.589 225.763 204.902C226.294 205.199 226.708 205.613 227.005 206.144C227.318 206.66 227.474 207.253 227.474 207.925V207.972C227.474 208.644 227.318 209.245 227.005 209.777C226.708 210.292 226.294 210.706 225.763 211.019C225.247 211.316 224.654 211.464 223.982 211.464H210.764C210.092 211.464 209.498 211.316 208.982 211.019C208.451 210.706 208.037 210.292 207.74 209.777C207.428 209.245 207.272 208.644 207.272 207.972V207.925Z" fill="#F3F3F2"/>
<path d="M389.076 195.677C389.076 194.871 389.264 194.159 389.639 193.54C389.995 192.902 390.492 192.406 391.129 192.049C391.748 191.674 392.461 191.487 393.267 191.487H409.129C409.935 191.487 410.647 191.674 411.266 192.049C411.904 192.406 412.4 192.902 412.757 193.54C413.132 194.159 413.319 194.871 413.319 195.677V195.734C413.319 196.54 413.132 197.262 412.757 197.899C412.4 198.518 411.904 199.015 411.266 199.39C410.647 199.746 409.935 199.924 409.129 199.924H393.267C392.461 199.924 391.748 199.746 391.129 199.39C390.492 199.015 389.995 198.518 389.639 197.899C389.264 197.262 389.076 196.54 389.076 195.734V195.677ZM404.869 195.677C404.869 194.871 405.056 194.159 405.431 193.54C405.787 192.902 406.284 192.406 406.922 192.049C407.54 191.674 408.253 191.487 409.059 191.487H424.921C425.727 191.487 426.44 191.674 427.058 192.049C427.696 192.406 428.193 192.902 428.549 193.54C428.924 194.159 429.111 194.871 429.111 195.677V195.734C429.111 196.54 428.924 197.262 428.549 197.899C428.193 198.518 427.696 199.015 427.058 199.39C426.44 199.746 425.727 199.924 424.921 199.924H409.059C408.253 199.924 407.54 199.746 406.922 199.39C406.284 199.015 405.787 198.518 405.431 197.899C405.056 197.262 404.869 196.54 404.869 195.734V195.677ZM420.661 195.677C420.661 194.871 420.848 194.159 421.223 193.54C421.579 192.902 422.076 192.406 422.714 192.049C423.333 191.674 424.045 191.487 424.851 191.487H440.713C441.519 191.487 442.232 191.674 442.85 192.049C443.488 192.406 443.985 192.902 444.341 193.54C444.716 194.159 444.903 194.871 444.903 195.677V195.734C444.903 196.54 444.716 197.262 444.341 197.899C443.985 198.518 443.488 199.015 442.85 199.39C442.232 199.746 441.519 199.924 440.713 199.924H424.851C424.045 199.924 423.333 199.746 422.714 199.39C422.076 199.015 421.579 198.518 421.223 197.899C420.848 197.262 420.661 196.54 420.661 195.734V195.677Z" fill="#EEEEEC"/>
<circle cx="455.331" cy="196.049" r="4.66087" fill="#EEEEEC"/>
<mask id="path-24-inside-2_11880_2134" fill="white">
<path d="M2.85547 210.062H482.855V248.727H2.85547V210.062Z"/>
</mask>
<path d="M2.85547 210.062H482.855V248.727H2.85547V210.062Z" fill="white"/>
<path d="M2.85547 210.962H482.855V209.163H2.85547V210.962Z" fill="#DBDBD7" mask="url(#path-24-inside-2_11880_2134)"/>
<ellipse cx="24.6465" cy="229.395" rx="11" ry="11" fill="#E9E9E6" stroke="#DBDBD7" stroke-width="0.903102"/>
<g clip-path="url(#clip2_11880_2134)">
<path d="M24.3042 220.607C19.5921 220.607 19.8243 225.859 19.5455 229.203C19.5414 229.252 19.5581 229.301 19.5913 229.337C19.6246 229.373 19.6715 229.394 19.7206 229.394H22.5323C22.6253 229.394 22.7022 229.321 22.7077 229.228L22.956 225.008C23.0085 224.116 23.7473 223.419 24.641 223.419C25.5347 223.419 26.2735 224.116 26.326 225.008L26.5743 229.228C26.5798 229.321 26.6567 229.394 26.7497 229.394H29.5614C29.6105 229.394 29.6574 229.373 29.6907 229.337C29.7239 229.301 29.7406 229.252 29.7365 229.203L29.3558 224.636C29.1661 222.359 27.2627 220.607 24.9778 220.607H24.3042Z" fill="#706F6C"/>
<path d="M24.654 236.423C22.3764 236.423 20.7592 236.37 19.7184 236.319C18.6053 236.264 17.6667 235.462 17.5588 234.306C17.4982 233.658 17.4492 232.79 17.4492 231.678C17.4492 230.567 17.4982 229.699 17.5588 229.05C17.6667 227.894 18.6053 227.093 19.7184 227.038C20.7592 226.986 22.3764 226.934 24.654 226.934C26.9317 226.934 28.5488 226.986 29.5896 227.038C30.7028 227.093 31.6414 227.894 31.7493 229.05C31.8098 229.699 31.8588 230.567 31.8588 231.678C31.8588 232.79 31.8098 233.658 31.7493 234.306C31.6414 235.462 30.7028 236.264 29.5896 236.319C28.5488 236.37 26.9317 236.423 24.654 236.423Z" fill="url(#paint0_linear_11880_2134)"/>
<path fill-rule="evenodd" clip-rule="evenodd" d="M27.7315 230.051C27.9943 229.668 27.8969 229.144 27.5139 228.881C27.1309 228.618 26.6073 228.716 26.3444 229.099L24.6395 231.583L23.7376 230.582C23.4267 230.237 22.8949 230.209 22.5497 230.52C22.2045 230.831 22.1767 231.363 22.4877 231.708L24.1039 233.502C24.2764 233.694 24.5271 233.795 24.7843 233.778C25.0415 233.762 25.2767 233.628 25.4225 233.415L27.7315 230.051Z" fill="#1B1B18"/>
</g>
<path d="M46.9695 227.724C46.9223 227.306 46.728 226.982 46.3863 226.752C46.0447 226.519 45.6147 226.403 45.0964 226.403C44.7253 226.403 44.4043 226.462 44.1333 226.58C43.8624 226.695 43.6518 226.854 43.5016 227.057C43.3544 227.257 43.2807 227.485 43.2807 227.742C43.2807 227.957 43.3308 228.142 43.4309 228.298C43.534 228.454 43.668 228.585 43.8329 228.691C44.0008 228.794 44.1805 228.881 44.3719 228.952C44.5633 229.02 44.7474 229.076 44.9241 229.12L45.8076 229.35C46.0962 229.42 46.3922 229.516 46.6956 229.637C46.9989 229.758 47.2802 229.917 47.5393 230.114C47.7985 230.311 48.0076 230.556 48.1666 230.847C48.3286 231.139 48.4096 231.488 48.4096 231.894C48.4096 232.407 48.2771 232.862 48.012 233.259C47.7499 233.657 47.3685 233.97 46.8678 234.2C46.3701 234.43 45.7679 234.545 45.061 234.545C44.3837 234.545 43.7976 234.437 43.3028 234.222C42.8081 234.007 42.4208 233.702 42.141 233.308C41.8612 232.91 41.7066 232.439 41.6772 231.894H43.0466C43.0731 232.221 43.1791 232.493 43.3647 232.711C43.5532 232.926 43.7932 233.087 44.0848 233.193C44.3793 233.296 44.7017 233.348 45.0522 233.348C45.438 233.348 45.7811 233.287 46.0815 233.166C46.3849 233.043 46.6234 232.872 46.7972 232.654C46.9709 232.433 47.0578 232.175 47.0578 231.881C47.0578 231.613 46.9812 231.393 46.8281 231.223C46.6779 231.052 46.4732 230.911 46.214 230.799C45.9578 230.687 45.6677 230.588 45.3438 230.503L44.2747 230.211C43.5502 230.014 42.9759 229.724 42.5518 229.341C42.1307 228.958 41.9201 228.451 41.9201 227.821C41.9201 227.3 42.0615 226.845 42.3442 226.456C42.6269 226.067 43.0098 225.765 43.4928 225.55C43.9758 225.333 44.5206 225.224 45.1273 225.224C45.7399 225.224 46.2803 225.331 46.7486 225.546C47.2198 225.761 47.5909 226.057 47.8618 226.434C48.1328 226.808 48.2741 227.238 48.2859 227.724H46.9695ZM52.8592 234.531C52.1907 234.531 51.6149 234.389 51.1319 234.103C50.6519 233.814 50.2808 233.409 50.0187 232.888C49.7595 232.364 49.63 231.75 49.63 231.046C49.63 230.351 49.7595 229.738 50.0187 229.208C50.2808 228.678 50.646 228.264 51.1143 227.967C51.5855 227.669 52.1362 227.521 52.7665 227.521C53.1493 227.521 53.5204 227.584 53.8797 227.711C54.239 227.837 54.5615 228.036 54.8472 228.307C55.1328 228.578 55.3581 228.93 55.5231 229.363C55.688 229.793 55.7704 230.316 55.7704 230.931V231.399H50.3765V230.41H54.4761C54.4761 230.062 54.4054 229.755 54.264 229.487C54.1227 229.216 53.9239 229.002 53.6677 228.846C53.4144 228.69 53.1169 228.612 52.7753 228.612C52.4042 228.612 52.0803 228.703 51.8034 228.886C51.5295 229.065 51.3175 229.301 51.1673 229.593C51.02 229.881 50.9464 230.195 50.9464 230.534V231.307C50.9464 231.76 51.0259 232.146 51.185 232.464C51.3469 232.782 51.5722 233.025 51.8609 233.193C52.1495 233.358 52.4867 233.44 52.8725 233.44C53.1228 233.44 53.3511 233.405 53.5572 233.334C53.7634 233.261 53.9416 233.152 54.0918 233.007C54.2419 232.863 54.3568 232.685 54.4363 232.473L55.6865 232.698C55.5864 233.066 55.4067 233.389 55.1476 233.666C54.8913 233.94 54.5689 234.153 54.1801 234.306C53.7943 234.456 53.354 234.531 52.8592 234.531ZM60.0942 234.531C59.4374 234.531 58.872 234.383 58.3978 234.085C57.9266 233.785 57.5644 233.371 57.3111 232.844C57.0578 232.317 56.9312 231.713 56.9312 231.033C56.9312 230.344 57.0608 229.735 57.3199 229.208C57.5791 228.678 57.9443 228.264 58.4155 227.967C58.8867 227.669 59.4418 227.521 60.0809 227.521C60.5963 227.521 61.0558 227.616 61.4592 227.808C61.8627 227.996 62.1881 228.261 62.4355 228.603C62.6859 228.945 62.8346 229.344 62.8817 229.8H61.5962C61.5255 229.482 61.3635 229.208 61.1102 228.979C60.8599 228.749 60.5242 228.634 60.103 228.634C59.7349 228.634 59.4124 228.731 59.1356 228.926C58.8617 229.117 58.6482 229.391 58.495 229.747C58.3419 230.101 58.2653 230.519 58.2653 231.002C58.2653 231.497 58.3404 231.924 58.4906 232.283C58.6408 232.642 58.8528 232.921 59.1267 233.118C59.4036 233.315 59.729 233.414 60.103 233.414C60.3534 233.414 60.5801 233.368 60.7833 233.277C60.9895 233.183 61.1618 233.049 61.3002 232.875C61.4416 232.701 61.5402 232.492 61.5962 232.248H62.8817C62.8346 232.686 62.6917 233.078 62.4532 233.423C62.2146 233.767 61.8951 234.038 61.4946 234.235C61.097 234.433 60.6302 234.531 60.0942 234.531ZM68.5926 231.581V227.609H69.9179V234.395H68.6191V233.219H68.5484C68.3923 233.582 68.142 233.884 67.7974 234.125C67.4558 234.364 67.0302 234.483 66.5207 234.483C66.0848 234.483 65.699 234.387 65.3633 234.196C65.0305 234.001 64.7684 233.714 64.577 233.334C64.3885 232.954 64.2942 232.485 64.2942 231.925V227.609H65.6151V231.766C65.6151 232.228 65.7432 232.597 65.9994 232.87C66.2556 233.144 66.5884 233.281 66.9978 233.281C67.2452 233.281 67.4911 233.219 67.7355 233.096C67.9829 232.972 68.1876 232.785 68.3496 232.535C68.5145 232.284 68.5955 231.966 68.5926 231.581ZM71.6926 234.395V227.609H72.9693V228.687H73.04C73.1637 228.322 73.3816 228.035 73.6938 227.826C74.0089 227.613 74.3653 227.507 74.7629 227.507C74.8453 227.507 74.9425 227.51 75.0544 227.516C75.1693 227.522 75.2591 227.53 75.3239 227.538V228.802C75.2709 228.787 75.1767 228.771 75.0412 228.753C74.9057 228.733 74.7702 228.722 74.6348 228.722C74.3226 228.722 74.0443 228.789 73.7998 228.921C73.5583 229.051 73.3669 229.232 73.2255 229.464C73.0842 229.694 73.0135 229.956 73.0135 230.251V234.395H71.6926ZM79.1485 234.531C78.4799 234.531 77.9042 234.389 77.4212 234.103C76.9411 233.814 76.57 233.409 76.3079 232.888C76.0488 232.364 75.9192 231.75 75.9192 231.046C75.9192 230.351 76.0488 229.738 76.3079 229.208C76.57 228.678 76.9352 228.264 77.4035 227.967C77.8747 227.669 78.4254 227.521 79.0557 227.521C79.4385 227.521 79.8096 227.584 80.1689 227.711C80.5282 227.837 80.8507 228.036 81.1364 228.307C81.4221 228.578 81.6473 228.93 81.8123 229.363C81.9772 229.793 82.0597 230.316 82.0597 230.931V231.399H76.6658V230.41H80.7653C80.7653 230.062 80.6946 229.755 80.5533 229.487C80.4119 229.216 80.2131 229.002 79.9569 228.846C79.7036 228.69 79.4061 228.612 79.0645 228.612C78.6934 228.612 78.3695 228.703 78.0926 228.886C77.8188 229.065 77.6067 229.301 77.4565 229.593C77.3093 229.881 77.2356 230.195 77.2356 230.534V231.307C77.2356 231.76 77.3151 232.146 77.4742 232.464C77.6362 232.782 77.8615 233.025 78.1501 233.193C78.4387 233.358 78.7759 233.44 79.1617 233.44C79.412 233.44 79.6403 233.405 79.8464 233.334C80.0526 233.261 80.2308 233.152 80.381 233.007C80.5312 232.863 80.646 232.685 80.7255 232.473L81.9757 232.698C81.8756 233.066 81.6959 233.389 81.4368 233.666C81.1806 233.94 80.8581 234.153 80.4693 234.306C80.0835 234.456 79.6432 234.531 79.1485 234.531ZM86.0653 234.527C85.5175 234.527 85.0287 234.387 84.5987 234.107C84.1716 233.825 83.8359 233.423 83.5915 232.901C83.35 232.377 83.2292 231.748 83.2292 231.015C83.2292 230.282 83.3514 229.654 83.5959 229.133C83.8433 228.612 84.182 228.213 84.6119 227.936C85.0419 227.659 85.5293 227.521 86.0742 227.521C86.4953 227.521 86.834 227.591 87.0902 227.733C87.3494 227.871 87.5497 228.033 87.691 228.219C87.8353 228.404 87.9472 228.568 88.0268 228.709H88.1063V225.347H89.4271V234.395H88.1372V233.339H88.0268C87.9472 233.483 87.8324 233.648 87.6822 233.833C87.5349 234.019 87.3317 234.181 87.0725 234.319C86.8134 234.458 86.4776 234.527 86.0653 234.527ZM86.3569 233.401C86.7368 233.401 87.0578 233.3 87.3199 233.1C87.585 232.897 87.7853 232.616 87.9207 232.256C88.0591 231.897 88.1284 231.479 88.1284 231.002C88.1284 230.531 88.0606 230.118 87.9251 229.765C87.7897 229.411 87.5909 229.136 87.3288 228.939C87.0667 228.741 86.7427 228.643 86.3569 228.643C85.9593 228.643 85.628 228.746 85.3629 228.952C85.0979 229.158 84.8976 229.439 84.7621 229.796C84.6296 230.152 84.5633 230.554 84.5633 231.002C84.5633 231.455 84.6311 231.863 84.7666 232.225C84.902 232.588 85.1023 232.875 85.3673 233.087C85.6354 233.296 85.9652 233.401 86.3569 233.401ZM94.7106 234.395V225.347H96.0315V228.709H96.111C96.1876 228.568 96.298 228.404 96.4423 228.219C96.5866 228.033 96.7869 227.871 97.0431 227.733C97.2993 227.591 97.638 227.521 98.0592 227.521C98.6069 227.521 99.0958 227.659 99.5258 227.936C99.9558 228.213 100.293 228.612 100.537 229.133C100.785 229.654 100.909 230.282 100.909 231.015C100.909 231.748 100.786 232.377 100.542 232.901C100.297 233.423 99.9617 233.825 99.5346 234.107C99.1076 234.387 98.6202 234.527 98.0724 234.527C97.6601 234.527 97.3229 234.458 97.0608 234.319C96.8016 234.181 96.5984 234.019 96.4511 233.833C96.3039 233.648 96.1905 233.483 96.111 233.339H96.0005V234.395H94.7106ZM96.005 231.002C96.005 231.479 96.0742 231.897 96.2126 232.256C96.351 232.616 96.5513 232.897 96.8134 233.1C97.0755 233.3 97.3965 233.401 97.7764 233.401C98.1711 233.401 98.5009 233.296 98.766 233.087C99.031 232.875 99.2313 232.588 99.3668 232.225C99.5052 231.863 99.5744 231.455 99.5744 231.002C99.5744 230.554 99.5067 230.152 99.3712 229.796C99.2387 229.439 99.0384 229.158 98.7704 228.952C98.5053 228.746 98.174 228.643 97.7764 228.643C97.3936 228.643 97.0696 228.741 96.8046 228.939C96.5424 229.136 96.3436 229.411 96.2082 229.765C96.0727 230.118 96.005 230.531 96.005 231.002ZM102.996 236.939C102.799 236.939 102.619 236.923 102.457 236.89C102.295 236.861 102.174 236.829 102.095 236.793L102.413 235.711C102.654 235.776 102.869 235.804 103.058 235.795C103.246 235.786 103.413 235.715 103.557 235.583C103.704 235.45 103.834 235.234 103.946 234.933L104.109 234.483L101.626 227.609H103.04L104.758 232.875H104.829L106.548 227.609H107.966L105.169 235.3C105.04 235.654 104.875 235.952 104.675 236.197C104.474 236.444 104.236 236.63 103.959 236.754C103.682 236.877 103.361 236.939 102.996 236.939ZM112.398 234.395V225.347H115.967C116.653 225.347 117.238 225.478 117.721 225.74C118.204 226 118.572 226.36 118.825 226.823C119.081 227.282 119.21 227.812 119.21 228.413C119.21 229.014 119.08 229.544 118.821 230.003C118.562 230.463 118.186 230.821 117.694 231.077C117.205 231.333 116.614 231.461 115.918 231.461H113.643V229.928H115.609C115.977 229.928 116.281 229.865 116.519 229.738C116.761 229.609 116.94 229.431 117.058 229.204C117.179 228.974 117.239 228.711 117.239 228.413C117.239 228.113 117.179 227.851 117.058 227.627C116.94 227.4 116.761 227.225 116.519 227.101C116.278 226.974 115.971 226.911 115.6 226.911H114.31V234.395H112.398ZM123.4 234.527C122.702 234.527 122.101 234.386 121.597 234.103C121.097 233.817 120.711 233.414 120.44 232.893C120.169 232.368 120.033 231.748 120.033 231.033C120.033 230.335 120.169 229.722 120.44 229.195C120.711 228.668 121.092 228.257 121.584 227.962C122.079 227.668 122.659 227.521 123.325 227.521C123.772 227.521 124.189 227.593 124.575 227.737C124.964 227.879 125.302 228.092 125.591 228.378C125.882 228.663 126.109 229.023 126.271 229.456C126.433 229.886 126.514 230.389 126.514 230.966V231.483H120.784V230.317H124.743C124.743 230.046 124.684 229.806 124.566 229.597C124.448 229.388 124.285 229.224 124.076 229.107C123.869 228.986 123.629 228.926 123.356 228.926C123.07 228.926 122.817 228.992 122.596 229.124C122.378 229.254 122.207 229.429 122.083 229.65C121.96 229.868 121.896 230.111 121.893 230.379V231.488C121.893 231.823 121.955 232.114 122.079 232.358C122.205 232.602 122.384 232.791 122.613 232.923C122.843 233.056 123.115 233.122 123.431 233.122C123.64 233.122 123.831 233.093 124.005 233.034C124.179 232.975 124.327 232.887 124.451 232.769C124.575 232.651 124.669 232.507 124.734 232.336L126.474 232.451C126.386 232.869 126.205 233.234 125.931 233.546C125.66 233.856 125.31 234.097 124.88 234.271C124.453 234.442 123.959 234.527 123.4 234.527ZM127.742 234.395V227.609H129.567V228.793H129.637C129.761 228.372 129.969 228.054 130.26 227.839C130.552 227.621 130.888 227.512 131.267 227.512C131.362 227.512 131.463 227.518 131.572 227.53C131.681 227.541 131.777 227.558 131.859 227.578V229.248C131.771 229.222 131.649 229.198 131.493 229.177C131.337 229.157 131.194 229.146 131.064 229.146C130.787 229.146 130.54 229.207 130.322 229.328C130.107 229.445 129.936 229.61 129.81 229.822C129.686 230.034 129.624 230.279 129.624 230.556V234.395H127.742ZM132.832 234.395V227.609H134.626V228.806H134.705C134.847 228.409 135.082 228.095 135.412 227.865C135.742 227.636 136.137 227.521 136.596 227.521C137.062 227.521 137.458 227.637 137.785 227.87C138.111 228.099 138.329 228.412 138.438 228.806H138.509C138.647 228.418 138.898 228.107 139.26 227.874C139.625 227.639 140.057 227.521 140.554 227.521C141.188 227.521 141.701 227.722 142.096 228.126C142.494 228.526 142.693 229.095 142.693 229.831V234.395H140.815V230.202C140.815 229.825 140.715 229.543 140.515 229.354C140.314 229.166 140.064 229.071 139.764 229.071C139.422 229.071 139.155 229.18 138.964 229.398C138.773 229.613 138.677 229.897 138.677 230.251V234.395H136.852V230.162C136.852 229.83 136.757 229.565 136.565 229.367C136.377 229.17 136.128 229.071 135.819 229.071C135.61 229.071 135.421 229.124 135.253 229.23C135.088 229.333 134.957 229.479 134.86 229.668C134.763 229.853 134.714 230.071 134.714 230.321V234.395H132.832ZM144.179 234.395V227.609H146.061V234.395H144.179ZM145.124 226.734C144.845 226.734 144.605 226.642 144.404 226.456C144.207 226.268 144.108 226.042 144.108 225.78C144.108 225.521 144.207 225.299 144.404 225.113C144.605 224.925 144.845 224.83 145.124 224.83C145.404 224.83 145.643 224.925 145.84 225.113C146.04 225.299 146.14 225.521 146.14 225.78C146.14 226.042 146.04 226.268 145.84 226.456C145.643 226.642 145.404 226.734 145.124 226.734ZM151.178 227.609V229.023H147.091V227.609H151.178ZM148.019 225.983H149.901V232.309C149.901 232.483 149.927 232.619 149.98 232.716C150.033 232.81 150.107 232.876 150.201 232.915C150.299 232.953 150.41 232.972 150.537 232.972C150.625 232.972 150.714 232.965 150.802 232.95C150.89 232.932 150.958 232.919 151.005 232.91L151.301 234.311C151.207 234.34 151.075 234.374 150.904 234.412C150.733 234.453 150.525 234.478 150.281 234.487C149.827 234.505 149.43 234.445 149.088 234.306C148.749 234.168 148.486 233.953 148.297 233.661C148.109 233.37 148.016 233.002 148.019 232.557V225.983ZM153.504 234.509C153.212 234.509 152.962 234.406 152.753 234.2C152.546 233.991 152.443 233.741 152.443 233.449C152.443 233.161 152.546 232.913 152.753 232.707C152.962 232.501 153.212 232.398 153.504 232.398C153.786 232.398 154.034 232.501 154.246 232.707C154.458 232.913 154.564 233.161 154.564 233.449C154.564 233.644 154.514 233.822 154.414 233.984C154.316 234.143 154.188 234.271 154.029 234.368C153.87 234.462 153.695 234.509 153.504 234.509ZM156.109 234.395V227.609H157.991V234.395H156.109ZM157.054 226.734C156.774 226.734 156.534 226.642 156.334 226.456C156.137 226.268 156.038 226.042 156.038 225.78C156.038 225.521 156.137 225.299 156.334 225.113C156.534 224.925 156.774 224.83 157.054 224.83C157.334 224.83 157.573 224.925 157.77 225.113C157.97 225.299 158.07 225.521 158.07 225.78C158.07 226.042 157.97 226.268 157.77 226.456C157.573 226.642 157.334 226.734 157.054 226.734ZM162.564 234.527C161.878 234.527 161.284 234.381 160.784 234.09C160.286 233.795 159.902 233.386 159.631 232.862C159.36 232.334 159.224 231.723 159.224 231.028C159.224 230.327 159.36 229.715 159.631 229.191C159.902 228.663 160.286 228.254 160.784 227.962C161.284 227.668 161.878 227.521 162.564 227.521C163.25 227.521 163.842 227.668 164.34 227.962C164.841 228.254 165.226 228.663 165.497 229.191C165.768 229.715 165.904 230.327 165.904 231.028C165.904 231.723 165.768 232.334 165.497 232.862C165.226 233.386 164.841 233.795 164.34 234.09C163.842 234.381 163.25 234.527 162.564 234.527ZM162.573 233.069C162.885 233.069 163.146 232.981 163.355 232.804C163.564 232.625 163.721 232.38 163.827 232.071C163.936 231.762 163.991 231.41 163.991 231.015C163.991 230.62 163.936 230.268 163.827 229.959C163.721 229.65 163.564 229.406 163.355 229.226C163.146 229.046 162.885 228.956 162.573 228.956C162.258 228.956 161.993 229.046 161.778 229.226C161.566 229.406 161.405 229.65 161.296 229.959C161.19 230.268 161.137 230.62 161.137 231.015C161.137 231.41 161.19 231.762 161.296 232.071C161.405 232.38 161.566 232.625 161.778 232.804C161.993 232.981 162.258 233.069 162.573 233.069Z" fill="#1B1B18"/>
</g>
<rect x="1.85547" y="1.72754" width="482" height="248" rx="11" stroke="#D1B9B0" stroke-width="2"/>
<defs>
<linearGradient id="paint0_linear_11880_2134" x1="18.223" y1="228.025" x2="30.5664" y2="236.423" gradientUnits="userSpaceOnUse">
<stop stop-color="#90908C"/>
<stop offset="1" stop-color="#BABAB6"/>
</linearGradient>
<clipPath id="clip0_11880_2134">
<rect x="2.85547" y="2.72754" width="480" height="246" rx="10" fill="white"/>
</clipPath>
<clipPath id="clip1_11880_2134">
<rect x="16.918" y="62.0732" width="352.979" height="35.9657" rx="3.59671" fill="white"/>
</clipPath>
<clipPath id="clip2_11880_2134">
<rect width="16.8698" height="16.8698" fill="white" transform="translate(16.2109 220.081)"/>
</clipPath>
</defs>
</svg>
