<svg width="484" height="251" viewBox="0 0 484 251" fill="none" xmlns="http://www.w3.org/2000/svg">
<g clip-path="url(#clip0_12005_522)">
<rect x="2" y="2.83887" width="480" height="246" rx="10" fill="#191514"/>
<path d="M21.9161 21.4545H24.5255L28.02 29.9839H28.158L31.6525 21.4545H34.2619V33.2256H32.2158V25.1387H32.1066L28.8534 33.1911H27.3246L24.0714 25.1215H23.9622V33.2256H21.9161V21.4545ZM40.4003 33.398C39.5152 33.398 38.7508 33.2141 38.107 32.8462C37.4671 32.4746 36.9748 31.9496 36.6299 31.2714C36.285 30.5894 36.1126 29.7866 36.1126 28.8632C36.1126 27.9551 36.285 27.1581 36.6299 26.4722C36.9786 25.7825 37.4652 25.246 38.0898 24.8629C38.7144 24.4758 39.4481 24.2823 40.2911 24.2823C40.8352 24.2823 41.3487 24.3705 41.8315 24.5467C42.3181 24.7192 42.7472 24.9874 43.1189 25.3514C43.4944 25.7154 43.7895 26.179 44.0041 26.7423C44.2186 27.3017 44.3259 27.9685 44.3259 28.7425V29.3805H37.0897V27.978H42.3315C42.3277 27.5795 42.2415 27.2251 42.0729 26.9147C41.9043 26.6005 41.6686 26.3534 41.3659 26.1733C41.067 25.9932 40.7183 25.9032 40.3199 25.9032C39.8945 25.9032 39.5209 26.0066 39.1991 26.2135C38.8772 26.4166 38.6262 26.6848 38.4461 27.0182C38.2699 27.3477 38.1798 27.7098 38.176 28.1045V29.3287C38.176 29.8422 38.2699 30.2828 38.4576 30.6507C38.6454 31.0147 38.9079 31.2944 39.2451 31.4898C39.5822 31.6814 39.9769 31.7772 40.4291 31.7772C40.7318 31.7772 41.0057 31.735 41.251 31.6507C41.4962 31.5626 41.7088 31.4343 41.8889 31.2657C42.069 31.0971 42.2051 30.8882 42.297 30.6392L44.2397 30.8576C44.1171 31.371 43.8834 31.8193 43.5385 32.2025C43.1975 32.5819 42.7607 32.8769 42.228 33.0876C41.6954 33.2946 41.0862 33.398 40.4003 33.398ZM46.0861 33.2256V24.3973H48.0748V25.8974H48.1782C48.3622 25.3916 48.6668 24.997 49.0921 24.7134C49.5174 24.426 50.0251 24.2823 50.6152 24.2823C51.213 24.2823 51.7168 24.428 52.1268 24.7192C52.5406 25.0065 52.8319 25.3993 53.0005 25.8974H53.0924C53.2878 25.407 53.6174 25.0161 54.081 24.7249C54.5485 24.4299 55.1022 24.2823 55.7421 24.2823C56.5544 24.2823 57.2173 24.5391 57.7307 25.0525C58.2442 25.566 58.5009 26.3151 58.5009 27.2998V33.2256H56.4145V27.6217C56.4145 27.0738 56.2689 26.6733 55.9777 26.4204C55.6865 26.1637 55.3301 26.0354 54.9087 26.0354C54.4067 26.0354 54.0139 26.1925 53.7304 26.5067C53.4507 26.817 53.3108 27.2213 53.3108 27.7194V33.2256H51.2704V27.5355C51.2704 27.0795 51.1325 26.7155 50.8566 26.4434C50.5846 26.1714 50.2282 26.0354 49.7876 26.0354C49.4887 26.0354 49.2166 26.112 48.9714 26.2653C48.7262 26.4147 48.5308 26.6274 48.3851 26.9032C48.2395 27.1753 48.1667 27.4933 48.1667 27.8573V33.2256H46.0861ZM60.7037 33.2256V21.4545H62.7843V25.8572H62.8705C62.9778 25.6426 63.1291 25.4146 63.3246 25.1732C63.52 24.928 63.7844 24.7192 64.1177 24.5467C64.4511 24.3705 64.8764 24.2823 65.3937 24.2823C66.0757 24.2823 66.6907 24.4567 67.2387 24.8054C67.7904 25.1502 68.2272 25.6618 68.5491 26.34C68.8748 27.0144 69.0377 27.842 69.0377 28.8229C69.0377 29.7924 68.8786 30.6162 68.5606 31.2944C68.2426 31.9726 67.8096 32.4899 67.2616 32.8462C66.7137 33.2026 66.093 33.3808 65.3994 33.3808C64.8936 33.3808 64.4741 33.2965 64.1407 33.1279C63.8074 32.9593 63.5391 32.7562 63.336 32.5186C63.1368 32.2772 62.9816 32.0492 62.8705 31.8347H62.7498V33.2256H60.7037ZM62.744 28.8114C62.744 29.3824 62.8245 29.8824 62.9854 30.3116C63.1502 30.7407 63.3859 31.076 63.6924 31.3174C64.0028 31.555 64.3783 31.6737 64.8189 31.6737C65.2787 31.6737 65.6638 31.5511 65.9742 31.3059C66.2846 31.0568 66.5183 30.7177 66.6754 30.2886C66.8363 29.8556 66.9168 29.3632 66.9168 28.8114C66.9168 28.2635 66.8382 27.7769 66.6811 27.3516C66.524 26.9262 66.2903 26.5929 65.9799 26.3515C65.6696 26.1101 65.2826 25.9894 64.8189 25.9894C64.3744 25.9894 63.997 26.1062 63.6867 26.34C63.3763 26.5737 63.1406 26.9013 62.9797 27.3228C62.8226 27.7443 62.744 28.2405 62.744 28.8114ZM74.7148 33.398C73.8297 33.398 73.0653 33.2141 72.4215 32.8462C71.7816 32.4746 71.2893 31.9496 70.9444 31.2714C70.5996 30.5894 70.4271 29.7866 70.4271 28.8632C70.4271 27.9551 70.5996 27.1581 70.9444 26.4722C71.2931 25.7825 71.7797 25.246 72.4043 24.8629C73.0289 24.4758 73.7626 24.2823 74.6056 24.2823C75.1497 24.2823 75.6632 24.3705 76.146 24.5467C76.6326 24.7192 77.0618 24.9874 77.4334 25.3514C77.8089 25.7154 78.104 26.179 78.3186 26.7423C78.5331 27.3017 78.6404 27.9685 78.6404 28.7425V29.3805H71.4042V27.978H76.646C76.6422 27.5795 76.556 27.2251 76.3874 26.9147C76.2188 26.6005 75.9831 26.3534 75.6804 26.1733C75.3815 25.9932 75.0329 25.9032 74.6344 25.9032C74.209 25.9032 73.8354 26.0066 73.5136 26.2135C73.1917 26.4166 72.9407 26.6848 72.7606 27.0182C72.5844 27.3477 72.4943 27.7098 72.4905 28.1045V29.3287C72.4905 29.8422 72.5844 30.2828 72.7721 30.6507C72.9599 31.0147 73.2224 31.2944 73.5596 31.4898C73.8968 31.6814 74.2914 31.7772 74.7436 31.7772C75.0463 31.7772 75.3202 31.735 75.5655 31.6507C75.8107 31.5626 76.0234 31.4343 76.2035 31.2657C76.3835 31.0971 76.5196 30.8882 76.6115 30.6392L78.5542 30.8576C78.4316 31.371 78.1979 31.8193 77.853 32.2025C77.512 32.5819 77.0752 32.8769 76.5426 33.0876C76.0099 33.2946 75.4007 33.398 74.7148 33.398ZM80.4006 33.2256V24.3973H82.418V25.8687H82.51C82.6709 25.3591 82.9468 24.9663 83.3376 24.6904C83.7323 24.4107 84.1825 24.2709 84.6883 24.2709C84.8033 24.2709 84.9316 24.2766 85.0734 24.2881C85.219 24.2958 85.3397 24.3092 85.4355 24.3283V26.2423C85.3474 26.2116 85.2075 26.1848 85.0159 26.1618C84.8282 26.135 84.6462 26.1216 84.4699 26.1216C84.0906 26.1216 83.7495 26.204 83.4468 26.3687C83.148 26.5297 82.9123 26.7538 82.7399 27.0412C82.5675 27.3286 82.4812 27.66 82.4812 28.0355V33.2256H80.4006ZM93.7954 26.7308L91.8987 26.9377C91.845 26.7461 91.7511 26.5661 91.617 26.3975C91.4868 26.2289 91.3105 26.0928 91.0883 25.9894C90.866 25.8859 90.594 25.8342 90.2721 25.8342C89.8391 25.8342 89.4751 25.9281 89.1801 26.1158C88.8888 26.3036 88.7452 26.5469 88.749 26.8458C88.7452 27.1025 88.839 27.3113 89.0306 27.4723C89.226 27.6332 89.5479 27.7654 89.9962 27.8688L91.5021 28.1907C92.3374 28.3708 92.9581 28.6563 93.3643 29.0471C93.7743 29.4379 93.9812 29.9495 93.985 30.5817C93.9812 31.1373 93.8184 31.6278 93.4965 32.0531C93.1785 32.4746 92.7359 32.8041 92.1688 33.0417C91.6017 33.2792 90.9503 33.398 90.2146 33.398C89.1341 33.398 88.2643 33.1719 87.6052 32.7198C86.9462 32.2638 86.5534 31.6297 86.427 30.8173L88.4559 30.6219C88.5478 31.0204 88.7432 31.3212 89.0421 31.5243C89.341 31.7274 89.7299 31.8289 90.2089 31.8289C90.7032 31.8289 91.0997 31.7274 91.3986 31.5243C91.7013 31.3212 91.8527 31.0702 91.8527 30.7714C91.8527 30.5185 91.755 30.3096 91.5596 30.1449C91.368 29.9801 91.0691 29.8537 90.6629 29.7655L89.1571 29.4494C88.3103 29.2732 87.6838 28.9762 87.2776 28.5585C86.8714 28.1371 86.6703 27.6044 86.6741 26.9607C86.6703 26.4166 86.8178 25.9453 87.1167 25.5468C87.4194 25.1445 87.839 24.8341 88.3754 24.6157C88.9157 24.3935 89.5383 24.2823 90.2434 24.2823C91.2779 24.2823 92.0922 24.5027 92.6861 24.9433C93.2838 25.384 93.6536 25.9798 93.7954 26.7308Z" fill="#F9EDE7"/>
<g clip-path="url(#clip1_12005_522)">
<path d="M22.6349 79.7965C22.6349 78.9902 22.8224 78.2778 23.1974 77.6591C23.5537 77.0216 24.0505 76.5247 24.688 76.1685C25.3067 75.7935 26.0192 75.606 26.8254 75.606H42.6872C43.4935 75.606 44.2059 75.7935 44.8247 76.1685C45.4621 76.5247 45.959 77.0216 46.3152 77.6591C46.6902 78.2778 46.8777 78.9902 46.8777 79.7965V79.8527C46.8777 80.6589 46.6902 81.3808 46.3152 82.0182C45.959 82.637 45.4621 83.1338 44.8247 83.5088C44.2059 83.865 43.4935 84.0432 42.6872 84.0432H26.8254C26.0192 84.0432 25.3067 83.865 24.688 83.5088C24.0505 83.1338 23.5537 82.637 23.1974 82.0182C22.8224 81.3808 22.6349 80.6589 22.6349 79.8527V79.7965ZM38.4271 79.7965C38.4271 78.9902 38.6146 78.2778 38.9896 77.6591C39.3458 77.0216 39.8427 76.5247 40.4802 76.1685C41.0989 75.7935 41.8114 75.606 42.6176 75.606H58.4794C59.2857 75.606 59.9981 75.7935 60.6169 76.1685C61.2543 76.5247 61.7512 77.0216 62.1074 77.6591C62.4824 78.2778 62.6699 78.9902 62.6699 79.7965V79.8527C62.6699 80.6589 62.4824 81.3808 62.1074 82.0182C61.7512 82.637 61.2543 83.1338 60.6169 83.5088C59.9981 83.865 59.2857 84.0432 58.4794 84.0432H42.6176C41.8114 84.0432 41.0989 83.865 40.4802 83.5088C39.8427 83.1338 39.3458 82.637 38.9896 82.0182C38.6146 81.3808 38.4271 80.6589 38.4271 79.8527V79.7965ZM54.2193 79.7965C54.2193 78.9902 54.4068 78.2778 54.7818 77.6591C55.138 77.0216 55.6349 76.5247 56.2724 76.1685C56.8911 75.7935 57.6036 75.606 58.4098 75.606H74.2716C75.0779 75.606 75.7903 75.7935 76.409 76.1685C77.0465 76.5247 77.5434 77.0216 77.8996 77.6591C78.2746 78.2778 78.4621 78.9902 78.4621 79.7965V79.8527C78.4621 80.6589 78.2746 81.3808 77.8996 82.0182C77.5434 82.637 77.0465 83.1338 76.409 83.5088C75.7903 83.865 75.0779 84.0432 74.2716 84.0432H58.4098C57.6036 84.0432 56.8911 83.865 56.2724 83.5088C55.6349 83.1338 55.138 82.637 54.7818 82.0182C54.4068 81.3808 54.2193 80.6589 54.2193 79.8527V79.7965ZM70.0115 79.7965C70.0115 78.9902 70.199 78.2778 70.574 77.6591C70.9302 77.0216 71.4271 76.5247 72.0646 76.1685C72.6833 75.7935 73.3958 75.606 74.202 75.606H90.0638C90.87 75.606 91.5825 75.7935 92.2012 76.1685C92.8387 76.5247 93.3356 77.0216 93.6918 77.6591C94.0668 78.2778 94.2543 78.9902 94.2543 79.7965V79.8527C94.2543 80.6589 94.0668 81.3808 93.6918 82.0182C93.3356 82.637 92.8387 83.1338 92.2012 83.5088C91.5825 83.865 90.87 84.0432 90.0638 84.0432H74.202C73.3958 84.0432 72.6833 83.865 72.0646 83.5088C71.4271 83.1338 70.9302 82.637 70.574 82.0182C70.199 81.3808 70.0115 80.6589 70.0115 79.8527V79.7965ZM85.8037 79.7965C85.8037 78.9902 85.9912 78.2778 86.3662 77.6591C86.7224 77.0216 87.2193 76.5247 87.8568 76.1685C88.4755 75.7935 89.188 75.606 89.9942 75.606H105.856C106.662 75.606 107.375 75.7935 107.993 76.1685C108.631 76.5247 109.128 77.0216 109.484 77.6591C109.859 78.2778 110.046 78.9902 110.046 79.7965V79.8527C110.046 80.6589 109.859 81.3808 109.484 82.0182C109.128 82.637 108.631 83.1338 107.993 83.5088C107.375 83.865 106.662 84.0432 105.856 84.0432H89.9942C89.188 84.0432 88.4755 83.865 87.8568 83.5088C87.2193 83.1338 86.7224 82.637 86.3662 82.0182C85.9912 81.3808 85.8037 80.6589 85.8037 79.8527V79.7965ZM101.596 79.7965C101.596 78.9902 101.783 78.2778 102.158 77.6591C102.515 77.0216 103.011 76.5247 103.649 76.1685C104.268 75.7935 104.98 75.606 105.786 75.606H121.648C122.454 75.606 123.167 75.7935 123.786 76.1685C124.423 76.5247 124.92 77.0216 125.276 77.6591C125.651 78.2778 125.839 78.9902 125.839 79.7965V79.8527C125.839 80.6589 125.651 81.3808 125.276 82.0182C124.92 82.637 124.423 83.1338 123.786 83.5088C123.167 83.865 122.454 84.0432 121.648 84.0432H105.786C104.98 84.0432 104.268 83.865 103.649 83.5088C103.011 83.1338 102.515 82.637 102.158 82.0182C101.783 81.3808 101.596 80.6589 101.596 79.8527V79.7965ZM117.388 79.7965C117.388 78.9902 117.576 78.2778 117.951 77.6591C118.307 77.0216 118.804 76.5247 119.441 76.1685C120.06 75.7935 120.772 75.606 121.579 75.606H137.44C138.247 75.606 138.959 75.7935 139.578 76.1685C140.215 76.5247 140.712 77.0216 141.068 77.6591C141.443 78.2778 141.631 78.9902 141.631 79.7965V79.8527C141.631 80.6589 141.443 81.3808 141.068 82.0182C140.712 82.637 140.215 83.1338 139.578 83.5088C138.959 83.865 138.247 84.0432 137.44 84.0432H121.579C120.772 84.0432 120.06 83.865 119.441 83.5088C118.804 83.1338 118.307 82.637 117.951 82.0182C117.576 81.3808 117.388 80.6589 117.388 79.8527V79.7965Z" fill="#332824"/>
<path d="M155.199 79.7955C155.199 78.9893 155.387 78.2768 155.762 77.6581C156.118 77.0206 156.615 76.5237 157.252 76.1675C157.871 75.7925 158.584 75.605 159.39 75.605H175.252C176.058 75.605 176.77 75.7925 177.389 76.1675C178.027 76.5237 178.523 77.0206 178.88 77.6581C179.255 78.2768 179.442 78.9893 179.442 79.7955V79.8517C179.442 80.658 179.255 81.3798 178.88 82.0173C178.523 82.636 178.027 83.1329 177.389 83.5078C176.77 83.8641 176.058 84.0422 175.252 84.0422H159.39C158.584 84.0422 157.871 83.8641 157.252 83.5078C156.615 83.1329 156.118 82.636 155.762 82.0173C155.387 81.3798 155.199 80.658 155.199 79.8517V79.7955ZM170.992 79.7955C170.992 78.9893 171.179 78.2768 171.554 77.6581C171.91 77.0206 172.407 76.5237 173.045 76.1675C173.663 75.7925 174.376 75.605 175.182 75.605H191.044C191.85 75.605 192.563 75.7925 193.181 76.1675C193.819 76.5237 194.316 77.0206 194.672 77.6581C195.047 78.2768 195.234 78.9893 195.234 79.7955V79.8517C195.234 80.658 195.047 81.3798 194.672 82.0173C194.316 82.636 193.819 83.1329 193.181 83.5078C192.563 83.8641 191.85 84.0422 191.044 84.0422H175.182C174.376 84.0422 173.663 83.8641 173.045 83.5078C172.407 83.1329 171.91 82.636 171.554 82.0173C171.179 81.3798 170.992 80.658 170.992 79.8517V79.7955ZM186.784 79.7955C186.784 78.9893 186.971 78.2768 187.346 77.6581C187.702 77.0206 188.199 76.5237 188.837 76.1675C189.456 75.7925 190.168 75.605 190.974 75.605H206.836C207.642 75.605 208.355 75.7925 208.974 76.1675C209.611 76.5237 210.108 77.0206 210.464 77.6581C210.839 78.2768 211.027 78.9893 211.027 79.7955V79.8517C211.027 80.658 210.839 81.3798 210.464 82.0173C210.108 82.636 209.611 83.1329 208.974 83.5078C208.355 83.8641 207.642 84.0422 206.836 84.0422H190.974C190.168 84.0422 189.456 83.8641 188.837 83.5078C188.199 83.1329 187.702 82.636 187.346 82.0173C186.971 81.3798 186.784 80.658 186.784 79.8517V79.7955Z" fill="#332824"/>
<circle cx="221.454" cy="80.1667" r="4.66087" fill="#332824"/>
</g>
<rect x="16.5625" y="62.6846" width="351.979" height="34.9657" rx="3.09671" stroke="#3B2E29"/>
<rect x="378.033" y="62.1846" width="85.9835" height="35.9657" rx="3.59671" fill="#0091FF"/>
<path d="M392.931 77.5285C392.889 77.1381 392.713 76.8341 392.403 76.6166C392.097 76.399 391.697 76.2903 391.205 76.2903C390.86 76.2903 390.563 76.3424 390.316 76.4467C390.068 76.551 389.879 76.6926 389.748 76.8714C389.617 77.0502 389.55 77.2544 389.547 77.4838C389.547 77.6746 389.59 77.84 389.677 77.98C389.766 78.1201 389.887 78.2393 390.039 78.3377C390.191 78.433 390.359 78.5135 390.544 78.5791C390.729 78.6446 390.915 78.6998 391.103 78.7445L391.961 78.959C392.307 79.0395 392.639 79.1483 392.958 79.2854C393.28 79.4225 393.567 79.5953 393.821 79.8039C394.077 80.0126 394.28 80.2644 394.429 80.5594C394.578 80.8545 394.652 81.2002 394.652 81.5965C394.652 82.133 394.515 82.6054 394.241 83.0136C393.967 83.419 393.57 83.7363 393.052 83.9658C392.536 84.1923 391.912 84.3056 391.179 84.3056C390.466 84.3056 389.848 84.1953 389.323 83.9748C388.802 83.7542 388.394 83.4324 388.099 83.0092C387.806 82.586 387.649 82.0704 387.625 81.4624H389.256C389.28 81.7813 389.379 82.0466 389.551 82.2582C389.724 82.4698 389.949 82.6277 390.226 82.732C390.507 82.8363 390.819 82.8885 391.165 82.8885C391.526 82.8885 391.842 82.8348 392.113 82.7275C392.387 82.6173 392.602 82.4653 392.757 82.2716C392.912 82.0749 392.991 81.8454 392.994 81.5831C392.991 81.3447 392.921 81.148 392.783 80.993C392.646 80.8351 392.454 80.704 392.207 80.5997C391.962 80.4924 391.676 80.397 391.348 80.3136L390.307 80.0453C389.553 79.8516 388.957 79.5581 388.519 79.1647C388.084 78.7683 387.866 78.2423 387.866 77.5866C387.866 77.0472 388.012 76.5749 388.304 76.1696C388.599 75.7642 389 75.4498 389.507 75.2263C390.013 74.9998 390.587 74.8866 391.228 74.8866C391.877 74.8866 392.447 74.9998 392.935 75.2263C393.427 75.4498 393.813 75.7613 394.093 76.1606C394.373 76.557 394.518 77.013 394.527 77.5285H392.931ZM399.099 84.3011C398.41 84.3011 397.816 84.1581 397.315 83.8719C396.818 83.5829 396.435 83.1746 396.166 82.6471C395.898 82.1166 395.764 81.4922 395.764 80.774C395.764 80.0677 395.898 79.4478 396.166 78.9143C396.438 78.3779 396.816 77.9607 397.302 77.6626C397.788 77.3616 398.358 77.2111 399.014 77.2111C399.437 77.2111 399.837 77.2797 400.212 77.4168C400.591 77.5509 400.924 77.7595 401.213 78.0426C401.505 78.3257 401.735 78.6864 401.902 79.1244C402.069 79.5596 402.152 80.0781 402.152 80.6801V81.1763H396.524V80.0856H400.601C400.598 79.7756 400.531 79.5 400.4 79.2586C400.269 79.0142 400.085 78.822 399.85 78.6819C399.617 78.5418 399.346 78.4718 399.036 78.4718C398.706 78.4718 398.415 78.5522 398.165 78.7132C397.914 78.8711 397.719 79.0797 397.579 79.339C397.442 79.5953 397.372 79.877 397.369 80.1839V81.1361C397.369 81.5355 397.442 81.8782 397.588 82.1643C397.734 82.4474 397.938 82.665 398.2 82.8169C398.463 82.966 398.77 83.0405 399.121 83.0405C399.357 83.0405 399.57 83.0077 399.761 82.9421C399.951 82.8736 400.117 82.7737 400.257 82.6426C400.397 82.5115 400.503 82.3491 400.574 82.1553L402.085 82.3252C401.99 82.7246 401.808 83.0732 401.54 83.3713C401.274 83.6663 400.935 83.8958 400.52 84.0597C400.106 84.2206 399.632 84.3011 399.099 84.3011ZM405.139 80.1437V84.167H403.521V77.3005H405.068V78.4673H405.148C405.306 78.0829 405.558 77.7774 405.904 77.5509C406.253 77.3244 406.683 77.2111 407.196 77.2111C407.67 77.2111 408.082 77.3125 408.434 77.5151C408.789 77.7178 409.063 78.0113 409.257 78.3958C409.453 78.7802 409.55 79.2466 409.547 79.795V84.167H407.929V80.0453C407.929 79.5864 407.81 79.2273 407.571 78.968C407.336 78.7087 407.01 78.5791 406.592 78.5791C406.309 78.5791 406.057 78.6417 405.837 78.7668C405.619 78.889 405.448 79.0663 405.323 79.2988C405.201 79.5312 405.139 79.8129 405.139 80.1437ZM413.74 84.2877C413.201 84.2877 412.718 84.1491 412.292 83.8719C411.866 83.5948 411.529 83.1925 411.282 82.665C411.034 82.1375 410.911 81.4967 410.911 80.7427C410.911 79.9798 411.036 79.336 411.286 78.8115C411.54 78.284 411.881 77.8862 412.31 77.6179C412.739 77.3467 413.217 77.2111 413.745 77.2111C414.147 77.2111 414.478 77.2797 414.737 77.4168C414.997 77.5509 415.202 77.7133 415.354 77.904C415.506 78.0918 415.624 78.2691 415.707 78.436H415.774V75.0117H417.397V84.167H415.806V83.0852H415.707C415.624 83.2521 415.503 83.4294 415.345 83.6171C415.187 83.8019 414.979 83.9599 414.719 84.091C414.46 84.2221 414.134 84.2877 413.74 84.2877ZM414.192 82.96C414.535 82.96 414.827 82.8676 415.068 82.6828C415.31 82.4951 415.493 82.2343 415.618 81.9005C415.743 81.5667 415.806 81.1778 415.806 80.7338C415.806 80.2897 415.743 79.9038 415.618 79.576C415.496 79.2481 415.314 78.9933 415.073 78.8115C414.834 78.6297 414.541 78.5388 414.192 78.5388C413.831 78.5388 413.53 78.6327 413.289 78.8205C413.048 79.0082 412.866 79.2675 412.744 79.5983C412.621 79.9291 412.56 80.3076 412.56 80.7338C412.56 81.1629 412.621 81.5459 412.744 81.8826C412.869 82.2164 413.052 82.4802 413.293 82.6739C413.538 82.8646 413.837 82.96 414.192 82.96ZM423.974 75.0117V84.167H422.316V75.0117H423.974ZM427.317 80.1437V84.167H425.699V77.3005H427.245V78.4673H427.326C427.484 78.0829 427.736 77.7774 428.081 77.5509C428.43 77.3244 428.861 77.2111 429.373 77.2111C429.847 77.2111 430.26 77.3125 430.611 77.5151C430.966 77.7178 431.24 78.0113 431.434 78.3958C431.631 78.7802 431.728 79.2466 431.725 79.795V84.167H430.106V80.0453C430.106 79.5864 429.987 79.2273 429.749 78.968C429.513 78.7087 429.187 78.5791 428.77 78.5791C428.487 78.5791 428.235 78.6417 428.014 78.7668C427.797 78.889 427.625 79.0663 427.5 79.2988C427.378 79.5312 427.317 79.8129 427.317 80.1437ZM439.257 77.3005L436.812 84.167H435.024L432.578 77.3005H434.304L435.882 82.4012H435.954L437.536 77.3005H439.257ZM440.377 84.167V77.3005H441.995V84.167H440.377ZM441.191 76.326C440.934 76.326 440.714 76.2411 440.529 76.0712C440.344 75.8984 440.252 75.6912 440.252 75.4498C440.252 75.2054 440.344 74.9983 440.529 74.8284C440.714 74.6556 440.934 74.5692 441.191 74.5692C441.45 74.5692 441.67 74.6556 441.852 74.8284C442.037 74.9983 442.129 75.2054 442.129 75.4498C442.129 75.6912 442.037 75.8984 441.852 76.0712C441.67 76.2411 441.45 76.326 441.191 76.326ZM447.088 77.3005V78.5522H443.141V77.3005H447.088ZM444.115 75.6555H445.734V82.1017C445.734 82.3193 445.766 82.4861 445.832 82.6024C445.9 82.7156 445.99 82.7931 446.1 82.8348C446.21 82.8766 446.333 82.8974 446.467 82.8974C446.568 82.8974 446.66 82.89 446.744 82.8751C446.83 82.8602 446.896 82.8468 446.941 82.8348L447.213 84.0999C447.127 84.1297 447.003 84.1625 446.842 84.1983C446.684 84.234 446.491 84.2549 446.261 84.2609C445.856 84.2728 445.491 84.2117 445.166 84.0776C444.841 83.9405 444.583 83.7289 444.392 83.4428C444.205 83.1567 444.112 82.7991 444.115 82.3699V75.6555ZM451.408 84.3011C450.719 84.3011 450.125 84.1581 449.624 83.8719C449.126 83.5829 448.743 83.1746 448.475 82.6471C448.207 82.1166 448.073 81.4922 448.073 80.774C448.073 80.0677 448.207 79.4478 448.475 78.9143C448.746 78.3779 449.125 77.9607 449.61 77.6626C450.096 77.3616 450.667 77.2111 451.323 77.2111C451.746 77.2111 452.145 77.2797 452.521 77.4168C452.899 77.5509 453.233 77.7595 453.522 78.0426C453.814 78.3257 454.044 78.6864 454.21 79.1244C454.377 79.5596 454.461 80.0781 454.461 80.6801V81.1763H448.833V80.0856H452.91C452.907 79.7756 452.84 79.5 452.708 79.2586C452.577 79.0142 452.394 78.822 452.159 78.6819C451.926 78.5418 451.655 78.4718 451.345 78.4718C451.014 78.4718 450.724 78.5522 450.473 78.7132C450.223 78.8711 450.028 79.0797 449.888 79.339C449.75 79.5953 449.68 79.877 449.677 80.1839V81.1361C449.677 81.5355 449.75 81.8782 449.897 82.1643C450.043 82.4474 450.247 82.665 450.509 82.8169C450.771 82.966 451.078 83.0405 451.43 83.0405C451.665 83.0405 451.878 83.0077 452.069 82.9421C452.26 82.8736 452.425 82.7737 452.565 82.6426C452.705 82.5115 452.811 82.3491 452.883 82.1553L454.394 82.3252C454.298 82.7246 454.117 83.0732 453.848 83.3713C453.583 83.6663 453.243 83.8958 452.829 84.0597C452.415 84.2206 451.941 84.3011 451.408 84.3011Z" fill="white"/>
<mask id="path-12-inside-1_12005_522" fill="white">
<path d="M2 107.142H482V166.487H2V107.142Z"/>
</mask>
<path d="M482 165.487H2V167.487H482V165.487Z" fill="#332824" mask="url(#path-12-inside-1_12005_522)"/>
<path d="M21.2189 130.387C21.2189 129.581 21.4064 128.869 21.7814 128.25C22.1376 127.612 22.6345 127.116 23.272 126.759C23.8907 126.384 24.6032 126.197 25.4094 126.197H41.2712C42.0774 126.197 42.7899 126.384 43.4086 126.759C44.0461 127.116 44.543 127.612 44.8992 128.25C45.2742 128.869 45.4617 129.581 45.4617 130.387V130.444C45.4617 131.25 45.2742 131.972 44.8992 132.609C44.543 133.228 44.0461 133.725 43.4086 134.1C42.7899 134.456 42.0774 134.634 41.2712 134.634H25.4094C24.6032 134.634 23.8907 134.456 23.272 134.1C22.6345 133.725 22.1376 133.228 21.7814 132.609C21.4064 131.972 21.2189 131.25 21.2189 130.444V130.387ZM37.0111 130.387C37.0111 129.581 37.1986 128.869 37.5736 128.25C37.9298 127.612 38.4267 127.116 39.0642 126.759C39.6829 126.384 40.3954 126.197 41.2016 126.197H57.0634C57.8696 126.197 58.5821 126.384 59.2008 126.759C59.8383 127.116 60.3352 127.612 60.6914 128.25C61.0664 128.869 61.2539 129.581 61.2539 130.387V130.444C61.2539 131.25 61.0664 131.972 60.6914 132.609C60.3352 133.228 59.8383 133.725 59.2008 134.1C58.5821 134.456 57.8696 134.634 57.0634 134.634H41.2016C40.3954 134.634 39.6829 134.456 39.0642 134.1C38.4267 133.725 37.9298 133.228 37.5736 132.609C37.1986 131.972 37.0111 131.25 37.0111 130.444V130.387ZM52.8033 130.387C52.8033 129.581 52.9908 128.869 53.3658 128.25C53.722 127.612 54.2189 127.116 54.8564 126.759C55.4751 126.384 56.1876 126.197 56.9938 126.197H72.8556C73.6618 126.197 74.3743 126.384 74.993 126.759C75.6305 127.116 76.1274 127.612 76.4836 128.25C76.8586 128.869 77.0461 129.581 77.0461 130.387V130.444C77.0461 131.25 76.8586 131.972 76.4836 132.609C76.1274 133.228 75.6305 133.725 74.993 134.1C74.3743 134.456 73.6618 134.634 72.8556 134.634H56.9938C56.1876 134.634 55.4751 134.456 54.8564 134.1C54.2189 133.725 53.722 133.228 53.3658 132.609C52.9908 131.972 52.8033 131.25 52.8033 130.444V130.387ZM68.5955 130.387C68.5955 129.581 68.783 128.869 69.158 128.25C69.5142 127.612 70.0111 127.116 70.6486 126.759C71.2673 126.384 71.9797 126.197 72.786 126.197H88.6478C89.454 126.197 90.1665 126.384 90.7852 126.759C91.4227 127.116 91.9196 127.612 92.2758 128.25C92.6508 128.869 92.8383 129.581 92.8383 130.387V130.444C92.8383 131.25 92.6508 131.972 92.2758 132.609C91.9196 133.228 91.4227 133.725 90.7852 134.1C90.1665 134.456 89.454 134.634 88.6478 134.634H72.786C71.9797 134.634 71.2673 134.456 70.6486 134.1C70.0111 133.725 69.5142 133.228 69.158 132.609C68.783 131.972 68.5955 131.25 68.5955 130.444V130.387ZM84.3877 130.387C84.3877 129.581 84.5752 128.869 84.9502 128.25C85.3064 127.612 85.8033 127.116 86.4408 126.759C87.0595 126.384 87.7719 126.197 88.5782 126.197H104.44C105.246 126.197 105.959 126.384 106.577 126.759C107.215 127.116 107.712 127.612 108.068 128.25C108.443 128.869 108.63 129.581 108.63 130.387V130.444C108.63 131.25 108.443 131.972 108.068 132.609C107.712 133.228 107.215 133.725 106.577 134.1C105.959 134.456 105.246 134.634 104.44 134.634H88.5782C87.7719 134.634 87.0595 134.456 86.4408 134.1C85.8033 133.725 85.3064 133.228 84.9502 132.609C84.5752 131.972 84.3877 131.25 84.3877 130.444V130.387ZM100.18 130.387C100.18 129.581 100.367 128.869 100.742 128.25C101.099 127.612 101.595 127.116 102.233 126.759C102.852 126.384 103.564 126.197 104.37 126.197H120.232C121.038 126.197 121.751 126.384 122.37 126.759C123.007 127.116 123.504 127.612 123.86 128.25C124.235 128.869 124.423 129.581 124.423 130.387V130.444C124.423 131.25 124.235 131.972 123.86 132.609C123.504 133.228 123.007 133.725 122.37 134.1C121.751 134.456 121.038 134.634 120.232 134.634H104.37C103.564 134.634 102.852 134.456 102.233 134.1C101.595 133.725 101.099 133.228 100.742 132.609C100.367 131.972 100.18 131.25 100.18 130.444V130.387ZM132.835 130.387C132.835 129.581 133.023 128.869 133.398 128.25C133.754 127.612 134.251 127.116 134.888 126.759C135.507 126.384 136.22 126.197 137.026 126.197H152.888C153.694 126.197 154.406 126.384 155.025 126.759C155.663 127.116 156.159 127.612 156.516 128.25C156.891 128.869 157.078 129.581 157.078 130.387V130.444C157.078 131.25 156.891 131.972 156.516 132.609C156.159 133.228 155.663 133.725 155.025 134.1C154.406 134.456 153.694 134.634 152.888 134.634H137.026C136.22 134.634 135.507 134.456 134.888 134.1C134.251 133.725 133.754 133.228 133.398 132.609C133.023 131.972 132.835 131.25 132.835 130.444V130.387ZM148.628 130.387C148.628 129.581 148.815 128.869 149.19 128.25C149.546 127.612 150.043 127.116 150.681 126.759C151.299 126.384 152.012 126.197 152.818 126.197H168.68C169.486 126.197 170.199 126.384 170.817 126.759C171.455 127.116 171.952 127.612 172.308 128.25C172.683 128.869 172.87 129.581 172.87 130.387V130.444C172.87 131.25 172.683 131.972 172.308 132.609C171.952 133.228 171.455 133.725 170.817 134.1C170.199 134.456 169.486 134.634 168.68 134.634H152.818C152.012 134.634 151.299 134.456 150.681 134.1C150.043 133.725 149.546 133.228 149.19 132.609C148.815 131.972 148.628 131.25 148.628 130.444V130.387ZM164.42 130.387C164.42 129.581 164.607 128.869 164.982 128.25C165.339 127.612 165.835 127.116 166.473 126.759C167.092 126.384 167.804 126.197 168.61 126.197H184.472C185.278 126.197 185.991 126.384 186.61 126.759C187.247 127.116 187.744 127.612 188.1 128.25C188.475 128.869 188.663 129.581 188.663 130.387V130.444C188.663 131.25 188.475 131.972 188.1 132.609C187.744 133.228 187.247 133.725 186.61 134.1C185.991 134.456 185.278 134.634 184.472 134.634H168.61C167.804 134.634 167.092 134.456 166.473 134.1C165.835 133.725 165.339 133.228 164.982 132.609C164.607 131.972 164.42 131.25 164.42 130.444V130.387Z" fill="#332824"/>
<path d="M21.922 148.691C21.922 148.019 22.0783 147.425 22.3908 146.91C22.6876 146.378 23.1017 145.964 23.6329 145.667C24.1485 145.355 24.7422 145.199 25.4141 145.199H38.6323C39.3041 145.199 39.8978 145.355 40.4134 145.667C40.9447 145.964 41.3587 146.378 41.6556 146.91C41.9681 147.425 42.1243 148.019 42.1243 148.691V148.738C42.1243 149.409 41.9681 150.011 41.6556 150.542C41.3587 151.058 40.9447 151.472 40.4134 151.784C39.8978 152.081 39.3041 152.23 38.6323 152.23H25.4141C24.7422 152.23 24.1485 152.081 23.6329 151.784C23.1017 151.472 22.6876 151.058 22.3908 150.542C22.0783 150.011 21.922 149.409 21.922 148.738V148.691ZM35.0822 148.691C35.0822 148.019 35.2384 147.425 35.5509 146.91C35.8478 146.378 36.2618 145.964 36.7931 145.667C37.3087 145.355 37.9024 145.199 38.5742 145.199H51.7924C52.4643 145.199 53.058 145.355 53.5736 145.667C54.1048 145.964 54.5189 146.378 54.8157 146.91C55.1282 147.425 55.2845 148.019 55.2845 148.691V148.738C55.2845 149.409 55.1282 150.011 54.8157 150.542C54.5189 151.058 54.1048 151.472 53.5736 151.784C53.058 152.081 52.4643 152.23 51.7924 152.23H38.5742C37.9024 152.23 37.3087 152.081 36.7931 151.784C36.2618 151.472 35.8478 151.058 35.5509 150.542C35.2384 150.011 35.0822 149.409 35.0822 148.738V148.691ZM48.2423 148.691C48.2423 148.019 48.3986 147.425 48.7111 146.91C49.0079 146.378 49.422 145.964 49.9532 145.667C50.4688 145.355 51.0625 145.199 51.7344 145.199H64.9526C65.6244 145.199 66.2182 145.355 66.7338 145.667C67.265 145.964 67.679 146.378 67.9759 146.91C68.2884 147.425 68.4446 148.019 68.4446 148.691V148.738C68.4446 149.409 68.2884 150.011 67.9759 150.542C67.679 151.058 67.265 151.472 66.7338 151.784C66.2182 152.081 65.6244 152.23 64.9526 152.23H51.7344C51.0625 152.23 50.4688 152.081 49.9532 151.784C49.422 151.472 49.0079 151.058 48.7111 150.542C48.3986 150.011 48.2423 149.409 48.2423 148.738V148.691ZM61.4025 148.691C61.4025 148.019 61.5588 147.425 61.8712 146.91C62.1681 146.378 62.5822 145.964 63.1134 145.667C63.629 145.355 64.2227 145.199 64.8946 145.199H78.1128C78.7846 145.199 79.3783 145.355 79.8939 145.667C80.4252 145.964 80.8392 146.378 81.1361 146.91C81.4486 147.425 81.6048 148.019 81.6048 148.691V148.738C81.6048 149.409 81.4486 150.011 81.1361 150.542C80.8392 151.058 80.4252 151.472 79.8939 151.784C79.3783 152.081 78.7846 152.23 78.1128 152.23H64.8946C64.2227 152.23 63.629 152.081 63.1134 151.784C62.5822 151.472 62.1681 151.058 61.8712 150.542C61.5588 150.011 61.4025 149.409 61.4025 148.738V148.691ZM74.5627 148.691C74.5627 148.019 74.7189 147.425 75.0314 146.91C75.3283 146.378 75.7423 145.964 76.2735 145.667C76.7891 145.355 77.3829 145.199 78.0547 145.199H91.2729C91.9448 145.199 92.5385 145.355 93.0541 145.667C93.5853 145.964 93.9994 146.378 94.2962 146.91C94.6087 147.425 94.765 148.019 94.765 148.691V148.738C94.765 149.409 94.6087 150.011 94.2962 150.542C93.9994 151.058 93.5853 151.472 93.0541 151.784C92.5385 152.081 91.9448 152.23 91.2729 152.23H78.0547C77.3829 152.23 76.7891 152.081 76.2735 151.784C75.7423 151.472 75.3283 151.058 75.0314 150.542C74.7189 150.011 74.5627 149.409 74.5627 148.738V148.691ZM87.7228 148.691C87.7228 148.019 87.8791 147.425 88.1916 146.91C88.4884 146.378 88.9025 145.964 89.4337 145.667C89.9493 145.355 90.543 145.199 91.2149 145.199H104.433C105.105 145.199 105.699 145.355 106.214 145.667C106.745 145.964 107.16 146.378 107.456 146.91C107.769 147.425 107.925 148.019 107.925 148.691V148.738C107.925 149.409 107.769 150.011 107.456 150.542C107.16 151.058 106.745 151.472 106.214 151.784C105.699 152.081 105.105 152.23 104.433 152.23H91.2149C90.543 152.23 89.9493 152.081 89.4337 151.784C88.9025 151.472 88.4884 151.058 88.1916 150.542C87.8791 150.011 87.7228 149.409 87.7228 148.738V148.691ZM100.883 148.691C100.883 148.019 101.039 147.425 101.352 146.91C101.649 146.378 102.063 145.964 102.594 145.667C103.109 145.355 103.703 145.199 104.375 145.199H117.593C118.265 145.199 118.859 145.355 119.374 145.667C119.906 145.964 120.32 146.378 120.617 146.91C120.929 147.425 121.085 148.019 121.085 148.691V148.738C121.085 149.409 120.929 150.011 120.617 150.542C120.32 151.058 119.906 151.472 119.374 151.784C118.859 152.081 118.265 152.23 117.593 152.23H104.375C103.703 152.23 103.109 152.081 102.594 151.784C102.063 151.472 101.649 151.058 101.352 150.542C101.039 150.011 100.883 149.409 100.883 148.738V148.691ZM114.043 148.691C114.043 148.019 114.199 147.425 114.512 146.91C114.809 146.378 115.223 145.964 115.754 145.667C116.27 145.355 116.863 145.199 117.535 145.199H130.753C131.425 145.199 132.019 145.355 132.535 145.667C133.066 145.964 133.48 146.378 133.777 146.91C134.089 147.425 134.245 148.019 134.245 148.691V148.738C134.245 149.409 134.089 150.011 133.777 150.542C133.48 151.058 133.066 151.472 132.535 151.784C132.019 152.081 131.425 152.23 130.753 152.23H117.535C116.863 152.23 116.27 152.081 115.754 151.784C115.223 151.472 114.809 151.058 114.512 150.542C114.199 150.011 114.043 149.409 114.043 148.738V148.691ZM127.203 148.691C127.203 148.019 127.36 147.425 127.672 146.91C127.969 146.378 128.383 145.964 128.914 145.667C129.43 145.355 130.024 145.199 130.695 145.199H143.914C144.585 145.199 145.179 145.355 145.695 145.667C146.226 145.964 146.64 146.378 146.937 146.91C147.249 147.425 147.406 148.019 147.406 148.691V148.738C147.406 149.409 147.249 150.011 146.937 150.542C146.64 151.058 146.226 151.472 145.695 151.784C145.179 152.081 144.585 152.23 143.914 152.23H130.695C130.024 152.23 129.43 152.081 128.914 151.784C128.383 151.472 127.969 151.058 127.672 150.542C127.36 150.011 127.203 149.409 127.203 148.738V148.691ZM140.363 148.691C140.363 148.019 140.52 147.425 140.832 146.91C141.129 146.378 141.543 145.964 142.074 145.667C142.59 145.355 143.184 145.199 143.856 145.199H150.605C151.277 145.199 151.871 145.355 152.386 145.667C152.918 145.964 153.332 146.378 153.629 146.91C153.941 147.425 154.097 148.019 154.097 148.691V148.738C154.097 149.409 153.941 150.011 153.629 150.542C153.332 151.058 152.918 151.472 152.386 151.784C151.871 152.081 151.277 152.23 150.605 152.23H143.856C143.184 152.23 142.59 152.081 142.074 151.784C141.543 151.472 141.129 151.058 140.832 150.542C140.52 150.011 140.363 149.409 140.363 148.738V148.691ZM147.069 148.691C147.069 148.019 147.226 147.425 147.538 146.91C147.835 146.378 148.249 145.964 148.78 145.667C149.296 145.355 149.89 145.199 150.562 145.199H163.78C164.452 145.199 165.045 145.355 165.561 145.667C166.092 145.964 166.506 146.378 166.803 146.91C167.116 147.425 167.272 148.019 167.272 148.691V148.738C167.272 149.409 167.116 150.011 166.803 150.542C166.506 151.058 166.092 151.472 165.561 151.784C165.045 152.081 164.452 152.23 163.78 152.23H150.562C149.89 152.23 149.296 152.081 148.78 151.784C148.249 151.472 147.835 151.058 147.538 150.542C147.226 150.011 147.069 149.409 147.069 148.738V148.691ZM160.23 148.691C160.23 148.019 160.386 147.425 160.698 146.91C160.995 146.378 161.409 145.964 161.94 145.667C162.456 145.355 163.05 145.199 163.722 145.199H170.471C171.143 145.199 171.737 145.355 172.253 145.667C172.784 145.964 173.198 146.378 173.495 146.91C173.807 147.425 173.963 148.019 173.963 148.691V148.738C173.963 149.409 173.807 150.011 173.495 150.542C173.198 151.058 172.784 151.472 172.253 151.784C171.737 152.081 171.143 152.23 170.471 152.23H163.722C163.05 152.23 162.456 152.081 161.94 151.784C161.409 151.472 160.995 151.058 160.698 150.542C160.386 150.011 160.23 149.409 160.23 148.738V148.691ZM166.936 148.691C166.936 148.019 167.092 147.425 167.404 146.91C167.701 146.378 168.115 145.964 168.646 145.667C169.162 145.355 169.756 145.199 170.428 145.199H183.646C184.318 145.199 184.911 145.355 185.427 145.667C185.958 145.964 186.372 146.378 186.669 146.91C186.982 147.425 187.138 148.019 187.138 148.691V148.738C187.138 149.409 186.982 150.011 186.669 150.542C186.372 151.058 185.958 151.472 185.427 151.784C184.911 152.081 184.318 152.23 183.646 152.23H170.428C169.756 152.23 169.162 152.081 168.646 151.784C168.115 151.472 167.701 151.058 167.404 150.542C167.092 150.011 166.936 149.409 166.936 148.738V148.691ZM180.096 148.691C180.096 148.019 180.252 147.425 180.564 146.91C180.861 146.378 181.275 145.964 181.807 145.667C182.322 145.355 182.916 145.199 183.588 145.199H196.806C197.478 145.199 198.072 145.355 198.587 145.667C199.118 145.964 199.532 146.378 199.829 146.91C200.142 147.425 200.298 148.019 200.298 148.691V148.738C200.298 149.409 200.142 150.011 199.829 150.542C199.532 151.058 199.118 151.472 198.587 151.784C198.072 152.081 197.478 152.23 196.806 152.23H183.588C182.916 152.23 182.322 152.081 181.807 151.784C181.275 151.472 180.861 151.058 180.564 150.542C180.252 150.011 180.096 149.409 180.096 148.738V148.691ZM193.256 148.691C193.256 148.019 193.412 147.425 193.725 146.91C194.022 146.378 194.436 145.964 194.967 145.667C195.482 145.355 196.076 145.199 196.748 145.199H209.966C210.638 145.199 211.232 145.355 211.747 145.667C212.279 145.964 212.693 146.378 212.989 146.91C213.302 147.425 213.458 148.019 213.458 148.691V148.738C213.458 149.409 213.302 150.011 212.989 150.542C212.693 151.058 212.279 151.472 211.747 151.784C211.232 152.081 210.638 152.23 209.966 152.23H196.748C196.076 152.23 195.482 152.081 194.967 151.784C194.436 151.472 194.022 151.058 193.725 150.542C193.412 150.011 193.256 149.409 193.256 148.738V148.691ZM206.416 148.691C206.416 148.019 206.572 147.425 206.885 146.91C207.182 146.378 207.596 145.964 208.127 145.667C208.643 145.355 209.236 145.199 209.908 145.199H223.126C223.798 145.199 224.392 145.355 224.907 145.667C225.439 145.964 225.853 146.378 226.15 146.91C226.462 147.425 226.618 148.019 226.618 148.691V148.738C226.618 149.409 226.462 150.011 226.15 150.542C225.853 151.058 225.439 151.472 224.907 151.784C224.392 152.081 223.798 152.23 223.126 152.23H209.908C209.236 152.23 208.643 152.081 208.127 151.784C207.596 151.472 207.182 151.058 206.885 150.542C206.572 150.011 206.416 149.409 206.416 148.738V148.691Z" fill="#2A211F"/>
<path d="M388.221 136.443C388.221 135.637 388.408 134.924 388.783 134.306C389.14 133.668 389.636 133.171 390.274 132.815C390.893 132.44 391.605 132.252 392.411 132.252H408.273C409.079 132.252 409.792 132.44 410.411 132.815C411.048 133.171 411.545 133.668 411.901 134.306C412.276 134.924 412.464 135.637 412.464 136.443V136.499C412.464 137.305 412.276 138.027 411.901 138.665C411.545 139.283 411.048 139.78 410.411 140.155C409.792 140.512 409.079 140.69 408.273 140.69H392.411C391.605 140.69 390.893 140.512 390.274 140.155C389.636 139.78 389.14 139.283 388.783 138.665C388.408 138.027 388.221 137.305 388.221 136.499V136.443ZM404.013 136.443C404.013 135.637 404.201 134.924 404.576 134.306C404.932 133.668 405.429 133.171 406.066 132.815C406.685 132.44 407.397 132.252 408.204 132.252H424.065C424.872 132.252 425.584 132.44 426.203 132.815C426.84 133.171 427.337 133.668 427.693 134.306C428.068 134.924 428.256 135.637 428.256 136.443V136.499C428.256 137.305 428.068 138.027 427.693 138.665C427.337 139.283 426.84 139.78 426.203 140.155C425.584 140.512 424.872 140.69 424.065 140.69H408.204C407.397 140.69 406.685 140.512 406.066 140.155C405.429 139.78 404.932 139.283 404.576 138.665C404.201 138.027 404.013 137.305 404.013 136.499V136.443ZM419.805 136.443C419.805 135.637 419.993 134.924 420.368 134.306C420.724 133.668 421.221 133.171 421.858 132.815C422.477 132.44 423.19 132.252 423.996 132.252H439.858C440.664 132.252 441.376 132.44 441.995 132.815C442.632 133.171 443.129 133.668 443.486 134.306C443.861 134.924 444.048 135.637 444.048 136.443V136.499C444.048 137.305 443.861 138.027 443.486 138.665C443.129 139.283 442.632 139.78 441.995 140.155C441.376 140.512 440.664 140.69 439.858 140.69H423.996C423.19 140.69 422.477 140.512 421.858 140.155C421.221 139.78 420.724 139.283 420.368 138.665C419.993 138.027 419.805 137.305 419.805 136.499V136.443Z" fill="#332824"/>
<circle cx="454.475" cy="136.814" r="4.66087" fill="#332824"/>
<path d="M21.2189 189.733C21.2189 188.927 21.4064 188.214 21.7814 187.596C22.1376 186.958 22.6345 186.461 23.272 186.105C23.8907 185.73 24.6032 185.543 25.4094 185.543H41.2712C42.0774 185.543 42.7899 185.73 43.4086 186.105C44.0461 186.461 44.543 186.958 44.8992 187.596C45.2742 188.214 45.4617 188.927 45.4617 189.733V189.789C45.4617 190.595 45.2742 191.317 44.8992 191.955C44.543 192.573 44.0461 193.07 43.4086 193.445C42.7899 193.802 42.0774 193.98 41.2712 193.98H25.4094C24.6032 193.98 23.8907 193.802 23.272 193.445C22.6345 193.07 22.1376 192.573 21.7814 191.955C21.4064 191.317 21.2189 190.595 21.2189 189.789V189.733ZM37.0111 189.733C37.0111 188.927 37.1986 188.214 37.5736 187.596C37.9298 186.958 38.4267 186.461 39.0642 186.105C39.6829 185.73 40.3954 185.543 41.2016 185.543H57.0634C57.8696 185.543 58.5821 185.73 59.2008 186.105C59.8383 186.461 60.3352 186.958 60.6914 187.596C61.0664 188.214 61.2539 188.927 61.2539 189.733V189.789C61.2539 190.595 61.0664 191.317 60.6914 191.955C60.3352 192.573 59.8383 193.07 59.2008 193.445C58.5821 193.802 57.8696 193.98 57.0634 193.98H41.2016C40.3954 193.98 39.6829 193.802 39.0642 193.445C38.4267 193.07 37.9298 192.573 37.5736 191.955C37.1986 191.317 37.0111 190.595 37.0111 189.789V189.733ZM52.8033 189.733C52.8033 188.927 52.9908 188.214 53.3658 187.596C53.722 186.958 54.2189 186.461 54.8564 186.105C55.4751 185.73 56.1876 185.543 56.9938 185.543H72.8556C73.6618 185.543 74.3743 185.73 74.993 186.105C75.6305 186.461 76.1274 186.958 76.4836 187.596C76.8586 188.214 77.0461 188.927 77.0461 189.733V189.789C77.0461 190.595 76.8586 191.317 76.4836 191.955C76.1274 192.573 75.6305 193.07 74.993 193.445C74.3743 193.802 73.6618 193.98 72.8556 193.98H56.9938C56.1876 193.98 55.4751 193.802 54.8564 193.445C54.2189 193.07 53.722 192.573 53.3658 191.955C52.9908 191.317 52.8033 190.595 52.8033 189.789V189.733ZM68.5955 189.733C68.5955 188.927 68.783 188.214 69.158 187.596C69.5142 186.958 70.0111 186.461 70.6486 186.105C71.2673 185.73 71.9797 185.543 72.786 185.543H88.6478C89.454 185.543 90.1665 185.73 90.7852 186.105C91.4227 186.461 91.9196 186.958 92.2758 187.596C92.6508 188.214 92.8383 188.927 92.8383 189.733V189.789C92.8383 190.595 92.6508 191.317 92.2758 191.955C91.9196 192.573 91.4227 193.07 90.7852 193.445C90.1665 193.802 89.454 193.98 88.6478 193.98H72.786C71.9797 193.98 71.2673 193.802 70.6486 193.445C70.0111 193.07 69.5142 192.573 69.158 191.955C68.783 191.317 68.5955 190.595 68.5955 189.789V189.733ZM84.3877 189.733C84.3877 188.927 84.5752 188.214 84.9502 187.596C85.3064 186.958 85.8033 186.461 86.4408 186.105C87.0595 185.73 87.7719 185.543 88.5782 185.543H104.44C105.246 185.543 105.959 185.73 106.577 186.105C107.215 186.461 107.712 186.958 108.068 187.596C108.443 188.214 108.63 188.927 108.63 189.733V189.789C108.63 190.595 108.443 191.317 108.068 191.955C107.712 192.573 107.215 193.07 106.577 193.445C105.959 193.802 105.246 193.98 104.44 193.98H88.5782C87.7719 193.98 87.0595 193.802 86.4408 193.445C85.8033 193.07 85.3064 192.573 84.9502 191.955C84.5752 191.317 84.3877 190.595 84.3877 189.789V189.733ZM100.18 189.733C100.18 188.927 100.367 188.214 100.742 187.596C101.099 186.958 101.595 186.461 102.233 186.105C102.852 185.73 103.564 185.543 104.37 185.543H120.232C121.038 185.543 121.751 185.73 122.37 186.105C123.007 186.461 123.504 186.958 123.86 187.596C124.235 188.214 124.423 188.927 124.423 189.733V189.789C124.423 190.595 124.235 191.317 123.86 191.955C123.504 192.573 123.007 193.07 122.37 193.445C121.751 193.802 121.038 193.98 120.232 193.98H104.37C103.564 193.98 102.852 193.802 102.233 193.445C101.595 193.07 101.099 192.573 100.742 191.955C100.367 191.317 100.18 190.595 100.18 189.789V189.733ZM132.835 189.733C132.835 188.927 133.023 188.214 133.398 187.596C133.754 186.958 134.251 186.461 134.888 186.105C135.507 185.73 136.22 185.543 137.026 185.543H152.888C153.694 185.543 154.406 185.73 155.025 186.105C155.663 186.461 156.159 186.958 156.516 187.596C156.891 188.214 157.078 188.927 157.078 189.733V189.789C157.078 190.595 156.891 191.317 156.516 191.955C156.159 192.573 155.663 193.07 155.025 193.445C154.406 193.802 153.694 193.98 152.888 193.98H137.026C136.22 193.98 135.507 193.802 134.888 193.445C134.251 193.07 133.754 192.573 133.398 191.955C133.023 191.317 132.835 190.595 132.835 189.789V189.733ZM148.628 189.733C148.628 188.927 148.815 188.214 149.19 187.596C149.546 186.958 150.043 186.461 150.681 186.105C151.299 185.73 152.012 185.543 152.818 185.543H168.68C169.486 185.543 170.199 185.73 170.817 186.105C171.455 186.461 171.952 186.958 172.308 187.596C172.683 188.214 172.87 188.927 172.87 189.733V189.789C172.87 190.595 172.683 191.317 172.308 191.955C171.952 192.573 171.455 193.07 170.817 193.445C170.199 193.802 169.486 193.98 168.68 193.98H152.818C152.012 193.98 151.299 193.802 150.681 193.445C150.043 193.07 149.546 192.573 149.19 191.955C148.815 191.317 148.628 190.595 148.628 189.789V189.733ZM164.42 189.733C164.42 188.927 164.607 188.214 164.982 187.596C165.339 186.958 165.835 186.461 166.473 186.105C167.092 185.73 167.804 185.543 168.61 185.543H184.472C185.278 185.543 185.991 185.73 186.61 186.105C187.247 186.461 187.744 186.958 188.1 187.596C188.475 188.214 188.663 188.927 188.663 189.733V189.789C188.663 190.595 188.475 191.317 188.1 191.955C187.744 192.573 187.247 193.07 186.61 193.445C185.991 193.802 185.278 193.98 184.472 193.98H168.61C167.804 193.98 167.092 193.802 166.473 193.445C165.835 193.07 165.339 192.573 164.982 191.955C164.607 191.317 164.42 190.595 164.42 189.789V189.733Z" fill="#332824"/>
<path d="M21.922 208.036C21.922 207.365 22.0783 206.771 22.3908 206.255C22.6876 205.724 23.1017 205.31 23.6329 205.013C24.1485 204.701 24.7422 204.544 25.4141 204.544H38.6323C39.3041 204.544 39.8978 204.701 40.4134 205.013C40.9447 205.31 41.3587 205.724 41.6556 206.255C41.9681 206.771 42.1243 207.365 42.1243 208.036V208.083C42.1243 208.755 41.9681 209.357 41.6556 209.888C41.3587 210.404 40.9447 210.818 40.4134 211.13C39.8978 211.427 39.3041 211.575 38.6323 211.575H25.4141C24.7422 211.575 24.1485 211.427 23.6329 211.13C23.1017 210.818 22.6876 210.404 22.3908 209.888C22.0783 209.357 21.922 208.755 21.922 208.083V208.036ZM35.0822 208.036C35.0822 207.365 35.2384 206.771 35.5509 206.255C35.8478 205.724 36.2618 205.31 36.7931 205.013C37.3087 204.701 37.9024 204.544 38.5742 204.544H51.7924C52.4643 204.544 53.058 204.701 53.5736 205.013C54.1048 205.31 54.5189 205.724 54.8157 206.255C55.1282 206.771 55.2845 207.365 55.2845 208.036V208.083C55.2845 208.755 55.1282 209.357 54.8157 209.888C54.5189 210.404 54.1048 210.818 53.5736 211.13C53.058 211.427 52.4643 211.575 51.7924 211.575H38.5742C37.9024 211.575 37.3087 211.427 36.7931 211.13C36.2618 210.818 35.8478 210.404 35.5509 209.888C35.2384 209.357 35.0822 208.755 35.0822 208.083V208.036ZM48.2423 208.036C48.2423 207.365 48.3986 206.771 48.7111 206.255C49.0079 205.724 49.422 205.31 49.9532 205.013C50.4688 204.701 51.0625 204.544 51.7344 204.544H64.9526C65.6244 204.544 66.2182 204.701 66.7338 205.013C67.265 205.31 67.679 205.724 67.9759 206.255C68.2884 206.771 68.4446 207.365 68.4446 208.036V208.083C68.4446 208.755 68.2884 209.357 67.9759 209.888C67.679 210.404 67.265 210.818 66.7338 211.13C66.2182 211.427 65.6244 211.575 64.9526 211.575H51.7344C51.0625 211.575 50.4688 211.427 49.9532 211.13C49.422 210.818 49.0079 210.404 48.7111 209.888C48.3986 209.357 48.2423 208.755 48.2423 208.083V208.036ZM61.4025 208.036C61.4025 207.365 61.5588 206.771 61.8712 206.255C62.1681 205.724 62.5822 205.31 63.1134 205.013C63.629 204.701 64.2227 204.544 64.8946 204.544H78.1128C78.7846 204.544 79.3783 204.701 79.8939 205.013C80.4252 205.31 80.8392 205.724 81.1361 206.255C81.4486 206.771 81.6048 207.365 81.6048 208.036V208.083C81.6048 208.755 81.4486 209.357 81.1361 209.888C80.8392 210.404 80.4252 210.818 79.8939 211.13C79.3783 211.427 78.7846 211.575 78.1128 211.575H64.8946C64.2227 211.575 63.629 211.427 63.1134 211.13C62.5822 210.818 62.1681 210.404 61.8712 209.888C61.5588 209.357 61.4025 208.755 61.4025 208.083V208.036ZM74.5627 208.036C74.5627 207.365 74.7189 206.771 75.0314 206.255C75.3283 205.724 75.7423 205.31 76.2735 205.013C76.7891 204.701 77.3829 204.544 78.0547 204.544H91.2729C91.9448 204.544 92.5385 204.701 93.0541 205.013C93.5853 205.31 93.9994 205.724 94.2962 206.255C94.6087 206.771 94.765 207.365 94.765 208.036V208.083C94.765 208.755 94.6087 209.357 94.2962 209.888C93.9994 210.404 93.5853 210.818 93.0541 211.13C92.5385 211.427 91.9448 211.575 91.2729 211.575H78.0547C77.3829 211.575 76.7891 211.427 76.2735 211.13C75.7423 210.818 75.3283 210.404 75.0314 209.888C74.7189 209.357 74.5627 208.755 74.5627 208.083V208.036ZM87.7228 208.036C87.7228 207.365 87.8791 206.771 88.1916 206.255C88.4884 205.724 88.9025 205.31 89.4337 205.013C89.9493 204.701 90.543 204.544 91.2149 204.544H104.433C105.105 204.544 105.699 204.701 106.214 205.013C106.745 205.31 107.16 205.724 107.456 206.255C107.769 206.771 107.925 207.365 107.925 208.036V208.083C107.925 208.755 107.769 209.357 107.456 209.888C107.16 210.404 106.745 210.818 106.214 211.13C105.699 211.427 105.105 211.575 104.433 211.575H91.2149C90.543 211.575 89.9493 211.427 89.4337 211.13C88.9025 210.818 88.4884 210.404 88.1916 209.888C87.8791 209.357 87.7228 208.755 87.7228 208.083V208.036ZM100.883 208.036C100.883 207.365 101.039 206.771 101.352 206.255C101.649 205.724 102.063 205.31 102.594 205.013C103.109 204.701 103.703 204.544 104.375 204.544H117.593C118.265 204.544 118.859 204.701 119.374 205.013C119.906 205.31 120.32 205.724 120.617 206.255C120.929 206.771 121.085 207.365 121.085 208.036V208.083C121.085 208.755 120.929 209.357 120.617 209.888C120.32 210.404 119.906 210.818 119.374 211.13C118.859 211.427 118.265 211.575 117.593 211.575H104.375C103.703 211.575 103.109 211.427 102.594 211.13C102.063 210.818 101.649 210.404 101.352 209.888C101.039 209.357 100.883 208.755 100.883 208.083V208.036ZM114.043 208.036C114.043 207.365 114.199 206.771 114.512 206.255C114.809 205.724 115.223 205.31 115.754 205.013C116.27 204.701 116.863 204.544 117.535 204.544H130.753C131.425 204.544 132.019 204.701 132.535 205.013C133.066 205.31 133.48 205.724 133.777 206.255C134.089 206.771 134.245 207.365 134.245 208.036V208.083C134.245 208.755 134.089 209.357 133.777 209.888C133.48 210.404 133.066 210.818 132.535 211.13C132.019 211.427 131.425 211.575 130.753 211.575H117.535C116.863 211.575 116.27 211.427 115.754 211.13C115.223 210.818 114.809 210.404 114.512 209.888C114.199 209.357 114.043 208.755 114.043 208.083V208.036ZM127.203 208.036C127.203 207.365 127.36 206.771 127.672 206.255C127.969 205.724 128.383 205.31 128.914 205.013C129.43 204.701 130.024 204.544 130.695 204.544H143.914C144.585 204.544 145.179 204.701 145.695 205.013C146.226 205.31 146.64 205.724 146.937 206.255C147.249 206.771 147.406 207.365 147.406 208.036V208.083C147.406 208.755 147.249 209.357 146.937 209.888C146.64 210.404 146.226 210.818 145.695 211.13C145.179 211.427 144.585 211.575 143.914 211.575H130.695C130.024 211.575 129.43 211.427 128.914 211.13C128.383 210.818 127.969 210.404 127.672 209.888C127.36 209.357 127.203 208.755 127.203 208.083V208.036ZM140.363 208.036C140.363 207.365 140.52 206.771 140.832 206.255C141.129 205.724 141.543 205.31 142.074 205.013C142.59 204.701 143.184 204.544 143.856 204.544H150.605C151.277 204.544 151.871 204.701 152.386 205.013C152.918 205.31 153.332 205.724 153.629 206.255C153.941 206.771 154.097 207.365 154.097 208.036V208.083C154.097 208.755 153.941 209.357 153.629 209.888C153.332 210.404 152.918 210.818 152.386 211.13C151.871 211.427 151.277 211.575 150.605 211.575H143.856C143.184 211.575 142.59 211.427 142.074 211.13C141.543 210.818 141.129 210.404 140.832 209.888C140.52 209.357 140.363 208.755 140.363 208.083V208.036ZM147.069 208.036C147.069 207.365 147.226 206.771 147.538 206.255C147.835 205.724 148.249 205.31 148.78 205.013C149.296 204.701 149.89 204.544 150.562 204.544H163.78C164.452 204.544 165.045 204.701 165.561 205.013C166.092 205.31 166.506 205.724 166.803 206.255C167.116 206.771 167.272 207.365 167.272 208.036V208.083C167.272 208.755 167.116 209.357 166.803 209.888C166.506 210.404 166.092 210.818 165.561 211.13C165.045 211.427 164.452 211.575 163.78 211.575H150.562C149.89 211.575 149.296 211.427 148.78 211.13C148.249 210.818 147.835 210.404 147.538 209.888C147.226 209.357 147.069 208.755 147.069 208.083V208.036ZM160.23 208.036C160.23 207.365 160.386 206.771 160.698 206.255C160.995 205.724 161.409 205.31 161.94 205.013C162.456 204.701 163.05 204.544 163.722 204.544H170.471C171.143 204.544 171.737 204.701 172.253 205.013C172.784 205.31 173.198 205.724 173.495 206.255C173.807 206.771 173.963 207.365 173.963 208.036V208.083C173.963 208.755 173.807 209.357 173.495 209.888C173.198 210.404 172.784 210.818 172.253 211.13C171.737 211.427 171.143 211.575 170.471 211.575H163.722C163.05 211.575 162.456 211.427 161.94 211.13C161.409 210.818 160.995 210.404 160.698 209.888C160.386 209.357 160.23 208.755 160.23 208.083V208.036ZM166.936 208.036C166.936 207.365 167.092 206.771 167.404 206.255C167.701 205.724 168.115 205.31 168.646 205.013C169.162 204.701 169.756 204.544 170.428 204.544H183.646C184.318 204.544 184.911 204.701 185.427 205.013C185.958 205.31 186.372 205.724 186.669 206.255C186.982 206.771 187.138 207.365 187.138 208.036V208.083C187.138 208.755 186.982 209.357 186.669 209.888C186.372 210.404 185.958 210.818 185.427 211.13C184.911 211.427 184.318 211.575 183.646 211.575H170.428C169.756 211.575 169.162 211.427 168.646 211.13C168.115 210.818 167.701 210.404 167.404 209.888C167.092 209.357 166.936 208.755 166.936 208.083V208.036ZM180.096 208.036C180.096 207.365 180.252 206.771 180.564 206.255C180.861 205.724 181.275 205.31 181.807 205.013C182.322 204.701 182.916 204.544 183.588 204.544H196.806C197.478 204.544 198.072 204.701 198.587 205.013C199.118 205.31 199.532 205.724 199.829 206.255C200.142 206.771 200.298 207.365 200.298 208.036V208.083C200.298 208.755 200.142 209.357 199.829 209.888C199.532 210.404 199.118 210.818 198.587 211.13C198.072 211.427 197.478 211.575 196.806 211.575H183.588C182.916 211.575 182.322 211.427 181.807 211.13C181.275 210.818 180.861 210.404 180.564 209.888C180.252 209.357 180.096 208.755 180.096 208.083V208.036ZM193.256 208.036C193.256 207.365 193.412 206.771 193.725 206.255C194.022 205.724 194.436 205.31 194.967 205.013C195.482 204.701 196.076 204.544 196.748 204.544H209.966C210.638 204.544 211.232 204.701 211.747 205.013C212.279 205.31 212.693 205.724 212.989 206.255C213.302 206.771 213.458 207.365 213.458 208.036V208.083C213.458 208.755 213.302 209.357 212.989 209.888C212.693 210.404 212.279 210.818 211.747 211.13C211.232 211.427 210.638 211.575 209.966 211.575H196.748C196.076 211.575 195.482 211.427 194.967 211.13C194.436 210.818 194.022 210.404 193.725 209.888C193.412 209.357 193.256 208.755 193.256 208.083V208.036ZM206.416 208.036C206.416 207.365 206.572 206.771 206.885 206.255C207.182 205.724 207.596 205.31 208.127 205.013C208.643 204.701 209.236 204.544 209.908 204.544H223.126C223.798 204.544 224.392 204.701 224.907 205.013C225.439 205.31 225.853 205.724 226.15 206.255C226.462 206.771 226.618 207.365 226.618 208.036V208.083C226.618 208.755 226.462 209.357 226.15 209.888C225.853 210.404 225.439 210.818 224.907 211.13C224.392 211.427 223.798 211.575 223.126 211.575H209.908C209.236 211.575 208.643 211.427 208.127 211.13C207.596 210.818 207.182 210.404 206.885 209.888C206.572 209.357 206.416 208.755 206.416 208.083V208.036Z" fill="#2A211F"/>
<path d="M388.221 195.789C388.221 194.982 388.408 194.27 388.783 193.651C389.14 193.014 389.636 192.517 390.274 192.161C390.893 191.786 391.605 191.598 392.411 191.598H408.273C409.079 191.598 409.792 191.786 410.411 192.161C411.048 192.517 411.545 193.014 411.901 193.651C412.276 194.27 412.464 194.982 412.464 195.789V195.845C412.464 196.651 412.276 197.373 411.901 198.01C411.545 198.629 411.048 199.126 410.411 199.501C409.792 199.857 409.079 200.035 408.273 200.035H392.411C391.605 200.035 390.893 199.857 390.274 199.501C389.636 199.126 389.14 198.629 388.783 198.01C388.408 197.373 388.221 196.651 388.221 195.845V195.789ZM404.013 195.789C404.013 194.982 404.201 194.27 404.576 193.651C404.932 193.014 405.429 192.517 406.066 192.161C406.685 191.786 407.397 191.598 408.204 191.598H424.065C424.872 191.598 425.584 191.786 426.203 192.161C426.84 192.517 427.337 193.014 427.693 193.651C428.068 194.27 428.256 194.982 428.256 195.789V195.845C428.256 196.651 428.068 197.373 427.693 198.01C427.337 198.629 426.84 199.126 426.203 199.501C425.584 199.857 424.872 200.035 424.065 200.035H408.204C407.397 200.035 406.685 199.857 406.066 199.501C405.429 199.126 404.932 198.629 404.576 198.01C404.201 197.373 404.013 196.651 404.013 195.845V195.789ZM419.805 195.789C419.805 194.982 419.993 194.27 420.368 193.651C420.724 193.014 421.221 192.517 421.858 192.161C422.477 191.786 423.19 191.598 423.996 191.598H439.858C440.664 191.598 441.376 191.786 441.995 192.161C442.632 192.517 443.129 193.014 443.486 193.651C443.861 194.27 444.048 194.982 444.048 195.789V195.845C444.048 196.651 443.861 197.373 443.486 198.01C443.129 198.629 442.632 199.126 441.995 199.501C441.376 199.857 440.664 200.035 439.858 200.035H423.996C423.19 200.035 422.477 199.857 421.858 199.501C421.221 199.126 420.724 198.629 420.368 198.01C419.993 197.373 419.805 196.651 419.805 195.845V195.789Z" fill="#332824"/>
<circle cx="454.475" cy="196.16" r="4.66087" fill="#332824"/>
<mask id="path-24-inside-2_12005_522" fill="white">
<path d="M2 210.174H482V248.838H2V210.174Z"/>
</mask>
<path d="M2 210.174H482V248.838H2V210.174Z" fill="#191514"/>
<path d="M2 211.174H482V209.174H2V211.174Z" fill="#57433C" mask="url(#path-24-inside-2_12005_522)"/>
<circle cx="24.846" cy="229.506" r="12.055" fill="#2E2E2B" stroke="#3E3E3A" stroke-width="0.989718"/>
<g clip-path="url(#clip2_12005_522)">
<path d="M24.4755 219.878C19.3114 219.878 19.5659 225.633 19.2604 229.298C19.256 229.352 19.2742 229.405 19.3106 229.445C19.3471 229.484 19.3985 229.507 19.4523 229.507H22.5336C22.6356 229.507 22.7199 229.427 22.7259 229.326L22.9979 224.7C23.0555 223.723 23.8652 222.959 24.8446 222.959C25.824 222.959 26.6337 223.723 26.6913 224.7L26.9633 229.326C26.9693 229.427 27.0536 229.507 27.1556 229.507H30.2369C30.2907 229.507 30.3421 229.484 30.3786 229.445C30.415 229.405 30.4333 229.352 30.4288 229.298L30.0116 224.293C29.8037 221.797 27.7177 219.878 25.2137 219.878H24.4755Z" fill="#706F6C"/>
<path d="M24.845 237.21C22.3489 237.21 20.5767 237.153 19.436 237.096C18.2161 237.035 17.1875 236.157 17.0693 234.89C17.0029 234.18 16.9492 233.228 16.9492 232.01C16.9492 230.792 17.0029 229.841 17.0693 229.13C17.1875 227.863 18.2161 226.985 19.436 226.925C20.5767 226.868 22.3489 226.811 24.845 226.811C27.3411 226.811 29.1134 226.868 30.254 226.925C31.4739 226.985 32.5025 227.863 32.6208 229.13C32.6872 229.841 32.7408 230.792 32.7408 232.01C32.7408 233.228 32.6872 234.18 32.6208 234.89C32.5025 236.157 31.4739 237.035 30.254 237.096C29.1134 237.153 27.3411 237.21 24.845 237.21Z" fill="url(#paint0_linear_12005_522)"/>
<path fill-rule="evenodd" clip-rule="evenodd" d="M28.222 230.226C28.51 229.806 28.4032 229.232 27.9835 228.944C27.5637 228.656 26.9899 228.763 26.7018 229.183L24.8334 231.905L23.845 230.808C23.5043 230.43 22.9215 230.399 22.5432 230.74C22.1649 231.081 22.1344 231.664 22.4752 232.042L24.2465 234.008C24.4355 234.218 24.7103 234.33 24.9921 234.311C25.2739 234.293 25.5317 234.146 25.6915 233.913L28.222 230.226Z" fill="#FDFDFC"/>
</g>
<path d="M48.7076 226.904C48.6609 226.49 48.4685 226.169 48.1304 225.942C47.7923 225.711 47.3667 225.596 46.8537 225.596C46.4864 225.596 46.1687 225.655 45.9005 225.771C45.6323 225.885 45.4239 226.042 45.2752 226.243C45.1295 226.442 45.0566 226.667 45.0566 226.921C45.0566 227.134 45.1062 227.318 45.2053 227.472C45.3073 227.626 45.4399 227.756 45.6032 227.861C45.7693 227.963 45.9471 228.049 46.1366 228.119C46.3261 228.186 46.5083 228.242 46.6831 228.285L47.5576 228.513C47.8433 228.583 48.1362 228.677 48.4365 228.797C48.7367 228.916 49.0151 229.074 49.2716 229.269C49.5281 229.464 49.7351 229.706 49.8925 229.995C50.0528 230.283 50.1329 230.629 50.1329 231.031C50.1329 231.538 50.0018 231.989 49.7394 232.382C49.48 232.776 49.1025 233.086 48.607 233.313C48.1144 233.541 47.5183 233.655 46.8187 233.655C46.1483 233.655 45.5682 233.548 45.0785 233.335C44.5888 233.123 44.2055 232.821 43.9286 232.43C43.6516 232.037 43.4986 231.57 43.4695 231.031H44.8249C44.8511 231.355 44.9561 231.624 45.1397 231.84C45.3263 232.053 45.5638 232.212 45.8524 232.317C46.1439 232.419 46.4631 232.47 46.8099 232.47C47.1918 232.47 47.5314 232.41 47.8287 232.29C48.1289 232.168 48.3651 231.999 48.537 231.783C48.709 231.565 48.795 231.309 48.795 231.018C48.795 230.753 48.7192 230.536 48.5676 230.367C48.419 230.197 48.2164 230.058 47.9599 229.947C47.7063 229.836 47.4192 229.738 47.0985 229.654L46.0404 229.365C45.3233 229.17 44.7549 228.883 44.3352 228.504C43.9184 228.125 43.7099 227.624 43.7099 227C43.7099 226.484 43.8499 226.033 44.1297 225.649C44.4095 225.264 44.7885 224.965 45.2665 224.752C45.7445 224.537 46.2838 224.429 46.8843 224.429C47.4906 224.429 48.0255 224.535 48.4889 224.748C48.9553 224.961 49.3226 225.254 49.5908 225.627C49.8589 225.997 49.9989 226.423 50.0105 226.904H48.7076ZM54.537 233.641C53.8753 233.641 53.3055 233.5 52.8274 233.217C52.3523 232.932 51.985 232.531 51.7256 232.015C51.4691 231.496 51.3408 230.888 51.3408 230.192C51.3408 229.504 51.4691 228.897 51.7256 228.373C51.985 227.848 52.3465 227.438 52.8099 227.144C53.2763 226.85 53.8214 226.702 54.4452 226.702C54.8241 226.702 55.1914 226.765 55.547 226.89C55.9026 227.016 56.2218 227.213 56.5046 227.481C56.7873 227.749 57.0103 228.097 57.1735 228.526C57.3368 228.951 57.4184 229.469 57.4184 230.078V230.541H52.0797V229.562H56.1373C56.1373 229.218 56.0673 228.913 55.9274 228.648C55.7875 228.38 55.5907 228.169 55.3371 228.014C55.0865 227.86 54.7921 227.782 54.4539 227.782C54.0867 227.782 53.766 227.873 53.492 228.054C53.2209 228.231 53.0111 228.465 52.8624 228.753C52.7166 229.039 52.6438 229.349 52.6438 229.684V230.45C52.6438 230.898 52.7225 231.28 52.8799 231.595C53.0402 231.91 53.2632 232.15 53.5489 232.317C53.8345 232.48 54.1683 232.561 54.5501 232.561C54.7979 232.561 55.0238 232.526 55.2278 232.456C55.4319 232.384 55.6082 232.276 55.7569 232.133C55.9056 231.99 56.0192 231.814 56.0979 231.604L57.3353 231.827C57.2362 232.191 57.0584 232.51 56.8019 232.784C56.5483 233.056 56.2291 233.267 55.8443 233.418C55.4625 233.567 55.0267 233.641 54.537 233.641ZM61.6978 233.641C61.0478 233.641 60.4882 233.494 60.0189 233.2C59.5525 232.902 59.1939 232.493 58.9433 231.971C58.6926 231.449 58.5672 230.852 58.5672 230.178C58.5672 229.496 58.6955 228.894 58.952 228.373C59.2085 227.848 59.57 227.438 60.0363 227.144C60.5027 226.85 61.0522 226.702 61.6847 226.702C62.1948 226.702 62.6496 226.797 63.0489 226.987C63.4482 227.173 63.7703 227.436 64.0152 227.774C64.263 228.112 64.4102 228.507 64.4568 228.959H63.1844C63.1145 228.644 62.9542 228.373 62.7035 228.145C62.4557 227.918 62.1234 227.804 61.7066 227.804C61.3422 227.804 61.023 227.9 60.749 228.093C60.478 228.282 60.2666 228.553 60.115 228.906C59.9635 229.256 59.8877 229.67 59.8877 230.148C59.8877 230.638 59.962 231.06 60.1107 231.416C60.2593 231.771 60.4692 232.047 60.7403 232.242C61.0143 232.438 61.3364 232.535 61.7066 232.535C61.9544 232.535 62.1788 232.49 62.3799 232.4C62.584 232.306 62.7545 232.174 62.8915 232.002C63.0314 231.83 63.1291 231.623 63.1844 231.381H64.4568C64.4102 231.815 64.2688 232.203 64.0327 232.544C63.7966 232.885 63.4803 233.153 63.0839 233.348C62.6904 233.544 62.2284 233.641 61.6978 233.641ZM70.1092 230.721V226.79H71.4209V233.506H70.1354V232.343H70.0654C69.911 232.701 69.6632 233 69.3221 233.239C68.984 233.475 68.5628 233.593 68.0585 233.593C67.6271 233.593 67.2453 233.499 66.913 233.309C66.5836 233.117 66.3242 232.833 66.1347 232.456C65.9481 232.08 65.8549 231.616 65.8549 231.062V226.79H67.1622V230.904C67.1622 231.362 67.289 231.726 67.5426 231.997C67.7962 232.268 68.1256 232.404 68.5307 232.404C68.7756 232.404 69.019 232.343 69.2609 232.22C69.5058 232.098 69.7084 231.913 69.8687 231.665C70.0319 231.417 70.1121 231.103 70.1092 230.721ZM73.1775 233.506V226.79H74.4411V227.857H74.511C74.6335 227.495 74.8492 227.211 75.1582 227.004C75.47 226.794 75.8228 226.689 76.2163 226.689C76.2979 226.689 76.3941 226.692 76.5048 226.698C76.6185 226.704 76.7074 226.711 76.7716 226.72V227.97C76.7191 227.956 76.6258 227.94 76.4917 227.922C76.3576 227.902 76.2236 227.892 76.0895 227.892C75.7805 227.892 75.505 227.957 75.2631 228.089C75.0241 228.217 74.8346 228.396 74.6947 228.626C74.5548 228.854 74.4848 229.113 74.4848 229.405V233.506H73.1775ZM80.5569 233.641C79.8952 233.641 79.3254 233.5 78.8473 233.217C78.3722 232.932 78.0049 232.531 77.7455 232.015C77.489 231.496 77.3607 230.888 77.3607 230.192C77.3607 229.504 77.489 228.897 77.7455 228.373C78.0049 227.848 78.3664 227.438 78.8298 227.144C79.2962 226.85 79.8413 226.702 80.4651 226.702C80.844 226.702 81.2113 226.765 81.5669 226.89C81.9226 227.016 82.2417 227.213 82.5245 227.481C82.8072 227.749 83.0302 228.097 83.1935 228.526C83.3567 228.951 83.4383 229.469 83.4383 230.078V230.541H78.0997V229.562H82.1572C82.1572 229.218 82.0873 228.913 81.9473 228.648C81.8074 228.38 81.6107 228.169 81.3571 228.014C81.1064 227.86 80.812 227.782 80.4739 227.782C80.1066 227.782 79.7859 227.873 79.5119 228.054C79.2408 228.231 79.031 228.465 78.8823 228.753C78.7366 229.039 78.6637 229.349 78.6637 229.684V230.45C78.6637 230.898 78.7424 231.28 78.8998 231.595C79.0601 231.91 79.2831 232.15 79.5688 232.317C79.8544 232.48 80.1882 232.561 80.57 232.561C80.8178 232.561 81.0437 232.526 81.2478 232.456C81.4518 232.384 81.6282 232.276 81.7768 232.133C81.9255 231.99 82.0392 231.814 82.1179 231.604L83.3552 231.827C83.2561 232.191 83.0783 232.51 82.8218 232.784C82.5682 233.056 82.249 233.267 81.8643 233.418C81.4824 233.567 81.0466 233.641 80.5569 233.641ZM87.403 233.637C86.8608 233.637 86.3769 233.499 85.9513 233.222C85.5287 232.942 85.1964 232.544 84.9544 232.028C84.7154 231.509 84.5959 230.887 84.5959 230.161C84.5959 229.435 84.7169 228.814 84.9588 228.298C85.2037 227.782 85.5389 227.387 85.9644 227.113C86.39 226.839 86.8724 226.702 87.4117 226.702C87.8285 226.702 88.1637 226.772 88.4173 226.912C88.6739 227.049 88.8721 227.21 89.012 227.393C89.1548 227.577 89.2656 227.739 89.3443 227.879H89.423V224.551H90.7303V233.506H89.4536V232.461H89.3443C89.2656 232.604 89.1519 232.767 89.0032 232.951C88.8575 233.134 88.6564 233.295 88.3999 233.432C88.1433 233.569 87.811 233.637 87.403 233.637ZM87.6915 232.522C88.0676 232.522 88.3853 232.423 88.6447 232.225C88.907 232.024 89.1053 231.745 89.2393 231.39C89.3763 231.034 89.4448 230.62 89.4448 230.148C89.4448 229.682 89.3778 229.273 89.2437 228.924C89.1096 228.574 88.9129 228.301 88.6535 228.106C88.394 227.911 88.0734 227.813 87.6915 227.813C87.298 227.813 86.9701 227.915 86.7077 228.119C86.4454 228.323 86.2472 228.602 86.1131 228.954C85.9819 229.307 85.9164 229.705 85.9164 230.148C85.9164 230.597 85.9834 231 86.1175 231.359C86.2516 231.718 86.4498 232.002 86.7121 232.212C86.9774 232.419 87.3038 232.522 87.6915 232.522ZM95.9597 233.506V224.551H97.267V227.879H97.3457C97.4215 227.739 97.5308 227.577 97.6736 227.393C97.8165 227.21 98.0147 227.049 98.2683 226.912C98.5219 226.772 98.8571 226.702 99.2739 226.702C99.8161 226.702 100.3 226.839 100.726 227.113C101.151 227.387 101.485 227.782 101.727 228.298C101.972 228.814 102.094 229.435 102.094 230.161C102.094 230.887 101.973 231.509 101.731 232.028C101.489 232.544 101.157 232.942 100.734 233.222C100.312 233.499 99.8292 233.637 99.287 233.637C98.8789 233.637 98.5452 233.569 98.2858 233.432C98.0292 233.295 97.8281 233.134 97.6824 232.951C97.5366 232.767 97.4244 232.604 97.3457 232.461H97.2364V233.506H95.9597ZM97.2408 230.148C97.2408 230.62 97.3093 231.034 97.4463 231.39C97.5833 231.745 97.7815 232.024 98.0409 232.225C98.3003 232.423 98.6181 232.522 98.9941 232.522C99.3847 232.522 99.7112 232.419 99.9735 232.212C100.236 232.002 100.434 231.718 100.568 231.359C100.705 231 100.774 230.597 100.774 230.148C100.774 229.705 100.707 229.307 100.573 228.954C100.441 228.602 100.243 228.323 99.9779 228.119C99.7155 227.915 99.3876 227.813 98.9941 227.813C98.6151 227.813 98.2945 227.911 98.0322 228.106C97.7727 228.301 97.576 228.574 97.4419 228.924C97.3078 229.273 97.2408 229.682 97.2408 230.148ZM104.16 236.024C103.965 236.024 103.787 236.008 103.627 235.976C103.466 235.947 103.347 235.915 103.268 235.88L103.583 234.809C103.822 234.873 104.035 234.901 104.221 234.892C104.408 234.883 104.572 234.813 104.715 234.682C104.861 234.551 104.989 234.337 105.1 234.039L105.262 233.593L102.805 226.79H104.204L105.905 232.002H105.975L107.675 226.79H109.079L106.311 234.402C106.183 234.752 106.02 235.048 105.822 235.29C105.623 235.535 105.387 235.718 105.113 235.841C104.839 235.963 104.521 236.024 104.16 236.024ZM113.671 233.506V224.551H116.863C117.559 224.551 118.137 224.678 118.594 224.932C119.052 225.185 119.394 225.532 119.622 225.972C119.849 226.41 119.963 226.902 119.963 227.45C119.963 228.001 119.848 228.497 119.617 228.937C119.39 229.374 119.046 229.721 118.586 229.977C118.128 230.231 117.552 230.358 116.858 230.358H114.664V229.212H116.736C117.176 229.212 117.533 229.136 117.807 228.985C118.081 228.83 118.282 228.62 118.411 228.355C118.539 228.09 118.603 227.788 118.603 227.45C118.603 227.112 118.539 226.812 118.411 226.549C118.282 226.287 118.08 226.082 117.803 225.933C117.529 225.784 117.167 225.71 116.719 225.71H115.022V233.506H113.671ZM124.252 233.641C123.59 233.641 123.021 233.5 122.543 233.217C122.067 232.932 121.7 232.531 121.441 232.015C121.184 231.496 121.056 230.888 121.056 230.192C121.056 229.504 121.184 228.897 121.441 228.373C121.7 227.848 122.062 227.438 122.525 227.144C122.991 226.85 123.537 226.702 124.16 226.702C124.539 226.702 124.907 226.765 125.262 226.89C125.618 227.016 125.937 227.213 126.22 227.481C126.502 227.749 126.725 228.097 126.889 228.526C127.052 228.951 127.134 229.469 127.134 230.078V230.541H121.795V229.562H125.852C125.852 229.218 125.782 228.913 125.643 228.648C125.503 228.38 125.306 228.169 125.052 228.014C124.802 227.86 124.507 227.782 124.169 227.782C123.802 227.782 123.481 227.873 123.207 228.054C122.936 228.231 122.726 228.465 122.578 228.753C122.432 229.039 122.359 229.349 122.359 229.684V230.45C122.359 230.898 122.438 231.28 122.595 231.595C122.755 231.91 122.978 232.15 123.264 232.317C123.55 232.48 123.883 232.561 124.265 232.561C124.513 232.561 124.739 232.526 124.943 232.456C125.147 232.384 125.323 232.276 125.472 232.133C125.621 231.99 125.734 231.814 125.813 231.604L127.05 231.827C126.951 232.191 126.774 232.51 126.517 232.784C126.263 233.056 125.944 233.267 125.559 233.418C125.178 233.567 124.742 233.641 124.252 233.641ZM128.584 233.506V226.79H129.848V227.857H129.918C130.04 227.495 130.256 227.211 130.565 227.004C130.877 226.794 131.229 226.689 131.623 226.689C131.704 226.689 131.801 226.692 131.911 226.698C132.025 226.704 132.114 226.711 132.178 226.72V227.97C132.126 227.956 132.032 227.94 131.898 227.922C131.764 227.902 131.63 227.892 131.496 227.892C131.187 227.892 130.912 227.957 130.67 228.089C130.431 228.217 130.241 228.396 130.101 228.626C129.961 228.854 129.891 229.113 129.891 229.405V233.506H128.584ZM133.309 233.506V226.79H134.564V227.883H134.647C134.787 227.513 135.016 227.224 135.334 227.017C135.652 226.807 136.032 226.702 136.475 226.702C136.924 226.702 137.3 226.807 137.603 227.017C137.909 227.227 138.135 227.516 138.281 227.883H138.351C138.511 227.524 138.766 227.239 139.116 227.026C139.466 226.81 139.883 226.702 140.366 226.702C140.976 226.702 141.473 226.893 141.857 227.275C142.245 227.657 142.439 228.233 142.439 229.002V233.506H141.132V229.125C141.132 228.67 141.008 228.341 140.76 228.137C140.512 227.933 140.216 227.831 139.872 227.831C139.447 227.831 139.116 227.962 138.88 228.224C138.644 228.483 138.526 228.817 138.526 229.225V233.506H137.223V229.042C137.223 228.677 137.109 228.384 136.882 228.163C136.654 227.941 136.358 227.831 135.994 227.831C135.746 227.831 135.518 227.896 135.308 228.027C135.101 228.156 134.933 228.335 134.805 228.565C134.679 228.795 134.617 229.062 134.617 229.365V233.506H133.309ZM144.191 233.506V226.79H145.499V233.506H144.191ZM144.851 225.754C144.624 225.754 144.429 225.678 144.266 225.526C144.105 225.372 144.025 225.188 144.025 224.975C144.025 224.76 144.105 224.576 144.266 224.424C144.429 224.27 144.624 224.193 144.851 224.193C145.079 224.193 145.273 224.27 145.433 224.424C145.596 224.576 145.678 224.76 145.678 224.975C145.678 225.188 145.596 225.372 145.433 225.526C145.273 225.678 145.079 225.754 144.851 225.754ZM150.392 226.79V227.839H146.724V226.79H150.392ZM147.708 225.181H149.015V231.534C149.015 231.788 149.053 231.978 149.129 232.107C149.204 232.232 149.302 232.318 149.422 232.365C149.544 232.408 149.677 232.43 149.82 232.43C149.924 232.43 150.016 232.423 150.095 232.408C150.174 232.394 150.235 232.382 150.279 232.373L150.515 233.453C150.439 233.483 150.331 233.512 150.191 233.541C150.051 233.573 149.876 233.59 149.666 233.593C149.323 233.599 149.002 233.538 148.705 233.41C148.407 233.281 148.167 233.083 147.983 232.815C147.799 232.547 147.708 232.21 147.708 231.805V225.181ZM152.7 233.589C152.461 233.589 152.255 233.504 152.083 233.335C151.911 233.163 151.825 232.956 151.825 232.714C151.825 232.475 151.911 232.271 152.083 232.102C152.255 231.93 152.461 231.844 152.7 231.844C152.939 231.844 153.144 231.93 153.316 232.102C153.488 232.271 153.574 232.475 153.574 232.714C153.574 232.875 153.533 233.022 153.452 233.156C153.373 233.287 153.268 233.392 153.137 233.471C153.006 233.55 152.86 233.589 152.7 233.589ZM155.325 233.506V226.79H156.633V233.506H155.325ZM155.986 225.754C155.758 225.754 155.563 225.678 155.4 225.526C155.239 225.372 155.159 225.188 155.159 224.975C155.159 224.76 155.239 224.576 155.4 224.424C155.563 224.27 155.758 224.193 155.986 224.193C156.213 224.193 156.407 224.27 156.567 224.424C156.73 224.576 156.812 224.76 156.812 224.975C156.812 225.188 156.73 225.372 156.567 225.526C156.407 225.678 156.213 225.754 155.986 225.754ZM161.22 233.641C160.591 233.641 160.041 233.497 159.572 233.209C159.103 232.92 158.738 232.516 158.479 231.997C158.22 231.479 158.09 230.872 158.09 230.178C158.09 229.482 158.22 228.873 158.479 228.351C158.738 227.829 159.103 227.424 159.572 227.135C160.041 226.847 160.591 226.702 161.22 226.702C161.85 226.702 162.4 226.847 162.869 227.135C163.338 227.424 163.702 227.829 163.962 228.351C164.221 228.873 164.351 229.482 164.351 230.178C164.351 230.872 164.221 231.479 163.962 231.997C163.702 232.516 163.338 232.92 162.869 233.209C162.4 233.497 161.85 233.641 161.22 233.641ZM161.225 232.544C161.633 232.544 161.971 232.436 162.239 232.22C162.507 232.005 162.706 231.718 162.834 231.359C162.965 231 163.031 230.606 163.031 230.174C163.031 229.746 162.965 229.352 162.834 228.994C162.706 228.632 162.507 228.342 162.239 228.123C161.971 227.905 161.633 227.796 161.225 227.796C160.814 227.796 160.473 227.905 160.202 228.123C159.934 228.342 159.734 228.632 159.603 228.994C159.474 229.352 159.41 229.746 159.41 230.174C159.41 230.606 159.474 231 159.603 231.359C159.734 231.718 159.934 232.005 160.202 232.22C160.473 232.436 160.814 232.544 161.225 232.544Z" fill="#F9EDE7"/>
</g>
<rect x="1" y="1.83887" width="482" height="248" rx="11" stroke="#57433C" stroke-width="2"/>
<defs>
<linearGradient id="paint0_linear_12005_522" x1="17.7972" y1="228.007" x2="31.3245" y2="237.21" gradientUnits="userSpaceOnUse">
<stop stop-color="#606060"/>
<stop offset="1" stop-color="#787878"/>
</linearGradient>
<clipPath id="clip0_12005_522">
<rect x="2" y="2.83887" width="480" height="246" rx="10" fill="white"/>
</clipPath>
<clipPath id="clip1_12005_522">
<rect x="16.0625" y="62.1846" width="352.979" height="35.9657" rx="3.59671" fill="white"/>
</clipPath>
<clipPath id="clip2_12005_522">
<rect width="18.4878" height="18.4878" fill="white" transform="translate(15.6016 219.3)"/>
</clipPath>
</defs>
</svg>
