<svg width="140" height="33" viewBox="0 0 140 33" fill="none" xmlns="http://www.w3.org/2000/svg">
<rect x="1.33333" y="3.83333" width="25.3333" height="25.3333" rx="4.5117" fill="#006ADC" stroke="#D1B9B0" stroke-width="1.33333"/>
<path d="M42.8722 21L44.5426 10.8182H45.5369L43.8665 21H42.8722ZM38.2386 18.1761L38.3977 17.1818H45.9943L45.8352 18.1761H38.2386ZM39.2926 21L40.9631 10.8182H41.9574L40.2869 21H39.2926ZM38.8352 14.6364L38.9943 13.642H46.5909L46.4318 14.6364H38.8352ZM55.1445 21.1392C54.3955 21.1392 53.7575 20.9354 53.2305 20.5277C52.7035 20.1167 52.3008 19.5218 52.0224 18.7429C51.744 17.9607 51.6048 17.0161 51.6048 15.9091C51.6048 14.8087 51.744 13.8691 52.0224 13.0902C52.3041 12.308 52.7085 11.7114 53.2354 11.3004C53.7657 10.8861 54.4021 10.679 55.1445 10.679C55.887 10.679 56.5217 10.8861 57.0487 11.3004C57.579 11.7114 57.9833 12.308 58.2617 13.0902C58.5434 13.8691 58.6843 14.8087 58.6843 15.9091C58.6843 17.0161 58.5451 17.9607 58.2667 18.7429C57.9883 19.5218 57.5856 20.1167 57.0586 20.5277C56.5316 20.9354 55.8936 21.1392 55.1445 21.1392ZM55.1445 20.0455C55.887 20.0455 56.4637 19.6875 56.8746 18.9716C57.2856 18.2557 57.4911 17.2348 57.4911 15.9091C57.4911 15.0275 57.3967 14.2768 57.2077 13.657C57.0221 13.0372 56.7537 12.5649 56.4023 12.2401C56.0543 11.9152 55.6351 11.7528 55.1445 11.7528C54.4087 11.7528 53.8337 12.1158 53.4194 12.8416C53.0051 13.5642 52.7979 14.5866 52.7979 15.9091C52.7979 16.7907 52.8907 17.5398 53.0763 18.1562C53.262 18.7727 53.5288 19.2417 53.8768 19.5632C54.2281 19.8847 54.6507 20.0455 55.1445 20.0455ZM63.8945 21.1392C63.1455 21.1392 62.5075 20.9354 61.9805 20.5277C61.4535 20.1167 61.0508 19.5218 60.7724 18.7429C60.494 17.9607 60.3548 17.0161 60.3548 15.9091C60.3548 14.8087 60.494 13.8691 60.7724 13.0902C61.0541 12.308 61.4585 11.7114 61.9854 11.3004C62.5157 10.8861 63.1521 10.679 63.8945 10.679C64.637 10.679 65.2717 10.8861 65.7987 11.3004C66.329 11.7114 66.7333 12.308 67.0117 13.0902C67.2934 13.8691 67.4343 14.8087 67.4343 15.9091C67.4343 17.0161 67.2951 17.9607 67.0167 18.7429C66.7383 19.5218 66.3356 20.1167 65.8086 20.5277C65.2816 20.9354 64.6436 21.1392 63.8945 21.1392ZM63.8945 20.0455C64.637 20.0455 65.2137 19.6875 65.6246 18.9716C66.0356 18.2557 66.2411 17.2348 66.2411 15.9091C66.2411 15.0275 66.1467 14.2768 65.9577 13.657C65.7721 13.0372 65.5037 12.5649 65.1523 12.2401C64.8043 11.9152 64.3851 11.7528 63.8945 11.7528C63.1587 11.7528 62.5837 12.1158 62.1694 12.8416C61.7551 13.5642 61.5479 14.5866 61.5479 15.9091C61.5479 16.7907 61.6407 17.5398 61.8263 18.1562C62.012 18.7727 62.2788 19.2417 62.6268 19.5632C62.9781 19.8847 63.4007 20.0455 63.8945 20.0455ZM72.7042 21.1392C72.2866 21.1326 71.869 21.053 71.4513 20.9006C71.0337 20.7481 70.6526 20.4912 70.3079 20.13C69.9632 19.7654 69.6864 19.2732 69.4776 18.6534C69.2688 18.0303 69.1644 17.2481 69.1644 16.3068C69.1644 15.4053 69.2489 14.6065 69.418 13.9105C69.587 13.2112 69.8323 12.6229 70.1538 12.1456C70.4753 11.665 70.863 11.3004 71.3171 11.0518C71.7745 10.8033 72.2899 10.679 72.8633 10.679C73.4334 10.679 73.9405 10.7933 74.3846 11.022C74.832 11.2474 75.1966 11.5623 75.4783 11.9666C75.7601 12.371 75.9424 12.8366 76.0252 13.3636H74.8121C74.6995 12.9062 74.4807 12.5268 74.1559 12.2251C73.8311 11.9235 73.4002 11.7727 72.8633 11.7727C72.0745 11.7727 71.453 12.1158 70.9989 12.8018C70.5482 13.4879 70.3211 14.4508 70.3178 15.6903H70.3974C70.583 15.4086 70.8034 15.1683 71.0586 14.9695C71.3171 14.7673 71.6022 14.6115 71.9137 14.5021C72.2253 14.3928 72.555 14.3381 72.9031 14.3381C73.4864 14.3381 74.02 14.4839 74.5039 14.7756C74.9878 15.0639 75.3756 15.4633 75.6673 15.9737C75.9589 16.4808 76.1048 17.0625 76.1048 17.7188C76.1048 18.3485 75.9639 18.9252 75.6822 19.4489C75.4004 19.9692 75.0044 20.3835 74.494 20.6918C73.9869 20.9967 73.3903 21.1458 72.7042 21.1392ZM72.7042 20.0455C73.1218 20.0455 73.4963 19.9411 73.8278 19.7322C74.1625 19.5234 74.426 19.2434 74.6183 18.892C74.8138 18.5407 74.9116 18.1496 74.9116 17.7188C74.9116 17.2978 74.8171 16.915 74.6282 16.5703C74.4426 16.2223 74.1857 15.9455 73.8576 15.7401C73.5328 15.5346 73.1616 15.4318 72.744 15.4318C72.4291 15.4318 72.1358 15.4948 71.864 15.6207C71.5922 15.7434 71.3536 15.9124 71.1481 16.1278C70.9459 16.3433 70.7868 16.5902 70.6708 16.8686C70.5548 17.1437 70.4968 17.4337 70.4968 17.7386C70.4968 18.143 70.5913 18.5208 70.7802 18.8722C70.9724 19.2235 71.2343 19.5069 71.5657 19.7223C71.9004 19.9377 72.2799 20.0455 72.7042 20.0455ZM78.6564 21H77.3638L81.1025 10.8182H82.3752L86.1138 21H84.8212L81.7786 12.429H81.699L78.6564 21ZM79.1337 17.0227H84.3439V18.1165H79.1337V17.0227ZM90.8418 21H87.6998V10.8182H90.981C91.9687 10.8182 92.8139 11.022 93.5165 11.4297C94.2192 11.834 94.7578 12.4157 95.1323 13.1747C95.5068 13.9304 95.6941 14.8352 95.6941 15.8892C95.6941 16.9498 95.5051 17.8629 95.1273 18.6286C94.7495 19.3909 94.1993 19.9775 93.4767 20.3885C92.7542 20.7962 91.8759 21 90.8418 21ZM88.9327 19.9062H90.7623C91.6041 19.9062 92.3018 19.7438 92.8553 19.419C93.4088 19.0942 93.8214 18.6319 94.0932 18.032C94.365 17.4321 94.5009 16.7178 94.5009 15.8892C94.5009 15.0672 94.3667 14.3596 94.0982 13.7663C93.8297 13.1697 93.4287 12.7124 92.8951 12.3942C92.3614 12.0727 91.6969 11.9119 90.9015 11.9119H88.9327V19.9062ZM105.955 14H104.722C104.65 13.6454 104.522 13.3338 104.34 13.0653C104.161 12.7969 103.942 12.5715 103.683 12.3892C103.428 12.2036 103.145 12.0644 102.833 11.9716C102.522 11.8788 102.197 11.8324 101.859 11.8324C101.242 11.8324 100.684 11.9882 100.183 12.2997C99.6863 12.6113 99.2902 13.0703 98.9952 13.6768C98.7035 14.2834 98.5577 15.0275 98.5577 15.9091C98.5577 16.7907 98.7035 17.5348 98.9952 18.1413C99.2902 18.7479 99.6863 19.2069 100.183 19.5185C100.684 19.83 101.242 19.9858 101.859 19.9858C102.197 19.9858 102.522 19.9394 102.833 19.8466C103.145 19.7538 103.428 19.6162 103.683 19.4339C103.942 19.2483 104.161 19.0213 104.34 18.7528C104.522 18.4811 104.65 18.1695 104.722 17.8182H105.955C105.863 18.3385 105.694 18.8042 105.448 19.2152C105.203 19.6262 104.898 19.9759 104.534 20.2642C104.169 20.5492 103.76 20.7663 103.306 20.9155C102.855 21.0646 102.373 21.1392 101.859 21.1392C100.99 21.1392 100.218 20.9271 99.5421 20.5028C98.8659 20.0786 98.334 19.4754 97.9462 18.6932C97.5584 17.911 97.3645 16.983 97.3645 15.9091C97.3645 14.8352 97.5584 13.9072 97.9462 13.125C98.334 12.3428 98.8659 11.7396 99.5421 11.3153C100.218 10.8911 100.99 10.679 101.859 10.679C102.373 10.679 102.855 10.7536 103.306 10.9027C103.76 11.0518 104.169 11.2706 104.534 11.5589C104.898 11.844 105.203 12.192 105.448 12.603C105.694 13.0107 105.863 13.4763 105.955 14Z" fill="#451E11"/>
<rect width="102" height="1" transform="translate(38 28)" fill="#846358"/>
</svg>
