<svg width="259" height="251" viewBox="0 0 259 251" fill="none" xmlns="http://www.w3.org/2000/svg">
<g clip-path="url(#clip0_30037_67295)">
<path d="M122.915 217.648C122.915 217.648 100.495 222.108 85.9652 211.838C85.9652 211.838 85.4552 211.588 84.5952 211.208C79.8752 213.518 76.9252 215.898 76.9252 215.898C76.9252 215.898 76.2252 214.818 75.5652 215.038C74.9052 215.268 74.3952 217.198 74.3952 217.198C74.3952 217.198 72.9652 215.798 72.2552 216.168C71.5452 216.538 71.7252 220.228 71.7252 220.228C68.9352 223.448 68.5452 228.438 68.5652 231.218C76.1552 234.038 87.5952 234.528 101.605 235.318C130.465 236.948 129.055 226.938 122.915 217.648Z" fill="#F57100"/>
<path d="M44.6552 175.257C12.6052 185.227 1.56519 145.367 2.10519 143.477C2.64519 141.587 6.01519 143.477 6.01519 143.477C6.01519 143.477 4.26519 110.347 15.9852 103.077C19.8952 100.387 19.3552 106.447 19.3552 106.447C19.3552 106.447 30.8052 89.4775 52.8852 88.8075C74.9752 88.1375 73.3552 95.0075 73.3552 95.0075C73.3552 95.0075 82.3752 96.7575 93.9652 106.997C105.545 117.237 95.9852 115.887 95.9852 115.887C95.9852 115.887 105.955 123.837 101.105 138.647C96.2552 153.457 44.6752 175.277 44.6752 175.277L44.6552 175.257Z" fill="#FF923F"/>
<path d="M92.3354 127.588C92.3354 127.588 86.6754 122.338 84.6554 123.008C82.6354 123.678 86.8054 129.208 86.8054 129.208C74.5454 128.808 62.5654 137.288 62.5654 137.288C62.5654 137.288 55.6954 129.478 45.8654 137.288C36.0354 145.098 50.9854 156.278 50.9854 156.278C50.9854 156.278 53.0754 164.138 55.0554 170.568C70.3854 163.338 97.6254 149.208 101.085 138.638C102.475 134.378 102.645 130.688 102.175 127.588C97.8254 126.748 92.3254 127.588 92.3254 127.588H92.3354Z" fill="#F57100"/>
<path d="M69.6352 90.6975C66.7652 89.4675 61.7252 88.5275 52.8752 88.7975C30.7852 89.4675 19.3452 106.438 19.3452 106.438C19.3452 106.438 19.8852 100.378 15.9752 103.068C4.25523 110.338 6.00523 143.468 6.00523 143.468C6.00523 143.468 2.63523 141.578 2.09523 143.468C1.67523 144.918 8.15523 168.968 25.8452 175.318C17.7452 169.308 11.3852 151.448 13.9152 149.938C16.4452 148.418 19.0652 150.548 19.0652 150.548C19.0652 150.548 16.1352 131.758 17.2452 130.348C18.3552 128.938 19.1652 130.348 19.1652 130.348C19.1652 130.348 19.9752 117.118 24.0152 111.158C28.0552 105.198 31.1852 104.388 31.0852 106.308C31.0852 106.308 45.8552 88.9275 69.6352 90.6975Z" fill="white"/>
<path d="M133.275 121.887C136.035 124.697 130.585 131.357 130.585 131.357C130.585 131.357 126.735 131.527 125.335 132.037C123.295 132.787 125.465 135.187 125.465 135.187C125.465 135.187 79.9452 123.547 49.7752 151.287C28.5652 170.797 27.2352 204.047 28.8852 222.027C29.9552 233.707 52.4352 238.977 80.7452 240.967C87.6952 241.457 69.6352 226.997 98.0452 226.617C135.665 226.107 119.635 242.007 128.135 241.837C153.735 241.317 177.605 239.627 190.195 238.657C225.435 235.957 240.315 213.117 239.125 184.427C241.015 160.727 232.255 122.477 232.255 122.477C232.255 122.477 233.125 125.487 225.205 131.627C217.285 137.767 152.675 158.067 133.265 121.897L133.275 121.887Z" fill="#FF923F"/>
<path d="M113.985 190.008C113.985 190.008 84.3652 243.068 113.985 246.328C143.605 249.588 180.615 250.678 182.785 241.728C185.455 230.718 182.015 220.548 149.175 212.848C127.445 207.748 127.675 211.338 127.675 211.338" fill="#FF923F"/>
<path d="M149.185 212.848C148.715 212.738 148.265 212.638 147.815 212.528C144.805 217.338 141.785 224.178 142.175 231.978C142.175 231.978 136.955 230.978 135.955 233.368C134.955 235.758 140.535 238.948 140.535 238.948C140.535 238.948 136.315 240.638 135.835 241.978C135.355 243.328 140.335 245.118 140.335 245.118L140.575 248.408C162.135 249.358 181.255 248.068 182.795 241.718C185.465 230.708 182.025 220.538 149.185 212.838V212.848Z" fill="white"/>
<path d="M238.785 163.958C238.785 163.958 274.825 239.068 245.205 242.328C215.585 245.588 178.575 246.678 176.405 237.728C173.735 226.718 177.175 216.548 210.015 208.848C231.745 203.748 231.515 207.338 231.515 207.338" fill="#FF923F"/>
<path d="M210.015 208.848C210.485 208.738 210.935 208.638 211.385 208.528C214.395 213.338 217.415 220.178 217.025 227.978C217.025 227.978 222.245 226.978 223.245 229.368C224.245 231.758 218.665 234.948 218.665 234.948C218.665 234.948 222.885 236.638 223.365 237.978C223.845 239.328 218.865 241.118 218.865 241.118L218.625 244.408C197.065 245.358 177.945 244.068 176.405 237.718C173.735 226.708 177.175 216.538 210.015 208.838V208.848Z" fill="white"/>
<path d="M28.3854 212.537C21.3054 233.907 39.1154 236.587 67.5154 241.987C95.9154 247.387 95.8254 237.277 90.9554 227.257C90.9554 227.257 68.1454 228.737 55.0854 216.657C55.0854 216.657 33.0754 201.977 28.3854 212.537Z" fill="#FF923F"/>
<path d="M90.9552 227.257C90.9552 227.257 68.1452 228.737 55.0852 216.657C55.0852 216.657 54.6152 216.347 53.8052 215.847C48.8252 217.517 45.5952 219.497 45.5952 219.497C45.5952 219.497 45.0452 218.327 44.3552 218.467C43.6652 218.607 42.9152 220.457 42.9152 220.457C42.9152 220.457 41.6752 218.877 40.9252 219.157C40.1752 219.427 39.8652 223.117 39.8652 223.117C36.6752 225.937 35.6352 230.847 35.2852 233.597C42.4452 237.387 53.7252 239.367 67.5052 241.987C95.9052 247.387 95.8152 237.277 90.9452 227.257H90.9552Z" fill="white"/>
<path d="M160.415 2.75757C169.975 2.75757 178.885 5.73757 183.135 9.25757C193.375 17.7276 186.555 34.3276 186.555 34.3276C186.555 34.3276 190.345 31.0076 199.125 30.9276C199.125 30.9276 199.095 31.2276 199.055 31.7276C199.615 28.7776 200.465 26.4476 201.785 25.9976C202.005 25.9276 202.235 25.8876 202.485 25.8876C207.005 25.8876 216.675 37.7576 224.715 51.3476C233.195 65.6876 242.695 95.8676 242.695 96.7976C242.695 97.7376 242.055 98.5376 242.055 98.5376C242.055 98.5376 242.695 98.5376 242.895 99.5176C243.295 101.438 240.305 105.798 240.305 105.798C240.305 105.798 241.805 105.798 241.945 107.068C242.085 108.338 235.215 119.238 232.255 122.448C232.265 122.448 232.285 122.448 232.295 122.448C234.065 122.448 235.655 125.208 234.655 127.908C234.525 128.258 234.215 128.788 233.735 129.458C235.295 137.328 237.675 150.718 238.785 163.938C238.785 163.938 274.825 239.048 245.205 242.308C232.635 243.688 218.745 244.678 206.745 244.678C196.755 244.678 188.085 243.988 182.575 242.278C180.535 246.988 168.105 248.678 152.435 248.678C140.445 248.678 126.545 247.688 113.985 246.308C106.205 245.448 102.515 241.158 101.295 235.288C98.5451 235.138 95.8951 234.988 93.3551 234.838C93.7651 239.748 90.9051 243.468 80.9151 243.468C77.3851 243.468 72.9751 243.008 67.5051 241.968C39.1051 236.568 21.2951 233.888 28.3751 212.518C28.3751 212.518 28.3751 212.508 28.3851 212.498C28.2451 201.988 29.3951 189.058 33.6351 176.818C10.0251 175.878 1.61509 145.108 2.08509 143.458C2.26509 142.828 2.75509 142.618 3.33509 142.618C4.49509 142.618 5.98509 143.458 5.98509 143.458C5.98509 143.458 4.23509 110.328 15.9551 103.058C16.6651 102.568 17.2251 102.368 17.6751 102.368C19.6851 102.368 19.3251 106.428 19.3251 106.428C19.3251 106.428 30.7751 89.4576 52.8651 88.7876C53.8951 88.7576 54.8751 88.7376 55.8051 88.7376C74.7951 88.7376 73.3351 94.9776 73.3351 94.9776C73.3351 94.9776 82.3551 96.7276 93.9451 106.968C103.115 115.068 99.0351 115.918 96.9351 115.918C96.3851 115.918 95.9651 115.858 95.9651 115.858C95.9651 115.858 103.305 121.718 102.315 132.758C102.485 132.758 102.645 132.758 102.815 132.758C115.985 132.758 125.475 135.178 125.475 135.178C125.475 135.178 123.305 132.778 125.345 132.028C126.745 131.518 130.595 131.348 130.595 131.348C130.595 131.348 131.685 130.008 132.645 128.288C131.925 127.188 131.545 126.198 131.545 125.398C131.545 122.628 133.285 121.878 133.285 121.878C131.035 119.588 130.225 118.288 130.335 117.768C130.635 116.358 133.065 116.048 133.065 116.048C133.065 116.048 126.555 111.068 125.745 107.838C124.935 104.608 127.255 103.978 127.255 103.978C127.255 103.978 127.245 103.978 127.225 103.978C126.915 103.978 124.615 103.848 125.755 99.8276C126.315 97.5976 130.775 78.0176 139.395 58.8576C129.545 51.7076 123.865 40.5076 127.325 27.3076C132.215 8.64757 146.975 2.73757 160.435 2.73757M198.085 47.1876C198.085 47.1876 198.065 46.0176 198.085 44.2276C198.005 45.5276 197.955 46.5776 197.965 47.1676C198.005 47.1676 198.045 47.1676 198.085 47.1776M160.415 0.757568C151.935 0.757568 131.535 3.29757 125.365 26.8176C122.085 39.3176 126.295 51.1476 136.905 59.5076C131.825 71.0676 127.355 84.6076 123.935 98.7676L123.795 99.3276C123.205 101.408 123.305 103.078 124.075 104.288C123.565 105.298 123.355 106.648 123.785 108.338C124.395 110.788 127.185 113.668 129.355 115.598C128.875 116.068 128.515 116.648 128.365 117.358C128.145 118.368 128.465 119.528 130.495 121.848C129.945 122.708 129.525 123.888 129.525 125.408C129.525 126.288 129.785 127.248 130.305 128.278C130.025 128.718 129.755 129.108 129.535 129.408C128.175 129.498 125.855 129.708 124.635 130.158C123.155 130.698 122.685 131.778 122.535 132.368C122.525 132.418 122.515 132.468 122.505 132.518C118.795 131.828 112.355 130.888 104.395 130.778C104.415 124.498 101.985 119.958 99.9451 117.248C100.845 116.738 101.255 116.028 101.445 115.528C102.355 113.128 100.505 110.118 95.2551 105.478C85.9851 97.2876 78.2751 94.3376 75.1651 93.4076C74.9951 92.8376 74.6951 92.1876 74.1751 91.5276C71.6651 88.3576 65.4851 86.7476 55.8051 86.7476C54.8451 86.7476 53.8351 86.7676 52.7951 86.7976C36.0051 87.3076 25.1851 96.6776 20.4351 101.898C20.3351 101.738 20.2151 101.588 20.0851 101.448C19.4551 100.758 18.6051 100.388 17.6751 100.388C16.7851 100.388 15.8651 100.718 14.8651 101.408C9.48509 104.778 6.02509 112.978 4.59509 125.788C3.91509 131.828 3.86509 137.428 3.91509 140.678C3.72509 140.658 3.53509 140.638 3.34509 140.638C1.78509 140.638 0.575092 141.518 0.175092 142.928C-0.364908 144.818 2.60509 155.428 9.10509 164.398C15.0551 172.618 22.5651 177.488 30.9551 178.608C27.0551 191.068 26.2951 203.568 26.3951 212.188C24.1851 219.018 24.3251 224.418 26.8251 228.668C31.8951 237.278 45.6451 239.878 64.6751 243.488L67.1451 243.958C72.5251 244.978 77.1551 245.498 80.9351 245.498C86.8651 245.498 90.8851 244.258 93.2351 241.718C94.4251 240.428 95.1351 238.838 95.3451 236.988C96.6651 237.068 98.0051 237.138 99.3751 237.218L99.7251 237.238C101.595 243.698 106.425 247.528 113.785 248.328C127.765 249.868 141.495 250.708 152.455 250.708C163.415 250.708 178.825 250.038 183.465 244.628C188.785 246.008 196.615 246.708 206.765 246.708C217.725 246.708 231.455 245.858 245.445 244.328C250.375 243.788 254.015 241.448 256.275 237.378C266.555 218.868 243.145 168.448 240.765 163.438C239.695 150.988 237.555 138.508 235.875 129.928C236.185 129.438 236.415 129.008 236.545 128.638C237.315 126.568 237.045 124.218 235.855 122.498C235.705 122.278 235.535 122.068 235.355 121.878C236.875 119.888 238.615 117.278 239.975 115.128C244.135 108.528 244.025 107.498 243.955 106.888C243.875 106.148 243.585 105.538 243.165 105.068C244.185 103.268 245.245 100.878 244.875 99.1376C244.795 98.7576 244.675 98.4176 244.515 98.1276C244.635 97.7376 244.715 97.2976 244.715 96.8176C244.715 95.1176 234.855 64.5476 226.455 50.3576C224.855 47.6476 210.575 23.9176 202.505 23.9176C202.035 23.9176 201.585 23.9876 201.155 24.1376C199.575 24.6776 198.455 26.2076 197.655 29.0076C194.385 29.1676 191.795 29.7676 189.855 30.4476C191.265 24.4776 192.205 14.1876 184.415 7.73757C179.375 3.55757 169.735 0.757568 160.415 0.757568Z" fill="#442712"/>
<path d="M232.155 122.588C232.155 122.588 218.695 153.588 176.415 145.948C134.135 138.308 139.725 131.228 139.725 131.228C139.725 131.228 134.065 129.968 136.065 127.988C136.065 127.988 135.915 124.818 133.155 122.008C130.905 119.718 130.085 118.418 130.205 117.898C130.505 116.488 132.935 116.178 132.935 116.178C132.935 116.178 126.425 111.198 125.615 107.968C124.805 104.738 127.125 104.108 127.125 104.108C127.125 104.108 124.395 104.258 125.625 99.9575C126.565 96.1975 138.555 43.3775 162.795 26.0075C174.375 20.7675 170.335 48.2375 170.335 48.2375C170.335 48.2375 183.105 45.7075 197.945 47.3175C197.945 47.3175 197.535 27.5275 201.675 26.1175C205.815 24.7075 216.115 37.1275 224.605 51.4675C233.085 65.8075 242.585 95.9875 242.585 96.9175C242.585 97.8575 241.945 98.6575 241.945 98.6575C241.945 98.6575 242.585 98.6575 242.785 99.6375C243.185 101.558 240.195 105.918 240.195 105.918C240.195 105.918 241.695 105.918 241.835 107.188C241.975 108.458 235.105 119.358 232.145 122.568" fill="#FF923F"/>
<path d="M149.065 171.438C149.705 155.828 167.505 132.538 157.075 121.688L154.645 119.568C154.645 119.568 137.805 104.728 141.355 94.1776C144.915 83.5776 153.195 88.3976 155.835 89.1176C158.485 89.8376 163.115 91.2676 166.525 91.2176C172.845 91.1276 174.415 79.9876 173.175 74.9076C172.195 70.8976 163.285 72.5176 159.055 72.1176C154.825 71.7176 151.035 69.1976 151.125 64.0976C151.215 58.9976 154.825 59.3676 156.165 60.7176C157.505 62.0676 154.405 67.5176 162.735 66.9376C171.155 66.3576 177.335 66.2676 180.665 73.6776C180.665 73.6776 183.375 66.7776 189.055 66.5176C194.775 66.2576 204.685 67.6876 205.215 64.7676C205.745 61.8476 204.315 59.7276 207.435 59.3876C210.555 59.0476 211.785 66.9176 210.515 68.8976C209.245 70.8676 205.715 73.0076 199.035 72.1776C192.415 71.3576 188.555 71.6776 188.305 75.6176C188.055 79.5576 189.205 88.4476 193.205 90.2876C197.225 92.1376 205.425 89.7976 210.935 89.7176C216.485 89.6376 218.815 90.9376 221.035 95.1276C223.145 99.1176 217.185 117.398 204.815 123.578C201.135 125.418 198.955 129.258 199.155 133.388C199.715 145.378 206.525 162.848 204.295 180.228C198.845 202.038 180.825 211.978 173.785 212.528C166.745 213.078 147.905 199.288 149.045 171.438H149.065Z" fill="white"/>
<path d="M135.745 67.3774C140.495 71.1374 151.405 75.4274 173.805 66.6674L144.565 48.3674C141.155 54.5074 138.225 61.0674 135.745 67.3774Z" fill="#F57100"/>
<path d="M162.745 66.9375C154.415 67.5075 157.515 62.0575 156.175 60.7175C154.835 59.3675 151.225 58.9975 151.135 64.0975C151.065 67.9675 153.245 70.3475 156.145 71.4475C160.765 70.8675 166.235 69.5275 172.675 67.0875C169.855 66.5175 166.535 66.6775 162.755 66.9375H162.745Z" fill="#FFD8BB"/>
<path d="M133.155 122.008C133.155 122.008 131.415 122.758 131.415 125.528C131.415 131.658 153.325 148.518 185.655 148.558C218.585 148.598 233.405 131.128 234.545 128.058C235.555 125.328 233.935 122.558 232.155 122.598C229.595 122.658 218.835 140.638 184.745 140.638C150.655 140.638 135.075 120.208 133.165 122.018L133.155 122.008Z" fill="#8A52E6"/>
<path d="M162.835 77.5276C158.885 78.1476 159.065 85.1076 162.865 85.0876C166.665 85.0676 168.385 76.6476 162.835 77.5276Z" fill="#442712"/>
<path d="M174.725 83.2776C163.135 83.2776 160.775 87.3776 158.985 92.0876C157.425 96.1676 176.875 94.8976 176.875 94.8976C176.875 94.8976 202.255 92.2176 195.895 91.2676C185.785 89.7576 186.315 83.2876 174.725 83.2876V83.2776Z" fill="white"/>
<path d="M173.405 85.2976C181.435 85.2276 182.875 87.0676 181.645 89.0976C180.415 91.1276 175.085 95.9176 173.445 95.9276C171.795 95.9276 167.335 91.8476 165.685 89.8976C164.025 87.9376 163.775 85.3976 173.405 85.3076V85.2976Z" fill="#442712"/>
<path d="M145.335 113.397C145.335 113.397 157.325 101.307 193.005 102.517" stroke="#442712" stroke-width="3" stroke-miterlimit="10" stroke-linecap="round"/>
<path d="M173.805 96.9275C173.805 96.9275 173.925 102.817 178.075 102.817C182.225 102.817 183.105 100.697 183.475 97.3875C183.855 94.0775 173.805 96.9275 173.805 96.9275Z" fill="white"/>
<path d="M175.625 94.8976C173.455 95.9276 173.655 102.928 179.095 102.448C183.205 101.888 181.985 99.2476 183.605 99.2076C185.295 99.1676 184.485 103.878 179.315 104.528C174.155 105.178 173.455 101.798 173.455 101.798L173.425 93.0076L175.635 94.9076L175.625 94.8976Z" fill="#442712"/>
<path d="M171.245 94.9076C173.425 95.9176 173.275 102.918 167.835 102.488C163.715 101.958 164.925 99.3076 163.305 99.2876C161.615 99.2576 162.465 103.958 167.635 104.568C172.805 105.178 173.475 101.788 173.475 101.788L173.445 92.9976L171.255 94.9076H171.245Z" fill="#442712"/>
<path d="M192.035 102.098C195.605 95.8875 200.985 92.0575 209.085 93.5375C217.185 95.0175 208.465 102.818 208.465 102.818C208.465 102.818 213.755 107.028 213.915 112.978C214.075 118.928 202.975 113.398 202.975 113.398C202.975 113.398 202.805 121.578 196.915 121.188C191.025 120.798 189.315 106.848 192.035 102.108V102.098Z" fill="#8A52E6"/>
<path d="M194.785 102.818C194.785 102.818 200.995 96.7877 207.305 96.6877C213.615 96.5977 206.085 103.368 206.085 103.368C206.085 103.368 212.395 108.258 210.975 112.498C209.565 116.738 199.425 110.148 199.425 110.148C199.425 110.148 202.225 118.058 198.265 118.428C194.305 118.798 191.955 106.398 194.785 102.808V102.818Z" fill="#AD86EE"/>
<path d="M192.035 102.098C187.815 111.658 197.515 118.248 201.555 113.918C205.595 109.588 199.445 94.1476 192.035 102.098Z" fill="#8A52E6"/>
<path d="M203.375 105.298C203.938 105.298 204.395 104.841 204.395 104.278C204.395 103.714 203.938 103.258 203.375 103.258C202.812 103.258 202.355 103.714 202.355 104.278C202.355 104.841 202.812 105.298 203.375 105.298Z" fill="#8A52E6"/>
<path d="M204.185 108.228C204.748 108.228 205.205 107.771 205.205 107.207C205.205 106.644 204.748 106.188 204.185 106.188C203.622 106.188 203.165 106.644 203.165 107.207C203.165 107.771 203.622 108.228 204.185 108.228Z" fill="#8A52E6"/>
<path d="M194.985 84.7577C194.985 84.7577 198.585 81.5177 203.865 81.7977" stroke="#442712" stroke-width="3" stroke-miterlimit="10" stroke-linecap="round"/>
<path d="M168.005 77.9076L154.955 79.5776L156.145 72.5376L169.375 74.3876" fill="#FF923F"/>
<path d="M203.735 47.9275C202.685 37.2275 201.975 31.7775 205.005 32.7675C208.025 33.7675 216.065 48.1775 213.845 49.7075C211.625 51.2275 203.745 49.8475 203.735 47.9275Z" fill="#F57100"/>
<path d="M165.975 48.0777C166.935 37.3677 167.605 31.9077 164.595 32.9277C161.585 33.9477 153.655 48.4277 155.885 49.9277C158.115 51.4277 165.985 49.9877 165.975 48.0677V48.0777Z" fill="#F57100"/>
<path d="M177.135 168.238C184.298 168.238 190.105 162.61 190.105 155.668C190.105 148.725 184.298 143.098 177.135 143.098C169.972 143.098 164.165 148.725 164.165 155.668C164.165 162.61 169.972 168.238 177.135 168.238Z" fill="#8A52E6"/>
<path d="M184.435 153.598L176.065 161.968C175.435 162.598 174.425 162.598 173.795 161.968L168.385 156.558C167.995 156.168 167.995 155.528 168.385 155.138L169.635 153.888C170.025 153.498 170.665 153.498 171.055 153.888L174.925 157.758L181.755 150.928C182.145 150.538 182.785 150.538 183.175 150.928L184.425 152.178C184.815 152.568 184.815 153.208 184.425 153.598H184.435Z" fill="white"/>
<path d="M194.875 56.9776C166.935 80.7576 118.675 60.2576 127.305 27.3276C135.665 -4.58242 172.895 0.787582 183.135 9.25758C193.375 17.7276 186.555 34.3376 186.555 34.3376C186.555 34.3376 190.345 31.0176 199.125 30.9376C199.125 30.9376 197.855 44.8176 197.935 47.3376L194.865 56.9776H194.875Z" fill="#FF923F"/>
<path d="M183.585 40.2876C180.735 50.8176 167.325 55.0476 157.915 50.5176C148.755 46.7376 144.115 35.5376 147.715 26.3276C151.235 16.3676 163.075 11.6776 171.815 17.8376C177.485 21.5376 179.075 30.5276 173.495 34.8376L172.675 34.2676C173.535 30.9276 172.435 28.0276 170.725 26.4976C169.155 25.0576 166.735 24.5076 164.735 24.8676C160.615 25.4976 158.675 29.4076 158.815 33.1176C158.935 37.4776 162.385 40.7876 166.305 42.2576C170.875 43.9976 176.915 43.6976 182.765 39.7176L183.585 40.2876Z" fill="#F57100"/>
</g>
<defs>
<clipPath id="clip0_30037_67295">
<rect width="258.74" height="249.94" fill="white" transform="translate(0.115234 0.757568)"/>
</clipPath>
</defs>
</svg>
