<svg width="467" height="246" viewBox="0 0 467 246" fill="none" xmlns="http://www.w3.org/2000/svg">
<rect x="0.85498" y="0.5271" width="466" height="245" rx="8" fill="#D5D5D5"/>
<path d="M175.109 119.995C175.109 120.966 174.875 121.876 174.407 122.725C173.956 123.574 173.237 124.259 172.249 124.779C171.278 125.299 170.047 125.559 168.557 125.559H165.515V132.527H161.875V114.379H168.557C169.961 114.379 171.157 114.622 172.145 115.107C173.133 115.592 173.869 116.26 174.355 117.109C174.857 117.958 175.109 118.92 175.109 119.995ZM168.401 122.621C169.406 122.621 170.151 122.396 170.637 121.945C171.122 121.477 171.365 120.827 171.365 119.995C171.365 118.227 170.377 117.343 168.401 117.343H165.515V122.621H168.401ZM180.333 113.287V132.527H176.693V113.287H180.333ZM181.993 125.273C181.993 123.817 182.279 122.526 182.851 121.399C183.441 120.272 184.229 119.406 185.217 118.799C186.223 118.192 187.341 117.889 188.571 117.889C189.646 117.889 190.582 118.106 191.379 118.539C192.194 118.972 192.844 119.518 193.329 120.177V118.123H196.995V132.527H193.329V130.421C192.861 131.097 192.211 131.66 191.379 132.111C190.565 132.544 189.62 132.761 188.545 132.761C187.332 132.761 186.223 132.449 185.217 131.825C184.229 131.201 183.441 130.326 182.851 129.199C182.279 128.055 181.993 126.746 181.993 125.273ZM193.329 125.325C193.329 124.441 193.156 123.687 192.809 123.063C192.463 122.422 191.995 121.936 191.405 121.607C190.816 121.26 190.183 121.087 189.507 121.087C188.831 121.087 188.207 121.252 187.635 121.581C187.063 121.91 186.595 122.396 186.231 123.037C185.885 123.661 185.711 124.406 185.711 125.273C185.711 126.14 185.885 126.902 186.231 127.561C186.595 128.202 187.063 128.696 187.635 129.043C188.225 129.39 188.849 129.563 189.507 129.563C190.183 129.563 190.816 129.398 191.405 129.069C191.995 128.722 192.463 128.237 192.809 127.613C193.156 126.972 193.329 126.209 193.329 125.325ZM198.614 125.325C198.614 123.834 198.918 122.534 199.524 121.425C200.131 120.298 200.972 119.432 202.046 118.825C203.121 118.201 204.352 117.889 205.738 117.889C207.524 117.889 208.997 118.34 210.158 119.241C211.337 120.125 212.126 121.373 212.524 122.985H208.598C208.39 122.361 208.035 121.876 207.532 121.529C207.047 121.165 206.44 120.983 205.712 120.983C204.672 120.983 203.849 121.364 203.242 122.127C202.636 122.872 202.332 123.938 202.332 125.325C202.332 126.694 202.636 127.76 203.242 128.523C203.849 129.268 204.672 129.641 205.712 129.641C207.186 129.641 208.148 128.982 208.598 127.665H212.524C212.126 129.225 211.337 130.464 210.158 131.383C208.98 132.302 207.506 132.761 205.738 132.761C204.352 132.761 203.121 132.458 202.046 131.851C200.972 131.227 200.131 130.36 199.524 129.251C198.918 128.124 198.614 126.816 198.614 125.325ZM227.581 125.013C227.581 125.533 227.546 126.001 227.477 126.417H216.947C217.034 127.457 217.398 128.272 218.039 128.861C218.68 129.45 219.469 129.745 220.405 129.745C221.757 129.745 222.719 129.164 223.291 128.003H227.217C226.801 129.39 226.004 130.534 224.825 131.435C223.646 132.319 222.199 132.761 220.483 132.761C219.096 132.761 217.848 132.458 216.739 131.851C215.647 131.227 214.789 130.352 214.165 129.225C213.558 128.098 213.255 126.798 213.255 125.325C213.255 123.834 213.558 122.526 214.165 121.399C214.772 120.272 215.621 119.406 216.713 118.799C217.805 118.192 219.062 117.889 220.483 117.889C221.852 117.889 223.074 118.184 224.149 118.773C225.241 119.362 226.082 120.203 226.671 121.295C227.278 122.37 227.581 123.609 227.581 125.013ZM223.811 123.973C223.794 123.037 223.456 122.292 222.797 121.737C222.138 121.165 221.332 120.879 220.379 120.879C219.478 120.879 218.715 121.156 218.091 121.711C217.484 122.248 217.112 123.002 216.973 123.973H223.811ZM237.35 117.915C238.442 117.915 239.413 118.158 240.262 118.643C241.111 119.111 241.77 119.813 242.238 120.749C242.723 121.668 242.966 122.777 242.966 124.077V132.527H239.326V124.571C239.326 123.427 239.04 122.552 238.468 121.945C237.896 121.321 237.116 121.009 236.128 121.009C235.123 121.009 234.325 121.321 233.736 121.945C233.164 122.552 232.878 123.427 232.878 124.571V132.527H229.238V113.287H232.878V119.917C233.346 119.293 233.97 118.808 234.75 118.461C235.53 118.097 236.397 117.915 237.35 117.915ZM251.823 132.761C250.437 132.761 249.189 132.458 248.079 131.851C246.97 131.227 246.095 130.352 245.453 129.225C244.829 128.098 244.517 126.798 244.517 125.325C244.517 123.852 244.838 122.552 245.479 121.425C246.138 120.298 247.031 119.432 248.157 118.825C249.284 118.201 250.541 117.889 251.927 117.889C253.314 117.889 254.571 118.201 255.697 118.825C256.824 119.432 257.708 120.298 258.349 121.425C259.008 122.552 259.337 123.852 259.337 125.325C259.337 126.798 258.999 128.098 258.323 129.225C257.665 130.352 256.763 131.227 255.619 131.851C254.493 132.458 253.227 132.761 251.823 132.761ZM251.823 129.589C252.482 129.589 253.097 129.433 253.669 129.121C254.259 128.792 254.727 128.306 255.073 127.665C255.42 127.024 255.593 126.244 255.593 125.325C255.593 123.956 255.229 122.907 254.501 122.179C253.791 121.434 252.915 121.061 251.875 121.061C250.835 121.061 249.96 121.434 249.249 122.179C248.556 122.907 248.209 123.956 248.209 125.325C248.209 126.694 248.547 127.752 249.223 128.497C249.917 129.225 250.783 129.589 251.823 129.589ZM264.647 113.287V132.527H261.007V113.287H264.647ZM266.308 125.273C266.308 123.817 266.594 122.526 267.166 121.399C267.755 120.272 268.552 119.406 269.558 118.799C270.563 118.192 271.681 117.889 272.912 117.889C273.848 117.889 274.74 118.097 275.59 118.513C276.439 118.912 277.115 119.449 277.618 120.125V113.287H281.31V132.527H277.618V130.395C277.167 131.106 276.534 131.678 275.72 132.111C274.905 132.544 273.96 132.761 272.886 132.761C271.672 132.761 270.563 132.449 269.558 131.825C268.552 131.201 267.755 130.326 267.166 129.199C266.594 128.055 266.308 126.746 266.308 125.273ZM277.644 125.325C277.644 124.441 277.47 123.687 277.124 123.063C276.777 122.422 276.309 121.936 275.72 121.607C275.13 121.26 274.498 121.087 273.822 121.087C273.146 121.087 272.522 121.252 271.95 121.581C271.378 121.91 270.91 122.396 270.546 123.037C270.199 123.661 270.026 124.406 270.026 125.273C270.026 126.14 270.199 126.902 270.546 127.561C270.91 128.202 271.378 128.696 271.95 129.043C272.539 129.39 273.163 129.563 273.822 129.563C274.498 129.563 275.13 129.398 275.72 129.069C276.309 128.722 276.777 128.237 277.124 127.613C277.47 126.972 277.644 126.209 277.644 125.325ZM297.255 125.013C297.255 125.533 297.22 126.001 297.151 126.417H286.621C286.707 127.457 287.071 128.272 287.713 128.861C288.354 129.45 289.143 129.745 290.079 129.745C291.431 129.745 292.393 129.164 292.965 128.003H296.891C296.475 129.39 295.677 130.534 294.499 131.435C293.32 132.319 291.873 132.761 290.157 132.761C288.77 132.761 287.522 132.458 286.413 131.851C285.321 131.227 284.463 130.352 283.839 129.225C283.232 128.098 282.929 126.798 282.929 125.325C282.929 123.834 283.232 122.526 283.839 121.399C284.445 120.272 285.295 119.406 286.387 118.799C287.479 118.192 288.735 117.889 290.157 117.889C291.526 117.889 292.748 118.184 293.823 118.773C294.915 119.362 295.755 120.203 296.345 121.295C296.951 122.37 297.255 123.609 297.255 125.013ZM293.485 123.973C293.467 123.037 293.129 122.292 292.471 121.737C291.812 121.165 291.006 120.879 290.053 120.879C289.151 120.879 288.389 121.156 287.765 121.711C287.158 122.248 286.785 123.002 286.647 123.973H293.485ZM302.552 120.359C303.02 119.596 303.626 118.998 304.372 118.565C305.134 118.132 306.001 117.915 306.972 117.915V121.737H306.01C304.866 121.737 303.999 122.006 303.41 122.543C302.838 123.08 302.552 124.016 302.552 125.351V132.527H298.912V118.123H302.552V120.359Z" fill="black" fill-opacity="0.5"/>
</svg>
