<svg width="48" height="24" viewBox="0 0 48 24" fill="none" xmlns="http://www.w3.org/2000/svg">
<rect width="48" height="24" rx="12" fill="#BFA094"/>
<path d="M13.5878 5.3457C12.6111 6.25825 12.0007 7.55773 12.0007 8.99979C12.0007 11.7612 14.2393 13.9998 17.0007 13.9998C18.4427 13.9998 19.7422 13.3893 20.6547 12.4127C20.4415 15.9023 17.5439 18.6665 14.0007 18.6665C10.3188 18.6665 7.33398 15.6817 7.33398 11.9998C7.33398 8.45656 10.0982 5.55892 13.5878 5.3457Z" fill="#FDFCFC"/>
<path d="M33.9994 16.0003C31.7902 16.0003 29.9993 14.2095 29.9993 12.0003C29.9993 9.79119 31.7902 8.00033 33.9994 8.00033C36.2085 8.00033 37.9994 9.79119 37.9994 12.0003C37.9994 14.2095 36.2085 16.0003 33.9994 16.0003ZM33.3327 4.66699H34.666V6.66699H33.3327V4.66699ZM33.3327 17.3337H34.666V19.3337H33.3327V17.3337ZM28.3425 7.28628L29.2853 6.34347L30.6995 7.75769L29.7567 8.70049L28.3425 7.28628ZM37.2992 16.243L38.242 15.3001L39.6562 16.7144L38.7134 17.6572L37.2992 16.243ZM38.7134 6.34347L39.6562 7.28628L38.242 8.70049L37.2992 7.75769L38.7134 6.34347ZM29.7567 15.3001L30.6995 16.243L29.2853 17.6572L28.3425 16.7144L29.7567 15.3001ZM41.3327 11.3337V12.667H39.3327V11.3337H41.3327ZM28.666 11.3337V12.667H26.666V11.3337H28.666Z" fill="#FEFCFB"/>
</svg>
