<svg width="48" height="48" viewBox="0 0 48 48" fill="none" xmlns="http://www.w3.org/2000/svg">
<mask id="mask0_3936_7072" style="mask-type:alpha" maskUnits="userSpaceOnUse" x="0" y="0" width="48" height="48">
<rect width="48" height="48" fill="#D9D9D9"/>
</mask>
<g mask="url(#mask0_3936_7072)">
<path d="M17 34.75H31V33.25H17V34.75ZM17 26.55H31V25H17V26.55ZM12.75 42C11.9833 42 11.3333 41.7333 10.8 41.2C10.2667 40.6667 10 40.0167 10 39.25V8.75C10 7.98333 10.2667 7.33333 10.8 6.8C11.3333 6.26667 11.9833 6 12.75 6H29.45L38 14.55V39.25C38 40.0167 37.7333 40.6667 37.2 41.2C36.6667 41.7333 36.0167 42 35.25 42H12.75ZM28.7 15.2V7.55H12.75C12.45 7.55 12.175 7.675 11.925 7.925C11.675 8.175 11.55 8.45 11.55 8.75V39.25C11.55 39.55 11.675 39.825 11.925 40.075C12.175 40.325 12.45 40.45 12.75 40.45H35.25C35.55 40.45 35.825 40.325 36.075 40.075C36.325 39.825 36.45 39.55 36.45 39.25V15.2H28.7Z" fill="#7151DD"/>
</g>
</svg>
