<svg width="48" height="48" viewBox="0 0 48 48" fill="none" xmlns="http://www.w3.org/2000/svg">
<mask id="mask0_3936_7077" style="mask-type:alpha" maskUnits="userSpaceOnUse" x="0" y="0" width="48" height="48">
<rect width="48" height="48" fill="#D9D9D9"/>
</mask>
<g mask="url(#mask0_3936_7077)">
<path d="M27.75 18.9504V17.5504C28.85 17.0171 30.0083 16.6087 31.225 16.3254C32.4417 16.0421 33.7 15.9004 35 15.9004C35.7333 15.9004 36.4417 15.9504 37.125 16.0504C37.8083 16.1504 38.5167 16.2837 39.25 16.4504V17.8004C38.55 17.6004 37.8667 17.4587 37.2 17.3754C36.5333 17.2921 35.8 17.2504 35 17.2504C33.7 17.2504 32.4333 17.3921 31.2 17.6754C29.9667 17.9587 28.8167 18.3837 27.75 18.9504ZM27.75 29.9004V28.4004C28.7833 27.8671 29.9333 27.4587 31.2 27.1754C32.4667 26.8921 33.7333 26.7504 35 26.7504C35.7333 26.7504 36.4417 26.8004 37.125 26.9004C37.8083 27.0004 38.5167 27.1337 39.25 27.3004V28.6504C38.55 28.4504 37.8667 28.3087 37.2 28.2254C36.5333 28.1421 35.8 28.1004 35 28.1004C33.7 28.1004 32.4333 28.2504 31.2 28.5504C29.9667 28.8504 28.8167 29.3004 27.75 29.9004ZM27.75 24.4504V23.0004C28.85 22.4337 30.0083 22.0171 31.225 21.7504C32.4417 21.4837 33.7 21.3504 35 21.3504C35.7333 21.3504 36.4417 21.4004 37.125 21.5004C37.8083 21.6004 38.5167 21.7337 39.25 21.9004V23.2504C38.55 23.0171 37.8667 22.8587 37.2 22.7754C36.5333 22.6921 35.8 22.6504 35 22.6504C33.7 22.6504 32.4333 22.8087 31.2 23.1254C29.9667 23.4421 28.8167 23.8837 27.75 24.4504ZM12.7 32.5504C14.5667 32.5504 16.375 32.7671 18.125 33.2004C19.875 33.6337 21.6 34.3171 23.3 35.2504V14.9004C21.8 13.7671 20.125 12.9087 18.275 12.3254C16.425 11.7421 14.5667 11.4504 12.7 11.4504C11.4667 11.4504 10.3917 11.5421 9.475 11.7254C8.55833 11.9087 7.53333 12.1837 6.4 12.5504C6.06667 12.6837 5.84167 12.8421 5.725 13.0254C5.60833 13.2087 5.55 13.4171 5.55 13.6504V32.6004C5.55 32.9337 5.675 33.1837 5.925 33.3504C6.175 33.5171 6.45 33.5504 6.75 33.4504C7.45 33.1504 8.30833 32.9254 9.325 32.7754C10.3417 32.6254 11.4667 32.5504 12.7 32.5504ZM24.85 35.2504C26.5167 34.3171 28.2083 33.6337 29.925 33.2004C31.6417 32.7671 33.4333 32.5504 35.3 32.5504C36.5333 32.5504 37.675 32.6254 38.725 32.7754C39.775 32.9254 40.6167 33.1004 41.25 33.3004C41.55 33.4337 41.825 33.4171 42.075 33.2504C42.325 33.0837 42.45 32.8171 42.45 32.4504V13.6504C42.45 13.4171 42.3917 13.2087 42.275 13.0254C42.1583 12.8421 41.9333 12.6837 41.6 12.5504C40.5 12.1504 39.4833 11.8671 38.55 11.7004C37.6167 11.5337 36.5333 11.4504 35.3 11.4504C33.4333 11.4504 31.5917 11.7421 29.775 12.3254C27.9583 12.9087 26.3167 13.7671 24.85 14.9004V35.2504ZM24.05 37.5504C22.35 36.4171 20.5417 35.5587 18.625 34.9754C16.7083 34.3921 14.7333 34.1004 12.7 34.1004C11.7667 34.1004 10.8417 34.1754 9.925 34.3254C9.00833 34.4754 8.08333 34.6837 7.15 34.9504C6.38333 35.2504 5.66667 35.1504 5 34.6504C4.33333 34.1504 4 33.4671 4 32.6004V13.7004C4 13.1671 4.14167 12.6671 4.425 12.2004C4.70833 11.7337 5.11667 11.4004 5.65 11.2004C6.75 10.7671 7.9 10.4421 9.1 10.2254C10.3 10.0087 11.5 9.90039 12.7 9.90039C14.7667 9.90039 16.7583 10.2004 18.675 10.8004C20.5917 11.4004 22.3833 12.2837 24.05 13.4504C25.7167 12.2837 27.5 11.4004 29.4 10.8004C31.3 10.2004 33.2667 9.90039 35.3 9.90039C36.5 9.90039 37.7 10.0087 38.9 10.2254C40.1 10.4421 41.25 10.7671 42.35 11.2004C42.8833 11.4004 43.2917 11.7337 43.575 12.2004C43.8583 12.6671 44 13.1671 44 13.7004V32.6004C44 33.4671 43.6333 34.1504 42.9 34.6504C42.1667 35.1504 41.4 35.2171 40.6 34.8504C39.7333 34.6171 38.85 34.4337 37.95 34.3004C37.05 34.1671 36.1667 34.1004 35.3 34.1004C33.2667 34.1004 31.3 34.4004 29.4 35.0004C27.5 35.6004 25.7167 36.4504 24.05 37.5504Z" fill="#7151DD"/>
</g>
</svg>
