<svg width="151" height="100" viewBox="0 0 151 100" fill="none" xmlns="http://www.w3.org/2000/svg">
<path d="M142.603 33.0322C136.242 1.96954 75.931 0.000591376 37.058 23.6659V26.282C75.8897 6.31363 130.972 6.44271 135.987 35.0493C137.669 44.5154 132.337 54.3774 122.811 60.057V67.4802C134.266 63.279 146.018 49.6839 142.603 33.0322ZM71.9415 87.4021C45.1265 89.8753 17.1705 85.977 13.2516 65.0207C11.3343 54.6872 16.0484 43.7289 22.2926 36.9184V33.28C11.0451 43.142 4.94721 55.6286 8.46344 70.3717C12.9487 89.2901 36.9358 100.001 73.5559 96.4448C88.0511 95.0386 107.011 90.3727 120.201 83.132V72.8466C108.228 79.9789 88.4331 85.8754 71.9415 87.4021Z" fill="white"/>
<path d="M118.03 28.5137H110.999V59.8293C110.999 63.5004 112.772 66.6931 118.03 67.2042V28.5137ZM34.2943 39.9487H27.2481L27.2412 60.4076C27.2412 64.0908 29.0243 67.2783 34.2943 67.7825V39.9487ZM27.2481 36.1313H34.2737V29.462H27.2481V36.1313ZM76.4082 67.4607C70.7199 67.4607 68.3138 63.5004 68.3138 59.6004V32.4326H75.2791V39.9418H80.5285V45.5768H75.2791V59.1701C75.2791 60.7639 76.0313 61.6451 77.6921 61.6451H80.5285V67.4607H76.4082ZM94.9015 45.2463C92.5161 45.2463 90.6883 46.4769 89.9086 48.1309C89.4577 49.1257 89.289 49.9054 89.2425 51.1291H99.9788C99.8446 48.1309 98.4866 45.2463 94.9015 45.2463ZM89.2425 55.8828C89.2425 59.4455 91.4679 62.0753 95.4144 62.0753C98.5073 62.0753 100.032 61.2148 101.82 59.4455L106.13 63.5538C103.368 66.2835 100.469 67.9374 95.3662 67.9374C88.6918 67.9374 82.303 64.3007 82.303 53.6849C82.303 44.6078 87.8914 39.4789 95.2113 39.4789C102.655 39.4789 106.932 45.4821 106.932 53.3682V55.8828H89.2425ZM53.2265 45.5768C55.2712 45.5768 56.1249 46.5853 56.1249 48.2256V67.502H63.0954V48.1825C63.0954 44.2704 61.0129 39.9556 54.8857 39.9556L40.4869 39.947V67.4986H47.4574V45.5768H53.2265Z" fill="white"/>
</svg>
