<svg width="170" height="41" viewBox="0 0 170 41" fill="none" xmlns="http://www.w3.org/2000/svg">
<g clip-path="url(#clip0_6369_24521)">
<path d="M149.304 13.7089C150.251 13.7089 151.03 13.2168 151.135 12.5811L152.069 2.01334C152.069 0.968817 150.846 0.111328 149.307 0.111328C147.77 0.111328 146.548 0.968813 146.548 2.01352L147.481 12.5811C147.584 13.2167 148.363 13.7089 149.307 13.7089H149.304ZM143.593 17.0097C144.067 16.1911 144.032 15.271 143.531 14.8623L134.845 8.76916C133.942 8.24614 132.588 8.87568 131.819 10.2085C131.048 11.5396 131.185 13.0262 132.086 13.5494L141.704 18.0277C142.305 18.2505 143.125 17.8216 143.596 17.0035L143.593 17.0097ZM155.021 17.0041C155.495 17.8222 156.31 18.2513 156.912 18.0282L166.53 13.55C167.436 13.027 167.565 11.5402 166.801 10.209C166.029 8.87757 164.672 8.24671 163.772 8.76972L155.085 14.8628C154.589 15.271 154.552 16.1918 155.024 17.0103L155.021 17.0041ZM149.304 26.9097C150.251 26.9097 151.03 27.3976 151.135 28.0339L152.069 38.6002C152.069 39.6479 150.846 40.5035 149.307 40.5035C147.77 40.5035 146.548 39.6479 146.548 38.6002L147.481 28.0339C147.584 27.3976 148.363 26.9097 149.307 26.9097H149.304ZM155.021 23.6081C155.495 22.7878 156.31 22.3624 156.912 22.5879L166.53 27.0632C167.436 27.5867 167.565 29.0749 166.801 30.4071C166.029 31.7343 164.672 32.3668 163.772 31.8446L155.085 25.7571C154.589 25.3457 154.552 24.4243 155.024 23.6064H155.02M143.593 23.607C144.067 24.4243 144.032 25.3457 143.531 25.7579L134.845 31.8451C133.942 32.3674 132.588 31.7348 131.819 30.4077C131.048 29.0755 131.185 27.5873 132.086 27.0637L141.704 22.5885C142.305 22.363 143.125 22.7883 143.596 23.6089H143.593" fill="white"/>
<path d="M94.5145 25.737C94.5145 26.0613 94.4857 26.3958 94.3969 26.6895C94.0285 27.9096 92.7652 28.9413 91.1849 28.9413C89.8672 28.9413 88.8206 28.1927 88.8206 26.6118C88.8206 24.1923 91.4837 23.5241 94.5153 23.5409L94.5145 25.7368V25.737ZM99.2695 21.5205C99.2695 17.5307 97.5647 14.0201 91.8044 14.0201C88.8475 14.0201 86.5007 14.8506 85.2198 15.5908L86.158 18.7983C87.3286 18.0592 89.1944 17.4474 90.9601 17.4474C93.882 17.4393 94.3605 19.102 94.3605 20.1662V20.4181C87.9914 20.4086 83.9652 22.614 83.9652 27.1066C83.9652 29.8517 86.0158 32.4229 89.5804 32.4229C91.7707 32.4229 93.6052 31.5486 94.7031 30.1468H94.8115C94.8115 30.1468 95.5379 33.1902 99.5484 32.0258C99.3391 30.7601 99.2703 29.409 99.2703 27.7844L99.2697 21.5205M0.0322266 8.58669C0.0322266 8.58669 4.19428 25.641 4.85889 28.4088C5.63417 31.6395 7.03145 32.8288 11.0581 32.0258L13.6568 21.4528C14.3158 18.8252 14.7568 16.9519 15.1813 14.2818H15.2553C15.5533 16.9802 15.9762 18.8334 16.5185 21.4614C16.5185 21.4614 17.5758 26.2617 18.1183 28.7821C18.6613 31.3018 20.1726 32.8908 24.1173 32.0258L30.3097 8.58594H25.3115L23.1964 18.7206C22.6278 21.6694 22.1123 23.9762 21.7145 26.6733H21.6438C21.2824 24 20.8221 21.7872 20.2446 18.9135L18.0443 8.58594H12.8357L10.4808 18.6531C9.81432 21.7131 9.18931 24.183 8.79337 26.7904H8.72135C8.31485 24.3352 7.77374 21.2297 7.18813 18.2691C7.18813 18.2691 5.79009 11.0681 5.29838 8.58594L0.0322266 8.58669ZM39.7643 25.737C39.7643 26.0613 39.7355 26.3958 39.6454 26.6895C39.2777 27.9096 38.0137 28.9413 36.4334 28.9413C35.1155 28.9413 34.0704 28.1927 34.0704 26.6118C34.0704 24.1923 36.7328 23.5241 39.7649 23.5409L39.7643 25.7368V25.737ZM44.5188 21.5205C44.5188 17.5307 42.814 14.0201 37.0548 14.0201C34.0971 14.0201 31.7485 14.8506 30.4683 15.5908L31.4053 18.7983C32.5758 18.0592 34.4416 17.4474 36.2079 17.4474C39.1318 17.4393 39.6103 19.102 39.6103 20.1662V20.4181C33.2385 20.4086 29.2143 22.614 29.2143 27.1066C29.2143 29.8517 31.2637 32.4229 34.8257 32.4229C37.019 32.4229 38.8524 31.5486 39.9516 30.1468H40.0586C40.0586 30.1468 40.7872 33.1902 44.7967 32.0258C44.587 30.7601 44.5188 29.409 44.5188 27.7844V21.5205ZM52.4537 27.0502V8.58669H47.6931V32.0265H52.4537V27.0502ZM114.732 8.58669V25.8778C114.732 28.2629 115.182 29.932 116.14 30.9536C116.981 31.8467 118.361 32.4247 120.016 32.4247C121.424 32.4247 122.809 32.1561 123.462 31.9138L123.4 28.1946C122.914 28.3134 122.356 28.4096 121.592 28.4096C119.97 28.4096 119.428 27.3703 119.428 25.2302V18.6143H123.573V14.1289H119.428V8.58669H114.732ZM102.444 14.4177V32.0265H107.355V23.0105C107.355 22.5231 107.384 22.0985 107.461 21.7101C107.825 19.8206 109.269 18.6143 111.344 18.6143C111.912 18.6143 112.319 18.6761 112.76 18.7387V14.1289C112.39 14.0551 112.139 14.0206 111.679 14.0206C109.846 14.0206 107.761 15.2032 106.886 17.7398H106.753V14.4177H102.444ZM55.7872 14.4177V32.0265H60.5718V21.7007C60.5718 21.2161 60.6287 20.7037 60.7965 20.2595C61.193 19.2199 62.1606 18.0023 63.7046 18.0023C65.6362 18.0023 66.5382 19.6345 66.5382 21.9901V32.0252H71.319V21.5736C71.319 21.1113 71.3822 20.554 71.5189 20.1464C71.9114 18.9631 72.9537 18.0009 74.3892 18.0009C76.3465 18.0009 77.286 19.6045 77.286 22.3772V32.0247H82.07V21.653C82.07 16.184 79.2928 14.019 76.1574 14.019C74.7701 14.019 73.6739 14.3664 72.6825 14.9739C71.8501 15.4867 71.1035 16.2134 70.4521 17.1685H70.3814C69.6253 15.2709 67.8465 14.0199 65.5283 14.0199C62.5503 14.0199 61.2119 15.5295 60.4 16.8097H60.3287V14.4172H55.7872" fill="white"/>
<path d="M168.943 31.1711H169.015C169.111 31.1711 169.172 31.1315 169.172 31.0727C169.172 31.0057 169.114 30.9693 169.025 30.9693C168.995 30.9693 168.964 30.9756 168.943 30.9756V31.1728V31.1709L168.943 31.1711ZM168.932 31.6458H168.677V30.8172C168.735 30.8059 168.87 30.7857 169.042 30.7857C169.229 30.7857 169.313 30.8121 169.374 30.8536C169.426 30.8898 169.464 30.9516 169.464 31.0351C169.464 31.1202 169.386 31.1922 169.27 31.2237V31.2342C169.364 31.2593 169.416 31.3276 169.443 31.4473C169.468 31.5668 169.484 31.6157 169.5 31.6464H169.212C169.187 31.6157 169.172 31.5423 169.155 31.4692C169.139 31.3853 169.099 31.3432 169.014 31.3432H168.931L168.932 31.6458ZM169.037 30.5472C168.672 30.5472 168.396 30.8447 168.396 31.2241C168.396 31.5936 168.672 31.8951 169.047 31.8951C169.423 31.9013 169.699 31.5938 169.699 31.218C169.699 30.844 169.423 30.5472 169.042 30.5472H169.037ZM169.053 30.3223C169.562 30.3223 169.968 30.7231 169.968 31.2178C169.968 31.7184 169.562 32.1198 169.046 32.1198C168.53 32.1198 168.119 31.7179 168.119 31.218C168.119 30.7231 168.531 30.3225 169.046 30.3225H169.052" fill="white"/>
</g>
<defs>
<clipPath id="clip0_6369_24521">
<rect width="170" height="40.392" fill="white" transform="translate(0 0.111328)"/>
</clipPath>
</defs>
</svg>
