<svg width="513" height="300" viewBox="0 0 513 300" fill="none" xmlns="http://www.w3.org/2000/svg">
<g clip-path="url(#clip0_11902_3745)">
<g filter="url(#filter0_d_11902_3745)">
<g clip-path="url(#clip1_11902_3745)">
<rect x="-116" y="1" width="631" height="456" rx="10.8397" fill="#FDFCFC"/>
<path d="M-116 1H526.253V29.1832H-116V1Z" fill="#FDFCFC"/>
<rect x="43.3452" y="47.0686" width="207.58" height="143.626" rx="4.33587" fill="#F8F1EE"/>
<rect x="60.1436" y="173.893" width="74.7938" height="15.7176" rx="7.85879" transform="rotate(-90 60.1436 173.893)" fill="#FDFCFC"/>
<rect x="87.2429" y="173.893" width="74.7938" height="15.1756" rx="7.58779" transform="rotate(-90 87.2429 173.893)" fill="#FDFCFC"/>
<rect x="113.8" y="173.893" width="53.1144" height="16.2596" rx="8.12978" transform="rotate(-90 113.8 173.893)" fill="#FDFCFC"/>
<rect x="141.441" y="173.893" width="37.9389" height="16.2596" rx="8.12978" transform="rotate(-90 141.441 173.893)" fill="#FDFCFC"/>
<rect x="169.083" y="173.893" width="33.061" height="15.7176" rx="7.85878" transform="rotate(-90 169.083 173.893)" fill="#FDFCFC"/>
<rect x="196.182" y="173.893" width="37.9389" height="15.7176" rx="7.85878" transform="rotate(-90 196.182 173.893)" fill="#FDFCFC"/>
<rect x="223.281" y="173.893" width="20.0534" height="15.7176" rx="7.85878" transform="rotate(-90 223.281 173.893)" fill="#FDFCFC"/>
<rect x="43.3452" y="220.851" width="32.5191" height="32.519" rx="16.2595" fill="#F8F1EE"/>
<rect x="82.3682" y="220.851" width="107.313" height="15.7175" rx="7.85877" fill="#F8F1EE"/>
<rect x="82.3682" y="241.989" width="123.031" height="11.3817" rx="5.69083" fill="#FDF8F6"/>
<rect x="275.312" y="220.851" width="55.8245" height="15.7175" rx="7.85877" fill="#F8F1EE"/>
<rect x="275.312" y="241.989" width="55.8245" height="11.3817" rx="5.69083" fill="#FDF8F6"/>
<rect x="275.312" y="275.906" width="55.8245" height="15.7175" rx="7.85877" fill="#F8F1EE"/>
<rect x="275.312" y="297.043" width="55.8245" height="11.3817" rx="5.69083" fill="#FDF8F6"/>
<rect x="351.458" y="220.851" width="55.2825" height="15.7175" rx="7.85877" fill="#F8F1EE"/>
<rect x="351.458" y="241.989" width="55.2825" height="11.3817" rx="5.69083" fill="#FDF8F6"/>
<rect x="351.458" y="275.906" width="55.2825" height="15.7175" rx="7.85877" fill="#F8F1EE"/>
<rect x="351.458" y="297.043" width="55.2825" height="11.3817" rx="5.69083" fill="#FDF8F6"/>
<rect x="43.3452" y="275.906" width="32.5191" height="32.519" rx="16.2595" fill="#F8F1EE"/>
<rect x="82.3682" y="275.906" width="107.313" height="15.7175" rx="7.85877" fill="#F8F1EE"/>
<rect x="82.3682" y="297.043" width="123.031" height="11.3817" rx="5.69083" fill="#FDF8F6"/>
<rect x="275.312" y="47.0686" width="207.58" height="143.626" rx="4.33587" fill="#F8F1EE"/>
<rect x="303.491" y="76.8781" width="151.214" height="12.4656" rx="6.23281" fill="#F2E8E4"/>
<rect x="303.491" y="95.8475" width="151.214" height="11.9236" rx="5.96182" fill="#F2E8E4"/>
<rect x="336.823" y="114.275" width="84.5497" height="12.4656" rx="6.23281" fill="#F2E8E4"/>
<rect x="306.753" y="144.144" width="144.689" height="25.2855" rx="4.33587" fill="#FDFCFC"/>
</g>
<rect x="-115.458" y="1.54198" width="629.916" height="454.916" rx="10.2977" stroke="#D1B9B0" stroke-width="1.08397"/>
</g>
<rect x="90.5" y="19.8669" width="332" height="259.32" rx="6.99886" fill="white"/>
<rect x="90.5" y="19.8669" width="332" height="259.32" rx="6.99886" stroke="#D3B3FA" stroke-width="4"/>
<path d="M191.493 71.8669H189.37L193.235 60.889H195.69L199.56 71.8669H197.437L194.505 63.1403H194.419L191.493 71.8669ZM191.562 67.5626H197.351V69.16H191.562V67.5626ZM200.92 74.9545V63.6335H202.828V64.995H202.941C203.041 64.7949 203.182 64.5822 203.364 64.3571C203.547 64.1284 203.793 63.9336 204.104 63.7728C204.415 63.6084 204.812 63.5263 205.294 63.5263C205.93 63.5263 206.504 63.6889 207.015 64.014C207.529 64.3357 207.937 64.8127 208.237 65.4453C208.541 66.0742 208.693 66.8461 208.693 67.7609C208.693 68.665 208.544 69.4333 208.248 70.0659C207.951 70.6984 207.547 71.1808 207.036 71.5132C206.525 71.8455 205.946 72.0117 205.299 72.0117C204.828 72.0117 204.436 71.9331 204.126 71.7758C203.815 71.6186 203.564 71.4292 203.375 71.2076C203.189 70.9825 203.045 70.7699 202.941 70.5697H202.86V74.9545H200.92ZM202.823 67.7502C202.823 68.2827 202.898 68.749 203.048 69.1493C203.202 69.5495 203.422 69.8622 203.707 70.0873C203.997 70.3089 204.347 70.4197 204.758 70.4197C205.187 70.4197 205.546 70.3053 205.835 70.0766C206.125 69.8443 206.343 69.528 206.489 69.1278C206.64 68.724 206.715 68.2648 206.715 67.7502C206.715 67.2392 206.641 66.7853 206.495 66.3887C206.348 65.992 206.13 65.6811 205.841 65.456C205.551 65.2308 205.19 65.1183 204.758 65.1183C204.344 65.1183 203.992 65.2273 203.702 65.4453C203.413 65.6632 203.193 65.9688 203.043 66.3619C202.896 66.755 202.823 67.2177 202.823 67.7502ZM210.354 74.9545V63.6335H212.263V64.995H212.375C212.475 64.7949 212.616 64.5822 212.799 64.3571C212.981 64.1284 213.227 63.9336 213.538 63.7728C213.849 63.6084 214.246 63.5263 214.728 63.5263C215.364 63.5263 215.938 63.6889 216.449 64.014C216.964 64.3357 217.371 64.8127 217.671 65.4453C217.975 66.0742 218.127 66.8461 218.127 67.7609C218.127 68.665 217.978 69.4333 217.682 70.0659C217.385 70.6984 216.981 71.1808 216.47 71.5132C215.959 71.8455 215.38 72.0117 214.734 72.0117C214.262 72.0117 213.871 71.9331 213.56 71.7758C213.249 71.6186 212.999 71.4292 212.809 71.2076C212.623 70.9825 212.479 70.7699 212.375 70.5697H212.295V74.9545H210.354ZM212.257 67.7502C212.257 68.2827 212.332 68.749 212.482 69.1493C212.636 69.5495 212.856 69.8622 213.142 70.0873C213.431 70.3089 213.781 70.4197 214.192 70.4197C214.621 70.4197 214.98 70.3053 215.27 70.0766C215.559 69.8443 215.777 69.528 215.924 69.1278C216.074 68.724 216.149 68.2648 216.149 67.7502C216.149 67.2392 216.076 66.7853 215.929 66.3887C215.782 65.992 215.564 65.6811 215.275 65.456C214.986 65.2308 214.625 65.1183 214.192 65.1183C213.778 65.1183 213.426 65.2273 213.136 65.4453C212.847 65.6632 212.627 65.9688 212.477 66.3619C212.33 66.755 212.257 67.2177 212.257 67.7502ZM219.788 71.8669V63.6335H221.67V65.0057H221.756C221.906 64.5304 222.163 64.1641 222.528 63.9068C222.896 63.646 223.316 63.5155 223.787 63.5155C223.894 63.5155 224.014 63.5209 224.146 63.5316C224.282 63.5388 224.395 63.5513 224.484 63.5691V65.3541C224.402 65.3255 224.271 65.3005 224.093 65.2791C223.918 65.2541 223.748 65.2416 223.584 65.2416C223.23 65.2416 222.912 65.3184 222.629 65.4721C222.351 65.6221 222.131 65.8312 221.97 66.0992C221.809 66.3672 221.729 66.6763 221.729 67.0266V71.8669H219.788ZM229.026 72.0278C228.222 72.0278 227.525 71.8509 226.935 71.4971C226.345 71.1433 225.888 70.6484 225.563 70.0123C225.241 69.3762 225.08 68.6329 225.08 67.7824C225.08 66.9319 225.241 66.1868 225.563 65.5471C225.888 64.9074 226.345 64.4107 226.935 64.0569C227.525 63.7031 228.222 63.5263 229.026 63.5263C229.83 63.5263 230.527 63.7031 231.116 64.0569C231.706 64.4107 232.161 64.9074 232.483 65.5471C232.808 66.1868 232.971 66.9319 232.971 67.7824C232.971 68.6329 232.808 69.3762 232.483 70.0123C232.161 70.6484 231.706 71.1433 231.116 71.4971C230.527 71.8509 229.83 72.0278 229.026 72.0278ZM229.036 70.4733C229.472 70.4733 229.837 70.3535 230.13 70.1141C230.423 69.8711 230.641 69.5459 230.784 69.1385C230.93 68.7311 231.004 68.2773 231.004 67.777C231.004 67.2731 230.93 66.8175 230.784 66.4101C230.641 65.9992 230.423 65.6722 230.13 65.4292C229.837 65.1862 229.472 65.0647 229.036 65.0647C228.59 65.0647 228.218 65.1862 227.921 65.4292C227.628 65.6722 227.409 65.9992 227.262 66.4101C227.119 66.8175 227.048 67.2731 227.048 67.777C227.048 68.2773 227.119 68.7311 227.262 69.1385C227.409 69.5459 227.628 69.8711 227.921 70.1141C228.218 70.3535 228.59 70.4733 229.036 70.4733ZM241.692 63.6335L238.76 71.8669H236.616L233.684 63.6335H235.753L237.645 69.7496H237.731L239.628 63.6335H241.692ZM245.168 72.0331C244.647 72.0331 244.177 71.9402 243.759 71.7544C243.344 71.565 243.015 71.2862 242.772 70.9182C242.533 70.5501 242.413 70.0962 242.413 69.5566C242.413 69.0921 242.499 68.7079 242.67 68.4042C242.842 68.1004 243.076 67.8574 243.373 67.6752C243.669 67.4929 244.003 67.3553 244.375 67.2624C244.75 67.1659 245.138 67.0962 245.538 67.0534C246.021 67.0033 246.412 66.9587 246.712 66.9194C247.012 66.8765 247.23 66.8121 247.366 66.7264C247.505 66.637 247.575 66.4995 247.575 66.3136V66.2815C247.575 65.8777 247.455 65.565 247.216 65.3434C246.977 65.1219 246.632 65.0111 246.181 65.0111C245.706 65.0111 245.329 65.1147 245.05 65.322C244.775 65.5292 244.589 65.774 244.493 66.0563L242.681 65.799C242.824 65.2987 243.06 64.8806 243.389 64.5447C243.717 64.2052 244.119 63.9515 244.595 63.7836C245.07 63.612 245.595 63.5263 246.171 63.5263C246.567 63.5263 246.962 63.5727 247.355 63.6656C247.748 63.7585 248.108 63.9122 248.433 64.1266C248.758 64.3375 249.019 64.6251 249.215 64.9896C249.415 65.3541 249.516 65.8098 249.516 66.3565V71.8669H247.65V70.7359H247.586C247.468 70.9646 247.302 71.179 247.087 71.3792C246.876 71.5757 246.61 71.7347 246.289 71.8562C245.971 71.9742 245.597 72.0331 245.168 72.0331ZM245.672 70.6073C246.062 70.6073 246.399 70.5304 246.685 70.3768C246.971 70.2195 247.191 70.0123 247.345 69.755C247.502 69.4977 247.58 69.2171 247.58 68.9134V67.9432C247.52 67.9932 247.416 68.0397 247.27 68.0825C247.127 68.1254 246.966 68.1629 246.787 68.1951C246.608 68.2273 246.432 68.2559 246.256 68.2809C246.081 68.3059 245.929 68.3273 245.801 68.3452C245.511 68.3845 245.252 68.4488 245.024 68.5382C244.795 68.6275 244.614 68.7526 244.482 68.9134C244.35 69.0706 244.284 69.2743 244.284 69.5245C244.284 69.8818 244.414 70.1516 244.675 70.3339C244.936 70.5161 245.268 70.6073 245.672 70.6073ZM253.407 60.889V71.8669H251.467V60.889H253.407ZM259.232 71.8669V60.889H263.349C264.193 60.889 264.9 61.0355 265.472 61.3285C266.047 61.6215 266.481 62.0325 266.774 62.5614C267.071 63.0867 267.219 63.6996 267.219 64.4C267.219 65.104 267.069 65.7151 266.769 66.2332C266.473 66.7478 266.035 67.1463 265.456 67.4286C264.877 67.7073 264.166 67.8467 263.322 67.8467H260.39V66.1957H263.054C263.548 66.1957 263.951 66.1278 264.266 65.992C264.58 65.8526 264.813 65.6507 264.963 65.3863C265.116 65.1183 265.193 64.7895 265.193 64.4C265.193 64.0105 265.116 63.6781 264.963 63.403C264.809 63.1242 264.575 62.9134 264.26 62.7704C263.946 62.6239 263.54 62.5507 263.044 62.5507H261.221V71.8669H259.232ZM264.904 66.8925L267.621 71.8669H265.402L262.733 66.8925H264.904ZM272.491 72.0278C271.666 72.0278 270.953 71.8562 270.353 71.5132C269.756 71.1665 269.297 70.6769 268.975 70.0444C268.653 69.4083 268.492 68.6597 268.492 67.7984C268.492 66.9515 268.653 66.2082 268.975 65.5685C269.3 64.9253 269.754 64.425 270.336 64.0677C270.919 63.7067 271.603 63.5263 272.389 63.5263C272.897 63.5263 273.376 63.6084 273.826 63.7728C274.28 63.9336 274.68 64.1838 275.027 64.5233C275.377 64.8628 275.652 65.2952 275.852 65.8205C276.052 66.3422 276.152 66.964 276.152 67.6859V68.2809H269.404V66.973H274.292C274.289 66.6013 274.208 66.2708 274.051 65.9813C273.894 65.6883 273.674 65.4578 273.392 65.2898C273.113 65.1219 272.788 65.0379 272.416 65.0379C272.02 65.0379 271.671 65.1344 271.371 65.3273C271.071 65.5167 270.837 65.7669 270.669 66.0778C270.504 66.3851 270.42 66.7228 270.417 67.0909V68.2326C270.417 68.7115 270.504 69.1225 270.679 69.4655C270.855 69.805 271.099 70.0659 271.414 70.2481C271.728 70.4268 272.096 70.5161 272.518 70.5161C272.8 70.5161 273.056 70.4768 273.285 70.3982C273.513 70.316 273.712 70.1963 273.88 70.0391C274.048 69.8818 274.174 69.6871 274.26 69.4548L276.072 69.6585C275.958 70.1373 275.74 70.5554 275.418 70.9128C275.1 71.2666 274.693 71.5417 274.196 71.7383C273.699 71.9313 273.131 72.0278 272.491 72.0278ZM283.288 74.9545V70.5697H283.208C283.108 70.7699 282.963 70.9825 282.774 71.2076C282.584 71.4292 282.334 71.6186 282.023 71.7758C281.712 71.9331 281.321 72.0117 280.849 72.0117C280.203 72.0117 279.624 71.8455 279.113 71.5132C278.602 71.1808 278.198 70.6984 277.901 70.0659C277.605 69.4333 277.456 68.665 277.456 67.7609C277.456 66.8461 277.606 66.0742 277.907 65.4453C278.21 64.8127 278.619 64.3357 279.134 64.014C279.649 63.6889 280.222 63.5263 280.855 63.5263C281.337 63.5263 281.734 63.6084 282.045 63.7728C282.356 63.9336 282.602 64.1284 282.784 64.3571C282.967 64.5822 283.108 64.7949 283.208 64.995H283.326V63.6335H285.234V74.9545H283.288ZM281.391 70.4197C281.802 70.4197 282.152 70.3089 282.441 70.0873C282.731 69.8622 282.951 69.5495 283.101 69.1493C283.251 68.749 283.326 68.2827 283.326 67.7502C283.326 67.2177 283.251 66.755 283.101 66.3619C282.954 65.9688 282.736 65.6632 282.447 65.4453C282.161 65.2273 281.809 65.1183 281.391 65.1183C280.958 65.1183 280.597 65.2308 280.308 65.456C280.019 65.6811 279.801 65.992 279.654 66.3887C279.508 66.7853 279.434 67.2392 279.434 67.7502C279.434 68.2648 279.508 68.724 279.654 69.1278C279.804 69.528 280.024 69.8443 280.313 70.0766C280.606 70.3053 280.966 70.4197 281.391 70.4197ZM292.476 68.4042V63.6335H294.416V71.8669H292.535V70.4036H292.449C292.263 70.8646 291.958 71.2416 291.533 71.5346C291.111 71.8276 290.591 71.9742 289.973 71.9742C289.433 71.9742 288.956 71.8544 288.541 71.615C288.131 71.372 287.809 71.02 287.577 70.559C287.344 70.0945 287.228 69.5334 287.228 68.8759V63.6335H289.169V68.5757C289.169 69.0974 289.312 69.512 289.597 69.8193C289.883 70.1266 290.259 70.2803 290.723 70.2803C291.009 70.2803 291.286 70.2106 291.554 70.0712C291.822 69.9319 292.042 69.7246 292.213 69.4494C292.388 69.1707 292.476 68.8223 292.476 68.4042ZM296.412 71.8669V63.6335H298.352V71.8669H296.412ZM297.387 62.4649C297.08 62.4649 296.816 62.3631 296.594 62.1594C296.372 61.9521 296.262 61.7037 296.262 61.4143C296.262 61.1213 296.372 60.8729 296.594 60.6692C296.816 60.4619 297.08 60.3583 297.387 60.3583C297.698 60.3583 297.963 60.4619 298.181 60.6692C298.402 60.8729 298.513 61.1213 298.513 61.4143C298.513 61.7037 298.402 61.9521 298.181 62.1594C297.963 62.3631 297.698 62.4649 297.387 62.4649ZM300.348 71.8669V63.6335H302.229V65.0057H302.315C302.465 64.5304 302.722 64.1641 303.087 63.9068C303.455 63.646 303.875 63.5155 304.346 63.5155C304.454 63.5155 304.573 63.5209 304.706 63.5316C304.841 63.5388 304.954 63.5513 305.043 63.5691V65.3541C304.961 65.3255 304.831 65.3005 304.652 65.2791C304.477 65.2541 304.307 65.2416 304.143 65.2416C303.789 65.2416 303.471 65.3184 303.189 65.4721C302.91 65.6221 302.69 65.8312 302.529 66.0992C302.368 66.3672 302.288 66.6763 302.288 67.0266V71.8669H300.348ZM309.638 72.0278C308.813 72.0278 308.1 71.8562 307.5 71.5132C306.903 71.1665 306.444 70.6769 306.122 70.0444C305.8 69.4083 305.64 68.6597 305.64 67.7984C305.64 66.9515 305.8 66.2082 306.122 65.5685C306.447 64.9253 306.901 64.425 307.484 64.0677C308.066 63.7067 308.75 63.5263 309.537 63.5263C310.044 63.5263 310.523 63.6084 310.973 63.7728C311.427 63.9336 311.827 64.1838 312.174 64.5233C312.524 64.8628 312.799 65.2952 312.999 65.8205C313.199 66.3422 313.3 66.964 313.3 67.6859V68.2809H306.551V66.973H311.44C311.436 66.6013 311.356 66.2708 311.198 65.9813C311.041 65.6883 310.821 65.4578 310.539 65.2898C310.26 65.1219 309.935 65.0379 309.563 65.0379C309.167 65.0379 308.818 65.1344 308.518 65.3273C308.218 65.5167 307.984 65.7669 307.816 66.0778C307.652 66.3851 307.568 66.7228 307.564 67.0909V68.2326C307.564 68.7115 307.652 69.1225 307.827 69.4655C308.002 69.805 308.247 70.0659 308.561 70.2481C308.875 70.4268 309.244 70.5161 309.665 70.5161C309.948 70.5161 310.203 70.4768 310.432 70.3982C310.66 70.316 310.859 70.1963 311.027 70.0391C311.195 69.8818 311.322 69.6871 311.407 69.4548L313.219 69.6585C313.105 70.1373 312.887 70.5554 312.565 70.9128C312.247 71.2666 311.84 71.5417 311.343 71.7383C310.846 71.9313 310.278 72.0278 309.638 72.0278ZM317.997 72.0117C317.35 72.0117 316.771 71.8455 316.26 71.5132C315.749 71.1808 315.345 70.6984 315.048 70.0659C314.752 69.4333 314.603 68.665 314.603 67.7609C314.603 66.8461 314.754 66.0742 315.054 65.4453C315.357 64.8127 315.767 64.3357 316.281 64.014C316.796 63.6889 317.369 63.5263 318.002 63.5263C318.484 63.5263 318.881 63.6084 319.192 63.7728C319.503 63.9336 319.749 64.1284 319.932 64.3571C320.114 64.5822 320.255 64.7949 320.355 64.995H320.435V60.889H322.381V71.8669H320.473V70.5697H320.355C320.255 70.7699 320.11 70.9825 319.921 71.2076C319.732 71.4292 319.481 71.6186 319.17 71.7758C318.86 71.9331 318.468 72.0117 317.997 72.0117ZM318.538 70.4197C318.949 70.4197 319.299 70.3089 319.589 70.0873C319.878 69.8622 320.098 69.5495 320.248 69.1493C320.398 68.749 320.473 68.2827 320.473 67.7502C320.473 67.2177 320.398 66.755 320.248 66.3619C320.101 65.9688 319.883 65.6632 319.594 65.4453C319.308 65.2273 318.956 65.1183 318.538 65.1183C318.106 65.1183 317.745 65.2308 317.455 65.456C317.166 65.6811 316.948 65.992 316.801 66.3887C316.655 66.7853 316.581 67.2392 316.581 67.7502C316.581 68.2648 316.655 68.724 316.801 69.1278C316.951 69.528 317.171 69.8443 317.461 70.0766C317.754 70.3053 318.113 70.4197 318.538 70.4197Z" fill="black"/>
<path d="M157.442 93.8669V86.1554H160.047C160.652 86.1554 161.147 86.2646 161.531 86.483C161.918 86.6988 162.204 86.9913 162.389 87.3603C162.575 87.7293 162.668 88.141 162.668 88.5954C162.668 89.0497 162.575 89.4627 162.389 89.8342C162.206 90.2057 161.923 90.5019 161.538 90.7228C161.154 90.9412 160.662 91.0504 160.062 91.0504H158.195V90.222H160.032C160.446 90.222 160.779 90.1505 161.03 90.0074C161.281 89.8643 161.463 89.671 161.576 89.4275C161.692 89.1815 161.749 88.9041 161.749 88.5954C161.749 88.2866 161.692 88.0105 161.576 87.767C161.463 87.5235 161.28 87.3327 161.026 87.1946C160.773 87.0541 160.436 86.9838 160.017 86.9838H158.376V93.8669H157.442ZM166.415 93.9874C165.857 93.9874 165.377 93.8644 164.973 93.6184C164.571 93.3699 164.261 93.0235 164.042 92.5792C163.827 92.1323 163.719 91.6127 163.719 91.0203C163.719 90.4279 163.827 89.9057 164.042 89.4539C164.261 88.9995 164.565 88.6456 164.954 88.392C165.345 88.136 165.802 88.008 166.324 88.008C166.626 88.008 166.923 88.0582 167.217 88.1586C167.51 88.259 167.778 88.4222 168.019 88.6481C168.26 88.8715 168.452 89.1677 168.595 89.5367C168.738 89.9057 168.809 90.3601 168.809 90.8998V91.2763H164.351V90.5082H167.906C167.906 90.1819 167.841 89.8907 167.71 89.6346C167.582 89.3786 167.399 89.1765 167.16 89.0284C166.924 88.8803 166.646 88.8062 166.324 88.8062C165.97 88.8062 165.664 88.8941 165.406 89.0698C165.149 89.243 164.952 89.4689 164.814 89.7476C164.676 90.0262 164.607 90.3249 164.607 90.6437V91.1558C164.607 91.5926 164.683 91.9629 164.833 92.2666C164.986 92.5679 165.198 92.7976 165.47 92.9557C165.741 93.1113 166.056 93.1892 166.415 93.1892C166.648 93.1892 166.859 93.1565 167.047 93.0913C167.238 93.0235 167.402 92.9231 167.541 92.79C167.679 92.6545 167.785 92.4863 167.861 92.2855L168.719 92.5265C168.629 92.8176 168.477 93.0737 168.263 93.2946C168.05 93.513 167.787 93.6837 167.473 93.8067C167.159 93.9272 166.806 93.9874 166.415 93.9874ZM170.161 93.8669V88.0833H171.02V88.9568H171.08C171.185 88.6707 171.376 88.4385 171.652 88.2602C171.928 88.082 172.24 87.9929 172.586 87.9929C172.651 87.9929 172.733 87.9941 172.831 87.9967C172.929 87.9992 173.003 88.0029 173.053 88.008V88.9117C173.023 88.9041 172.954 88.8928 172.846 88.8778C172.741 88.8602 172.629 88.8514 172.511 88.8514C172.23 88.8514 171.979 88.9104 171.758 89.0284C171.539 89.1439 171.366 89.3045 171.238 89.5104C171.113 89.7137 171.05 89.9459 171.05 90.207V93.8669H170.161ZM177.044 88.0833V88.8363H173.927V88.0833H177.044ZM174.86 93.8669V87.285C174.86 86.9536 174.938 86.6775 175.094 86.4566C175.25 86.2357 175.452 86.07 175.7 85.9596C175.949 85.8491 176.211 85.7939 176.487 85.7939C176.706 85.7939 176.884 85.8115 177.022 85.8466C177.16 85.8818 177.263 85.9144 177.331 85.9445L177.075 86.7127C177.029 86.6976 176.967 86.6788 176.886 86.6562C176.808 86.6336 176.706 86.6223 176.578 86.6223C176.284 86.6223 176.072 86.6963 175.941 86.8444C175.813 86.9925 175.749 87.2097 175.749 87.4959V93.8669H174.86ZM180.401 93.9874C179.879 93.9874 179.421 93.8632 179.027 93.6147C178.635 93.3661 178.329 93.0185 178.108 92.5716C177.89 92.1248 177.781 91.6027 177.781 91.0052C177.781 90.4028 177.89 89.8769 178.108 89.4275C178.329 88.9782 178.635 88.6292 179.027 88.3807C179.421 88.1322 179.879 88.008 180.401 88.008C180.923 88.008 181.38 88.1322 181.772 88.3807C182.166 88.6292 182.472 88.9782 182.691 89.4275C182.912 89.8769 183.022 90.4028 183.022 91.0052C183.022 91.6027 182.912 92.1248 182.691 92.5716C182.472 93.0185 182.166 93.3661 181.772 93.6147C181.38 93.8632 180.923 93.9874 180.401 93.9874ZM180.401 93.1892C180.798 93.1892 181.124 93.0875 181.38 92.8842C181.636 92.6808 181.826 92.4135 181.949 92.0821C182.072 91.7508 182.133 91.3918 182.133 91.0052C182.133 90.6186 182.072 90.2584 181.949 89.9246C181.826 89.5907 181.636 89.3208 181.38 89.115C181.124 88.9091 180.798 88.8062 180.401 88.8062C180.005 88.8062 179.678 88.9091 179.422 89.115C179.166 89.3208 178.977 89.5907 178.854 89.9246C178.731 90.2584 178.669 90.6186 178.669 91.0052C178.669 91.3918 178.731 91.7508 178.854 92.0821C178.977 92.4135 179.166 92.6808 179.422 92.8842C179.678 93.0875 180.005 93.1892 180.401 93.1892ZM184.379 93.8669V88.0833H185.237V88.9568H185.297C185.403 88.6707 185.593 88.4385 185.87 88.2602C186.146 88.082 186.457 87.9929 186.803 87.9929C186.869 87.9929 186.95 87.9941 187.048 87.9967C187.146 87.9992 187.22 88.0029 187.27 88.008V88.9117C187.24 88.9041 187.171 88.8928 187.063 88.8778C186.958 88.8602 186.846 88.8514 186.728 88.8514C186.447 88.8514 186.196 88.9104 185.975 89.0284C185.757 89.1439 185.583 89.3045 185.455 89.5104C185.33 89.7137 185.267 89.9459 185.267 90.207V93.8669H184.379ZM188.324 93.8669V88.0833H189.182V88.987H189.258C189.378 88.6782 189.573 88.4385 189.841 88.2678C190.11 88.0946 190.432 88.008 190.809 88.008C191.19 88.008 191.508 88.0946 191.762 88.2678C192.018 88.4385 192.217 88.6782 192.36 88.987H192.421C192.569 88.6882 192.791 88.451 193.087 88.2753C193.383 88.0971 193.738 88.008 194.153 88.008C194.67 88.008 195.093 88.1699 195.422 88.4937C195.75 88.815 195.915 89.3158 195.915 89.9961V93.8669H195.026V89.9961C195.026 89.5693 194.909 89.2644 194.676 89.0811C194.443 88.8978 194.168 88.8062 193.851 88.8062C193.445 88.8062 193.13 88.9292 192.906 89.1752C192.683 89.4187 192.571 89.7275 192.571 90.1015V93.8669H191.667V89.9057C191.667 89.5769 191.561 89.312 191.347 89.1112C191.134 88.9079 190.859 88.8062 190.523 88.8062C190.292 88.8062 190.076 88.8677 189.875 88.9907C189.677 89.1137 189.516 89.2844 189.393 89.5028C189.273 89.7187 189.212 89.9685 189.212 90.2521V93.8669H188.324ZM197.54 93.8669V88.0833H198.428V93.8669H197.54ZM197.991 87.1193C197.818 87.1193 197.669 87.0603 197.543 86.9423C197.42 86.8244 197.359 86.6825 197.359 86.5169C197.359 86.3512 197.42 86.2093 197.543 86.0914C197.669 85.9734 197.818 85.9144 197.991 85.9144C198.165 85.9144 198.313 85.9734 198.436 86.0914C198.561 86.2093 198.624 86.3512 198.624 86.5169C198.624 86.6825 198.561 86.8244 198.436 86.9423C198.313 87.0603 198.165 87.1193 197.991 87.1193ZM200.944 90.3877V93.8669H200.056V88.0833H200.914V88.987H200.99C201.125 88.6933 201.331 88.4573 201.607 88.2791C201.883 88.0983 202.24 88.008 202.677 88.008C203.068 88.008 203.411 88.0883 203.705 88.2489C203.998 88.4071 204.227 88.6481 204.39 88.9719C204.553 89.2932 204.635 89.6999 204.635 90.1919V93.8669H203.746V90.2521C203.746 89.7978 203.628 89.4438 203.392 89.1903C203.156 88.9342 202.832 88.8062 202.421 88.8062C202.137 88.8062 201.883 88.8677 201.66 88.9907C201.439 89.1137 201.265 89.2932 201.137 89.5292C201.008 89.7652 200.944 90.0513 200.944 90.3877ZM208.593 96.1563C208.164 96.1563 207.795 96.1011 207.486 95.9906C207.177 95.8827 206.92 95.7396 206.714 95.5614C206.511 95.3857 206.349 95.1974 206.228 94.9966L206.936 94.4995C207.017 94.605 207.118 94.7255 207.241 94.861C207.364 94.9991 207.532 95.1183 207.746 95.2187C207.962 95.3216 208.244 95.3731 208.593 95.3731C209.06 95.3731 209.445 95.2601 209.749 95.0342C210.053 94.8083 210.205 94.4543 210.205 93.9724V92.7976H210.129C210.064 92.903 209.971 93.0335 209.851 93.1892C209.733 93.3423 209.562 93.4791 209.339 93.5996C209.118 93.7176 208.819 93.7766 208.442 93.7766C207.975 93.7766 207.556 93.6661 207.185 93.4452C206.816 93.2243 206.523 92.903 206.307 92.4813C206.094 92.0595 205.987 91.5474 205.987 90.945C205.987 90.3526 206.091 89.8367 206.3 89.3974C206.508 88.9556 206.798 88.6142 207.17 88.3732C207.541 88.1297 207.97 88.008 208.457 88.008C208.834 88.008 209.133 88.0707 209.354 88.1962C209.577 88.3192 209.748 88.4598 209.866 88.618C209.986 88.7736 210.079 88.9016 210.144 89.002H210.235V88.0833H211.093V94.0326C211.093 94.5297 210.98 94.9338 210.754 95.2451C210.531 95.5589 210.23 95.7886 209.851 95.9342C209.474 96.0823 209.055 96.1563 208.593 96.1563ZM208.563 92.9783C208.919 92.9783 209.221 92.8967 209.467 92.7336C209.713 92.5704 209.9 92.3357 210.028 92.0294C210.156 91.7232 210.22 91.3567 210.22 90.9299C210.22 90.5132 210.157 90.1455 210.031 89.8267C209.906 89.5078 209.72 89.2581 209.474 89.0773C209.228 88.8966 208.924 88.8062 208.563 88.8062C208.186 88.8062 207.873 88.9016 207.621 89.0924C207.373 89.2832 207.186 89.5392 207.06 89.8605C206.937 90.1819 206.876 90.5383 206.876 90.9299C206.876 91.3316 206.939 91.6868 207.064 91.9955C207.192 92.3018 207.381 92.5428 207.629 92.7185C207.88 92.8917 208.191 92.9783 208.563 92.9783ZM218.217 88.0833V88.8363H215.22V88.0833H218.217ZM216.094 86.6976H216.982V92.2102C216.982 92.4612 217.019 92.6495 217.092 92.775C217.167 92.898 217.262 92.9808 217.378 93.0235C217.496 93.0637 217.62 93.0837 217.75 93.0837C217.848 93.0837 217.929 93.0787 217.991 93.0687C218.054 93.0561 218.104 93.0461 218.142 93.0386L218.323 93.8368C218.263 93.8594 218.178 93.882 218.071 93.9046C217.963 93.9297 217.826 93.9423 217.66 93.9423C217.409 93.9423 217.163 93.8883 216.922 93.7803C216.684 93.6724 216.485 93.508 216.327 93.2871C216.171 93.0662 216.094 92.7875 216.094 92.4511V86.6976ZM220.567 90.3877V93.8669H219.678V86.1554H220.567V88.987H220.642C220.778 88.6882 220.981 88.451 221.252 88.2753C221.526 88.0971 221.89 88.008 222.344 88.008C222.738 88.008 223.084 88.087 223.38 88.2452C223.676 88.4008 223.906 88.6405 224.069 88.9644C224.235 89.2857 224.317 89.6949 224.317 90.1919V93.8669H223.429V90.2521C223.429 89.7928 223.309 89.4376 223.071 89.1865C222.835 88.933 222.507 88.8062 222.088 88.8062C221.797 88.8062 221.536 88.8677 221.305 88.9907C221.077 89.1137 220.896 89.2932 220.763 89.5292C220.632 89.7652 220.567 90.0513 220.567 90.3877ZM225.943 93.8669V88.0833H226.832V93.8669H225.943ZM226.395 87.1193C226.222 87.1193 226.072 87.0603 225.947 86.9423C225.824 86.8244 225.762 86.6825 225.762 86.5169C225.762 86.3512 225.824 86.2093 225.947 86.0914C226.072 85.9734 226.222 85.9144 226.395 85.9144C226.568 85.9144 226.716 85.9734 226.839 86.0914C226.965 86.2093 227.028 86.3512 227.028 86.5169C227.028 86.6825 226.965 86.8244 226.839 86.9423C226.716 87.0603 226.568 87.1193 226.395 87.1193ZM232.556 89.3786L231.758 89.6045C231.708 89.4714 231.634 89.3422 231.536 89.2167C231.44 89.0886 231.31 88.9832 231.144 88.9004C230.978 88.8175 230.766 88.7761 230.508 88.7761C230.154 88.7761 229.859 88.8577 229.623 89.0209C229.389 89.1815 229.273 89.3861 229.273 89.6346C229.273 89.8555 229.353 90.03 229.514 90.158C229.674 90.286 229.925 90.3927 230.267 90.4781L231.125 90.6889C231.642 90.8144 232.028 91.0065 232.281 91.265C232.535 91.5211 232.662 91.8512 232.662 92.2553C232.662 92.5867 232.566 92.8829 232.375 93.144C232.187 93.4051 231.923 93.6109 231.585 93.7615C231.246 93.9121 230.852 93.9874 230.402 93.9874C229.812 93.9874 229.324 93.8594 228.938 93.6034C228.551 93.3473 228.306 92.9733 228.203 92.4813L229.047 92.2704C229.127 92.5817 229.279 92.8151 229.502 92.9708C229.728 93.1264 230.023 93.2042 230.387 93.2042C230.801 93.2042 231.13 93.1164 231.374 92.9407C231.62 92.7624 231.743 92.549 231.743 92.3005C231.743 92.0997 231.672 91.9315 231.532 91.796C231.391 91.6579 231.175 91.555 230.884 91.4872L229.92 91.2613C229.391 91.1358 229.002 90.9412 228.753 90.6776C228.507 90.4115 228.384 90.0789 228.384 89.6798C228.384 89.3535 228.476 89.0648 228.659 88.8138C228.845 88.5627 229.097 88.3657 229.416 88.2226C229.737 88.0795 230.101 88.008 230.508 88.008C231.08 88.008 231.529 88.1335 231.856 88.3845C232.185 88.6355 232.418 88.9669 232.556 89.3786ZM238.683 94.0025C238.317 94.0025 237.984 93.9335 237.686 93.7954C237.387 93.6548 237.15 93.4527 236.974 93.1892C236.798 92.9231 236.71 92.6018 236.71 92.2252C236.71 91.8939 236.776 91.6253 236.906 91.4194C237.037 91.2111 237.211 91.0479 237.429 90.9299C237.648 90.8119 237.889 90.7241 238.152 90.6663C238.419 90.6061 238.686 90.5584 238.954 90.5233C239.306 90.4781 239.591 90.4442 239.809 90.4216C240.03 90.3965 240.191 90.3551 240.291 90.2973C240.394 90.2396 240.446 90.1392 240.446 89.9961V89.966C240.446 89.5945 240.344 89.3058 240.141 89.0999C239.94 88.8941 239.635 88.7912 239.226 88.7912C238.801 88.7912 238.469 88.884 238.228 89.0698C237.987 89.2556 237.817 89.4539 237.719 89.6647L236.876 89.3635C237.027 89.0121 237.227 88.7384 237.478 88.5426C237.732 88.3443 238.008 88.2063 238.307 88.1284C238.608 88.0481 238.904 88.008 239.195 88.008C239.381 88.008 239.595 88.0305 239.836 88.0757C240.079 88.1184 240.314 88.2075 240.54 88.3431C240.768 88.4786 240.958 88.6832 241.108 88.9568C241.259 89.2305 241.334 89.597 241.334 90.0563V93.8669H240.446V93.0837H240.4C240.34 93.2093 240.24 93.3436 240.099 93.4866C239.959 93.6297 239.772 93.7515 239.538 93.8519C239.305 93.9523 239.02 94.0025 238.683 94.0025ZM238.819 93.2042C239.17 93.2042 239.467 93.1352 239.708 92.9971C239.951 92.8591 240.134 92.6808 240.257 92.4624C240.383 92.244 240.446 92.0144 240.446 91.7734V90.96C240.408 91.0052 240.325 91.0466 240.197 91.0843C240.072 91.1194 239.926 91.1508 239.76 91.1784C239.597 91.2035 239.438 91.2261 239.282 91.2462C239.129 91.2638 239.005 91.2788 238.909 91.2914C238.678 91.3215 238.462 91.3705 238.262 91.4383C238.063 91.5035 237.903 91.6027 237.78 91.7357C237.659 91.8663 237.599 92.0445 237.599 92.2704C237.599 92.5792 237.713 92.8126 237.942 92.9708C238.173 93.1264 238.465 93.2042 238.819 93.2042ZM245.306 93.9874C244.764 93.9874 244.297 93.8594 243.905 93.6034C243.513 93.3473 243.212 92.9946 243.001 92.5453C242.79 92.0959 242.685 91.5826 242.685 91.0052C242.685 90.4178 242.793 89.8995 243.009 89.4501C243.227 88.9983 243.531 88.6456 243.92 88.392C244.312 88.136 244.769 88.008 245.291 88.008C245.697 88.008 246.064 88.0833 246.39 88.2339C246.717 88.3845 246.984 88.5954 247.192 88.8665C247.401 89.1376 247.53 89.4539 247.58 89.8154H246.691C246.624 89.5518 246.473 89.3183 246.24 89.115C246.009 88.9091 245.697 88.8062 245.306 88.8062C244.959 88.8062 244.656 88.8966 244.395 89.0773C244.136 89.2556 243.934 89.5078 243.788 89.8342C243.645 90.158 243.574 90.5383 243.574 90.9751C243.574 91.4219 243.644 91.811 243.785 92.1424C243.928 92.4737 244.128 92.731 244.387 92.9143C244.648 93.0975 244.954 93.1892 245.306 93.1892C245.537 93.1892 245.746 93.149 245.935 93.0687C246.123 92.9883 246.282 92.8729 246.413 92.7223C246.543 92.5716 246.636 92.3909 246.691 92.18H247.58C247.53 92.5214 247.406 92.8289 247.207 93.1026C247.012 93.3737 246.752 93.5896 246.428 93.7502C246.107 93.9084 245.733 93.9874 245.306 93.9874ZM251.394 88.0833V88.8363H248.397V88.0833H251.394ZM249.271 86.6976H250.159V92.2102C250.159 92.4612 250.196 92.6495 250.269 92.775C250.344 92.898 250.439 92.9808 250.555 93.0235C250.673 93.0637 250.797 93.0837 250.928 93.0837C251.025 93.0837 251.106 93.0787 251.169 93.0687C251.231 93.0561 251.281 93.0461 251.319 93.0386L251.5 93.8368C251.44 93.8594 251.356 93.882 251.248 93.9046C251.14 93.9297 251.003 93.9423 250.837 93.9423C250.586 93.9423 250.34 93.8883 250.099 93.7803C249.861 93.6724 249.662 93.508 249.504 93.2871C249.349 93.0662 249.271 92.7875 249.271 92.4511V86.6976ZM252.731 93.8669V88.0833H253.62V93.8669H252.731ZM253.183 87.1193C253.01 87.1193 252.86 87.0603 252.735 86.9423C252.612 86.8244 252.55 86.6825 252.55 86.5169C252.55 86.3512 252.612 86.2093 252.735 86.0914C252.86 85.9734 253.01 85.9144 253.183 85.9144C253.356 85.9144 253.504 85.9734 253.627 86.0914C253.753 86.2093 253.816 86.3512 253.816 86.5169C253.816 86.6825 253.753 86.8244 253.627 86.9423C253.504 87.0603 253.356 87.1193 253.183 87.1193ZM257.597 93.9874C257.075 93.9874 256.617 93.8632 256.223 93.6147C255.831 93.3661 255.525 93.0185 255.304 92.5716C255.085 92.1248 254.976 91.6027 254.976 91.0052C254.976 90.4028 255.085 89.8769 255.304 89.4275C255.525 88.9782 255.831 88.6292 256.223 88.3807C256.617 88.1322 257.075 88.008 257.597 88.008C258.119 88.008 258.576 88.1322 258.968 88.3807C259.362 88.6292 259.668 88.9782 259.886 89.4275C260.107 89.8769 260.218 90.4028 260.218 91.0052C260.218 91.6027 260.107 92.1248 259.886 92.5716C259.668 93.0185 259.362 93.3661 258.968 93.6147C258.576 93.8632 258.119 93.9874 257.597 93.9874ZM257.597 93.1892C257.994 93.1892 258.32 93.0875 258.576 92.8842C258.832 92.6808 259.022 92.4135 259.145 92.0821C259.268 91.7508 259.329 91.3918 259.329 91.0052C259.329 90.6186 259.268 90.2584 259.145 89.9246C259.022 89.5907 258.832 89.3208 258.576 89.115C258.32 88.9091 257.994 88.8062 257.597 88.8062C257.2 88.8062 256.874 88.9091 256.618 89.115C256.362 89.3208 256.172 89.5907 256.049 89.9246C255.926 90.2584 255.865 90.6186 255.865 91.0052C255.865 91.3918 255.926 91.7508 256.049 92.0821C256.172 92.4135 256.362 92.6808 256.618 92.8842C256.874 93.0875 257.2 93.1892 257.597 93.1892ZM262.463 90.3877V93.8669H261.574V88.0833H262.433V88.987H262.508C262.644 88.6933 262.849 88.4573 263.126 88.2791C263.402 88.0983 263.758 88.008 264.195 88.008C264.587 88.008 264.929 88.0883 265.223 88.2489C265.517 88.4071 265.745 88.6481 265.908 88.9719C266.071 89.2932 266.153 89.6999 266.153 90.1919V93.8669H265.264V90.2521C265.264 89.7978 265.146 89.4438 264.91 89.1903C264.674 88.9342 264.351 88.8062 263.939 88.8062C263.655 88.8062 263.402 88.8677 263.178 88.9907C262.957 89.1137 262.783 89.2932 262.655 89.5292C262.527 89.7652 262.463 90.0513 262.463 90.3877ZM270.759 93.8669V88.0833H271.618V88.9568H271.678C271.783 88.6707 271.974 88.4385 272.25 88.2602C272.526 88.082 272.838 87.9929 273.184 87.9929C273.249 87.9929 273.331 87.9941 273.429 87.9967C273.527 87.9992 273.601 88.0029 273.651 88.008V88.9117C273.621 88.9041 273.552 88.8928 273.444 88.8778C273.338 88.8602 273.227 88.8514 273.109 88.8514C272.828 88.8514 272.576 88.9104 272.356 89.0284C272.137 89.1439 271.964 89.3045 271.836 89.5104C271.71 89.7137 271.648 89.9459 271.648 90.207V93.8669H270.759ZM276.953 93.9874C276.396 93.9874 275.915 93.8644 275.511 93.6184C275.109 93.3699 274.799 93.0235 274.581 92.5792C274.365 92.1323 274.257 91.6127 274.257 91.0203C274.257 90.4279 274.365 89.9057 274.581 89.4539C274.799 88.9995 275.103 88.6456 275.492 88.392C275.884 88.136 276.341 88.008 276.863 88.008C277.164 88.008 277.461 88.0582 277.755 88.1586C278.049 88.259 278.316 88.4222 278.557 88.6481C278.798 88.8715 278.99 89.1677 279.133 89.5367C279.276 89.9057 279.348 90.3601 279.348 90.8998V91.2763H274.89V90.5082H278.444C278.444 90.1819 278.379 89.8907 278.248 89.6346C278.12 89.3786 277.937 89.1765 277.699 89.0284C277.463 88.8803 277.184 88.8062 276.863 88.8062C276.509 88.8062 276.203 88.8941 275.944 89.0698C275.688 89.243 275.491 89.4689 275.353 89.7476C275.215 90.0262 275.146 90.3249 275.146 90.6437V91.1558C275.146 91.5926 275.221 91.9629 275.372 92.2666C275.525 92.5679 275.737 92.7976 276.008 92.9557C276.279 93.1113 276.594 93.1892 276.953 93.1892C277.187 93.1892 277.397 93.1565 277.586 93.0913C277.777 93.0235 277.941 92.9231 278.079 92.79C278.217 92.6545 278.324 92.4863 278.399 92.2855L279.258 92.5265C279.167 92.8176 279.015 93.0737 278.802 93.2946C278.589 93.513 278.325 93.6837 278.011 93.8067C277.697 93.9272 277.345 93.9874 276.953 93.9874ZM284.646 96.0358V92.9783H284.571C284.505 93.0837 284.412 93.2168 284.292 93.3774C284.171 93.5356 284 93.6774 283.776 93.8029C283.553 93.9259 283.255 93.9874 282.884 93.9874C282.402 93.9874 281.976 93.8657 281.607 93.6222C281.238 93.3762 280.95 93.0298 280.741 92.5829C280.533 92.1336 280.429 91.6027 280.429 90.9902C280.429 90.3827 280.533 89.8555 280.741 89.4087C280.95 88.9619 281.239 88.6167 281.611 88.3732C281.982 88.1297 282.412 88.008 282.899 88.008C283.275 88.008 283.573 88.0707 283.791 88.1962C284.012 88.3192 284.18 88.4598 284.296 88.618C284.414 88.7736 284.505 88.9016 284.571 89.002H284.676V88.0833H285.535V96.0358H284.646ZM283.004 93.1892C283.361 93.1892 283.662 93.0963 283.908 92.9105C284.154 92.7223 284.341 92.4624 284.469 92.1311C284.597 91.7972 284.661 91.4119 284.661 90.9751C284.661 90.5433 284.598 90.1655 284.473 89.8417C284.347 89.5154 284.161 89.2618 283.915 89.0811C283.669 88.8978 283.366 88.8062 283.004 88.8062C282.628 88.8062 282.314 88.9029 282.063 89.0962C281.814 89.2869 281.627 89.5468 281.502 89.8756C281.379 90.2019 281.317 90.5684 281.317 90.9751C281.317 91.3868 281.38 91.7608 281.506 92.0972C281.634 92.4311 281.822 92.6972 282.07 92.8955C282.321 93.0913 282.633 93.1892 283.004 93.1892ZM290.806 91.5023V88.0833H291.695V93.8669H290.806V92.8879H290.746C290.61 93.1816 290.399 93.4314 290.113 93.6373C289.827 93.8406 289.466 93.9423 289.029 93.9423C288.667 93.9423 288.346 93.8632 288.065 93.705C287.784 93.5444 287.563 93.3034 287.402 92.9821C287.242 92.6582 287.161 92.2503 287.161 91.7583V88.0833H288.05V91.6981C288.05 92.1198 288.168 92.4562 288.404 92.7072C288.642 92.9582 288.946 93.0837 289.315 93.0837C289.536 93.0837 289.761 93.0273 289.989 92.9143C290.22 92.8013 290.413 92.6281 290.569 92.3947C290.727 92.1612 290.806 91.8637 290.806 91.5023ZM293.322 93.8669V88.0833H294.211V93.8669H293.322ZM293.774 87.1193C293.601 87.1193 293.452 87.0603 293.326 86.9423C293.203 86.8244 293.142 86.6825 293.142 86.5169C293.142 86.3512 293.203 86.2093 293.326 86.0914C293.452 85.9734 293.601 85.9144 293.774 85.9144C293.947 85.9144 294.096 85.9734 294.219 86.0914C294.344 86.2093 294.407 86.3512 294.407 86.5169C294.407 86.6825 294.344 86.8244 294.219 86.9423C294.096 87.0603 293.947 87.1193 293.774 87.1193ZM295.839 93.8669V88.0833H296.697V88.9568H296.757C296.863 88.6707 297.054 88.4385 297.33 88.2602C297.606 88.082 297.917 87.9929 298.264 87.9929C298.329 87.9929 298.41 87.9941 298.508 87.9967C298.606 87.9992 298.68 88.0029 298.73 88.008V88.9117C298.7 88.9041 298.631 88.8928 298.523 88.8778C298.418 88.8602 298.306 88.8514 298.188 88.8514C297.907 88.8514 297.656 88.9104 297.435 89.0284C297.217 89.1439 297.044 89.3045 296.916 89.5104C296.79 89.7137 296.727 89.9459 296.727 90.207V93.8669H295.839ZM302.033 93.9874C301.475 93.9874 300.995 93.8644 300.591 93.6184C300.189 93.3699 299.879 93.0235 299.66 92.5792C299.445 92.1323 299.337 91.6127 299.337 91.0203C299.337 90.4279 299.445 89.9057 299.66 89.4539C299.879 88.9995 300.183 88.6456 300.572 88.392C300.963 88.136 301.42 88.008 301.942 88.008C302.244 88.008 302.541 88.0582 302.835 88.1586C303.128 88.259 303.396 88.4222 303.637 88.6481C303.878 88.8715 304.07 89.1677 304.213 89.5367C304.356 89.9057 304.428 90.3601 304.428 90.8998V91.2763H299.969V90.5082H303.524C303.524 90.1819 303.459 89.8907 303.328 89.6346C303.2 89.3786 303.017 89.1765 302.778 89.0284C302.542 88.8803 302.264 88.8062 301.942 88.8062C301.588 88.8062 301.282 88.8941 301.024 89.0698C300.768 89.243 300.57 89.4689 300.432 89.7476C300.294 90.0262 300.225 90.3249 300.225 90.6437V91.1558C300.225 91.5926 300.301 91.9629 300.451 92.2666C300.604 92.5679 300.816 92.7976 301.088 92.9557C301.359 93.1113 301.674 93.1892 302.033 93.1892C302.266 93.1892 302.477 93.1565 302.665 93.0913C302.856 93.0235 303.021 92.9231 303.159 92.79C303.297 92.6545 303.403 92.4863 303.479 92.2855L304.337 92.5265C304.247 92.8176 304.095 93.0737 303.882 93.2946C303.668 93.513 303.405 93.6837 303.091 93.8067C302.777 93.9272 302.424 93.9874 302.033 93.9874ZM309.876 89.3786L309.078 89.6045C309.028 89.4714 308.954 89.3422 308.856 89.2167C308.76 89.0886 308.63 88.9832 308.464 88.9004C308.298 88.8175 308.086 88.7761 307.828 88.7761C307.474 88.7761 307.179 88.8577 306.943 89.0209C306.709 89.1815 306.593 89.3861 306.593 89.6346C306.593 89.8555 306.673 90.03 306.834 90.158C306.994 90.286 307.245 90.3927 307.587 90.4781L308.445 90.6889C308.962 90.8144 309.348 91.0065 309.601 91.265C309.855 91.5211 309.981 91.8512 309.981 92.2553C309.981 92.5867 309.886 92.8829 309.695 93.144C309.507 93.4051 309.243 93.6109 308.905 93.7615C308.566 93.9121 308.172 93.9874 307.722 93.9874C307.132 93.9874 306.644 93.8594 306.257 93.6034C305.871 93.3473 305.626 92.9733 305.523 92.4813L306.367 92.2704C306.447 92.5817 306.599 92.8151 306.822 92.9708C307.048 93.1264 307.343 93.2042 307.707 93.2042C308.121 93.2042 308.45 93.1164 308.694 92.9407C308.94 92.7624 309.063 92.549 309.063 92.3005C309.063 92.0997 308.992 91.9315 308.852 91.796C308.711 91.6579 308.495 91.555 308.204 91.4872L307.24 91.2613C306.711 91.1358 306.322 90.9412 306.073 90.6776C305.827 90.4115 305.704 90.0789 305.704 89.6798C305.704 89.3535 305.796 89.0648 305.979 88.8138C306.165 88.5627 306.417 88.3657 306.736 88.2226C307.057 88.0795 307.421 88.008 307.828 88.008C308.4 88.008 308.849 88.1335 309.176 88.3845C309.505 88.6355 309.738 88.9669 309.876 89.3786ZM316.003 94.0025C315.637 94.0025 315.304 93.9335 315.005 93.7954C314.707 93.6548 314.47 93.4527 314.294 93.1892C314.118 92.9231 314.03 92.6018 314.03 92.2252C314.03 91.8939 314.096 91.6253 314.226 91.4194C314.357 91.2111 314.531 91.0479 314.749 90.9299C314.968 90.8119 315.209 90.7241 315.472 90.6663C315.739 90.6061 316.006 90.5584 316.274 90.5233C316.626 90.4781 316.911 90.4442 317.129 90.4216C317.35 90.3965 317.511 90.3551 317.611 90.2973C317.714 90.2396 317.766 90.1392 317.766 89.9961V89.966C317.766 89.5945 317.664 89.3058 317.461 89.0999C317.26 88.8941 316.955 88.7912 316.546 88.7912C316.121 88.7912 315.789 88.884 315.548 89.0698C315.307 89.2556 315.137 89.4539 315.039 89.6647L314.196 89.3635C314.347 89.0121 314.547 88.7384 314.798 88.5426C315.052 88.3443 315.328 88.2063 315.627 88.1284C315.928 88.0481 316.224 88.008 316.515 88.008C316.701 88.008 316.915 88.0305 317.156 88.0757C317.399 88.1184 317.634 88.2075 317.86 88.3431C318.088 88.4786 318.278 88.6832 318.428 88.9568C318.579 89.2305 318.654 89.597 318.654 90.0563V93.8669H317.766V93.0837H317.72C317.66 93.2093 317.56 93.3436 317.419 93.4866C317.279 93.6297 317.092 93.7515 316.858 93.8519C316.625 93.9523 316.34 94.0025 316.003 94.0025ZM316.139 93.2042C316.49 93.2042 316.787 93.1352 317.028 92.9971C317.271 92.8591 317.454 92.6808 317.577 92.4624C317.703 92.244 317.766 92.0144 317.766 91.7734V90.96C317.728 91.0052 317.645 91.0466 317.517 91.0843C317.392 91.1194 317.246 91.1508 317.08 91.1784C316.917 91.2035 316.758 91.2261 316.602 91.2462C316.449 91.2638 316.325 91.2788 316.229 91.2914C315.998 91.3215 315.782 91.3705 315.582 91.4383C315.383 91.5035 315.223 91.6027 315.1 91.7357C314.979 91.8663 314.919 92.0445 314.919 92.2704C314.919 92.5792 315.033 92.8126 315.262 92.9708C315.492 93.1264 315.785 93.2042 316.139 93.2042ZM320.276 96.0358V88.0833H321.135V89.002H321.24C321.305 88.9016 321.396 88.7736 321.511 88.618C321.629 88.4598 321.797 88.3192 322.016 88.1962C322.237 88.0707 322.535 88.008 322.912 88.008C323.399 88.008 323.828 88.1297 324.2 88.3732C324.571 88.6167 324.861 88.9619 325.07 89.4087C325.278 89.8555 325.382 90.3827 325.382 90.9902C325.382 91.6027 325.278 92.1336 325.07 92.5829C324.861 93.0298 324.572 93.3762 324.203 93.6222C323.834 93.8657 323.409 93.9874 322.927 93.9874C322.555 93.9874 322.258 93.9259 322.035 93.8029C321.811 93.6774 321.639 93.5356 321.519 93.3774C321.398 93.2168 321.305 93.0837 321.24 92.9783H321.165V96.0358H320.276ZM321.15 90.9751C321.15 91.4119 321.214 91.7972 321.342 92.1311C321.47 92.4624 321.657 92.7223 321.903 92.9105C322.149 93.0963 322.45 93.1892 322.807 93.1892C323.178 93.1892 323.488 93.0913 323.737 92.8955C323.988 92.6972 324.176 92.4311 324.301 92.0972C324.429 91.7608 324.493 91.3868 324.493 90.9751C324.493 90.5684 324.431 90.2019 324.305 89.8756C324.182 89.5468 323.995 89.2869 323.744 89.0962C323.496 88.9029 323.183 88.8062 322.807 88.8062C322.445 88.8062 322.141 88.8978 321.895 89.0811C321.649 89.2618 321.464 89.5154 321.338 89.8417C321.212 90.1655 321.15 90.5433 321.15 90.9751ZM326.738 96.0358V88.0833H327.596V89.002H327.702C327.767 88.9016 327.857 88.7736 327.973 88.618C328.091 88.4598 328.259 88.3192 328.477 88.1962C328.698 88.0707 328.997 88.008 329.373 88.008C329.86 88.008 330.29 88.1297 330.661 88.3732C331.033 88.6167 331.323 88.9619 331.531 89.4087C331.739 89.8555 331.844 90.3827 331.844 90.9902C331.844 91.6027 331.739 92.1336 331.531 92.5829C331.323 93.0298 331.034 93.3762 330.665 93.6222C330.296 93.8657 329.87 93.9874 329.388 93.9874C329.017 93.9874 328.719 93.9259 328.496 93.8029C328.273 93.6774 328.101 93.5356 327.98 93.3774C327.86 93.2168 327.767 93.0837 327.702 92.9783H327.626V96.0358H326.738ZM327.611 90.9751C327.611 91.4119 327.675 91.7972 327.803 92.1311C327.931 92.4624 328.118 92.7223 328.364 92.9105C328.61 93.0963 328.912 93.1892 329.268 93.1892C329.639 93.1892 329.95 93.0913 330.198 92.8955C330.449 92.6972 330.637 92.4311 330.763 92.0972C330.891 91.7608 330.955 91.3868 330.955 90.9751C330.955 90.5684 330.892 90.2019 330.767 89.8756C330.644 89.5468 330.457 89.2869 330.206 89.0962C329.957 88.9029 329.645 88.8062 329.268 88.8062C328.906 88.8062 328.603 88.8978 328.357 89.0811C328.111 89.2618 327.925 89.5154 327.799 89.8417C327.674 90.1655 327.611 90.5433 327.611 90.9751ZM333.199 93.8669V88.0833H334.058V88.9568H334.118C334.223 88.6707 334.414 88.4385 334.69 88.2602C334.966 88.082 335.278 87.9929 335.624 87.9929C335.689 87.9929 335.771 87.9941 335.869 87.9967C335.967 87.9992 336.041 88.0029 336.091 88.008V88.9117C336.061 88.9041 335.992 88.8928 335.884 88.8778C335.778 88.8602 335.667 88.8514 335.549 88.8514C335.268 88.8514 335.016 88.9104 334.796 89.0284C334.577 89.1439 334.404 89.3045 334.276 89.5104C334.15 89.7137 334.088 89.9459 334.088 90.207V93.8669H333.199ZM339.318 93.9874C338.796 93.9874 338.338 93.8632 337.943 93.6147C337.552 93.3661 337.246 93.0185 337.025 92.5716C336.806 92.1248 336.697 91.6027 336.697 91.0052C336.697 90.4028 336.806 89.8769 337.025 89.4275C337.246 88.9782 337.552 88.6292 337.943 88.3807C338.338 88.1322 338.796 88.008 339.318 88.008C339.84 88.008 340.297 88.1322 340.688 88.3807C341.083 88.6292 341.389 88.9782 341.607 89.4275C341.828 89.8769 341.939 90.4028 341.939 91.0052C341.939 91.6027 341.828 92.1248 341.607 92.5716C341.389 93.0185 341.083 93.3661 340.688 93.6147C340.297 93.8632 339.84 93.9874 339.318 93.9874ZM339.318 93.1892C339.714 93.1892 340.041 93.0875 340.297 92.8842C340.553 92.6808 340.742 92.4135 340.865 92.0821C340.988 91.7508 341.05 91.3918 341.05 91.0052C341.05 90.6186 340.988 90.2584 340.865 89.9246C340.742 89.5907 340.553 89.3208 340.297 89.115C340.041 88.9091 339.714 88.8062 339.318 88.8062C338.921 88.8062 338.595 88.9091 338.339 89.115C338.083 89.3208 337.893 89.5907 337.77 89.9246C337.647 90.2584 337.586 90.6186 337.586 91.0052C337.586 91.3918 337.647 91.7508 337.77 92.0821C337.893 92.4135 338.083 92.6808 338.339 92.8842C338.595 93.0875 338.921 93.1892 339.318 93.1892ZM347.817 88.0833L345.679 93.8669H344.775L342.636 88.0833H343.6L345.197 92.6921H345.257L346.853 88.0833H347.817ZM350.516 94.0025C350.15 94.0025 349.817 93.9335 349.518 93.7954C349.22 93.6548 348.982 93.4527 348.807 93.1892C348.631 92.9231 348.543 92.6018 348.543 92.2252C348.543 91.8939 348.608 91.6253 348.739 91.4194C348.869 91.2111 349.044 91.0479 349.262 90.9299C349.481 90.8119 349.722 90.7241 349.985 90.6663C350.251 90.6061 350.519 90.5584 350.787 90.5233C351.139 90.4781 351.424 90.4442 351.642 90.4216C351.863 90.3965 352.024 90.3551 352.124 90.2973C352.227 90.2396 352.278 90.1392 352.278 89.9961V89.966C352.278 89.5945 352.177 89.3058 351.973 89.0999C351.773 88.8941 351.468 88.7912 351.058 88.7912C350.634 88.7912 350.302 88.884 350.061 89.0698C349.82 89.2556 349.65 89.4539 349.552 89.6647L348.709 89.3635C348.859 89.0121 349.06 88.7384 349.311 88.5426C349.565 88.3443 349.841 88.2063 350.14 88.1284C350.441 88.0481 350.737 88.008 351.028 88.008C351.214 88.008 351.427 88.0305 351.668 88.0757C351.912 88.1184 352.147 88.2075 352.373 88.3431C352.601 88.4786 352.791 88.6832 352.941 88.9568C353.092 89.2305 353.167 89.597 353.167 90.0563V93.8669H352.278V93.0837H352.233C352.173 93.2093 352.073 93.3436 351.932 93.4866C351.791 93.6297 351.604 93.7515 351.371 93.8519C351.137 93.9523 350.853 94.0025 350.516 94.0025ZM350.652 93.2042C351.003 93.2042 351.299 93.1352 351.54 92.9971C351.784 92.8591 351.967 92.6808 352.09 92.4624C352.216 92.244 352.278 92.0144 352.278 91.7734V90.96C352.241 91.0052 352.158 91.0466 352.03 91.0843C351.904 91.1194 351.759 91.1508 351.593 91.1784C351.43 91.2035 351.271 91.2261 351.115 91.2462C350.962 91.2638 350.838 91.2788 350.742 91.2914C350.511 91.3215 350.295 91.3705 350.094 91.4383C349.896 91.5035 349.736 91.6027 349.612 91.7357C349.492 91.8663 349.432 92.0445 349.432 92.2704C349.432 92.5792 349.546 92.8126 349.774 92.9708C350.005 93.1264 350.298 93.2042 350.652 93.2042ZM355.678 86.1554V93.8669H354.789V86.1554H355.678Z" fill="black"/>
<rect x="138.879" y="115.246" width="235.243" height="40.8172" rx="3.62131" fill="#FDFDFC"/>
<rect x="138.879" y="115.246" width="235.243" height="40.8172" rx="3.62131" stroke="#DBDBD7" stroke-width="0.757386"/>
<path d="M148.522 130.654V122.942H151.128C151.731 122.942 152.225 123.045 152.612 123.251C152.998 123.454 153.284 123.734 153.47 124.091C153.656 124.447 153.749 124.853 153.749 125.307C153.749 125.761 153.656 126.164 153.47 126.516C153.284 126.867 153 127.143 152.615 127.344C152.231 127.542 151.741 127.642 151.143 127.642H149.035V126.798H151.113C151.525 126.798 151.856 126.738 152.107 126.617C152.361 126.497 152.544 126.326 152.657 126.105C152.772 125.882 152.83 125.616 152.83 125.307C152.83 124.998 152.772 124.728 152.657 124.497C152.541 124.267 152.357 124.088 152.103 123.963C151.85 123.835 151.515 123.771 151.098 123.771H149.456V130.654H148.522ZM152.152 127.19L154.05 130.654H152.966L151.098 127.19H152.152ZM157.547 130.774C156.99 130.774 156.509 130.651 156.105 130.405C155.703 130.157 155.393 129.81 155.175 129.366C154.959 128.919 154.851 128.4 154.851 127.807C154.851 127.215 154.959 126.693 155.175 126.241C155.393 125.787 155.697 125.433 156.086 125.179C156.478 124.923 156.935 124.795 157.457 124.795C157.758 124.795 158.056 124.845 158.349 124.946C158.643 125.046 158.91 125.209 159.151 125.435C159.392 125.658 159.584 125.955 159.727 126.324C159.87 126.693 159.942 127.147 159.942 127.687V128.063H155.484V127.295H159.038C159.038 126.969 158.973 126.678 158.843 126.422C158.714 126.166 158.531 125.963 158.293 125.815C158.057 125.667 157.778 125.593 157.457 125.593C157.103 125.593 156.797 125.681 156.538 125.857C156.282 126.03 156.085 126.256 155.947 126.535C155.809 126.813 155.74 127.112 155.74 127.431V127.943C155.74 128.38 155.815 128.75 155.966 129.054C156.119 129.355 156.331 129.585 156.602 129.743C156.873 129.898 157.188 129.976 157.547 129.976C157.781 129.976 157.992 129.944 158.18 129.878C158.371 129.81 158.535 129.71 158.673 129.577C158.811 129.441 158.918 129.273 158.993 129.072L159.852 129.313C159.761 129.605 159.609 129.861 159.396 130.082C159.183 130.3 158.919 130.471 158.605 130.594C158.292 130.714 157.939 130.774 157.547 130.774ZM162.996 130.789C162.629 130.789 162.297 130.72 161.998 130.582C161.699 130.442 161.462 130.24 161.286 129.976C161.111 129.71 161.023 129.389 161.023 129.012C161.023 128.681 161.088 128.412 161.218 128.206C161.349 127.998 161.523 127.835 161.742 127.717C161.96 127.599 162.201 127.511 162.465 127.453C162.731 127.393 162.998 127.345 163.267 127.31C163.618 127.265 163.903 127.231 164.122 127.209C164.343 127.183 164.503 127.142 164.604 127.084C164.707 127.027 164.758 126.926 164.758 126.783V126.753C164.758 126.381 164.656 126.093 164.453 125.887C164.252 125.681 163.947 125.578 163.538 125.578C163.114 125.578 162.781 125.671 162.54 125.857C162.299 126.043 162.13 126.241 162.032 126.452L161.188 126.15C161.339 125.799 161.54 125.525 161.791 125.33C162.044 125.131 162.32 124.993 162.619 124.915C162.92 124.835 163.217 124.795 163.508 124.795C163.694 124.795 163.907 124.818 164.148 124.863C164.391 124.905 164.626 124.995 164.852 125.13C165.081 125.266 165.27 125.47 165.421 125.744C165.571 126.017 165.647 126.384 165.647 126.843V130.654H164.758V129.871H164.713C164.653 129.996 164.552 130.131 164.412 130.274C164.271 130.417 164.084 130.538 163.851 130.639C163.617 130.739 163.332 130.789 162.996 130.789ZM163.131 129.991C163.483 129.991 163.779 129.922 164.02 129.784C164.263 129.646 164.447 129.468 164.57 129.249C164.695 129.031 164.758 128.801 164.758 128.56V127.747C164.72 127.792 164.637 127.834 164.509 127.871C164.384 127.906 164.238 127.938 164.073 127.965C163.91 127.991 163.75 128.013 163.594 128.033C163.441 128.051 163.317 128.066 163.222 128.078C162.991 128.109 162.775 128.157 162.574 128.225C162.376 128.291 162.215 128.39 162.092 128.523C161.972 128.653 161.911 128.831 161.911 129.057C161.911 129.366 162.026 129.6 162.254 129.758C162.485 129.913 162.777 129.991 163.131 129.991ZM171.365 126.166L170.567 126.391C170.517 126.258 170.443 126.129 170.345 126.004C170.25 125.876 170.119 125.77 169.953 125.687C169.788 125.605 169.576 125.563 169.317 125.563C168.963 125.563 168.668 125.645 168.432 125.808C168.199 125.968 168.082 126.173 168.082 126.422C168.082 126.643 168.162 126.817 168.323 126.945C168.484 127.073 168.735 127.18 169.076 127.265L169.934 127.476C170.452 127.601 170.837 127.793 171.09 128.052C171.344 128.308 171.471 128.638 171.471 129.042C171.471 129.374 171.375 129.67 171.185 129.931C170.996 130.192 170.733 130.398 170.394 130.548C170.055 130.699 169.661 130.774 169.212 130.774C168.622 130.774 168.133 130.646 167.747 130.39C167.36 130.134 167.115 129.76 167.013 129.268L167.856 129.057C167.936 129.369 168.088 129.602 168.312 129.758C168.538 129.913 168.832 129.991 169.196 129.991C169.611 129.991 169.94 129.903 170.183 129.728C170.429 129.549 170.552 129.336 170.552 129.088C170.552 128.887 170.482 128.719 170.341 128.583C170.201 128.445 169.985 128.342 169.693 128.274L168.73 128.048C168.2 127.923 167.811 127.728 167.562 127.465C167.316 127.199 167.193 126.866 167.193 126.467C167.193 126.14 167.285 125.852 167.468 125.601C167.654 125.35 167.906 125.153 168.225 125.01C168.546 124.866 168.91 124.795 169.317 124.795C169.889 124.795 170.339 124.92 170.665 125.171C170.994 125.423 171.227 125.754 171.365 126.166ZM175.158 130.774C174.636 130.774 174.178 130.65 173.784 130.402C173.392 130.153 173.086 129.805 172.865 129.359C172.647 128.912 172.537 128.39 172.537 127.792C172.537 127.19 172.647 126.664 172.865 126.215C173.086 125.765 173.392 125.416 173.784 125.168C174.178 124.919 174.636 124.795 175.158 124.795C175.68 124.795 176.137 124.919 176.529 125.168C176.923 125.416 177.229 125.765 177.447 126.215C177.668 126.664 177.779 127.19 177.779 127.792C177.779 128.39 177.668 128.912 177.447 129.359C177.229 129.805 176.923 130.153 176.529 130.402C176.137 130.65 175.68 130.774 175.158 130.774ZM175.158 129.976C175.555 129.976 175.881 129.874 176.137 129.671C176.393 129.468 176.583 129.2 176.706 128.869C176.829 128.538 176.89 128.179 176.89 127.792C176.89 127.406 176.829 127.045 176.706 126.712C176.583 126.378 176.393 126.108 176.137 125.902C175.881 125.696 175.555 125.593 175.158 125.593C174.761 125.593 174.435 125.696 174.179 125.902C173.923 126.108 173.733 126.378 173.61 126.712C173.487 127.045 173.426 127.406 173.426 127.792C173.426 128.179 173.487 128.538 173.61 128.869C173.733 129.2 173.923 129.468 174.179 129.671C174.435 129.874 174.761 129.976 175.158 129.976ZM180.024 127.175V130.654H179.135V124.87H179.994V125.774H180.069C180.205 125.48 180.41 125.244 180.687 125.066C180.963 124.885 181.319 124.795 181.756 124.795C182.148 124.795 182.49 124.875 182.784 125.036C183.078 125.194 183.306 125.435 183.469 125.759C183.632 126.08 183.714 126.487 183.714 126.979V130.654H182.825V127.039C182.825 126.585 182.707 126.231 182.471 125.977C182.235 125.721 181.912 125.593 181.5 125.593C181.216 125.593 180.963 125.655 180.739 125.778C180.518 125.901 180.344 126.08 180.216 126.316C180.088 126.552 180.024 126.838 180.024 127.175Z" fill="#90908C"/>
<rect x="203.426" y="174.442" width="106.148" height="30.2955" rx="3.02955" fill="#974EF2"/>
<path d="M211.818 193.089V185.378H214.71C215.302 185.378 215.799 185.481 216.201 185.686C216.605 185.892 216.91 186.181 217.116 186.552C217.324 186.921 217.429 187.352 217.429 187.844C217.429 188.339 217.323 188.768 217.112 189.132C216.904 189.493 216.596 189.773 216.19 189.971C215.783 190.167 215.284 190.265 214.691 190.265H212.631V189.105H214.503C214.849 189.105 215.133 189.058 215.354 188.962C215.575 188.864 215.738 188.723 215.843 188.537C215.951 188.349 216.005 188.118 216.005 187.844C216.005 187.57 215.951 187.337 215.843 187.144C215.735 186.948 215.571 186.8 215.35 186.699C215.129 186.596 214.844 186.545 214.495 186.545H213.215V193.089H211.818ZM215.802 189.595L217.711 193.089H216.152L214.277 189.595H215.802ZM221.132 193.202C220.552 193.202 220.051 193.082 219.63 192.841C219.21 192.597 218.888 192.253 218.662 191.809C218.436 191.362 218.323 190.836 218.323 190.231C218.323 189.636 218.436 189.114 218.662 188.665C218.89 188.213 219.209 187.862 219.618 187.611C220.027 187.357 220.508 187.23 221.06 187.23C221.417 187.23 221.753 187.288 222.07 187.403C222.388 187.516 222.669 187.692 222.913 187.931C223.159 188.169 223.352 188.473 223.493 188.842C223.633 189.208 223.704 189.645 223.704 190.152V190.57H218.963V189.651H222.397C222.395 189.39 222.338 189.158 222.228 188.955C222.117 188.749 221.963 188.587 221.765 188.469C221.569 188.351 221.34 188.292 221.079 188.292C220.801 188.292 220.556 188.36 220.345 188.495C220.134 188.628 219.97 188.804 219.852 189.023C219.736 189.238 219.677 189.476 219.675 189.734V190.536C219.675 190.873 219.736 191.161 219.859 191.402C219.982 191.641 220.154 191.824 220.375 191.952C220.596 192.078 220.855 192.14 221.151 192.14C221.349 192.14 221.529 192.113 221.689 192.058C221.85 192 221.989 191.916 222.107 191.805C222.225 191.695 222.314 191.558 222.375 191.395L223.647 191.538C223.567 191.874 223.414 192.168 223.188 192.419C222.964 192.668 222.678 192.861 222.329 192.999C221.98 193.134 221.581 193.202 221.132 193.202ZM228.716 195.258V192.178H228.66C228.59 192.319 228.488 192.468 228.355 192.626C228.222 192.782 228.046 192.915 227.828 193.025C227.609 193.136 227.335 193.191 227.003 193.191C226.549 193.191 226.142 193.074 225.783 192.841C225.424 192.607 225.141 192.268 224.932 191.824C224.724 191.38 224.62 190.84 224.62 190.205C224.62 189.562 224.725 189.02 224.936 188.578C225.149 188.134 225.437 187.799 225.798 187.573C226.16 187.344 226.563 187.23 227.007 187.23C227.346 187.23 227.624 187.288 227.843 187.403C228.061 187.516 228.234 187.653 228.362 187.814C228.49 187.972 228.59 188.121 228.66 188.262H228.743V187.306H230.083V195.258H228.716ZM227.383 192.073C227.672 192.073 227.918 191.995 228.121 191.839C228.325 191.681 228.479 191.461 228.585 191.18C228.69 190.899 228.743 190.571 228.743 190.197C228.743 189.823 228.69 189.498 228.585 189.222C228.482 188.946 228.329 188.731 228.125 188.578C227.924 188.425 227.677 188.349 227.383 188.349C227.08 188.349 226.826 188.428 226.623 188.586C226.42 188.744 226.266 188.962 226.163 189.241C226.061 189.52 226.009 189.838 226.009 190.197C226.009 190.559 226.061 190.881 226.163 191.165C226.269 191.446 226.423 191.668 226.627 191.832C226.832 191.992 227.085 192.073 227.383 192.073ZM235.17 190.657V187.306H236.533V193.089H235.212V192.061H235.152C235.021 192.385 234.806 192.65 234.508 192.856C234.211 193.062 233.846 193.165 233.412 193.165C233.033 193.165 232.698 193.08 232.407 192.912C232.118 192.742 231.892 192.494 231.729 192.17C231.566 191.844 231.484 191.45 231.484 190.988V187.306H232.847V190.777C232.847 191.144 232.947 191.435 233.148 191.651C233.349 191.867 233.613 191.975 233.939 191.975C234.14 191.975 234.334 191.926 234.523 191.828C234.711 191.73 234.865 191.584 234.986 191.391C235.109 191.195 235.17 190.95 235.17 190.657ZM240.496 193.202C239.916 193.202 239.415 193.082 238.993 192.841C238.574 192.597 238.251 192.253 238.025 191.809C237.8 191.362 237.687 190.836 237.687 190.231C237.687 189.636 237.8 189.114 238.025 188.665C238.254 188.213 238.573 187.862 238.982 187.611C239.391 187.357 239.872 187.23 240.424 187.23C240.78 187.23 241.117 187.288 241.433 187.403C241.752 187.516 242.033 187.692 242.277 187.931C242.523 188.169 242.716 188.473 242.856 188.842C242.997 189.208 243.067 189.645 243.067 190.152V190.57H238.327V189.651H241.761C241.758 189.39 241.702 189.158 241.591 188.955C241.481 188.749 241.326 188.587 241.128 188.469C240.932 188.351 240.704 188.292 240.443 188.292C240.164 188.292 239.919 188.36 239.709 188.495C239.498 188.628 239.333 188.804 239.215 189.023C239.1 189.238 239.041 189.476 239.038 189.734V190.536C239.038 190.873 239.1 191.161 239.223 191.402C239.346 191.641 239.518 191.824 239.739 191.952C239.96 192.078 240.218 192.14 240.514 192.14C240.713 192.14 240.892 192.113 241.053 192.058C241.214 192 241.353 191.916 241.471 191.805C241.589 191.695 241.678 191.558 241.738 191.395L243.011 191.538C242.931 191.874 242.777 192.168 242.551 192.419C242.328 192.668 242.042 192.861 241.693 192.999C241.344 193.134 240.945 193.202 240.496 193.202ZM248.792 188.834L247.549 188.97C247.514 188.844 247.452 188.726 247.365 188.616C247.279 188.505 247.164 188.416 247.018 188.349C246.873 188.281 246.694 188.247 246.484 188.247C246.2 188.247 245.961 188.308 245.768 188.431C245.577 188.554 245.483 188.714 245.486 188.91C245.483 189.078 245.545 189.215 245.67 189.32C245.798 189.425 246.009 189.512 246.303 189.58L247.289 189.791C247.837 189.909 248.243 190.096 248.509 190.352C248.778 190.608 248.913 190.943 248.916 191.357C248.913 191.721 248.807 192.042 248.596 192.321C248.388 192.597 248.098 192.813 247.726 192.969C247.355 193.124 246.928 193.202 246.446 193.202C245.738 193.202 245.168 193.054 244.736 192.758C244.305 192.459 244.047 192.044 243.964 191.512L245.294 191.383C245.354 191.645 245.482 191.842 245.678 191.975C245.874 192.108 246.128 192.174 246.442 192.174C246.766 192.174 247.026 192.108 247.222 191.975C247.42 191.842 247.519 191.677 247.519 191.481C247.519 191.316 247.455 191.179 247.327 191.071C247.201 190.963 247.006 190.88 246.74 190.822L245.753 190.615C245.198 190.5 244.788 190.305 244.522 190.032C244.256 189.756 244.124 189.407 244.126 188.985C244.124 188.628 244.221 188.32 244.416 188.059C244.615 187.795 244.889 187.592 245.241 187.449C245.595 187.303 246.003 187.23 246.465 187.23C247.142 187.23 247.676 187.375 248.065 187.663C248.457 187.952 248.699 188.342 248.792 188.834ZM252.928 187.306V188.36H249.603V187.306H252.928ZM250.424 185.92H251.787V191.35C251.787 191.533 251.815 191.673 251.87 191.771C251.928 191.867 252.003 191.932 252.096 191.967C252.189 192.002 252.292 192.02 252.405 192.02C252.49 192.02 252.568 192.014 252.638 192.001C252.711 191.988 252.766 191.977 252.804 191.967L253.033 193.033C252.961 193.058 252.856 193.085 252.721 193.116C252.588 193.146 252.425 193.163 252.231 193.168C251.89 193.178 251.583 193.127 251.309 193.014C251.035 192.898 250.818 192.72 250.657 192.479C250.499 192.238 250.422 191.937 250.424 191.576V185.92ZM257.749 193.089H256.258L258.972 185.378H260.697L263.416 193.089H261.925L259.865 186.959H259.805L257.749 193.089ZM257.798 190.066H261.864V191.188H257.798V190.066ZM264.371 195.258V187.306H265.712V188.262H265.791C265.861 188.121 265.96 187.972 266.088 187.814C266.216 187.653 266.389 187.516 266.608 187.403C266.826 187.288 267.105 187.23 267.444 187.23C267.891 187.23 268.293 187.344 268.652 187.573C269.014 187.799 269.3 188.134 269.511 188.578C269.724 189.02 269.831 189.562 269.831 190.205C269.831 190.84 269.727 191.38 269.518 191.824C269.31 192.268 269.026 192.607 268.667 192.841C268.309 193.074 267.902 193.191 267.447 193.191C267.116 193.191 266.841 193.136 266.623 193.025C266.404 192.915 266.229 192.782 266.096 192.626C265.965 192.468 265.863 192.319 265.791 192.178H265.734V195.258H264.371ZM265.708 190.197C265.708 190.571 265.761 190.899 265.866 191.18C265.974 191.461 266.128 191.681 266.329 191.839C266.532 191.995 266.778 192.073 267.067 192.073C267.368 192.073 267.621 191.992 267.824 191.832C268.027 191.668 268.18 191.446 268.283 191.165C268.389 190.881 268.442 190.559 268.442 190.197C268.442 189.838 268.39 189.52 268.287 189.241C268.184 188.962 268.031 188.744 267.828 188.586C267.624 188.428 267.371 188.349 267.067 188.349C266.776 188.349 266.529 188.425 266.325 188.578C266.122 188.731 265.968 188.946 265.862 189.222C265.759 189.498 265.708 189.823 265.708 190.197ZM270.998 195.258V187.306H272.339V188.262H272.418C272.488 188.121 272.587 187.972 272.715 187.814C272.843 187.653 273.017 187.516 273.235 187.403C273.453 187.288 273.732 187.23 274.071 187.23C274.518 187.23 274.921 187.344 275.28 187.573C275.641 187.799 275.927 188.134 276.138 188.578C276.351 189.02 276.458 189.562 276.458 190.205C276.458 190.84 276.354 191.38 276.146 191.824C275.937 192.268 275.654 192.607 275.295 192.841C274.936 193.074 274.529 193.191 274.075 193.191C273.743 193.191 273.468 193.136 273.25 193.025C273.032 192.915 272.856 192.782 272.723 192.626C272.592 192.468 272.491 192.319 272.418 192.178H272.361V195.258H270.998ZM272.335 190.197C272.335 190.571 272.388 190.899 272.493 191.18C272.601 191.461 272.755 191.681 272.956 191.839C273.16 191.995 273.406 192.073 273.694 192.073C273.996 192.073 274.248 191.992 274.451 191.832C274.654 191.668 274.808 191.446 274.911 191.165C275.016 190.881 275.069 190.559 275.069 190.197C275.069 189.838 275.017 189.52 274.914 189.241C274.811 188.962 274.658 188.744 274.455 188.586C274.252 188.428 273.998 188.349 273.694 188.349C273.403 188.349 273.156 188.425 272.953 188.578C272.749 188.731 272.595 188.946 272.489 189.222C272.386 189.498 272.335 189.823 272.335 190.197ZM277.625 193.089V187.306H278.947V188.27H279.007C279.113 187.936 279.293 187.678 279.55 187.498C279.808 187.314 280.103 187.223 280.434 187.223C280.51 187.223 280.594 187.226 280.687 187.234C280.782 187.239 280.861 187.248 280.924 187.26V188.514C280.866 188.494 280.775 188.477 280.649 188.462C280.526 188.444 280.407 188.435 280.291 188.435C280.043 188.435 279.819 188.489 279.621 188.597C279.425 188.703 279.271 188.849 279.158 189.038C279.045 189.226 278.988 189.443 278.988 189.689V193.089H277.625ZM284.114 193.202C283.549 193.202 283.06 193.078 282.646 192.829C282.231 192.581 281.91 192.233 281.682 191.786C281.456 191.34 281.343 190.817 281.343 190.22C281.343 189.623 281.456 189.099 281.682 188.65C281.91 188.2 282.231 187.852 282.646 187.603C283.06 187.355 283.549 187.23 284.114 187.23C284.679 187.23 285.168 187.355 285.583 187.603C285.997 187.852 286.317 188.2 286.543 188.65C286.771 189.099 286.885 189.623 286.885 190.22C286.885 190.817 286.771 191.34 286.543 191.786C286.317 192.233 285.997 192.581 285.583 192.829C285.168 193.078 284.679 193.202 284.114 193.202ZM284.122 192.11C284.428 192.11 284.684 192.026 284.89 191.858C285.096 191.687 285.249 191.459 285.349 191.173C285.452 190.886 285.504 190.568 285.504 190.216C285.504 189.862 285.452 189.542 285.349 189.256C285.249 188.967 285.096 188.738 284.89 188.567C284.684 188.396 284.428 188.311 284.122 188.311C283.808 188.311 283.547 188.396 283.338 188.567C283.133 188.738 282.978 188.967 282.875 189.256C282.775 189.542 282.725 189.862 282.725 190.216C282.725 190.568 282.775 190.886 282.875 191.173C282.978 191.459 283.133 191.687 283.338 191.858C283.547 192.026 283.808 192.11 284.122 192.11ZM293.012 187.306L290.952 193.089H289.446L287.386 187.306H288.84L290.169 191.602H290.229L291.562 187.306H293.012ZM295.454 193.206C295.087 193.206 294.757 193.141 294.463 193.01C294.172 192.877 293.941 192.681 293.771 192.423C293.602 192.164 293.518 191.845 293.518 191.466C293.518 191.14 293.579 190.87 293.699 190.657C293.82 190.443 293.984 190.273 294.192 190.145C294.401 190.017 294.635 189.92 294.896 189.855C295.16 189.787 295.432 189.738 295.714 189.708C296.052 189.673 296.327 189.641 296.538 189.614C296.749 189.584 296.902 189.538 296.998 189.478C297.095 189.415 297.144 189.319 297.144 189.188V189.166C297.144 188.882 297.06 188.662 296.892 188.507C296.724 188.351 296.482 188.273 296.165 188.273C295.831 188.273 295.567 188.346 295.371 188.492C295.178 188.637 295.047 188.809 294.979 189.008L293.707 188.827C293.807 188.475 293.973 188.182 294.204 187.946C294.435 187.707 294.717 187.529 295.051 187.411C295.385 187.29 295.754 187.23 296.158 187.23C296.436 187.23 296.714 187.263 296.99 187.328C297.266 187.393 297.518 187.501 297.747 187.652C297.975 187.8 298.159 188.002 298.297 188.258C298.437 188.514 298.507 188.834 298.507 189.218V193.089H297.197V192.295H297.152C297.069 192.455 296.952 192.606 296.802 192.747C296.654 192.885 296.467 192.996 296.241 193.082C296.017 193.165 295.755 193.206 295.454 193.206ZM295.808 192.204C296.081 192.204 296.318 192.15 296.519 192.042C296.72 191.932 296.875 191.786 296.982 191.606C297.093 191.425 297.148 191.228 297.148 191.014V190.333C297.105 190.368 297.033 190.401 296.93 190.431C296.829 190.461 296.716 190.487 296.591 190.51C296.465 190.533 296.341 190.553 296.218 190.57C296.095 190.588 295.988 190.603 295.898 190.615C295.695 190.643 295.513 190.688 295.352 190.751C295.191 190.814 295.065 190.902 294.972 191.014C294.879 191.125 294.832 191.268 294.832 191.444C294.832 191.695 294.924 191.884 295.107 192.012C295.291 192.14 295.524 192.204 295.808 192.204ZM301.241 185.378V193.089H299.878V185.378H301.241Z" fill="white"/>
<circle cx="207.228" cy="231.962" r="9.22515" fill="#E9E9E6" stroke="#DBDBD7" stroke-width="0.757386"/>
<g clip-path="url(#clip2_11902_3745)">
<path d="M206.945 224.594C202.993 224.594 203.188 228.998 202.954 231.803C202.951 231.844 202.965 231.884 202.993 231.915C203.021 231.945 203.06 231.962 203.101 231.962H205.459C205.537 231.962 205.602 231.901 205.606 231.823L205.815 228.284C205.859 227.536 206.478 226.951 207.228 226.951C207.977 226.951 208.597 227.536 208.641 228.284L208.849 231.823C208.854 231.901 208.918 231.962 208.996 231.962H211.354C211.395 231.962 211.435 231.945 211.463 231.915C211.49 231.884 211.504 231.844 211.501 231.803L211.182 227.972C211.023 226.062 209.426 224.594 207.51 224.594H206.945Z" fill="#706F6C"/>
<path d="M207.228 237.857C205.317 237.857 203.961 237.813 203.088 237.77C202.155 237.724 201.368 237.051 201.277 236.082C201.226 235.538 201.185 234.81 201.185 233.878C201.185 232.946 201.226 232.218 201.277 231.674C201.368 230.705 202.155 230.032 203.088 229.986C203.961 229.943 205.317 229.899 207.228 229.899C209.138 229.899 210.494 229.943 211.367 229.986C212.3 230.032 213.088 230.705 213.178 231.674C213.229 232.218 213.27 232.946 213.27 233.878C213.27 234.81 213.229 235.538 213.178 236.082C213.088 237.051 212.3 237.724 211.367 237.77C210.494 237.813 209.138 237.857 207.228 237.857Z" fill="url(#paint0_linear_11902_3745)"/>
<path fill-rule="evenodd" clip-rule="evenodd" d="M209.812 232.513C210.033 232.192 209.951 231.752 209.63 231.532C209.308 231.312 208.869 231.393 208.649 231.715L207.219 233.798L206.463 232.958C206.202 232.669 205.756 232.646 205.466 232.906C205.177 233.167 205.154 233.613 205.414 233.903L206.77 235.407C206.915 235.568 207.125 235.653 207.341 235.639C207.556 235.625 207.753 235.513 207.876 235.335L209.812 232.513Z" fill="#1B1B18"/>
</g>
<path d="M225.574 229.323C225.534 228.984 225.371 228.721 225.086 228.533C224.8 228.346 224.45 228.252 224.035 228.252C223.732 228.252 223.467 228.301 223.239 228.399C223.014 228.498 222.838 228.633 222.71 228.804C222.585 228.976 222.523 229.171 222.523 229.39C222.523 229.573 222.567 229.73 222.654 229.862C222.743 229.991 222.856 230.099 222.995 230.186C223.133 230.271 223.278 230.341 223.43 230.397C223.581 230.45 223.721 230.494 223.848 230.527L224.544 230.715C224.722 230.762 224.921 230.826 225.139 230.909C225.36 230.991 225.571 231.104 225.772 231.247C225.975 231.387 226.142 231.568 226.274 231.789C226.405 232.01 226.471 232.281 226.471 232.602C226.471 232.972 226.374 233.307 226.18 233.606C225.988 233.905 225.707 234.142 225.337 234.318C224.969 234.495 224.522 234.583 223.995 234.583C223.504 234.583 223.08 234.503 222.72 234.345C222.364 234.187 222.082 233.966 221.877 233.683C221.674 233.399 221.559 233.07 221.533 232.696H222.389C222.411 232.954 222.498 233.168 222.65 233.338C222.804 233.505 222.998 233.63 223.232 233.713C223.469 233.793 223.723 233.833 223.995 233.833C224.312 233.833 224.596 233.782 224.848 233.679C225.1 233.574 225.3 233.429 225.447 233.244C225.594 233.057 225.668 232.838 225.668 232.588C225.668 232.361 225.605 232.176 225.477 232.033C225.35 231.89 225.183 231.774 224.976 231.685C224.768 231.596 224.544 231.518 224.303 231.451L223.46 231.21C222.925 231.056 222.501 230.836 222.188 230.551C221.876 230.265 221.72 229.892 221.72 229.43C221.72 229.046 221.824 228.712 222.031 228.426C222.241 228.139 222.522 227.915 222.874 227.757C223.229 227.596 223.625 227.516 224.062 227.516C224.504 227.516 224.896 227.595 225.24 227.754C225.583 227.91 225.855 228.124 226.056 228.396C226.259 228.668 226.366 228.977 226.377 229.323H225.574ZM229.883 234.569C229.388 234.569 228.961 234.46 228.602 234.241C228.245 234.021 227.969 233.713 227.775 233.318C227.583 232.921 227.487 232.459 227.487 231.933C227.487 231.406 227.583 230.942 227.775 230.541C227.969 230.137 228.239 229.823 228.585 229.597C228.933 229.37 229.339 229.256 229.803 229.256C230.07 229.256 230.335 229.301 230.596 229.39C230.857 229.479 231.094 229.624 231.308 229.825C231.522 230.023 231.693 230.287 231.82 230.614C231.947 230.942 232.011 231.346 232.011 231.826V232.16H228.05V231.478H231.208C231.208 231.188 231.15 230.929 231.034 230.701C230.92 230.474 230.757 230.294 230.546 230.163C230.336 230.031 230.088 229.965 229.803 229.965C229.488 229.965 229.216 230.043 228.986 230.2C228.759 230.353 228.584 230.554 228.461 230.802C228.338 231.049 228.277 231.315 228.277 231.598V232.053C228.277 232.441 228.344 232.77 228.478 233.04C228.614 233.308 228.802 233.512 229.043 233.652C229.284 233.791 229.564 233.86 229.883 233.86C230.09 233.86 230.278 233.831 230.445 233.773C230.615 233.713 230.761 233.623 230.883 233.505C231.006 233.385 231.101 233.235 231.168 233.057L231.931 233.271C231.85 233.53 231.715 233.757 231.526 233.954C231.336 234.148 231.102 234.299 230.823 234.409C230.544 234.516 230.231 234.569 229.883 234.569ZM235.3 234.569C234.818 234.569 234.403 234.455 234.055 234.228C233.707 234 233.44 233.687 233.252 233.288C233.065 232.888 232.971 232.432 232.971 231.919C232.971 231.397 233.067 230.937 233.259 230.537C233.453 230.136 233.723 229.823 234.069 229.597C234.417 229.37 234.823 229.256 235.287 229.256C235.648 229.256 235.974 229.323 236.264 229.457C236.554 229.591 236.791 229.778 236.976 230.019C237.161 230.26 237.276 230.541 237.321 230.862H236.531C236.471 230.628 236.337 230.42 236.13 230.24C235.925 230.057 235.648 229.965 235.3 229.965C234.992 229.965 234.722 230.046 234.49 230.206C234.261 230.365 234.081 230.589 233.952 230.879C233.824 231.167 233.761 231.504 233.761 231.893C233.761 232.29 233.823 232.635 233.948 232.93C234.075 233.224 234.254 233.453 234.484 233.616C234.716 233.778 234.988 233.86 235.3 233.86C235.505 233.86 235.691 233.824 235.859 233.753C236.026 233.681 236.168 233.579 236.284 233.445C236.4 233.311 236.482 233.151 236.531 232.963H237.321C237.276 233.267 237.166 233.54 236.99 233.783C236.816 234.024 236.585 234.216 236.297 234.358C236.011 234.499 235.679 234.569 235.3 234.569ZM241.714 232.361V229.323H242.504V234.462H241.714V233.592H241.66C241.54 233.853 241.353 234.075 241.098 234.258C240.844 234.439 240.523 234.529 240.135 234.529C239.813 234.529 239.528 234.459 239.278 234.318C239.028 234.176 238.832 233.961 238.689 233.676C238.547 233.388 238.475 233.026 238.475 232.588V229.323H239.265V232.535C239.265 232.91 239.37 233.209 239.579 233.432C239.791 233.655 240.061 233.766 240.389 233.766C240.585 233.766 240.785 233.716 240.988 233.616C241.193 233.515 241.365 233.361 241.503 233.154C241.644 232.946 241.714 232.682 241.714 232.361ZM243.95 234.462V229.323H244.713V230.099H244.766C244.86 229.845 245.029 229.639 245.275 229.48C245.52 229.322 245.797 229.243 246.105 229.243C246.162 229.243 246.235 229.244 246.322 229.246C246.409 229.248 246.475 229.252 246.519 229.256V230.059C246.493 230.052 246.431 230.042 246.335 230.029C246.242 230.013 246.142 230.005 246.038 230.005C245.788 230.005 245.565 230.058 245.368 230.163C245.174 230.265 245.02 230.408 244.907 230.591C244.795 230.772 244.739 230.978 244.739 231.21V234.462H243.95ZM249.454 234.569C248.959 234.569 248.531 234.46 248.172 234.241C247.815 234.021 247.54 233.713 247.346 233.318C247.154 232.921 247.058 232.459 247.058 231.933C247.058 231.406 247.154 230.942 247.346 230.541C247.54 230.137 247.81 229.823 248.156 229.597C248.503 229.37 248.909 229.256 249.373 229.256C249.641 229.256 249.905 229.301 250.166 229.39C250.427 229.479 250.665 229.624 250.879 229.825C251.093 230.023 251.264 230.287 251.391 230.614C251.518 230.942 251.582 231.346 251.582 231.826V232.16H247.62V231.478H250.779C250.779 231.188 250.721 230.929 250.605 230.701C250.491 230.474 250.328 230.294 250.116 230.163C249.906 230.031 249.659 229.965 249.373 229.965C249.059 229.965 248.787 230.043 248.557 230.2C248.329 230.353 248.154 230.554 248.032 230.802C247.909 231.049 247.848 231.315 247.848 231.598V232.053C247.848 232.441 247.915 232.77 248.048 233.04C248.185 233.308 248.373 233.512 248.614 233.652C248.855 233.791 249.135 233.86 249.454 233.86C249.661 233.86 249.848 233.831 250.016 233.773C250.185 233.713 250.331 233.623 250.454 233.505C250.577 233.385 250.672 233.235 250.738 233.057L251.501 233.271C251.421 233.53 251.286 233.757 251.096 233.954C250.907 234.148 250.673 234.299 250.394 234.409C250.115 234.516 249.802 234.569 249.454 234.569ZM254.723 234.569C254.295 234.569 253.917 234.461 253.589 234.245C253.261 234.026 253.005 233.718 252.82 233.321C252.634 232.922 252.542 232.45 252.542 231.906C252.542 231.366 252.634 230.898 252.82 230.501C253.005 230.104 253.262 229.797 253.592 229.581C253.923 229.364 254.304 229.256 254.737 229.256C255.071 229.256 255.336 229.312 255.53 229.423C255.726 229.533 255.875 229.658 255.978 229.798C256.083 229.936 256.164 230.05 256.222 230.139H256.289V227.61H257.079V234.462H256.316V233.673H256.222C256.164 233.766 256.082 233.884 255.975 234.027C255.868 234.168 255.715 234.294 255.516 234.405C255.318 234.515 255.054 234.569 254.723 234.569ZM254.83 233.86C255.147 233.86 255.415 233.777 255.633 233.612C255.852 233.445 256.018 233.214 256.132 232.92C256.246 232.623 256.303 232.281 256.303 231.893C256.303 231.509 256.247 231.173 256.135 230.885C256.024 230.595 255.859 230.37 255.64 230.21C255.422 230.047 255.152 229.965 254.83 229.965C254.496 229.965 254.217 230.051 253.994 230.223C253.773 230.393 253.607 230.623 253.495 230.916C253.386 231.206 253.332 231.531 253.332 231.893C253.332 232.258 253.387 232.591 253.499 232.89C253.613 233.186 253.78 233.423 254.001 233.599C254.224 233.773 254.5 233.86 254.83 233.86ZM261.392 234.462V227.61H262.181V230.139H262.248C262.306 230.05 262.386 229.936 262.489 229.798C262.594 229.658 262.743 229.533 262.937 229.423C263.134 229.312 263.399 229.256 263.734 229.256C264.166 229.256 264.548 229.364 264.878 229.581C265.208 229.797 265.466 230.104 265.651 230.501C265.836 230.898 265.929 231.366 265.929 231.906C265.929 232.45 265.836 232.922 265.651 233.321C265.466 233.718 265.209 234.026 264.881 234.245C264.553 234.461 264.175 234.569 263.747 234.569C263.417 234.569 263.153 234.515 262.954 234.405C262.756 234.294 262.603 234.168 262.496 234.027C262.389 233.884 262.306 233.766 262.248 233.673H262.155V234.462H261.392ZM262.168 231.893C262.168 232.281 262.225 232.623 262.339 232.92C262.452 233.214 262.618 233.445 262.837 233.612C263.056 233.777 263.323 233.86 263.64 233.86C263.97 233.86 264.246 233.773 264.466 233.599C264.69 233.423 264.857 233.186 264.968 232.89C265.082 232.591 265.139 232.258 265.139 231.893C265.139 231.531 265.083 231.206 264.972 230.916C264.862 230.623 264.696 230.393 264.473 230.223C264.252 230.051 263.975 229.965 263.64 229.965C263.319 229.965 263.049 230.047 262.83 230.21C262.612 230.37 262.447 230.595 262.335 230.885C262.224 231.173 262.168 231.509 262.168 231.893ZM267.461 236.389C267.327 236.389 267.208 236.378 267.103 236.356C266.998 236.336 266.926 236.316 266.886 236.296L267.086 235.6C267.278 235.649 267.448 235.667 267.595 235.653C267.742 235.64 267.873 235.574 267.986 235.456C268.102 235.34 268.208 235.151 268.304 234.89L268.451 234.489L266.551 229.323H267.407L268.826 233.418H268.88L270.298 229.323H271.155L268.973 235.212C268.875 235.477 268.754 235.697 268.609 235.871C268.464 236.047 268.295 236.177 268.103 236.262C267.914 236.347 267.7 236.389 267.461 236.389ZM274.8 234.462V227.61H277.37C277.896 227.61 278.338 227.708 278.695 227.904C279.054 228.101 279.325 228.37 279.508 228.714C279.693 229.055 279.785 229.443 279.785 229.878C279.785 230.318 279.693 230.708 279.508 231.049C279.323 231.391 279.049 231.659 278.688 231.856C278.327 232.05 277.882 232.147 277.353 232.147H275.65V231.126H277.186C277.494 231.126 277.746 231.073 277.942 230.966C278.138 230.859 278.283 230.711 278.377 230.524C278.473 230.337 278.521 230.121 278.521 229.878C278.521 229.635 278.473 229.421 278.377 229.236C278.283 229.051 278.137 228.907 277.939 228.804C277.742 228.7 277.489 228.647 277.179 228.647H276.041V234.462H274.8ZM283.012 234.563C282.496 234.563 282.051 234.455 281.677 234.241C281.304 234.025 281.018 233.719 280.817 233.325C280.616 232.928 280.516 232.46 280.516 231.923C280.516 231.394 280.616 230.93 280.817 230.531C281.02 230.129 281.303 229.817 281.667 229.594C282.03 229.369 282.457 229.256 282.948 229.256C283.265 229.256 283.564 229.307 283.845 229.41C284.128 229.51 284.378 229.666 284.594 229.878C284.813 230.09 284.985 230.36 285.109 230.688C285.234 231.014 285.297 231.402 285.297 231.852V232.224H281.084V231.407H284.136C284.134 231.175 284.083 230.969 283.985 230.788C283.887 230.606 283.75 230.462 283.574 230.357C283.4 230.252 283.197 230.2 282.965 230.2C282.717 230.2 282.5 230.26 282.312 230.38C282.125 230.498 281.979 230.655 281.874 230.849C281.771 231.04 281.719 231.251 281.717 231.481V232.194C281.717 232.493 281.771 232.749 281.881 232.963C281.99 233.175 282.143 233.338 282.339 233.452C282.535 233.563 282.765 233.619 283.028 233.619C283.205 233.619 283.364 233.594 283.507 233.545C283.65 233.494 283.773 233.419 283.878 233.321C283.983 233.223 284.062 233.102 284.116 232.957L285.247 233.084C285.175 233.383 285.039 233.644 284.838 233.867C284.64 234.087 284.386 234.259 284.076 234.382C283.766 234.502 283.411 234.563 283.012 234.563ZM286.322 234.462V229.323H287.496V230.179H287.549C287.643 229.883 287.804 229.654 288.031 229.494C288.261 229.331 288.523 229.249 288.818 229.249C288.884 229.249 288.959 229.253 289.042 229.259C289.126 229.264 289.197 229.272 289.252 229.283V230.397C289.201 230.379 289.12 230.364 289.008 230.35C288.899 230.335 288.793 230.327 288.69 230.327C288.47 230.327 288.271 230.375 288.095 230.471C287.921 230.564 287.784 230.695 287.683 230.862C287.583 231.029 287.533 231.222 287.533 231.441V234.462H286.322ZM290.057 234.462V229.323H291.215V230.196H291.275C291.382 229.902 291.559 229.672 291.807 229.507C292.055 229.34 292.35 229.256 292.694 229.256C293.042 229.256 293.335 229.341 293.574 229.51C293.815 229.678 293.984 229.906 294.082 230.196H294.136C294.249 229.911 294.441 229.683 294.711 229.514C294.983 229.342 295.306 229.256 295.678 229.256C296.151 229.256 296.537 229.405 296.836 229.704C297.135 230.003 297.284 230.439 297.284 231.013V234.462H296.07V231.2C296.07 230.881 295.985 230.648 295.815 230.501C295.646 230.351 295.438 230.277 295.193 230.277C294.901 230.277 294.672 230.368 294.507 230.551C294.344 230.732 294.263 230.967 294.263 231.257V234.462H293.075V231.15C293.075 230.884 292.995 230.672 292.834 230.514C292.676 230.356 292.468 230.277 292.212 230.277C292.038 230.277 291.88 230.321 291.737 230.41C291.594 230.497 291.48 230.621 291.395 230.782C291.311 230.94 291.268 231.125 291.268 231.337V234.462H290.057ZM298.513 234.462V229.323H299.724V234.462H298.513ZM299.122 228.594C298.93 228.594 298.765 228.53 298.627 228.403C298.488 228.273 298.419 228.118 298.419 227.938C298.419 227.755 298.488 227.6 298.627 227.473C298.765 227.343 298.93 227.279 299.122 227.279C299.316 227.279 299.481 227.343 299.617 227.473C299.755 227.6 299.824 227.755 299.824 227.938C299.824 228.118 299.755 228.273 299.617 228.403C299.481 228.53 299.316 228.594 299.122 228.594ZM303.536 229.323V230.26H300.581V229.323H303.536ZM301.311 228.092H302.522V232.916C302.522 233.079 302.547 233.204 302.596 233.291C302.647 233.376 302.714 233.434 302.796 233.465C302.879 233.496 302.97 233.512 303.071 233.512C303.147 233.512 303.216 233.506 303.278 233.495C303.343 233.484 303.392 233.474 303.425 233.465L303.63 234.412C303.565 234.434 303.472 234.459 303.352 234.486C303.234 234.512 303.089 234.528 302.917 234.532C302.614 234.541 302.34 234.496 302.097 234.395C301.854 234.293 301.661 234.134 301.518 233.92C301.378 233.706 301.309 233.438 301.311 233.117V228.092ZM305.295 234.536C305.092 234.536 304.918 234.464 304.773 234.322C304.628 234.179 304.557 234.005 304.559 233.8C304.557 233.599 304.628 233.427 304.773 233.284C304.918 233.142 305.092 233.07 305.295 233.07C305.491 233.07 305.662 233.142 305.807 233.284C305.954 233.427 306.029 233.599 306.031 233.8C306.029 233.936 305.993 234.06 305.924 234.171C305.857 234.283 305.768 234.372 305.656 234.439C305.547 234.503 305.427 234.536 305.295 234.536ZM307.282 234.462V229.323H308.493V234.462H307.282ZM307.89 228.594C307.699 228.594 307.534 228.53 307.395 228.403C307.257 228.273 307.188 228.118 307.188 227.938C307.188 227.755 307.257 227.6 307.395 227.473C307.534 227.343 307.699 227.279 307.89 227.279C308.085 227.279 308.25 227.343 308.386 227.473C308.524 227.6 308.593 227.755 308.593 227.938C308.593 228.118 308.524 228.273 308.386 228.403C308.25 228.53 308.085 228.594 307.89 228.594ZM311.98 234.563C311.478 234.563 311.043 234.452 310.675 234.231C310.307 234.01 310.021 233.702 309.819 233.304C309.618 232.907 309.517 232.444 309.517 231.913C309.517 231.382 309.618 230.917 309.819 230.517C310.021 230.118 310.307 229.808 310.675 229.587C311.043 229.366 311.478 229.256 311.98 229.256C312.482 229.256 312.917 229.366 313.285 229.587C313.653 229.808 313.937 230.118 314.138 230.517C314.341 230.917 314.442 231.382 314.442 231.913C314.442 232.444 314.341 232.907 314.138 233.304C313.937 233.702 313.653 234.01 313.285 234.231C312.917 234.452 312.482 234.563 311.98 234.563ZM311.987 233.592C312.259 233.592 312.486 233.518 312.669 233.368C312.852 233.216 312.988 233.013 313.077 232.759C313.169 232.505 313.215 232.222 313.215 231.909C313.215 231.595 313.169 231.31 313.077 231.056C312.988 230.8 312.852 230.595 312.669 230.444C312.486 230.292 312.259 230.216 311.987 230.216C311.708 230.216 311.476 230.292 311.291 230.444C311.108 230.595 310.971 230.8 310.879 231.056C310.79 231.31 310.745 231.595 310.745 231.909C310.745 232.222 310.79 232.505 310.879 232.759C310.971 233.013 311.108 233.216 311.291 233.368C311.476 233.518 311.708 233.592 311.987 233.592Z" fill="#1B1B18"/>
</g>
<rect x="1" y="1.0271" width="511" height="297" rx="20" stroke="#F2E8E4" stroke-width="2"/>
<defs>
<filter id="filter0_d_11902_3745" x="-129.55" y="-12.5496" width="658.099" height="483.099" filterUnits="userSpaceOnUse" color-interpolation-filters="sRGB">
<feFlood flood-opacity="0" result="BackgroundImageFix"/>
<feColorMatrix in="SourceAlpha" type="matrix" values="0 0 0 0 0 0 0 0 0 0 0 0 0 0 0 0 0 0 127 0" result="hardAlpha"/>
<feMorphology radius="2.70992" operator="dilate" in="SourceAlpha" result="effect1_dropShadow_11902_3745"/>
<feOffset/>
<feGaussianBlur stdDeviation="5.41984"/>
<feComposite in2="hardAlpha" operator="out"/>
<feColorMatrix type="matrix" values="0 0 0 0 0 0 0 0 0 0 0 0 0 0 0 0 0 0 0.1 0"/>
<feBlend mode="normal" in2="BackgroundImageFix" result="effect1_dropShadow_11902_3745"/>
<feBlend mode="normal" in="SourceGraphic" in2="effect1_dropShadow_11902_3745" result="shape"/>
</filter>
<linearGradient id="paint0_linear_11902_3745" x1="201.834" y1="230.814" x2="212.186" y2="237.857" gradientUnits="userSpaceOnUse">
<stop stop-color="#90908C"/>
<stop offset="1" stop-color="#BABAB6"/>
</linearGradient>
<clipPath id="clip0_11902_3745">
<rect x="1" y="1.0271" width="511" height="297" rx="20" fill="white"/>
</clipPath>
<clipPath id="clip1_11902_3745">
<rect x="-116" y="1" width="631" height="456" rx="10.8397" fill="white"/>
</clipPath>
<clipPath id="clip2_11902_3745">
<rect width="14.1478" height="14.1478" fill="white" transform="translate(200.154 224.151)"/>
</clipPath>
</defs>
</svg>
