<svg width="430" height="382" viewBox="0 0 430 382" fill="none" xmlns="http://www.w3.org/2000/svg">
<rect width="430" height="379" transform="translate(0 1.5)" fill="#1F1206"/>
<g clip-path="url(#clip0_11902_2522)">
<g filter="url(#filter0_d_11902_2522)">
<g clip-path="url(#clip1_11902_2522)">
<rect x="-157.5" y="1.4729" width="631" height="456" rx="10.8397" fill="#FDFCFC"/>
<path d="M-157.5 1.4729H484.753V29.6561H-157.5V1.4729Z" fill="#FDFCFC"/>
<rect x="1.84521" y="47.5415" width="207.58" height="143.626" rx="4.33587" fill="#F8F1EE"/>
<rect x="18.6436" y="174.366" width="74.7938" height="15.7176" rx="7.85879" transform="rotate(-90 18.6436 174.366)" fill="#FDFCFC"/>
<rect x="45.7429" y="174.366" width="74.7938" height="15.1756" rx="7.58779" transform="rotate(-90 45.7429 174.366)" fill="#FDFCFC"/>
<rect x="72.3" y="174.366" width="53.1144" height="16.2596" rx="8.12978" transform="rotate(-90 72.3 174.366)" fill="#FDFCFC"/>
<rect x="99.9414" y="174.366" width="37.9389" height="16.2596" rx="8.12978" transform="rotate(-90 99.9414 174.366)" fill="#FDFCFC"/>
<rect x="127.583" y="174.366" width="33.061" height="15.7176" rx="7.85878" transform="rotate(-90 127.583 174.366)" fill="#FDFCFC"/>
<rect x="154.682" y="174.366" width="37.9389" height="15.7176" rx="7.85878" transform="rotate(-90 154.682 174.366)" fill="#FDFCFC"/>
<rect x="181.781" y="174.366" width="20.0534" height="15.7176" rx="7.85878" transform="rotate(-90 181.781 174.366)" fill="#FDFCFC"/>
<rect x="1.84521" y="221.324" width="32.5191" height="32.519" rx="16.2595" fill="#F8F1EE"/>
<rect x="40.8682" y="221.324" width="107.313" height="15.7175" rx="7.85877" fill="#F8F1EE"/>
<rect x="40.8682" y="242.462" width="123.031" height="11.3817" rx="5.69083" fill="#FDF8F6"/>
<rect x="233.811" y="221.324" width="55.8245" height="15.7175" rx="7.85877" fill="#F8F1EE"/>
<rect x="233.812" y="242.462" width="55.8245" height="11.3817" rx="5.69083" fill="#FDF8F6"/>
<rect x="233.811" y="276.379" width="55.8245" height="15.7175" rx="7.85877" fill="#F8F1EE"/>
<rect x="233.812" y="297.516" width="55.8245" height="11.3817" rx="5.69083" fill="#FDF8F6"/>
<rect x="233.811" y="330.892" width="55.8245" height="15.7175" rx="7.85877" fill="#F8F1EE"/>
<rect x="233.812" y="352.029" width="55.8245" height="11.3817" rx="5.69083" fill="#FDF8F6"/>
<rect x="309.958" y="221.324" width="55.2825" height="15.7175" rx="7.85877" fill="#F8F1EE"/>
<rect x="309.958" y="242.462" width="55.2825" height="11.3817" rx="5.69083" fill="#FDF8F6"/>
<rect x="309.958" y="276.379" width="55.2825" height="15.7175" rx="7.85877" fill="#F8F1EE"/>
<rect x="309.958" y="297.516" width="55.2825" height="11.3817" rx="5.69083" fill="#FDF8F6"/>
<rect x="309.958" y="330.892" width="55.2825" height="15.7175" rx="7.85877" fill="#F8F1EE"/>
<rect x="309.958" y="352.029" width="55.2825" height="11.3817" rx="5.69083" fill="#FDF8F6"/>
<rect x="1.84521" y="276.379" width="32.5191" height="32.519" rx="16.2595" fill="#F8F1EE"/>
<rect x="40.8682" y="276.379" width="107.313" height="15.7175" rx="7.85877" fill="#F8F1EE"/>
<rect x="40.8682" y="297.516" width="123.031" height="11.3817" rx="5.69083" fill="#FDF8F6"/>
<rect x="1.84521" y="331.433" width="32.5191" height="32.519" rx="16.2595" fill="#F8F1EE"/>
<rect x="40.8682" y="331.433" width="107.313" height="15.7175" rx="7.85877" fill="#F8F1EE"/>
<rect x="40.8682" y="352.571" width="123.031" height="11.3817" rx="5.69083" fill="#FDF8F6"/>
<rect x="233.811" y="47.5415" width="207.58" height="143.626" rx="4.33587" fill="#F8F1EE"/>
<rect x="261.991" y="77.3508" width="151.214" height="12.4656" rx="6.23281" fill="#F2E8E4"/>
<rect x="261.991" y="96.3203" width="151.214" height="11.9236" rx="5.96182" fill="#F2E8E4"/>
<rect x="295.323" y="114.748" width="84.5497" height="12.4656" rx="6.23281" fill="#F2E8E4"/>
<rect x="265.253" y="144.617" width="144.689" height="25.2855" rx="4.33587" fill="#FDFCFC"/>
</g>
<rect x="-156.958" y="2.01488" width="629.916" height="454.916" rx="10.2977" stroke="#D1B9B0" stroke-width="1.08397"/>
</g>
<rect x="49" y="61.3398" width="332" height="259.32" rx="6.99886" fill="white"/>
<rect x="49" y="61.3398" width="332" height="259.32" rx="6.99886" stroke="#D3B3FA" stroke-width="4"/>
<path d="M149.993 113.34H147.87L151.735 102.362H154.19L158.06 113.34H155.937L153.005 104.613H152.919L149.993 113.34ZM150.062 109.035H155.851V110.633H150.062V109.035ZM159.42 116.427V105.106H161.328V106.468H161.441C161.541 106.268 161.682 106.055 161.864 105.83C162.047 105.601 162.293 105.407 162.604 105.246C162.915 105.081 163.312 104.999 163.794 104.999C164.43 104.999 165.004 105.162 165.515 105.487C166.029 105.809 166.437 106.286 166.737 106.918C167.041 107.547 167.193 108.319 167.193 109.234C167.193 110.138 167.044 110.906 166.748 111.539C166.451 112.171 166.047 112.654 165.536 112.986C165.025 113.318 164.446 113.485 163.799 113.485C163.328 113.485 162.936 113.406 162.626 113.249C162.315 113.091 162.064 112.902 161.875 112.681C161.689 112.455 161.545 112.243 161.441 112.043H161.36V116.427H159.42ZM161.323 109.223C161.323 109.756 161.398 110.222 161.548 110.622C161.702 111.022 161.922 111.335 162.207 111.56C162.497 111.782 162.847 111.893 163.258 111.893C163.687 111.893 164.046 111.778 164.335 111.549C164.625 111.317 164.843 111.001 164.989 110.601C165.14 110.197 165.215 109.738 165.215 109.223C165.215 108.712 165.141 108.258 164.995 107.862C164.848 107.465 164.63 107.154 164.341 106.929C164.051 106.704 163.69 106.591 163.258 106.591C162.844 106.591 162.492 106.7 162.202 106.918C161.913 107.136 161.693 107.442 161.543 107.835C161.396 108.228 161.323 108.691 161.323 109.223ZM168.854 116.427V105.106H170.763V106.468H170.875C170.975 106.268 171.116 106.055 171.299 105.83C171.481 105.601 171.727 105.407 172.038 105.246C172.349 105.081 172.746 104.999 173.228 104.999C173.864 104.999 174.438 105.162 174.949 105.487C175.464 105.809 175.871 106.286 176.171 106.918C176.475 107.547 176.627 108.319 176.627 109.234C176.627 110.138 176.478 110.906 176.182 111.539C175.885 112.171 175.481 112.654 174.97 112.986C174.459 113.318 173.88 113.485 173.234 113.485C172.762 113.485 172.371 113.406 172.06 113.249C171.749 113.091 171.499 112.902 171.309 112.681C171.123 112.455 170.979 112.243 170.875 112.043H170.795V116.427H168.854ZM170.757 109.223C170.757 109.756 170.832 110.222 170.982 110.622C171.136 111.022 171.356 111.335 171.642 111.56C171.931 111.782 172.281 111.893 172.692 111.893C173.121 111.893 173.48 111.778 173.77 111.549C174.059 111.317 174.277 111.001 174.424 110.601C174.574 110.197 174.649 109.738 174.649 109.223C174.649 108.712 174.576 108.258 174.429 107.862C174.282 107.465 174.064 107.154 173.775 106.929C173.486 106.704 173.125 106.591 172.692 106.591C172.278 106.591 171.926 106.7 171.636 106.918C171.347 107.136 171.127 107.442 170.977 107.835C170.83 108.228 170.757 108.691 170.757 109.223ZM178.288 113.34V105.106H180.17V106.479H180.256C180.406 106.003 180.663 105.637 181.028 105.38C181.396 105.119 181.816 104.988 182.287 104.988C182.394 104.988 182.514 104.994 182.646 105.005C182.782 105.012 182.895 105.024 182.984 105.042V106.827C182.902 106.798 182.771 106.773 182.593 106.752C182.418 106.727 182.248 106.714 182.084 106.714C181.73 106.714 181.412 106.791 181.129 106.945C180.851 107.095 180.631 107.304 180.47 107.572C180.309 107.84 180.229 108.149 180.229 108.499V113.34H178.288ZM187.526 113.501C186.722 113.501 186.025 113.324 185.435 112.97C184.845 112.616 184.388 112.121 184.063 111.485C183.741 110.849 183.58 110.106 183.58 109.255C183.58 108.405 183.741 107.66 184.063 107.02C184.388 106.38 184.845 105.884 185.435 105.53C186.025 105.176 186.722 104.999 187.526 104.999C188.33 104.999 189.027 105.176 189.616 105.53C190.206 105.884 190.661 106.38 190.983 107.02C191.308 107.66 191.471 108.405 191.471 109.255C191.471 110.106 191.308 110.849 190.983 111.485C190.661 112.121 190.206 112.616 189.616 112.97C189.027 113.324 188.33 113.501 187.526 113.501ZM187.536 111.946C187.972 111.946 188.337 111.826 188.63 111.587C188.923 111.344 189.141 111.019 189.284 110.611C189.43 110.204 189.504 109.75 189.504 109.25C189.504 108.746 189.43 108.29 189.284 107.883C189.141 107.472 188.923 107.145 188.63 106.902C188.337 106.659 187.972 106.538 187.536 106.538C187.09 106.538 186.718 106.659 186.421 106.902C186.128 107.145 185.909 107.472 185.762 107.883C185.619 108.29 185.548 108.746 185.548 109.25C185.548 109.75 185.619 110.204 185.762 110.611C185.909 111.019 186.128 111.344 186.421 111.587C186.718 111.826 187.09 111.946 187.536 111.946ZM200.192 105.106L197.26 113.34H195.116L192.184 105.106H194.253L196.145 111.223H196.231L198.128 105.106H200.192ZM203.668 113.506C203.147 113.506 202.677 113.413 202.259 113.227C201.844 113.038 201.515 112.759 201.272 112.391C201.033 112.023 200.913 111.569 200.913 111.03C200.913 110.565 200.999 110.181 201.17 109.877C201.342 109.573 201.576 109.33 201.873 109.148C202.169 108.966 202.503 108.828 202.875 108.735C203.25 108.639 203.638 108.569 204.038 108.526C204.521 108.476 204.912 108.432 205.212 108.392C205.512 108.349 205.73 108.285 205.866 108.199C206.005 108.11 206.075 107.972 206.075 107.787V107.754C206.075 107.351 205.955 107.038 205.716 106.816C205.477 106.595 205.132 106.484 204.681 106.484C204.206 106.484 203.829 106.588 203.55 106.795C203.275 107.002 203.089 107.247 202.993 107.529L201.181 107.272C201.324 106.772 201.56 106.354 201.889 106.018C202.217 105.678 202.619 105.424 203.095 105.256C203.57 105.085 204.095 104.999 204.671 104.999C205.067 104.999 205.462 105.046 205.855 105.139C206.248 105.231 206.608 105.385 206.933 105.6C207.258 105.81 207.519 106.098 207.715 106.463C207.915 106.827 208.016 107.283 208.016 107.829V113.34H206.15V112.209H206.086C205.968 112.438 205.802 112.652 205.587 112.852C205.376 113.049 205.11 113.208 204.789 113.329C204.471 113.447 204.097 113.506 203.668 113.506ZM204.172 112.08C204.562 112.08 204.899 112.003 205.185 111.85C205.471 111.692 205.691 111.485 205.845 111.228C206.002 110.971 206.08 110.69 206.08 110.386V109.416C206.02 109.466 205.916 109.513 205.77 109.555C205.627 109.598 205.466 109.636 205.287 109.668C205.108 109.7 204.932 109.729 204.756 109.754C204.581 109.779 204.429 109.8 204.301 109.818C204.011 109.857 203.752 109.922 203.524 110.011C203.295 110.1 203.114 110.225 202.982 110.386C202.85 110.544 202.784 110.747 202.784 110.997C202.784 111.355 202.914 111.625 203.175 111.807C203.436 111.989 203.768 112.08 204.172 112.08ZM211.907 102.362V113.34H209.967V102.362H211.907ZM217.732 113.34V102.362H221.849C222.693 102.362 223.4 102.508 223.972 102.801C224.547 103.094 224.981 103.505 225.274 104.034C225.571 104.56 225.719 105.172 225.719 105.873C225.719 106.577 225.569 107.188 225.269 107.706C224.973 108.221 224.535 108.619 223.956 108.901C223.377 109.18 222.666 109.32 221.822 109.32H218.89V107.669H221.554C222.048 107.669 222.451 107.601 222.766 107.465C223.08 107.326 223.313 107.124 223.463 106.859C223.616 106.591 223.693 106.262 223.693 105.873C223.693 105.483 223.616 105.151 223.463 104.876C223.309 104.597 223.075 104.386 222.76 104.243C222.446 104.097 222.04 104.024 221.544 104.024H219.721V113.34H217.732ZM223.404 108.365L226.121 113.34H223.902L221.233 108.365H223.404ZM230.991 113.501C230.166 113.501 229.453 113.329 228.853 112.986C228.256 112.639 227.797 112.15 227.475 111.517C227.153 110.881 226.992 110.133 226.992 109.271C226.992 108.424 227.153 107.681 227.475 107.041C227.8 106.398 228.254 105.898 228.836 105.541C229.419 105.18 230.103 104.999 230.889 104.999C231.397 104.999 231.876 105.081 232.326 105.246C232.78 105.407 233.18 105.657 233.527 105.996C233.877 106.336 234.152 106.768 234.352 107.293C234.552 107.815 234.652 108.437 234.652 109.159V109.754H227.904V108.446H232.792C232.789 108.074 232.708 107.744 232.551 107.454C232.394 107.161 232.174 106.931 231.892 106.763C231.613 106.595 231.288 106.511 230.916 106.511C230.52 106.511 230.171 106.607 229.871 106.8C229.571 106.99 229.337 107.24 229.169 107.551C229.004 107.858 228.92 108.196 228.917 108.564V109.706C228.917 110.184 229.004 110.595 229.179 110.938C229.355 111.278 229.599 111.539 229.914 111.721C230.228 111.9 230.596 111.989 231.018 111.989C231.3 111.989 231.556 111.95 231.785 111.871C232.013 111.789 232.212 111.669 232.38 111.512C232.548 111.355 232.674 111.16 232.76 110.928L234.572 111.131C234.458 111.61 234.24 112.028 233.918 112.386C233.6 112.739 233.193 113.015 232.696 113.211C232.199 113.404 231.631 113.501 230.991 113.501ZM241.788 116.427V112.043H241.708C241.608 112.243 241.463 112.455 241.274 112.681C241.084 112.902 240.834 113.091 240.523 113.249C240.212 113.406 239.821 113.485 239.349 113.485C238.703 113.485 238.124 113.318 237.613 112.986C237.102 112.654 236.698 112.171 236.401 111.539C236.105 110.906 235.956 110.138 235.956 109.234C235.956 108.319 236.106 107.547 236.407 106.918C236.71 106.286 237.119 105.809 237.634 105.487C238.149 105.162 238.722 104.999 239.355 104.999C239.837 104.999 240.234 105.081 240.545 105.246C240.856 105.407 241.102 105.601 241.284 105.83C241.467 106.055 241.608 106.268 241.708 106.468H241.826V105.106H243.734V116.427H241.788ZM239.891 111.893C240.302 111.893 240.652 111.782 240.941 111.56C241.231 111.335 241.451 111.022 241.601 110.622C241.751 110.222 241.826 109.756 241.826 109.223C241.826 108.691 241.751 108.228 241.601 107.835C241.454 107.442 241.236 107.136 240.947 106.918C240.661 106.7 240.309 106.591 239.891 106.591C239.458 106.591 239.097 106.704 238.808 106.929C238.519 107.154 238.301 107.465 238.154 107.862C238.008 108.258 237.934 108.712 237.934 109.223C237.934 109.738 238.008 110.197 238.154 110.601C238.304 111.001 238.524 111.317 238.813 111.549C239.106 111.778 239.466 111.893 239.891 111.893ZM250.976 109.877V105.106H252.916V113.34H251.035V111.876H250.949C250.763 112.337 250.458 112.714 250.033 113.008C249.611 113.301 249.091 113.447 248.473 113.447C247.933 113.447 247.456 113.327 247.041 113.088C246.631 112.845 246.309 112.493 246.077 112.032C245.844 111.567 245.728 111.006 245.728 110.349V105.106H247.669V110.049C247.669 110.57 247.812 110.985 248.097 111.292C248.383 111.6 248.759 111.753 249.223 111.753C249.509 111.753 249.786 111.683 250.054 111.544C250.322 111.405 250.542 111.197 250.713 110.922C250.888 110.644 250.976 110.295 250.976 109.877ZM254.912 113.34V105.106H256.852V113.34H254.912ZM255.887 103.938C255.58 103.938 255.316 103.836 255.094 103.632C254.872 103.425 254.762 103.177 254.762 102.887C254.762 102.594 254.872 102.346 255.094 102.142C255.316 101.935 255.58 101.831 255.887 101.831C256.198 101.831 256.463 101.935 256.681 102.142C256.902 102.346 257.013 102.594 257.013 102.887C257.013 103.177 256.902 103.425 256.681 103.632C256.463 103.836 256.198 103.938 255.887 103.938ZM258.848 113.34V105.106H260.729V106.479H260.815C260.965 106.003 261.222 105.637 261.587 105.38C261.955 105.119 262.375 104.988 262.846 104.988C262.954 104.988 263.073 104.994 263.206 105.005C263.341 105.012 263.454 105.024 263.543 105.042V106.827C263.461 106.798 263.331 106.773 263.152 106.752C262.977 106.727 262.807 106.714 262.643 106.714C262.289 106.714 261.971 106.791 261.689 106.945C261.41 107.095 261.19 107.304 261.029 107.572C260.868 107.84 260.788 108.149 260.788 108.499V113.34H258.848ZM268.138 113.501C267.313 113.501 266.6 113.329 266 112.986C265.403 112.639 264.944 112.15 264.622 111.517C264.3 110.881 264.14 110.133 264.14 109.271C264.14 108.424 264.3 107.681 264.622 107.041C264.947 106.398 265.401 105.898 265.984 105.541C266.566 105.18 267.25 104.999 268.037 104.999C268.544 104.999 269.023 105.081 269.473 105.246C269.927 105.407 270.327 105.657 270.674 105.996C271.024 106.336 271.299 106.768 271.499 107.293C271.699 107.815 271.8 108.437 271.8 109.159V109.754H265.051V108.446H269.94C269.936 108.074 269.856 107.744 269.698 107.454C269.541 107.161 269.321 106.931 269.039 106.763C268.76 106.595 268.435 106.511 268.063 106.511C267.667 106.511 267.318 106.607 267.018 106.8C266.718 106.99 266.484 107.24 266.316 107.551C266.152 107.858 266.068 108.196 266.064 108.564V109.706C266.064 110.184 266.152 110.595 266.327 110.938C266.502 111.278 266.747 111.539 267.061 111.721C267.375 111.9 267.744 111.989 268.165 111.989C268.448 111.989 268.703 111.95 268.932 111.871C269.16 111.789 269.359 111.669 269.527 111.512C269.695 111.355 269.822 111.16 269.907 110.928L271.719 111.131C271.605 111.61 271.387 112.028 271.065 112.386C270.747 112.739 270.34 113.015 269.843 113.211C269.346 113.404 268.778 113.501 268.138 113.501ZM276.497 113.485C275.85 113.485 275.271 113.318 274.76 112.986C274.249 112.654 273.845 112.171 273.548 111.539C273.252 110.906 273.103 110.138 273.103 109.234C273.103 108.319 273.254 107.547 273.554 106.918C273.857 106.286 274.267 105.809 274.781 105.487C275.296 105.162 275.869 104.999 276.502 104.999C276.984 104.999 277.381 105.081 277.692 105.246C278.003 105.407 278.249 105.601 278.432 105.83C278.614 106.055 278.755 106.268 278.855 106.468H278.935V102.362H280.881V113.34H278.973V112.043H278.855C278.755 112.243 278.61 112.455 278.421 112.681C278.232 112.902 277.981 113.091 277.67 113.249C277.36 113.406 276.968 113.485 276.497 113.485ZM277.038 111.893C277.449 111.893 277.799 111.782 278.089 111.56C278.378 111.335 278.598 111.022 278.748 110.622C278.898 110.222 278.973 109.756 278.973 109.223C278.973 108.691 278.898 108.228 278.748 107.835C278.601 107.442 278.383 107.136 278.094 106.918C277.808 106.7 277.456 106.591 277.038 106.591C276.606 106.591 276.245 106.704 275.955 106.929C275.666 107.154 275.448 107.465 275.301 107.862C275.155 108.258 275.081 108.712 275.081 109.223C275.081 109.738 275.155 110.197 275.301 110.601C275.451 111.001 275.671 111.317 275.961 111.549C276.254 111.778 276.613 111.893 277.038 111.893Z" fill="black"/>
<path d="M115.942 135.34V127.628H118.547C119.152 127.628 119.647 127.737 120.031 127.956C120.418 128.172 120.704 128.464 120.889 128.833C121.075 129.202 121.168 129.614 121.168 130.068C121.168 130.523 121.075 130.936 120.889 131.307C120.706 131.679 120.423 131.975 120.038 132.196C119.654 132.414 119.162 132.523 118.562 132.523H116.695V131.695H118.532C118.946 131.695 119.279 131.623 119.53 131.48C119.781 131.337 119.963 131.144 120.076 130.9C120.192 130.654 120.249 130.377 120.249 130.068C120.249 129.759 120.192 129.483 120.076 129.24C119.963 128.996 119.78 128.806 119.526 128.668C119.273 128.527 118.936 128.457 118.517 128.457H116.876V135.34H115.942ZM124.915 135.46C124.357 135.46 123.877 135.337 123.473 135.091C123.071 134.843 122.761 134.496 122.542 134.052C122.327 133.605 122.219 133.086 122.219 132.493C122.219 131.901 122.327 131.379 122.542 130.927C122.761 130.472 123.065 130.118 123.454 129.865C123.845 129.609 124.302 129.481 124.824 129.481C125.126 129.481 125.423 129.531 125.717 129.631C126.01 129.732 126.278 129.895 126.519 130.121C126.76 130.344 126.952 130.641 127.095 131.01C127.238 131.379 127.309 131.833 127.309 132.373V132.749H122.851V131.981H126.406C126.406 131.655 126.341 131.364 126.21 131.108C126.082 130.851 125.899 130.649 125.66 130.501C125.424 130.353 125.146 130.279 124.824 130.279C124.47 130.279 124.164 130.367 123.906 130.543C123.649 130.716 123.452 130.942 123.314 131.22C123.176 131.499 123.107 131.798 123.107 132.117V132.629C123.107 133.066 123.183 133.436 123.333 133.74C123.486 134.041 123.698 134.27 123.97 134.429C124.241 134.584 124.556 134.662 124.915 134.662C125.148 134.662 125.359 134.629 125.547 134.564C125.738 134.496 125.902 134.396 126.041 134.263C126.179 134.127 126.285 133.959 126.361 133.758L127.219 133.999C127.129 134.291 126.977 134.547 126.763 134.768C126.55 134.986 126.287 135.157 125.973 135.28C125.659 135.4 125.306 135.46 124.915 135.46ZM128.661 135.34V129.556H129.52V130.43H129.58C129.685 130.144 129.876 129.911 130.152 129.733C130.428 129.555 130.74 129.466 131.086 129.466C131.151 129.466 131.233 129.467 131.331 129.47C131.429 129.472 131.503 129.476 131.553 129.481V130.385C131.523 130.377 131.454 130.366 131.346 130.351C131.241 130.333 131.129 130.324 131.011 130.324C130.73 130.324 130.479 130.383 130.258 130.501C130.039 130.617 129.866 130.777 129.738 130.983C129.613 131.187 129.55 131.419 129.55 131.68V135.34H128.661ZM135.544 129.556V130.309H132.427V129.556H135.544ZM133.36 135.34V128.758C133.36 128.427 133.438 128.15 133.594 127.93C133.75 127.709 133.952 127.543 134.2 127.432C134.449 127.322 134.711 127.267 134.987 127.267C135.206 127.267 135.384 127.284 135.522 127.32C135.66 127.355 135.763 127.387 135.831 127.417L135.575 128.186C135.529 128.17 135.467 128.152 135.386 128.129C135.308 128.106 135.206 128.095 135.078 128.095C134.784 128.095 134.572 128.169 134.441 128.317C134.313 128.465 134.249 128.683 134.249 128.969V135.34H133.36ZM138.901 135.46C138.379 135.46 137.921 135.336 137.527 135.088C137.135 134.839 136.829 134.491 136.608 134.045C136.39 133.598 136.281 133.076 136.281 132.478C136.281 131.876 136.39 131.35 136.608 130.9C136.829 130.451 137.135 130.102 137.527 129.854C137.921 129.605 138.379 129.481 138.901 129.481C139.423 129.481 139.88 129.605 140.272 129.854C140.666 130.102 140.972 130.451 141.191 130.9C141.412 131.35 141.522 131.876 141.522 132.478C141.522 133.076 141.412 133.598 141.191 134.045C140.972 134.491 140.666 134.839 140.272 135.088C139.88 135.336 139.423 135.46 138.901 135.46ZM138.901 134.662C139.298 134.662 139.624 134.56 139.88 134.357C140.136 134.154 140.326 133.886 140.449 133.555C140.572 133.224 140.633 132.865 140.633 132.478C140.633 132.092 140.572 131.731 140.449 131.397C140.326 131.064 140.136 130.794 139.88 130.588C139.624 130.382 139.298 130.279 138.901 130.279C138.505 130.279 138.178 130.382 137.922 130.588C137.666 130.794 137.477 131.064 137.354 131.397C137.231 131.731 137.169 132.092 137.169 132.478C137.169 132.865 137.231 133.224 137.354 133.555C137.477 133.886 137.666 134.154 137.922 134.357C138.178 134.56 138.505 134.662 138.901 134.662ZM142.879 135.34V129.556H143.737V130.43H143.797C143.903 130.144 144.093 129.911 144.37 129.733C144.646 129.555 144.957 129.466 145.303 129.466C145.369 129.466 145.45 129.467 145.548 129.47C145.646 129.472 145.72 129.476 145.77 129.481V130.385C145.74 130.377 145.671 130.366 145.563 130.351C145.458 130.333 145.346 130.324 145.228 130.324C144.947 130.324 144.696 130.383 144.475 130.501C144.257 130.617 144.083 130.777 143.955 130.983C143.83 131.187 143.767 131.419 143.767 131.68V135.34H142.879ZM146.824 135.34V129.556H147.682V130.46H147.758C147.878 130.151 148.073 129.911 148.341 129.741C148.61 129.567 148.932 129.481 149.309 129.481C149.69 129.481 150.008 129.567 150.262 129.741C150.518 129.911 150.717 130.151 150.86 130.46H150.921C151.069 130.161 151.291 129.924 151.587 129.748C151.883 129.57 152.238 129.481 152.653 129.481C153.17 129.481 153.593 129.643 153.922 129.967C154.25 130.288 154.415 130.789 154.415 131.469V135.34H153.526V131.469C153.526 131.042 153.409 130.737 153.176 130.554C152.943 130.371 152.668 130.279 152.351 130.279C151.945 130.279 151.63 130.402 151.406 130.648C151.183 130.892 151.071 131.2 151.071 131.574V135.34H150.167V131.379C150.167 131.05 150.061 130.785 149.847 130.584C149.634 130.381 149.359 130.279 149.023 130.279C148.792 130.279 148.576 130.341 148.375 130.464C148.177 130.587 148.016 130.757 147.893 130.976C147.773 131.192 147.712 131.441 147.712 131.725V135.34H146.824ZM156.04 135.34V129.556H156.928V135.34H156.04ZM156.491 128.592C156.318 128.592 156.169 128.533 156.043 128.415C155.92 128.297 155.859 128.155 155.859 127.99C155.859 127.824 155.92 127.682 156.043 127.564C156.169 127.446 156.318 127.387 156.491 127.387C156.665 127.387 156.813 127.446 156.936 127.564C157.061 127.682 157.124 127.824 157.124 127.99C157.124 128.155 157.061 128.297 156.936 128.415C156.813 128.533 156.665 128.592 156.491 128.592ZM159.444 131.861V135.34H158.556V129.556H159.414V130.46H159.49C159.625 130.166 159.831 129.93 160.107 129.752C160.383 129.571 160.74 129.481 161.177 129.481C161.568 129.481 161.911 129.561 162.205 129.722C162.498 129.88 162.727 130.121 162.89 130.445C163.053 130.766 163.135 131.173 163.135 131.665V135.34H162.246V131.725C162.246 131.271 162.128 130.917 161.892 130.663C161.656 130.407 161.332 130.279 160.921 130.279C160.637 130.279 160.383 130.341 160.16 130.464C159.939 130.587 159.765 130.766 159.637 131.002C159.508 131.238 159.444 131.524 159.444 131.861ZM167.093 137.629C166.664 137.629 166.295 137.574 165.986 137.464C165.677 137.356 165.42 137.213 165.214 137.034C165.011 136.859 164.849 136.67 164.728 136.469L165.436 135.972C165.517 136.078 165.618 136.198 165.741 136.334C165.864 136.472 166.032 136.591 166.246 136.692C166.462 136.795 166.744 136.846 167.093 136.846C167.56 136.846 167.945 136.733 168.249 136.507C168.553 136.281 168.705 135.927 168.705 135.445V134.27H168.629C168.564 134.376 168.471 134.506 168.351 134.662C168.233 134.815 168.062 134.952 167.839 135.072C167.618 135.19 167.319 135.249 166.942 135.249C166.475 135.249 166.056 135.139 165.685 134.918C165.316 134.697 165.023 134.376 164.807 133.954C164.594 133.532 164.487 133.02 164.487 132.418C164.487 131.825 164.591 131.31 164.8 130.87C165.008 130.428 165.298 130.087 165.67 129.846C166.041 129.603 166.47 129.481 166.957 129.481C167.334 129.481 167.633 129.544 167.854 129.669C168.077 129.792 168.248 129.933 168.366 130.091C168.486 130.246 168.579 130.375 168.644 130.475H168.735V129.556H169.593V135.506C169.593 136.003 169.48 136.407 169.254 136.718C169.031 137.032 168.73 137.261 168.351 137.407C167.974 137.555 167.555 137.629 167.093 137.629ZM167.063 134.451C167.419 134.451 167.721 134.37 167.967 134.206C168.213 134.043 168.4 133.809 168.528 133.502C168.656 133.196 168.72 132.83 168.72 132.403C168.72 131.986 168.657 131.618 168.531 131.3C168.406 130.981 168.22 130.731 167.974 130.55C167.728 130.369 167.424 130.279 167.063 130.279C166.686 130.279 166.373 130.375 166.121 130.565C165.873 130.756 165.686 131.012 165.56 131.333C165.437 131.655 165.376 132.011 165.376 132.403C165.376 132.804 165.439 133.16 165.564 133.468C165.692 133.775 165.881 134.016 166.129 134.191C166.38 134.365 166.691 134.451 167.063 134.451ZM176.717 129.556V130.309H173.72V129.556H176.717ZM174.594 128.17H175.482V133.683C175.482 133.934 175.519 134.122 175.592 134.248C175.667 134.371 175.762 134.454 175.878 134.496C175.996 134.537 176.12 134.557 176.25 134.557C176.348 134.557 176.429 134.552 176.491 134.542C176.554 134.529 176.604 134.519 176.642 134.511L176.823 135.31C176.763 135.332 176.678 135.355 176.571 135.377C176.463 135.403 176.326 135.415 176.16 135.415C175.909 135.415 175.663 135.361 175.422 135.253C175.184 135.145 174.985 134.981 174.827 134.76C174.671 134.539 174.594 134.26 174.594 133.924V128.17ZM179.067 131.861V135.34H178.178V127.628H179.067V130.46H179.142C179.278 130.161 179.481 129.924 179.752 129.748C180.026 129.57 180.39 129.481 180.844 129.481C181.238 129.481 181.584 129.56 181.88 129.718C182.176 129.874 182.406 130.113 182.569 130.437C182.735 130.759 182.817 131.168 182.817 131.665V135.34H181.929V131.725C181.929 131.266 181.809 130.91 181.571 130.659C181.335 130.406 181.007 130.279 180.588 130.279C180.297 130.279 180.036 130.341 179.805 130.464C179.577 130.587 179.396 130.766 179.263 131.002C179.132 131.238 179.067 131.524 179.067 131.861ZM184.443 135.34V129.556H185.332V135.34H184.443ZM184.895 128.592C184.722 128.592 184.572 128.533 184.447 128.415C184.324 128.297 184.262 128.155 184.262 127.99C184.262 127.824 184.324 127.682 184.447 127.564C184.572 127.446 184.722 127.387 184.895 127.387C185.068 127.387 185.216 127.446 185.339 127.564C185.465 127.682 185.528 127.824 185.528 127.99C185.528 128.155 185.465 128.297 185.339 128.415C185.216 128.533 185.068 128.592 184.895 128.592ZM191.056 130.851L190.258 131.077C190.208 130.944 190.134 130.815 190.036 130.69C189.94 130.562 189.81 130.456 189.644 130.373C189.478 130.29 189.266 130.249 189.008 130.249C188.654 130.249 188.359 130.331 188.123 130.494C187.889 130.654 187.773 130.859 187.773 131.108C187.773 131.328 187.853 131.503 188.014 131.631C188.174 131.759 188.425 131.866 188.767 131.951L189.625 132.162C190.142 132.287 190.528 132.479 190.781 132.738C191.035 132.994 191.162 133.324 191.162 133.728C191.162 134.06 191.066 134.356 190.875 134.617C190.687 134.878 190.423 135.084 190.085 135.234C189.746 135.385 189.352 135.46 188.902 135.46C188.312 135.46 187.824 135.332 187.438 135.076C187.051 134.82 186.806 134.446 186.703 133.954L187.547 133.743C187.627 134.055 187.779 134.288 188.002 134.444C188.228 134.599 188.523 134.677 188.887 134.677C189.301 134.677 189.63 134.589 189.874 134.414C190.12 134.235 190.243 134.022 190.243 133.773C190.243 133.573 190.172 133.404 190.032 133.269C189.891 133.131 189.675 133.028 189.384 132.96L188.42 132.734C187.891 132.609 187.502 132.414 187.253 132.151C187.007 131.884 186.884 131.552 186.884 131.153C186.884 130.826 186.976 130.538 187.159 130.287C187.345 130.036 187.597 129.839 187.916 129.695C188.237 129.552 188.601 129.481 189.008 129.481C189.58 129.481 190.029 129.606 190.356 129.857C190.685 130.108 190.918 130.44 191.056 130.851ZM197.183 135.475C196.817 135.475 196.484 135.406 196.186 135.268C195.887 135.128 195.65 134.926 195.474 134.662C195.298 134.396 195.21 134.075 195.21 133.698C195.21 133.367 195.276 133.098 195.406 132.892C195.537 132.684 195.711 132.521 195.929 132.403C196.148 132.285 196.389 132.197 196.652 132.139C196.919 132.079 197.186 132.031 197.454 131.996C197.806 131.951 198.091 131.917 198.309 131.894C198.53 131.869 198.691 131.828 198.791 131.77C198.894 131.712 198.946 131.612 198.946 131.469V131.439C198.946 131.067 198.844 130.779 198.641 130.573C198.44 130.367 198.135 130.264 197.726 130.264C197.301 130.264 196.969 130.357 196.728 130.543C196.487 130.728 196.317 130.927 196.219 131.138L195.376 130.836C195.527 130.485 195.727 130.211 195.978 130.016C196.232 129.817 196.508 129.679 196.807 129.601C197.108 129.521 197.404 129.481 197.695 129.481C197.881 129.481 198.095 129.503 198.336 129.549C198.579 129.591 198.814 129.68 199.04 129.816C199.268 129.952 199.458 130.156 199.608 130.43C199.759 130.703 199.834 131.07 199.834 131.529V135.34H198.946V134.557H198.9C198.84 134.682 198.74 134.816 198.599 134.96C198.459 135.103 198.272 135.224 198.038 135.325C197.805 135.425 197.52 135.475 197.183 135.475ZM197.319 134.677C197.67 134.677 197.967 134.608 198.208 134.47C198.451 134.332 198.634 134.154 198.757 133.935C198.883 133.717 198.946 133.487 198.946 133.246V132.433C198.908 132.478 198.825 132.52 198.697 132.557C198.572 132.592 198.426 132.624 198.26 132.651C198.097 132.676 197.938 132.699 197.782 132.719C197.629 132.737 197.505 132.752 197.409 132.764C197.178 132.794 196.962 132.843 196.762 132.911C196.563 132.976 196.403 133.076 196.28 133.209C196.159 133.339 196.099 133.517 196.099 133.743C196.099 134.052 196.213 134.286 196.442 134.444C196.673 134.599 196.965 134.677 197.319 134.677ZM203.806 135.46C203.264 135.46 202.797 135.332 202.405 135.076C202.013 134.82 201.712 134.468 201.501 134.018C201.29 133.569 201.185 133.055 201.185 132.478C201.185 131.891 201.293 131.372 201.509 130.923C201.727 130.471 202.031 130.118 202.42 129.865C202.812 129.609 203.269 129.481 203.791 129.481C204.197 129.481 204.564 129.556 204.89 129.707C205.217 129.857 205.484 130.068 205.692 130.339C205.901 130.61 206.03 130.927 206.08 131.288H205.191C205.124 131.025 204.973 130.791 204.74 130.588C204.509 130.382 204.197 130.279 203.806 130.279C203.459 130.279 203.156 130.369 202.895 130.55C202.636 130.728 202.434 130.981 202.288 131.307C202.145 131.631 202.074 132.011 202.074 132.448C202.074 132.895 202.144 133.284 202.285 133.615C202.428 133.947 202.628 134.204 202.887 134.387C203.148 134.57 203.454 134.662 203.806 134.662C204.037 134.662 204.246 134.622 204.435 134.542C204.623 134.461 204.782 134.346 204.913 134.195C205.043 134.045 205.136 133.864 205.191 133.653H206.08C206.03 133.994 205.906 134.302 205.707 134.575C205.512 134.847 205.252 135.062 204.928 135.223C204.607 135.381 204.233 135.46 203.806 135.46ZM209.894 129.556V130.309H206.897V129.556H209.894ZM207.771 128.17H208.659V133.683C208.659 133.934 208.696 134.122 208.769 134.248C208.844 134.371 208.939 134.454 209.055 134.496C209.173 134.537 209.297 134.557 209.428 134.557C209.525 134.557 209.606 134.552 209.669 134.542C209.731 134.529 209.781 134.519 209.819 134.511L210 135.31C209.94 135.332 209.856 135.355 209.748 135.377C209.64 135.403 209.503 135.415 209.337 135.415C209.086 135.415 208.84 135.361 208.599 135.253C208.361 135.145 208.162 134.981 208.004 134.76C207.849 134.539 207.771 134.26 207.771 133.924V128.17ZM211.231 135.34V129.556H212.12V135.34H211.231ZM211.683 128.592C211.51 128.592 211.36 128.533 211.235 128.415C211.112 128.297 211.05 128.155 211.05 127.99C211.05 127.824 211.112 127.682 211.235 127.564C211.36 127.446 211.51 127.387 211.683 127.387C211.856 127.387 212.004 127.446 212.127 127.564C212.253 127.682 212.316 127.824 212.316 127.99C212.316 128.155 212.253 128.297 212.127 128.415C212.004 128.533 211.856 128.592 211.683 128.592ZM216.097 135.46C215.575 135.46 215.117 135.336 214.723 135.088C214.331 134.839 214.025 134.491 213.804 134.045C213.585 133.598 213.476 133.076 213.476 132.478C213.476 131.876 213.585 131.35 213.804 130.9C214.025 130.451 214.331 130.102 214.723 129.854C215.117 129.605 215.575 129.481 216.097 129.481C216.619 129.481 217.076 129.605 217.468 129.854C217.862 130.102 218.168 130.451 218.386 130.9C218.607 131.35 218.718 131.876 218.718 132.478C218.718 133.076 218.607 133.598 218.386 134.045C218.168 134.491 217.862 134.839 217.468 135.088C217.076 135.336 216.619 135.46 216.097 135.46ZM216.097 134.662C216.494 134.662 216.82 134.56 217.076 134.357C217.332 134.154 217.522 133.886 217.645 133.555C217.768 133.224 217.829 132.865 217.829 132.478C217.829 132.092 217.768 131.731 217.645 131.397C217.522 131.064 217.332 130.794 217.076 130.588C216.82 130.382 216.494 130.279 216.097 130.279C215.7 130.279 215.374 130.382 215.118 130.588C214.862 130.794 214.672 131.064 214.549 131.397C214.426 131.731 214.365 132.092 214.365 132.478C214.365 132.865 214.426 133.224 214.549 133.555C214.672 133.886 214.862 134.154 215.118 134.357C215.374 134.56 215.7 134.662 216.097 134.662ZM220.963 131.861V135.34H220.074V129.556H220.933V130.46H221.008C221.144 130.166 221.349 129.93 221.626 129.752C221.902 129.571 222.258 129.481 222.695 129.481C223.087 129.481 223.429 129.561 223.723 129.722C224.017 129.88 224.245 130.121 224.408 130.445C224.571 130.766 224.653 131.173 224.653 131.665V135.34H223.764V131.725C223.764 131.271 223.646 130.917 223.41 130.663C223.174 130.407 222.851 130.279 222.439 130.279C222.155 130.279 221.902 130.341 221.678 130.464C221.457 130.587 221.283 130.766 221.155 131.002C221.027 131.238 220.963 131.524 220.963 131.861ZM229.259 135.34V129.556H230.118V130.43H230.178C230.283 130.144 230.474 129.911 230.75 129.733C231.026 129.555 231.338 129.466 231.684 129.466C231.749 129.466 231.831 129.467 231.929 129.47C232.027 129.472 232.101 129.476 232.151 129.481V130.385C232.121 130.377 232.052 130.366 231.944 130.351C231.838 130.333 231.727 130.324 231.609 130.324C231.328 130.324 231.076 130.383 230.856 130.501C230.637 130.617 230.464 130.777 230.336 130.983C230.21 131.187 230.148 131.419 230.148 131.68V135.34H229.259ZM235.453 135.46C234.896 135.46 234.415 135.337 234.011 135.091C233.609 134.843 233.299 134.496 233.081 134.052C232.865 133.605 232.757 133.086 232.757 132.493C232.757 131.901 232.865 131.379 233.081 130.927C233.299 130.472 233.603 130.118 233.992 129.865C234.384 129.609 234.841 129.481 235.363 129.481C235.664 129.481 235.961 129.531 236.255 129.631C236.549 129.732 236.816 129.895 237.057 130.121C237.298 130.344 237.49 130.641 237.633 131.01C237.776 131.379 237.848 131.833 237.848 132.373V132.749H233.39V131.981H236.944C236.944 131.655 236.879 131.364 236.748 131.108C236.62 130.851 236.437 130.649 236.199 130.501C235.963 130.353 235.684 130.279 235.363 130.279C235.009 130.279 234.703 130.367 234.444 130.543C234.188 130.716 233.991 130.942 233.853 131.22C233.715 131.499 233.646 131.798 233.646 132.117V132.629C233.646 133.066 233.721 133.436 233.872 133.74C234.025 134.041 234.237 134.27 234.508 134.429C234.779 134.584 235.094 134.662 235.453 134.662C235.687 134.662 235.897 134.629 236.086 134.564C236.277 134.496 236.441 134.396 236.579 134.263C236.717 134.127 236.824 133.959 236.899 133.758L237.758 133.999C237.667 134.291 237.515 134.547 237.302 134.768C237.089 134.986 236.825 135.157 236.511 135.28C236.197 135.4 235.845 135.46 235.453 135.46ZM243.146 137.509V134.451H243.071C243.005 134.557 242.912 134.69 242.792 134.85C242.671 135.008 242.5 135.15 242.276 135.276C242.053 135.399 241.755 135.46 241.384 135.46C240.902 135.46 240.476 135.339 240.107 135.095C239.738 134.849 239.45 134.503 239.241 134.056C239.033 133.606 238.929 133.076 238.929 132.463C238.929 131.856 239.033 131.328 239.241 130.882C239.45 130.435 239.739 130.09 240.111 129.846C240.482 129.603 240.912 129.481 241.399 129.481C241.775 129.481 242.073 129.544 242.291 129.669C242.512 129.792 242.68 129.933 242.796 130.091C242.914 130.246 243.005 130.375 243.071 130.475H243.176V129.556H244.035V137.509H243.146ZM241.504 134.662C241.861 134.662 242.162 134.569 242.408 134.383C242.654 134.195 242.841 133.935 242.969 133.604C243.097 133.27 243.161 132.885 243.161 132.448C243.161 132.016 243.098 131.638 242.973 131.315C242.847 130.988 242.661 130.735 242.415 130.554C242.169 130.371 241.866 130.279 241.504 130.279C241.128 130.279 240.814 130.376 240.563 130.569C240.314 130.76 240.127 131.02 240.002 131.349C239.879 131.675 239.817 132.041 239.817 132.448C239.817 132.86 239.88 133.234 240.006 133.57C240.134 133.904 240.322 134.17 240.57 134.368C240.821 134.564 241.133 134.662 241.504 134.662ZM249.306 132.975V129.556H250.195V135.34H249.306V134.361H249.246C249.11 134.655 248.899 134.904 248.613 135.11C248.327 135.313 247.966 135.415 247.529 135.415C247.167 135.415 246.846 135.336 246.565 135.178C246.284 135.017 246.063 134.776 245.902 134.455C245.742 134.131 245.661 133.723 245.661 133.231V129.556H246.55V133.171C246.55 133.593 246.668 133.929 246.904 134.18C247.142 134.431 247.446 134.557 247.815 134.557C248.036 134.557 248.261 134.5 248.489 134.387C248.72 134.274 248.913 134.101 249.069 133.868C249.227 133.634 249.306 133.337 249.306 132.975ZM251.822 135.34V129.556H252.711V135.34H251.822ZM252.274 128.592C252.101 128.592 251.952 128.533 251.826 128.415C251.703 128.297 251.642 128.155 251.642 127.99C251.642 127.824 251.703 127.682 251.826 127.564C251.952 127.446 252.101 127.387 252.274 127.387C252.447 127.387 252.596 127.446 252.719 127.564C252.844 127.682 252.907 127.824 252.907 127.99C252.907 128.155 252.844 128.297 252.719 128.415C252.596 128.533 252.447 128.592 252.274 128.592ZM254.339 135.34V129.556H255.197V130.43H255.257C255.363 130.144 255.554 129.911 255.83 129.733C256.106 129.555 256.417 129.466 256.764 129.466C256.829 129.466 256.91 129.467 257.008 129.47C257.106 129.472 257.18 129.476 257.23 129.481V130.385C257.2 130.377 257.131 130.366 257.023 130.351C256.918 130.333 256.806 130.324 256.688 130.324C256.407 130.324 256.156 130.383 255.935 130.501C255.717 130.617 255.544 130.777 255.416 130.983C255.29 131.187 255.227 131.419 255.227 131.68V135.34H254.339ZM260.533 135.46C259.975 135.46 259.495 135.337 259.091 135.091C258.689 134.843 258.379 134.496 258.16 134.052C257.945 133.605 257.837 133.086 257.837 132.493C257.837 131.901 257.945 131.379 258.16 130.927C258.379 130.472 258.683 130.118 259.072 129.865C259.463 129.609 259.92 129.481 260.442 129.481C260.744 129.481 261.041 129.531 261.335 129.631C261.628 129.732 261.896 129.895 262.137 130.121C262.378 130.344 262.57 130.641 262.713 131.01C262.856 131.379 262.928 131.833 262.928 132.373V132.749H258.469V131.981H262.024C262.024 131.655 261.959 131.364 261.828 131.108C261.7 130.851 261.517 130.649 261.278 130.501C261.042 130.353 260.764 130.279 260.442 130.279C260.088 130.279 259.782 130.367 259.524 130.543C259.268 130.716 259.07 130.942 258.932 131.22C258.794 131.499 258.725 131.798 258.725 132.117V132.629C258.725 133.066 258.801 133.436 258.951 133.74C259.104 134.041 259.316 134.27 259.588 134.429C259.859 134.584 260.174 134.662 260.533 134.662C260.766 134.662 260.977 134.629 261.165 134.564C261.356 134.496 261.521 134.396 261.659 134.263C261.797 134.127 261.903 133.959 261.979 133.758L262.837 133.999C262.747 134.291 262.595 134.547 262.382 134.768C262.168 134.986 261.905 135.157 261.591 135.28C261.277 135.4 260.924 135.46 260.533 135.46ZM268.376 130.851L267.578 131.077C267.528 130.944 267.454 130.815 267.356 130.69C267.26 130.562 267.13 130.456 266.964 130.373C266.798 130.29 266.586 130.249 266.328 130.249C265.974 130.249 265.679 130.331 265.443 130.494C265.209 130.654 265.093 130.859 265.093 131.108C265.093 131.328 265.173 131.503 265.334 131.631C265.494 131.759 265.745 131.866 266.087 131.951L266.945 132.162C267.462 132.287 267.848 132.479 268.101 132.738C268.355 132.994 268.481 133.324 268.481 133.728C268.481 134.06 268.386 134.356 268.195 134.617C268.007 134.878 267.743 135.084 267.405 135.234C267.066 135.385 266.672 135.46 266.222 135.46C265.632 135.46 265.144 135.332 264.757 135.076C264.371 134.82 264.126 134.446 264.023 133.954L264.867 133.743C264.947 134.055 265.099 134.288 265.322 134.444C265.548 134.599 265.843 134.677 266.207 134.677C266.621 134.677 266.95 134.589 267.194 134.414C267.44 134.235 267.563 134.022 267.563 133.773C267.563 133.573 267.492 133.404 267.352 133.269C267.211 133.131 266.995 133.028 266.704 132.96L265.74 132.734C265.211 132.609 264.822 132.414 264.573 132.151C264.327 131.884 264.204 131.552 264.204 131.153C264.204 130.826 264.296 130.538 264.479 130.287C264.665 130.036 264.917 129.839 265.236 129.695C265.557 129.552 265.921 129.481 266.328 129.481C266.9 129.481 267.349 129.606 267.676 129.857C268.005 130.108 268.238 130.44 268.376 130.851ZM274.503 135.475C274.137 135.475 273.804 135.406 273.505 135.268C273.207 135.128 272.97 134.926 272.794 134.662C272.618 134.396 272.53 134.075 272.53 133.698C272.53 133.367 272.596 133.098 272.726 132.892C272.857 132.684 273.031 132.521 273.249 132.403C273.468 132.285 273.709 132.197 273.972 132.139C274.239 132.079 274.506 132.031 274.774 131.996C275.126 131.951 275.411 131.917 275.629 131.894C275.85 131.869 276.011 131.828 276.111 131.77C276.214 131.712 276.266 131.612 276.266 131.469V131.439C276.266 131.067 276.164 130.779 275.961 130.573C275.76 130.367 275.455 130.264 275.046 130.264C274.621 130.264 274.289 130.357 274.048 130.543C273.807 130.728 273.637 130.927 273.539 131.138L272.696 130.836C272.847 130.485 273.047 130.211 273.298 130.016C273.552 129.817 273.828 129.679 274.127 129.601C274.428 129.521 274.724 129.481 275.015 129.481C275.201 129.481 275.415 129.503 275.656 129.549C275.899 129.591 276.134 129.68 276.36 129.816C276.588 129.952 276.778 130.156 276.928 130.43C277.079 130.703 277.154 131.07 277.154 131.529V135.34H276.266V134.557H276.22C276.16 134.682 276.06 134.816 275.919 134.96C275.779 135.103 275.592 135.224 275.358 135.325C275.125 135.425 274.84 135.475 274.503 135.475ZM274.639 134.677C274.99 134.677 275.287 134.608 275.528 134.47C275.771 134.332 275.954 134.154 276.077 133.935C276.203 133.717 276.266 133.487 276.266 133.246V132.433C276.228 132.478 276.145 132.52 276.017 132.557C275.892 132.592 275.746 132.624 275.58 132.651C275.417 132.676 275.258 132.699 275.102 132.719C274.949 132.737 274.825 132.752 274.729 132.764C274.498 132.794 274.282 132.843 274.082 132.911C273.883 132.976 273.723 133.076 273.6 133.209C273.479 133.339 273.419 133.517 273.419 133.743C273.419 134.052 273.533 134.286 273.762 134.444C273.992 134.599 274.285 134.677 274.639 134.677ZM278.776 137.509V129.556H279.635V130.475H279.74C279.805 130.375 279.896 130.246 280.011 130.091C280.129 129.933 280.297 129.792 280.516 129.669C280.737 129.544 281.035 129.481 281.412 129.481C281.899 129.481 282.328 129.603 282.7 129.846C283.071 130.09 283.361 130.435 283.57 130.882C283.778 131.328 283.882 131.856 283.882 132.463C283.882 133.076 283.778 133.606 283.57 134.056C283.361 134.503 283.072 134.849 282.703 135.095C282.334 135.339 281.909 135.46 281.427 135.46C281.055 135.46 280.758 135.399 280.535 135.276C280.311 135.15 280.139 135.008 280.019 134.85C279.898 134.69 279.805 134.557 279.74 134.451H279.665V137.509H278.776ZM279.65 132.448C279.65 132.885 279.714 133.27 279.842 133.604C279.97 133.935 280.157 134.195 280.403 134.383C280.649 134.569 280.95 134.662 281.307 134.662C281.678 134.662 281.988 134.564 282.237 134.368C282.488 134.17 282.676 133.904 282.801 133.57C282.929 133.234 282.993 132.86 282.993 132.448C282.993 132.041 282.931 131.675 282.805 131.349C282.682 131.02 282.495 130.76 282.244 130.569C281.996 130.376 281.683 130.279 281.307 130.279C280.945 130.279 280.641 130.371 280.395 130.554C280.149 130.735 279.964 130.988 279.838 131.315C279.712 131.638 279.65 132.016 279.65 132.448ZM285.238 137.509V129.556H286.096V130.475H286.202C286.267 130.375 286.357 130.246 286.473 130.091C286.591 129.933 286.759 129.792 286.977 129.669C287.198 129.544 287.497 129.481 287.873 129.481C288.36 129.481 288.79 129.603 289.161 129.846C289.533 130.09 289.823 130.435 290.031 130.882C290.239 131.328 290.344 131.856 290.344 132.463C290.344 133.076 290.239 133.606 290.031 134.056C289.823 134.503 289.534 134.849 289.165 135.095C288.796 135.339 288.37 135.46 287.888 135.46C287.517 135.46 287.219 135.399 286.996 135.276C286.773 135.15 286.601 135.008 286.48 134.85C286.36 134.69 286.267 134.557 286.202 134.451H286.126V137.509H285.238ZM286.111 132.448C286.111 132.885 286.175 133.27 286.303 133.604C286.431 133.935 286.618 134.195 286.864 134.383C287.11 134.569 287.412 134.662 287.768 134.662C288.139 134.662 288.45 134.564 288.698 134.368C288.949 134.17 289.137 133.904 289.263 133.57C289.391 133.234 289.455 132.86 289.455 132.448C289.455 132.041 289.392 131.675 289.267 131.349C289.144 131.02 288.957 130.76 288.706 130.569C288.457 130.376 288.145 130.279 287.768 130.279C287.406 130.279 287.103 130.371 286.857 130.554C286.611 130.735 286.425 130.988 286.299 131.315C286.174 131.638 286.111 132.016 286.111 132.448ZM291.699 135.34V129.556H292.558V130.43H292.618C292.723 130.144 292.914 129.911 293.19 129.733C293.466 129.555 293.778 129.466 294.124 129.466C294.189 129.466 294.271 129.467 294.369 129.47C294.467 129.472 294.541 129.476 294.591 129.481V130.385C294.561 130.377 294.492 130.366 294.384 130.351C294.278 130.333 294.167 130.324 294.049 130.324C293.768 130.324 293.516 130.383 293.296 130.501C293.077 130.617 292.904 130.777 292.776 130.983C292.65 131.187 292.588 131.419 292.588 131.68V135.34H291.699ZM297.818 135.46C297.296 135.46 296.838 135.336 296.443 135.088C296.052 134.839 295.746 134.491 295.525 134.045C295.306 133.598 295.197 133.076 295.197 132.478C295.197 131.876 295.306 131.35 295.525 130.9C295.746 130.451 296.052 130.102 296.443 129.854C296.838 129.605 297.296 129.481 297.818 129.481C298.34 129.481 298.797 129.605 299.188 129.854C299.583 130.102 299.889 130.451 300.107 130.9C300.328 131.35 300.439 131.876 300.439 132.478C300.439 133.076 300.328 133.598 300.107 134.045C299.889 134.491 299.583 134.839 299.188 135.088C298.797 135.336 298.34 135.46 297.818 135.46ZM297.818 134.662C298.214 134.662 298.541 134.56 298.797 134.357C299.053 134.154 299.242 133.886 299.365 133.555C299.488 133.224 299.55 132.865 299.55 132.478C299.55 132.092 299.488 131.731 299.365 131.397C299.242 131.064 299.053 130.794 298.797 130.588C298.541 130.382 298.214 130.279 297.818 130.279C297.421 130.279 297.095 130.382 296.839 130.588C296.583 130.794 296.393 131.064 296.27 131.397C296.147 131.731 296.086 132.092 296.086 132.478C296.086 132.865 296.147 133.224 296.27 133.555C296.393 133.886 296.583 134.154 296.839 134.357C297.095 134.56 297.421 134.662 297.818 134.662ZM306.317 129.556L304.179 135.34H303.275L301.136 129.556H302.1L303.697 134.165H303.757L305.353 129.556H306.317ZM309.016 135.475C308.65 135.475 308.317 135.406 308.018 135.268C307.72 135.128 307.482 134.926 307.307 134.662C307.131 134.396 307.043 134.075 307.043 133.698C307.043 133.367 307.108 133.098 307.239 132.892C307.369 132.684 307.544 132.521 307.762 132.403C307.981 132.285 308.222 132.197 308.485 132.139C308.751 132.079 309.019 132.031 309.287 131.996C309.639 131.951 309.924 131.917 310.142 131.894C310.363 131.869 310.524 131.828 310.624 131.77C310.727 131.712 310.778 131.612 310.778 131.469V131.439C310.778 131.067 310.677 130.779 310.473 130.573C310.273 130.367 309.968 130.264 309.558 130.264C309.134 130.264 308.802 130.357 308.561 130.543C308.32 130.728 308.15 130.927 308.052 131.138L307.209 130.836C307.359 130.485 307.56 130.211 307.811 130.016C308.065 129.817 308.341 129.679 308.64 129.601C308.941 129.521 309.237 129.481 309.528 129.481C309.714 129.481 309.927 129.503 310.168 129.549C310.412 129.591 310.647 129.68 310.873 129.816C311.101 129.952 311.291 130.156 311.441 130.43C311.592 130.703 311.667 131.07 311.667 131.529V135.34H310.778V134.557H310.733C310.673 134.682 310.573 134.816 310.432 134.96C310.291 135.103 310.104 135.224 309.871 135.325C309.637 135.425 309.353 135.475 309.016 135.475ZM309.152 134.677C309.503 134.677 309.799 134.608 310.04 134.47C310.284 134.332 310.467 134.154 310.59 133.935C310.716 133.717 310.778 133.487 310.778 133.246V132.433C310.741 132.478 310.658 132.52 310.53 132.557C310.404 132.592 310.259 132.624 310.093 132.651C309.93 132.676 309.771 132.699 309.615 132.719C309.462 132.737 309.338 132.752 309.242 132.764C309.011 132.794 308.795 132.843 308.594 132.911C308.396 132.976 308.236 133.076 308.112 133.209C307.992 133.339 307.932 133.517 307.932 133.743C307.932 134.052 308.046 134.286 308.274 134.444C308.505 134.599 308.798 134.677 309.152 134.677ZM314.178 127.628V135.34H313.289V127.628H314.178Z" fill="black"/>
<rect x="97.3787" y="156.719" width="235.243" height="40.8172" rx="3.62131" fill="#FDFDFC"/>
<rect x="97.3787" y="156.719" width="235.243" height="40.8172" rx="3.62131" stroke="#DBDBD7" stroke-width="0.757386"/>
<path d="M107.022 172.127V164.415H109.628C110.231 164.415 110.725 164.518 111.112 164.724C111.498 164.927 111.784 165.207 111.97 165.564C112.156 165.92 112.249 166.325 112.249 166.78C112.249 167.234 112.156 167.637 111.97 167.989C111.784 168.34 111.5 168.616 111.115 168.817C110.731 169.015 110.241 169.114 109.643 169.114H107.535V168.271H109.613C110.025 168.271 110.356 168.211 110.607 168.09C110.861 167.97 111.044 167.799 111.157 167.578C111.272 167.355 111.33 167.089 111.33 166.78C111.33 166.471 111.272 166.201 111.157 165.97C111.041 165.739 110.857 165.561 110.603 165.436C110.35 165.308 110.015 165.244 109.598 165.244H107.956V172.127H107.022ZM110.652 168.663L112.55 172.127H111.466L109.598 168.663H110.652ZM116.047 172.247C115.49 172.247 115.009 172.124 114.605 171.878C114.203 171.63 113.893 171.283 113.675 170.839C113.459 170.392 113.351 169.872 113.351 169.28C113.351 168.688 113.459 168.165 113.675 167.714C113.893 167.259 114.197 166.905 114.586 166.652C114.978 166.396 115.435 166.268 115.957 166.268C116.258 166.268 116.556 166.318 116.849 166.418C117.143 166.519 117.41 166.682 117.651 166.908C117.892 167.131 118.084 167.427 118.227 167.796C118.37 168.165 118.442 168.62 118.442 169.16V169.536H113.984V168.768H117.538C117.538 168.442 117.473 168.15 117.343 167.894C117.214 167.638 117.031 167.436 116.793 167.288C116.557 167.14 116.278 167.066 115.957 167.066C115.603 167.066 115.297 167.154 115.038 167.33C114.782 167.503 114.585 167.729 114.447 168.007C114.309 168.286 114.24 168.585 114.24 168.904V169.416C114.24 169.852 114.315 170.223 114.466 170.526C114.619 170.828 114.831 171.057 115.102 171.215C115.373 171.371 115.688 171.449 116.047 171.449C116.281 171.449 116.492 171.416 116.68 171.351C116.871 171.283 117.035 171.183 117.173 171.05C117.311 170.914 117.418 170.746 117.493 170.545L118.352 170.786C118.261 171.077 118.109 171.333 117.896 171.554C117.683 171.773 117.419 171.943 117.105 172.066C116.792 172.187 116.439 172.247 116.047 172.247ZM121.496 172.262C121.129 172.262 120.797 172.193 120.498 172.055C120.199 171.915 119.962 171.713 119.786 171.449C119.611 171.183 119.523 170.862 119.523 170.485C119.523 170.154 119.588 169.885 119.718 169.679C119.849 169.471 120.023 169.308 120.242 169.19C120.46 169.072 120.701 168.984 120.965 168.926C121.231 168.866 121.498 168.818 121.767 168.783C122.118 168.738 122.403 168.704 122.622 168.681C122.843 168.656 123.003 168.615 123.104 168.557C123.207 168.499 123.258 168.399 123.258 168.256V168.226C123.258 167.854 123.156 167.566 122.953 167.36C122.752 167.154 122.447 167.051 122.038 167.051C121.614 167.051 121.281 167.144 121.04 167.33C120.799 167.515 120.63 167.714 120.532 167.925L119.688 167.623C119.839 167.272 120.04 166.998 120.291 166.802C120.544 166.604 120.82 166.466 121.119 166.388C121.42 166.308 121.717 166.268 122.008 166.268C122.194 166.268 122.407 166.29 122.648 166.335C122.891 166.378 123.126 166.467 123.352 166.603C123.581 166.738 123.77 166.943 123.921 167.217C124.071 167.49 124.147 167.857 124.147 168.316V172.127H123.258V171.344H123.213C123.153 171.469 123.052 171.603 122.912 171.746C122.771 171.889 122.584 172.011 122.351 172.112C122.117 172.212 121.832 172.262 121.496 172.262ZM121.631 171.464C121.983 171.464 122.279 171.395 122.52 171.257C122.763 171.119 122.947 170.941 123.07 170.722C123.195 170.504 123.258 170.274 123.258 170.033V169.22C123.22 169.265 123.137 169.306 123.009 169.344C122.884 169.379 122.738 169.411 122.573 169.438C122.41 169.463 122.25 169.486 122.094 169.506C121.941 169.524 121.817 169.539 121.722 169.551C121.491 169.581 121.275 169.63 121.074 169.698C120.876 169.763 120.715 169.862 120.592 169.995C120.472 170.126 120.411 170.304 120.411 170.53C120.411 170.839 120.526 171.072 120.754 171.231C120.985 171.386 121.277 171.464 121.631 171.464ZM129.865 167.638L129.067 167.864C129.017 167.731 128.943 167.602 128.845 167.476C128.75 167.348 128.619 167.243 128.453 167.16C128.288 167.077 128.076 167.036 127.817 167.036C127.463 167.036 127.168 167.117 126.932 167.281C126.699 167.441 126.582 167.646 126.582 167.894C126.582 168.115 126.662 168.29 126.823 168.418C126.984 168.546 127.235 168.652 127.576 168.738L128.434 168.949C128.952 169.074 129.337 169.266 129.59 169.525C129.844 169.781 129.971 170.111 129.971 170.515C129.971 170.846 129.875 171.143 129.685 171.404C129.496 171.665 129.233 171.871 128.894 172.021C128.555 172.172 128.161 172.247 127.712 172.247C127.122 172.247 126.633 172.119 126.247 171.863C125.86 171.607 125.615 171.233 125.513 170.741L126.356 170.53C126.436 170.841 126.588 171.075 126.812 171.231C127.038 171.386 127.332 171.464 127.696 171.464C128.111 171.464 128.44 171.376 128.683 171.2C128.929 171.022 129.052 170.809 129.052 170.56C129.052 170.359 128.982 170.191 128.841 170.056C128.701 169.918 128.485 169.815 128.193 169.747L127.23 169.521C126.7 169.396 126.311 169.201 126.062 168.937C125.816 168.671 125.693 168.339 125.693 167.94C125.693 167.613 125.785 167.325 125.968 167.074C126.154 166.822 126.406 166.625 126.725 166.482C127.046 166.339 127.41 166.268 127.817 166.268C128.389 166.268 128.839 166.393 129.165 166.644C129.494 166.895 129.727 167.227 129.865 167.638ZM133.658 172.247C133.136 172.247 132.678 172.123 132.284 171.874C131.892 171.626 131.586 171.278 131.365 170.831C131.147 170.385 131.037 169.862 131.037 169.265C131.037 168.663 131.147 168.137 131.365 167.687C131.586 167.238 131.892 166.889 132.284 166.64C132.678 166.392 133.136 166.268 133.658 166.268C134.18 166.268 134.637 166.392 135.029 166.64C135.423 166.889 135.729 167.238 135.947 167.687C136.168 168.137 136.279 168.663 136.279 169.265C136.279 169.862 136.168 170.385 135.947 170.831C135.729 171.278 135.423 171.626 135.029 171.874C134.637 172.123 134.18 172.247 133.658 172.247ZM133.658 171.449C134.055 171.449 134.381 171.347 134.637 171.144C134.893 170.941 135.083 170.673 135.206 170.342C135.329 170.011 135.39 169.652 135.39 169.265C135.39 168.878 135.329 168.518 135.206 168.184C135.083 167.85 134.893 167.581 134.637 167.375C134.381 167.169 134.055 167.066 133.658 167.066C133.261 167.066 132.935 167.169 132.679 167.375C132.423 167.581 132.233 167.85 132.11 168.184C131.987 168.518 131.926 168.878 131.926 169.265C131.926 169.652 131.987 170.011 132.11 170.342C132.233 170.673 132.423 170.941 132.679 171.144C132.935 171.347 133.261 171.449 133.658 171.449ZM138.524 168.647V172.127H137.635V166.343H138.494V167.247H138.569C138.705 166.953 138.91 166.717 139.187 166.539C139.463 166.358 139.819 166.268 140.256 166.268C140.648 166.268 140.99 166.348 141.284 166.509C141.578 166.667 141.806 166.908 141.969 167.232C142.132 167.553 142.214 167.96 142.214 168.452V172.127H141.325V168.512C141.325 168.058 141.207 167.704 140.971 167.45C140.735 167.194 140.412 167.066 140 167.066C139.716 167.066 139.463 167.127 139.239 167.25C139.018 167.373 138.844 167.553 138.716 167.789C138.588 168.025 138.524 168.311 138.524 168.647Z" fill="#90908C"/>
<rect x="161.926" y="215.915" width="106.148" height="30.2955" rx="3.02955" fill="#974EF2"/>
<path d="M170.318 234.562V226.851H173.21C173.802 226.851 174.299 226.954 174.701 227.159C175.105 227.365 175.41 227.654 175.616 228.025C175.824 228.395 175.929 228.825 175.929 229.317C175.929 229.812 175.823 230.241 175.612 230.605C175.404 230.966 175.096 231.246 174.69 231.444C174.283 231.64 173.784 231.738 173.191 231.738H171.131V230.578H173.003C173.349 230.578 173.633 230.531 173.854 230.435C174.075 230.337 174.238 230.196 174.343 230.01C174.451 229.822 174.505 229.591 174.505 229.317C174.505 229.043 174.451 228.81 174.343 228.617C174.235 228.421 174.071 228.273 173.85 228.172C173.629 228.069 173.344 228.018 172.995 228.018H171.715V234.562H170.318ZM174.302 231.068L176.211 234.562H174.652L172.777 231.068H174.302ZM179.632 234.675C179.052 234.675 178.551 234.555 178.13 234.314C177.71 234.07 177.388 233.726 177.162 233.282C176.936 232.835 176.823 232.309 176.823 231.704C176.823 231.109 176.936 230.587 177.162 230.138C177.39 229.686 177.709 229.335 178.118 229.084C178.527 228.83 179.008 228.703 179.56 228.703C179.917 228.703 180.253 228.761 180.57 228.876C180.888 228.989 181.169 229.165 181.413 229.404C181.659 229.642 181.852 229.946 181.993 230.315C182.133 230.681 182.204 231.118 182.204 231.625V232.043H177.463V231.124H180.897C180.895 230.863 180.838 230.631 180.728 230.428C180.617 230.222 180.463 230.06 180.265 229.942C180.069 229.824 179.84 229.765 179.579 229.765C179.301 229.765 179.056 229.833 178.845 229.968C178.634 230.101 178.47 230.277 178.352 230.496C178.236 230.711 178.177 230.949 178.175 231.207V232.009C178.175 232.346 178.236 232.634 178.359 232.875C178.482 233.114 178.654 233.297 178.875 233.425C179.096 233.551 179.355 233.613 179.651 233.613C179.849 233.613 180.029 233.586 180.189 233.531C180.35 233.473 180.489 233.389 180.607 233.278C180.725 233.168 180.814 233.031 180.875 232.868L182.147 233.011C182.067 233.347 181.914 233.641 181.688 233.892C181.464 234.141 181.178 234.334 180.829 234.472C180.48 234.607 180.081 234.675 179.632 234.675ZM187.216 236.731V233.651H187.16C187.09 233.792 186.988 233.941 186.855 234.099C186.722 234.255 186.546 234.388 186.328 234.498C186.109 234.609 185.835 234.664 185.503 234.664C185.049 234.664 184.642 234.547 184.283 234.314C183.924 234.08 183.641 233.741 183.432 233.297C183.224 232.853 183.12 232.313 183.12 231.678C183.12 231.035 183.225 230.493 183.436 230.051C183.649 229.607 183.937 229.272 184.298 229.046C184.66 228.817 185.063 228.703 185.507 228.703C185.846 228.703 186.124 228.761 186.343 228.876C186.561 228.989 186.734 229.126 186.862 229.287C186.99 229.445 187.09 229.594 187.16 229.735H187.243V228.779H188.583V236.731H187.216ZM185.883 233.546C186.172 233.546 186.418 233.468 186.621 233.312C186.825 233.154 186.979 232.934 187.085 232.653C187.19 232.372 187.243 232.044 187.243 231.67C187.243 231.296 187.19 230.971 187.085 230.695C186.982 230.419 186.829 230.204 186.625 230.051C186.424 229.898 186.177 229.822 185.883 229.822C185.58 229.822 185.326 229.901 185.123 230.059C184.92 230.217 184.766 230.435 184.663 230.714C184.561 230.993 184.509 231.311 184.509 231.67C184.509 232.032 184.561 232.354 184.663 232.638C184.769 232.919 184.923 233.141 185.127 233.305C185.332 233.465 185.585 233.546 185.883 233.546ZM193.67 232.13V228.779H195.033V234.562H193.712V233.534H193.652C193.521 233.858 193.306 234.123 193.008 234.329C192.711 234.535 192.346 234.638 191.912 234.638C191.533 234.638 191.198 234.553 190.907 234.385C190.618 234.215 190.392 233.967 190.229 233.643C190.066 233.317 189.984 232.923 189.984 232.461V228.779H191.347V232.25C191.347 232.617 191.447 232.908 191.648 233.124C191.849 233.34 192.113 233.448 192.439 233.448C192.64 233.448 192.834 233.399 193.023 233.301C193.211 233.203 193.365 233.057 193.486 232.864C193.609 232.668 193.67 232.423 193.67 232.13ZM198.996 234.675C198.416 234.675 197.915 234.555 197.493 234.314C197.074 234.07 196.751 233.726 196.525 233.282C196.3 232.835 196.187 232.309 196.187 231.704C196.187 231.109 196.3 230.587 196.525 230.138C196.754 229.686 197.073 229.335 197.482 229.084C197.891 228.83 198.372 228.703 198.924 228.703C199.28 228.703 199.617 228.761 199.933 228.876C200.252 228.989 200.533 229.165 200.777 229.404C201.023 229.642 201.216 229.946 201.356 230.315C201.497 230.681 201.567 231.118 201.567 231.625V232.043H196.827V231.124H200.261C200.258 230.863 200.202 230.631 200.091 230.428C199.981 230.222 199.826 230.06 199.628 229.942C199.432 229.824 199.204 229.765 198.943 229.765C198.664 229.765 198.419 229.833 198.209 229.968C197.998 230.101 197.833 230.277 197.715 230.496C197.6 230.711 197.541 230.949 197.538 231.207V232.009C197.538 232.346 197.6 232.634 197.723 232.875C197.846 233.114 198.018 233.297 198.239 233.425C198.46 233.551 198.718 233.613 199.014 233.613C199.213 233.613 199.392 233.586 199.553 233.531C199.714 233.473 199.853 233.389 199.971 233.278C200.089 233.168 200.178 233.031 200.238 232.868L201.511 233.011C201.431 233.347 201.277 233.641 201.051 233.892C200.828 234.141 200.542 234.334 200.193 234.472C199.844 234.607 199.445 234.675 198.996 234.675ZM207.292 230.307L206.049 230.443C206.014 230.317 205.952 230.199 205.865 230.089C205.779 229.978 205.664 229.889 205.518 229.822C205.373 229.754 205.194 229.72 204.984 229.72C204.7 229.72 204.461 229.781 204.268 229.904C204.077 230.027 203.983 230.187 203.986 230.383C203.983 230.551 204.045 230.688 204.17 230.793C204.298 230.899 204.509 230.985 204.803 231.053L205.789 231.264C206.337 231.382 206.743 231.569 207.009 231.825C207.278 232.081 207.413 232.416 207.416 232.83C207.413 233.194 207.307 233.515 207.096 233.794C206.888 234.07 206.598 234.286 206.226 234.442C205.855 234.597 205.428 234.675 204.946 234.675C204.238 234.675 203.668 234.527 203.236 234.231C202.805 233.932 202.547 233.517 202.464 232.985L203.794 232.857C203.854 233.118 203.982 233.315 204.178 233.448C204.374 233.581 204.628 233.647 204.942 233.647C205.266 233.647 205.526 233.581 205.722 233.448C205.92 233.315 206.019 233.15 206.019 232.954C206.019 232.789 205.955 232.652 205.827 232.544C205.701 232.436 205.506 232.353 205.24 232.295L204.253 232.088C203.698 231.973 203.288 231.778 203.022 231.505C202.756 231.229 202.624 230.88 202.626 230.458C202.624 230.101 202.721 229.793 202.916 229.532C203.115 229.268 203.389 229.065 203.741 228.922C204.095 228.776 204.503 228.703 204.965 228.703C205.642 228.703 206.176 228.848 206.565 229.136C206.957 229.425 207.199 229.815 207.292 230.307ZM211.428 228.779V229.833H208.103V228.779H211.428ZM208.924 227.393H210.287V232.823C210.287 233.006 210.315 233.146 210.37 233.244C210.428 233.34 210.503 233.405 210.596 233.44C210.689 233.475 210.792 233.493 210.905 233.493C210.99 233.493 211.068 233.487 211.138 233.474C211.211 233.461 211.266 233.45 211.304 233.44L211.533 234.506C211.461 234.531 211.356 234.558 211.221 234.589C211.088 234.619 210.925 234.636 210.731 234.641C210.39 234.651 210.083 234.6 209.809 234.487C209.535 234.371 209.318 234.193 209.157 233.952C208.999 233.711 208.922 233.41 208.924 233.049V227.393ZM216.249 234.562H214.758L217.472 226.851H219.197L221.916 234.562H220.425L218.365 228.432H218.305L216.249 234.562ZM216.298 231.539H220.364V232.661H216.298V231.539ZM222.871 236.731V228.779H224.212V229.735H224.291C224.361 229.594 224.46 229.445 224.588 229.287C224.716 229.126 224.889 228.989 225.108 228.876C225.326 228.761 225.605 228.703 225.944 228.703C226.391 228.703 226.793 228.817 227.152 229.046C227.514 229.272 227.8 229.607 228.011 230.051C228.224 230.493 228.331 231.035 228.331 231.678C228.331 232.313 228.227 232.853 228.018 233.297C227.81 233.741 227.526 234.08 227.167 234.314C226.809 234.547 226.402 234.664 225.947 234.664C225.616 234.664 225.341 234.609 225.123 234.498C224.904 234.388 224.729 234.255 224.596 234.099C224.465 233.941 224.363 233.792 224.291 233.651H224.234V236.731H222.871ZM224.208 231.67C224.208 232.044 224.261 232.372 224.366 232.653C224.474 232.934 224.628 233.154 224.829 233.312C225.032 233.468 225.278 233.546 225.567 233.546C225.868 233.546 226.121 233.465 226.324 233.305C226.527 233.141 226.68 232.919 226.783 232.638C226.889 232.354 226.942 232.032 226.942 231.67C226.942 231.311 226.89 230.993 226.787 230.714C226.684 230.435 226.531 230.217 226.328 230.059C226.124 229.901 225.871 229.822 225.567 229.822C225.276 229.822 225.029 229.898 224.825 230.051C224.622 230.204 224.468 230.419 224.362 230.695C224.259 230.971 224.208 231.296 224.208 231.67ZM229.498 236.731V228.779H230.839V229.735H230.918C230.988 229.594 231.087 229.445 231.215 229.287C231.343 229.126 231.517 228.989 231.735 228.876C231.953 228.761 232.232 228.703 232.571 228.703C233.018 228.703 233.421 228.817 233.78 229.046C234.141 229.272 234.427 229.607 234.638 230.051C234.851 230.493 234.958 231.035 234.958 231.678C234.958 232.313 234.854 232.853 234.646 233.297C234.437 233.741 234.154 234.08 233.795 234.314C233.436 234.547 233.029 234.664 232.575 234.664C232.243 234.664 231.968 234.609 231.75 234.498C231.532 234.388 231.356 234.255 231.223 234.099C231.092 233.941 230.991 233.792 230.918 233.651H230.861V236.731H229.498ZM230.835 231.67C230.835 232.044 230.888 232.372 230.993 232.653C231.101 232.934 231.255 233.154 231.456 233.312C231.66 233.468 231.906 233.546 232.194 233.546C232.496 233.546 232.748 233.465 232.951 233.305C233.154 233.141 233.308 232.919 233.411 232.638C233.516 232.354 233.569 232.032 233.569 231.67C233.569 231.311 233.517 230.993 233.414 230.714C233.311 230.435 233.158 230.217 232.955 230.059C232.752 229.901 232.498 229.822 232.194 229.822C231.903 229.822 231.656 229.898 231.453 230.051C231.249 230.204 231.095 230.419 230.989 230.695C230.886 230.971 230.835 231.296 230.835 231.67ZM236.125 234.562V228.779H237.447V229.743H237.507C237.613 229.409 237.793 229.151 238.05 228.971C238.308 228.787 238.603 228.696 238.934 228.696C239.01 228.696 239.094 228.7 239.187 228.707C239.282 228.712 239.361 228.721 239.424 228.733V229.987C239.366 229.967 239.275 229.95 239.149 229.935C239.026 229.917 238.907 229.908 238.791 229.908C238.543 229.908 238.319 229.962 238.121 230.07C237.925 230.176 237.771 230.322 237.658 230.511C237.545 230.699 237.488 230.916 237.488 231.162V234.562H236.125ZM242.614 234.675C242.049 234.675 241.56 234.551 241.146 234.302C240.731 234.054 240.41 233.706 240.182 233.259C239.956 232.813 239.843 232.29 239.843 231.693C239.843 231.096 239.956 230.572 240.182 230.123C240.41 229.673 240.731 229.325 241.146 229.076C241.56 228.828 242.049 228.703 242.614 228.703C243.179 228.703 243.668 228.828 244.083 229.076C244.497 229.325 244.817 229.673 245.043 230.123C245.271 230.572 245.385 231.096 245.385 231.693C245.385 232.29 245.271 232.813 245.043 233.259C244.817 233.706 244.497 234.054 244.083 234.302C243.668 234.551 243.179 234.675 242.614 234.675ZM242.622 233.583C242.928 233.583 243.184 233.499 243.39 233.331C243.596 233.16 243.749 232.932 243.849 232.646C243.952 232.359 244.004 232.041 244.004 231.689C244.004 231.335 243.952 231.015 243.849 230.729C243.749 230.44 243.596 230.211 243.39 230.04C243.184 229.869 242.928 229.784 242.622 229.784C242.308 229.784 242.047 229.869 241.838 230.04C241.633 230.211 241.478 230.44 241.375 230.729C241.275 231.015 241.225 231.335 241.225 231.689C241.225 232.041 241.275 232.359 241.375 232.646C241.478 232.932 241.633 233.16 241.838 233.331C242.047 233.499 242.308 233.583 242.622 233.583ZM251.512 228.779L249.452 234.562H247.946L245.886 228.779H247.34L248.669 233.075H248.729L250.062 228.779H251.512ZM253.954 234.679C253.587 234.679 253.257 234.614 252.963 234.483C252.672 234.35 252.441 234.154 252.271 233.896C252.102 233.637 252.018 233.318 252.018 232.939C252.018 232.613 252.079 232.343 252.199 232.13C252.32 231.916 252.484 231.746 252.692 231.618C252.901 231.49 253.135 231.393 253.396 231.328C253.66 231.26 253.932 231.211 254.214 231.181C254.552 231.146 254.827 231.114 255.038 231.087C255.249 231.057 255.402 231.011 255.498 230.951C255.595 230.888 255.644 230.792 255.644 230.661V230.639C255.644 230.355 255.56 230.135 255.392 229.98C255.224 229.824 254.982 229.746 254.665 229.746C254.331 229.746 254.067 229.819 253.871 229.965C253.678 230.11 253.547 230.282 253.479 230.481L252.207 230.3C252.307 229.948 252.473 229.655 252.704 229.419C252.935 229.18 253.217 229.002 253.551 228.884C253.885 228.764 254.254 228.703 254.658 228.703C254.936 228.703 255.214 228.736 255.49 228.801C255.766 228.866 256.018 228.974 256.247 229.125C256.475 229.273 256.659 229.475 256.797 229.731C256.937 229.987 257.007 230.307 257.007 230.691V234.562H255.697V233.768H255.652C255.569 233.928 255.452 234.079 255.302 234.22C255.154 234.358 254.967 234.469 254.741 234.555C254.517 234.638 254.255 234.679 253.954 234.679ZM254.308 233.677C254.581 233.677 254.818 233.623 255.019 233.515C255.22 233.405 255.375 233.259 255.482 233.079C255.593 232.898 255.648 232.701 255.648 232.488V231.806C255.605 231.841 255.533 231.874 255.43 231.904C255.329 231.934 255.216 231.96 255.091 231.983C254.965 232.006 254.841 232.026 254.718 232.043C254.595 232.061 254.488 232.076 254.398 232.088C254.195 232.116 254.013 232.161 253.852 232.224C253.691 232.287 253.565 232.375 253.472 232.488C253.379 232.598 253.332 232.741 253.332 232.917C253.332 233.168 253.424 233.357 253.607 233.485C253.791 233.613 254.024 233.677 254.308 233.677ZM259.741 226.851V234.562H258.378V226.851H259.741Z" fill="white"/>
<circle cx="165.728" cy="273.435" r="9.22515" fill="#E9E9E6" stroke="#DBDBD7" stroke-width="0.757386"/>
<g clip-path="url(#clip2_11902_2522)">
<path d="M165.445 266.066C161.493 266.066 161.688 270.47 161.454 273.275C161.451 273.317 161.465 273.357 161.493 273.388C161.521 273.418 161.56 273.435 161.601 273.435H163.959C164.037 273.435 164.102 273.374 164.106 273.296L164.315 269.757C164.359 269.009 164.978 268.424 165.728 268.424C166.477 268.424 167.097 269.009 167.141 269.757L167.349 273.296C167.354 273.374 167.418 273.435 167.496 273.435H169.854C169.895 273.435 169.935 273.418 169.963 273.388C169.99 273.357 170.004 273.317 170.001 273.275L169.682 269.445C169.523 267.535 167.926 266.066 166.01 266.066H165.445Z" fill="#706F6C"/>
<path d="M165.728 279.33C163.817 279.33 162.461 279.286 161.588 279.243C160.655 279.196 159.868 278.524 159.777 277.555C159.726 277.011 159.685 276.283 159.685 275.351C159.685 274.419 159.726 273.691 159.777 273.147C159.868 272.177 160.655 271.505 161.588 271.459C162.461 271.416 163.817 271.372 165.728 271.372C167.638 271.372 168.994 271.416 169.867 271.459C170.8 271.505 171.588 272.177 171.678 273.147C171.729 273.691 171.77 274.419 171.77 275.351C171.77 276.283 171.729 277.011 171.678 277.555C171.588 278.524 170.8 279.196 169.867 279.243C168.994 279.286 167.638 279.33 165.728 279.33Z" fill="url(#paint0_linear_11902_2522)"/>
<path fill-rule="evenodd" clip-rule="evenodd" d="M168.312 273.986C168.533 273.665 168.451 273.225 168.13 273.005C167.808 272.785 167.369 272.866 167.149 273.187L165.719 275.271L164.963 274.431C164.702 274.142 164.256 274.119 163.966 274.379C163.677 274.64 163.654 275.086 163.914 275.375L165.27 276.88C165.415 277.041 165.625 277.126 165.841 277.112C166.056 277.098 166.253 276.986 166.376 276.807L168.312 273.986Z" fill="#1B1B18"/>
</g>
<path d="M184.074 270.796C184.034 270.457 183.871 270.194 183.586 270.006C183.3 269.819 182.95 269.725 182.535 269.725C182.232 269.725 181.967 269.774 181.739 269.872C181.514 269.971 181.338 270.105 181.21 270.277C181.085 270.449 181.023 270.644 181.023 270.863C181.023 271.046 181.067 271.203 181.154 271.335C181.243 271.464 181.356 271.572 181.495 271.659C181.633 271.744 181.778 271.814 181.93 271.87C182.081 271.923 182.221 271.967 182.348 272L183.044 272.188C183.222 272.235 183.421 272.299 183.639 272.382C183.86 272.464 184.071 272.577 184.272 272.72C184.475 272.86 184.642 273.041 184.774 273.262C184.905 273.483 184.971 273.754 184.971 274.075C184.971 274.445 184.874 274.78 184.68 275.079C184.488 275.377 184.207 275.615 183.837 275.791C183.469 275.967 183.022 276.056 182.495 276.056C182.004 276.056 181.58 275.976 181.22 275.818C180.864 275.66 180.582 275.439 180.377 275.155C180.174 274.872 180.059 274.543 180.033 274.168H180.889C180.911 274.427 180.998 274.641 181.15 274.811C181.304 274.978 181.498 275.103 181.732 275.186C181.969 275.266 182.223 275.306 182.495 275.306C182.812 275.306 183.096 275.255 183.348 275.152C183.6 275.047 183.8 274.902 183.947 274.717C184.094 274.53 184.168 274.311 184.168 274.061C184.168 273.834 184.105 273.649 183.977 273.506C183.85 273.363 183.683 273.247 183.476 273.158C183.268 273.069 183.044 272.991 182.803 272.924L181.96 272.683C181.425 272.529 181.001 272.309 180.688 272.024C180.376 271.738 180.22 271.365 180.22 270.903C180.22 270.519 180.324 270.185 180.531 269.899C180.741 269.611 181.022 269.388 181.374 269.23C181.729 269.069 182.125 268.989 182.562 268.989C183.004 268.989 183.396 269.068 183.74 269.227C184.083 269.383 184.355 269.597 184.556 269.869C184.759 270.141 184.866 270.45 184.877 270.796H184.074ZM188.383 276.042C187.888 276.042 187.461 275.933 187.102 275.714C186.745 275.493 186.469 275.186 186.275 274.791C186.083 274.394 185.987 273.932 185.987 273.406C185.987 272.879 186.083 272.415 186.275 272.014C186.469 271.61 186.739 271.295 187.085 271.07C187.433 270.843 187.839 270.729 188.303 270.729C188.57 270.729 188.835 270.774 189.096 270.863C189.357 270.952 189.594 271.097 189.808 271.298C190.022 271.496 190.193 271.759 190.32 272.087C190.447 272.415 190.511 272.819 190.511 273.299V273.633H186.55V272.951H189.708C189.708 272.661 189.65 272.402 189.534 272.174C189.42 271.947 189.257 271.767 189.046 271.636C188.836 271.504 188.588 271.438 188.303 271.438C187.988 271.438 187.716 271.516 187.486 271.672C187.259 271.826 187.084 272.027 186.961 272.275C186.838 272.522 186.777 272.788 186.777 273.071V273.526C186.777 273.914 186.844 274.243 186.978 274.513C187.114 274.781 187.302 274.985 187.543 275.125C187.784 275.264 188.064 275.333 188.383 275.333C188.59 275.333 188.778 275.304 188.945 275.246C189.115 275.186 189.261 275.096 189.383 274.978C189.506 274.858 189.601 274.708 189.668 274.53L190.431 274.744C190.35 275.003 190.215 275.23 190.026 275.426C189.836 275.621 189.602 275.772 189.323 275.882C189.044 275.989 188.731 276.042 188.383 276.042ZM193.8 276.042C193.318 276.042 192.903 275.928 192.555 275.701C192.207 275.473 191.94 275.16 191.752 274.761C191.565 274.361 191.471 273.905 191.471 273.392C191.471 272.87 191.567 272.41 191.759 272.01C191.953 271.609 192.223 271.295 192.569 271.07C192.917 270.843 193.323 270.729 193.787 270.729C194.148 270.729 194.474 270.796 194.764 270.93C195.054 271.064 195.291 271.251 195.476 271.492C195.661 271.733 195.776 272.014 195.821 272.335H195.031C194.971 272.101 194.837 271.893 194.63 271.713C194.425 271.53 194.148 271.438 193.8 271.438C193.492 271.438 193.222 271.519 192.99 271.679C192.761 271.838 192.581 272.062 192.452 272.352C192.324 272.639 192.261 272.977 192.261 273.365C192.261 273.762 192.323 274.108 192.448 274.403C192.575 274.697 192.754 274.926 192.984 275.089C193.216 275.251 193.488 275.333 193.8 275.333C194.005 275.333 194.191 275.297 194.359 275.226C194.526 275.154 194.668 275.052 194.784 274.918C194.9 274.784 194.982 274.623 195.031 274.436H195.821C195.776 274.739 195.666 275.013 195.49 275.256C195.316 275.497 195.085 275.689 194.797 275.831C194.511 275.972 194.179 276.042 193.8 276.042ZM200.214 273.834V270.796H201.004V275.935H200.214V275.065H200.16C200.04 275.326 199.853 275.548 199.598 275.731C199.344 275.912 199.023 276.002 198.635 276.002C198.313 276.002 198.028 275.932 197.778 275.791C197.528 275.648 197.332 275.434 197.189 275.149C197.047 274.861 196.975 274.499 196.975 274.061V270.796H197.765V274.008C197.765 274.383 197.87 274.681 198.079 274.905C198.291 275.128 198.561 275.239 198.889 275.239C199.085 275.239 199.285 275.189 199.488 275.089C199.693 274.988 199.865 274.834 200.003 274.627C200.144 274.419 200.214 274.155 200.214 273.834ZM202.45 275.935V270.796H203.213V271.572H203.266C203.36 271.318 203.529 271.111 203.775 270.953C204.02 270.795 204.297 270.716 204.605 270.716C204.662 270.716 204.735 270.717 204.822 270.719C204.909 270.721 204.975 270.724 205.019 270.729V271.532C204.993 271.525 204.931 271.515 204.835 271.502C204.742 271.486 204.642 271.478 204.538 271.478C204.288 271.478 204.065 271.531 203.868 271.636C203.674 271.738 203.52 271.881 203.407 272.064C203.295 272.245 203.239 272.451 203.239 272.683V275.935H202.45ZM207.954 276.042C207.459 276.042 207.031 275.933 206.672 275.714C206.315 275.493 206.04 275.186 205.846 274.791C205.654 274.394 205.558 273.932 205.558 273.406C205.558 272.879 205.654 272.415 205.846 272.014C206.04 271.61 206.31 271.295 206.656 271.07C207.003 270.843 207.409 270.729 207.873 270.729C208.141 270.729 208.405 270.774 208.666 270.863C208.927 270.952 209.165 271.097 209.379 271.298C209.593 271.496 209.764 271.759 209.891 272.087C210.018 272.415 210.082 272.819 210.082 273.299V273.633H206.12V272.951H209.279C209.279 272.661 209.221 272.402 209.105 272.174C208.991 271.947 208.828 271.767 208.616 271.636C208.406 271.504 208.159 271.438 207.873 271.438C207.559 271.438 207.287 271.516 207.057 271.672C206.829 271.826 206.654 272.027 206.532 272.275C206.409 272.522 206.348 272.788 206.348 273.071V273.526C206.348 273.914 206.415 274.243 206.548 274.513C206.685 274.781 206.873 274.985 207.114 275.125C207.355 275.264 207.635 275.333 207.954 275.333C208.161 275.333 208.348 275.304 208.516 275.246C208.685 275.186 208.831 275.096 208.954 274.978C209.077 274.858 209.172 274.708 209.238 274.53L210.001 274.744C209.921 275.003 209.786 275.23 209.596 275.426C209.407 275.621 209.173 275.772 208.894 275.882C208.615 275.989 208.302 276.042 207.954 276.042ZM213.223 276.042C212.795 276.042 212.417 275.934 212.089 275.718C211.761 275.499 211.505 275.191 211.32 274.794C211.134 274.395 211.042 273.923 211.042 273.379C211.042 272.839 211.134 272.371 211.32 271.974C211.505 271.577 211.762 271.27 212.092 271.053C212.423 270.837 212.804 270.729 213.237 270.729C213.571 270.729 213.836 270.785 214.03 270.896C214.226 271.006 214.375 271.13 214.478 271.271C214.583 271.409 214.664 271.523 214.722 271.612H214.789V269.083H215.579V275.935H214.816V275.145H214.722C214.664 275.239 214.582 275.357 214.475 275.5C214.368 275.641 214.215 275.767 214.016 275.878C213.818 275.987 213.554 276.042 213.223 276.042ZM213.33 275.333C213.647 275.333 213.915 275.25 214.133 275.085C214.352 274.918 214.518 274.687 214.632 274.393C214.746 274.096 214.803 273.754 214.803 273.365C214.803 272.982 214.747 272.646 214.635 272.358C214.524 272.068 214.359 271.843 214.14 271.682C213.922 271.52 213.652 271.438 213.33 271.438C212.996 271.438 212.717 271.524 212.494 271.696C212.273 271.865 212.107 272.096 211.995 272.388C211.886 272.678 211.832 273.004 211.832 273.365C211.832 273.731 211.887 274.064 211.999 274.363C212.113 274.659 212.28 274.896 212.501 275.072C212.724 275.246 213 275.333 213.33 275.333ZM219.892 275.935V269.083H220.681V271.612H220.748C220.806 271.523 220.886 271.409 220.989 271.271C221.094 271.13 221.243 271.006 221.437 270.896C221.634 270.785 221.899 270.729 222.234 270.729C222.666 270.729 223.048 270.837 223.378 271.053C223.708 271.27 223.966 271.577 224.151 271.974C224.336 272.371 224.429 272.839 224.429 273.379C224.429 273.923 224.336 274.395 224.151 274.794C223.966 275.191 223.709 275.499 223.381 275.718C223.053 275.934 222.675 276.042 222.247 276.042C221.917 276.042 221.653 275.987 221.454 275.878C221.256 275.767 221.103 275.641 220.996 275.5C220.889 275.357 220.806 275.239 220.748 275.145H220.655V275.935H219.892ZM220.668 273.365C220.668 273.754 220.725 274.096 220.839 274.393C220.952 274.687 221.118 274.918 221.337 275.085C221.556 275.25 221.823 275.333 222.14 275.333C222.47 275.333 222.746 275.246 222.966 275.072C223.19 274.896 223.357 274.659 223.468 274.363C223.582 274.064 223.639 273.731 223.639 273.365C223.639 273.004 223.583 272.678 223.472 272.388C223.362 272.096 223.196 271.865 222.973 271.696C222.752 271.524 222.475 271.438 222.14 271.438C221.819 271.438 221.549 271.52 221.33 271.682C221.112 271.843 220.947 272.068 220.835 272.358C220.724 272.646 220.668 272.982 220.668 273.365ZM225.961 277.862C225.827 277.862 225.708 277.851 225.603 277.829C225.498 277.809 225.426 277.789 225.386 277.769L225.586 277.073C225.778 277.122 225.948 277.14 226.095 277.126C226.242 277.113 226.373 277.047 226.486 276.929C226.602 276.813 226.708 276.624 226.804 276.363L226.951 275.962L225.051 270.796H225.907L227.326 274.891H227.38L228.798 270.796H229.655L227.473 276.685C227.375 276.95 227.254 277.17 227.109 277.344C226.964 277.52 226.795 277.65 226.603 277.735C226.414 277.82 226.2 277.862 225.961 277.862ZM233.3 275.935V269.083H235.87C236.396 269.083 236.838 269.181 237.195 269.377C237.554 269.573 237.825 269.843 238.008 270.187C238.193 270.528 238.285 270.916 238.285 271.351C238.285 271.791 238.193 272.181 238.008 272.522C237.823 272.864 237.549 273.132 237.188 273.329C236.827 273.523 236.382 273.62 235.853 273.62H234.15V272.599H235.686C235.994 272.599 236.246 272.546 236.442 272.439C236.638 272.332 236.783 272.184 236.877 271.997C236.973 271.81 237.021 271.594 237.021 271.351C237.021 271.108 236.973 270.894 236.877 270.709C236.783 270.524 236.637 270.38 236.439 270.277C236.242 270.172 235.989 270.12 235.679 270.12H234.541V275.935H233.3ZM241.512 276.035C240.996 276.035 240.551 275.928 240.177 275.714C239.804 275.498 239.518 275.192 239.317 274.797C239.116 274.4 239.016 273.933 239.016 273.396C239.016 272.867 239.116 272.403 239.317 272.004C239.52 271.602 239.803 271.29 240.167 271.067C240.53 270.842 240.957 270.729 241.448 270.729C241.765 270.729 242.064 270.78 242.345 270.883C242.628 270.983 242.878 271.139 243.094 271.351C243.313 271.563 243.485 271.833 243.609 272.161C243.734 272.487 243.797 272.875 243.797 273.325V273.697H239.584V272.88H242.636C242.634 272.648 242.583 272.442 242.485 272.261C242.387 272.078 242.25 271.935 242.074 271.83C241.9 271.725 241.697 271.672 241.465 271.672C241.217 271.672 241 271.733 240.812 271.853C240.625 271.971 240.479 272.127 240.374 272.322C240.271 272.513 240.219 272.724 240.217 272.954V273.667C240.217 273.965 240.271 274.222 240.381 274.436C240.49 274.648 240.643 274.811 240.839 274.925C241.035 275.036 241.265 275.092 241.528 275.092C241.705 275.092 241.864 275.067 242.007 275.018C242.15 274.967 242.273 274.892 242.378 274.794C242.483 274.696 242.562 274.574 242.616 274.429L243.747 274.557C243.675 274.855 243.539 275.116 243.338 275.339C243.14 275.56 242.886 275.732 242.576 275.855C242.266 275.975 241.911 276.035 241.512 276.035ZM244.822 275.935V270.796H245.996V271.652H246.049C246.143 271.356 246.304 271.127 246.531 270.966C246.761 270.804 247.023 270.722 247.318 270.722C247.384 270.722 247.459 270.726 247.542 270.732C247.626 270.737 247.697 270.745 247.752 270.756V271.87C247.701 271.852 247.62 271.836 247.508 271.823C247.399 271.807 247.293 271.8 247.19 271.8C246.97 271.8 246.771 271.848 246.595 271.943C246.421 272.037 246.284 272.168 246.183 272.335C246.083 272.502 246.033 272.695 246.033 272.914V275.935H244.822ZM248.557 275.935V270.796H249.715V271.669H249.775C249.882 271.375 250.059 271.145 250.307 270.98C250.555 270.813 250.85 270.729 251.194 270.729C251.542 270.729 251.835 270.814 252.074 270.983C252.315 271.151 252.484 271.379 252.582 271.669H252.636C252.749 271.384 252.941 271.156 253.211 270.987C253.483 270.815 253.806 270.729 254.178 270.729C254.651 270.729 255.037 270.878 255.336 271.177C255.635 271.476 255.784 271.912 255.784 272.485V275.935H254.57V272.673C254.57 272.354 254.485 272.121 254.315 271.974C254.146 271.824 253.938 271.749 253.693 271.749C253.401 271.749 253.172 271.841 253.007 272.024C252.844 272.204 252.763 272.44 252.763 272.73V275.935H251.575V272.623C251.575 272.357 251.495 272.145 251.334 271.987C251.176 271.829 250.968 271.749 250.712 271.749C250.538 271.749 250.38 271.794 250.237 271.883C250.094 271.97 249.98 272.094 249.895 272.255C249.811 272.413 249.768 272.598 249.768 272.81V275.935H248.557ZM257.013 275.935V270.796H258.224V275.935H257.013ZM257.622 270.066C257.43 270.066 257.265 270.003 257.127 269.876C256.988 269.746 256.919 269.591 256.919 269.411C256.919 269.228 256.988 269.073 257.127 268.946C257.265 268.816 257.43 268.752 257.622 268.752C257.816 268.752 257.981 268.816 258.117 268.946C258.255 269.073 258.324 269.228 258.324 269.411C258.324 269.591 258.255 269.746 258.117 269.876C257.981 270.003 257.816 270.066 257.622 270.066ZM262.036 270.796V271.733H259.081V270.796H262.036ZM259.811 269.565H261.022V274.389C261.022 274.552 261.047 274.677 261.096 274.764C261.147 274.849 261.214 274.907 261.296 274.938C261.379 274.969 261.47 274.985 261.571 274.985C261.647 274.985 261.716 274.979 261.778 274.968C261.843 274.957 261.892 274.947 261.925 274.938L262.13 275.885C262.065 275.907 261.972 275.932 261.852 275.958C261.734 275.985 261.589 276.001 261.417 276.005C261.114 276.014 260.84 275.969 260.597 275.868C260.354 275.766 260.161 275.607 260.018 275.393C259.878 275.179 259.809 274.911 259.811 274.59V269.565ZM263.795 276.009C263.592 276.009 263.418 275.937 263.273 275.795C263.128 275.652 263.057 275.478 263.059 275.273C263.057 275.072 263.128 274.9 263.273 274.757C263.418 274.615 263.592 274.543 263.795 274.543C263.991 274.543 264.162 274.615 264.307 274.757C264.454 274.9 264.529 275.072 264.531 275.273C264.529 275.409 264.493 275.532 264.424 275.644C264.357 275.755 264.268 275.845 264.156 275.912C264.047 275.976 263.927 276.009 263.795 276.009ZM265.782 275.935V270.796H266.993V275.935H265.782ZM266.39 270.066C266.199 270.066 266.034 270.003 265.895 269.876C265.757 269.746 265.688 269.591 265.688 269.411C265.688 269.228 265.757 269.073 265.895 268.946C266.034 268.816 266.199 268.752 266.39 268.752C266.585 268.752 266.75 268.816 266.886 268.946C267.024 269.073 267.093 269.228 267.093 269.411C267.093 269.591 267.024 269.746 266.886 269.876C266.75 270.003 266.585 270.066 266.39 270.066ZM270.48 276.035C269.978 276.035 269.543 275.925 269.175 275.704C268.807 275.483 268.521 275.174 268.319 274.777C268.118 274.38 268.017 273.916 268.017 273.386C268.017 272.855 268.118 272.39 268.319 271.99C268.521 271.591 268.807 271.281 269.175 271.06C269.543 270.839 269.978 270.729 270.48 270.729C270.982 270.729 271.417 270.839 271.785 271.06C272.153 271.281 272.437 271.591 272.638 271.99C272.841 272.39 272.942 272.855 272.942 273.386C272.942 273.916 272.841 274.38 272.638 274.777C272.437 275.174 272.153 275.483 271.785 275.704C271.417 275.925 270.982 276.035 270.48 276.035ZM270.487 275.065C270.759 275.065 270.986 274.99 271.169 274.841C271.352 274.689 271.488 274.486 271.577 274.232C271.669 273.978 271.715 273.694 271.715 273.382C271.715 273.068 271.669 272.783 271.577 272.529C271.488 272.272 271.352 272.068 271.169 271.917C270.986 271.765 270.759 271.689 270.487 271.689C270.208 271.689 269.976 271.765 269.791 271.917C269.608 272.068 269.471 272.272 269.379 272.529C269.29 272.783 269.245 273.068 269.245 273.382C269.245 273.694 269.29 273.978 269.379 274.232C269.471 274.486 269.608 274.689 269.791 274.841C269.976 274.99 270.208 275.065 270.487 275.065Z" fill="#1B1B18"/>
</g>
<rect x="-40.5" y="1.5" width="511" height="379" rx="20" stroke="#F2E8E4" stroke-width="2"/>
<defs>
<filter id="filter0_d_11902_2522" x="-171.05" y="-12.0767" width="658.099" height="483.099" filterUnits="userSpaceOnUse" color-interpolation-filters="sRGB">
<feFlood flood-opacity="0" result="BackgroundImageFix"/>
<feColorMatrix in="SourceAlpha" type="matrix" values="0 0 0 0 0 0 0 0 0 0 0 0 0 0 0 0 0 0 127 0" result="hardAlpha"/>
<feMorphology radius="2.70992" operator="dilate" in="SourceAlpha" result="effect1_dropShadow_11902_2522"/>
<feOffset/>
<feGaussianBlur stdDeviation="5.41984"/>
<feComposite in2="hardAlpha" operator="out"/>
<feColorMatrix type="matrix" values="0 0 0 0 0 0 0 0 0 0 0 0 0 0 0 0 0 0 0.1 0"/>
<feBlend mode="normal" in2="BackgroundImageFix" result="effect1_dropShadow_11902_2522"/>
<feBlend mode="normal" in="SourceGraphic" in2="effect1_dropShadow_11902_2522" result="shape"/>
</filter>
<linearGradient id="paint0_linear_11902_2522" x1="160.334" y1="272.287" x2="170.686" y2="279.33" gradientUnits="userSpaceOnUse">
<stop stop-color="#90908C"/>
<stop offset="1" stop-color="#BABAB6"/>
</linearGradient>
<clipPath id="clip0_11902_2522">
<rect x="-40.5" y="1.5" width="511" height="379" rx="20" fill="white"/>
</clipPath>
<clipPath id="clip1_11902_2522">
<rect x="-157.5" y="1.4729" width="631" height="456" rx="10.8397" fill="white"/>
</clipPath>
<clipPath id="clip2_11902_2522">
<rect width="14.1478" height="14.1478" fill="white" transform="translate(158.654 265.624)"/>
</clipPath>
</defs>
</svg>
