<svg width="513" height="381" viewBox="0 0 513 381" fill="none" xmlns="http://www.w3.org/2000/svg">
<g clip-path="url(#clip0_12017_1451)">
<g filter="url(#filter0_d_12017_1451)">
<g clip-path="url(#clip1_12017_1451)">
<rect x="-116" y="16.9697" width="631" height="456" rx="10.8397" fill="#FDFCFC"/>
<path d="M-116 16.9697H526.252V45.1529H-116V16.9697Z" fill="#FDFCFC"/>
<rect x="43.3457" y="63.0381" width="207.58" height="143.626" rx="4.33587" fill="#F8F1EE"/>
<rect x="60.1445" y="189.862" width="74.7938" height="15.7176" rx="7.85879" transform="rotate(-90 60.1445 189.862)" fill="#FDFCFC"/>
<rect x="87.2441" y="189.862" width="74.7938" height="15.1756" rx="7.58779" transform="rotate(-90 87.2441 189.862)" fill="#FDFCFC"/>
<rect x="113.801" y="189.862" width="53.1144" height="16.2596" rx="8.12978" transform="rotate(-90 113.801 189.862)" fill="#FDFCFC"/>
<rect x="141.441" y="189.862" width="37.9389" height="16.2596" rx="8.12978" transform="rotate(-90 141.441 189.862)" fill="#FDFCFC"/>
<rect x="169.084" y="189.862" width="33.061" height="15.7176" rx="7.85878" transform="rotate(-90 169.084 189.862)" fill="#FDFCFC"/>
<rect x="196.182" y="189.862" width="37.9389" height="15.7176" rx="7.85878" transform="rotate(-90 196.182 189.862)" fill="#FDFCFC"/>
<rect x="223.281" y="189.862" width="20.0534" height="15.7176" rx="7.85878" transform="rotate(-90 223.281 189.862)" fill="#FDFCFC"/>
<rect x="43.3457" y="236.821" width="32.5191" height="32.519" rx="16.2595" fill="#F8F1EE"/>
<rect x="82.3691" y="236.821" width="107.313" height="15.7175" rx="7.85877" fill="#F8F1EE"/>
<rect x="82.3691" y="257.959" width="123.031" height="11.3817" rx="5.69083" fill="#FDF8F6"/>
<rect x="275.311" y="236.821" width="55.8245" height="15.7175" rx="7.85877" fill="#F8F1EE"/>
<rect x="275.311" y="257.959" width="55.8245" height="11.3817" rx="5.69083" fill="#FDF8F6"/>
<rect x="275.311" y="291.876" width="55.8245" height="15.7175" rx="7.85877" fill="#F8F1EE"/>
<rect x="275.311" y="313.014" width="55.8245" height="11.3817" rx="5.69083" fill="#FDF8F6"/>
<rect x="275.311" y="346.389" width="55.8245" height="15.7175" rx="7.85877" fill="#F8F1EE"/>
<rect x="275.311" y="367.526" width="55.8245" height="11.3817" rx="5.69083" fill="#FDF8F6"/>
<rect x="351.459" y="236.821" width="55.2825" height="15.7175" rx="7.85877" fill="#F8F1EE"/>
<rect x="351.459" y="257.959" width="55.2825" height="11.3817" rx="5.69083" fill="#FDF8F6"/>
<rect x="351.459" y="291.876" width="55.2825" height="15.7175" rx="7.85877" fill="#F8F1EE"/>
<rect x="351.459" y="313.014" width="55.2825" height="11.3817" rx="5.69083" fill="#FDF8F6"/>
<rect x="351.459" y="346.389" width="55.2825" height="15.7175" rx="7.85877" fill="#F8F1EE"/>
<rect x="351.459" y="367.526" width="55.2825" height="11.3817" rx="5.69083" fill="#FDF8F6"/>
<rect x="43.3457" y="291.876" width="32.5191" height="32.519" rx="16.2595" fill="#F8F1EE"/>
<rect x="82.3691" y="291.876" width="107.313" height="15.7175" rx="7.85877" fill="#F8F1EE"/>
<rect x="82.3691" y="313.014" width="123.031" height="11.3817" rx="5.69083" fill="#FDF8F6"/>
<rect x="43.3457" y="346.931" width="32.5191" height="32.519" rx="16.2595" fill="#F8F1EE"/>
<rect x="82.3691" y="346.931" width="107.313" height="15.7175" rx="7.85877" fill="#F8F1EE"/>
<rect x="82.3691" y="368.068" width="123.031" height="11.3817" rx="5.69083" fill="#FDF8F6"/>
<rect x="275.311" y="63.0381" width="207.58" height="143.626" rx="4.33587" fill="#F8F1EE"/>
<rect x="303.49" y="92.8477" width="151.214" height="12.4656" rx="6.23281" fill="#F2E8E4"/>
<rect x="303.49" y="111.817" width="151.214" height="11.9236" rx="5.96182" fill="#F2E8E4"/>
<rect x="336.822" y="130.244" width="84.5497" height="12.4656" rx="6.23281" fill="#F2E8E4"/>
<rect x="306.752" y="160.113" width="144.689" height="25.2855" rx="4.33587" fill="#FDFCFC"/>
</g>
<rect x="-115.458" y="17.5117" width="629.916" height="454.916" rx="10.2977" stroke="#D1B9B0" stroke-width="1.08397"/>
</g>
<rect x="90.5" y="110.627" width="332" height="199.746" rx="6.99886" fill="#FDFCFC"/>
<rect x="90.5" y="110.627" width="332" height="199.746" rx="6.99886" stroke="#D3B3FA" stroke-width="4"/>
<path d="M198.583 162.627V151.649H202.7C203.543 151.649 204.25 151.795 204.822 152.089C205.398 152.382 205.832 152.793 206.125 153.321C206.421 153.847 206.57 154.46 206.57 155.16C206.57 155.864 206.42 156.475 206.119 156.993C205.823 157.508 205.385 157.906 204.806 158.189C204.227 158.467 203.516 158.607 202.673 158.607H199.741V156.956H202.405C202.898 156.956 203.302 156.888 203.616 156.752C203.931 156.613 204.163 156.411 204.313 156.146C204.467 155.878 204.543 155.55 204.543 155.16C204.543 154.77 204.467 154.438 204.313 154.163C204.159 153.884 203.925 153.673 203.611 153.53C203.296 153.384 202.891 153.311 202.394 153.311H200.571V162.627H198.583ZM204.254 157.653L206.972 162.627H204.753L202.083 157.653H204.254ZM211.842 162.788C211.016 162.788 210.303 162.616 209.703 162.273C209.106 161.927 208.647 161.437 208.325 160.804C208.004 160.168 207.843 159.42 207.843 158.558C207.843 157.712 208.004 156.968 208.325 156.329C208.65 155.685 209.104 155.185 209.687 154.828C210.269 154.467 210.954 154.286 211.74 154.286C212.247 154.286 212.726 154.368 213.176 154.533C213.63 154.694 214.03 154.944 214.377 155.283C214.727 155.623 215.002 156.055 215.203 156.58C215.403 157.102 215.503 157.724 215.503 158.446V159.041H208.754V157.733H213.643C213.639 157.361 213.559 157.031 213.401 156.741C213.244 156.448 213.024 156.218 212.742 156.05C212.463 155.882 212.138 155.798 211.767 155.798C211.37 155.798 211.021 155.894 210.721 156.087C210.421 156.277 210.187 156.527 210.019 156.838C209.855 157.145 209.771 157.483 209.767 157.851V158.993C209.767 159.472 209.855 159.882 210.03 160.226C210.205 160.565 210.45 160.826 210.764 161.008C211.079 161.187 211.447 161.276 211.868 161.276C212.151 161.276 212.406 161.237 212.635 161.158C212.864 161.076 213.062 160.956 213.23 160.799C213.398 160.642 213.525 160.447 213.61 160.215L215.422 160.418C215.308 160.897 215.09 161.315 214.768 161.673C214.45 162.027 214.043 162.302 213.546 162.498C213.049 162.691 212.481 162.788 211.842 162.788ZM222.639 165.715V161.33H222.558C222.458 161.53 222.313 161.742 222.124 161.968C221.935 162.189 221.685 162.379 221.374 162.536C221.063 162.693 220.671 162.772 220.2 162.772C219.553 162.772 218.974 162.606 218.463 162.273C217.952 161.941 217.548 161.458 217.252 160.826C216.955 160.193 216.807 159.425 216.807 158.521C216.807 157.606 216.957 156.834 217.257 156.205C217.561 155.573 217.97 155.096 218.484 154.774C218.999 154.449 219.573 154.286 220.205 154.286C220.687 154.286 221.084 154.368 221.395 154.533C221.706 154.694 221.953 154.888 222.135 155.117C222.317 155.342 222.458 155.555 222.558 155.755H222.676V154.393H224.584V165.715H222.639ZM220.741 161.18C221.152 161.18 221.502 161.069 221.792 160.847C222.081 160.622 222.301 160.31 222.451 159.909C222.601 159.509 222.676 159.043 222.676 158.51C222.676 157.978 222.601 157.515 222.451 157.122C222.305 156.729 222.087 156.423 221.797 156.205C221.511 155.987 221.159 155.878 220.741 155.878C220.309 155.878 219.948 155.991 219.658 156.216C219.369 156.441 219.151 156.752 219.004 157.149C218.858 157.545 218.785 157.999 218.785 158.51C218.785 159.025 218.858 159.484 219.004 159.888C219.154 160.288 219.374 160.604 219.664 160.837C219.957 161.065 220.316 161.18 220.741 161.18ZM231.826 159.164V154.393H233.767V162.627H231.885V161.164H231.799C231.614 161.625 231.308 162.002 230.883 162.295C230.461 162.588 229.941 162.734 229.323 162.734C228.783 162.734 228.306 162.614 227.892 162.375C227.481 162.132 227.159 161.78 226.927 161.319C226.695 160.854 226.578 160.293 226.578 159.636V154.393H228.519V159.336C228.519 159.857 228.662 160.272 228.948 160.579C229.234 160.887 229.609 161.04 230.073 161.04C230.359 161.04 230.636 160.971 230.904 160.831C231.172 160.692 231.392 160.485 231.564 160.209C231.739 159.931 231.826 159.582 231.826 159.164ZM239.407 162.788C238.582 162.788 237.869 162.616 237.268 162.273C236.672 161.927 236.212 161.437 235.891 160.804C235.569 160.168 235.408 159.42 235.408 158.558C235.408 157.712 235.569 156.968 235.891 156.329C236.216 155.685 236.67 155.185 237.252 154.828C237.835 154.467 238.519 154.286 239.305 154.286C239.813 154.286 240.292 154.368 240.742 154.533C241.196 154.694 241.596 154.944 241.943 155.283C242.293 155.623 242.568 156.055 242.768 156.58C242.968 157.102 243.068 157.724 243.068 158.446V159.041H236.32V157.733H241.208C241.205 157.361 241.124 157.031 240.967 156.741C240.81 156.448 240.59 156.218 240.308 156.05C240.029 155.882 239.704 155.798 239.332 155.798C238.935 155.798 238.587 155.894 238.287 156.087C237.987 156.277 237.753 156.527 237.585 156.838C237.42 157.145 237.336 157.483 237.333 157.851V158.993C237.333 159.472 237.42 159.882 237.595 160.226C237.77 160.565 238.015 160.826 238.33 161.008C238.644 161.187 239.012 161.276 239.434 161.276C239.716 161.276 239.972 161.237 240.2 161.158C240.429 161.076 240.627 160.956 240.795 160.799C240.963 160.642 241.09 160.447 241.176 160.215L242.988 160.418C242.873 160.897 242.655 161.315 242.334 161.673C242.016 162.027 241.608 162.302 241.112 162.498C240.615 162.691 240.047 162.788 239.407 162.788ZM251.217 156.57L249.448 156.763C249.398 156.584 249.311 156.416 249.186 156.259C249.064 156.102 248.9 155.975 248.693 155.878C248.485 155.782 248.232 155.734 247.931 155.734C247.528 155.734 247.188 155.821 246.913 155.996C246.641 156.171 246.507 156.398 246.511 156.677C246.507 156.916 246.595 157.111 246.774 157.261C246.956 157.411 247.256 157.535 247.674 157.631L249.079 157.931C249.858 158.099 250.436 158.365 250.815 158.73C251.198 159.094 251.391 159.572 251.394 160.161C251.391 160.679 251.239 161.137 250.939 161.533C250.642 161.927 250.229 162.234 249.7 162.455C249.171 162.677 248.564 162.788 247.878 162.788C246.87 162.788 246.059 162.577 245.444 162.155C244.83 161.73 244.463 161.139 244.345 160.381L246.238 160.199C246.323 160.57 246.506 160.851 246.784 161.04C247.063 161.23 247.426 161.324 247.872 161.324C248.333 161.324 248.703 161.23 248.982 161.04C249.264 160.851 249.405 160.617 249.405 160.338C249.405 160.102 249.314 159.907 249.132 159.754C248.953 159.6 248.675 159.482 248.296 159.4L246.891 159.105C246.102 158.941 245.517 158.664 245.139 158.274C244.76 157.881 244.572 157.385 244.576 156.784C244.572 156.277 244.71 155.837 244.989 155.466C245.271 155.09 245.662 154.801 246.162 154.597C246.666 154.39 247.247 154.286 247.905 154.286C248.869 154.286 249.629 154.492 250.183 154.903C250.74 155.314 251.085 155.869 251.217 156.57ZM257.106 154.393V155.894H252.372V154.393H257.106ZM253.541 152.421H255.481V160.15C255.481 160.411 255.521 160.611 255.599 160.751C255.682 160.887 255.789 160.98 255.921 161.03C256.053 161.08 256.2 161.105 256.361 161.105C256.482 161.105 256.593 161.096 256.693 161.078C256.797 161.06 256.875 161.044 256.929 161.03L257.256 162.547C257.152 162.582 257.004 162.622 256.811 162.664C256.621 162.707 256.389 162.732 256.114 162.74C255.628 162.754 255.19 162.681 254.801 162.52C254.411 162.355 254.102 162.102 253.873 161.759C253.648 161.416 253.537 160.987 253.541 160.472V152.421ZM263.968 162.627H261.845L265.71 151.649H268.165L272.036 162.627H269.913L266.981 153.9H266.895L263.968 162.627ZM264.038 158.323H269.827V159.92H264.038V158.323ZM276.737 162.788C275.915 162.788 275.209 162.607 274.619 162.246C274.033 161.885 273.581 161.387 273.263 160.751C272.949 160.111 272.791 159.375 272.791 158.542C272.791 157.706 272.952 156.968 273.274 156.329C273.595 155.685 274.049 155.185 274.635 154.828C275.225 154.467 275.922 154.286 276.726 154.286C277.394 154.286 277.985 154.41 278.5 154.656C279.018 154.899 279.431 155.244 279.738 155.691C280.046 156.134 280.221 156.652 280.264 157.245H278.409C278.334 156.849 278.155 156.518 277.873 156.254C277.594 155.985 277.221 155.851 276.753 155.851C276.356 155.851 276.008 155.959 275.707 156.173C275.407 156.384 275.173 156.688 275.005 157.084C274.841 157.481 274.759 157.956 274.759 158.51C274.759 159.071 274.841 159.554 275.005 159.958C275.17 160.358 275.4 160.667 275.697 160.885C275.997 161.099 276.349 161.206 276.753 161.206C277.038 161.206 277.294 161.153 277.519 161.046C277.748 160.935 277.939 160.776 278.093 160.569C278.246 160.361 278.352 160.109 278.409 159.813H280.264C280.217 160.395 280.046 160.912 279.749 161.362C279.452 161.809 279.049 162.159 278.538 162.413C278.027 162.663 277.426 162.788 276.737 162.788ZM285.448 162.788C284.626 162.788 283.921 162.607 283.331 162.246C282.745 161.885 282.293 161.387 281.975 160.751C281.66 160.111 281.503 159.375 281.503 158.542C281.503 157.706 281.664 156.968 281.986 156.329C282.307 155.685 282.761 155.185 283.347 154.828C283.937 154.467 284.634 154.286 285.438 154.286C286.106 154.286 286.697 154.41 287.212 154.656C287.73 154.899 288.143 155.244 288.45 155.691C288.758 156.134 288.933 156.652 288.976 157.245H287.121C287.046 156.849 286.867 156.518 286.585 156.254C286.306 155.985 285.933 155.851 285.464 155.851C285.068 155.851 284.719 155.959 284.419 156.173C284.119 156.384 283.885 156.688 283.717 157.084C283.553 157.481 283.47 157.956 283.47 158.51C283.47 159.071 283.553 159.554 283.717 159.958C283.881 160.358 284.112 160.667 284.408 160.885C284.709 161.099 285.061 161.206 285.464 161.206C285.75 161.206 286.006 161.153 286.231 161.046C286.46 160.935 286.651 160.776 286.805 160.569C286.958 160.361 287.064 160.109 287.121 159.813H288.976C288.929 160.395 288.758 160.912 288.461 161.362C288.164 161.809 287.76 162.159 287.249 162.413C286.738 162.663 286.138 162.788 285.448 162.788ZM294.214 162.788C293.388 162.788 292.675 162.616 292.075 162.273C291.478 161.927 291.019 161.437 290.698 160.804C290.376 160.168 290.215 159.42 290.215 158.558C290.215 157.712 290.376 156.968 290.698 156.329C291.023 155.685 291.477 155.185 292.059 154.828C292.642 154.467 293.326 154.286 294.112 154.286C294.619 154.286 295.098 154.368 295.549 154.533C296.002 154.694 296.403 154.944 296.749 155.283C297.1 155.623 297.375 156.055 297.575 156.58C297.775 157.102 297.875 157.724 297.875 158.446V159.041H291.126V157.733H296.015C296.011 157.361 295.931 157.031 295.774 156.741C295.617 156.448 295.397 156.218 295.114 156.05C294.836 155.882 294.511 155.798 294.139 155.798C293.742 155.798 293.394 155.894 293.094 156.087C292.793 156.277 292.559 156.527 292.391 156.838C292.227 157.145 292.143 157.483 292.139 157.851V158.993C292.139 159.472 292.227 159.882 292.402 160.226C292.577 160.565 292.822 160.826 293.136 161.008C293.451 161.187 293.819 161.276 294.241 161.276C294.523 161.276 294.779 161.237 295.007 161.158C295.236 161.076 295.434 160.956 295.602 160.799C295.77 160.642 295.897 160.447 295.983 160.215L297.795 160.418C297.68 160.897 297.462 161.315 297.141 161.673C296.823 162.027 296.415 162.302 295.918 162.498C295.422 162.691 294.854 162.788 294.214 162.788ZM306.024 156.57L304.255 156.763C304.205 156.584 304.118 156.416 303.992 156.259C303.871 156.102 303.707 155.975 303.499 155.878C303.292 155.782 303.038 155.734 302.738 155.734C302.334 155.734 301.995 155.821 301.72 155.996C301.448 156.171 301.314 156.398 301.318 156.677C301.314 156.916 301.402 157.111 301.58 157.261C301.763 157.411 302.063 157.535 302.481 157.631L303.885 157.931C304.664 158.099 305.243 158.365 305.622 158.73C306.004 159.094 306.197 159.572 306.201 160.161C306.197 160.679 306.046 161.137 305.745 161.533C305.449 161.927 305.036 162.234 304.507 162.455C303.978 162.677 303.371 162.788 302.685 162.788C301.677 162.788 300.866 162.577 300.251 162.155C299.636 161.73 299.27 161.139 299.152 160.381L301.044 160.199C301.13 160.57 301.312 160.851 301.591 161.04C301.87 161.23 302.233 161.324 302.679 161.324C303.14 161.324 303.51 161.23 303.789 161.04C304.071 160.851 304.212 160.617 304.212 160.338C304.212 160.102 304.121 159.907 303.939 159.754C303.76 159.6 303.481 159.482 303.103 159.4L301.698 159.105C300.909 158.941 300.324 158.664 299.945 158.274C299.567 157.881 299.379 157.385 299.383 156.784C299.379 156.277 299.517 155.837 299.795 155.466C300.078 155.09 300.469 154.801 300.969 154.597C301.473 154.39 302.054 154.286 302.711 154.286C303.676 154.286 304.436 154.492 304.99 154.903C305.547 155.314 305.892 155.869 306.024 156.57ZM314.308 156.57L312.54 156.763C312.49 156.584 312.402 156.416 312.277 156.259C312.155 156.102 311.991 155.975 311.784 155.878C311.576 155.782 311.323 155.734 311.023 155.734C310.619 155.734 310.279 155.821 310.004 155.996C309.733 156.171 309.599 156.398 309.602 156.677C309.599 156.916 309.686 157.111 309.865 157.261C310.047 157.411 310.347 157.535 310.765 157.631L312.17 157.931C312.949 158.099 313.528 158.365 313.906 158.73C314.289 159.094 314.482 159.572 314.485 160.161C314.482 160.679 314.33 161.137 314.03 161.533C313.733 161.927 313.32 162.234 312.791 162.455C312.263 162.677 311.655 162.788 310.969 162.788C309.961 162.788 309.15 162.577 308.535 162.155C307.921 161.73 307.554 161.139 307.437 160.381L309.329 160.199C309.414 160.57 309.597 160.851 309.875 161.04C310.154 161.23 310.517 161.324 310.964 161.324C311.425 161.324 311.794 161.23 312.073 161.04C312.356 160.851 312.497 160.617 312.497 160.338C312.497 160.102 312.406 159.907 312.223 159.754C312.045 159.6 311.766 159.482 311.387 159.4L309.983 159.105C309.193 158.941 308.609 158.664 308.23 158.274C307.851 157.881 307.663 157.385 307.667 156.784C307.663 156.277 307.801 155.837 308.08 155.466C308.362 155.09 308.753 154.801 309.254 154.597C309.758 154.39 310.338 154.286 310.996 154.286C311.961 154.286 312.72 154.492 313.274 154.903C313.831 155.314 314.176 155.869 314.308 156.57Z" fill="black"/>
<path d="M170.286 184.627H167.906V176.915H170.391C171.139 176.915 171.779 177.07 172.311 177.379C172.844 177.685 173.251 178.125 173.535 178.7C173.819 179.273 173.961 179.958 173.961 180.756C173.961 181.559 173.817 182.251 173.531 182.831C173.245 183.408 172.828 183.853 172.281 184.164C171.734 184.473 171.069 184.627 170.286 184.627ZM168.84 183.799H170.225C170.863 183.799 171.391 183.676 171.811 183.43C172.23 183.184 172.542 182.833 172.748 182.379C172.954 181.925 173.057 181.384 173.057 180.756C173.057 180.134 172.955 179.598 172.752 179.148C172.549 178.696 172.245 178.35 171.841 178.109C171.436 177.866 170.933 177.744 170.331 177.744H168.84V183.799ZM177.756 184.747C177.234 184.747 176.776 184.623 176.382 184.375C175.99 184.126 175.684 183.778 175.463 183.332C175.245 182.885 175.135 182.363 175.135 181.765C175.135 181.163 175.245 180.637 175.463 180.188C175.684 179.738 175.99 179.389 176.382 179.141C176.776 178.892 177.234 178.768 177.756 178.768C178.278 178.768 178.735 178.892 179.127 179.141C179.521 179.389 179.827 179.738 180.045 180.188C180.266 180.637 180.377 181.163 180.377 181.765C180.377 182.363 180.266 182.885 180.045 183.332C179.827 183.778 179.521 184.126 179.127 184.375C178.735 184.623 178.278 184.747 177.756 184.747ZM177.756 183.949C178.153 183.949 178.479 183.848 178.735 183.644C178.991 183.441 179.181 183.174 179.304 182.842C179.427 182.511 179.488 182.152 179.488 181.765C179.488 181.379 179.427 181.018 179.304 180.685C179.181 180.351 178.991 180.081 178.735 179.875C178.479 179.669 178.153 179.566 177.756 179.566C177.359 179.566 177.033 179.669 176.777 179.875C176.521 180.081 176.332 180.351 176.209 180.685C176.086 181.018 176.024 181.379 176.024 181.765C176.024 182.152 176.086 182.511 176.209 182.842C176.332 183.174 176.521 183.441 176.777 183.644C177.033 183.848 177.359 183.949 177.756 183.949ZM184.083 184.747C183.541 184.747 183.074 184.619 182.682 184.363C182.291 184.107 181.989 183.755 181.779 183.305C181.568 182.856 181.462 182.343 181.462 181.765C181.462 181.178 181.57 180.659 181.786 180.21C182.004 179.758 182.308 179.406 182.697 179.152C183.089 178.896 183.546 178.768 184.068 178.768C184.475 178.768 184.841 178.843 185.167 178.994C185.494 179.145 185.761 179.355 185.969 179.626C186.178 179.898 186.307 180.214 186.357 180.575H185.469C185.401 180.312 185.25 180.078 185.017 179.875C184.786 179.669 184.475 179.566 184.083 179.566C183.737 179.566 183.433 179.657 183.172 179.837C182.913 180.016 182.711 180.268 182.566 180.594C182.422 180.918 182.351 181.298 182.351 181.735C182.351 182.182 182.421 182.571 182.562 182.902C182.705 183.234 182.906 183.491 183.164 183.674C183.425 183.858 183.732 183.949 184.083 183.949C184.314 183.949 184.524 183.909 184.712 183.829C184.9 183.748 185.059 183.633 185.19 183.482C185.321 183.332 185.413 183.151 185.469 182.94H186.357C186.307 183.281 186.183 183.589 185.984 183.863C185.789 184.134 185.529 184.35 185.205 184.51C184.884 184.668 184.51 184.747 184.083 184.747ZM191.301 182.262V178.843H192.19V184.627H191.301V183.648H191.241C191.105 183.942 190.895 184.191 190.608 184.397C190.322 184.601 189.961 184.702 189.524 184.702C189.163 184.702 188.841 184.623 188.56 184.465C188.279 184.304 188.058 184.063 187.897 183.742C187.737 183.418 187.656 183.01 187.656 182.518V178.843H188.545V182.458C188.545 182.88 188.663 183.216 188.899 183.467C189.137 183.718 189.441 183.844 189.81 183.844C190.031 183.844 190.256 183.787 190.484 183.674C190.715 183.561 190.908 183.388 191.064 183.155C191.222 182.921 191.301 182.624 191.301 182.262ZM193.818 184.627V178.843H194.676V179.747H194.751C194.872 179.438 195.066 179.198 195.335 179.028C195.604 178.855 195.926 178.768 196.303 178.768C196.684 178.768 197.002 178.855 197.255 179.028C197.511 179.198 197.711 179.438 197.854 179.747H197.914C198.062 179.448 198.285 179.211 198.581 179.035C198.877 178.857 199.232 178.768 199.646 178.768C200.163 178.768 200.586 178.93 200.915 179.254C201.244 179.575 201.409 180.076 201.409 180.756V184.627H200.52V180.756C200.52 180.329 200.403 180.024 200.17 179.841C199.936 179.658 199.661 179.566 199.345 179.566C198.938 179.566 198.623 179.689 198.4 179.935C198.177 180.179 198.065 180.488 198.065 180.862V184.627H197.161V180.666C197.161 180.337 197.055 180.072 196.841 179.871C196.628 179.668 196.353 179.566 196.017 179.566C195.786 179.566 195.57 179.628 195.369 179.751C195.171 179.874 195.01 180.044 194.887 180.263C194.766 180.479 194.706 180.728 194.706 181.012V184.627H193.818ZM205.458 184.747C204.901 184.747 204.42 184.624 204.016 184.378C203.614 184.13 203.304 183.783 203.086 183.339C202.87 182.892 202.762 182.373 202.762 181.78C202.762 181.188 202.87 180.666 203.086 180.214C203.304 179.76 203.608 179.406 203.997 179.152C204.389 178.896 204.846 178.768 205.368 178.768C205.669 178.768 205.967 178.818 206.26 178.919C206.554 179.019 206.821 179.182 207.062 179.408C207.303 179.632 207.495 179.928 207.638 180.297C207.782 180.666 207.853 181.12 207.853 181.66V182.036H203.395V181.268H206.949C206.949 180.942 206.884 180.651 206.754 180.395C206.626 180.139 206.442 179.937 206.204 179.788C205.968 179.64 205.689 179.566 205.368 179.566C205.014 179.566 204.708 179.654 204.449 179.83C204.193 180.003 203.996 180.229 203.858 180.508C203.72 180.786 203.651 181.085 203.651 181.404V181.916C203.651 182.353 203.726 182.723 203.877 183.027C204.03 183.328 204.242 183.558 204.513 183.716C204.784 183.871 205.099 183.949 205.458 183.949C205.692 183.949 205.903 183.917 206.091 183.851C206.282 183.783 206.446 183.683 206.584 183.55C206.722 183.414 206.829 183.246 206.904 183.045L207.763 183.286C207.672 183.578 207.52 183.834 207.307 184.055C207.094 184.273 206.83 184.444 206.516 184.567C206.203 184.687 205.85 184.747 205.458 184.747ZM210.094 181.148V184.627H209.205V178.843H210.063V179.747H210.139C210.274 179.453 210.48 179.217 210.756 179.039C211.032 178.858 211.389 178.768 211.826 178.768C212.217 178.768 212.56 178.848 212.854 179.009C213.147 179.167 213.376 179.408 213.539 179.732C213.702 180.053 213.784 180.46 213.784 180.952V184.627H212.895V181.012C212.895 180.558 212.777 180.204 212.541 179.95C212.305 179.694 211.981 179.566 211.57 179.566C211.286 179.566 211.032 179.628 210.809 179.751C210.588 179.874 210.414 180.053 210.286 180.289C210.158 180.525 210.094 180.811 210.094 181.148ZM217.923 178.843V179.596H214.925V178.843H217.923ZM215.799 177.458H216.688V182.97C216.688 183.221 216.724 183.409 216.797 183.535C216.872 183.658 216.968 183.741 217.083 183.784C217.201 183.824 217.325 183.844 217.456 183.844C217.554 183.844 217.634 183.839 217.697 183.829C217.76 183.816 217.81 183.806 217.847 183.799L218.028 184.597C217.968 184.619 217.884 184.642 217.776 184.665C217.668 184.69 217.531 184.702 217.365 184.702C217.114 184.702 216.868 184.648 216.627 184.54C216.389 184.432 216.191 184.268 216.033 184.047C215.877 183.826 215.799 183.548 215.799 183.211V177.458ZM222.242 184.627V178.843H223.1V179.717H223.16C223.266 179.431 223.457 179.198 223.733 179.02C224.009 178.842 224.32 178.753 224.667 178.753C224.732 178.753 224.813 178.754 224.911 178.757C225.009 178.759 225.083 178.763 225.134 178.768V179.672C225.103 179.664 225.034 179.653 224.926 179.638C224.821 179.62 224.709 179.611 224.591 179.611C224.31 179.611 224.059 179.67 223.838 179.788C223.62 179.904 223.447 180.065 223.319 180.27C223.193 180.474 223.13 180.706 223.13 180.967V184.627H222.242ZM228.436 184.747C227.879 184.747 227.398 184.624 226.994 184.378C226.592 184.13 226.282 183.783 226.064 183.339C225.848 182.892 225.74 182.373 225.74 181.78C225.74 181.188 225.848 180.666 226.064 180.214C226.282 179.76 226.586 179.406 226.975 179.152C227.366 178.896 227.823 178.768 228.345 178.768C228.647 178.768 228.944 178.818 229.238 178.919C229.532 179.019 229.799 179.182 230.04 179.408C230.281 179.632 230.473 179.928 230.616 180.297C230.759 180.666 230.831 181.12 230.831 181.66V182.036H226.372V181.268H229.927C229.927 180.942 229.862 180.651 229.731 180.395C229.603 180.139 229.42 179.937 229.181 179.788C228.945 179.64 228.667 179.566 228.345 179.566C227.991 179.566 227.685 179.654 227.427 179.83C227.171 180.003 226.974 180.229 226.835 180.508C226.697 180.786 226.628 181.085 226.628 181.404V181.916C226.628 182.353 226.704 182.723 226.854 183.027C227.007 183.328 227.22 183.558 227.491 183.716C227.762 183.871 228.077 183.949 228.436 183.949C228.669 183.949 228.88 183.917 229.068 183.851C229.259 183.783 229.424 183.683 229.562 183.55C229.7 183.414 229.806 183.246 229.882 183.045L230.74 183.286C230.65 183.578 230.498 183.834 230.285 184.055C230.071 184.273 229.808 184.444 229.494 184.567C229.18 184.687 228.827 184.747 228.436 184.747ZM236.129 186.796V183.738H236.053C235.988 183.844 235.895 183.977 235.775 184.137C235.654 184.296 235.482 184.437 235.259 184.563C235.035 184.686 234.738 184.747 234.366 184.747C233.884 184.747 233.459 184.626 233.09 184.382C232.721 184.136 232.432 183.79 232.224 183.343C232.015 182.894 231.911 182.363 231.911 181.75C231.911 181.143 232.015 180.616 232.224 180.169C232.432 179.722 232.722 179.377 233.094 179.133C233.465 178.89 233.894 178.768 234.381 178.768C234.758 178.768 235.055 178.831 235.274 178.956C235.495 179.079 235.663 179.22 235.778 179.378C235.896 179.534 235.988 179.662 236.053 179.762H236.159V178.843H237.017V186.796H236.129ZM234.487 183.949C234.843 183.949 235.145 183.856 235.391 183.671C235.637 183.482 235.824 183.222 235.952 182.891C236.08 182.557 236.144 182.172 236.144 181.735C236.144 181.303 236.081 180.926 235.955 180.602C235.83 180.275 235.644 180.022 235.398 179.841C235.152 179.658 234.848 179.566 234.487 179.566C234.11 179.566 233.796 179.663 233.545 179.856C233.297 180.047 233.11 180.307 232.984 180.636C232.861 180.962 232.8 181.328 232.8 181.735C232.8 182.147 232.863 182.521 232.988 182.857C233.116 183.191 233.304 183.457 233.553 183.655C233.804 183.851 234.115 183.949 234.487 183.949ZM242.289 182.262V178.843H243.177V184.627H242.289V183.648H242.229C242.093 183.942 241.882 184.191 241.596 184.397C241.31 184.601 240.948 184.702 240.511 184.702C240.15 184.702 239.829 184.623 239.548 184.465C239.266 184.304 239.045 184.063 238.885 183.742C238.724 183.418 238.644 183.01 238.644 182.518V178.843H239.532V182.458C239.532 182.88 239.65 183.216 239.886 183.467C240.125 183.718 240.429 183.844 240.798 183.844C241.019 183.844 241.243 183.787 241.472 183.674C241.703 183.561 241.896 183.388 242.052 183.155C242.21 182.921 242.289 182.624 242.289 182.262ZM244.805 184.627V178.843H245.694V184.627H244.805ZM245.257 177.879C245.084 177.879 244.934 177.82 244.809 177.702C244.686 177.584 244.624 177.443 244.624 177.277C244.624 177.111 244.686 176.969 244.809 176.851C244.934 176.733 245.084 176.674 245.257 176.674C245.43 176.674 245.578 176.733 245.701 176.851C245.827 176.969 245.889 177.111 245.889 177.277C245.889 177.443 245.827 177.584 245.701 177.702C245.578 177.82 245.43 177.879 245.257 177.879ZM247.321 184.627V178.843H248.18V179.717H248.24C248.345 179.431 248.536 179.198 248.812 179.02C249.088 178.842 249.4 178.753 249.746 178.753C249.811 178.753 249.893 178.754 249.991 178.757C250.089 178.759 250.163 178.763 250.213 178.768V179.672C250.183 179.664 250.114 179.653 250.006 179.638C249.901 179.62 249.789 179.611 249.671 179.611C249.39 179.611 249.139 179.67 248.918 179.788C248.699 179.904 248.526 180.065 248.398 180.27C248.273 180.474 248.21 180.706 248.21 180.967V184.627H247.321ZM253.515 184.747C252.958 184.747 252.477 184.624 252.073 184.378C251.672 184.13 251.362 183.783 251.143 183.339C250.927 182.892 250.819 182.373 250.819 181.78C250.819 181.188 250.927 180.666 251.143 180.214C251.362 179.76 251.665 179.406 252.054 179.152C252.446 178.896 252.903 178.768 253.425 178.768C253.726 178.768 254.024 178.818 254.317 178.919C254.611 179.019 254.878 179.182 255.119 179.408C255.36 179.632 255.552 179.928 255.696 180.297C255.839 180.666 255.91 181.12 255.91 181.66V182.036H251.452V181.268H255.006C255.006 180.942 254.941 180.651 254.811 180.395C254.683 180.139 254.499 179.937 254.261 179.788C254.025 179.64 253.746 179.566 253.425 179.566C253.071 179.566 252.765 179.654 252.506 179.83C252.25 180.003 252.053 180.229 251.915 180.508C251.777 180.786 251.708 181.085 251.708 181.404V181.916C251.708 182.353 251.783 182.723 251.934 183.027C252.087 183.328 252.299 183.558 252.57 183.716C252.841 183.871 253.156 183.949 253.515 183.949C253.749 183.949 253.96 183.917 254.148 183.851C254.339 183.783 254.503 183.683 254.641 183.55C254.779 183.414 254.886 183.246 254.961 183.045L255.82 183.286C255.729 183.578 255.578 183.834 255.364 184.055C255.151 184.273 254.887 184.444 254.573 184.567C254.26 184.687 253.907 184.747 253.515 184.747ZM261.359 180.139L260.56 180.365C260.51 180.231 260.436 180.102 260.338 179.977C260.243 179.849 260.112 179.743 259.947 179.66C259.781 179.578 259.569 179.536 259.31 179.536C258.956 179.536 258.661 179.618 258.425 179.781C258.192 179.942 258.075 180.146 258.075 180.395C258.075 180.616 258.156 180.79 258.316 180.918C258.477 181.046 258.728 181.153 259.069 181.238L259.928 181.449C260.445 181.574 260.83 181.766 261.084 182.025C261.337 182.281 261.464 182.611 261.464 183.015C261.464 183.347 261.369 183.643 261.178 183.904C260.99 184.165 260.726 184.371 260.387 184.522C260.048 184.672 259.654 184.747 259.205 184.747C258.615 184.747 258.127 184.619 257.74 184.363C257.354 184.107 257.109 183.733 257.006 183.241L257.849 183.03C257.93 183.342 258.082 183.575 258.305 183.731C258.531 183.886 258.826 183.964 259.19 183.964C259.604 183.964 259.933 183.876 260.176 183.701C260.422 183.522 260.545 183.309 260.545 183.061C260.545 182.86 260.475 182.692 260.335 182.556C260.194 182.418 259.978 182.315 259.687 182.247L258.723 182.021C258.193 181.896 257.804 181.701 257.556 181.438C257.31 181.172 257.187 180.839 257.187 180.44C257.187 180.113 257.278 179.825 257.461 179.574C257.647 179.323 257.9 179.126 258.218 178.983C258.54 178.84 258.904 178.768 259.31 178.768C259.883 178.768 260.332 178.893 260.658 179.145C260.987 179.396 261.221 179.727 261.359 180.139ZM267.486 184.763C267.119 184.763 266.787 184.693 266.488 184.555C266.189 184.415 265.952 184.213 265.776 183.949C265.601 183.683 265.513 183.362 265.513 182.985C265.513 182.654 265.578 182.385 265.709 182.179C265.839 181.971 266.014 181.808 266.232 181.69C266.45 181.572 266.691 181.484 266.955 181.426C267.221 181.366 267.488 181.318 267.757 181.283C268.109 181.238 268.393 181.204 268.612 181.182C268.833 181.156 268.993 181.115 269.094 181.057C269.197 181 269.248 180.899 269.248 180.756V180.726C269.248 180.354 269.147 180.066 268.943 179.86C268.742 179.654 268.437 179.551 268.028 179.551C267.604 179.551 267.271 179.644 267.03 179.83C266.789 180.016 266.62 180.214 266.522 180.425L265.679 180.124C265.829 179.772 266.03 179.498 266.281 179.303C266.535 179.104 266.811 178.966 267.109 178.888C267.411 178.808 267.707 178.768 267.998 178.768C268.184 178.768 268.397 178.791 268.638 178.836C268.882 178.878 269.116 178.968 269.342 179.103C269.571 179.239 269.76 179.443 269.911 179.717C270.062 179.99 270.137 180.357 270.137 180.816V184.627H269.248V183.844H269.203C269.143 183.969 269.042 184.104 268.902 184.247C268.761 184.39 268.574 184.511 268.341 184.612C268.107 184.712 267.822 184.763 267.486 184.763ZM267.622 183.964C267.973 183.964 268.269 183.895 268.51 183.757C268.754 183.619 268.937 183.441 269.06 183.222C269.185 183.004 269.248 182.774 269.248 182.533V181.72C269.211 181.765 269.128 181.807 269 181.844C268.874 181.879 268.729 181.911 268.563 181.938C268.4 181.964 268.24 181.986 268.085 182.006C267.932 182.024 267.807 182.039 267.712 182.051C267.481 182.082 267.265 182.13 267.064 182.198C266.866 182.264 266.705 182.363 266.582 182.496C266.462 182.626 266.402 182.804 266.402 183.03C266.402 183.339 266.516 183.573 266.744 183.731C266.975 183.886 267.268 183.964 267.622 183.964ZM274.108 184.747C273.566 184.747 273.099 184.619 272.708 184.363C272.316 184.107 272.015 183.755 271.804 183.305C271.593 182.856 271.488 182.343 271.488 181.765C271.488 181.178 271.596 180.659 271.811 180.21C272.03 179.758 272.334 179.406 272.723 179.152C273.114 178.896 273.571 178.768 274.093 178.768C274.5 178.768 274.867 178.843 275.193 178.994C275.519 179.145 275.787 179.355 275.995 179.626C276.203 179.898 276.333 180.214 276.383 180.575H275.494C275.426 180.312 275.276 180.078 275.042 179.875C274.811 179.669 274.5 179.566 274.108 179.566C273.762 179.566 273.458 179.657 273.197 179.837C272.939 180.016 272.737 180.268 272.591 180.594C272.448 180.918 272.376 181.298 272.376 181.735C272.376 182.182 272.447 182.571 272.587 182.902C272.73 183.234 272.931 183.491 273.19 183.674C273.451 183.858 273.757 183.949 274.108 183.949C274.339 183.949 274.549 183.909 274.737 183.829C274.925 183.748 275.085 183.633 275.215 183.482C275.346 183.332 275.439 183.151 275.494 182.94H276.383C276.333 183.281 276.208 183.589 276.01 183.863C275.814 184.134 275.554 184.35 275.23 184.51C274.909 184.668 274.535 184.747 274.108 184.747ZM280.031 184.747C279.489 184.747 279.022 184.619 278.631 184.363C278.239 184.107 277.938 183.755 277.727 183.305C277.516 182.856 277.411 182.343 277.411 181.765C277.411 181.178 277.519 180.659 277.734 180.21C277.953 179.758 278.257 179.406 278.646 179.152C279.037 178.896 279.494 178.768 280.016 178.768C280.423 178.768 280.79 178.843 281.116 178.994C281.442 179.145 281.71 179.355 281.918 179.626C282.126 179.898 282.256 180.214 282.306 180.575H281.417C281.349 180.312 281.199 180.078 280.965 179.875C280.734 179.669 280.423 179.566 280.031 179.566C279.685 179.566 279.381 179.657 279.12 179.837C278.862 180.016 278.66 180.268 278.514 180.594C278.371 180.918 278.299 181.298 278.299 181.735C278.299 182.182 278.37 182.571 278.51 182.902C278.653 183.234 278.854 183.491 279.113 183.674C279.374 183.858 279.68 183.949 280.031 183.949C280.262 183.949 280.472 183.909 280.66 183.829C280.848 183.748 281.008 183.633 281.138 183.482C281.269 183.332 281.362 183.151 281.417 182.94H282.306C282.256 183.281 282.131 183.589 281.933 183.863C281.737 184.134 281.477 184.35 281.153 184.51C280.832 184.668 280.458 184.747 280.031 184.747ZM286.03 184.747C285.472 184.747 284.992 184.624 284.588 184.378C284.186 184.13 283.876 183.783 283.657 183.339C283.442 182.892 283.334 182.373 283.334 181.78C283.334 181.188 283.442 180.666 283.657 180.214C283.876 179.76 284.18 179.406 284.569 179.152C284.96 178.896 285.417 178.768 285.939 178.768C286.241 178.768 286.538 178.818 286.832 178.919C287.125 179.019 287.393 179.182 287.634 179.408C287.875 179.632 288.067 179.928 288.21 180.297C288.353 180.666 288.425 181.12 288.425 181.66V182.036H283.966V181.268H287.521C287.521 180.942 287.456 180.651 287.325 180.395C287.197 180.139 287.014 179.937 286.775 179.788C286.539 179.64 286.261 179.566 285.939 179.566C285.585 179.566 285.279 179.654 285.021 179.83C284.765 180.003 284.567 180.229 284.429 180.508C284.291 180.786 284.222 181.085 284.222 181.404V181.916C284.222 182.353 284.298 182.723 284.448 183.027C284.601 183.328 284.813 183.558 285.085 183.716C285.356 183.871 285.671 183.949 286.03 183.949C286.263 183.949 286.474 183.917 286.662 183.851C286.853 183.783 287.017 183.683 287.156 183.55C287.294 183.414 287.4 183.246 287.476 183.045L288.334 183.286C288.244 183.578 288.092 183.834 287.879 184.055C287.665 184.273 287.402 184.444 287.088 184.567C286.774 184.687 286.421 184.747 286.03 184.747ZM293.873 180.139L293.075 180.365C293.025 180.231 292.951 180.102 292.853 179.977C292.757 179.849 292.627 179.743 292.461 179.66C292.295 179.578 292.083 179.536 291.825 179.536C291.471 179.536 291.176 179.618 290.94 179.781C290.706 179.942 290.59 180.146 290.59 180.395C290.59 180.616 290.67 180.79 290.831 180.918C290.991 181.046 291.242 181.153 291.584 181.238L292.442 181.449C292.959 181.574 293.345 181.766 293.598 182.025C293.852 182.281 293.979 182.611 293.979 183.015C293.979 183.347 293.883 183.643 293.692 183.904C293.504 184.165 293.24 184.371 292.902 184.522C292.563 184.672 292.169 184.747 291.719 184.747C291.129 184.747 290.641 184.619 290.255 184.363C289.868 184.107 289.623 183.733 289.52 183.241L290.364 183.03C290.444 183.342 290.596 183.575 290.819 183.731C291.045 183.886 291.34 183.964 291.704 183.964C292.118 183.964 292.447 183.876 292.691 183.701C292.937 183.522 293.06 183.309 293.06 183.061C293.06 182.86 292.989 182.692 292.849 182.556C292.708 182.418 292.492 182.315 292.201 182.247L291.237 182.021C290.708 181.896 290.319 181.701 290.07 181.438C289.824 181.172 289.701 180.839 289.701 180.44C289.701 180.113 289.793 179.825 289.976 179.574C290.162 179.323 290.414 179.126 290.733 178.983C291.054 178.84 291.418 178.768 291.825 178.768C292.397 178.768 292.846 178.893 293.173 179.145C293.502 179.396 293.735 179.727 293.873 180.139ZM299.413 180.139L298.615 180.365C298.564 180.231 298.49 180.102 298.393 179.977C298.297 179.849 298.167 179.743 298.001 179.66C297.835 179.578 297.623 179.536 297.365 179.536C297.011 179.536 296.716 179.618 296.48 179.781C296.246 179.942 296.129 180.146 296.129 180.395C296.129 180.616 296.21 180.79 296.37 180.918C296.531 181.046 296.782 181.153 297.124 181.238L297.982 181.449C298.499 181.574 298.885 181.766 299.138 182.025C299.392 182.281 299.518 182.611 299.518 183.015C299.518 183.347 299.423 183.643 299.232 183.904C299.044 184.165 298.78 184.371 298.441 184.522C298.103 184.672 297.708 184.747 297.259 184.747C296.669 184.747 296.181 184.619 295.794 184.363C295.408 184.107 295.163 183.733 295.06 183.241L295.904 183.03C295.984 183.342 296.136 183.575 296.359 183.731C296.585 183.886 296.88 183.964 297.244 183.964C297.658 183.964 297.987 183.876 298.231 183.701C298.477 183.522 298.6 183.309 298.6 183.061C298.6 182.86 298.529 182.692 298.389 182.556C298.248 182.418 298.032 182.315 297.741 182.247L296.777 182.021C296.247 181.896 295.858 181.701 295.61 181.438C295.364 181.172 295.241 180.839 295.241 180.44C295.241 180.113 295.332 179.825 295.516 179.574C295.701 179.323 295.954 179.126 296.273 178.983C296.594 178.84 296.958 178.768 297.365 178.768C297.937 178.768 298.386 178.893 298.713 179.145C299.041 179.396 299.275 179.727 299.413 180.139ZM305.54 184.763C305.174 184.763 304.841 184.693 304.542 184.555C304.244 184.415 304.006 184.213 303.831 183.949C303.655 183.683 303.567 183.362 303.567 182.985C303.567 182.654 303.632 182.385 303.763 182.179C303.893 181.971 304.068 181.808 304.286 181.69C304.505 181.572 304.746 181.484 305.009 181.426C305.275 181.366 305.543 181.318 305.811 181.283C306.163 181.238 306.448 181.204 306.666 181.182C306.887 181.156 307.048 181.115 307.148 181.057C307.251 181 307.302 180.899 307.302 180.756V180.726C307.302 180.354 307.201 180.066 306.997 179.86C306.797 179.654 306.492 179.551 306.082 179.551C305.658 179.551 305.326 179.644 305.085 179.83C304.844 180.016 304.674 180.214 304.576 180.425L303.733 180.124C303.883 179.772 304.084 179.498 304.335 179.303C304.589 179.104 304.865 178.966 305.164 178.888C305.465 178.808 305.761 178.768 306.052 178.768C306.238 178.768 306.451 178.791 306.692 178.836C306.936 178.878 307.171 178.968 307.397 179.103C307.625 179.239 307.815 179.443 307.965 179.717C308.116 179.99 308.191 180.357 308.191 180.816V184.627H307.302V183.844H307.257C307.197 183.969 307.097 184.104 306.956 184.247C306.815 184.39 306.628 184.511 306.395 184.612C306.162 184.712 305.877 184.763 305.54 184.763ZM305.676 183.964C306.027 183.964 306.323 183.895 306.564 183.757C306.808 183.619 306.991 183.441 307.114 183.222C307.24 183.004 307.302 182.774 307.302 182.533V181.72C307.265 181.765 307.182 181.807 307.054 181.844C306.928 181.879 306.783 181.911 306.617 181.938C306.454 181.964 306.295 181.986 306.139 182.006C305.986 182.024 305.862 182.039 305.766 182.051C305.535 182.082 305.319 182.13 305.118 182.198C304.92 182.264 304.76 182.363 304.637 182.496C304.516 182.626 304.456 182.804 304.456 183.03C304.456 183.339 304.57 183.573 304.798 183.731C305.029 183.886 305.322 183.964 305.676 183.964ZM309.813 186.796V178.843H310.672V179.762H310.777C310.842 179.662 310.933 179.534 311.048 179.378C311.166 179.22 311.334 179.079 311.553 178.956C311.774 178.831 312.072 178.768 312.449 178.768C312.936 178.768 313.365 178.89 313.737 179.133C314.108 179.377 314.398 179.722 314.606 180.169C314.815 180.616 314.919 181.143 314.919 181.75C314.919 182.363 314.815 182.894 314.606 183.343C314.398 183.79 314.109 184.136 313.74 184.382C313.371 184.626 312.946 184.747 312.464 184.747C312.092 184.747 311.795 184.686 311.571 184.563C311.348 184.437 311.176 184.296 311.056 184.137C310.935 183.977 310.842 183.844 310.777 183.738H310.702V186.796H309.813ZM310.687 181.735C310.687 182.172 310.751 182.557 310.879 182.891C311.007 183.222 311.194 183.482 311.44 183.671C311.686 183.856 311.987 183.949 312.343 183.949C312.715 183.949 313.025 183.851 313.273 183.655C313.524 183.457 313.713 183.191 313.838 182.857C313.966 182.521 314.03 182.147 314.03 181.735C314.03 181.328 313.968 180.962 313.842 180.636C313.719 180.307 313.532 180.047 313.281 179.856C313.032 179.663 312.72 179.566 312.343 179.566C311.982 179.566 311.678 179.658 311.432 179.841C311.186 180.022 311 180.275 310.875 180.602C310.749 180.926 310.687 181.303 310.687 181.735ZM316.274 186.796V178.843H317.133V179.762H317.238C317.304 179.662 317.394 179.534 317.51 179.378C317.628 179.22 317.796 179.079 318.014 178.956C318.235 178.831 318.534 178.768 318.91 178.768C319.397 178.768 319.827 178.89 320.198 179.133C320.57 179.377 320.859 179.722 321.068 180.169C321.276 180.616 321.38 181.143 321.38 181.75C321.38 182.363 321.276 182.894 321.068 183.343C320.859 183.79 320.571 184.136 320.202 184.382C319.833 184.626 319.407 184.747 318.925 184.747C318.554 184.747 318.256 184.686 318.033 184.563C317.81 184.437 317.638 184.296 317.517 184.137C317.397 183.977 317.304 183.844 317.238 183.738H317.163V186.796H316.274ZM317.148 181.735C317.148 182.172 317.212 182.557 317.34 182.891C317.468 183.222 317.655 183.482 317.901 183.671C318.147 183.856 318.448 183.949 318.805 183.949C319.176 183.949 319.486 183.851 319.735 183.655C319.986 183.457 320.174 183.191 320.3 182.857C320.428 182.521 320.492 182.147 320.492 181.735C320.492 181.328 320.429 180.962 320.303 180.636C320.18 180.307 319.993 180.047 319.742 179.856C319.494 179.663 319.181 179.566 318.805 179.566C318.443 179.566 318.14 179.658 317.894 179.841C317.648 180.022 317.462 180.275 317.336 180.602C317.211 180.926 317.148 181.303 317.148 181.735ZM322.736 184.627V178.843H323.594V179.717H323.655C323.76 179.431 323.951 179.198 324.227 179.02C324.503 178.842 324.814 178.753 325.161 178.753C325.226 178.753 325.308 178.754 325.406 178.757C325.504 178.759 325.578 178.763 325.628 178.768V179.672C325.598 179.664 325.529 179.653 325.421 179.638C325.315 179.62 325.204 179.611 325.086 179.611C324.804 179.611 324.553 179.67 324.332 179.788C324.114 179.904 323.941 180.065 323.813 180.27C323.687 180.474 323.625 180.706 323.625 180.967V184.627H322.736ZM328.855 184.747C328.333 184.747 327.874 184.623 327.48 184.375C327.089 184.126 326.782 183.778 326.562 183.332C326.343 182.885 326.234 182.363 326.234 181.765C326.234 181.163 326.343 180.637 326.562 180.188C326.782 179.738 327.089 179.389 327.48 179.141C327.874 178.892 328.333 178.768 328.855 178.768C329.377 178.768 329.834 178.892 330.225 179.141C330.619 179.389 330.926 179.738 331.144 180.188C331.365 180.637 331.475 181.163 331.475 181.765C331.475 182.363 331.365 182.885 331.144 183.332C330.926 183.778 330.619 184.126 330.225 184.375C329.834 184.623 329.377 184.747 328.855 184.747ZM328.855 183.949C329.251 183.949 329.578 183.848 329.834 183.644C330.09 183.441 330.279 183.174 330.402 182.842C330.525 182.511 330.587 182.152 330.587 181.765C330.587 181.379 330.525 181.018 330.402 180.685C330.279 180.351 330.09 180.081 329.834 179.875C329.578 179.669 329.251 179.566 328.855 179.566C328.458 179.566 328.132 179.669 327.876 179.875C327.62 180.081 327.43 180.351 327.307 180.685C327.184 181.018 327.123 181.379 327.123 181.765C327.123 182.152 327.184 182.511 327.307 182.842C327.43 183.174 327.62 183.441 327.876 183.644C328.132 183.848 328.458 183.949 328.855 183.949ZM337.354 178.843L335.215 184.627H334.312L332.173 178.843H333.137L334.733 183.452H334.794L336.39 178.843H337.354ZM340.053 184.763C339.687 184.763 339.354 184.693 339.055 184.555C338.757 184.415 338.519 184.213 338.344 183.949C338.168 183.683 338.08 183.362 338.08 182.985C338.08 182.654 338.145 182.385 338.276 182.179C338.406 181.971 338.581 181.808 338.799 181.69C339.018 181.572 339.259 181.484 339.522 181.426C339.788 181.366 340.056 181.318 340.324 181.283C340.676 181.238 340.961 181.204 341.179 181.182C341.4 181.156 341.56 181.115 341.661 181.057C341.764 181 341.815 180.899 341.815 180.756V180.726C341.815 180.354 341.714 180.066 341.51 179.86C341.309 179.654 341.004 179.551 340.595 179.551C340.171 179.551 339.838 179.644 339.597 179.83C339.356 180.016 339.187 180.214 339.089 180.425L338.246 180.124C338.396 179.772 338.597 179.498 338.848 179.303C339.102 179.104 339.378 178.966 339.677 178.888C339.978 178.808 340.274 178.768 340.565 178.768C340.751 178.768 340.964 178.791 341.205 178.836C341.449 178.878 341.683 178.968 341.909 179.103C342.138 179.239 342.327 179.443 342.478 179.717C342.629 179.99 342.704 180.357 342.704 180.816V184.627H341.815V183.844H341.77C341.71 183.969 341.609 184.104 341.469 184.247C341.328 184.39 341.141 184.511 340.908 184.612C340.674 184.712 340.389 184.763 340.053 184.763ZM340.189 183.964C340.54 183.964 340.836 183.895 341.077 183.757C341.321 183.619 341.504 183.441 341.627 183.222C341.753 183.004 341.815 182.774 341.815 182.533V181.72C341.778 181.765 341.695 181.807 341.567 181.844C341.441 181.879 341.296 181.911 341.13 181.938C340.967 181.964 340.807 181.986 340.652 182.006C340.499 182.024 340.374 182.039 340.279 182.051C340.048 182.082 339.832 182.13 339.631 182.198C339.433 182.264 339.272 182.363 339.149 182.496C339.029 182.626 338.969 182.804 338.969 183.03C338.969 183.339 339.083 183.573 339.311 183.731C339.542 183.886 339.835 183.964 340.189 183.964ZM345.215 176.915V184.627H344.326V176.915H345.215Z" fill="black"/>
<rect x="203.426" y="205.627" width="106.148" height="30.2955" rx="3.02955" fill="#974EF2"/>
<path d="M211.818 224.274V216.563H214.71C215.302 216.563 215.799 216.666 216.201 216.872C216.605 217.077 216.91 217.366 217.116 217.738C217.324 218.107 217.429 218.537 217.429 219.029C217.429 219.524 217.323 219.953 217.112 220.317C216.904 220.678 216.596 220.958 216.19 221.157C215.783 221.352 215.284 221.45 214.691 221.45H212.631V220.291H214.503C214.849 220.291 215.133 220.243 215.354 220.148C215.575 220.05 215.738 219.908 215.843 219.722C215.951 219.534 216.005 219.303 216.005 219.029C216.005 218.756 215.951 218.522 215.843 218.329C215.735 218.133 215.571 217.985 215.35 217.885C215.129 217.782 214.844 217.73 214.495 217.73H213.215V224.274H211.818ZM215.802 220.78L217.711 224.274H216.152L214.277 220.78H215.802ZM221.132 224.387C220.552 224.387 220.051 224.267 219.63 224.026C219.21 223.782 218.888 223.438 218.662 222.994C218.436 222.547 218.323 222.021 218.323 221.416C218.323 220.822 218.436 220.299 218.662 219.85C218.89 219.398 219.209 219.047 219.618 218.796C220.027 218.542 220.508 218.415 221.06 218.415C221.417 218.415 221.753 218.473 222.07 218.589C222.388 218.702 222.669 218.877 222.913 219.116C223.159 219.354 223.352 219.658 223.493 220.027C223.633 220.394 223.704 220.83 223.704 221.337V221.755H218.963V220.837H222.397C222.395 220.576 222.338 220.343 222.228 220.14C222.117 219.934 221.963 219.772 221.765 219.654C221.569 219.536 221.34 219.477 221.079 219.477C220.801 219.477 220.556 219.545 220.345 219.681C220.134 219.814 219.97 219.989 219.852 220.208C219.736 220.424 219.677 220.661 219.675 220.919V221.721C219.675 222.058 219.736 222.347 219.859 222.588C219.982 222.826 220.154 223.009 220.375 223.137C220.596 223.263 220.855 223.326 221.151 223.326C221.349 223.326 221.529 223.298 221.689 223.243C221.85 223.185 221.989 223.101 222.107 222.99C222.225 222.88 222.314 222.743 222.375 222.58L223.647 222.723C223.567 223.059 223.414 223.353 223.188 223.604C222.964 223.853 222.678 224.046 222.329 224.184C221.98 224.32 221.581 224.387 221.132 224.387ZM228.716 226.443V223.363H228.66C228.59 223.504 228.488 223.653 228.355 223.811C228.222 223.967 228.046 224.1 227.828 224.21C227.609 224.321 227.335 224.376 227.003 224.376C226.549 224.376 226.142 224.259 225.783 224.026C225.424 223.792 225.141 223.454 224.932 223.009C224.724 222.565 224.62 222.025 224.62 221.39C224.62 220.747 224.725 220.205 224.936 219.763C225.149 219.319 225.437 218.984 225.798 218.758C226.16 218.53 226.563 218.415 227.007 218.415C227.346 218.415 227.624 218.473 227.843 218.589C228.061 218.702 228.234 218.838 228.362 218.999C228.49 219.157 228.59 219.307 228.66 219.447H228.743V218.491H230.083V226.443H228.716ZM227.383 223.258C227.672 223.258 227.918 223.18 228.121 223.024C228.325 222.866 228.479 222.646 228.585 222.365C228.69 222.084 228.743 221.757 228.743 221.383C228.743 221.009 228.69 220.683 228.585 220.407C228.482 220.131 228.329 219.917 228.125 219.763C227.924 219.61 227.677 219.534 227.383 219.534C227.08 219.534 226.826 219.613 226.623 219.771C226.42 219.929 226.266 220.148 226.163 220.426C226.061 220.705 226.009 221.024 226.009 221.383C226.009 221.744 226.061 222.067 226.163 222.35C226.269 222.631 226.423 222.854 226.627 223.017C226.832 223.177 227.085 223.258 227.383 223.258ZM235.17 221.842V218.491H236.533V224.274H235.212V223.246H235.152C235.021 223.57 234.806 223.835 234.508 224.041C234.211 224.247 233.846 224.35 233.412 224.35C233.033 224.35 232.698 224.266 232.407 224.097C232.118 223.927 231.892 223.679 231.729 223.356C231.566 223.029 231.484 222.635 231.484 222.173V218.491H232.847V221.962C232.847 222.329 232.947 222.62 233.148 222.836C233.349 223.052 233.613 223.16 233.939 223.16C234.14 223.16 234.334 223.111 234.523 223.013C234.711 222.915 234.865 222.77 234.986 222.576C235.109 222.38 235.17 222.136 235.17 221.842ZM240.496 224.387C239.916 224.387 239.415 224.267 238.993 224.026C238.574 223.782 238.251 223.438 238.025 222.994C237.8 222.547 237.687 222.021 237.687 221.416C237.687 220.822 237.8 220.299 238.025 219.85C238.254 219.398 238.573 219.047 238.982 218.796C239.391 218.542 239.872 218.415 240.424 218.415C240.78 218.415 241.117 218.473 241.433 218.589C241.752 218.702 242.033 218.877 242.277 219.116C242.523 219.354 242.716 219.658 242.856 220.027C242.997 220.394 243.067 220.83 243.067 221.337V221.755H238.327V220.837H241.761C241.758 220.576 241.702 220.343 241.591 220.14C241.481 219.934 241.326 219.772 241.128 219.654C240.932 219.536 240.704 219.477 240.443 219.477C240.164 219.477 239.919 219.545 239.709 219.681C239.498 219.814 239.333 219.989 239.215 220.208C239.1 220.424 239.041 220.661 239.038 220.919V221.721C239.038 222.058 239.1 222.347 239.223 222.588C239.346 222.826 239.518 223.009 239.739 223.137C239.96 223.263 240.218 223.326 240.514 223.326C240.713 223.326 240.892 223.298 241.053 223.243C241.214 223.185 241.353 223.101 241.471 222.99C241.589 222.88 241.678 222.743 241.738 222.58L243.011 222.723C242.931 223.059 242.777 223.353 242.551 223.604C242.328 223.853 242.042 224.046 241.693 224.184C241.344 224.32 240.945 224.387 240.496 224.387ZM248.792 220.019L247.549 220.155C247.514 220.03 247.452 219.912 247.365 219.801C247.279 219.691 247.164 219.602 247.018 219.534C246.873 219.466 246.694 219.432 246.484 219.432C246.2 219.432 245.961 219.494 245.768 219.617C245.577 219.74 245.483 219.899 245.486 220.095C245.483 220.263 245.545 220.4 245.67 220.505C245.798 220.611 246.009 220.697 246.303 220.765L247.289 220.976C247.837 221.094 248.243 221.281 248.509 221.537C248.778 221.793 248.913 222.128 248.916 222.542C248.913 222.906 248.807 223.228 248.596 223.506C248.388 223.782 248.098 223.998 247.726 224.154C247.355 224.31 246.928 224.387 246.446 224.387C245.738 224.387 245.168 224.239 244.736 223.943C244.305 223.644 244.047 223.229 243.964 222.697L245.294 222.569C245.354 222.83 245.482 223.027 245.678 223.16C245.874 223.293 246.128 223.359 246.442 223.359C246.766 223.359 247.026 223.293 247.222 223.16C247.42 223.027 247.519 222.862 247.519 222.667C247.519 222.501 247.455 222.364 247.327 222.256C247.201 222.148 247.006 222.065 246.74 222.008L245.753 221.801C245.198 221.685 244.788 221.491 244.522 221.217C244.256 220.941 244.124 220.592 244.126 220.17C244.124 219.814 244.221 219.505 244.416 219.244C244.615 218.98 244.889 218.777 245.241 218.634C245.595 218.488 246.003 218.415 246.465 218.415C247.142 218.415 247.676 218.56 248.065 218.848C248.457 219.137 248.699 219.527 248.792 220.019ZM252.928 218.491V219.545H249.603V218.491H252.928ZM250.424 217.105H251.787V222.535C251.787 222.718 251.815 222.859 251.87 222.957C251.928 223.052 252.003 223.117 252.096 223.152C252.189 223.187 252.292 223.205 252.405 223.205C252.49 223.205 252.568 223.199 252.638 223.186C252.711 223.174 252.766 223.162 252.804 223.152L253.033 224.218C252.961 224.243 252.856 224.271 252.721 224.301C252.588 224.331 252.425 224.348 252.231 224.353C251.89 224.364 251.583 224.312 251.309 224.199C251.035 224.084 250.818 223.905 250.657 223.664C250.499 223.423 250.422 223.122 250.424 222.761V217.105ZM257.749 224.274H256.258L258.972 216.563H260.697L263.416 224.274H261.925L259.865 218.144H259.805L257.749 224.274ZM257.798 221.251H261.864V222.373H257.798V221.251ZM264.371 226.443V218.491H265.712V219.447H265.791C265.861 219.307 265.96 219.157 266.088 218.999C266.216 218.838 266.389 218.702 266.608 218.589C266.826 218.473 267.105 218.415 267.444 218.415C267.891 218.415 268.293 218.53 268.652 218.758C269.014 218.984 269.3 219.319 269.511 219.763C269.724 220.205 269.831 220.747 269.831 221.39C269.831 222.025 269.727 222.565 269.518 223.009C269.31 223.454 269.026 223.792 268.667 224.026C268.309 224.259 267.902 224.376 267.447 224.376C267.116 224.376 266.841 224.321 266.623 224.21C266.404 224.1 266.229 223.967 266.096 223.811C265.965 223.653 265.863 223.504 265.791 223.363H265.734V226.443H264.371ZM265.708 221.383C265.708 221.757 265.761 222.084 265.866 222.365C265.974 222.646 266.128 222.866 266.329 223.024C266.532 223.18 266.778 223.258 267.067 223.258C267.368 223.258 267.621 223.177 267.824 223.017C268.027 222.854 268.18 222.631 268.283 222.35C268.389 222.067 268.442 221.744 268.442 221.383C268.442 221.024 268.39 220.705 268.287 220.426C268.184 220.148 268.031 219.929 267.828 219.771C267.624 219.613 267.371 219.534 267.067 219.534C266.776 219.534 266.529 219.61 266.325 219.763C266.122 219.917 265.968 220.131 265.862 220.407C265.759 220.683 265.708 221.009 265.708 221.383ZM270.998 226.443V218.491H272.339V219.447H272.418C272.488 219.307 272.587 219.157 272.715 218.999C272.843 218.838 273.017 218.702 273.235 218.589C273.453 218.473 273.732 218.415 274.071 218.415C274.518 218.415 274.921 218.53 275.28 218.758C275.641 218.984 275.927 219.319 276.138 219.763C276.351 220.205 276.458 220.747 276.458 221.39C276.458 222.025 276.354 222.565 276.146 223.009C275.937 223.454 275.654 223.792 275.295 224.026C274.936 224.259 274.529 224.376 274.075 224.376C273.743 224.376 273.468 224.321 273.25 224.21C273.032 224.1 272.856 223.967 272.723 223.811C272.592 223.653 272.491 223.504 272.418 223.363H272.361V226.443H270.998ZM272.335 221.383C272.335 221.757 272.388 222.084 272.493 222.365C272.601 222.646 272.755 222.866 272.956 223.024C273.16 223.18 273.406 223.258 273.694 223.258C273.996 223.258 274.248 223.177 274.451 223.017C274.654 222.854 274.808 222.631 274.911 222.35C275.016 222.067 275.069 221.744 275.069 221.383C275.069 221.024 275.017 220.705 274.914 220.426C274.811 220.148 274.658 219.929 274.455 219.771C274.252 219.613 273.998 219.534 273.694 219.534C273.403 219.534 273.156 219.61 272.953 219.763C272.749 219.917 272.595 220.131 272.489 220.407C272.386 220.683 272.335 221.009 272.335 221.383ZM277.625 224.274V218.491H278.947V219.455H279.007C279.113 219.121 279.293 218.864 279.55 218.683C279.808 218.5 280.103 218.408 280.434 218.408C280.51 218.408 280.594 218.412 280.687 218.419C280.782 218.424 280.861 218.433 280.924 218.446V219.699C280.866 219.679 280.775 219.662 280.649 219.647C280.526 219.629 280.407 219.62 280.291 219.62C280.043 219.62 279.819 219.674 279.621 219.782C279.425 219.888 279.271 220.035 279.158 220.223C279.045 220.411 278.988 220.628 278.988 220.874V224.274H277.625ZM284.114 224.387C283.549 224.387 283.06 224.263 282.646 224.015C282.231 223.766 281.91 223.418 281.682 222.972C281.456 222.525 281.343 222.003 281.343 221.405C281.343 220.808 281.456 220.284 281.682 219.835C281.91 219.386 282.231 219.037 282.646 218.788C283.06 218.54 283.549 218.415 284.114 218.415C284.679 218.415 285.168 218.54 285.583 218.788C285.997 219.037 286.317 219.386 286.543 219.835C286.771 220.284 286.885 220.808 286.885 221.405C286.885 222.003 286.771 222.525 286.543 222.972C286.317 223.418 285.997 223.766 285.583 224.015C285.168 224.263 284.679 224.387 284.114 224.387ZM284.122 223.295C284.428 223.295 284.684 223.211 284.89 223.043C285.096 222.872 285.249 222.644 285.349 222.358C285.452 222.072 285.504 221.753 285.504 221.401C285.504 221.047 285.452 220.727 285.349 220.441C285.249 220.153 285.096 219.923 284.89 219.752C284.684 219.581 284.428 219.496 284.122 219.496C283.808 219.496 283.547 219.581 283.338 219.752C283.133 219.923 282.978 220.153 282.875 220.441C282.775 220.727 282.725 221.047 282.725 221.401C282.725 221.753 282.775 222.072 282.875 222.358C282.978 222.644 283.133 222.872 283.338 223.043C283.547 223.211 283.808 223.295 284.122 223.295ZM293.012 218.491L290.952 224.274H289.446L287.386 218.491H288.84L290.169 222.787H290.229L291.562 218.491H293.012ZM295.454 224.391C295.087 224.391 294.757 224.326 294.463 224.195C294.172 224.062 293.941 223.866 293.771 223.608C293.602 223.349 293.518 223.031 293.518 222.652C293.518 222.325 293.579 222.055 293.699 221.842C293.82 221.629 293.984 221.458 294.192 221.33C294.401 221.202 294.635 221.105 294.896 221.04C295.16 220.972 295.432 220.923 295.714 220.893C296.052 220.858 296.327 220.827 296.538 220.799C296.749 220.769 296.902 220.724 296.998 220.663C297.095 220.601 297.144 220.504 297.144 220.373V220.351C297.144 220.067 297.06 219.848 296.892 219.692C296.724 219.536 296.482 219.458 296.165 219.458C295.831 219.458 295.567 219.531 295.371 219.677C295.178 219.822 295.047 219.994 294.979 220.193L293.707 220.012C293.807 219.661 293.973 219.367 294.204 219.131C294.435 218.892 294.717 218.714 295.051 218.596C295.385 218.476 295.754 218.415 296.158 218.415C296.436 218.415 296.714 218.448 296.99 218.513C297.266 218.579 297.518 218.687 297.747 218.837C297.975 218.985 298.159 219.187 298.297 219.443C298.437 219.699 298.507 220.019 298.507 220.404V224.274H297.197V223.48H297.152C297.069 223.641 296.952 223.791 296.802 223.932C296.654 224.07 296.467 224.182 296.241 224.267C296.017 224.35 295.755 224.391 295.454 224.391ZM295.808 223.39C296.081 223.39 296.318 223.336 296.519 223.228C296.72 223.117 296.875 222.972 296.982 222.791C297.093 222.61 297.148 222.413 297.148 222.2V221.518C297.105 221.553 297.033 221.586 296.93 221.616C296.829 221.646 296.716 221.673 296.591 221.695C296.465 221.718 296.341 221.738 296.218 221.755C296.095 221.773 295.988 221.788 295.898 221.801C295.695 221.828 295.513 221.873 295.352 221.936C295.191 221.999 295.065 222.087 294.972 222.2C294.879 222.31 294.832 222.453 294.832 222.629C294.832 222.88 294.924 223.069 295.107 223.198C295.291 223.326 295.524 223.39 295.808 223.39ZM301.241 216.563V224.274H299.878V216.563H301.241Z" fill="#FDFCFC"/>
<circle cx="207.229" cy="263.148" r="9.22515" fill="#E9E9E6" stroke="#DBDBD7" stroke-width="0.757386"/>
<g clip-path="url(#clip2_12017_1451)">
<path d="M206.946 255.779C202.995 255.779 203.189 260.183 202.956 262.988C202.952 263.029 202.966 263.07 202.994 263.1C203.022 263.131 203.061 263.148 203.102 263.148H205.46C205.538 263.148 205.603 263.087 205.608 263.009L205.816 259.47C205.86 258.722 206.479 258.137 207.229 258.137C207.978 258.137 208.598 258.722 208.642 259.47L208.85 263.009C208.855 263.087 208.919 263.148 208.997 263.148H211.355C211.397 263.148 211.436 263.131 211.464 263.1C211.492 263.07 211.506 263.029 211.502 262.988L211.183 259.158C211.024 257.248 209.428 255.779 207.511 255.779H206.946Z" fill="#706F6C"/>
<path d="M207.228 269.042C205.318 269.042 203.961 268.998 203.089 268.955C202.155 268.909 201.368 268.237 201.277 267.267C201.227 266.723 201.186 265.995 201.186 265.063C201.186 264.131 201.227 263.403 201.277 262.859C201.368 261.89 202.155 261.218 203.089 261.171C203.961 261.128 205.318 261.084 207.228 261.084C209.138 261.084 210.494 261.128 211.367 261.171C212.301 261.218 213.088 261.89 213.178 262.859C213.229 263.403 213.27 264.131 213.27 265.063C213.27 265.995 213.229 266.723 213.178 267.267C213.088 268.237 212.301 268.909 211.367 268.955C210.494 268.998 209.138 269.042 207.228 269.042Z" fill="url(#paint0_linear_12017_1451)"/>
<path fill-rule="evenodd" clip-rule="evenodd" d="M209.813 263.698C210.034 263.377 209.952 262.938 209.631 262.718C209.31 262.497 208.871 262.579 208.65 262.9L207.22 264.984L206.464 264.144C206.203 263.854 205.757 263.831 205.468 264.092C205.178 264.353 205.155 264.799 205.416 265.088L206.771 266.593C206.916 266.754 207.126 266.839 207.342 266.825C207.557 266.811 207.755 266.698 207.877 266.52L209.813 263.698Z" fill="#1B1B18"/>
</g>
<path d="M225.488 260.596C225.452 260.279 225.305 260.034 225.047 259.86C224.788 259.684 224.462 259.596 224.07 259.596C223.788 259.596 223.545 259.64 223.34 259.73C223.135 259.817 222.975 259.937 222.862 260.091C222.75 260.243 222.694 260.416 222.694 260.61C222.694 260.772 222.732 260.913 222.808 261.031C222.886 261.149 222.988 261.249 223.113 261.329C223.24 261.407 223.376 261.473 223.521 261.526C223.666 261.578 223.805 261.62 223.939 261.654L224.608 261.827C224.827 261.881 225.051 261.954 225.281 262.045C225.51 262.136 225.723 262.257 225.92 262.406C226.116 262.556 226.274 262.741 226.395 262.962C226.518 263.183 226.579 263.447 226.579 263.755C226.579 264.143 226.479 264.487 226.278 264.789C226.079 265.09 225.79 265.327 225.411 265.501C225.034 265.675 224.578 265.762 224.043 265.762C223.53 265.762 223.086 265.681 222.711 265.518C222.336 265.355 222.043 265.124 221.831 264.825C221.619 264.524 221.502 264.167 221.48 263.755H222.517C222.537 264.002 222.617 264.209 222.758 264.374C222.901 264.537 223.083 264.658 223.303 264.738C223.526 264.816 223.771 264.855 224.036 264.855C224.328 264.855 224.588 264.81 224.816 264.718C225.045 264.625 225.226 264.495 225.358 264.33C225.489 264.163 225.555 263.968 225.555 263.745C225.555 263.542 225.497 263.375 225.381 263.246C225.267 263.117 225.112 263.01 224.916 262.925C224.722 262.84 224.502 262.765 224.257 262.701L223.447 262.48C222.898 262.33 222.464 262.111 222.142 261.821C221.823 261.531 221.664 261.147 221.664 260.67C221.664 260.275 221.771 259.93 221.985 259.636C222.199 259.342 222.489 259.113 222.855 258.95C223.221 258.785 223.633 258.702 224.093 258.702C224.557 258.702 224.966 258.784 225.321 258.947C225.678 259.11 225.959 259.334 226.164 259.619C226.369 259.903 226.476 260.228 226.485 260.596H225.488ZM229.949 265.752C229.443 265.752 229.007 265.644 228.641 265.428C228.277 265.209 227.996 264.902 227.798 264.508C227.601 264.11 227.503 263.645 227.503 263.112C227.503 262.586 227.601 262.122 227.798 261.72C227.996 261.319 228.273 261.006 228.627 260.78C228.984 260.555 229.401 260.442 229.879 260.442C230.169 260.442 230.45 260.49 230.722 260.586C230.994 260.682 231.238 260.833 231.455 261.038C231.671 261.243 231.842 261.51 231.967 261.838C232.091 262.163 232.154 262.559 232.154 263.025V263.38H228.069V262.63H231.174C231.174 262.367 231.12 262.134 231.013 261.931C230.906 261.726 230.755 261.564 230.561 261.446C230.369 261.328 230.144 261.269 229.885 261.269C229.604 261.269 229.359 261.338 229.149 261.476C228.942 261.612 228.781 261.791 228.668 262.012C228.556 262.23 228.5 262.468 228.5 262.724V263.31C228.5 263.653 228.56 263.945 228.681 264.186C228.804 264.427 228.974 264.611 229.193 264.738C229.411 264.863 229.667 264.926 229.959 264.926C230.149 264.926 230.322 264.899 230.478 264.845C230.634 264.79 230.769 264.707 230.882 264.598C230.996 264.489 231.083 264.354 231.143 264.193L232.09 264.364C232.015 264.642 231.878 264.887 231.682 265.096C231.488 265.304 231.244 265.466 230.949 265.582C230.657 265.695 230.324 265.752 229.949 265.752ZM235.429 265.752C234.931 265.752 234.503 265.64 234.144 265.414C233.787 265.187 233.513 264.873 233.321 264.474C233.129 264.075 233.033 263.618 233.033 263.102C233.033 262.58 233.131 262.12 233.327 261.72C233.524 261.319 233.8 261.006 234.157 260.78C234.514 260.555 234.935 260.442 235.419 260.442C235.809 260.442 236.157 260.515 236.463 260.66C236.768 260.803 237.015 261.003 237.202 261.262C237.392 261.521 237.504 261.823 237.54 262.169H236.566C236.513 261.928 236.39 261.72 236.198 261.546C236.009 261.372 235.754 261.285 235.435 261.285C235.157 261.285 234.912 261.359 234.703 261.506C234.495 261.651 234.333 261.859 234.217 262.129C234.101 262.396 234.043 262.713 234.043 263.079C234.043 263.454 234.1 263.777 234.214 264.049C234.328 264.321 234.488 264.532 234.696 264.681C234.906 264.831 235.152 264.906 235.435 264.906C235.625 264.906 235.797 264.871 235.951 264.802C236.107 264.731 236.237 264.629 236.342 264.497C236.449 264.366 236.524 264.207 236.566 264.022H237.54C237.504 264.355 237.396 264.651 237.215 264.912C237.035 265.173 236.793 265.379 236.489 265.528C236.188 265.677 235.835 265.752 235.429 265.752ZM241.865 263.517V260.509H242.869V265.648H241.885V264.758H241.832C241.714 265.033 241.524 265.261 241.263 265.444C241.004 265.625 240.682 265.715 240.296 265.715C239.966 265.715 239.674 265.643 239.419 265.498C239.167 265.351 238.969 265.133 238.824 264.845C238.681 264.558 238.61 264.202 238.61 263.778V260.509H239.61V263.658C239.61 264.008 239.707 264.287 239.901 264.494C240.095 264.702 240.347 264.805 240.657 264.805C240.845 264.805 241.031 264.758 241.216 264.665C241.403 264.571 241.559 264.429 241.681 264.24C241.806 264.05 241.867 263.809 241.865 263.517ZM244.213 265.648V260.509H245.18V261.326H245.234C245.327 261.049 245.492 260.832 245.729 260.673C245.967 260.513 246.237 260.432 246.539 260.432C246.601 260.432 246.675 260.435 246.759 260.439C246.846 260.443 246.914 260.449 246.963 260.456V261.413C246.923 261.401 246.852 261.389 246.749 261.376C246.647 261.36 246.544 261.352 246.441 261.352C246.205 261.352 245.994 261.403 245.809 261.503C245.626 261.601 245.481 261.738 245.374 261.914C245.267 262.088 245.214 262.287 245.214 262.51V265.648H244.213ZM249.86 265.752C249.354 265.752 248.918 265.644 248.552 265.428C248.188 265.209 247.907 264.902 247.709 264.508C247.512 264.11 247.414 263.645 247.414 263.112C247.414 262.586 247.512 262.122 247.709 261.72C247.907 261.319 248.184 261.006 248.538 260.78C248.895 260.555 249.313 260.442 249.79 260.442C250.08 260.442 250.361 260.49 250.633 260.586C250.905 260.682 251.149 260.833 251.366 261.038C251.582 261.243 251.753 261.51 251.878 261.838C252.003 262.163 252.065 262.559 252.065 263.025V263.38H247.98V262.63H251.085C251.085 262.367 251.031 262.134 250.924 261.931C250.817 261.726 250.666 261.564 250.472 261.446C250.281 261.328 250.055 261.269 249.797 261.269C249.515 261.269 249.27 261.338 249.06 261.476C248.853 261.612 248.692 261.791 248.579 262.012C248.467 262.23 248.411 262.468 248.411 262.724V263.31C248.411 263.653 248.472 263.945 248.592 264.186C248.715 264.427 248.885 264.611 249.104 264.738C249.323 264.863 249.578 264.926 249.87 264.926C250.06 264.926 250.233 264.899 250.389 264.845C250.545 264.79 250.68 264.707 250.794 264.598C250.907 264.489 250.994 264.354 251.055 264.193L252.001 264.364C251.926 264.642 251.79 264.887 251.593 265.096C251.399 265.304 251.155 265.466 250.861 265.582C250.568 265.695 250.235 265.752 249.86 265.752ZM255.099 265.749C254.684 265.749 254.314 265.643 253.988 265.431C253.665 265.217 253.41 264.912 253.225 264.518C253.042 264.121 252.951 263.644 252.951 263.089C252.951 262.533 253.043 262.058 253.229 261.664C253.416 261.269 253.672 260.966 253.998 260.757C254.324 260.547 254.693 260.442 255.106 260.442C255.425 260.442 255.681 260.496 255.875 260.603C256.071 260.708 256.223 260.83 256.33 260.971C256.439 261.111 256.524 261.235 256.584 261.342H256.645V258.796H257.645V265.648H256.668V264.849H256.584C256.524 264.958 256.437 265.083 256.323 265.224C256.212 265.364 256.058 265.487 255.862 265.592C255.665 265.696 255.411 265.749 255.099 265.749ZM255.32 264.896C255.607 264.896 255.851 264.82 256.049 264.668C256.25 264.514 256.402 264.301 256.504 264.029C256.609 263.757 256.661 263.44 256.661 263.079C256.661 262.722 256.61 262.41 256.507 262.142C256.405 261.874 256.254 261.666 256.056 261.516C255.857 261.367 255.612 261.292 255.32 261.292C255.019 261.292 254.768 261.37 254.567 261.526C254.366 261.683 254.214 261.896 254.112 262.165C254.011 262.435 253.961 262.74 253.961 263.079C253.961 263.422 254.013 263.731 254.115 264.006C254.218 264.28 254.369 264.497 254.57 264.658C254.773 264.816 255.023 264.896 255.32 264.896ZM261.647 265.648V258.796H262.647V261.342H262.707C262.765 261.235 262.849 261.111 262.958 260.971C263.068 260.83 263.219 260.708 263.413 260.603C263.607 260.496 263.864 260.442 264.183 260.442C264.598 260.442 264.968 260.547 265.294 260.757C265.619 260.966 265.875 261.269 266.06 261.664C266.247 262.058 266.341 262.533 266.341 263.089C266.341 263.644 266.248 264.121 266.063 264.518C265.878 264.912 265.624 265.217 265.3 265.431C264.977 265.643 264.608 265.749 264.193 265.749C263.881 265.749 263.625 265.696 263.427 265.592C263.23 265.487 263.076 265.364 262.965 265.224C262.853 265.083 262.768 264.958 262.707 264.849H262.624V265.648H261.647ZM262.627 263.079C262.627 263.44 262.679 263.757 262.784 264.029C262.889 264.301 263.041 264.514 263.239 264.668C263.438 264.82 263.681 264.896 263.969 264.896C264.268 264.896 264.517 264.816 264.718 264.658C264.919 264.497 265.071 264.28 265.173 264.006C265.278 263.731 265.33 263.422 265.33 263.079C265.33 262.74 265.279 262.435 265.177 262.165C265.076 261.896 264.924 261.683 264.721 261.526C264.521 261.37 264.27 261.292 263.969 261.292C263.679 261.292 263.433 261.367 263.233 261.516C263.034 261.666 262.884 261.874 262.781 262.142C262.678 262.41 262.627 262.722 262.627 263.079ZM267.922 267.576C267.772 267.576 267.636 267.563 267.514 267.539C267.391 267.517 267.299 267.492 267.239 267.465L267.48 266.645C267.663 266.695 267.826 266.716 267.969 266.709C268.111 266.702 268.237 266.649 268.347 266.548C268.458 266.448 268.556 266.284 268.641 266.057L268.765 265.715L266.885 260.509H267.955L269.257 264.497H269.31L270.612 260.509H271.686L269.568 266.334C269.47 266.602 269.345 266.828 269.193 267.014C269.042 267.201 268.861 267.341 268.651 267.435C268.442 267.529 268.198 267.576 267.922 267.576ZM275.2 265.648V258.796H277.642C278.175 258.796 278.617 258.893 278.967 259.087C279.317 259.281 279.58 259.547 279.754 259.884C279.928 260.218 280.014 260.595 280.014 261.014C280.014 261.436 279.926 261.815 279.75 262.152C279.576 262.487 279.313 262.752 278.961 262.948C278.61 263.142 278.17 263.239 277.639 263.239H275.959V262.363H277.545C277.882 262.363 278.155 262.305 278.365 262.189C278.575 262.071 278.729 261.91 278.827 261.707C278.925 261.504 278.974 261.273 278.974 261.014C278.974 260.756 278.925 260.526 278.827 260.325C278.729 260.124 278.574 259.967 278.362 259.853C278.152 259.74 277.875 259.683 277.532 259.683H276.234V265.648H275.2ZM283.297 265.752C282.79 265.752 282.354 265.644 281.989 265.428C281.625 265.209 281.344 264.902 281.145 264.508C280.949 264.11 280.851 263.645 280.851 263.112C280.851 262.586 280.949 262.122 281.145 261.72C281.344 261.319 281.62 261.006 281.975 260.78C282.332 260.555 282.749 260.442 283.226 260.442C283.516 260.442 283.798 260.49 284.07 260.586C284.342 260.682 284.586 260.833 284.802 261.038C285.019 261.243 285.189 261.51 285.314 261.838C285.439 262.163 285.502 262.559 285.502 263.025V263.38H281.416V262.63H284.521C284.521 262.367 284.468 262.134 284.361 261.931C284.254 261.726 284.103 261.564 283.909 261.446C283.717 261.328 283.492 261.269 283.233 261.269C282.952 261.269 282.707 261.338 282.497 261.476C282.29 261.612 282.129 261.791 282.015 262.012C281.904 262.23 281.848 262.468 281.848 262.724V263.31C281.848 263.653 281.908 263.945 282.029 264.186C282.151 264.427 282.322 264.611 282.541 264.738C282.759 264.863 283.015 264.926 283.307 264.926C283.496 264.926 283.669 264.899 283.825 264.845C283.982 264.79 284.116 264.707 284.23 264.598C284.344 264.489 284.431 264.354 284.491 264.193L285.438 264.364C285.362 264.642 285.226 264.887 285.03 265.096C284.836 265.304 284.592 265.466 284.297 265.582C284.005 265.695 283.671 265.752 283.297 265.752ZM286.612 265.648V260.509H287.579V261.326H287.632C287.726 261.049 287.891 260.832 288.127 260.673C288.366 260.513 288.636 260.432 288.937 260.432C288.999 260.432 289.073 260.435 289.158 260.439C289.245 260.443 289.313 260.449 289.362 260.456V261.413C289.322 261.401 289.25 261.389 289.148 261.376C289.045 261.36 288.943 261.352 288.84 261.352C288.604 261.352 288.393 261.403 288.208 261.503C288.025 261.601 287.88 261.738 287.773 261.914C287.666 262.088 287.612 262.287 287.612 262.51V265.648H286.612ZM290.228 265.648V260.509H291.188V261.346H291.252C291.359 261.062 291.534 260.842 291.777 260.683C292.02 260.523 292.311 260.442 292.65 260.442C292.994 260.442 293.281 260.523 293.513 260.683C293.747 260.844 293.92 261.065 294.032 261.346H294.085C294.208 261.071 294.403 260.853 294.671 260.69C294.939 260.525 295.258 260.442 295.628 260.442C296.094 260.442 296.474 260.588 296.769 260.881C297.065 261.173 297.214 261.613 297.214 262.202V265.648H296.213V262.296C296.213 261.948 296.119 261.696 295.929 261.54C295.739 261.384 295.513 261.306 295.25 261.306C294.924 261.306 294.671 261.406 294.49 261.607C294.31 261.805 294.219 262.061 294.219 262.373V265.648H293.222V262.232C293.222 261.954 293.135 261.729 292.961 261.56C292.787 261.39 292.561 261.306 292.282 261.306C292.092 261.306 291.917 261.356 291.757 261.456C291.598 261.554 291.47 261.691 291.372 261.868C291.276 262.044 291.228 262.248 291.228 262.48V265.648H290.228ZM298.555 265.648V260.509H299.555V265.648H298.555ZM299.06 259.716C298.886 259.716 298.736 259.658 298.612 259.542C298.489 259.424 298.427 259.284 298.427 259.121C298.427 258.956 298.489 258.815 298.612 258.699C298.736 258.581 298.886 258.522 299.06 258.522C299.234 258.522 299.382 258.581 299.505 258.699C299.63 258.815 299.692 258.956 299.692 259.121C299.692 259.284 299.63 259.424 299.505 259.542C299.382 259.658 299.234 259.716 299.06 259.716ZM303.3 260.509V261.312H300.493V260.509H303.3ZM301.246 259.278H302.246V264.139C302.246 264.334 302.275 264.48 302.333 264.578C302.391 264.674 302.466 264.739 302.557 264.775C302.651 264.809 302.752 264.825 302.862 264.825C302.942 264.825 303.012 264.82 303.072 264.809C303.133 264.797 303.179 264.789 303.213 264.782L303.394 265.608C303.336 265.631 303.253 265.653 303.146 265.675C303.039 265.7 302.905 265.713 302.744 265.715C302.481 265.72 302.236 265.673 302.008 265.575C301.781 265.477 301.597 265.325 301.456 265.12C301.316 264.915 301.246 264.657 301.246 264.347V259.278ZM305.066 265.712C304.883 265.712 304.725 265.647 304.594 265.518C304.462 265.386 304.396 265.228 304.396 265.043C304.396 264.86 304.462 264.704 304.594 264.574C304.725 264.443 304.883 264.377 305.066 264.377C305.249 264.377 305.406 264.443 305.537 264.574C305.669 264.704 305.735 264.86 305.735 265.043C305.735 265.166 305.704 265.278 305.641 265.381C305.581 265.481 305.501 265.561 305.4 265.622C305.3 265.682 305.188 265.712 305.066 265.712ZM307.075 265.648V260.509H308.075V265.648H307.075ZM307.58 259.716C307.406 259.716 307.257 259.658 307.132 259.542C307.009 259.424 306.948 259.284 306.948 259.121C306.948 258.956 307.009 258.815 307.132 258.699C307.257 258.581 307.406 258.522 307.58 258.522C307.754 258.522 307.902 258.581 308.025 258.699C308.15 258.815 308.212 258.956 308.212 259.121C308.212 259.284 308.15 259.424 308.025 259.542C307.902 259.658 307.754 259.716 307.58 259.716ZM311.586 265.752C311.104 265.752 310.684 265.642 310.324 265.421C309.965 265.2 309.687 264.891 309.488 264.494C309.289 264.097 309.19 263.633 309.19 263.102C309.19 262.569 309.289 262.103 309.488 261.704C309.687 261.304 309.965 260.994 310.324 260.774C310.684 260.553 311.104 260.442 311.586 260.442C312.068 260.442 312.488 260.553 312.847 260.774C313.206 260.994 313.485 261.304 313.684 261.704C313.882 262.103 313.981 262.569 313.981 263.102C313.981 263.633 313.882 264.097 313.684 264.494C313.485 264.891 313.206 265.2 312.847 265.421C312.488 265.642 312.068 265.752 311.586 265.752ZM311.589 264.912C311.901 264.912 312.16 264.83 312.365 264.665C312.571 264.5 312.722 264.28 312.82 264.006C312.921 263.731 312.971 263.429 312.971 263.099C312.971 262.771 312.921 262.47 312.82 262.196C312.722 261.919 312.571 261.697 312.365 261.53C312.16 261.362 311.901 261.279 311.589 261.279C311.275 261.279 311.014 261.362 310.806 261.53C310.601 261.697 310.448 261.919 310.348 262.196C310.25 262.47 310.201 262.771 310.201 263.099C310.201 263.429 310.25 263.731 310.348 264.006C310.448 264.28 310.601 264.5 310.806 264.665C311.014 264.83 311.275 264.912 311.589 264.912Z" fill="#1B1B18"/>
<rect width="511" height="42" transform="translate(1 0.5)" fill="#F2E8E4"/>
<path d="M197.754 27.5H195.539L199.572 16.0455H202.134L206.172 27.5H203.957L200.897 18.3945H200.808L197.754 27.5ZM197.827 23.0088H203.867V24.6755H197.827V23.0088ZM211.077 27.6678C210.219 27.6678 209.483 27.4795 208.868 27.1029C208.256 26.7263 207.784 26.2061 207.453 25.5424C207.124 24.875 206.96 24.1069 206.96 23.2381C206.96 22.3656 207.128 21.5956 207.464 20.9282C207.799 20.257 208.273 19.735 208.884 19.3621C209.5 18.9855 210.227 18.7972 211.066 18.7972C211.763 18.7972 212.38 18.9259 212.917 19.1831C213.458 19.4367 213.888 19.7965 214.209 20.2626C214.53 20.725 214.712 21.2656 214.757 21.8846H212.822C212.744 21.4707 212.557 21.1258 212.263 20.8499C211.972 20.5702 211.582 20.4304 211.094 20.4304C210.68 20.4304 210.316 20.5423 210.003 20.766C209.69 20.986 209.446 21.3029 209.27 21.7168C209.099 22.1307 209.013 22.6266 209.013 23.2045C209.013 23.79 209.099 24.2933 209.27 24.7147C209.442 25.1323 209.682 25.4548 209.992 25.6823C210.305 25.906 210.672 26.0178 211.094 26.0178C211.392 26.0178 211.659 25.9619 211.893 25.8501C212.132 25.7345 212.332 25.5685 212.492 25.3523C212.652 25.136 212.762 24.8731 212.822 24.5637H214.757C214.709 25.1714 214.53 25.7102 214.22 26.18C213.911 26.6461 213.489 27.0115 212.956 27.2763C212.423 27.5373 211.796 27.6678 211.077 27.6678ZM220.167 27.6678C219.309 27.6678 218.573 27.4795 217.958 27.1029C217.346 26.7263 216.874 26.2061 216.543 25.5424C216.214 24.875 216.05 24.1069 216.05 23.2381C216.05 22.3656 216.218 21.5956 216.554 20.9282C216.889 20.257 217.363 19.735 217.974 19.3621C218.59 18.9855 219.317 18.7972 220.156 18.7972C220.853 18.7972 221.47 18.9259 222.007 19.1831C222.548 19.4367 222.978 19.7965 223.299 20.2626C223.62 20.725 223.802 21.2656 223.847 21.8846H221.912C221.834 21.4707 221.647 21.1258 221.353 20.8499C221.062 20.5702 220.672 20.4304 220.184 20.4304C219.77 20.4304 219.406 20.5423 219.093 20.766C218.78 20.986 218.536 21.3029 218.36 21.7168C218.189 22.1307 218.103 22.6266 218.103 23.2045C218.103 23.79 218.189 24.2933 218.36 24.7147C218.532 25.1323 218.772 25.4548 219.082 25.6823C219.395 25.906 219.762 26.0178 220.184 26.0178C220.482 26.0178 220.749 25.9619 220.983 25.8501C221.222 25.7345 221.422 25.5685 221.582 25.3523C221.742 25.136 221.852 24.8731 221.912 24.5637H223.847C223.799 25.1714 223.62 25.7102 223.31 26.18C223.001 26.6461 222.579 27.0115 222.046 27.2763C221.513 27.5373 220.887 27.6678 220.167 27.6678ZM229.313 27.6678C228.452 27.6678 227.708 27.4888 227.081 27.1309C226.459 26.7692 225.979 26.2583 225.644 25.5984C225.308 24.9347 225.141 24.1535 225.141 23.2549C225.141 22.3712 225.308 21.5956 225.644 20.9282C225.983 20.257 226.457 19.735 227.065 19.3621C227.672 18.9855 228.386 18.7972 229.207 18.7972C229.736 18.7972 230.236 18.883 230.706 19.0545C231.179 19.2223 231.597 19.4833 231.958 19.8375C232.324 20.1918 232.611 20.6429 232.82 21.1911C233.029 21.7354 233.133 22.3842 233.133 23.1374V23.7583H226.091V22.3936H231.192C231.188 22.0058 231.105 21.6609 230.941 21.3588C230.776 21.0531 230.547 20.8126 230.253 20.6373C229.962 20.4621 229.622 20.3745 229.235 20.3745C228.821 20.3745 228.457 20.4751 228.144 20.6765C227.831 20.8741 227.587 21.1351 227.411 21.4595C227.24 21.7802 227.152 22.1325 227.148 22.5166V23.7079C227.148 24.2076 227.24 24.6364 227.422 24.9943C227.605 25.3485 227.861 25.6207 228.189 25.8109C228.517 25.9973 228.901 26.0906 229.341 26.0906C229.635 26.0906 229.902 26.0495 230.141 25.9675C230.379 25.8817 230.586 25.7568 230.762 25.5928C230.937 25.4287 231.069 25.2255 231.159 24.9831L233.049 25.1957C232.93 25.6953 232.702 26.1316 232.367 26.5044C232.035 26.8736 231.61 27.1607 231.092 27.3658C230.573 27.5671 229.98 27.6678 229.313 27.6678ZM241.636 21.1799L239.79 21.3812C239.738 21.1948 239.647 21.0195 239.516 20.8555C239.389 20.6914 239.218 20.559 239.001 20.4584C238.785 20.3577 238.52 20.3074 238.207 20.3074C237.786 20.3074 237.432 20.3987 237.145 20.5814C236.861 20.7641 236.721 21.0009 236.725 21.2917C236.721 21.5415 236.813 21.7448 236.999 21.9014C237.189 22.058 237.503 22.1866 237.939 22.2873L239.404 22.6005C240.217 22.7757 240.821 23.0535 241.216 23.4339C241.615 23.8142 241.817 24.312 241.82 24.9272C241.817 25.4679 241.658 25.9451 241.345 26.359C241.035 26.7692 240.605 27.0898 240.053 27.321C239.501 27.5522 238.867 27.6678 238.151 27.6678C237.1 27.6678 236.253 27.4478 235.612 27.0078C234.971 26.5641 234.589 25.947 234.466 25.1565L236.44 24.9664C236.529 25.3541 236.72 25.6468 237.01 25.8445C237.301 26.0421 237.68 26.1409 238.146 26.1409C238.627 26.1409 239.013 26.0421 239.304 25.8445C239.598 25.6468 239.745 25.4026 239.745 25.1118C239.745 24.8657 239.65 24.6625 239.46 24.5021C239.274 24.3418 238.983 24.2187 238.588 24.133L237.122 23.8254C236.298 23.6539 235.689 23.3649 235.293 22.9585C234.898 22.5483 234.702 22.03 234.706 21.4036C234.702 20.8741 234.846 20.4155 235.137 20.0277C235.431 19.6362 235.84 19.3342 236.362 19.1216C236.887 18.9054 237.493 18.7972 238.179 18.7972C239.186 18.7972 239.978 19.0116 240.556 19.4404C241.138 19.8692 241.498 20.449 241.636 21.1799ZM250.28 21.1799L248.434 21.3812C248.382 21.1948 248.291 21.0195 248.16 20.8555C248.033 20.6914 247.862 20.559 247.646 20.4584C247.429 20.3577 247.165 20.3074 246.851 20.3074C246.43 20.3074 246.076 20.3987 245.789 20.5814C245.505 20.7641 245.365 21.0009 245.369 21.2917C245.365 21.5415 245.457 21.7448 245.643 21.9014C245.833 22.058 246.147 22.1866 246.583 22.2873L248.048 22.6005C248.861 22.7757 249.465 23.0535 249.86 23.4339C250.259 23.8142 250.461 24.312 250.464 24.9272C250.461 25.4679 250.302 25.9451 249.989 26.359C249.68 26.7692 249.249 27.0898 248.697 27.321C248.145 27.5522 247.511 27.6678 246.795 27.6678C245.744 27.6678 244.897 27.4478 244.256 27.0078C243.615 26.5641 243.233 25.947 243.11 25.1565L245.084 24.9664C245.173 25.3541 245.364 25.6468 245.654 25.8445C245.945 26.0421 246.324 26.1409 246.79 26.1409C247.271 26.1409 247.657 26.0421 247.948 25.8445C248.242 25.6468 248.389 25.4026 248.389 25.1118C248.389 24.8657 248.294 24.6625 248.104 24.5021C247.918 24.3418 247.627 24.2187 247.232 24.133L245.766 23.8254C244.942 23.6539 244.333 23.3649 243.937 22.9585C243.542 22.5483 243.346 22.03 243.35 21.4036C243.346 20.8741 243.49 20.4155 243.781 20.0277C244.075 19.6362 244.484 19.3342 245.006 19.1216C245.531 18.9054 246.137 18.7972 246.823 18.7972C247.83 18.7972 248.622 19.0116 249.2 19.4404C249.782 19.8692 250.142 20.449 250.28 21.1799ZM256.13 27.5V16.0455H260.426C261.306 16.0455 262.044 16.1983 262.64 16.5041C263.241 16.8098 263.694 17.2386 264 17.7905C264.309 18.3386 264.464 18.9781 264.464 19.7089C264.464 20.4434 264.307 21.0811 263.994 21.6217C263.684 22.1586 263.228 22.5744 262.624 22.869C262.02 23.1598 261.278 23.3052 260.398 23.3052H257.338V21.5826H260.118C260.633 21.5826 261.054 21.5117 261.382 21.37C261.71 21.2246 261.953 21.0139 262.109 20.738C262.269 20.4584 262.35 20.1153 262.35 19.7089C262.35 19.3025 262.269 18.9557 262.109 18.6686C261.949 18.3778 261.705 18.1578 261.376 18.0086C261.048 17.8557 260.625 17.7793 260.107 17.7793H258.205V27.5H256.13ZM262.048 22.3097L264.883 27.5H262.568L259.782 22.3097H262.048ZM269.965 27.6678C269.103 27.6678 268.359 27.4888 267.733 27.1309C267.11 26.7692 266.631 26.2583 266.296 25.5984C265.96 24.9347 265.792 24.1535 265.792 23.2549C265.792 22.3712 265.96 21.5956 266.296 20.9282C266.635 20.257 267.108 19.735 267.716 19.3621C268.324 18.9855 269.038 18.7972 269.858 18.7972C270.388 18.7972 270.887 18.883 271.357 19.0545C271.831 19.2223 272.248 19.4833 272.61 19.8375C272.975 20.1918 273.263 20.6429 273.471 21.1911C273.68 21.7354 273.785 22.3842 273.785 23.1374V23.7583H266.743V22.3936H271.844C271.84 22.0058 271.756 21.6609 271.592 21.3588C271.428 21.0531 271.199 20.8126 270.904 20.6373C270.613 20.4621 270.274 20.3745 269.886 20.3745C269.472 20.3745 269.109 20.4751 268.796 20.6765C268.482 20.8741 268.238 21.1351 268.063 21.4595C267.891 21.7802 267.804 22.1325 267.8 22.5166V23.7079C267.8 24.2076 267.891 24.6364 268.074 24.9943C268.257 25.3485 268.512 25.6207 268.84 25.8109C269.168 25.9973 269.553 26.0906 269.993 26.0906C270.287 26.0906 270.554 26.0495 270.792 25.9675C271.031 25.8817 271.238 25.7568 271.413 25.5928C271.588 25.4287 271.721 25.2255 271.81 24.9831L273.701 25.1957C273.581 25.6953 273.354 26.1316 273.018 26.5044C272.686 26.8736 272.261 27.1607 271.743 27.3658C271.225 27.5671 270.632 27.6678 269.965 27.6678ZM281.23 30.7216V26.1465H281.146C281.042 26.3553 280.891 26.5771 280.693 26.8121C280.496 27.0432 280.235 27.2409 279.91 27.4049C279.586 27.569 279.178 27.651 278.685 27.651C278.011 27.651 277.407 27.4776 276.873 27.1309C276.34 26.7841 275.919 26.2807 275.609 25.6207C275.3 24.9608 275.145 24.1591 275.145 23.2157C275.145 22.2612 275.302 21.4558 275.615 20.7995C275.932 20.1396 276.359 19.6418 276.896 19.3062C277.433 18.9669 278.031 18.7972 278.691 18.7972C279.194 18.7972 279.608 18.883 279.933 19.0545C280.257 19.2223 280.514 19.4255 280.705 19.6642C280.895 19.8991 281.042 20.1209 281.146 20.3297H281.269V18.9091H283.261V30.7216H281.23ZM279.25 25.9899C279.679 25.9899 280.045 25.8743 280.347 25.6431C280.649 25.4082 280.878 25.0819 281.035 24.6643C281.191 24.2467 281.269 23.7601 281.269 23.2045C281.269 22.649 281.191 22.1661 281.035 21.7559C280.882 21.3458 280.654 21.027 280.352 20.7995C280.054 20.5721 279.687 20.4584 279.25 20.4584C278.799 20.4584 278.423 20.5758 278.121 20.8107C277.819 21.0456 277.591 21.37 277.438 21.7839C277.285 22.1978 277.209 22.6713 277.209 23.2045C277.209 23.7415 277.285 24.2206 277.438 24.642C277.595 25.0596 277.824 25.3896 278.126 25.6319C278.432 25.8706 278.807 25.9899 279.25 25.9899ZM290.817 23.8869V18.9091H292.841V27.5H290.878V25.9731H290.789C290.595 26.4541 290.276 26.8475 289.832 27.1532C289.392 27.459 288.85 27.6119 288.205 27.6119C287.642 27.6119 287.144 27.4869 286.712 27.2371C286.283 26.9836 285.947 26.6163 285.705 26.1353C285.462 25.6506 285.341 25.0652 285.341 24.3791V18.9091H287.366V24.0659C287.366 24.6103 287.515 25.0428 287.813 25.3635C288.112 25.6841 288.503 25.8445 288.988 25.8445C289.286 25.8445 289.575 25.7718 289.855 25.6263C290.134 25.4809 290.364 25.2646 290.543 24.9775C290.725 24.6867 290.817 24.3232 290.817 23.8869ZM298.727 27.6678C297.865 27.6678 297.122 27.4888 296.495 27.1309C295.872 26.7692 295.393 26.2583 295.058 25.5984C294.722 24.9347 294.554 24.1535 294.554 23.2549C294.554 22.3712 294.722 21.5956 295.058 20.9282C295.397 20.257 295.871 19.735 296.478 19.3621C297.086 18.9855 297.8 18.7972 298.62 18.7972C299.15 18.7972 299.65 18.883 300.119 19.0545C300.593 19.2223 301.011 19.4833 301.372 19.8375C301.738 20.1918 302.025 20.6429 302.234 21.1911C302.442 21.7354 302.547 22.3842 302.547 23.1374V23.7583H295.505V22.3936H300.606C300.602 22.0058 300.518 21.6609 300.354 21.3588C300.19 21.0531 299.961 20.8126 299.666 20.6373C299.376 20.4621 299.036 20.3745 298.648 20.3745C298.235 20.3745 297.871 20.4751 297.558 20.6765C297.245 20.8741 297 21.1351 296.825 21.4595C296.654 21.7802 296.566 22.1325 296.562 22.5166V23.7079C296.562 24.2076 296.654 24.6364 296.836 24.9943C297.019 25.3485 297.274 25.6207 297.603 25.8109C297.931 25.9973 298.315 26.0906 298.755 26.0906C299.049 26.0906 299.316 26.0495 299.555 25.9675C299.793 25.8817 300 25.7568 300.175 25.5928C300.351 25.4287 300.483 25.2255 300.572 24.9831L302.463 25.1957C302.344 25.6953 302.116 26.1316 301.781 26.5044C301.449 26.8736 301.024 27.1607 300.505 27.3658C299.987 27.5671 299.394 27.6678 298.727 27.6678ZM311.05 21.1799L309.204 21.3812C309.152 21.1948 309.06 21.0195 308.93 20.8555C308.803 20.6914 308.632 20.559 308.415 20.4584C308.199 20.3577 307.934 20.3074 307.621 20.3074C307.2 20.3074 306.846 20.3987 306.558 20.5814C306.275 20.7641 306.135 21.0009 306.139 21.2917C306.135 21.5415 306.227 21.7448 306.413 21.9014C306.603 22.058 306.916 22.1866 307.353 22.2873L308.818 22.6005C309.631 22.7757 310.235 23.0535 310.63 23.4339C311.029 23.8142 311.23 24.312 311.234 24.9272C311.23 25.4679 311.072 25.9451 310.759 26.359C310.449 26.7692 310.019 27.0898 309.467 27.321C308.915 27.5522 308.281 27.6678 307.565 27.6678C306.514 27.6678 305.667 27.4478 305.026 27.0078C304.385 26.5641 304.002 25.947 303.879 25.1565L305.854 24.9664C305.943 25.3541 306.133 25.6468 306.424 25.8445C306.715 26.0421 307.093 26.1409 307.56 26.1409C308.041 26.1409 308.426 26.0421 308.717 25.8445C309.012 25.6468 309.159 25.4026 309.159 25.1118C309.159 24.8657 309.064 24.6625 308.874 24.5021C308.687 24.3418 308.397 24.2187 308.001 24.133L306.536 23.8254C305.712 23.6539 305.102 23.3649 304.707 22.9585C304.312 22.5483 304.116 22.03 304.12 21.4036C304.116 20.8741 304.26 20.4155 304.551 20.0277C304.845 19.6362 305.253 19.3342 305.775 19.1216C306.301 18.9054 306.907 18.7972 307.593 18.7972C308.6 18.7972 309.392 19.0116 309.97 19.4404C310.552 19.8692 310.912 20.449 311.05 21.1799ZM317.194 18.9091V20.4751H312.255V18.9091H317.194ZM313.474 16.8509H315.499V24.916C315.499 25.1882 315.54 25.397 315.622 25.5424C315.708 25.6841 315.82 25.7811 315.958 25.8333C316.095 25.8855 316.248 25.9116 316.416 25.9116C316.543 25.9116 316.659 25.9023 316.763 25.8836C316.871 25.865 316.953 25.8482 317.009 25.8333L317.35 27.4161C317.242 27.4534 317.087 27.4944 316.886 27.5392C316.688 27.5839 316.446 27.61 316.159 27.6175C315.652 27.6324 315.195 27.5559 314.789 27.3881C314.382 27.2166 314.06 26.9519 313.821 26.5939C313.586 26.236 313.47 25.7885 313.474 25.2516V16.8509Z" fill="#43302B"/>
</g>
<rect x="1" y="1" width="511" height="379" stroke="#F2E8E4" stroke-width="2"/>
<defs>
<filter id="filter0_d_12017_1451" x="-129.55" y="3.42012" width="658.099" height="483.099" filterUnits="userSpaceOnUse" color-interpolation-filters="sRGB">
<feFlood flood-opacity="0" result="BackgroundImageFix"/>
<feColorMatrix in="SourceAlpha" type="matrix" values="0 0 0 0 0 0 0 0 0 0 0 0 0 0 0 0 0 0 127 0" result="hardAlpha"/>
<feMorphology radius="2.70992" operator="dilate" in="SourceAlpha" result="effect1_dropShadow_12017_1451"/>
<feOffset/>
<feGaussianBlur stdDeviation="5.41984"/>
<feComposite in2="hardAlpha" operator="out"/>
<feColorMatrix type="matrix" values="0 0 0 0 0 0 0 0 0 0 0 0 0 0 0 0 0 0 0.1 0"/>
<feBlend mode="normal" in2="BackgroundImageFix" result="effect1_dropShadow_12017_1451"/>
<feBlend mode="normal" in="SourceGraphic" in2="effect1_dropShadow_12017_1451" result="shape"/>
</filter>
<linearGradient id="paint0_linear_12017_1451" x1="201.834" y1="261.999" x2="212.186" y2="269.042" gradientUnits="userSpaceOnUse">
<stop stop-color="#90908C"/>
<stop offset="1" stop-color="#BABAB6"/>
</linearGradient>
<clipPath id="clip0_12017_1451">
<rect x="1" y="1" width="511" height="379" fill="white"/>
</clipPath>
<clipPath id="clip1_12017_1451">
<rect x="-116" y="16.9697" width="631" height="456" rx="10.8397" fill="white"/>
</clipPath>
<clipPath id="clip2_12017_1451">
<rect width="14.1478" height="14.1478" fill="white" transform="translate(200.154 255.337)"/>
</clipPath>
</defs>
</svg>
