<svg width="513" height="299" viewBox="0 0 513 299" fill="none" xmlns="http://www.w3.org/2000/svg">
<g clip-path="url(#clip0_12017_1061)">
<g filter="url(#filter0_d_12017_1061)">
<g clip-path="url(#clip1_12017_1061)">
<rect x="-116" y="0.972656" width="631" height="456" rx="10.8397" fill="#FDFCFC"/>
<path d="M-116 0.972656H526.252V29.1558H-116V0.972656Z" fill="#FDFCFC"/>
<rect x="43.3457" y="47.041" width="207.58" height="143.626" rx="4.33587" fill="#F8F1EE"/>
<rect x="60.1445" y="173.865" width="74.7938" height="15.7176" rx="7.85879" transform="rotate(-90 60.1445 173.865)" fill="#FDFCFC"/>
<rect x="87.2441" y="173.865" width="74.7938" height="15.1756" rx="7.58779" transform="rotate(-90 87.2441 173.865)" fill="#FDFCFC"/>
<rect x="113.801" y="173.865" width="53.1144" height="16.2596" rx="8.12978" transform="rotate(-90 113.801 173.865)" fill="#FDFCFC"/>
<rect x="141.441" y="173.865" width="37.9389" height="16.2596" rx="8.12978" transform="rotate(-90 141.441 173.865)" fill="#FDFCFC"/>
<rect x="169.084" y="173.865" width="33.061" height="15.7176" rx="7.85878" transform="rotate(-90 169.084 173.865)" fill="#FDFCFC"/>
<rect x="196.182" y="173.865" width="37.9389" height="15.7176" rx="7.85878" transform="rotate(-90 196.182 173.865)" fill="#FDFCFC"/>
<rect x="223.281" y="173.865" width="20.0534" height="15.7176" rx="7.85878" transform="rotate(-90 223.281 173.865)" fill="#FDFCFC"/>
<rect x="43.3457" y="220.824" width="32.5191" height="32.519" rx="16.2595" fill="#F8F1EE"/>
<rect x="82.3691" y="220.824" width="107.313" height="15.7175" rx="7.85877" fill="#F8F1EE"/>
<rect x="82.3691" y="241.962" width="123.031" height="11.3817" rx="5.69083" fill="#FDF8F6"/>
<rect x="275.311" y="220.824" width="55.8245" height="15.7175" rx="7.85877" fill="#F8F1EE"/>
<rect x="275.311" y="241.962" width="55.8245" height="11.3817" rx="5.69083" fill="#FDF8F6"/>
<rect x="275.311" y="275.879" width="55.8245" height="15.7175" rx="7.85877" fill="#F8F1EE"/>
<rect x="275.311" y="297.017" width="55.8245" height="11.3817" rx="5.69083" fill="#FDF8F6"/>
<rect x="351.459" y="220.824" width="55.2825" height="15.7175" rx="7.85877" fill="#F8F1EE"/>
<rect x="351.459" y="241.962" width="55.2825" height="11.3817" rx="5.69083" fill="#FDF8F6"/>
<rect x="351.459" y="275.879" width="55.2825" height="15.7175" rx="7.85877" fill="#F8F1EE"/>
<rect x="351.459" y="297.017" width="55.2825" height="11.3817" rx="5.69083" fill="#FDF8F6"/>
<rect x="43.3457" y="275.879" width="32.5191" height="32.519" rx="16.2595" fill="#F8F1EE"/>
<rect x="82.3691" y="275.879" width="107.313" height="15.7175" rx="7.85877" fill="#F8F1EE"/>
<rect x="82.3691" y="297.017" width="123.031" height="11.3817" rx="5.69083" fill="#FDF8F6"/>
<rect x="275.311" y="47.041" width="207.58" height="143.626" rx="4.33587" fill="#F8F1EE"/>
<rect x="303.49" y="76.8506" width="151.214" height="12.4656" rx="6.23281" fill="#F2E8E4"/>
<rect x="303.49" y="95.8203" width="151.214" height="11.9236" rx="5.96182" fill="#F2E8E4"/>
<rect x="336.822" y="114.247" width="84.5497" height="12.4656" rx="6.23281" fill="#F2E8E4"/>
<rect x="306.752" y="144.116" width="144.689" height="25.2855" rx="4.33587" fill="#FDFCFC"/>
</g>
<rect x="-115.458" y="1.51464" width="629.916" height="454.916" rx="10.2977" stroke="#D1B9B0" stroke-width="1.08397"/>
</g>
<rect x="90.5" y="49.627" width="332" height="199.746" rx="6.99886" fill="#FDFCFC"/>
<rect x="90.5" y="49.627" width="332" height="199.746" rx="6.99886" stroke="#D3B3FA" stroke-width="4"/>
<path d="M198.583 101.627V90.649H202.7C203.543 90.649 204.25 90.7955 204.822 91.0885C205.398 91.3816 205.832 91.7925 206.125 92.3214C206.421 92.8467 206.57 93.4596 206.57 94.16C206.57 94.864 206.42 95.4751 206.119 95.9932C205.823 96.5078 205.385 96.9063 204.806 97.1886C204.227 97.4673 203.516 97.6067 202.673 97.6067H199.741V95.9557H202.405C202.898 95.9557 203.302 95.8878 203.616 95.752C203.931 95.6127 204.163 95.4107 204.313 95.1463C204.467 94.8783 204.543 94.5495 204.543 94.16C204.543 93.7705 204.467 93.4381 204.313 93.163C204.159 92.8842 203.925 92.6734 203.611 92.5305C203.296 92.3839 202.891 92.3107 202.394 92.3107H200.571V101.627H198.583ZM204.254 96.6526L206.972 101.627H204.753L202.083 96.6526H204.254ZM211.842 101.788C211.016 101.788 210.303 101.616 209.703 101.273C209.106 100.927 208.647 100.437 208.325 99.8044C208.004 99.1683 207.843 98.4197 207.843 97.5585C207.843 96.7115 208.004 95.9682 208.325 95.3286C208.65 94.6853 209.104 94.185 209.687 93.8277C210.269 93.4667 210.954 93.2863 211.74 93.2863C212.247 93.2863 212.726 93.3685 213.176 93.5328C213.63 93.6937 214.03 93.9438 214.377 94.2833C214.727 94.6228 215.002 95.0552 215.203 95.5805C215.403 96.1022 215.503 96.724 215.503 97.4459V98.0409H208.754V96.733H213.643C213.639 96.3613 213.559 96.0308 213.401 95.7413C213.244 95.4483 213.024 95.2178 212.742 95.0498C212.463 94.8819 212.138 94.7979 211.767 94.7979C211.37 94.7979 211.021 94.8944 210.721 95.0873C210.421 95.2767 210.187 95.5269 210.019 95.8378C209.855 96.1451 209.771 96.4828 209.767 96.8509V97.9926C209.767 98.4715 209.855 98.8825 210.03 99.2255C210.205 99.565 210.45 99.8259 210.764 100.008C211.079 100.187 211.447 100.276 211.868 100.276C212.151 100.276 212.406 100.237 212.635 100.158C212.864 100.076 213.062 99.9563 213.23 99.7991C213.398 99.6418 213.525 99.4471 213.61 99.2148L215.422 99.4185C215.308 99.8974 215.09 100.315 214.768 100.673C214.45 101.027 214.043 101.302 213.546 101.498C213.049 101.691 212.481 101.788 211.842 101.788ZM222.639 104.715V100.33H222.558C222.458 100.53 222.313 100.742 222.124 100.968C221.935 101.189 221.685 101.379 221.374 101.536C221.063 101.693 220.671 101.772 220.2 101.772C219.553 101.772 218.974 101.606 218.463 101.273C217.952 100.941 217.548 100.458 217.252 99.8259C216.955 99.1934 216.807 98.425 216.807 97.5209C216.807 96.6061 216.957 95.8342 217.257 95.2053C217.561 94.5727 217.97 94.0957 218.484 93.7741C218.999 93.4489 219.573 93.2863 220.205 93.2863C220.687 93.2863 221.084 93.3685 221.395 93.5328C221.706 93.6937 221.953 93.8884 222.135 94.1171C222.317 94.3423 222.458 94.5549 222.558 94.755H222.676V93.3935H224.584V104.715H222.639ZM220.741 100.18C221.152 100.18 221.502 100.069 221.792 99.8473C222.081 99.6222 222.301 99.3095 222.451 98.9093C222.601 98.509 222.676 98.0427 222.676 97.5102C222.676 96.9778 222.601 96.515 222.451 96.1219C222.305 95.7288 222.087 95.4233 221.797 95.2053C221.511 94.9873 221.159 94.8783 220.741 94.8783C220.309 94.8783 219.948 94.9909 219.658 95.216C219.369 95.4411 219.151 95.752 219.004 96.1487C218.858 96.5454 218.785 96.9992 218.785 97.5102C218.785 98.0248 218.858 98.484 219.004 98.8878C219.154 99.2881 219.374 99.6043 219.664 99.8366C219.957 100.065 220.316 100.18 220.741 100.18ZM231.826 98.1642V93.3935H233.767V101.627H231.885V100.164H231.799C231.614 100.625 231.308 101.002 230.883 101.295C230.461 101.588 229.941 101.734 229.323 101.734C228.783 101.734 228.306 101.614 227.892 101.375C227.481 101.132 227.159 100.78 226.927 100.319C226.695 99.8545 226.578 99.2934 226.578 98.6359V93.3935H228.519V98.3357C228.519 98.8574 228.662 99.272 228.948 99.5793C229.234 99.8866 229.609 100.04 230.073 100.04C230.359 100.04 230.636 99.9706 230.904 99.8312C231.172 99.6919 231.392 99.4846 231.564 99.2094C231.739 98.9307 231.826 98.5823 231.826 98.1642ZM239.407 101.788C238.582 101.788 237.869 101.616 237.268 101.273C236.672 100.927 236.212 100.437 235.891 99.8044C235.569 99.1683 235.408 98.4197 235.408 97.5585C235.408 96.7115 235.569 95.9682 235.891 95.3286C236.216 94.6853 236.67 94.185 237.252 93.8277C237.835 93.4667 238.519 93.2863 239.305 93.2863C239.813 93.2863 240.292 93.3685 240.742 93.5328C241.196 93.6937 241.596 93.9438 241.943 94.2833C242.293 94.6228 242.568 95.0552 242.768 95.5805C242.968 96.1022 243.068 96.724 243.068 97.4459V98.0409H236.32V96.733H241.208C241.205 96.3613 241.124 96.0308 240.967 95.7413C240.81 95.4483 240.59 95.2178 240.308 95.0498C240.029 94.8819 239.704 94.7979 239.332 94.7979C238.935 94.7979 238.587 94.8944 238.287 95.0873C237.987 95.2767 237.753 95.5269 237.585 95.8378C237.42 96.1451 237.336 96.4828 237.333 96.8509V97.9926C237.333 98.4715 237.42 98.8825 237.595 99.2255C237.77 99.565 238.015 99.8259 238.33 100.008C238.644 100.187 239.012 100.276 239.434 100.276C239.716 100.276 239.972 100.237 240.2 100.158C240.429 100.076 240.627 99.9563 240.795 99.7991C240.963 99.6418 241.09 99.4471 241.176 99.2148L242.988 99.4185C242.873 99.8974 242.655 100.315 242.334 100.673C242.016 101.027 241.608 101.302 241.112 101.498C240.615 101.691 240.047 101.788 239.407 101.788ZM251.217 95.5698L249.448 95.7627C249.398 95.5841 249.311 95.4161 249.186 95.2589C249.064 95.1016 248.9 94.9748 248.693 94.8783C248.485 94.7818 248.232 94.7336 247.931 94.7336C247.528 94.7336 247.188 94.8211 246.913 94.9962C246.641 95.1713 246.507 95.3982 246.511 95.677C246.507 95.9164 246.595 96.1112 246.774 96.2613C246.956 96.4113 247.256 96.5346 247.674 96.6311L249.079 96.9313C249.858 97.0993 250.436 97.3655 250.815 97.73C251.198 98.0945 251.391 98.5716 251.394 99.1612C251.391 99.6794 251.239 100.137 250.939 100.533C250.642 100.927 250.229 101.234 249.7 101.455C249.171 101.677 248.564 101.788 247.878 101.788C246.87 101.788 246.059 101.577 245.444 101.155C244.83 100.73 244.463 100.139 244.345 99.381L246.238 99.1987C246.323 99.5704 246.506 99.8509 246.784 100.04C247.063 100.23 247.426 100.324 247.872 100.324C248.333 100.324 248.703 100.23 248.982 100.04C249.264 99.8509 249.405 99.6168 249.405 99.3381C249.405 99.1022 249.314 98.9075 249.132 98.7538C248.953 98.6001 248.675 98.4822 248.296 98.4L246.891 98.1052C246.102 97.9408 245.517 97.6639 245.139 97.2744C244.76 96.8813 244.572 96.3845 244.576 95.7842C244.572 95.2767 244.71 94.8372 244.989 94.4655C245.271 94.0903 245.662 93.8009 246.162 93.5972C246.666 93.3899 247.247 93.2863 247.905 93.2863C248.869 93.2863 249.629 93.4917 250.183 93.9027C250.74 94.3137 251.085 94.8694 251.217 95.5698ZM257.106 93.3935V94.8944H252.372V93.3935H257.106ZM253.541 91.4209H255.481V99.1505C255.481 99.4113 255.521 99.6115 255.599 99.7508C255.682 99.8866 255.789 99.9795 255.921 100.03C256.053 100.08 256.2 100.105 256.361 100.105C256.482 100.105 256.593 100.096 256.693 100.078C256.797 100.06 256.875 100.044 256.929 100.03L257.256 101.547C257.152 101.582 257.004 101.622 256.811 101.664C256.621 101.707 256.389 101.732 256.114 101.74C255.628 101.754 255.19 101.681 254.801 101.52C254.411 101.355 254.102 101.102 253.873 100.759C253.648 100.416 253.537 99.9867 253.541 99.4721V91.4209ZM263.968 101.627H261.845L265.71 90.649H268.165L272.036 101.627H269.913L266.981 92.9003H266.895L263.968 101.627ZM264.038 97.3226H269.827V98.92H264.038V97.3226ZM276.737 101.788C275.915 101.788 275.209 101.607 274.619 101.246C274.033 100.885 273.581 100.387 273.263 99.7508C272.949 99.1112 272.791 98.375 272.791 97.5424C272.791 96.7062 272.952 95.9682 273.274 95.3286C273.595 94.6853 274.049 94.185 274.635 93.8277C275.225 93.4667 275.922 93.2863 276.726 93.2863C277.394 93.2863 277.985 93.4096 278.5 93.6561C279.018 93.8991 279.431 94.244 279.738 94.6907C280.046 95.1338 280.221 95.652 280.264 96.2452H278.409C278.334 95.8485 278.155 95.518 277.873 95.2535C277.594 94.9855 277.221 94.8515 276.753 94.8515C276.356 94.8515 276.008 94.9587 275.707 95.1731C275.407 95.3839 275.173 95.6877 275.005 96.0844C274.841 96.481 274.759 96.9563 274.759 97.5102C274.759 98.0713 274.841 98.5537 275.005 98.9575C275.17 99.3577 275.4 99.6669 275.697 99.8848C275.997 100.099 276.349 100.206 276.753 100.206C277.038 100.206 277.294 100.153 277.519 100.046C277.748 99.9349 277.939 99.7758 278.093 99.5686C278.246 99.3613 278.352 99.1094 278.409 98.8128H280.264C280.217 99.3953 280.046 99.9116 279.749 100.362C279.452 100.809 279.049 101.159 278.538 101.413C278.027 101.663 277.426 101.788 276.737 101.788ZM285.448 101.788C284.626 101.788 283.921 101.607 283.331 101.246C282.745 100.885 282.293 100.387 281.975 99.7508C281.66 99.1112 281.503 98.375 281.503 97.5424C281.503 96.7062 281.664 95.9682 281.986 95.3286C282.307 94.6853 282.761 94.185 283.347 93.8277C283.937 93.4667 284.634 93.2863 285.438 93.2863C286.106 93.2863 286.697 93.4096 287.212 93.6561C287.73 93.8991 288.143 94.244 288.45 94.6907C288.758 95.1338 288.933 95.652 288.976 96.2452H287.121C287.046 95.8485 286.867 95.518 286.585 95.2535C286.306 94.9855 285.933 94.8515 285.464 94.8515C285.068 94.8515 284.719 94.9587 284.419 95.1731C284.119 95.3839 283.885 95.6877 283.717 96.0844C283.553 96.481 283.47 96.9563 283.47 97.5102C283.47 98.0713 283.553 98.5537 283.717 98.9575C283.881 99.3577 284.112 99.6669 284.408 99.8848C284.709 100.099 285.061 100.206 285.464 100.206C285.75 100.206 286.006 100.153 286.231 100.046C286.46 99.9349 286.651 99.7758 286.805 99.5686C286.958 99.3613 287.064 99.1094 287.121 98.8128H288.976C288.929 99.3953 288.758 99.9116 288.461 100.362C288.164 100.809 287.76 101.159 287.249 101.413C286.738 101.663 286.138 101.788 285.448 101.788ZM294.214 101.788C293.388 101.788 292.675 101.616 292.075 101.273C291.478 100.927 291.019 100.437 290.698 99.8044C290.376 99.1683 290.215 98.4197 290.215 97.5585C290.215 96.7115 290.376 95.9682 290.698 95.3286C291.023 94.6853 291.477 94.185 292.059 93.8277C292.642 93.4667 293.326 93.2863 294.112 93.2863C294.619 93.2863 295.098 93.3685 295.549 93.5328C296.002 93.6937 296.403 93.9438 296.749 94.2833C297.1 94.6228 297.375 95.0552 297.575 95.5805C297.775 96.1022 297.875 96.724 297.875 97.4459V98.0409H291.126V96.733H296.015C296.011 96.3613 295.931 96.0308 295.774 95.7413C295.617 95.4483 295.397 95.2178 295.114 95.0498C294.836 94.8819 294.511 94.7979 294.139 94.7979C293.742 94.7979 293.394 94.8944 293.094 95.0873C292.793 95.2767 292.559 95.5269 292.391 95.8378C292.227 96.1451 292.143 96.4828 292.139 96.8509V97.9926C292.139 98.4715 292.227 98.8825 292.402 99.2255C292.577 99.565 292.822 99.8259 293.136 100.008C293.451 100.187 293.819 100.276 294.241 100.276C294.523 100.276 294.779 100.237 295.007 100.158C295.236 100.076 295.434 99.9563 295.602 99.7991C295.77 99.6418 295.897 99.4471 295.983 99.2148L297.795 99.4185C297.68 99.8974 297.462 100.315 297.141 100.673C296.823 101.027 296.415 101.302 295.918 101.498C295.422 101.691 294.854 101.788 294.214 101.788ZM306.024 95.5698L304.255 95.7627C304.205 95.5841 304.118 95.4161 303.992 95.2589C303.871 95.1016 303.707 94.9748 303.499 94.8783C303.292 94.7818 303.038 94.7336 302.738 94.7336C302.334 94.7336 301.995 94.8211 301.72 94.9962C301.448 95.1713 301.314 95.3982 301.318 95.677C301.314 95.9164 301.402 96.1112 301.58 96.2613C301.763 96.4113 302.063 96.5346 302.481 96.6311L303.885 96.9313C304.664 97.0993 305.243 97.3655 305.622 97.73C306.004 98.0945 306.197 98.5716 306.201 99.1612C306.197 99.6794 306.046 100.137 305.745 100.533C305.449 100.927 305.036 101.234 304.507 101.455C303.978 101.677 303.371 101.788 302.685 101.788C301.677 101.788 300.866 101.577 300.251 101.155C299.636 100.73 299.27 100.139 299.152 99.381L301.044 99.1987C301.13 99.5704 301.312 99.8509 301.591 100.04C301.87 100.23 302.233 100.324 302.679 100.324C303.14 100.324 303.51 100.23 303.789 100.04C304.071 99.8509 304.212 99.6168 304.212 99.3381C304.212 99.1022 304.121 98.9075 303.939 98.7538C303.76 98.6001 303.481 98.4822 303.103 98.4L301.698 98.1052C300.909 97.9408 300.324 97.6639 299.945 97.2744C299.567 96.8813 299.379 96.3845 299.383 95.7842C299.379 95.2767 299.517 94.8372 299.795 94.4655C300.078 94.0903 300.469 93.8009 300.969 93.5972C301.473 93.3899 302.054 93.2863 302.711 93.2863C303.676 93.2863 304.436 93.4917 304.99 93.9027C305.547 94.3137 305.892 94.8694 306.024 95.5698ZM314.308 95.5698L312.54 95.7627C312.49 95.5841 312.402 95.4161 312.277 95.2589C312.155 95.1016 311.991 94.9748 311.784 94.8783C311.576 94.7818 311.323 94.7336 311.023 94.7336C310.619 94.7336 310.279 94.8211 310.004 94.9962C309.733 95.1713 309.599 95.3982 309.602 95.677C309.599 95.9164 309.686 96.1112 309.865 96.2613C310.047 96.4113 310.347 96.5346 310.765 96.6311L312.17 96.9313C312.949 97.0993 313.528 97.3655 313.906 97.73C314.289 98.0945 314.482 98.5716 314.485 99.1612C314.482 99.6794 314.33 100.137 314.03 100.533C313.733 100.927 313.32 101.234 312.791 101.455C312.263 101.677 311.655 101.788 310.969 101.788C309.961 101.788 309.15 101.577 308.535 101.155C307.921 100.73 307.554 100.139 307.437 99.381L309.329 99.1987C309.414 99.5704 309.597 99.8509 309.875 100.04C310.154 100.23 310.517 100.324 310.964 100.324C311.425 100.324 311.794 100.23 312.073 100.04C312.356 99.8509 312.497 99.6168 312.497 99.3381C312.497 99.1022 312.406 98.9075 312.223 98.7538C312.045 98.6001 311.766 98.4822 311.387 98.4L309.983 98.1052C309.193 97.9408 308.609 97.6639 308.23 97.2744C307.851 96.8813 307.663 96.3845 307.667 95.7842C307.663 95.2767 307.801 94.8372 308.08 94.4655C308.362 94.0903 308.753 93.8009 309.254 93.5972C309.758 93.3899 310.338 93.2863 310.996 93.2863C311.961 93.2863 312.72 93.4917 313.274 93.9027C313.831 94.3137 314.176 94.8694 314.308 95.5698Z" fill="black"/>
<path d="M170.286 123.627H167.906V115.915H170.391C171.139 115.915 171.779 116.07 172.311 116.379C172.844 116.685 173.251 117.125 173.535 117.7C173.819 118.273 173.961 118.958 173.961 119.756C173.961 120.559 173.817 121.251 173.531 121.831C173.245 122.408 172.828 122.853 172.281 123.164C171.734 123.473 171.069 123.627 170.286 123.627ZM168.84 122.799H170.225C170.863 122.799 171.391 122.676 171.811 122.43C172.23 122.184 172.542 121.833 172.748 121.379C172.954 120.925 173.057 120.384 173.057 119.756C173.057 119.134 172.955 118.598 172.752 118.148C172.549 117.696 172.245 117.35 171.841 117.109C171.436 116.866 170.933 116.744 170.331 116.744H168.84V122.799ZM177.756 123.747C177.234 123.747 176.776 123.623 176.382 123.375C175.99 123.126 175.684 122.778 175.463 122.332C175.245 121.885 175.135 121.363 175.135 120.765C175.135 120.163 175.245 119.637 175.463 119.188C175.684 118.738 175.99 118.389 176.382 118.141C176.776 117.892 177.234 117.768 177.756 117.768C178.278 117.768 178.735 117.892 179.127 118.141C179.521 118.389 179.827 118.738 180.045 119.188C180.266 119.637 180.377 120.163 180.377 120.765C180.377 121.363 180.266 121.885 180.045 122.332C179.827 122.778 179.521 123.126 179.127 123.375C178.735 123.623 178.278 123.747 177.756 123.747ZM177.756 122.949C178.153 122.949 178.479 122.848 178.735 122.644C178.991 122.441 179.181 122.174 179.304 121.842C179.427 121.511 179.488 121.152 179.488 120.765C179.488 120.379 179.427 120.018 179.304 119.685C179.181 119.351 178.991 119.081 178.735 118.875C178.479 118.669 178.153 118.566 177.756 118.566C177.359 118.566 177.033 118.669 176.777 118.875C176.521 119.081 176.332 119.351 176.209 119.685C176.086 120.018 176.024 120.379 176.024 120.765C176.024 121.152 176.086 121.511 176.209 121.842C176.332 122.174 176.521 122.441 176.777 122.644C177.033 122.848 177.359 122.949 177.756 122.949ZM184.083 123.747C183.541 123.747 183.074 123.619 182.682 123.363C182.291 123.107 181.989 122.755 181.779 122.305C181.568 121.856 181.462 121.343 181.462 120.765C181.462 120.178 181.57 119.659 181.786 119.21C182.004 118.758 182.308 118.406 182.697 118.152C183.089 117.896 183.546 117.768 184.068 117.768C184.475 117.768 184.841 117.843 185.167 117.994C185.494 118.145 185.761 118.355 185.969 118.626C186.178 118.898 186.307 119.214 186.357 119.575H185.469C185.401 119.312 185.25 119.078 185.017 118.875C184.786 118.669 184.475 118.566 184.083 118.566C183.737 118.566 183.433 118.657 183.172 118.837C182.913 119.016 182.711 119.268 182.566 119.594C182.422 119.918 182.351 120.298 182.351 120.735C182.351 121.182 182.421 121.571 182.562 121.902C182.705 122.234 182.906 122.491 183.164 122.674C183.425 122.858 183.732 122.949 184.083 122.949C184.314 122.949 184.524 122.909 184.712 122.829C184.9 122.748 185.059 122.633 185.19 122.482C185.321 122.332 185.413 122.151 185.469 121.94H186.357C186.307 122.281 186.183 122.589 185.984 122.863C185.789 123.134 185.529 123.35 185.205 123.51C184.884 123.668 184.51 123.747 184.083 123.747ZM191.301 121.262V117.843H192.19V123.627H191.301V122.648H191.241C191.105 122.942 190.895 123.191 190.608 123.397C190.322 123.601 189.961 123.702 189.524 123.702C189.163 123.702 188.841 123.623 188.56 123.465C188.279 123.304 188.058 123.063 187.897 122.742C187.737 122.418 187.656 122.01 187.656 121.518V117.843H188.545V121.458C188.545 121.88 188.663 122.216 188.899 122.467C189.137 122.718 189.441 122.844 189.81 122.844C190.031 122.844 190.256 122.787 190.484 122.674C190.715 122.561 190.908 122.388 191.064 122.155C191.222 121.921 191.301 121.624 191.301 121.262ZM193.818 123.627V117.843H194.676V118.747H194.751C194.872 118.438 195.066 118.198 195.335 118.028C195.604 117.855 195.926 117.768 196.303 117.768C196.684 117.768 197.002 117.855 197.255 118.028C197.511 118.198 197.711 118.438 197.854 118.747H197.914C198.062 118.448 198.285 118.211 198.581 118.035C198.877 117.857 199.232 117.768 199.646 117.768C200.163 117.768 200.586 117.93 200.915 118.254C201.244 118.575 201.409 119.076 201.409 119.756V123.627H200.52V119.756C200.52 119.329 200.403 119.024 200.17 118.841C199.936 118.658 199.661 118.566 199.345 118.566C198.938 118.566 198.623 118.689 198.4 118.935C198.177 119.179 198.065 119.488 198.065 119.862V123.627H197.161V119.666C197.161 119.337 197.055 119.072 196.841 118.871C196.628 118.668 196.353 118.566 196.017 118.566C195.786 118.566 195.57 118.628 195.369 118.751C195.171 118.874 195.01 119.044 194.887 119.263C194.766 119.479 194.706 119.728 194.706 120.012V123.627H193.818ZM205.458 123.747C204.901 123.747 204.42 123.624 204.016 123.378C203.614 123.13 203.304 122.783 203.086 122.339C202.87 121.892 202.762 121.373 202.762 120.78C202.762 120.188 202.87 119.666 203.086 119.214C203.304 118.76 203.608 118.406 203.997 118.152C204.389 117.896 204.846 117.768 205.368 117.768C205.669 117.768 205.967 117.818 206.26 117.919C206.554 118.019 206.821 118.182 207.062 118.408C207.303 118.632 207.495 118.928 207.638 119.297C207.782 119.666 207.853 120.12 207.853 120.66V121.036H203.395V120.268H206.949C206.949 119.942 206.884 119.651 206.754 119.395C206.626 119.139 206.442 118.937 206.204 118.788C205.968 118.64 205.689 118.566 205.368 118.566C205.014 118.566 204.708 118.654 204.449 118.83C204.193 119.003 203.996 119.229 203.858 119.508C203.72 119.786 203.651 120.085 203.651 120.404V120.916C203.651 121.353 203.726 121.723 203.877 122.027C204.03 122.328 204.242 122.558 204.513 122.716C204.784 122.871 205.099 122.949 205.458 122.949C205.692 122.949 205.903 122.917 206.091 122.851C206.282 122.783 206.446 122.683 206.584 122.55C206.722 122.414 206.829 122.246 206.904 122.045L207.763 122.286C207.672 122.578 207.52 122.834 207.307 123.055C207.094 123.273 206.83 123.444 206.516 123.567C206.203 123.687 205.85 123.747 205.458 123.747ZM210.094 120.148V123.627H209.205V117.843H210.063V118.747H210.139C210.274 118.453 210.48 118.217 210.756 118.039C211.032 117.858 211.389 117.768 211.826 117.768C212.217 117.768 212.56 117.848 212.854 118.009C213.147 118.167 213.376 118.408 213.539 118.732C213.702 119.053 213.784 119.46 213.784 119.952V123.627H212.895V120.012C212.895 119.558 212.777 119.204 212.541 118.95C212.305 118.694 211.981 118.566 211.57 118.566C211.286 118.566 211.032 118.628 210.809 118.751C210.588 118.874 210.414 119.053 210.286 119.289C210.158 119.525 210.094 119.811 210.094 120.148ZM217.923 117.843V118.596H214.925V117.843H217.923ZM215.799 116.458H216.688V121.97C216.688 122.221 216.724 122.409 216.797 122.535C216.872 122.658 216.968 122.741 217.083 122.784C217.201 122.824 217.325 122.844 217.456 122.844C217.554 122.844 217.634 122.839 217.697 122.829C217.76 122.816 217.81 122.806 217.847 122.799L218.028 123.597C217.968 123.619 217.884 123.642 217.776 123.665C217.668 123.69 217.531 123.702 217.365 123.702C217.114 123.702 216.868 123.648 216.627 123.54C216.389 123.432 216.191 123.268 216.033 123.047C215.877 122.826 215.799 122.548 215.799 122.211V116.458ZM222.242 123.627V117.843H223.1V118.717H223.16C223.266 118.431 223.457 118.198 223.733 118.02C224.009 117.842 224.32 117.753 224.667 117.753C224.732 117.753 224.813 117.754 224.911 117.757C225.009 117.759 225.083 117.763 225.134 117.768V118.672C225.103 118.664 225.034 118.653 224.926 118.638C224.821 118.62 224.709 118.611 224.591 118.611C224.31 118.611 224.059 118.67 223.838 118.788C223.62 118.904 223.447 119.065 223.319 119.27C223.193 119.474 223.13 119.706 223.13 119.967V123.627H222.242ZM228.436 123.747C227.879 123.747 227.398 123.624 226.994 123.378C226.592 123.13 226.282 122.783 226.064 122.339C225.848 121.892 225.74 121.373 225.74 120.78C225.74 120.188 225.848 119.666 226.064 119.214C226.282 118.76 226.586 118.406 226.975 118.152C227.366 117.896 227.823 117.768 228.345 117.768C228.647 117.768 228.944 117.818 229.238 117.919C229.532 118.019 229.799 118.182 230.04 118.408C230.281 118.632 230.473 118.928 230.616 119.297C230.759 119.666 230.831 120.12 230.831 120.66V121.036H226.372V120.268H229.927C229.927 119.942 229.862 119.651 229.731 119.395C229.603 119.139 229.42 118.937 229.181 118.788C228.945 118.64 228.667 118.566 228.345 118.566C227.991 118.566 227.685 118.654 227.427 118.83C227.171 119.003 226.974 119.229 226.835 119.508C226.697 119.786 226.628 120.085 226.628 120.404V120.916C226.628 121.353 226.704 121.723 226.854 122.027C227.007 122.328 227.22 122.558 227.491 122.716C227.762 122.871 228.077 122.949 228.436 122.949C228.669 122.949 228.88 122.917 229.068 122.851C229.259 122.783 229.424 122.683 229.562 122.55C229.7 122.414 229.806 122.246 229.882 122.045L230.74 122.286C230.65 122.578 230.498 122.834 230.285 123.055C230.071 123.273 229.808 123.444 229.494 123.567C229.18 123.687 228.827 123.747 228.436 123.747ZM236.129 125.796V122.738H236.053C235.988 122.844 235.895 122.977 235.775 123.137C235.654 123.296 235.482 123.437 235.259 123.563C235.035 123.686 234.738 123.747 234.366 123.747C233.884 123.747 233.459 123.626 233.09 123.382C232.721 123.136 232.432 122.79 232.224 122.343C232.015 121.894 231.911 121.363 231.911 120.75C231.911 120.143 232.015 119.616 232.224 119.169C232.432 118.722 232.722 118.377 233.094 118.133C233.465 117.89 233.894 117.768 234.381 117.768C234.758 117.768 235.055 117.831 235.274 117.956C235.495 118.079 235.663 118.22 235.778 118.378C235.896 118.534 235.988 118.662 236.053 118.762H236.159V117.843H237.017V125.796H236.129ZM234.487 122.949C234.843 122.949 235.145 122.856 235.391 122.671C235.637 122.482 235.824 122.222 235.952 121.891C236.08 121.557 236.144 121.172 236.144 120.735C236.144 120.303 236.081 119.926 235.955 119.602C235.83 119.275 235.644 119.022 235.398 118.841C235.152 118.658 234.848 118.566 234.487 118.566C234.11 118.566 233.796 118.663 233.545 118.856C233.297 119.047 233.11 119.307 232.984 119.636C232.861 119.962 232.8 120.328 232.8 120.735C232.8 121.147 232.863 121.521 232.988 121.857C233.116 122.191 233.304 122.457 233.553 122.655C233.804 122.851 234.115 122.949 234.487 122.949ZM242.289 121.262V117.843H243.177V123.627H242.289V122.648H242.229C242.093 122.942 241.882 123.191 241.596 123.397C241.31 123.601 240.948 123.702 240.511 123.702C240.15 123.702 239.829 123.623 239.548 123.465C239.266 123.304 239.045 123.063 238.885 122.742C238.724 122.418 238.644 122.01 238.644 121.518V117.843H239.532V121.458C239.532 121.88 239.65 122.216 239.886 122.467C240.125 122.718 240.429 122.844 240.798 122.844C241.019 122.844 241.243 122.787 241.472 122.674C241.703 122.561 241.896 122.388 242.052 122.155C242.21 121.921 242.289 121.624 242.289 121.262ZM244.805 123.627V117.843H245.694V123.627H244.805ZM245.257 116.879C245.084 116.879 244.934 116.82 244.809 116.702C244.686 116.584 244.624 116.443 244.624 116.277C244.624 116.111 244.686 115.969 244.809 115.851C244.934 115.733 245.084 115.674 245.257 115.674C245.43 115.674 245.578 115.733 245.701 115.851C245.827 115.969 245.889 116.111 245.889 116.277C245.889 116.443 245.827 116.584 245.701 116.702C245.578 116.82 245.43 116.879 245.257 116.879ZM247.321 123.627V117.843H248.18V118.717H248.24C248.345 118.431 248.536 118.198 248.812 118.02C249.088 117.842 249.4 117.753 249.746 117.753C249.811 117.753 249.893 117.754 249.991 117.757C250.089 117.759 250.163 117.763 250.213 117.768V118.672C250.183 118.664 250.114 118.653 250.006 118.638C249.901 118.62 249.789 118.611 249.671 118.611C249.39 118.611 249.139 118.67 248.918 118.788C248.699 118.904 248.526 119.065 248.398 119.27C248.273 119.474 248.21 119.706 248.21 119.967V123.627H247.321ZM253.515 123.747C252.958 123.747 252.477 123.624 252.073 123.378C251.672 123.13 251.362 122.783 251.143 122.339C250.927 121.892 250.819 121.373 250.819 120.78C250.819 120.188 250.927 119.666 251.143 119.214C251.362 118.76 251.665 118.406 252.054 118.152C252.446 117.896 252.903 117.768 253.425 117.768C253.726 117.768 254.024 117.818 254.317 117.919C254.611 118.019 254.878 118.182 255.119 118.408C255.36 118.632 255.552 118.928 255.696 119.297C255.839 119.666 255.91 120.12 255.91 120.66V121.036H251.452V120.268H255.006C255.006 119.942 254.941 119.651 254.811 119.395C254.683 119.139 254.499 118.937 254.261 118.788C254.025 118.64 253.746 118.566 253.425 118.566C253.071 118.566 252.765 118.654 252.506 118.83C252.25 119.003 252.053 119.229 251.915 119.508C251.777 119.786 251.708 120.085 251.708 120.404V120.916C251.708 121.353 251.783 121.723 251.934 122.027C252.087 122.328 252.299 122.558 252.57 122.716C252.841 122.871 253.156 122.949 253.515 122.949C253.749 122.949 253.96 122.917 254.148 122.851C254.339 122.783 254.503 122.683 254.641 122.55C254.779 122.414 254.886 122.246 254.961 122.045L255.82 122.286C255.729 122.578 255.578 122.834 255.364 123.055C255.151 123.273 254.887 123.444 254.573 123.567C254.26 123.687 253.907 123.747 253.515 123.747ZM261.359 119.139L260.56 119.365C260.51 119.231 260.436 119.102 260.338 118.977C260.243 118.849 260.112 118.743 259.947 118.66C259.781 118.578 259.569 118.536 259.31 118.536C258.956 118.536 258.661 118.618 258.425 118.781C258.192 118.942 258.075 119.146 258.075 119.395C258.075 119.616 258.156 119.79 258.316 119.918C258.477 120.046 258.728 120.153 259.069 120.238L259.928 120.449C260.445 120.574 260.83 120.766 261.084 121.025C261.337 121.281 261.464 121.611 261.464 122.015C261.464 122.347 261.369 122.643 261.178 122.904C260.99 123.165 260.726 123.371 260.387 123.522C260.048 123.672 259.654 123.747 259.205 123.747C258.615 123.747 258.127 123.619 257.74 123.363C257.354 123.107 257.109 122.733 257.006 122.241L257.849 122.03C257.93 122.342 258.082 122.575 258.305 122.731C258.531 122.886 258.826 122.964 259.19 122.964C259.604 122.964 259.933 122.876 260.176 122.701C260.422 122.522 260.545 122.309 260.545 122.061C260.545 121.86 260.475 121.692 260.335 121.556C260.194 121.418 259.978 121.315 259.687 121.247L258.723 121.021C258.193 120.896 257.804 120.701 257.556 120.438C257.31 120.172 257.187 119.839 257.187 119.44C257.187 119.113 257.278 118.825 257.461 118.574C257.647 118.323 257.9 118.126 258.218 117.983C258.54 117.84 258.904 117.768 259.31 117.768C259.883 117.768 260.332 117.893 260.658 118.145C260.987 118.396 261.221 118.727 261.359 119.139ZM267.486 123.763C267.119 123.763 266.787 123.693 266.488 123.555C266.189 123.415 265.952 123.213 265.776 122.949C265.601 122.683 265.513 122.362 265.513 121.985C265.513 121.654 265.578 121.385 265.709 121.179C265.839 120.971 266.014 120.808 266.232 120.69C266.45 120.572 266.691 120.484 266.955 120.426C267.221 120.366 267.488 120.318 267.757 120.283C268.109 120.238 268.393 120.204 268.612 120.182C268.833 120.156 268.993 120.115 269.094 120.057C269.197 120 269.248 119.899 269.248 119.756V119.726C269.248 119.354 269.147 119.066 268.943 118.86C268.742 118.654 268.437 118.551 268.028 118.551C267.604 118.551 267.271 118.644 267.03 118.83C266.789 119.016 266.62 119.214 266.522 119.425L265.679 119.124C265.829 118.772 266.03 118.498 266.281 118.303C266.535 118.104 266.811 117.966 267.109 117.888C267.411 117.808 267.707 117.768 267.998 117.768C268.184 117.768 268.397 117.791 268.638 117.836C268.882 117.878 269.116 117.968 269.342 118.103C269.571 118.239 269.76 118.443 269.911 118.717C270.062 118.99 270.137 119.357 270.137 119.816V123.627H269.248V122.844H269.203C269.143 122.969 269.042 123.104 268.902 123.247C268.761 123.39 268.574 123.511 268.341 123.612C268.107 123.712 267.822 123.763 267.486 123.763ZM267.622 122.964C267.973 122.964 268.269 122.895 268.51 122.757C268.754 122.619 268.937 122.441 269.06 122.222C269.185 122.004 269.248 121.774 269.248 121.533V120.72C269.211 120.765 269.128 120.807 269 120.844C268.874 120.879 268.729 120.911 268.563 120.938C268.4 120.964 268.24 120.986 268.085 121.006C267.932 121.024 267.807 121.039 267.712 121.051C267.481 121.082 267.265 121.13 267.064 121.198C266.866 121.264 266.705 121.363 266.582 121.496C266.462 121.626 266.402 121.804 266.402 122.03C266.402 122.339 266.516 122.573 266.744 122.731C266.975 122.886 267.268 122.964 267.622 122.964ZM274.108 123.747C273.566 123.747 273.099 123.619 272.708 123.363C272.316 123.107 272.015 122.755 271.804 122.305C271.593 121.856 271.488 121.343 271.488 120.765C271.488 120.178 271.596 119.659 271.811 119.21C272.03 118.758 272.334 118.406 272.723 118.152C273.114 117.896 273.571 117.768 274.093 117.768C274.5 117.768 274.867 117.843 275.193 117.994C275.519 118.145 275.787 118.355 275.995 118.626C276.203 118.898 276.333 119.214 276.383 119.575H275.494C275.426 119.312 275.276 119.078 275.042 118.875C274.811 118.669 274.5 118.566 274.108 118.566C273.762 118.566 273.458 118.657 273.197 118.837C272.939 119.016 272.737 119.268 272.591 119.594C272.448 119.918 272.376 120.298 272.376 120.735C272.376 121.182 272.447 121.571 272.587 121.902C272.73 122.234 272.931 122.491 273.19 122.674C273.451 122.858 273.757 122.949 274.108 122.949C274.339 122.949 274.549 122.909 274.737 122.829C274.925 122.748 275.085 122.633 275.215 122.482C275.346 122.332 275.439 122.151 275.494 121.94H276.383C276.333 122.281 276.208 122.589 276.01 122.863C275.814 123.134 275.554 123.35 275.23 123.51C274.909 123.668 274.535 123.747 274.108 123.747ZM280.031 123.747C279.489 123.747 279.022 123.619 278.631 123.363C278.239 123.107 277.938 122.755 277.727 122.305C277.516 121.856 277.411 121.343 277.411 120.765C277.411 120.178 277.519 119.659 277.734 119.21C277.953 118.758 278.257 118.406 278.646 118.152C279.037 117.896 279.494 117.768 280.016 117.768C280.423 117.768 280.79 117.843 281.116 117.994C281.442 118.145 281.71 118.355 281.918 118.626C282.126 118.898 282.256 119.214 282.306 119.575H281.417C281.349 119.312 281.199 119.078 280.965 118.875C280.734 118.669 280.423 118.566 280.031 118.566C279.685 118.566 279.381 118.657 279.12 118.837C278.862 119.016 278.66 119.268 278.514 119.594C278.371 119.918 278.299 120.298 278.299 120.735C278.299 121.182 278.37 121.571 278.51 121.902C278.653 122.234 278.854 122.491 279.113 122.674C279.374 122.858 279.68 122.949 280.031 122.949C280.262 122.949 280.472 122.909 280.66 122.829C280.848 122.748 281.008 122.633 281.138 122.482C281.269 122.332 281.362 122.151 281.417 121.94H282.306C282.256 122.281 282.131 122.589 281.933 122.863C281.737 123.134 281.477 123.35 281.153 123.51C280.832 123.668 280.458 123.747 280.031 123.747ZM286.03 123.747C285.472 123.747 284.992 123.624 284.588 123.378C284.186 123.13 283.876 122.783 283.657 122.339C283.442 121.892 283.334 121.373 283.334 120.78C283.334 120.188 283.442 119.666 283.657 119.214C283.876 118.76 284.18 118.406 284.569 118.152C284.96 117.896 285.417 117.768 285.939 117.768C286.241 117.768 286.538 117.818 286.832 117.919C287.125 118.019 287.393 118.182 287.634 118.408C287.875 118.632 288.067 118.928 288.21 119.297C288.353 119.666 288.425 120.12 288.425 120.66V121.036H283.966V120.268H287.521C287.521 119.942 287.456 119.651 287.325 119.395C287.197 119.139 287.014 118.937 286.775 118.788C286.539 118.64 286.261 118.566 285.939 118.566C285.585 118.566 285.279 118.654 285.021 118.83C284.765 119.003 284.567 119.229 284.429 119.508C284.291 119.786 284.222 120.085 284.222 120.404V120.916C284.222 121.353 284.298 121.723 284.448 122.027C284.601 122.328 284.813 122.558 285.085 122.716C285.356 122.871 285.671 122.949 286.03 122.949C286.263 122.949 286.474 122.917 286.662 122.851C286.853 122.783 287.017 122.683 287.156 122.55C287.294 122.414 287.4 122.246 287.476 122.045L288.334 122.286C288.244 122.578 288.092 122.834 287.879 123.055C287.665 123.273 287.402 123.444 287.088 123.567C286.774 123.687 286.421 123.747 286.03 123.747ZM293.873 119.139L293.075 119.365C293.025 119.231 292.951 119.102 292.853 118.977C292.757 118.849 292.627 118.743 292.461 118.66C292.295 118.578 292.083 118.536 291.825 118.536C291.471 118.536 291.176 118.618 290.94 118.781C290.706 118.942 290.59 119.146 290.59 119.395C290.59 119.616 290.67 119.79 290.831 119.918C290.991 120.046 291.242 120.153 291.584 120.238L292.442 120.449C292.959 120.574 293.345 120.766 293.598 121.025C293.852 121.281 293.979 121.611 293.979 122.015C293.979 122.347 293.883 122.643 293.692 122.904C293.504 123.165 293.24 123.371 292.902 123.522C292.563 123.672 292.169 123.747 291.719 123.747C291.129 123.747 290.641 123.619 290.255 123.363C289.868 123.107 289.623 122.733 289.52 122.241L290.364 122.03C290.444 122.342 290.596 122.575 290.819 122.731C291.045 122.886 291.34 122.964 291.704 122.964C292.118 122.964 292.447 122.876 292.691 122.701C292.937 122.522 293.06 122.309 293.06 122.061C293.06 121.86 292.989 121.692 292.849 121.556C292.708 121.418 292.492 121.315 292.201 121.247L291.237 121.021C290.708 120.896 290.319 120.701 290.07 120.438C289.824 120.172 289.701 119.839 289.701 119.44C289.701 119.113 289.793 118.825 289.976 118.574C290.162 118.323 290.414 118.126 290.733 117.983C291.054 117.84 291.418 117.768 291.825 117.768C292.397 117.768 292.846 117.893 293.173 118.145C293.502 118.396 293.735 118.727 293.873 119.139ZM299.413 119.139L298.615 119.365C298.564 119.231 298.49 119.102 298.393 118.977C298.297 118.849 298.167 118.743 298.001 118.66C297.835 118.578 297.623 118.536 297.365 118.536C297.011 118.536 296.716 118.618 296.48 118.781C296.246 118.942 296.129 119.146 296.129 119.395C296.129 119.616 296.21 119.79 296.37 119.918C296.531 120.046 296.782 120.153 297.124 120.238L297.982 120.449C298.499 120.574 298.885 120.766 299.138 121.025C299.392 121.281 299.518 121.611 299.518 122.015C299.518 122.347 299.423 122.643 299.232 122.904C299.044 123.165 298.78 123.371 298.441 123.522C298.103 123.672 297.708 123.747 297.259 123.747C296.669 123.747 296.181 123.619 295.794 123.363C295.408 123.107 295.163 122.733 295.06 122.241L295.904 122.03C295.984 122.342 296.136 122.575 296.359 122.731C296.585 122.886 296.88 122.964 297.244 122.964C297.658 122.964 297.987 122.876 298.231 122.701C298.477 122.522 298.6 122.309 298.6 122.061C298.6 121.86 298.529 121.692 298.389 121.556C298.248 121.418 298.032 121.315 297.741 121.247L296.777 121.021C296.247 120.896 295.858 120.701 295.61 120.438C295.364 120.172 295.241 119.839 295.241 119.44C295.241 119.113 295.332 118.825 295.516 118.574C295.701 118.323 295.954 118.126 296.273 117.983C296.594 117.84 296.958 117.768 297.365 117.768C297.937 117.768 298.386 117.893 298.713 118.145C299.041 118.396 299.275 118.727 299.413 119.139ZM305.54 123.763C305.174 123.763 304.841 123.693 304.542 123.555C304.244 123.415 304.006 123.213 303.831 122.949C303.655 122.683 303.567 122.362 303.567 121.985C303.567 121.654 303.632 121.385 303.763 121.179C303.893 120.971 304.068 120.808 304.286 120.69C304.505 120.572 304.746 120.484 305.009 120.426C305.275 120.366 305.543 120.318 305.811 120.283C306.163 120.238 306.448 120.204 306.666 120.182C306.887 120.156 307.048 120.115 307.148 120.057C307.251 120 307.302 119.899 307.302 119.756V119.726C307.302 119.354 307.201 119.066 306.997 118.86C306.797 118.654 306.492 118.551 306.082 118.551C305.658 118.551 305.326 118.644 305.085 118.83C304.844 119.016 304.674 119.214 304.576 119.425L303.733 119.124C303.883 118.772 304.084 118.498 304.335 118.303C304.589 118.104 304.865 117.966 305.164 117.888C305.465 117.808 305.761 117.768 306.052 117.768C306.238 117.768 306.451 117.791 306.692 117.836C306.936 117.878 307.171 117.968 307.397 118.103C307.625 118.239 307.815 118.443 307.965 118.717C308.116 118.99 308.191 119.357 308.191 119.816V123.627H307.302V122.844H307.257C307.197 122.969 307.097 123.104 306.956 123.247C306.815 123.39 306.628 123.511 306.395 123.612C306.162 123.712 305.877 123.763 305.54 123.763ZM305.676 122.964C306.027 122.964 306.323 122.895 306.564 122.757C306.808 122.619 306.991 122.441 307.114 122.222C307.24 122.004 307.302 121.774 307.302 121.533V120.72C307.265 120.765 307.182 120.807 307.054 120.844C306.928 120.879 306.783 120.911 306.617 120.938C306.454 120.964 306.295 120.986 306.139 121.006C305.986 121.024 305.862 121.039 305.766 121.051C305.535 121.082 305.319 121.13 305.118 121.198C304.92 121.264 304.76 121.363 304.637 121.496C304.516 121.626 304.456 121.804 304.456 122.03C304.456 122.339 304.57 122.573 304.798 122.731C305.029 122.886 305.322 122.964 305.676 122.964ZM309.813 125.796V117.843H310.672V118.762H310.777C310.842 118.662 310.933 118.534 311.048 118.378C311.166 118.22 311.334 118.079 311.553 117.956C311.774 117.831 312.072 117.768 312.449 117.768C312.936 117.768 313.365 117.89 313.737 118.133C314.108 118.377 314.398 118.722 314.606 119.169C314.815 119.616 314.919 120.143 314.919 120.75C314.919 121.363 314.815 121.894 314.606 122.343C314.398 122.79 314.109 123.136 313.74 123.382C313.371 123.626 312.946 123.747 312.464 123.747C312.092 123.747 311.795 123.686 311.571 123.563C311.348 123.437 311.176 123.296 311.056 123.137C310.935 122.977 310.842 122.844 310.777 122.738H310.702V125.796H309.813ZM310.687 120.735C310.687 121.172 310.751 121.557 310.879 121.891C311.007 122.222 311.194 122.482 311.44 122.671C311.686 122.856 311.987 122.949 312.343 122.949C312.715 122.949 313.025 122.851 313.273 122.655C313.524 122.457 313.713 122.191 313.838 121.857C313.966 121.521 314.03 121.147 314.03 120.735C314.03 120.328 313.968 119.962 313.842 119.636C313.719 119.307 313.532 119.047 313.281 118.856C313.032 118.663 312.72 118.566 312.343 118.566C311.982 118.566 311.678 118.658 311.432 118.841C311.186 119.022 311 119.275 310.875 119.602C310.749 119.926 310.687 120.303 310.687 120.735ZM316.274 125.796V117.843H317.133V118.762H317.238C317.304 118.662 317.394 118.534 317.51 118.378C317.628 118.22 317.796 118.079 318.014 117.956C318.235 117.831 318.534 117.768 318.91 117.768C319.397 117.768 319.827 117.89 320.198 118.133C320.57 118.377 320.859 118.722 321.068 119.169C321.276 119.616 321.38 120.143 321.38 120.75C321.38 121.363 321.276 121.894 321.068 122.343C320.859 122.79 320.571 123.136 320.202 123.382C319.833 123.626 319.407 123.747 318.925 123.747C318.554 123.747 318.256 123.686 318.033 123.563C317.81 123.437 317.638 123.296 317.517 123.137C317.397 122.977 317.304 122.844 317.238 122.738H317.163V125.796H316.274ZM317.148 120.735C317.148 121.172 317.212 121.557 317.34 121.891C317.468 122.222 317.655 122.482 317.901 122.671C318.147 122.856 318.448 122.949 318.805 122.949C319.176 122.949 319.486 122.851 319.735 122.655C319.986 122.457 320.174 122.191 320.3 121.857C320.428 121.521 320.492 121.147 320.492 120.735C320.492 120.328 320.429 119.962 320.303 119.636C320.18 119.307 319.993 119.047 319.742 118.856C319.494 118.663 319.181 118.566 318.805 118.566C318.443 118.566 318.14 118.658 317.894 118.841C317.648 119.022 317.462 119.275 317.336 119.602C317.211 119.926 317.148 120.303 317.148 120.735ZM322.736 123.627V117.843H323.594V118.717H323.655C323.76 118.431 323.951 118.198 324.227 118.02C324.503 117.842 324.814 117.753 325.161 117.753C325.226 117.753 325.308 117.754 325.406 117.757C325.504 117.759 325.578 117.763 325.628 117.768V118.672C325.598 118.664 325.529 118.653 325.421 118.638C325.315 118.62 325.204 118.611 325.086 118.611C324.804 118.611 324.553 118.67 324.332 118.788C324.114 118.904 323.941 119.065 323.813 119.27C323.687 119.474 323.625 119.706 323.625 119.967V123.627H322.736ZM328.855 123.747C328.333 123.747 327.874 123.623 327.48 123.375C327.089 123.126 326.782 122.778 326.562 122.332C326.343 121.885 326.234 121.363 326.234 120.765C326.234 120.163 326.343 119.637 326.562 119.188C326.782 118.738 327.089 118.389 327.48 118.141C327.874 117.892 328.333 117.768 328.855 117.768C329.377 117.768 329.834 117.892 330.225 118.141C330.619 118.389 330.926 118.738 331.144 119.188C331.365 119.637 331.475 120.163 331.475 120.765C331.475 121.363 331.365 121.885 331.144 122.332C330.926 122.778 330.619 123.126 330.225 123.375C329.834 123.623 329.377 123.747 328.855 123.747ZM328.855 122.949C329.251 122.949 329.578 122.848 329.834 122.644C330.09 122.441 330.279 122.174 330.402 121.842C330.525 121.511 330.587 121.152 330.587 120.765C330.587 120.379 330.525 120.018 330.402 119.685C330.279 119.351 330.09 119.081 329.834 118.875C329.578 118.669 329.251 118.566 328.855 118.566C328.458 118.566 328.132 118.669 327.876 118.875C327.62 119.081 327.43 119.351 327.307 119.685C327.184 120.018 327.123 120.379 327.123 120.765C327.123 121.152 327.184 121.511 327.307 121.842C327.43 122.174 327.62 122.441 327.876 122.644C328.132 122.848 328.458 122.949 328.855 122.949ZM337.354 117.843L335.215 123.627H334.312L332.173 117.843H333.137L334.733 122.452H334.794L336.39 117.843H337.354ZM340.053 123.763C339.687 123.763 339.354 123.693 339.055 123.555C338.757 123.415 338.519 123.213 338.344 122.949C338.168 122.683 338.08 122.362 338.08 121.985C338.08 121.654 338.145 121.385 338.276 121.179C338.406 120.971 338.581 120.808 338.799 120.69C339.018 120.572 339.259 120.484 339.522 120.426C339.788 120.366 340.056 120.318 340.324 120.283C340.676 120.238 340.961 120.204 341.179 120.182C341.4 120.156 341.56 120.115 341.661 120.057C341.764 120 341.815 119.899 341.815 119.756V119.726C341.815 119.354 341.714 119.066 341.51 118.86C341.309 118.654 341.004 118.551 340.595 118.551C340.171 118.551 339.838 118.644 339.597 118.83C339.356 119.016 339.187 119.214 339.089 119.425L338.246 119.124C338.396 118.772 338.597 118.498 338.848 118.303C339.102 118.104 339.378 117.966 339.677 117.888C339.978 117.808 340.274 117.768 340.565 117.768C340.751 117.768 340.964 117.791 341.205 117.836C341.449 117.878 341.683 117.968 341.909 118.103C342.138 118.239 342.327 118.443 342.478 118.717C342.629 118.99 342.704 119.357 342.704 119.816V123.627H341.815V122.844H341.77C341.71 122.969 341.609 123.104 341.469 123.247C341.328 123.39 341.141 123.511 340.908 123.612C340.674 123.712 340.389 123.763 340.053 123.763ZM340.189 122.964C340.54 122.964 340.836 122.895 341.077 122.757C341.321 122.619 341.504 122.441 341.627 122.222C341.753 122.004 341.815 121.774 341.815 121.533V120.72C341.778 120.765 341.695 120.807 341.567 120.844C341.441 120.879 341.296 120.911 341.13 120.938C340.967 120.964 340.807 120.986 340.652 121.006C340.499 121.024 340.374 121.039 340.279 121.051C340.048 121.082 339.832 121.13 339.631 121.198C339.433 121.264 339.272 121.363 339.149 121.496C339.029 121.626 338.969 121.804 338.969 122.03C338.969 122.339 339.083 122.573 339.311 122.731C339.542 122.886 339.835 122.964 340.189 122.964ZM345.215 115.915V123.627H344.326V115.915H345.215Z" fill="black"/>
<rect x="203.426" y="144.627" width="106.148" height="30.2955" rx="3.02955" fill="#974EF2"/>
<path d="M211.818 163.274V155.563H214.71C215.302 155.563 215.799 155.666 216.201 155.872C216.605 156.077 216.91 156.366 217.116 156.738C217.324 157.107 217.429 157.537 217.429 158.029C217.429 158.524 217.323 158.953 217.112 159.317C216.904 159.678 216.596 159.958 216.19 160.157C215.783 160.352 215.284 160.45 214.691 160.45H212.631V159.291H214.503C214.849 159.291 215.133 159.243 215.354 159.148C215.575 159.05 215.738 158.908 215.843 158.722C215.951 158.534 216.005 158.303 216.005 158.029C216.005 157.756 215.951 157.522 215.843 157.329C215.735 157.133 215.571 156.985 215.35 156.885C215.129 156.782 214.844 156.73 214.495 156.73H213.215V163.274H211.818ZM215.802 159.78L217.711 163.274H216.152L214.277 159.78H215.802ZM221.132 163.387C220.552 163.387 220.051 163.267 219.63 163.026C219.21 162.782 218.888 162.438 218.662 161.994C218.436 161.547 218.323 161.021 218.323 160.416C218.323 159.822 218.436 159.299 218.662 158.85C218.89 158.398 219.209 158.047 219.618 157.796C220.027 157.542 220.508 157.415 221.06 157.415C221.417 157.415 221.753 157.473 222.07 157.589C222.388 157.702 222.669 157.877 222.913 158.116C223.159 158.354 223.352 158.658 223.493 159.027C223.633 159.394 223.704 159.83 223.704 160.337V160.755H218.963V159.837H222.397C222.395 159.576 222.338 159.343 222.228 159.14C222.117 158.934 221.963 158.772 221.765 158.654C221.569 158.536 221.34 158.477 221.079 158.477C220.801 158.477 220.556 158.545 220.345 158.681C220.134 158.814 219.97 158.989 219.852 159.208C219.736 159.424 219.677 159.661 219.675 159.919V160.721C219.675 161.058 219.736 161.347 219.859 161.588C219.982 161.826 220.154 162.009 220.375 162.137C220.596 162.263 220.855 162.326 221.151 162.326C221.349 162.326 221.529 162.298 221.689 162.243C221.85 162.185 221.989 162.101 222.107 161.99C222.225 161.88 222.314 161.743 222.375 161.58L223.647 161.723C223.567 162.059 223.414 162.353 223.188 162.604C222.964 162.853 222.678 163.046 222.329 163.184C221.98 163.32 221.581 163.387 221.132 163.387ZM228.716 165.443V162.363H228.66C228.59 162.504 228.488 162.653 228.355 162.811C228.222 162.967 228.046 163.1 227.828 163.21C227.609 163.321 227.335 163.376 227.003 163.376C226.549 163.376 226.142 163.259 225.783 163.026C225.424 162.792 225.141 162.454 224.932 162.009C224.724 161.565 224.62 161.025 224.62 160.39C224.62 159.747 224.725 159.205 224.936 158.763C225.149 158.319 225.437 157.984 225.798 157.758C226.16 157.53 226.563 157.415 227.007 157.415C227.346 157.415 227.624 157.473 227.843 157.589C228.061 157.702 228.234 157.838 228.362 157.999C228.49 158.157 228.59 158.307 228.66 158.447H228.743V157.491H230.083V165.443H228.716ZM227.383 162.258C227.672 162.258 227.918 162.18 228.121 162.024C228.325 161.866 228.479 161.646 228.585 161.365C228.69 161.084 228.743 160.757 228.743 160.383C228.743 160.009 228.69 159.683 228.585 159.407C228.482 159.131 228.329 158.917 228.125 158.763C227.924 158.61 227.677 158.534 227.383 158.534C227.08 158.534 226.826 158.613 226.623 158.771C226.42 158.929 226.266 159.148 226.163 159.426C226.061 159.705 226.009 160.024 226.009 160.383C226.009 160.744 226.061 161.067 226.163 161.35C226.269 161.631 226.423 161.854 226.627 162.017C226.832 162.177 227.085 162.258 227.383 162.258ZM235.17 160.842V157.491H236.533V163.274H235.212V162.246H235.152C235.021 162.57 234.806 162.835 234.508 163.041C234.211 163.247 233.846 163.35 233.412 163.35C233.033 163.35 232.698 163.266 232.407 163.097C232.118 162.927 231.892 162.679 231.729 162.356C231.566 162.029 231.484 161.635 231.484 161.173V157.491H232.847V160.962C232.847 161.329 232.947 161.62 233.148 161.836C233.349 162.052 233.613 162.16 233.939 162.16C234.14 162.16 234.334 162.111 234.523 162.013C234.711 161.915 234.865 161.77 234.986 161.576C235.109 161.38 235.17 161.136 235.17 160.842ZM240.496 163.387C239.916 163.387 239.415 163.267 238.993 163.026C238.574 162.782 238.251 162.438 238.025 161.994C237.8 161.547 237.687 161.021 237.687 160.416C237.687 159.822 237.8 159.299 238.025 158.85C238.254 158.398 238.573 158.047 238.982 157.796C239.391 157.542 239.872 157.415 240.424 157.415C240.78 157.415 241.117 157.473 241.433 157.589C241.752 157.702 242.033 157.877 242.277 158.116C242.523 158.354 242.716 158.658 242.856 159.027C242.997 159.394 243.067 159.83 243.067 160.337V160.755H238.327V159.837H241.761C241.758 159.576 241.702 159.343 241.591 159.14C241.481 158.934 241.326 158.772 241.128 158.654C240.932 158.536 240.704 158.477 240.443 158.477C240.164 158.477 239.919 158.545 239.709 158.681C239.498 158.814 239.333 158.989 239.215 159.208C239.1 159.424 239.041 159.661 239.038 159.919V160.721C239.038 161.058 239.1 161.347 239.223 161.588C239.346 161.826 239.518 162.009 239.739 162.137C239.96 162.263 240.218 162.326 240.514 162.326C240.713 162.326 240.892 162.298 241.053 162.243C241.214 162.185 241.353 162.101 241.471 161.99C241.589 161.88 241.678 161.743 241.738 161.58L243.011 161.723C242.931 162.059 242.777 162.353 242.551 162.604C242.328 162.853 242.042 163.046 241.693 163.184C241.344 163.32 240.945 163.387 240.496 163.387ZM248.792 159.019L247.549 159.155C247.514 159.03 247.452 158.912 247.365 158.801C247.279 158.691 247.164 158.602 247.018 158.534C246.873 158.466 246.694 158.432 246.484 158.432C246.2 158.432 245.961 158.494 245.768 158.617C245.577 158.74 245.483 158.899 245.486 159.095C245.483 159.263 245.545 159.4 245.67 159.505C245.798 159.611 246.009 159.697 246.303 159.765L247.289 159.976C247.837 160.094 248.243 160.281 248.509 160.537C248.778 160.793 248.913 161.128 248.916 161.542C248.913 161.906 248.807 162.228 248.596 162.506C248.388 162.782 248.098 162.998 247.726 163.154C247.355 163.31 246.928 163.387 246.446 163.387C245.738 163.387 245.168 163.239 244.736 162.943C244.305 162.644 244.047 162.229 243.964 161.697L245.294 161.569C245.354 161.83 245.482 162.027 245.678 162.16C245.874 162.293 246.128 162.359 246.442 162.359C246.766 162.359 247.026 162.293 247.222 162.16C247.42 162.027 247.519 161.862 247.519 161.667C247.519 161.501 247.455 161.364 247.327 161.256C247.201 161.148 247.006 161.065 246.74 161.008L245.753 160.801C245.198 160.685 244.788 160.491 244.522 160.217C244.256 159.941 244.124 159.592 244.126 159.17C244.124 158.814 244.221 158.505 244.416 158.244C244.615 157.98 244.889 157.777 245.241 157.634C245.595 157.488 246.003 157.415 246.465 157.415C247.142 157.415 247.676 157.56 248.065 157.848C248.457 158.137 248.699 158.527 248.792 159.019ZM252.928 157.491V158.545H249.603V157.491H252.928ZM250.424 156.105H251.787V161.535C251.787 161.718 251.815 161.859 251.87 161.957C251.928 162.052 252.003 162.117 252.096 162.152C252.189 162.187 252.292 162.205 252.405 162.205C252.49 162.205 252.568 162.199 252.638 162.186C252.711 162.174 252.766 162.162 252.804 162.152L253.033 163.218C252.961 163.243 252.856 163.271 252.721 163.301C252.588 163.331 252.425 163.348 252.231 163.353C251.89 163.364 251.583 163.312 251.309 163.199C251.035 163.084 250.818 162.905 250.657 162.664C250.499 162.423 250.422 162.122 250.424 161.761V156.105ZM257.749 163.274H256.258L258.972 155.563H260.697L263.416 163.274H261.925L259.865 157.144H259.805L257.749 163.274ZM257.798 160.251H261.864V161.373H257.798V160.251ZM264.371 165.443V157.491H265.712V158.447H265.791C265.861 158.307 265.96 158.157 266.088 157.999C266.216 157.838 266.389 157.702 266.608 157.589C266.826 157.473 267.105 157.415 267.444 157.415C267.891 157.415 268.293 157.53 268.652 157.758C269.014 157.984 269.3 158.319 269.511 158.763C269.724 159.205 269.831 159.747 269.831 160.39C269.831 161.025 269.727 161.565 269.518 162.009C269.31 162.454 269.026 162.792 268.667 163.026C268.309 163.259 267.902 163.376 267.447 163.376C267.116 163.376 266.841 163.321 266.623 163.21C266.404 163.1 266.229 162.967 266.096 162.811C265.965 162.653 265.863 162.504 265.791 162.363H265.734V165.443H264.371ZM265.708 160.383C265.708 160.757 265.761 161.084 265.866 161.365C265.974 161.646 266.128 161.866 266.329 162.024C266.532 162.18 266.778 162.258 267.067 162.258C267.368 162.258 267.621 162.177 267.824 162.017C268.027 161.854 268.18 161.631 268.283 161.35C268.389 161.067 268.442 160.744 268.442 160.383C268.442 160.024 268.39 159.705 268.287 159.426C268.184 159.148 268.031 158.929 267.828 158.771C267.624 158.613 267.371 158.534 267.067 158.534C266.776 158.534 266.529 158.61 266.325 158.763C266.122 158.917 265.968 159.131 265.862 159.407C265.759 159.683 265.708 160.009 265.708 160.383ZM270.998 165.443V157.491H272.339V158.447H272.418C272.488 158.307 272.587 158.157 272.715 157.999C272.843 157.838 273.017 157.702 273.235 157.589C273.453 157.473 273.732 157.415 274.071 157.415C274.518 157.415 274.921 157.53 275.28 157.758C275.641 157.984 275.927 158.319 276.138 158.763C276.351 159.205 276.458 159.747 276.458 160.39C276.458 161.025 276.354 161.565 276.146 162.009C275.937 162.454 275.654 162.792 275.295 163.026C274.936 163.259 274.529 163.376 274.075 163.376C273.743 163.376 273.468 163.321 273.25 163.21C273.032 163.1 272.856 162.967 272.723 162.811C272.592 162.653 272.491 162.504 272.418 162.363H272.361V165.443H270.998ZM272.335 160.383C272.335 160.757 272.388 161.084 272.493 161.365C272.601 161.646 272.755 161.866 272.956 162.024C273.16 162.18 273.406 162.258 273.694 162.258C273.996 162.258 274.248 162.177 274.451 162.017C274.654 161.854 274.808 161.631 274.911 161.35C275.016 161.067 275.069 160.744 275.069 160.383C275.069 160.024 275.017 159.705 274.914 159.426C274.811 159.148 274.658 158.929 274.455 158.771C274.252 158.613 273.998 158.534 273.694 158.534C273.403 158.534 273.156 158.61 272.953 158.763C272.749 158.917 272.595 159.131 272.489 159.407C272.386 159.683 272.335 160.009 272.335 160.383ZM277.625 163.274V157.491H278.947V158.455H279.007C279.113 158.121 279.293 157.864 279.55 157.683C279.808 157.5 280.103 157.408 280.434 157.408C280.51 157.408 280.594 157.412 280.687 157.419C280.782 157.424 280.861 157.433 280.924 157.446V158.699C280.866 158.679 280.775 158.662 280.649 158.647C280.526 158.629 280.407 158.62 280.291 158.62C280.043 158.62 279.819 158.674 279.621 158.782C279.425 158.888 279.271 159.035 279.158 159.223C279.045 159.411 278.988 159.628 278.988 159.874V163.274H277.625ZM284.114 163.387C283.549 163.387 283.06 163.263 282.646 163.015C282.231 162.766 281.91 162.418 281.682 161.972C281.456 161.525 281.343 161.003 281.343 160.405C281.343 159.808 281.456 159.284 281.682 158.835C281.91 158.386 282.231 158.037 282.646 157.788C283.06 157.54 283.549 157.415 284.114 157.415C284.679 157.415 285.168 157.54 285.583 157.788C285.997 158.037 286.317 158.386 286.543 158.835C286.771 159.284 286.885 159.808 286.885 160.405C286.885 161.003 286.771 161.525 286.543 161.972C286.317 162.418 285.997 162.766 285.583 163.015C285.168 163.263 284.679 163.387 284.114 163.387ZM284.122 162.295C284.428 162.295 284.684 162.211 284.89 162.043C285.096 161.872 285.249 161.644 285.349 161.358C285.452 161.072 285.504 160.753 285.504 160.401C285.504 160.047 285.452 159.727 285.349 159.441C285.249 159.153 285.096 158.923 284.89 158.752C284.684 158.581 284.428 158.496 284.122 158.496C283.808 158.496 283.547 158.581 283.338 158.752C283.133 158.923 282.978 159.153 282.875 159.441C282.775 159.727 282.725 160.047 282.725 160.401C282.725 160.753 282.775 161.072 282.875 161.358C282.978 161.644 283.133 161.872 283.338 162.043C283.547 162.211 283.808 162.295 284.122 162.295ZM293.012 157.491L290.952 163.274H289.446L287.386 157.491H288.84L290.169 161.787H290.229L291.562 157.491H293.012ZM295.454 163.391C295.087 163.391 294.757 163.326 294.463 163.195C294.172 163.062 293.941 162.866 293.771 162.608C293.602 162.349 293.518 162.031 293.518 161.652C293.518 161.325 293.579 161.055 293.699 160.842C293.82 160.629 293.984 160.458 294.192 160.33C294.401 160.202 294.635 160.105 294.896 160.04C295.16 159.972 295.432 159.923 295.714 159.893C296.052 159.858 296.327 159.827 296.538 159.799C296.749 159.769 296.902 159.724 296.998 159.663C297.095 159.601 297.144 159.504 297.144 159.373V159.351C297.144 159.067 297.06 158.848 296.892 158.692C296.724 158.536 296.482 158.458 296.165 158.458C295.831 158.458 295.567 158.531 295.371 158.677C295.178 158.822 295.047 158.994 294.979 159.193L293.707 159.012C293.807 158.661 293.973 158.367 294.204 158.131C294.435 157.892 294.717 157.714 295.051 157.596C295.385 157.476 295.754 157.415 296.158 157.415C296.436 157.415 296.714 157.448 296.99 157.513C297.266 157.579 297.518 157.687 297.747 157.837C297.975 157.985 298.159 158.187 298.297 158.443C298.437 158.699 298.507 159.019 298.507 159.404V163.274H297.197V162.48H297.152C297.069 162.641 296.952 162.791 296.802 162.932C296.654 163.07 296.467 163.182 296.241 163.267C296.017 163.35 295.755 163.391 295.454 163.391ZM295.808 162.39C296.081 162.39 296.318 162.336 296.519 162.228C296.72 162.117 296.875 161.972 296.982 161.791C297.093 161.61 297.148 161.413 297.148 161.2V160.518C297.105 160.553 297.033 160.586 296.93 160.616C296.829 160.646 296.716 160.673 296.591 160.695C296.465 160.718 296.341 160.738 296.218 160.755C296.095 160.773 295.988 160.788 295.898 160.801C295.695 160.828 295.513 160.873 295.352 160.936C295.191 160.999 295.065 161.087 294.972 161.2C294.879 161.31 294.832 161.453 294.832 161.629C294.832 161.88 294.924 162.069 295.107 162.198C295.291 162.326 295.524 162.39 295.808 162.39ZM301.241 155.563V163.274H299.878V155.563H301.241Z" fill="#FDFCFC"/>
<circle cx="207.229" cy="202.148" r="9.22515" fill="#E9E9E6" stroke="#DBDBD7" stroke-width="0.757386"/>
<g clip-path="url(#clip2_12017_1061)">
<path d="M206.946 194.779C202.995 194.779 203.189 199.183 202.956 201.988C202.952 202.029 202.966 202.07 202.994 202.1C203.022 202.131 203.061 202.148 203.102 202.148H205.46C205.538 202.148 205.603 202.087 205.608 202.009L205.816 198.47C205.86 197.722 206.479 197.137 207.229 197.137C207.978 197.137 208.598 197.722 208.642 198.47L208.85 202.009C208.855 202.087 208.919 202.148 208.997 202.148H211.355C211.397 202.148 211.436 202.131 211.464 202.1C211.492 202.07 211.506 202.029 211.502 201.988L211.183 198.158C211.024 196.248 209.428 194.779 207.511 194.779H206.946Z" fill="#706F6C"/>
<path d="M207.228 208.042C205.318 208.042 203.961 207.998 203.089 207.955C202.155 207.909 201.368 207.237 201.277 206.267C201.227 205.723 201.186 204.995 201.186 204.063C201.186 203.131 201.227 202.403 201.277 201.859C201.368 200.89 202.155 200.218 203.089 200.171C203.961 200.128 205.318 200.084 207.228 200.084C209.138 200.084 210.494 200.128 211.367 200.171C212.301 200.218 213.088 200.89 213.178 201.859C213.229 202.403 213.27 203.131 213.27 204.063C213.27 204.995 213.229 205.723 213.178 206.267C213.088 207.237 212.301 207.909 211.367 207.955C210.494 207.998 209.138 208.042 207.228 208.042Z" fill="url(#paint0_linear_12017_1061)"/>
<path fill-rule="evenodd" clip-rule="evenodd" d="M209.813 202.698C210.034 202.377 209.952 201.938 209.631 201.718C209.31 201.497 208.871 201.579 208.65 201.9L207.22 203.984L206.464 203.144C206.203 202.854 205.757 202.831 205.468 203.092C205.178 203.353 205.155 203.799 205.416 204.088L206.771 205.593C206.916 205.754 207.126 205.839 207.342 205.825C207.557 205.811 207.755 205.698 207.877 205.52L209.813 202.698Z" fill="#1B1B18"/>
</g>
<path d="M225.488 199.596C225.452 199.279 225.305 199.034 225.047 198.86C224.788 198.684 224.462 198.596 224.07 198.596C223.788 198.596 223.545 198.64 223.34 198.73C223.135 198.817 222.975 198.937 222.862 199.091C222.75 199.243 222.694 199.416 222.694 199.61C222.694 199.772 222.732 199.913 222.808 200.031C222.886 200.149 222.988 200.249 223.113 200.329C223.24 200.407 223.376 200.473 223.521 200.526C223.666 200.578 223.805 200.62 223.939 200.654L224.608 200.827C224.827 200.881 225.051 200.954 225.281 201.045C225.51 201.136 225.723 201.257 225.92 201.406C226.116 201.556 226.274 201.741 226.395 201.962C226.518 202.183 226.579 202.447 226.579 202.755C226.579 203.143 226.479 203.487 226.278 203.789C226.079 204.09 225.79 204.327 225.411 204.501C225.034 204.675 224.578 204.762 224.043 204.762C223.53 204.762 223.086 204.681 222.711 204.518C222.336 204.355 222.043 204.124 221.831 203.825C221.619 203.524 221.502 203.167 221.48 202.755H222.517C222.537 203.002 222.617 203.209 222.758 203.374C222.901 203.537 223.083 203.658 223.303 203.738C223.526 203.816 223.771 203.855 224.036 203.855C224.328 203.855 224.588 203.81 224.816 203.718C225.045 203.625 225.226 203.495 225.358 203.33C225.489 203.163 225.555 202.968 225.555 202.745C225.555 202.542 225.497 202.375 225.381 202.246C225.267 202.117 225.112 202.01 224.916 201.925C224.722 201.84 224.502 201.765 224.257 201.701L223.447 201.48C222.898 201.33 222.464 201.111 222.142 200.821C221.823 200.531 221.664 200.147 221.664 199.67C221.664 199.275 221.771 198.93 221.985 198.636C222.199 198.342 222.489 198.113 222.855 197.95C223.221 197.785 223.633 197.702 224.093 197.702C224.557 197.702 224.966 197.784 225.321 197.947C225.678 198.11 225.959 198.334 226.164 198.619C226.369 198.903 226.476 199.228 226.485 199.596H225.488ZM229.949 204.752C229.443 204.752 229.007 204.644 228.641 204.428C228.277 204.209 227.996 203.902 227.798 203.508C227.601 203.11 227.503 202.645 227.503 202.112C227.503 201.586 227.601 201.122 227.798 200.72C227.996 200.319 228.273 200.006 228.627 199.78C228.984 199.555 229.401 199.442 229.879 199.442C230.169 199.442 230.45 199.49 230.722 199.586C230.994 199.682 231.238 199.833 231.455 200.038C231.671 200.243 231.842 200.51 231.967 200.838C232.091 201.163 232.154 201.559 232.154 202.025V202.38H228.069V201.63H231.174C231.174 201.367 231.12 201.134 231.013 200.931C230.906 200.726 230.755 200.564 230.561 200.446C230.369 200.328 230.144 200.269 229.885 200.269C229.604 200.269 229.359 200.338 229.149 200.476C228.942 200.612 228.781 200.791 228.668 201.012C228.556 201.23 228.5 201.468 228.5 201.724V202.31C228.5 202.653 228.56 202.945 228.681 203.186C228.804 203.427 228.974 203.611 229.193 203.738C229.411 203.863 229.667 203.926 229.959 203.926C230.149 203.926 230.322 203.899 230.478 203.845C230.634 203.79 230.769 203.707 230.882 203.598C230.996 203.489 231.083 203.354 231.143 203.193L232.09 203.364C232.015 203.642 231.878 203.887 231.682 204.096C231.488 204.304 231.244 204.466 230.949 204.582C230.657 204.695 230.324 204.752 229.949 204.752ZM235.429 204.752C234.931 204.752 234.503 204.64 234.144 204.414C233.787 204.187 233.513 203.873 233.321 203.474C233.129 203.075 233.033 202.618 233.033 202.102C233.033 201.58 233.131 201.12 233.327 200.72C233.524 200.319 233.8 200.006 234.157 199.78C234.514 199.555 234.935 199.442 235.419 199.442C235.809 199.442 236.157 199.515 236.463 199.66C236.768 199.803 237.015 200.003 237.202 200.262C237.392 200.521 237.504 200.823 237.54 201.169H236.566C236.513 200.928 236.39 200.72 236.198 200.546C236.009 200.372 235.754 200.285 235.435 200.285C235.157 200.285 234.912 200.359 234.703 200.506C234.495 200.651 234.333 200.859 234.217 201.129C234.101 201.396 234.043 201.713 234.043 202.079C234.043 202.454 234.1 202.777 234.214 203.049C234.328 203.321 234.488 203.532 234.696 203.681C234.906 203.831 235.152 203.906 235.435 203.906C235.625 203.906 235.797 203.871 235.951 203.802C236.107 203.731 236.237 203.629 236.342 203.497C236.449 203.366 236.524 203.207 236.566 203.022H237.54C237.504 203.355 237.396 203.651 237.215 203.912C237.035 204.173 236.793 204.379 236.489 204.528C236.188 204.677 235.835 204.752 235.429 204.752ZM241.865 202.517V199.509H242.869V204.648H241.885V203.758H241.832C241.714 204.033 241.524 204.261 241.263 204.444C241.004 204.625 240.682 204.715 240.296 204.715C239.966 204.715 239.674 204.643 239.419 204.498C239.167 204.351 238.969 204.133 238.824 203.845C238.681 203.558 238.61 203.202 238.61 202.778V199.509H239.61V202.658C239.61 203.008 239.707 203.287 239.901 203.494C240.095 203.702 240.347 203.805 240.657 203.805C240.845 203.805 241.031 203.758 241.216 203.665C241.403 203.571 241.559 203.429 241.681 203.24C241.806 203.05 241.867 202.809 241.865 202.517ZM244.213 204.648V199.509H245.18V200.326H245.234C245.327 200.049 245.492 199.832 245.729 199.673C245.967 199.513 246.237 199.432 246.539 199.432C246.601 199.432 246.675 199.435 246.759 199.439C246.846 199.443 246.914 199.449 246.963 199.456V200.413C246.923 200.401 246.852 200.389 246.749 200.376C246.647 200.36 246.544 200.352 246.441 200.352C246.205 200.352 245.994 200.403 245.809 200.503C245.626 200.601 245.481 200.738 245.374 200.914C245.267 201.088 245.214 201.287 245.214 201.51V204.648H244.213ZM249.86 204.752C249.354 204.752 248.918 204.644 248.552 204.428C248.188 204.209 247.907 203.902 247.709 203.508C247.512 203.11 247.414 202.645 247.414 202.112C247.414 201.586 247.512 201.122 247.709 200.72C247.907 200.319 248.184 200.006 248.538 199.78C248.895 199.555 249.313 199.442 249.79 199.442C250.08 199.442 250.361 199.49 250.633 199.586C250.905 199.682 251.149 199.833 251.366 200.038C251.582 200.243 251.753 200.51 251.878 200.838C252.003 201.163 252.065 201.559 252.065 202.025V202.38H247.98V201.63H251.085C251.085 201.367 251.031 201.134 250.924 200.931C250.817 200.726 250.666 200.564 250.472 200.446C250.281 200.328 250.055 200.269 249.797 200.269C249.515 200.269 249.27 200.338 249.06 200.476C248.853 200.612 248.692 200.791 248.579 201.012C248.467 201.23 248.411 201.468 248.411 201.724V202.31C248.411 202.653 248.472 202.945 248.592 203.186C248.715 203.427 248.885 203.611 249.104 203.738C249.323 203.863 249.578 203.926 249.87 203.926C250.06 203.926 250.233 203.899 250.389 203.845C250.545 203.79 250.68 203.707 250.794 203.598C250.907 203.489 250.994 203.354 251.055 203.193L252.001 203.364C251.926 203.642 251.79 203.887 251.593 204.096C251.399 204.304 251.155 204.466 250.861 204.582C250.568 204.695 250.235 204.752 249.86 204.752ZM255.099 204.749C254.684 204.749 254.314 204.643 253.988 204.431C253.665 204.217 253.41 203.912 253.225 203.518C253.042 203.121 252.951 202.644 252.951 202.089C252.951 201.533 253.043 201.058 253.229 200.664C253.416 200.269 253.672 199.966 253.998 199.757C254.324 199.547 254.693 199.442 255.106 199.442C255.425 199.442 255.681 199.496 255.875 199.603C256.071 199.708 256.223 199.83 256.33 199.971C256.439 200.111 256.524 200.235 256.584 200.342H256.645V197.796H257.645V204.648H256.668V203.849H256.584C256.524 203.958 256.437 204.083 256.323 204.224C256.212 204.364 256.058 204.487 255.862 204.592C255.665 204.696 255.411 204.749 255.099 204.749ZM255.32 203.896C255.607 203.896 255.851 203.82 256.049 203.668C256.25 203.514 256.402 203.301 256.504 203.029C256.609 202.757 256.661 202.44 256.661 202.079C256.661 201.722 256.61 201.41 256.507 201.142C256.405 200.874 256.254 200.666 256.056 200.516C255.857 200.367 255.612 200.292 255.32 200.292C255.019 200.292 254.768 200.37 254.567 200.526C254.366 200.683 254.214 200.896 254.112 201.165C254.011 201.435 253.961 201.74 253.961 202.079C253.961 202.422 254.013 202.731 254.115 203.006C254.218 203.28 254.369 203.497 254.57 203.658C254.773 203.816 255.023 203.896 255.32 203.896ZM261.647 204.648V197.796H262.647V200.342H262.707C262.765 200.235 262.849 200.111 262.958 199.971C263.068 199.83 263.219 199.708 263.413 199.603C263.607 199.496 263.864 199.442 264.183 199.442C264.598 199.442 264.968 199.547 265.294 199.757C265.619 199.966 265.875 200.269 266.06 200.664C266.247 201.058 266.341 201.533 266.341 202.089C266.341 202.644 266.248 203.121 266.063 203.518C265.878 203.912 265.624 204.217 265.3 204.431C264.977 204.643 264.608 204.749 264.193 204.749C263.881 204.749 263.625 204.696 263.427 204.592C263.23 204.487 263.076 204.364 262.965 204.224C262.853 204.083 262.768 203.958 262.707 203.849H262.624V204.648H261.647ZM262.627 202.079C262.627 202.44 262.679 202.757 262.784 203.029C262.889 203.301 263.041 203.514 263.239 203.668C263.438 203.82 263.681 203.896 263.969 203.896C264.268 203.896 264.517 203.816 264.718 203.658C264.919 203.497 265.071 203.28 265.173 203.006C265.278 202.731 265.33 202.422 265.33 202.079C265.33 201.74 265.279 201.435 265.177 201.165C265.076 200.896 264.924 200.683 264.721 200.526C264.521 200.37 264.27 200.292 263.969 200.292C263.679 200.292 263.433 200.367 263.233 200.516C263.034 200.666 262.884 200.874 262.781 201.142C262.678 201.41 262.627 201.722 262.627 202.079ZM267.922 206.576C267.772 206.576 267.636 206.563 267.514 206.539C267.391 206.517 267.299 206.492 267.239 206.465L267.48 205.645C267.663 205.695 267.826 205.716 267.969 205.709C268.111 205.702 268.237 205.649 268.347 205.548C268.458 205.448 268.556 205.284 268.641 205.057L268.765 204.715L266.885 199.509H267.955L269.257 203.497H269.31L270.612 199.509H271.686L269.568 205.334C269.47 205.602 269.345 205.828 269.193 206.014C269.042 206.201 268.861 206.341 268.651 206.435C268.442 206.529 268.198 206.576 267.922 206.576ZM275.2 204.648V197.796H277.642C278.175 197.796 278.617 197.893 278.967 198.087C279.317 198.281 279.58 198.547 279.754 198.884C279.928 199.218 280.014 199.595 280.014 200.014C280.014 200.436 279.926 200.815 279.75 201.152C279.576 201.487 279.313 201.752 278.961 201.948C278.61 202.142 278.17 202.239 277.639 202.239H275.959V201.363H277.545C277.882 201.363 278.155 201.305 278.365 201.189C278.575 201.071 278.729 200.91 278.827 200.707C278.925 200.504 278.974 200.273 278.974 200.014C278.974 199.756 278.925 199.526 278.827 199.325C278.729 199.124 278.574 198.967 278.362 198.853C278.152 198.74 277.875 198.683 277.532 198.683H276.234V204.648H275.2ZM283.297 204.752C282.79 204.752 282.354 204.644 281.989 204.428C281.625 204.209 281.344 203.902 281.145 203.508C280.949 203.11 280.851 202.645 280.851 202.112C280.851 201.586 280.949 201.122 281.145 200.72C281.344 200.319 281.62 200.006 281.975 199.78C282.332 199.555 282.749 199.442 283.226 199.442C283.516 199.442 283.798 199.49 284.07 199.586C284.342 199.682 284.586 199.833 284.802 200.038C285.019 200.243 285.189 200.51 285.314 200.838C285.439 201.163 285.502 201.559 285.502 202.025V202.38H281.416V201.63H284.521C284.521 201.367 284.468 201.134 284.361 200.931C284.254 200.726 284.103 200.564 283.909 200.446C283.717 200.328 283.492 200.269 283.233 200.269C282.952 200.269 282.707 200.338 282.497 200.476C282.29 200.612 282.129 200.791 282.015 201.012C281.904 201.23 281.848 201.468 281.848 201.724V202.31C281.848 202.653 281.908 202.945 282.029 203.186C282.151 203.427 282.322 203.611 282.541 203.738C282.759 203.863 283.015 203.926 283.307 203.926C283.496 203.926 283.669 203.899 283.825 203.845C283.982 203.79 284.116 203.707 284.23 203.598C284.344 203.489 284.431 203.354 284.491 203.193L285.438 203.364C285.362 203.642 285.226 203.887 285.03 204.096C284.836 204.304 284.592 204.466 284.297 204.582C284.005 204.695 283.671 204.752 283.297 204.752ZM286.612 204.648V199.509H287.579V200.326H287.632C287.726 200.049 287.891 199.832 288.127 199.673C288.366 199.513 288.636 199.432 288.937 199.432C288.999 199.432 289.073 199.435 289.158 199.439C289.245 199.443 289.313 199.449 289.362 199.456V200.413C289.322 200.401 289.25 200.389 289.148 200.376C289.045 200.36 288.943 200.352 288.84 200.352C288.604 200.352 288.393 200.403 288.208 200.503C288.025 200.601 287.88 200.738 287.773 200.914C287.666 201.088 287.612 201.287 287.612 201.51V204.648H286.612ZM290.228 204.648V199.509H291.188V200.346H291.252C291.359 200.062 291.534 199.842 291.777 199.683C292.02 199.523 292.311 199.442 292.65 199.442C292.994 199.442 293.281 199.523 293.513 199.683C293.747 199.844 293.92 200.065 294.032 200.346H294.085C294.208 200.071 294.403 199.853 294.671 199.69C294.939 199.525 295.258 199.442 295.628 199.442C296.094 199.442 296.474 199.588 296.769 199.881C297.065 200.173 297.214 200.613 297.214 201.202V204.648H296.213V201.296C296.213 200.948 296.119 200.696 295.929 200.54C295.739 200.384 295.513 200.306 295.25 200.306C294.924 200.306 294.671 200.406 294.49 200.607C294.31 200.805 294.219 201.061 294.219 201.373V204.648H293.222V201.232C293.222 200.954 293.135 200.729 292.961 200.56C292.787 200.39 292.561 200.306 292.282 200.306C292.092 200.306 291.917 200.356 291.757 200.456C291.598 200.554 291.47 200.691 291.372 200.868C291.276 201.044 291.228 201.248 291.228 201.48V204.648H290.228ZM298.555 204.648V199.509H299.555V204.648H298.555ZM299.06 198.716C298.886 198.716 298.736 198.658 298.612 198.542C298.489 198.424 298.427 198.284 298.427 198.121C298.427 197.956 298.489 197.815 298.612 197.699C298.736 197.581 298.886 197.522 299.06 197.522C299.234 197.522 299.382 197.581 299.505 197.699C299.63 197.815 299.692 197.956 299.692 198.121C299.692 198.284 299.63 198.424 299.505 198.542C299.382 198.658 299.234 198.716 299.06 198.716ZM303.3 199.509V200.312H300.493V199.509H303.3ZM301.246 198.278H302.246V203.139C302.246 203.334 302.275 203.48 302.333 203.578C302.391 203.674 302.466 203.739 302.557 203.775C302.651 203.809 302.752 203.825 302.862 203.825C302.942 203.825 303.012 203.82 303.072 203.809C303.133 203.797 303.179 203.789 303.213 203.782L303.394 204.608C303.336 204.631 303.253 204.653 303.146 204.675C303.039 204.7 302.905 204.713 302.744 204.715C302.481 204.72 302.236 204.673 302.008 204.575C301.781 204.477 301.597 204.325 301.456 204.12C301.316 203.915 301.246 203.657 301.246 203.347V198.278ZM305.066 204.712C304.883 204.712 304.725 204.647 304.594 204.518C304.462 204.386 304.396 204.228 304.396 204.043C304.396 203.86 304.462 203.704 304.594 203.574C304.725 203.443 304.883 203.377 305.066 203.377C305.249 203.377 305.406 203.443 305.537 203.574C305.669 203.704 305.735 203.86 305.735 204.043C305.735 204.166 305.704 204.278 305.641 204.381C305.581 204.481 305.501 204.561 305.4 204.622C305.3 204.682 305.188 204.712 305.066 204.712ZM307.075 204.648V199.509H308.075V204.648H307.075ZM307.58 198.716C307.406 198.716 307.257 198.658 307.132 198.542C307.009 198.424 306.948 198.284 306.948 198.121C306.948 197.956 307.009 197.815 307.132 197.699C307.257 197.581 307.406 197.522 307.58 197.522C307.754 197.522 307.902 197.581 308.025 197.699C308.15 197.815 308.212 197.956 308.212 198.121C308.212 198.284 308.15 198.424 308.025 198.542C307.902 198.658 307.754 198.716 307.58 198.716ZM311.586 204.752C311.104 204.752 310.684 204.642 310.324 204.421C309.965 204.2 309.687 203.891 309.488 203.494C309.289 203.097 309.19 202.633 309.19 202.102C309.19 201.569 309.289 201.103 309.488 200.704C309.687 200.304 309.965 199.994 310.324 199.774C310.684 199.553 311.104 199.442 311.586 199.442C312.068 199.442 312.488 199.553 312.847 199.774C313.206 199.994 313.485 200.304 313.684 200.704C313.882 201.103 313.981 201.569 313.981 202.102C313.981 202.633 313.882 203.097 313.684 203.494C313.485 203.891 313.206 204.2 312.847 204.421C312.488 204.642 312.068 204.752 311.586 204.752ZM311.589 203.912C311.901 203.912 312.16 203.83 312.365 203.665C312.571 203.5 312.722 203.28 312.82 203.006C312.921 202.731 312.971 202.429 312.971 202.099C312.971 201.771 312.921 201.47 312.82 201.196C312.722 200.919 312.571 200.697 312.365 200.53C312.16 200.362 311.901 200.279 311.589 200.279C311.275 200.279 311.014 200.362 310.806 200.53C310.601 200.697 310.448 200.919 310.348 201.196C310.25 201.47 310.201 201.771 310.201 202.099C310.201 202.429 310.25 202.731 310.348 203.006C310.448 203.28 310.601 203.5 310.806 203.665C311.014 203.83 311.275 203.912 311.589 203.912Z" fill="#1B1B18"/>
</g>
<rect x="1" y="1" width="511" height="297" rx="20" stroke="#F2E8E4" stroke-width="2"/>
<defs>
<filter id="filter0_d_12017_1061" x="-129.55" y="-12.577" width="658.099" height="483.099" filterUnits="userSpaceOnUse" color-interpolation-filters="sRGB">
<feFlood flood-opacity="0" result="BackgroundImageFix"/>
<feColorMatrix in="SourceAlpha" type="matrix" values="0 0 0 0 0 0 0 0 0 0 0 0 0 0 0 0 0 0 127 0" result="hardAlpha"/>
<feMorphology radius="2.70992" operator="dilate" in="SourceAlpha" result="effect1_dropShadow_12017_1061"/>
<feOffset/>
<feGaussianBlur stdDeviation="5.41984"/>
<feComposite in2="hardAlpha" operator="out"/>
<feColorMatrix type="matrix" values="0 0 0 0 0 0 0 0 0 0 0 0 0 0 0 0 0 0 0.1 0"/>
<feBlend mode="normal" in2="BackgroundImageFix" result="effect1_dropShadow_12017_1061"/>
<feBlend mode="normal" in="SourceGraphic" in2="effect1_dropShadow_12017_1061" result="shape"/>
</filter>
<linearGradient id="paint0_linear_12017_1061" x1="201.834" y1="200.999" x2="212.186" y2="208.042" gradientUnits="userSpaceOnUse">
<stop stop-color="#90908C"/>
<stop offset="1" stop-color="#BABAB6"/>
</linearGradient>
<clipPath id="clip0_12017_1061">
<rect x="1" y="1" width="511" height="297" rx="20" fill="white"/>
</clipPath>
<clipPath id="clip1_12017_1061">
<rect x="-116" y="0.972656" width="631" height="456" rx="10.8397" fill="white"/>
</clipPath>
<clipPath id="clip2_12017_1061">
<rect width="14.1478" height="14.1478" fill="white" transform="translate(200.154 194.337)"/>
</clipPath>
</defs>
</svg>
