<svg width="513" height="304" viewBox="0 0 513 304" fill="none" xmlns="http://www.w3.org/2000/svg">
<g clip-path="url(#clip0_12017_901)">
<rect x="1" y="1" width="511" height="302" rx="20" fill="#FDF8F6"/>
<g clip-path="url(#clip1_12017_901)">
<rect x="47" y="42.5" width="419" height="295" rx="10" fill="#FDFCFC"/>
<path d="M64.2934 74.5V63.0455H68.5888C69.4688 63.0455 70.2071 63.2095 70.8037 63.5376C71.404 63.8658 71.857 64.3169 72.1628 64.8912C72.4723 65.4616 72.627 66.1104 72.627 66.8375C72.627 67.5721 72.4723 68.2246 72.1628 68.7951C71.8533 69.3656 71.3965 69.8149 70.7925 70.143C70.1884 70.4674 69.4446 70.6296 68.5609 70.6296H65.714V68.9237H68.2812C68.7958 68.9237 69.2171 68.8343 69.5452 68.6553C69.8734 68.4763 70.1157 68.2302 70.2723 67.917C70.4327 67.6038 70.5128 67.244 70.5128 66.8375C70.5128 66.4311 70.4327 66.0732 70.2723 65.7637C70.1157 65.4542 69.8715 65.2137 69.5396 65.0422C69.2115 64.8669 68.7883 64.7793 68.27 64.7793H66.3684V74.5H64.2934ZM78.0201 74.6678C77.1588 74.6678 76.4149 74.4888 75.7885 74.1309C75.1658 73.7692 74.6866 73.2583 74.3511 72.5984C74.0155 71.9347 73.8477 71.1535 73.8477 70.2549C73.8477 69.3712 74.0155 68.5956 74.3511 67.9282C74.6904 67.257 75.1639 66.735 75.7717 66.3621C76.3795 65.9855 77.0935 65.7972 77.9138 65.7972C78.4433 65.7972 78.9429 65.883 79.4128 66.0545C79.8863 66.2223 80.3039 66.4833 80.6656 66.8375C81.031 67.1918 81.3181 67.6429 81.5269 68.1911C81.7357 68.7354 81.8401 69.3842 81.8401 70.1374V70.7583H74.7985V69.3936H79.8993C79.8956 69.0058 79.8117 68.6609 79.6477 68.3588C79.4836 68.0531 79.2543 67.8126 78.9597 67.6373C78.6689 67.4621 78.3296 67.3745 77.9418 67.3745C77.5279 67.3745 77.1644 67.4751 76.8511 67.6765C76.5379 67.8741 76.2937 68.1351 76.1185 68.4595C75.9469 68.7802 75.8593 69.1325 75.8556 69.5166V70.7079C75.8556 71.2076 75.9469 71.6364 76.1296 71.9943C76.3123 72.3485 76.5678 72.6207 76.8959 72.8109C77.224 72.9973 77.6081 73.0906 78.0481 73.0906C78.3426 73.0906 78.6092 73.0495 78.8479 72.9675C79.0865 72.8817 79.2934 72.7568 79.4687 72.5928C79.6439 72.4287 79.7763 72.2255 79.8658 71.9831L81.7562 72.1957C81.6369 72.6953 81.4095 73.1316 81.0739 73.5044C80.742 73.8736 80.317 74.1607 79.7987 74.3658C79.2804 74.5671 78.6875 74.6678 78.0201 74.6678ZM85.5777 69.4663V74.5H83.553V65.9091H85.4882V67.3689H85.5889C85.7865 66.8879 86.1016 66.5057 86.5341 66.2223C86.9703 65.9389 87.5091 65.7972 88.1505 65.7972C88.7433 65.7972 89.2598 65.924 89.6998 66.1776C90.1435 66.4311 90.4865 66.7984 90.7289 67.2794C90.975 67.7604 91.0961 68.3439 91.0924 69.03V74.5H89.0677V69.3432C89.0677 68.769 88.9186 68.3197 88.6203 67.9953C88.3257 67.6709 87.9174 67.5087 87.3954 67.5087C87.0412 67.5087 86.7261 67.587 86.4502 67.7436C86.178 67.8965 85.9636 68.1183 85.807 68.4092C85.6541 68.7 85.5777 69.0524 85.5777 69.4663ZM96.3387 74.651C95.6638 74.651 95.0597 74.4776 94.5265 74.1309C93.9933 73.7841 93.572 73.2807 93.2625 72.6207C92.953 71.9608 92.7983 71.1591 92.7983 70.2157C92.7983 69.2612 92.9549 68.4558 93.2681 67.7995C93.585 67.1396 94.012 66.6418 94.5489 66.3062C95.0858 65.9669 95.6843 65.7972 96.3443 65.7972C96.8477 65.7972 97.2615 65.883 97.5859 66.0545C97.9103 66.2223 98.1676 66.4255 98.3578 66.6642C98.5479 66.8991 98.6952 67.1209 98.7996 67.3297H98.8835V63.0455H100.914V74.5H98.9227V73.1465H98.7996C98.6952 73.3553 98.5442 73.5771 98.3466 73.8121C98.149 74.0432 97.888 74.2409 97.5636 74.4049C97.2392 74.569 96.8309 74.651 96.3387 74.651ZM96.9036 72.9899C97.3324 72.9899 97.6978 72.8743 97.9998 72.6431C98.3018 72.4082 98.5312 72.0819 98.6878 71.6643C98.8444 71.2467 98.9227 70.7601 98.9227 70.2045C98.9227 69.649 98.8444 69.1661 98.6878 68.7559C98.5349 68.3458 98.3074 68.027 98.0054 67.7995C97.7071 67.5721 97.3398 67.4584 96.9036 67.4584C96.4524 67.4584 96.0758 67.5758 95.7738 67.8107C95.4718 68.0456 95.2443 68.37 95.0914 68.7839C94.9386 69.1978 94.8621 69.6713 94.8621 70.2045C94.8621 70.7415 94.9386 71.2206 95.0914 71.642C95.248 72.0596 95.4774 72.3896 95.7794 72.6319C96.0851 72.8706 96.4599 72.9899 96.9036 72.9899ZM103.071 74.5V65.9091H105.096V74.5H103.071ZM104.089 64.6898C103.769 64.6898 103.493 64.5835 103.261 64.371C103.03 64.1547 102.915 63.8956 102.915 63.5936C102.915 63.2878 103.03 63.0287 103.261 62.8161C103.493 62.5999 103.769 62.4917 104.089 62.4917C104.414 62.4917 104.69 62.5999 104.917 62.8161C105.148 63.0287 105.264 63.2878 105.264 63.5936C105.264 63.8956 105.148 64.1547 104.917 64.371C104.69 64.5835 104.414 64.6898 104.089 64.6898ZM109.203 69.4663V74.5H107.178V65.9091H109.113V67.3689H109.214C109.411 66.8879 109.727 66.5057 110.159 66.2223C110.595 65.9389 111.134 65.7972 111.775 65.7972C112.368 65.7972 112.885 65.924 113.325 66.1776C113.768 66.4311 114.112 66.7984 114.354 67.2794C114.6 67.7604 114.721 68.3439 114.717 69.03V74.5H112.693V69.3432C112.693 68.769 112.544 68.3197 112.245 67.9953C111.951 67.6709 111.542 67.5087 111.02 67.5087C110.666 67.5087 110.351 67.587 110.075 67.7436C109.803 67.8965 109.589 68.1183 109.432 68.4092C109.279 68.7 109.203 69.0524 109.203 69.4663ZM120.512 77.9006C119.785 77.9006 119.16 77.8018 118.638 77.6041C118.116 77.4102 117.697 77.1492 117.38 76.8211C117.063 76.493 116.843 76.1294 116.72 75.7305L118.543 75.2886C118.625 75.4564 118.744 75.6223 118.901 75.7864C119.058 75.9542 119.268 76.0922 119.533 76.2003C119.801 76.3121 120.139 76.3681 120.545 76.3681C121.12 76.3681 121.595 76.2282 121.972 75.9486C122.348 75.6727 122.536 75.2178 122.536 74.5839V72.9563H122.436C122.331 73.1651 122.179 73.3795 121.977 73.5995C121.78 73.8195 121.517 74.0041 121.189 74.1532C120.864 74.3024 120.456 74.377 119.964 74.377C119.304 74.377 118.705 74.2222 118.168 73.9127C117.635 73.5995 117.21 73.1334 116.893 72.5145C116.58 71.8918 116.423 71.1125 116.423 70.1766C116.423 69.2332 116.58 68.4371 116.893 67.7884C117.21 67.1358 117.637 66.6418 118.174 66.3062C118.711 65.9669 119.309 65.7972 119.969 65.7972C120.473 65.7972 120.887 65.883 121.211 66.0545C121.539 66.2223 121.8 66.4255 121.994 66.6642C122.188 66.8991 122.335 67.1209 122.436 67.3297H122.548V65.9091H124.544V74.6398C124.544 75.3744 124.369 75.9822 124.019 76.4632C123.668 76.9442 123.189 77.304 122.581 77.5426C121.973 77.7813 121.284 77.9006 120.512 77.9006ZM120.529 72.7885C120.957 72.7885 121.323 72.6841 121.625 72.4753C121.927 72.2665 122.156 71.9664 122.313 71.5748C122.469 71.1833 122.548 70.7135 122.548 70.1654C122.548 69.6247 122.469 69.1512 122.313 68.7448C122.16 68.3383 121.932 68.0233 121.63 67.7995C121.332 67.5721 120.965 67.4584 120.529 67.4584C120.077 67.4584 119.701 67.5758 119.399 67.8107C119.097 68.0456 118.869 68.3682 118.716 68.7783C118.564 69.1847 118.487 69.6471 118.487 70.1654C118.487 70.6911 118.564 71.1516 118.716 71.5469C118.873 71.9384 119.102 72.2441 119.404 72.4641C119.71 72.6804 120.085 72.7885 120.529 72.7885ZM130.112 64.7849V63.0455H139.251V64.7849H135.711V74.5H133.653V64.7849H130.112ZM140.032 74.5V65.9091H141.995V67.3409H142.084C142.241 66.845 142.509 66.4628 142.89 66.1943C143.274 65.9221 143.712 65.786 144.204 65.786C144.316 65.786 144.441 65.7916 144.579 65.8028C144.72 65.8103 144.838 65.8233 144.931 65.842V67.7045C144.845 67.6746 144.709 67.6485 144.523 67.6262C144.34 67.6001 144.163 67.587 143.991 67.587C143.622 67.587 143.29 67.6672 142.996 67.8275C142.705 67.9841 142.476 68.2022 142.308 68.4819C142.14 68.7615 142.056 69.0841 142.056 69.4495V74.5H140.032ZM148.594 74.6734C148.05 74.6734 147.56 74.5764 147.123 74.3825C146.691 74.1849 146.348 73.8941 146.094 73.51C145.845 73.126 145.72 72.6524 145.72 72.0894C145.72 71.6047 145.809 71.2038 145.988 70.8869C146.167 70.57 146.411 70.3164 146.721 70.1262C147.03 69.9361 147.379 69.7925 147.767 69.6956C148.158 69.5949 148.563 69.5222 148.98 69.4775C149.484 69.4252 149.892 69.3786 150.205 69.3376C150.518 69.2929 150.746 69.2258 150.888 69.1363C151.033 69.0431 151.106 68.8995 151.106 68.7056V68.6721C151.106 68.2507 150.981 67.9244 150.731 67.6933C150.481 67.4621 150.121 67.3465 149.652 67.3465C149.156 67.3465 148.762 67.4546 148.471 67.6709C148.184 67.8872 147.99 68.1426 147.89 68.4371L145.999 68.1687C146.148 67.6467 146.395 67.2104 146.738 66.8599C147.081 66.5057 147.5 66.2409 147.996 66.0657C148.492 65.8867 149.04 65.7972 149.64 65.7972C150.054 65.7972 150.466 65.8457 150.876 65.9426C151.287 66.0396 151.661 66.1999 152.001 66.4237C152.34 66.6436 152.612 66.9438 152.817 67.3241C153.026 67.7045 153.13 68.1799 153.13 68.7504V74.5H151.184V73.3199H151.117C150.994 73.5585 150.82 73.7822 150.597 73.991C150.377 74.1961 150.099 74.362 149.763 74.4888C149.432 74.6119 149.042 74.6734 148.594 74.6734ZM149.12 73.1856C149.527 73.1856 149.879 73.1055 150.177 72.9451C150.476 72.7811 150.705 72.5648 150.865 72.2963C151.029 72.0279 151.111 71.7352 151.111 71.4182V70.4059C151.048 70.4581 150.94 70.5066 150.787 70.5513C150.638 70.5961 150.47 70.6352 150.284 70.6688C150.097 70.7023 149.913 70.7322 149.73 70.7583C149.547 70.7844 149.389 70.8067 149.254 70.8254C148.952 70.8664 148.682 70.9335 148.443 71.0267C148.205 71.1199 148.017 71.2504 147.879 71.4182C147.741 71.5823 147.672 71.7948 147.672 72.0558C147.672 72.4287 147.808 72.7102 148.08 72.9004C148.352 73.0906 148.699 73.1856 149.12 73.1856ZM157.191 69.4663V74.5H155.166V65.9091H157.101V67.3689H157.202C157.4 66.8879 157.715 66.5057 158.147 66.2223C158.584 65.9389 159.122 65.7972 159.764 65.7972C160.357 65.7972 160.873 65.924 161.313 66.1776C161.757 66.4311 162.1 66.7984 162.342 67.2794C162.588 67.7604 162.709 68.3439 162.706 69.03V74.5H160.681V69.3432C160.681 68.769 160.532 68.3197 160.234 67.9953C159.939 67.6709 159.531 67.5087 159.009 67.5087C158.654 67.5087 158.339 67.587 158.063 67.7436C157.791 67.8965 157.577 68.1183 157.42 68.4092C157.267 68.7 157.191 69.0524 157.191 69.4663ZM171.554 68.1799L169.708 68.3812C169.656 68.1948 169.565 68.0195 169.434 67.8555C169.307 67.6914 169.136 67.559 168.92 67.4584C168.703 67.3577 168.439 67.3074 168.125 67.3074C167.704 67.3074 167.35 67.3987 167.063 67.5814C166.779 67.7641 166.639 68.0009 166.643 68.2917C166.639 68.5415 166.731 68.7448 166.917 68.9014C167.107 69.058 167.421 69.1866 167.857 69.2873L169.322 69.6005C170.135 69.7757 170.739 70.0535 171.134 70.4339C171.533 70.8142 171.735 71.312 171.738 71.9272C171.735 72.4679 171.576 72.9451 171.263 73.359C170.954 73.7692 170.523 74.0898 169.971 74.321C169.419 74.5522 168.785 74.6678 168.069 74.6678C167.018 74.6678 166.172 74.4478 165.53 74.0078C164.889 73.5641 164.507 72.947 164.384 72.1565L166.358 71.9664C166.447 72.3541 166.638 72.6468 166.928 72.8445C167.219 73.0421 167.598 73.1409 168.064 73.1409C168.545 73.1409 168.931 73.0421 169.222 72.8445C169.516 72.6468 169.663 72.4026 169.663 72.1118C169.663 71.8657 169.568 71.6625 169.378 71.5021C169.192 71.3418 168.901 71.2187 168.506 71.133L167.04 70.8254C166.216 70.6539 165.607 70.3649 165.211 69.9585C164.816 69.5483 164.62 69.03 164.624 68.4036C164.62 67.8741 164.764 67.4155 165.055 67.0277C165.349 66.6362 165.758 66.3342 166.28 66.1216C166.805 65.9054 167.411 65.7972 168.097 65.7972C169.104 65.7972 169.896 66.0116 170.474 66.4404C171.056 66.8692 171.416 67.449 171.554 68.1799ZM177.759 65.9091V67.4751H172.681V65.9091H177.759ZM173.951 74.5V65.0981C173.951 64.5202 174.07 64.0392 174.308 63.6551C174.551 63.271 174.875 62.9839 175.282 62.7938C175.688 62.6036 176.139 62.5085 176.635 62.5085C176.986 62.5085 177.297 62.5365 177.569 62.5924C177.841 62.6483 178.043 62.6987 178.173 62.7434L177.771 64.3095C177.685 64.2834 177.577 64.2573 177.446 64.2312C177.316 64.2013 177.17 64.1864 177.01 64.1864C176.633 64.1864 176.367 64.2778 176.21 64.4605C176.057 64.6395 175.981 64.8968 175.981 65.2323V74.5H173.951ZM182.825 74.6678C181.964 74.6678 181.22 74.4888 180.594 74.1309C179.971 73.7692 179.492 73.2583 179.156 72.5984C178.821 71.9347 178.653 71.1535 178.653 70.2549C178.653 69.3712 178.821 68.5956 179.156 67.9282C179.496 67.257 179.969 66.735 180.577 66.3621C181.185 65.9855 181.899 65.7972 182.719 65.7972C183.248 65.7972 183.748 65.883 184.218 66.0545C184.691 66.2223 185.109 66.4833 185.471 66.8375C185.836 67.1918 186.123 67.6429 186.332 68.1911C186.541 68.7354 186.645 69.3842 186.645 70.1374V70.7583H179.604V69.3936H184.705C184.701 69.0058 184.617 68.6609 184.453 68.3588C184.289 68.0531 184.059 67.8126 183.765 67.6373C183.474 67.4621 183.135 67.3745 182.747 67.3745C182.333 67.3745 181.97 67.4751 181.656 67.6765C181.343 67.8741 181.099 68.1351 180.924 68.4595C180.752 68.7802 180.664 69.1325 180.661 69.5166V70.7079C180.661 71.2076 180.752 71.6364 180.935 71.9943C181.118 72.3485 181.373 72.6207 181.701 72.8109C182.029 72.9973 182.413 73.0906 182.853 73.0906C183.148 73.0906 183.414 73.0495 183.653 72.9675C183.892 72.8817 184.099 72.7568 184.274 72.5928C184.449 72.4287 184.581 72.2255 184.671 71.9831L186.561 72.1957C186.442 72.6953 186.215 73.1316 185.879 73.5044C185.547 73.8736 185.122 74.1607 184.604 74.3658C184.086 74.5671 183.493 74.6678 182.825 74.6678ZM188.358 74.5V65.9091H190.321V67.3409H190.411C190.567 66.845 190.836 66.4628 191.216 66.1943C191.6 65.9221 192.038 65.786 192.531 65.786C192.642 65.786 192.767 65.7916 192.905 65.8028C193.047 65.8103 193.164 65.8233 193.258 65.842V67.7045C193.172 67.6746 193.036 67.6485 192.849 67.6262C192.667 67.6001 192.49 67.587 192.318 67.587C191.949 67.587 191.617 67.6672 191.322 67.8275C191.032 67.9841 190.802 68.2022 190.635 68.4819C190.467 68.7615 190.383 69.0841 190.383 69.4495V74.5H188.358ZM198.599 74.5V63.0455H202.894C203.774 63.0455 204.513 63.1983 205.109 63.5041C205.71 63.8098 206.163 64.2386 206.468 64.7905C206.778 65.3386 206.933 65.9781 206.933 66.7089C206.933 67.4434 206.776 68.0811 206.463 68.6217C206.153 69.1586 205.697 69.5744 205.093 69.869C204.489 70.1598 203.746 70.3052 202.867 70.3052H199.807V68.5826H202.587C203.101 68.5826 203.523 68.5117 203.851 68.37C204.179 68.2246 204.421 68.0139 204.578 67.738C204.738 67.4584 204.818 67.1153 204.818 66.7089C204.818 66.3025 204.738 65.9557 204.578 65.6686C204.418 65.3778 204.173 65.1578 203.845 65.0086C203.517 64.8557 203.094 64.7793 202.576 64.7793H200.674V74.5H198.599ZM204.516 69.3097L207.352 74.5H205.037L202.251 69.3097H204.516ZM212.433 74.6678C211.572 74.6678 210.828 74.4888 210.202 74.1309C209.579 73.7692 209.1 73.2583 208.764 72.5984C208.429 71.9347 208.261 71.1535 208.261 70.2549C208.261 69.3712 208.429 68.5956 208.764 67.9282C209.104 67.257 209.577 66.735 210.185 66.3621C210.793 65.9855 211.507 65.7972 212.327 65.7972C212.857 65.7972 213.356 65.883 213.826 66.0545C214.3 66.2223 214.717 66.4833 215.079 66.8375C215.444 67.1918 215.731 67.6429 215.94 68.1911C216.149 68.7354 216.253 69.3842 216.253 70.1374V70.7583H209.212V69.3936H214.313C214.309 69.0058 214.225 68.6609 214.061 68.3588C213.897 68.0531 213.668 67.8126 213.373 67.6373C213.082 67.4621 212.743 67.3745 212.355 67.3745C211.941 67.3745 211.578 67.4751 211.264 67.6765C210.951 67.8741 210.707 68.1351 210.532 68.4595C210.36 68.7802 210.273 69.1325 210.269 69.5166V70.7079C210.269 71.2076 210.36 71.6364 210.543 71.9943C210.726 72.3485 210.981 72.6207 211.309 72.8109C211.637 72.9973 212.021 73.0906 212.461 73.0906C212.756 73.0906 213.023 73.0495 213.261 72.9675C213.5 72.8817 213.707 72.7568 213.882 72.5928C214.057 72.4287 214.19 72.2255 214.279 71.9831L216.17 72.1957C216.05 72.6953 215.823 73.1316 215.487 73.5044C215.155 73.8736 214.73 74.1607 214.212 74.3658C213.694 74.5671 213.101 74.6678 212.433 74.6678ZM223.699 77.7216V73.1465H223.615C223.511 73.3553 223.36 73.5771 223.162 73.8121C222.965 74.0432 222.704 74.2409 222.379 74.4049C222.055 74.569 221.647 74.651 221.154 74.651C220.479 74.651 219.875 74.4776 219.342 74.1309C218.809 73.7841 218.388 73.2807 218.078 72.6207C217.769 71.9608 217.614 71.1591 217.614 70.2157C217.614 69.2612 217.771 68.4558 218.084 67.7995C218.401 67.1396 218.828 66.6418 219.365 66.3062C219.902 65.9669 220.5 65.7972 221.16 65.7972C221.663 65.7972 222.077 65.883 222.402 66.0545C222.726 66.2223 222.983 66.4255 223.173 66.6642C223.364 66.8991 223.511 67.1209 223.615 67.3297H223.738V65.9091H225.729V77.7216H223.699ZM221.719 72.9899C222.148 72.9899 222.513 72.8743 222.815 72.6431C223.118 72.4082 223.347 72.0819 223.503 71.6643C223.66 71.2467 223.738 70.7601 223.738 70.2045C223.738 69.649 223.66 69.1661 223.503 68.7559C223.351 68.3458 223.123 68.027 222.821 67.7995C222.523 67.5721 222.156 67.4584 221.719 67.4584C221.268 67.4584 220.891 67.5758 220.589 67.8107C220.287 68.0456 220.06 68.37 219.907 68.7839C219.754 69.1978 219.678 69.6713 219.678 70.2045C219.678 70.7415 219.754 71.2206 219.907 71.642C220.064 72.0596 220.293 72.3896 220.595 72.6319C220.901 72.8706 221.276 72.9899 221.719 72.9899ZM233.286 70.8869V65.9091H235.31V74.5H233.347V72.9731H233.258C233.064 73.4541 232.745 73.8475 232.301 74.1532C231.861 74.459 231.319 74.6119 230.674 74.6119C230.111 74.6119 229.613 74.4869 229.18 74.2371C228.752 73.9836 228.416 73.6163 228.174 73.1353C227.931 72.6506 227.81 72.0652 227.81 71.3791V65.9091H229.835V71.0659C229.835 71.6103 229.984 72.0428 230.282 72.3635C230.581 72.6841 230.972 72.8445 231.457 72.8445C231.755 72.8445 232.044 72.7718 232.324 72.6263C232.603 72.4809 232.833 72.2646 233.012 71.9775C233.194 71.6867 233.286 71.3232 233.286 70.8869ZM241.196 74.6678C240.334 74.6678 239.59 74.4888 238.964 74.1309C238.341 73.7692 237.862 73.2583 237.527 72.5984C237.191 71.9347 237.023 71.1535 237.023 70.2549C237.023 69.3712 237.191 68.5956 237.527 67.9282C237.866 67.257 238.339 66.735 238.947 66.3621C239.555 65.9855 240.269 65.7972 241.089 65.7972C241.619 65.7972 242.118 65.883 242.588 66.0545C243.062 66.2223 243.479 66.4833 243.841 66.8375C244.207 67.1918 244.494 67.6429 244.702 68.1911C244.911 68.7354 245.016 69.3842 245.016 70.1374V70.7583H237.974V69.3936H243.075C243.071 69.0058 242.987 68.6609 242.823 68.3588C242.659 68.0531 242.43 67.8126 242.135 67.6373C241.844 67.4621 241.505 67.3745 241.117 67.3745C240.703 67.3745 240.34 67.4751 240.027 67.6765C239.713 67.8741 239.469 68.1351 239.294 68.4595C239.122 68.7802 239.035 69.1325 239.031 69.5166V70.7079C239.031 71.2076 239.122 71.6364 239.305 71.9943C239.488 72.3485 239.743 72.6207 240.071 72.8109C240.4 72.9973 240.784 73.0906 241.224 73.0906C241.518 73.0906 241.785 73.0495 242.023 72.9675C242.262 72.8817 242.469 72.7568 242.644 72.5928C242.819 72.4287 242.952 72.2255 243.041 71.9831L244.932 72.1957C244.812 72.6953 244.585 73.1316 244.249 73.5044C243.918 73.8736 243.492 74.1607 242.974 74.3658C242.456 74.5671 241.863 74.6678 241.196 74.6678ZM253.518 68.1799L251.673 68.3812C251.621 68.1948 251.529 68.0195 251.399 67.8555C251.272 67.6914 251.1 67.559 250.884 67.4584C250.668 67.3577 250.403 67.3074 250.09 67.3074C249.669 67.3074 249.314 67.3987 249.027 67.5814C248.744 67.7641 248.604 68.0009 248.608 68.2917C248.604 68.5415 248.695 68.7448 248.882 68.9014C249.072 69.058 249.385 69.1866 249.821 69.2873L251.287 69.6005C252.1 69.7757 252.704 70.0535 253.099 70.4339C253.498 70.8142 253.699 71.312 253.703 71.9272C253.699 72.4679 253.541 72.9451 253.228 73.359C252.918 73.7692 252.488 74.0898 251.936 74.321C251.384 74.5522 250.75 74.6678 250.034 74.6678C248.983 74.6678 248.136 74.4478 247.495 74.0078C246.853 73.5641 246.471 72.947 246.348 72.1565L248.323 71.9664C248.412 72.3541 248.602 72.6468 248.893 72.8445C249.184 73.0421 249.562 73.1409 250.028 73.1409C250.509 73.1409 250.895 73.0421 251.186 72.8445C251.481 72.6468 251.628 72.4026 251.628 72.1118C251.628 71.8657 251.533 71.6625 251.343 71.5021C251.156 71.3418 250.866 71.2187 250.47 71.133L249.005 70.8254C248.181 70.6539 247.571 70.3649 247.176 69.9585C246.781 69.5483 246.585 69.03 246.589 68.4036C246.585 67.8741 246.729 67.4155 247.019 67.0277C247.314 66.6362 247.722 66.3342 248.244 66.1216C248.77 65.9054 249.376 65.7972 250.062 65.7972C251.069 65.7972 251.861 66.0116 252.439 66.4404C253.021 66.8692 253.381 67.449 253.518 68.1799ZM259.662 65.9091V67.4751H254.724V65.9091H259.662ZM255.943 63.8509H257.968V71.916C257.968 72.1882 258.009 72.397 258.091 72.5424C258.177 72.6841 258.288 72.7811 258.426 72.8333C258.564 72.8855 258.717 72.9116 258.885 72.9116C259.012 72.9116 259.127 72.9023 259.232 72.8836C259.34 72.865 259.422 72.8482 259.478 72.8333L259.819 74.4161C259.711 74.4534 259.556 74.4944 259.355 74.5392C259.157 74.5839 258.915 74.61 258.628 74.6175C258.121 74.6324 257.664 74.5559 257.257 74.3881C256.851 74.2166 256.528 73.9519 256.29 73.5939C256.055 73.236 255.939 72.7885 255.943 72.2516V63.8509ZM268.023 68.1799L266.177 68.3812C266.125 68.1948 266.033 68.0195 265.903 67.8555C265.776 67.6914 265.605 67.559 265.388 67.4584C265.172 67.3577 264.907 67.3074 264.594 67.3074C264.173 67.3074 263.819 67.3987 263.531 67.5814C263.248 67.7641 263.108 68.0009 263.112 68.2917C263.108 68.5415 263.2 68.7448 263.386 68.9014C263.576 69.058 263.889 69.1866 264.326 69.2873L265.791 69.6005C266.604 69.7757 267.208 70.0535 267.603 70.4339C268.002 70.8142 268.203 71.312 268.207 71.9272C268.203 72.4679 268.045 72.9451 267.732 73.359C267.422 73.7692 266.992 74.0898 266.44 74.321C265.888 74.5522 265.254 74.6678 264.538 74.6678C263.487 74.6678 262.64 74.4478 261.999 74.0078C261.358 73.5641 260.975 72.947 260.852 72.1565L262.827 71.9664C262.916 72.3541 263.106 72.6468 263.397 72.8445C263.688 73.0421 264.066 73.1409 264.533 73.1409C265.014 73.1409 265.4 73.0421 265.69 72.8445C265.985 72.6468 266.132 72.4026 266.132 72.1118C266.132 71.8657 266.037 71.6625 265.847 71.5021C265.661 71.3418 265.37 71.2187 264.974 71.133L263.509 70.8254C262.685 70.6539 262.075 70.3649 261.68 69.9585C261.285 69.5483 261.089 69.03 261.093 68.4036C261.089 67.8741 261.233 67.4155 261.524 67.0277C261.818 66.6362 262.226 66.3342 262.748 66.1216C263.274 65.9054 263.88 65.7972 264.566 65.7972C265.573 65.7972 266.365 66.0116 266.943 66.4404C267.525 66.8692 267.885 67.449 268.023 68.1799Z" fill="#1B1B18"/>
<g clip-path="url(#clip2_12017_901)">
<path d="M65.8924 115.5V106.453H71.7766V107.827H67.5313V110.283H71.4718V111.657H67.5313V114.126H71.812V115.5H65.8924ZM74.9772 111.524V115.5H73.378V108.715H74.9065V109.868H74.986C75.1421 109.488 75.391 109.186 75.7326 108.962C76.0772 108.738 76.5027 108.626 77.0093 108.626C77.4775 108.626 77.8854 108.726 78.233 108.927C78.5834 109.127 78.8544 109.417 79.0458 109.797C79.2402 110.177 79.3359 110.638 79.3329 111.18V115.5H77.7338V111.427C77.7338 110.973 77.616 110.619 77.3804 110.362C77.1477 110.106 76.8252 109.978 76.4129 109.978C76.1331 109.978 75.8843 110.04 75.6663 110.164C75.4513 110.284 75.282 110.46 75.1583 110.689C75.0376 110.919 74.9772 111.197 74.9772 111.524ZM83.4767 115.619C82.9436 115.619 82.4665 115.482 82.0454 115.208C81.6242 114.935 81.2914 114.537 81.047 114.016C80.8025 113.494 80.6803 112.861 80.6803 112.116C80.6803 111.362 80.804 110.726 81.0514 110.208C81.3017 109.686 81.6389 109.293 82.063 109.028C82.4871 108.76 82.9598 108.626 83.4811 108.626C83.8787 108.626 84.2056 108.694 84.4618 108.829C84.718 108.962 84.9212 109.122 85.0714 109.311C85.2216 109.496 85.338 109.672 85.4204 109.837H85.4867V106.453H87.0903V115.5H85.5176V114.431H85.4204C85.338 114.596 85.2187 114.771 85.0626 114.957C84.9065 115.139 84.7003 115.295 84.4441 115.425C84.1879 115.554 83.8654 115.619 83.4767 115.619ZM83.9228 114.307C84.2615 114.307 84.5501 114.216 84.7887 114.033C85.0273 113.848 85.2084 113.59 85.3321 113.26C85.4558 112.93 85.5176 112.546 85.5176 112.107C85.5176 111.668 85.4558 111.287 85.3321 110.963C85.2113 110.639 85.0317 110.387 84.7931 110.208C84.5575 110.028 84.2674 109.938 83.9228 109.938C83.5665 109.938 83.269 110.031 83.0305 110.217C82.7919 110.402 82.6123 110.658 82.4915 110.985C82.3708 111.312 82.3104 111.686 82.3104 112.107C82.3104 112.531 82.3708 112.91 82.4915 113.243C82.6152 113.572 82.7964 113.833 83.0349 114.025C83.2764 114.213 83.5724 114.307 83.9228 114.307ZM97.6539 106.453H99.2928V112.363C99.2928 113.011 99.1397 113.581 98.8334 114.073C98.5301 114.565 98.103 114.949 97.5523 115.226C97.0016 115.5 96.3581 115.637 95.6218 115.637C94.8826 115.637 94.2376 115.5 93.6869 115.226C93.1361 114.949 92.7091 114.565 92.4058 114.073C92.1024 113.581 91.9508 113.011 91.9508 112.363V106.453H93.5897V112.227C93.5897 112.604 93.6722 112.939 93.8371 113.234C94.0049 113.528 94.2406 113.759 94.5439 113.927C94.8472 114.092 95.2065 114.175 95.6218 114.175C96.037 114.175 96.3963 114.092 96.6997 113.927C97.006 113.759 97.2416 113.528 97.4065 113.234C97.5714 112.939 97.6539 112.604 97.6539 112.227V106.453ZM106.367 110.508L104.909 110.667C104.867 110.52 104.795 110.381 104.692 110.252C104.592 110.122 104.457 110.018 104.286 109.938C104.115 109.859 103.906 109.819 103.659 109.819C103.326 109.819 103.046 109.891 102.819 110.035C102.595 110.18 102.485 110.367 102.488 110.596C102.485 110.794 102.557 110.954 102.704 111.078C102.855 111.202 103.102 111.303 103.446 111.383L104.604 111.63C105.246 111.769 105.723 111.988 106.035 112.288C106.35 112.589 106.509 112.982 106.512 113.468C106.509 113.895 106.384 114.272 106.137 114.599C105.892 114.923 105.552 115.176 105.116 115.359C104.68 115.541 104.18 115.633 103.614 115.633C102.784 115.633 102.115 115.459 101.609 115.111C101.102 114.761 100.8 114.273 100.703 113.649L102.263 113.499C102.333 113.805 102.483 114.036 102.713 114.192C102.943 114.348 103.242 114.427 103.61 114.427C103.99 114.427 104.295 114.348 104.524 114.192C104.757 114.036 104.873 113.843 104.873 113.614C104.873 113.419 104.798 113.259 104.648 113.132C104.501 113.006 104.271 112.908 103.959 112.841L102.802 112.598C102.151 112.462 101.669 112.234 101.357 111.913C101.045 111.589 100.89 111.18 100.893 110.685C100.89 110.267 101.004 109.904 101.233 109.598C101.466 109.289 101.788 109.05 102.201 108.882C102.616 108.712 103.095 108.626 103.636 108.626C104.432 108.626 105.057 108.796 105.514 109.134C105.973 109.473 106.258 109.931 106.367 110.508ZM110.835 115.633C110.155 115.633 109.567 115.491 109.072 115.208C108.58 114.923 108.202 114.519 107.937 113.998C107.672 113.474 107.539 112.857 107.539 112.147C107.539 111.449 107.672 110.836 107.937 110.309C108.205 109.779 108.579 109.367 109.059 109.072C109.539 108.775 110.103 108.626 110.751 108.626C111.169 108.626 111.564 108.694 111.935 108.829C112.309 108.962 112.639 109.168 112.924 109.448C113.213 109.728 113.44 110.084 113.605 110.517C113.77 110.947 113.852 111.459 113.852 112.054V112.545H108.29V111.467H112.319C112.316 111.16 112.25 110.888 112.12 110.649C111.991 110.408 111.81 110.218 111.577 110.08C111.347 109.941 111.079 109.872 110.773 109.872C110.446 109.872 110.159 109.951 109.912 110.111C109.664 110.267 109.471 110.473 109.333 110.729C109.197 110.982 109.128 111.261 109.125 111.564V112.505C109.125 112.899 109.197 113.238 109.342 113.521C109.486 113.801 109.688 114.016 109.947 114.166C110.206 114.313 110.51 114.387 110.857 114.387C111.09 114.387 111.3 114.354 111.489 114.29C111.677 114.222 111.841 114.123 111.979 113.994C112.118 113.864 112.222 113.704 112.293 113.512L113.786 113.68C113.692 114.075 113.512 114.419 113.247 114.714C112.985 115.005 112.649 115.232 112.24 115.394C111.83 115.553 111.362 115.633 110.835 115.633ZM115.205 115.5V108.715H116.756V109.845H116.826C116.95 109.454 117.162 109.152 117.462 108.94C117.766 108.725 118.112 108.617 118.501 108.617C118.589 108.617 118.688 108.622 118.797 108.631C118.909 108.637 119.001 108.647 119.075 108.662V110.133C119.007 110.109 118.9 110.088 118.752 110.071C118.608 110.05 118.468 110.04 118.333 110.04C118.041 110.04 117.779 110.103 117.546 110.23C117.317 110.353 117.136 110.526 117.003 110.747C116.871 110.968 116.804 111.222 116.804 111.511V115.5H115.205Z" fill="#43302B"/>
</g>
<path d="M177.101 107.425V106.453H183.886V107.425H181.041V115.5H179.946V107.425H177.101ZM184.731 115.5V108.715H185.738V109.739H185.809C185.933 109.404 186.157 109.131 186.48 108.922C186.804 108.713 187.17 108.609 187.576 108.609C187.653 108.609 187.748 108.61 187.863 108.613C187.978 108.616 188.065 108.62 188.124 108.626V109.686C188.089 109.678 188.008 109.664 187.881 109.647C187.757 109.626 187.626 109.616 187.488 109.616C187.158 109.616 186.863 109.685 186.604 109.823C186.348 109.959 186.145 110.147 185.995 110.389C185.847 110.627 185.774 110.9 185.774 111.206V115.5H184.731ZM191.356 115.659C190.926 115.659 190.536 115.578 190.186 115.416C189.835 115.251 189.557 115.014 189.351 114.705C189.145 114.393 189.042 114.016 189.042 113.574C189.042 113.185 189.118 112.87 189.271 112.629C189.424 112.384 189.629 112.193 189.885 112.054C190.142 111.916 190.424 111.813 190.734 111.745C191.046 111.674 191.359 111.618 191.675 111.577C192.087 111.524 192.421 111.484 192.677 111.458C192.936 111.428 193.125 111.38 193.243 111.312C193.364 111.244 193.424 111.127 193.424 110.959V110.923C193.424 110.487 193.305 110.149 193.066 109.907C192.83 109.666 192.473 109.545 191.993 109.545C191.495 109.545 191.105 109.654 190.822 109.872C190.539 110.09 190.34 110.323 190.226 110.57L189.236 110.217C189.413 109.804 189.648 109.483 189.943 109.253C190.24 109.021 190.564 108.859 190.915 108.768C191.268 108.673 191.616 108.626 191.957 108.626C192.175 108.626 192.425 108.653 192.708 108.706C192.994 108.756 193.269 108.86 193.534 109.019C193.802 109.178 194.025 109.418 194.201 109.739C194.378 110.06 194.466 110.49 194.466 111.029V115.5H193.424V114.581H193.371C193.3 114.728 193.182 114.886 193.017 115.054C192.853 115.222 192.633 115.365 192.359 115.482C192.085 115.6 191.751 115.659 191.356 115.659ZM191.515 114.723C191.928 114.723 192.275 114.642 192.558 114.48C192.844 114.318 193.059 114.108 193.203 113.852C193.35 113.596 193.424 113.327 193.424 113.044V112.09C193.38 112.143 193.283 112.191 193.132 112.235C192.985 112.277 192.814 112.313 192.62 112.346C192.428 112.375 192.241 112.402 192.059 112.425C191.879 112.446 191.733 112.464 191.621 112.478C191.351 112.514 191.097 112.571 190.862 112.651C190.629 112.727 190.441 112.844 190.296 113C190.155 113.153 190.084 113.362 190.084 113.627C190.084 113.989 190.218 114.263 190.486 114.449C190.757 114.631 191.1 114.723 191.515 114.723ZM197.412 111.418V115.5H196.369V108.715H197.377V109.775H197.465C197.624 109.43 197.865 109.153 198.189 108.944C198.513 108.732 198.932 108.626 199.444 108.626C199.903 108.626 200.305 108.72 200.65 108.909C200.995 109.094 201.263 109.377 201.454 109.757C201.645 110.134 201.741 110.611 201.741 111.188V115.5H200.699V111.259C200.699 110.726 200.56 110.311 200.283 110.013C200.006 109.713 199.627 109.563 199.144 109.563C198.811 109.563 198.513 109.635 198.251 109.779C197.992 109.923 197.787 110.134 197.637 110.411C197.487 110.688 197.412 111.023 197.412 111.418ZM208.453 110.234L207.516 110.499C207.457 110.343 207.37 110.192 207.255 110.044C207.144 109.894 206.99 109.77 206.796 109.673C206.602 109.576 206.353 109.527 206.049 109.527C205.634 109.527 205.288 109.623 205.011 109.815C204.737 110.003 204.6 110.243 204.6 110.535C204.6 110.794 204.695 110.998 204.883 111.149C205.072 111.299 205.366 111.424 205.767 111.524L206.774 111.772C207.381 111.919 207.833 112.144 208.13 112.447C208.428 112.748 208.576 113.135 208.576 113.609C208.576 113.998 208.464 114.346 208.241 114.652C208.02 114.958 207.71 115.2 207.313 115.376C206.915 115.553 206.453 115.641 205.926 115.641C205.234 115.641 204.661 115.491 204.207 115.191C203.754 114.89 203.467 114.452 203.346 113.874L204.335 113.627C204.43 113.992 204.608 114.266 204.87 114.449C205.135 114.631 205.481 114.723 205.908 114.723C206.394 114.723 206.78 114.619 207.065 114.413C207.354 114.204 207.498 113.954 207.498 113.662C207.498 113.427 207.416 113.229 207.251 113.07C207.086 112.908 206.833 112.788 206.491 112.708L205.36 112.443C204.739 112.296 204.282 112.068 203.991 111.758C203.702 111.446 203.558 111.056 203.558 110.588C203.558 110.205 203.665 109.866 203.88 109.572C204.098 109.277 204.394 109.046 204.768 108.878C205.145 108.71 205.572 108.626 206.049 108.626C206.721 108.626 207.248 108.773 207.631 109.068C208.017 109.362 208.291 109.751 208.453 110.234ZM213.167 108.715V109.598H209.51V108.715H213.167ZM210.605 115.5V107.778C210.605 107.389 210.696 107.065 210.879 106.806C211.062 106.547 211.299 106.353 211.59 106.223C211.882 106.093 212.19 106.029 212.513 106.029C212.77 106.029 212.979 106.049 213.141 106.09C213.303 106.132 213.424 106.17 213.503 106.205L213.203 107.107C213.15 107.089 213.076 107.067 212.982 107.04C212.89 107.014 212.77 107.001 212.62 107.001C212.275 107.001 212.026 107.087 211.873 107.261C211.723 107.435 211.648 107.69 211.648 108.025V115.5H210.605ZM217.194 115.641C216.54 115.641 215.976 115.497 215.502 115.208C215.031 114.917 214.667 114.51 214.411 113.989C214.158 113.465 214.031 112.855 214.031 112.16C214.031 111.465 214.158 110.853 214.411 110.323C214.667 109.789 215.023 109.374 215.48 109.077C215.939 108.776 216.475 108.626 217.088 108.626C217.441 108.626 217.79 108.685 218.135 108.803C218.479 108.921 218.793 109.112 219.076 109.377C219.359 109.639 219.584 109.987 219.752 110.42C219.92 110.853 220.004 111.386 220.004 112.019V112.461H214.773V111.559H218.943C218.943 111.177 218.867 110.835 218.714 110.535C218.563 110.234 218.348 109.997 218.069 109.823C217.792 109.65 217.465 109.563 217.088 109.563C216.673 109.563 216.313 109.666 216.01 109.872C215.71 110.075 215.478 110.34 215.316 110.667C215.154 110.994 215.073 111.344 215.073 111.719V112.319C215.073 112.832 215.162 113.266 215.339 113.623C215.518 113.976 215.767 114.245 216.085 114.431C216.403 114.614 216.773 114.705 217.194 114.705C217.468 114.705 217.715 114.667 217.936 114.59C218.16 114.51 218.353 114.393 218.515 114.237C218.677 114.078 218.802 113.88 218.89 113.645L219.898 113.927C219.792 114.269 219.613 114.569 219.363 114.829C219.113 115.085 218.803 115.285 218.435 115.429C218.067 115.571 217.653 115.641 217.194 115.641ZM221.589 115.5V108.715H222.597V109.739H222.667C222.791 109.404 223.015 109.131 223.339 108.922C223.663 108.713 224.028 108.609 224.434 108.609C224.511 108.609 224.607 108.61 224.722 108.613C224.836 108.616 224.923 108.62 224.982 108.626V109.686C224.947 109.678 224.866 109.664 224.739 109.647C224.616 109.626 224.484 109.616 224.346 109.616C224.016 109.616 223.722 109.685 223.463 109.823C223.206 109.959 223.003 110.147 222.853 110.389C222.706 110.627 222.632 110.9 222.632 111.206V115.5H221.589ZM229.633 115.5V114.51L232.694 111.339C233.021 110.994 233.291 110.692 233.503 110.433C233.718 110.171 233.878 109.922 233.984 109.686C234.09 109.451 234.143 109.2 234.143 108.935C234.143 108.635 234.073 108.376 233.931 108.158C233.79 107.937 233.597 107.768 233.352 107.65C233.108 107.529 232.833 107.469 232.526 107.469C232.202 107.469 231.92 107.535 231.678 107.668C231.437 107.8 231.251 107.987 231.122 108.229C230.992 108.47 230.927 108.753 230.927 109.077H229.624C229.624 108.526 229.751 108.045 230.004 107.632C230.257 107.22 230.605 106.9 231.046 106.674C231.488 106.444 231.99 106.329 232.553 106.329C233.121 106.329 233.622 106.442 234.055 106.669C234.491 106.893 234.831 107.199 235.075 107.588C235.32 107.974 235.442 108.41 235.442 108.896C235.442 109.231 235.379 109.56 235.252 109.881C235.128 110.202 234.912 110.56 234.603 110.954C234.293 111.346 233.863 111.822 233.313 112.381L231.515 114.263V114.329H235.588V115.5H229.633ZM236.878 113.733V112.629L240.787 106.453H241.658V108.078H241.105L238.309 112.505V112.576H243.668V113.733H236.878ZM241.167 115.5V113.397L241.176 112.894V106.453H242.47V115.5H241.167ZM245.207 115.5V114.51L248.269 111.339C248.595 110.994 248.865 110.692 249.077 110.433C249.292 110.171 249.452 109.922 249.558 109.686C249.665 109.451 249.718 109.2 249.718 108.935C249.718 108.635 249.647 108.376 249.505 108.158C249.364 107.937 249.171 107.768 248.927 107.65C248.682 107.529 248.407 107.469 248.101 107.469C247.777 107.469 247.494 107.535 247.253 107.668C247.011 107.8 246.825 107.987 246.696 108.229C246.566 108.47 246.502 108.753 246.502 109.077H245.198C245.198 108.526 245.325 108.045 245.578 107.632C245.832 107.22 246.179 106.9 246.621 106.674C247.063 106.444 247.565 106.329 248.127 106.329C248.696 106.329 249.196 106.442 249.629 106.669C250.065 106.893 250.405 107.199 250.65 107.588C250.894 107.974 251.016 108.41 251.016 108.896C251.016 109.231 250.953 109.56 250.826 109.881C250.703 110.202 250.486 110.56 250.177 110.954C249.868 111.346 249.438 111.822 248.887 112.381L247.089 114.263V114.329H251.162V115.5H245.207ZM255.823 115.624C255.269 115.624 254.771 115.518 254.33 115.306C253.891 115.091 253.54 114.796 253.278 114.422C253.016 114.048 252.876 113.621 252.858 113.141H254.184C254.216 113.53 254.388 113.849 254.701 114.1C255.013 114.35 255.387 114.475 255.823 114.475C256.17 114.475 256.478 114.396 256.746 114.237C257.017 114.075 257.229 113.852 257.382 113.57C257.538 113.287 257.616 112.964 257.616 112.602C257.616 112.234 257.537 111.906 257.378 111.617C257.219 111.328 256.999 111.102 256.719 110.937C256.443 110.772 256.125 110.688 255.765 110.685C255.491 110.685 255.216 110.732 254.939 110.826C254.662 110.92 254.438 111.044 254.268 111.197L253.017 111.012L253.526 106.453H258.5V107.623H254.661L254.374 110.155H254.427C254.603 109.984 254.838 109.841 255.129 109.726C255.424 109.611 255.739 109.554 256.074 109.554C256.625 109.554 257.116 109.685 257.546 109.947C257.978 110.209 258.319 110.567 258.566 111.021C258.816 111.471 258.94 111.989 258.937 112.576C258.94 113.162 258.807 113.684 258.539 114.144C258.274 114.603 257.906 114.965 257.435 115.231C256.967 115.493 256.429 115.624 255.823 115.624ZM260.551 115.5V114.51L263.612 111.339C263.939 110.994 264.208 110.692 264.42 110.433C264.635 110.171 264.796 109.922 264.902 109.686C265.008 109.451 265.061 109.2 265.061 108.935C265.061 108.635 264.99 108.376 264.849 108.158C264.708 107.937 264.515 107.768 264.27 107.65C264.026 107.529 263.75 107.469 263.444 107.469C263.12 107.469 262.837 107.535 262.596 107.668C262.354 107.8 262.169 107.987 262.039 108.229C261.91 108.47 261.845 108.753 261.845 109.077H260.542C260.542 108.526 260.668 108.045 260.922 107.632C261.175 107.22 261.522 106.9 261.964 106.674C262.406 106.444 262.908 106.329 263.471 106.329C264.039 106.329 264.54 106.442 264.973 106.669C265.409 106.893 265.749 107.199 265.993 107.588C266.238 107.974 266.36 108.41 266.36 108.896C266.36 109.231 266.296 109.56 266.17 109.881C266.046 110.202 265.83 110.56 265.52 110.954C265.211 111.346 264.781 111.822 264.23 112.381L262.433 114.263V114.329H266.506V115.5H260.551ZM271.338 115.624C270.935 115.618 270.537 115.544 270.146 115.403C269.757 115.261 269.404 115.026 269.085 114.696C268.767 114.366 268.513 113.923 268.321 113.366C268.133 112.81 268.038 112.115 268.038 111.281C268.038 110.492 268.117 109.791 268.273 109.178C268.432 108.566 268.66 108.049 268.957 107.628C269.255 107.204 269.614 106.881 270.035 106.66C270.456 106.439 270.929 106.329 271.453 106.329C271.992 106.329 272.471 106.435 272.889 106.647C273.307 106.859 273.646 107.152 273.905 107.526C274.167 107.9 274.334 108.326 274.404 108.803H273.057C272.966 108.426 272.784 108.118 272.514 107.88C272.243 107.641 271.889 107.522 271.453 107.522C270.791 107.522 270.274 107.81 269.903 108.388C269.535 108.965 269.349 109.767 269.346 110.795H269.412C269.568 110.539 269.76 110.321 269.987 110.141C270.216 109.959 270.473 109.819 270.755 109.722C271.041 109.622 271.341 109.572 271.657 109.572C272.181 109.572 272.655 109.7 273.079 109.956C273.506 110.209 273.846 110.56 274.099 111.007C274.353 111.455 274.479 111.967 274.479 112.545C274.479 113.122 274.348 113.645 274.086 114.113C273.827 114.581 273.462 114.952 272.991 115.226C272.519 115.497 271.969 115.63 271.338 115.624ZM271.334 114.475C271.682 114.475 271.992 114.39 272.266 114.219C272.54 114.048 272.756 113.818 272.916 113.53C273.075 113.241 273.154 112.919 273.154 112.562C273.154 112.215 273.076 111.898 272.92 111.613C272.767 111.327 272.555 111.1 272.284 110.932C272.016 110.764 271.71 110.68 271.365 110.68C271.103 110.68 270.86 110.73 270.636 110.831C270.415 110.931 270.221 111.069 270.053 111.246C269.885 111.423 269.753 111.626 269.655 111.855C269.561 112.082 269.514 112.322 269.514 112.576C269.514 112.914 269.592 113.228 269.748 113.516C269.907 113.805 270.124 114.038 270.397 114.214C270.674 114.388 270.986 114.475 271.334 114.475Z" fill="#43302B"/>
<path d="M336.011 114H332.946V104.953H336.073C336.972 104.953 337.743 105.134 338.388 105.496C339.036 105.855 339.534 106.372 339.881 107.047C340.229 107.721 340.403 108.528 340.403 109.468C340.403 110.41 340.227 111.22 339.877 111.897C339.529 112.575 339.027 113.094 338.37 113.457C337.717 113.819 336.93 114 336.011 114ZM334.585 112.582H335.932C336.562 112.582 337.088 112.467 337.509 112.237C337.93 112.005 338.247 111.659 338.459 111.199C338.671 110.737 338.777 110.16 338.777 109.468C338.777 108.775 338.671 108.201 338.459 107.745C338.247 107.285 337.933 106.942 337.518 106.715C337.106 106.486 336.593 106.371 335.981 106.371H334.585V112.582ZM344.893 114.133C344.213 114.133 343.625 113.991 343.13 113.708C342.639 113.423 342.26 113.019 341.995 112.498C341.73 111.974 341.598 111.357 341.598 110.647C341.598 109.949 341.73 109.336 341.995 108.809C342.263 108.279 342.637 107.867 343.117 107.572C343.597 107.275 344.161 107.126 344.809 107.126C345.227 107.126 345.622 107.194 345.993 107.329C346.367 107.462 346.697 107.668 346.983 107.948C347.271 108.228 347.498 108.584 347.663 109.017C347.828 109.447 347.91 109.959 347.91 110.554V111.045H342.349V109.967H346.377C346.374 109.66 346.308 109.388 346.179 109.149C346.049 108.908 345.868 108.718 345.635 108.58C345.405 108.441 345.137 108.372 344.831 108.372C344.504 108.372 344.217 108.451 343.97 108.611C343.722 108.767 343.529 108.973 343.391 109.229C343.256 109.482 343.186 109.761 343.183 110.064V111.005C343.183 111.399 343.256 111.738 343.4 112.021C343.544 112.301 343.746 112.516 344.005 112.666C344.264 112.813 344.568 112.887 344.915 112.887C345.148 112.887 345.358 112.854 345.547 112.79C345.735 112.722 345.899 112.623 346.037 112.494C346.176 112.364 346.28 112.204 346.351 112.012L347.844 112.18C347.75 112.575 347.57 112.919 347.305 113.214C347.043 113.505 346.707 113.732 346.298 113.894C345.888 114.053 345.42 114.133 344.893 114.133ZM350.862 110.024V114H349.263V107.215H350.792V108.368H350.871C351.027 107.988 351.276 107.686 351.618 107.462C351.962 107.238 352.388 107.126 352.894 107.126C353.363 107.126 353.771 107.226 354.118 107.427C354.469 107.627 354.74 107.917 354.931 108.297C355.125 108.677 355.221 109.138 355.218 109.68V114H353.619V109.927C353.619 109.473 353.501 109.119 353.266 108.862C353.033 108.606 352.71 108.478 352.298 108.478C352.018 108.478 351.769 108.54 351.552 108.664C351.337 108.784 351.167 108.96 351.043 109.189C350.923 109.419 350.862 109.697 350.862 110.024ZM357.595 116.545C357.377 116.545 357.175 116.527 356.99 116.492C356.807 116.459 356.661 116.421 356.552 116.377L356.923 115.131C357.156 115.199 357.364 115.231 357.546 115.228C357.729 115.225 357.889 115.168 358.028 115.056C358.169 114.947 358.288 114.764 358.386 114.508L358.522 114.141L356.062 107.215H357.758L359.322 112.339H359.393L360.961 107.215H362.662L359.945 114.822C359.818 115.181 359.65 115.489 359.441 115.745C359.232 116.004 358.976 116.201 358.673 116.337C358.372 116.475 358.013 116.545 357.595 116.545Z" fill="#43302B"/>
<rect x="381" y="94.5" width="67" height="32" rx="4" fill="#F3E7FC"/>
<path d="M391.128 114H389.378L392.563 104.953H394.587L397.776 114H396.027L393.61 106.808H393.54L391.128 114ZM391.185 110.453H395.956V111.769H391.185V110.453ZM398.897 116.545V107.215H400.47V108.337H400.562C400.645 108.172 400.761 107.996 400.911 107.811C401.062 107.622 401.265 107.462 401.521 107.329C401.777 107.194 402.104 107.126 402.502 107.126C403.026 107.126 403.499 107.26 403.92 107.528C404.344 107.793 404.68 108.186 404.927 108.708C405.177 109.226 405.303 109.862 405.303 110.616C405.303 111.361 405.18 111.994 404.936 112.516C404.691 113.037 404.359 113.435 403.937 113.708C403.516 113.982 403.039 114.119 402.506 114.119C402.117 114.119 401.795 114.054 401.539 113.925C401.283 113.795 401.076 113.639 400.92 113.457C400.767 113.271 400.648 113.096 400.562 112.931H400.496V116.545H398.897ZM400.465 110.607C400.465 111.046 400.527 111.43 400.651 111.76C400.777 112.09 400.959 112.348 401.194 112.533C401.433 112.716 401.721 112.807 402.06 112.807C402.413 112.807 402.709 112.713 402.948 112.525C403.186 112.333 403.366 112.072 403.487 111.743C403.611 111.41 403.672 111.031 403.672 110.607C403.672 110.186 403.612 109.812 403.491 109.485C403.371 109.158 403.191 108.902 402.952 108.717C402.714 108.531 402.416 108.438 402.06 108.438C401.718 108.438 401.428 108.528 401.19 108.708C400.951 108.887 400.77 109.139 400.646 109.463C400.526 109.787 400.465 110.168 400.465 110.607ZM406.672 116.545V107.215H408.245V108.337H408.337C408.42 108.172 408.536 107.996 408.686 107.811C408.837 107.622 409.04 107.462 409.296 107.329C409.552 107.194 409.879 107.126 410.277 107.126C410.801 107.126 411.274 107.26 411.695 107.528C412.119 107.793 412.455 108.186 412.702 108.708C412.952 109.226 413.078 109.862 413.078 110.616C413.078 111.361 412.955 111.994 412.711 112.516C412.466 113.037 412.134 113.435 411.712 113.708C411.291 113.982 410.814 114.119 410.281 114.119C409.892 114.119 409.57 114.054 409.314 113.925C409.058 113.795 408.851 113.639 408.695 113.457C408.542 113.271 408.423 113.096 408.337 112.931H408.271V116.545H406.672ZM408.24 110.607C408.24 111.046 408.302 111.43 408.426 111.76C408.552 112.09 408.734 112.348 408.969 112.533C409.208 112.716 409.496 112.807 409.835 112.807C410.188 112.807 410.484 112.713 410.723 112.525C410.961 112.333 411.141 112.072 411.262 111.743C411.386 111.41 411.447 111.031 411.447 110.607C411.447 110.186 411.387 109.812 411.266 109.485C411.146 109.158 410.966 108.902 410.727 108.717C410.489 108.531 410.191 108.438 409.835 108.438C409.493 108.438 409.203 108.528 408.965 108.708C408.726 108.887 408.545 109.139 408.421 109.463C408.301 109.787 408.24 110.168 408.24 110.607ZM414.447 114V107.215H415.998V108.345H416.068C416.192 107.954 416.404 107.652 416.704 107.44C417.008 107.225 417.354 107.117 417.743 107.117C417.831 107.117 417.93 107.122 418.039 107.131C418.15 107.137 418.243 107.147 418.317 107.162V108.633C418.249 108.609 418.142 108.588 417.994 108.571C417.85 108.55 417.71 108.54 417.575 108.54C417.283 108.54 417.021 108.603 416.788 108.73C416.559 108.853 416.377 109.026 416.245 109.247C416.112 109.468 416.046 109.722 416.046 110.011V114H414.447ZM422.06 114.133C421.397 114.133 420.823 113.987 420.337 113.695C419.851 113.404 419.474 112.996 419.206 112.472C418.941 111.947 418.808 111.335 418.808 110.634C418.808 109.933 418.941 109.319 419.206 108.792C419.474 108.264 419.851 107.855 420.337 107.564C420.823 107.272 421.397 107.126 422.06 107.126C422.722 107.126 423.297 107.272 423.783 107.564C424.268 107.855 424.644 108.264 424.909 108.792C425.177 109.319 425.311 109.933 425.311 110.634C425.311 111.335 425.177 111.947 424.909 112.472C424.644 112.996 424.268 113.404 423.783 113.695C423.297 113.987 422.722 114.133 422.06 114.133ZM422.068 112.851C422.428 112.851 422.728 112.753 422.97 112.555C423.211 112.355 423.391 112.087 423.509 111.751C423.629 111.416 423.69 111.042 423.69 110.629C423.69 110.214 423.629 109.839 423.509 109.503C423.391 109.164 423.211 108.895 422.97 108.694C422.728 108.494 422.428 108.394 422.068 108.394C421.7 108.394 421.394 108.494 421.15 108.694C420.908 108.895 420.727 109.164 420.606 109.503C420.488 109.839 420.43 110.214 420.43 110.629C420.43 111.042 420.488 111.416 420.606 111.751C420.727 112.087 420.908 112.355 421.15 112.555C421.394 112.753 421.7 112.851 422.068 112.851ZM432.498 107.215L430.082 114H428.315L425.899 107.215H427.604L429.163 112.255H429.234L430.798 107.215H432.498ZM436.378 114.133C435.698 114.133 435.11 113.991 434.616 113.708C434.124 113.423 433.745 113.019 433.48 112.498C433.215 111.974 433.083 111.357 433.083 110.647C433.083 109.949 433.215 109.336 433.48 108.809C433.748 108.279 434.122 107.867 434.602 107.572C435.082 107.275 435.646 107.126 436.294 107.126C436.712 107.126 437.107 107.194 437.478 107.329C437.852 107.462 438.182 107.668 438.468 107.948C438.756 108.228 438.983 108.584 439.148 109.017C439.313 109.447 439.395 109.959 439.395 110.554V111.045H433.834V109.967H437.863C437.86 109.66 437.793 109.388 437.664 109.149C437.534 108.908 437.353 108.718 437.12 108.58C436.891 108.441 436.623 108.372 436.316 108.372C435.989 108.372 435.702 108.451 435.455 108.611C435.208 108.767 435.015 108.973 434.876 109.229C434.741 109.482 434.672 109.761 434.669 110.064V111.005C434.669 111.399 434.741 111.738 434.885 112.021C435.029 112.301 435.231 112.516 435.49 112.666C435.749 112.813 436.053 112.887 436.4 112.887C436.633 112.887 436.844 112.854 437.032 112.79C437.221 112.722 437.384 112.623 437.522 112.494C437.661 112.364 437.765 112.204 437.836 112.012L439.329 112.18C439.235 112.575 439.055 112.919 438.79 113.214C438.528 113.505 438.192 113.732 437.783 113.894C437.374 114.053 436.905 114.133 436.378 114.133Z" fill="#7011E4"/>
<path d="M60.725 146.351C60.725 145.534 60.915 144.812 61.295 144.185C61.656 143.539 62.1595 143.036 62.8055 142.675C63.4325 142.295 64.1545 142.105 64.9715 142.105H81.0455C81.8625 142.105 82.5845 142.295 83.2115 142.675C83.8575 143.036 84.361 143.539 84.722 144.185C85.102 144.812 85.292 145.534 85.292 146.351V146.408C85.292 147.225 85.102 147.957 84.722 148.603C84.361 149.23 83.8575 149.733 83.2115 150.113C82.5845 150.474 81.8625 150.655 81.0455 150.655H64.9715C64.1545 150.655 63.4325 150.474 62.8055 150.113C62.1595 149.733 61.656 149.23 61.295 148.603C60.915 147.957 60.725 147.225 60.725 146.408V146.351ZM76.7284 146.351C76.7284 145.534 76.9184 144.812 77.2984 144.185C77.6594 143.539 78.1629 143.036 78.8089 142.675C79.4359 142.295 80.1579 142.105 80.9749 142.105H97.0489C97.8659 142.105 98.5879 142.295 99.2149 142.675C99.8609 143.036 100.364 143.539 100.725 144.185C101.105 144.812 101.295 145.534 101.295 146.351V146.408C101.295 147.225 101.105 147.957 100.725 148.603C100.364 149.23 99.8609 149.733 99.2149 150.113C98.5879 150.474 97.8659 150.655 97.0489 150.655H80.9749C80.1579 150.655 79.4359 150.474 78.8089 150.113C78.1629 149.733 77.6594 149.23 77.2984 148.603C76.9184 147.957 76.7284 147.225 76.7284 146.408V146.351ZM92.7318 146.351C92.7318 145.534 92.9218 144.812 93.3018 144.185C93.6628 143.539 94.1663 143.036 94.8123 142.675C95.4393 142.295 96.1613 142.105 96.9783 142.105H113.052C113.869 142.105 114.591 142.295 115.218 142.675C115.864 143.036 116.368 143.539 116.729 144.185C117.109 144.812 117.299 145.534 117.299 146.351V146.408C117.299 147.225 117.109 147.957 116.729 148.603C116.368 149.23 115.864 149.733 115.218 150.113C114.591 150.474 113.869 150.655 113.052 150.655H96.9783C96.1613 150.655 95.4393 150.474 94.8123 150.113C94.1663 149.733 93.6628 149.23 93.3018 148.603C92.9218 147.957 92.7318 147.225 92.7318 146.408V146.351ZM108.735 146.351C108.735 145.534 108.925 144.812 109.305 144.185C109.666 143.539 110.17 143.036 110.816 142.675C111.443 142.295 112.165 142.105 112.982 142.105H121.19C122.007 142.105 122.729 142.295 123.356 142.675C124.002 143.036 124.505 143.539 124.866 144.185C125.246 144.812 125.436 145.534 125.436 146.351V146.408C125.436 147.225 125.246 147.957 124.866 148.603C124.505 149.23 124.002 149.733 123.356 150.113C122.729 150.474 122.007 150.655 121.19 150.655H112.982C112.165 150.655 111.443 150.474 110.816 150.113C110.17 149.733 109.666 149.23 109.305 148.603C108.925 147.957 108.735 147.225 108.735 146.408V146.351Z" fill="#F2E8E4"/>
<path d="M176.225 146.351C176.225 145.534 176.415 144.812 176.795 144.185C177.156 143.539 177.659 143.036 178.305 142.675C178.932 142.295 179.654 142.105 180.471 142.105H188.68C189.497 142.105 190.219 142.295 190.846 142.675C191.492 143.036 191.995 143.539 192.356 144.185C192.736 144.812 192.926 145.534 192.926 146.351V146.408C192.926 147.225 192.736 147.957 192.356 148.603C191.995 149.23 191.492 149.733 190.846 150.113C190.219 150.474 189.497 150.655 188.68 150.655H180.471C179.654 150.655 178.932 150.474 178.305 150.113C177.659 149.733 177.156 149.23 176.795 148.603C176.415 147.957 176.225 147.225 176.225 146.408V146.351ZM184.38 146.351C184.38 145.534 184.57 144.812 184.95 144.185C185.311 143.539 185.814 143.036 186.46 142.675C187.087 142.295 187.809 142.105 188.626 142.105H196.834C197.651 142.105 198.373 142.295 199 142.675C199.646 143.036 200.15 143.539 200.511 144.185C200.891 144.812 201.081 145.534 201.081 146.351V146.408C201.081 147.225 200.891 147.957 200.511 148.603C200.15 149.23 199.646 149.733 199 150.113C198.373 150.474 197.651 150.655 196.834 150.655H188.626C187.809 150.655 187.087 150.474 186.46 150.113C185.814 149.733 185.311 149.23 184.95 148.603C184.57 147.957 184.38 147.225 184.38 146.408V146.351ZM192.535 146.351C192.535 145.534 192.725 144.812 193.105 144.185C193.466 143.539 193.969 143.036 194.615 142.675C195.242 142.295 195.964 142.105 196.781 142.105H212.855C213.672 142.105 214.394 142.295 215.021 142.675C215.667 143.036 216.171 143.539 216.532 144.185C216.912 144.812 217.102 145.534 217.102 146.351V146.408C217.102 147.225 216.912 147.957 216.532 148.603C216.171 149.23 215.667 149.733 215.021 150.113C214.394 150.474 213.672 150.655 212.855 150.655H196.781C195.964 150.655 195.242 150.474 194.615 150.113C193.969 149.733 193.466 149.23 193.105 148.603C192.725 147.957 192.535 147.225 192.535 146.408V146.351ZM208.538 146.351C208.538 145.534 208.728 144.812 209.108 144.185C209.469 143.539 209.972 143.036 210.618 142.675C211.245 142.295 211.967 142.105 212.784 142.105H228.858C229.675 142.105 230.397 142.295 231.024 142.675C231.67 143.036 232.174 143.539 232.535 144.185C232.915 144.812 233.105 145.534 233.105 146.351V146.408C233.105 147.225 232.915 147.957 232.535 148.603C232.174 149.23 231.67 149.733 231.024 150.113C230.397 150.474 229.675 150.655 228.858 150.655H212.784C211.967 150.655 211.245 150.474 210.618 150.113C209.972 149.733 209.469 149.23 209.108 148.603C208.728 147.957 208.538 147.225 208.538 146.408V146.351ZM241.63 146.351C241.63 145.534 241.82 144.812 242.2 144.185C242.561 143.539 243.065 143.036 243.711 142.675C244.338 142.295 245.06 142.105 245.877 142.105H261.951C262.768 142.105 263.49 142.295 264.117 142.675C264.763 143.036 265.266 143.539 265.627 144.185C266.007 144.812 266.197 145.534 266.197 146.351V146.408C266.197 147.225 266.007 147.957 265.627 148.603C265.266 149.23 264.763 149.733 264.117 150.113C263.49 150.474 262.768 150.655 261.951 150.655H245.877C245.06 150.655 244.338 150.474 243.711 150.113C243.065 149.733 242.561 149.23 242.2 148.603C241.82 147.957 241.63 147.225 241.63 146.408V146.351ZM257.634 146.351C257.634 145.534 257.824 144.812 258.204 144.185C258.565 143.539 259.068 143.036 259.714 142.675C260.341 142.295 261.063 142.105 261.88 142.105H277.954C278.771 142.105 279.493 142.295 280.12 142.675C280.766 143.036 281.27 143.539 281.631 144.185C282.011 144.812 282.201 145.534 282.201 146.351V146.408C282.201 147.225 282.011 147.957 281.631 148.603C281.27 149.23 280.766 149.733 280.12 150.113C279.493 150.474 278.771 150.655 277.954 150.655H261.88C261.063 150.655 260.341 150.474 259.714 150.113C259.068 149.733 258.565 149.23 258.204 148.603C257.824 147.957 257.634 147.225 257.634 146.408V146.351Z" fill="#F2E8E4"/>
<path d="M328.222 144.851C328.222 144.034 328.412 143.312 328.792 142.685C329.153 142.039 329.656 141.536 330.302 141.175C330.929 140.795 331.651 140.605 332.468 140.605H348.542C349.359 140.605 350.081 140.795 350.708 141.175C351.354 141.536 351.858 142.039 352.219 142.685C352.599 143.312 352.789 144.034 352.789 144.851V144.908C352.789 145.725 352.599 146.457 352.219 147.103C351.858 147.73 351.354 148.233 350.708 148.613C350.081 148.974 349.359 149.155 348.542 149.155H332.468C331.651 149.155 330.929 148.974 330.302 148.613C329.656 148.233 329.153 147.73 328.792 147.103C328.412 146.457 328.222 145.725 328.222 144.908V144.851ZM344.225 144.851C344.225 144.034 344.415 143.312 344.795 142.685C345.156 142.039 345.659 141.536 346.305 141.175C346.932 140.795 347.654 140.605 348.471 140.605H364.546C365.363 140.605 366.085 140.795 366.712 141.175C367.358 141.536 367.861 142.039 368.222 142.685C368.602 143.312 368.792 144.034 368.792 144.851V144.908C368.792 145.725 368.602 146.457 368.222 147.103C367.861 147.73 367.358 148.233 366.712 148.613C366.085 148.974 365.363 149.155 364.546 149.155H348.471C347.654 149.155 346.932 148.974 346.305 148.613C345.659 148.233 345.156 147.73 344.795 147.103C344.415 146.457 344.225 145.725 344.225 144.908V144.851Z" fill="#F2E8E4"/>
<path d="M387.22 144.851C387.22 144.034 387.41 143.312 387.79 142.685C388.151 142.039 388.654 141.536 389.3 141.175C389.927 140.795 390.649 140.605 391.466 140.605H407.54C408.357 140.605 409.079 140.795 409.706 141.175C410.352 141.536 410.856 142.039 411.217 142.685C411.597 143.312 411.787 144.034 411.787 144.851V144.908C411.787 145.725 411.597 146.457 411.217 147.103C410.856 147.73 410.352 148.233 409.706 148.613C409.079 148.974 408.357 149.155 407.54 149.155H391.466C390.649 149.155 389.927 148.974 389.3 148.613C388.654 148.233 388.151 147.73 387.79 147.103C387.41 146.457 387.22 145.725 387.22 144.908V144.851ZM403.223 144.851C403.223 144.034 403.413 143.312 403.793 142.685C404.154 142.039 404.658 141.536 405.304 141.175C405.931 140.795 406.653 140.605 407.47 140.605H423.544C424.361 140.605 425.083 140.795 425.71 141.175C426.356 141.536 426.859 142.039 427.22 142.685C427.6 143.312 427.79 144.034 427.79 144.851V144.908C427.79 145.725 427.6 146.457 427.22 147.103C426.859 147.73 426.356 148.233 425.71 148.613C425.083 148.974 424.361 149.155 423.544 149.155H407.47C406.653 149.155 405.931 148.974 405.304 148.613C404.658 148.233 404.154 147.73 403.793 147.103C403.413 146.457 403.223 145.725 403.223 144.908V144.851ZM419.227 144.851C419.227 144.034 419.417 143.312 419.797 142.685C420.158 142.039 420.661 141.536 421.307 141.175C421.934 140.795 422.656 140.605 423.473 140.605H439.547C440.364 140.605 441.086 140.795 441.713 141.175C442.359 141.536 442.863 142.039 443.224 142.685C443.604 143.312 443.794 144.034 443.794 144.851V144.908C443.794 145.725 443.604 146.457 443.224 147.103C442.863 147.73 442.359 148.233 441.713 148.613C441.086 148.974 440.364 149.155 439.547 149.155H423.473C422.656 149.155 421.934 148.974 421.307 148.613C420.661 148.233 420.158 147.73 419.797 147.103C419.417 146.457 419.227 145.725 419.227 144.908V144.851Z" fill="#F2E8E4"/>
<path d="M60.725 180.351C60.725 179.534 60.915 178.812 61.295 178.185C61.656 177.539 62.1595 177.036 62.8055 176.675C63.4325 176.295 64.1545 176.105 64.9715 176.105H81.0455C81.8625 176.105 82.5845 176.295 83.2115 176.675C83.8575 177.036 84.361 177.539 84.722 178.185C85.102 178.812 85.292 179.534 85.292 180.351V180.408C85.292 181.225 85.102 181.957 84.722 182.603C84.361 183.23 83.8575 183.733 83.2115 184.113C82.5845 184.474 81.8625 184.655 81.0455 184.655H64.9715C64.1545 184.655 63.4325 184.474 62.8055 184.113C62.1595 183.733 61.656 183.23 61.295 182.603C60.915 181.957 60.725 181.225 60.725 180.408V180.351ZM76.7284 180.351C76.7284 179.534 76.9184 178.812 77.2984 178.185C77.6594 177.539 78.1629 177.036 78.8089 176.675C79.4359 176.295 80.1579 176.105 80.9749 176.105H97.0489C97.8659 176.105 98.5879 176.295 99.2149 176.675C99.8609 177.036 100.364 177.539 100.725 178.185C101.105 178.812 101.295 179.534 101.295 180.351V180.408C101.295 181.225 101.105 181.957 100.725 182.603C100.364 183.23 99.8609 183.733 99.2149 184.113C98.5879 184.474 97.8659 184.655 97.0489 184.655H80.9749C80.1579 184.655 79.4359 184.474 78.8089 184.113C78.1629 183.733 77.6594 183.23 77.2984 182.603C76.9184 181.957 76.7284 181.225 76.7284 180.408V180.351ZM92.7318 180.351C92.7318 179.534 92.9218 178.812 93.3018 178.185C93.6628 177.539 94.1663 177.036 94.8123 176.675C95.4393 176.295 96.1613 176.105 96.9783 176.105H113.052C113.869 176.105 114.591 176.295 115.218 176.675C115.864 177.036 116.368 177.539 116.729 178.185C117.109 178.812 117.299 179.534 117.299 180.351V180.408C117.299 181.225 117.109 181.957 116.729 182.603C116.368 183.23 115.864 183.733 115.218 184.113C114.591 184.474 113.869 184.655 113.052 184.655H96.9783C96.1613 184.655 95.4393 184.474 94.8123 184.113C94.1663 183.733 93.6628 183.23 93.3018 182.603C92.9218 181.957 92.7318 181.225 92.7318 180.408V180.351ZM108.735 180.351C108.735 179.534 108.925 178.812 109.305 178.185C109.666 177.539 110.17 177.036 110.816 176.675C111.443 176.295 112.165 176.105 112.982 176.105H129.056C129.873 176.105 130.595 176.295 131.222 176.675C131.868 177.036 132.371 177.539 132.732 178.185C133.112 178.812 133.302 179.534 133.302 180.351V180.408C133.302 181.225 133.112 181.957 132.732 182.603C132.371 183.23 131.868 183.733 131.222 184.113C130.595 184.474 129.873 184.655 129.056 184.655H112.982C112.165 184.655 111.443 184.474 110.816 184.113C110.17 183.733 109.666 183.23 109.305 182.603C108.925 181.957 108.735 181.225 108.735 180.408V180.351ZM124.739 180.351C124.739 179.534 124.929 178.812 125.309 178.185C125.67 177.539 126.173 177.036 126.819 176.675C127.446 176.295 128.168 176.105 128.985 176.105H137.193C138.01 176.105 138.732 176.295 139.359 176.675C140.005 177.036 140.509 177.539 140.87 178.185C141.25 178.812 141.44 179.534 141.44 180.351V180.408C141.44 181.225 141.25 181.957 140.87 182.603C140.509 183.23 140.005 183.733 139.359 184.113C138.732 184.474 138.01 184.655 137.193 184.655H128.985C128.168 184.655 127.446 184.474 126.819 184.113C126.173 183.733 125.67 183.23 125.309 182.603C124.929 181.957 124.739 181.225 124.739 180.408V180.351Z" fill="#F2E8E4"/>
<path d="M176.225 180.351C176.225 179.534 176.415 178.812 176.795 178.185C177.156 177.539 177.659 177.036 178.305 176.675C178.932 176.295 179.654 176.105 180.471 176.105H188.68C189.497 176.105 190.219 176.295 190.846 176.675C191.492 177.036 191.995 177.539 192.356 178.185C192.736 178.812 192.926 179.534 192.926 180.351V180.408C192.926 181.225 192.736 181.957 192.356 182.603C191.995 183.23 191.492 183.733 190.846 184.113C190.219 184.474 189.497 184.655 188.68 184.655H180.471C179.654 184.655 178.932 184.474 178.305 184.113C177.659 183.733 177.156 183.23 176.795 182.603C176.415 181.957 176.225 181.225 176.225 180.408V180.351ZM184.38 180.351C184.38 179.534 184.57 178.812 184.95 178.185C185.311 177.539 185.814 177.036 186.46 176.675C187.087 176.295 187.809 176.105 188.626 176.105H196.834C197.651 176.105 198.373 176.295 199 176.675C199.646 177.036 200.15 177.539 200.511 178.185C200.891 178.812 201.081 179.534 201.081 180.351V180.408C201.081 181.225 200.891 181.957 200.511 182.603C200.15 183.23 199.646 183.733 199 184.113C198.373 184.474 197.651 184.655 196.834 184.655H188.626C187.809 184.655 187.087 184.474 186.46 184.113C185.814 183.733 185.311 183.23 184.95 182.603C184.57 181.957 184.38 181.225 184.38 180.408V180.351ZM192.535 180.351C192.535 179.534 192.725 178.812 193.105 178.185C193.466 177.539 193.969 177.036 194.615 176.675C195.242 176.295 195.964 176.105 196.781 176.105H212.855C213.672 176.105 214.394 176.295 215.021 176.675C215.667 177.036 216.171 177.539 216.532 178.185C216.912 178.812 217.102 179.534 217.102 180.351V180.408C217.102 181.225 216.912 181.957 216.532 182.603C216.171 183.23 215.667 183.733 215.021 184.113C214.394 184.474 213.672 184.655 212.855 184.655H196.781C195.964 184.655 195.242 184.474 194.615 184.113C193.969 183.733 193.466 183.23 193.105 182.603C192.725 181.957 192.535 181.225 192.535 180.408V180.351ZM208.538 180.351C208.538 179.534 208.728 178.812 209.108 178.185C209.469 177.539 209.972 177.036 210.618 176.675C211.245 176.295 211.967 176.105 212.784 176.105H228.858C229.675 176.105 230.397 176.295 231.024 176.675C231.67 177.036 232.174 177.539 232.535 178.185C232.915 178.812 233.105 179.534 233.105 180.351V180.408C233.105 181.225 232.915 181.957 232.535 182.603C232.174 183.23 231.67 183.733 231.024 184.113C230.397 184.474 229.675 184.655 228.858 184.655H212.784C211.967 184.655 211.245 184.474 210.618 184.113C209.972 183.733 209.469 183.23 209.108 182.603C208.728 181.957 208.538 181.225 208.538 180.408V180.351ZM241.63 180.351C241.63 179.534 241.82 178.812 242.2 178.185C242.561 177.539 243.065 177.036 243.711 176.675C244.338 176.295 245.06 176.105 245.877 176.105H261.951C262.768 176.105 263.49 176.295 264.117 176.675C264.763 177.036 265.266 177.539 265.627 178.185C266.007 178.812 266.197 179.534 266.197 180.351V180.408C266.197 181.225 266.007 181.957 265.627 182.603C265.266 183.23 264.763 183.733 264.117 184.113C263.49 184.474 262.768 184.655 261.951 184.655H245.877C245.06 184.655 244.338 184.474 243.711 184.113C243.065 183.733 242.561 183.23 242.2 182.603C241.82 181.957 241.63 181.225 241.63 180.408V180.351ZM257.634 180.351C257.634 179.534 257.824 178.812 258.204 178.185C258.565 177.539 259.068 177.036 259.714 176.675C260.341 176.295 261.063 176.105 261.88 176.105H277.954C278.771 176.105 279.493 176.295 280.12 176.675C280.766 177.036 281.27 177.539 281.631 178.185C282.011 178.812 282.201 179.534 282.201 180.351V180.408C282.201 181.225 282.011 181.957 281.631 182.603C281.27 183.23 280.766 183.733 280.12 184.113C279.493 184.474 278.771 184.655 277.954 184.655H261.88C261.063 184.655 260.341 184.474 259.714 184.113C259.068 183.733 258.565 183.23 258.204 182.603C257.824 181.957 257.634 181.225 257.634 180.408V180.351Z" fill="#F2E8E4"/>
<path d="M328.222 178.851C328.222 178.034 328.412 177.312 328.792 176.685C329.153 176.039 329.656 175.536 330.302 175.175C330.929 174.795 331.651 174.605 332.468 174.605H348.542C349.359 174.605 350.081 174.795 350.708 175.175C351.354 175.536 351.858 176.039 352.219 176.685C352.599 177.312 352.789 178.034 352.789 178.851V178.908C352.789 179.725 352.599 180.457 352.219 181.103C351.858 181.73 351.354 182.233 350.708 182.613C350.081 182.974 349.359 183.155 348.542 183.155H332.468C331.651 183.155 330.929 182.974 330.302 182.613C329.656 182.233 329.153 181.73 328.792 181.103C328.412 180.457 328.222 179.725 328.222 178.908V178.851ZM344.225 178.851C344.225 178.034 344.415 177.312 344.795 176.685C345.156 176.039 345.659 175.536 346.305 175.175C346.932 174.795 347.654 174.605 348.471 174.605H364.546C365.363 174.605 366.085 174.795 366.712 175.175C367.358 175.536 367.861 176.039 368.222 176.685C368.602 177.312 368.792 178.034 368.792 178.851V178.908C368.792 179.725 368.602 180.457 368.222 181.103C367.861 181.73 367.358 182.233 366.712 182.613C366.085 182.974 365.363 183.155 364.546 183.155H348.471C347.654 183.155 346.932 182.974 346.305 182.613C345.659 182.233 345.156 181.73 344.795 181.103C344.415 180.457 344.225 179.725 344.225 178.908V178.851Z" fill="#F2E8E4"/>
<path d="M387.22 178.851C387.22 178.034 387.41 177.312 387.79 176.685C388.151 176.039 388.654 175.536 389.3 175.175C389.927 174.795 390.649 174.605 391.466 174.605H407.54C408.357 174.605 409.079 174.795 409.706 175.175C410.352 175.536 410.856 176.039 411.217 176.685C411.597 177.312 411.787 178.034 411.787 178.851V178.908C411.787 179.725 411.597 180.457 411.217 181.103C410.856 181.73 410.352 182.233 409.706 182.613C409.079 182.974 408.357 183.155 407.54 183.155H391.466C390.649 183.155 389.927 182.974 389.3 182.613C388.654 182.233 388.151 181.73 387.79 181.103C387.41 180.457 387.22 179.725 387.22 178.908V178.851ZM403.223 178.851C403.223 178.034 403.413 177.312 403.793 176.685C404.154 176.039 404.658 175.536 405.304 175.175C405.931 174.795 406.653 174.605 407.47 174.605H423.544C424.361 174.605 425.083 174.795 425.71 175.175C426.356 175.536 426.859 176.039 427.22 176.685C427.6 177.312 427.79 178.034 427.79 178.851V178.908C427.79 179.725 427.6 180.457 427.22 181.103C426.859 181.73 426.356 182.233 425.71 182.613C425.083 182.974 424.361 183.155 423.544 183.155H407.47C406.653 183.155 405.931 182.974 405.304 182.613C404.658 182.233 404.154 181.73 403.793 181.103C403.413 180.457 403.223 179.725 403.223 178.908V178.851ZM419.227 178.851C419.227 178.034 419.417 177.312 419.797 176.685C420.158 176.039 420.661 175.536 421.307 175.175C421.934 174.795 422.656 174.605 423.473 174.605H439.547C440.364 174.605 441.086 174.795 441.713 175.175C442.359 175.536 442.863 176.039 443.224 176.685C443.604 177.312 443.794 178.034 443.794 178.851V178.908C443.794 179.725 443.604 180.457 443.224 181.103C442.863 181.73 442.359 182.233 441.713 182.613C441.086 182.974 440.364 183.155 439.547 183.155H423.473C422.656 183.155 421.934 182.974 421.307 182.613C420.661 182.233 420.158 181.73 419.797 181.103C419.417 180.457 419.227 179.725 419.227 178.908V178.851Z" fill="#F2E8E4"/>
<path d="M60.725 214.351C60.725 213.534 60.915 212.812 61.295 212.185C61.656 211.539 62.1595 211.036 62.8055 210.675C63.4325 210.295 64.1545 210.105 64.9715 210.105H81.0455C81.8625 210.105 82.5845 210.295 83.2115 210.675C83.8575 211.036 84.361 211.539 84.722 212.185C85.102 212.812 85.292 213.534 85.292 214.351V214.408C85.292 215.225 85.102 215.957 84.722 216.603C84.361 217.23 83.8575 217.733 83.2115 218.113C82.5845 218.474 81.8625 218.655 81.0455 218.655H64.9715C64.1545 218.655 63.4325 218.474 62.8055 218.113C62.1595 217.733 61.656 217.23 61.295 216.603C60.915 215.957 60.725 215.225 60.725 214.408V214.351ZM76.7284 214.351C76.7284 213.534 76.9184 212.812 77.2984 212.185C77.6594 211.539 78.1629 211.036 78.8089 210.675C79.4359 210.295 80.1579 210.105 80.9749 210.105H97.0489C97.8659 210.105 98.5879 210.295 99.2149 210.675C99.8609 211.036 100.364 211.539 100.725 212.185C101.105 212.812 101.295 213.534 101.295 214.351V214.408C101.295 215.225 101.105 215.957 100.725 216.603C100.364 217.23 99.8609 217.733 99.2149 218.113C98.5879 218.474 97.8659 218.655 97.0489 218.655H80.9749C80.1579 218.655 79.4359 218.474 78.8089 218.113C78.1629 217.733 77.6594 217.23 77.2984 216.603C76.9184 215.957 76.7284 215.225 76.7284 214.408V214.351ZM92.7318 214.351C92.7318 213.534 92.9218 212.812 93.3018 212.185C93.6628 211.539 94.1663 211.036 94.8123 210.675C95.4393 210.295 96.1613 210.105 96.9783 210.105H113.052C113.869 210.105 114.591 210.295 115.218 210.675C115.864 211.036 116.368 211.539 116.729 212.185C117.109 212.812 117.299 213.534 117.299 214.351V214.408C117.299 215.225 117.109 215.957 116.729 216.603C116.368 217.23 115.864 217.733 115.218 218.113C114.591 218.474 113.869 218.655 113.052 218.655H96.9783C96.1613 218.655 95.4393 218.474 94.8123 218.113C94.1663 217.733 93.6628 217.23 93.3018 216.603C92.9218 215.957 92.7318 215.225 92.7318 214.408V214.351ZM108.735 214.351C108.735 213.534 108.925 212.812 109.305 212.185C109.666 211.539 110.17 211.036 110.816 210.675C111.443 210.295 112.165 210.105 112.982 210.105H121.19C122.007 210.105 122.729 210.295 123.356 210.675C124.002 211.036 124.505 211.539 124.866 212.185C125.246 212.812 125.436 213.534 125.436 214.351V214.408C125.436 215.225 125.246 215.957 124.866 216.603C124.505 217.23 124.002 217.733 123.356 218.113C122.729 218.474 122.007 218.655 121.19 218.655H112.982C112.165 218.655 111.443 218.474 110.816 218.113C110.17 217.733 109.666 217.23 109.305 216.603C108.925 215.957 108.735 215.225 108.735 214.408V214.351Z" fill="#F2E8E4"/>
<path d="M176.225 214.351C176.225 213.534 176.415 212.812 176.795 212.185C177.156 211.539 177.659 211.036 178.305 210.675C178.932 210.295 179.654 210.105 180.471 210.105H188.68C189.497 210.105 190.219 210.295 190.846 210.675C191.492 211.036 191.995 211.539 192.356 212.185C192.736 212.812 192.926 213.534 192.926 214.351V214.408C192.926 215.225 192.736 215.957 192.356 216.603C191.995 217.23 191.492 217.733 190.846 218.113C190.219 218.474 189.497 218.655 188.68 218.655H180.471C179.654 218.655 178.932 218.474 178.305 218.113C177.659 217.733 177.156 217.23 176.795 216.603C176.415 215.957 176.225 215.225 176.225 214.408V214.351ZM184.38 214.351C184.38 213.534 184.57 212.812 184.95 212.185C185.311 211.539 185.814 211.036 186.46 210.675C187.087 210.295 187.809 210.105 188.626 210.105H196.834C197.651 210.105 198.373 210.295 199 210.675C199.646 211.036 200.15 211.539 200.511 212.185C200.891 212.812 201.081 213.534 201.081 214.351V214.408C201.081 215.225 200.891 215.957 200.511 216.603C200.15 217.23 199.646 217.733 199 218.113C198.373 218.474 197.651 218.655 196.834 218.655H188.626C187.809 218.655 187.087 218.474 186.46 218.113C185.814 217.733 185.311 217.23 184.95 216.603C184.57 215.957 184.38 215.225 184.38 214.408V214.351ZM192.535 214.351C192.535 213.534 192.725 212.812 193.105 212.185C193.466 211.539 193.969 211.036 194.615 210.675C195.242 210.295 195.964 210.105 196.781 210.105H212.855C213.672 210.105 214.394 210.295 215.021 210.675C215.667 211.036 216.171 211.539 216.532 212.185C216.912 212.812 217.102 213.534 217.102 214.351V214.408C217.102 215.225 216.912 215.957 216.532 216.603C216.171 217.23 215.667 217.733 215.021 218.113C214.394 218.474 213.672 218.655 212.855 218.655H196.781C195.964 218.655 195.242 218.474 194.615 218.113C193.969 217.733 193.466 217.23 193.105 216.603C192.725 215.957 192.535 215.225 192.535 214.408V214.351ZM208.538 214.351C208.538 213.534 208.728 212.812 209.108 212.185C209.469 211.539 209.972 211.036 210.618 210.675C211.245 210.295 211.967 210.105 212.784 210.105H228.858C229.675 210.105 230.397 210.295 231.024 210.675C231.67 211.036 232.174 211.539 232.535 212.185C232.915 212.812 233.105 213.534 233.105 214.351V214.408C233.105 215.225 232.915 215.957 232.535 216.603C232.174 217.23 231.67 217.733 231.024 218.113C230.397 218.474 229.675 218.655 228.858 218.655H212.784C211.967 218.655 211.245 218.474 210.618 218.113C209.972 217.733 209.469 217.23 209.108 216.603C208.728 215.957 208.538 215.225 208.538 214.408V214.351ZM241.63 214.351C241.63 213.534 241.82 212.812 242.2 212.185C242.561 211.539 243.065 211.036 243.711 210.675C244.338 210.295 245.06 210.105 245.877 210.105H261.951C262.768 210.105 263.49 210.295 264.117 210.675C264.763 211.036 265.266 211.539 265.627 212.185C266.007 212.812 266.197 213.534 266.197 214.351V214.408C266.197 215.225 266.007 215.957 265.627 216.603C265.266 217.23 264.763 217.733 264.117 218.113C263.49 218.474 262.768 218.655 261.951 218.655H245.877C245.06 218.655 244.338 218.474 243.711 218.113C243.065 217.733 242.561 217.23 242.2 216.603C241.82 215.957 241.63 215.225 241.63 214.408V214.351ZM257.634 214.351C257.634 213.534 257.824 212.812 258.204 212.185C258.565 211.539 259.068 211.036 259.714 210.675C260.341 210.295 261.063 210.105 261.88 210.105H277.954C278.771 210.105 279.493 210.295 280.12 210.675C280.766 211.036 281.27 211.539 281.631 212.185C282.011 212.812 282.201 213.534 282.201 214.351V214.408C282.201 215.225 282.011 215.957 281.631 216.603C281.27 217.23 280.766 217.733 280.12 218.113C279.493 218.474 278.771 218.655 277.954 218.655H261.88C261.063 218.655 260.341 218.474 259.714 218.113C259.068 217.733 258.565 217.23 258.204 216.603C257.824 215.957 257.634 215.225 257.634 214.408V214.351Z" fill="#F2E8E4"/>
<path d="M328.222 212.851C328.222 212.034 328.412 211.312 328.792 210.685C329.153 210.039 329.656 209.536 330.302 209.175C330.929 208.795 331.651 208.605 332.468 208.605H348.542C349.359 208.605 350.081 208.795 350.708 209.175C351.354 209.536 351.858 210.039 352.219 210.685C352.599 211.312 352.789 212.034 352.789 212.851V212.908C352.789 213.725 352.599 214.457 352.219 215.103C351.858 215.73 351.354 216.233 350.708 216.613C350.081 216.974 349.359 217.155 348.542 217.155H332.468C331.651 217.155 330.929 216.974 330.302 216.613C329.656 216.233 329.153 215.73 328.792 215.103C328.412 214.457 328.222 213.725 328.222 212.908V212.851ZM344.225 212.851C344.225 212.034 344.415 211.312 344.795 210.685C345.156 210.039 345.659 209.536 346.305 209.175C346.932 208.795 347.654 208.605 348.471 208.605H364.546C365.363 208.605 366.085 208.795 366.712 209.175C367.358 209.536 367.861 210.039 368.222 210.685C368.602 211.312 368.792 212.034 368.792 212.851V212.908C368.792 213.725 368.602 214.457 368.222 215.103C367.861 215.73 367.358 216.233 366.712 216.613C366.085 216.974 365.363 217.155 364.546 217.155H348.471C347.654 217.155 346.932 216.974 346.305 216.613C345.659 216.233 345.156 215.73 344.795 215.103C344.415 214.457 344.225 213.725 344.225 212.908V212.851Z" fill="#F2E8E4"/>
<path d="M387.22 212.851C387.22 212.034 387.41 211.312 387.79 210.685C388.151 210.039 388.654 209.536 389.3 209.175C389.927 208.795 390.649 208.605 391.466 208.605H407.54C408.357 208.605 409.079 208.795 409.706 209.175C410.352 209.536 410.856 210.039 411.217 210.685C411.597 211.312 411.787 212.034 411.787 212.851V212.908C411.787 213.725 411.597 214.457 411.217 215.103C410.856 215.73 410.352 216.233 409.706 216.613C409.079 216.974 408.357 217.155 407.54 217.155H391.466C390.649 217.155 389.927 216.974 389.3 216.613C388.654 216.233 388.151 215.73 387.79 215.103C387.41 214.457 387.22 213.725 387.22 212.908V212.851ZM403.223 212.851C403.223 212.034 403.413 211.312 403.793 210.685C404.154 210.039 404.658 209.536 405.304 209.175C405.931 208.795 406.653 208.605 407.47 208.605H423.544C424.361 208.605 425.083 208.795 425.71 209.175C426.356 209.536 426.859 210.039 427.22 210.685C427.6 211.312 427.79 212.034 427.79 212.851V212.908C427.79 213.725 427.6 214.457 427.22 215.103C426.859 215.73 426.356 216.233 425.71 216.613C425.083 216.974 424.361 217.155 423.544 217.155H407.47C406.653 217.155 405.931 216.974 405.304 216.613C404.658 216.233 404.154 215.73 403.793 215.103C403.413 214.457 403.223 213.725 403.223 212.908V212.851ZM419.227 212.851C419.227 212.034 419.417 211.312 419.797 210.685C420.158 210.039 420.661 209.536 421.307 209.175C421.934 208.795 422.656 208.605 423.473 208.605H439.547C440.364 208.605 441.086 208.795 441.713 209.175C442.359 209.536 442.863 210.039 443.224 210.685C443.604 211.312 443.794 212.034 443.794 212.851V212.908C443.794 213.725 443.604 214.457 443.224 215.103C442.863 215.73 442.359 216.233 441.713 216.613C441.086 216.974 440.364 217.155 439.547 217.155H423.473C422.656 217.155 421.934 216.974 421.307 216.613C420.661 216.233 420.158 215.73 419.797 215.103C419.417 214.457 419.227 213.725 419.227 212.908V212.851Z" fill="#F2E8E4"/>
<path d="M60.725 248.351C60.725 247.534 60.915 246.812 61.295 246.185C61.656 245.539 62.1595 245.036 62.8055 244.675C63.4325 244.295 64.1545 244.105 64.9715 244.105H81.0455C81.8625 244.105 82.5845 244.295 83.2115 244.675C83.8575 245.036 84.361 245.539 84.722 246.185C85.102 246.812 85.292 247.534 85.292 248.351V248.408C85.292 249.225 85.102 249.957 84.722 250.603C84.361 251.23 83.8575 251.733 83.2115 252.113C82.5845 252.474 81.8625 252.655 81.0455 252.655H64.9715C64.1545 252.655 63.4325 252.474 62.8055 252.113C62.1595 251.733 61.656 251.23 61.295 250.603C60.915 249.957 60.725 249.225 60.725 248.408V248.351ZM93.8173 248.351C93.8173 247.534 94.0073 246.812 94.3873 246.185C94.7483 245.539 95.2518 245.036 95.8978 244.675C96.5248 244.295 97.2468 244.105 98.0638 244.105H114.138C114.955 244.105 115.677 244.295 116.304 244.675C116.95 245.036 117.453 245.539 117.814 246.185C118.194 246.812 118.384 247.534 118.384 248.351V248.408C118.384 249.225 118.194 249.957 117.814 250.603C117.453 251.23 116.95 251.733 116.304 252.113C115.677 252.474 114.955 252.655 114.138 252.655H98.0638C97.2468 252.655 96.5248 252.474 95.8978 252.113C95.2518 251.733 94.7483 251.23 94.3873 250.603C94.0073 249.957 93.8173 249.225 93.8173 248.408V248.351ZM109.821 248.351C109.821 247.534 110.011 246.812 110.391 246.185C110.752 245.539 111.255 245.036 111.901 244.675C112.528 244.295 113.25 244.105 114.067 244.105H122.275C123.092 244.105 123.814 244.295 124.441 244.675C125.087 245.036 125.591 245.539 125.952 246.185C126.332 246.812 126.522 247.534 126.522 248.351V248.408C126.522 249.225 126.332 249.957 125.952 250.603C125.591 251.23 125.087 251.733 124.441 252.113C123.814 252.474 123.092 252.655 122.275 252.655H114.067C113.25 252.655 112.528 252.474 111.901 252.113C111.255 251.733 110.752 251.23 110.391 250.603C110.011 249.957 109.821 249.225 109.821 248.408V248.351Z" fill="#F2E8E4"/>
<path d="M176.225 248.351C176.225 247.534 176.415 246.812 176.795 246.185C177.156 245.539 177.659 245.036 178.305 244.675C178.932 244.295 179.654 244.105 180.471 244.105H188.68C189.497 244.105 190.219 244.295 190.846 244.675C191.492 245.036 191.995 245.539 192.356 246.185C192.736 246.812 192.926 247.534 192.926 248.351V248.408C192.926 249.225 192.736 249.957 192.356 250.603C191.995 251.23 191.492 251.733 190.846 252.113C190.219 252.474 189.497 252.655 188.68 252.655H180.471C179.654 252.655 178.932 252.474 178.305 252.113C177.659 251.733 177.156 251.23 176.795 250.603C176.415 249.957 176.225 249.225 176.225 248.408V248.351ZM184.38 248.351C184.38 247.534 184.57 246.812 184.95 246.185C185.311 245.539 185.814 245.036 186.46 244.675C187.087 244.295 187.809 244.105 188.626 244.105H196.834C197.651 244.105 198.373 244.295 199 244.675C199.646 245.036 200.15 245.539 200.511 246.185C200.891 246.812 201.081 247.534 201.081 248.351V248.408C201.081 249.225 200.891 249.957 200.511 250.603C200.15 251.23 199.646 251.733 199 252.113C198.373 252.474 197.651 252.655 196.834 252.655H188.626C187.809 252.655 187.087 252.474 186.46 252.113C185.814 251.733 185.311 251.23 184.95 250.603C184.57 249.957 184.38 249.225 184.38 248.408V248.351ZM192.535 248.351C192.535 247.534 192.725 246.812 193.105 246.185C193.466 245.539 193.969 245.036 194.615 244.675C195.242 244.295 195.964 244.105 196.781 244.105H212.855C213.672 244.105 214.394 244.295 215.021 244.675C215.667 245.036 216.171 245.539 216.532 246.185C216.912 246.812 217.102 247.534 217.102 248.351V248.408C217.102 249.225 216.912 249.957 216.532 250.603C216.171 251.23 215.667 251.733 215.021 252.113C214.394 252.474 213.672 252.655 212.855 252.655H196.781C195.964 252.655 195.242 252.474 194.615 252.113C193.969 251.733 193.466 251.23 193.105 250.603C192.725 249.957 192.535 249.225 192.535 248.408V248.351ZM208.538 248.351C208.538 247.534 208.728 246.812 209.108 246.185C209.469 245.539 209.972 245.036 210.618 244.675C211.245 244.295 211.967 244.105 212.784 244.105H228.858C229.675 244.105 230.397 244.295 231.024 244.675C231.67 245.036 232.174 245.539 232.535 246.185C232.915 246.812 233.105 247.534 233.105 248.351V248.408C233.105 249.225 232.915 249.957 232.535 250.603C232.174 251.23 231.67 251.733 231.024 252.113C230.397 252.474 229.675 252.655 228.858 252.655H212.784C211.967 252.655 211.245 252.474 210.618 252.113C209.972 251.733 209.469 251.23 209.108 250.603C208.728 249.957 208.538 249.225 208.538 248.408V248.351ZM241.63 248.351C241.63 247.534 241.82 246.812 242.2 246.185C242.561 245.539 243.065 245.036 243.711 244.675C244.338 244.295 245.06 244.105 245.877 244.105H261.951C262.768 244.105 263.49 244.295 264.117 244.675C264.763 245.036 265.266 245.539 265.627 246.185C266.007 246.812 266.197 247.534 266.197 248.351V248.408C266.197 249.225 266.007 249.957 265.627 250.603C265.266 251.23 264.763 251.733 264.117 252.113C263.49 252.474 262.768 252.655 261.951 252.655H245.877C245.06 252.655 244.338 252.474 243.711 252.113C243.065 251.733 242.561 251.23 242.2 250.603C241.82 249.957 241.63 249.225 241.63 248.408V248.351ZM257.634 248.351C257.634 247.534 257.824 246.812 258.204 246.185C258.565 245.539 259.068 245.036 259.714 244.675C260.341 244.295 261.063 244.105 261.88 244.105H277.954C278.771 244.105 279.493 244.295 280.12 244.675C280.766 245.036 281.27 245.539 281.631 246.185C282.011 246.812 282.201 247.534 282.201 248.351V248.408C282.201 249.225 282.011 249.957 281.631 250.603C281.27 251.23 280.766 251.733 280.12 252.113C279.493 252.474 278.771 252.655 277.954 252.655H261.88C261.063 252.655 260.341 252.474 259.714 252.113C259.068 251.733 258.565 251.23 258.204 250.603C257.824 249.957 257.634 249.225 257.634 248.408V248.351Z" fill="#F2E8E4"/>
<path d="M328.222 246.851C328.222 246.034 328.412 245.312 328.792 244.685C329.153 244.039 329.656 243.536 330.302 243.175C330.929 242.795 331.651 242.605 332.468 242.605H348.542C349.359 242.605 350.081 242.795 350.708 243.175C351.354 243.536 351.858 244.039 352.219 244.685C352.599 245.312 352.789 246.034 352.789 246.851V246.908C352.789 247.725 352.599 248.457 352.219 249.103C351.858 249.73 351.354 250.233 350.708 250.613C350.081 250.974 349.359 251.155 348.542 251.155H332.468C331.651 251.155 330.929 250.974 330.302 250.613C329.656 250.233 329.153 249.73 328.792 249.103C328.412 248.457 328.222 247.725 328.222 246.908V246.851ZM344.225 246.851C344.225 246.034 344.415 245.312 344.795 244.685C345.156 244.039 345.659 243.536 346.305 243.175C346.932 242.795 347.654 242.605 348.471 242.605H364.546C365.363 242.605 366.085 242.795 366.712 243.175C367.358 243.536 367.861 244.039 368.222 244.685C368.602 245.312 368.792 246.034 368.792 246.851V246.908C368.792 247.725 368.602 248.457 368.222 249.103C367.861 249.73 367.358 250.233 366.712 250.613C366.085 250.974 365.363 251.155 364.546 251.155H348.471C347.654 251.155 346.932 250.974 346.305 250.613C345.659 250.233 345.156 249.73 344.795 249.103C344.415 248.457 344.225 247.725 344.225 246.908V246.851Z" fill="#F2E8E4"/>
<path d="M387.22 246.851C387.22 246.034 387.41 245.312 387.79 244.685C388.151 244.039 388.654 243.536 389.3 243.175C389.927 242.795 390.649 242.605 391.466 242.605H407.54C408.357 242.605 409.079 242.795 409.706 243.175C410.352 243.536 410.856 244.039 411.217 244.685C411.597 245.312 411.787 246.034 411.787 246.851V246.908C411.787 247.725 411.597 248.457 411.217 249.103C410.856 249.73 410.352 250.233 409.706 250.613C409.079 250.974 408.357 251.155 407.54 251.155H391.466C390.649 251.155 389.927 250.974 389.3 250.613C388.654 250.233 388.151 249.73 387.79 249.103C387.41 248.457 387.22 247.725 387.22 246.908V246.851ZM403.223 246.851C403.223 246.034 403.413 245.312 403.793 244.685C404.154 244.039 404.658 243.536 405.304 243.175C405.931 242.795 406.653 242.605 407.47 242.605H423.544C424.361 242.605 425.083 242.795 425.71 243.175C426.356 243.536 426.859 244.039 427.22 244.685C427.6 245.312 427.79 246.034 427.79 246.851V246.908C427.79 247.725 427.6 248.457 427.22 249.103C426.859 249.73 426.356 250.233 425.71 250.613C425.083 250.974 424.361 251.155 423.544 251.155H407.47C406.653 251.155 405.931 250.974 405.304 250.613C404.658 250.233 404.154 249.73 403.793 249.103C403.413 248.457 403.223 247.725 403.223 246.908V246.851ZM419.227 246.851C419.227 246.034 419.417 245.312 419.797 244.685C420.158 244.039 420.661 243.536 421.307 243.175C421.934 242.795 422.656 242.605 423.473 242.605H439.547C440.364 242.605 441.086 242.795 441.713 243.175C442.359 243.536 442.863 244.039 443.224 244.685C443.604 245.312 443.794 246.034 443.794 246.851V246.908C443.794 247.725 443.604 248.457 443.224 249.103C442.863 249.73 442.359 250.233 441.713 250.613C441.086 250.974 440.364 251.155 439.547 251.155H423.473C422.656 251.155 421.934 250.974 421.307 250.613C420.661 250.233 420.158 249.73 419.797 249.103C419.417 248.457 419.227 247.725 419.227 246.908V246.851Z" fill="#F2E8E4"/>
<path d="M60.725 282.351C60.725 281.534 60.915 280.812 61.295 280.185C61.656 279.539 62.1595 279.036 62.8055 278.675C63.4325 278.295 64.1545 278.105 64.9715 278.105H81.0455C81.8625 278.105 82.5845 278.295 83.2115 278.675C83.8575 279.036 84.361 279.539 84.722 280.185C85.102 280.812 85.292 281.534 85.292 282.351V282.408C85.292 283.225 85.102 283.957 84.722 284.603C84.361 285.23 83.8575 285.733 83.2115 286.113C82.5845 286.474 81.8625 286.655 81.0455 286.655H64.9715C64.1545 286.655 63.4325 286.474 62.8055 286.113C62.1595 285.733 61.656 285.23 61.295 284.603C60.915 283.957 60.725 283.225 60.725 282.408V282.351ZM76.7284 282.351C76.7284 281.534 76.9184 280.812 77.2984 280.185C77.6594 279.539 78.1629 279.036 78.8089 278.675C79.4359 278.295 80.1579 278.105 80.9749 278.105H97.0489C97.8659 278.105 98.5879 278.295 99.2149 278.675C99.8609 279.036 100.364 279.539 100.725 280.185C101.105 280.812 101.295 281.534 101.295 282.351V282.408C101.295 283.225 101.105 283.957 100.725 284.603C100.364 285.23 99.8609 285.733 99.2149 286.113C98.5879 286.474 97.8659 286.655 97.0489 286.655H80.9749C80.1579 286.655 79.4359 286.474 78.8089 286.113C78.1629 285.733 77.6594 285.23 77.2984 284.603C76.9184 283.957 76.7284 283.225 76.7284 282.408V282.351ZM92.7318 282.351C92.7318 281.534 92.9218 280.812 93.3018 280.185C93.6628 279.539 94.1663 279.036 94.8123 278.675C95.4393 278.295 96.1613 278.105 96.9783 278.105H113.052C113.869 278.105 114.591 278.295 115.218 278.675C115.864 279.036 116.368 279.539 116.729 280.185C117.109 280.812 117.299 281.534 117.299 282.351V282.408C117.299 283.225 117.109 283.957 116.729 284.603C116.368 285.23 115.864 285.733 115.218 286.113C114.591 286.474 113.869 286.655 113.052 286.655H96.9783C96.1613 286.655 95.4393 286.474 94.8123 286.113C94.1663 285.733 93.6628 285.23 93.3018 284.603C92.9218 283.957 92.7318 283.225 92.7318 282.408V282.351ZM108.735 282.351C108.735 281.534 108.925 280.812 109.305 280.185C109.666 279.539 110.17 279.036 110.816 278.675C111.443 278.295 112.165 278.105 112.982 278.105H121.19C122.007 278.105 122.729 278.295 123.356 278.675C124.002 279.036 124.505 279.539 124.866 280.185C125.246 280.812 125.436 281.534 125.436 282.351V282.408C125.436 283.225 125.246 283.957 124.866 284.603C124.505 285.23 124.002 285.733 123.356 286.113C122.729 286.474 122.007 286.655 121.19 286.655H112.982C112.165 286.655 111.443 286.474 110.816 286.113C110.17 285.733 109.666 285.23 109.305 284.603C108.925 283.957 108.735 283.225 108.735 282.408V282.351Z" fill="#F2E8E4"/>
<path d="M176.225 282.351C176.225 281.534 176.415 280.812 176.795 280.185C177.156 279.539 177.659 279.036 178.305 278.675C178.932 278.295 179.654 278.105 180.471 278.105H188.68C189.497 278.105 190.219 278.295 190.846 278.675C191.492 279.036 191.995 279.539 192.356 280.185C192.736 280.812 192.926 281.534 192.926 282.351V282.408C192.926 283.225 192.736 283.957 192.356 284.603C191.995 285.23 191.492 285.733 190.846 286.113C190.219 286.474 189.497 286.655 188.68 286.655H180.471C179.654 286.655 178.932 286.474 178.305 286.113C177.659 285.733 177.156 285.23 176.795 284.603C176.415 283.957 176.225 283.225 176.225 282.408V282.351ZM184.38 282.351C184.38 281.534 184.57 280.812 184.95 280.185C185.311 279.539 185.814 279.036 186.46 278.675C187.087 278.295 187.809 278.105 188.626 278.105H196.834C197.651 278.105 198.373 278.295 199 278.675C199.646 279.036 200.15 279.539 200.511 280.185C200.891 280.812 201.081 281.534 201.081 282.351V282.408C201.081 283.225 200.891 283.957 200.511 284.603C200.15 285.23 199.646 285.733 199 286.113C198.373 286.474 197.651 286.655 196.834 286.655H188.626C187.809 286.655 187.087 286.474 186.46 286.113C185.814 285.733 185.311 285.23 184.95 284.603C184.57 283.957 184.38 283.225 184.38 282.408V282.351ZM192.535 282.351C192.535 281.534 192.725 280.812 193.105 280.185C193.466 279.539 193.969 279.036 194.615 278.675C195.242 278.295 195.964 278.105 196.781 278.105H212.855C213.672 278.105 214.394 278.295 215.021 278.675C215.667 279.036 216.171 279.539 216.532 280.185C216.912 280.812 217.102 281.534 217.102 282.351V282.408C217.102 283.225 216.912 283.957 216.532 284.603C216.171 285.23 215.667 285.733 215.021 286.113C214.394 286.474 213.672 286.655 212.855 286.655H196.781C195.964 286.655 195.242 286.474 194.615 286.113C193.969 285.733 193.466 285.23 193.105 284.603C192.725 283.957 192.535 283.225 192.535 282.408V282.351ZM208.538 282.351C208.538 281.534 208.728 280.812 209.108 280.185C209.469 279.539 209.972 279.036 210.618 278.675C211.245 278.295 211.967 278.105 212.784 278.105H228.858C229.675 278.105 230.397 278.295 231.024 278.675C231.67 279.036 232.174 279.539 232.535 280.185C232.915 280.812 233.105 281.534 233.105 282.351V282.408C233.105 283.225 232.915 283.957 232.535 284.603C232.174 285.23 231.67 285.733 231.024 286.113C230.397 286.474 229.675 286.655 228.858 286.655H212.784C211.967 286.655 211.245 286.474 210.618 286.113C209.972 285.733 209.469 285.23 209.108 284.603C208.728 283.957 208.538 283.225 208.538 282.408V282.351ZM241.63 282.351C241.63 281.534 241.82 280.812 242.2 280.185C242.561 279.539 243.065 279.036 243.711 278.675C244.338 278.295 245.06 278.105 245.877 278.105H261.951C262.768 278.105 263.49 278.295 264.117 278.675C264.763 279.036 265.266 279.539 265.627 280.185C266.007 280.812 266.197 281.534 266.197 282.351V282.408C266.197 283.225 266.007 283.957 265.627 284.603C265.266 285.23 264.763 285.733 264.117 286.113C263.49 286.474 262.768 286.655 261.951 286.655H245.877C245.06 286.655 244.338 286.474 243.711 286.113C243.065 285.733 242.561 285.23 242.2 284.603C241.82 283.957 241.63 283.225 241.63 282.408V282.351ZM257.634 282.351C257.634 281.534 257.824 280.812 258.204 280.185C258.565 279.539 259.068 279.036 259.714 278.675C260.341 278.295 261.063 278.105 261.88 278.105H277.954C278.771 278.105 279.493 278.295 280.12 278.675C280.766 279.036 281.27 279.539 281.631 280.185C282.011 280.812 282.201 281.534 282.201 282.351V282.408C282.201 283.225 282.011 283.957 281.631 284.603C281.27 285.23 280.766 285.733 280.12 286.113C279.493 286.474 278.771 286.655 277.954 286.655H261.88C261.063 286.655 260.341 286.474 259.714 286.113C259.068 285.733 258.565 285.23 258.204 284.603C257.824 283.957 257.634 283.225 257.634 282.408V282.351Z" fill="#F2E8E4"/>
<path d="M328.222 280.851C328.222 280.034 328.412 279.312 328.792 278.685C329.153 278.039 329.656 277.536 330.302 277.175C330.929 276.795 331.651 276.605 332.468 276.605H348.542C349.359 276.605 350.081 276.795 350.708 277.175C351.354 277.536 351.858 278.039 352.219 278.685C352.599 279.312 352.789 280.034 352.789 280.851V280.908C352.789 281.725 352.599 282.457 352.219 283.103C351.858 283.73 351.354 284.233 350.708 284.613C350.081 284.974 349.359 285.155 348.542 285.155H332.468C331.651 285.155 330.929 284.974 330.302 284.613C329.656 284.233 329.153 283.73 328.792 283.103C328.412 282.457 328.222 281.725 328.222 280.908V280.851ZM344.225 280.851C344.225 280.034 344.415 279.312 344.795 278.685C345.156 278.039 345.659 277.536 346.305 277.175C346.932 276.795 347.654 276.605 348.471 276.605H364.546C365.363 276.605 366.085 276.795 366.712 277.175C367.358 277.536 367.861 278.039 368.222 278.685C368.602 279.312 368.792 280.034 368.792 280.851V280.908C368.792 281.725 368.602 282.457 368.222 283.103C367.861 283.73 367.358 284.233 366.712 284.613C366.085 284.974 365.363 285.155 364.546 285.155H348.471C347.654 285.155 346.932 284.974 346.305 284.613C345.659 284.233 345.156 283.73 344.795 283.103C344.415 282.457 344.225 281.725 344.225 280.908V280.851Z" fill="#F2E8E4"/>
<path d="M387.22 280.851C387.22 280.034 387.41 279.312 387.79 278.685C388.151 278.039 388.654 277.536 389.3 277.175C389.927 276.795 390.649 276.605 391.466 276.605H407.54C408.357 276.605 409.079 276.795 409.706 277.175C410.352 277.536 410.856 278.039 411.217 278.685C411.597 279.312 411.787 280.034 411.787 280.851V280.908C411.787 281.725 411.597 282.457 411.217 283.103C410.856 283.73 410.352 284.233 409.706 284.613C409.079 284.974 408.357 285.155 407.54 285.155H391.466C390.649 285.155 389.927 284.974 389.3 284.613C388.654 284.233 388.151 283.73 387.79 283.103C387.41 282.457 387.22 281.725 387.22 280.908V280.851ZM403.223 280.851C403.223 280.034 403.413 279.312 403.793 278.685C404.154 278.039 404.658 277.536 405.304 277.175C405.931 276.795 406.653 276.605 407.47 276.605H423.544C424.361 276.605 425.083 276.795 425.71 277.175C426.356 277.536 426.859 278.039 427.22 278.685C427.6 279.312 427.79 280.034 427.79 280.851V280.908C427.79 281.725 427.6 282.457 427.22 283.103C426.859 283.73 426.356 284.233 425.71 284.613C425.083 284.974 424.361 285.155 423.544 285.155H407.47C406.653 285.155 405.931 284.974 405.304 284.613C404.658 284.233 404.154 283.73 403.793 283.103C403.413 282.457 403.223 281.725 403.223 280.908V280.851ZM419.227 280.851C419.227 280.034 419.417 279.312 419.797 278.685C420.158 278.039 420.661 277.536 421.307 277.175C421.934 276.795 422.656 276.605 423.473 276.605H439.547C440.364 276.605 441.086 276.795 441.713 277.175C442.359 277.536 442.863 278.039 443.224 278.685C443.604 279.312 443.794 280.034 443.794 280.851V280.908C443.794 281.725 443.604 282.457 443.224 283.103C442.863 283.73 442.359 284.233 441.713 284.613C441.086 284.974 440.364 285.155 439.547 285.155H423.473C422.656 285.155 421.934 284.974 421.307 284.613C420.661 284.233 420.158 283.73 419.797 283.103C419.417 282.457 419.227 281.725 419.227 280.908V280.851Z" fill="#F2E8E4"/>
</g>
<rect x="45" y="40.5" width="423" height="299" rx="12" stroke="#D3B3FA" stroke-width="4"/>
</g>
<rect x="1" y="1" width="511" height="302" rx="20" stroke="#F2E8E4" stroke-width="2"/>
<defs>
<clipPath id="clip0_12017_901">
<rect x="1" y="1" width="511" height="302" rx="20" fill="white"/>
</clipPath>
<clipPath id="clip1_12017_901">
<rect x="47" y="42.5" width="419" height="295" rx="10" fill="white"/>
</clipPath>
<clipPath id="clip2_12017_901">
<rect width="55" height="16" fill="white" transform="translate(65 102.5)"/>
</clipPath>
</defs>
</svg>
