<svg width="513" height="299" viewBox="0 0 513 299" fill="none" xmlns="http://www.w3.org/2000/svg">
<g clip-path="url(#clip0_12017_975)">
<g filter="url(#filter0_d_12017_975)">
<g clip-path="url(#clip1_12017_975)">
<rect x="-116" y="0.972656" width="631" height="456" rx="10.8397" fill="#FDFCFC"/>
<path d="M-116 0.972656H526.252V29.1558H-116V0.972656Z" fill="#FDFCFC"/>
<rect x="43.3457" y="47.041" width="207.58" height="143.626" rx="4.33587" fill="#F8F1EE"/>
<rect x="60.1445" y="173.865" width="74.7938" height="15.7176" rx="7.85879" transform="rotate(-90 60.1445 173.865)" fill="#FDFCFC"/>
<rect x="87.2441" y="173.865" width="74.7938" height="15.1756" rx="7.58779" transform="rotate(-90 87.2441 173.865)" fill="#FDFCFC"/>
<rect x="113.801" y="173.865" width="53.1144" height="16.2596" rx="8.12978" transform="rotate(-90 113.801 173.865)" fill="#FDFCFC"/>
<rect x="141.441" y="173.865" width="37.9389" height="16.2596" rx="8.12978" transform="rotate(-90 141.441 173.865)" fill="#FDFCFC"/>
<rect x="169.084" y="173.865" width="33.061" height="15.7176" rx="7.85878" transform="rotate(-90 169.084 173.865)" fill="#FDFCFC"/>
<rect x="196.182" y="173.865" width="37.9389" height="15.7176" rx="7.85878" transform="rotate(-90 196.182 173.865)" fill="#FDFCFC"/>
<rect x="223.281" y="173.865" width="20.0534" height="15.7176" rx="7.85878" transform="rotate(-90 223.281 173.865)" fill="#FDFCFC"/>
<rect x="43.3457" y="220.824" width="32.5191" height="32.519" rx="16.2595" fill="#F8F1EE"/>
<rect x="82.3691" y="220.824" width="107.313" height="15.7175" rx="7.85877" fill="#F8F1EE"/>
<rect x="82.3691" y="241.962" width="123.031" height="11.3817" rx="5.69083" fill="#FDF8F6"/>
<rect x="275.311" y="220.824" width="55.8245" height="15.7175" rx="7.85877" fill="#F8F1EE"/>
<rect x="275.311" y="241.962" width="55.8245" height="11.3817" rx="5.69083" fill="#FDF8F6"/>
<rect x="275.311" y="275.879" width="55.8245" height="15.7175" rx="7.85877" fill="#F8F1EE"/>
<rect x="275.311" y="297.017" width="55.8245" height="11.3817" rx="5.69083" fill="#FDF8F6"/>
<rect x="351.459" y="220.824" width="55.2825" height="15.7175" rx="7.85877" fill="#F8F1EE"/>
<rect x="351.459" y="241.962" width="55.2825" height="11.3817" rx="5.69083" fill="#FDF8F6"/>
<rect x="351.459" y="275.879" width="55.2825" height="15.7175" rx="7.85877" fill="#F8F1EE"/>
<rect x="351.459" y="297.017" width="55.2825" height="11.3817" rx="5.69083" fill="#FDF8F6"/>
<rect x="43.3457" y="275.879" width="32.5191" height="32.519" rx="16.2595" fill="#F8F1EE"/>
<rect x="82.3691" y="275.879" width="107.313" height="15.7175" rx="7.85877" fill="#F8F1EE"/>
<rect x="82.3691" y="297.017" width="123.031" height="11.3817" rx="5.69083" fill="#FDF8F6"/>
<rect x="275.311" y="47.041" width="207.58" height="143.626" rx="4.33587" fill="#F8F1EE"/>
<rect x="303.49" y="76.8506" width="151.214" height="12.4656" rx="6.23281" fill="#F2E8E4"/>
<rect x="303.49" y="95.8203" width="151.214" height="11.9236" rx="5.96182" fill="#F2E8E4"/>
<rect x="336.822" y="114.247" width="84.5497" height="12.4656" rx="6.23281" fill="#F2E8E4"/>
<rect x="306.752" y="144.116" width="144.689" height="25.2855" rx="4.33587" fill="#FDFCFC"/>
</g>
<rect x="-115.458" y="1.51464" width="629.916" height="454.916" rx="10.2977" stroke="#D1B9B0" stroke-width="1.08397"/>
</g>
<rect x="90.5" y="19.8398" width="332" height="259.32" rx="6.99886" fill="#FDFCFC"/>
<rect x="90.5" y="19.8398" width="332" height="259.32" rx="6.99886" stroke="#D3B3FA" stroke-width="4"/>
<path d="M191.493 71.8398H189.37L193.235 60.8619H195.69L199.56 71.8398H197.437L194.505 63.1132H194.419L191.493 71.8398ZM191.562 67.5355H197.351V69.1329H191.562V67.5355ZM200.92 74.9274V63.6064H202.828V64.9679H202.941C203.041 64.7678 203.182 64.5551 203.364 64.33C203.547 64.1013 203.793 63.9065 204.104 63.7457C204.415 63.5813 204.812 63.4992 205.294 63.4992C205.93 63.4992 206.504 63.6618 207.015 63.9869C207.529 64.3086 207.937 64.7856 208.237 65.4182C208.541 66.0471 208.693 66.819 208.693 67.7338C208.693 68.6379 208.544 69.4063 208.248 70.0388C207.951 70.6713 207.547 71.1537 207.036 71.4861C206.525 71.8184 205.946 71.9846 205.299 71.9846C204.828 71.9846 204.436 71.906 204.126 71.7487C203.815 71.5915 203.564 71.4021 203.375 71.1805C203.189 70.9554 203.045 70.7428 202.941 70.5426H202.86V74.9274H200.92ZM202.823 67.7231C202.823 68.2556 202.898 68.7219 203.048 69.1222C203.202 69.5224 203.422 69.8351 203.707 70.0602C203.997 70.2818 204.347 70.3926 204.758 70.3926C205.187 70.3926 205.546 70.2782 205.835 70.0495C206.125 69.8172 206.343 69.5009 206.489 69.1007C206.64 68.6969 206.715 68.2377 206.715 67.7231C206.715 67.2121 206.641 66.7582 206.495 66.3616C206.348 65.9649 206.13 65.654 205.841 65.4289C205.551 65.2037 205.19 65.0912 204.758 65.0912C204.344 65.0912 203.992 65.2002 203.702 65.4182C203.413 65.6361 203.193 65.9417 203.043 66.3348C202.896 66.7279 202.823 67.1906 202.823 67.7231ZM210.354 74.9274V63.6064H212.263V64.9679H212.375C212.475 64.7678 212.616 64.5551 212.799 64.33C212.981 64.1013 213.227 63.9065 213.538 63.7457C213.849 63.5813 214.246 63.4992 214.728 63.4992C215.364 63.4992 215.938 63.6618 216.449 63.9869C216.964 64.3086 217.371 64.7856 217.671 65.4182C217.975 66.0471 218.127 66.819 218.127 67.7338C218.127 68.6379 217.978 69.4063 217.682 70.0388C217.385 70.6713 216.981 71.1537 216.47 71.4861C215.959 71.8184 215.38 71.9846 214.734 71.9846C214.262 71.9846 213.871 71.906 213.56 71.7487C213.249 71.5915 212.999 71.4021 212.809 71.1805C212.623 70.9554 212.479 70.7428 212.375 70.5426H212.295V74.9274H210.354ZM212.257 67.7231C212.257 68.2556 212.332 68.7219 212.482 69.1222C212.636 69.5224 212.856 69.8351 213.142 70.0602C213.431 70.2818 213.781 70.3926 214.192 70.3926C214.621 70.3926 214.98 70.2782 215.27 70.0495C215.559 69.8172 215.777 69.5009 215.924 69.1007C216.074 68.6969 216.149 68.2377 216.149 67.7231C216.149 67.2121 216.076 66.7582 215.929 66.3616C215.782 65.9649 215.564 65.654 215.275 65.4289C214.986 65.2037 214.625 65.0912 214.192 65.0912C213.778 65.0912 213.426 65.2002 213.136 65.4182C212.847 65.6361 212.627 65.9417 212.477 66.3348C212.33 66.7279 212.257 67.1906 212.257 67.7231ZM219.788 71.8398V63.6064H221.67V64.9786H221.756C221.906 64.5033 222.163 64.137 222.528 63.8797C222.896 63.6189 223.316 63.4884 223.787 63.4884C223.894 63.4884 224.014 63.4938 224.146 63.5045C224.282 63.5117 224.395 63.5242 224.484 63.542V65.327C224.402 65.2984 224.271 65.2734 224.093 65.252C223.918 65.227 223.748 65.2145 223.584 65.2145C223.23 65.2145 222.912 65.2913 222.629 65.445C222.351 65.595 222.131 65.8041 221.97 66.0721C221.809 66.3401 221.729 66.6492 221.729 66.9995V71.8398H219.788ZM229.026 72.0007C228.222 72.0007 227.525 71.8238 226.935 71.47C226.345 71.1162 225.888 70.6213 225.563 69.9852C225.241 69.3491 225.08 68.6058 225.08 67.7553C225.08 66.9048 225.241 66.1597 225.563 65.52C225.888 64.8803 226.345 64.3836 226.935 64.0298C227.525 63.676 228.222 63.4992 229.026 63.4992C229.83 63.4992 230.527 63.676 231.116 64.0298C231.706 64.3836 232.161 64.8803 232.483 65.52C232.808 66.1597 232.971 66.9048 232.971 67.7553C232.971 68.6058 232.808 69.3491 232.483 69.9852C232.161 70.6213 231.706 71.1162 231.116 71.47C230.527 71.8238 229.83 72.0007 229.026 72.0007ZM229.036 70.4462C229.472 70.4462 229.837 70.3264 230.13 70.087C230.423 69.844 230.641 69.5188 230.784 69.1114C230.93 68.704 231.004 68.2502 231.004 67.7499C231.004 67.246 230.93 66.7904 230.784 66.383C230.641 65.9721 230.423 65.6451 230.13 65.4021C229.837 65.1591 229.472 65.0376 229.036 65.0376C228.59 65.0376 228.218 65.1591 227.921 65.4021C227.628 65.6451 227.409 65.9721 227.262 66.383C227.119 66.7904 227.048 67.246 227.048 67.7499C227.048 68.2502 227.119 68.704 227.262 69.1114C227.409 69.5188 227.628 69.844 227.921 70.087C228.218 70.3264 228.59 70.4462 229.036 70.4462ZM241.692 63.6064L238.76 71.8398H236.616L233.684 63.6064H235.753L237.645 69.7225H237.731L239.628 63.6064H241.692ZM245.168 72.006C244.647 72.006 244.177 71.9131 243.759 71.7273C243.344 71.5379 243.015 71.2591 242.772 70.8911C242.533 70.523 242.413 70.0691 242.413 69.5295C242.413 69.065 242.499 68.6808 242.67 68.3771C242.842 68.0733 243.076 67.8303 243.373 67.6481C243.669 67.4658 244.003 67.3282 244.375 67.2353C244.75 67.1388 245.138 67.0691 245.538 67.0263C246.021 66.9762 246.412 66.9316 246.712 66.8923C247.012 66.8494 247.23 66.785 247.366 66.6993C247.505 66.6099 247.575 66.4724 247.575 66.2865V66.2544C247.575 65.8506 247.455 65.5379 247.216 65.3163C246.977 65.0948 246.632 64.984 246.181 64.984C245.706 64.984 245.329 65.0876 245.05 65.2949C244.775 65.5021 244.589 65.7469 244.493 66.0292L242.681 65.7719C242.824 65.2716 243.06 64.8535 243.389 64.5176C243.717 64.1781 244.119 63.9244 244.595 63.7565C245.07 63.5849 245.595 63.4992 246.171 63.4992C246.567 63.4992 246.962 63.5456 247.355 63.6385C247.748 63.7314 248.108 63.8851 248.433 64.0995C248.758 64.3104 249.019 64.598 249.215 64.9625C249.415 65.327 249.516 65.7827 249.516 66.3294V71.8398H247.65V70.7088H247.586C247.468 70.9375 247.302 71.1519 247.087 71.3521C246.876 71.5486 246.61 71.7076 246.289 71.8291C245.971 71.9471 245.597 72.006 245.168 72.006ZM245.672 70.5802C246.062 70.5802 246.399 70.5033 246.685 70.3497C246.971 70.1924 247.191 69.9852 247.345 69.7279C247.502 69.4706 247.58 69.19 247.58 68.8863V67.9161C247.52 67.9661 247.416 68.0126 247.27 68.0554C247.127 68.0983 246.966 68.1358 246.787 68.168C246.608 68.2002 246.432 68.2288 246.256 68.2538C246.081 68.2788 245.929 68.3002 245.801 68.3181C245.511 68.3574 245.252 68.4217 245.024 68.5111C244.795 68.6004 244.614 68.7255 244.482 68.8863C244.35 69.0435 244.284 69.2472 244.284 69.4974C244.284 69.8547 244.414 70.1245 244.675 70.3068C244.936 70.489 245.268 70.5802 245.672 70.5802ZM253.407 60.8619V71.8398H251.467V60.8619H253.407ZM259.232 71.8398V60.8619H263.349C264.193 60.8619 264.9 61.0084 265.472 61.3014C266.047 61.5945 266.481 62.0054 266.774 62.5343C267.071 63.0596 267.219 63.6725 267.219 64.3729C267.219 65.0769 267.069 65.688 266.769 66.2061C266.473 66.7207 266.035 67.1192 265.456 67.4015C264.877 67.6802 264.166 67.8196 263.322 67.8196H260.39V66.1686H263.054C263.548 66.1686 263.951 66.1007 264.266 65.9649C264.58 65.8255 264.813 65.6236 264.963 65.3592C265.116 65.0912 265.193 64.7624 265.193 64.3729C265.193 63.9834 265.116 63.651 264.963 63.3759C264.809 63.0971 264.575 62.8863 264.26 62.7433C263.946 62.5968 263.54 62.5236 263.044 62.5236H261.221V71.8398H259.232ZM264.904 66.8654L267.621 71.8398H265.402L262.733 66.8654H264.904ZM272.491 72.0007C271.666 72.0007 270.953 71.8291 270.353 71.4861C269.756 71.1394 269.297 70.6498 268.975 70.0173C268.653 69.3812 268.492 68.6326 268.492 67.7713C268.492 66.9244 268.653 66.1811 268.975 65.5414C269.3 64.8982 269.754 64.3979 270.336 64.0406C270.919 63.6796 271.603 63.4992 272.389 63.4992C272.897 63.4992 273.376 63.5813 273.826 63.7457C274.28 63.9065 274.68 64.1567 275.027 64.4962C275.377 64.8357 275.652 65.2681 275.852 65.7934C276.052 66.3151 276.152 66.9369 276.152 67.6588V68.2538H269.404V66.9459H274.292C274.289 66.5742 274.208 66.2437 274.051 65.9542C273.894 65.6612 273.674 65.4307 273.392 65.2627C273.113 65.0948 272.788 65.0108 272.416 65.0108C272.02 65.0108 271.671 65.1073 271.371 65.3002C271.071 65.4896 270.837 65.7398 270.669 66.0507C270.504 66.358 270.42 66.6957 270.417 67.0638V68.2055C270.417 68.6844 270.504 69.0954 270.679 69.4384C270.855 69.7779 271.099 70.0388 271.414 70.221C271.728 70.3997 272.096 70.489 272.518 70.489C272.8 70.489 273.056 70.4497 273.285 70.3711C273.513 70.2889 273.712 70.1692 273.88 70.012C274.048 69.8547 274.174 69.66 274.26 69.4277L276.072 69.6314C275.958 70.1102 275.74 70.5283 275.418 70.8857C275.1 71.2395 274.693 71.5146 274.196 71.7112C273.699 71.9042 273.131 72.0007 272.491 72.0007ZM283.288 74.9274V70.5426H283.208C283.108 70.7428 282.963 70.9554 282.774 71.1805C282.584 71.4021 282.334 71.5915 282.023 71.7487C281.712 71.906 281.321 71.9846 280.849 71.9846C280.203 71.9846 279.624 71.8184 279.113 71.4861C278.602 71.1537 278.198 70.6713 277.901 70.0388C277.605 69.4063 277.456 68.6379 277.456 67.7338C277.456 66.819 277.606 66.0471 277.907 65.4182C278.21 64.7856 278.619 64.3086 279.134 63.9869C279.649 63.6618 280.222 63.4992 280.855 63.4992C281.337 63.4992 281.734 63.5813 282.045 63.7457C282.356 63.9065 282.602 64.1013 282.784 64.33C282.967 64.5551 283.108 64.7678 283.208 64.9679H283.326V63.6064H285.234V74.9274H283.288ZM281.391 70.3926C281.802 70.3926 282.152 70.2818 282.441 70.0602C282.731 69.8351 282.951 69.5224 283.101 69.1222C283.251 68.7219 283.326 68.2556 283.326 67.7231C283.326 67.1906 283.251 66.7279 283.101 66.3348C282.954 65.9417 282.736 65.6361 282.447 65.4182C282.161 65.2002 281.809 65.0912 281.391 65.0912C280.958 65.0912 280.597 65.2037 280.308 65.4289C280.019 65.654 279.801 65.9649 279.654 66.3616C279.508 66.7582 279.434 67.2121 279.434 67.7231C279.434 68.2377 279.508 68.6969 279.654 69.1007C279.804 69.5009 280.024 69.8172 280.313 70.0495C280.606 70.2782 280.966 70.3926 281.391 70.3926ZM292.476 68.3771V63.6064H294.416V71.8398H292.535V70.3765H292.449C292.263 70.8375 291.958 71.2145 291.533 71.5075C291.111 71.8005 290.591 71.9471 289.973 71.9471C289.433 71.9471 288.956 71.8273 288.541 71.5879C288.131 71.3449 287.809 70.9929 287.577 70.5319C287.344 70.0674 287.228 69.5063 287.228 68.8488V63.6064H289.169V68.5486C289.169 69.0703 289.312 69.4849 289.597 69.7922C289.883 70.0995 290.259 70.2532 290.723 70.2532C291.009 70.2532 291.286 70.1835 291.554 70.0441C291.822 69.9048 292.042 69.6975 292.213 69.4223C292.388 69.1436 292.476 68.7952 292.476 68.3771ZM296.412 71.8398V63.6064H298.352V71.8398H296.412ZM297.387 62.4378C297.08 62.4378 296.816 62.336 296.594 62.1323C296.372 61.925 296.262 61.6766 296.262 61.3872C296.262 61.0942 296.372 60.8458 296.594 60.6421C296.816 60.4348 297.08 60.3312 297.387 60.3312C297.698 60.3312 297.963 60.4348 298.181 60.6421C298.402 60.8458 298.513 61.0942 298.513 61.3872C298.513 61.6766 298.402 61.925 298.181 62.1323C297.963 62.336 297.698 62.4378 297.387 62.4378ZM300.348 71.8398V63.6064H302.229V64.9786H302.315C302.465 64.5033 302.722 64.137 303.087 63.8797C303.455 63.6189 303.875 63.4884 304.346 63.4884C304.454 63.4884 304.573 63.4938 304.706 63.5045C304.841 63.5117 304.954 63.5242 305.043 63.542V65.327C304.961 65.2984 304.831 65.2734 304.652 65.252C304.477 65.227 304.307 65.2145 304.143 65.2145C303.789 65.2145 303.471 65.2913 303.189 65.445C302.91 65.595 302.69 65.8041 302.529 66.0721C302.368 66.3401 302.288 66.6492 302.288 66.9995V71.8398H300.348ZM309.638 72.0007C308.813 72.0007 308.1 71.8291 307.5 71.4861C306.903 71.1394 306.444 70.6498 306.122 70.0173C305.8 69.3812 305.64 68.6326 305.64 67.7713C305.64 66.9244 305.8 66.1811 306.122 65.5414C306.447 64.8982 306.901 64.3979 307.484 64.0406C308.066 63.6796 308.75 63.4992 309.537 63.4992C310.044 63.4992 310.523 63.5813 310.973 63.7457C311.427 63.9065 311.827 64.1567 312.174 64.4962C312.524 64.8357 312.799 65.2681 312.999 65.7934C313.199 66.3151 313.3 66.9369 313.3 67.6588V68.2538H306.551V66.9459H311.44C311.436 66.5742 311.356 66.2437 311.198 65.9542C311.041 65.6612 310.821 65.4307 310.539 65.2627C310.26 65.0948 309.935 65.0108 309.563 65.0108C309.167 65.0108 308.818 65.1073 308.518 65.3002C308.218 65.4896 307.984 65.7398 307.816 66.0507C307.652 66.358 307.568 66.6957 307.564 67.0638V68.2055C307.564 68.6844 307.652 69.0954 307.827 69.4384C308.002 69.7779 308.247 70.0388 308.561 70.221C308.875 70.3997 309.244 70.489 309.665 70.489C309.948 70.489 310.203 70.4497 310.432 70.3711C310.66 70.2889 310.859 70.1692 311.027 70.012C311.195 69.8547 311.322 69.66 311.407 69.4277L313.219 69.6314C313.105 70.1102 312.887 70.5283 312.565 70.8857C312.247 71.2395 311.84 71.5146 311.343 71.7112C310.846 71.9042 310.278 72.0007 309.638 72.0007ZM317.997 71.9846C317.35 71.9846 316.771 71.8184 316.26 71.4861C315.749 71.1537 315.345 70.6713 315.048 70.0388C314.752 69.4063 314.603 68.6379 314.603 67.7338C314.603 66.819 314.754 66.0471 315.054 65.4182C315.357 64.7856 315.767 64.3086 316.281 63.9869C316.796 63.6618 317.369 63.4992 318.002 63.4992C318.484 63.4992 318.881 63.5813 319.192 63.7457C319.503 63.9065 319.749 64.1013 319.932 64.33C320.114 64.5551 320.255 64.7678 320.355 64.9679H320.435V60.8619H322.381V71.8398H320.473V70.5426H320.355C320.255 70.7428 320.11 70.9554 319.921 71.1805C319.732 71.4021 319.481 71.5915 319.17 71.7487C318.86 71.906 318.468 71.9846 317.997 71.9846ZM318.538 70.3926C318.949 70.3926 319.299 70.2818 319.589 70.0602C319.878 69.8351 320.098 69.5224 320.248 69.1222C320.398 68.7219 320.473 68.2556 320.473 67.7231C320.473 67.1906 320.398 66.7279 320.248 66.3348C320.101 65.9417 319.883 65.6361 319.594 65.4182C319.308 65.2002 318.956 65.0912 318.538 65.0912C318.106 65.0912 317.745 65.2037 317.455 65.4289C317.166 65.654 316.948 65.9649 316.801 66.3616C316.655 66.7582 316.581 67.2121 316.581 67.7231C316.581 68.2377 316.655 68.6969 316.801 69.1007C316.951 69.5009 317.171 69.8172 317.461 70.0495C317.754 70.2782 318.113 70.3926 318.538 70.3926Z" fill="black"/>
<path d="M168.915 86.1283H170.03L172.651 92.5295H172.741L175.362 86.1283H176.476V93.8398H175.603V87.9809H175.527L173.118 93.8398H172.274L169.864 87.9809H169.789V93.8398H168.915V86.1283ZM179.93 93.9754C179.564 93.9754 179.231 93.9064 178.932 93.7683C178.634 93.6277 178.396 93.4256 178.221 93.1621C178.045 92.896 177.957 92.5747 177.957 92.1981C177.957 91.8668 178.022 91.5982 178.153 91.3923C178.283 91.184 178.458 91.0208 178.676 90.9028C178.895 90.7848 179.136 90.697 179.399 90.6392C179.665 90.579 179.933 90.5313 180.201 90.4962C180.553 90.451 180.838 90.4171 181.056 90.3945C181.277 90.3694 181.438 90.328 181.538 90.2702C181.641 90.2125 181.692 90.1121 181.692 89.969V89.9389C181.692 89.5674 181.591 89.2787 181.387 89.0728C181.187 88.867 180.882 88.7641 180.472 88.7641C180.048 88.7641 179.716 88.8569 179.475 89.0427C179.234 89.2285 179.064 89.4268 178.966 89.6376L178.123 89.3364C178.273 88.985 178.474 88.7113 178.725 88.5155C178.979 88.3172 179.255 88.1792 179.554 88.1014C179.855 88.021 180.151 87.9809 180.442 87.9809C180.628 87.9809 180.841 88.0034 181.082 88.0486C181.326 88.0913 181.561 88.1804 181.787 88.316C182.015 88.4515 182.204 88.6561 182.355 88.9297C182.506 89.2034 182.581 89.5699 182.581 90.0292V93.8398H181.692V93.0566H181.647C181.587 93.1822 181.487 93.3165 181.346 93.4595C181.205 93.6026 181.018 93.7244 180.785 93.8248C180.551 93.9252 180.267 93.9754 179.93 93.9754ZM180.066 93.1771C180.417 93.1771 180.713 93.1081 180.954 92.97C181.198 92.832 181.381 92.6537 181.504 92.4353C181.63 92.2169 181.692 91.9873 181.692 91.7463V90.9329C181.655 90.9781 181.572 91.0195 181.444 91.0572C181.318 91.0923 181.173 91.1237 181.007 91.1513C180.844 91.1764 180.685 91.199 180.529 91.2191C180.376 91.2367 180.251 91.2517 180.156 91.2643C179.925 91.2944 179.709 91.3434 179.508 91.4112C179.31 91.4764 179.149 91.5756 179.026 91.7086C178.906 91.8392 178.846 92.0174 178.846 92.2433C178.846 92.5521 178.96 92.7855 179.188 92.9437C179.419 93.0993 179.712 93.1771 180.066 93.1771ZM185.031 91.7312L185.016 90.6317H185.197L187.727 88.0562H188.827L186.131 90.7823H186.056L185.031 91.7312ZM184.203 93.8398V86.1283H185.092V93.8398H184.203ZM187.878 93.8398L185.619 90.9781L186.251 90.3606L189.008 93.8398H187.878ZM189.971 93.8398V88.0562H190.859V93.8398H189.971ZM190.423 87.0922C190.249 87.0922 190.1 87.0332 189.974 86.9152C189.851 86.7973 189.79 86.6554 189.79 86.4898C189.79 86.3241 189.851 86.1822 189.974 86.0643C190.1 85.9463 190.249 85.8873 190.423 85.8873C190.596 85.8873 190.744 85.9463 190.867 86.0643C190.992 86.1822 191.055 86.3241 191.055 86.4898C191.055 86.6554 190.992 86.7973 190.867 86.9152C190.744 87.0332 190.596 87.0922 190.423 87.0922ZM193.376 90.3606V93.8398H192.487V88.0562H193.345V88.9599H193.421C193.556 88.6662 193.762 88.4302 194.038 88.252C194.314 88.0712 194.671 87.9809 195.108 87.9809C195.499 87.9809 195.842 88.0612 196.136 88.2218C196.429 88.38 196.658 88.621 196.821 88.9448C196.984 89.2661 197.066 89.6728 197.066 90.1648V93.8398H196.177V90.225C196.177 89.7707 196.059 89.4167 195.823 89.1632C195.587 88.9071 195.263 88.7791 194.852 88.7791C194.568 88.7791 194.314 88.8406 194.091 88.9636C193.87 89.0866 193.696 89.2661 193.568 89.5021C193.44 89.7381 193.376 90.0242 193.376 90.3606ZM201.024 96.1292C200.595 96.1292 200.226 96.074 199.917 95.9635C199.608 95.8556 199.351 95.7125 199.145 95.5343C198.942 95.3586 198.78 95.1703 198.659 94.9695L199.367 94.4724C199.448 94.5779 199.549 94.6984 199.672 94.8339C199.795 94.972 199.963 95.0912 200.177 95.1916C200.393 95.2945 200.675 95.346 201.024 95.346C201.491 95.346 201.876 95.233 202.18 95.0071C202.484 94.7812 202.636 94.4272 202.636 93.9453V92.7705H202.56C202.495 92.8759 202.402 93.0064 202.282 93.1621C202.164 93.3152 201.993 93.452 201.77 93.5725C201.549 93.6905 201.25 93.7495 200.873 93.7495C200.407 93.7495 199.987 93.639 199.616 93.4181C199.247 93.1972 198.954 92.8759 198.738 92.4542C198.525 92.0324 198.418 91.5203 198.418 90.9179C198.418 90.3255 198.523 89.8096 198.731 89.3703C198.939 88.9285 199.229 88.5871 199.601 88.3461C199.972 88.1026 200.401 87.9809 200.888 87.9809C201.265 87.9809 201.564 88.0436 201.785 88.1691C202.008 88.2921 202.179 88.4327 202.297 88.5909C202.417 88.7465 202.51 88.8745 202.575 88.9749H202.666V88.0562H203.524V94.0055C203.524 94.5026 203.411 94.9067 203.185 95.218C202.962 95.5318 202.661 95.7615 202.282 95.9071C201.905 96.0552 201.486 96.1292 201.024 96.1292ZM200.994 92.9512C201.35 92.9512 201.652 92.8696 201.898 92.7065C202.144 92.5433 202.331 92.3086 202.459 92.0023C202.587 91.6961 202.651 91.3296 202.651 90.9028C202.651 90.4861 202.588 90.1184 202.462 89.7996C202.337 89.4807 202.151 89.231 201.905 89.0502C201.659 88.8695 201.355 88.7791 200.994 88.7791C200.617 88.7791 200.304 88.8745 200.053 89.0653C199.804 89.2561 199.617 89.5121 199.492 89.8334C199.369 90.1548 199.307 90.5112 199.307 90.9028C199.307 91.3045 199.37 91.6597 199.495 91.9684C199.623 92.2747 199.812 92.5157 200.06 92.6914C200.311 92.8646 200.622 92.9512 200.994 92.9512ZM209.835 93.9754C209.469 93.9754 209.136 93.9064 208.837 93.7683C208.539 93.6277 208.301 93.4256 208.126 93.1621C207.95 92.896 207.862 92.5747 207.862 92.1981C207.862 91.8668 207.927 91.5982 208.058 91.3923C208.188 91.184 208.363 91.0208 208.581 90.9028C208.8 90.7848 209.041 90.697 209.304 90.6392C209.57 90.579 209.838 90.5313 210.106 90.4962C210.458 90.451 210.743 90.4171 210.961 90.3945C211.182 90.3694 211.343 90.328 211.443 90.2702C211.546 90.2125 211.597 90.1121 211.597 89.969V89.9389C211.597 89.5674 211.496 89.2787 211.292 89.0728C211.092 88.867 210.787 88.7641 210.377 88.7641C209.953 88.7641 209.62 88.8569 209.379 89.0427C209.139 89.2285 208.969 89.4268 208.871 89.6376L208.028 89.3364C208.178 88.985 208.379 88.7113 208.63 88.5155C208.884 88.3172 209.16 88.1792 209.459 88.1014C209.76 88.021 210.056 87.9809 210.347 87.9809C210.533 87.9809 210.746 88.0034 210.987 88.0486C211.231 88.0913 211.466 88.1804 211.691 88.316C211.92 88.4515 212.109 88.6561 212.26 88.9297C212.411 89.2034 212.486 89.5699 212.486 90.0292V93.8398H211.597V93.0566H211.552C211.492 93.1822 211.391 93.3165 211.251 93.4595C211.11 93.6026 210.923 93.7244 210.69 93.8248C210.456 93.9252 210.171 93.9754 209.835 93.9754ZM209.971 93.1771C210.322 93.1771 210.618 93.1081 210.859 92.97C211.103 92.832 211.286 92.6537 211.409 92.4353C211.535 92.2169 211.597 91.9873 211.597 91.7463V90.9329C211.56 90.9781 211.477 91.0195 211.349 91.0572C211.223 91.0923 211.078 91.1237 210.912 91.1513C210.749 91.1764 210.589 91.199 210.434 91.2191C210.281 91.2367 210.156 91.2517 210.061 91.2643C209.83 91.2944 209.614 91.3434 209.413 91.4112C209.215 91.4764 209.054 91.5756 208.931 91.7086C208.811 91.8392 208.751 92.0174 208.751 92.2433C208.751 92.5521 208.865 92.7855 209.093 92.9437C209.324 93.0993 209.617 93.1771 209.971 93.1771ZM219.605 88.0562V88.8092H216.608V88.0562H219.605ZM217.482 86.6705H218.37V92.1831C218.37 92.4341 218.407 92.6224 218.48 92.7479C218.555 92.8709 218.65 92.9537 218.766 92.9964C218.884 93.0366 219.008 93.0566 219.139 93.0566C219.236 93.0566 219.317 93.0516 219.379 93.0416C219.442 93.029 219.492 93.019 219.53 93.0115L219.711 93.8097C219.651 93.8323 219.567 93.8549 219.459 93.8775C219.351 93.9026 219.214 93.9152 219.048 93.9152C218.797 93.9152 218.551 93.8612 218.31 93.7532C218.072 93.6453 217.873 93.4809 217.715 93.26C217.56 93.0391 217.482 92.7604 217.482 92.424V86.6705ZM220.942 93.8398V88.0562H221.801V88.9297H221.861C221.966 88.6436 222.157 88.4114 222.433 88.2331C222.709 88.0549 223.021 87.9658 223.367 87.9658C223.432 87.9658 223.514 87.967 223.612 87.9696C223.71 87.9721 223.784 87.9758 223.834 87.9809V88.8846C223.804 88.877 223.735 88.8657 223.627 88.8507C223.521 88.8331 223.41 88.8243 223.292 88.8243C223.011 88.8243 222.76 88.8833 222.539 89.0013C222.32 89.1168 222.147 89.2774 222.019 89.4833C221.894 89.6866 221.831 89.9188 221.831 90.1799V93.8398H220.942ZM226.589 93.9754C226.223 93.9754 225.89 93.9064 225.591 93.7683C225.293 93.6277 225.056 93.4256 224.88 93.1621C224.704 92.896 224.616 92.5747 224.616 92.1981C224.616 91.8668 224.682 91.5982 224.812 91.3923C224.943 91.184 225.117 91.0208 225.335 90.9028C225.554 90.7848 225.795 90.697 226.058 90.6392C226.324 90.579 226.592 90.5313 226.86 90.4962C227.212 90.451 227.497 90.4171 227.715 90.3945C227.936 90.3694 228.097 90.328 228.197 90.2702C228.3 90.2125 228.352 90.1121 228.352 89.969V89.9389C228.352 89.5674 228.25 89.2787 228.047 89.0728C227.846 88.867 227.541 88.7641 227.132 88.7641C226.707 88.7641 226.375 88.8569 226.134 89.0427C225.893 89.2285 225.723 89.4268 225.625 89.6376L224.782 89.3364C224.933 88.985 225.133 88.7113 225.384 88.5155C225.638 88.3172 225.914 88.1792 226.213 88.1014C226.514 88.021 226.81 87.9809 227.101 87.9809C227.287 87.9809 227.501 88.0034 227.742 88.0486C227.985 88.0913 228.22 88.1804 228.446 88.316C228.674 88.4515 228.864 88.6561 229.014 88.9297C229.165 89.2034 229.24 89.5699 229.24 90.0292V93.8398H228.352V93.0566H228.306C228.246 93.1822 228.146 93.3165 228.005 93.4595C227.865 93.6026 227.678 93.7244 227.444 93.8248C227.211 93.9252 226.926 93.9754 226.589 93.9754ZM226.725 93.1771C227.076 93.1771 227.373 93.1081 227.614 92.97C227.857 92.832 228.04 92.6537 228.163 92.4353C228.289 92.2169 228.352 91.9873 228.352 91.7463V90.9329C228.314 90.9781 228.231 91.0195 228.103 91.0572C227.978 91.0923 227.832 91.1237 227.666 91.1513C227.503 91.1764 227.344 91.199 227.188 91.2191C227.035 91.2367 226.911 91.2517 226.815 91.2643C226.584 91.2944 226.368 91.3434 226.168 91.4112C225.969 91.4764 225.809 91.5756 225.686 91.7086C225.565 91.8392 225.505 92.0174 225.505 92.2433C225.505 92.5521 225.619 92.7855 225.848 92.9437C226.078 93.0993 226.371 93.1771 226.725 93.1771ZM231.751 90.3606V93.8398H230.862V88.0562H231.721V88.9599H231.796C231.932 88.6662 232.137 88.4302 232.413 88.252C232.69 88.0712 233.046 87.9809 233.483 87.9809C233.874 87.9809 234.217 88.0612 234.511 88.2218C234.805 88.38 235.033 88.621 235.196 88.9448C235.359 89.2661 235.441 89.6728 235.441 90.1648V93.8398H234.552V90.225C234.552 89.7707 234.434 89.4167 234.198 89.1632C233.962 88.9071 233.638 88.7791 233.227 88.7791C232.943 88.7791 232.69 88.8406 232.466 88.9636C232.245 89.0866 232.071 89.2661 231.943 89.5021C231.815 89.7381 231.751 90.0242 231.751 90.3606ZM241.161 89.3515L240.363 89.5774C240.313 89.4443 240.239 89.3151 240.141 89.1896C240.046 89.0615 239.915 88.9561 239.749 88.8733C239.584 88.7904 239.372 88.749 239.113 88.749C238.759 88.749 238.464 88.8306 238.228 88.9938C237.995 89.1544 237.878 89.359 237.878 89.6075C237.878 89.8284 237.958 90.0029 238.119 90.1309C238.28 90.2589 238.531 90.3656 238.872 90.451L239.731 90.6618C240.248 90.7873 240.633 90.9794 240.887 91.2379C241.14 91.494 241.267 91.8241 241.267 92.2282C241.267 92.5596 241.172 92.8558 240.981 93.1169C240.792 93.378 240.529 93.5838 240.19 93.7344C239.851 93.885 239.457 93.9603 239.008 93.9603C238.418 93.9603 237.93 93.8323 237.543 93.5763C237.156 93.3202 236.912 92.9462 236.809 92.4542L237.652 92.2433C237.732 92.5546 237.884 92.788 238.108 92.9437C238.334 93.0993 238.629 93.1771 238.993 93.1771C239.407 93.1771 239.736 93.0893 239.979 92.9136C240.225 92.7353 240.348 92.5219 240.348 92.2734C240.348 92.0726 240.278 91.9044 240.137 91.7689C239.997 91.6308 239.781 91.5279 239.49 91.4601L238.526 91.2342C237.996 91.1087 237.607 90.9141 237.358 90.6505C237.112 90.3844 236.989 90.0518 236.989 89.6527C236.989 89.3264 237.081 89.0377 237.264 88.7867C237.45 88.5356 237.702 88.3386 238.021 88.1955C238.342 88.0524 238.706 87.9809 239.113 87.9809C239.685 87.9809 240.135 88.1064 240.461 88.3574C240.79 88.6084 241.023 88.9398 241.161 89.3515ZM245.18 88.0562V88.8092H242.062V88.0562H245.18ZM242.996 93.8398V87.2579C242.996 86.9265 243.074 86.6504 243.23 86.4295C243.385 86.2086 243.587 86.0429 243.836 85.9325C244.084 85.822 244.347 85.7668 244.623 85.7668C244.841 85.7668 245.019 85.7844 245.158 85.8195C245.296 85.8547 245.399 85.8873 245.466 85.9174L245.21 86.6856C245.165 86.6705 245.102 86.6517 245.022 86.6291C244.944 86.6065 244.841 86.5952 244.713 86.5952C244.42 86.5952 244.207 86.6692 244.077 86.8173C243.949 86.9654 243.885 87.1826 243.885 87.4688V93.8398H242.996ZM248.612 93.9603C248.055 93.9603 247.574 93.8373 247.17 93.5913C246.768 93.3428 246.458 92.9964 246.24 92.5521C246.024 92.1052 245.916 91.5856 245.916 90.9932C245.916 90.4008 246.024 89.8786 246.24 89.4268C246.458 88.9724 246.762 88.6185 247.151 88.3649C247.543 88.1089 248 87.9809 248.522 87.9809C248.823 87.9809 249.121 88.0311 249.414 88.1315C249.708 88.2319 249.975 88.3951 250.216 88.621C250.457 88.8444 250.649 89.1406 250.792 89.5096C250.936 89.8786 251.007 90.333 251.007 90.8727V91.2492H246.549V90.4811H250.103C250.103 90.1548 250.038 89.8636 249.908 89.6075C249.78 89.3515 249.596 89.1494 249.358 89.0013C249.122 88.8532 248.843 88.7791 248.522 88.7791C248.168 88.7791 247.862 88.867 247.603 89.0427C247.347 89.2159 247.15 89.4418 247.012 89.7205C246.874 89.9991 246.805 90.2978 246.805 90.6166V91.1287C246.805 91.5655 246.88 91.9358 247.031 92.2395C247.184 92.5408 247.396 92.7705 247.667 92.9286C247.938 93.0843 248.253 93.1621 248.612 93.1621C248.846 93.1621 249.057 93.1294 249.245 93.0642C249.436 92.9964 249.6 92.896 249.738 92.7629C249.876 92.6274 249.983 92.4592 250.058 92.2584L250.917 92.4994C250.826 92.7905 250.674 93.0466 250.461 93.2675C250.248 93.4859 249.984 93.6566 249.67 93.7796C249.357 93.9001 249.004 93.9603 248.612 93.9603ZM252.359 93.8398V88.0562H253.217V88.9297H253.278C253.383 88.6436 253.574 88.4114 253.85 88.2331C254.126 88.0549 254.437 87.9658 254.784 87.9658C254.849 87.9658 254.931 87.967 255.029 87.9696C255.126 87.9721 255.201 87.9758 255.251 87.9809V88.8846C255.221 88.877 255.152 88.8657 255.044 88.8507C254.938 88.8331 254.826 88.8243 254.709 88.8243C254.427 88.8243 254.176 88.8833 253.955 89.0013C253.737 89.1168 253.564 89.2774 253.436 89.4833C253.31 89.6866 253.248 89.9188 253.248 90.1799V93.8398H252.359ZM259.286 93.8398V88.0562H260.145V88.9297H260.205C260.31 88.6436 260.501 88.4114 260.777 88.2331C261.054 88.0549 261.365 87.9658 261.711 87.9658C261.777 87.9658 261.858 87.967 261.956 87.9696C262.054 87.9721 262.128 87.9758 262.178 87.9809V88.8846C262.148 88.877 262.079 88.8657 261.971 88.8507C261.866 88.8331 261.754 88.8243 261.636 88.8243C261.355 88.8243 261.104 88.8833 260.883 89.0013C260.664 89.1168 260.491 89.2774 260.363 89.4833C260.238 89.6866 260.175 89.9188 260.175 90.1799V93.8398H259.286ZM265.48 93.9603C264.923 93.9603 264.442 93.8373 264.038 93.5913C263.637 93.3428 263.327 92.9964 263.108 92.5521C262.892 92.1052 262.784 91.5856 262.784 90.9932C262.784 90.4008 262.892 89.8786 263.108 89.4268C263.327 88.9724 263.63 88.6185 264.019 88.3649C264.411 88.1089 264.868 87.9809 265.39 87.9809C265.691 87.9809 265.989 88.0311 266.282 88.1315C266.576 88.2319 266.843 88.3951 267.084 88.621C267.325 88.8444 267.518 89.1406 267.661 89.5096C267.804 89.8786 267.875 90.333 267.875 90.8727V91.2492H263.417V90.4811H266.972C266.972 90.1548 266.906 89.8636 266.776 89.6075C266.648 89.3515 266.464 89.1494 266.226 89.0013C265.99 88.8532 265.711 88.7791 265.39 88.7791C265.036 88.7791 264.73 88.867 264.471 89.0427C264.215 89.2159 264.018 89.4418 263.88 89.7205C263.742 89.9991 263.673 90.2978 263.673 90.6166V91.1287C263.673 91.5655 263.748 91.9358 263.899 92.2395C264.052 92.5408 264.264 92.7705 264.535 92.9286C264.806 93.0843 265.121 93.1621 265.48 93.1621C265.714 93.1621 265.925 93.1294 266.113 93.0642C266.304 92.9964 266.468 92.896 266.606 92.7629C266.744 92.6274 266.851 92.4592 266.926 92.2584L267.785 92.4994C267.694 92.7905 267.543 93.0466 267.329 93.2675C267.116 93.4859 266.852 93.6566 266.538 93.7796C266.225 93.9001 265.872 93.9603 265.48 93.9603ZM273.173 96.0087V92.9512H273.098C273.033 93.0566 272.94 93.1897 272.819 93.3503C272.699 93.5085 272.527 93.6503 272.303 93.7758C272.08 93.8988 271.782 93.9603 271.411 93.9603C270.929 93.9603 270.503 93.8386 270.134 93.5951C269.765 93.3491 269.477 93.0027 269.268 92.5558C269.06 92.1065 268.956 91.5756 268.956 90.9631C268.956 90.3556 269.06 89.8284 269.268 89.3816C269.477 88.9348 269.767 88.5896 270.138 88.3461C270.51 88.1026 270.939 87.9809 271.426 87.9809C271.803 87.9809 272.1 88.0436 272.318 88.1691C272.539 88.2921 272.707 88.4327 272.823 88.5909C272.941 88.7465 273.033 88.8745 273.098 88.9749H273.203V88.0562H274.062V96.0087H273.173ZM271.531 93.1621C271.888 93.1621 272.189 93.0692 272.435 92.8834C272.681 92.6952 272.868 92.4353 272.996 92.104C273.124 91.7701 273.188 91.3848 273.188 90.948C273.188 90.5162 273.125 90.1384 273 89.8146C272.874 89.4883 272.689 89.2347 272.443 89.054C272.197 88.8707 271.893 88.7791 271.531 88.7791C271.155 88.7791 270.841 88.8758 270.59 89.0691C270.342 89.2598 270.155 89.5197 270.029 89.8485C269.906 90.1748 269.845 90.5413 269.845 90.948C269.845 91.3597 269.907 91.7337 270.033 92.0701C270.161 92.404 270.349 92.6701 270.598 92.8684C270.849 93.0642 271.16 93.1621 271.531 93.1621ZM279.333 91.4752V88.0562H280.222V93.8398H279.333V92.8608H279.273C279.138 93.1545 278.927 93.4043 278.641 93.6102C278.354 93.8135 277.993 93.9152 277.556 93.9152C277.195 93.9152 276.873 93.8361 276.592 93.6779C276.311 93.5173 276.09 93.2763 275.929 92.955C275.769 92.6311 275.688 92.2232 275.688 91.7312V88.0562H276.577V91.671C276.577 92.0927 276.695 92.4291 276.931 92.6801C277.17 92.9311 277.473 93.0566 277.842 93.0566C278.063 93.0566 278.288 93.0002 278.516 92.8872C278.747 92.7742 278.941 92.601 279.096 92.3676C279.254 92.1341 279.333 91.8366 279.333 91.4752ZM281.85 93.8398V88.0562H282.738V93.8398H281.85ZM282.301 87.0922C282.128 87.0922 281.979 87.0332 281.853 86.9152C281.73 86.7973 281.669 86.6554 281.669 86.4898C281.669 86.3241 281.73 86.1822 281.853 86.0643C281.979 85.9463 282.128 85.8873 282.301 85.8873C282.475 85.8873 282.623 85.9463 282.746 86.0643C282.871 86.1822 282.934 86.3241 282.934 86.4898C282.934 86.6554 282.871 86.7973 282.746 86.9152C282.623 87.0332 282.475 87.0922 282.301 87.0922ZM284.366 93.8398V88.0562H285.224V88.9297H285.285C285.39 88.6436 285.581 88.4114 285.857 88.2331C286.133 88.0549 286.444 87.9658 286.791 87.9658C286.856 87.9658 286.938 87.967 287.036 87.9696C287.133 87.9721 287.207 87.9758 287.258 87.9809V88.8846C287.228 88.877 287.159 88.8657 287.051 88.8507C286.945 88.8331 286.833 88.8243 286.715 88.8243C286.434 88.8243 286.183 88.8833 285.962 89.0013C285.744 89.1168 285.571 89.2774 285.443 89.4833C285.317 89.6866 285.254 89.9188 285.254 90.1799V93.8398H284.366ZM290.56 93.9603C290.003 93.9603 289.522 93.8373 289.118 93.5913C288.716 93.3428 288.406 92.9964 288.188 92.5521C287.972 92.1052 287.864 91.5856 287.864 90.9932C287.864 90.4008 287.972 89.8786 288.188 89.4268C288.406 88.9724 288.71 88.6185 289.099 88.3649C289.491 88.1089 289.947 87.9809 290.47 87.9809C290.771 87.9809 291.068 88.0311 291.362 88.1315C291.656 88.2319 291.923 88.3951 292.164 88.621C292.405 88.8444 292.597 89.1406 292.74 89.5096C292.883 89.8786 292.955 90.333 292.955 90.8727V91.2492H288.497V90.4811H292.051C292.051 90.1548 291.986 89.8636 291.855 89.6075C291.727 89.3515 291.544 89.1494 291.306 89.0013C291.07 88.8532 290.791 88.7791 290.47 88.7791C290.116 88.7791 289.809 88.867 289.551 89.0427C289.295 89.2159 289.098 89.4418 288.96 89.7205C288.822 89.9991 288.753 90.2978 288.753 90.6166V91.1287C288.753 91.5655 288.828 91.9358 288.978 92.2395C289.132 92.5408 289.344 92.7705 289.615 92.9286C289.886 93.0843 290.201 93.1621 290.56 93.1621C290.793 93.1621 291.004 93.1294 291.193 93.0642C291.383 92.9964 291.548 92.896 291.686 92.7629C291.824 92.6274 291.931 92.4592 292.006 92.2584L292.864 92.4994C292.774 92.7905 292.622 93.0466 292.409 93.2675C292.195 93.4859 291.932 93.6566 291.618 93.7796C291.304 93.9001 290.952 93.9603 290.56 93.9603ZM298.403 89.3515L297.605 89.5774C297.555 89.4443 297.481 89.3151 297.383 89.1896C297.288 89.0615 297.157 88.9561 296.991 88.8733C296.826 88.7904 296.613 88.749 296.355 88.749C296.001 88.749 295.706 88.8306 295.47 88.9938C295.237 89.1544 295.12 89.359 295.12 89.6075C295.12 89.8284 295.2 90.0029 295.361 90.1309C295.522 90.2589 295.773 90.3656 296.114 90.451L296.972 90.6618C297.49 90.7873 297.875 90.9794 298.128 91.2379C298.382 91.494 298.509 91.8241 298.509 92.2282C298.509 92.5596 298.413 92.8558 298.223 93.1169C298.034 93.378 297.771 93.5838 297.432 93.7344C297.093 93.885 296.699 93.9603 296.25 93.9603C295.66 93.9603 295.171 93.8323 294.785 93.5763C294.398 93.3202 294.153 92.9462 294.051 92.4542L294.894 92.2433C294.974 92.5546 295.126 92.788 295.35 92.9437C295.576 93.0993 295.87 93.1771 296.234 93.1771C296.649 93.1771 296.977 93.0893 297.221 92.9136C297.467 92.7353 297.59 92.5219 297.59 92.2734C297.59 92.0726 297.52 91.9044 297.379 91.7689C297.239 91.6308 297.023 91.5279 296.731 91.4601L295.768 91.2342C295.238 91.1087 294.849 90.9141 294.6 90.6505C294.354 90.3844 294.231 90.0518 294.231 89.6527C294.231 89.3264 294.323 89.0377 294.506 88.7867C294.692 88.5356 294.944 88.3386 295.263 88.1955C295.584 88.0524 295.948 87.9809 296.355 87.9809C296.927 87.9809 297.377 88.1064 297.703 88.3574C298.032 88.6084 298.265 88.9398 298.403 89.3515ZM304.531 93.9754C304.164 93.9754 303.831 93.9064 303.533 93.7683C303.234 93.6277 302.997 93.4256 302.821 93.1621C302.645 92.896 302.558 92.5747 302.558 92.1981C302.558 91.8668 302.623 91.5982 302.753 91.3923C302.884 91.184 303.058 91.0208 303.277 90.9028C303.495 90.7848 303.736 90.697 304 90.6392C304.266 90.579 304.533 90.5313 304.802 90.4962C305.153 90.451 305.438 90.4171 305.656 90.3945C305.877 90.3694 306.038 90.328 306.138 90.2702C306.241 90.2125 306.293 90.1121 306.293 89.969V89.9389C306.293 89.5674 306.191 89.2787 305.988 89.0728C305.787 88.867 305.482 88.7641 305.073 88.7641C304.649 88.7641 304.316 88.8569 304.075 89.0427C303.834 89.2285 303.665 89.4268 303.567 89.6376L302.723 89.3364C302.874 88.985 303.075 88.7113 303.326 88.5155C303.579 88.3172 303.855 88.1792 304.154 88.1014C304.455 88.021 304.752 87.9809 305.043 87.9809C305.228 87.9809 305.442 88.0034 305.683 88.0486C305.926 88.0913 306.161 88.1804 306.387 88.316C306.615 88.4515 306.805 88.6561 306.956 88.9297C307.106 89.2034 307.181 89.5699 307.181 90.0292V93.8398H306.293V93.0566H306.248C306.187 93.1822 306.087 93.3165 305.946 93.4595C305.806 93.6026 305.619 93.7244 305.385 93.8248C305.152 93.9252 304.867 93.9754 304.531 93.9754ZM304.666 93.1771C305.018 93.1771 305.314 93.1081 305.555 92.97C305.798 92.832 305.982 92.6537 306.105 92.4353C306.23 92.2169 306.293 91.9873 306.293 91.7463V90.9329C306.255 90.9781 306.172 91.0195 306.044 91.0572C305.919 91.0923 305.773 91.1237 305.608 91.1513C305.444 91.1764 305.285 91.199 305.129 91.2191C304.976 91.2367 304.852 91.2517 304.757 91.2643C304.526 91.2944 304.31 91.3434 304.109 91.4112C303.911 91.4764 303.75 91.5756 303.627 91.7086C303.506 91.8392 303.446 92.0174 303.446 92.2433C303.446 92.5521 303.56 92.7855 303.789 92.9437C304.02 93.0993 304.312 93.1771 304.666 93.1771ZM308.803 96.0087V88.0562H309.662V88.9749H309.767C309.833 88.8745 309.923 88.7465 310.038 88.5909C310.156 88.4327 310.325 88.2921 310.543 88.1691C310.764 88.0436 311.063 87.9809 311.439 87.9809C311.926 87.9809 312.355 88.1026 312.727 88.3461C313.098 88.5896 313.388 88.9348 313.597 89.3816C313.805 89.8284 313.909 90.3556 313.909 90.9631C313.909 91.5756 313.805 92.1065 313.597 92.5558C313.388 93.0027 313.1 93.3491 312.731 93.5951C312.362 93.8386 311.936 93.9603 311.454 93.9603C311.083 93.9603 310.785 93.8988 310.562 93.7758C310.338 93.6503 310.166 93.5085 310.046 93.3503C309.926 93.1897 309.833 93.0566 309.767 92.9512H309.692V96.0087H308.803ZM309.677 90.948C309.677 91.3848 309.741 91.7701 309.869 92.104C309.997 92.4353 310.184 92.6952 310.43 92.8834C310.676 93.0692 310.977 93.1621 311.334 93.1621C311.705 93.1621 312.015 93.0642 312.264 92.8684C312.515 92.6701 312.703 92.404 312.829 92.0701C312.957 91.7337 313.021 91.3597 313.021 90.948C313.021 90.5413 312.958 90.1748 312.832 89.8485C312.709 89.5197 312.522 89.2598 312.271 89.0691C312.023 88.8758 311.71 88.7791 311.334 88.7791C310.972 88.7791 310.669 88.8707 310.423 89.054C310.177 89.2347 309.991 89.4883 309.865 89.8146C309.74 90.1384 309.677 90.5162 309.677 90.948ZM315.265 96.0087V88.0562H316.123V88.9749H316.229C316.294 88.8745 316.384 88.7465 316.5 88.5909C316.618 88.4327 316.786 88.2921 317.004 88.1691C317.225 88.0436 317.524 87.9809 317.901 87.9809C318.388 87.9809 318.817 88.1026 319.188 88.3461C319.56 88.5896 319.85 88.9348 320.058 89.3816C320.267 89.8284 320.371 90.3556 320.371 90.9631C320.371 91.5756 320.267 92.1065 320.058 92.5558C319.85 93.0027 319.561 93.3491 319.192 93.5951C318.823 93.8386 318.398 93.9603 317.916 93.9603C317.544 93.9603 317.247 93.8988 317.023 93.7758C316.8 93.6503 316.628 93.5085 316.507 93.3503C316.387 93.1897 316.294 93.0566 316.229 92.9512H316.154V96.0087H315.265ZM316.138 90.948C316.138 91.3848 316.202 91.7701 316.33 92.104C316.459 92.4353 316.646 92.6952 316.892 92.8834C317.138 93.0692 317.439 93.1621 317.795 93.1621C318.167 93.1621 318.477 93.0642 318.725 92.8684C318.976 92.6701 319.165 92.404 319.29 92.0701C319.418 91.7337 319.482 91.3597 319.482 90.948C319.482 90.5413 319.419 90.1748 319.294 89.8485C319.171 89.5197 318.984 89.2598 318.733 89.0691C318.484 88.8758 318.172 88.7791 317.795 88.7791C317.434 88.7791 317.13 88.8707 316.884 89.054C316.638 89.2347 316.452 89.4883 316.327 89.8146C316.201 90.1384 316.138 90.5162 316.138 90.948ZM321.726 93.8398V88.0562H322.585V88.9297H322.645C322.751 88.6436 322.941 88.4114 323.217 88.2331C323.494 88.0549 323.805 87.9658 324.151 87.9658C324.217 87.9658 324.298 87.967 324.396 87.9696C324.494 87.9721 324.568 87.9758 324.618 87.9809V88.8846C324.588 88.877 324.519 88.8657 324.411 88.8507C324.306 88.8331 324.194 88.8243 324.076 88.8243C323.795 88.8243 323.544 88.8833 323.323 89.0013C323.104 89.1168 322.931 89.2774 322.803 89.4833C322.678 89.6866 322.615 89.9188 322.615 90.1799V93.8398H321.726ZM327.845 93.9603C327.323 93.9603 326.865 93.8361 326.471 93.5876C326.079 93.339 325.773 92.9914 325.552 92.5445C325.334 92.0977 325.224 91.5756 325.224 90.9781C325.224 90.3757 325.334 89.8498 325.552 89.4004C325.773 88.9511 326.079 88.6022 326.471 88.3536C326.865 88.1051 327.323 87.9809 327.845 87.9809C328.367 87.9809 328.824 88.1051 329.216 88.3536C329.61 88.6022 329.916 88.9511 330.134 89.4004C330.355 89.8498 330.466 90.3757 330.466 90.9781C330.466 91.5756 330.355 92.0977 330.134 92.5445C329.916 92.9914 329.61 93.339 329.216 93.5876C328.824 93.8361 328.367 93.9603 327.845 93.9603ZM327.845 93.1621C328.242 93.1621 328.568 93.0604 328.824 92.8571C329.08 92.6537 329.27 92.3864 329.393 92.055C329.516 91.7237 329.577 91.3647 329.577 90.9781C329.577 90.5915 329.516 90.2313 329.393 89.8975C329.27 89.5636 329.08 89.2937 328.824 89.0879C328.568 88.882 328.242 88.7791 327.845 88.7791C327.448 88.7791 327.122 88.882 326.866 89.0879C326.61 89.2937 326.421 89.5636 326.298 89.8975C326.175 90.2313 326.113 90.5915 326.113 90.9781C326.113 91.3647 326.175 91.7237 326.298 92.055C326.421 92.3864 326.61 92.6537 326.866 92.8571C327.122 93.0604 327.448 93.1621 327.845 93.1621ZM336.345 88.0562L334.206 93.8398H333.302L331.163 88.0562H332.127L333.724 92.665H333.784L335.381 88.0562H336.345ZM339.043 93.9754C338.677 93.9754 338.344 93.9064 338.046 93.7683C337.747 93.6277 337.51 93.4256 337.334 93.1621C337.158 92.896 337.07 92.5747 337.07 92.1981C337.07 91.8668 337.136 91.5982 337.266 91.3923C337.397 91.184 337.571 91.0208 337.79 90.9028C338.008 90.7848 338.249 90.697 338.513 90.6392C338.779 90.579 339.046 90.5313 339.315 90.4962C339.666 90.451 339.951 90.4171 340.169 90.3945C340.39 90.3694 340.551 90.328 340.651 90.2702C340.754 90.2125 340.806 90.1121 340.806 89.969V89.9389C340.806 89.5674 340.704 89.2787 340.501 89.0728C340.3 88.867 339.995 88.7641 339.586 88.7641C339.161 88.7641 338.829 88.8569 338.588 89.0427C338.347 89.2285 338.177 89.4268 338.08 89.6376L337.236 89.3364C337.387 88.985 337.588 88.7113 337.839 88.5155C338.092 88.3172 338.368 88.1792 338.667 88.1014C338.968 88.021 339.264 87.9809 339.556 87.9809C339.741 87.9809 339.955 88.0034 340.196 88.0486C340.439 88.0913 340.674 88.1804 340.9 88.316C341.128 88.4515 341.318 88.6561 341.468 88.9297C341.619 89.2034 341.694 89.5699 341.694 90.0292V93.8398H340.806V93.0566H340.76C340.7 93.1822 340.6 93.3165 340.459 93.4595C340.319 93.6026 340.132 93.7244 339.898 93.8248C339.665 93.9252 339.38 93.9754 339.043 93.9754ZM339.179 93.1771C339.53 93.1771 339.827 93.1081 340.068 92.97C340.311 92.832 340.494 92.6537 340.617 92.4353C340.743 92.2169 340.806 91.9873 340.806 91.7463V90.9329C340.768 90.9781 340.685 91.0195 340.557 91.0572C340.432 91.0923 340.286 91.1237 340.12 91.1513C339.957 91.1764 339.798 91.199 339.642 91.2191C339.489 91.2367 339.365 91.2517 339.269 91.2643C339.038 91.2944 338.823 91.3434 338.622 91.4112C338.423 91.4764 338.263 91.5756 338.14 91.7086C338.019 91.8392 337.959 92.0174 337.959 92.2433C337.959 92.5521 338.073 92.7855 338.302 92.9437C338.533 93.0993 338.825 93.1771 339.179 93.1771ZM344.205 86.1283V93.8398H343.316V86.1283H344.205Z" fill="black"/>
<rect x="139" y="115.34" width="235" height="40.5746" rx="3.5" fill="#FDFCFC"/>
<rect x="139" y="115.34" width="235" height="40.5746" rx="3.5" stroke="#EADDD7"/>
<path d="M148.522 130.627V122.915H151.127C151.73 122.915 152.224 123.018 152.611 123.224C152.998 123.427 153.284 123.707 153.469 124.064C153.655 124.42 153.748 124.826 153.748 125.28C153.748 125.734 153.655 126.137 153.469 126.489C153.284 126.84 152.999 127.116 152.615 127.317C152.231 127.515 151.74 127.615 151.142 127.615H149.034V126.771H151.112C151.524 126.771 151.855 126.711 152.106 126.59C152.36 126.47 152.543 126.299 152.656 126.078C152.772 125.855 152.829 125.589 152.829 125.28C152.829 124.971 152.772 124.701 152.656 124.47C152.541 124.24 152.356 124.061 152.103 123.936C151.849 123.808 151.514 123.744 151.097 123.744H149.456V130.627H148.522ZM152.152 127.163L154.049 130.627H152.965L151.097 127.163H152.152ZM157.546 130.747C156.989 130.747 156.508 130.624 156.104 130.378C155.703 130.13 155.393 129.783 155.174 129.339C154.958 128.892 154.85 128.373 154.85 127.78C154.85 127.188 154.958 126.666 155.174 126.214C155.393 125.76 155.696 125.406 156.085 125.152C156.477 124.896 156.934 124.768 157.456 124.768C157.757 124.768 158.055 124.818 158.349 124.919C158.642 125.019 158.91 125.182 159.151 125.408C159.392 125.632 159.584 125.928 159.727 126.297C159.87 126.666 159.941 127.12 159.941 127.66V128.036H155.483V127.268H159.038C159.038 126.942 158.972 126.651 158.842 126.395C158.714 126.139 158.531 125.937 158.292 125.788C158.056 125.64 157.777 125.566 157.456 125.566C157.102 125.566 156.796 125.654 156.537 125.83C156.281 126.003 156.084 126.229 155.946 126.508C155.808 126.786 155.739 127.085 155.739 127.404V127.916C155.739 128.353 155.814 128.723 155.965 129.027C156.118 129.328 156.33 129.558 156.601 129.716C156.872 129.871 157.188 129.949 157.546 129.949C157.78 129.949 157.991 129.917 158.179 129.851C158.37 129.783 158.534 129.683 158.672 129.55C158.81 129.414 158.917 129.246 158.992 129.045L159.851 129.286C159.761 129.578 159.609 129.834 159.395 130.055C159.182 130.273 158.918 130.444 158.605 130.567C158.291 130.687 157.938 130.747 157.546 130.747ZM162.995 130.763C162.629 130.763 162.296 130.693 161.997 130.555C161.698 130.415 161.461 130.213 161.286 129.949C161.11 129.683 161.022 129.362 161.022 128.985C161.022 128.654 161.087 128.385 161.218 128.179C161.348 127.971 161.523 127.808 161.741 127.69C161.96 127.572 162.201 127.484 162.464 127.426C162.73 127.366 162.998 127.318 163.266 127.283C163.618 127.238 163.902 127.204 164.121 127.182C164.342 127.156 164.502 127.115 164.603 127.057C164.706 127 164.757 126.899 164.757 126.756V126.726C164.757 126.354 164.656 126.066 164.452 125.86C164.251 125.654 163.946 125.551 163.537 125.551C163.113 125.551 162.78 125.644 162.539 125.83C162.298 126.016 162.129 126.214 162.031 126.425L161.188 126.124C161.338 125.772 161.539 125.498 161.79 125.303C162.044 125.104 162.32 124.966 162.618 124.888C162.92 124.808 163.216 124.768 163.507 124.768C163.693 124.768 163.906 124.791 164.147 124.836C164.391 124.878 164.625 124.968 164.851 125.103C165.08 125.239 165.269 125.443 165.42 125.717C165.571 125.99 165.646 126.357 165.646 126.816V130.627H164.757V129.844H164.712C164.652 129.969 164.551 130.104 164.411 130.247C164.27 130.39 164.083 130.511 163.85 130.612C163.616 130.712 163.331 130.763 162.995 130.763ZM163.131 129.964C163.482 129.964 163.778 129.895 164.019 129.757C164.263 129.619 164.446 129.441 164.569 129.222C164.694 129.004 164.757 128.774 164.757 128.533V127.72C164.72 127.765 164.637 127.807 164.509 127.844C164.383 127.879 164.238 127.911 164.072 127.938C163.909 127.964 163.749 127.986 163.594 128.006C163.441 128.024 163.316 128.039 163.221 128.051C162.99 128.082 162.774 128.13 162.573 128.198C162.375 128.264 162.214 128.363 162.091 128.496C161.971 128.626 161.911 128.804 161.911 129.03C161.911 129.339 162.025 129.573 162.253 129.731C162.484 129.886 162.777 129.964 163.131 129.964ZM171.365 126.139L170.566 126.365C170.516 126.231 170.442 126.102 170.344 125.977C170.249 125.849 170.118 125.743 169.953 125.66C169.787 125.578 169.575 125.536 169.316 125.536C168.962 125.536 168.667 125.618 168.431 125.781C168.198 125.942 168.081 126.146 168.081 126.395C168.081 126.616 168.161 126.79 168.322 126.918C168.483 127.046 168.734 127.153 169.075 127.238L169.934 127.449C170.451 127.574 170.836 127.766 171.09 128.025C171.343 128.281 171.47 128.611 171.47 129.015C171.47 129.347 171.375 129.643 171.184 129.904C170.996 130.165 170.732 130.371 170.393 130.522C170.054 130.672 169.66 130.747 169.211 130.747C168.621 130.747 168.133 130.619 167.746 130.363C167.359 130.107 167.115 129.733 167.012 129.241L167.855 129.03C167.936 129.342 168.087 129.575 168.311 129.731C168.537 129.886 168.832 129.964 169.196 129.964C169.61 129.964 169.939 129.876 170.182 129.701C170.428 129.522 170.551 129.309 170.551 129.061C170.551 128.86 170.481 128.692 170.34 128.556C170.2 128.418 169.984 128.315 169.693 128.247L168.729 128.021C168.199 127.896 167.81 127.701 167.562 127.438C167.316 127.172 167.193 126.839 167.193 126.44C167.193 126.113 167.284 125.825 167.467 125.574C167.653 125.323 167.905 125.126 168.224 124.983C168.546 124.84 168.91 124.768 169.316 124.768C169.889 124.768 170.338 124.893 170.664 125.145C170.993 125.396 171.227 125.727 171.365 126.139ZM175.157 130.747C174.635 130.747 174.177 130.623 173.783 130.375C173.391 130.126 173.085 129.778 172.864 129.332C172.646 128.885 172.537 128.363 172.537 127.765C172.537 127.163 172.646 126.637 172.864 126.188C173.085 125.738 173.391 125.389 173.783 125.141C174.177 124.892 174.635 124.768 175.157 124.768C175.679 124.768 176.136 124.892 176.528 125.141C176.922 125.389 177.228 125.738 177.447 126.188C177.668 126.637 177.778 127.163 177.778 127.765C177.778 128.363 177.668 128.885 177.447 129.332C177.228 129.778 176.922 130.126 176.528 130.375C176.136 130.623 175.679 130.747 175.157 130.747ZM175.157 129.949C175.554 129.949 175.88 129.848 176.136 129.644C176.392 129.441 176.582 129.174 176.705 128.842C176.828 128.511 176.889 128.152 176.889 127.765C176.889 127.379 176.828 127.018 176.705 126.685C176.582 126.351 176.392 126.081 176.136 125.875C175.88 125.669 175.554 125.566 175.157 125.566C174.761 125.566 174.434 125.669 174.178 125.875C173.922 126.081 173.733 126.351 173.61 126.685C173.487 127.018 173.425 127.379 173.425 127.765C173.425 128.152 173.487 128.511 173.61 128.842C173.733 129.174 173.922 129.441 174.178 129.644C174.434 129.848 174.761 129.949 175.157 129.949ZM180.023 127.148V130.627H179.135V124.843H179.993V125.747H180.068C180.204 125.453 180.41 125.217 180.686 125.039C180.962 124.858 181.318 124.768 181.755 124.768C182.147 124.768 182.49 124.848 182.783 125.009C183.077 125.167 183.305 125.408 183.469 125.732C183.632 126.053 183.713 126.46 183.713 126.952V130.627H182.825V127.012C182.825 126.558 182.707 126.204 182.471 125.95C182.235 125.694 181.911 125.566 181.499 125.566C181.216 125.566 180.962 125.628 180.739 125.751C180.518 125.874 180.343 126.053 180.215 126.289C180.087 126.525 180.023 126.811 180.023 127.148Z" fill="#A18072"/>
<rect x="203.426" y="174.414" width="106.148" height="30.2955" rx="3.02955" fill="#974EF2"/>
<path d="M211.818 193.062V185.35H214.71C215.302 185.35 215.799 185.453 216.201 185.659C216.605 185.865 216.91 186.153 217.116 186.525C217.324 186.894 217.429 187.324 217.429 187.816C217.429 188.311 217.323 188.74 217.112 189.104C216.904 189.466 216.596 189.745 216.19 189.944C215.783 190.14 215.284 190.237 214.691 190.237H212.631V189.078H214.503C214.849 189.078 215.133 189.03 215.354 188.935C215.575 188.837 215.738 188.695 215.843 188.509C215.951 188.321 216.005 188.09 216.005 187.816C216.005 187.543 215.951 187.309 215.843 187.116C215.735 186.92 215.571 186.772 215.35 186.672C215.129 186.569 214.844 186.517 214.495 186.517H213.215V193.062H211.818ZM215.802 189.567L217.711 193.062H216.152L214.277 189.567H215.802ZM221.132 193.174C220.552 193.174 220.051 193.054 219.63 192.813C219.21 192.57 218.888 192.226 218.662 191.781C218.436 191.334 218.323 190.809 218.323 190.204C218.323 189.609 218.436 189.086 218.662 188.637C218.89 188.185 219.209 187.834 219.618 187.583C220.027 187.329 220.508 187.203 221.06 187.203C221.417 187.203 221.753 187.26 222.07 187.376C222.388 187.489 222.669 187.664 222.913 187.903C223.159 188.141 223.352 188.445 223.493 188.814C223.633 189.181 223.704 189.617 223.704 190.124V190.542H218.963V189.624H222.397C222.395 189.363 222.338 189.13 222.228 188.927C222.117 188.721 221.963 188.559 221.765 188.441C221.569 188.323 221.34 188.264 221.079 188.264C220.801 188.264 220.556 188.332 220.345 188.468C220.134 188.601 219.97 188.776 219.852 188.995C219.736 189.211 219.677 189.448 219.675 189.707V190.509C219.675 190.845 219.736 191.134 219.859 191.375C219.982 191.613 220.154 191.796 220.375 191.924C220.596 192.05 220.855 192.113 221.151 192.113C221.349 192.113 221.529 192.085 221.689 192.03C221.85 191.972 221.989 191.888 222.107 191.778C222.225 191.667 222.314 191.53 222.375 191.367L223.647 191.51C223.567 191.847 223.414 192.14 223.188 192.391C222.964 192.64 222.678 192.833 222.329 192.971C221.98 193.107 221.581 193.174 221.132 193.174ZM228.716 195.23V192.15H228.66C228.59 192.291 228.488 192.44 228.355 192.598C228.222 192.754 228.046 192.887 227.828 192.998C227.609 193.108 227.335 193.163 227.003 193.163C226.549 193.163 226.142 193.046 225.783 192.813C225.424 192.58 225.141 192.241 224.932 191.796C224.724 191.352 224.62 190.812 224.62 190.177C224.62 189.535 224.725 188.992 224.936 188.551C225.149 188.106 225.437 187.771 225.798 187.545C226.16 187.317 226.563 187.203 227.007 187.203C227.346 187.203 227.624 187.26 227.843 187.376C228.061 187.489 228.234 187.626 228.362 187.786C228.49 187.944 228.59 188.094 228.66 188.234H228.743V187.278H230.083V195.23H228.716ZM227.383 192.045C227.672 192.045 227.918 191.967 228.121 191.811C228.325 191.653 228.479 191.434 228.585 191.152C228.69 190.871 228.743 190.544 228.743 190.17C228.743 189.796 228.69 189.471 228.585 189.194C228.482 188.918 228.329 188.704 228.125 188.551C227.924 188.397 227.677 188.321 227.383 188.321C227.08 188.321 226.826 188.4 226.623 188.558C226.42 188.716 226.266 188.935 226.163 189.213C226.061 189.492 226.009 189.811 226.009 190.17C226.009 190.531 226.061 190.854 226.163 191.137C226.269 191.419 226.423 191.641 226.627 191.804C226.832 191.965 227.085 192.045 227.383 192.045ZM235.17 190.629V187.278H236.533V193.062H235.212V192.034H235.152C235.021 192.357 234.806 192.622 234.508 192.828C234.211 193.034 233.846 193.137 233.412 193.137C233.033 193.137 232.698 193.053 232.407 192.885C232.118 192.714 231.892 192.467 231.729 192.143C231.566 191.816 231.484 191.422 231.484 190.96V187.278H232.847V190.75C232.847 191.116 232.947 191.407 233.148 191.623C233.349 191.839 233.613 191.947 233.939 191.947C234.14 191.947 234.334 191.898 234.523 191.8C234.711 191.702 234.865 191.557 234.986 191.363C235.109 191.168 235.17 190.923 235.17 190.629ZM240.496 193.174C239.916 193.174 239.415 193.054 238.993 192.813C238.574 192.57 238.251 192.226 238.025 191.781C237.8 191.334 237.687 190.809 237.687 190.204C237.687 189.609 237.8 189.086 238.025 188.637C238.254 188.185 238.573 187.834 238.982 187.583C239.391 187.329 239.872 187.203 240.424 187.203C240.78 187.203 241.117 187.26 241.433 187.376C241.752 187.489 242.033 187.664 242.277 187.903C242.523 188.141 242.716 188.445 242.856 188.814C242.997 189.181 243.067 189.617 243.067 190.124V190.542H238.327V189.624H241.761C241.758 189.363 241.702 189.13 241.591 188.927C241.481 188.721 241.326 188.559 241.128 188.441C240.932 188.323 240.704 188.264 240.443 188.264C240.164 188.264 239.919 188.332 239.709 188.468C239.498 188.601 239.333 188.776 239.215 188.995C239.1 189.211 239.041 189.448 239.038 189.707V190.509C239.038 190.845 239.1 191.134 239.223 191.375C239.346 191.613 239.518 191.796 239.739 191.924C239.96 192.05 240.218 192.113 240.514 192.113C240.713 192.113 240.892 192.085 241.053 192.03C241.214 191.972 241.353 191.888 241.471 191.778C241.589 191.667 241.678 191.53 241.738 191.367L243.011 191.51C242.931 191.847 242.777 192.14 242.551 192.391C242.328 192.64 242.042 192.833 241.693 192.971C241.344 193.107 240.945 193.174 240.496 193.174ZM248.792 188.807L247.549 188.942C247.514 188.817 247.452 188.699 247.365 188.588C247.279 188.478 247.164 188.389 247.018 188.321C246.873 188.253 246.694 188.219 246.484 188.219C246.2 188.219 245.961 188.281 245.768 188.404C245.577 188.527 245.483 188.686 245.486 188.882C245.483 189.05 245.545 189.187 245.67 189.292C245.798 189.398 246.009 189.484 246.303 189.552L247.289 189.763C247.837 189.881 248.243 190.068 248.509 190.324C248.778 190.58 248.913 190.915 248.916 191.329C248.913 191.693 248.807 192.015 248.596 192.293C248.388 192.57 248.098 192.785 247.726 192.941C247.355 193.097 246.928 193.174 246.446 193.174C245.738 193.174 245.168 193.026 244.736 192.73C244.305 192.431 244.047 192.016 243.964 191.484L245.294 191.356C245.354 191.617 245.482 191.814 245.678 191.947C245.874 192.08 246.128 192.147 246.442 192.147C246.766 192.147 247.026 192.08 247.222 191.947C247.42 191.814 247.519 191.649 247.519 191.454C247.519 191.288 247.455 191.151 247.327 191.043C247.201 190.935 247.006 190.852 246.74 190.795L245.753 190.588C245.198 190.472 244.788 190.278 244.522 190.004C244.256 189.728 244.124 189.379 244.126 188.957C244.124 188.601 244.221 188.292 244.416 188.031C244.615 187.767 244.889 187.564 245.241 187.421C245.595 187.275 246.003 187.203 246.465 187.203C247.142 187.203 247.676 187.347 248.065 187.636C248.457 187.924 248.699 188.315 248.792 188.807ZM252.928 187.278V188.332H249.603V187.278H252.928ZM250.424 185.892H251.787V191.322C251.787 191.505 251.815 191.646 251.87 191.744C251.928 191.839 252.003 191.904 252.096 191.939C252.189 191.975 252.292 191.992 252.405 191.992C252.49 191.992 252.568 191.986 252.638 191.973C252.711 191.961 252.766 191.949 252.804 191.939L253.033 193.005C252.961 193.03 252.856 193.058 252.721 193.088C252.588 193.118 252.425 193.136 252.231 193.141C251.89 193.151 251.583 193.099 251.309 192.986C251.035 192.871 250.818 192.693 250.657 192.452C250.499 192.211 250.422 191.909 250.424 191.548V185.892ZM257.749 193.062H256.258L258.972 185.35H260.697L263.416 193.062H261.925L259.865 186.931H259.805L257.749 193.062ZM257.798 190.038H261.864V191.16H257.798V190.038ZM264.371 195.23V187.278H265.712V188.234H265.791C265.861 188.094 265.96 187.944 266.088 187.786C266.216 187.626 266.389 187.489 266.608 187.376C266.826 187.26 267.105 187.203 267.444 187.203C267.891 187.203 268.293 187.317 268.652 187.545C269.014 187.771 269.3 188.106 269.511 188.551C269.724 188.992 269.831 189.535 269.831 190.177C269.831 190.812 269.727 191.352 269.518 191.796C269.31 192.241 269.026 192.58 268.667 192.813C268.309 193.046 267.902 193.163 267.447 193.163C267.116 193.163 266.841 193.108 266.623 192.998C266.404 192.887 266.229 192.754 266.096 192.598C265.965 192.44 265.863 192.291 265.791 192.15H265.734V195.23H264.371ZM265.708 190.17C265.708 190.544 265.761 190.871 265.866 191.152C265.974 191.434 266.128 191.653 266.329 191.811C266.532 191.967 266.778 192.045 267.067 192.045C267.368 192.045 267.621 191.965 267.824 191.804C268.027 191.641 268.18 191.419 268.283 191.137C268.389 190.854 268.442 190.531 268.442 190.17C268.442 189.811 268.39 189.492 268.287 189.213C268.184 188.935 268.031 188.716 267.828 188.558C267.624 188.4 267.371 188.321 267.067 188.321C266.776 188.321 266.529 188.397 266.325 188.551C266.122 188.704 265.968 188.918 265.862 189.194C265.759 189.471 265.708 189.796 265.708 190.17ZM270.998 195.23V187.278H272.339V188.234H272.418C272.488 188.094 272.587 187.944 272.715 187.786C272.843 187.626 273.017 187.489 273.235 187.376C273.453 187.26 273.732 187.203 274.071 187.203C274.518 187.203 274.921 187.317 275.28 187.545C275.641 187.771 275.927 188.106 276.138 188.551C276.351 188.992 276.458 189.535 276.458 190.177C276.458 190.812 276.354 191.352 276.146 191.796C275.937 192.241 275.654 192.58 275.295 192.813C274.936 193.046 274.529 193.163 274.075 193.163C273.743 193.163 273.468 193.108 273.25 192.998C273.032 192.887 272.856 192.754 272.723 192.598C272.592 192.44 272.491 192.291 272.418 192.15H272.361V195.23H270.998ZM272.335 190.17C272.335 190.544 272.388 190.871 272.493 191.152C272.601 191.434 272.755 191.653 272.956 191.811C273.16 191.967 273.406 192.045 273.694 192.045C273.996 192.045 274.248 191.965 274.451 191.804C274.654 191.641 274.808 191.419 274.911 191.137C275.016 190.854 275.069 190.531 275.069 190.17C275.069 189.811 275.017 189.492 274.914 189.213C274.811 188.935 274.658 188.716 274.455 188.558C274.252 188.4 273.998 188.321 273.694 188.321C273.403 188.321 273.156 188.397 272.953 188.551C272.749 188.704 272.595 188.918 272.489 189.194C272.386 189.471 272.335 189.796 272.335 190.17ZM277.625 193.062V187.278H278.947V188.242H279.007C279.113 187.908 279.293 187.651 279.55 187.47C279.808 187.287 280.103 187.195 280.434 187.195C280.51 187.195 280.594 187.199 280.687 187.206C280.782 187.211 280.861 187.22 280.924 187.233V188.487C280.866 188.466 280.775 188.449 280.649 188.434C280.526 188.416 280.407 188.407 280.291 188.407C280.043 188.407 279.819 188.461 279.621 188.569C279.425 188.675 279.271 188.822 279.158 189.01C279.045 189.198 278.988 189.415 278.988 189.661V193.062H277.625ZM284.114 193.174C283.549 193.174 283.06 193.05 282.646 192.802C282.231 192.553 281.91 192.206 281.682 191.759C281.456 191.312 281.343 190.79 281.343 190.192C281.343 189.595 281.456 189.071 281.682 188.622C281.91 188.173 282.231 187.824 282.646 187.575C283.06 187.327 283.549 187.203 284.114 187.203C284.679 187.203 285.168 187.327 285.583 187.575C285.997 187.824 286.317 188.173 286.543 188.622C286.771 189.071 286.885 189.595 286.885 190.192C286.885 190.79 286.771 191.312 286.543 191.759C286.317 192.206 285.997 192.553 285.583 192.802C285.168 193.05 284.679 193.174 284.114 193.174ZM284.122 192.083C284.428 192.083 284.684 191.998 284.89 191.83C285.096 191.66 285.249 191.431 285.349 191.145C285.452 190.859 285.504 190.54 285.504 190.189C285.504 189.835 285.452 189.515 285.349 189.228C285.249 188.94 285.096 188.71 284.89 188.539C284.684 188.369 284.428 188.283 284.122 188.283C283.808 188.283 283.547 188.369 283.338 188.539C283.133 188.71 282.978 188.94 282.875 189.228C282.775 189.515 282.725 189.835 282.725 190.189C282.725 190.54 282.775 190.859 282.875 191.145C282.978 191.431 283.133 191.66 283.338 191.83C283.547 191.998 283.808 192.083 284.122 192.083ZM293.012 187.278L290.952 193.062H289.446L287.386 187.278H288.84L290.169 191.574H290.229L291.562 187.278H293.012ZM295.454 193.178C295.087 193.178 294.757 193.113 294.463 192.982C294.172 192.849 293.941 192.654 293.771 192.395C293.602 192.136 293.518 191.818 293.518 191.439C293.518 191.112 293.579 190.842 293.699 190.629C293.82 190.416 293.984 190.245 294.192 190.117C294.401 189.989 294.635 189.892 294.896 189.827C295.16 189.759 295.432 189.71 295.714 189.68C296.052 189.645 296.327 189.614 296.538 189.586C296.749 189.556 296.902 189.511 296.998 189.45C297.095 189.388 297.144 189.291 297.144 189.161V189.138C297.144 188.854 297.06 188.635 296.892 188.479C296.724 188.323 296.482 188.246 296.165 188.246C295.831 188.246 295.567 188.318 295.371 188.464C295.178 188.61 295.047 188.782 294.979 188.98L293.707 188.799C293.807 188.448 293.973 188.154 294.204 187.918C294.435 187.679 294.717 187.501 295.051 187.383C295.385 187.263 295.754 187.203 296.158 187.203C296.436 187.203 296.714 187.235 296.99 187.3C297.266 187.366 297.518 187.474 297.747 187.624C297.975 187.772 298.159 187.974 298.297 188.23C298.437 188.487 298.507 188.807 298.507 189.191V193.062H297.197V192.267H297.152C297.069 192.428 296.952 192.578 296.802 192.719C296.654 192.857 296.467 192.969 296.241 193.054C296.017 193.137 295.755 193.178 295.454 193.178ZM295.808 192.177C296.081 192.177 296.318 192.123 296.519 192.015C296.72 191.904 296.875 191.759 296.982 191.578C297.093 191.397 297.148 191.2 297.148 190.987V190.305C297.105 190.34 297.033 190.373 296.93 190.403C296.829 190.433 296.716 190.46 296.591 190.482C296.465 190.505 296.341 190.525 296.218 190.542C296.095 190.56 295.988 190.575 295.898 190.588C295.695 190.615 295.513 190.66 295.352 190.723C295.191 190.786 295.065 190.874 294.972 190.987C294.879 191.097 294.832 191.24 294.832 191.416C294.832 191.667 294.924 191.857 295.107 191.985C295.291 192.113 295.524 192.177 295.808 192.177ZM301.241 185.35V193.062H299.878V185.35H301.241Z" fill="#FDFCFC"/>
<circle cx="207.227" cy="231.935" r="9.22515" fill="#E9E9E6" stroke="#DBDBD7" stroke-width="0.757386"/>
<g clip-path="url(#clip2_12017_975)">
<path d="M206.944 224.566C202.993 224.566 203.187 228.97 202.954 231.775C202.95 231.817 202.964 231.857 202.992 231.888C203.02 231.918 203.059 231.935 203.1 231.935H205.458C205.536 231.935 205.601 231.874 205.606 231.796L205.814 228.257C205.858 227.509 206.477 226.924 207.227 226.924C207.976 226.924 208.596 227.509 208.64 228.257L208.848 231.796C208.853 231.874 208.917 231.935 208.995 231.935H211.353C211.395 231.935 211.434 231.918 211.462 231.888C211.49 231.857 211.504 231.817 211.5 231.775L211.181 227.945C211.022 226.035 209.426 224.566 207.509 224.566H206.944Z" fill="#706F6C"/>
<path d="M207.226 237.829C205.316 237.829 203.96 237.785 203.087 237.742C202.153 237.696 201.366 237.024 201.275 236.054C201.225 235.51 201.184 234.782 201.184 233.85C201.184 232.918 201.225 232.19 201.275 231.646C201.366 230.677 202.153 230.005 203.087 229.958C203.96 229.915 205.316 229.871 207.226 229.871C209.136 229.871 210.492 229.915 211.365 229.958C212.299 230.005 213.086 230.677 213.176 231.646C213.227 232.19 213.268 232.918 213.268 233.85C213.268 234.782 213.227 235.51 213.176 236.054C213.086 237.024 212.299 237.696 211.365 237.742C210.492 237.785 209.136 237.829 207.226 237.829Z" fill="url(#paint0_linear_12017_975)"/>
<path fill-rule="evenodd" clip-rule="evenodd" d="M209.811 232.486C210.032 232.164 209.95 231.725 209.629 231.505C209.308 231.284 208.869 231.366 208.648 231.687L207.218 233.771L206.462 232.931C206.201 232.642 205.755 232.618 205.466 232.879C205.176 233.14 205.153 233.586 205.414 233.875L206.769 235.38C206.914 235.541 207.124 235.626 207.34 235.612C207.555 235.598 207.753 235.485 207.875 235.307L209.811 232.486Z" fill="#1B1B18"/>
</g>
<path d="M225.486 229.383C225.451 229.067 225.303 228.821 225.045 228.647C224.786 228.471 224.46 228.383 224.068 228.383C223.787 228.383 223.543 228.428 223.338 228.517C223.133 228.604 222.973 228.724 222.86 228.878C222.748 229.03 222.692 229.203 222.692 229.397C222.692 229.56 222.73 229.7 222.806 229.818C222.884 229.937 222.986 230.036 223.111 230.116C223.238 230.194 223.374 230.26 223.519 230.313C223.664 230.365 223.803 230.407 223.937 230.441L224.606 230.615C224.825 230.668 225.049 230.741 225.279 230.832C225.509 230.924 225.722 231.044 225.918 231.193C226.114 231.343 226.272 231.528 226.393 231.749C226.516 231.97 226.577 232.234 226.577 232.542C226.577 232.93 226.477 233.275 226.276 233.576C226.077 233.877 225.788 234.114 225.409 234.288C225.032 234.462 224.576 234.549 224.041 234.549C223.528 234.549 223.084 234.468 222.709 234.305C222.334 234.142 222.041 233.911 221.829 233.612C221.617 233.311 221.5 232.954 221.478 232.542H222.515C222.535 232.789 222.615 232.996 222.756 233.161C222.899 233.324 223.081 233.445 223.301 233.525C223.524 233.604 223.769 233.643 224.034 233.643C224.326 233.643 224.586 233.597 224.814 233.505C225.043 233.412 225.224 233.282 225.356 233.117C225.487 232.95 225.553 232.755 225.553 232.532C225.553 232.329 225.495 232.163 225.379 232.033C225.265 231.904 225.11 231.797 224.914 231.712C224.72 231.627 224.5 231.553 224.255 231.488L223.445 231.267C222.897 231.118 222.462 230.898 222.14 230.608C221.821 230.318 221.662 229.934 221.662 229.457C221.662 229.062 221.769 228.718 221.983 228.423C222.197 228.129 222.487 227.9 222.853 227.737C223.219 227.572 223.632 227.49 224.091 227.49C224.555 227.49 224.964 227.571 225.319 227.734C225.676 227.897 225.957 228.121 226.162 228.406C226.367 228.69 226.474 229.015 226.483 229.383H225.486ZM229.947 234.539C229.441 234.539 229.005 234.431 228.639 234.215C228.275 233.996 227.994 233.689 227.796 233.295C227.599 232.898 227.501 232.433 227.501 231.899C227.501 231.373 227.599 230.909 227.796 230.508C227.994 230.106 228.271 229.793 228.625 229.567C228.982 229.342 229.399 229.229 229.877 229.229C230.167 229.229 230.448 229.277 230.72 229.373C230.992 229.469 231.236 229.62 231.453 229.825C231.669 230.03 231.84 230.297 231.965 230.625C232.09 230.95 232.152 231.346 232.152 231.812V232.167H228.067V231.418H231.172C231.172 231.154 231.118 230.921 231.011 230.718C230.904 230.513 230.753 230.351 230.559 230.233C230.368 230.115 230.142 230.056 229.883 230.056C229.602 230.056 229.357 230.125 229.147 230.263C228.94 230.399 228.779 230.578 228.666 230.799C228.554 231.017 228.498 231.255 228.498 231.511V232.097C228.498 232.44 228.559 232.733 228.679 232.973C228.802 233.214 228.972 233.398 229.191 233.525C229.409 233.65 229.665 233.713 229.957 233.713C230.147 233.713 230.32 233.686 230.476 233.633C230.632 233.577 230.767 233.494 230.881 233.385C230.994 233.276 231.081 233.141 231.142 232.98L232.088 233.151C232.013 233.43 231.876 233.674 231.68 233.883C231.486 234.091 231.242 234.253 230.947 234.369C230.655 234.482 230.322 234.539 229.947 234.539ZM235.427 234.539C234.929 234.539 234.501 234.427 234.142 234.201C233.785 233.974 233.511 233.66 233.319 233.261C233.127 232.862 233.031 232.405 233.031 231.889C233.031 231.367 233.129 230.907 233.326 230.508C233.522 230.106 233.798 229.793 234.155 229.567C234.512 229.342 234.933 229.229 235.417 229.229C235.807 229.229 236.155 229.302 236.461 229.447C236.766 229.59 237.013 229.79 237.2 230.049C237.39 230.308 237.502 230.61 237.538 230.956H236.564C236.511 230.715 236.388 230.508 236.196 230.334C236.007 230.16 235.752 230.073 235.433 230.073C235.155 230.073 234.91 230.146 234.701 230.293C234.493 230.438 234.331 230.646 234.216 230.916C234.1 231.183 234.042 231.5 234.042 231.866C234.042 232.241 234.098 232.564 234.212 232.836C234.326 233.108 234.487 233.319 234.694 233.469C234.904 233.618 235.15 233.693 235.433 233.693C235.623 233.693 235.795 233.658 235.949 233.589C236.105 233.518 236.235 233.416 236.34 233.285C236.447 233.153 236.522 232.995 236.564 232.809H237.538C237.502 233.142 237.394 233.438 237.213 233.699C237.033 233.96 236.791 234.166 236.487 234.315C236.186 234.465 235.833 234.539 235.427 234.539ZM241.863 232.304V229.296H242.867V234.436H241.883V233.546H241.83C241.712 233.82 241.522 234.049 241.261 234.231C241.002 234.412 240.68 234.502 240.294 234.502C239.964 234.502 239.672 234.43 239.417 234.285C239.165 234.138 238.967 233.92 238.822 233.633C238.679 233.345 238.608 232.989 238.608 232.565V229.296H239.608V232.445C239.608 232.795 239.705 233.074 239.899 233.281C240.093 233.489 240.345 233.592 240.655 233.592C240.843 233.592 241.029 233.546 241.214 233.452C241.402 233.358 241.557 233.217 241.679 233.027C241.804 232.837 241.865 232.596 241.863 232.304ZM244.211 234.436V229.296H245.178V230.113H245.232C245.325 229.836 245.49 229.619 245.727 229.46C245.966 229.3 246.235 229.219 246.537 229.219C246.599 229.219 246.673 229.222 246.757 229.226C246.844 229.231 246.912 229.236 246.961 229.243V230.2C246.921 230.189 246.85 230.176 246.747 230.163C246.645 230.147 246.542 230.139 246.44 230.139C246.203 230.139 245.992 230.19 245.807 230.29C245.624 230.388 245.479 230.525 245.372 230.702C245.265 230.876 245.212 231.074 245.212 231.297V234.436H244.211ZM249.858 234.539C249.352 234.539 248.916 234.431 248.55 234.215C248.186 233.996 247.905 233.689 247.707 233.295C247.51 232.898 247.412 232.433 247.412 231.899C247.412 231.373 247.51 230.909 247.707 230.508C247.905 230.106 248.182 229.793 248.537 229.567C248.893 229.342 249.311 229.229 249.788 229.229C250.078 229.229 250.359 229.277 250.631 229.373C250.903 229.469 251.147 229.62 251.364 229.825C251.58 230.03 251.751 230.297 251.876 230.625C252.001 230.95 252.063 231.346 252.063 231.812V232.167H247.978V231.418H251.083C251.083 231.154 251.029 230.921 250.922 230.718C250.815 230.513 250.664 230.351 250.47 230.233C250.279 230.115 250.053 230.056 249.795 230.056C249.514 230.056 249.268 230.125 249.058 230.263C248.851 230.399 248.69 230.578 248.577 230.799C248.465 231.017 248.409 231.255 248.409 231.511V232.097C248.409 232.44 248.47 232.733 248.59 232.973C248.713 233.214 248.883 233.398 249.102 233.525C249.321 233.65 249.576 233.713 249.868 233.713C250.058 233.713 250.231 233.686 250.387 233.633C250.543 233.577 250.678 233.494 250.792 233.385C250.905 233.276 250.992 233.141 251.053 232.98L251.999 233.151C251.924 233.43 251.788 233.674 251.591 233.883C251.397 234.091 251.153 234.253 250.859 234.369C250.566 234.482 250.233 234.539 249.858 234.539ZM255.097 234.536C254.682 234.536 254.312 234.43 253.986 234.218C253.663 234.004 253.408 233.699 253.223 233.305C253.04 232.908 252.949 232.431 252.949 231.876C252.949 231.321 253.041 230.845 253.227 230.451C253.414 230.056 253.67 229.754 253.996 229.544C254.322 229.334 254.691 229.229 255.104 229.229C255.423 229.229 255.679 229.283 255.873 229.39C256.069 229.495 256.221 229.618 256.328 229.758C256.437 229.899 256.522 230.022 256.582 230.129H256.643V227.583H257.643V234.436H256.666V233.636H256.582C256.522 233.745 256.435 233.87 256.321 234.011C256.21 234.151 256.056 234.274 255.86 234.379C255.663 234.484 255.409 234.536 255.097 234.536ZM255.318 233.683C255.605 233.683 255.849 233.607 256.047 233.455C256.248 233.301 256.4 233.088 256.502 232.816C256.607 232.544 256.659 232.227 256.659 231.866C256.659 231.509 256.608 231.197 256.506 230.929C256.403 230.661 256.252 230.453 256.054 230.303C255.855 230.154 255.61 230.079 255.318 230.079C255.017 230.079 254.766 230.157 254.565 230.313C254.364 230.47 254.212 230.683 254.11 230.953C254.01 231.222 253.959 231.527 253.959 231.866C253.959 232.209 254.011 232.518 254.113 232.793C254.216 233.067 254.368 233.285 254.568 233.445C254.771 233.604 255.021 233.683 255.318 233.683ZM261.645 234.436V227.583H262.645V230.129H262.705C262.763 230.022 262.847 229.899 262.956 229.758C263.066 229.618 263.217 229.495 263.411 229.39C263.605 229.283 263.862 229.229 264.181 229.229C264.596 229.229 264.966 229.334 265.292 229.544C265.617 229.754 265.873 230.056 266.058 230.451C266.245 230.845 266.339 231.321 266.339 231.876C266.339 232.431 266.246 232.908 266.061 233.305C265.876 233.699 265.622 234.004 265.298 234.218C264.975 234.43 264.606 234.536 264.191 234.536C263.879 234.536 263.623 234.484 263.425 234.379C263.228 234.274 263.075 234.151 262.963 234.011C262.851 233.87 262.766 233.745 262.705 233.636H262.622V234.436H261.645ZM262.625 231.866C262.625 232.227 262.677 232.544 262.782 232.816C262.887 233.088 263.039 233.301 263.237 233.455C263.436 233.607 263.679 233.683 263.967 233.683C264.266 233.683 264.515 233.604 264.716 233.445C264.917 233.285 265.069 233.067 265.171 232.793C265.276 232.518 265.328 232.209 265.328 231.866C265.328 231.527 265.277 231.222 265.175 230.953C265.074 230.683 264.923 230.47 264.72 230.313C264.519 230.157 264.268 230.079 263.967 230.079C263.677 230.079 263.431 230.154 263.231 230.303C263.032 230.453 262.882 230.661 262.779 230.929C262.676 231.197 262.625 231.509 262.625 231.866ZM267.92 236.363C267.77 236.363 267.634 236.35 267.512 236.326C267.389 236.304 267.298 236.279 267.237 236.252L267.478 235.433C267.661 235.482 267.824 235.503 267.967 235.496C268.109 235.489 268.235 235.436 268.345 235.336C268.456 235.235 268.554 235.071 268.639 234.844L268.763 234.502L266.883 229.296H267.953L269.255 233.285H269.308L270.61 229.296H271.684L269.566 235.121C269.468 235.389 269.343 235.616 269.191 235.801C269.04 235.988 268.859 236.129 268.649 236.222C268.44 236.316 268.196 236.363 267.92 236.363ZM275.198 234.436V227.583H277.64C278.173 227.583 278.615 227.68 278.965 227.874C279.315 228.068 279.578 228.334 279.752 228.671C279.926 229.005 280.013 229.382 280.013 229.802C280.013 230.223 279.924 230.602 279.748 230.939C279.574 231.274 279.311 231.539 278.959 231.735C278.608 231.93 278.168 232.027 277.637 232.027H275.957V231.15H277.543C277.88 231.15 278.153 231.092 278.363 230.976C278.573 230.858 278.727 230.697 278.825 230.494C278.923 230.291 278.972 230.06 278.972 229.802C278.972 229.543 278.923 229.313 278.825 229.112C278.727 228.912 278.572 228.754 278.36 228.641C278.15 228.527 277.873 228.47 277.53 228.47H276.232V234.436H275.198ZM283.295 234.539C282.788 234.539 282.352 234.431 281.987 234.215C281.623 233.996 281.342 233.689 281.143 233.295C280.947 232.898 280.849 232.433 280.849 231.899C280.849 231.373 280.947 230.909 281.143 230.508C281.342 230.106 281.619 229.793 281.973 229.567C282.33 229.342 282.747 229.229 283.225 229.229C283.515 229.229 283.796 229.277 284.068 229.373C284.34 229.469 284.584 229.62 284.8 229.825C285.017 230.03 285.187 230.297 285.312 230.625C285.437 230.95 285.5 231.346 285.5 231.812V232.167H281.414V231.418H284.519C284.519 231.154 284.466 230.921 284.359 230.718C284.252 230.513 284.101 230.351 283.907 230.233C283.715 230.115 283.49 230.056 283.231 230.056C282.95 230.056 282.705 230.125 282.495 230.263C282.288 230.399 282.127 230.578 282.013 230.799C281.902 231.017 281.846 231.255 281.846 231.511V232.097C281.846 232.44 281.906 232.733 282.027 232.973C282.149 233.214 282.32 233.398 282.539 233.525C282.757 233.65 283.013 233.713 283.305 233.713C283.494 233.713 283.667 233.686 283.823 233.633C283.98 233.577 284.115 233.494 284.228 233.385C284.342 233.276 284.429 233.141 284.489 232.98L285.436 233.151C285.36 233.43 285.224 233.674 285.028 233.883C284.834 234.091 284.59 234.253 284.295 234.369C284.003 234.482 283.67 234.539 283.295 234.539ZM286.61 234.436V229.296H287.577V230.113H287.63C287.724 229.836 287.889 229.619 288.125 229.46C288.364 229.3 288.634 229.219 288.935 229.219C288.998 229.219 289.071 229.222 289.156 229.226C289.243 229.231 289.311 229.236 289.36 229.243V230.2C289.32 230.189 289.248 230.176 289.146 230.163C289.043 230.147 288.941 230.139 288.838 230.139C288.602 230.139 288.391 230.19 288.206 230.29C288.023 230.388 287.878 230.525 287.771 230.702C287.664 230.876 287.61 231.074 287.61 231.297V234.436H286.61ZM290.226 234.436V229.296H291.186V230.133H291.25C291.357 229.85 291.532 229.629 291.775 229.47C292.018 229.31 292.309 229.229 292.648 229.229C292.992 229.229 293.279 229.31 293.511 229.47C293.746 229.631 293.918 229.852 294.03 230.133H294.083C294.206 229.858 294.401 229.64 294.669 229.477C294.937 229.312 295.256 229.229 295.626 229.229C296.092 229.229 296.472 229.376 296.767 229.668C297.064 229.96 297.212 230.4 297.212 230.989V234.436H296.211V231.083C296.211 230.735 296.117 230.483 295.927 230.327C295.737 230.171 295.511 230.093 295.248 230.093C294.922 230.093 294.669 230.193 294.488 230.394C294.308 230.592 294.217 230.848 294.217 231.16V234.436H293.22V231.019C293.22 230.741 293.133 230.516 292.959 230.347C292.785 230.177 292.559 230.093 292.28 230.093C292.09 230.093 291.915 230.143 291.755 230.243C291.596 230.341 291.468 230.479 291.37 230.655C291.274 230.831 291.226 231.035 291.226 231.267V234.436H290.226ZM298.553 234.436V229.296H299.553V234.436H298.553ZM299.058 228.503C298.884 228.503 298.734 228.445 298.61 228.329C298.487 228.211 298.426 228.071 298.426 227.908C298.426 227.743 298.487 227.602 298.61 227.486C298.734 227.368 298.884 227.309 299.058 227.309C299.232 227.309 299.38 227.368 299.503 227.486C299.628 227.602 299.69 227.743 299.69 227.908C299.69 228.071 299.628 228.211 299.503 228.329C299.38 228.445 299.232 228.503 299.058 228.503ZM303.298 229.296V230.099H300.491V229.296H303.298ZM301.244 228.065H302.244V232.927C302.244 233.121 302.273 233.267 302.331 233.365C302.389 233.461 302.464 233.527 302.555 233.562C302.649 233.596 302.75 233.612 302.86 233.612C302.94 233.612 303.01 233.607 303.07 233.596C303.131 233.585 303.177 233.576 303.211 233.569L303.392 234.395C303.334 234.418 303.251 234.44 303.144 234.462C303.037 234.487 302.903 234.5 302.743 234.502C302.479 234.507 302.234 234.46 302.006 234.362C301.779 234.264 301.595 234.112 301.454 233.907C301.314 233.702 301.244 233.444 301.244 233.134V228.065ZM305.064 234.499C304.881 234.499 304.724 234.434 304.592 234.305C304.46 234.173 304.395 234.015 304.395 233.83C304.395 233.647 304.46 233.491 304.592 233.362C304.724 233.23 304.881 233.164 305.064 233.164C305.247 233.164 305.404 233.23 305.535 233.362C305.667 233.491 305.733 233.647 305.733 233.83C305.733 233.953 305.702 234.065 305.639 234.168C305.579 234.268 305.499 234.349 305.398 234.409C305.298 234.469 305.186 234.499 305.064 234.499ZM307.073 234.436V229.296H308.073V234.436H307.073ZM307.578 228.503C307.404 228.503 307.255 228.445 307.13 228.329C307.007 228.211 306.946 228.071 306.946 227.908C306.946 227.743 307.007 227.602 307.13 227.486C307.255 227.368 307.404 227.309 307.578 227.309C307.752 227.309 307.9 227.368 308.023 227.486C308.148 227.602 308.21 227.743 308.21 227.908C308.21 228.071 308.148 228.211 308.023 228.329C307.9 228.445 307.752 228.503 307.578 228.503ZM311.584 234.539C311.102 234.539 310.682 234.429 310.323 234.208C309.963 233.987 309.685 233.678 309.486 233.281C309.288 232.884 309.188 232.42 309.188 231.889C309.188 231.356 309.288 230.89 309.486 230.491C309.685 230.092 309.963 229.781 310.323 229.561C310.682 229.34 311.102 229.229 311.584 229.229C312.066 229.229 312.486 229.34 312.845 229.561C313.204 229.781 313.483 230.092 313.682 230.491C313.88 230.89 313.98 231.356 313.98 231.889C313.98 232.42 313.88 232.884 313.682 233.281C313.483 233.678 313.204 233.987 312.845 234.208C312.486 234.429 312.066 234.539 311.584 234.539ZM311.587 233.699C311.9 233.699 312.158 233.617 312.363 233.452C312.569 233.287 312.72 233.067 312.819 232.793C312.919 232.518 312.969 232.216 312.969 231.886C312.969 231.558 312.919 231.257 312.819 230.983C312.72 230.706 312.569 230.484 312.363 230.317C312.158 230.15 311.9 230.066 311.587 230.066C311.273 230.066 311.012 230.15 310.804 230.317C310.599 230.484 310.446 230.706 310.346 230.983C310.248 231.257 310.199 231.558 310.199 231.886C310.199 232.216 310.248 232.518 310.346 232.793C310.446 233.067 310.599 233.287 310.804 233.452C311.012 233.617 311.273 233.699 311.587 233.699Z" fill="#1B1B18"/>
</g>
<rect x="1" y="1" width="511" height="297" rx="20" stroke="#F2E8E4" stroke-width="2"/>
<defs>
<filter id="filter0_d_12017_975" x="-129.55" y="-12.577" width="658.099" height="483.099" filterUnits="userSpaceOnUse" color-interpolation-filters="sRGB">
<feFlood flood-opacity="0" result="BackgroundImageFix"/>
<feColorMatrix in="SourceAlpha" type="matrix" values="0 0 0 0 0 0 0 0 0 0 0 0 0 0 0 0 0 0 127 0" result="hardAlpha"/>
<feMorphology radius="2.70992" operator="dilate" in="SourceAlpha" result="effect1_dropShadow_12017_975"/>
<feOffset/>
<feGaussianBlur stdDeviation="5.41984"/>
<feComposite in2="hardAlpha" operator="out"/>
<feColorMatrix type="matrix" values="0 0 0 0 0 0 0 0 0 0 0 0 0 0 0 0 0 0 0.1 0"/>
<feBlend mode="normal" in2="BackgroundImageFix" result="effect1_dropShadow_12017_975"/>
<feBlend mode="normal" in="SourceGraphic" in2="effect1_dropShadow_12017_975" result="shape"/>
</filter>
<linearGradient id="paint0_linear_12017_975" x1="201.832" y1="230.786" x2="212.184" y2="237.829" gradientUnits="userSpaceOnUse">
<stop stop-color="#90908C"/>
<stop offset="1" stop-color="#BABAB6"/>
</linearGradient>
<clipPath id="clip0_12017_975">
<rect x="1" y="1" width="511" height="297" rx="20" fill="white"/>
</clipPath>
<clipPath id="clip1_12017_975">
<rect x="-116" y="0.972656" width="631" height="456" rx="10.8397" fill="white"/>
</clipPath>
<clipPath id="clip2_12017_975">
<rect width="14.1478" height="14.1478" fill="white" transform="translate(200.152 224.124)"/>
</clipPath>
</defs>
</svg>
