<svg width="335" height="277" viewBox="0 0 335 277" fill="none" xmlns="http://www.w3.org/2000/svg">
<g clip-path="url(#clip0_30037_67342)">
<path d="M72.3702 180.027C72.3702 180.027 71.6594 200.35 72.3702 203.43C73.081 206.501 73.5548 226.596 76.6261 227.772C79.6973 228.957 100.029 233.914 101.205 223.99C102.389 214.065 94.8253 212.407 94.8253 212.407C94.8253 212.407 86.3136 195.629 104.039 177.895C121.764 160.17 88.0423 155.203 88.0423 155.203L67.8687 164.417L72.3614 180.019L72.3702 180.027Z" fill="#F57100"/>
<path d="M39.9813 133.933C11.8576 142.681 2.17006 107.696 2.64391 106.046C3.11776 104.387 6.07492 106.046 6.07492 106.046C6.07492 106.046 4.5393 76.9745 14.8235 70.5951C18.2546 68.2346 17.7807 73.5522 17.7807 73.5522C17.7807 73.5522 27.828 58.6611 47.2031 58.0732C66.587 57.4853 65.1655 63.5137 65.1655 63.5137C65.1655 63.5137 73.0805 65.0493 83.2506 74.0348C93.412 83.0204 85.0232 81.8358 85.0232 81.8358C85.0232 81.8358 93.7718 88.8119 89.516 101.808C85.2601 114.803 39.9989 133.95 39.9989 133.95L39.9813 133.933Z" fill="#FF943F"/>
<path d="M81.8204 92.1026C81.8204 92.1026 76.8538 87.4957 75.0813 88.0836C73.3087 88.6715 76.9679 93.5241 76.9679 93.5241C66.2098 93.1731 55.6974 100.614 55.6974 100.614C55.6974 100.614 49.669 93.761 41.0432 100.614C32.4174 107.467 45.536 117.278 45.536 117.278C45.536 117.278 47.37 124.175 49.1074 129.817C62.5594 123.473 86.4624 111.074 89.4985 101.799C90.7182 98.0607 90.8674 94.8228 90.455 92.1026C86.6379 91.3655 81.8117 92.1026 81.8117 92.1026H81.8204Z" fill="#F57100"/>
<path d="M61.9014 59.7317C59.383 58.6524 54.9604 57.8276 47.1946 58.0645C27.8107 58.6524 17.7722 73.5435 17.7722 73.5435C17.7722 73.5435 18.246 68.2259 14.815 70.5863C4.53076 76.9657 6.06638 106.037 6.06638 106.037C6.06638 106.037 3.10922 104.379 2.63537 106.037C2.26682 107.31 7.95299 128.413 23.4759 133.985C16.3682 128.712 10.7873 113.04 13.0074 111.715C15.2274 110.381 17.5265 112.25 17.5265 112.25C17.5265 112.25 14.9554 95.7617 15.9294 94.5244C16.9034 93.2871 17.6142 94.5244 17.6142 94.5244C17.6142 94.5244 18.325 82.9151 21.8701 77.6853C25.4152 72.4554 28.1617 71.7446 28.074 73.4294C28.074 73.4294 41.0346 58.1785 61.9014 59.7317Z" fill="white"/>
<path d="M174.598 21.5693C174.598 21.5693 174.238 4.20371 177.871 2.96645C181.504 1.72918 190.542 12.6277 197.992 25.211C205.433 37.7942 213.769 64.2771 213.769 65.0931C213.769 65.9092 213.208 66.62 213.208 66.62C213.208 66.62 213.769 66.62 213.945 67.4799C214.296 69.1647 211.672 72.9906 211.672 72.9906C211.672 72.9906 212.988 72.9906 213.111 74.105C213.234 75.2194 207.206 84.7841 204.608 87.6009C204.608 87.6009 212.286 121.165 210.637 141.962C208.978 162.758 211.347 200.105 212.76 214.048C214.182 227.991 219.376 240.636 219.376 240.636C219.376 240.636 227.765 241.821 228.239 250.92C228.713 260.02 226.818 262.977 212.286 262.74C197.746 262.503 195.974 256.598 191.49 239.934C186.997 223.27 179.907 194.199 176.484 191.602C173.062 189.004 159.584 189.592 154.74 191.602C149.896 193.611 144.702 242.698 142.806 255.466C145.114 258.063 144.561 266.32 143.789 268.479C141.955 273.568 137.015 274.893 127.424 274.964C117.85 275.034 112.638 273.919 111.339 269.19C110.041 264.46 111.032 256.642 113.621 253.395C115.218 253.219 113.542 172.428 82.8908 157.879C79.1702 158.766 74.0808 190.242 55.4691 199.104C46.0711 204.957 45.1848 225.517 46.4309 231.37C51.2132 233.318 56.1799 235.09 54.5828 246.261C52.9858 257.431 36.8574 254.413 29.4075 254.948C21.9663 255.483 20.0095 239.171 21.2555 233.853C22.4928 228.535 18.2545 209.388 20.9133 203.895C21.1766 203.351 21.4486 202.746 21.7294 202.088C25.371 193.541 26.8189 184.239 26.152 174.973C25.02 159.169 25.8712 130.019 44.4828 112.899C70.9569 88.5574 110.9 98.7714 110.9 98.7714C110.9 98.7714 108.996 96.6654 110.786 96.0073C112.015 95.5598 115.393 95.4106 115.393 95.4106C115.393 95.4106 120.176 89.5752 117.754 87.1007C115.779 85.0912 115.06 83.9505 115.165 83.4942C115.428 82.2569 117.561 81.9849 117.561 81.9849C117.561 81.9849 111.848 77.615 111.137 74.7807C110.427 71.9464 112.462 71.3935 112.462 71.3935C112.462 71.3935 110.067 71.5252 111.146 67.7519C111.971 64.4525 122.492 18.1032 143.763 2.86115C153.924 -1.73693 150.379 22.3679 150.379 22.3679C150.379 22.3679 161.585 20.1478 174.607 21.5606L174.598 21.5693Z" fill="#FF943F"/>
<path d="M140.674 89.4699L138.428 87.6096C138.428 87.6096 122.65 74.4033 126.02 64.5666C129.389 54.7299 137.129 59.0647 139.577 59.6877C142.025 60.3108 146.299 61.5568 149.431 61.4603C155.188 61.2848 156.644 51.1673 155.521 46.5692C154.635 42.9363 146.492 44.4369 142.587 44.0859C138.691 43.7349 135.146 41.4271 135.234 36.7325C135.321 32.0379 138.691 32.3889 139.928 33.6261C141.165 34.8634 138.278 39.8651 145.992 39.3386C153.705 38.8033 159.303 38.7156 162.295 45.4197C162.295 45.4197 164.744 39.1894 169.833 38.9525C174.923 38.7156 183.627 39.988 184.101 37.3818C184.575 34.7756 183.329 32.889 186.049 32.5994C188.77 32.3011 189.814 39.2947 188.699 41.0497C187.594 42.8047 184.514 44.7177 178.661 44.0069C172.808 43.2961 169.386 43.5945 169.149 47.1395C168.912 50.6846 169.921 58.6611 173.466 60.2581C177.011 61.8551 184.207 59.6614 189.006 59.521C193.806 59.3806 195.798 60.495 197.694 64.1542C199.484 67.6291 194.324 83.8452 183.584 89.6805C180.363 91.4267 178.441 94.9279 178.599 98.5871C179.056 109.231 191.016 124.403 190.84 137.732C190.603 154.984 170.342 172.244 161.804 172.007C153.266 171.77 133.171 155.212 133.171 135.345C133.171 121.033 150.256 98.9995 140.683 89.4787L140.674 89.4699Z" fill="white"/>
<path d="M155.354 73.482C155.354 73.482 157.557 79.8263 163.436 79.2384C169.315 78.6504 170.158 73.0696 170.158 73.0696C170.158 73.0696 164.893 75.1405 162.918 71.297C162.918 71.297 162.006 75.1931 155.354 73.482Z" fill="#49250D"/>
<path d="M178.556 51.0007C182.022 51.5272 181.882 57.6346 178.556 57.6346C175.23 57.6346 173.686 50.2548 178.556 51.0007Z" fill="#49250D"/>
<path d="M147.282 51.0007C143.815 51.5272 143.956 57.6346 147.282 57.6346C150.607 57.6346 152.152 50.2548 147.282 51.0007Z" fill="#49250D"/>
<path d="M162.919 57.8802C169.965 57.8451 171.229 59.4597 170.141 61.241C169.053 63.0223 164.367 67.1992 162.919 67.1992C161.471 67.1992 157.575 63.6015 156.127 61.8816C154.679 60.1617 154.46 57.9241 162.919 57.8802Z" fill="#49250D"/>
<path d="M164.831 66.3042C162.918 67.1993 163.076 73.3417 167.85 72.9469C171.456 72.4642 170.395 70.1477 171.816 70.1213C173.299 70.095 172.571 74.2192 168.034 74.7721C163.498 75.3249 162.901 72.3589 162.901 72.3589V64.6458L164.831 66.3218V66.3042Z" fill="#49250D"/>
<path d="M160.988 66.3042C162.901 67.1993 162.743 73.3417 157.97 72.9469C154.363 72.4642 155.425 70.1477 154.003 70.1213C152.582 70.095 153.249 74.2192 157.785 74.7721C162.313 75.3249 162.919 72.3589 162.919 72.3589V64.6458L160.988 66.3218V66.3042Z" fill="#49250D"/>
<path d="M117.745 87.1008C117.745 87.1008 116.218 87.7589 116.218 90.1895C116.218 95.5686 135.444 110.363 163.814 110.398C192.71 110.433 205.714 95.1035 206.714 92.4096C207.601 90.014 206.179 87.5834 204.617 87.6185C202.371 87.6711 192.929 103.448 163.015 103.448C133.101 103.448 119.43 85.5213 117.754 87.1095L117.745 87.1008Z" fill="#964EF1"/>
<path d="M165.139 127.211C171.425 127.211 176.52 122.273 176.52 116.181C176.52 110.089 171.425 105.151 165.139 105.151C158.853 105.151 153.758 110.089 153.758 116.181C153.758 122.273 158.853 127.211 165.139 127.211Z" fill="#964EF1"/>
<path d="M171.545 114.356L164.2 121.701C163.647 122.253 162.761 122.253 162.208 121.701L157.461 116.953C157.119 116.611 157.119 116.049 157.461 115.707L158.558 114.61C158.9 114.268 159.461 114.268 159.804 114.61L163.2 118.006L169.193 112.013C169.535 111.671 170.097 111.671 170.439 112.013L171.536 113.11C171.878 113.452 171.878 114.014 171.536 114.356H171.545Z" fill="white"/>
<path d="M179.109 22.5172C178.231 13.1192 177.626 8.33685 180.267 9.22312C182.917 10.1094 189.919 22.7804 187.971 24.1142C186.023 25.448 179.109 24.202 179.109 22.5172Z" fill="#F57100"/>
<path d="M145.974 22.5172C146.852 13.1192 147.457 8.33685 144.816 9.22312C142.166 10.1094 135.164 22.7804 137.112 24.1142C139.06 25.448 145.974 24.202 145.974 22.5172Z" fill="#F57100"/>
<path d="M142.543 233.555C141.007 233.177 138.287 235.231 138.287 235.231C138.287 235.231 138.173 231.449 137.103 231.914C136.032 232.379 135.33 234.634 135.33 234.634C123.984 232.502 113.717 234.634 113.717 234.634C113.621 234.643 113.524 234.669 113.419 234.695C114.288 245.69 114.112 253.351 113.621 253.404C111.032 256.65 110.041 264.469 111.339 269.199C112.638 273.928 117.85 275.043 127.424 274.973C137.015 274.902 141.955 273.577 143.789 268.488C144.57 266.329 145.114 258.072 142.806 255.475C143.333 251.903 144.122 245.489 145.088 238.065C143.789 237.697 142.534 237.372 142.534 237.372C142.534 237.372 144.07 233.941 142.534 233.563L142.543 233.555Z" fill="white"/>
<path d="M212.313 262.749C226.853 262.986 228.74 260.029 228.266 250.929C227.792 241.83 219.403 240.645 219.403 240.645C219.403 240.645 217.095 235.02 215.13 227.14C212.55 227.053 210.365 227.079 210.365 227.079C210.365 227.079 210.453 226.017 208.943 226.017C207.434 226.017 206.636 227.702 206.636 227.702C206.636 227.702 204.775 224.955 203.977 225.306C203.178 225.657 203.977 228.228 203.977 228.228C198.308 228.316 189.586 232.686 189.586 232.686C190.262 235.257 190.911 237.705 191.508 239.934C196 256.598 197.773 262.503 212.304 262.74L212.313 262.749Z" fill="white"/>
<path d="M45.1497 206.344C45.1497 206.344 44.6145 203.597 43.6405 203.773C42.6664 203.948 42.4909 205.484 42.4909 205.484C34.339 204.896 24.3794 194.401 24.3794 194.401C23.6862 197.016 22.8175 199.587 21.7469 202.088C21.4661 202.746 21.1941 203.36 20.9309 203.896C18.2808 209.389 22.5191 228.536 21.2731 233.853C20.0358 239.171 21.9839 255.484 29.425 254.948C36.8662 254.413 53.0033 257.432 54.6004 246.261C56.1974 235.091 51.2308 233.318 46.4484 231.37C45.5622 227.202 45.764 215.575 49.3442 207.116C46.2203 207.634 45.1497 206.344 45.1497 206.344Z" fill="white"/>
<path d="M94.8423 212.407C94.8423 212.407 91.9641 206.73 93.0434 198.499C90.6128 198.885 88.5507 198.639 88.5507 198.639C88.5507 198.639 86.8922 197.305 84.5054 196.963C82.1098 196.621 82.1098 198.122 82.1098 198.122C82.1098 198.122 79.8898 196.946 79.1878 196.963C78.477 196.972 78.7403 198.104 78.7403 198.104C74.8442 198.367 72.0713 195.805 72.0713 195.796C72.0713 199.35 72.1415 202.377 72.3872 203.422C73.098 206.493 73.5718 226.587 76.643 227.763C79.7143 228.948 100.046 233.906 101.222 223.981C102.406 214.057 94.8423 212.398 94.8423 212.398V212.407Z" fill="white"/>
<path d="M179.134 22.5172C178.257 13.1192 177.651 8.33685 180.293 9.22312C182.943 10.1094 189.945 22.7804 187.997 24.1142C186.049 25.448 179.134 24.202 179.134 22.5172Z" fill="#F57100"/>
<path d="M146.001 22.5172C146.878 13.1192 147.484 8.33685 144.842 9.22312C142.192 10.1094 135.19 22.7804 137.138 24.1142C139.086 25.448 146.001 24.202 146.001 22.5172Z" fill="#F57100"/>
<path d="M97.3784 216.856C98.3524 217.698 101.345 222.13 99.1158 227.86C99.8704 227.245 100.467 226.491 100.836 225.552C100.923 224.595 100.941 223.437 100.809 222.103C100.406 218.032 96.4043 216.013 97.3784 216.856Z" fill="#FFECDE"/>
<path d="M146.106 2.28209C153.319 2.28209 150.37 22.3767 150.37 22.3767C150.37 22.3767 156.811 21.0956 165.604 21.0956C168.412 21.0956 171.457 21.2272 174.607 21.5694C174.607 21.5694 174.247 4.2038 177.88 2.96653C178.073 2.90511 178.275 2.87001 178.494 2.87001C182.46 2.87001 190.946 13.2859 198.001 25.211C205.442 37.7943 213.778 64.2771 213.778 65.0932C213.778 65.9181 213.217 66.62 213.217 66.62C213.217 66.62 213.778 66.62 213.954 67.48C214.305 69.1648 211.681 72.9907 211.681 72.9907C211.681 72.9907 212.997 72.9907 213.12 74.1051C213.243 75.2195 207.215 84.7842 204.617 87.601C204.626 87.601 204.644 87.601 204.652 87.601C206.206 87.601 207.601 90.0229 206.714 92.3921C206.6 92.6992 206.328 93.1643 205.907 93.7522C208.022 104.405 211.865 126.641 210.646 141.962C208.987 162.758 211.356 200.105 212.769 214.048C214.191 227.991 219.386 240.636 219.386 240.636C219.386 240.636 227.774 241.821 228.248 250.92C228.704 259.687 226.967 262.749 213.831 262.749C213.34 262.749 212.822 262.749 212.295 262.74C197.755 262.503 195.983 256.598 191.499 239.934C187.006 223.271 179.916 194.199 176.494 191.602C174.888 190.382 171.079 189.864 166.99 189.864C162.34 189.864 157.329 190.531 154.749 191.602C149.905 193.611 144.711 242.698 142.815 255.466C145.123 258.063 144.57 266.32 143.798 268.479C141.964 273.569 137.024 274.894 127.433 274.964C127.161 274.964 126.889 274.964 126.617 274.964C117.561 274.964 112.603 273.779 111.34 269.19C110.041 264.46 111.032 256.642 113.621 253.395C114.797 253.263 114.191 209.476 101.582 180.554C87.1733 197.262 94.825 212.398 94.825 212.398C94.825 212.398 102.389 214.057 101.204 223.981C100.643 228.693 95.7727 230.054 90.4814 230.054C84.6198 230.054 78.2404 228.386 76.6258 227.763C73.5546 226.579 73.0807 206.493 72.3699 203.422C71.7294 200.631 72.2471 183.643 72.3524 180.519C68.43 188.074 63.086 195.48 55.4694 199.113C46.0714 204.966 45.1851 225.526 46.4312 231.379C51.2135 233.327 56.1801 235.099 54.5831 246.27C53.4687 254.088 45.229 254.957 37.8317 254.957C35.7169 254.957 33.6724 254.887 31.8823 254.887C30.9872 254.887 30.1536 254.904 29.4078 254.957C29.2849 254.957 29.1708 254.966 29.0568 254.966C21.9052 254.966 20.0361 239.092 21.2558 233.862C22.4931 228.544 18.2548 209.397 20.9048 203.904C21.1681 203.36 21.4401 202.755 21.7209 202.097C25.3625 193.55 26.8104 184.248 26.1435 174.982C25.4239 164.97 25.5117 149.605 30.3993 135.328C9.62023 134.565 2.22295 107.503 2.64414 106.055C2.80209 105.502 3.23207 105.318 3.74101 105.318C4.75891 105.318 6.06638 106.055 6.06638 106.055C6.06638 106.055 4.53076 76.9833 14.815 70.6039C15.438 70.1739 15.9294 69.9984 16.3243 69.9984C18.0881 69.9984 17.7722 73.561 17.7722 73.561C17.7722 73.561 27.8195 58.6699 47.2034 58.082C48.1072 58.0557 48.9671 58.0381 49.7832 58.0381C66.4468 58.0381 65.1657 63.5137 65.1657 63.5137C65.1657 63.5137 73.0807 65.0493 83.2509 74.0349C91.2975 81.1426 87.7173 81.8885 85.8746 81.8885C85.392 81.8885 85.0234 81.8358 85.0234 81.8358C85.0234 81.8358 91.4642 86.9779 90.5955 96.6655C90.7447 96.6655 90.8851 96.6655 91.0343 96.6655C97.1241 96.6655 102.319 97.2534 105.873 97.815C106.522 97.9203 107.171 97.9642 107.812 97.9642C110.532 97.9642 113.2 97.0779 115.402 95.4282C115.402 95.4282 116.359 94.2524 117.201 92.7431C116.569 91.7778 116.236 90.9091 116.236 90.2071C116.236 87.7765 117.763 87.1183 117.763 87.1183C115.788 85.1089 115.069 83.9681 115.174 83.5118C115.437 82.2746 117.57 82.0025 117.57 82.0025C117.57 82.0025 111.857 77.6326 111.146 74.7983C110.436 71.964 112.471 71.4112 112.471 71.4112C112.471 71.4112 112.463 71.4112 112.445 71.4112C112.173 71.4112 110.155 71.2971 111.155 67.7696C111.98 64.4702 122.501 18.1209 143.772 2.87878C144.658 2.47513 145.439 2.29086 146.123 2.29086M146.123 0.535869C145.167 0.535869 144.132 0.781568 143.043 1.27297L142.885 1.34316L142.745 1.43969C133.856 7.81031 125.783 19.9812 118.754 37.6188C116.28 43.8315 112.682 53.9315 109.567 66.8131L109.444 67.3045C108.926 69.1297 109.014 70.5951 109.69 71.6481C109.242 72.5344 109.058 73.719 109.435 75.202C109.971 77.3518 112.419 79.879 114.323 81.5726C113.902 81.985 113.586 82.4939 113.454 83.117C113.261 84.0032 113.542 85.0211 115.323 87.0569C114.841 87.8116 114.472 88.847 114.472 90.1808C114.472 90.953 114.7 91.8042 115.157 92.6992C114.744 93.3573 114.358 93.8751 114.165 94.1208C112.314 95.4458 110.067 96.1741 107.812 96.1741C107.25 96.1741 106.698 96.1302 106.145 96.0425C103.003 95.5511 98.1683 94.9631 92.4382 94.8842C92.4558 89.3735 90.3235 85.3897 88.5334 83.0117C89.3231 82.5641 89.6829 81.9411 89.8584 81.5024C90.6569 79.3964 89.0336 76.7551 84.4267 72.6835C76.2923 65.4969 69.5268 62.9082 66.7978 62.0922C66.6487 61.592 66.3854 61.0216 65.9291 60.4425C63.7266 57.6608 58.3037 56.2481 49.8095 56.2481C48.9671 56.2481 48.0809 56.2656 47.177 56.2919C32.4439 56.7394 22.9494 64.9616 18.7813 69.5421C18.6848 69.4017 18.5882 69.2701 18.4742 69.1472C17.9213 68.5418 17.1755 68.2171 16.3594 68.2171C15.5433 68.2171 14.7711 68.5067 13.8936 69.1121C9.17271 72.0693 6.13658 79.2648 4.88176 90.5055C4.28506 95.8055 4.24119 100.72 4.28506 103.571C4.11834 103.554 3.95161 103.536 3.78489 103.536C2.416 103.536 1.35423 104.308 0.994453 105.546C0.520605 107.213 3.13554 116.541 8.85681 124.429C14.0955 131.642 20.703 135.907 28.0827 136.864C23.8181 150.684 23.7216 165.163 24.4324 175.078C25.0817 184.169 23.5987 193.269 20.1414 201.377C19.8606 202.026 19.5974 202.614 19.3604 203.114C17.623 206.712 18.3776 214.382 19.0972 221.796C19.5623 226.544 20.0361 231.449 19.5798 233.441C18.6058 237.618 19.3517 248.498 23.5022 253.728C25.0466 255.676 26.9771 256.703 29.0919 256.703C29.2498 256.703 29.4078 256.703 29.5657 256.686C30.1975 256.642 30.9434 256.615 31.9086 256.615C32.7598 256.615 33.6636 256.633 34.6025 256.65C35.6467 256.668 36.7436 256.686 37.8493 256.686C42.9475 256.686 54.8814 256.686 56.3381 246.489C58.0229 234.713 52.6526 232.002 48.0107 230.089C47.1068 223.595 48.4319 205.659 56.3381 200.622C61.6031 198.086 66.245 193.716 70.4219 187.337C70.2727 193.91 70.2113 201.781 70.6764 203.799C70.8431 204.536 71.0361 206.896 71.2467 209.389C72.326 222.612 73.2299 228.307 76.0115 229.387C77.6173 230.001 84.2863 231.791 90.499 231.791C100.055 231.791 102.556 227.649 102.968 224.174C103.951 215.882 99.3354 212.065 96.115 210.933C94.9654 208.107 91.4116 196.849 101.108 183.941C111.655 210.406 112.945 247.937 112.129 252.465C109.102 256.475 108.321 264.767 109.663 269.646C111.278 275.525 117.35 276.71 126.625 276.71C126.897 276.71 127.17 276.71 127.45 276.71C137.129 276.64 143.184 275.367 145.457 269.067C146.229 266.935 147.027 258.8 144.667 255.01C145.018 252.544 145.474 248.99 145.992 244.927C147.159 235.784 148.765 223.253 150.528 212.784C153.266 196.542 154.995 193.681 155.521 193.181C157.829 192.26 162.524 191.619 166.999 191.619C171.895 191.619 174.607 192.365 175.441 192.997C177.88 195.059 184.058 218.55 187.374 231.159C188.243 234.467 189.068 237.591 189.823 240.39C194.236 256.765 196.246 264.241 212.287 264.495C212.822 264.504 213.348 264.513 213.857 264.513C221.369 264.513 225.388 263.512 227.704 261.073C229.951 258.704 230.258 255.273 230.03 250.833C229.635 243.277 224.238 240.022 220.702 239.109C219.543 236.056 215.709 225.341 214.542 213.873C213.006 198.806 210.812 162.276 212.418 142.102C213.612 127.115 210.102 105.914 207.794 94.1383C208.066 93.7083 208.268 93.331 208.39 93.0063C209.066 91.1899 208.829 89.1278 207.785 87.6185C207.653 87.4255 207.504 87.2412 207.346 87.0745C208.68 85.3282 210.207 83.038 211.4 81.1514C215.051 75.3599 214.954 74.4561 214.893 73.912C214.823 73.2627 214.568 72.7274 214.2 72.315C215.095 70.7355 216.025 68.6383 215.7 67.1114C215.63 66.778 215.525 66.4797 215.384 66.2252C215.489 65.8829 215.56 65.4968 215.56 65.0757C215.56 63.5751 206.899 36.7501 199.537 24.3072C198.133 21.9292 185.602 1.10624 178.521 1.09747C178.108 1.09747 177.713 1.15889 177.336 1.29052C174.984 2.09781 173.729 5.46739 173.15 12.5751C172.931 15.2866 172.869 17.9103 172.861 19.6214C170.509 19.4283 168.087 19.323 165.621 19.323C159.847 19.323 155.1 19.8583 152.415 20.2444C152.88 15.6902 153.389 6.18694 150.072 2.35228C149.028 1.15012 147.668 0.509544 146.123 0.509544V0.535869Z" fill="#49250D"/>
<path d="M235.777 84.793C201.098 82.3535 166.297 82.3535 131.618 84.793C128.266 85.0299 125.335 82.529 125.063 79.1858C124.791 75.8337 127.345 72.9029 130.758 72.666C166.007 70.1827 201.379 70.1827 236.628 72.666C240.042 72.9029 242.595 75.8425 242.323 79.1858C242.051 82.5378 239.12 85.0299 235.768 84.793H235.777Z" fill="#49250D"/>
<path d="M294.288 17.1557C282.696 17.1557 271.113 17.1557 259.53 17.1557C255.292 17.1557 251.142 18.5947 247.974 21.3676C239.331 28.9229 230.74 37.5135 223.176 46.1657C220.403 49.3334 218.964 53.484 218.964 57.7223C218.964 69.3052 218.964 80.8969 218.964 92.4799C218.964 96.7182 220.412 100.869 223.176 104.036C230.731 112.68 239.322 121.27 247.974 128.834C251.142 131.607 255.292 133.046 259.53 133.046C271.113 133.046 282.705 133.046 294.288 133.046C298.518 133.046 302.677 131.599 305.845 128.834C314.488 121.279 323.079 112.689 330.643 104.036C333.407 100.869 334.855 96.7182 334.855 92.4799C334.855 80.8969 334.855 69.3052 334.855 57.7223C334.855 53.4927 333.407 49.3334 330.643 46.1657C323.087 37.5223 314.497 28.9316 305.845 21.3676C302.677 18.5947 298.526 17.1557 294.288 17.1557Z" fill="#964EF1"/>
<path d="M289.936 30.8359C281.249 30.8359 272.571 30.8359 263.883 30.8359C260.645 30.8359 257.469 31.9503 255.056 34.0826C248.536 39.8565 242.06 46.4202 236.365 53.0277C234.294 55.4233 233.224 58.556 233.215 61.7413V88.4522C233.215 91.6375 234.294 94.7702 236.365 97.1658C242.06 103.773 248.536 110.337 255.056 116.111C257.46 118.243 260.637 119.358 263.883 119.358C272.571 119.358 281.249 119.358 289.936 119.358C293.183 119.358 296.351 118.243 298.764 116.111C305.284 110.337 311.759 103.773 317.454 97.1658C319.525 94.7702 320.605 91.6375 320.605 88.4522C320.605 79.5457 320.605 70.6479 320.605 61.7413C320.605 58.556 319.525 55.4233 317.454 53.0277C311.759 46.4202 305.284 39.8565 298.764 34.0826C296.359 31.9503 293.183 30.8359 289.936 30.8359Z" fill="#BC92FF"/>
<path d="M274.728 62.3204C301.396 59.3281 312.215 102.755 278.677 103.94C245.139 105.125 248.298 65.2863 274.728 62.3204Z" fill="white"/>
<path d="M294.56 52.0449C302.255 49.6406 306.476 61.4341 299.719 64.3737C292.963 67.3134 283.486 55.5023 294.56 52.0449Z" fill="white"/>
<path d="M259.258 52.0449C251.563 49.6405 247.342 61.4341 254.099 64.3737C260.856 67.3133 270.332 55.5022 259.258 52.0449Z" fill="white"/>
<path d="M276.475 46.2271C267.849 46.2271 266.015 58.3277 277.484 58.3277C288.953 58.3277 283.916 46.2271 276.475 46.2271Z" fill="white"/>
<path d="M157.97 72.9467C160.155 73.131 161.366 71.9376 161.857 70.5073L154.653 70.4371C155.179 71.0864 155.153 72.5782 157.97 72.9467Z" fill="white"/>
<path d="M167.842 72.9469C170.439 72.6047 170.615 71.3147 171.045 70.5952L163.963 70.525C164.464 71.9465 165.666 73.1224 167.842 72.9469Z" fill="white"/>
</g>
<defs>
<clipPath id="clip0_30037_67342">
<rect width="333.957" height="276.2" fill="white" transform="translate(0.897949 0.5271)"/>
</clipPath>
</defs>
</svg>
