<svg width="522" height="90" viewBox="0 0 522 90" fill="none" xmlns="http://www.w3.org/2000/svg">
<g clip-path="url(#clip0_23373_174789)">
<rect x="0.0722656" y="0.917725" width="521.87" height="88.6163" rx="3.8657" fill="#FDFCFC"/>
<rect width="521.87" height="46.0935" transform="translate(0.0722656 0.917725)" fill="#FDFCFC"/>
<g clip-path="url(#clip1_23373_174789)">
<g clip-path="url(#clip2_23373_174789)">
<path d="M18.0486 29.4478H15.9081L19.8053 18.3778H22.2809L26.1835 29.4478H24.043L21.0864 20.648H20.9999L18.0486 29.4478ZM18.1189 25.1073H23.9566V26.7181H18.1189V25.1073ZM30.3834 29.5937C29.7312 29.5937 29.1474 29.4261 28.6321 29.091C28.1168 28.7559 27.7096 28.2694 27.4105 27.6316C27.1114 26.9938 26.9619 26.219 26.9619 25.3073C26.9619 24.3848 27.1132 23.6065 27.4159 22.9723C27.7222 22.3344 28.1348 21.8534 28.6537 21.529C29.1726 21.2011 29.751 21.0372 30.3888 21.0372C30.8753 21.0372 31.2753 21.1201 31.5888 21.2858C31.9023 21.448 32.1509 21.6444 32.3347 21.875C32.5185 22.102 32.6608 22.3164 32.7617 22.5182H32.8428V18.3778H34.8049V29.4478H32.8806V28.1397H32.7617C32.6608 28.3415 32.5149 28.5559 32.3239 28.7829C32.1329 29.0063 31.8807 29.1973 31.5672 29.3559C31.2537 29.5144 30.8591 29.5937 30.3834 29.5937ZM30.9293 27.9883C31.3437 27.9883 31.6969 27.8766 31.9888 27.6532C32.2807 27.4262 32.5023 27.1109 32.6536 26.7073C32.805 26.3037 32.8806 25.8334 32.8806 25.2965C32.8806 24.7596 32.805 24.2929 32.6536 23.8966C32.5059 23.5002 32.2861 23.1921 31.9942 22.9723C31.7059 22.7524 31.3509 22.6425 30.9293 22.6425C30.4933 22.6425 30.1294 22.756 29.8375 22.9831C29.5456 23.2101 29.3258 23.5236 29.178 23.9236C29.0303 24.3236 28.9564 24.7812 28.9564 25.2965C28.9564 25.8154 29.0303 26.2785 29.178 26.6857C29.3294 27.0893 29.551 27.4082 29.8429 27.6424C30.1384 27.873 30.5005 27.9883 30.9293 27.9883ZM36.89 29.4478V21.1453H38.7602V22.556H38.8575C39.0305 22.0804 39.3169 21.7092 39.7169 21.4426C40.1169 21.1723 40.5944 21.0372 41.1493 21.0372C41.7115 21.0372 42.1853 21.1741 42.5709 21.448C42.9601 21.7182 43.234 22.0876 43.3925 22.556H43.479C43.6628 22.0948 43.9727 21.7272 44.4087 21.4534C44.8483 21.1759 45.369 21.0372 45.9708 21.0372C46.7348 21.0372 47.3582 21.2786 47.841 21.7615C48.3239 22.2443 48.5653 22.9488 48.5653 23.8749V29.4478H46.6032V24.1776C46.6032 23.6623 46.4663 23.2858 46.1924 23.0479C45.9186 22.8065 45.5834 22.6858 45.1871 22.6858C44.715 22.6858 44.3456 22.8335 44.079 23.129C43.8159 23.4209 43.6844 23.8011 43.6844 24.2695V29.4478H41.7655V24.0965C41.7655 23.6677 41.6358 23.3254 41.3764 23.0695C41.1205 22.8137 40.7854 22.6858 40.371 22.6858C40.0899 22.6858 39.8341 22.7578 39.6034 22.902C39.3728 23.0425 39.189 23.2425 39.0521 23.502C38.9152 23.7578 38.8467 24.0569 38.8467 24.3992V29.4478H36.89ZM50.5504 29.4478V21.1453H52.5071V29.4478H50.5504ZM51.5342 19.9669C51.2243 19.9669 50.9576 19.8642 50.7342 19.6588C50.5108 19.4498 50.3991 19.1994 50.3991 18.9075C50.3991 18.612 50.5108 18.3616 50.7342 18.1562C50.9576 17.9472 51.2243 17.8427 51.5342 17.8427C51.8477 17.8427 52.1144 17.9472 52.3342 18.1562C52.5576 18.3616 52.6693 18.612 52.6693 18.9075C52.6693 19.1994 52.5576 19.4498 52.3342 19.6588C52.1144 19.8642 51.8477 19.9669 51.5342 19.9669ZM56.4759 24.583V29.4478H54.5192V21.1453H56.3895V22.556H56.4868C56.6777 22.0912 56.9822 21.7218 57.4002 21.448C57.8219 21.1741 58.3426 21.0372 58.9624 21.0372C59.5353 21.0372 60.0344 21.1597 60.4596 21.4047C60.8884 21.6498 61.22 22.0047 61.4542 22.4696C61.692 22.9344 61.8091 23.4984 61.8055 24.1614V29.4478H59.8488V24.4641C59.8488 23.9092 59.7047 23.4749 59.4164 23.1614C59.1317 22.8479 58.7371 22.6912 58.2327 22.6912C57.8903 22.6912 57.5858 22.7669 57.3192 22.9182C57.0561 23.0659 56.8489 23.2804 56.6976 23.5614C56.5498 23.8425 56.4759 24.183 56.4759 24.583Z" fill="#43302B"/>
</g>
</g>
<rect width="48" height="0.966426" transform="translate(15.5352 34.4478)" fill="#D1B9B0"/>
<rect width="521.87" height="42.5228" transform="translate(0.0722656 47.0112)" fill="#FDFCFC"/>
<path d="M19.4014 53.6583H34.8642C35.1348 53.6583 35.3603 53.7549 35.5407 53.9482C35.734 54.1286 35.8306 54.3541 35.8306 54.6247V70.0876C35.8306 70.3581 35.734 70.5836 35.5407 70.764C35.3603 70.9573 35.1348 71.054 34.8642 71.054H19.4014C19.1308 71.054 18.8989 70.9573 18.7056 70.764C18.5252 70.5836 18.435 70.3581 18.435 70.0876V54.6247C18.435 54.3541 18.5252 54.1286 18.7056 53.9482C18.8989 53.7549 19.1308 53.6583 19.4014 53.6583ZM26.1664 66.2218L33.0087 59.3795L31.6364 58.0266L26.1664 63.4965L23.4411 60.7519L22.0687 62.1242L26.1664 66.2218Z" fill="#974EF2"/>
<path d="M53.8549 67.4741H52.6057L56.2188 57.6341H57.4488L61.0619 67.4741H59.8127L56.8723 59.1909H56.7954L53.8549 67.4741ZM54.3162 63.6304H59.3515V64.6874H54.3162V63.6304ZM65.2276 67.6279C64.6126 67.6279 64.0697 67.4725 63.5988 67.1618C63.1279 66.8479 62.7596 66.4059 62.4937 65.8357C62.2279 65.2624 62.0949 64.5849 62.0949 63.8033C62.0949 63.0282 62.2279 62.3555 62.4937 61.7854C62.7596 61.2152 63.1295 60.7748 63.6036 60.4641C64.0777 60.1534 64.6254 59.998 65.2468 59.998C65.7273 59.998 66.1068 60.0781 66.3855 60.2383C66.6674 60.3952 66.882 60.5746 67.0293 60.7764C67.1799 60.975 67.2968 61.1384 67.3801 61.2665H67.4762V57.6341H68.6101V67.4741H67.5146V66.3402H67.3801C67.2968 66.4747 67.1783 66.6445 67.0245 66.8495C66.8708 67.0513 66.6514 67.2323 66.3663 67.3924C66.0812 67.5494 65.7016 67.6279 65.2276 67.6279ZM65.3813 66.6093C65.8362 66.6093 66.2206 66.4908 66.5345 66.2537C66.8484 66.0135 67.087 65.682 67.2504 65.2592C67.4137 64.8332 67.4954 64.3415 67.4954 63.7841C67.4954 63.2332 67.4153 62.7511 67.2552 62.3379C67.095 61.9215 66.858 61.598 66.5441 61.3674C66.2302 61.1336 65.8426 61.0166 65.3813 61.0166C64.9009 61.0166 64.5005 61.14 64.1802 61.3866C63.8631 61.63 63.6244 61.9616 63.4643 62.3812C63.3073 62.7976 63.2288 63.2652 63.2288 63.7841C63.2288 64.3094 63.3089 64.7867 63.4691 65.2159C63.6324 65.6419 63.8727 65.9815 64.1898 66.2345C64.5101 66.4844 64.9073 66.6093 65.3813 66.6093ZM73.631 67.6279C73.016 67.6279 72.473 67.4725 72.0022 67.1618C71.5313 66.8479 71.163 66.4059 70.8971 65.8357C70.6312 65.2624 70.4983 64.5849 70.4983 63.8033C70.4983 63.0282 70.6312 62.3555 70.8971 61.7854C71.163 61.2152 71.5329 60.7748 72.007 60.4641C72.481 60.1534 73.0288 59.998 73.6502 59.998C74.1306 59.998 74.5102 60.0781 74.7889 60.2383C75.0708 60.3952 75.2854 60.5746 75.4327 60.7764C75.5833 60.975 75.7002 61.1384 75.7835 61.2665H75.8796V57.6341H77.0135V67.4741H75.918V66.3402H75.7835C75.7002 66.4747 75.5817 66.6445 75.4279 66.8495C75.2742 67.0513 75.0547 67.2323 74.7697 67.3924C74.4846 67.5494 74.105 67.6279 73.631 67.6279ZM73.7847 66.6093C74.2396 66.6093 74.6239 66.4908 74.9378 66.2537C75.2517 66.0135 75.4904 65.682 75.6537 65.2592C75.8171 64.8332 75.8988 64.3415 75.8988 63.7841C75.8988 63.2332 75.8187 62.7511 75.6585 62.3379C75.4984 61.9215 75.2613 61.598 74.9474 61.3674C74.6335 61.1336 74.246 61.0166 73.7847 61.0166C73.3042 61.0166 72.9039 61.14 72.5835 61.3866C72.2664 61.63 72.0278 61.9616 71.8676 62.3812C71.7107 62.7976 71.6322 63.2652 71.6322 63.7841C71.6322 64.3094 71.7123 64.7867 71.8725 65.2159C72.0358 65.6419 72.276 65.9815 72.5932 66.2345C72.9135 66.4844 73.3107 66.6093 73.7847 66.6093ZM89.6642 57.6341H90.8557V64.1493C90.8557 64.8219 90.6972 65.4225 90.3801 65.951C90.0662 66.4764 89.6225 66.8912 89.0492 67.1954C88.4758 67.4965 87.8032 67.6471 87.0312 67.6471C86.2593 67.6471 85.5866 67.4965 85.0132 67.1954C84.4399 66.8912 83.9946 66.4764 83.6775 65.951C83.3636 65.4225 83.2067 64.8219 83.2067 64.1493V57.6341H84.3982V64.0532C84.3982 64.5337 84.5039 64.9613 84.7153 65.336C84.9268 65.7076 85.2278 66.0007 85.6186 66.2153C86.0126 66.4267 86.4835 66.5324 87.0312 66.5324C87.5789 66.5324 88.0498 66.4267 88.4438 66.2153C88.8378 66.0007 89.1389 65.7076 89.3471 65.336C89.5585 64.9613 89.6642 64.5337 89.6642 64.0532V57.6341ZM98.309 61.7469L97.2904 62.0352C97.2263 61.8655 97.1318 61.7005 97.0069 61.5403C96.8852 61.377 96.7186 61.2425 96.5072 61.1368C96.2958 61.0311 96.0252 60.9782 95.6952 60.9782C95.2436 60.9782 94.8672 61.0823 94.5661 61.2905C94.2682 61.4955 94.1193 61.7566 94.1193 62.0737C94.1193 62.3555 94.2218 62.5782 94.4268 62.7415C94.6318 62.9049 94.9521 63.041 95.3877 63.1499L96.4832 63.419C97.143 63.5791 97.6347 63.8242 97.9582 64.1541C98.2817 64.4808 98.4435 64.902 98.4435 65.4177C98.4435 65.8405 98.3218 66.2185 98.0784 66.5516C97.8381 66.8847 97.5018 67.1474 97.0694 67.3396C96.6369 67.5318 96.1341 67.6279 95.5607 67.6279C94.808 67.6279 94.185 67.4645 93.6917 67.1378C93.1984 66.8111 92.8861 66.3338 92.7548 65.706L93.831 65.4369C93.9335 65.8341 94.1273 66.132 94.4124 66.3306C94.7007 66.5292 95.077 66.6285 95.5415 66.6285C96.07 66.6285 96.4896 66.5164 96.8003 66.2922C97.1142 66.0647 97.2712 65.7925 97.2712 65.4754C97.2712 65.2191 97.1815 65.0045 97.0021 64.8315C96.8227 64.6554 96.5473 64.5241 96.1757 64.4376L94.9457 64.1493C94.2698 63.9891 93.7734 63.7409 93.4563 63.4046C93.1423 63.065 92.9854 62.6406 92.9854 62.1313C92.9854 61.7149 93.1023 61.3466 93.3361 61.0262C93.5732 60.7059 93.8951 60.4545 94.3019 60.2719C94.7119 60.0893 95.1763 59.998 95.6952 59.998C96.4255 59.998 96.9989 60.1582 97.4153 60.4785C97.8349 60.7988 98.1328 61.2216 98.309 61.7469ZM103.245 67.6279C102.533 67.6279 101.92 67.4709 101.404 67.157C100.892 66.8399 100.496 66.3979 100.218 65.8309C99.9422 65.2608 99.8044 64.5977 99.8044 63.8418C99.8044 63.0859 99.9422 62.4196 100.218 61.843C100.496 61.2633 100.884 60.8116 101.38 60.4881C101.88 60.1614 102.463 59.998 103.129 59.998C103.514 59.998 103.893 60.0621 104.268 60.1902C104.643 60.3184 104.984 60.5266 105.291 60.8148C105.599 61.0999 105.844 61.4779 106.026 61.9487C106.209 62.4196 106.3 62.9994 106.3 63.688V64.1685H100.612V63.1884H105.147C105.147 62.7719 105.064 62.4004 104.897 62.0737C104.734 61.7469 104.5 61.4891 104.196 61.3001C103.895 61.1111 103.539 61.0166 103.129 61.0166C102.678 61.0166 102.287 61.1287 101.957 61.353C101.63 61.574 101.379 61.8623 101.203 62.2178C101.026 62.5734 100.938 62.9545 100.938 63.3613V64.0148C100.938 64.5721 101.034 65.0446 101.227 65.4321C101.422 65.8165 101.693 66.1096 102.039 66.3114C102.385 66.51 102.787 66.6093 103.245 66.6093C103.542 66.6093 103.812 66.5676 104.052 66.4844C104.295 66.3979 104.505 66.2697 104.681 66.1C104.857 65.927 104.993 65.7124 105.09 65.4562L106.185 65.7637C106.07 66.1352 105.876 66.4619 105.604 66.7438C105.331 67.0225 104.995 67.2403 104.595 67.3972C104.194 67.551 103.744 67.6279 103.245 67.6279ZM108.025 67.4741V60.0941H109.121V61.2088H109.198C109.332 60.8437 109.576 60.5474 109.928 60.32C110.28 60.0925 110.677 59.9788 111.119 59.9788C111.203 59.9788 111.307 59.9804 111.432 59.9836C111.557 59.9868 111.651 59.9916 111.715 59.998V61.1512C111.677 61.1416 111.589 61.1271 111.451 61.1079C111.316 61.0855 111.174 61.0743 111.023 61.0743C110.665 61.0743 110.344 61.1496 110.062 61.3001C109.784 61.4475 109.563 61.6525 109.399 61.9151C109.239 62.1746 109.159 62.4709 109.159 62.804V67.4741H108.025ZM118.287 61.7469L117.268 62.0352C117.204 61.8655 117.11 61.7005 116.985 61.5403C116.863 61.377 116.696 61.2425 116.485 61.1368C116.274 61.0311 116.003 60.9782 115.673 60.9782C115.221 60.9782 114.845 61.0823 114.544 61.2905C114.246 61.4955 114.097 61.7566 114.097 62.0737C114.097 62.3555 114.2 62.5782 114.405 62.7415C114.61 62.9049 114.93 63.041 115.366 63.1499L116.461 63.419C117.121 63.5791 117.613 63.8242 117.936 64.1541C118.26 64.4808 118.421 64.902 118.421 65.4177C118.421 65.8405 118.3 66.2185 118.056 66.5516C117.816 66.8847 117.48 67.1474 117.047 67.3396C116.615 67.5318 116.112 67.6279 115.539 67.6279C114.786 67.6279 114.163 67.4645 113.67 67.1378C113.176 66.8111 112.864 66.3338 112.733 65.706L113.809 65.4369C113.911 65.8341 114.105 66.132 114.39 66.3306C114.679 66.5292 115.055 66.6285 115.519 66.6285C116.048 66.6285 116.467 66.5164 116.778 66.2922C117.092 66.0647 117.249 65.7925 117.249 65.4754C117.249 65.2191 117.159 65.0045 116.98 64.8315C116.801 64.6554 116.525 64.5241 116.154 64.4376L114.924 64.1493C114.248 63.9891 113.751 63.7409 113.434 63.4046C113.12 63.065 112.963 62.6406 112.963 62.1313C112.963 61.7149 113.08 61.3466 113.314 61.0262C113.551 60.7059 113.873 60.4545 114.28 60.2719C114.69 60.0893 115.154 59.998 115.673 59.998C116.403 59.998 116.977 60.1582 117.393 60.4785C117.813 60.7988 118.111 61.2216 118.287 61.7469Z" fill="#43302B"/>
<path d="M146.97 53.6583H162.433C162.703 53.6583 162.929 53.7549 163.109 53.9482C163.302 54.1286 163.399 54.3541 163.399 54.6247V70.0876C163.399 70.3581 163.302 70.5836 163.109 70.764C162.929 70.9573 162.703 71.054 162.433 71.054H146.97C146.699 71.054 146.467 70.9573 146.274 70.764C146.094 70.5836 146.003 70.3581 146.003 70.0876V54.6247C146.003 54.3541 146.094 54.1286 146.274 53.9482C146.467 53.7549 146.699 53.6583 146.97 53.6583ZM153.735 66.2218L160.577 59.3795L159.205 58.0266L153.735 63.4965L151.009 60.7519L149.637 62.1242L153.735 66.2218Z" fill="#974EF2"/>
<path d="M182.807 67.4741L180.116 57.6341H181.327L183.384 65.6483H183.48L185.575 57.6341H186.92L189.015 65.6483H189.111L191.167 57.6341H192.378L189.687 67.4741H188.457L186.286 59.6329H186.209L184.037 67.4741H182.807ZM193.246 67.4741V60.0941H194.342V61.2088H194.419C194.553 60.8437 194.797 60.5474 195.149 60.32C195.501 60.0925 195.899 59.9788 196.341 59.9788C196.424 59.9788 196.528 59.9804 196.653 59.9836C196.778 59.9868 196.872 59.9916 196.936 59.998V61.1512C196.898 61.1416 196.81 61.1271 196.672 61.1079C196.538 61.0855 196.395 61.0743 196.245 61.0743C195.886 61.0743 195.565 61.1496 195.284 61.3001C195.005 61.4475 194.784 61.6525 194.621 61.9151C194.46 62.1746 194.38 62.4709 194.38 62.804V67.4741H193.246ZM198.28 67.4741V60.0941H199.414V67.4741H198.28ZM198.857 58.8641C198.636 58.8641 198.445 58.7889 198.285 58.6383C198.128 58.4878 198.05 58.3068 198.05 58.0954C198.05 57.884 198.128 57.703 198.285 57.5525C198.445 57.4019 198.636 57.3266 198.857 57.3266C199.078 57.3266 199.267 57.4019 199.424 57.5525C199.584 57.703 199.664 57.884 199.664 58.0954C199.664 58.3068 199.584 58.4878 199.424 58.6383C199.267 58.7889 199.078 58.8641 198.857 58.8641ZM204.701 60.0941V61.0551H200.876V60.0941H204.701ZM201.991 58.326H203.125V65.3601C203.125 65.6804 203.171 65.9206 203.264 66.0808C203.36 66.2377 203.482 66.3434 203.629 66.3979C203.78 66.4491 203.938 66.4747 204.105 66.4747C204.23 66.4747 204.332 66.4683 204.412 66.4555C204.493 66.4395 204.557 66.4267 204.605 66.4171L204.835 67.4357C204.758 67.4645 204.651 67.4933 204.513 67.5222C204.376 67.5542 204.201 67.5702 203.99 67.5702C203.669 67.5702 203.355 67.5013 203.048 67.3636C202.744 67.2259 202.491 67.0161 202.289 66.7342C202.09 66.4523 201.991 66.0968 201.991 65.6676V58.326ZM209.421 67.6279C208.71 67.6279 208.097 67.4709 207.581 67.157C207.069 66.8399 206.673 66.3979 206.394 65.8309C206.119 65.2608 205.981 64.5977 205.981 63.8418C205.981 63.0859 206.119 62.4196 206.394 61.843C206.673 61.2633 207.061 60.8116 207.557 60.4881C208.057 60.1614 208.64 59.998 209.306 59.998C209.69 59.998 210.07 60.0621 210.445 60.1902C210.819 60.3184 211.161 60.5266 211.468 60.8148C211.776 61.0999 212.021 61.4779 212.203 61.9487C212.386 62.4196 212.477 62.9994 212.477 63.688V64.1685H206.788V63.1884H211.324C211.324 62.7719 211.241 62.4004 211.074 62.0737C210.911 61.7469 210.677 61.4891 210.373 61.3001C210.072 61.1111 209.716 61.0166 209.306 61.0166C208.854 61.0166 208.464 61.1287 208.134 61.353C207.807 61.574 207.556 61.8623 207.379 62.2178C207.203 62.5734 207.115 62.9545 207.115 63.3613V64.0148C207.115 64.5721 207.211 65.0446 207.403 65.4321C207.599 65.8165 207.869 66.1096 208.215 66.3114C208.561 66.51 208.963 66.6093 209.421 66.6093C209.719 66.6093 209.988 66.5676 210.229 66.4844C210.472 66.3979 210.682 66.2697 210.858 66.1C211.034 65.927 211.17 65.7124 211.266 65.4562L212.362 65.7637C212.246 66.1352 212.053 66.4619 211.78 66.7438C211.508 67.0225 211.172 67.2403 210.771 67.3972C210.371 67.551 209.921 67.6279 209.421 67.6279Z" fill="#43302B"/>
<path d="M274.538 53.6583H290.001C290.272 53.6583 290.497 53.7549 290.677 53.9482C290.871 54.1286 290.967 54.3541 290.967 54.6247V70.0876C290.967 70.3581 290.871 70.5836 290.677 70.764C290.497 70.9573 290.272 71.054 290.001 71.054H274.538C274.268 71.054 274.036 70.9573 273.842 70.764C273.662 70.5836 273.572 70.3581 273.572 70.0876V54.6247C273.572 54.3541 273.662 54.1286 273.842 53.9482C274.036 53.7549 274.268 53.6583 274.538 53.6583ZM281.303 66.2218L288.145 59.3795L286.773 58.0266L281.303 63.4965L278.578 60.7519L277.205 62.1242L281.303 66.2218Z" fill="#974EF2"/>
<path d="M311.625 67.4741H308.588V57.6341H311.759C312.714 57.6341 313.53 57.8311 314.21 58.2251C314.889 58.6159 315.409 59.178 315.771 59.9116C316.133 60.6419 316.314 61.5163 316.314 62.5349C316.314 63.5599 316.131 64.4424 315.766 65.1823C315.401 65.919 314.869 66.486 314.171 66.8831C313.473 67.2771 312.624 67.4741 311.625 67.4741ZM309.78 66.4171H311.548C312.361 66.4171 313.036 66.2601 313.57 65.9462C314.105 65.6323 314.504 65.1855 314.767 64.6057C315.03 64.026 315.161 63.3357 315.161 62.5349C315.161 61.7405 315.031 61.0567 314.772 60.4833C314.512 59.9068 314.125 59.4647 313.609 59.1572C313.093 58.8465 312.451 58.6912 311.682 58.6912H309.78V66.4171ZM321.253 67.6279C320.542 67.6279 319.929 67.4709 319.413 67.157C318.9 66.8399 318.505 66.3979 318.226 65.8309C317.951 65.2608 317.813 64.5977 317.813 63.8418C317.813 63.0859 317.951 62.4196 318.226 61.843C318.505 61.2633 318.892 60.8116 319.389 60.4881C319.889 60.1614 320.472 59.998 321.138 59.998C321.522 59.998 321.902 60.0621 322.277 60.1902C322.651 60.3184 322.992 60.5266 323.3 60.8148C323.607 61.0999 323.852 61.4779 324.035 61.9487C324.218 62.4196 324.309 62.9994 324.309 63.688V64.1685H318.62V63.1884H323.156C323.156 62.7719 323.073 62.4004 322.906 62.0737C322.743 61.7469 322.509 61.4891 322.204 61.3001C321.903 61.1111 321.548 61.0166 321.138 61.0166C320.686 61.0166 320.295 61.1287 319.966 61.353C319.639 61.574 319.387 61.8623 319.211 62.2178C319.035 62.5734 318.947 62.9545 318.947 63.3613V64.0148C318.947 64.5721 319.043 65.0446 319.235 65.4321C319.431 65.8165 319.701 66.1096 320.047 66.3114C320.393 66.51 320.795 66.6093 321.253 66.6093C321.551 66.6093 321.82 66.5676 322.06 66.4844C322.304 66.3979 322.514 66.2697 322.69 66.1C322.866 65.927 323.002 65.7124 323.098 65.4562L324.194 65.7637C324.078 66.1352 323.885 66.4619 323.612 66.7438C323.34 67.0225 323.004 67.2403 322.603 67.3972C322.203 67.551 321.753 67.6279 321.253 67.6279ZM327.168 57.6341V67.4741H326.034V57.6341H327.168ZM332.339 67.6279C331.628 67.6279 331.014 67.4709 330.499 67.157C329.986 66.8399 329.59 66.3979 329.312 65.8309C329.036 65.2608 328.899 64.5977 328.899 63.8418C328.899 63.0859 329.036 62.4196 329.312 61.843C329.59 61.2633 329.978 60.8116 330.475 60.4881C330.974 60.1614 331.557 59.998 332.223 59.998C332.608 59.998 332.987 60.0621 333.362 60.1902C333.737 60.3184 334.078 60.5266 334.386 60.8148C334.693 61.0999 334.938 61.4779 335.121 61.9487C335.303 62.4196 335.395 62.9994 335.395 63.688V64.1685H329.706V63.1884H334.241C334.241 62.7719 334.158 62.4004 333.992 62.0737C333.828 61.7469 333.594 61.4891 333.29 61.3001C332.989 61.1111 332.633 61.0166 332.223 61.0166C331.772 61.0166 331.381 61.1287 331.051 61.353C330.724 61.574 330.473 61.8623 330.297 62.2178C330.121 62.5734 330.033 62.9545 330.033 63.3613V64.0148C330.033 64.5721 330.129 65.0446 330.321 65.4321C330.516 65.8165 330.787 66.1096 331.133 66.3114C331.479 66.51 331.881 66.6093 332.339 66.6093C332.637 66.6093 332.906 66.5676 333.146 66.4844C333.389 66.3979 333.599 66.2697 333.775 66.1C333.952 65.927 334.088 65.7124 334.184 65.4562L335.279 65.7637C335.164 66.1352 334.97 66.4619 334.698 66.7438C334.426 67.0225 334.089 67.2403 333.689 67.3972C333.288 67.551 332.838 67.6279 332.339 67.6279ZM340.329 60.0941V61.0551H336.504V60.0941H340.329ZM337.619 58.326H338.753V65.3601C338.753 65.6804 338.799 65.9206 338.892 66.0808C338.988 66.2377 339.11 66.3434 339.257 66.3979C339.408 66.4491 339.567 66.4747 339.733 66.4747C339.858 66.4747 339.961 66.4683 340.041 66.4555C340.121 66.4395 340.185 66.4267 340.233 66.4171L340.463 67.4357C340.387 67.4645 340.279 67.4933 340.142 67.5222C340.004 67.5542 339.829 67.5702 339.618 67.5702C339.298 67.5702 338.984 67.5013 338.676 67.3636C338.372 67.2259 338.119 67.0161 337.917 66.7342C337.718 66.4523 337.619 66.0968 337.619 65.6676V58.326ZM345.05 67.6279C344.338 67.6279 343.725 67.4709 343.209 67.157C342.697 66.8399 342.301 66.3979 342.023 65.8309C341.747 65.2608 341.609 64.5977 341.609 63.8418C341.609 63.0859 341.747 62.4196 342.023 61.843C342.301 61.2633 342.689 60.8116 343.185 60.4881C343.685 60.1614 344.268 59.998 344.934 59.998C345.319 59.998 345.698 60.0621 346.073 60.1902C346.448 60.3184 346.789 60.5266 347.096 60.8148C347.404 61.0999 347.649 61.4779 347.831 61.9487C348.014 62.4196 348.105 62.9994 348.105 63.688V64.1685H342.417V63.1884H346.952C346.952 62.7719 346.869 62.4004 346.702 62.0737C346.539 61.7469 346.305 61.4891 346.001 61.3001C345.7 61.1111 345.344 61.0166 344.934 61.0166C344.483 61.0166 344.092 61.1287 343.762 61.353C343.435 61.574 343.184 61.8623 343.008 62.2178C342.831 62.5734 342.743 62.9545 342.743 63.3613V64.0148C342.743 64.5721 342.839 65.0446 343.032 65.4321C343.227 65.8165 343.498 66.1096 343.844 66.3114C344.189 66.51 344.591 66.6093 345.05 66.6093C345.347 66.6093 345.616 66.5676 345.857 66.4844C346.1 66.3979 346.31 66.2697 346.486 66.1C346.662 65.927 346.798 65.7124 346.895 65.4562L347.99 65.7637C347.875 66.1352 347.681 66.4619 347.409 66.7438C347.136 67.0225 346.8 67.2403 346.4 67.3972C345.999 67.551 345.549 67.6279 345.05 67.6279Z" fill="#43302B"/>
<path d="M402.106 53.6583H417.569C417.84 53.6583 418.065 53.7549 418.246 53.9482C418.439 54.1286 418.536 54.3541 418.536 54.6247V70.0876C418.536 70.3581 418.439 70.5836 418.246 70.764C418.065 70.9573 417.84 71.054 417.569 71.054H402.106C401.836 71.054 401.604 70.9573 401.411 70.764C401.23 70.5836 401.14 70.3581 401.14 70.0876V54.6247C401.14 54.3541 401.23 54.1286 401.411 53.9482C401.604 53.7549 401.836 53.6583 402.106 53.6583ZM408.871 66.2218L415.714 59.3795L414.341 58.0266L408.871 63.4965L406.146 60.7519L404.774 62.1242L408.871 66.2218Z" fill="#974EF2"/>
<path d="M436.156 67.4741V57.6341H439.481C440.25 57.6341 440.881 57.7655 441.374 58.0281C441.868 58.2876 442.233 58.6447 442.47 59.0996C442.707 59.5544 442.825 60.0717 442.825 60.6515C442.825 61.2312 442.707 61.7453 442.47 62.1938C442.233 62.6422 441.869 62.9946 441.379 63.2508C440.889 63.5039 440.263 63.6304 439.5 63.6304H436.81V62.5541H439.462C439.987 62.5541 440.41 62.4773 440.73 62.3235C441.054 62.1698 441.288 61.9519 441.432 61.6701C441.579 61.385 441.653 61.0455 441.653 60.6515C441.653 60.2575 441.579 59.9132 441.432 59.6185C441.285 59.3238 441.049 59.0964 440.726 58.9362C440.402 58.7729 439.975 58.6912 439.443 58.6912H437.348V67.4741H436.156ZM440.788 63.0538L443.21 67.4741H441.826L439.443 63.0538H440.788ZM447.672 67.6279C446.961 67.6279 446.348 67.4709 445.832 67.157C445.319 66.8399 444.924 66.3979 444.645 65.8309C444.37 65.2608 444.232 64.5977 444.232 63.8418C444.232 63.0859 444.37 62.4196 444.645 61.843C444.924 61.2633 445.311 60.8116 445.808 60.4881C446.307 60.1614 446.89 59.998 447.557 59.998C447.941 59.998 448.321 60.0621 448.695 60.1902C449.07 60.3184 449.411 60.5266 449.719 60.8148C450.026 61.0999 450.271 61.4779 450.454 61.9487C450.636 62.4196 450.728 62.9994 450.728 63.688V64.1685H445.039V63.1884H449.575C449.575 62.7719 449.491 62.4004 449.325 62.0737C449.161 61.7469 448.928 61.4891 448.623 61.3001C448.322 61.1111 447.967 61.0166 447.557 61.0166C447.105 61.0166 446.714 61.1287 446.384 61.353C446.058 61.574 445.806 61.8623 445.63 62.2178C445.454 62.5734 445.366 62.9545 445.366 63.3613V64.0148C445.366 64.5721 445.462 65.0446 445.654 65.4321C445.849 65.8165 446.12 66.1096 446.466 66.3114C446.812 66.51 447.214 66.6093 447.672 66.6093C447.97 66.6093 448.239 66.5676 448.479 66.4844C448.723 66.3979 448.932 66.2697 449.109 66.1C449.285 65.927 449.421 65.7124 449.517 65.4562L450.612 65.7637C450.497 66.1352 450.303 66.4619 450.031 66.7438C449.759 67.0225 449.423 67.2403 449.022 67.3972C448.622 67.551 448.172 67.6279 447.672 67.6279ZM454.624 67.6471C454.157 67.6471 453.732 67.559 453.351 67.3828C452.97 67.2035 452.667 66.9456 452.443 66.6093C452.219 66.2697 452.107 65.8598 452.107 65.3793C452.107 64.9565 452.19 64.6137 452.357 64.3511C452.523 64.0852 452.746 63.877 453.024 63.7265C453.303 63.5759 453.611 63.4638 453.947 63.3901C454.286 63.3133 454.628 63.2524 454.97 63.2076C455.419 63.1499 455.782 63.1067 456.061 63.0778C456.343 63.0458 456.548 62.993 456.676 62.9193C456.807 62.8456 456.873 62.7175 456.873 62.5349V62.4965C456.873 62.0224 456.743 61.6541 456.484 61.3914C456.228 61.1287 455.838 60.9974 455.316 60.9974C454.775 60.9974 454.351 61.1159 454.043 61.353C453.736 61.59 453.519 61.843 453.394 62.1121L452.318 61.7277C452.51 61.2793 452.767 60.9302 453.087 60.6803C453.41 60.4273 453.763 60.2511 454.144 60.1518C454.528 60.0493 454.906 59.998 455.278 59.998C455.515 59.998 455.787 60.0269 456.095 60.0845C456.405 60.139 456.705 60.2527 456.993 60.4257C457.285 60.5986 457.526 60.8597 457.719 61.2088C457.911 61.558 458.007 62.0256 458.007 62.6118V67.4741H456.873V66.4747H456.815C456.738 66.6349 456.61 66.8063 456.431 66.9888C456.252 67.1714 456.013 67.3268 455.715 67.4549C455.417 67.583 455.054 67.6471 454.624 67.6471ZM454.797 66.6285C455.246 66.6285 455.624 66.5404 455.931 66.3642C456.242 66.1881 456.476 65.9606 456.633 65.682C456.793 65.4033 456.873 65.1102 456.873 64.8027V63.7649C456.825 63.8226 456.719 63.8754 456.556 63.9235C456.396 63.9683 456.21 64.0083 455.999 64.0436C455.79 64.0756 455.587 64.1044 455.388 64.1301C455.193 64.1525 455.034 64.1717 454.913 64.1877C454.618 64.2262 454.343 64.2886 454.086 64.3751C453.833 64.4584 453.628 64.5849 453.471 64.7547C453.318 64.9212 453.241 65.1487 453.241 65.4369C453.241 65.8309 453.386 66.1288 453.678 66.3306C453.973 66.5292 454.346 66.6285 454.797 66.6285ZM462.863 67.6279C462.248 67.6279 461.705 67.4725 461.234 67.1618C460.764 66.8479 460.395 66.4059 460.129 65.8357C459.863 65.2624 459.731 64.5849 459.731 63.8033C459.731 63.0282 459.863 62.3555 460.129 61.7854C460.395 61.2152 460.765 60.7748 461.239 60.4641C461.713 60.1534 462.261 59.998 462.882 59.998C463.363 59.998 463.742 60.0781 464.021 60.2383C464.303 60.3952 464.518 60.5746 464.665 60.7764C464.815 60.975 464.932 61.1384 465.016 61.2665H465.112V57.6341H466.246V67.4741H465.15V66.3402H465.016C464.932 66.4747 464.814 66.6445 464.66 66.8495C464.506 67.0513 464.287 67.2323 464.002 67.3924C463.717 67.5494 463.337 67.6279 462.863 67.6279ZM463.017 66.6093C463.472 66.6093 463.856 66.4908 464.17 66.2537C464.484 66.0135 464.723 65.682 464.886 65.2592C465.049 64.8332 465.131 64.3415 465.131 63.7841C465.131 63.2332 465.051 62.7511 464.891 62.3379C464.731 61.9215 464.494 61.598 464.18 61.3674C463.866 61.1336 463.478 61.0166 463.017 61.0166C462.536 61.0166 462.136 61.14 461.816 61.3866C461.499 61.63 461.26 61.9616 461.1 62.3812C460.943 62.7976 460.864 63.2652 460.864 63.7841C460.864 64.3094 460.945 64.7867 461.105 65.2159C461.268 65.6419 461.508 65.9815 461.825 66.2345C462.146 66.4844 462.543 66.6093 463.017 66.6093Z" fill="#43302B"/>
</g>
<rect x="0.972266" y="1.81772" width="520.07" height="86.8163" rx="2.9657" stroke="#D1B9B0" stroke-width="1.8"/>
<defs>
<clipPath id="clip0_23373_174789">
<rect x="0.0722656" y="0.917725" width="521.87" height="88.6163" rx="3.8657" fill="white"/>
</clipPath>
<clipPath id="clip1_23373_174789">
<rect width="48" height="20" fill="white" transform="translate(15.5352 14.4478)"/>
</clipPath>
<clipPath id="clip2_23373_174789">
<rect width="48" height="20" fill="white" transform="translate(15.5352 14.4478)"/>
</clipPath>
</defs>
</svg>
