<svg width="522" height="90" viewBox="0 0 522 90" fill="none" xmlns="http://www.w3.org/2000/svg">
<g clip-path="url(#clip0_23373_174808)">
<rect x="0.0722656" y="0.533936" width="521.87" height="88.6163" rx="3.8657" fill="#FDFCFC"/>
<rect width="521.87" height="46.0935" transform="translate(0.0722656 0.533936)" fill="#FDFCFC"/>
<g clip-path="url(#clip1_23373_174808)">
<g clip-path="url(#clip2_23373_174808)">
<path d="M16.627 29.064V17.994H23.8268V19.675H18.6324V22.6804H23.4539V24.3614H18.6324V27.3829H23.8701V29.064H16.627ZM28.8672 29.2099C28.215 29.2099 27.6312 29.0423 27.1159 28.7072C26.6006 28.3721 26.1934 27.8856 25.8943 27.2478C25.5952 26.61 25.4457 25.8352 25.4457 24.9235C25.4457 24.001 25.597 23.2227 25.8997 22.5885C26.206 21.9506 26.6186 21.4696 27.1375 21.1453C27.6565 20.8173 28.2348 20.6534 28.8726 20.6534C29.3591 20.6534 29.7591 20.7363 30.0726 20.902C30.3861 21.0642 30.6347 21.2606 30.8185 21.4912C31.0023 21.7182 31.1446 21.9326 31.2455 22.1344H31.3266V17.994H33.2887V29.064H31.3645V27.7559H31.2455C31.1446 27.9577 30.9987 28.1721 30.8077 28.3991C30.6167 28.6225 30.3645 28.8135 30.051 28.9721C29.7375 29.1306 29.3429 29.2099 28.8672 29.2099ZM29.4132 27.6045C29.8276 27.6045 30.1807 27.4928 30.4726 27.2694C30.7645 27.0424 30.9861 26.7271 31.1374 26.3235C31.2888 25.9199 31.3645 25.4496 31.3645 24.9127C31.3645 24.3758 31.2888 23.9091 31.1374 23.5128C30.9897 23.1164 30.7699 22.8083 30.478 22.5885C30.1897 22.3686 29.8348 22.2587 29.4132 22.2587C28.9771 22.2587 28.6132 22.3723 28.3213 22.5993C28.0294 22.8263 27.8096 23.1398 27.6619 23.5398C27.5141 23.9398 27.4402 24.3974 27.4402 24.9127C27.4402 25.4316 27.5141 25.8947 27.6619 26.3019C27.8132 26.7055 28.0348 27.0244 28.3267 27.2586C28.6222 27.4892 28.9843 27.6045 29.4132 27.6045ZM35.3738 29.064V20.7615H37.3305V29.064H35.3738ZM36.3576 19.5831C36.0477 19.5831 35.781 19.4804 35.5576 19.275C35.3342 19.066 35.2225 18.8156 35.2225 18.5237C35.2225 18.2282 35.3342 17.9778 35.5576 17.7724C35.781 17.5634 36.0477 17.4589 36.3576 17.4589C36.6711 17.4589 36.9377 17.5634 37.1575 17.7724C37.381 17.9778 37.4927 18.2282 37.4927 18.5237C37.4927 18.8156 37.381 19.066 37.1575 19.275C36.9377 19.4804 36.6711 19.5831 36.3576 19.5831ZM43.4885 20.7615V22.275H38.7156V20.7615H43.4885ZM39.894 18.7724H41.8507V26.5667C41.8507 26.8298 41.8903 27.0316 41.9696 27.1721C42.0525 27.3091 42.1606 27.4027 42.2939 27.4532C42.4272 27.5036 42.575 27.5289 42.7371 27.5289C42.8596 27.5289 42.9714 27.5199 43.0723 27.5018C43.1768 27.4838 43.256 27.4676 43.3101 27.4532L43.6398 28.9829C43.5353 29.0189 43.3858 29.0586 43.1912 29.1018C43.0002 29.145 42.766 29.1703 42.4885 29.1775C41.9984 29.1919 41.557 29.118 41.1642 28.9559C40.7714 28.7901 40.4597 28.5342 40.2291 28.1883C40.0021 27.8424 39.8904 27.41 39.894 26.8911V18.7724ZM48.6572 29.2261C47.8464 29.2261 47.1438 29.0477 46.5492 28.691C45.9546 28.3343 45.4934 27.8352 45.1654 27.1937C44.8411 26.5523 44.679 25.8028 44.679 24.9452C44.679 24.0875 44.8411 23.3362 45.1654 22.6912C45.4934 22.0461 45.9546 21.5452 46.5492 21.1885C47.1438 20.8318 47.8464 20.6534 48.6572 20.6534C49.468 20.6534 50.1707 20.8318 50.7653 21.1885C51.3599 21.5452 51.8193 22.0461 52.1436 22.6912C52.4715 23.3362 52.6355 24.0875 52.6355 24.9452C52.6355 25.8028 52.4715 26.5523 52.1436 27.1937C51.8193 27.8352 51.3599 28.3343 50.7653 28.691C50.1707 29.0477 49.468 29.2261 48.6572 29.2261ZM48.668 27.6586C49.1077 27.6586 49.4752 27.5379 49.7707 27.2964C50.0662 27.0514 50.286 26.7235 50.4302 26.3127C50.5779 25.9019 50.6518 25.4442 50.6518 24.9398C50.6518 24.4317 50.5779 23.9722 50.4302 23.5614C50.286 23.147 50.0662 22.8173 49.7707 22.5722C49.4752 22.3272 49.1077 22.2047 48.668 22.2047C48.2176 22.2047 47.8428 22.3272 47.5438 22.5722C47.2483 22.8173 47.0267 23.147 46.8789 23.5614C46.7348 23.9722 46.6627 24.4317 46.6627 24.9398C46.6627 25.4442 46.7348 25.9019 46.8789 26.3127C47.0267 26.7235 47.2483 27.0514 47.5438 27.2964C47.8428 27.5379 48.2176 27.6586 48.668 27.6586ZM54.2963 29.064V20.7615H56.1935V22.1452H56.28C56.4314 21.666 56.6908 21.2966 57.0584 21.0372C57.4295 20.7741 57.8529 20.6426 58.3286 20.6426C58.4367 20.6426 58.5574 20.648 58.6908 20.6588C58.8277 20.666 58.9412 20.6786 59.0313 20.6966V22.4966C58.9484 22.4677 58.8169 22.4425 58.6367 22.4209C58.4601 22.3957 58.289 22.3831 58.1232 22.3831C57.7665 22.3831 57.4457 22.4605 57.1611 22.6155C56.88 22.7668 56.6584 22.9776 56.4962 23.2479C56.3341 23.5182 56.253 23.8299 56.253 24.183V29.064H54.2963Z" fill="#43302B"/>
</g>
</g>
<rect width="44" height="0.966426" transform="translate(15.5352 34.064)" fill="#D1B9B0"/>
<rect width="521.87" height="42.5228" transform="translate(0.0722656 46.6274)" fill="#FDFCFC"/>
<path d="M19.4014 53.2745H34.8642C35.1348 53.2745 35.3603 53.3712 35.5407 53.5644C35.734 53.7448 35.8306 53.9703 35.8306 54.2409V69.7038C35.8306 69.9744 35.734 70.1999 35.5407 70.3803C35.3603 70.5735 35.1348 70.6702 34.8642 70.6702H19.4014C19.1308 70.6702 18.8989 70.5735 18.7056 70.3803C18.5252 70.1999 18.435 69.9744 18.435 69.7038V54.2409C18.435 53.9703 18.5252 53.7448 18.7056 53.5644C18.8989 53.3712 19.1308 53.2745 19.4014 53.2745ZM20.3678 55.2074V68.7373H33.8978V55.2074H20.3678Z" fill="#A18072"/>
<path d="M53.8549 67.0903H52.6057L56.2188 57.2504H57.4488L61.0619 67.0903H59.8127L56.8723 58.8071H56.7954L53.8549 67.0903ZM54.3162 63.2466H59.3515V64.3036H54.3162V63.2466ZM65.2276 67.2441C64.6126 67.2441 64.0697 67.0887 63.5988 66.778C63.1279 66.4641 62.7596 66.0221 62.4937 65.4519C62.2279 64.8786 62.0949 64.2011 62.0949 63.4196C62.0949 62.6444 62.2279 61.9718 62.4937 61.4016C62.7596 60.8314 63.1295 60.391 63.6036 60.0803C64.0777 59.7696 64.6254 59.6143 65.2468 59.6143C65.7273 59.6143 66.1068 59.6943 66.3855 59.8545C66.6674 60.0114 66.882 60.1908 67.0293 60.3926C67.1799 60.5912 67.2968 60.7546 67.3801 60.8827H67.4762V57.2504H68.6101V67.0903H67.5146V65.9564H67.3801C67.2968 66.091 67.1783 66.2607 67.0245 66.4657C66.8708 66.6675 66.6514 66.8485 66.3663 67.0087C66.0812 67.1656 65.7016 67.2441 65.2276 67.2441ZM65.3813 66.2255C65.8362 66.2255 66.2206 66.107 66.5345 65.8699C66.8484 65.6297 67.087 65.2982 67.2504 64.8754C67.4137 64.4494 67.4954 63.9577 67.4954 63.4003C67.4954 62.8494 67.4153 62.3673 67.2552 61.9541C67.095 61.5377 66.858 61.2142 66.5441 60.9836C66.2302 60.7498 65.8426 60.6328 65.3813 60.6328C64.9009 60.6328 64.5005 60.7562 64.1802 61.0028C63.8631 61.2462 63.6244 61.5778 63.4643 61.9974C63.3073 62.4138 63.2288 62.8814 63.2288 63.4003C63.2288 63.9257 63.3089 64.4029 63.4691 64.8321C63.6324 65.2581 63.8727 65.5977 64.1898 65.8507C64.5101 66.1006 64.9073 66.2255 65.3813 66.2255ZM73.631 67.2441C73.016 67.2441 72.473 67.0887 72.0022 66.778C71.5313 66.4641 71.163 66.0221 70.8971 65.4519C70.6312 64.8786 70.4983 64.2011 70.4983 63.4196C70.4983 62.6444 70.6312 61.9718 70.8971 61.4016C71.163 60.8314 71.5329 60.391 72.007 60.0803C72.481 59.7696 73.0288 59.6143 73.6502 59.6143C74.1306 59.6143 74.5102 59.6943 74.7889 59.8545C75.0708 60.0114 75.2854 60.1908 75.4327 60.3926C75.5833 60.5912 75.7002 60.7546 75.7835 60.8827H75.8796V57.2504H77.0135V67.0903H75.918V65.9564H75.7835C75.7002 66.091 75.5817 66.2607 75.4279 66.4657C75.2742 66.6675 75.0547 66.8485 74.7697 67.0087C74.4846 67.1656 74.105 67.2441 73.631 67.2441ZM73.7847 66.2255C74.2396 66.2255 74.6239 66.107 74.9378 65.8699C75.2517 65.6297 75.4904 65.2982 75.6537 64.8754C75.8171 64.4494 75.8988 63.9577 75.8988 63.4003C75.8988 62.8494 75.8187 62.3673 75.6585 61.9541C75.4984 61.5377 75.2613 61.2142 74.9474 60.9836C74.6335 60.7498 74.246 60.6328 73.7847 60.6328C73.3042 60.6328 72.9039 60.7562 72.5835 61.0028C72.2664 61.2462 72.0278 61.5778 71.8676 61.9974C71.7107 62.4138 71.6322 62.8814 71.6322 63.4003C71.6322 63.9257 71.7123 64.4029 71.8725 64.8321C72.0358 65.2581 72.276 65.5977 72.5932 65.8507C72.9135 66.1006 73.3107 66.2255 73.7847 66.2255ZM89.6642 57.2504H90.8557V63.7655C90.8557 64.4382 90.6972 65.0387 90.3801 65.5672C90.0662 66.0926 89.6225 66.5074 89.0492 66.8117C88.4758 67.1128 87.8032 67.2633 87.0312 67.2633C86.2593 67.2633 85.5866 67.1128 85.0132 66.8117C84.4399 66.5074 83.9946 66.0926 83.6775 65.5672C83.3636 65.0387 83.2067 64.4382 83.2067 63.7655V57.2504H84.3982V63.6694C84.3982 64.1499 84.5039 64.5775 84.7153 64.9523C84.9268 65.3238 85.2278 65.6169 85.6186 65.8315C86.0126 66.0429 86.4835 66.1486 87.0312 66.1486C87.5789 66.1486 88.0498 66.0429 88.4438 65.8315C88.8378 65.6169 89.1389 65.3238 89.3471 64.9523C89.5585 64.5775 89.6642 64.1499 89.6642 63.6694V57.2504ZM98.309 61.3632L97.2904 61.6514C97.2263 61.4817 97.1318 61.3167 97.0069 61.1566C96.8852 60.9932 96.7186 60.8587 96.5072 60.753C96.2958 60.6473 96.0252 60.5944 95.6952 60.5944C95.2436 60.5944 94.8672 60.6985 94.5661 60.9067C94.2682 61.1117 94.1193 61.3728 94.1193 61.6899C94.1193 61.9718 94.2218 62.1944 94.4268 62.3577C94.6318 62.5211 94.9521 62.6572 95.3877 62.7661L96.4832 63.0352C97.143 63.1953 97.6347 63.4404 97.9582 63.7703C98.2817 64.097 98.4435 64.5182 98.4435 65.0339C98.4435 65.4567 98.3218 65.8347 98.0784 66.1678C97.8381 66.501 97.5018 66.7636 97.0694 66.9558C96.6369 67.148 96.1341 67.2441 95.5607 67.2441C94.808 67.2441 94.185 67.0807 93.6917 66.754C93.1984 66.4273 92.8861 65.95 92.7548 65.3222L93.831 65.0531C93.9335 65.4503 94.1273 65.7482 94.4124 65.9468C94.7007 66.1454 95.077 66.2447 95.5415 66.2447C96.07 66.2447 96.4896 66.1326 96.8003 65.9084C97.1142 65.681 97.2712 65.4087 97.2712 65.0916C97.2712 64.8353 97.1815 64.6207 97.0021 64.4478C96.8227 64.2716 96.5473 64.1403 96.1757 64.0538L94.9457 63.7655C94.2698 63.6053 93.7734 63.3571 93.4563 63.0208C93.1423 62.6812 92.9854 62.2568 92.9854 61.7475C92.9854 61.3311 93.1023 60.9628 93.3361 60.6425C93.5732 60.3221 93.8951 60.0707 94.3019 59.8881C94.7119 59.7055 95.1763 59.6143 95.6952 59.6143C96.4255 59.6143 96.9989 59.7744 97.4153 60.0947C97.8349 60.415 98.1328 60.8378 98.309 61.3632ZM103.245 67.2441C102.533 67.2441 101.92 67.0871 101.404 66.7732C100.892 66.4561 100.496 66.0141 100.218 65.4471C99.9422 64.877 99.8044 64.2139 99.8044 63.458C99.8044 62.7021 99.9422 62.0358 100.218 61.4593C100.496 60.8795 100.884 60.4278 101.38 60.1043C101.88 59.7776 102.463 59.6143 103.129 59.6143C103.514 59.6143 103.893 59.6783 104.268 59.8064C104.643 59.9346 104.984 60.1428 105.291 60.4311C105.599 60.7161 105.844 61.0941 106.026 61.565C106.209 62.0358 106.3 62.6156 106.3 63.3042V63.7847H100.612V62.8046H105.147C105.147 62.3882 105.064 62.0166 104.897 61.6899C104.734 61.3632 104.5 61.1053 104.196 60.9163C103.895 60.7273 103.539 60.6328 103.129 60.6328C102.678 60.6328 102.287 60.745 101.957 60.9692C101.63 61.1902 101.379 61.4785 101.203 61.834C101.026 62.1896 100.938 62.5707 100.938 62.9775V63.631C100.938 64.1883 101.034 64.6608 101.227 65.0483C101.422 65.4327 101.693 65.7258 102.039 65.9276C102.385 66.1262 102.787 66.2255 103.245 66.2255C103.542 66.2255 103.812 66.1838 104.052 66.1006C104.295 66.0141 104.505 65.886 104.681 65.7162C104.857 65.5432 104.993 65.3286 105.09 65.0724L106.185 65.3799C106.07 65.7514 105.876 66.0781 105.604 66.36C105.331 66.6387 104.995 66.8565 104.595 67.0135C104.194 67.1672 103.744 67.2441 103.245 67.2441ZM108.025 67.0903V59.7104H109.121V60.825H109.198C109.332 60.4599 109.576 60.1636 109.928 59.9362C110.28 59.7087 110.677 59.595 111.119 59.595C111.203 59.595 111.307 59.5966 111.432 59.5998C111.557 59.603 111.651 59.6079 111.715 59.6143V60.7674C111.677 60.7578 111.589 60.7434 111.451 60.7241C111.316 60.7017 111.174 60.6905 111.023 60.6905C110.665 60.6905 110.344 60.7658 110.062 60.9163C109.784 61.0637 109.563 61.2687 109.399 61.5313C109.239 61.7908 109.159 62.0871 109.159 62.4202V67.0903H108.025ZM118.287 61.3632L117.268 61.6514C117.204 61.4817 117.11 61.3167 116.985 61.1566C116.863 60.9932 116.696 60.8587 116.485 60.753C116.274 60.6473 116.003 60.5944 115.673 60.5944C115.221 60.5944 114.845 60.6985 114.544 60.9067C114.246 61.1117 114.097 61.3728 114.097 61.6899C114.097 61.9718 114.2 62.1944 114.405 62.3577C114.61 62.5211 114.93 62.6572 115.366 62.7661L116.461 63.0352C117.121 63.1953 117.613 63.4404 117.936 63.7703C118.26 64.097 118.421 64.5182 118.421 65.0339C118.421 65.4567 118.3 65.8347 118.056 66.1678C117.816 66.501 117.48 66.7636 117.047 66.9558C116.615 67.148 116.112 67.2441 115.539 67.2441C114.786 67.2441 114.163 67.0807 113.67 66.754C113.176 66.4273 112.864 65.95 112.733 65.3222L113.809 65.0531C113.911 65.4503 114.105 65.7482 114.39 65.9468C114.679 66.1454 115.055 66.2447 115.519 66.2447C116.048 66.2447 116.467 66.1326 116.778 65.9084C117.092 65.681 117.249 65.4087 117.249 65.0916C117.249 64.8353 117.159 64.6207 116.98 64.4478C116.801 64.2716 116.525 64.1403 116.154 64.0538L114.924 63.7655C114.248 63.6053 113.751 63.3571 113.434 63.0208C113.12 62.6812 112.963 62.2568 112.963 61.7475C112.963 61.3311 113.08 60.9628 113.314 60.6425C113.551 60.3221 113.873 60.0707 114.28 59.8881C114.69 59.7055 115.154 59.6143 115.673 59.6143C116.403 59.6143 116.977 59.7744 117.393 60.0947C117.813 60.415 118.111 60.8378 118.287 61.3632Z" fill="#43302B"/>
<path d="M146.97 53.2745H162.433C162.703 53.2745 162.929 53.3712 163.109 53.5644C163.302 53.7448 163.399 53.9703 163.399 54.2409V69.7038C163.399 69.9744 163.302 70.1999 163.109 70.3803C162.929 70.5735 162.703 70.6702 162.433 70.6702H146.97C146.699 70.6702 146.467 70.5735 146.274 70.3803C146.094 70.1999 146.003 69.9744 146.003 69.7038V54.2409C146.003 53.9703 146.094 53.7448 146.274 53.5644C146.467 53.3712 146.699 53.2745 146.97 53.2745ZM153.735 65.8381L160.577 58.9958L159.205 57.6428L153.735 63.1127L151.009 60.3681L149.637 61.7404L153.735 65.8381Z" fill="#974EF2"/>
<path d="M182.807 67.0903L180.116 57.2504H181.327L183.384 65.2646H183.48L185.575 57.2504H186.92L189.015 65.2646H189.111L191.167 57.2504H192.378L189.687 67.0903H188.457L186.286 59.2491H186.209L184.037 67.0903H182.807ZM193.246 67.0903V59.7104H194.342V60.825H194.419C194.553 60.4599 194.797 60.1636 195.149 59.9362C195.501 59.7087 195.899 59.595 196.341 59.595C196.424 59.595 196.528 59.5966 196.653 59.5998C196.778 59.603 196.872 59.6079 196.936 59.6143V60.7674C196.898 60.7578 196.81 60.7434 196.672 60.7241C196.538 60.7017 196.395 60.6905 196.245 60.6905C195.886 60.6905 195.565 60.7658 195.284 60.9163C195.005 61.0637 194.784 61.2687 194.621 61.5313C194.46 61.7908 194.38 62.0871 194.38 62.4202V67.0903H193.246ZM198.28 67.0903V59.7104H199.414V67.0903H198.28ZM198.857 58.4804C198.636 58.4804 198.445 58.4051 198.285 58.2545C198.128 58.104 198.05 57.923 198.05 57.7116C198.05 57.5002 198.128 57.3192 198.285 57.1687C198.445 57.0181 198.636 56.9429 198.857 56.9429C199.078 56.9429 199.267 57.0181 199.424 57.1687C199.584 57.3192 199.664 57.5002 199.664 57.7116C199.664 57.923 199.584 58.104 199.424 58.2545C199.267 58.4051 199.078 58.4804 198.857 58.4804ZM204.701 59.7104V60.6713H200.876V59.7104H204.701ZM201.991 57.9422H203.125V64.9763C203.125 65.2966 203.171 65.5368 203.264 65.697C203.36 65.8539 203.482 65.9596 203.629 66.0141C203.78 66.0653 203.938 66.091 204.105 66.091C204.23 66.091 204.332 66.0846 204.412 66.0717C204.493 66.0557 204.557 66.0429 204.605 66.0333L204.835 67.0519C204.758 67.0807 204.651 67.1096 204.513 67.1384C204.376 67.1704 204.201 67.1864 203.99 67.1864C203.669 67.1864 203.355 67.1176 203.048 66.9798C202.744 66.8421 202.491 66.6323 202.289 66.3504C202.09 66.0685 201.991 65.713 201.991 65.2838V57.9422ZM209.421 67.2441C208.71 67.2441 208.097 67.0871 207.581 66.7732C207.069 66.4561 206.673 66.0141 206.394 65.4471C206.119 64.877 205.981 64.2139 205.981 63.458C205.981 62.7021 206.119 62.0358 206.394 61.4593C206.673 60.8795 207.061 60.4278 207.557 60.1043C208.057 59.7776 208.64 59.6143 209.306 59.6143C209.69 59.6143 210.07 59.6783 210.445 59.8064C210.819 59.9346 211.161 60.1428 211.468 60.4311C211.776 60.7161 212.021 61.0941 212.203 61.565C212.386 62.0358 212.477 62.6156 212.477 63.3042V63.7847H206.788V62.8046H211.324C211.324 62.3882 211.241 62.0166 211.074 61.6899C210.911 61.3632 210.677 61.1053 210.373 60.9163C210.072 60.7273 209.716 60.6328 209.306 60.6328C208.854 60.6328 208.464 60.745 208.134 60.9692C207.807 61.1902 207.556 61.4785 207.379 61.834C207.203 62.1896 207.115 62.5707 207.115 62.9775V63.631C207.115 64.1883 207.211 64.6608 207.403 65.0483C207.599 65.4327 207.869 65.7258 208.215 65.9276C208.561 66.1262 208.963 66.2255 209.421 66.2255C209.719 66.2255 209.988 66.1838 210.229 66.1006C210.472 66.0141 210.682 65.886 210.858 65.7162C211.034 65.5432 211.17 65.3286 211.266 65.0724L212.362 65.3799C212.246 65.7514 212.053 66.0781 211.78 66.36C211.508 66.6387 211.172 66.8565 210.771 67.0135C210.371 67.1672 209.921 67.2441 209.421 67.2441Z" fill="#43302B"/>
<path d="M274.538 53.2745H290.001C290.272 53.2745 290.497 53.3712 290.677 53.5644C290.871 53.7448 290.967 53.9703 290.967 54.2409V69.7038C290.967 69.9744 290.871 70.1999 290.677 70.3803C290.497 70.5735 290.272 70.6702 290.001 70.6702H274.538C274.268 70.6702 274.036 70.5735 273.842 70.3803C273.662 70.1999 273.572 69.9744 273.572 69.7038V54.2409C273.572 53.9703 273.662 53.7448 273.842 53.5644C274.036 53.3712 274.268 53.2745 274.538 53.2745ZM281.303 65.8381L288.145 58.9958L286.773 57.6428L281.303 63.1127L278.578 60.3681L277.205 61.7404L281.303 65.8381Z" fill="#974EF2"/>
<path d="M311.625 67.0903H308.588V57.2504H311.759C312.714 57.2504 313.53 57.4473 314.21 57.8413C314.889 58.2321 315.409 58.7943 315.771 59.5278C316.133 60.2581 316.314 61.1325 316.314 62.1511C316.314 63.1761 316.131 64.0586 315.766 64.7985C315.401 65.5352 314.869 66.1022 314.171 66.4994C313.473 66.8933 312.624 67.0903 311.625 67.0903ZM309.78 66.0333H311.548C312.361 66.0333 313.036 65.8764 313.57 65.5624C314.105 65.2485 314.504 64.8017 314.767 64.2219C315.03 63.6422 315.161 62.9519 315.161 62.1511C315.161 61.3568 315.031 60.6729 314.772 60.0995C314.512 59.523 314.125 59.0809 313.609 58.7734C313.093 58.4627 312.451 58.3074 311.682 58.3074H309.78V66.0333ZM321.253 67.2441C320.542 67.2441 319.929 67.0871 319.413 66.7732C318.9 66.4561 318.505 66.0141 318.226 65.4471C317.951 64.877 317.813 64.2139 317.813 63.458C317.813 62.7021 317.951 62.0358 318.226 61.4593C318.505 60.8795 318.892 60.4278 319.389 60.1043C319.889 59.7776 320.472 59.6143 321.138 59.6143C321.522 59.6143 321.902 59.6783 322.277 59.8064C322.651 59.9346 322.992 60.1428 323.3 60.4311C323.607 60.7161 323.852 61.0941 324.035 61.565C324.218 62.0358 324.309 62.6156 324.309 63.3042V63.7847H318.62V62.8046H323.156C323.156 62.3882 323.073 62.0166 322.906 61.6899C322.743 61.3632 322.509 61.1053 322.204 60.9163C321.903 60.7273 321.548 60.6328 321.138 60.6328C320.686 60.6328 320.295 60.745 319.966 60.9692C319.639 61.1902 319.387 61.4785 319.211 61.834C319.035 62.1896 318.947 62.5707 318.947 62.9775V63.631C318.947 64.1883 319.043 64.6608 319.235 65.0483C319.431 65.4327 319.701 65.7258 320.047 65.9276C320.393 66.1262 320.795 66.2255 321.253 66.2255C321.551 66.2255 321.82 66.1838 322.06 66.1006C322.304 66.0141 322.514 65.886 322.69 65.7162C322.866 65.5432 323.002 65.3286 323.098 65.0724L324.194 65.3799C324.078 65.7514 323.885 66.0781 323.612 66.36C323.34 66.6387 323.004 66.8565 322.603 67.0135C322.203 67.1672 321.753 67.2441 321.253 67.2441ZM327.168 57.2504V67.0903H326.034V57.2504H327.168ZM332.339 67.2441C331.628 67.2441 331.014 67.0871 330.499 66.7732C329.986 66.4561 329.59 66.0141 329.312 65.4471C329.036 64.877 328.899 64.2139 328.899 63.458C328.899 62.7021 329.036 62.0358 329.312 61.4593C329.59 60.8795 329.978 60.4278 330.475 60.1043C330.974 59.7776 331.557 59.6143 332.223 59.6143C332.608 59.6143 332.987 59.6783 333.362 59.8064C333.737 59.9346 334.078 60.1428 334.386 60.4311C334.693 60.7161 334.938 61.0941 335.121 61.565C335.303 62.0358 335.395 62.6156 335.395 63.3042V63.7847H329.706V62.8046H334.241C334.241 62.3882 334.158 62.0166 333.992 61.6899C333.828 61.3632 333.594 61.1053 333.29 60.9163C332.989 60.7273 332.633 60.6328 332.223 60.6328C331.772 60.6328 331.381 60.745 331.051 60.9692C330.724 61.1902 330.473 61.4785 330.297 61.834C330.121 62.1896 330.033 62.5707 330.033 62.9775V63.631C330.033 64.1883 330.129 64.6608 330.321 65.0483C330.516 65.4327 330.787 65.7258 331.133 65.9276C331.479 66.1262 331.881 66.2255 332.339 66.2255C332.637 66.2255 332.906 66.1838 333.146 66.1006C333.389 66.0141 333.599 65.886 333.775 65.7162C333.952 65.5432 334.088 65.3286 334.184 65.0724L335.279 65.3799C335.164 65.7514 334.97 66.0781 334.698 66.36C334.426 66.6387 334.089 66.8565 333.689 67.0135C333.288 67.1672 332.838 67.2441 332.339 67.2441ZM340.329 59.7104V60.6713H336.504V59.7104H340.329ZM337.619 57.9422H338.753V64.9763C338.753 65.2966 338.799 65.5368 338.892 65.697C338.988 65.8539 339.11 65.9596 339.257 66.0141C339.408 66.0653 339.567 66.091 339.733 66.091C339.858 66.091 339.961 66.0846 340.041 66.0717C340.121 66.0557 340.185 66.0429 340.233 66.0333L340.463 67.0519C340.387 67.0807 340.279 67.1096 340.142 67.1384C340.004 67.1704 339.829 67.1864 339.618 67.1864C339.298 67.1864 338.984 67.1176 338.676 66.9798C338.372 66.8421 338.119 66.6323 337.917 66.3504C337.718 66.0685 337.619 65.713 337.619 65.2838V57.9422ZM345.05 67.2441C344.338 67.2441 343.725 67.0871 343.209 66.7732C342.697 66.4561 342.301 66.0141 342.023 65.4471C341.747 64.877 341.609 64.2139 341.609 63.458C341.609 62.7021 341.747 62.0358 342.023 61.4593C342.301 60.8795 342.689 60.4278 343.185 60.1043C343.685 59.7776 344.268 59.6143 344.934 59.6143C345.319 59.6143 345.698 59.6783 346.073 59.8064C346.448 59.9346 346.789 60.1428 347.096 60.4311C347.404 60.7161 347.649 61.0941 347.831 61.565C348.014 62.0358 348.105 62.6156 348.105 63.3042V63.7847H342.417V62.8046H346.952C346.952 62.3882 346.869 62.0166 346.702 61.6899C346.539 61.3632 346.305 61.1053 346.001 60.9163C345.7 60.7273 345.344 60.6328 344.934 60.6328C344.483 60.6328 344.092 60.745 343.762 60.9692C343.435 61.1902 343.184 61.4785 343.008 61.834C342.831 62.1896 342.743 62.5707 342.743 62.9775V63.631C342.743 64.1883 342.839 64.6608 343.032 65.0483C343.227 65.4327 343.498 65.7258 343.844 65.9276C344.189 66.1262 344.591 66.2255 345.05 66.2255C345.347 66.2255 345.616 66.1838 345.857 66.1006C346.1 66.0141 346.31 65.886 346.486 65.7162C346.662 65.5432 346.798 65.3286 346.895 65.0724L347.99 65.3799C347.875 65.7514 347.681 66.0781 347.409 66.36C347.136 66.6387 346.8 66.8565 346.4 67.0135C345.999 67.1672 345.549 67.2441 345.05 67.2441Z" fill="#43302B"/>
<path d="M402.106 53.2745H417.569C417.84 53.2745 418.065 53.3712 418.246 53.5644C418.439 53.7448 418.536 53.9703 418.536 54.2409V69.7038C418.536 69.9744 418.439 70.1999 418.246 70.3803C418.065 70.5735 417.84 70.6702 417.569 70.6702H402.106C401.836 70.6702 401.604 70.5735 401.411 70.3803C401.23 70.1999 401.14 69.9744 401.14 69.7038V54.2409C401.14 53.9703 401.23 53.7448 401.411 53.5644C401.604 53.3712 401.836 53.2745 402.106 53.2745ZM408.871 65.8381L415.714 58.9958L414.341 57.6428L408.871 63.1127L406.146 60.3681L404.774 61.7404L408.871 65.8381Z" fill="#974EF2"/>
<path d="M436.156 67.0903V57.2504H439.481C440.25 57.2504 440.881 57.3817 441.374 57.6443C441.868 57.9038 442.233 58.2609 442.47 58.7158C442.707 59.1706 442.825 59.6879 442.825 60.2677C442.825 60.8475 442.707 61.3616 442.47 61.81C442.233 62.2584 441.869 62.6108 441.379 62.867C440.889 63.1201 440.263 63.2466 439.5 63.2466H436.81V62.1703H439.462C439.987 62.1703 440.41 62.0935 440.73 61.9397C441.054 61.786 441.288 61.5682 441.432 61.2863C441.579 61.0012 441.653 60.6617 441.653 60.2677C441.653 59.8737 441.579 59.5294 441.432 59.2347C441.285 58.94 441.049 58.7126 440.726 58.5524C440.402 58.3891 439.975 58.3074 439.443 58.3074H437.348V67.0903H436.156ZM440.788 62.67L443.21 67.0903H441.826L439.443 62.67H440.788ZM447.672 67.2441C446.961 67.2441 446.348 67.0871 445.832 66.7732C445.319 66.4561 444.924 66.0141 444.645 65.4471C444.37 64.877 444.232 64.2139 444.232 63.458C444.232 62.7021 444.37 62.0358 444.645 61.4593C444.924 60.8795 445.311 60.4278 445.808 60.1043C446.307 59.7776 446.89 59.6143 447.557 59.6143C447.941 59.6143 448.321 59.6783 448.695 59.8064C449.07 59.9346 449.411 60.1428 449.719 60.4311C450.026 60.7161 450.271 61.0941 450.454 61.565C450.636 62.0358 450.728 62.6156 450.728 63.3042V63.7847H445.039V62.8046H449.575C449.575 62.3882 449.491 62.0166 449.325 61.6899C449.161 61.3632 448.928 61.1053 448.623 60.9163C448.322 60.7273 447.967 60.6328 447.557 60.6328C447.105 60.6328 446.714 60.745 446.384 60.9692C446.058 61.1902 445.806 61.4785 445.63 61.834C445.454 62.1896 445.366 62.5707 445.366 62.9775V63.631C445.366 64.1883 445.462 64.6608 445.654 65.0483C445.849 65.4327 446.12 65.7258 446.466 65.9276C446.812 66.1262 447.214 66.2255 447.672 66.2255C447.97 66.2255 448.239 66.1838 448.479 66.1006C448.723 66.0141 448.932 65.886 449.109 65.7162C449.285 65.5432 449.421 65.3286 449.517 65.0724L450.612 65.3799C450.497 65.7514 450.303 66.0781 450.031 66.36C449.759 66.6387 449.423 66.8565 449.022 67.0135C448.622 67.1672 448.172 67.2441 447.672 67.2441ZM454.624 67.2633C454.157 67.2633 453.732 67.1752 453.351 66.999C452.97 66.8197 452.667 66.5618 452.443 66.2255C452.219 65.886 452.107 65.476 452.107 64.9955C452.107 64.5727 452.19 64.2299 452.357 63.9673C452.523 63.7014 452.746 63.4932 453.024 63.3427C453.303 63.1921 453.611 63.08 453.947 63.0064C454.286 62.9295 454.628 62.8686 454.97 62.8238C455.419 62.7661 455.782 62.7229 456.061 62.6941C456.343 62.662 456.548 62.6092 456.676 62.5355C456.807 62.4618 456.873 62.3337 456.873 62.1511V62.1127C456.873 61.6386 456.743 61.2703 456.484 61.0076C456.228 60.745 455.838 60.6136 455.316 60.6136C454.775 60.6136 454.351 60.7321 454.043 60.9692C453.736 61.2062 453.519 61.4593 453.394 61.7283L452.318 61.3439C452.51 60.8955 452.767 60.5464 453.087 60.2965C453.41 60.0435 453.763 59.8673 454.144 59.768C454.528 59.6655 454.906 59.6143 455.278 59.6143C455.515 59.6143 455.787 59.6431 456.095 59.7007C456.405 59.7552 456.705 59.8689 456.993 60.0419C457.285 60.2148 457.526 60.4759 457.719 60.825C457.911 61.1742 458.007 61.6418 458.007 62.228V67.0903H456.873V66.091H456.815C456.738 66.2511 456.61 66.4225 456.431 66.6051C456.252 66.7876 456.013 66.943 455.715 67.0711C455.417 67.1992 455.054 67.2633 454.624 67.2633ZM454.797 66.2447C455.246 66.2447 455.624 66.1566 455.931 65.9805C456.242 65.8043 456.476 65.5769 456.633 65.2982C456.793 65.0195 456.873 64.7264 456.873 64.4189V63.3811C456.825 63.4388 456.719 63.4916 456.556 63.5397C456.396 63.5845 456.21 63.6246 455.999 63.6598C455.79 63.6918 455.587 63.7207 455.388 63.7463C455.193 63.7687 455.034 63.7879 454.913 63.8039C454.618 63.8424 454.343 63.9048 454.086 63.9913C453.833 64.0746 453.628 64.2011 453.471 64.3709C453.318 64.5374 453.241 64.7649 453.241 65.0531C453.241 65.4471 453.386 65.745 453.678 65.9468C453.973 66.1454 454.346 66.2447 454.797 66.2447ZM462.863 67.2441C462.248 67.2441 461.705 67.0887 461.234 66.778C460.764 66.4641 460.395 66.0221 460.129 65.4519C459.863 64.8786 459.731 64.2011 459.731 63.4196C459.731 62.6444 459.863 61.9718 460.129 61.4016C460.395 60.8314 460.765 60.391 461.239 60.0803C461.713 59.7696 462.261 59.6143 462.882 59.6143C463.363 59.6143 463.742 59.6943 464.021 59.8545C464.303 60.0114 464.518 60.1908 464.665 60.3926C464.815 60.5912 464.932 60.7546 465.016 60.8827H465.112V57.2504H466.246V67.0903H465.15V65.9564H465.016C464.932 66.091 464.814 66.2607 464.66 66.4657C464.506 66.6675 464.287 66.8485 464.002 67.0087C463.717 67.1656 463.337 67.2441 462.863 67.2441ZM463.017 66.2255C463.472 66.2255 463.856 66.107 464.17 65.8699C464.484 65.6297 464.723 65.2982 464.886 64.8754C465.049 64.4494 465.131 63.9577 465.131 63.4003C465.131 62.8494 465.051 62.3673 464.891 61.9541C464.731 61.5377 464.494 61.2142 464.18 60.9836C463.866 60.7498 463.478 60.6328 463.017 60.6328C462.536 60.6328 462.136 60.7562 461.816 61.0028C461.499 61.2462 461.26 61.5778 461.1 61.9974C460.943 62.4138 460.864 62.8814 460.864 63.4003C460.864 63.9257 460.945 64.4029 461.105 64.8321C461.268 65.2581 461.508 65.5977 461.825 65.8507C462.146 66.1006 462.543 66.2255 463.017 66.2255Z" fill="#43302B"/>
</g>
<rect x="0.972266" y="1.43394" width="520.07" height="86.8163" rx="2.9657" stroke="#D1B9B0" stroke-width="1.8"/>
<defs>
<clipPath id="clip0_23373_174808">
<rect x="0.0722656" y="0.533936" width="521.87" height="88.6163" rx="3.8657" fill="white"/>
</clipPath>
<clipPath id="clip1_23373_174808">
<rect width="44" height="20" fill="white" transform="translate(15.5352 14.064)"/>
</clipPath>
<clipPath id="clip2_23373_174808">
<rect width="44" height="20" fill="white" transform="translate(15.5352 14.064)"/>
</clipPath>
</defs>
</svg>
