<svg width="522" height="89" viewBox="0 0 522 89" fill="none" xmlns="http://www.w3.org/2000/svg">
<g clip-path="url(#clip0_23373_174827)">
<rect x="0.0722656" y="0.150146" width="521.87" height="88.6163" rx="3.8657" fill="#FDFCFC"/>
<rect width="521.87" height="46.0935" transform="translate(0.0722656 0.150146)" fill="#FDFCFC"/>
<g clip-path="url(#clip1_23373_174827)">
<g clip-path="url(#clip2_23373_174827)">
<path d="M18.1081 17.6102L20.9891 26.3235H21.1026L23.9782 17.6102H26.1835L22.2809 28.6802H19.8053L15.9081 17.6102H18.1081ZM27.5551 28.6802V20.3777H29.5118V28.6802H27.5551ZM28.5389 19.1994C28.229 19.1994 27.9623 19.0967 27.7389 18.8913C27.5155 18.6822 27.4038 18.4318 27.4038 18.1399C27.4038 17.8444 27.5155 17.594 27.7389 17.3886C27.9623 17.1796 28.229 17.0751 28.5389 17.0751C28.8524 17.0751 29.119 17.1796 29.3388 17.3886C29.5623 17.594 29.674 17.8444 29.674 18.1399C29.674 18.4318 29.5623 18.6822 29.3388 18.8913C29.119 19.0967 28.8524 19.1994 28.5389 19.1994ZM35.1995 28.8423C34.3671 28.8423 33.6482 28.6694 33.0428 28.3234C32.441 27.9739 31.978 27.4802 31.6536 26.8424C31.3293 26.201 31.1672 25.446 31.1672 24.5776C31.1672 23.7236 31.3293 22.974 31.6536 22.329C31.9816 21.6804 32.4392 21.1759 33.0266 20.8155C33.6139 20.4516 34.304 20.2696 35.0968 20.2696C35.6085 20.2696 36.0914 20.3525 36.5454 20.5182C37.003 20.6804 37.4066 20.9326 37.7562 21.275C38.1093 21.6173 38.3868 22.0533 38.5886 22.583C38.7904 23.1092 38.8913 23.7362 38.8913 24.4641V25.0641H32.0861V23.7452H37.0157C37.0121 23.3704 36.931 23.0371 36.7724 22.7452C36.6139 22.4497 36.3923 22.2173 36.1076 22.0479C35.8265 21.8786 35.4986 21.7939 35.1238 21.7939C34.7238 21.7939 34.3725 21.8912 34.0698 22.0858C33.7671 22.2767 33.5311 22.529 33.3617 22.8425C33.1959 23.1524 33.1113 23.4929 33.1077 23.8641V25.0154C33.1077 25.4983 33.1959 25.9127 33.3725 26.2586C33.5491 26.601 33.7959 26.864 34.113 27.0478C34.4301 27.228 34.8013 27.3181 35.2265 27.3181C35.5112 27.3181 35.7688 27.2784 35.9995 27.1991C36.2301 27.1163 36.4301 26.9955 36.5995 26.837C36.7688 26.6784 36.8967 26.482 36.9832 26.2478L38.8102 26.4532C38.6949 26.9361 38.4751 27.3577 38.1508 27.718C37.8301 28.0748 37.4193 28.3523 36.9184 28.5504C36.4175 28.745 35.8445 28.8423 35.1995 28.8423ZM42.2155 28.6802L39.8696 20.3777H41.8642L43.3236 26.2154H43.3993L44.8911 20.3777H46.864L48.3559 26.1829H48.437L49.8748 20.3777H51.8747L49.5234 28.6802H47.4856L45.9289 23.0695H45.8154L44.2587 28.6802H42.2155ZM56.6786 28.8423C55.8462 28.8423 55.1273 28.6694 54.5219 28.3234C53.9202 27.9739 53.4571 27.4802 53.1328 26.8424C52.8085 26.201 52.6463 25.446 52.6463 24.5776C52.6463 23.7236 52.8085 22.974 53.1328 22.329C53.4607 21.6804 53.9184 21.1759 54.5057 20.8155C55.0931 20.4516 55.7832 20.2696 56.5759 20.2696C57.0876 20.2696 57.5705 20.3525 58.0246 20.5182C58.4822 20.6804 58.8858 20.9326 59.2353 21.275C59.5885 21.6173 59.8659 22.0533 60.0677 22.583C60.2695 23.1092 60.3704 23.7362 60.3704 24.4641V25.0641H53.5652V23.7452H58.4948C58.4912 23.3704 58.4101 23.0371 58.2516 22.7452C58.093 22.4497 57.8714 22.2173 57.5867 22.0479C57.3057 21.8786 56.9777 21.7939 56.603 21.7939C56.203 21.7939 55.8516 21.8912 55.5489 22.0858C55.2462 22.2767 55.0102 22.529 54.8409 22.8425C54.6751 23.1524 54.5904 23.4929 54.5868 23.8641V25.0154C54.5868 25.4983 54.6751 25.9127 54.8517 26.2586C55.0282 26.601 55.2751 26.864 55.5922 27.0478C55.9093 27.228 56.2805 27.3181 56.7057 27.3181C56.9903 27.3181 57.248 27.2784 57.4786 27.1991C57.7092 27.1163 57.9092 26.9955 58.0786 26.837C58.248 26.6784 58.3759 26.482 58.4624 26.2478L60.2894 26.4532C60.174 26.9361 59.9542 27.3577 59.6299 27.718C59.3092 28.0748 58.8984 28.3523 58.3975 28.5504C57.8966 28.745 57.3237 28.8423 56.6786 28.8423ZM62.0258 28.6802V20.3777H63.923V21.7614H64.0095C64.1609 21.2822 64.4203 20.9128 64.7879 20.6534C65.159 20.3903 65.5825 20.2588 66.0581 20.2588C66.1662 20.2588 66.2869 20.2642 66.4203 20.275C66.5572 20.2822 66.6707 20.2948 66.7608 20.3128V22.1128C66.6779 22.084 66.5464 22.0587 66.3662 22.0371C66.1896 22.0119 66.0185 21.9993 65.8527 21.9993C65.496 21.9993 65.1753 22.0767 64.8906 22.2317C64.6095 22.383 64.3879 22.5939 64.2257 22.8641C64.0636 23.1344 63.9825 23.4461 63.9825 23.7992V28.6802H62.0258Z" fill="#43302B"/>
</g>
</g>
<rect width="52" height="0.966426" transform="translate(15.5352 33.6802)" fill="#D1B9B0"/>
<rect width="521.87" height="42.5228" transform="translate(0.0722656 46.2437)" fill="#FDFCFC"/>
<path d="M19.4014 52.8907H34.8642C35.1348 52.8907 35.3603 52.9874 35.5407 53.1807C35.734 53.3611 35.8306 53.5866 35.8306 53.8572V69.32C35.8306 69.5906 35.734 69.8161 35.5407 69.9965C35.3603 70.1898 35.1348 70.2864 34.8642 70.2864H19.4014C19.1308 70.2864 18.8989 70.1898 18.7056 69.9965C18.5252 69.8161 18.435 69.5906 18.435 69.32V53.8572C18.435 53.5866 18.5252 53.3611 18.7056 53.1807C18.8989 52.9874 19.1308 52.8907 19.4014 52.8907ZM20.3678 54.8236V68.3535H33.8978V54.8236H20.3678Z" fill="#A18072"/>
<path d="M53.8549 66.7065H52.6057L56.2188 56.8666H57.4488L61.0619 66.7065H59.8127L56.8723 58.4233H56.7954L53.8549 66.7065ZM54.3162 62.8628H59.3515V63.9198H54.3162V62.8628ZM65.2276 66.8603C64.6126 66.8603 64.0697 66.7049 63.5988 66.3942C63.1279 66.0803 62.7596 65.6383 62.4937 65.0681C62.2279 64.4948 62.0949 63.8173 62.0949 63.0358C62.0949 62.2606 62.2279 61.588 62.4937 61.0178C62.7596 60.4477 63.1295 60.0072 63.6036 59.6965C64.0777 59.3858 64.6254 59.2305 65.2468 59.2305C65.7273 59.2305 66.1068 59.3105 66.3855 59.4707C66.6674 59.6277 66.882 59.807 67.0293 60.0088C67.1799 60.2074 67.2968 60.3708 67.3801 60.4989H67.4762V56.8666H68.6101V66.7065H67.5146V65.5726H67.3801C67.2968 65.7072 67.1783 65.8769 67.0245 66.0819C66.8708 66.2837 66.6514 66.4647 66.3663 66.6249C66.0812 66.7818 65.7016 66.8603 65.2276 66.8603ZM65.3813 65.8417C65.8362 65.8417 66.2206 65.7232 66.5345 65.4862C66.8484 65.2459 67.087 64.9144 67.2504 64.4916C67.4137 64.0656 67.4954 63.5739 67.4954 63.0166C67.4954 62.4656 67.4153 61.9835 67.2552 61.5703C67.095 61.1539 66.858 60.8304 66.5441 60.5998C66.2302 60.366 65.8426 60.2491 65.3813 60.2491C64.9009 60.2491 64.5005 60.3724 64.1802 60.619C63.8631 60.8625 63.6244 61.194 63.4643 61.6136C63.3073 62.03 63.2288 62.4976 63.2288 63.0166C63.2288 63.5419 63.3089 64.0191 63.4691 64.4483C63.6324 64.8744 63.8727 65.2139 64.1898 65.4669C64.5101 65.7168 64.9073 65.8417 65.3813 65.8417ZM73.631 66.8603C73.016 66.8603 72.473 66.7049 72.0022 66.3942C71.5313 66.0803 71.163 65.6383 70.8971 65.0681C70.6312 64.4948 70.4983 63.8173 70.4983 63.0358C70.4983 62.2606 70.6312 61.588 70.8971 61.0178C71.163 60.4477 71.5329 60.0072 72.007 59.6965C72.481 59.3858 73.0288 59.2305 73.6502 59.2305C74.1306 59.2305 74.5102 59.3105 74.7889 59.4707C75.0708 59.6277 75.2854 59.807 75.4327 60.0088C75.5833 60.2074 75.7002 60.3708 75.7835 60.4989H75.8796V56.8666H77.0135V66.7065H75.918V65.5726H75.7835C75.7002 65.7072 75.5817 65.8769 75.4279 66.0819C75.2742 66.2837 75.0547 66.4647 74.7697 66.6249C74.4846 66.7818 74.105 66.8603 73.631 66.8603ZM73.7847 65.8417C74.2396 65.8417 74.6239 65.7232 74.9378 65.4862C75.2517 65.2459 75.4904 64.9144 75.6537 64.4916C75.8171 64.0656 75.8988 63.5739 75.8988 63.0166C75.8988 62.4656 75.8187 61.9835 75.6585 61.5703C75.4984 61.1539 75.2613 60.8304 74.9474 60.5998C74.6335 60.366 74.246 60.2491 73.7847 60.2491C73.3042 60.2491 72.9039 60.3724 72.5835 60.619C72.2664 60.8625 72.0278 61.194 71.8676 61.6136C71.7107 62.03 71.6322 62.4976 71.6322 63.0166C71.6322 63.5419 71.7123 64.0191 71.8725 64.4483C72.0358 64.8744 72.276 65.2139 72.5932 65.4669C72.9135 65.7168 73.3107 65.8417 73.7847 65.8417ZM89.6642 56.8666H90.8557V63.3817C90.8557 64.0544 90.6972 64.6549 90.3801 65.1835C90.0662 65.7088 89.6225 66.1236 89.0492 66.4279C88.4758 66.729 87.8032 66.8795 87.0312 66.8795C86.2593 66.8795 85.5866 66.729 85.0132 66.4279C84.4399 66.1236 83.9946 65.7088 83.6775 65.1835C83.3636 64.6549 83.2067 64.0544 83.2067 63.3817V56.8666H84.3982V63.2856C84.3982 63.7661 84.5039 64.1937 84.7153 64.5685C84.9268 64.94 85.2278 65.2331 85.6186 65.4477C86.0126 65.6591 86.4835 65.7648 87.0312 65.7648C87.5789 65.7648 88.0498 65.6591 88.4438 65.4477C88.8378 65.2331 89.1389 64.94 89.3471 64.5685C89.5585 64.1937 89.6642 63.7661 89.6642 63.2856V56.8666ZM98.309 60.9794L97.2904 61.2676C97.2263 61.0979 97.1318 60.9329 97.0069 60.7728C96.8852 60.6094 96.7186 60.4749 96.5072 60.3692C96.2958 60.2635 96.0252 60.2106 95.6952 60.2106C95.2436 60.2106 94.8672 60.3147 94.5661 60.5229C94.2682 60.7279 94.1193 60.989 94.1193 61.3061C94.1193 61.588 94.2218 61.8106 94.4268 61.9739C94.6318 62.1373 94.9521 62.2734 95.3877 62.3823L96.4832 62.6514C97.143 62.8116 97.6347 63.0566 97.9582 63.3865C98.2817 63.7132 98.4435 64.1344 98.4435 64.6501C98.4435 65.073 98.3218 65.4509 98.0784 65.784C97.8381 66.1172 97.5018 66.3798 97.0694 66.572C96.6369 66.7642 96.1341 66.8603 95.5607 66.8603C94.808 66.8603 94.185 66.6969 93.6917 66.3702C93.1984 66.0435 92.8861 65.5662 92.7548 64.9384L93.831 64.6694C93.9335 65.0665 94.1273 65.3644 94.4124 65.563C94.7007 65.7616 95.077 65.8609 95.5415 65.8609C96.07 65.8609 96.4896 65.7488 96.8003 65.5246C97.1142 65.2972 97.2712 65.0249 97.2712 64.7078C97.2712 64.4515 97.1815 64.2369 97.0021 64.064C96.8227 63.8878 96.5473 63.7565 96.1757 63.67L94.9457 63.3817C94.2698 63.2216 93.7734 62.9733 93.4563 62.637C93.1423 62.2975 92.9854 61.873 92.9854 61.3637C92.9854 60.9473 93.1023 60.579 93.3361 60.2587C93.5732 59.9384 93.8951 59.6869 94.3019 59.5043C94.7119 59.3218 95.1763 59.2305 95.6952 59.2305C96.4255 59.2305 96.9989 59.3906 97.4153 59.7109C97.8349 60.0312 98.1328 60.4541 98.309 60.9794ZM103.245 66.8603C102.533 66.8603 101.92 66.7033 101.404 66.3894C100.892 66.0723 100.496 65.6303 100.218 65.0633C99.9422 64.4932 99.8044 63.8301 99.8044 63.0742C99.8044 62.3183 99.9422 61.652 100.218 61.0755C100.496 60.4957 100.884 60.0441 101.38 59.7205C101.88 59.3938 102.463 59.2305 103.129 59.2305C103.514 59.2305 103.893 59.2945 104.268 59.4227C104.643 59.5508 104.984 59.759 105.291 60.0473C105.599 60.3323 105.844 60.7103 106.026 61.1812C106.209 61.652 106.3 62.2318 106.3 62.9205V63.4009H100.612V62.4208H105.147C105.147 62.0044 105.064 61.6328 104.897 61.3061C104.734 60.9794 104.5 60.7215 104.196 60.5325C103.895 60.3436 103.539 60.2491 103.129 60.2491C102.678 60.2491 102.287 60.3612 101.957 60.5854C101.63 60.8064 101.379 61.0947 101.203 61.4502C101.026 61.8058 100.938 62.1869 100.938 62.5937V63.2472C100.938 63.8045 101.034 64.277 101.227 64.6646C101.422 65.0489 101.693 65.342 102.039 65.5438C102.385 65.7424 102.787 65.8417 103.245 65.8417C103.542 65.8417 103.812 65.8001 104.052 65.7168C104.295 65.6303 104.505 65.5022 104.681 65.3324C104.857 65.1594 104.993 64.9448 105.09 64.6886L106.185 64.9961C106.07 65.3676 105.876 65.6944 105.604 65.9762C105.331 66.2549 104.995 66.4727 104.595 66.6297C104.194 66.7834 103.744 66.8603 103.245 66.8603ZM108.025 66.7065V59.3266H109.121V60.4412H109.198C109.332 60.0761 109.576 59.7798 109.928 59.5524C110.28 59.325 110.677 59.2112 111.119 59.2112C111.203 59.2112 111.307 59.2129 111.432 59.2161C111.557 59.2193 111.651 59.2241 111.715 59.2305V60.3836C111.677 60.374 111.589 60.3596 111.451 60.3403C111.316 60.3179 111.174 60.3067 111.023 60.3067C110.665 60.3067 110.344 60.382 110.062 60.5325C109.784 60.6799 109.563 60.8849 109.399 61.1475C109.239 61.407 109.159 61.7033 109.159 62.0364V66.7065H108.025ZM118.287 60.9794L117.268 61.2676C117.204 61.0979 117.11 60.9329 116.985 60.7728C116.863 60.6094 116.696 60.4749 116.485 60.3692C116.274 60.2635 116.003 60.2106 115.673 60.2106C115.221 60.2106 114.845 60.3147 114.544 60.5229C114.246 60.7279 114.097 60.989 114.097 61.3061C114.097 61.588 114.2 61.8106 114.405 61.9739C114.61 62.1373 114.93 62.2734 115.366 62.3823L116.461 62.6514C117.121 62.8116 117.613 63.0566 117.936 63.3865C118.26 63.7132 118.421 64.1344 118.421 64.6501C118.421 65.073 118.3 65.4509 118.056 65.784C117.816 66.1172 117.48 66.3798 117.047 66.572C116.615 66.7642 116.112 66.8603 115.539 66.8603C114.786 66.8603 114.163 66.6969 113.67 66.3702C113.176 66.0435 112.864 65.5662 112.733 64.9384L113.809 64.6694C113.911 65.0665 114.105 65.3644 114.39 65.563C114.679 65.7616 115.055 65.8609 115.519 65.8609C116.048 65.8609 116.467 65.7488 116.778 65.5246C117.092 65.2972 117.249 65.0249 117.249 64.7078C117.249 64.4515 117.159 64.2369 116.98 64.064C116.801 63.8878 116.525 63.7565 116.154 63.67L114.924 63.3817C114.248 63.2216 113.751 62.9733 113.434 62.637C113.12 62.2975 112.963 61.873 112.963 61.3637C112.963 60.9473 113.08 60.579 113.314 60.2587C113.551 59.9384 113.873 59.6869 114.28 59.5043C114.69 59.3218 115.154 59.2305 115.673 59.2305C116.403 59.2305 116.977 59.3906 117.393 59.7109C117.813 60.0312 118.111 60.4541 118.287 60.9794Z" fill="#43302B"/>
<path d="M146.97 52.8907H162.433C162.703 52.8907 162.929 52.9874 163.109 53.1807C163.302 53.3611 163.399 53.5866 163.399 53.8572V69.32C163.399 69.5906 163.302 69.8161 163.109 69.9965C162.929 70.1898 162.703 70.2864 162.433 70.2864H146.97C146.699 70.2864 146.467 70.1898 146.274 69.9965C146.094 69.8161 146.003 69.5906 146.003 69.32V53.8572C146.003 53.5866 146.094 53.3611 146.274 53.1807C146.467 52.9874 146.699 52.8907 146.97 52.8907ZM147.936 54.8236V68.3535H161.466V54.8236H147.936Z" fill="#A18072"/>
<path d="M182.807 66.7065L180.116 56.8666H181.327L183.384 64.8808H183.48L185.575 56.8666H186.92L189.015 64.8808H189.111L191.167 56.8666H192.378L189.687 66.7065H188.457L186.286 58.8653H186.209L184.037 66.7065H182.807ZM193.246 66.7065V59.3266H194.342V60.4412H194.419C194.553 60.0761 194.797 59.7798 195.149 59.5524C195.501 59.325 195.899 59.2112 196.341 59.2112C196.424 59.2112 196.528 59.2129 196.653 59.2161C196.778 59.2193 196.872 59.2241 196.936 59.2305V60.3836C196.898 60.374 196.81 60.3596 196.672 60.3403C196.538 60.3179 196.395 60.3067 196.245 60.3067C195.886 60.3067 195.565 60.382 195.284 60.5325C195.005 60.6799 194.784 60.8849 194.621 61.1475C194.46 61.407 194.38 61.7033 194.38 62.0364V66.7065H193.246ZM198.28 66.7065V59.3266H199.414V66.7065H198.28ZM198.857 58.0966C198.636 58.0966 198.445 58.0213 198.285 57.8707C198.128 57.7202 198.05 57.5392 198.05 57.3278C198.05 57.1164 198.128 56.9354 198.285 56.7849C198.445 56.6343 198.636 56.5591 198.857 56.5591C199.078 56.5591 199.267 56.6343 199.424 56.7849C199.584 56.9354 199.664 57.1164 199.664 57.3278C199.664 57.5392 199.584 57.7202 199.424 57.8707C199.267 58.0213 199.078 58.0966 198.857 58.0966ZM204.701 59.3266V60.2875H200.876V59.3266H204.701ZM201.991 57.5584H203.125V64.5925C203.125 64.9128 203.171 65.153 203.264 65.3132C203.36 65.4701 203.482 65.5758 203.629 65.6303C203.78 65.6815 203.938 65.7072 204.105 65.7072C204.23 65.7072 204.332 65.7008 204.412 65.688C204.493 65.6719 204.557 65.6591 204.605 65.6495L204.835 66.6681C204.758 66.6969 204.651 66.7258 204.513 66.7546C204.376 66.7866 204.201 66.8026 203.99 66.8026C203.669 66.8026 203.355 66.7338 203.048 66.596C202.744 66.4583 202.491 66.2485 202.289 65.9666C202.09 65.6847 201.991 65.3292 201.991 64.9V57.5584ZM209.421 66.8603C208.71 66.8603 208.097 66.7033 207.581 66.3894C207.069 66.0723 206.673 65.6303 206.394 65.0633C206.119 64.4932 205.981 63.8301 205.981 63.0742C205.981 62.3183 206.119 61.652 206.394 61.0755C206.673 60.4957 207.061 60.0441 207.557 59.7205C208.057 59.3938 208.64 59.2305 209.306 59.2305C209.69 59.2305 210.07 59.2945 210.445 59.4227C210.819 59.5508 211.161 59.759 211.468 60.0473C211.776 60.3323 212.021 60.7103 212.203 61.1812C212.386 61.652 212.477 62.2318 212.477 62.9205V63.4009H206.788V62.4208H211.324C211.324 62.0044 211.241 61.6328 211.074 61.3061C210.911 60.9794 210.677 60.7215 210.373 60.5325C210.072 60.3436 209.716 60.2491 209.306 60.2491C208.854 60.2491 208.464 60.3612 208.134 60.5854C207.807 60.8064 207.556 61.0947 207.379 61.4502C207.203 61.8058 207.115 62.1869 207.115 62.5937V63.2472C207.115 63.8045 207.211 64.277 207.403 64.6646C207.599 65.0489 207.869 65.342 208.215 65.5438C208.561 65.7424 208.963 65.8417 209.421 65.8417C209.719 65.8417 209.988 65.8001 210.229 65.7168C210.472 65.6303 210.682 65.5022 210.858 65.3324C211.034 65.1594 211.17 64.9448 211.266 64.6886L212.362 64.9961C212.246 65.3676 212.053 65.6944 211.78 65.9762C211.508 66.2549 211.172 66.4727 210.771 66.6297C210.371 66.7834 209.921 66.8603 209.421 66.8603Z" fill="#43302B"/>
<path d="M274.538 52.8907H290.001C290.272 52.8907 290.497 52.9874 290.677 53.1807C290.871 53.3611 290.967 53.5866 290.967 53.8572V69.32C290.967 69.5906 290.871 69.8161 290.677 69.9965C290.497 70.1898 290.272 70.2864 290.001 70.2864H274.538C274.268 70.2864 274.036 70.1898 273.842 69.9965C273.662 69.8161 273.572 69.5906 273.572 69.32V53.8572C273.572 53.5866 273.662 53.3611 273.842 53.1807C274.036 52.9874 274.268 52.8907 274.538 52.8907ZM275.505 54.8236V68.3535H289.035V54.8236H275.505Z" fill="#A18072"/>
<path d="M311.625 66.7065H308.588V56.8666H311.759C312.714 56.8666 313.53 57.0636 314.21 57.4575C314.889 57.8483 315.409 58.4105 315.771 59.144C316.133 59.8743 316.314 60.7487 316.314 61.7673C316.314 62.7923 316.131 63.6748 315.766 64.4147C315.401 65.1514 314.869 65.7184 314.171 66.1156C313.473 66.5096 312.624 66.7065 311.625 66.7065ZM309.78 65.6495H311.548C312.361 65.6495 313.036 65.4926 313.57 65.1787C314.105 64.8648 314.504 64.4179 314.767 63.8382C315.03 63.2584 315.161 62.5681 315.161 61.7673C315.161 60.973 315.031 60.2891 314.772 59.7157C314.512 59.1392 314.125 58.6971 313.609 58.3896C313.093 58.0789 312.451 57.9236 311.682 57.9236H309.78V65.6495ZM321.253 66.8603C320.542 66.8603 319.929 66.7033 319.413 66.3894C318.9 66.0723 318.505 65.6303 318.226 65.0633C317.951 64.4932 317.813 63.8301 317.813 63.0742C317.813 62.3183 317.951 61.652 318.226 61.0755C318.505 60.4957 318.892 60.0441 319.389 59.7205C319.889 59.3938 320.472 59.2305 321.138 59.2305C321.522 59.2305 321.902 59.2945 322.277 59.4227C322.651 59.5508 322.992 59.759 323.3 60.0473C323.607 60.3323 323.852 60.7103 324.035 61.1812C324.218 61.652 324.309 62.2318 324.309 62.9205V63.4009H318.62V62.4208H323.156C323.156 62.0044 323.073 61.6328 322.906 61.3061C322.743 60.9794 322.509 60.7215 322.204 60.5325C321.903 60.3436 321.548 60.2491 321.138 60.2491C320.686 60.2491 320.295 60.3612 319.966 60.5854C319.639 60.8064 319.387 61.0947 319.211 61.4502C319.035 61.8058 318.947 62.1869 318.947 62.5937V63.2472C318.947 63.8045 319.043 64.277 319.235 64.6646C319.431 65.0489 319.701 65.342 320.047 65.5438C320.393 65.7424 320.795 65.8417 321.253 65.8417C321.551 65.8417 321.82 65.8001 322.06 65.7168C322.304 65.6303 322.514 65.5022 322.69 65.3324C322.866 65.1594 323.002 64.9448 323.098 64.6886L324.194 64.9961C324.078 65.3676 323.885 65.6944 323.612 65.9762C323.34 66.2549 323.004 66.4727 322.603 66.6297C322.203 66.7834 321.753 66.8603 321.253 66.8603ZM327.168 56.8666V66.7065H326.034V56.8666H327.168ZM332.339 66.8603C331.628 66.8603 331.014 66.7033 330.499 66.3894C329.986 66.0723 329.59 65.6303 329.312 65.0633C329.036 64.4932 328.899 63.8301 328.899 63.0742C328.899 62.3183 329.036 61.652 329.312 61.0755C329.59 60.4957 329.978 60.0441 330.475 59.7205C330.974 59.3938 331.557 59.2305 332.223 59.2305C332.608 59.2305 332.987 59.2945 333.362 59.4227C333.737 59.5508 334.078 59.759 334.386 60.0473C334.693 60.3323 334.938 60.7103 335.121 61.1812C335.303 61.652 335.395 62.2318 335.395 62.9205V63.4009H329.706V62.4208H334.241C334.241 62.0044 334.158 61.6328 333.992 61.3061C333.828 60.9794 333.594 60.7215 333.29 60.5325C332.989 60.3436 332.633 60.2491 332.223 60.2491C331.772 60.2491 331.381 60.3612 331.051 60.5854C330.724 60.8064 330.473 61.0947 330.297 61.4502C330.121 61.8058 330.033 62.1869 330.033 62.5937V63.2472C330.033 63.8045 330.129 64.277 330.321 64.6646C330.516 65.0489 330.787 65.342 331.133 65.5438C331.479 65.7424 331.881 65.8417 332.339 65.8417C332.637 65.8417 332.906 65.8001 333.146 65.7168C333.389 65.6303 333.599 65.5022 333.775 65.3324C333.952 65.1594 334.088 64.9448 334.184 64.6886L335.279 64.9961C335.164 65.3676 334.97 65.6944 334.698 65.9762C334.426 66.2549 334.089 66.4727 333.689 66.6297C333.288 66.7834 332.838 66.8603 332.339 66.8603ZM340.329 59.3266V60.2875H336.504V59.3266H340.329ZM337.619 57.5584H338.753V64.5925C338.753 64.9128 338.799 65.153 338.892 65.3132C338.988 65.4701 339.11 65.5758 339.257 65.6303C339.408 65.6815 339.567 65.7072 339.733 65.7072C339.858 65.7072 339.961 65.7008 340.041 65.688C340.121 65.6719 340.185 65.6591 340.233 65.6495L340.463 66.6681C340.387 66.6969 340.279 66.7258 340.142 66.7546C340.004 66.7866 339.829 66.8026 339.618 66.8026C339.298 66.8026 338.984 66.7338 338.676 66.596C338.372 66.4583 338.119 66.2485 337.917 65.9666C337.718 65.6847 337.619 65.3292 337.619 64.9V57.5584ZM345.05 66.8603C344.338 66.8603 343.725 66.7033 343.209 66.3894C342.697 66.0723 342.301 65.6303 342.023 65.0633C341.747 64.4932 341.609 63.8301 341.609 63.0742C341.609 62.3183 341.747 61.652 342.023 61.0755C342.301 60.4957 342.689 60.0441 343.185 59.7205C343.685 59.3938 344.268 59.2305 344.934 59.2305C345.319 59.2305 345.698 59.2945 346.073 59.4227C346.448 59.5508 346.789 59.759 347.096 60.0473C347.404 60.3323 347.649 60.7103 347.831 61.1812C348.014 61.652 348.105 62.2318 348.105 62.9205V63.4009H342.417V62.4208H346.952C346.952 62.0044 346.869 61.6328 346.702 61.3061C346.539 60.9794 346.305 60.7215 346.001 60.5325C345.7 60.3436 345.344 60.2491 344.934 60.2491C344.483 60.2491 344.092 60.3612 343.762 60.5854C343.435 60.8064 343.184 61.0947 343.008 61.4502C342.831 61.8058 342.743 62.1869 342.743 62.5937V63.2472C342.743 63.8045 342.839 64.277 343.032 64.6646C343.227 65.0489 343.498 65.342 343.844 65.5438C344.189 65.7424 344.591 65.8417 345.05 65.8417C345.347 65.8417 345.616 65.8001 345.857 65.7168C346.1 65.6303 346.31 65.5022 346.486 65.3324C346.662 65.1594 346.798 64.9448 346.895 64.6886L347.99 64.9961C347.875 65.3676 347.681 65.6944 347.409 65.9762C347.136 66.2549 346.8 66.4727 346.4 66.6297C345.999 66.7834 345.549 66.8603 345.05 66.8603Z" fill="#43302B"/>
<path d="M402.106 52.8907H417.569C417.84 52.8907 418.065 52.9874 418.246 53.1807C418.439 53.3611 418.536 53.5866 418.536 53.8572V69.32C418.536 69.5906 418.439 69.8161 418.246 69.9965C418.065 70.1898 417.84 70.2864 417.569 70.2864H402.106C401.836 70.2864 401.604 70.1898 401.411 69.9965C401.23 69.8161 401.14 69.5906 401.14 69.32V53.8572C401.14 53.5866 401.23 53.3611 401.411 53.1807C401.604 52.9874 401.836 52.8907 402.106 52.8907ZM408.871 65.4543L415.714 58.612L414.341 57.259L408.871 62.7289L406.146 59.9843L404.774 61.3566L408.871 65.4543Z" fill="#974EF2"/>
<path d="M436.156 66.7065V56.8666H439.481C440.25 56.8666 440.881 56.9979 441.374 57.2606C441.868 57.52 442.233 57.8772 442.47 58.332C442.707 58.7868 442.825 59.3041 442.825 59.8839C442.825 60.4637 442.707 60.9778 442.47 61.4262C442.233 61.8746 441.869 62.227 441.379 62.4832C440.889 62.7363 440.263 62.8628 439.5 62.8628H436.81V61.7866H439.462C439.987 61.7866 440.41 61.7097 440.73 61.5559C441.054 61.4022 441.288 61.1844 441.432 60.9025C441.579 60.6174 441.653 60.2779 441.653 59.8839C441.653 59.4899 441.579 59.1456 441.432 58.8509C441.285 58.5562 441.049 58.3288 440.726 58.1686C440.402 58.0053 439.975 57.9236 439.443 57.9236H437.348V66.7065H436.156ZM440.788 62.2862L443.21 66.7065H441.826L439.443 62.2862H440.788ZM447.672 66.8603C446.961 66.8603 446.348 66.7033 445.832 66.3894C445.319 66.0723 444.924 65.6303 444.645 65.0633C444.37 64.4932 444.232 63.8301 444.232 63.0742C444.232 62.3183 444.37 61.652 444.645 61.0755C444.924 60.4957 445.311 60.0441 445.808 59.7205C446.307 59.3938 446.89 59.2305 447.557 59.2305C447.941 59.2305 448.321 59.2945 448.695 59.4227C449.07 59.5508 449.411 59.759 449.719 60.0473C450.026 60.3323 450.271 60.7103 450.454 61.1812C450.636 61.652 450.728 62.2318 450.728 62.9205V63.4009H445.039V62.4208H449.575C449.575 62.0044 449.491 61.6328 449.325 61.3061C449.161 60.9794 448.928 60.7215 448.623 60.5325C448.322 60.3436 447.967 60.2491 447.557 60.2491C447.105 60.2491 446.714 60.3612 446.384 60.5854C446.058 60.8064 445.806 61.0947 445.63 61.4502C445.454 61.8058 445.366 62.1869 445.366 62.5937V63.2472C445.366 63.8045 445.462 64.277 445.654 64.6646C445.849 65.0489 446.12 65.342 446.466 65.5438C446.812 65.7424 447.214 65.8417 447.672 65.8417C447.97 65.8417 448.239 65.8001 448.479 65.7168C448.723 65.6303 448.932 65.5022 449.109 65.3324C449.285 65.1594 449.421 64.9448 449.517 64.6886L450.612 64.9961C450.497 65.3676 450.303 65.6944 450.031 65.9762C449.759 66.2549 449.423 66.4727 449.022 66.6297C448.622 66.7834 448.172 66.8603 447.672 66.8603ZM454.624 66.8795C454.157 66.8795 453.732 66.7914 453.351 66.6153C452.97 66.4359 452.667 66.178 452.443 65.8417C452.219 65.5022 452.107 65.0922 452.107 64.6117C452.107 64.1889 452.19 63.8462 452.357 63.5835C452.523 63.3176 452.746 63.1094 453.024 62.9589C453.303 62.8083 453.611 62.6962 453.947 62.6226C454.286 62.5457 454.628 62.4848 454.97 62.44C455.419 62.3823 455.782 62.3391 456.061 62.3103C456.343 62.2782 456.548 62.2254 456.676 62.1517C456.807 62.078 456.873 61.9499 456.873 61.7673V61.7289C456.873 61.2548 456.743 60.8865 456.484 60.6238C456.228 60.3612 455.838 60.2298 455.316 60.2298C454.775 60.2298 454.351 60.3484 454.043 60.5854C453.736 60.8224 453.519 61.0755 453.394 61.3445L452.318 60.9602C452.51 60.5117 452.767 60.1626 453.087 59.9127C453.41 59.6597 453.763 59.4835 454.144 59.3842C454.528 59.2817 454.906 59.2305 455.278 59.2305C455.515 59.2305 455.787 59.2593 456.095 59.317C456.405 59.3714 456.705 59.4851 456.993 59.6581C457.285 59.8311 457.526 60.0921 457.719 60.4412C457.911 60.7904 458.007 61.258 458.007 61.8442V66.7065H456.873V65.7072H456.815C456.738 65.8673 456.61 66.0387 456.431 66.2213C456.252 66.4038 456.013 66.5592 455.715 66.6873C455.417 66.8154 455.054 66.8795 454.624 66.8795ZM454.797 65.8609C455.246 65.8609 455.624 65.7728 455.931 65.5967C456.242 65.4205 456.476 65.1931 456.633 64.9144C456.793 64.6357 456.873 64.3426 456.873 64.0351V62.9973C456.825 63.055 456.719 63.1078 456.556 63.1559C456.396 63.2007 456.21 63.2408 455.999 63.276C455.79 63.308 455.587 63.3369 455.388 63.3625C455.193 63.3849 455.034 63.4041 454.913 63.4201C454.618 63.4586 454.343 63.521 454.086 63.6075C453.833 63.6908 453.628 63.8173 453.471 63.9871C453.318 64.1537 453.241 64.3811 453.241 64.6694C453.241 65.0633 453.386 65.3612 453.678 65.563C453.973 65.7616 454.346 65.8609 454.797 65.8609ZM462.863 66.8603C462.248 66.8603 461.705 66.7049 461.234 66.3942C460.764 66.0803 460.395 65.6383 460.129 65.0681C459.863 64.4948 459.731 63.8173 459.731 63.0358C459.731 62.2606 459.863 61.588 460.129 61.0178C460.395 60.4477 460.765 60.0072 461.239 59.6965C461.713 59.3858 462.261 59.2305 462.882 59.2305C463.363 59.2305 463.742 59.3105 464.021 59.4707C464.303 59.6277 464.518 59.807 464.665 60.0088C464.815 60.2074 464.932 60.3708 465.016 60.4989H465.112V56.8666H466.246V66.7065H465.15V65.5726H465.016C464.932 65.7072 464.814 65.8769 464.66 66.0819C464.506 66.2837 464.287 66.4647 464.002 66.6249C463.717 66.7818 463.337 66.8603 462.863 66.8603ZM463.017 65.8417C463.472 65.8417 463.856 65.7232 464.17 65.4862C464.484 65.2459 464.723 64.9144 464.886 64.4916C465.049 64.0656 465.131 63.5739 465.131 63.0166C465.131 62.4656 465.051 61.9835 464.891 61.5703C464.731 61.1539 464.494 60.8304 464.18 60.5998C463.866 60.366 463.478 60.2491 463.017 60.2491C462.536 60.2491 462.136 60.3724 461.816 60.619C461.499 60.8625 461.26 61.194 461.1 61.6136C460.943 62.03 460.864 62.4976 460.864 63.0166C460.864 63.5419 460.945 64.0191 461.105 64.4483C461.268 64.8744 461.508 65.2139 461.825 65.4669C462.146 65.7168 462.543 65.8417 463.017 65.8417Z" fill="#43302B"/>
</g>
<rect x="0.972266" y="1.05015" width="520.07" height="86.8163" rx="2.9657" stroke="#D1B9B0" stroke-width="1.8"/>
<defs>
<clipPath id="clip0_23373_174827">
<rect x="0.0722656" y="0.150146" width="521.87" height="88.6163" rx="3.8657" fill="white"/>
</clipPath>
<clipPath id="clip1_23373_174827">
<rect width="52" height="20" fill="white" transform="translate(15.5352 13.6802)"/>
</clipPath>
<clipPath id="clip2_23373_174827">
<rect width="52" height="20" fill="white" transform="translate(15.5352 13.6802)"/>
</clipPath>
</defs>
</svg>
