<svg width="522" height="44" viewBox="0 0 522 44" fill="none" xmlns="http://www.w3.org/2000/svg">
<rect x="1.00781" y="1.2666" width="520" height="42" rx="3.5" stroke="#A666F4" stroke-dasharray="4 4"/>
<path d="M229.404 28.2666H227.949L232.155 16.8121H233.587L237.793 28.2666H236.339L232.916 18.6242H232.827L229.404 28.2666ZM229.941 23.7922H235.802V25.0226H229.941V23.7922ZM242.642 28.4456C241.926 28.4456 241.294 28.2647 240.746 27.9031C240.198 27.5376 239.769 27.0231 239.46 26.3594C239.15 25.6919 238.996 24.9033 238.996 23.9935C238.996 23.0912 239.15 22.3081 239.46 21.6444C239.769 20.9807 240.2 20.468 240.752 20.1064C241.304 19.7447 241.941 19.5638 242.665 19.5638C243.224 19.5638 243.666 19.657 243.99 19.8435C244.318 20.0262 244.568 20.235 244.74 20.4699C244.915 20.7011 245.051 20.8912 245.148 21.0404H245.26V16.8121H246.58V28.2666H245.305V26.9466H245.148C245.051 27.1032 244.913 27.3009 244.734 27.5395C244.555 27.7744 244.3 27.9851 243.968 28.1715C243.636 28.3542 243.194 28.4456 242.642 28.4456ZM242.821 27.2599C243.351 27.2599 243.798 27.1219 244.164 26.846C244.529 26.5663 244.807 26.1804 244.997 25.6882C245.187 25.1923 245.282 24.6199 245.282 23.9711C245.282 23.3298 245.189 22.7686 245.003 22.2876C244.816 21.8029 244.54 21.4263 244.175 21.1578C243.809 20.8857 243.358 20.7496 242.821 20.7496C242.262 20.7496 241.796 20.8931 241.423 21.1802C241.054 21.4636 240.776 21.8495 240.59 22.338C240.407 22.8227 240.316 23.3671 240.316 23.9711C240.316 24.5827 240.409 25.1382 240.595 25.6379C240.785 26.1338 241.065 26.529 241.434 26.8236C241.807 27.1144 242.269 27.2599 242.821 27.2599ZM252.425 28.4456C251.709 28.4456 251.077 28.2647 250.529 27.9031C249.98 27.5376 249.552 27.0231 249.242 26.3594C248.933 25.6919 248.778 24.9033 248.778 23.9935C248.778 23.0912 248.933 22.3081 249.242 21.6444C249.552 20.9807 249.982 20.468 250.534 20.1064C251.086 19.7447 251.724 19.5638 252.447 19.5638C253.006 19.5638 253.448 19.657 253.773 19.8435C254.101 20.0262 254.35 20.235 254.522 20.4699C254.697 20.7011 254.833 20.8912 254.93 21.0404H255.042V16.8121H256.362V28.2666H255.087V26.9466H254.93C254.833 27.1032 254.695 27.3009 254.516 27.5395C254.337 27.7744 254.082 27.9851 253.75 28.1715C253.418 28.3542 252.976 28.4456 252.425 28.4456ZM252.604 27.2599C253.133 27.2599 253.58 27.1219 253.946 26.846C254.311 26.5663 254.589 26.1804 254.779 25.6882C254.969 25.1923 255.065 24.6199 255.065 23.9711C255.065 23.3298 254.971 22.7686 254.785 22.2876C254.598 21.8029 254.322 21.4263 253.957 21.1578C253.592 20.8857 253.141 20.7496 252.604 20.7496C252.044 20.7496 251.578 20.8931 251.205 21.1802C250.836 21.4636 250.558 21.8495 250.372 22.338C250.189 22.8227 250.098 23.3671 250.098 23.9711C250.098 24.5827 250.191 25.1382 250.378 25.6379C250.568 26.1338 250.847 26.529 251.216 26.8236C251.589 27.1144 252.052 27.2599 252.604 27.2599ZM263.572 28.2666V16.8121H267.442C268.337 16.8121 269.071 16.9649 269.646 17.2707C270.22 17.5727 270.645 17.9885 270.921 18.5179C271.197 19.0474 271.335 19.6496 271.335 20.3245C271.335 20.9994 271.197 21.5978 270.921 22.1199C270.645 22.6419 270.222 23.052 269.651 23.3503C269.081 23.6449 268.352 23.7922 267.464 23.7922H264.332V22.5393H267.42C268.031 22.5393 268.523 22.4498 268.896 22.2709C269.273 22.0919 269.545 21.8383 269.713 21.5102C269.884 21.1784 269.97 20.7831 269.97 20.3245C269.97 19.8659 269.884 19.465 269.713 19.122C269.541 18.7789 269.267 18.5142 268.891 18.3278C268.514 18.1376 268.016 18.0425 267.397 18.0425H264.959V28.2666H263.572ZM268.963 23.121L271.782 28.2666H270.171L267.397 23.121H268.963ZM276.865 28.4456C276.089 28.4456 275.409 28.261 274.823 27.8919C274.242 27.5227 273.787 27.0063 273.459 26.3426C273.134 25.6789 272.972 24.9033 272.972 24.0159C272.972 23.121 273.134 22.3398 273.459 21.6724C273.787 21.005 274.242 20.4867 274.823 20.1175C275.409 19.7484 276.089 19.5638 276.865 19.5638C277.64 19.5638 278.319 19.7484 278.901 20.1175C279.486 20.4867 279.941 21.005 280.265 21.6724C280.593 22.3398 280.758 23.121 280.758 24.0159C280.758 24.9033 280.593 25.6789 280.265 26.3426C279.941 27.0063 279.486 27.5227 278.901 27.8919C278.319 28.261 277.64 28.4456 276.865 28.4456ZM276.865 27.2599C277.454 27.2599 277.939 27.1088 278.319 26.8068C278.699 26.5048 278.981 26.1077 279.164 25.6155C279.346 25.1233 279.438 24.5901 279.438 24.0159C279.438 23.4417 279.346 22.9066 279.164 22.4107C278.981 21.9148 278.699 21.5139 278.319 21.2082C277.939 20.9024 277.454 20.7496 276.865 20.7496C276.276 20.7496 275.791 20.9024 275.411 21.2082C275.03 21.5139 274.749 21.9148 274.566 22.4107C274.383 22.9066 274.292 23.4417 274.292 24.0159C274.292 24.5901 274.383 25.1233 274.566 25.6155C274.749 26.1077 275.03 26.5048 275.411 26.8068C275.791 27.1088 276.276 27.2599 276.865 27.2599ZM284.092 16.8121V28.2666H282.772V16.8121H284.092ZM290.112 28.4456C289.284 28.4456 288.57 28.2629 287.97 27.8975C287.373 27.5283 286.913 27.0138 286.588 26.3538C286.268 25.6901 286.107 24.9182 286.107 24.0383C286.107 23.1583 286.268 22.3827 286.588 21.7116C286.913 21.0367 287.364 20.5109 287.942 20.1343C288.523 19.754 289.202 19.5638 289.978 19.5638C290.425 19.5638 290.867 19.6384 291.303 19.7876C291.739 19.9367 292.137 20.1791 292.495 20.5146C292.852 20.8465 293.138 21.2865 293.35 21.8346C293.563 22.3827 293.669 23.0576 293.669 23.8593V24.4186H287.047V23.2776H292.327C292.327 22.7929 292.23 22.3604 292.036 21.98C291.846 21.5997 291.574 21.2995 291.219 21.0795C290.869 20.8596 290.455 20.7496 289.978 20.7496C289.452 20.7496 288.997 20.8801 288.613 21.1411C288.233 21.3983 287.94 21.7339 287.735 22.1478C287.53 22.5617 287.427 23.0054 287.427 23.479V24.2396C287.427 24.8884 287.539 25.4384 287.763 25.8896C287.99 26.337 288.305 26.6782 288.708 26.9131C289.111 27.1443 289.579 27.2599 290.112 27.2599C290.459 27.2599 290.772 27.2114 291.052 27.1144C291.335 27.0138 291.579 26.8646 291.784 26.667C291.989 26.4656 292.148 26.2158 292.26 25.9175L293.535 26.2755C293.401 26.708 293.175 27.0883 292.858 27.4165C292.541 27.7409 292.15 27.9944 291.684 28.1771C291.217 28.3561 290.694 28.4456 290.112 28.4456Z" fill="#852EEF"/>
</svg>
