<svg width="82" height="65" viewBox="0 0 82 65" fill="none" xmlns="http://www.w3.org/2000/svg">
<path fill-rule="evenodd" clip-rule="evenodd" d="M18.2704 15.2612C17.8238 15.3357 17.4085 15.7109 17.267 16.1678L17.2337 16.2755L17.2297 19.6811C17.227 21.9999 17.2305 23.118 17.2408 23.185C17.3156 23.673 17.7385 24.113 18.2344 24.2187C18.3549 24.2444 18.6612 24.2444 18.7816 24.2187C19.0632 24.1587 19.3739 23.955 19.5527 23.7131C19.6615 23.5659 19.7486 23.3594 19.7753 23.185C19.7856 23.118 19.789 22.0012 19.7861 19.6811C19.7814 15.842 19.794 16.2349 19.6666 15.9706C19.4934 15.6114 19.1454 15.34 18.7654 15.268C18.6419 15.2445 18.3911 15.2411 18.2704 15.2612ZM5.43096 21.6894C5.16288 21.7334 4.95622 21.8427 4.74898 22.0501C4.48187 22.3175 4.36696 22.59 4.36743 22.9547C4.36792 23.3298 4.49277 23.619 4.77351 23.8953C4.95913 24.078 9.55028 28.2905 9.62325 28.345C9.72209 28.419 9.93397 28.5194 10.0624 28.5533C10.2275 28.5967 10.5178 28.5972 10.6919 28.5544C10.9261 28.4967 11.11 28.3916 11.2875 28.2141C11.5623 27.9393 11.6854 27.6165 11.6636 27.2277C11.647 26.9317 11.5441 26.6752 11.3585 26.4667C11.2791 26.3775 6.57995 22.0562 6.43794 21.9418C6.16923 21.7252 5.79079 21.6304 5.43096 21.6894ZM31.1702 21.6828C30.9689 21.7122 30.7376 21.8141 30.5742 21.9453C30.4307 22.0605 25.7533 26.3616 25.6638 26.4606C25.5326 26.6058 25.4372 26.7864 25.381 26.9963C25.3451 27.1302 25.346 27.4833 25.3826 27.6227C25.4399 27.8409 25.559 28.0445 25.7286 28.2141C25.9061 28.3916 26.09 28.4967 26.3242 28.5544C26.4983 28.5972 26.7886 28.5967 26.9536 28.5533C27.0821 28.5194 27.294 28.419 27.3928 28.345C27.4658 28.2905 32.0568 24.0781 32.2426 23.8953C32.5233 23.619 32.6482 23.3298 32.6487 22.9547C32.649 22.705 32.5964 22.5107 32.4701 22.2949C32.3938 22.1647 32.1552 21.9246 32.0295 21.8516C31.7765 21.7047 31.4539 21.6413 31.1702 21.6828ZM9.15783 33.5059C9.1038 33.5121 9.01308 33.5313 8.95623 33.5486C8.8204 33.5897 2.64498 35.886 2.52968 35.9383C2.32415 36.0315 2.14832 36.1812 2.02127 36.3712C1.85583 36.6185 1.78068 36.8785 1.7946 37.1555C1.82465 37.7535 2.2443 38.2435 2.82944 38.3638C2.97117 38.393 3.1854 38.393 3.32745 38.3639C3.42249 38.3444 9.51313 36.0934 9.81431 35.9664C10.0978 35.8469 10.3105 35.6437 10.4518 35.3573C10.5424 35.1738 10.5743 35.0542 10.5839 34.8624C10.5969 34.6034 10.5533 34.4068 10.4304 34.1705C10.2824 33.8861 10.0145 33.6645 9.69649 33.5635C9.5781 33.5259 9.34753 33.4869 9.27765 33.4927C9.26577 33.4936 9.21184 33.4996 9.15783 33.5059ZM27.5656 33.5067C27.3344 33.5332 27.0579 33.6539 26.8718 33.8097C26.6619 33.9854 26.4987 34.278 26.4413 34.5818C26.417 34.71 26.432 34.9973 26.4697 35.1251C26.5091 35.2588 26.6135 35.4679 26.6949 35.5762C26.8158 35.7371 27.0071 35.8843 27.2018 35.9664C27.503 36.0934 33.5936 38.3444 33.6886 38.3639C33.8307 38.393 34.0449 38.393 34.1867 38.3638C34.7714 38.2436 35.1927 37.7517 35.2217 37.1555C35.2353 36.8781 35.1601 36.6182 34.9948 36.3712C34.8678 36.1812 34.6919 36.0315 34.4864 35.9383C34.3768 35.8886 28.2015 33.5918 28.0644 33.5497C27.9763 33.5227 27.7522 33.488 27.6952 33.4926C27.6834 33.4936 27.625 33.4999 27.5656 33.5067ZM14.4521 40.9702C14.0706 41.043 13.7713 41.2363 13.5791 41.5343C13.5179 41.6292 10.6315 47.4439 10.5835 47.5691C10.4541 47.9061 10.4941 48.3161 10.6901 48.6629C10.8166 48.8869 11.0729 49.1015 11.3391 49.2063C11.5364 49.2841 11.806 49.3107 12.0138 49.273C12.1161 49.2545 12.2988 49.1953 12.3808 49.1542C12.5752 49.0566 12.7769 48.8702 12.8865 48.6866C12.9533 48.5748 15.8141 42.8048 15.8581 42.6932C15.9776 42.3901 15.9618 42.015 15.8164 41.7049C15.743 41.5482 15.6767 41.4499 15.5721 41.3426C15.4192 41.1859 15.1802 41.0498 14.9582 40.993C14.8114 40.9554 14.5834 40.9452 14.4521 40.9702ZM22.1972 40.9653C21.9301 41 21.6332 41.1487 21.444 41.3426C21.1019 41.6934 20.9838 42.2511 21.1581 42.6933C21.2022 42.8052 24.0628 48.575 24.1296 48.6866C24.2393 48.8703 24.4409 49.0567 24.6352 49.1542C24.9494 49.3117 25.3575 49.3322 25.677 49.2063C25.9405 49.1025 26.1875 48.8981 26.3172 48.6765C26.5209 48.3285 26.5643 47.9118 26.4326 47.5691C26.3844 47.4436 23.4981 41.6291 23.437 41.5343C23.1751 41.1282 22.6829 40.9022 22.1972 40.9653Z" fill="#D1B9B0"/>
<rect x="36.0879" y="0.824463" width="45.7495" height="28.8747" rx="4.43737" fill="#F76808"/>
<path d="M48.9698 21.262V17.0065L45.2269 10.4215H46.7179L48.271 13.2481L49.5911 15.7175H49.6532L51.0044 13.2481L52.5575 10.4215H54.0173L50.2744 17.0065V21.262H48.9698ZM58.9345 21.4483C58.3754 21.4483 57.8681 21.35 57.4125 21.1532C56.9673 20.9565 56.5842 20.677 56.2632 20.3146C55.9526 19.9418 55.7145 19.5018 55.5488 18.9945C55.3832 18.4768 55.3003 17.897 55.3003 17.255C55.3003 16.6234 55.3832 16.0488 55.5488 15.5311C55.7145 15.0134 55.9526 14.5734 56.2632 14.211C56.5842 13.8382 56.9673 13.5535 57.4125 13.3568C57.8681 13.1601 58.3754 13.0617 58.9345 13.0617C59.4937 13.0617 59.9958 13.1601 60.441 13.3568C60.8966 13.5535 61.2797 13.8382 61.5903 14.211C61.9113 14.5734 62.1546 15.0134 62.3203 15.5311C62.4859 16.0488 62.5688 16.6234 62.5688 17.255C62.5688 17.897 62.4859 18.4768 62.3203 18.9945C62.1546 19.5018 61.9113 19.9418 61.5903 20.3146C61.2797 20.677 60.8966 20.9565 60.441 21.1532C59.9958 21.35 59.4937 21.4483 58.9345 21.4483ZM58.9345 20.3767C59.6283 20.3767 60.1874 20.1696 60.6119 19.7555C61.0364 19.3413 61.2486 18.6994 61.2486 17.8297V16.6804C61.2486 15.8107 61.0364 15.1687 60.6119 14.7546C60.1874 14.3404 59.6283 14.1333 58.9345 14.1333C58.2408 14.1333 57.6817 14.3404 57.2572 14.7546C56.8327 15.1687 56.6205 15.8107 56.6205 16.6804V17.8297C56.6205 18.6994 56.8327 19.3413 57.2572 19.7555C57.6817 20.1696 58.2408 20.3767 58.9345 20.3767ZM70.1417 19.9574H70.0796C69.9968 20.1541 69.8932 20.3456 69.769 20.532C69.6447 20.708 69.4894 20.8633 69.303 20.9979C69.127 21.1325 68.9148 21.2413 68.6663 21.3241C68.4178 21.4069 68.1279 21.4483 67.7966 21.4483C66.9579 21.4483 66.2849 21.1843 65.7776 20.6563C65.2702 20.1179 65.0165 19.362 65.0165 18.3888V13.2481H66.259V18.1713C66.259 18.9065 66.4195 19.4552 66.7405 19.8176C67.0614 20.1696 67.5325 20.3456 68.1538 20.3456C68.4023 20.3456 68.6456 20.3146 68.8837 20.2525C69.1219 20.1903 69.3341 20.0972 69.5205 19.9729C69.7069 19.8487 69.857 19.6934 69.9709 19.507C70.0848 19.3103 70.1417 19.0773 70.1417 18.8081V13.2481H71.3842V21.262H70.1417V19.9574Z" fill="#FDFCFC"/>
<path d="M31.4624 62.1312C30.9049 64.1698 29.7859 64.2415 28.9747 62.2919L16.3813 32.0611C15.5701 30.1115 16.4994 29.1803 18.4489 29.9934L48.6712 42.5872C50.6207 43.3984 50.5491 44.5232 48.5125 45.073L38.8191 47.7176C37.7218 48.0845 36.7248 48.7013 35.9068 49.5194C35.0887 50.3375 34.4719 51.3345 34.105 52.4318L31.4624 62.1312Z" fill="#FDFCFC" stroke="#451E11" stroke-width="1.93599" stroke-linecap="round" stroke-linejoin="round"/>
</svg>
