<svg width="46" height="31" viewBox="0 0 46 31" fill="none" xmlns="http://www.w3.org/2000/svg">
<path d="M4.88179 19.7975C4.88179 21.5233 5.26058 22.8482 5.75568 23.6498C6.4048 24.6997 7.37299 25.1445 8.36003 25.1445C9.63314 25.1445 10.7978 24.8286 13.0422 21.7245C14.8403 19.2364 16.959 15.744 18.3845 13.5546L20.7987 9.84532C22.4757 7.26925 24.4168 4.40556 26.6424 2.46447C28.4593 0.880169 30.4193 0 32.3918 0C35.7034 0 38.8579 1.91908 41.2721 5.51834C43.9141 9.46024 45.1967 14.4253 45.1967 19.5492C45.1967 22.5952 44.5963 24.8333 43.5747 26.6015C42.5876 28.3116 40.6638 30.02 37.4276 30.02V25.1445C40.1986 25.1445 40.8901 22.5983 40.8901 19.6843C40.8901 15.5318 39.922 10.9235 37.7891 7.63075C36.2755 5.29516 34.314 3.86803 32.156 3.86803C29.822 3.86803 27.9438 5.62837 25.833 8.76711C24.7107 10.4347 23.5587 12.467 22.2651 14.7601L20.8411 17.2827C17.9806 22.3547 17.256 23.5099 15.8258 25.4165C13.3188 28.7548 11.1781 30.02 8.36003 30.02C5.01696 30.02 2.90299 28.5725 1.59373 26.3909C0.524958 24.6133 0 22.2808 0 19.6231L4.88179 19.7975Z" fill="#7151DD"/>
<path d="M3.84923 5.86255C6.08737 2.41261 9.31728 0 13.0218 0C15.1673 0 17.3001 0.634979 19.5272 2.45347C21.9634 4.44171 24.5599 7.71562 27.7993 13.1114L28.9608 15.0477C31.7647 19.7189 33.36 22.1221 34.2936 23.2553C35.4944 24.7107 36.3353 25.1445 37.4277 25.1445C40.1986 25.1445 40.8902 22.5983 40.8902 19.6843L45.1967 19.5492C45.1967 22.5952 44.5963 24.8333 43.5747 26.6015C42.5877 28.3116 40.6639 30.02 37.4277 30.02C35.4159 30.02 33.6335 29.5831 31.6626 27.7237C30.1474 26.2966 28.3761 23.7614 27.0134 21.4824L22.9599 14.7114C20.9261 11.3133 19.0604 8.77969 17.9807 7.63232C16.8191 6.39851 15.326 4.90851 12.9433 4.90851C11.0147 4.90851 9.377 6.26177 8.00645 8.33174L3.84923 5.86255Z" fill="#7151DD"/>
<path d="M12.9432 4.90851C11.0147 4.90851 9.37694 6.26177 8.00639 8.33174C6.06845 11.2567 4.88179 15.6136 4.88179 19.7975C4.88179 21.5233 5.26058 22.8482 5.75568 23.6498L1.59373 26.3909C0.524958 24.6133 0 22.2808 0 19.6231C0 14.79 1.32654 9.75259 3.84917 5.86255C6.08731 2.41261 9.31722 0 13.0218 0L12.9432 4.90851Z" fill="#7151DD"/>
</svg>
