<svg width="32" height="32" viewBox="0 0 32 32" fill="none" xmlns="http://www.w3.org/2000/svg">
<path d="M31 15.9991C31 24.2839 24.2839 31 16.0009 31C7.71613 31 1 24.2839 1 15.9991C1 7.71613 7.71613 1 16.0009 1C24.2839 1 31 7.71613 31 15.9991V15.9991Z" stroke="#7151DD" stroke-width="1.98425"/>
<path d="M16.0009 31C7.71612 31 1 24.2839 1 15.9991C1 7.71613 7.71612 1 16.0009 1V15.9991V31Z" fill="white"/>
<path d="M16.001 1C24.284 1 31.0001 7.71613 31.0001 15.9991C31.0001 24.2839 24.284 31 16.001 31V15.9991V1Z" fill="#7151DD"/>
<path d="M3.51902 9.93652L7.64805 16.1221L3.16113 22.6103L6.14172 16.1221L3.51902 9.93652Z" fill="#7151DD"/>
<path d="M28.4813 9.93652L24.3523 16.1221L28.8392 22.6103L25.8586 16.1221L28.4813 9.93652Z" fill="white"/>
<path d="M28.1267 23.5505L19.8598 23.417L16.5747 29.5473L21.083 24.1755L28.1267 23.5505Z" fill="white"/>
<path d="M3.87378 23.5505L12.139 23.417L15.424 29.5473L10.9157 24.1755L3.87378 23.5505Z" fill="#7151DD"/>
<path d="M28.1267 8.30556L19.8598 8.44088L16.5747 2.31055L21.083 7.6806L28.1267 8.30556Z" fill="white"/>
<path d="M3.87378 8.30556L12.139 8.44088L15.424 2.31055L10.9157 7.6806L3.87378 8.30556Z" fill="#7151DD"/>
<path d="M16.0011 4.84033L12.8121 12.3577L14.103 17.0227L11.037 12.6479L7.62549 19.0827L10.8821 16.7485L14.0906 20.3344L11.5676 19.4744L10.3443 21.9048L12.5273 21.1232L14.4111 23.0373L16.0011 25.5798V4.84033Z" fill="#7151DD"/>
<path d="M16.001 4.84033L19.1881 12.3577L17.899 17.0227L20.9633 12.6479L24.3748 19.0827L21.1182 16.7485L17.9097 20.3344L20.4327 19.4744L21.6559 21.9048L19.473 21.1232L17.5892 23.0373L16.001 25.5798V4.84033Z" fill="white"/>
</svg>
