<svg width="34" height="39" viewBox="0 0 34 39" fill="none" xmlns="http://www.w3.org/2000/svg">
<path d="M7.21538 28.024C8.20227 28.024 9.06483 28.0433 9.92739 28.0162C10.3781 28.002 10.4947 28.1454 10.3677 28.5705C10.0828 29.5408 9.82249 30.5164 9.5531 31.4919C9.30184 32.4067 9.09073 33.324 9.22284 34.2879C9.48186 36.1782 11.1785 37.3889 12.9451 36.8721C13.4165 36.7429 13.6418 36.8178 13.9268 37.2287C15.2828 39.1797 17.9417 39.1474 19.2368 37.1757C19.4829 36.801 19.6914 36.7287 20.1175 36.854C21.6328 37.2985 23.0458 36.5762 23.6209 35.1084C23.9809 34.1897 23.9485 33.2504 23.7154 32.3162C23.4564 31.2735 23.1611 30.2399 22.8878 29.201C22.577 28.0201 22.5809 28.0382 23.7853 28.0136C25.5985 27.9787 27.4117 28.1428 29.2133 27.896C31.4409 27.5846 32.8863 26.0871 33.0235 23.994C33.0507 23.5689 32.964 23.3479 32.4744 23.3867C31.9789 23.4177 31.4818 23.4177 30.9863 23.3867C30.6638 23.3712 30.4916 23.4771 30.3387 23.7743C29.8479 24.786 28.997 25.2512 27.887 25.2576C26.7214 25.2654 25.5558 25.2576 24.3902 25.2576C23.7206 25.2576 23.7076 25.2305 24.0366 24.6116C24.7191 23.3363 25.3058 22.0274 25.6037 20.5984C26.2254 17.6266 26.0726 14.8099 23.8164 12.4661C23.516 12.1534 23.7245 12.041 23.9537 11.8937C24.7153 11.4053 25.4742 10.9117 26.237 10.4259C26.9235 9.98786 26.9377 9.97106 26.4831 9.29014C25.6089 7.97997 24.4523 6.9644 23.1468 6.09483C22.5731 5.71496 22.0123 5.0896 22.1107 4.50816C22.3529 3.05716 21.8737 1.84648 21.2844 0.615134C21.0669 0.161615 20.9179 -0.0309109 20.5669 0.559568C19.8779 1.70306 18.8081 2.22377 17.4754 2.21473C17.1737 2.21473 16.8719 2.21473 16.5688 2.21473C14.9356 2.20082 13.3511 2.76935 12.1009 3.81787C10.8506 4.86638 10.0169 6.32593 9.74996 7.93346C9.53756 9.12863 9.66318 10.3367 9.64635 11.5396C9.65534 11.7085 9.62666 11.8771 9.56238 12.0335C9.4981 12.19 9.39983 12.3302 9.27464 12.4441C7.60262 14.0476 7.07291 16.0877 7.13767 18.3179C7.2076 20.6023 7.93288 22.7109 9.06483 24.6723C9.30055 25.0819 9.3122 25.2796 8.74493 25.2693C7.51585 25.246 6.28417 25.2783 5.05638 25.2563C4.18994 25.2408 3.34421 24.9488 2.98417 24.1684C2.62412 23.388 2.07757 23.3363 1.38338 23.3932C1.12495 23.4179 0.864734 23.4179 0.606299 23.3932C0.121918 23.3376 0.0247846 23.565 0.0493921 23.9952C0.156888 25.8649 1.34453 27.2849 3.21341 27.772C4.57848 28.1325 5.96298 27.9981 7.21538 28.024Z" fill="#EFF1F4"/>
<path d="M7.21623 28.0239C5.96383 27.9942 4.57933 28.1286 3.22073 27.7732C1.35056 27.2861 0.164213 25.8661 0.0567164 23.9965C0.0321088 23.5662 0.129242 23.3388 0.613623 23.3944C0.872058 23.4191 1.13227 23.4191 1.3907 23.3944C2.07972 23.3414 2.6185 23.3789 2.99149 24.1696C3.36449 24.9604 4.20245 25.2421 5.06371 25.2576C6.2928 25.2795 7.52447 25.2472 8.75226 25.2705C9.31953 25.2808 9.30787 25.0831 9.07216 24.6735C7.94021 22.7057 7.21493 20.6035 7.145 18.3191C7.07635 16.089 7.60995 14.0553 9.28197 12.4453C9.40715 12.3314 9.50543 12.1912 9.56971 12.0348C9.63398 11.8784 9.66266 11.7097 9.65367 11.5409C9.67051 10.338 9.54488 9.12987 9.75728 7.9347C10.0242 6.32717 10.858 4.86762 12.1082 3.81911C13.3584 2.77059 14.9429 2.20206 16.5762 2.21597C16.8792 2.21597 17.181 2.21597 17.4828 2.21597C18.8155 2.22501 19.8852 1.69913 20.5743 0.56081C20.9252 -0.0232088 21.0742 0.162857 21.2918 0.616376C21.8811 1.84772 22.3602 3.0584 22.1181 4.5094C22.0209 5.09084 22.5817 5.71621 23.1542 6.09608C24.4597 6.96177 25.6149 7.98121 26.4904 9.29138C26.945 9.9723 26.9308 9.98911 26.2444 10.4271C25.4815 10.9129 24.7226 11.4065 23.961 11.8949C23.7318 12.0422 23.5233 12.1533 23.8238 12.4673C26.0799 14.8111 26.2327 17.6266 25.611 20.5996C25.3132 22.0209 24.7265 23.3375 24.0439 24.6128C23.715 25.2291 23.7279 25.2589 24.3975 25.2589C25.5631 25.2589 26.7287 25.2666 27.8944 25.2589C29.0043 25.2589 29.8552 24.7873 30.3461 23.7756C30.4924 23.4745 30.6647 23.3686 30.9936 23.3879C31.4892 23.4189 31.9862 23.4189 32.4817 23.3879C32.9713 23.3492 33.0581 23.5701 33.0309 23.9952C32.8936 26.0884 31.4482 27.5859 29.2206 27.8973C27.4165 28.1557 25.602 27.98 23.7927 28.0149C22.5882 28.0394 22.5843 28.0149 22.8951 29.2023C23.1684 30.2359 23.4637 31.2696 23.7227 32.3175C23.9559 33.2516 23.9882 34.191 23.6282 35.1096C23.0531 36.5774 21.6402 37.2997 20.1248 36.8552C19.6987 36.726 19.4902 36.8023 19.2442 37.177C17.949 39.1487 15.2888 39.181 13.9341 37.2299C13.6492 36.8191 13.4238 36.739 12.9524 36.8733C11.1858 37.3811 9.4879 36.1743 9.23016 34.2892C9.10065 33.3253 9.30917 32.4079 9.56042 31.4931C9.82981 30.5176 10.0901 29.5421 10.3751 28.5717C10.5046 28.1428 10.3854 28.0032 9.93472 28.0174C9.06568 28.0472 8.20312 28.0239 7.21623 28.0239ZM12.762 24.6645C12.7656 24.6136 12.7515 24.563 12.722 24.5213C12.6925 24.4796 12.6494 24.4494 12.6001 24.4358C12.095 24.1244 11.893 24.4022 11.823 24.8596C11.8009 25.1386 11.7966 25.4187 11.8101 25.6982C11.7936 25.7076 11.7798 25.7211 11.7699 25.7373C11.7601 25.7536 11.7545 25.772 11.7537 25.791C11.7529 25.81 11.757 25.8288 11.7655 25.8458C11.774 25.8628 11.7866 25.8773 11.8023 25.8881C11.8023 25.9605 11.8114 26.0328 11.8153 26.1039C11.6857 26.3623 11.8347 26.6065 11.8256 26.861C11.8193 26.9268 11.8268 26.9931 11.8478 27.0557C11.8688 27.1184 11.9027 27.1759 11.9474 27.2246C11.9921 27.2734 12.0465 27.3122 12.1072 27.3386C12.1679 27.365 12.2334 27.3784 12.2996 27.3779C12.3655 27.3845 12.432 27.3771 12.4947 27.356C12.5575 27.3349 12.615 27.3008 12.6634 27.2558C12.7118 27.2107 12.7501 27.1559 12.7756 27.095C12.8011 27.0341 12.8132 26.9684 12.8112 26.9024C12.8462 26.162 12.9796 25.4139 12.7516 24.6787L12.762 24.6645ZM18.7196 25.7111L18.7507 25.9618C18.7247 26.1913 18.7212 26.4228 18.7403 26.653C18.8012 26.9915 19.024 27.2629 19.3814 27.2448C19.7389 27.2267 19.8296 26.9088 19.8114 26.5871C19.7985 26.3377 19.8736 26.078 19.7376 25.8416C19.7376 25.5832 19.748 25.3248 19.7544 25.0663C19.7609 24.8441 19.7544 24.6245 19.5058 24.5211C19.2377 24.4061 19.0602 24.5353 18.9307 24.764L18.8219 24.9371C18.7861 24.9725 18.7615 25.0174 18.7509 25.0665C18.7403 25.1156 18.7443 25.1668 18.7624 25.2136L18.7196 25.7111ZM21.7826 24.9229C21.7661 24.9344 21.7526 24.9496 21.743 24.9673C21.7335 24.985 21.7282 25.0046 21.7275 25.0247C21.7269 25.0447 21.731 25.0647 21.7394 25.0829C21.7478 25.1011 21.7604 25.1171 21.7761 25.1296L21.7956 25.9837C21.7566 26.0808 21.7301 26.1824 21.7166 26.2861C21.7166 26.6336 21.7075 27.0613 22.1569 27.0807C22.6063 27.1001 22.8265 26.7628 22.8213 26.3054C22.8213 26.1129 22.8058 25.9178 22.798 25.7305C22.798 25.64 22.798 25.5509 22.798 25.4617C22.8188 25.4098 22.8249 25.3533 22.8158 25.2982C22.8067 25.243 22.7826 25.1915 22.7462 25.149C22.7555 25.069 22.7486 24.9879 22.7259 24.9106C22.7033 24.8332 22.6652 24.7612 22.6142 24.6988C22.5631 24.6364 22.4999 24.5848 22.4285 24.5472C22.3571 24.5096 22.2788 24.4866 22.1984 24.4797C21.9121 24.4345 21.7826 24.6374 21.7826 24.9229ZM14.3213 25.4294C14.3213 25.0831 14.3213 24.7317 13.9328 24.5779C13.6971 24.4849 13.4691 24.4875 13.3629 24.786C13.1311 25.4746 13.306 26.1775 13.2982 26.874C13.2979 26.9722 13.3351 27.0669 13.4022 27.1389C13.4693 27.2108 13.5613 27.2547 13.6595 27.2616C13.9263 27.2835 14.1582 27.1608 14.2177 26.9205C14.3356 26.4308 14.5299 25.9372 14.3175 25.4242L14.3213 25.4294ZM10.2792 25.7292C10.2792 25.9876 10.2676 26.2357 10.2935 26.4863C10.331 26.8481 10.5642 27.0988 10.9125 27.0859C11.2933 27.0716 11.3348 26.7344 11.3257 26.4217C11.3257 26.2744 11.3063 26.1271 11.2959 25.9811C11.3102 25.6439 11.3361 25.3067 11.3335 24.9694C11.3394 24.8615 11.3075 24.7549 11.2432 24.6679C11.1789 24.5809 11.0863 24.5189 10.9812 24.4927C10.7545 24.4397 10.5784 24.5857 10.4411 24.7511C10.2015 25.0431 10.2559 25.3868 10.2753 25.724L10.2792 25.7292ZM21.1584 24.5663L21.0224 24.4371C20.7077 24.2149 20.4849 24.295 20.3424 24.6412L20.2453 24.8286L20.2336 25.9915C20.0575 26.3533 20.2207 26.7021 20.2945 27.0458C20.318 27.1518 20.3796 27.2455 20.4677 27.3093C20.5557 27.3731 20.6641 27.4025 20.7724 27.3921C20.8705 27.3969 20.9672 27.3682 21.0466 27.3106C21.126 27.253 21.1833 27.1701 21.2089 27.0755C21.3837 26.2706 21.5482 25.4578 21.1765 24.658C21.1835 24.642 21.1857 24.6243 21.1827 24.6071C21.1797 24.5898 21.1717 24.5739 21.1597 24.5611L21.1584 24.5663ZM25.3028 9.86893C25.4155 9.86893 25.5126 9.84051 25.5385 9.71131C24.8689 8.46316 23.7655 7.6724 22.6037 6.94367C22.3447 6.78345 22.2152 6.9062 22.1103 7.13619C21.6648 8.13496 21.4718 9.16087 21.7723 10.2372C21.7554 10.6687 21.9847 11.0124 22.1815 11.3664C22.267 11.5215 22.3887 11.683 22.5869 11.5448C23.4637 10.9336 24.5011 10.5834 25.3067 9.86505L25.3028 9.86893ZM17.6537 30.254C17.2224 30.254 16.7847 30.1998 16.3586 30.254C15.6735 30.3419 15.2707 30.1248 14.9793 29.4646C14.425 28.2048 13.2878 27.9283 12.0354 27.9257C11.757 27.9257 11.6223 28.0368 11.5485 28.3211C11.1599 29.8328 10.7066 31.3316 10.3401 32.8434C10.1199 33.7478 10.1963 34.6729 10.8581 35.3887C11.6352 36.2157 12.8216 36.0787 13.7074 35.1562C13.824 35.027 13.8616 34.7362 14.1206 34.8448C14.298 34.9184 14.2695 35.1342 14.2799 35.306C14.319 35.714 14.4549 36.1068 14.6762 36.4521C15.1373 37.2351 16.018 37.6757 16.7484 37.509C18.4904 37.3088 18.7041 35.9185 18.9761 34.5786C19.2157 34.6897 19.2442 34.9029 19.3542 35.0528C20.1546 36.1549 21.7179 36.1795 22.3991 35.0812C22.7397 34.5523 22.8674 33.9145 22.7566 33.2956C22.4677 31.6701 21.9316 30.1054 21.5521 28.502C21.4433 28.0381 21.1998 27.9102 20.775 27.9399C19.5524 28.0278 18.3259 28.3947 17.8545 29.9284C17.8038 30.0434 17.738 30.1511 17.6589 30.2489L17.6537 30.254ZM11.9551 23.49C12.8332 23.4396 13.6012 23.9254 14.4612 23.9952C14.7746 24.021 14.9922 24.3919 14.9702 24.6723C14.9016 25.5392 15.3665 26.1039 15.9299 26.644C16.016 26.7401 16.09 26.8464 16.1501 26.9605C16.5386 27.5911 16.5386 27.5859 16.9116 26.9838C17.0709 26.7254 17.2367 26.4527 17.4711 26.2835C17.9166 25.9605 18.0682 25.5677 18.0513 25.0289C18.0371 24.5973 18.1536 24.0482 18.6367 23.9952C19.4954 23.9022 20.2608 23.4164 21.1402 23.4706C21.5521 23.729 22.0106 23.8221 22.4794 23.9099C22.9482 23.9978 23.2241 23.8854 23.4352 23.4189C23.8406 22.5145 24.2563 21.6178 24.4713 20.6487C25.15 17.5658 25.014 14.7052 22.2411 12.5513C20.5846 11.2592 20.5574 8.54585 21.3798 7.04963C21.8474 6.19686 21.8085 6.06894 21.1091 5.36088C20.9602 5.2097 20.7854 5.08179 20.6222 4.94225C20.6222 4.75619 20.7698 4.6412 20.8527 4.49519C21.2529 3.77809 21.271 3.03255 20.9822 2.2754C20.9071 2.07383 20.8022 1.87487 20.6312 2.22243C20.5433 2.31407 20.4498 2.40036 20.3515 2.48085C19.327 3.2561 18.107 3.33748 16.9051 3.33748C15.5232 3.33748 14.2527 3.5959 13.1376 4.43963C12.0411 5.18053 11.2571 6.29895 10.9359 7.58067C10.6224 8.74354 10.8206 9.93095 10.7869 11.1067C10.7766 11.4582 11.0032 11.5163 11.3166 11.4543C11.6301 11.3923 12.1507 11.2192 12.2414 11.5254C12.3411 11.8639 11.7984 11.9595 11.5148 12.1223C9.3273 13.3731 8.2601 15.2543 8.19405 17.7622C8.13966 19.8631 8.84162 21.7548 9.67439 23.6218C9.8324 23.972 10.0344 24.0598 10.4359 23.9797C10.9651 23.8967 11.4776 23.7296 11.9538 23.4848L11.9551 23.49Z" fill="#7151DD"/>
<path d="M13.14 4.44182C14.2538 3.59292 15.5243 3.33838 16.9062 3.33967C18.1081 3.33967 19.3281 3.25956 20.3526 2.48302C20.4509 2.40254 20.5444 2.31625 20.6323 2.22461C20.9535 2.85643 20.5145 3.31512 20.2581 3.8074C20.1052 4.09941 19.5703 4.25834 19.7024 4.58265C19.7905 4.79584 20.2982 4.84108 20.6181 4.9509C20.7813 5.09045 20.9561 5.21836 21.1051 5.36953C21.8044 6.07759 21.8433 6.2055 21.3758 7.05827C20.5508 8.55966 20.5805 11.2704 22.237 12.5599C25.0099 14.7177 25.1459 17.5745 24.4672 20.6574C24.2535 21.6264 23.8378 22.5244 23.4311 23.4276C23.22 23.894 22.9403 24.0077 22.4753 23.9186C22.0104 23.8294 21.548 23.7325 21.1362 23.4793C21.8044 21.8926 22.0272 20.2491 21.6542 18.5694C21.2035 16.5641 20.0793 15.0511 18.0214 14.5291C15.8909 13.9903 13.9715 14.4218 12.4963 16.2088C11.9925 16.8199 11.7995 17.5745 11.4343 18.2477C10.937 17.444 11.2284 16.6209 11.4265 15.8302C11.8254 14.2332 12.8408 13.0677 14.1865 12.1697C14.483 11.972 14.575 11.8648 14.2046 11.5922C12.5067 10.3686 11.7555 7.01822 12.8175 5.28684C12.9742 5.02455 13.1348 4.75838 13.14 4.44182ZM18.9267 8.0816C18.9448 7.13063 18.1366 6.27269 17.2106 6.25072C16.2626 6.23393 15.4492 7.04794 15.4427 8.01829C15.4288 8.47662 15.5972 8.92183 15.9112 9.25666C16.2252 9.59149 16.6593 9.78871 17.1186 9.80523C17.587 9.81226 18.0394 9.63559 18.3785 9.31324C18.7176 8.99089 18.9163 8.54863 18.9318 8.0816H18.9267Z" fill="#7151DD"/>
<path d="M11.4312 18.2352C11.7964 17.562 11.9894 16.8139 12.4932 16.1963C13.9684 14.4068 15.8878 13.9752 18.0183 14.5166C20.0763 15.0334 21.2004 16.5516 21.6511 18.5569C22.0293 20.2366 21.8066 21.884 21.1331 23.4668C20.2537 23.4125 19.4883 23.8984 18.6296 23.9914C18.1465 24.0431 18.0299 24.5922 18.0442 25.0251C18.061 25.5639 17.9147 25.9566 17.464 26.2797C17.2295 26.4489 17.0638 26.7267 16.9045 26.98C16.5263 27.5821 16.5366 27.5872 16.1429 26.9567C16.0828 26.8426 16.0089 26.7363 15.9228 26.6402C15.3594 26.1001 14.8944 25.5354 14.9631 24.6684C14.9851 24.3881 14.7675 24.0224 14.4541 23.9914C13.5941 23.9216 12.8261 23.4358 11.948 23.4862C11.8418 23.2019 11.7343 22.919 11.6281 22.6347C11.6488 22.5874 11.6501 22.5338 11.6317 22.4855C11.6133 22.4372 11.5767 22.398 11.5297 22.3763L11.4675 22.1179C11.4844 22.0975 11.4962 22.0733 11.5016 22.0475C11.5071 22.0216 11.5062 21.9947 11.4989 21.9693C11.4916 21.9438 11.4782 21.9205 11.4599 21.9014C11.4416 21.8822 11.4188 21.8679 11.3937 21.8595L11.3211 21.4641C11.4066 21.322 11.417 21.1915 11.2629 21.0855C11.211 20.4733 11.211 19.8578 11.2629 19.2456C11.4144 19.1397 11.404 19.0079 11.325 18.8644L11.4312 18.2352Z" fill="#EFF1F4"/>
<path d="M16.7522 37.5106C16.0244 37.6773 15.1437 37.2367 14.68 36.4537C14.4587 36.1084 14.3229 35.7156 14.2837 35.3076C14.2734 35.1358 14.3018 34.92 14.1244 34.8463C13.8654 34.7378 13.8278 35.035 13.7113 35.1577C12.8319 36.0803 11.6391 36.2172 10.862 35.3903C10.1937 34.6745 10.1173 33.7507 10.3439 32.8449C10.7104 31.3267 11.1586 29.8279 11.5523 28.3226C11.6261 28.0384 11.7608 27.926 12.0392 27.9273C13.2916 27.9273 14.4288 28.2064 14.9831 29.4661C15.2745 30.1251 15.6773 30.3434 16.3624 30.2556C16.7859 30.2013 17.2237 30.2556 17.6575 30.2556C17.4982 30.9856 17.1486 31.6536 16.9996 32.3914C16.6551 34.0827 16.7626 35.7986 16.7522 37.5106Z" fill="#7151DD"/>
<path d="M11.6331 22.6345C11.7393 22.9188 11.8468 23.2017 11.953 23.486C11.4781 23.7313 10.967 23.8992 10.439 23.9834C10.0375 24.0636 9.83542 23.9757 9.67742 23.6255C8.83946 21.7585 8.14268 19.8669 8.19708 17.766C8.26313 15.258 9.33032 13.3729 11.5178 12.126C11.8014 11.9632 12.3441 11.8676 12.2444 11.5291C12.1537 11.2229 11.6421 11.3999 11.3196 11.4581C10.9972 11.5162 10.7796 11.458 10.7899 11.1105C10.8236 9.93469 10.6255 8.74211 10.9389 7.58441C11.2599 6.30258 12.044 5.18408 13.1406 4.44336C13.1406 4.75992 12.9684 5.02222 12.8142 5.27417C11.7522 7.00556 12.5034 10.3559 14.2013 11.5795C14.5782 11.8521 14.4798 11.9594 14.1832 12.1571C12.8375 13.0615 11.8222 14.2244 11.4233 15.8175C11.2251 16.6083 10.9337 17.4313 11.431 18.235L11.3339 18.872C11.1591 18.9741 11.1357 19.1007 11.2717 19.2532C11.2199 19.8654 11.2199 20.4809 11.2717 21.0931C11.1422 21.243 11.1642 21.3683 11.33 21.4717C11.3546 21.6009 11.3792 21.7301 11.4025 21.867C11.273 21.9962 11.3533 22.0647 11.4764 22.1254L11.5385 22.3839C11.3909 22.5337 11.4958 22.5906 11.6331 22.6345Z" fill="#7151DD"/>
<path d="M16.7526 37.5097C16.7629 35.7977 16.6554 34.0818 16.9999 32.384C17.1489 31.6463 17.4986 30.9782 17.6579 30.2482C17.74 30.1514 17.8089 30.0441 17.8625 29.9291C18.3339 28.3954 19.5604 28.0284 20.783 27.9406C21.2039 27.9109 21.4474 28.0388 21.5601 28.5026C21.9396 30.1061 22.4758 31.6708 22.7646 33.2962C22.8754 33.9151 22.7478 34.5529 22.4071 35.0819C21.7259 36.1801 20.1627 36.1556 19.3623 35.0535C19.2522 34.9036 19.2237 34.6904 18.9841 34.5793C18.7082 35.9191 18.4945 37.3094 16.7526 37.5097Z" fill="#7151DD"/>
<path d="M21.782 10.2348C21.4815 9.15593 21.6745 8.13003 22.12 7.13384C22.2223 6.90385 22.357 6.7811 22.6135 6.94132C23.7791 7.67005 24.8787 8.46081 25.5483 9.70895C25.4395 9.7167 25.3449 9.74512 25.3125 9.86658C25.1221 9.84981 24.9304 9.85588 24.7414 9.88467C23.7746 10.1302 22.7796 10.248 21.782 10.2348V10.2348ZM24.7194 9.11201C24.2622 8.38457 23.5874 7.9065 22.8738 7.47883C22.6342 7.33412 22.5138 7.49951 22.4594 7.7127C22.405 7.92589 22.1848 8.17913 22.5397 8.3135C23.2507 8.58355 23.9073 9.00865 24.7142 9.11201H24.7194Z" fill="#EFF1F4"/>
<path d="M21.7814 10.235C22.781 10.2465 23.7777 10.1266 24.746 9.87841C24.9349 9.84962 25.1267 9.84354 25.3171 9.86032C24.5102 10.5813 23.4728 10.9315 22.5973 11.54C22.3992 11.6783 22.2774 11.5168 22.1919 11.3617C21.9886 11.0103 21.7594 10.6666 21.7814 10.235Z" fill="#EFF1F4"/>
<path d="M20.6164 4.9388C20.2965 4.82251 19.7889 4.78375 19.7008 4.57056C19.5713 4.25271 20.1036 4.09378 20.2564 3.79531C20.5154 3.30303 20.9519 2.84434 20.6307 2.21252C20.8017 1.86495 20.9066 2.06393 20.9817 2.2655C21.2653 3.02265 21.2407 3.76817 20.8522 4.48528C20.7667 4.63774 20.6242 4.75274 20.6164 4.9388Z" fill="#7151DD"/>
<path d="M11.8092 25.6987C11.7965 25.4213 11.8012 25.1434 11.8235 24.8666C11.8882 24.4092 12.0903 24.1314 12.6006 24.4428C12.6109 24.5501 12.6407 24.6431 12.7625 24.6715C12.756 24.9932 12.7404 25.3176 12.7469 25.6367C12.7469 25.9093 12.7119 26.1535 12.4529 26.3021C12.1719 26.4662 12.0307 26.182 11.8261 26.1018C11.8261 26.0308 11.817 25.9584 11.8131 25.8861L11.8092 25.6987Z" fill="#EFF1F4"/>
<path d="M20.234 25.9805L20.2457 24.8176L20.3428 24.6303C20.4853 24.284 20.708 24.2039 21.0227 24.4261L21.1587 24.5553C21.1688 24.5668 21.1758 24.5807 21.179 24.5956C21.1821 24.6105 21.1814 24.626 21.1769 24.6406C21.1691 24.9611 21.1691 25.2866 21.151 25.6019C21.1354 25.8603 21.252 26.1859 20.9062 26.3306C20.5604 26.4754 20.4322 26.1511 20.234 25.9805Z" fill="#EFF1F4"/>
<path d="M20.2338 25.9809C20.432 26.1514 20.5498 26.4861 20.906 26.3375C21.2621 26.1889 21.1352 25.8711 21.1508 25.6088C21.1689 25.2883 21.1689 24.9627 21.1767 24.6475C21.5484 25.4473 21.3839 26.26 21.209 27.0649C21.1834 27.1595 21.1262 27.2424 21.0468 27.3C20.9674 27.3576 20.8706 27.3864 20.7726 27.3815C20.6643 27.392 20.5559 27.3625 20.4678 27.2987C20.3798 27.2349 20.3182 27.1412 20.2947 27.0352C20.2273 26.6915 20.0577 26.3453 20.2338 25.9809Z" fill="#EFF1F4"/>
<path d="M10.2742 25.7248C10.2496 25.3876 10.2004 25.0439 10.4361 24.7519C10.5734 24.5813 10.7495 24.4353 10.9762 24.4935C11.0813 24.5197 11.1739 24.5817 11.2382 24.6687C11.3025 24.7557 11.3344 24.8623 11.3284 24.9702C11.3284 25.3075 11.3051 25.6447 11.2922 25.9819C10.8803 26.1809 10.5267 26.1577 10.2742 25.7248Z" fill="#EFF1F4"/>
<path d="M14.316 25.425C14.522 25.9419 14.3342 26.4316 14.2124 26.9187C14.1529 27.159 13.921 27.2817 13.6542 27.2598C13.556 27.2529 13.464 27.209 13.3969 27.1371C13.3298 27.0651 13.2926 26.9704 13.2929 26.8722C13.3007 26.1757 13.1258 25.4729 13.3576 24.7842C13.3654 24.9741 13.3667 25.1628 13.3797 25.3514C13.4017 25.668 13.2696 26.0737 13.798 26.1124C14.3264 26.1512 14.2694 25.7481 14.316 25.425Z" fill="#EFF1F4"/>
<path d="M21.7905 25.9783L21.7711 25.1229C21.7711 25.0545 21.7711 24.986 21.7776 24.9175C21.7776 24.6371 21.9071 24.4342 22.192 24.4795C22.2725 24.4864 22.3508 24.5093 22.4222 24.5469C22.4936 24.5846 22.5568 24.6361 22.6078 24.6985C22.6589 24.7609 22.6969 24.833 22.7196 24.9103C22.7423 24.9876 22.7492 25.0687 22.7399 25.1488C22.7171 25.2003 22.7099 25.2573 22.7191 25.3128C22.7283 25.3684 22.7535 25.42 22.7917 25.4615C22.7917 25.5506 22.7917 25.6398 22.7917 25.7302C22.5314 26.1049 22.2063 26.2251 21.7905 25.9783Z" fill="#EFF1F4"/>
<path d="M18.7582 25.2245C18.7401 25.1777 18.7361 25.1265 18.7467 25.0774C18.7573 25.0283 18.782 24.9834 18.8178 24.948L18.9266 24.7749C19.0561 24.5462 19.2335 24.417 19.5016 24.532C19.7438 24.6354 19.7606 24.855 19.7503 25.0772C19.7503 25.3356 19.7386 25.5941 19.7334 25.8525C19.433 26.1264 19.1053 26.1794 18.7465 25.9726L18.7155 25.722C18.8644 25.5682 18.8476 25.399 18.7582 25.2245Z" fill="#EFF1F4"/>
<path d="M14.3168 25.4255C14.2702 25.7485 14.3168 26.149 13.7987 26.1103C13.2807 26.0715 13.4024 25.6658 13.3804 25.3492C13.3675 25.1606 13.3662 24.9719 13.3584 24.782C13.4646 24.4835 13.6925 24.481 13.9283 24.574C14.3207 24.7277 14.322 25.0792 14.3168 25.4255Z" fill="#EFF1F4"/>
<path d="M18.7473 25.9727C19.106 26.1794 19.4337 26.1265 19.7342 25.8525C19.8702 26.089 19.795 26.3487 19.808 26.5981C19.8261 26.9198 19.7471 27.2364 19.378 27.2557C19.0089 27.2751 18.7978 26.9973 18.7369 26.664C18.7177 26.4338 18.7212 26.2022 18.7473 25.9727Z" fill="#EFF1F4"/>
<path d="M11.8186 26.1086C12.0232 26.1887 12.1644 26.4729 12.4454 26.3088C12.7044 26.1577 12.7446 25.9212 12.7394 25.6434C12.7329 25.3217 12.7485 24.9974 12.7549 24.6782C12.9829 25.4134 12.8495 26.1615 12.8145 26.9019C12.8165 26.9679 12.8043 27.0336 12.7789 27.0945C12.7534 27.1555 12.7151 27.2103 12.6667 27.2553C12.6183 27.3003 12.5608 27.3345 12.498 27.3555C12.4353 27.3766 12.3688 27.384 12.3029 27.3774C12.2367 27.3779 12.1712 27.3645 12.1105 27.3381C12.0498 27.3117 11.9954 27.2729 11.9507 27.2242C11.906 27.1754 11.8721 27.1179 11.8511 27.0552C11.8301 26.9926 11.8226 26.9263 11.8289 26.8606C11.838 26.6112 11.6929 26.3618 11.8186 26.1086Z" fill="#EFF1F4"/>
<path d="M21.7908 25.9781C22.2065 26.2248 22.5316 26.1073 22.7932 25.73C22.801 25.9212 22.8139 26.1176 22.8165 26.3049C22.8165 26.7572 22.6041 27.097 22.1521 27.0802C21.7001 27.0634 21.7079 26.6331 21.7118 26.2856C21.7248 26.1801 21.7514 26.0768 21.7908 25.9781V25.9781Z" fill="#EFF1F4"/>
<path d="M10.2743 25.7246C10.5269 26.1575 10.8804 26.1807 11.2923 25.983C11.3014 26.129 11.3169 26.2763 11.3208 26.4236C11.3299 26.7363 11.2884 27.0697 10.9076 27.0878C10.5593 27.1007 10.3261 26.85 10.2886 26.4882C10.2627 26.2311 10.2769 25.9766 10.2743 25.7246Z" fill="#EFF1F4"/>
<path d="M18.7582 25.2261C18.8476 25.4005 18.8644 25.5685 18.7155 25.7222L18.7582 25.2261Z" fill="#EFF1F4"/>
<path d="M22.7919 25.4621C22.7538 25.4206 22.7285 25.369 22.7193 25.3135C22.7101 25.2579 22.7174 25.2009 22.7401 25.1494C22.7765 25.1919 22.8006 25.2434 22.8097 25.2985C22.8189 25.3536 22.8127 25.4102 22.7919 25.4621Z" fill="#7151DD"/>
<path d="M12.761 24.6755C12.6393 24.647 12.6095 24.554 12.5991 24.4468C12.6484 24.4604 12.6915 24.4906 12.721 24.5323C12.7505 24.574 12.7647 24.6246 12.761 24.6755V24.6755Z" fill="#F08F42"/>
<path d="M25.307 9.86369C25.3394 9.74223 25.4365 9.71381 25.5427 9.70605C25.5168 9.83527 25.4197 9.85982 25.307 9.86369Z" fill="#F08F42"/>
<path d="M21.7816 24.9238C21.7816 24.9923 21.7816 25.0608 21.7751 25.1293C21.7596 25.1167 21.7473 25.1008 21.739 25.0827C21.7307 25.0646 21.7267 25.0448 21.7274 25.0249C21.728 25.0051 21.7332 24.9856 21.7426 24.9681C21.752 24.9505 21.7654 24.9354 21.7816 24.9238V24.9238Z" fill="#7151DD"/>
<path d="M11.8086 25.6992L11.8009 25.8892C11.7852 25.8784 11.7726 25.8638 11.7641 25.8468C11.7556 25.8299 11.7515 25.811 11.7523 25.7921C11.7531 25.7731 11.7586 25.7546 11.7685 25.7384C11.7783 25.7222 11.7922 25.7087 11.8086 25.6992V25.6992Z" fill="#F08F42"/>
<path d="M20.3427 24.6338L20.2456 24.8211L20.3427 24.6338Z" fill="#F08F42"/>
<path d="M21.1586 24.5614L21.0226 24.4321L21.1586 24.5614Z" fill="#F08F42"/>
<path d="M18.9319 24.7764L18.8231 24.9495L18.9319 24.7764Z" fill="#F08F42"/>
<path d="M18.9323 8.08245C18.9168 8.54948 18.7181 8.99174 18.379 9.31409C18.0399 9.63644 17.5875 9.81311 17.1191 9.80608C16.6614 9.7879 16.2294 9.59031 15.9168 9.25622C15.6042 8.92213 15.4364 8.47852 15.4497 8.02171C15.4562 7.05136 16.2695 6.23736 17.2176 6.25416C18.1371 6.26837 18.9453 7.13148 18.9323 8.08245ZM18.3016 7.39247C18.277 7.06945 18.1164 6.83688 17.7576 6.83172C17.4248 6.83172 17.1826 6.97514 17.1632 7.34855C17.1425 7.74521 17.3756 7.96229 17.7317 7.97134C18.0542 7.9778 18.2718 7.76717 18.2964 7.39247H18.3016Z" fill="#7151DD"/>
<path d="M24.7138 9.11259C23.907 9.00922 23.2503 8.58412 22.5341 8.31408C22.1793 8.18487 22.4046 7.92647 22.4538 7.71328C22.503 7.50009 22.6287 7.33469 22.8683 7.47941C23.5819 7.90708 24.2567 8.38515 24.7138 9.11259Z" fill="#EFF1F4"/>
<path d="M18.2961 7.39279C18.2715 7.76749 18.0539 7.97811 17.7262 7.97165C17.3701 7.96261 17.1369 7.74553 17.1576 7.34886C17.1771 6.97545 17.4167 6.83203 17.7521 6.83203C18.1109 6.83462 18.2715 7.06977 18.2961 7.39279Z" fill="#EFF1F4"/>
<circle cx="17.2271" cy="7.76612" r="1.47176" stroke="#EFF1F4" stroke-width="1.17857"/>
</svg>
