<svg width="295" height="146" viewBox="0 0 295 146" fill="none" xmlns="http://www.w3.org/2000/svg">
<g clip-path="url(#clip0_9575_520)">
<rect width="294.791" height="145.773" rx="8" fill="#FDFCFC"/>
<rect x="0.5" y="0.5" width="293.791" height="48.1271" fill="#FDFCFC"/>
<rect x="0.5" y="0.5" width="293.791" height="48.1271" stroke="#EADDD7"/>
<g clip-path="url(#clip1_9575_520)">
<g clip-path="url(#clip2_9575_520)">
<path d="M16.5548 30.0469V18.9769H20.7925C21.5925 18.9769 22.2573 19.103 22.787 19.3553C23.3203 19.6039 23.7185 19.9444 23.9816 20.3769C24.2482 20.8093 24.3816 21.2994 24.3816 21.8471C24.3816 22.2975 24.2951 22.6831 24.1221 23.0038C23.9491 23.3209 23.7167 23.5786 23.4248 23.7768C23.133 23.975 22.8068 24.1173 22.4465 24.2038V24.3119C22.8393 24.3335 23.2158 24.4542 23.5762 24.674C23.9401 24.8903 24.2374 25.1966 24.4681 25.5929C24.6987 25.9893 24.814 26.4686 24.814 27.0307C24.814 27.6037 24.6753 28.119 24.3978 28.5766C24.1203 29.0307 23.7023 29.3892 23.1438 29.6523C22.5852 29.9153 21.8825 30.0469 21.0357 30.0469H16.5548ZM18.5601 28.3712H20.7168C21.4447 28.3712 21.969 28.2325 22.2897 27.955C22.614 27.674 22.7762 27.3136 22.7762 26.874C22.7762 26.5461 22.6951 26.2506 22.533 25.9875C22.3708 25.7209 22.1402 25.5119 21.8411 25.3605C21.542 25.2056 21.1853 25.1281 20.7709 25.1281H18.5601V28.3712ZM18.5601 23.6849H20.5438C20.8898 23.6849 21.2015 23.6218 21.4789 23.4957C21.7564 23.366 21.9744 23.184 22.133 22.9498C22.2951 22.7119 22.3762 22.4309 22.3762 22.1065C22.3762 21.6777 22.2249 21.3246 21.9222 21.0471C21.6231 20.7696 21.1781 20.6309 20.5871 20.6309H18.5601V23.6849ZM28.8612 30.2144C28.3351 30.2144 27.8612 30.1207 27.4396 29.9334C27.0216 29.7424 26.6901 29.4613 26.445 29.0901C26.2036 28.719 26.0829 28.2613 26.0829 27.7172C26.0829 27.2488 26.1694 26.8614 26.3423 26.5551C26.5153 26.2488 26.7513 26.0037 27.0504 25.82C27.3495 25.6362 27.6864 25.4974 28.0612 25.4038C28.4396 25.3065 28.8305 25.2362 29.2341 25.193C29.7206 25.1425 30.1152 25.0975 30.4179 25.0578C30.7206 25.0146 30.9404 24.9497 31.0773 24.8632C31.2179 24.7731 31.2881 24.6344 31.2881 24.447V24.4146C31.2881 24.0074 31.1674 23.6921 30.926 23.4687C30.6846 23.2453 30.3368 23.1335 29.8828 23.1335C29.4035 23.1335 29.0233 23.238 28.7423 23.4471C28.4648 23.6561 28.2774 23.9029 28.1801 24.1876L26.3531 23.9281C26.4973 23.4236 26.7351 23.002 27.0666 22.6633C27.3982 22.321 27.8035 22.0651 28.2828 21.8957C28.7621 21.7228 29.2918 21.6363 29.872 21.6363C30.272 21.6363 30.6701 21.6831 31.0665 21.7768C31.4629 21.8705 31.8251 22.0255 32.153 22.2417C32.4809 22.4543 32.744 22.7444 32.9421 23.1119C33.1439 23.4795 33.2448 23.9389 33.2448 24.4903V30.0469H31.3638V28.9064H31.299C31.18 29.137 31.0125 29.3532 30.7963 29.555C30.5837 29.7532 30.3152 29.9135 29.9909 30.0361C29.6702 30.155 29.2936 30.2144 28.8612 30.2144ZM29.3693 28.7766C29.7621 28.7766 30.1026 28.6992 30.3909 28.5442C30.6791 28.3857 30.9008 28.1767 31.0557 27.9172C31.2143 27.6578 31.2935 27.3749 31.2935 27.0686V26.0902C31.2323 26.1407 31.1278 26.1875 30.98 26.2308C30.8359 26.274 30.6737 26.3118 30.4936 26.3443C30.3134 26.3767 30.135 26.4055 29.9584 26.4308C29.7819 26.456 29.6287 26.4776 29.499 26.4956C29.2071 26.5353 28.9459 26.6001 28.7152 26.6902C28.4846 26.7803 28.3026 26.9064 28.1693 27.0686C28.036 27.2271 27.9693 27.4325 27.9693 27.6848C27.9693 28.0451 28.1008 28.3172 28.3639 28.501C28.627 28.6847 28.9621 28.7766 29.3693 28.7766ZM37.1691 25.1821V30.0469H35.2124V21.7444H37.0826V23.1552H37.1799C37.3709 22.6903 37.6754 22.321 38.0934 22.0471C38.515 21.7732 39.0357 21.6363 39.6555 21.6363C40.2284 21.6363 40.7275 21.7588 41.1527 22.0038C41.5816 22.2489 41.9131 22.6038 42.1473 23.0687C42.3851 23.5335 42.5023 24.0975 42.4986 24.7605V30.0469H40.5419V25.0632C40.5419 24.5083 40.3978 24.0741 40.1095 23.7606C39.8248 23.4471 39.4303 23.2903 38.9258 23.2903C38.5834 23.2903 38.2789 23.366 38.0123 23.5173C37.7492 23.6651 37.542 23.8795 37.3907 24.1605C37.2429 24.4416 37.1691 24.7822 37.1691 25.1821ZM46.2715 27.4415L46.2661 25.0794H46.5796L49.5633 21.7444H51.8497L48.1796 25.8308H47.7742L46.2715 27.4415ZM44.4878 30.0469V18.9769H46.4445V30.0469H44.4878ZM49.6985 30.0469L46.9958 26.2686L48.3147 24.8903L52.0389 30.0469H49.6985ZM56.4875 30.209C55.655 30.209 54.9361 30.0361 54.3308 29.6901C53.729 29.3406 53.2659 28.8469 52.9416 28.2091C52.6173 27.5677 52.4551 26.8127 52.4551 25.9443C52.4551 25.0903 52.6173 24.3407 52.9416 23.6957C53.2695 23.0471 53.7272 22.5426 54.3145 22.1822C54.9019 21.8183 55.592 21.6363 56.3848 21.6363C56.8965 21.6363 57.3793 21.7192 57.8334 21.8849C58.291 22.0471 58.6946 22.2993 59.0441 22.6417C59.3973 22.984 59.6748 23.42 59.8766 23.9497C60.0784 24.4759 60.1793 25.1029 60.1793 25.8308V26.4308H53.374V25.1119H58.3036C58.3 24.7371 58.2189 24.4038 58.0604 24.1119C57.9018 23.8164 57.6802 23.584 57.3955 23.4146C57.1145 23.2453 56.7865 23.1606 56.4118 23.1606C56.0118 23.1606 55.6605 23.2579 55.3578 23.4525C55.0551 23.6434 54.819 23.8957 54.6497 24.2092C54.4839 24.5191 54.3992 24.8596 54.3956 25.2308V26.3821C54.3956 26.865 54.4839 27.2794 54.6605 27.6253C54.8371 27.9677 55.0839 28.2307 55.401 28.4145C55.7181 28.5947 56.0893 28.6847 56.5145 28.6847C56.7992 28.6847 57.0568 28.6451 57.2874 28.5658C57.5181 28.483 57.7181 28.3622 57.8874 28.2037C58.0568 28.0451 58.1847 27.8487 58.2712 27.6145L60.0982 27.8199C59.9829 28.3028 59.763 28.7244 59.4387 29.0847C59.118 29.4415 58.7072 29.719 58.2063 29.9171C57.7054 30.1117 57.1325 30.209 56.4875 30.209ZM61.8346 30.0469V21.7444H63.7319V23.1281H63.8183C63.9697 22.6489 64.2291 22.2795 64.5967 22.0201C64.9679 21.757 65.3913 21.6255 65.8669 21.6255C65.975 21.6255 66.0958 21.6309 66.2291 21.6417C66.366 21.6489 66.4795 21.6615 66.5696 21.6795V23.4795C66.4867 23.4507 66.3552 23.4254 66.175 23.4038C65.9985 23.3786 65.8273 23.366 65.6615 23.366C65.3048 23.366 64.9841 23.4434 64.6994 23.5984C64.4183 23.7497 64.1967 23.9606 64.0346 24.2308C63.8724 24.5011 63.7913 24.8128 63.7913 25.1659V30.0469H61.8346Z" fill="#43302B"/>
</g>
</g>
<rect width="52" height="0.966426" transform="translate(15.4629 35.0469)" fill="#D1B9B0"/>
<rect x="230.328" y="13.5293" width="49" height="24" rx="12" fill="#F2E8E4"/>
<path d="M239.609 30.5293V20.3475H241.145V29.2069H245.759V30.5293H239.609ZM250.608 30.6834C249.893 30.6834 249.268 30.5194 248.734 30.1912C248.201 29.8631 247.786 29.4041 247.491 28.8141C247.196 28.2241 247.049 27.5347 247.049 26.7459C247.049 25.9538 247.196 25.2611 247.491 24.6678C247.786 24.0745 248.201 23.6138 248.734 23.2857C249.268 22.9576 249.893 22.7935 250.608 22.7935C251.324 22.7935 251.949 22.9576 252.483 23.2857C253.016 23.6138 253.431 24.0745 253.726 24.6678C254.021 25.2611 254.168 25.9538 254.168 26.7459C254.168 27.5347 254.021 28.2241 253.726 28.8141C253.431 29.4041 253.016 29.8631 252.483 30.1912C251.949 30.5194 251.324 30.6834 250.608 30.6834ZM250.613 29.4355C251.077 29.4355 251.462 29.3129 251.767 29.0676C252.072 28.8224 252.297 28.4959 252.443 28.0882C252.592 27.6806 252.667 27.2315 252.667 26.7409C252.667 26.2537 252.592 25.8063 252.443 25.3986C252.297 24.9876 252.072 24.6578 251.767 24.4093C251.462 24.1607 251.077 24.0364 250.613 24.0364C250.146 24.0364 249.758 24.1607 249.45 24.4093C249.145 24.6578 248.918 24.9876 248.769 25.3986C248.623 25.8063 248.55 26.2537 248.55 26.7409C248.55 27.2315 248.623 27.6806 248.769 28.0882C248.918 28.4959 249.145 28.8224 249.45 29.0676C249.758 29.3129 250.146 29.4355 250.613 29.4355ZM258.05 30.6983C257.566 30.6983 257.128 30.6088 256.737 30.4299C256.346 30.2476 256.036 29.9841 255.808 29.6394C255.582 29.2947 255.469 28.8721 255.469 28.3716C255.469 27.9408 255.552 27.5861 255.718 27.3077C255.884 27.0293 256.107 26.8089 256.389 26.6465C256.671 26.4841 256.986 26.3614 257.334 26.2786C257.682 26.1957 258.036 26.1328 258.398 26.0897C258.855 26.0366 259.226 25.9935 259.511 25.9604C259.796 25.9239 260.004 25.8659 260.133 25.7864C260.262 25.7069 260.327 25.5776 260.327 25.3986V25.3638C260.327 24.9296 260.204 24.5932 259.959 24.3546C259.717 24.1159 259.356 23.9966 258.875 23.9966C258.375 23.9966 257.98 24.1077 257.692 24.3297C257.407 24.5485 257.21 24.7921 257.1 25.0605L255.703 24.7424C255.869 24.2783 256.111 23.9038 256.429 23.6188C256.75 23.3304 257.12 23.1216 257.538 22.9924C257.955 22.8598 258.394 22.7935 258.855 22.7935C259.16 22.7935 259.483 22.83 259.825 22.9029C260.169 22.9725 260.491 23.1017 260.789 23.2907C261.091 23.4796 261.338 23.7497 261.53 24.101C261.722 24.449 261.818 24.9015 261.818 25.4583V30.5293H260.366V29.4853H260.307C260.211 29.6775 260.067 29.8664 259.874 30.052C259.682 30.2376 259.435 30.3917 259.134 30.5144C258.832 30.637 258.471 30.6983 258.05 30.6983ZM258.373 29.5051C258.784 29.5051 259.135 29.4239 259.427 29.2615C259.722 29.0991 259.946 28.887 260.098 28.6252C260.254 28.36 260.332 28.0766 260.332 27.775V26.7907C260.279 26.8437 260.176 26.8934 260.023 26.9398C259.874 26.9829 259.704 27.021 259.511 27.0542C259.319 27.084 259.132 27.1122 258.95 27.1387C258.767 27.1619 258.615 27.1818 258.492 27.1983C258.204 27.2348 257.94 27.2961 257.702 27.3823C257.466 27.4685 257.277 27.5927 257.135 27.7551C256.996 27.9142 256.926 28.1264 256.926 28.3915C256.926 28.7594 257.062 29.0378 257.334 29.2267C257.606 29.4123 257.952 29.5051 258.373 29.5051ZM265.285 25.9952V30.5293H263.798V22.8929H265.225V24.1358H265.319C265.495 23.7315 265.77 23.4067 266.145 23.1614C266.523 22.9161 266.998 22.7935 267.572 22.7935C268.092 22.7935 268.548 22.9029 268.939 23.1216C269.33 23.3371 269.633 23.6586 269.849 24.0861C270.064 24.5137 270.172 25.0423 270.172 25.6721V30.5293H268.685V25.851C268.685 25.2975 268.541 24.865 268.253 24.5534C267.964 24.2386 267.568 24.0811 267.064 24.0811C266.72 24.0811 266.413 24.1557 266.145 24.3049C265.88 24.454 265.669 24.6728 265.513 24.9611C265.361 25.2462 265.285 25.5908 265.285 25.9952Z" fill="#43302B"/>
<rect width="294.791" height="96.6455" transform="translate(0 49.127)" fill="#FDFCFC"/>
<path d="M19.7305 67.776H35.1933C35.4639 67.776 35.6894 67.8726 35.8698 68.0659C36.0631 68.2463 36.1597 68.4718 36.1597 68.7424V84.2052C36.1597 84.4758 36.0631 84.7013 35.8698 84.8817C35.6894 85.075 35.4639 85.1717 35.1933 85.1717H19.7305C19.4599 85.1717 19.228 85.075 19.0347 84.8817C18.8543 84.7013 18.7641 84.4758 18.7641 84.2052V68.7424C18.7641 68.4718 18.8543 68.2463 19.0347 68.0659C19.228 67.8726 19.4599 67.776 19.7305 67.776ZM26.4955 80.3395L33.3378 73.4972L31.9655 72.1442L26.4955 77.6142L23.7702 74.8695L22.3978 76.2419L26.4955 80.3395Z" fill="#974EF2"/>
<path d="M53.7817 71.3495L56.7029 79.6327H56.8182L59.7395 71.3495H60.9887L57.3756 81.1895H56.1456L52.5325 71.3495H53.7817ZM62.3676 81.1895V73.8095H63.5015V81.1895H62.3676ZM62.9442 72.5795C62.7232 72.5795 62.5326 72.5042 62.3724 72.3537C62.2155 72.2031 62.137 72.0221 62.137 71.8107C62.137 71.5993 62.2155 71.4183 62.3724 71.2678C62.5326 71.1173 62.7232 71.042 62.9442 71.042C63.1652 71.042 63.3542 71.1173 63.5111 71.2678C63.6713 71.4183 63.7514 71.5993 63.7514 71.8107C63.7514 72.0221 63.6713 72.2031 63.5111 72.3537C63.3542 72.5042 63.1652 72.5795 62.9442 72.5795ZM68.6726 81.3432C67.9615 81.3432 67.3481 81.1863 66.8324 80.8723C66.3199 80.5552 65.9243 80.1132 65.6456 79.5463C65.3702 78.9761 65.2324 78.3131 65.2324 77.5571C65.2324 76.8012 65.3702 76.1349 65.6456 75.5584C65.9243 74.9786 66.3119 74.527 66.8084 74.2035C67.308 73.8767 67.891 73.7134 68.5573 73.7134C68.9416 73.7134 69.3212 73.7774 69.696 73.9056C70.0707 74.0337 70.4119 74.2419 70.7194 74.5302C71.0269 74.8153 71.2719 75.1932 71.4545 75.6641C71.6371 76.1349 71.7283 76.7147 71.7283 77.4034V77.8838H66.0396V76.9037H70.5752C70.5752 76.4873 70.4919 76.1157 70.3254 75.789C70.162 75.4623 69.9282 75.2044 69.6239 75.0154C69.3228 74.8265 68.9673 74.732 68.5573 74.732C68.1056 74.732 67.7148 74.8441 67.3849 75.0683C67.0582 75.2893 66.8067 75.5776 66.6306 75.9331C66.4544 76.2887 66.3663 76.6699 66.3663 77.0767V77.7301C66.3663 78.2874 66.4624 78.7599 66.6546 79.1475C66.85 79.5318 67.1207 79.8249 67.4666 80.0267C67.8125 80.2253 68.2145 80.3246 68.6726 80.3246C68.9705 80.3246 69.2395 80.283 69.4798 80.1997C69.7232 80.1132 69.933 79.9851 70.1092 79.8153C70.2853 79.6423 70.4215 79.4277 70.5176 79.1715L71.613 79.479C71.4977 79.8506 71.3039 80.1773 71.0317 80.4591C70.7594 80.7378 70.4231 80.9556 70.0227 81.1126C69.6223 81.2663 69.1723 81.3432 68.6726 81.3432ZM75.1252 81.1895L72.8767 73.8095H74.0682L75.6634 79.4598H75.7402L77.3162 73.8095H78.527L80.0837 79.4406H80.1605L81.7557 73.8095H82.9473L80.6987 81.1895H79.584L77.9696 75.5199H77.8543L76.2399 81.1895H75.1252Z" fill="#43302B"/>
<path d="M161.327 67.776H176.79C177.061 67.776 177.286 67.8726 177.467 68.0659C177.66 68.2463 177.756 68.4718 177.756 68.7424V84.2052C177.756 84.4758 177.66 84.7013 177.467 84.8817C177.286 85.075 177.061 85.1717 176.79 85.1717H161.327C161.057 85.1717 160.825 85.075 160.631 84.8817C160.451 84.7013 160.361 84.4758 160.361 84.2052V68.7424C160.361 68.4718 160.451 68.2463 160.631 68.0659C160.825 67.8726 161.057 67.776 161.327 67.776ZM168.092 80.3395L174.934 73.4972L173.562 72.1442L168.092 77.6142L165.367 74.8695L163.995 76.2419L168.092 80.3395Z" fill="#974EF2"/>
<path d="M195.378 81.1895H194.129L197.742 71.3495H198.972L202.585 81.1895H201.336L198.396 72.9062H198.319L195.378 81.1895ZM195.84 77.3457H200.875V78.4027H195.84V77.3457ZM203.964 83.9569V73.8095H205.06V74.9818H205.194C205.278 74.8537 205.393 74.6903 205.54 74.4917C205.691 74.2899 205.905 74.1106 206.184 73.9536C206.466 73.7935 206.847 73.7134 207.328 73.7134C207.949 73.7134 208.497 73.8687 208.971 74.1794C209.445 74.4901 209.815 74.9306 210.081 75.5007C210.347 76.0709 210.479 76.7435 210.479 77.5187C210.479 78.3002 210.347 78.9777 210.081 79.5511C209.815 80.1212 209.446 80.5632 208.976 80.8771C208.505 81.1879 207.962 81.3432 207.347 81.3432C206.873 81.3432 206.493 81.2647 206.208 81.1078C205.923 80.9476 205.704 80.7666 205.55 80.5648C205.396 80.3598 205.278 80.1901 205.194 80.0555H205.098V83.9569H203.964ZM205.079 77.4995C205.079 78.0568 205.161 78.5485 205.324 78.9745C205.487 79.3973 205.726 79.7288 206.04 79.9691C206.354 80.2061 206.738 80.3246 207.193 80.3246C207.667 80.3246 208.063 80.1997 208.38 79.9498C208.7 79.6968 208.94 79.3573 209.101 78.9313C209.264 78.502 209.346 78.0248 209.346 77.4995C209.346 76.9806 209.265 76.5129 209.105 76.0965C208.948 75.6769 208.71 75.3454 208.389 75.1019C208.072 74.8553 207.674 74.732 207.193 74.732C206.732 74.732 206.344 74.8489 206.03 75.0827C205.716 75.3133 205.479 75.6368 205.319 76.0533C205.159 76.4665 205.079 76.9485 205.079 77.4995ZM212.209 83.9569V73.8095H213.305V74.9818H213.439C213.522 74.8537 213.638 74.6903 213.785 74.4917C213.936 74.2899 214.15 74.1106 214.429 73.9536C214.711 73.7935 215.092 73.7134 215.572 73.7134C216.194 73.7134 216.742 73.8687 217.216 74.1794C217.69 74.4901 218.06 74.9306 218.325 75.5007C218.591 76.0709 218.724 76.7435 218.724 77.5187C218.724 78.3002 218.591 78.9777 218.325 79.5511C218.06 80.1212 217.691 80.5632 217.22 80.8771C216.75 81.1879 216.207 81.3432 215.592 81.3432C215.118 81.3432 214.738 81.2647 214.453 81.1078C214.168 80.9476 213.948 80.7666 213.795 80.5648C213.641 80.3598 213.522 80.1901 213.439 80.0555H213.343V83.9569H212.209ZM213.324 77.4995C213.324 78.0568 213.405 78.5485 213.569 78.9745C213.732 79.3973 213.971 79.7288 214.285 79.9691C214.599 80.2061 214.983 80.3246 215.438 80.3246C215.912 80.3246 216.308 80.1997 216.625 79.9498C216.945 79.6968 217.185 79.3573 217.345 78.9313C217.509 78.502 217.59 78.0248 217.59 77.4995C217.59 76.9806 217.51 76.5129 217.35 76.0965C217.193 75.6769 216.955 75.3454 216.634 75.1019C216.317 74.8553 215.918 74.732 215.438 74.732C214.977 74.732 214.589 74.8489 214.275 75.0827C213.961 75.3133 213.724 75.6368 213.564 76.0533C213.404 76.4665 213.324 76.9485 213.324 77.4995ZM220.454 81.1895V73.8095H221.549V74.9242H221.626C221.761 74.559 222.004 74.2627 222.357 74.0353C222.709 73.8079 223.106 73.6942 223.548 73.6942C223.631 73.6942 223.736 73.6958 223.86 73.699C223.985 73.7022 224.08 73.707 224.144 73.7134V74.8665C224.106 74.8569 224.017 74.8425 223.88 74.8233C223.745 74.8008 223.603 74.7896 223.452 74.7896C223.093 74.7896 222.773 74.8649 222.491 75.0154C222.212 75.1628 221.991 75.3678 221.828 75.6304C221.668 75.8899 221.588 76.1862 221.588 76.5193V81.1895H220.454ZM228.262 81.3432C227.595 81.3432 227.011 81.1846 226.508 80.8675C226.008 80.5504 225.617 80.1068 225.336 79.5366C225.057 78.9665 224.918 78.3002 224.918 77.5379C224.918 76.7692 225.057 76.0981 225.336 75.5247C225.617 74.9514 226.008 74.5061 226.508 74.189C227.011 73.8719 227.595 73.7134 228.262 73.7134C228.928 73.7134 229.511 73.8719 230.01 74.189C230.513 74.5061 230.904 74.9514 231.183 75.5247C231.465 76.0981 231.606 76.7692 231.606 77.5379C231.606 78.3002 231.465 78.9665 231.183 79.5366C230.904 80.1068 230.513 80.5504 230.01 80.8675C229.511 81.1846 228.928 81.3432 228.262 81.3432ZM228.262 80.3246C228.768 80.3246 229.184 80.1949 229.511 79.9354C229.837 79.676 230.079 79.3348 230.236 78.912C230.393 78.4892 230.472 78.0312 230.472 77.5379C230.472 77.0446 230.393 76.585 230.236 76.159C230.079 75.7329 229.837 75.3886 229.511 75.126C229.184 74.8633 228.768 74.732 228.262 74.732C227.755 74.732 227.339 74.8633 227.012 75.126C226.686 75.3886 226.444 75.7329 226.287 76.159C226.13 76.585 226.051 77.0446 226.051 77.5379C226.051 78.0312 226.13 78.4892 226.287 78.912C226.444 79.3348 226.686 79.676 227.012 79.9354C227.339 80.1949 227.755 80.3246 228.262 80.3246ZM239.107 73.8095L236.378 81.1895H235.225L232.496 73.8095H233.726L235.763 79.6904H235.84L237.877 73.8095H239.107ZM243.434 81.3432C242.722 81.3432 242.109 81.1863 241.593 80.8723C241.081 80.5552 240.685 80.1132 240.407 79.5463C240.131 78.9761 239.993 78.3131 239.993 77.5571C239.993 76.8012 240.131 76.1349 240.407 75.5584C240.685 74.9786 241.073 74.527 241.569 74.2035C242.069 73.8767 242.652 73.7134 243.318 73.7134C243.703 73.7134 244.082 73.7774 244.457 73.9056C244.832 74.0337 245.173 74.2419 245.48 74.5302C245.788 74.8153 246.033 75.1932 246.215 75.6641C246.398 76.1349 246.489 76.7147 246.489 77.4034V77.8838H240.801V76.9037H245.336C245.336 76.4873 245.253 76.1157 245.086 75.789C244.923 75.4623 244.689 75.2044 244.385 75.0154C244.084 74.8265 243.728 74.732 243.318 74.732C242.867 74.732 242.476 74.8441 242.146 75.0683C241.819 75.2893 241.568 75.5776 241.392 75.9331C241.215 76.2887 241.127 76.6699 241.127 77.0767V77.7301C241.127 78.2874 241.223 78.7599 241.416 79.1475C241.611 79.5318 241.882 79.8249 242.228 80.0267C242.573 80.2253 242.975 80.3246 243.434 80.3246C243.731 80.3246 244 80.283 244.241 80.1997C244.484 80.1132 244.694 79.9851 244.87 79.8153C245.046 79.6423 245.182 79.4277 245.279 79.1715L246.374 79.479C246.259 79.8506 246.065 80.1773 245.793 80.4591C245.52 80.7378 245.184 80.9556 244.784 81.1126C244.383 81.2663 243.933 81.3432 243.434 81.3432Z" fill="#43302B"/>
<path d="M19.7305 110.299H35.1933C35.4639 110.299 35.6894 110.396 35.8698 110.589C36.0631 110.77 36.1597 110.995 36.1597 111.266V126.729C36.1597 126.999 36.0631 127.225 35.8698 127.405C35.6894 127.598 35.4639 127.695 35.1933 127.695H19.7305C19.4599 127.695 19.228 127.598 19.0347 127.405C18.8543 127.225 18.7641 126.999 18.7641 126.729V111.266C18.7641 110.995 18.8543 110.77 19.0347 110.589C19.228 110.396 19.4599 110.299 19.7305 110.299ZM26.4955 122.863L33.3378 116.021L31.9655 114.668L26.4955 120.138L23.7702 117.393L22.3978 118.765L26.4955 122.863Z" fill="#974EF2"/>
<path d="M56.4146 123.713H53.3781V113.873H56.5492C57.5037 113.873 58.3205 114.07 58.9996 114.464C59.6786 114.855 60.1991 115.417 60.5611 116.15C60.923 116.881 61.104 117.755 61.104 118.774C61.104 119.799 60.9214 120.681 60.5563 121.421C60.1911 122.158 59.6594 122.725 58.9611 123.122C58.2628 123.516 57.414 123.713 56.4146 123.713ZM54.5696 122.656H56.3378C57.1514 122.656 57.8256 122.499 58.3605 122.185C58.8955 121.871 59.2942 121.424 59.5569 120.844C59.8196 120.265 59.9509 119.574 59.9509 118.774C59.9509 117.979 59.8212 117.295 59.5617 116.722C59.3022 116.146 58.9147 115.703 58.399 115.396C57.8833 115.085 57.241 114.93 56.4723 114.93H54.5696V122.656ZM66.0432 123.867C65.3321 123.867 64.7187 123.71 64.203 123.396C63.6905 123.079 63.2949 122.637 63.0163 122.07C62.7408 121.5 62.6031 120.836 62.6031 120.081C62.6031 119.325 62.7408 118.658 63.0163 118.082C63.2949 117.502 63.6825 117.05 64.179 116.727C64.6787 116.4 65.2616 116.237 65.9279 116.237C66.3123 116.237 66.6918 116.301 67.0666 116.429C67.4414 116.557 67.7825 116.765 68.09 117.054C68.3975 117.339 68.6425 117.717 68.8251 118.188C69.0077 118.658 69.099 119.238 69.099 119.927V120.407H63.4102V119.427H67.9459C67.9459 119.011 67.8626 118.639 67.696 118.312C67.5327 117.986 67.2988 117.728 66.9945 117.539C66.6934 117.35 66.3379 117.255 65.9279 117.255C65.4763 117.255 65.0855 117.368 64.7556 117.592C64.4288 117.813 64.1774 118.101 64.0012 118.457C63.825 118.812 63.737 119.193 63.737 119.6V120.254C63.737 120.811 63.8331 121.283 64.0252 121.671C64.2206 122.055 64.4913 122.348 64.8372 122.55C65.1832 122.749 65.5852 122.848 66.0432 122.848C66.3411 122.848 66.6102 122.806 66.8504 122.723C67.0938 122.637 67.3036 122.509 67.4798 122.339C67.656 122.166 67.7921 121.951 67.8882 121.695L68.9837 122.002C68.8684 122.374 68.6746 122.701 68.4023 122.983C68.13 123.261 67.7937 123.479 67.3933 123.636C66.9929 123.79 66.5429 123.867 66.0432 123.867ZM73.822 123.867C73.1301 123.867 72.5343 123.703 72.0346 123.377C71.535 123.05 71.1506 122.6 70.8815 122.026C70.6125 121.453 70.4779 120.798 70.4779 120.061C70.4779 119.312 70.6157 118.65 70.8911 118.077C71.1698 117.5 71.5574 117.05 72.0539 116.727C72.5535 116.4 73.1365 116.237 73.8028 116.237C74.3217 116.237 74.7893 116.333 75.2057 116.525C75.6221 116.717 75.9633 116.986 76.2291 117.332C76.495 117.678 76.6599 118.082 76.724 118.543H75.5901C75.5036 118.207 75.3114 117.909 75.0135 117.649C74.7189 117.387 74.3217 117.255 73.822 117.255C73.3799 117.255 72.9924 117.371 72.6592 117.601C72.3293 117.829 72.0715 118.151 71.8857 118.567C71.7031 118.98 71.6118 119.466 71.6118 120.023C71.6118 120.593 71.7015 121.09 71.8809 121.512C72.0635 121.935 72.3197 122.263 72.6496 122.497C72.9828 122.731 73.3735 122.848 73.822 122.848C74.1167 122.848 74.3841 122.797 74.6244 122.694C74.8646 122.592 75.068 122.444 75.2346 122.252C75.4011 122.06 75.5196 121.829 75.5901 121.56H76.724C76.6599 121.996 76.5014 122.388 76.2483 122.738C75.9985 123.083 75.667 123.359 75.2538 123.564C74.8438 123.766 74.3665 123.867 73.822 123.867ZM79.5155 113.873V123.713H78.3816V113.873H79.5155ZM81.5923 123.713V116.333H82.7262V123.713H81.5923ZM82.1689 115.103C81.9479 115.103 81.7573 115.028 81.5971 114.877C81.4402 114.727 81.3617 114.546 81.3617 114.334C81.3617 114.123 81.4402 113.942 81.5971 113.791C81.7573 113.641 81.9479 113.565 82.1689 113.565C82.3899 113.565 82.5789 113.641 82.7359 113.791C82.896 113.942 82.9761 114.123 82.9761 114.334C82.9761 114.546 82.896 114.727 82.7359 114.877C82.5789 115.028 82.3899 115.103 82.1689 115.103ZM85.937 119.273V123.713H84.8031V116.333H85.8985V117.486H85.9946C86.1676 117.111 86.4302 116.81 86.7826 116.583C87.1349 116.352 87.5898 116.237 88.1471 116.237C88.6468 116.237 89.084 116.339 89.4588 116.544C89.8336 116.746 90.125 117.054 90.3332 117.467C90.5414 117.877 90.6455 118.396 90.6455 119.024V123.713H89.5116V119.1C89.5116 118.521 89.3611 118.069 89.06 117.745C88.7589 117.419 88.3457 117.255 87.8204 117.255C87.4584 117.255 87.1349 117.334 86.8499 117.491C86.568 117.648 86.3454 117.877 86.182 118.178C86.0186 118.479 85.937 118.844 85.937 119.273ZM95.8118 123.867C95.1007 123.867 94.4873 123.71 93.9716 123.396C93.4591 123.079 93.0635 122.637 92.7848 122.07C92.5094 121.5 92.3716 120.836 92.3716 120.081C92.3716 119.325 92.5094 118.658 92.7848 118.082C93.0635 117.502 93.4511 117.05 93.9476 116.727C94.4472 116.4 95.0302 116.237 95.6965 116.237C96.0808 116.237 96.4604 116.301 96.8352 116.429C97.2099 116.557 97.5511 116.765 97.8586 117.054C98.1661 117.339 98.4111 117.717 98.5937 118.188C98.7763 118.658 98.8676 119.238 98.8676 119.927V120.407H93.1788V119.427H97.7144C97.7144 119.011 97.6311 118.639 97.4646 118.312C97.3012 117.986 97.0674 117.728 96.7631 117.539C96.462 117.35 96.1065 117.255 95.6965 117.255C95.2448 117.255 94.854 117.368 94.5241 117.592C94.1974 117.813 93.946 118.101 93.7698 118.457C93.5936 118.812 93.5055 119.193 93.5055 119.6V120.254C93.5055 120.811 93.6016 121.283 93.7938 121.671C93.9892 122.055 94.2599 122.348 94.6058 122.55C94.9517 122.749 95.3537 122.848 95.8118 122.848C96.1097 122.848 96.3787 122.806 96.619 122.723C96.8624 122.637 97.0722 122.509 97.2484 122.339C97.4245 122.166 97.5607 121.951 97.6568 121.695L98.7522 122.002C98.6369 122.374 98.4431 122.701 98.1709 122.983C97.8986 123.261 97.5623 123.479 97.1619 123.636C96.7615 123.79 96.3115 123.867 95.8118 123.867Z" fill="#43302B"/>
<path d="M161.327 110.299H176.79C177.061 110.299 177.286 110.396 177.467 110.589C177.66 110.77 177.756 110.995 177.756 111.266V126.729C177.756 126.999 177.66 127.225 177.467 127.405C177.286 127.598 177.061 127.695 176.79 127.695H161.327C161.057 127.695 160.825 127.598 160.631 127.405C160.451 127.225 160.361 126.999 160.361 126.729V111.266C160.361 110.995 160.451 110.77 160.631 110.589C160.825 110.396 161.057 110.299 161.327 110.299ZM162.294 112.232V125.762H175.824V112.232H162.294Z" fill="#A18072"/>
<path d="M195.378 123.713H194.129L197.742 113.873H198.972L202.585 123.713H201.336L198.396 115.43H198.319L195.378 123.713ZM195.84 119.869H200.875V120.926H195.84V119.869ZM203.964 123.713V116.333H205.06V117.448H205.137C205.271 117.082 205.515 116.786 205.867 116.559C206.219 116.331 206.616 116.218 207.059 116.218C207.142 116.218 207.246 116.219 207.371 116.222C207.496 116.226 207.59 116.23 207.654 116.237V117.39C207.616 117.38 207.528 117.366 207.39 117.347C207.256 117.324 207.113 117.313 206.962 117.313C206.604 117.313 206.283 117.388 206.001 117.539C205.723 117.686 205.502 117.891 205.338 118.154C205.178 118.413 205.098 118.71 205.098 119.043V123.713H203.964ZM211.772 123.867C211.08 123.867 210.484 123.703 209.985 123.377C209.485 123.05 209.101 122.6 208.831 122.026C208.562 121.453 208.428 120.798 208.428 120.061C208.428 119.312 208.566 118.65 208.841 118.077C209.12 117.5 209.507 117.05 210.004 116.727C210.503 116.4 211.086 116.237 211.753 116.237C212.272 116.237 212.739 116.333 213.156 116.525C213.572 116.717 213.913 116.986 214.179 117.332C214.445 117.678 214.61 118.082 214.674 118.543H213.54C213.454 118.207 213.261 117.909 212.963 117.649C212.669 117.387 212.272 117.255 211.772 117.255C211.33 117.255 210.942 117.371 210.609 117.601C210.279 117.829 210.021 118.151 209.836 118.567C209.653 118.98 209.562 119.466 209.562 120.023C209.562 120.593 209.651 121.09 209.831 121.512C210.013 121.935 210.27 122.263 210.6 122.497C210.933 122.731 211.323 122.848 211.772 122.848C212.067 122.848 212.334 122.797 212.574 122.694C212.815 122.592 213.018 122.444 213.184 122.252C213.351 122.06 213.47 121.829 213.54 121.56H214.674C214.61 121.996 214.451 122.388 214.198 122.738C213.948 123.083 213.617 123.359 213.204 123.564C212.794 123.766 212.316 123.867 211.772 123.867ZM217.465 119.273V123.713H216.332V113.873H217.465V117.486H217.562C217.735 117.105 217.994 116.802 218.34 116.578C218.689 116.351 219.153 116.237 219.733 116.237C220.236 116.237 220.677 116.338 221.055 116.54C221.433 116.738 221.726 117.044 221.934 117.457C222.145 117.867 222.251 118.389 222.251 119.024V123.713H221.117V119.1C221.117 118.514 220.965 118.061 220.661 117.741C220.359 117.417 219.941 117.255 219.407 117.255C219.035 117.255 218.702 117.334 218.407 117.491C218.116 117.648 217.885 117.877 217.715 118.178C217.549 118.479 217.465 118.844 217.465 119.273ZM224.325 123.713V116.333H225.459V123.713H224.325ZM224.902 115.103C224.681 115.103 224.49 115.028 224.33 114.877C224.173 114.727 224.095 114.546 224.095 114.334C224.095 114.123 224.173 113.942 224.33 113.791C224.49 113.641 224.681 113.565 224.902 113.565C225.123 113.565 225.312 113.641 225.469 113.791C225.629 113.942 225.709 114.123 225.709 114.334C225.709 114.546 225.629 114.727 225.469 114.877C225.312 115.028 225.123 115.103 224.902 115.103ZM233.571 116.333L230.842 123.713H229.689L226.959 116.333H228.189L230.227 122.214H230.304L232.341 116.333H233.571ZM237.897 123.867C237.186 123.867 236.573 123.71 236.057 123.396C235.545 123.079 235.149 122.637 234.87 122.07C234.595 121.5 234.457 120.836 234.457 120.081C234.457 119.325 234.595 118.658 234.87 118.082C235.149 117.502 235.537 117.05 236.033 116.727C236.533 116.4 237.116 116.237 237.782 116.237C238.166 116.237 238.546 116.301 238.921 116.429C239.295 116.557 239.637 116.765 239.944 117.054C240.252 117.339 240.497 117.717 240.679 118.188C240.862 118.658 240.953 119.238 240.953 119.927V120.407H235.264V119.427H239.8C239.8 119.011 239.717 118.639 239.55 118.312C239.387 117.986 239.153 117.728 238.849 117.539C238.548 117.35 238.192 117.255 237.782 117.255C237.33 117.255 236.94 117.368 236.61 117.592C236.283 117.813 236.032 118.101 235.855 118.457C235.679 118.812 235.591 119.193 235.591 119.6V120.254C235.591 120.811 235.687 121.283 235.879 121.671C236.075 122.055 236.345 122.348 236.691 122.55C237.037 122.749 237.439 122.848 237.897 122.848C238.195 122.848 238.464 122.806 238.705 122.723C238.948 122.637 239.158 122.509 239.334 122.339C239.51 122.166 239.646 121.951 239.742 121.695L240.838 122.002C240.722 122.374 240.529 122.701 240.256 122.983C239.984 123.261 239.648 123.479 239.247 123.636C238.847 123.79 238.397 123.867 237.897 123.867Z" fill="#43302B"/>
</g>
<rect x="0.9" y="0.9" width="292.991" height="143.973" rx="7.1" stroke="#D1B9B0" stroke-width="1.8"/>
<defs>
<clipPath id="clip0_9575_520">
<rect width="294.791" height="145.773" rx="8" fill="white"/>
</clipPath>
<clipPath id="clip1_9575_520">
<rect width="52" height="20" fill="white" transform="translate(15.4629 15.0469)"/>
</clipPath>
<clipPath id="clip2_9575_520">
<rect width="52" height="20" fill="white" transform="translate(15.4629 15.0469)"/>
</clipPath>
</defs>
</svg>
