<svg width="343" height="178" viewBox="0 0 343 178" fill="none" xmlns="http://www.w3.org/2000/svg">
<g clip-path="url(#clip0_9575_550)">
<rect width="342.926" height="177.37" rx="8" fill="#FDFCFC"/>
<rect width="342.926" height="49.1271" fill="#FDFCFC"/>
<g clip-path="url(#clip1_9575_550)">
<g clip-path="url(#clip2_9575_550)">
<path d="M16.5548 30.0469V18.9769H23.7546V20.6579H18.5601V23.6633H23.3816V25.3443H18.5601V28.3658H23.7978V30.0469H16.5548ZM25.714 30.0469V21.7444H27.5842V23.1552H27.6815C27.8544 22.6795 28.1409 22.3083 28.5409 22.0417C28.9409 21.7714 29.4184 21.6363 29.9733 21.6363C30.5355 21.6363 31.0093 21.7732 31.3949 22.0471C31.7841 22.3174 32.0579 22.6867 32.2165 23.1552H32.303C32.4868 22.6939 32.7967 22.3264 33.2327 22.0525C33.6723 21.775 34.193 21.6363 34.7948 21.6363C35.5587 21.6363 36.1822 21.8777 36.665 22.3606C37.1479 22.8435 37.3893 23.548 37.3893 24.4741V30.0469H35.4272V24.7767C35.4272 24.2614 35.2903 23.8849 35.0164 23.647C34.7426 23.4056 34.4074 23.2849 34.011 23.2849C33.539 23.2849 33.1696 23.4326 32.903 23.7281C32.6399 24.02 32.5084 24.4002 32.5084 24.8686V30.0469H30.5895V24.6957C30.5895 24.2669 30.4598 23.9245 30.2003 23.6687C29.9445 23.4128 29.6094 23.2849 29.195 23.2849C28.9139 23.2849 28.658 23.357 28.4274 23.5011C28.1968 23.6416 28.013 23.8416 27.8761 24.1011C27.7391 24.3569 27.6707 24.656 27.6707 24.9984V30.0469H25.714ZM39.3744 33.1603V21.7444H41.2987V23.1173H41.4122C41.5131 22.9155 41.6554 22.7011 41.8392 22.4741C42.023 22.2435 42.2716 22.0471 42.5851 21.8849C42.8986 21.7192 43.2986 21.6363 43.7851 21.6363C44.4265 21.6363 45.0049 21.8003 45.5202 22.1282C46.0391 22.4525 46.4499 22.9336 46.7526 23.5714C47.0589 24.2056 47.212 24.9839 47.212 25.9064C47.212 26.8181 47.0625 27.5929 46.7634 28.2307C46.4643 28.8685 46.0571 29.355 45.5418 29.6901C45.0265 30.0253 44.4427 30.1928 43.7905 30.1928C43.3148 30.1928 42.9203 30.1135 42.6068 29.955C42.2932 29.7964 42.041 29.6054 41.85 29.382C41.6626 29.155 41.5167 28.9406 41.4122 28.7388H41.3311V33.1603H39.3744ZM41.2933 25.8956C41.2933 26.4326 41.3689 26.9028 41.5203 27.3064C41.6752 27.71 41.8969 28.0253 42.1851 28.2523C42.477 28.4757 42.8302 28.5875 43.2446 28.5875C43.677 28.5875 44.0391 28.4721 44.331 28.2415C44.6229 28.0073 44.8427 27.6884 44.9905 27.2848C45.1418 26.8776 45.2175 26.4145 45.2175 25.8956C45.2175 25.3803 45.1436 24.9227 44.9959 24.5227C44.8481 24.1227 44.6283 23.8092 44.3364 23.5822C44.0446 23.3552 43.6806 23.2417 43.2446 23.2417C42.8266 23.2417 42.4716 23.3516 42.1797 23.5714C41.8879 23.7912 41.6662 24.0993 41.5149 24.4957C41.3671 24.8921 41.2933 25.3587 41.2933 25.8956ZM50.8444 18.9769V30.0469H48.8877V18.9769H50.8444ZM56.478 30.209C55.6672 30.209 54.9645 30.0307 54.3699 29.6739C53.7754 29.3172 53.3141 28.8181 52.9862 28.1767C52.6619 27.5352 52.4997 26.7857 52.4997 25.9281C52.4997 25.0704 52.6619 24.3191 52.9862 23.6741C53.3141 23.029 53.7754 22.5282 54.3699 22.1714C54.9645 21.8147 55.6672 21.6363 56.478 21.6363C57.2888 21.6363 57.9915 21.8147 58.5861 22.1714C59.1806 22.5282 59.6401 23.029 59.9644 23.6741C60.2923 24.3191 60.4563 25.0704 60.4563 25.9281C60.4563 26.7857 60.2923 27.5352 59.9644 28.1767C59.6401 28.8181 59.1806 29.3172 58.5861 29.6739C57.9915 30.0307 57.2888 30.209 56.478 30.209ZM56.4888 28.6415C56.9284 28.6415 57.296 28.5208 57.5915 28.2794C57.887 28.0343 58.1068 27.7064 58.2509 27.2956C58.3987 26.8848 58.4725 26.4272 58.4725 25.9227C58.4725 25.4146 58.3987 24.9551 58.2509 24.5443C58.1068 24.1299 57.887 23.8002 57.5915 23.5552C57.296 23.3101 56.9284 23.1876 56.4888 23.1876C56.0384 23.1876 55.6636 23.3101 55.3645 23.5552C55.069 23.8002 54.8474 24.1299 54.6997 24.5443C54.5555 24.9551 54.4835 25.4146 54.4835 25.9227C54.4835 26.4272 54.5555 26.8848 54.6997 27.2956C54.8474 27.7064 55.069 28.0343 55.3645 28.2794C55.6636 28.5208 56.0384 28.6415 56.4888 28.6415ZM63.0508 33.1603C62.7841 33.1603 62.5373 33.1387 62.3103 33.0954C62.0869 33.0558 61.9085 33.009 61.7752 32.9549L62.2292 31.4306C62.5139 31.5135 62.7679 31.5531 62.9913 31.5495C63.2148 31.5459 63.4111 31.4757 63.5805 31.3387C63.7535 31.2054 63.8994 30.982 64.0183 30.6685L64.1859 30.2198L61.1752 21.7444H63.2508L65.1643 28.0145H65.2507L67.1696 21.7444H69.2506L65.9264 31.0523C65.7714 31.4919 65.566 31.8684 65.3102 32.182C65.0543 32.4991 64.7408 32.7405 64.3697 32.9063C64.0021 33.0756 63.5625 33.1603 63.0508 33.1603ZM73.9978 30.209C73.1654 30.209 72.4465 30.0361 71.8411 29.6901C71.2393 29.3406 70.7763 28.8469 70.4519 28.2091C70.1276 27.5677 69.9655 26.8127 69.9655 25.9443C69.9655 25.0903 70.1276 24.3407 70.4519 23.6957C70.7799 23.0471 71.2375 22.5426 71.8249 22.1822C72.4123 21.8183 73.1023 21.6363 73.8951 21.6363C74.4068 21.6363 74.8897 21.7192 75.3437 21.8849C75.8014 22.0471 76.2049 22.2993 76.5545 22.6417C76.9076 22.984 77.1851 23.42 77.3869 23.9497C77.5887 24.4759 77.6896 25.1029 77.6896 25.8308V26.4308H70.8844V25.1119H75.814C75.8104 24.7371 75.7293 24.4038 75.5707 24.1119C75.4122 23.8164 75.1906 23.584 74.9059 23.4146C74.6248 23.2453 74.2969 23.1606 73.9221 23.1606C73.5221 23.1606 73.1708 23.2579 72.8681 23.4525C72.5654 23.6434 72.3294 23.8957 72.16 24.2092C71.9943 24.5191 71.9096 24.8596 71.906 25.2308V26.3821C71.906 26.865 71.9943 27.2794 72.1708 27.6253C72.3474 27.9677 72.5942 28.2307 72.9113 28.4145C73.2285 28.5947 73.5996 28.6847 74.0248 28.6847C74.3095 28.6847 74.5672 28.6451 74.7978 28.5658C75.0284 28.483 75.2284 28.3622 75.3978 28.2037C75.5671 28.0451 75.6951 27.8487 75.7815 27.6145L77.6085 27.8199C77.4932 28.3028 77.2734 28.7244 76.9491 29.0847C76.6284 29.4415 76.2176 29.719 75.7167 29.9171C75.2158 30.1117 74.6428 30.209 73.9978 30.209ZM83.0205 30.209C82.1881 30.209 81.4692 30.0361 80.8638 29.6901C80.262 29.3406 79.799 28.8469 79.4747 28.2091C79.1504 27.5677 78.9882 26.8127 78.9882 25.9443C78.9882 25.0903 79.1504 24.3407 79.4747 23.6957C79.8026 23.0471 80.2602 22.5426 80.8476 22.1822C81.435 21.8183 82.1251 21.6363 82.9178 21.6363C83.4295 21.6363 83.9124 21.7192 84.3664 21.8849C84.8241 22.0471 85.2277 22.2993 85.5772 22.6417C85.9304 22.984 86.2078 23.42 86.4096 23.9497C86.6114 24.4759 86.7123 25.1029 86.7123 25.8308V26.4308H79.9071V25.1119H84.8367C84.8331 24.7371 84.752 24.4038 84.5935 24.1119C84.4349 23.8164 84.2133 23.584 83.9286 23.4146C83.6475 23.2453 83.3196 23.1606 82.9449 23.1606C82.5449 23.1606 82.1935 23.2579 81.8908 23.4525C81.5881 23.6434 81.3521 23.8957 81.1827 24.2092C81.017 24.5191 80.9323 24.8596 80.9287 25.2308V26.3821C80.9287 26.865 81.017 27.2794 81.1936 27.6253C81.3701 27.9677 81.617 28.2307 81.9341 28.4145C82.2512 28.5947 82.6223 28.6847 83.0476 28.6847C83.3322 28.6847 83.5899 28.6451 83.8205 28.5658C84.0511 28.483 84.2511 28.3622 84.4205 28.2037C84.5899 28.0451 84.7178 27.8487 84.8043 27.6145L86.6312 27.8199C86.5159 28.3028 86.2961 28.7244 85.9718 29.0847C85.6511 29.4415 85.2403 29.719 84.7394 29.9171C84.2385 30.1117 83.6656 30.209 83.0205 30.209ZM94.9297 23.9389L93.1459 24.1335C93.0955 23.9533 93.0072 23.784 92.8811 23.6254C92.7586 23.4669 92.5928 23.3389 92.3838 23.2417C92.1748 23.1444 91.9189 23.0957 91.6162 23.0957C91.209 23.0957 90.8667 23.184 90.5892 23.3606C90.3154 23.5371 90.1802 23.766 90.1839 24.047C90.1802 24.2885 90.2685 24.4849 90.4487 24.6362C90.6325 24.7876 90.9352 24.9119 91.3568 25.0092L92.773 25.3119C93.5585 25.4812 94.1423 25.7497 94.5243 26.1173C94.9098 26.4848 95.1044 26.9659 95.108 27.5605C95.1044 28.083 94.9513 28.5442 94.6486 28.9442C94.3495 29.3406 93.9333 29.6505 93.4 29.8739C92.8667 30.0973 92.2541 30.209 91.5622 30.209C90.546 30.209 89.728 29.9964 89.1082 29.5712C88.4884 29.1424 88.119 28.546 88.0001 27.7821L89.9082 27.5983C89.9947 27.9731 90.1784 28.2559 90.4595 28.4469C90.7406 28.6379 91.1063 28.7334 91.5568 28.7334C92.0216 28.7334 92.3946 28.6379 92.6757 28.4469C92.9604 28.2559 93.1027 28.0199 93.1027 27.7388C93.1027 27.501 93.0108 27.3046 92.827 27.1497C92.6468 26.9947 92.3658 26.8758 91.9838 26.7929L90.5676 26.4956C89.7712 26.3299 89.1821 26.0506 88.8001 25.6578C88.4181 25.2614 88.2289 24.7605 88.2326 24.1551C88.2289 23.6434 88.3677 23.2002 88.6488 22.8254C88.9334 22.4471 89.328 22.1552 89.8325 21.9498C90.3406 21.7408 90.9262 21.6363 91.5892 21.6363C92.5622 21.6363 93.3279 21.8435 93.8865 22.2579C94.4486 22.6723 94.7963 23.2326 94.9297 23.9389ZM99.1917 25.2038L99.316 23.0146L97.4782 24.22L96.8188 23.0741L98.7809 22.0903L96.8188 21.1066L97.4782 19.9607L99.316 21.166L99.1917 18.9769H100.505L100.386 21.166L102.224 19.9607L102.884 21.1066L100.916 22.0903L102.884 23.0741L102.224 24.22L100.386 23.0146L100.505 25.2038H99.1917Z" fill="#43302B"/>
</g>
</g>
<rect width="89" height="0.966426" transform="translate(15.4629 35.0469)" fill="#D1B9B0"/>
<rect x="247.463" y="13.5293" width="80" height="24" rx="12" fill="#F2E8E4"/>
<path d="M260.022 30.5293H256.726V20.3475H260.127C261.124 20.3475 261.981 20.5513 262.697 20.959C263.413 21.3633 263.961 21.945 264.343 22.704C264.727 23.4597 264.919 24.3662 264.919 25.4235C264.919 26.4841 264.725 27.3955 264.338 28.1578C263.953 28.9202 263.396 29.5068 262.667 29.9178C261.938 30.3255 261.056 30.5293 260.022 30.5293ZM258.262 29.187H259.938C260.713 29.187 261.358 29.0411 261.872 28.7495C262.385 28.4545 262.77 28.0286 263.025 27.4718C263.28 26.9116 263.408 26.2289 263.408 25.4235C263.408 24.6247 263.28 23.9469 263.025 23.3901C262.773 22.8333 262.397 22.4107 261.896 22.1223C261.396 21.834 260.775 21.6898 260.032 21.6898H258.262V29.187ZM268.933 30.6983C268.449 30.6983 268.011 30.6088 267.62 30.4299C267.229 30.2476 266.919 29.9841 266.69 29.6394C266.465 29.2947 266.352 28.8721 266.352 28.3716C266.352 27.9408 266.435 27.5861 266.601 27.3077C266.767 27.0293 266.99 26.8089 267.272 26.6465C267.554 26.4841 267.869 26.3614 268.217 26.2786C268.565 26.1957 268.919 26.1328 269.281 26.0897C269.738 26.0366 270.109 25.9935 270.394 25.9604C270.679 25.9239 270.886 25.8659 271.016 25.7864C271.145 25.7069 271.21 25.5776 271.21 25.3986V25.3638C271.21 24.9296 271.087 24.5932 270.842 24.3546C270.6 24.1159 270.238 23.9966 269.758 23.9966C269.257 23.9966 268.863 24.1077 268.575 24.3297C268.29 24.5485 268.092 24.7921 267.983 25.0605L266.586 24.7424C266.752 24.2783 266.994 23.9038 267.312 23.6188C267.633 23.3304 268.003 23.1216 268.42 22.9924C268.838 22.8598 269.277 22.7935 269.738 22.7935C270.043 22.7935 270.366 22.83 270.707 22.9029C271.052 22.9725 271.374 23.1017 271.672 23.2907C271.973 23.4796 272.22 23.7497 272.413 24.101C272.605 24.449 272.701 24.9015 272.701 25.4583V30.5293H271.249V29.4853H271.19C271.094 29.6775 270.949 29.8664 270.757 30.052C270.565 30.2376 270.318 30.3917 270.016 30.5144C269.715 30.637 269.353 30.6983 268.933 30.6983ZM269.256 29.5051C269.667 29.5051 270.018 29.4239 270.31 29.2615C270.605 29.0991 270.828 28.887 270.981 28.6252C271.137 28.36 271.214 28.0766 271.214 27.775V26.7907C271.161 26.8437 271.059 26.8934 270.906 26.9398C270.757 26.9829 270.586 27.021 270.394 27.0542C270.202 27.084 270.015 27.1122 269.832 27.1387C269.65 27.1619 269.498 27.1818 269.375 27.1983C269.087 27.2348 268.823 27.2961 268.585 27.3823C268.349 27.4685 268.16 27.5927 268.018 27.7551C267.879 27.9142 267.809 28.1264 267.809 28.3915C267.809 28.7594 267.945 29.0378 268.217 29.2267C268.488 29.4123 268.835 29.5051 269.256 29.5051ZM278.246 22.8929V24.0861H274.074V22.8929H278.246ZM275.193 21.0634H276.68V28.2871C276.68 28.5755 276.723 28.7926 276.809 28.9384C276.895 29.0809 277.006 29.1787 277.142 29.2317C277.281 29.2814 277.432 29.3063 277.594 29.3063C277.714 29.3063 277.818 29.298 277.907 29.2814C277.997 29.2649 278.067 29.2516 278.116 29.2417L278.385 30.4696C278.299 30.5028 278.176 30.5359 278.017 30.5691C277.858 30.6055 277.659 30.6254 277.42 30.6287C277.029 30.6354 276.665 30.5658 276.327 30.4199C275.988 30.2741 275.715 30.0487 275.506 29.7438C275.297 29.4389 275.193 29.056 275.193 28.5953V21.0634ZM282.112 30.6983C281.628 30.6983 281.191 30.6088 280.8 30.4299C280.409 30.2476 280.099 29.9841 279.87 29.6394C279.645 29.2947 279.532 28.8721 279.532 28.3716C279.532 27.9408 279.615 27.5861 279.781 27.3077C279.946 27.0293 280.17 26.8089 280.452 26.6465C280.733 26.4841 281.048 26.3614 281.396 26.2786C281.744 26.1957 282.099 26.1328 282.46 26.0897C282.918 26.0366 283.289 25.9935 283.574 25.9604C283.859 25.9239 284.066 25.8659 284.195 25.7864C284.325 25.7069 284.389 25.5776 284.389 25.3986V25.3638C284.389 24.9296 284.267 24.5932 284.021 24.3546C283.779 24.1159 283.418 23.9966 282.938 23.9966C282.437 23.9966 282.043 24.1077 281.754 24.3297C281.469 24.5485 281.272 24.7921 281.163 25.0605L279.766 24.7424C279.931 24.2783 280.173 23.9038 280.491 23.6188C280.813 23.3304 281.183 23.1216 281.6 22.9924C282.018 22.8598 282.457 22.7935 282.918 22.7935C283.223 22.7935 283.546 22.83 283.887 22.9029C284.232 22.9725 284.553 23.1017 284.852 23.2907C285.153 23.4796 285.4 23.7497 285.592 24.101C285.785 24.449 285.881 24.9015 285.881 25.4583V30.5293H284.429V29.4853H284.369C284.273 29.6775 284.129 29.8664 283.937 30.052C283.745 30.2376 283.498 30.3917 283.196 30.5144C282.894 30.637 282.533 30.6983 282.112 30.6983ZM282.435 29.5051C282.846 29.5051 283.198 29.4239 283.489 29.2615C283.784 29.0991 284.008 28.887 284.161 28.6252C284.316 28.36 284.394 28.0766 284.394 27.775V26.7907C284.341 26.8437 284.238 26.8934 284.086 26.9398C283.937 26.9829 283.766 27.021 283.574 27.0542C283.382 27.084 283.194 27.1122 283.012 27.1387C282.83 27.1619 282.677 27.1818 282.555 27.1983C282.266 27.2348 282.003 27.2961 281.764 27.3823C281.529 27.4685 281.34 27.5927 281.197 27.7551C281.058 27.9142 280.989 28.1264 280.989 28.3915C280.989 28.7594 281.125 29.0378 281.396 29.2267C281.668 29.4123 282.014 29.5051 282.435 29.5051ZM287.98 30.5293V20.3475H289.466V24.1309H289.556C289.642 23.9718 289.766 23.7878 289.929 23.579C290.091 23.3702 290.317 23.1879 290.605 23.0321C290.893 22.873 291.274 22.7935 291.748 22.7935C292.365 22.7935 292.915 22.9493 293.399 23.2608C293.883 23.5724 294.262 24.0215 294.537 24.6081C294.816 25.1948 294.955 25.9007 294.955 26.726C294.955 27.5513 294.818 28.2589 294.542 28.8489C294.267 29.4355 293.89 29.888 293.409 30.2061C292.928 30.521 292.38 30.6784 291.763 30.6784C291.299 30.6784 290.92 30.6006 290.625 30.4448C290.333 30.289 290.104 30.1067 289.939 29.8979C289.773 29.6891 289.645 29.5035 289.556 29.3411H289.432V30.5293H287.98ZM289.437 26.7111C289.437 27.248 289.515 27.7187 289.67 28.123C289.826 28.5274 290.051 28.8439 290.346 29.0726C290.641 29.298 291.003 29.4107 291.43 29.4107C291.874 29.4107 292.246 29.293 292.544 29.0577C292.842 28.8191 293.068 28.4959 293.22 28.0882C293.376 27.6806 293.454 27.2215 293.454 26.7111C293.454 26.2073 293.377 25.7549 293.225 25.3539C293.076 24.9528 292.85 24.6363 292.549 24.4043C292.251 24.1723 291.878 24.0563 291.43 24.0563C290.999 24.0563 290.635 24.1673 290.336 24.3894C290.041 24.6114 289.818 24.9213 289.665 25.3191C289.513 25.7168 289.437 26.1808 289.437 26.7111ZM298.847 30.6983C298.363 30.6983 297.925 30.6088 297.534 30.4299C297.143 30.2476 296.833 29.9841 296.604 29.6394C296.379 29.2947 296.266 28.8721 296.266 28.3716C296.266 27.9408 296.349 27.5861 296.515 27.3077C296.681 27.0293 296.904 26.8089 297.186 26.6465C297.468 26.4841 297.783 26.3614 298.131 26.2786C298.479 26.1957 298.833 26.1328 299.195 26.0897C299.652 26.0366 300.023 25.9935 300.308 25.9604C300.593 25.9239 300.8 25.8659 300.93 25.7864C301.059 25.7069 301.124 25.5776 301.124 25.3986V25.3638C301.124 24.9296 301.001 24.5932 300.756 24.3546C300.514 24.1159 300.152 23.9966 299.672 23.9966C299.171 23.9966 298.777 24.1077 298.489 24.3297C298.204 24.5485 298.006 24.7921 297.897 25.0605L296.5 24.7424C296.666 24.2783 296.908 23.9038 297.226 23.6188C297.547 23.3304 297.917 23.1216 298.335 22.9924C298.752 22.8598 299.191 22.7935 299.652 22.7935C299.957 22.7935 300.28 22.83 300.621 22.9029C300.966 22.9725 301.288 23.1017 301.586 23.2907C301.888 23.4796 302.134 23.7497 302.327 24.101C302.519 24.449 302.615 24.9015 302.615 25.4583V30.5293H301.163V29.4853H301.104C301.008 29.6775 300.863 29.8664 300.671 30.052C300.479 30.2376 300.232 30.3917 299.93 30.5144C299.629 30.637 299.268 30.6983 298.847 30.6983ZM299.17 29.5051C299.581 29.5051 299.932 29.4239 300.224 29.2615C300.519 29.0991 300.742 28.887 300.895 28.6252C301.051 28.36 301.129 28.0766 301.129 27.775V26.7907C301.076 26.8437 300.973 26.8934 300.82 26.9398C300.671 26.9829 300.5 27.021 300.308 27.0542C300.116 27.084 299.929 27.1122 299.746 27.1387C299.564 27.1619 299.412 27.1818 299.289 27.1983C299.001 27.2348 298.737 27.2961 298.499 27.3823C298.263 27.4685 298.074 27.5927 297.932 27.7551C297.793 27.9142 297.723 28.1264 297.723 28.3915C297.723 28.7594 297.859 29.0378 298.131 29.2267C298.402 29.4123 298.749 29.5051 299.17 29.5051ZM310.317 24.7573L308.97 24.9959C308.914 24.8236 308.824 24.6595 308.702 24.5037C308.582 24.348 308.42 24.2203 308.214 24.1209C308.009 24.0215 307.752 23.9718 307.444 23.9718C307.023 23.9718 306.671 24.0662 306.39 24.2551C306.108 24.4408 305.967 24.681 305.967 24.976C305.967 25.2312 306.062 25.4367 306.251 25.5925C306.439 25.7483 306.744 25.8759 307.165 25.9753L308.378 26.2537C309.081 26.4161 309.605 26.6664 309.949 27.0044C310.294 27.3425 310.466 27.7817 310.466 28.3219C310.466 28.7793 310.334 29.187 310.069 29.5449C309.807 29.8996 309.441 30.178 308.97 30.3801C308.503 30.5823 307.961 30.6834 307.344 30.6834C306.489 30.6834 305.791 30.5011 305.251 30.1365C304.711 29.7686 304.38 29.2466 304.257 28.5705L305.694 28.3517C305.783 28.7263 305.967 29.0096 306.246 29.2019C306.524 29.3908 306.887 29.4853 307.334 29.4853C307.822 29.4853 308.211 29.3842 308.503 29.182C308.794 28.9765 308.94 28.7263 308.94 28.4313C308.94 28.1926 308.851 27.9921 308.672 27.8297C308.496 27.6673 308.226 27.5447 307.861 27.4618L306.569 27.1784C305.856 27.016 305.329 26.7575 304.988 26.4029C304.65 26.0482 304.481 25.5991 304.481 25.0556C304.481 24.6048 304.607 24.2104 304.858 23.8723C305.11 23.5343 305.458 23.2708 305.903 23.0819C306.347 22.8896 306.855 22.7935 307.429 22.7935C308.254 22.7935 308.904 22.9725 309.378 23.3304C309.852 23.6851 310.165 24.1607 310.317 24.7573ZM315.392 30.6834C314.64 30.6834 313.992 30.5227 313.448 30.2012C312.908 29.8764 312.49 29.4206 312.195 28.834C311.904 28.244 311.758 27.553 311.758 26.7608C311.758 25.9786 311.904 25.2892 312.195 24.6926C312.49 24.0961 312.901 23.6304 313.428 23.2956C313.959 22.9609 314.578 22.7935 315.288 22.7935C315.719 22.7935 316.136 22.8648 316.54 23.0073C316.945 23.1498 317.308 23.3735 317.629 23.6784C317.951 23.9834 318.204 24.3794 318.39 24.8667C318.576 25.3506 318.668 25.9389 318.668 26.6316V27.1586H312.598V26.0449H317.212C317.212 25.6538 317.132 25.3075 316.973 25.0059C316.814 24.7009 316.59 24.4606 316.302 24.285C316.017 24.1093 315.682 24.0215 315.298 24.0215C314.88 24.0215 314.515 24.1242 314.204 24.3297C313.896 24.5319 313.657 24.7971 313.488 25.1252C313.322 25.45 313.239 25.803 313.239 26.1841V27.0542C313.239 27.5646 313.329 27.9988 313.508 28.3567C313.69 28.7147 313.944 28.9881 314.268 29.177C314.593 29.3626 314.973 29.4554 315.407 29.4554C315.689 29.4554 315.946 29.4157 316.178 29.3361C316.41 29.2533 316.61 29.1306 316.779 28.9682C316.948 28.8058 317.077 28.6053 317.167 28.3667L318.574 28.6202C318.461 29.0345 318.259 29.3974 317.967 29.709C317.679 30.0172 317.316 30.2575 316.879 30.4299C316.444 30.5989 315.949 30.6834 315.392 30.6834Z" fill="#43302B"/>
<mask id="path-6-inside-1_9575_550" fill="white">
<path d="M0 49.127H342.926V80.7241H0V49.127Z"/>
</mask>
<path d="M0 49.127H342.926V80.7241H0V49.127Z" fill="#FDFCFC"/>
<path d="M342.926 79.7241H0V81.7241H342.926V79.7241Z" fill="#EADDD7" mask="url(#path-6-inside-1_9575_550)"/>
<path d="M18.4856 61.6724L18.5652 59.4849L16.7157 60.6582L16.2385 59.823L18.1873 58.8088L16.2385 57.7946L16.7157 56.9593L18.5652 58.1326L18.4856 55.9451H19.4402L19.3606 58.1326L21.21 56.9593L21.6873 57.7946L19.7385 58.8088L21.6873 59.823L21.21 60.6582L19.3606 59.4849L19.4402 61.6724H18.4856ZM24.9288 55.9451V66.127H23.6958V55.9451H24.9288ZM30.6424 58.4906V59.4849H26.5259V58.4906H30.6424ZM27.7589 66.127V57.4366C27.7589 56.9991 27.8616 56.6345 28.0671 56.3429C28.2726 56.0512 28.5394 55.8324 28.8675 55.6866C29.1957 55.5408 29.542 55.4679 29.9066 55.4679C30.195 55.4679 30.4303 55.4911 30.6126 55.5375C30.7949 55.5839 30.9308 55.627 31.0202 55.6667L30.6822 56.6809C30.6225 56.661 30.5397 56.6362 30.4336 56.6064C30.3308 56.5765 30.195 56.5616 30.0259 56.5616C29.6381 56.5616 29.3581 56.6594 29.1857 56.8549C29.0167 57.0505 28.9322 57.3372 28.9322 57.715V66.127H27.7589Z" fill="#43302B"/>
<rect width="79" height="16" transform="translate(35.4629 53.127)" fill="#CEE7FE"/>
<path d="M42.2669 66.127L39.9402 58.4906H41.1731L42.8237 64.3372H42.9032L44.5339 58.4906H45.7868L47.3975 64.3173H47.4771L49.1277 58.4906H50.3606L48.0339 66.127H46.8805L45.21 60.2605H45.0907L43.4203 66.127H42.2669ZM54.7543 66.286C54.0649 66.286 53.46 66.122 52.9396 65.7939C52.4226 65.4657 52.0182 65.0067 51.7266 64.4167C51.4382 63.8268 51.294 63.1374 51.294 62.3485C51.294 61.5531 51.4382 60.8587 51.7266 60.2654C52.0182 59.6722 52.4226 59.2115 52.9396 58.8833C53.46 58.5552 54.0649 58.3912 54.7543 58.3912C55.4437 58.3912 56.0469 58.5552 56.5639 58.8833C57.0843 59.2115 57.4886 59.6722 57.777 60.2654C58.0687 60.8587 58.2145 61.5531 58.2145 62.3485C58.2145 63.1374 58.0687 63.8268 57.777 64.4167C57.4886 65.0067 57.0843 65.4657 56.5639 65.7939C56.0469 66.122 55.4437 66.286 54.7543 66.286ZM54.7543 65.2321C55.2779 65.2321 55.7088 65.0978 56.0469 64.8294C56.3849 64.5609 56.6352 64.2079 56.7976 63.7704C56.96 63.3329 57.0412 62.859 57.0412 62.3485C57.0412 61.8381 56.96 61.3625 56.7976 60.9217C56.6352 60.4809 56.3849 60.1246 56.0469 59.8528C55.7088 59.581 55.2779 59.4451 54.7543 59.4451C54.2306 59.4451 53.7997 59.581 53.4616 59.8528C53.1236 60.1246 52.8733 60.4809 52.7109 60.9217C52.5485 61.3625 52.4673 61.8381 52.4673 62.3485C52.4673 62.859 52.5485 63.3329 52.7109 63.7704C52.8733 64.2079 53.1236 64.5609 53.4616 64.8294C53.7997 65.0978 54.2306 65.2321 54.7543 65.2321ZM60.0055 66.127V58.4906H61.139V59.644H61.2186C61.3578 59.2662 61.6097 58.9596 61.9743 58.7243C62.3388 58.4889 62.7498 58.3713 63.2072 58.3713C63.2934 58.3713 63.4011 58.3729 63.5304 58.3762C63.6596 58.3796 63.7574 58.3845 63.8237 58.3912V59.5843C63.7839 59.5744 63.6928 59.5595 63.5502 59.5396C63.411 59.5164 63.2636 59.5048 63.1078 59.5048C62.7366 59.5048 62.4051 59.5827 62.1135 59.7385C61.8251 59.8909 61.5964 60.103 61.4274 60.3748C61.2617 60.6433 61.1788 60.9499 61.1788 61.2946V66.127H60.0055ZM66.3082 63.3429L66.2884 61.8912H66.527L69.8679 58.4906H71.3196L67.7599 62.09H67.6605L66.3082 63.3429ZM65.2145 66.127V55.9451H66.3878V66.127H65.2145ZM70.0668 66.127L67.0838 62.3485L67.919 61.5332L71.5582 66.127H70.0668ZM78.0996 66.127V67.2207H71.736V66.127H78.0996ZM82.0433 66.286C81.407 66.286 80.8452 66.1253 80.358 65.8038C79.8707 65.479 79.4896 65.0216 79.2145 64.4316C78.9394 63.8384 78.8018 63.1374 78.8018 62.3287C78.8018 61.5266 78.9394 60.8306 79.2145 60.2406C79.4896 59.6506 79.8724 59.1949 80.3629 58.8734C80.8535 58.5519 81.4202 58.3912 82.0632 58.3912C82.5604 58.3912 82.9531 58.474 83.2415 58.6397C83.5331 58.8021 83.7552 58.9877 83.9077 59.1966C84.0634 59.402 84.1844 59.5711 84.2706 59.7037H84.37V55.9451H85.5433V66.127H84.4098V64.9537H84.2706C84.1844 65.0929 84.0618 65.2685 83.9027 65.4806C83.7436 65.6895 83.5166 65.8767 83.2216 66.0424C82.9266 66.2048 82.5339 66.286 82.0433 66.286ZM82.2024 65.2321C82.6731 65.2321 83.0708 65.1094 83.3956 64.8642C83.7204 64.6156 83.9673 64.2725 84.1364 63.835C84.3054 63.3942 84.3899 62.8855 84.3899 62.3088C84.3899 61.7387 84.3071 61.2399 84.1413 60.8123C83.9756 60.3815 83.7304 60.0467 83.4055 59.8081C83.0807 59.5661 82.6797 59.4451 82.2024 59.4451C81.7053 59.4451 81.291 59.5727 80.9595 59.8279C80.6314 60.0798 80.3845 60.4229 80.2188 60.8571C80.0563 61.2879 79.9751 61.7718 79.9751 62.3088C79.9751 62.8523 80.058 63.3462 80.2237 63.7903C80.3928 64.2311 80.6413 64.5824 80.9695 64.8443C81.3009 65.1028 81.7119 65.2321 82.2024 65.2321ZM90.1023 66.3059C89.6184 66.3059 89.1792 66.2148 88.7848 66.0325C88.3904 65.8469 88.0772 65.5801 87.8452 65.2321C87.6132 64.8807 87.4972 64.4565 87.4972 63.9593C87.4972 63.5218 87.5833 63.1672 87.7557 62.8954C87.928 62.6203 88.1584 62.4049 88.4467 62.2491C88.7351 62.0933 89.0533 61.9773 89.4013 61.9011C89.7526 61.8216 90.1056 61.7586 90.4602 61.7122C90.9242 61.6525 91.3004 61.6078 91.5888 61.5779C91.8804 61.5448 92.0926 61.4901 92.2251 61.4139C92.361 61.3377 92.429 61.2051 92.429 61.0162V60.9764C92.429 60.4859 92.2947 60.1047 92.0263 59.8329C91.7611 59.5611 91.3584 59.4252 90.8182 59.4252C90.258 59.4252 89.8189 59.5479 89.5007 59.7931C89.1825 60.0384 88.9588 60.3002 88.8295 60.5787L87.7159 60.1809C87.9148 59.7169 88.1799 59.3556 88.5114 59.0971C88.8461 58.8353 89.2107 58.653 89.6051 58.5502C90.0028 58.4442 90.3939 58.3912 90.7784 58.3912C91.0237 58.3912 91.3054 58.421 91.6236 58.4806C91.9451 58.537 92.255 58.6547 92.5533 58.8336C92.8549 59.0126 93.1051 59.2827 93.304 59.644C93.5028 60.0053 93.6023 60.4892 93.6023 61.0957V66.127H92.429V65.0929H92.3693C92.2898 65.2586 92.1572 65.4359 91.9716 65.6248C91.786 65.8137 91.5391 65.9745 91.2308 66.1071C90.9226 66.2396 90.5464 66.3059 90.1023 66.3059ZM90.2812 65.252C90.7453 65.252 91.1364 65.1608 91.4545 64.9785C91.776 64.7962 92.018 64.5609 92.1804 64.2725C92.3461 63.9842 92.429 63.6809 92.429 63.3627V62.2889C92.3793 62.3485 92.2699 62.4032 92.1009 62.4529C91.9351 62.4993 91.7429 62.5408 91.5241 62.5772C91.3087 62.6104 91.0982 62.6402 90.8928 62.6667C90.6906 62.6899 90.5265 62.7098 90.4006 62.7264C90.0956 62.7662 89.8106 62.8308 89.5455 62.9203C89.2836 63.0065 89.0715 63.1374 88.9091 63.313C88.75 63.4854 88.6705 63.7207 88.6705 64.019C88.6705 64.4267 88.8213 64.7349 89.1229 64.9437C89.4278 65.1492 89.8139 65.252 90.2812 65.252ZM96.226 68.9906C96.0272 68.9906 95.8498 68.974 95.6941 68.9409C95.5383 68.911 95.4306 68.8812 95.3709 68.8514L95.6692 67.8173C95.9542 67.8902 96.2061 67.9167 96.4249 67.8968C96.6436 67.877 96.8375 67.7792 97.0066 67.6035C97.1789 67.4312 97.3364 67.1511 97.4789 66.7633L97.6976 66.1667L94.8738 58.4906H96.1465L98.2544 64.5758H98.334L100.442 58.4906H101.715L98.4732 67.2406C98.3274 67.635 98.1467 67.9615 97.9313 68.22C97.7159 68.4818 97.4656 68.6757 97.1806 68.8017C96.8989 68.9276 96.5807 68.9906 96.226 68.9906ZM108.672 60.2008L107.618 60.4991C107.552 60.3234 107.454 60.1528 107.325 59.987C107.199 59.818 107.027 59.6788 106.808 59.5694C106.589 59.46 106.309 59.4054 105.968 59.4054C105.501 59.4054 105.111 59.5131 104.8 59.7285C104.491 59.9406 104.337 60.2108 104.337 60.5389C104.337 60.8306 104.443 61.0609 104.655 61.2299C104.867 61.399 105.199 61.5398 105.65 61.6525L106.783 61.9309C107.466 62.0966 107.975 62.3502 108.309 62.6916C108.644 63.0297 108.812 63.4655 108.812 63.9991C108.812 64.4366 108.686 64.8277 108.434 65.1724C108.185 65.5171 107.837 65.7889 107.39 65.9877C106.942 66.1866 106.422 66.286 105.829 66.286C105.05 66.286 104.405 66.117 103.895 65.7789C103.384 65.4409 103.061 64.947 102.925 64.2974L104.039 64.019C104.145 64.43 104.345 64.7382 104.64 64.9437C104.939 65.1492 105.328 65.252 105.809 65.252C106.356 65.252 106.79 65.1359 107.111 64.9039C107.436 64.6686 107.599 64.3869 107.599 64.0588C107.599 63.7936 107.506 63.5716 107.32 63.3926C107.135 63.2103 106.849 63.0744 106.465 62.9849L105.192 62.6866C104.493 62.5209 103.979 62.264 103.651 61.916C103.326 61.5647 103.164 61.1255 103.164 60.5985C103.164 60.1677 103.285 59.7865 103.527 59.4551C103.772 59.1236 104.105 58.8635 104.526 58.6745C104.95 58.4856 105.431 58.3912 105.968 58.3912C106.724 58.3912 107.317 58.5569 107.748 58.8883C108.182 59.2198 108.49 59.6573 108.672 60.2008Z" fill="#006ADC"/>
<path d="M122.639 66.286C121.923 66.286 121.307 66.117 120.79 65.7789C120.273 65.4409 119.875 64.9752 119.596 64.3819C119.318 63.7886 119.179 63.1109 119.179 62.3485C119.179 61.573 119.321 60.8886 119.606 60.2953C119.895 59.6987 120.296 59.233 120.809 58.8983C121.327 58.5602 121.93 58.3912 122.619 58.3912C123.156 58.3912 123.64 58.4906 124.071 58.6895C124.502 58.8883 124.855 59.1667 125.13 59.5247C125.405 59.8826 125.576 60.3002 125.642 60.7775H124.469C124.379 60.4295 124.18 60.1213 123.872 59.8528C123.567 59.581 123.156 59.4451 122.639 59.4451C122.182 59.4451 121.781 59.5645 121.436 59.8031C121.095 60.0384 120.828 60.3715 120.635 60.8024C120.447 61.2299 120.352 61.7321 120.352 62.3088C120.352 62.8987 120.445 63.4125 120.631 63.85C120.819 64.2875 121.085 64.6272 121.426 64.8691C121.771 65.1111 122.175 65.2321 122.639 65.2321C122.944 65.2321 123.221 65.179 123.469 65.073C123.718 64.9669 123.928 64.8145 124.101 64.6156C124.273 64.4167 124.396 64.1781 124.469 63.8997H125.642C125.576 64.3504 125.412 64.7565 125.15 65.1177C124.891 65.4757 124.548 65.7607 124.121 65.9728C123.696 66.1816 123.202 66.286 122.639 66.286ZM130.459 66.286C129.77 66.286 129.165 66.122 128.645 65.7939C128.128 65.4657 127.723 65.0067 127.432 64.4167C127.143 63.8268 126.999 63.1374 126.999 62.3485C126.999 61.5531 127.143 60.8587 127.432 60.2654C127.723 59.6722 128.128 59.2115 128.645 58.8833C129.165 58.5552 129.77 58.3912 130.459 58.3912C131.149 58.3912 131.752 58.5552 132.269 58.8833C132.789 59.2115 133.194 59.6722 133.482 60.2654C133.774 60.8587 133.92 61.5531 133.92 62.3485C133.92 63.1374 133.774 63.8268 133.482 64.4167C133.194 65.0067 132.789 65.4657 132.269 65.7939C131.752 66.122 131.149 66.286 130.459 66.286ZM130.459 65.2321C130.983 65.2321 131.414 65.0978 131.752 64.8294C132.09 64.5609 132.34 64.2079 132.503 63.7704C132.665 63.3329 132.746 62.859 132.746 62.3485C132.746 61.8381 132.665 61.3625 132.503 60.9217C132.34 60.4809 132.09 60.1246 131.752 59.8528C131.414 59.581 130.983 59.4451 130.459 59.4451C129.936 59.4451 129.505 59.581 129.167 59.8528C128.829 60.1246 128.578 60.4809 128.416 60.9217C128.254 61.3625 128.172 61.8381 128.172 62.3485C128.172 62.859 128.254 63.3329 128.416 63.7704C128.578 64.2079 128.829 64.5609 129.167 64.8294C129.505 65.0978 129.936 65.2321 130.459 65.2321ZM136.884 61.5332V66.127H135.711V58.4906H136.844V59.6838H136.944C137.123 59.296 137.394 58.9844 137.759 58.7491C138.123 58.5105 138.594 58.3912 139.171 58.3912C139.688 58.3912 140.14 58.4972 140.528 58.7093C140.916 58.9181 141.217 59.2363 141.433 59.6639C141.648 60.0881 141.756 60.6251 141.756 61.2747V66.127H140.583V61.3542C140.583 60.7543 140.427 60.287 140.115 59.9522C139.804 59.6142 139.376 59.4451 138.833 59.4451C138.458 59.4451 138.123 59.5263 137.828 59.6887C137.537 59.8511 137.306 60.0881 137.137 60.3997C136.968 60.7112 136.884 61.0891 136.884 61.5332ZM147.221 58.4906V59.4849H143.264V58.4906H147.221ZM144.417 56.661H145.59V63.9395C145.59 64.2709 145.638 64.5195 145.735 64.6852C145.834 64.8476 145.96 64.957 146.112 65.0133C146.268 65.0663 146.432 65.0929 146.605 65.0929C146.734 65.0929 146.84 65.0862 146.923 65.073C147.006 65.0564 147.072 65.0431 147.122 65.0332L147.36 66.0872C147.281 66.117 147.17 66.1468 147.027 66.1767C146.885 66.2098 146.704 66.2264 146.485 66.2264C146.154 66.2264 145.829 66.1551 145.511 66.0126C145.196 65.8701 144.934 65.653 144.725 65.3613C144.52 65.0697 144.417 64.7018 144.417 64.2576V56.661ZM151.233 66.3059C150.749 66.3059 150.31 66.2148 149.916 66.0325C149.521 65.8469 149.208 65.5801 148.976 65.2321C148.744 64.8807 148.628 64.4565 148.628 63.9593C148.628 63.5218 148.714 63.1672 148.887 62.8954C149.059 62.6203 149.289 62.4049 149.578 62.2491C149.866 62.0933 150.184 61.9773 150.532 61.9011C150.883 61.8216 151.236 61.7586 151.591 61.7122C152.055 61.6525 152.431 61.6078 152.72 61.5779C153.011 61.5448 153.223 61.4901 153.356 61.4139C153.492 61.3377 153.56 61.2051 153.56 61.0162V60.9764C153.56 60.4859 153.426 60.1047 153.157 59.8329C152.892 59.5611 152.489 59.4252 151.949 59.4252C151.389 59.4252 150.95 59.5479 150.632 59.7931C150.313 60.0384 150.09 60.3002 149.96 60.5787L148.847 60.1809C149.046 59.7169 149.311 59.3556 149.642 59.0971C149.977 58.8353 150.342 58.653 150.736 58.5502C151.134 58.4442 151.525 58.3912 151.909 58.3912C152.155 58.3912 152.436 58.421 152.754 58.4806C153.076 58.537 153.386 58.6547 153.684 58.8336C153.986 59.0126 154.236 59.2827 154.435 59.644C154.634 60.0053 154.733 60.4892 154.733 61.0957V66.127H153.56V65.0929H153.5C153.421 65.2586 153.288 65.4359 153.102 65.6248C152.917 65.8137 152.67 65.9745 152.362 66.1071C152.053 66.2396 151.677 66.3059 151.233 66.3059ZM151.412 65.252C151.876 65.252 152.267 65.1608 152.585 64.9785C152.907 64.7962 153.149 64.5609 153.311 64.2725C153.477 63.9842 153.56 63.6809 153.56 63.3627V62.2889C153.51 62.3485 153.401 62.4032 153.232 62.4529C153.066 62.4993 152.874 62.5408 152.655 62.5772C152.44 62.6104 152.229 62.6402 152.024 62.6667C151.821 62.6899 151.657 62.7098 151.531 62.7264C151.227 62.7662 150.941 62.8308 150.676 62.9203C150.414 63.0065 150.202 63.1374 150.04 63.313C149.881 63.4854 149.801 63.7207 149.801 64.019C149.801 64.4267 149.952 64.7349 150.254 64.9437C150.559 65.1492 150.945 65.252 151.412 65.252ZM156.875 66.127V58.4906H158.048V66.127H156.875ZM157.471 57.2179C157.243 57.2179 157.045 57.14 156.88 56.9842C156.717 56.8284 156.636 56.6412 156.636 56.4224C156.636 56.2037 156.717 56.0164 156.88 55.8606C157.045 55.7048 157.243 55.627 157.471 55.627C157.7 55.627 157.895 55.7048 158.058 55.8606C158.224 56.0164 158.306 56.2037 158.306 56.4224C158.306 56.6412 158.224 56.8284 158.058 56.9842C157.895 57.14 157.7 57.2179 157.471 57.2179ZM161.37 61.5332V66.127H160.197V58.4906H161.33V59.6838H161.43C161.609 59.296 161.881 58.9844 162.245 58.7491C162.61 58.5105 163.08 58.3912 163.657 58.3912C164.174 58.3912 164.627 58.4972 165.014 58.7093C165.402 58.9181 165.704 59.2363 165.919 59.6639C166.135 60.0881 166.242 60.6251 166.242 61.2747V66.127H165.069V61.3542C165.069 60.7543 164.913 60.287 164.602 59.9522C164.29 59.6142 163.863 59.4451 163.319 59.4451C162.945 59.4451 162.61 59.5263 162.315 59.6887C162.023 59.8511 161.793 60.0881 161.624 60.3997C161.455 60.7112 161.37 61.0891 161.37 61.5332ZM173.795 60.2008L172.741 60.4991C172.675 60.3234 172.577 60.1528 172.448 59.987C172.322 59.818 172.15 59.6788 171.931 59.5694C171.712 59.46 171.432 59.4054 171.091 59.4054C170.624 59.4054 170.234 59.5131 169.923 59.7285C169.614 59.9406 169.46 60.2108 169.46 60.5389C169.46 60.8306 169.566 61.0609 169.778 61.2299C169.991 61.399 170.322 61.5398 170.773 61.6525L171.906 61.9309C172.589 62.0966 173.098 62.3502 173.433 62.6916C173.767 63.0297 173.935 63.4655 173.935 63.9991C173.935 64.4366 173.809 64.8277 173.557 65.1724C173.308 65.5171 172.96 65.7889 172.513 65.9877C172.065 66.1866 171.545 66.286 170.952 66.286C170.173 66.286 169.528 66.117 169.018 65.7789C168.507 65.4409 168.184 64.947 168.048 64.2974L169.162 64.019C169.268 64.43 169.469 64.7382 169.763 64.9437C170.062 65.1492 170.451 65.252 170.932 65.252C171.479 65.252 171.913 65.1359 172.234 64.9039C172.559 64.6686 172.722 64.3869 172.722 64.0588C172.722 63.7936 172.629 63.5716 172.443 63.3926C172.258 63.2103 171.973 63.0744 171.588 62.9849L170.315 62.6866C169.616 62.5209 169.102 62.264 168.774 61.916C168.449 61.5647 168.287 61.1255 168.287 60.5985C168.287 60.1677 168.408 59.7865 168.65 59.4551C168.895 59.1236 169.228 58.8635 169.649 58.6745C170.073 58.4856 170.554 58.3912 171.091 58.3912C171.847 58.3912 172.44 58.5569 172.871 58.8883C173.305 59.2198 173.613 59.6573 173.795 60.2008Z" fill="#43302B"/>
<rect width="68" height="16" transform="translate(179.463 53.127)" fill="#C7EBE5"/>
<path d="M190.264 58.4906C190.204 57.9868 189.962 57.5957 189.538 57.3173C189.114 57.0389 188.594 56.8997 187.977 56.8997C187.526 56.8997 187.132 56.9726 186.794 57.1184C186.459 57.2643 186.197 57.4648 186.008 57.72C185.823 57.9752 185.73 58.2652 185.73 58.59C185.73 58.8618 185.795 59.0955 185.924 59.291C186.056 59.4833 186.225 59.644 186.431 59.7733C186.636 59.8992 186.852 60.0036 187.077 60.0865C187.303 60.166 187.51 60.2306 187.699 60.2804L188.733 60.5588C188.998 60.6284 189.293 60.7245 189.618 60.8471C189.946 60.9698 190.259 61.1371 190.557 61.3493C190.859 61.5581 191.108 61.8265 191.303 62.1547C191.499 62.4828 191.596 62.8855 191.596 63.3627C191.596 63.9129 191.452 64.4101 191.164 64.8542C190.879 65.2984 190.461 65.6513 189.911 65.9132C189.364 66.175 188.7 66.3059 187.917 66.3059C187.188 66.3059 186.557 66.1883 186.023 65.9529C185.493 65.7176 185.075 65.3895 184.77 64.9686C184.469 64.5476 184.298 64.0588 184.258 63.502H185.531C185.564 63.8864 185.693 64.2046 185.919 64.4565C186.148 64.7051 186.436 64.8907 186.784 65.0133C187.135 65.1326 187.513 65.1923 187.917 65.1923C188.388 65.1923 188.811 65.1161 189.185 64.9636C189.56 64.8078 189.856 64.5924 190.075 64.3173C190.294 64.0389 190.403 63.7141 190.403 63.3429C190.403 63.0048 190.309 62.7297 190.12 62.5176C189.931 62.3055 189.682 62.1331 189.374 62.0005C189.066 61.868 188.733 61.752 188.375 61.6525L187.122 61.2946C186.327 61.0659 185.697 60.7394 185.233 60.3152C184.769 59.8909 184.537 59.3358 184.537 58.6497C184.537 58.0796 184.691 57.5824 184.999 57.1582C185.311 56.7306 185.728 56.3992 186.252 56.1639C186.779 55.9252 187.367 55.8059 188.017 55.8059C188.673 55.8059 189.256 55.9236 189.767 56.1589C190.277 56.3909 190.682 56.7091 190.98 57.1135C191.282 57.5178 191.441 57.9769 191.457 58.4906H190.264ZM195.712 66.3059C195.228 66.3059 194.789 66.2148 194.394 66.0325C194 65.8469 193.687 65.5801 193.455 65.2321C193.223 64.8807 193.107 64.4565 193.107 63.9593C193.107 63.5218 193.193 63.1672 193.365 62.8954C193.537 62.6203 193.768 62.4049 194.056 62.2491C194.344 62.0933 194.663 61.9773 195.011 61.9011C195.362 61.8216 195.715 61.7586 196.07 61.7122C196.534 61.6525 196.91 61.6078 197.198 61.5779C197.49 61.5448 197.702 61.4901 197.835 61.4139C197.97 61.3377 198.038 61.2051 198.038 61.0162V60.9764C198.038 60.4859 197.904 60.1047 197.636 59.8329C197.371 59.5611 196.968 59.4252 196.428 59.4252C195.867 59.4252 195.428 59.5479 195.11 59.7931C194.792 60.0384 194.568 60.3002 194.439 60.5787L193.325 60.1809C193.524 59.7169 193.789 59.3556 194.121 59.0971C194.455 58.8353 194.82 58.653 195.214 58.5502C195.612 58.4442 196.003 58.3912 196.388 58.3912C196.633 58.3912 196.915 58.421 197.233 58.4806C197.554 58.537 197.864 58.6547 198.163 58.8336C198.464 59.0126 198.714 59.2827 198.913 59.644C199.112 60.0053 199.212 60.4892 199.212 61.0957V66.127H198.038V65.0929H197.979C197.899 65.2586 197.767 65.4359 197.581 65.6248C197.395 65.8137 197.148 65.9745 196.84 66.1071C196.532 66.2396 196.156 66.3059 195.712 66.3059ZM195.891 65.252C196.355 65.252 196.746 65.1608 197.064 64.9785C197.385 64.7962 197.627 64.5609 197.79 64.2725C197.955 63.9842 198.038 63.6809 198.038 63.3627V62.2889C197.989 62.3485 197.879 62.4032 197.71 62.4529C197.545 62.4993 197.352 62.5408 197.134 62.5772C196.918 62.6104 196.708 62.6402 196.502 62.6667C196.3 62.6899 196.136 62.7098 196.01 62.7264C195.705 62.7662 195.42 62.8308 195.155 62.9203C194.893 63.0065 194.681 63.1374 194.518 63.313C194.359 63.4854 194.28 63.7207 194.28 64.019C194.28 64.4267 194.431 64.7349 194.732 64.9437C195.037 65.1492 195.423 65.252 195.891 65.252ZM204.674 58.4906V59.4849H200.717V58.4906H204.674ZM201.87 56.661H203.044V63.9395C203.044 64.2709 203.092 64.5195 203.188 64.6852C203.287 64.8476 203.413 64.957 203.566 65.0133C203.721 65.0663 203.885 65.0929 204.058 65.0929C204.187 65.0929 204.293 65.0862 204.376 65.073C204.459 65.0564 204.525 65.0431 204.575 65.0332L204.813 66.0872C204.734 66.117 204.623 66.1468 204.48 66.1767C204.338 66.2098 204.157 66.2264 203.938 66.2264C203.607 66.2264 203.282 66.1551 202.964 66.0126C202.649 65.8701 202.387 65.653 202.178 65.3613C201.973 65.0697 201.87 64.7018 201.87 64.2576V56.661ZM211.252 63.0048V58.4906H212.425V66.127H211.252V64.8343H211.172C210.993 65.2221 210.715 65.5519 210.337 65.8237C209.959 66.0922 209.482 66.2264 208.905 66.2264C208.428 66.2264 208.003 66.122 207.632 65.9132C207.261 65.7011 206.969 65.3829 206.757 64.9586C206.545 64.5311 206.439 63.9925 206.439 63.3429V58.4906H207.612V63.2633C207.612 63.8201 207.768 64.2643 208.08 64.5957C208.395 64.9271 208.796 65.0929 209.283 65.0929C209.575 65.0929 209.871 65.0183 210.173 64.8691C210.478 64.72 210.733 64.4913 210.938 64.1831C211.147 63.8748 211.252 63.4821 211.252 63.0048ZM214.574 66.127V58.4906H215.707V59.644H215.787C215.926 59.2662 216.178 58.9596 216.543 58.7243C216.907 58.4889 217.318 58.3713 217.776 58.3713C217.862 58.3713 217.969 58.3729 218.099 58.3762C218.228 58.3796 218.326 58.3845 218.392 58.3912V59.5843C218.352 59.5744 218.261 59.5595 218.119 59.5396C217.979 59.5164 217.832 59.5048 217.676 59.5048C217.305 59.5048 216.973 59.5827 216.682 59.7385C216.393 59.8909 216.165 60.103 215.996 60.3748C215.83 60.6433 215.747 60.9499 215.747 61.2946V66.127H214.574ZM222.434 66.286C221.798 66.286 221.236 66.1253 220.749 65.8038C220.261 65.479 219.88 65.0216 219.605 64.4316C219.33 63.8384 219.192 63.1374 219.192 62.3287C219.192 61.5266 219.33 60.8306 219.605 60.2406C219.88 59.6506 220.263 59.1949 220.754 58.8734C221.244 58.5519 221.811 58.3912 222.454 58.3912C222.951 58.3912 223.344 58.474 223.632 58.6397C223.924 58.8021 224.146 58.9877 224.298 59.1966C224.454 59.402 224.575 59.5711 224.661 59.7037H224.761V55.9451H225.934V66.127H224.8V64.9537H224.661C224.575 65.0929 224.452 65.2685 224.293 65.4806C224.134 65.6895 223.907 65.8767 223.612 66.0424C223.317 66.2048 222.924 66.286 222.434 66.286ZM222.593 65.2321C223.064 65.2321 223.461 65.1094 223.786 64.8642C224.111 64.6156 224.358 64.2725 224.527 63.835C224.696 63.3942 224.781 62.8855 224.781 62.3088C224.781 61.7387 224.698 61.2399 224.532 60.8123C224.366 60.3815 224.121 60.0467 223.796 59.8081C223.471 59.5661 223.07 59.4451 222.593 59.4451C222.096 59.4451 221.682 59.5727 221.35 59.8279C221.022 60.0798 220.775 60.4229 220.609 60.8571C220.447 61.2879 220.366 61.7718 220.366 62.3088C220.366 62.8523 220.449 63.3462 220.614 63.7903C220.783 64.2311 221.032 64.5824 221.36 64.8443C221.692 65.1028 222.103 65.2321 222.593 65.2321ZM230.493 66.3059C230.009 66.3059 229.57 66.2148 229.175 66.0325C228.781 65.8469 228.468 65.5801 228.236 65.2321C228.004 64.8807 227.888 64.4565 227.888 63.9593C227.888 63.5218 227.974 63.1672 228.146 62.8954C228.319 62.6203 228.549 62.4049 228.837 62.2491C229.126 62.0933 229.444 61.9773 229.792 61.9011C230.143 61.8216 230.496 61.7586 230.851 61.7122C231.315 61.6525 231.691 61.6078 231.979 61.5779C232.271 61.5448 232.483 61.4901 232.616 61.4139C232.752 61.3377 232.82 61.2051 232.82 61.0162V60.9764C232.82 60.4859 232.685 60.1047 232.417 59.8329C232.152 59.5611 231.749 59.4252 231.209 59.4252C230.649 59.4252 230.21 59.5479 229.891 59.7931C229.573 60.0384 229.349 60.3002 229.22 60.5787L228.107 60.1809C228.305 59.7169 228.571 59.3556 228.902 59.0971C229.237 58.8353 229.601 58.653 229.996 58.5502C230.393 58.4442 230.785 58.3912 231.169 58.3912C231.414 58.3912 231.696 58.421 232.014 58.4806C232.336 58.537 232.646 58.6547 232.944 58.8336C233.246 59.0126 233.496 59.2827 233.695 59.644C233.893 60.0053 233.993 60.4892 233.993 61.0957V66.127H232.82V65.0929H232.76C232.68 65.2586 232.548 65.4359 232.362 65.6248C232.177 65.8137 231.93 65.9745 231.621 66.1071C231.313 66.2396 230.937 66.3059 230.493 66.3059ZM230.672 65.252C231.136 65.252 231.527 65.1608 231.845 64.9785C232.167 64.7962 232.409 64.5609 232.571 64.2725C232.737 63.9842 232.82 63.6809 232.82 63.3627V62.2889C232.77 62.3485 232.661 62.4032 232.491 62.4529C232.326 62.4993 232.134 62.5408 231.915 62.5772C231.699 62.6104 231.489 62.6402 231.283 62.6667C231.081 62.6899 230.917 62.7098 230.791 62.7264C230.486 62.7662 230.201 62.8308 229.936 62.9203C229.674 63.0065 229.462 63.1374 229.3 63.313C229.141 63.4854 229.061 63.7207 229.061 64.019C229.061 64.4267 229.212 64.7349 229.513 64.9437C229.818 65.1492 230.205 65.252 230.672 65.252ZM236.617 68.9906C236.418 68.9906 236.24 68.974 236.085 68.9409C235.929 68.911 235.821 68.8812 235.762 68.8514L236.06 67.8173C236.345 67.8902 236.597 67.9167 236.816 67.8968C237.034 67.877 237.228 67.7792 237.397 67.6035C237.57 67.4312 237.727 67.1511 237.869 66.7633L238.088 66.1667L235.264 58.4906H236.537L238.645 64.5758H238.725L240.833 58.4906H242.105L238.864 67.2406C238.718 67.635 238.537 67.9615 238.322 68.22C238.106 68.4818 237.856 68.6757 237.571 68.8017C237.289 68.9276 236.971 68.9906 236.617 68.9906Z" fill="#067A6F"/>
<path d="M255.639 66.286C254.95 66.286 254.345 66.122 253.824 65.7939C253.307 65.4657 252.903 65.0067 252.611 64.4167C252.323 63.8268 252.179 63.1374 252.179 62.3485C252.179 61.5531 252.323 60.8587 252.611 60.2654C252.903 59.6722 253.307 59.2115 253.824 58.8833C254.345 58.5552 254.95 58.3912 255.639 58.3912C256.328 58.3912 256.932 58.5552 257.449 58.8833C257.969 59.2115 258.373 59.6722 258.662 60.2654C258.953 60.8587 259.099 61.5531 259.099 62.3485C259.099 63.1374 258.953 63.8268 258.662 64.4167C258.373 65.0067 257.969 65.4657 257.449 65.7939C256.932 66.122 256.328 66.286 255.639 66.286ZM255.639 65.2321C256.163 65.2321 256.594 65.0978 256.932 64.8294C257.27 64.5609 257.52 64.2079 257.682 63.7704C257.845 63.3329 257.926 62.859 257.926 62.3485C257.926 61.8381 257.845 61.3625 257.682 60.9217C257.52 60.4809 257.27 60.1246 256.932 59.8528C256.594 59.581 256.163 59.4451 255.639 59.4451C255.115 59.4451 254.684 59.581 254.346 59.8528C254.008 60.1246 253.758 60.4809 253.596 60.9217C253.433 61.3625 253.352 61.8381 253.352 62.3485C253.352 62.859 253.433 63.3329 253.596 63.7704C253.758 64.2079 254.008 64.5609 254.346 64.8294C254.684 65.0978 255.115 65.2321 255.639 65.2321ZM260.89 66.127V58.4906H262.024V59.644H262.103C262.243 59.2662 262.494 58.9596 262.859 58.7243C263.224 58.4889 263.635 58.3713 264.092 58.3713C264.178 58.3713 264.286 58.3729 264.415 58.3762C264.544 58.3796 264.642 58.3845 264.708 58.3912V59.5843C264.669 59.5744 264.578 59.5595 264.435 59.5396C264.296 59.5164 264.148 59.5048 263.993 59.5048C263.621 59.5048 263.29 59.5827 262.998 59.7385C262.71 59.8909 262.481 60.103 262.312 60.3748C262.146 60.6433 262.064 60.9499 262.064 61.2946V66.127H260.89Z" fill="#43302B"/>
<rect width="58" height="16" transform="translate(269.463 53.127)" fill="#C7EBE5"/>
<path d="M280.264 58.4906C280.204 57.9868 279.962 57.5957 279.538 57.3173C279.114 57.0389 278.594 56.8997 277.977 56.8997C277.526 56.8997 277.132 56.9726 276.794 57.1184C276.459 57.2643 276.197 57.4648 276.008 57.72C275.823 57.9752 275.73 58.2652 275.73 58.59C275.73 58.8618 275.795 59.0955 275.924 59.291C276.056 59.4833 276.225 59.644 276.431 59.7733C276.636 59.8992 276.852 60.0036 277.077 60.0865C277.303 60.166 277.51 60.2306 277.699 60.2804L278.733 60.5588C278.998 60.6284 279.293 60.7245 279.618 60.8471C279.946 60.9698 280.259 61.1371 280.557 61.3493C280.859 61.5581 281.108 61.8265 281.303 62.1547C281.499 62.4828 281.596 62.8855 281.596 63.3627C281.596 63.9129 281.452 64.4101 281.164 64.8542C280.879 65.2984 280.461 65.6513 279.911 65.9132C279.364 66.175 278.7 66.3059 277.917 66.3059C277.188 66.3059 276.557 66.1883 276.023 65.9529C275.493 65.7176 275.075 65.3895 274.77 64.9686C274.469 64.5476 274.298 64.0588 274.258 63.502H275.531C275.564 63.8864 275.693 64.2046 275.919 64.4565C276.148 64.7051 276.436 64.8907 276.784 65.0133C277.135 65.1326 277.513 65.1923 277.917 65.1923C278.388 65.1923 278.811 65.1161 279.185 64.9636C279.56 64.8078 279.856 64.5924 280.075 64.3173C280.294 64.0389 280.403 63.7141 280.403 63.3429C280.403 63.0048 280.309 62.7297 280.12 62.5176C279.931 62.3055 279.682 62.1331 279.374 62.0005C279.066 61.868 278.733 61.752 278.375 61.6525L277.122 61.2946C276.327 61.0659 275.697 60.7394 275.233 60.3152C274.769 59.8909 274.537 59.3358 274.537 58.6497C274.537 58.0796 274.691 57.5824 274.999 57.1582C275.311 56.7306 275.728 56.3992 276.252 56.1639C276.779 55.9252 277.367 55.8059 278.017 55.8059C278.673 55.8059 279.256 55.9236 279.767 56.1589C280.277 56.3909 280.682 56.7091 280.98 57.1135C281.282 57.5178 281.441 57.9769 281.457 58.4906H280.264ZM288.277 63.0048V58.4906H289.45V66.127H288.277V64.8343H288.197C288.018 65.2221 287.74 65.5519 287.362 65.8237C286.984 66.0922 286.507 66.2264 285.93 66.2264C285.453 66.2264 285.029 66.122 284.658 65.9132C284.286 65.7011 283.995 65.3829 283.783 64.9586C283.571 64.5311 283.464 63.9925 283.464 63.3429V58.4906H284.638V63.2633C284.638 63.8201 284.794 64.2643 285.105 64.5957C285.42 64.9271 285.821 65.0929 286.308 65.0929C286.6 65.0929 286.897 65.0183 287.198 64.8691C287.503 64.72 287.758 64.4913 287.964 64.1831C288.173 63.8748 288.277 63.4821 288.277 63.0048ZM292.773 61.5332V66.127H291.599V58.4906H292.733V59.6838H292.832C293.011 59.296 293.283 58.9844 293.648 58.7491C294.012 58.5105 294.483 58.3912 295.059 58.3912C295.577 58.3912 296.029 58.4972 296.417 58.7093C296.805 58.9181 297.106 59.2363 297.322 59.6639C297.537 60.0881 297.645 60.6251 297.645 61.2747V66.127H296.471V61.3542C296.471 60.7543 296.316 60.287 296.004 59.9522C295.693 59.6142 295.265 59.4451 294.721 59.4451C294.347 59.4451 294.012 59.5263 293.717 59.6887C293.425 59.8511 293.195 60.0881 293.026 60.3997C292.857 60.7112 292.773 61.0891 292.773 61.5332ZM302.672 66.286C302.036 66.286 301.474 66.1253 300.987 65.8038C300.5 65.479 300.118 65.0216 299.843 64.4316C299.568 63.8384 299.431 63.1374 299.431 62.3287C299.431 61.5266 299.568 60.8306 299.843 60.2406C300.118 59.6506 300.501 59.1949 300.992 58.8734C301.482 58.5519 302.049 58.3912 302.692 58.3912C303.189 58.3912 303.582 58.474 303.87 58.6397C304.162 58.8021 304.384 58.9877 304.537 59.1966C304.692 59.402 304.813 59.5711 304.9 59.7037H304.999V55.9451H306.172V66.127H305.039V64.9537H304.9C304.813 65.0929 304.691 65.2685 304.532 65.4806C304.373 65.6895 304.145 65.8767 303.85 66.0424C303.556 66.2048 303.163 66.286 302.672 66.286ZM302.831 65.2321C303.302 65.2321 303.7 65.1094 304.025 64.8642C304.349 64.6156 304.596 64.2725 304.765 63.835C304.934 63.3942 305.019 62.8855 305.019 62.3088C305.019 61.7387 304.936 61.2399 304.77 60.8123C304.605 60.3815 304.359 60.0467 304.034 59.8081C303.71 59.5661 303.309 59.4451 302.831 59.4451C302.334 59.4451 301.92 59.5727 301.588 59.8279C301.26 60.0798 301.013 60.4229 300.848 60.8571C300.685 61.2879 300.604 61.7718 300.604 62.3088C300.604 62.8523 300.687 63.3462 300.853 63.7903C301.022 64.2311 301.27 64.5824 301.598 64.8443C301.93 65.1028 302.341 65.2321 302.831 65.2321ZM310.731 66.3059C310.247 66.3059 309.808 66.2148 309.414 66.0325C309.019 65.8469 308.706 65.5801 308.474 65.2321C308.242 64.8807 308.126 64.4565 308.126 63.9593C308.126 63.5218 308.212 63.1672 308.385 62.8954C308.557 62.6203 308.787 62.4049 309.076 62.2491C309.364 62.0933 309.682 61.9773 310.03 61.9011C310.382 61.8216 310.734 61.7586 311.089 61.7122C311.553 61.6525 311.929 61.6078 312.218 61.5779C312.509 61.5448 312.721 61.4901 312.854 61.4139C312.99 61.3377 313.058 61.2051 313.058 61.0162V60.9764C313.058 60.4859 312.924 60.1047 312.655 59.8329C312.39 59.5611 311.987 59.4252 311.447 59.4252C310.887 59.4252 310.448 59.5479 310.13 59.7931C309.811 60.0384 309.588 60.3002 309.458 60.5787L308.345 60.1809C308.544 59.7169 308.809 59.3556 309.14 59.0971C309.475 58.8353 309.84 58.653 310.234 58.5502C310.632 58.4442 311.023 58.3912 311.407 58.3912C311.653 58.3912 311.934 58.421 312.252 58.4806C312.574 58.537 312.884 58.6547 313.182 58.8336C313.484 59.0126 313.734 59.2827 313.933 59.644C314.132 60.0053 314.231 60.4892 314.231 61.0957V66.127H313.058V65.0929H312.998C312.919 65.2586 312.786 65.4359 312.6 65.6248C312.415 65.8137 312.168 65.9745 311.86 66.1071C311.551 66.2396 311.175 66.3059 310.731 66.3059ZM310.91 65.252C311.374 65.252 311.765 65.1608 312.083 64.9785C312.405 64.7962 312.647 64.5609 312.809 64.2725C312.975 63.9842 313.058 63.6809 313.058 63.3627V62.2889C313.008 62.3485 312.899 62.4032 312.73 62.4529C312.564 62.4993 312.372 62.5408 312.153 62.5772C311.938 62.6104 311.727 62.6402 311.522 62.6667C311.319 62.6899 311.155 62.7098 311.029 62.7264C310.725 62.7662 310.44 62.8308 310.174 62.9203C309.913 63.0065 309.7 63.1374 309.538 63.313C309.379 63.4854 309.299 63.7207 309.299 64.019C309.299 64.4267 309.45 64.7349 309.752 64.9437C310.057 65.1492 310.443 65.252 310.91 65.252ZM316.855 68.9906C316.656 68.9906 316.479 68.974 316.323 68.9409C316.167 68.911 316.059 68.8812 316 68.8514L316.298 67.8173C316.583 67.8902 316.835 67.9167 317.054 67.8968C317.273 67.877 317.466 67.7792 317.635 67.6035C317.808 67.4312 317.965 67.1511 318.108 66.7633L318.327 66.1667L315.503 58.4906H316.775L318.883 64.5758H318.963L321.071 58.4906H322.344L319.102 67.2406C318.956 67.635 318.776 67.9615 318.56 68.22C318.345 68.4818 318.095 68.6757 317.809 68.8017C317.528 68.9276 317.21 68.9906 316.855 68.9906Z" fill="#067A6F"/>
<rect width="294.791" height="96.6455" transform="translate(0 80.7246)" fill="#FDFCFC"/>
<path d="M19.7305 99.3736H35.1933C35.4639 99.3736 35.6894 99.4703 35.8698 99.6636C36.0631 99.844 36.1597 100.069 36.1597 100.34V115.803C36.1597 116.073 36.0631 116.299 35.8698 116.479C35.6894 116.673 35.4639 116.769 35.1933 116.769H19.7305C19.4599 116.769 19.228 116.673 19.0347 116.479C18.8543 116.299 18.7641 116.073 18.7641 115.803V100.34C18.7641 100.069 18.8543 99.844 19.0347 99.6636C19.228 99.4703 19.4599 99.3736 19.7305 99.3736ZM26.4955 111.937L33.3378 105.095L31.9655 103.742L26.4955 109.212L23.7702 106.467L22.3978 107.84L26.4955 111.937Z" fill="#974EF2"/>
<path d="M53.3781 112.787V102.947H56.7029C57.4717 102.947 58.1027 103.078 58.596 103.341C59.0892 103.601 59.4544 103.958 59.6914 104.413C59.9285 104.867 60.047 105.385 60.047 105.964C60.047 106.544 59.9285 107.058 59.6914 107.507C59.4544 107.955 59.0908 108.308 58.6008 108.564C58.1107 108.817 57.4845 108.943 56.7221 108.943H54.0315V107.867H56.6837C57.209 107.867 57.6318 107.79 57.9521 107.636C58.2756 107.483 58.5095 107.265 58.6536 106.983C58.801 106.698 58.8746 106.358 58.8746 105.964C58.8746 105.57 58.801 105.226 58.6536 104.931C58.5063 104.637 58.2708 104.409 57.9473 104.249C57.6238 104.086 57.1962 104.004 56.6645 104.004H54.5696V112.787H53.3781ZM58.0098 108.367L60.4313 112.787H59.0476L56.6645 108.367H58.0098ZM64.8937 112.941C64.1826 112.941 63.5692 112.784 63.0535 112.47C62.541 112.153 62.1454 111.711 61.8667 111.144C61.5913 110.574 61.4535 109.911 61.4535 109.155C61.4535 108.399 61.5913 107.733 61.8667 107.156C62.1454 106.576 62.533 106.125 63.0295 105.801C63.5292 105.474 64.1121 105.311 64.7784 105.311C65.1628 105.311 65.5423 105.375 65.9171 105.503C66.2918 105.631 66.633 105.84 66.9405 106.128C67.248 106.413 67.493 106.791 67.6756 107.262C67.8582 107.733 67.9495 108.312 67.9495 109.001V109.481H62.2607V108.501H66.7963C66.7963 108.085 66.7131 107.713 66.5465 107.387C66.3831 107.06 66.1493 106.802 65.845 106.613C65.5439 106.424 65.1884 106.33 64.7784 106.33C64.3267 106.33 63.936 106.442 63.606 106.666C63.2793 106.887 63.0279 107.175 62.8517 107.531C62.6755 107.886 62.5874 108.268 62.5874 108.674V109.328C62.5874 109.885 62.6835 110.358 62.8757 110.745C63.0711 111.129 63.3418 111.423 63.6877 111.624C64.0337 111.823 64.4356 111.922 64.8937 111.922C65.1916 111.922 65.4606 111.881 65.7009 111.797C65.9443 111.711 66.1541 111.583 66.3303 111.413C66.5065 111.24 66.6426 111.025 66.7387 110.769L67.8342 111.077C67.7188 111.448 67.525 111.775 67.2528 112.057C66.9805 112.335 66.6442 112.553 66.2438 112.71C65.8434 112.864 65.3934 112.941 64.8937 112.941ZM71.8461 112.96C71.3784 112.96 70.954 112.872 70.5728 112.696C70.1916 112.516 69.889 112.259 69.6647 111.922C69.4405 111.583 69.3284 111.173 69.3284 110.692C69.3284 110.269 69.4117 109.927 69.5782 109.664C69.7448 109.398 69.9674 109.19 70.2461 109.039C70.5248 108.889 70.8323 108.777 71.1686 108.703C71.5081 108.626 71.8493 108.565 72.192 108.521C72.6404 108.463 73.004 108.42 73.2827 108.391C73.5645 108.359 73.7695 108.306 73.8977 108.232C74.029 108.159 74.0946 108.03 74.0946 107.848V107.809C74.0946 107.335 73.9649 106.967 73.7055 106.704C73.4492 106.442 73.06 106.31 72.5379 106.31C71.9966 106.31 71.5722 106.429 71.2647 106.666C70.9572 106.903 70.741 107.156 70.6161 107.425L69.5398 107.041C69.732 106.592 69.9882 106.243 70.3086 105.993C70.6321 105.74 70.9844 105.564 71.3656 105.465C71.75 105.362 72.1279 105.311 72.4995 105.311C72.7365 105.311 73.0088 105.34 73.3163 105.398C73.627 105.452 73.9265 105.566 74.2148 105.739C74.5062 105.912 74.7481 106.173 74.9403 106.522C75.1325 106.871 75.2285 107.339 75.2285 107.925V112.787H74.0946V111.788H74.037C73.9601 111.948 73.832 112.119 73.6526 112.302C73.4732 112.484 73.2346 112.64 72.9367 112.768C72.6388 112.896 72.2753 112.96 71.8461 112.96ZM72.019 111.941C72.4675 111.941 72.8454 111.853 73.1529 111.677C73.4636 111.501 73.6975 111.274 73.8544 110.995C74.0146 110.716 74.0946 110.423 74.0946 110.116V109.078C74.0466 109.136 73.9409 109.188 73.7775 109.236C73.6174 109.281 73.4316 109.321 73.2202 109.357C73.012 109.389 72.8086 109.417 72.61 109.443C72.4146 109.465 72.2561 109.485 72.1343 109.501C71.8396 109.539 71.5642 109.602 71.3079 109.688C71.0549 109.771 70.8499 109.898 70.6929 110.068C70.5392 110.234 70.4623 110.462 70.4623 110.75C70.4623 111.144 70.6081 111.442 70.8995 111.644C71.1942 111.842 71.5674 111.941 72.019 111.941ZM80.0849 112.941C79.4699 112.941 78.9269 112.786 78.4561 112.475C77.9852 112.161 77.6169 111.719 77.351 111.149C77.0852 110.575 76.9522 109.898 76.9522 109.116C76.9522 108.341 77.0852 107.669 77.351 107.098C77.6169 106.528 77.9868 106.088 78.4609 105.777C78.935 105.466 79.4827 105.311 80.1041 105.311C80.5846 105.311 80.9641 105.391 81.2428 105.551C81.5247 105.708 81.7393 105.888 81.8866 106.089C82.0372 106.288 82.1541 106.451 82.2374 106.579H82.3335V102.947H83.4674V112.787H82.3719V111.653H82.2374C82.1541 111.788 82.0356 111.958 81.8818 112.163C81.7281 112.364 81.5087 112.545 81.2236 112.705C80.9385 112.862 80.5589 112.941 80.0849 112.941ZM80.2386 111.922C80.6935 111.922 81.0778 111.804 81.3917 111.567C81.7056 111.326 81.9443 110.995 82.1076 110.572C82.271 110.146 82.3527 109.654 82.3527 109.097C82.3527 108.546 82.2726 108.064 82.1124 107.651C81.9523 107.235 81.7153 106.911 81.4014 106.68C81.0874 106.447 80.6999 106.33 80.2386 106.33C79.7582 106.33 79.3578 106.453 79.0375 106.7C78.7203 106.943 78.4817 107.275 78.3216 107.694C78.1646 108.111 78.0861 108.578 78.0861 109.097C78.0861 109.622 78.1662 110.1 78.3264 110.529C78.4897 110.955 78.73 111.294 79.0471 111.548C79.3674 111.797 79.7646 111.922 80.2386 111.922Z" fill="#43302B"/>
<path d="M161.327 99.3736H176.79C177.061 99.3736 177.286 99.4703 177.467 99.6636C177.66 99.844 177.756 100.069 177.756 100.34V115.803C177.756 116.073 177.66 116.299 177.467 116.479C177.286 116.673 177.061 116.769 176.79 116.769H161.327C161.057 116.769 160.825 116.673 160.631 116.479C160.451 116.299 160.361 116.073 160.361 115.803V100.34C160.361 100.069 160.451 99.844 160.631 99.6636C160.825 99.4703 161.057 99.3736 161.327 99.3736ZM168.092 111.937L174.934 105.095L173.562 103.742L168.092 109.212L165.367 106.467L163.995 107.84L168.092 111.937Z" fill="#974EF2"/>
<path d="M201.432 102.947H202.624V109.462C202.624 110.135 202.465 110.736 202.148 111.264C201.834 111.789 201.391 112.204 200.817 112.508C200.244 112.81 199.571 112.96 198.799 112.96C198.027 112.96 197.355 112.81 196.781 112.508C196.208 112.204 195.763 111.789 195.446 111.264C195.132 110.736 194.975 110.135 194.975 109.462V102.947H196.166V109.366C196.166 109.847 196.272 110.274 196.483 110.649C196.695 111.021 196.996 111.314 197.387 111.528C197.781 111.74 198.252 111.845 198.799 111.845C199.347 111.845 199.818 111.74 200.212 111.528C200.606 111.314 200.907 111.021 201.115 110.649C201.327 110.274 201.432 109.847 201.432 109.366V102.947ZM204.85 115.555V105.407H205.945V106.579H206.08C206.163 106.451 206.278 106.288 206.426 106.089C206.576 105.888 206.791 105.708 207.069 105.551C207.351 105.391 207.732 105.311 208.213 105.311C208.834 105.311 209.382 105.466 209.856 105.777C210.33 106.088 210.7 106.528 210.966 107.098C211.232 107.669 211.365 108.341 211.365 109.116C211.365 109.898 211.232 110.575 210.966 111.149C210.7 111.719 210.332 112.161 209.861 112.475C209.39 112.786 208.847 112.941 208.232 112.941C207.758 112.941 207.378 112.862 207.093 112.705C206.808 112.545 206.589 112.364 206.435 112.163C206.281 111.958 206.163 111.788 206.08 111.653H205.983V115.555H204.85ZM205.964 109.097C205.964 109.654 206.046 110.146 206.209 110.572C206.373 110.995 206.611 111.326 206.925 111.567C207.239 111.804 207.623 111.922 208.078 111.922C208.552 111.922 208.948 111.797 209.265 111.548C209.585 111.294 209.826 110.955 209.986 110.529C210.149 110.1 210.231 109.622 210.231 109.097C210.231 108.578 210.151 108.111 209.991 107.694C209.834 107.275 209.595 106.943 209.275 106.7C208.958 106.453 208.559 106.33 208.078 106.33C207.617 106.33 207.229 106.447 206.916 106.68C206.602 106.911 206.365 107.235 206.204 107.651C206.044 108.064 205.964 108.546 205.964 109.097ZM215.881 112.941C215.266 112.941 214.723 112.786 214.252 112.475C213.781 112.161 213.413 111.719 213.147 111.149C212.881 110.575 212.748 109.898 212.748 109.116C212.748 108.341 212.881 107.669 213.147 107.098C213.413 106.528 213.783 106.088 214.257 105.777C214.731 105.466 215.279 105.311 215.9 105.311C216.381 105.311 216.76 105.391 217.039 105.551C217.321 105.708 217.536 105.888 217.683 106.089C217.833 106.288 217.95 106.451 218.034 106.579H218.13V102.947H219.264V112.787H218.168V111.653H218.034C217.95 111.788 217.832 111.958 217.678 112.163C217.524 112.364 217.305 112.545 217.02 112.705C216.735 112.862 216.355 112.941 215.881 112.941ZM216.035 111.922C216.49 111.922 216.874 111.804 217.188 111.567C217.502 111.326 217.741 110.995 217.904 110.572C218.067 110.146 218.149 109.654 218.149 109.097C218.149 108.546 218.069 108.064 217.909 107.651C217.749 107.235 217.511 106.911 217.198 106.68C216.884 106.447 216.496 106.33 216.035 106.33C215.554 106.33 215.154 106.453 214.834 106.7C214.517 106.943 214.278 107.275 214.118 107.694C213.961 108.111 213.882 108.578 213.882 109.097C213.882 109.622 213.962 110.1 214.123 110.529C214.286 110.955 214.526 111.294 214.843 111.548C215.164 111.797 215.561 111.922 216.035 111.922ZM223.669 112.96C223.202 112.96 222.777 112.872 222.396 112.696C222.015 112.516 221.712 112.259 221.488 111.922C221.264 111.583 221.152 111.173 221.152 110.692C221.152 110.269 221.235 109.927 221.402 109.664C221.568 109.398 221.791 109.19 222.07 109.039C222.348 108.889 222.656 108.777 222.992 108.703C223.332 108.626 223.673 108.565 224.015 108.521C224.464 108.463 224.827 108.42 225.106 108.391C225.388 108.359 225.593 108.306 225.721 108.232C225.852 108.159 225.918 108.03 225.918 107.848V107.809C225.918 107.335 225.788 106.967 225.529 106.704C225.273 106.442 224.883 106.31 224.361 106.31C223.82 106.31 223.396 106.429 223.088 106.666C222.781 106.903 222.564 107.156 222.439 107.425L221.363 107.041C221.555 106.592 221.812 106.243 222.132 105.993C222.456 105.74 222.808 105.564 223.189 105.465C223.573 105.362 223.951 105.311 224.323 105.311C224.56 105.311 224.832 105.34 225.14 105.398C225.45 105.452 225.75 105.566 226.038 105.739C226.33 105.912 226.572 106.173 226.764 106.522C226.956 106.871 227.052 107.339 227.052 107.925V112.787H225.918V111.788H225.86C225.784 111.948 225.655 112.119 225.476 112.302C225.297 112.484 225.058 112.64 224.76 112.768C224.462 112.896 224.099 112.96 223.669 112.96ZM223.842 111.941C224.291 111.941 224.669 111.853 224.976 111.677C225.287 111.501 225.521 111.274 225.678 110.995C225.838 110.716 225.918 110.423 225.918 110.116V109.078C225.87 109.136 225.764 109.188 225.601 109.236C225.441 109.281 225.255 109.321 225.044 109.357C224.835 109.389 224.632 109.417 224.433 109.443C224.238 109.465 224.079 109.485 223.958 109.501C223.663 109.539 223.388 109.602 223.131 109.688C222.878 109.771 222.673 109.898 222.516 110.068C222.363 110.234 222.286 110.462 222.286 110.75C222.286 111.144 222.431 111.442 222.723 111.644C223.018 111.842 223.391 111.941 223.842 111.941ZM232.331 105.407V106.368H228.507V105.407H232.331ZM229.621 103.639H230.755V110.673C230.755 110.993 230.802 111.234 230.895 111.394C230.991 111.551 231.112 111.656 231.26 111.711C231.41 111.762 231.569 111.788 231.735 111.788C231.86 111.788 231.963 111.781 232.043 111.769C232.123 111.753 232.187 111.74 232.235 111.73L232.466 112.749C232.389 112.778 232.281 112.806 232.144 112.835C232.006 112.867 231.831 112.883 231.62 112.883C231.3 112.883 230.986 112.814 230.678 112.677C230.374 112.539 230.121 112.329 229.919 112.047C229.721 111.765 229.621 111.41 229.621 110.981V103.639ZM237.052 112.941C236.341 112.941 235.727 112.784 235.212 112.47C234.699 112.153 234.303 111.711 234.025 111.144C233.749 110.574 233.612 109.911 233.612 109.155C233.612 108.399 233.749 107.733 234.025 107.156C234.303 106.576 234.691 106.125 235.187 105.801C235.687 105.474 236.27 105.311 236.936 105.311C237.321 105.311 237.7 105.375 238.075 105.503C238.45 105.631 238.791 105.84 239.099 106.128C239.406 106.413 239.651 106.791 239.834 107.262C240.016 107.733 240.107 108.312 240.107 109.001V109.481H234.419V108.501H238.954C238.954 108.085 238.871 107.713 238.705 107.387C238.541 107.06 238.307 106.802 238.003 106.613C237.702 106.424 237.346 106.33 236.936 106.33C236.485 106.33 236.094 106.442 235.764 106.666C235.437 106.887 235.186 107.175 235.01 107.531C234.834 107.886 234.745 108.268 234.745 108.674V109.328C234.745 109.885 234.842 110.358 235.034 110.745C235.229 111.129 235.5 111.423 235.846 111.624C236.192 111.823 236.594 111.922 237.052 111.922C237.35 111.922 237.619 111.881 237.859 111.797C238.102 111.711 238.312 111.583 238.488 111.413C238.664 111.24 238.801 111.025 238.897 110.769L239.992 111.077C239.877 111.448 239.683 111.775 239.411 112.057C239.139 112.335 238.802 112.553 238.402 112.71C238.001 112.864 237.551 112.941 237.052 112.941Z" fill="#43302B"/>
<path d="M19.7305 141.897H35.1933C35.4639 141.897 35.6894 141.994 35.8698 142.187C36.0631 142.367 36.1597 142.593 36.1597 142.864V158.326C36.1597 158.597 36.0631 158.822 35.8698 159.003C35.6894 159.196 35.4639 159.293 35.1933 159.293H19.7305C19.4599 159.293 19.228 159.196 19.0347 159.003C18.8543 158.822 18.7641 158.597 18.7641 158.326V142.864C18.7641 142.593 18.8543 142.367 19.0347 142.187C19.228 141.994 19.4599 141.897 19.7305 141.897ZM26.4955 154.461L33.3378 147.618L31.9655 146.265L26.4955 151.735L23.7702 148.991L22.3978 150.363L26.4955 154.461Z" fill="#974EF2"/>
<path d="M53.3781 155.311V145.471H56.8182C57.5037 145.471 58.069 145.589 58.5143 145.826C58.9595 146.06 59.291 146.375 59.5088 146.773C59.7267 147.167 59.8356 147.604 59.8356 148.084C59.8356 148.507 59.7603 148.856 59.6097 149.132C59.4624 149.407 59.267 149.625 59.0236 149.785C58.7833 149.945 58.5223 150.064 58.2404 150.141V150.237C58.5415 150.256 58.8442 150.362 59.1485 150.554C59.4528 150.746 59.7074 151.022 59.9124 151.38C60.1174 151.739 60.2199 152.178 60.2199 152.697C60.2199 153.19 60.1078 153.634 59.8836 154.028C59.6594 154.422 59.3055 154.734 58.8218 154.965C58.3381 155.195 57.7087 155.311 56.9335 155.311H53.3781ZM54.5696 154.254H56.9335C57.7119 154.254 58.2644 154.103 58.5912 153.802C58.9211 153.498 59.086 153.129 59.086 152.697C59.086 152.364 59.0012 152.056 58.8314 151.774C58.6616 151.489 58.4198 151.262 58.1059 151.092C57.792 150.919 57.4204 150.833 56.9912 150.833H54.5696V154.254ZM54.5696 149.795H56.7798C57.1385 149.795 57.4621 149.724 57.7503 149.583C58.0418 149.442 58.2724 149.244 58.4422 148.988C58.6152 148.731 58.7017 148.43 58.7017 148.084C58.7017 147.652 58.5511 147.285 58.25 146.984C57.9489 146.68 57.4717 146.528 56.8182 146.528H54.5696V149.795ZM64.1958 155.484C63.7282 155.484 63.3037 155.395 62.9226 155.219C62.5414 155.04 62.2387 154.782 62.0145 154.446C61.7903 154.106 61.6782 153.696 61.6782 153.216C61.6782 152.793 61.7614 152.45 61.928 152.188C62.0946 151.922 62.3172 151.713 62.5959 151.563C62.8745 151.412 63.182 151.3 63.5184 151.227C63.8579 151.15 64.199 151.089 64.5417 151.044C64.9902 150.986 65.3537 150.943 65.6324 150.914C65.9143 150.882 66.1193 150.829 66.2474 150.756C66.3787 150.682 66.4444 150.554 66.4444 150.371V150.333C66.4444 149.859 66.3147 149.49 66.0552 149.228C65.799 148.965 65.4098 148.834 64.8877 148.834C64.3464 148.834 63.9219 148.952 63.6144 149.189C63.3069 149.426 63.0907 149.679 62.9658 149.949L61.8896 149.564C62.0818 149.116 62.338 148.767 62.6583 148.517C62.9818 148.264 63.3342 148.088 63.7153 147.988C64.0997 147.886 64.4777 147.834 64.8492 147.834C65.0863 147.834 65.3585 147.863 65.666 147.921C65.9767 147.975 66.2762 148.089 66.5645 148.262C66.856 148.435 67.0978 148.696 67.29 149.045C67.4822 149.394 67.5783 149.862 67.5783 150.448V155.311H66.4444V154.311H66.3867C66.3099 154.471 66.1817 154.643 66.0024 154.825C65.823 155.008 65.5844 155.163 65.2865 155.291C64.9886 155.419 64.625 155.484 64.1958 155.484ZM64.3688 154.465C64.8172 154.465 65.1952 154.377 65.5027 154.201C65.8134 154.024 66.0472 153.797 66.2042 153.518C66.3643 153.24 66.4444 152.947 66.4444 152.639V151.601C66.3964 151.659 66.2906 151.712 66.1273 151.76C65.9671 151.805 65.7814 151.845 65.5699 151.88C65.3617 151.912 65.1583 151.941 64.9598 151.966C64.7644 151.989 64.6058 152.008 64.4841 152.024C64.1894 152.063 63.9139 152.125 63.6577 152.212C63.4046 152.295 63.1996 152.421 63.0427 152.591C62.8889 152.758 62.8121 152.985 62.8121 153.273C62.8121 153.667 62.9578 153.965 63.2493 154.167C63.544 154.366 63.9171 154.465 64.3688 154.465ZM72.646 155.464C71.9542 155.464 71.3584 155.301 70.8587 154.974C70.359 154.648 69.9746 154.197 69.7056 153.624C69.4365 153.051 69.302 152.396 69.302 151.659C69.302 150.909 69.4397 150.248 69.7152 149.675C69.9939 149.098 70.3814 148.648 70.8779 148.325C71.3776 147.998 71.9606 147.834 72.6268 147.834C73.1457 147.834 73.6134 147.931 74.0298 148.123C74.4462 148.315 74.7873 148.584 75.0532 148.93C75.319 149.276 75.484 149.679 75.5481 150.141H74.4142C74.3277 149.804 74.1355 149.506 73.8376 149.247C73.5429 148.984 73.1457 148.853 72.646 148.853C72.204 148.853 71.8164 148.968 71.4833 149.199C71.1534 149.426 70.8955 149.748 70.7097 150.165C70.5272 150.578 70.4359 151.063 70.4359 151.621C70.4359 152.191 70.5256 152.687 70.7049 153.11C70.8875 153.533 71.1438 153.861 71.4737 154.095C71.8068 154.329 72.1976 154.446 72.646 154.446C72.9407 154.446 73.2082 154.394 73.4484 154.292C73.6886 154.189 73.892 154.042 74.0586 153.85C74.2252 153.658 74.3437 153.427 74.4142 153.158H75.5481C75.484 153.594 75.3254 153.986 75.0724 154.335C74.8226 154.681 74.491 154.957 74.0778 155.162C73.6678 155.363 73.1906 155.464 72.646 155.464ZM78.2627 152.62L78.2435 151.217H78.4741L81.7028 147.931H83.1058L79.6657 151.409H79.5696L78.2627 152.62ZM77.2057 155.311V145.471H78.3396V155.311H77.2057ZM81.895 155.311L79.0122 151.659L79.8194 150.871L83.3364 155.311H81.895ZM89.2162 152.293V147.931H90.3501V155.311H89.2162V154.061H89.1393C88.9663 154.436 88.6973 154.755 88.3321 155.017C87.9669 155.277 87.5057 155.407 86.9484 155.407C86.4871 155.407 86.0771 155.306 85.7184 155.104C85.3596 154.899 85.0777 154.591 84.8727 154.181C84.6677 153.768 84.5652 153.248 84.5652 152.62V147.931H85.6991V152.543C85.6991 153.081 85.8497 153.51 86.1508 153.831C86.4551 154.151 86.8426 154.311 87.3135 154.311C87.5954 154.311 87.8821 154.239 88.1735 154.095C88.4682 153.951 88.7149 153.73 88.9135 153.432C89.1153 153.134 89.2162 152.754 89.2162 152.293ZM92.4269 158.078V147.931H93.5223V149.103H93.6569C93.7402 148.975 93.8555 148.811 94.0028 148.613C94.1534 148.411 94.368 148.232 94.6466 148.075C94.9285 147.915 95.3097 147.834 95.7902 147.834C96.4116 147.834 96.9593 147.99 97.4334 148.301C97.9074 148.611 98.2774 149.052 98.5432 149.622C98.8091 150.192 98.942 150.865 98.942 151.64C98.942 152.421 98.8091 153.099 98.5432 153.672C98.2774 154.242 97.909 154.684 97.4382 154.998C96.9673 155.309 96.4244 155.464 95.8094 155.464C95.3353 155.464 94.9557 155.386 94.6707 155.229C94.3856 155.069 94.1662 154.888 94.0124 154.686C93.8587 154.481 93.7402 154.311 93.6569 154.177H93.5608V158.078H92.4269ZM93.5416 151.621C93.5416 152.178 93.6232 152.67 93.7866 153.096C93.95 153.518 94.1886 153.85 94.5025 154.09C94.8164 154.327 95.2008 154.446 95.6556 154.446C96.1297 154.446 96.5253 154.321 96.8424 154.071C97.1627 153.818 97.4029 153.478 97.5631 153.052C97.7264 152.623 97.8081 152.146 97.8081 151.621C97.8081 151.102 97.728 150.634 97.5679 150.218C97.4109 149.798 97.1723 149.466 96.852 149.223C96.5349 148.976 96.1361 148.853 95.6556 148.853C95.1944 148.853 94.8068 148.97 94.4929 149.204C94.179 149.434 93.942 149.758 93.7818 150.174C93.6216 150.588 93.5416 151.07 93.5416 151.621Z" fill="#43302B"/>
<path d="M161.327 141.897H176.79C177.061 141.897 177.286 141.994 177.467 142.187C177.66 142.367 177.756 142.593 177.756 142.864V158.326C177.756 158.597 177.66 158.822 177.467 159.003C177.286 159.196 177.061 159.293 176.79 159.293H161.327C161.057 159.293 160.825 159.196 160.631 159.003C160.451 158.822 160.361 158.597 160.361 158.326V142.864C160.361 142.593 160.451 142.367 160.631 142.187C160.825 141.994 161.057 141.897 161.327 141.897ZM168.092 154.461L174.934 147.618L173.562 146.265L168.092 151.735L165.367 148.991L163.995 150.363L168.092 154.461Z" fill="#974EF2"/>
<path d="M194.975 155.311V145.471H198.3C199.068 145.471 199.699 145.602 200.193 145.865C200.686 146.124 201.051 146.481 201.288 146.936C201.525 147.391 201.644 147.908 201.644 148.488C201.644 149.068 201.525 149.582 201.288 150.03C201.051 150.479 200.688 150.831 200.197 151.087C199.707 151.34 199.081 151.467 198.319 151.467H195.628V150.391H198.28C198.806 150.391 199.229 150.314 199.549 150.16C199.872 150.006 200.106 149.788 200.25 149.506C200.398 149.221 200.471 148.882 200.471 148.488C200.471 148.094 200.398 147.75 200.25 147.455C200.103 147.16 199.868 146.933 199.544 146.773C199.22 146.609 198.793 146.528 198.261 146.528H196.166V155.311H194.975ZM199.606 150.89L202.028 155.311H200.644L198.261 150.89H199.606ZM206.49 155.464C205.779 155.464 205.166 155.307 204.65 154.993C204.138 154.676 203.742 154.234 203.463 153.667C203.188 153.097 203.05 152.434 203.05 151.678C203.05 150.922 203.188 150.256 203.463 149.679C203.742 149.1 204.13 148.648 204.626 148.325C205.126 147.998 205.709 147.834 206.375 147.834C206.759 147.834 207.139 147.899 207.514 148.027C207.889 148.155 208.23 148.363 208.537 148.651C208.845 148.936 209.09 149.314 209.272 149.785C209.455 150.256 209.546 150.836 209.546 151.524V152.005H203.857V151.025H208.393C208.393 150.608 208.31 150.237 208.143 149.91C207.98 149.583 207.746 149.326 207.442 149.137C207.141 148.948 206.785 148.853 206.375 148.853C205.923 148.853 205.533 148.965 205.203 149.189C204.876 149.41 204.625 149.699 204.448 150.054C204.272 150.41 204.184 150.791 204.184 151.198V151.851C204.184 152.409 204.28 152.881 204.472 153.269C204.668 153.653 204.938 153.946 205.284 154.148C205.63 154.346 206.032 154.446 206.49 154.446C206.788 154.446 207.057 154.404 207.298 154.321C207.541 154.234 207.751 154.106 207.927 153.936C208.103 153.763 208.239 153.549 208.335 153.293L209.431 153.6C209.316 153.972 209.122 154.298 208.849 154.58C208.577 154.859 208.241 155.077 207.84 155.234C207.44 155.387 206.99 155.464 206.49 155.464ZM216.499 149.583L215.48 149.872C215.416 149.702 215.321 149.537 215.196 149.377C215.075 149.213 214.908 149.079 214.697 148.973C214.485 148.867 214.215 148.815 213.885 148.815C213.433 148.815 213.057 148.919 212.756 149.127C212.458 149.332 212.309 149.593 212.309 149.91C212.309 150.192 212.411 150.415 212.616 150.578C212.821 150.741 213.142 150.877 213.577 150.986L214.673 151.255C215.333 151.416 215.824 151.661 216.148 151.991C216.471 152.317 216.633 152.738 216.633 153.254C216.633 153.677 216.511 154.055 216.268 154.388C216.028 154.721 215.691 154.984 215.259 155.176C214.826 155.368 214.324 155.464 213.75 155.464C212.998 155.464 212.374 155.301 211.881 154.974C211.388 154.648 211.076 154.17 210.944 153.542L212.021 153.273C212.123 153.671 212.317 153.968 212.602 154.167C212.89 154.366 213.267 154.465 213.731 154.465C214.26 154.465 214.679 154.353 214.99 154.129C215.304 153.901 215.461 153.629 215.461 153.312C215.461 153.056 215.371 152.841 215.192 152.668C215.012 152.492 214.737 152.36 214.365 152.274L213.135 151.986C212.459 151.826 211.963 151.577 211.646 151.241C211.332 150.901 211.175 150.477 211.175 149.968C211.175 149.551 211.292 149.183 211.526 148.863C211.763 148.542 212.085 148.291 212.491 148.108C212.901 147.926 213.366 147.834 213.885 147.834C214.615 147.834 215.188 147.995 215.605 148.315C216.024 148.635 216.322 149.058 216.499 149.583ZM221.549 147.931V148.892H217.725V147.931H221.549ZM218.84 146.162H219.973V153.196C219.973 153.517 220.02 153.757 220.113 153.917C220.209 154.074 220.331 154.18 220.478 154.234C220.629 154.286 220.787 154.311 220.954 154.311C221.079 154.311 221.181 154.305 221.261 154.292C221.341 154.276 221.405 154.263 221.453 154.254L221.684 155.272C221.607 155.301 221.5 155.33 221.362 155.359C221.224 155.391 221.05 155.407 220.838 155.407C220.518 155.407 220.204 155.338 219.897 155.2C219.592 155.062 219.339 154.853 219.137 154.571C218.939 154.289 218.84 153.933 218.84 153.504V146.162ZM226.174 155.464C225.508 155.464 224.923 155.306 224.42 154.989C223.921 154.672 223.53 154.228 223.248 153.658C222.969 153.088 222.83 152.421 222.83 151.659C222.83 150.89 222.969 150.219 223.248 149.646C223.53 149.072 223.921 148.627 224.42 148.31C224.923 147.993 225.508 147.834 226.174 147.834C226.84 147.834 227.423 147.993 227.923 148.31C228.426 148.627 228.816 149.072 229.095 149.646C229.377 150.219 229.518 150.89 229.518 151.659C229.518 152.421 229.377 153.088 229.095 153.658C228.816 154.228 228.426 154.672 227.923 154.989C227.423 155.306 226.84 155.464 226.174 155.464ZM226.174 154.446C226.68 154.446 227.096 154.316 227.423 154.057C227.75 153.797 227.992 153.456 228.149 153.033C228.306 152.61 228.384 152.152 228.384 151.659C228.384 151.166 228.306 150.706 228.149 150.28C227.992 149.854 227.75 149.51 227.423 149.247C227.096 148.984 226.68 148.853 226.174 148.853C225.668 148.853 225.251 148.984 224.925 149.247C224.598 149.51 224.356 149.854 224.199 150.28C224.042 150.706 223.964 151.166 223.964 151.659C223.964 152.152 224.042 152.61 224.199 153.033C224.356 153.456 224.598 153.797 224.925 154.057C225.251 154.316 225.668 154.446 226.174 154.446ZM231.249 155.311V147.931H232.344V149.045H232.421C232.556 148.68 232.799 148.384 233.152 148.156C233.504 147.929 233.901 147.815 234.343 147.815C234.426 147.815 234.53 147.817 234.655 147.82C234.78 147.823 234.875 147.828 234.939 147.834V148.988C234.9 148.978 234.812 148.964 234.675 148.944C234.54 148.922 234.398 148.911 234.247 148.911C233.888 148.911 233.568 148.986 233.286 149.137C233.007 149.284 232.786 149.489 232.623 149.752C232.463 150.011 232.383 150.307 232.383 150.64V155.311H231.249ZM239.153 155.464C238.441 155.464 237.828 155.307 237.312 154.993C236.8 154.676 236.404 154.234 236.126 153.667C235.85 153.097 235.712 152.434 235.712 151.678C235.712 150.922 235.85 150.256 236.126 149.679C236.404 149.1 236.792 148.648 237.288 148.325C237.788 147.998 238.371 147.834 239.037 147.834C239.422 147.834 239.801 147.899 240.176 148.027C240.551 148.155 240.892 148.363 241.199 148.651C241.507 148.936 241.752 149.314 241.934 149.785C242.117 150.256 242.208 150.836 242.208 151.524V152.005H236.52V151.025H241.055C241.055 150.608 240.972 150.237 240.805 149.91C240.642 149.583 240.408 149.326 240.104 149.137C239.803 148.948 239.447 148.853 239.037 148.853C238.586 148.853 238.195 148.965 237.865 149.189C237.538 149.41 237.287 149.699 237.111 150.054C236.934 150.41 236.846 150.791 236.846 151.198V151.851C236.846 152.409 236.942 152.881 237.135 153.269C237.33 153.653 237.601 153.946 237.947 154.148C238.293 154.346 238.695 154.446 239.153 154.446C239.45 154.446 239.72 154.404 239.96 154.321C240.203 154.234 240.413 154.106 240.589 153.936C240.765 153.763 240.901 153.549 240.998 153.293L242.093 153.6C241.978 153.972 241.784 154.298 241.512 154.58C241.239 154.859 240.903 155.077 240.503 155.234C240.102 155.387 239.652 155.464 239.153 155.464Z" fill="#43302B"/>
</g>
<rect x="0.9" y="0.9" width="341.126" height="175.57" rx="7.1" stroke="#D1B9B0" stroke-width="1.8"/>
<defs>
<clipPath id="clip0_9575_550">
<rect width="342.926" height="177.37" rx="8" fill="white"/>
</clipPath>
<clipPath id="clip1_9575_550">
<rect width="89" height="20" fill="white" transform="translate(15.4629 15.0469)"/>
</clipPath>
<clipPath id="clip2_9575_550">
<rect width="89" height="20" fill="white" transform="translate(15.4629 15.0469)"/>
</clipPath>
</defs>
</svg>
