<svg width="24" height="25" viewBox="0 0 24 25" fill="none" xmlns="http://www.w3.org/2000/svg">
<path d="M20.5469 12.4072C20.5469 15.2189 20.4413 17.1914 20.3402 18.434C20.2388 19.6832 19.275 20.647 18.0258 20.7484C16.7832 20.8495 14.8107 20.9551 11.999 20.9551C9.18735 20.9551 7.21489 20.8495 5.97222 20.7484C4.72309 20.647 3.75927 19.6832 3.65784 18.434C3.55679 17.1914 3.45117 15.2189 3.45117 12.4072C3.45117 9.59555 3.55679 7.62309 3.65784 6.38042C3.75927 5.1313 4.72309 4.16748 5.97222 4.06604C7.21489 3.96499 9.18735 3.85938 11.999 3.85938C14.8107 3.85938 16.7832 3.96499 18.0258 4.06604C19.275 4.16748 20.2388 5.1313 20.3402 6.38042C20.4413 7.62309 20.5469 9.59555 20.5469 12.4072Z" fill="#FFCCA7"/>
<g clip-path="url(#clip0_24368_48135)">
<path fill-rule="evenodd" clip-rule="evenodd" d="M6.94322 14.3298C6.44608 13.8326 6.19922 13.1152 6.19922 12.2384C6.19922 11.3615 6.44693 10.6441 6.94322 10.1469C7.44036 9.65064 8.15608 9.40292 9.03465 9.40292C9.91236 9.40292 10.6289 9.65149 11.1252 10.1478C11.6224 10.6441 11.8692 11.3606 11.8692 12.2384C11.8692 13.1161 11.6215 13.8326 11.1252 14.3298C10.6281 14.8261 9.91236 15.0738 9.03379 15.0738C8.15608 15.0738 7.4395 14.8252 6.94322 14.3289V14.3298ZM15.5858 17.6272C15.3166 17.3572 15.1889 16.9749 15.1889 16.5241C15.1889 16.0732 15.3166 15.6909 15.5858 15.4209C15.8558 15.1518 16.2381 15.0241 16.6889 15.0241C17.1398 15.0241 17.5221 15.1518 17.7921 15.4209C18.0612 15.6909 18.1889 16.0732 18.1889 16.5241C18.1889 16.9749 18.0612 17.3572 17.7921 17.6272C17.5221 17.8964 17.1406 18.0241 16.6889 18.0241C16.2381 18.0241 15.8558 17.8964 15.5858 17.6272ZM15.1889 12.2384C15.1889 12.6892 15.3166 13.0715 15.5858 13.3415C15.8558 13.6106 16.2381 13.7384 16.6889 13.7384C17.1398 13.7384 17.5221 13.6106 17.7921 13.3415C18.0612 13.0715 18.1889 12.6892 18.1889 12.2384C18.1889 11.7875 18.0612 11.4052 17.7921 11.1352C17.5221 10.8661 17.1406 10.7384 16.6889 10.7384C16.2381 10.7384 15.8558 10.8661 15.5858 11.1352C15.3166 11.4052 15.1889 11.7875 15.1889 12.2384ZM15.5858 9.05578C15.3166 8.78578 15.1889 8.40349 15.1889 7.95264C15.1889 7.50178 15.3166 7.11949 15.5858 6.84949C15.8558 6.58035 16.2381 6.45264 16.6889 6.45264C17.1398 6.45264 17.5221 6.58035 17.7921 6.84949C18.0612 7.11949 18.1889 7.50178 18.1889 7.95264C18.1889 8.40349 18.0612 8.78578 17.7921 9.05578C17.5221 9.32492 17.1406 9.45264 16.6889 9.45264C16.2381 9.45264 15.8558 9.32492 15.5858 9.05578Z" fill="#974EF2"/>
<path fill-rule="evenodd" clip-rule="evenodd" d="M11.8203 12.881H12.8266V15.2381C12.8266 15.7496 13.0298 16.2402 13.3915 16.6019C13.7531 16.9635 14.2437 17.1667 14.7552 17.1667H15.1837C15.2199 17.1669 15.256 17.164 15.2917 17.1581C15.2232 16.9687 15.1889 16.7553 15.1889 16.5239C15.1889 16.2924 15.2232 16.079 15.2917 15.8896C15.256 15.8837 15.2199 15.8808 15.1837 15.881H14.7552C14.5847 15.881 14.4212 15.8133 14.3006 15.6927C14.18 15.5722 14.1123 15.4086 14.1123 15.2381V12.881H15.1837C15.2199 12.8812 15.256 12.8783 15.2917 12.8724C15.2232 12.683 15.1889 12.4696 15.1889 12.2381C15.1889 12.0067 15.2232 11.7933 15.2917 11.6039C15.256 11.598 15.2199 11.5951 15.1837 11.5953H14.1123V9.23815C14.1123 9.06765 14.18 8.90414 14.3006 8.78358C14.4212 8.66302 14.5847 8.59529 14.7552 8.59529H15.1837C15.2199 8.59546 15.256 8.59259 15.2917 8.58672C15.2232 8.39729 15.1889 8.18386 15.1889 7.95243C15.1889 7.72101 15.2232 7.50758 15.2917 7.31815C15.256 7.31228 15.2199 7.30941 15.1837 7.30958H14.7552C14.2437 7.30958 13.7531 7.51277 13.3915 7.87444C13.0298 8.23612 12.8266 8.72666 12.8266 9.23815V11.5953H11.8203C11.8529 11.7984 11.8692 12.0127 11.8692 12.2381C11.8692 12.4636 11.8529 12.6779 11.8203 12.881Z" fill="#FA934E"/>
</g>
<defs>
<clipPath id="clip0_24368_48135">
<rect width="12" height="12" fill="white" transform="translate(6.19531 6.23828)"/>
</clipPath>
</defs>
</svg>
