<svg width="25" height="24" viewBox="0 0 25 24" fill="none" xmlns="http://www.w3.org/2000/svg">
<path d="M21.0469 12C21.0469 14.8117 20.9413 16.7841 20.8402 18.0268C20.7388 19.2759 19.775 20.2397 18.5258 20.3412C17.2832 20.4422 15.3107 20.5479 12.499 20.5479C9.68735 20.5479 7.71489 20.4422 6.47222 20.3412C5.22309 20.2397 4.25927 19.2759 4.15784 18.0268C4.05679 16.7841 3.95117 14.8117 3.95117 12C3.95117 9.18833 4.05679 7.21586 4.15784 5.97319C4.25927 4.72407 5.22309 3.76025 6.47222 3.65882C7.71489 3.55776 9.68735 3.45215 12.499 3.45215C15.3107 3.45215 17.2832 3.55776 18.5258 3.65882C19.775 3.76025 20.7388 4.72407 20.8402 5.97319C20.9413 7.21586 21.0469 9.18833 21.0469 12Z" fill="#FFCCA7"/>
<g clip-path="url(#clip0_24368_47834)">
<path fill-rule="evenodd" clip-rule="evenodd" d="M11.9772 7.08908C11.4629 6.9888 10.5543 6.83194 9.68692 6.7788C9.26994 6.7477 8.85097 6.75573 8.43549 6.8028C8.07549 6.8508 7.67777 6.95708 7.41635 7.21765C7.15492 7.47908 7.04949 7.87765 7.00149 8.23765C6.95448 8.65285 6.94644 9.07153 6.97749 9.48823C7.03063 10.3548 7.18749 11.2642 7.28777 11.7785C7.35806 12.1385 7.52606 12.4642 7.76349 12.7325C9.31697 14.4854 10.9621 16.1549 12.6921 17.7339C13.4549 18.4299 14.6078 18.4711 15.4298 17.8677C15.9123 17.5137 16.4121 17.1279 16.8698 16.6711C17.3266 16.2134 17.7123 15.7137 18.0663 15.2311C18.6698 14.4082 18.6286 13.2554 17.9326 12.4934C16.3536 10.7634 14.6841 9.11828 12.9312 7.5648C12.6616 7.3235 12.3321 7.15918 11.9772 7.08908Z" fill="#974EF2"/>
<path d="M10.7271 11.7785C11.5268 11.7785 11.9768 11.3285 11.9768 10.5288C11.9768 9.7282 11.5268 9.27734 10.7263 9.27734C9.92656 9.27734 9.47656 9.7282 9.47656 10.5288C9.47656 11.3285 9.92656 11.7785 10.7263 11.7785H10.7271Z" fill="#FA934E"/>
</g>
<defs>
<clipPath id="clip0_24368_47834">
<rect width="12" height="12" fill="white" transform="translate(6.72461 6.52588)"/>
</clipPath>
</defs>
</svg>
