<svg width="24" height="25" viewBox="0 0 24 25" fill="none" xmlns="http://www.w3.org/2000/svg">
<path d="M20.5469 12.7998C20.5469 15.6115 20.4413 17.5839 20.3402 18.8266C20.2388 20.0757 19.275 21.0396 18.0258 21.141C16.7832 21.242 14.8107 21.3477 11.999 21.3477C9.18735 21.3477 7.21489 21.242 5.97222 21.141C4.72309 21.0396 3.75927 20.0757 3.65784 18.8266C3.55679 17.5839 3.45117 15.6115 3.45117 12.7998C3.45117 9.98813 3.55679 8.01567 3.65784 6.773C3.75927 5.52387 4.72309 4.56006 5.97222 4.45862C7.21489 4.35757 9.18735 4.25195 11.999 4.25195C14.8107 4.25195 16.7832 4.35757 18.0258 4.45862C19.275 4.56006 20.2388 5.52387 20.3402 6.773C20.4413 8.01567 20.5469 9.98813 20.5469 12.7998Z" fill="#D1B9B0"/>
<g clip-path="url(#clip0_24368_47950)">
<path fill-rule="evenodd" clip-rule="evenodd" d="M11.4772 7.88889C10.9629 7.7886 10.0543 7.63174 9.18692 7.5786C8.76994 7.5475 8.35097 7.55554 7.93549 7.6026C7.57549 7.6506 7.17777 7.75689 6.91635 8.01746C6.65492 8.27889 6.54949 8.67746 6.50149 9.03746C6.45448 9.45265 6.44644 9.87134 6.47749 10.288C6.53063 11.1546 6.68749 12.064 6.78777 12.5783C6.85806 12.9383 7.02606 13.264 7.26349 13.5323C8.81697 15.2852 10.4621 16.9547 12.1921 18.5337C12.9549 19.2297 14.1078 19.2709 14.9298 18.6675C15.4123 18.3135 15.9121 17.9277 16.3698 17.4709C16.8266 17.0132 17.2123 16.5135 17.5663 16.0309C18.1698 15.208 18.1286 14.0552 17.4326 13.2932C15.8536 11.5632 14.1841 9.91809 12.4312 8.3646C12.1616 8.1233 11.8321 7.95899 11.4772 7.88889Z" fill="#977669"/>
<path d="M10.2271 12.5783C11.0268 12.5783 11.4768 12.1283 11.4768 11.3286C11.4768 10.528 11.0268 10.0771 10.2263 10.0771C9.42656 10.0771 8.97656 10.528 8.97656 11.3286C8.97656 12.1283 9.42656 12.5783 10.2263 12.5783H10.2271Z" fill="#BFA094"/>
</g>
<defs>
<clipPath id="clip0_24368_47950">
<rect width="12" height="12" fill="white" transform="translate(6.22461 7.32568)"/>
</clipPath>
</defs>
</svg>
