<svg width="24" height="25" viewBox="0 0 24 25" fill="none" xmlns="http://www.w3.org/2000/svg">
<path d="M20.5469 12.7998C20.5469 15.6115 20.4413 17.5839 20.3402 18.8266C20.2388 20.0757 19.275 21.0396 18.0258 21.141C16.7832 21.242 14.8107 21.3477 11.999 21.3477C9.18735 21.3477 7.21489 21.242 5.97222 21.141C4.72309 21.0396 3.75927 20.0757 3.65784 18.8266C3.55679 17.5839 3.45117 15.6115 3.45117 12.7998C3.45117 9.98813 3.55679 8.01567 3.65784 6.773C3.75927 5.52387 4.72309 4.56006 5.97222 4.45862C7.21489 4.35757 9.18735 4.25195 11.999 4.25195C14.8107 4.25195 16.7832 4.35757 18.0258 4.45862C19.275 4.56006 20.2388 5.52387 20.3402 6.773C20.4413 8.01567 20.5469 9.98813 20.5469 12.7998Z" fill="#FFCCA7"/>
<path d="M16.341 10.4442C16.1172 10.4641 15.9059 10.4602 15.7343 10.4488C15.4921 10.4325 15.3198 10.224 15.3019 9.98184C15.2876 9.77511 15.2612 9.56938 15.223 9.3657C15.2133 9.31645 15.188 9.27163 15.1509 9.23785C15.1137 9.20407 15.0667 9.1831 15.0168 9.17805C14.5083 9.12077 12.9117 8.97946 11.0668 9.19868C11.0668 9.19868 12.1522 10.197 13.7662 11.789C13.8992 11.9201 13.979 12.0958 13.9902 12.2822C14.0015 12.4686 13.9435 12.6526 13.8273 12.7988C12.2126 14.8252 11.2998 15.7336 11.2998 15.7336C13.0331 15.9493 14.504 15.8161 15.0035 15.7573C15.0565 15.751 15.1059 15.7274 15.1442 15.6902C15.1824 15.6529 15.2072 15.6041 15.2149 15.5513C15.2589 15.2585 15.2844 15.0085 15.2994 14.8171C15.318 14.5749 15.4921 14.3664 15.7345 14.3501C15.9267 14.3368 16.1196 14.3376 16.3117 14.3524C16.5225 14.3692 16.6824 14.5378 16.7104 14.7473C16.7786 15.259 16.8947 16.2945 16.9217 17.5826C16.9289 17.9118 16.7119 18.1888 16.3855 18.2305C15.7872 18.3069 14.599 18.4009 12.3717 18.4009C10.2966 18.4009 8.79549 18.3194 7.86797 18.2463C7.26532 18.199 6.88545 17.6226 7.17544 17.092C8.26693 15.0933 10.7638 12.7996 10.7638 12.7996C10.7638 12.7996 8.26668 10.5056 7.17544 8.50717C6.88545 7.97657 7.26532 7.40014 7.86797 7.35279C8.79575 7.27972 10.2969 7.19824 12.3719 7.19824C14.5987 7.19824 15.7872 7.29245 16.3855 7.36883C16.7119 7.41033 16.9294 7.68785 16.92 8.0168C16.8912 9.00034 16.7911 9.70661 16.7239 10.0837C16.6893 10.2774 16.537 10.4266 16.341 10.4442Z" fill="#974EF2"/>
</svg>
