<svg width="24" height="25" viewBox="0 0 24 25" fill="none" xmlns="http://www.w3.org/2000/svg">
<path d="M20.5469 12.7996C20.5469 15.6112 20.4413 17.5837 20.3402 18.8264C20.2388 20.0755 19.275 21.0393 18.0258 21.1407C16.7832 21.2418 14.8107 21.3474 11.999 21.3474C9.18735 21.3474 7.21489 21.2418 5.97222 21.1407C4.72309 21.0393 3.75927 20.0755 3.65784 18.8264C3.55679 17.5837 3.45117 15.6112 3.45117 12.7996C3.45117 9.98789 3.55679 8.01542 3.65784 6.77276C3.75927 5.52363 4.72309 4.55981 5.97222 4.45838C7.21489 4.35732 9.18735 4.25171 11.999 4.25171C14.8107 4.25171 16.7832 4.35732 18.0258 4.45838C19.275 4.55981 20.2388 5.52363 20.3402 6.77276C20.4413 8.01542 20.5469 9.98789 20.5469 12.7996Z" fill="#D1B9B0"/>
<g clip-path="url(#clip0_24368_47819)">
<path fill-rule="evenodd" clip-rule="evenodd" d="M6.94322 14.7221C6.44608 14.225 6.19922 13.5075 6.19922 12.6307C6.19922 11.7538 6.44693 11.0364 6.94322 10.5393C7.44036 10.043 8.15608 9.79526 9.03465 9.79526C9.91236 9.79526 10.6289 10.0438 11.1252 10.5401C11.6224 11.0364 11.8692 11.753 11.8692 12.6307C11.8692 13.5084 11.6215 14.225 11.1252 14.7221C10.6281 15.2184 9.91236 15.4661 9.03379 15.4661C8.15608 15.4661 7.4395 15.2175 6.94322 14.7213V14.7221ZM15.5858 18.0195C15.3166 17.7495 15.1889 17.3673 15.1889 16.9164C15.1889 16.4655 15.3166 16.0833 15.5858 15.8133C15.8558 15.5441 16.2381 15.4164 16.6889 15.4164C17.1398 15.4164 17.5221 15.5441 17.7921 15.8133C18.0612 16.0833 18.1889 16.4655 18.1889 16.9164C18.1889 17.3673 18.0612 17.7495 17.7921 18.0195C17.5221 18.2887 17.1406 18.4164 16.6889 18.4164C16.2381 18.4164 15.8558 18.2887 15.5858 18.0195ZM15.1889 12.6307C15.1889 13.0815 15.3166 13.4638 15.5858 13.7338C15.8558 14.003 16.2381 14.1307 16.6889 14.1307C17.1398 14.1307 17.5221 14.003 17.7921 13.7338C18.0612 13.4638 18.1889 13.0815 18.1889 12.6307C18.1889 12.1798 18.0612 11.7975 17.7921 11.5275C17.5221 11.2584 17.1406 11.1307 16.6889 11.1307C16.2381 11.1307 15.8558 11.2584 15.5858 11.5275C15.3166 11.7975 15.1889 12.1798 15.1889 12.6307ZM15.5858 9.44811C15.3166 9.17811 15.1889 8.79583 15.1889 8.34497C15.1889 7.89411 15.3166 7.51183 15.5858 7.24183C15.8558 6.97269 16.2381 6.84497 16.6889 6.84497C17.1398 6.84497 17.5221 6.97269 17.7921 7.24183C18.0612 7.51183 18.1889 7.89411 18.1889 8.34497C18.1889 8.79583 18.0612 9.17811 17.7921 9.44811C17.5221 9.71726 17.1406 9.84497 16.6889 9.84497C16.2381 9.84497 15.8558 9.71726 15.5858 9.44811Z" fill="#977669"/>
<path fill-rule="evenodd" clip-rule="evenodd" d="M11.8203 13.2736H12.8266V15.6307C12.8266 16.1422 13.0298 16.6328 13.3915 16.9944C13.7531 17.3561 14.2437 17.5593 14.7552 17.5593H15.1837C15.2199 17.5595 15.256 17.5566 15.2917 17.5507C15.2232 17.3613 15.1889 17.1479 15.1889 16.9164C15.1889 16.685 15.2232 16.4716 15.2917 16.2822C15.256 16.2763 15.2199 16.2734 15.1837 16.2736H14.7552C14.5847 16.2736 14.4212 16.2059 14.3006 16.0853C14.18 15.9647 14.1123 15.8012 14.1123 15.6307V13.2736H15.1837C15.2199 13.2737 15.256 13.2709 15.2917 13.265C15.2232 13.0756 15.1889 12.8622 15.1889 12.6307C15.1889 12.3993 15.2232 12.1859 15.2917 11.9964C15.256 11.9906 15.2199 11.9877 15.1837 11.9879H14.1123V9.63073C14.1123 9.46023 14.18 9.29672 14.3006 9.17616C14.4212 9.0556 14.5847 8.98787 14.7552 8.98787H15.1837C15.2199 8.98804 15.256 8.98517 15.2917 8.9793C15.2232 8.78987 15.1889 8.57644 15.1889 8.34501C15.1889 8.11358 15.2232 7.90016 15.2917 7.71073C15.256 7.70486 15.2199 7.70199 15.1837 7.70216H14.7552C14.2437 7.70216 13.7531 7.90534 13.3915 8.26702C13.0298 8.6287 12.8266 9.11924 12.8266 9.63073V11.9879H11.8203C11.8529 12.191 11.8692 12.4053 11.8692 12.6307C11.8692 12.8562 11.8529 13.0704 11.8203 13.2736Z" fill="#BFA094"/>
</g>
<defs>
<clipPath id="clip0_24368_47819">
<rect width="12" height="12" fill="white" transform="translate(6.19531 6.63086)"/>
</clipPath>
</defs>
</svg>
