<svg width="21" height="21" viewBox="0 0 21 21" fill="none" xmlns="http://www.w3.org/2000/svg">
<g id="stackshare-line">
<path id="Vector" d="M8.37635 11.3333L6.53716 11.3341C6.19375 12.3047 5.26792 13 4.17969 13C2.79897 13 1.67969 11.8807 1.67969 10.5C1.67969 9.11925 2.79897 8 4.17969 8C5.26823 8 6.19428 8.69571 6.53745 9.66675L8.37635 9.66667L11.263 4.66667L13.9052 4.66674C14.2485 3.69571 15.1745 3 16.263 3C17.6437 3 18.763 4.11929 18.763 5.5C18.763 6.88071 17.6437 8 16.263 8C15.1748 8 14.249 7.30468 13.9055 6.33408L12.2247 6.33333L9.8197 10.4992L12.2255 14.6667L13.9052 14.6667C14.2485 13.6957 15.1745 13 16.263 13C17.6437 13 18.763 14.1192 18.763 15.5C18.763 16.8807 17.6437 18 16.263 18C15.1748 18 14.249 17.3047 13.9055 16.3341L11.263 16.3333L8.37635 11.3333ZM16.263 14.6667C15.8028 14.6667 15.4297 15.0398 15.4297 15.5C15.4297 15.9602 15.8028 16.3333 16.263 16.3333C16.7233 16.3333 17.0964 15.9602 17.0964 15.5C17.0964 15.0398 16.7233 14.6667 16.263 14.6667ZM4.17969 9.66667C3.71945 9.66667 3.34635 10.0397 3.34635 10.5C3.34635 10.9602 3.71945 11.3333 4.17969 11.3333C4.63992 11.3333 5.01302 10.9602 5.01302 10.5C5.01302 10.0397 4.63992 9.66667 4.17969 9.66667ZM16.263 4.66667C15.8028 4.66667 15.4297 5.03977 15.4297 5.5C15.4297 5.96023 15.8028 6.33333 16.263 6.33333C16.7233 6.33333 17.0964 5.96023 17.0964 5.5C17.0964 5.03977 16.7233 4.66667 16.263 4.66667Z" fill="#1F1206"/>
</g>
</svg>
