<svg xmlns="http://www.w3.org/2000/svg" width="22" height="25" viewBox="0 0 22 25" fill="none">
  <path d="M3.23936 12.6836C3.62012 11.2156 4.33876 9.85691 5.33793 8.71599C5.0152 8.4623 3.73639 7.41302 3.67599 6.58981C3.58279 5.24024 4.86333 0.703125 4.86333 0.703125C4.86333 0.703125 0.997553 5.66651 0.730055 7.67361C0.516056 9.24581 2.95978 12.3695 3.21693 12.6888V12.6836H3.23936ZM18.9683 12.6025V12.6111C18.9683 12.618 18.9734 12.6232 18.9734 12.6284C19.4014 12.0865 21.6139 9.17678 21.412 7.67189C21.1462 5.66651 17.2804 0.703125 17.2804 0.703125C17.2804 0.703125 18.561 5.24024 18.4678 6.58809C18.4126 7.3785 17.2476 8.36566 16.8593 8.6763C17.8608 9.80157 18.5821 11.1465 18.9683 12.6025Z" fill="#451E11"/>
  <path d="M18.9674 12.6076V12.5973C18.5785 11.1423 17.8559 9.79801 16.8568 8.67108C15.3553 6.99706 13.3085 5.99609 11.1047 5.99609V11.3564H11.1116C11.6518 11.3633 12.0901 11.8293 12.0901 12.4005C12.0901 12.4696 12.0849 12.5334 12.0729 12.5973C12.0357 12.8279 11.9195 13.0384 11.7441 13.1927C11.5687 13.347 11.3451 13.4355 11.1116 13.4429H11.0943V15.4327L11.084 24.8521H11.2738C11.2738 24.8521 13.3534 21.6818 14.4734 20.7775C15.785 19.7162 18.9674 18.4011 18.9674 18.4011V12.6715L18.9847 12.6663C18.9778 12.6542 18.9778 12.637 18.9726 12.6249C18.9726 12.6197 18.9726 12.6145 18.9674 12.6076Z" fill="#451E11"/>
  <path d="M11.0938 15.4379V13.4498C10.8738 13.4438 10.662 13.3655 10.4911 13.227C10.3201 13.0885 10.1996 12.8975 10.148 12.6836C10.124 12.5935 10.1112 12.5007 10.1101 12.4074C10.1101 11.8293 10.5536 11.3633 11.099 11.3633H11.1059V6.01855C8.88994 6.01855 6.8397 7.02815 5.33653 8.71597C4.33619 9.85608 3.61739 11.2151 3.23796 12.6836H3.2207V18.4892C3.2207 18.4892 6.40307 19.8025 7.71467 20.8638C8.80193 21.744 10.9022 24.8642 10.9022 24.8642H11.099V24.8591H11.0886L11.0938 15.4379Z" fill="#451E11"/>
</svg>