<svg xmlns="http://www.w3.org/2000/svg" width="16" height="24" viewBox="0 0 16 24" fill="none">
  <path fill-rule="evenodd" clip-rule="evenodd" d="M0.558676 7.73693C0.381589 7.91387 0.381468 8.20086 0.558404 8.37795L2.29685 10.1179C2.47379 10.295 2.76078 10.2951 2.93787 10.1181L9.84491 3.21696C10.022 3.04002 10.0221 2.75303 9.84518 2.57594L8.10674 0.83602C7.9298 0.658933 7.64281 0.658811 7.46572 0.835747L0.558676 7.73693ZM0.558404 14.5099C0.381468 14.3329 0.381589 14.0459 0.558676 13.8689L7.464 6.96946C7.64108 6.79252 7.92808 6.79264 8.10501 6.96973L9.84346 8.70965C10.0204 8.88674 10.0203 9.17373 9.84319 9.35067L2.93787 16.2501C2.76078 16.4271 2.47379 16.4269 2.29685 16.2499L0.558404 14.5099ZM5.67615 15.4868C5.67615 15.3657 5.7246 15.2497 5.81069 15.1645L7.54705 13.4474C7.72241 13.274 8.00425 13.2726 8.18131 13.4443L9.9549 15.1641C10.0429 15.2494 10.0926 15.3668 10.0926 15.4895V22.7973C10.0926 23.0476 9.8897 23.2506 9.63937 23.2506H6.12942C5.87908 23.2506 5.67615 23.0476 5.67615 22.7973V15.4868ZM13.5052 10.1172C13.3281 10.294 13.0411 10.2937 12.8642 10.1165L8.95613 6.20054C8.7793 6.02335 8.77959 5.73636 8.95678 5.55953L10.5888 3.9308C10.766 3.75397 11.053 3.75425 11.2298 3.93144L15.1379 7.84744C15.3147 8.02463 15.3145 8.31162 15.1373 8.48845L13.5052 10.1172ZM12.8642 16.2825C13.0411 16.4597 13.3281 16.4599 13.5052 16.2831L15.1494 14.6423C15.3266 14.4654 15.3269 14.1784 15.15 14.0013L11.2419 10.0853C11.0651 9.90808 10.7781 9.90779 10.6009 10.0846L8.95678 11.7255C8.77959 11.9023 8.7793 12.1893 8.95613 12.3665L12.8642 16.2825Z" fill="#451E11"/>
</svg>