<svg xmlns="http://www.w3.org/2000/svg" width="21" height="22" viewBox="0 0 21 22" fill="none">
  <path fill-rule="evenodd" clip-rule="evenodd" d="M12.9334 3.86484C12.9334 1.69309 13.4931 0.283691 14.1409 0.283691C16.6567 0.283691 20.2793 11.1809 20.2793 13.2373C20.2793 15.2938 16.2479 21.2837 10.2793 21.2837C4.31074 21.2837 0.279297 15.2938 0.279297 13.2373C0.279297 11.1809 3.90823 0.283691 6.41766 0.283691C7.05917 0.283691 7.62521 1.69309 7.62521 3.86484C8.44911 3.66624 9.32961 3.55733 10.2793 3.55733C11.229 3.55733 12.1095 3.66624 12.9334 3.86484ZM5.97305 7.62744C6.08709 7.55144 6.23417 7.49808 6.37584 7.48131C6.43954 7.47377 7.2617 7.47405 7.29722 7.48163C7.43765 7.51158 7.52835 7.65616 7.49486 7.7967C7.49064 7.81438 7.28298 8.40246 7.03339 9.10352C6.7838 9.80459 6.56894 10.4161 6.55592 10.4624C6.54291 10.5088 6.52395 10.5627 6.51381 10.5822C6.47586 10.6552 6.39553 10.7175 6.32096 10.7316C6.30091 10.7355 5.89436 10.7375 5.16417 10.7375C4.16515 10.7375 4.03444 10.7365 4.00408 10.7284C3.86549 10.6917 3.78541 10.5395 3.83264 10.4027C3.84271 10.3735 3.9289 10.2085 4.00773 10.0674C4.33199 9.48732 4.74981 8.89298 5.18072 8.39889C5.4629 8.07535 5.81421 7.73329 5.97305 7.62744ZM8.92733 7.61316C8.9553 7.55718 9.02359 7.50256 9.08658 7.48581C9.12144 7.47654 9.20836 7.47579 10.2767 7.47548C11.4128 7.47514 11.478 7.47297 11.5227 7.50221C11.5286 7.50607 11.5342 7.51048 11.5418 7.51551C11.5802 7.54096 11.6181 7.58108 11.6343 7.61341C11.6568 7.6586 12.6298 10.4024 12.6359 10.4379C12.653 10.5383 12.5934 10.6582 12.5031 10.7048C12.4966 10.7081 12.4923 10.7111 12.4878 10.7138C12.4446 10.7396 12.3848 10.7375 10.2807 10.7375C8.17664 10.7375 8.11686 10.7396 8.07365 10.7138C8.06915 10.7111 8.06483 10.7081 8.0584 10.7048C7.96812 10.6582 7.90849 10.5384 7.92559 10.4379C7.93165 10.4023 8.90471 7.65846 8.92733 7.61316ZM13.0602 7.75254C13.0524 7.62621 13.1345 7.51348 13.2566 7.48329C13.2945 7.47391 14.1 7.47217 14.1826 7.48129C14.3737 7.50241 14.5428 7.57788 14.7001 7.71231C15.264 8.19424 15.9161 8.99733 16.4089 9.81669C16.536 10.028 16.7192 10.3644 16.7336 10.413C16.7453 10.4527 16.742 10.5365 16.7271 10.5753C16.7027 10.6388 16.6483 10.694 16.583 10.7214L16.5514 10.7346L15.4123 10.7361C14.6618 10.7371 14.2624 10.7356 14.2414 10.7317C14.1656 10.7176 14.0856 10.6559 14.0475 10.5822C14.0375 10.5627 14.0188 10.5095 14.006 10.4641C13.9933 10.4187 13.9749 10.3597 13.9652 10.333C13.9555 10.3063 13.7486 9.72534 13.5054 9.04202C13.0876 7.86814 13.063 7.79703 13.0602 7.75254ZM4.00855 12.3857C3.95729 12.2462 4.035 12.0885 4.17364 12.0507C4.20093 12.0432 4.36815 12.042 5.41055 12.0418C6.20329 12.0417 6.62452 12.0436 6.64107 12.0475C6.70414 12.0623 6.77093 12.1127 6.80357 12.17C6.82064 12.2 8.41124 17.2406 8.42522 17.309C8.44211 17.3916 8.41837 17.4703 8.35798 17.532C8.28171 17.6099 8.17444 17.6293 8.0806 17.582C8.03286 17.558 8.01205 17.5373 7.80371 17.3061C6.65735 16.0344 5.51552 14.5987 4.57441 13.2457C4.32107 12.8815 4.02586 12.4328 4.00855 12.3857ZM8.23343 12.1915C8.26796 12.1203 8.32648 12.0698 8.39748 12.0498C8.41869 12.0438 8.79385 12.0425 10.2925 12.0433L12.1611 12.0442L12.2054 12.0665C12.2625 12.0953 12.2998 12.1333 12.328 12.1915C12.3492 12.2351 12.3499 12.2385 12.3499 12.2983L12.3498 12.3599L11.4351 15.2598C10.932 16.8548 10.5145 18.1717 10.5072 18.1863C10.4606 18.2806 10.3454 18.34 10.2434 18.3222C10.164 18.3084 10.0911 18.2565 10.0561 18.189C10.0477 18.1729 9.62931 16.8548 9.12623 15.2598L8.21156 12.3599V12.2982C8.21156 12.2386 8.21227 12.2351 8.23343 12.1915ZM13.7541 12.1823C13.7854 12.1191 13.8458 12.0688 13.9134 12.0497C13.9345 12.0438 14.1856 12.0425 15.1595 12.0433L16.3792 12.0442L16.4108 12.0573C16.476 12.0844 16.5283 12.1398 16.5551 12.2102C16.573 12.2572 16.5726 12.335 16.5543 12.3833C16.5298 12.4479 16.1133 13.0713 15.7947 13.5203C14.8731 14.8192 13.7817 16.1763 12.6913 17.3792C12.5401 17.5461 12.5229 17.5624 12.475 17.5853C12.2984 17.6694 12.0928 17.5 12.1362 17.3061C12.1529 17.2316 13.7351 12.2207 13.7541 12.1823Z" fill="#451E11"/>
</svg>