<svg width="292" height="103" viewBox="0 0 292 103" fill="none" xmlns="http://www.w3.org/2000/svg">
<path d="M42.9681 6.86719C40.6339 8.43502 38.0541 10.3765 35.975 12.542C32.2859 16.3842 28.6273 20.7157 25.4828 25.0496C23.3586 27.9774 20.6026 32.4201 19.0968 35.6881C17.093 40.0372 15.9061 43.0841 14.8063 47.8625C13.257 54.5942 13.4706 61.5027 15.0442 68.0156C17.3594 77.5975 24.7689 85.6147 32.1733 92.1226C37.9657 97.2133 45.7535 100.544 52.5959 102.99L53.3029 101.122C46.5231 98.6991 39.3371 95.4631 33.7857 90.5783C26.6445 84.294 20.0485 76.6304 17.2032 67.4982C15.4703 61.9392 15.068 55.84 15.9772 49.9336C16.7738 44.7595 18.7763 39.574 20.727 34.8593C22.3307 30.9836 24.2006 27.9643 26.4814 24.7844C29.3733 20.7522 32.5511 16.82 35.9291 13.2296C38.1158 10.9055 41.0403 8.80729 43.389 7.22974L42.9681 6.86719Z" fill="#846358"/>
<path d="M40.003 97.2793C40.003 97.2793 35.1969 95.7599 31.3829 96.2075C25.3277 96.9181 24.7695 100.677 24.7695 100.677C24.7695 100.677 27.1987 102.185 32.409 101.612C38.5128 100.941 40.0028 97.2793 40.0028 97.2793L40.003 97.2793Z" fill="#846358"/>
<path d="M31.8179 91.6665C31.8179 91.6665 27.7676 89.7453 23.9275 89.7738C17.2794 89.823 16.8809 93.3541 16.8809 93.3541C16.8809 93.3541 19.2872 95.0902 24.6116 95.0189C30.7517 94.9365 31.8179 91.6665 31.8179 91.6665Z" fill="#846358"/>
<path d="M25.7646 85.7635C25.7646 85.7635 21.9134 82.3882 18.1884 81.4548C11.7395 79.839 9.60352 83.5913 9.60352 83.5913C9.60352 83.5913 12.0007 86.4673 17.1735 87.7304C23.1387 89.187 25.7646 85.7635 25.7646 85.7635Z" fill="#846358"/>
<path d="M18.9266 76.6662C18.9266 76.6662 15.6331 73.1945 11.1246 71.8093C5.24082 70.0015 2.47524 73.5507 2.39453 73.6395C2.39453 73.6395 4.80548 76.674 9.83553 78.0043C16.5825 79.7887 18.9266 76.6662 18.9266 76.6662Z" fill="#846358"/>
<path d="M15.6699 69.4301C15.6699 69.4301 12.6025 64.7592 8.02749 62.5545C3.58322 60.4116 0.336441 62.2365 0.255859 62.308C0.255859 62.308 2.53885 66.4802 6.73907 68.4794C12.4458 71.1958 15.6705 69.4297 15.6705 69.4297L15.6699 69.4301Z" fill="#846358"/>
<path d="M14.6808 63.0786C13.0436 61.5385 12.9217 57.3523 10.5816 53.9553C7.31709 49.2162 1.93214 49.5597 1.85156 49.6044C1.85156 49.6044 2.42805 55.5087 6.51038 59.0773C10.8489 62.8698 14.6807 63.079 14.6807 63.079L14.6808 63.0786Z" fill="#846358"/>
<path d="M14.2298 53.1286C14.2298 53.1286 14.3887 47.9967 13.0354 44.0997C11.1475 38.6634 5.99398 37.5962 5.90446 37.6175C5.90446 37.6175 5.0687 43.4305 8.05603 47.9555C11.2309 52.7645 14.2298 53.1284 14.2298 53.1284L14.2298 53.1286Z" fill="#846358"/>
<path d="M16.4125 43.5095C16.4125 43.5095 17.4405 39.2014 16.9197 35.1091C16.1348 28.9413 11.3352 27.6356 11.2435 27.6446C11.2435 27.6446 9.59812 33.3572 11.9388 38.2481C14.4264 43.4459 16.4125 43.5095 16.4125 43.5095Z" fill="#846358"/>
<path d="M20.6408 33.1842C20.6408 33.1842 22.3123 29.2871 22.0982 25.1675C21.8009 19.45 17.9267 17.0346 17.8347 17.0312C17.8347 17.0312 14.0992 20.3993 16.2447 27.6493C17.5461 32.0471 20.6409 33.1843 20.6409 33.1843L20.6408 33.1842Z" fill="#846358"/>
<path d="M26.0185 24.693C26.0185 24.693 28.5025 20.8667 29.1897 16.799C29.8348 12.9802 28.2855 8.81985 27.9396 8.4375C27.9396 8.4375 23.8977 10.2139 24.0491 17.0313C24.1509 21.6165 26.0185 24.693 26.0185 24.693Z" fill="#846358"/>
<path d="M32.6278 16.5023C32.6278 16.5023 35.5895 13.3484 36.361 9.03588C36.9995 5.46217 36.3559 1.57866 35.6829 0.609375C35.6829 0.609375 31.8198 3.00959 31.5391 9.07968C31.3273 13.6611 32.3215 15.8417 32.6278 16.5028L32.6278 16.5023Z" fill="#846358"/>
<path d="M37.4219 11.476C37.4219 11.476 43.0663 11.6799 45.8716 10.0511C49.0118 8.22803 52.0933 4.27083 52.3364 3.11561C52.3364 3.11561 47.3927 0.947811 42.7833 4.90757C39.3044 7.89612 37.6927 10.7995 37.4219 11.476Z" fill="#846358"/>
<path d="M31.2033 18.2893C31.2033 18.2893 33.9031 15.1283 38.5423 14.3116C42.1183 13.6822 44.8675 14.2634 46.6325 15.2918C46.6325 15.2918 43.9095 18.7804 38.6905 19.2614C34.1235 19.6822 31.8741 18.5736 31.2031 18.2892L31.2033 18.2893Z" fill="#846358"/>
<path d="M25.6232 25.5736C25.6232 25.5736 28.1939 22.5417 32.8333 21.7251C36.4093 21.0957 38.1264 21.7414 39.8914 22.7698C39.8914 22.7698 37.7167 26.0973 32.4977 26.5781C27.9307 26.9989 26.294 25.8581 25.623 25.5737L25.6232 25.5736Z" fill="#846358"/>
<path d="M20.207 35.0845C20.207 35.0845 22.6085 31.3476 26.9509 29.5214C31.4005 27.65 33.6859 28.5436 35.5997 29.258C34.9894 30.1735 32.4918 33.9895 28.4424 35.135C24.0292 36.3835 20.9164 35.2511 20.207 35.0845Z" fill="#846358"/>
<path d="M16.9922 43.5275C16.9922 43.5275 19.1203 39.6284 23.3207 37.4963C27.6252 35.3114 29.9686 36.0392 31.9286 36.6148C31.3853 37.5716 29.1671 41.5565 25.21 42.9889C20.8974 44.5498 17.7117 43.6429 16.9922 43.5275Z" fill="#846358"/>
<path d="M15.3047 53.5607C17.1463 51.1996 18.1475 48.6612 20.9811 46.1348C24.472 43.0222 27.4675 44.0145 29.5004 44.2155C28.4996 46.0952 26.997 49.0687 23.8916 51.309C20.172 53.9922 16.0331 53.5404 15.3047 53.5609V53.5607Z" fill="#846358"/>
<path d="M15.5332 62.808C17.0991 60.2557 17.8422 58.2661 20.3753 55.4385C23.496 51.955 26.4547 52.5734 28.4973 52.5457C27.7132 54.5255 26.3915 57.4873 23.5562 60.061C20.1602 63.1436 16.2546 62.7062 15.5332 62.808Z" fill="#846358"/>
<path d="M17.5469 70.1808C19.9028 66.5436 19.6055 65.7204 21.9113 62.7047C24.3878 59.4658 27.5157 59.5548 29.5495 59.3633C28.9267 61.3997 27.996 64.1544 25.3561 66.9282C22.5408 69.8862 19.6125 69.5054 17.547 70.1808H17.5469Z" fill="#846358"/>
<path d="M21.418 77.4039C22.9032 74.186 22.6467 72.1766 24.0086 69.8956C26.236 66.165 28.4197 66.0039 30.4535 65.8125C28.8313 70.4605 29.2068 70.4819 27.421 73.3129C25.6833 76.0676 23.3222 76.4383 21.418 77.404V77.4039Z" fill="#846358"/>
<path d="M26.084 83.4808C26.9304 80.0391 26.071 78.9859 26.9745 76.4876C28.4522 72.4016 30.5654 71.8285 32.5257 71.2539C32.3003 73.9969 32.6406 75.7371 31.1032 78.7102C30.0175 80.8097 27.7699 82.1708 26.084 83.4808Z" fill="#846358"/>
<path d="M35.4896 76.7228C35.4896 76.7228 37.1872 80.0002 36.6233 83.7987C35.8243 89.1807 32.9483 89.987 32.9483 89.987C32.9483 89.987 31.3102 87.5408 31.4767 82.5773C31.6545 77.2755 35.4896 76.7227 35.4896 76.7227L35.4896 76.7228Z" fill="#846358"/>
<path d="M41.6174 82.2031C41.6174 82.2031 43.3162 85.5214 42.9446 89.3436C42.4682 94.2419 39.7857 95.4675 39.7857 95.4675C39.7857 95.4675 38.0959 92.7331 38.0239 88.6061C37.914 82.3044 41.6175 82.2032 41.6175 82.2032L41.6174 82.2031Z" fill="#846358"/>
<path d="M63.7321 36.1248C63.7321 36.7968 63.5701 37.4268 63.2461 38.0148C62.9341 38.6028 62.4361 39.0768 61.7521 39.4368C61.0801 39.7968 60.2281 39.9768 59.1961 39.9768H57.0901V44.8008H54.5701V32.2368H59.1961C60.1681 32.2368 60.9961 32.4048 61.6801 32.7408C62.3641 33.0768 62.8741 33.5388 63.2101 34.1268C63.5581 34.7148 63.7321 35.3808 63.7321 36.1248ZM59.0881 37.9428C59.7841 37.9428 60.3001 37.7868 60.6361 37.4748C60.9721 37.1508 61.1401 36.7008 61.1401 36.1248C61.1401 34.9008 60.4561 34.2888 59.0881 34.2888H57.0901V37.9428H59.0881ZM67.5413 42.8028H71.6813V44.8008H65.0213V32.2368H67.5413V42.8028ZM81.531 36.0168C81.243 35.4888 80.847 35.0868 80.343 34.8108C79.839 34.5348 79.251 34.3968 78.579 34.3968C77.835 34.3968 77.175 34.5648 76.599 34.9008C76.023 35.2368 75.573 35.7168 75.249 36.3408C74.925 36.9648 74.763 37.6848 74.763 38.5008C74.763 39.3408 74.925 40.0728 75.249 40.6968C75.585 41.3208 76.047 41.8008 76.635 42.1368C77.223 42.4728 77.907 42.6408 78.687 42.6408C79.647 42.6408 80.433 42.3888 81.045 41.8848C81.657 41.3688 82.059 40.6548 82.251 39.7428H77.931V37.8168H84.735V40.0128C84.567 40.8888 84.207 41.6988 83.655 42.4428C83.103 43.1868 82.389 43.7868 81.513 44.2428C80.649 44.6868 79.677 44.9088 78.597 44.9088C77.385 44.9088 76.287 44.6388 75.303 44.0988C74.331 43.5468 73.563 42.7848 72.999 41.8128C72.447 40.8408 72.171 39.7368 72.171 38.5008C72.171 37.2648 72.447 36.1608 72.999 35.1888C73.563 34.2048 74.331 33.4428 75.303 32.9028C76.287 32.3508 77.379 32.0748 78.579 32.0748C79.995 32.0748 81.225 32.4228 82.269 33.1188C83.313 33.8028 84.033 34.7688 84.429 36.0168H81.531ZM96.3685 44.8008L93.5965 39.9048H92.4085V44.8008H89.8885V32.2368H94.6045C95.5765 32.2368 96.4045 32.4108 97.0885 32.7588C97.7725 33.0948 98.2825 33.5568 98.6185 34.1448C98.9665 34.7208 99.1405 35.3688 99.1405 36.0888C99.1405 36.9168 98.9005 37.6668 98.4205 38.3388C97.9405 38.9988 97.2265 39.4548 96.2785 39.7068L99.2845 44.8008H96.3685ZM92.4085 38.0148H94.5145C95.1985 38.0148 95.7085 37.8528 96.0445 37.5288C96.3805 37.1928 96.5485 36.7308 96.5485 36.1428C96.5485 35.5668 96.3805 35.1228 96.0445 34.8108C95.7085 34.4868 95.1985 34.3248 94.5145 34.3248H92.4085V38.0148ZM102.198 33.6408C101.754 33.6408 101.382 33.5028 101.082 33.2268C100.794 32.9388 100.65 32.5848 100.65 32.1648C100.65 31.7448 100.794 31.3968 101.082 31.1208C101.382 30.8328 101.754 30.6888 102.198 30.6888C102.642 30.6888 103.008 30.8328 103.296 31.1208C103.596 31.3968 103.746 31.7448 103.746 32.1648C103.746 32.5848 103.596 32.9388 103.296 33.2268C103.008 33.5028 102.642 33.6408 102.198 33.6408ZM103.44 34.8288V44.8008H100.92V34.8288H103.44ZM109.246 44.9628C108.43 44.9628 107.698 44.8188 107.05 44.5308C106.402 44.2308 105.886 43.8288 105.502 43.3248C105.13 42.8208 104.926 42.2628 104.89 41.6508H107.428C107.476 42.0348 107.662 42.3528 107.986 42.6048C108.322 42.8568 108.736 42.9828 109.228 42.9828C109.708 42.9828 110.08 42.8868 110.344 42.6948C110.62 42.5028 110.758 42.2568 110.758 41.9568C110.758 41.6328 110.59 41.3928 110.254 41.2368C109.93 41.0688 109.408 40.8888 108.688 40.6968C107.944 40.5168 107.332 40.3308 106.852 40.1388C106.384 39.9468 105.976 39.6528 105.628 39.2568C105.292 38.8608 105.124 38.3268 105.124 37.6548C105.124 37.1028 105.28 36.5988 105.592 36.1428C105.916 35.6868 106.372 35.3268 106.96 35.0628C107.56 34.7988 108.262 34.6668 109.066 34.6668C110.254 34.6668 111.202 34.9668 111.91 35.5668C112.618 36.1548 113.008 36.9528 113.08 37.9608H110.668C110.632 37.5648 110.464 37.2528 110.164 37.0248C109.876 36.7848 109.486 36.6648 108.994 36.6648C108.538 36.6648 108.184 36.7488 107.932 36.9168C107.692 37.0848 107.572 37.3188 107.572 37.6188C107.572 37.9548 107.74 38.2128 108.076 38.3928C108.412 38.5608 108.934 38.7348 109.642 38.9148C110.362 39.0948 110.956 39.2808 111.424 39.4728C111.892 39.6648 112.294 39.9648 112.63 40.3728C112.978 40.7688 113.158 41.2968 113.17 41.9568C113.17 42.5328 113.008 43.0488 112.684 43.5048C112.372 43.9608 111.916 44.3208 111.316 44.5848C110.728 44.8368 110.038 44.9628 109.246 44.9628ZM116.016 33.6408C115.572 33.6408 115.2 33.5028 114.9 33.2268C114.612 32.9388 114.468 32.5848 114.468 32.1648C114.468 31.7448 114.612 31.3968 114.9 31.1208C115.2 30.8328 115.572 30.6888 116.016 30.6888C116.46 30.6888 116.826 30.8328 117.114 31.1208C117.414 31.3968 117.564 31.7448 117.564 32.1648C117.564 32.5848 117.414 32.9388 117.114 33.2268C116.826 33.5028 116.46 33.6408 116.016 33.6408ZM117.258 34.8288V44.8008H114.738V34.8288H117.258ZM124.774 34.6848C125.962 34.6848 126.922 35.0628 127.654 35.8188C128.386 36.5628 128.752 37.6068 128.752 38.9508V44.8008H126.232V39.2928C126.232 38.5008 126.034 37.8948 125.638 37.4748C125.242 37.0428 124.702 36.8268 124.018 36.8268C123.322 36.8268 122.77 37.0428 122.362 37.4748C121.966 37.8948 121.768 38.5008 121.768 39.2928V44.8008H119.248V34.8288H121.768V36.0708C122.104 35.6388 122.53 35.3028 123.046 35.0628C123.574 34.8108 124.15 34.6848 124.774 34.6848ZM134.554 34.6668C135.298 34.6668 135.952 34.8168 136.516 35.1168C137.08 35.4048 137.524 35.7828 137.848 36.2508V34.8288H140.386V44.8728C140.386 45.7968 140.2 46.6188 139.828 47.3388C139.456 48.0708 138.898 48.6468 138.154 49.0668C137.41 49.4988 136.51 49.7148 135.454 49.7148C134.038 49.7148 132.874 49.3848 131.962 48.7248C131.062 48.0648 130.552 47.1648 130.432 46.0248H132.934C133.066 46.4808 133.348 46.8408 133.78 47.1048C134.224 47.3808 134.758 47.5188 135.382 47.5188C136.114 47.5188 136.708 47.2968 137.164 46.8528C137.62 46.4208 137.848 45.7608 137.848 44.8728V43.3248C137.524 43.7928 137.074 44.1828 136.498 44.4948C135.934 44.8068 135.286 44.9628 134.554 44.9628C133.714 44.9628 132.946 44.7468 132.25 44.3148C131.554 43.8828 131.002 43.2768 130.594 42.4968C130.198 41.7048 130 40.7988 130 39.7788C130 38.7708 130.198 37.8768 130.594 37.0968C131.002 36.3168 131.548 35.7168 132.232 35.2968C132.928 34.8768 133.702 34.6668 134.554 34.6668ZM137.848 39.8148C137.848 39.2028 137.728 38.6808 137.488 38.2488C137.248 37.8048 136.924 37.4688 136.516 37.2408C136.108 37.0008 135.67 36.8808 135.202 36.8808C134.734 36.8808 134.302 36.9948 133.906 37.2228C133.51 37.4508 133.186 37.7868 132.934 38.2308C132.694 38.6628 132.574 39.1788 132.574 39.7788C132.574 40.3788 132.694 40.9068 132.934 41.3628C133.186 41.8068 133.51 42.1488 133.906 42.3888C134.314 42.6288 134.746 42.7488 135.202 42.7488C135.67 42.7488 136.108 42.6348 136.516 42.4068C136.924 42.1668 137.248 41.8308 137.488 41.3988C137.728 40.9548 137.848 40.4268 137.848 39.8148ZM145.741 42.2448V40.2648L151.627 31.8408H154.561V40.0488H156.145V42.2448H154.561V44.8008H152.041V42.2448H145.741ZM152.203 34.5408L148.513 40.0488H152.203V34.5408ZM157.249 38.0688C157.249 35.9928 157.621 34.3668 158.365 33.1908C159.121 32.0148 160.369 31.4268 162.109 31.4268C163.849 31.4268 165.091 32.0148 165.835 33.1908C166.591 34.3668 166.969 35.9928 166.969 38.0688C166.969 40.1568 166.591 41.7948 165.835 42.9828C165.091 44.1708 163.849 44.7648 162.109 44.7648C160.369 44.7648 159.121 44.1708 158.365 42.9828C157.621 41.7948 157.249 40.1568 157.249 38.0688ZM164.485 38.0688C164.485 37.1808 164.425 36.4368 164.305 35.8368C164.197 35.2248 163.969 34.7268 163.621 34.3428C163.285 33.9588 162.781 33.7668 162.109 33.7668C161.437 33.7668 160.927 33.9588 160.579 34.3428C160.243 34.7268 160.015 35.2248 159.895 35.8368C159.787 36.4368 159.733 37.1808 159.733 38.0688C159.733 38.9808 159.787 39.7488 159.895 40.3728C160.003 40.9848 160.231 41.4828 160.579 41.8668C160.927 42.2388 161.437 42.4248 162.109 42.4248C162.781 42.4248 163.291 42.2388 163.639 41.8668C163.987 41.4828 164.215 40.9848 164.323 40.3728C164.431 39.7488 164.485 38.9808 164.485 38.0688ZM180.167 42.4068H175.163L174.335 44.8008H171.689L176.207 32.2188H179.141L183.659 44.8008H180.995L180.167 42.4068ZM179.483 40.3908L177.665 35.1348L175.847 40.3908H179.483ZM198.671 34.8288L195.755 44.8008H193.037L191.219 37.8348L189.401 44.8008H186.665L183.731 34.8288H186.287L188.051 42.4248L189.959 34.8288H192.623L194.495 42.4068L196.259 34.8288H198.671ZM198.887 39.7788C198.887 38.7708 199.085 37.8768 199.481 37.0968C199.889 36.3168 200.435 35.7168 201.119 35.2968C201.815 34.8768 202.589 34.6668 203.441 34.6668C204.185 34.6668 204.833 34.8168 205.385 35.1168C205.949 35.4168 206.399 35.7948 206.735 36.2508V34.8288H209.273V44.8008H206.735V43.3428C206.411 43.8108 205.961 44.2008 205.385 44.5128C204.821 44.8128 204.167 44.9628 203.423 44.9628C202.583 44.9628 201.815 44.7468 201.119 44.3148C200.435 43.8828 199.889 43.2768 199.481 42.4968C199.085 41.7048 198.887 40.7988 198.887 39.7788ZM206.735 39.8148C206.735 39.2028 206.615 38.6808 206.375 38.2488C206.135 37.8048 205.811 37.4688 205.403 37.2408C204.995 37.0008 204.557 36.8808 204.089 36.8808C203.621 36.8808 203.189 36.9948 202.793 37.2228C202.397 37.4508 202.073 37.7868 201.821 38.2308C201.581 38.6628 201.461 39.1788 201.461 39.7788C201.461 40.3788 201.581 40.9068 201.821 41.3628C202.073 41.8068 202.397 42.1488 202.793 42.3888C203.201 42.6288 203.633 42.7488 204.089 42.7488C204.557 42.7488 204.995 42.6348 205.403 42.4068C205.811 42.1668 206.135 41.8308 206.375 41.3988C206.615 40.9548 206.735 40.4268 206.735 39.8148ZM213.754 36.3768C214.078 35.8488 214.498 35.4348 215.014 35.1348C215.542 34.8348 216.142 34.6848 216.814 34.6848V37.3308H216.148C215.356 37.3308 214.756 37.5168 214.348 37.8888C213.952 38.2608 213.754 38.9088 213.754 39.8328V44.8008H211.234V34.8288H213.754V36.3768ZM217.364 39.7788C217.364 38.7708 217.562 37.8768 217.958 37.0968C218.366 36.3168 218.918 35.7168 219.614 35.2968C220.31 34.8768 221.084 34.6668 221.936 34.6668C222.584 34.6668 223.202 34.8108 223.79 35.0988C224.378 35.3748 224.846 35.7468 225.194 36.2148V31.4808H227.75V44.8008H225.194V43.3248C224.882 43.8168 224.444 44.2128 223.88 44.5128C223.316 44.8128 222.662 44.9628 221.918 44.9628C221.078 44.9628 220.31 44.7468 219.614 44.3148C218.918 43.8828 218.366 43.2768 217.958 42.4968C217.562 41.7048 217.364 40.7988 217.364 39.7788ZM225.212 39.8148C225.212 39.2028 225.092 38.6808 224.852 38.2488C224.612 37.8048 224.288 37.4688 223.88 37.2408C223.472 37.0008 223.034 36.8808 222.566 36.8808C222.098 36.8808 221.666 36.9948 221.27 37.2228C220.874 37.4508 220.55 37.7868 220.298 38.2308C220.058 38.6628 219.938 39.1788 219.938 39.7788C219.938 40.3788 220.058 40.9068 220.298 41.3628C220.55 41.8068 220.874 42.1488 221.27 42.3888C221.678 42.6288 222.11 42.7488 222.566 42.7488C223.034 42.7488 223.472 42.6348 223.88 42.4068C224.288 42.1668 224.612 41.8308 224.852 41.3988C225.092 40.9548 225.212 40.4268 225.212 39.8148ZM233.527 44.9628C232.711 44.9628 231.979 44.8188 231.331 44.5308C230.683 44.2308 230.167 43.8288 229.783 43.3248C229.411 42.8208 229.207 42.2628 229.171 41.6508H231.709C231.757 42.0348 231.943 42.3528 232.267 42.6048C232.603 42.8568 233.017 42.9828 233.509 42.9828C233.989 42.9828 234.361 42.8868 234.625 42.6948C234.901 42.5028 235.039 42.2568 235.039 41.9568C235.039 41.6328 234.871 41.3928 234.535 41.2368C234.211 41.0688 233.689 40.8888 232.969 40.6968C232.225 40.5168 231.613 40.3308 231.133 40.1388C230.665 39.9468 230.257 39.6528 229.909 39.2568C229.573 38.8608 229.405 38.3268 229.405 37.6548C229.405 37.1028 229.561 36.5988 229.873 36.1428C230.197 35.6868 230.653 35.3268 231.241 35.0628C231.841 34.7988 232.543 34.6668 233.347 34.6668C234.535 34.6668 235.483 34.9668 236.191 35.5668C236.899 36.1548 237.289 36.9528 237.361 37.9608H234.949C234.913 37.5648 234.745 37.2528 234.445 37.0248C234.157 36.7848 233.767 36.6648 233.275 36.6648C232.819 36.6648 232.465 36.7488 232.213 36.9168C231.973 37.0848 231.853 37.3188 231.853 37.6188C231.853 37.9548 232.021 38.2128 232.357 38.3928C232.693 38.5608 233.215 38.7348 233.923 38.9148C234.643 39.0948 235.237 39.2808 235.705 39.4728C236.173 39.6648 236.575 39.9648 236.911 40.3728C237.259 40.7688 237.439 41.2968 237.451 41.9568C237.451 42.5328 237.289 43.0488 236.965 43.5048C236.653 43.9608 236.197 44.3208 235.597 44.5848C235.009 44.8368 234.319 44.9628 233.527 44.9628ZM107.904 71.9268C106.728 71.9268 105.648 71.6508 104.664 71.0988C103.68 70.5468 102.9 69.7848 102.324 68.8128C101.748 67.8288 101.46 66.7188 101.46 65.4828C101.46 64.2588 101.748 63.1608 102.324 62.1888C102.9 61.2048 103.68 60.4368 104.664 59.8848C105.648 59.3328 106.728 59.0568 107.904 59.0568C109.092 59.0568 110.172 59.3328 111.144 59.8848C112.128 60.4368 112.902 61.2048 113.466 62.1888C114.042 63.1608 114.33 64.2588 114.33 65.4828C114.33 66.7188 114.042 67.8288 113.466 68.8128C112.902 69.7848 112.128 70.5468 111.144 71.0988C110.16 71.6508 109.08 71.9268 107.904 71.9268ZM107.904 69.6768C108.66 69.6768 109.326 69.5088 109.902 69.1728C110.478 68.8248 110.928 68.3328 111.252 67.6968C111.576 67.0608 111.738 66.3228 111.738 65.4828C111.738 64.6428 111.576 63.9108 111.252 63.2868C110.928 62.6508 110.478 62.1648 109.902 61.8288C109.326 61.4928 108.66 61.3248 107.904 61.3248C107.148 61.3248 106.476 61.4928 105.888 61.8288C105.312 62.1648 104.862 62.6508 104.538 63.2868C104.214 63.9108 104.052 64.6428 104.052 65.4828C104.052 66.3228 104.214 67.0608 104.538 67.6968C104.862 68.3328 105.312 68.8248 105.888 69.1728C106.476 69.5088 107.148 69.6768 107.904 69.6768ZM118.225 63.2688C118.549 62.8128 118.993 62.4348 119.557 62.1348C120.133 61.8228 120.787 61.6668 121.519 61.6668C122.371 61.6668 123.139 61.8768 123.823 62.2968C124.519 62.7168 125.065 63.3168 125.461 64.0968C125.869 64.8648 126.073 65.7588 126.073 66.7788C126.073 67.7988 125.869 68.7048 125.461 69.4968C125.065 70.2768 124.519 70.8828 123.823 71.3148C123.139 71.7468 122.371 71.9628 121.519 71.9628C120.787 71.9628 120.139 71.8128 119.575 71.5128C119.023 71.2128 118.573 70.8348 118.225 70.3788V76.5528H115.705V61.8288H118.225V63.2688ZM123.499 66.7788C123.499 66.1788 123.373 65.6628 123.121 65.2308C122.881 64.7868 122.557 64.4508 122.149 64.2228C121.753 63.9948 121.321 63.8808 120.853 63.8808C120.397 63.8808 119.965 64.0008 119.557 64.2408C119.161 64.4688 118.837 64.8048 118.585 65.2488C118.345 65.6928 118.225 66.2148 118.225 66.8148C118.225 67.4148 118.345 67.9368 118.585 68.3808C118.837 68.8248 119.161 69.1668 119.557 69.4068C119.965 69.6348 120.397 69.7488 120.853 69.7488C121.321 69.7488 121.753 69.6288 122.149 69.3888C122.557 69.1488 122.881 68.8068 123.121 68.3628C123.373 67.9188 123.499 67.3908 123.499 66.7788ZM136.674 66.5988C136.674 66.9588 136.65 67.2828 136.602 67.5708H129.312C129.372 68.2908 129.624 68.8548 130.068 69.2628C130.512 69.6708 131.058 69.8748 131.706 69.8748C132.642 69.8748 133.308 69.4728 133.704 68.6688H136.422C136.134 69.6288 135.582 70.4208 134.766 71.0448C133.95 71.6568 132.948 71.9628 131.76 71.9628C130.8 71.9628 129.936 71.7528 129.168 71.3328C128.412 70.9008 127.818 70.2948 127.386 69.5148C126.966 68.7348 126.756 67.8348 126.756 66.8148C126.756 65.7828 126.966 64.8768 127.386 64.0968C127.806 63.3168 128.394 62.7168 129.15 62.2968C129.906 61.8768 130.776 61.6668 131.76 61.6668C132.708 61.6668 133.554 61.8708 134.298 62.2788C135.054 62.6868 135.636 63.2688 136.044 64.0248C136.464 64.7688 136.674 65.6268 136.674 66.5988ZM134.064 65.8788C134.052 65.2308 133.818 64.7148 133.362 64.3308C132.906 63.9348 132.348 63.7368 131.688 63.7368C131.064 63.7368 130.536 63.9288 130.104 64.3128C129.684 64.6848 129.426 65.2068 129.33 65.8788H134.064ZM143.539 61.6848C144.727 61.6848 145.687 62.0628 146.419 62.8188C147.151 63.5628 147.517 64.6068 147.517 65.9508V71.8008H144.997V66.2928C144.997 65.5008 144.799 64.8948 144.403 64.4748C144.007 64.0428 143.467 63.8268 142.783 63.8268C142.087 63.8268 141.535 64.0428 141.127 64.4748C140.731 64.8948 140.533 65.5008 140.533 66.2928V71.8008H138.013V61.8288H140.533V63.0708C140.869 62.6388 141.295 62.3028 141.811 62.0628C142.339 61.8108 142.915 61.6848 143.539 61.6848ZM160.7 59.2368L156.092 71.8008H153.032L148.424 59.2368H151.124L154.58 69.2268L158.018 59.2368H160.7ZM162.989 60.6408C162.545 60.6408 162.173 60.5028 161.873 60.2268C161.585 59.9388 161.441 59.5848 161.441 59.1648C161.441 58.7448 161.585 58.3968 161.873 58.1208C162.173 57.8328 162.545 57.6888 162.989 57.6888C163.433 57.6888 163.799 57.8328 164.087 58.1208C164.387 58.3968 164.537 58.7448 164.537 59.1648C164.537 59.5848 164.387 59.9388 164.087 60.2268C163.799 60.5028 163.433 60.6408 162.989 60.6408ZM164.231 61.8288V71.8008H161.711V61.8288H164.231ZM175.491 66.5988C175.491 66.9588 175.467 67.2828 175.419 67.5708H168.129C168.189 68.2908 168.441 68.8548 168.885 69.2628C169.329 69.6708 169.875 69.8748 170.523 69.8748C171.459 69.8748 172.125 69.4728 172.521 68.6688H175.239C174.951 69.6288 174.399 70.4208 173.583 71.0448C172.767 71.6568 171.765 71.9628 170.577 71.9628C169.617 71.9628 168.753 71.7528 167.985 71.3328C167.229 70.9008 166.635 70.2948 166.203 69.5148C165.783 68.7348 165.573 67.8348 165.573 66.8148C165.573 65.7828 165.783 64.8768 166.203 64.0968C166.623 63.3168 167.211 62.7168 167.967 62.2968C168.723 61.8768 169.593 61.6668 170.577 61.6668C171.525 61.6668 172.371 61.8708 173.115 62.2788C173.871 62.6868 174.453 63.2688 174.861 64.0248C175.281 64.7688 175.491 65.6268 175.491 66.5988ZM172.881 65.8788C172.869 65.2308 172.635 64.7148 172.179 64.3308C171.723 63.9348 171.165 63.7368 170.505 63.7368C169.881 63.7368 169.353 63.9288 168.921 64.3128C168.501 64.6848 168.243 65.2068 168.147 65.8788H172.881ZM190.654 61.8288L187.738 71.8008H185.02L183.202 64.8348L181.384 71.8008H178.648L175.714 61.8288H178.27L180.034 69.4248L181.942 61.8288H184.606L186.478 69.4068L188.242 61.8288H190.654Z" fill="#846358"/>
<path d="M248.635 6.86719C250.969 8.43502 253.549 10.3765 255.628 12.542C259.317 16.3842 262.976 20.7157 266.12 25.0496C268.244 27.9774 271 32.4201 272.506 35.6881C274.51 40.0372 275.697 43.0841 276.797 47.8625C278.346 54.5942 278.132 61.5027 276.559 68.0156C274.244 77.5975 266.834 85.6147 259.43 92.1226C253.637 97.2133 245.85 100.544 239.007 102.99L238.305 101.123C245.086 98.6989 252.272 95.4632 257.823 90.5781C264.964 84.2946 271.559 76.6314 274.406 67.4979C276.138 61.9388 276.54 55.8391 275.631 49.9333C274.835 44.7592 272.832 39.5738 270.881 34.859C269.278 30.9833 267.408 27.9641 265.127 24.7841C262.235 20.7519 259.057 16.8198 255.679 13.2293C253.493 10.9052 250.568 8.80703 248.219 7.22949L248.635 6.86719Z" fill="#846358"/>
<path d="M251.609 97.2793C251.609 97.2793 256.415 95.7599 260.229 96.2075C266.285 96.9181 266.843 100.677 266.843 100.677C266.843 100.677 264.414 102.185 259.203 101.612C253.099 100.941 251.609 97.2793 251.609 97.2793Z" fill="#846358"/>
<path d="M259.785 91.6665C259.785 91.6665 263.835 89.7453 267.676 89.7738C274.324 89.823 274.722 93.3541 274.722 93.3541C274.722 93.3541 272.316 95.0902 266.991 95.0189C260.851 94.9365 259.785 91.6665 259.785 91.6665Z" fill="#846358"/>
<path d="M265.848 85.7635C265.848 85.7635 269.699 82.3882 273.424 81.4548C279.873 79.839 282.009 83.5913 282.009 83.5913C282.009 83.5913 279.612 86.4673 274.439 87.7304C268.474 89.187 265.848 85.7635 265.848 85.7635Z" fill="#846358"/>
<path d="M272.684 76.6701C272.684 76.6701 275.977 73.1984 280.486 71.8132C286.369 70.0054 289.135 73.5546 289.216 73.6434C289.216 73.6434 286.805 76.6779 281.775 78.0082C275.028 79.7926 272.684 76.6701 272.684 76.6701H272.684Z" fill="#846358"/>
<path d="M275.938 69.4336C275.938 69.4336 279.005 64.7627 283.58 62.558C288.025 60.4159 291.271 62.2402 291.352 62.312C291.352 62.312 289.069 66.4842 284.869 68.4834C279.162 71.1998 275.938 69.4336 275.938 69.4336Z" fill="#846358"/>
<path d="M276.922 63.0827C278.559 61.5427 278.681 57.3567 281.021 53.9593C284.286 49.2201 289.67 49.5639 289.751 49.6082C289.751 49.6082 289.175 55.5125 285.092 59.0811C280.754 62.8735 276.922 63.0827 276.922 63.0827Z" fill="#846358"/>
<path d="M277.381 53.1286C277.381 53.1286 277.222 47.9967 278.575 44.0997C280.463 38.6634 285.617 37.5962 285.706 37.6175C285.706 37.6175 286.542 43.4305 283.554 47.9555C280.38 52.7645 277.381 53.1284 277.381 53.1284L277.381 53.1286Z" fill="#846358"/>
<path d="M275.197 43.5095C275.197 43.5095 274.169 39.2014 274.69 35.1091C275.475 28.9413 280.275 27.6356 280.366 27.6446C280.366 27.6446 282.012 33.3572 279.671 38.2481C277.184 43.4459 275.197 43.5095 275.197 43.5095Z" fill="#846358"/>
<path d="M270.972 33.1842C270.972 33.1842 269.301 29.2871 269.515 25.1675C269.812 19.45 273.687 17.0346 273.778 17.0312C273.778 17.0312 277.514 20.3993 275.369 27.6493C274.067 32.0471 270.972 33.1843 270.972 33.1843L270.972 33.1842Z" fill="#846358"/>
<path d="M265.581 24.6969C265.581 24.6969 263.097 20.8706 262.409 16.8029C261.764 12.9841 263.314 8.82376 263.659 8.44141C263.659 8.44141 267.701 10.2178 267.55 17.0352C267.448 21.6205 265.581 24.6969 265.581 24.6969Z" fill="#846358"/>
<path d="M258.981 16.5029C258.981 16.5029 256.019 13.349 255.247 9.03651C254.608 5.46217 255.252 1.57866 255.926 0.609375C255.926 0.609375 259.789 3.00959 260.069 9.07968C260.281 13.6611 259.287 15.8417 258.981 16.5028L258.981 16.5029Z" fill="#846358"/>
<path d="M254.192 11.4799C254.192 11.4799 248.547 11.6838 245.742 10.0551C242.602 8.23194 239.52 4.27473 239.277 3.11951C239.277 3.11951 244.221 0.951717 248.83 4.91147C252.309 7.90003 253.921 10.8034 254.192 11.4799Z" fill="#846358"/>
<path d="M260.41 18.2893C260.41 18.2893 257.71 15.1283 253.071 14.3116C249.495 13.6822 246.745 14.2634 244.98 15.2918C244.98 15.2918 247.703 18.7804 252.922 19.2614C257.489 19.6822 259.739 18.5737 260.41 18.2893Z" fill="#846358"/>
<path d="M265.979 25.5776C265.979 25.5776 263.408 22.5456 258.769 21.729C255.193 21.0996 253.476 21.7453 251.711 22.7737C251.711 22.7737 253.886 26.1012 259.105 26.582C263.672 27.0028 265.308 25.862 265.979 25.5776L265.979 25.5776Z" fill="#846358"/>
<path d="M271.404 35.0845C271.404 35.0845 269.003 31.3476 264.661 29.5214C260.211 27.65 257.926 28.5436 256.012 29.258C256.622 30.1735 259.12 33.9895 263.169 35.135C267.582 36.3835 270.695 35.2511 271.404 35.0845Z" fill="#846358"/>
<path d="M274.608 43.5275C274.608 43.5275 272.48 39.6284 268.28 37.4963C263.975 35.3114 261.632 36.0392 259.672 36.6148C260.215 37.5716 262.433 41.5565 266.39 42.9889C270.703 44.5498 273.889 43.6429 274.608 43.5275Z" fill="#846358"/>
<path d="M276.297 53.5646C274.456 51.2035 273.454 48.6651 270.621 46.1387C267.13 43.0261 264.135 44.0184 262.102 44.2194C263.102 46.0991 264.605 49.0726 267.71 51.3129C271.43 53.9962 275.569 53.5443 276.297 53.5648V53.5646Z" fill="#846358"/>
<path d="M276.077 62.808C274.511 60.2557 273.768 58.2661 271.235 55.4385C268.115 51.955 265.156 52.5734 263.113 52.5457C263.897 54.5255 265.219 57.4873 268.054 60.061C271.45 63.1436 275.356 62.7062 276.077 62.808Z" fill="#846358"/>
<path d="M274.061 70.1808C271.705 66.5436 272.003 65.7204 269.697 62.7047C267.22 59.4658 264.092 59.5548 262.059 59.3633C262.681 61.3997 263.612 64.1544 266.252 66.9282C269.067 69.8862 271.996 69.5054 274.061 70.1808Z" fill="#846358"/>
<path d="M270.192 77.4039C268.707 74.186 268.963 72.1766 267.601 69.8956C265.374 66.165 263.19 66.0039 261.156 65.8125C262.778 70.4605 262.403 70.4819 264.189 73.3129C265.926 76.0676 268.288 76.4383 270.192 77.404V77.4039Z" fill="#846358"/>
<path d="M265.516 83.4808C264.67 80.0391 265.529 78.9859 264.625 76.4876C263.148 72.4016 261.034 71.8285 259.074 71.2539C259.3 73.9969 258.959 75.7371 260.497 78.7102C261.582 80.8097 263.83 82.1708 265.516 83.4808Z" fill="#846358"/>
<path d="M256.12 76.7228C256.12 76.7228 254.422 80.0002 254.986 83.7987C255.785 89.1807 258.661 89.987 258.661 89.987C258.661 89.987 260.299 87.5408 260.132 82.5773C259.955 77.2755 256.12 76.7227 256.12 76.7227L256.12 76.7228Z" fill="#846358"/>
<path d="M249.99 82.207C249.99 82.207 248.291 85.5253 248.663 89.3475C249.139 94.2458 251.821 95.4714 251.821 95.4714C251.821 95.4714 253.511 92.737 253.583 88.61C253.693 82.3083 249.99 82.207 249.99 82.207Z" fill="#846358"/>
</svg>
