<svg width="270" height="103" viewBox="0 0 270 103" fill="none" xmlns="http://www.w3.org/2000/svg">
<path d="M43.0638 6.86719C40.7296 8.43502 38.1498 10.3765 36.0707 12.542C32.3816 16.3842 28.723 20.7157 25.5785 25.0496C23.4543 27.9774 20.6983 32.4201 19.1925 35.6881C17.1887 40.0372 16.0018 43.0841 14.902 47.8625C13.3527 54.5942 13.5663 61.5027 15.1399 68.0156C17.4551 77.5975 24.8646 85.6147 32.269 92.1226C38.0615 97.2133 45.8492 100.544 52.6916 102.99L53.3986 101.122C46.6188 98.6991 39.4328 95.4631 33.8814 90.5783C26.7402 84.294 20.1442 76.6304 17.2989 67.4982C15.566 61.9392 15.1637 55.84 16.073 49.9336C16.8695 44.7595 18.872 39.574 20.8227 34.8593C22.4264 30.9836 24.2963 27.9643 26.5771 24.7844C29.469 20.7522 32.6468 16.82 36.0248 13.2296C38.2115 10.9055 41.136 8.80729 43.4847 7.22974L43.0638 6.86719Z" fill="#846358"/>
<path d="M40.0967 97.2793C40.0967 97.2793 35.2907 95.7599 31.4766 96.2075C25.4215 96.9181 24.8633 100.677 24.8633 100.677C24.8633 100.677 27.2925 102.185 32.5027 101.612C38.6065 100.941 40.0966 97.2793 40.0966 97.2793L40.0967 97.2793Z" fill="#846358"/>
<path d="M31.9136 91.6665C31.9136 91.6665 27.8633 89.7453 24.0232 89.7738C17.3751 89.823 16.9766 93.3541 16.9766 93.3541C16.9766 93.3541 19.3829 95.0902 24.7073 95.0189C30.8474 94.9365 31.9136 91.6665 31.9136 91.6665Z" fill="#846358"/>
<path d="M25.8603 85.7635C25.8603 85.7635 22.0091 82.3882 18.2841 81.4548C11.8352 79.839 9.69922 83.5913 9.69922 83.5913C9.69922 83.5913 12.0964 86.4673 17.2692 87.7304C23.2344 89.187 25.8603 85.7635 25.8603 85.7635Z" fill="#846358"/>
<path d="M19.0204 76.6662C19.0204 76.6662 15.7268 73.1945 11.2183 71.8093C5.33457 70.0015 2.56899 73.5507 2.48828 73.6395C2.48828 73.6395 4.89923 76.674 9.92928 78.0043C16.6762 79.7887 19.0204 76.6662 19.0204 76.6662Z" fill="#846358"/>
<path d="M15.7656 69.4301C15.7656 69.4301 12.6982 64.7592 8.12319 62.5545C3.67892 60.4116 0.432144 62.2365 0.351562 62.308C0.351562 62.308 2.63455 66.4802 6.83477 68.4794C12.5415 71.1958 15.7662 69.4297 15.7662 69.4297L15.7656 69.4301Z" fill="#846358"/>
<path d="M14.7785 63.0786C13.1413 61.5385 13.0193 57.3523 10.6793 53.9553C7.41475 49.2162 2.0298 49.5597 1.94922 49.6044C1.94922 49.6044 2.52571 55.5087 6.60803 59.0773C10.9466 62.8698 14.7784 63.079 14.7784 63.079L14.7785 63.0786Z" fill="#846358"/>
<path d="M14.3235 53.1286C14.3235 53.1286 14.4824 47.9967 13.1291 44.0997C11.2413 38.6634 6.08773 37.5962 5.99821 37.6175C5.99821 37.6175 5.16245 43.4305 8.14978 47.9555C11.3247 52.7645 14.3236 53.1284 14.3236 53.1284L14.3235 53.1286Z" fill="#846358"/>
<path d="M16.5082 43.5095C16.5082 43.5095 17.5362 39.2014 17.0154 35.1091C16.2305 28.9413 11.4309 27.6356 11.3392 27.6446C11.3392 27.6446 9.69382 33.3572 12.0345 38.2481C14.5221 43.4459 16.5082 43.5095 16.5082 43.5095Z" fill="#846358"/>
<path d="M20.7365 33.1842C20.7365 33.1842 22.408 29.2871 22.1939 25.1675C21.8966 19.45 18.0224 17.0346 17.9304 17.0312C17.9304 17.0312 14.1949 20.3993 16.3404 27.6493C17.6418 32.0471 20.7366 33.1843 20.7366 33.1843L20.7365 33.1842Z" fill="#846358"/>
<path d="M26.1142 24.693C26.1142 24.693 28.5982 20.8667 29.2854 16.799C29.9305 12.9802 28.3812 8.81985 28.0353 8.4375C28.0353 8.4375 23.9934 10.2139 24.1448 17.0313C24.2466 21.6165 26.1142 24.693 26.1142 24.693Z" fill="#846358"/>
<path d="M32.7235 16.5023C32.7235 16.5023 35.6852 13.3484 36.4567 9.03588C37.0952 5.46217 36.4516 1.57866 35.7786 0.609375C35.7786 0.609375 31.9155 3.00959 31.6348 9.07968C31.423 13.6611 32.4172 15.8417 32.7235 16.5028L32.7235 16.5023Z" fill="#846358"/>
<path d="M37.5156 11.476C37.5156 11.476 43.1601 11.6799 45.9654 10.0511C49.1055 8.22803 52.187 4.27083 52.4302 3.11561C52.4302 3.11561 47.4865 0.947811 42.8771 4.90757C39.3981 7.89612 37.7865 10.7995 37.5156 11.476Z" fill="#846358"/>
<path d="M31.297 18.2893C31.297 18.2893 33.9968 15.1283 38.6361 14.3116C42.2121 13.6822 44.9612 14.2634 46.7262 15.2918C46.7262 15.2918 44.0033 18.7804 38.7842 19.2614C34.2172 19.6822 31.9678 18.5736 31.2969 18.2892L31.297 18.2893Z" fill="#846358"/>
<path d="M25.7189 25.5736C25.7189 25.5736 28.2896 22.5417 32.929 21.7251C36.505 21.0957 38.2221 21.7414 39.9871 22.7698C39.9871 22.7698 37.8124 26.0973 32.5934 26.5781C28.0264 26.9989 26.3897 25.8581 25.7188 25.5737L25.7189 25.5736Z" fill="#846358"/>
<path d="M20.3047 35.0845C20.3047 35.0845 22.7062 31.3476 27.0485 29.5214C31.4982 27.65 33.7836 28.5436 35.6974 29.258C35.0871 30.1735 32.5894 33.9895 28.54 35.135C24.1269 36.3835 21.0141 35.2511 20.3047 35.0845Z" fill="#846358"/>
<path d="M17.0898 43.5275C17.0898 43.5275 19.2179 39.6284 23.4184 37.4963C27.7228 35.3114 30.0662 36.0392 32.0262 36.6148C31.483 37.5716 29.2647 41.5565 25.3077 42.9889C20.9951 44.5498 17.8093 43.6429 17.0898 43.5275Z" fill="#846358"/>
<path d="M15.3984 53.5607C17.2401 51.1996 18.2413 48.6612 21.0748 46.1348C24.5658 43.0222 27.5612 44.0145 29.5941 44.2155C28.5934 46.0952 27.0907 49.0687 23.9853 51.309C20.2658 53.9922 16.1269 53.5404 15.3984 53.5609V53.5607Z" fill="#846358"/>
<path d="M15.6289 62.808C17.1948 60.2557 17.9379 58.2661 20.471 55.4385C23.5917 51.955 26.5504 52.5734 28.593 52.5457C27.8089 54.5255 26.4872 57.4873 23.6519 60.061C20.2559 63.1436 16.3503 62.7062 15.6289 62.808Z" fill="#846358"/>
<path d="M17.6445 70.1808C20.0004 66.5436 19.7031 65.7204 22.009 62.7047C24.4854 59.4658 27.6133 59.5548 29.6472 59.3633C29.0243 61.3997 28.0936 64.1544 25.4537 66.9282C22.6384 69.8862 19.7102 69.5054 17.6447 70.1808H17.6445Z" fill="#846358"/>
<path d="M21.5117 77.4039C22.9969 74.186 22.7405 72.1766 24.1023 69.8956C26.3298 66.165 28.5134 66.0039 30.5472 65.8125C28.925 70.4605 29.3006 70.4819 27.5148 73.3129C25.7771 76.0676 23.4159 76.4383 21.5117 77.404V77.4039Z" fill="#846358"/>
<path d="M26.1797 83.4808C27.0261 80.0391 26.1667 78.9859 27.0702 76.4876C28.5479 72.4016 30.6611 71.8285 32.6214 71.2539C32.396 73.9969 32.7363 75.7371 31.1989 78.7102C30.1132 80.8097 27.8657 82.1708 26.1797 83.4808Z" fill="#846358"/>
<path d="M35.5872 76.7228C35.5872 76.7228 37.2848 80.0002 36.7209 83.7987C35.922 89.1807 33.0459 89.987 33.0459 89.987C33.0459 89.987 31.4079 87.5408 31.5744 82.5773C31.7522 77.2755 35.5873 76.7227 35.5873 76.7227L35.5872 76.7228Z" fill="#846358"/>
<path d="M41.7131 82.2031C41.7131 82.2031 43.4119 85.5214 43.0403 89.3436C42.5639 94.2419 39.8814 95.4675 39.8814 95.4675C39.8814 95.4675 38.1916 92.7331 38.1196 88.6061C38.0097 82.3044 41.7132 82.2032 41.7132 82.2032L41.7131 82.2031Z" fill="#846358"/>
<path d="M63.9333 36.1248C63.9333 36.7968 63.7713 37.4268 63.4473 38.0148C63.1353 38.6028 62.6373 39.0768 61.9533 39.4368C61.2813 39.7968 60.4293 39.9768 59.3973 39.9768H57.2913V44.8008H54.7713V32.2368H59.3973C60.3693 32.2368 61.1973 32.4048 61.8813 32.7408C62.5653 33.0768 63.0753 33.5388 63.4113 34.1268C63.7593 34.7148 63.9333 35.3808 63.9333 36.1248ZM59.2893 37.9428C59.9853 37.9428 60.5013 37.7868 60.8373 37.4748C61.1733 37.1508 61.3413 36.7008 61.3413 36.1248C61.3413 34.9008 60.6573 34.2888 59.2893 34.2888H57.2913V37.9428H59.2893ZM67.7425 36.3768C68.0665 35.8488 68.4865 35.4348 69.0025 35.1348C69.5305 34.8348 70.1305 34.6848 70.8025 34.6848V37.3308H70.1365C69.3445 37.3308 68.7445 37.5168 68.3365 37.8888C67.9405 38.2608 67.7425 38.9088 67.7425 39.8328V44.8008H65.2225V34.8288H67.7425V36.3768ZM76.4278 44.9628C75.4678 44.9628 74.6038 44.7528 73.8358 44.3328C73.0678 43.9008 72.4618 43.2948 72.0178 42.5148C71.5858 41.7348 71.3698 40.8348 71.3698 39.8148C71.3698 38.7948 71.5918 37.8948 72.0358 37.1148C72.4918 36.3348 73.1098 35.7348 73.8898 35.3148C74.6698 34.8828 75.5398 34.6668 76.4998 34.6668C77.4598 34.6668 78.3298 34.8828 79.1098 35.3148C79.8898 35.7348 80.5018 36.3348 80.9458 37.1148C81.4018 37.8948 81.6298 38.7948 81.6298 39.8148C81.6298 40.8348 81.3958 41.7348 80.9278 42.5148C80.4718 43.2948 79.8478 43.9008 79.0558 44.3328C78.2758 44.7528 77.3998 44.9628 76.4278 44.9628ZM76.4278 42.7668C76.8838 42.7668 77.3098 42.6588 77.7058 42.4428C78.1138 42.2148 78.4378 41.8788 78.6778 41.4348C78.9178 40.9908 79.0378 40.4508 79.0378 39.8148C79.0378 38.8668 78.7858 38.1408 78.2818 37.6368C77.7898 37.1208 77.1838 36.8628 76.4638 36.8628C75.7438 36.8628 75.1378 37.1208 74.6458 37.6368C74.1658 38.1408 73.9258 38.8668 73.9258 39.8148C73.9258 40.7628 74.1598 41.4948 74.6278 42.0108C75.1078 42.5148 75.7078 42.7668 76.4278 42.7668ZM82.3303 39.7788C82.3303 38.7708 82.5283 37.8768 82.9243 37.0968C83.3323 36.3168 83.8843 35.7168 84.5803 35.2968C85.2763 34.8768 86.0503 34.6668 86.9023 34.6668C87.5503 34.6668 88.1683 34.8108 88.7563 35.0988C89.3443 35.3748 89.8123 35.7468 90.1603 36.2148V31.4808H92.7163V44.8008H90.1603V43.3248C89.8483 43.8168 89.4103 44.2128 88.8463 44.5128C88.2823 44.8128 87.6283 44.9628 86.8843 44.9628C86.0443 44.9628 85.2763 44.7468 84.5803 44.3148C83.8843 43.8828 83.3323 43.2768 82.9243 42.4968C82.5283 41.7048 82.3303 40.7988 82.3303 39.7788ZM90.1783 39.8148C90.1783 39.2028 90.0583 38.6808 89.8183 38.2488C89.5783 37.8048 89.2543 37.4688 88.8463 37.2408C88.4383 37.0008 88.0003 36.8808 87.5323 36.8808C87.0643 36.8808 86.6323 36.9948 86.2363 37.2228C85.8403 37.4508 85.5163 37.7868 85.2643 38.2308C85.0243 38.6628 84.9043 39.1788 84.9043 39.7788C84.9043 40.3788 85.0243 40.9068 85.2643 41.3628C85.5163 41.8068 85.8403 42.1488 86.2363 42.3888C86.6443 42.6288 87.0763 42.7488 87.5323 42.7488C88.0003 42.7488 88.4383 42.6348 88.8463 42.4068C89.2543 42.1668 89.5783 41.8308 89.8183 41.3988C90.0583 40.9548 90.1783 40.4268 90.1783 39.8148ZM104.092 34.8288V44.8008H101.554V43.5408C101.23 43.9728 100.804 44.3148 100.276 44.5668C99.7595 44.8068 99.1955 44.9268 98.5835 44.9268C97.8035 44.9268 97.1135 44.7648 96.5135 44.4408C95.9135 44.1048 95.4395 43.6188 95.0915 42.9828C94.7555 42.3348 94.5875 41.5668 94.5875 40.6788V34.8288H97.1075V40.3188C97.1075 41.1108 97.3055 41.7228 97.7015 42.1548C98.0975 42.5748 98.6375 42.7848 99.3215 42.7848C100.018 42.7848 100.564 42.5748 100.96 42.1548C101.356 41.7228 101.554 41.1108 101.554 40.3188V34.8288H104.092ZM105.43 39.8148C105.43 38.7828 105.64 37.8828 106.06 37.1148C106.48 36.3348 107.062 35.7348 107.806 35.3148C108.55 34.8828 109.402 34.6668 110.362 34.6668C111.598 34.6668 112.618 34.9788 113.422 35.6028C114.238 36.2148 114.784 37.0788 115.06 38.1948H112.342C112.198 37.7628 111.952 37.4268 111.604 37.1868C111.268 36.9348 110.848 36.8088 110.344 36.8088C109.624 36.8088 109.054 37.0728 108.634 37.6008C108.214 38.1168 108.004 38.8548 108.004 39.8148C108.004 40.7628 108.214 41.5008 108.634 42.0288C109.054 42.5448 109.624 42.8028 110.344 42.8028C111.364 42.8028 112.03 42.3468 112.342 41.4348H115.06C114.784 42.5148 114.238 43.3728 113.422 44.0088C112.606 44.6448 111.586 44.9628 110.362 44.9628C109.402 44.9628 108.55 44.7528 107.806 44.3328C107.062 43.9008 106.48 43.3008 106.06 42.5328C105.64 41.7528 105.43 40.8468 105.43 39.8148ZM119.34 36.8988V41.7228C119.34 42.0588 119.418 42.3048 119.574 42.4608C119.742 42.6048 120.018 42.6768 120.402 42.6768H121.572V44.8008H119.988C117.864 44.8008 116.802 43.7688 116.802 41.7048V36.8988H115.614V34.8288H116.802V32.3628H119.34V34.8288H121.572V36.8988H119.34ZM131.102 44.9628C130.142 44.9628 129.278 44.7528 128.51 44.3328C127.742 43.9008 127.136 43.2948 126.692 42.5148C126.26 41.7348 126.044 40.8348 126.044 39.8148C126.044 38.7948 126.266 37.8948 126.71 37.1148C127.166 36.3348 127.784 35.7348 128.564 35.3148C129.344 34.8828 130.214 34.6668 131.174 34.6668C132.134 34.6668 133.004 34.8828 133.784 35.3148C134.564 35.7348 135.176 36.3348 135.62 37.1148C136.076 37.8948 136.304 38.7948 136.304 39.8148C136.304 40.8348 136.07 41.7348 135.602 42.5148C135.146 43.2948 134.522 43.9008 133.73 44.3328C132.95 44.7528 132.074 44.9628 131.102 44.9628ZM131.102 42.7668C131.558 42.7668 131.984 42.6588 132.38 42.4428C132.788 42.2148 133.112 41.8788 133.352 41.4348C133.592 40.9908 133.712 40.4508 133.712 39.8148C133.712 38.8668 133.46 38.1408 132.956 37.6368C132.464 37.1208 131.858 36.8628 131.138 36.8628C130.418 36.8628 129.812 37.1208 129.32 37.6368C128.84 38.1408 128.6 38.8668 128.6 39.8148C128.6 40.7628 128.834 41.4948 129.302 42.0108C129.782 42.5148 130.382 42.7668 131.102 42.7668ZM142.224 36.8988H140.478V44.8008H137.922V36.8988H136.788V34.8288H137.922V34.3248C137.922 33.1008 138.27 32.2008 138.966 31.6248C139.662 31.0488 140.712 30.7788 142.116 30.8148V32.9388C141.504 32.9268 141.078 33.0288 140.838 33.2448C140.598 33.4608 140.478 33.8508 140.478 34.4148V34.8288H142.224V36.8988ZM150.08 36.8988V41.7228C150.08 42.0588 150.158 42.3048 150.314 42.4608C150.482 42.6048 150.758 42.6768 151.142 42.6768H152.312V44.8008H150.728C148.604 44.8008 147.542 43.7688 147.542 41.7048V36.8988H146.354V34.8288H147.542V32.3628H150.08V34.8288H152.312V36.8988H150.08ZM159.241 34.6848C159.997 34.6848 160.669 34.8528 161.257 35.1888C161.845 35.5128 162.301 35.9988 162.625 36.6468C162.961 37.2828 163.129 38.0508 163.129 38.9508V44.8008H160.609V39.2928C160.609 38.5008 160.411 37.8948 160.015 37.4748C159.619 37.0428 159.079 36.8268 158.395 36.8268C157.699 36.8268 157.147 37.0428 156.739 37.4748C156.343 37.8948 156.145 38.5008 156.145 39.2928V44.8008H153.625V31.4808H156.145V36.0708C156.469 35.6388 156.901 35.3028 157.441 35.0628C157.981 34.8108 158.581 34.6848 159.241 34.6848ZM174.295 39.5988C174.295 39.9588 174.271 40.2828 174.223 40.5708H166.933C166.993 41.2908 167.245 41.8548 167.689 42.2628C168.133 42.6708 168.679 42.8748 169.327 42.8748C170.263 42.8748 170.929 42.4728 171.325 41.6688H174.043C173.755 42.6288 173.203 43.4208 172.387 44.0448C171.571 44.6568 170.569 44.9628 169.381 44.9628C168.421 44.9628 167.557 44.7528 166.789 44.3328C166.033 43.9008 165.439 43.2948 165.007 42.5148C164.587 41.7348 164.377 40.8348 164.377 39.8148C164.377 38.7828 164.587 37.8768 165.007 37.0968C165.427 36.3168 166.015 35.7168 166.771 35.2968C167.527 34.8768 168.397 34.6668 169.381 34.6668C170.329 34.6668 171.175 34.8708 171.919 35.2788C172.675 35.6868 173.257 36.2688 173.665 37.0248C174.085 37.7688 174.295 38.6268 174.295 39.5988ZM171.685 38.8788C171.673 38.2308 171.439 37.7148 170.983 37.3308C170.527 36.9348 169.969 36.7368 169.309 36.7368C168.685 36.7368 168.157 36.9288 167.725 37.3128C167.305 37.6848 167.047 38.2068 166.951 38.8788H171.685ZM178.776 39.7788C178.776 38.7708 178.974 37.8768 179.37 37.0968C179.778 36.3168 180.33 35.7168 181.026 35.2968C181.722 34.8768 182.496 34.6668 183.348 34.6668C183.996 34.6668 184.614 34.8108 185.202 35.0988C185.79 35.3748 186.258 35.7468 186.606 36.2148V31.4808H189.162V44.8008H186.606V43.3248C186.294 43.8168 185.856 44.2128 185.292 44.5128C184.728 44.8128 184.074 44.9628 183.33 44.9628C182.49 44.9628 181.722 44.7468 181.026 44.3148C180.33 43.8828 179.778 43.2768 179.37 42.4968C178.974 41.7048 178.776 40.7988 178.776 39.7788ZM186.624 39.8148C186.624 39.2028 186.504 38.6808 186.264 38.2488C186.024 37.8048 185.7 37.4688 185.292 37.2408C184.884 37.0008 184.446 36.8808 183.978 36.8808C183.51 36.8808 183.078 36.9948 182.682 37.2228C182.286 37.4508 181.962 37.7868 181.71 38.2308C181.47 38.6628 181.35 39.1788 181.35 39.7788C181.35 40.3788 181.47 40.9068 181.71 41.3628C181.962 41.8068 182.286 42.1488 182.682 42.3888C183.09 42.6288 183.522 42.7488 183.978 42.7488C184.446 42.7488 184.884 42.6348 185.292 42.4068C185.7 42.1668 186.024 41.8308 186.264 41.3988C186.504 40.9548 186.624 40.4268 186.624 39.8148ZM190.475 39.7788C190.475 38.7708 190.673 37.8768 191.069 37.0968C191.477 36.3168 192.023 35.7168 192.707 35.2968C193.403 34.8768 194.177 34.6668 195.029 34.6668C195.773 34.6668 196.421 34.8168 196.973 35.1168C197.537 35.4168 197.987 35.7948 198.323 36.2508V34.8288H200.861V44.8008H198.323V43.3428C197.999 43.8108 197.549 44.2008 196.973 44.5128C196.409 44.8128 195.755 44.9628 195.011 44.9628C194.171 44.9628 193.403 44.7468 192.707 44.3148C192.023 43.8828 191.477 43.2768 191.069 42.4968C190.673 41.7048 190.475 40.7988 190.475 39.7788ZM198.323 39.8148C198.323 39.2028 198.203 38.6808 197.963 38.2488C197.723 37.8048 197.399 37.4688 196.991 37.2408C196.583 37.0008 196.145 36.8808 195.677 36.8808C195.209 36.8808 194.777 36.9948 194.381 37.2228C193.985 37.4508 193.661 37.7868 193.409 38.2308C193.169 38.6628 193.049 39.1788 193.049 39.7788C193.049 40.3788 193.169 40.9068 193.409 41.3628C193.661 41.8068 193.985 42.1488 194.381 42.3888C194.789 42.6288 195.221 42.7488 195.677 42.7488C196.145 42.7488 196.583 42.6348 196.991 42.4068C197.399 42.1668 197.723 41.8308 197.963 41.3988C198.203 40.9548 198.323 40.4268 198.323 39.8148ZM212.362 34.8288L206.188 49.5168H203.506L205.666 44.5488L201.67 34.8288H204.496L207.07 41.7948L209.68 34.8288H212.362ZM88.2604 63.1248C88.2604 63.7968 88.0984 64.4268 87.7744 65.0148C87.4624 65.6028 86.9644 66.0768 86.2804 66.4368C85.6084 66.7968 84.7564 66.9768 83.7244 66.9768H81.6184V71.8008H79.0984V59.2368H83.7244C84.6964 59.2368 85.5244 59.4048 86.2084 59.7408C86.8924 60.0768 87.4024 60.5388 87.7384 61.1268C88.0864 61.7148 88.2604 62.3808 88.2604 63.1248ZM83.6164 64.9428C84.3124 64.9428 84.8284 64.7868 85.1644 64.4748C85.5004 64.1508 85.6684 63.7008 85.6684 63.1248C85.6684 61.9008 84.9844 61.2888 83.6164 61.2888H81.6184V64.9428H83.6164ZM92.0696 63.3768C92.3936 62.8488 92.8136 62.4348 93.3296 62.1348C93.8576 61.8348 94.4576 61.6848 95.1296 61.6848V64.3308H94.4636C93.6716 64.3308 93.0716 64.5168 92.6636 64.8888C92.2676 65.2608 92.0696 65.9088 92.0696 66.8328V71.8008H89.5496V61.8288H92.0696V63.3768ZM100.755 71.9628C99.795 71.9628 98.931 71.7528 98.163 71.3328C97.395 70.9008 96.789 70.2948 96.345 69.5148C95.913 68.7348 95.697 67.8348 95.697 66.8148C95.697 65.7948 95.919 64.8948 96.363 64.1148C96.819 63.3348 97.437 62.7348 98.217 62.3148C98.997 61.8828 99.867 61.6668 100.827 61.6668C101.787 61.6668 102.657 61.8828 103.437 62.3148C104.217 62.7348 104.829 63.3348 105.273 64.1148C105.729 64.8948 105.957 65.7948 105.957 66.8148C105.957 67.8348 105.723 68.7348 105.255 69.5148C104.799 70.2948 104.175 70.9008 103.383 71.3328C102.603 71.7528 101.727 71.9628 100.755 71.9628ZM100.755 69.7668C101.211 69.7668 101.637 69.6588 102.033 69.4428C102.441 69.2148 102.765 68.8788 103.005 68.4348C103.245 67.9908 103.365 67.4508 103.365 66.8148C103.365 65.8668 103.113 65.1408 102.609 64.6368C102.117 64.1208 101.511 63.8628 100.791 63.8628C100.071 63.8628 99.465 64.1208 98.973 64.6368C98.493 65.1408 98.253 65.8668 98.253 66.8148C98.253 67.7628 98.487 68.4948 98.955 69.0108C99.435 69.5148 100.035 69.7668 100.755 69.7668ZM106.657 66.7788C106.657 65.7708 106.855 64.8768 107.251 64.0968C107.659 63.3168 108.211 62.7168 108.907 62.2968C109.603 61.8768 110.377 61.6668 111.229 61.6668C111.877 61.6668 112.495 61.8108 113.083 62.0988C113.671 62.3748 114.139 62.7468 114.487 63.2148V58.4808H117.043V71.8008H114.487V70.3248C114.175 70.8168 113.737 71.2128 113.173 71.5128C112.609 71.8128 111.955 71.9628 111.211 71.9628C110.371 71.9628 109.603 71.7468 108.907 71.3148C108.211 70.8828 107.659 70.2768 107.251 69.4968C106.855 68.7048 106.657 67.7988 106.657 66.7788ZM114.505 66.8148C114.505 66.2028 114.385 65.6808 114.145 65.2488C113.905 64.8048 113.581 64.4688 113.173 64.2408C112.765 64.0008 112.327 63.8808 111.859 63.8808C111.391 63.8808 110.959 63.9948 110.563 64.2228C110.167 64.4508 109.843 64.7868 109.591 65.2308C109.351 65.6628 109.231 66.1788 109.231 66.7788C109.231 67.3788 109.351 67.9068 109.591 68.3628C109.843 68.8068 110.167 69.1488 110.563 69.3888C110.971 69.6288 111.403 69.7488 111.859 69.7488C112.327 69.7488 112.765 69.6348 113.173 69.4068C113.581 69.1668 113.905 68.8308 114.145 68.3988C114.385 67.9548 114.505 67.4268 114.505 66.8148ZM128.419 61.8288V71.8008H125.881V70.5408C125.557 70.9728 125.131 71.3148 124.603 71.5668C124.087 71.8068 123.523 71.9268 122.911 71.9268C122.131 71.9268 121.441 71.7648 120.841 71.4408C120.241 71.1048 119.767 70.6188 119.419 69.9828C119.083 69.3348 118.915 68.5668 118.915 67.6788V61.8288H121.435V67.3188C121.435 68.1108 121.633 68.7228 122.029 69.1548C122.425 69.5748 122.965 69.7848 123.649 69.7848C124.345 69.7848 124.891 69.5748 125.287 69.1548C125.683 68.7228 125.881 68.1108 125.881 67.3188V61.8288H128.419ZM129.757 66.8148C129.757 65.7828 129.967 64.8828 130.387 64.1148C130.807 63.3348 131.389 62.7348 132.133 62.3148C132.877 61.8828 133.729 61.6668 134.689 61.6668C135.925 61.6668 136.945 61.9788 137.749 62.6028C138.565 63.2148 139.111 64.0788 139.387 65.1948H136.669C136.525 64.7628 136.279 64.4268 135.931 64.1868C135.595 63.9348 135.175 63.8088 134.671 63.8088C133.951 63.8088 133.381 64.0728 132.961 64.6008C132.541 65.1168 132.331 65.8548 132.331 66.8148C132.331 67.7628 132.541 68.5008 132.961 69.0288C133.381 69.5448 133.951 69.8028 134.671 69.8028C135.691 69.8028 136.357 69.3468 136.669 68.4348H139.387C139.111 69.5148 138.565 70.3728 137.749 71.0088C136.933 71.6448 135.913 71.9628 134.689 71.9628C133.729 71.9628 132.877 71.7528 132.133 71.3328C131.389 70.9008 130.807 70.3008 130.387 69.5328C129.967 68.7528 129.757 67.8468 129.757 66.8148ZM143.667 63.8988V68.7228C143.667 69.0588 143.745 69.3048 143.901 69.4608C144.069 69.6048 144.345 69.6768 144.729 69.6768H145.899V71.8008H144.315C142.191 71.8008 141.129 70.7688 141.129 68.7048V63.8988H139.941V61.8288H141.129V59.3628H143.667V61.8288H145.899V63.8988H143.667ZM161.423 59.2368V71.8008H158.903V66.4548H153.521V71.8008H151.001V59.2368H153.521V64.4028H158.903V59.2368H161.423ZM172.817 61.8288V71.8008H170.279V70.5408C169.955 70.9728 169.529 71.3148 169.001 71.5668C168.485 71.8068 167.921 71.9268 167.309 71.9268C166.529 71.9268 165.839 71.7648 165.239 71.4408C164.639 71.1048 164.165 70.6188 163.817 69.9828C163.481 69.3348 163.313 68.5668 163.313 67.6788V61.8288H165.833V67.3188C165.833 68.1108 166.031 68.7228 166.427 69.1548C166.823 69.5748 167.363 69.7848 168.047 69.7848C168.743 69.7848 169.289 69.5748 169.685 69.1548C170.081 68.7228 170.279 68.1108 170.279 67.3188V61.8288H172.817ZM180.33 61.6848C181.518 61.6848 182.478 62.0628 183.21 62.8188C183.942 63.5628 184.308 64.6068 184.308 65.9508V71.8008H181.788V66.2928C181.788 65.5008 181.59 64.8948 181.194 64.4748C180.798 64.0428 180.258 63.8268 179.574 63.8268C178.878 63.8268 178.326 64.0428 177.918 64.4748C177.522 64.8948 177.324 65.5008 177.324 66.2928V71.8008H174.804V61.8288H177.324V63.0708C177.66 62.6388 178.086 62.3028 178.602 62.0628C179.13 61.8108 179.706 61.6848 180.33 61.6848ZM189.138 63.8988V68.7228C189.138 69.0588 189.216 69.3048 189.372 69.4608C189.54 69.6048 189.816 69.6768 190.2 69.6768H191.37V71.8008H189.786C187.662 71.8008 186.6 70.7688 186.6 68.7048V63.8988H185.412V61.8288H186.6V59.3628H189.138V61.8288H191.37V63.8988H189.138Z" fill="#846358"/>
<path d="M226.729 6.86719C229.063 8.43502 231.643 10.3765 233.722 12.542C237.411 16.3842 241.069 20.7157 244.214 25.0496C246.338 27.9774 249.094 32.4201 250.6 35.6881C252.604 40.0372 253.791 43.0841 254.89 47.8625C256.44 54.5942 256.226 61.5027 254.653 68.0156C252.337 77.5975 244.928 85.6147 237.523 92.1226C231.731 97.2133 223.943 100.544 217.101 102.99L216.398 101.123C223.179 98.6989 230.366 95.4632 235.917 90.5781C243.058 84.2946 249.653 76.6314 252.499 67.4979C254.232 61.9388 254.634 55.8391 253.725 49.9333C252.928 44.7592 250.926 39.5738 248.975 34.859C247.372 30.9833 245.502 27.9641 243.221 24.7841C240.329 20.7519 237.151 16.8198 233.773 13.2293C231.586 10.9052 228.662 8.80703 226.313 7.22949L226.729 6.86719Z" fill="#846358"/>
<path d="M229.703 97.2793C229.703 97.2793 234.509 95.7599 238.323 96.2075C244.378 96.9181 244.937 100.677 244.937 100.677C244.937 100.677 242.507 102.185 237.297 101.612C231.193 100.941 229.703 97.2793 229.703 97.2793Z" fill="#846358"/>
<path d="M237.879 91.6665C237.879 91.6665 241.929 89.7453 245.769 89.7738C252.417 89.823 252.816 93.3541 252.816 93.3541C252.816 93.3541 250.41 95.0902 245.085 95.0189C238.945 94.9365 237.879 91.6665 237.879 91.6665Z" fill="#846358"/>
<path d="M243.941 85.7635C243.941 85.7635 247.793 82.3882 251.518 81.4548C257.967 79.839 260.103 83.5913 260.103 83.5913C260.103 83.5913 257.705 86.4673 252.533 87.7304C246.567 89.187 243.941 85.7635 243.941 85.7635Z" fill="#846358"/>
<path d="M250.777 76.6701C250.777 76.6701 254.071 73.1984 258.579 71.8132C264.463 70.0054 267.229 73.5546 267.309 73.6434C267.309 73.6434 264.898 76.6779 259.869 78.0082C253.122 79.7926 250.777 76.6701 250.777 76.6701H250.777Z" fill="#846358"/>
<path d="M254.031 69.4336C254.031 69.4336 257.099 64.7627 261.674 62.558C266.119 60.4159 269.365 62.2402 269.446 62.312C269.446 62.312 267.163 66.4842 262.963 68.4834C257.256 71.1998 254.031 69.4336 254.031 69.4336Z" fill="#846358"/>
<path d="M255.016 63.0827C256.653 61.5427 256.775 57.3567 259.115 53.9593C262.379 49.2201 267.764 49.5639 267.845 49.6082C267.845 49.6082 267.268 55.5125 263.186 59.0811C258.847 62.8735 255.016 63.0827 255.016 63.0827Z" fill="#846358"/>
<path d="M255.474 53.1286C255.474 53.1286 255.316 47.9967 256.669 44.0997C258.557 38.6634 263.71 37.5962 263.8 37.6175C263.8 37.6175 264.636 43.4305 261.648 47.9555C258.473 52.7645 255.474 53.1284 255.474 53.1284L255.474 53.1286Z" fill="#846358"/>
<path d="M253.291 43.5095C253.291 43.5095 252.263 39.2014 252.784 35.1091C253.569 28.9413 258.369 27.6356 258.46 27.6446C258.46 27.6446 260.106 33.3572 257.765 38.2481C255.277 43.4459 253.291 43.5095 253.291 43.5095Z" fill="#846358"/>
<path d="M249.066 33.1842C249.066 33.1842 247.395 29.2871 247.609 25.1675C247.906 19.45 251.78 17.0346 251.872 17.0312C251.872 17.0312 255.608 20.3993 253.462 27.6493C252.161 32.0471 249.066 33.1843 249.066 33.1843L249.066 33.1842Z" fill="#846358"/>
<path d="M243.674 24.6969C243.674 24.6969 241.19 20.8706 240.503 16.8029C239.858 12.9841 241.407 8.82376 241.753 8.44141C241.753 8.44141 245.795 10.2178 245.644 17.0352C245.542 21.6205 243.674 24.6969 243.674 24.6969Z" fill="#846358"/>
<path d="M237.074 16.5029C237.074 16.5029 234.113 13.349 233.341 9.03651C232.702 5.46217 233.346 1.57866 234.019 0.609375C234.019 0.609375 237.882 3.00959 238.163 9.07968C238.375 13.6611 237.381 15.8417 237.074 16.5028L237.074 16.5029Z" fill="#846358"/>
<path d="M232.286 11.4799C232.286 11.4799 226.641 11.6838 223.836 10.0551C220.696 8.23194 217.614 4.27473 217.371 3.11951C217.371 3.11951 222.315 0.951717 226.924 4.91147C230.403 7.90003 232.015 10.8034 232.286 11.4799Z" fill="#846358"/>
<path d="M238.503 18.2893C238.503 18.2893 235.804 15.1283 231.164 14.3116C227.588 13.6822 224.839 14.2634 223.074 15.2918C223.074 15.2918 225.797 18.7804 231.016 19.2614C235.583 19.6822 237.832 18.5737 238.503 18.2893Z" fill="#846358"/>
<path d="M244.073 25.5776C244.073 25.5776 241.502 22.5456 236.863 21.729C233.287 21.0996 231.57 21.7453 229.805 22.7737C229.805 22.7737 231.979 26.1012 237.198 26.582C241.765 27.0028 243.402 25.862 244.073 25.5776L244.073 25.5776Z" fill="#846358"/>
<path d="M249.498 35.0845C249.498 35.0845 247.097 31.3476 242.754 29.5214C238.305 27.65 236.019 28.5436 234.105 29.258C234.716 30.1735 237.213 33.9895 241.263 35.135C245.676 36.3835 248.789 35.2511 249.498 35.0845Z" fill="#846358"/>
<path d="M252.702 43.5275C252.702 43.5275 250.574 39.6284 246.373 37.4963C242.069 35.3114 239.726 36.0392 237.766 36.6148C238.309 37.5716 240.527 41.5565 244.484 42.9889C248.797 44.5498 251.983 43.6429 252.702 43.5275Z" fill="#846358"/>
<path d="M254.391 53.5646C252.549 51.2035 251.548 48.6651 248.715 46.1387C245.224 43.0261 242.228 44.0184 240.195 44.2194C241.196 46.0991 242.699 49.0726 245.804 51.3129C249.524 53.9962 253.663 53.5443 254.391 53.5648V53.5646Z" fill="#846358"/>
<path d="M254.171 62.808C252.605 60.2557 251.862 58.2661 249.329 55.4385C246.208 51.955 243.25 52.5734 241.207 52.5457C241.991 54.5255 243.313 57.4873 246.148 60.061C249.544 63.1436 253.45 62.7062 254.171 62.808Z" fill="#846358"/>
<path d="M252.155 70.1808C249.799 66.5436 250.096 65.7204 247.791 62.7047C245.314 59.4658 242.186 59.5548 240.152 59.3633C240.775 61.3997 241.706 64.1544 244.346 66.9282C247.161 69.8862 250.089 69.5054 252.155 70.1808Z" fill="#846358"/>
<path d="M248.286 77.4039C246.8 74.186 247.057 72.1766 245.695 69.8956C243.467 66.165 241.284 66.0039 239.25 65.8125C240.872 70.4605 240.497 70.4819 242.282 73.3129C244.02 76.0676 246.381 76.4383 248.286 77.404V77.4039Z" fill="#846358"/>
<path d="M243.61 83.4808C242.763 80.0391 243.623 78.9859 242.719 76.4876C241.242 72.4016 239.128 71.8285 237.168 71.2539C237.393 73.9969 237.053 75.7371 238.59 78.7102C239.676 80.8097 241.924 82.1708 243.61 83.4808Z" fill="#846358"/>
<path d="M234.213 76.7228C234.213 76.7228 232.516 80.0002 233.08 83.7987C233.879 89.1807 236.755 89.987 236.755 89.987C236.755 89.987 238.393 87.5408 238.226 82.5773C238.048 77.2755 234.213 76.7227 234.213 76.7227L234.213 76.7228Z" fill="#846358"/>
<path d="M228.083 82.207C228.083 82.207 226.385 85.5253 226.756 89.3475C227.233 94.2458 229.915 95.4714 229.915 95.4714C229.915 95.4714 231.605 92.737 231.677 88.61C231.787 82.3083 228.083 82.207 228.083 82.207Z" fill="#846358"/>
</svg>
