<svg width="301" height="103" viewBox="0 0 301 103" fill="none" xmlns="http://www.w3.org/2000/svg">
<path d="M43.1575 6.86719C40.8233 8.43502 38.2436 10.3765 36.1644 12.542C32.4754 16.3842 28.8168 20.7157 25.6723 25.0496C23.548 27.9774 20.792 32.4201 19.2862 35.6881C17.2824 40.0372 16.0955 43.0841 14.9957 47.8625C13.4464 54.5942 13.6601 61.5027 15.2336 68.0156C17.5488 77.5975 24.9584 85.6147 32.3627 92.1226C38.1552 97.2133 45.9429 100.544 52.7854 102.99L53.4924 101.122C46.7125 98.6991 39.5265 95.4631 33.9752 90.5783C26.8339 84.294 20.2379 76.6304 17.3927 67.4982C15.6597 61.9392 15.2574 55.84 16.1667 49.9336C16.9633 44.7595 18.9657 39.574 20.9164 34.8593C22.5202 30.9836 24.39 27.9643 26.6708 24.7844C29.5627 20.7522 32.7405 16.82 36.1186 13.2296C38.3053 10.9055 41.2297 8.80729 43.5785 7.22974L43.1575 6.86719Z" fill="#846358"/>
<path d="M40.1905 97.2793C40.1905 97.2793 35.3844 95.7599 31.5704 96.2075C25.5152 96.9181 24.957 100.677 24.957 100.677C24.957 100.677 27.3862 102.185 32.5965 101.612C38.7003 100.941 40.1903 97.2793 40.1903 97.2793L40.1905 97.2793Z" fill="#846358"/>
<path d="M32.0074 91.6665C32.0074 91.6665 27.9571 89.7453 24.117 89.7738C17.4689 89.823 17.0703 93.3541 17.0703 93.3541C17.0703 93.3541 19.4767 95.0902 24.8011 95.0189C30.9411 94.9365 32.0074 91.6665 32.0074 91.6665Z" fill="#846358"/>
<path d="M25.9541 85.7635C25.9541 85.7635 22.1029 82.3882 18.3778 81.4548C11.929 79.839 9.79297 83.5913 9.79297 83.5913C9.79297 83.5913 12.1901 86.4673 17.363 87.7304C23.3282 89.187 25.9541 85.7635 25.9541 85.7635Z" fill="#846358"/>
<path d="M19.1141 76.6662C19.1141 76.6662 15.8206 73.1945 11.3121 71.8093C5.42832 70.0015 2.66274 73.5507 2.58203 73.6395C2.58203 73.6395 4.99298 76.674 10.023 78.0043C16.77 79.7887 19.1141 76.6662 19.1141 76.6662Z" fill="#846358"/>
<path d="M15.8593 69.4301C15.8593 69.4301 12.792 64.7592 8.21694 62.5545C3.77267 60.4116 0.525894 62.2365 0.445312 62.308C0.445312 62.308 2.7283 66.4802 6.92852 68.4794C12.6353 71.1958 15.86 69.4297 15.86 69.4297L15.8593 69.4301Z" fill="#846358"/>
<path d="M14.8722 63.0786C13.2351 61.5385 13.1131 57.3523 10.773 53.9553C7.5085 49.2162 2.12355 49.5597 2.04297 49.6044C2.04297 49.6044 2.61946 55.5087 6.70178 59.0773C11.0403 62.8698 14.8721 63.079 14.8721 63.079L14.8722 63.0786Z" fill="#846358"/>
<path d="M14.4173 53.1286C14.4173 53.1286 14.5762 47.9967 13.2229 44.0997C11.335 38.6634 6.18148 37.5962 6.09196 37.6175C6.09196 37.6175 5.2562 43.4305 8.24353 47.9555C11.4184 52.7645 14.4173 53.1284 14.4173 53.1284L14.4173 53.1286Z" fill="#846358"/>
<path d="M16.602 43.5095C16.602 43.5095 17.6299 39.2014 17.1092 35.1091C16.3243 28.9413 11.5246 27.6356 11.4329 27.6446C11.4329 27.6446 9.78757 33.3572 12.1283 38.2481C14.6158 43.4459 16.602 43.5095 16.602 43.5095Z" fill="#846358"/>
<path d="M20.8302 33.1842C20.8302 33.1842 22.5018 29.2871 22.2876 25.1675C21.9903 19.45 18.1161 17.0346 18.0242 17.0312C18.0242 17.0312 14.2887 20.3993 16.4341 27.6493C17.7356 32.0471 20.8304 33.1843 20.8304 33.1843L20.8302 33.1842Z" fill="#846358"/>
<path d="M26.2079 24.693C26.2079 24.693 28.6919 20.8667 29.3791 16.799C30.0242 12.9802 28.4749 8.81985 28.1291 8.4375C28.1291 8.4375 24.0872 10.2139 24.2385 17.0313C24.3403 21.6165 26.2079 24.693 26.2079 24.693Z" fill="#846358"/>
<path d="M32.8172 16.5023C32.8172 16.5023 35.779 13.3484 36.5505 9.03588C37.189 5.46217 36.5453 1.57866 35.8723 0.609375C35.8723 0.609375 32.0093 3.00959 31.7286 9.07968C31.5167 13.6611 32.5109 15.8417 32.8173 16.5028L32.8172 16.5023Z" fill="#846358"/>
<path d="M37.6094 11.476C37.6094 11.476 43.2538 11.6799 46.0591 10.0511C49.1993 8.22803 52.2808 4.27083 52.5239 3.11561C52.5239 3.11561 47.5802 0.947811 42.9708 4.90757C39.4919 7.89612 37.8802 10.7995 37.6094 11.476Z" fill="#846358"/>
<path d="M31.3908 18.2893C31.3908 18.2893 34.0906 15.1283 38.7298 14.3116C42.3058 13.6822 45.055 14.2634 46.82 15.2918C46.82 15.2918 44.097 18.7804 38.878 19.2614C34.311 19.6822 32.0616 18.5736 31.3906 18.2892L31.3908 18.2893Z" fill="#846358"/>
<path d="M25.8126 25.5736C25.8126 25.5736 28.3833 22.5417 33.0227 21.7251C36.5987 21.0957 38.3159 21.7414 40.0809 22.7698C40.0809 22.7698 37.9062 26.0973 32.6871 26.5781C28.1201 26.9989 26.4835 25.8581 25.8125 25.5737L25.8126 25.5736Z" fill="#846358"/>
<path d="M20.3984 35.0845C20.3984 35.0845 22.7999 31.3476 27.1423 29.5214C31.5919 27.65 33.8773 28.5436 35.7911 29.258C35.1808 30.1735 32.6832 33.9895 28.6338 35.135C24.2207 36.3835 21.1078 35.2511 20.3984 35.0845Z" fill="#846358"/>
<path d="M17.1836 43.5275C17.1836 43.5275 19.3117 39.6284 23.5122 37.4963C27.8166 35.3114 30.16 36.0392 32.12 36.6148C31.5767 37.5716 29.3585 41.5565 25.4014 42.9889C21.0888 44.5498 17.9031 43.6429 17.1836 43.5275Z" fill="#846358"/>
<path d="M15.4922 53.5607C17.3338 51.1996 18.335 48.6612 21.1686 46.1348C24.6595 43.0222 27.655 44.0145 29.6879 44.2155C28.6871 46.0952 27.1845 49.0687 24.0791 51.309C20.3595 53.9922 16.2206 53.5404 15.4922 53.5609V53.5607Z" fill="#846358"/>
<path d="M15.7227 62.808C17.2886 60.2557 18.0317 58.2661 20.5647 55.4385C23.6855 51.955 26.6441 52.5734 28.6868 52.5457C27.9026 54.5255 26.5809 57.4873 23.7456 60.061C20.3497 63.1436 16.4441 62.7062 15.7227 62.808Z" fill="#846358"/>
<path d="M17.7383 70.1808C20.0942 66.5436 19.7969 65.7204 22.1027 62.7047C24.5792 59.4658 27.7071 59.5548 29.7409 59.3633C29.1181 61.3997 28.1874 64.1544 25.5475 66.9282C22.7322 69.8862 19.8039 69.5054 17.7384 70.1808H17.7383Z" fill="#846358"/>
<path d="M21.6055 77.4039C23.0907 74.186 22.8342 72.1766 24.1961 69.8956C26.4235 66.165 28.6072 66.0039 30.641 65.8125C29.0188 70.4605 29.3943 70.4819 27.6085 73.3129C25.8708 76.0676 23.5097 76.4383 21.6055 77.404V77.4039Z" fill="#846358"/>
<path d="M26.2734 83.4808C27.1199 80.0391 26.2604 78.9859 27.1639 76.4876C28.6416 72.4016 30.7549 71.8285 32.7151 71.2539C32.4897 73.9969 32.8301 75.7371 31.2926 78.7102C30.2069 80.8097 27.9594 82.1708 26.2734 83.4808Z" fill="#846358"/>
<path d="M35.681 76.7228C35.681 76.7228 37.3786 80.0002 36.8147 83.7987C36.0157 89.1807 33.1397 89.987 33.1397 89.987C33.1397 89.987 31.5016 87.5408 31.6681 82.5773C31.846 77.2755 35.681 76.7227 35.681 76.7227L35.681 76.7228Z" fill="#846358"/>
<path d="M41.8068 82.2031C41.8068 82.2031 43.5057 85.5214 43.1341 89.3436C42.6577 94.2419 39.9752 95.4675 39.9752 95.4675C39.9752 95.4675 38.2854 92.7331 38.2133 88.6061C38.1035 82.3044 41.807 82.2032 41.807 82.2032L41.8068 82.2031Z" fill="#846358"/>
<path d="M63.2863 32.2368C64.6063 32.2368 65.7643 32.4948 66.7603 33.0108C67.7683 33.5268 68.5423 34.2648 69.0823 35.2248C69.6343 36.1728 69.9103 37.2768 69.9103 38.5368C69.9103 39.7968 69.6343 40.9008 69.0823 41.8488C68.5423 42.7848 67.7683 43.5108 66.7603 44.0268C65.7643 44.5428 64.6063 44.8008 63.2863 44.8008H58.8943V32.2368H63.2863ZM63.1963 42.6588C64.5163 42.6588 65.5363 42.2988 66.2563 41.5788C66.9763 40.8588 67.3363 39.8448 67.3363 38.5368C67.3363 37.2288 66.9763 36.2088 66.2563 35.4768C65.5363 34.7328 64.5163 34.3608 63.1963 34.3608H61.4143V42.6588H63.1963ZM72.5747 33.6408C72.1307 33.6408 71.7587 33.5028 71.4587 33.2268C71.1707 32.9388 71.0267 32.5848 71.0267 32.1648C71.0267 31.7448 71.1707 31.3968 71.4587 31.1208C71.7587 30.8328 72.1307 30.6888 72.5747 30.6888C73.0187 30.6888 73.3847 30.8328 73.6727 31.1208C73.9727 31.3968 74.1227 31.7448 74.1227 32.1648C74.1227 32.5848 73.9727 32.9388 73.6727 33.2268C73.3847 33.5028 73.0187 33.6408 72.5747 33.6408ZM73.8167 34.8288V44.8008H71.2967V34.8288H73.8167ZM79.7125 34.6668C80.4565 34.6668 81.1105 34.8168 81.6745 35.1168C82.2385 35.4048 82.6825 35.7828 83.0065 36.2508V34.8288H85.5445V44.8728C85.5445 45.7968 85.3585 46.6188 84.9865 47.3388C84.6145 48.0708 84.0565 48.6468 83.3125 49.0668C82.5685 49.4988 81.6685 49.7148 80.6125 49.7148C79.1965 49.7148 78.0325 49.3848 77.1205 48.7248C76.2205 48.0648 75.7105 47.1648 75.5905 46.0248H78.0925C78.2245 46.4808 78.5065 46.8408 78.9385 47.1048C79.3825 47.3808 79.9165 47.5188 80.5405 47.5188C81.2725 47.5188 81.8665 47.2968 82.3225 46.8528C82.7785 46.4208 83.0065 45.7608 83.0065 44.8728V43.3248C82.6825 43.7928 82.2325 44.1828 81.6565 44.4948C81.0925 44.8068 80.4445 44.9628 79.7125 44.9628C78.8725 44.9628 78.1045 44.7468 77.4085 44.3148C76.7125 43.8828 76.1605 43.2768 75.7525 42.4968C75.3565 41.7048 75.1585 40.7988 75.1585 39.7788C75.1585 38.7708 75.3565 37.8768 75.7525 37.0968C76.1605 36.3168 76.7065 35.7168 77.3905 35.2968C78.0865 34.8768 78.8605 34.6668 79.7125 34.6668ZM83.0065 39.8148C83.0065 39.2028 82.8865 38.6808 82.6465 38.2488C82.4065 37.8048 82.0825 37.4688 81.6745 37.2408C81.2665 37.0008 80.8285 36.8808 80.3605 36.8808C79.8925 36.8808 79.4605 36.9948 79.0645 37.2228C78.6685 37.4508 78.3445 37.7868 78.0925 38.2308C77.8525 38.6628 77.7325 39.1788 77.7325 39.7788C77.7325 40.3788 77.8525 40.9068 78.0925 41.3628C78.3445 41.8068 78.6685 42.1488 79.0645 42.3888C79.4725 42.6288 79.9045 42.7488 80.3605 42.7488C80.8285 42.7488 81.2665 42.6348 81.6745 42.4068C82.0825 42.1668 82.4065 41.8308 82.6465 41.3988C82.8865 40.9548 83.0065 40.4268 83.0065 39.8148ZM88.7837 33.6408C88.3397 33.6408 87.9677 33.5028 87.6677 33.2268C87.3797 32.9388 87.2357 32.5848 87.2357 32.1648C87.2357 31.7448 87.3797 31.3968 87.6677 31.1208C87.9677 30.8328 88.3397 30.6888 88.7837 30.6888C89.2277 30.6888 89.5937 30.8328 89.8817 31.1208C90.1817 31.3968 90.3317 31.7448 90.3317 32.1648C90.3317 32.5848 90.1817 32.9388 89.8817 33.2268C89.5937 33.5028 89.2277 33.6408 88.7837 33.6408ZM90.0257 34.8288V44.8008H87.5057V34.8288H90.0257ZM94.9494 36.8988V41.7228C94.9494 42.0588 95.0274 42.3048 95.1834 42.4608C95.3514 42.6048 95.6274 42.6768 96.0114 42.6768H97.1814V44.8008H95.5974C93.4734 44.8008 92.4114 43.7688 92.4114 41.7048V36.8988H91.2234V34.8288H92.4114V32.3628H94.9494V34.8288H97.1814V36.8988H94.9494ZM97.846 39.7788C97.846 38.7708 98.044 37.8768 98.44 37.0968C98.848 36.3168 99.394 35.7168 100.078 35.2968C100.774 34.8768 101.548 34.6668 102.4 34.6668C103.144 34.6668 103.792 34.8168 104.344 35.1168C104.908 35.4168 105.358 35.7948 105.694 36.2508V34.8288H108.232V44.8008H105.694V43.3428C105.37 43.8108 104.92 44.2008 104.344 44.5128C103.78 44.8128 103.126 44.9628 102.382 44.9628C101.542 44.9628 100.774 44.7468 100.078 44.3148C99.394 43.8828 98.848 43.2768 98.44 42.4968C98.044 41.7048 97.846 40.7988 97.846 39.7788ZM105.694 39.8148C105.694 39.2028 105.574 38.6808 105.334 38.2488C105.094 37.8048 104.77 37.4688 104.362 37.2408C103.954 37.0008 103.516 36.8808 103.048 36.8808C102.58 36.8808 102.148 36.9948 101.752 37.2228C101.356 37.4508 101.032 37.7868 100.78 38.2308C100.54 38.6628 100.42 39.1788 100.42 39.7788C100.42 40.3788 100.54 40.9068 100.78 41.3628C101.032 41.8068 101.356 42.1488 101.752 42.3888C102.16 42.6288 102.592 42.7488 103.048 42.7488C103.516 42.7488 103.954 42.6348 104.362 42.4068C104.77 42.1668 105.094 41.8308 105.334 41.3988C105.574 40.9548 105.694 40.4268 105.694 39.8148ZM112.713 31.4808V44.8008H110.193V31.4808H112.713ZM121.012 32.2368V44.8008H118.492V32.2368H121.012ZM128.528 34.6848C129.716 34.6848 130.676 35.0628 131.408 35.8188C132.14 36.5628 132.506 37.6068 132.506 38.9508V44.8008H129.986V39.2928C129.986 38.5008 129.788 37.8948 129.392 37.4748C128.996 37.0428 128.456 36.8268 127.772 36.8268C127.076 36.8268 126.524 37.0428 126.116 37.4748C125.72 37.8948 125.522 38.5008 125.522 39.2928V44.8008H123.002V34.8288H125.522V36.0708C125.858 35.6388 126.284 35.3028 126.8 35.0628C127.328 34.8108 127.904 34.6848 128.528 34.6848ZM139.928 34.6848C141.116 34.6848 142.076 35.0628 142.808 35.8188C143.54 36.5628 143.906 37.6068 143.906 38.9508V44.8008H141.386V39.2928C141.386 38.5008 141.188 37.8948 140.792 37.4748C140.396 37.0428 139.856 36.8268 139.172 36.8268C138.476 36.8268 137.924 37.0428 137.516 37.4748C137.12 37.8948 136.922 38.5008 136.922 39.2928V44.8008H134.402V34.8288H136.922V36.0708C137.258 35.6388 137.684 35.3028 138.2 35.0628C138.728 34.8108 139.304 34.6848 139.928 34.6848ZM150.231 44.9628C149.271 44.9628 148.407 44.7528 147.639 44.3328C146.871 43.9008 146.265 43.2948 145.821 42.5148C145.389 41.7348 145.173 40.8348 145.173 39.8148C145.173 38.7948 145.395 37.8948 145.839 37.1148C146.295 36.3348 146.913 35.7348 147.693 35.3148C148.473 34.8828 149.343 34.6668 150.303 34.6668C151.263 34.6668 152.133 34.8828 152.913 35.3148C153.693 35.7348 154.305 36.3348 154.749 37.1148C155.205 37.8948 155.433 38.7948 155.433 39.8148C155.433 40.8348 155.199 41.7348 154.731 42.5148C154.275 43.2948 153.651 43.9008 152.859 44.3328C152.079 44.7528 151.203 44.9628 150.231 44.9628ZM150.231 42.7668C150.687 42.7668 151.113 42.6588 151.509 42.4428C151.917 42.2148 152.241 41.8788 152.481 41.4348C152.721 40.9908 152.841 40.4508 152.841 39.8148C152.841 38.8668 152.589 38.1408 152.085 37.6368C151.593 37.1208 150.987 36.8628 150.267 36.8628C149.547 36.8628 148.941 37.1208 148.449 37.6368C147.969 38.1408 147.729 38.8668 147.729 39.8148C147.729 40.7628 147.963 41.4948 148.431 42.0108C148.911 42.5148 149.511 42.7668 150.231 42.7668ZM160.939 42.4788L163.459 34.8288H166.141L162.451 44.8008H159.391L155.719 34.8288H158.419L160.939 42.4788ZM166.408 39.7788C166.408 38.7708 166.606 37.8768 167.002 37.0968C167.41 36.3168 167.956 35.7168 168.64 35.2968C169.336 34.8768 170.11 34.6668 170.962 34.6668C171.706 34.6668 172.354 34.8168 172.906 35.1168C173.47 35.4168 173.92 35.7948 174.256 36.2508V34.8288H176.794V44.8008H174.256V43.3428C173.932 43.8108 173.482 44.2008 172.906 44.5128C172.342 44.8128 171.688 44.9628 170.944 44.9628C170.104 44.9628 169.336 44.7468 168.64 44.3148C167.956 43.8828 167.41 43.2768 167.002 42.4968C166.606 41.7048 166.408 40.7988 166.408 39.7788ZM174.256 39.8148C174.256 39.2028 174.136 38.6808 173.896 38.2488C173.656 37.8048 173.332 37.4688 172.924 37.2408C172.516 37.0008 172.078 36.8808 171.61 36.8808C171.142 36.8808 170.71 36.9948 170.314 37.2228C169.918 37.4508 169.594 37.7868 169.342 38.2308C169.102 38.6628 168.982 39.1788 168.982 39.7788C168.982 40.3788 169.102 40.9068 169.342 41.3628C169.594 41.8068 169.918 42.1488 170.314 42.3888C170.722 42.6288 171.154 42.7488 171.61 42.7488C172.078 42.7488 172.516 42.6348 172.924 42.4068C173.332 42.1668 173.656 41.8308 173.896 41.3988C174.136 40.9548 174.256 40.4268 174.256 39.8148ZM181.69 36.8988V41.7228C181.69 42.0588 181.768 42.3048 181.924 42.4608C182.092 42.6048 182.368 42.6768 182.752 42.6768H183.922V44.8008H182.338C180.214 44.8008 179.152 43.7688 179.152 41.7048V36.8988H177.964V34.8288H179.152V32.3628H181.69V34.8288H183.922V36.8988H181.69ZM189.662 44.9628C188.702 44.9628 187.838 44.7528 187.07 44.3328C186.302 43.9008 185.696 43.2948 185.252 42.5148C184.82 41.7348 184.604 40.8348 184.604 39.8148C184.604 38.7948 184.826 37.8948 185.27 37.1148C185.726 36.3348 186.344 35.7348 187.124 35.3148C187.904 34.8828 188.774 34.6668 189.734 34.6668C190.694 34.6668 191.564 34.8828 192.344 35.3148C193.124 35.7348 193.736 36.3348 194.18 37.1148C194.636 37.8948 194.864 38.7948 194.864 39.8148C194.864 40.8348 194.63 41.7348 194.162 42.5148C193.706 43.2948 193.082 43.9008 192.29 44.3328C191.51 44.7528 190.634 44.9628 189.662 44.9628ZM189.662 42.7668C190.118 42.7668 190.544 42.6588 190.94 42.4428C191.348 42.2148 191.672 41.8788 191.912 41.4348C192.152 40.9908 192.272 40.4508 192.272 39.8148C192.272 38.8668 192.02 38.1408 191.516 37.6368C191.024 37.1208 190.418 36.8628 189.698 36.8628C188.978 36.8628 188.372 37.1208 187.88 37.6368C187.4 38.1408 187.16 38.8668 187.16 39.8148C187.16 40.7628 187.394 41.4948 187.862 42.0108C188.342 42.5148 188.942 42.7668 189.662 42.7668ZM198.733 36.3768C199.057 35.8488 199.477 35.4348 199.993 35.1348C200.521 34.8348 201.121 34.6848 201.793 34.6848V37.3308H201.127C200.335 37.3308 199.735 37.5168 199.327 37.8888C198.931 38.2608 198.733 38.9088 198.733 39.8328V44.8008H196.213V34.8288H198.733V36.3768ZM207.283 41.9568C208.435 40.9968 209.353 40.1988 210.037 39.5628C210.721 38.9148 211.291 38.2428 211.747 37.5468C212.203 36.8508 212.431 36.1668 212.431 35.4948C212.431 34.8828 212.287 34.4028 211.999 34.0548C211.711 33.7068 211.267 33.5328 210.667 33.5328C210.067 33.5328 209.605 33.7368 209.281 34.1448C208.957 34.5408 208.789 35.0868 208.777 35.7828H206.329C206.377 34.3428 206.803 33.2508 207.607 32.5068C208.423 31.7628 209.455 31.3908 210.703 31.3908C212.071 31.3908 213.121 31.7568 213.853 32.4888C214.585 33.2088 214.951 34.1628 214.951 35.3508C214.951 36.2868 214.699 37.1808 214.195 38.0328C213.691 38.8848 213.115 39.6288 212.467 40.2648C211.819 40.8888 210.973 41.6448 209.929 42.5328H215.239V44.6208H206.347V42.7488L207.283 41.9568ZM216.327 38.0688C216.327 35.9928 216.699 34.3668 217.443 33.1908C218.199 32.0148 219.447 31.4268 221.187 31.4268C222.927 31.4268 224.169 32.0148 224.913 33.1908C225.669 34.3668 226.047 35.9928 226.047 38.0688C226.047 40.1568 225.669 41.7948 224.913 42.9828C224.169 44.1708 222.927 44.7648 221.187 44.7648C219.447 44.7648 218.199 44.1708 217.443 42.9828C216.699 41.7948 216.327 40.1568 216.327 38.0688ZM223.563 38.0688C223.563 37.1808 223.503 36.4368 223.383 35.8368C223.275 35.2248 223.047 34.7268 222.699 34.3428C222.363 33.9588 221.859 33.7668 221.187 33.7668C220.515 33.7668 220.005 33.9588 219.657 34.3428C219.321 34.7268 219.093 35.2248 218.973 35.8368C218.865 36.4368 218.811 37.1808 218.811 38.0688C218.811 38.9808 218.865 39.7488 218.973 40.3728C219.081 40.9848 219.309 41.4828 219.657 41.8668C220.005 42.2388 220.515 42.4248 221.187 42.4248C221.859 42.4248 222.369 42.2388 222.717 41.8668C223.065 41.4828 223.293 40.9848 223.401 40.3728C223.509 39.7488 223.563 38.9808 223.563 38.0688ZM228.256 41.9568C229.408 40.9968 230.326 40.1988 231.01 39.5628C231.694 38.9148 232.264 38.2428 232.72 37.5468C233.176 36.8508 233.404 36.1668 233.404 35.4948C233.404 34.8828 233.26 34.4028 232.972 34.0548C232.684 33.7068 232.24 33.5328 231.64 33.5328C231.04 33.5328 230.578 33.7368 230.254 34.1448C229.93 34.5408 229.762 35.0868 229.75 35.7828H227.302C227.35 34.3428 227.776 33.2508 228.58 32.5068C229.396 31.7628 230.428 31.3908 231.676 31.3908C233.044 31.3908 234.094 31.7568 234.826 32.4888C235.558 33.2088 235.924 34.1628 235.924 35.3508C235.924 36.2868 235.672 37.1808 235.168 38.0328C234.664 38.8848 234.088 39.6288 233.44 40.2648C232.792 40.8888 231.946 41.6448 230.902 42.5328H236.212V44.6208H227.32V42.7488L228.256 41.9568ZM237.336 35.1348C237.396 33.9348 237.816 33.0108 238.596 32.3628C239.388 31.7028 240.426 31.3728 241.71 31.3728C242.586 31.3728 243.336 31.5288 243.96 31.8408C244.584 32.1408 245.052 32.5548 245.364 33.0828C245.688 33.5988 245.85 34.1868 245.85 34.8468C245.85 35.6028 245.652 36.2448 245.256 36.7728C244.872 37.2888 244.41 37.6368 243.87 37.8168V37.8888C244.566 38.1048 245.106 38.4888 245.49 39.0408C245.886 39.5928 246.084 40.3008 246.084 41.1648C246.084 41.8848 245.916 42.5268 245.58 43.0908C245.256 43.6548 244.77 44.0988 244.122 44.4228C243.486 44.7348 242.718 44.8908 241.818 44.8908C240.462 44.8908 239.358 44.5488 238.506 43.8648C237.654 43.1808 237.204 42.1728 237.156 40.8408H239.604C239.628 41.4288 239.826 41.9028 240.198 42.2628C240.582 42.6108 241.104 42.7848 241.764 42.7848C242.376 42.7848 242.844 42.6168 243.168 42.2808C243.504 41.9328 243.672 41.4888 243.672 40.9488C243.672 40.2288 243.444 39.7128 242.988 39.4008C242.532 39.0888 241.824 38.9328 240.864 38.9328H240.342V36.8628H240.864C242.568 36.8628 243.42 36.2928 243.42 35.1528C243.42 34.6368 243.264 34.2348 242.952 33.9468C242.652 33.6588 242.214 33.5148 241.638 33.5148C241.074 33.5148 240.636 33.6708 240.324 33.9828C240.024 34.2828 239.85 34.6668 239.802 35.1348H237.336ZM123.186 59.2368V71.8008H120.666V59.2368H123.186ZM130.702 61.6848C131.89 61.6848 132.85 62.0628 133.582 62.8188C134.314 63.5628 134.68 64.6068 134.68 65.9508V71.8008H132.16V66.2928C132.16 65.5008 131.962 64.8948 131.566 64.4748C131.17 64.0428 130.63 63.8268 129.946 63.8268C129.25 63.8268 128.698 64.0428 128.29 64.4748C127.894 64.8948 127.696 65.5008 127.696 66.2928V71.8008H125.176V61.8288H127.696V63.0708C128.032 62.6388 128.458 62.3028 128.974 62.0628C129.502 61.8108 130.078 61.6848 130.702 61.6848ZM139.51 63.8988V68.7228C139.51 69.0588 139.588 69.3048 139.744 69.4608C139.912 69.6048 140.188 69.6768 140.572 69.6768H141.742V71.8008H140.158C138.034 71.8008 136.972 70.7688 136.972 68.7048V63.8988H135.784V61.8288H136.972V59.3628H139.51V61.8288H141.742V63.8988H139.51ZM152.325 66.5988C152.325 66.9588 152.301 67.2828 152.253 67.5708H144.963C145.023 68.2908 145.275 68.8548 145.719 69.2628C146.163 69.6708 146.709 69.8748 147.357 69.8748C148.293 69.8748 148.959 69.4728 149.355 68.6688H152.073C151.785 69.6288 151.233 70.4208 150.417 71.0448C149.601 71.6568 148.599 71.9628 147.411 71.9628C146.451 71.9628 145.587 71.7528 144.819 71.3328C144.063 70.9008 143.469 70.2948 143.037 69.5148C142.617 68.7348 142.406 67.8348 142.406 66.8148C142.406 65.7828 142.617 64.8768 143.037 64.0968C143.457 63.3168 144.045 62.7168 144.801 62.2968C145.557 61.8768 146.427 61.6668 147.411 61.6668C148.359 61.6668 149.205 61.8708 149.949 62.2788C150.705 62.6868 151.287 63.2688 151.695 64.0248C152.115 64.7688 152.325 65.6268 152.325 66.5988ZM149.715 65.8788C149.703 65.2308 149.469 64.7148 149.013 64.3308C148.557 63.9348 147.999 63.7368 147.339 63.7368C146.715 63.7368 146.187 63.9288 145.755 64.3128C145.335 64.6848 145.077 65.2068 144.981 65.8788H149.715ZM156.184 58.4808V71.8008H153.664V58.4808H156.184ZM160.694 58.4808V71.8008H158.174V58.4808H160.694ZM172.223 61.8288L166.049 76.5168H163.367L165.527 71.5488L161.531 61.8288H164.357L166.931 68.7948L169.541 61.8288H172.223ZM178.59 71.8008L176.538 68.7048L174.72 71.8008H172.02L175.278 66.7968L171.984 61.8288H174.828L176.862 64.9068L178.698 61.8288H181.398L178.122 66.7968L181.434 71.8008H178.59Z" fill="#846358"/>
<path d="M257.822 6.86719C260.157 8.43502 262.736 10.3765 264.816 12.542C268.505 16.3842 272.163 20.7157 275.308 25.0496C277.432 27.9774 280.188 32.4201 281.694 35.6881C283.697 40.0372 284.884 43.0841 285.984 47.8625C287.534 54.5942 287.32 61.5027 285.746 68.0156C283.431 77.5975 276.022 85.6147 268.617 92.1226C262.825 97.2133 255.037 100.544 248.195 102.99L247.492 101.123C254.273 98.6989 261.459 95.4632 267.011 90.5781C274.152 84.2946 280.747 76.6314 283.593 67.4979C285.326 61.9388 285.728 55.8391 284.819 49.9333C284.022 44.7592 282.02 39.5738 280.069 34.859C278.465 30.9833 276.595 27.9641 274.315 24.7841C271.423 20.7519 268.245 16.8198 264.867 13.2293C262.68 10.9052 259.756 8.80703 257.407 7.22949L257.822 6.86719Z" fill="#846358"/>
<path d="M260.797 97.2793C260.797 97.2793 265.603 95.7599 269.417 96.2075C275.472 96.9181 276.03 100.677 276.03 100.677C276.03 100.677 273.601 102.185 268.391 101.612C262.287 100.941 260.797 97.2793 260.797 97.2793Z" fill="#846358"/>
<path d="M268.973 91.6665C268.973 91.6665 273.023 89.7453 276.863 89.7738C283.511 89.823 283.91 93.3541 283.91 93.3541C283.91 93.3541 281.503 95.0902 276.179 95.0189C270.039 94.9365 268.973 91.6665 268.973 91.6665Z" fill="#846358"/>
<path d="M275.035 85.7635C275.035 85.7635 278.886 82.3882 282.611 81.4548C289.06 79.839 291.196 83.5913 291.196 83.5913C291.196 83.5913 288.799 86.4673 283.626 87.7304C277.661 89.187 275.035 85.7635 275.035 85.7635Z" fill="#846358"/>
<path d="M281.871 76.6701C281.871 76.6701 285.165 73.1984 289.673 71.8132C295.557 70.0054 298.322 73.5546 298.403 73.6434C298.403 73.6434 295.992 76.6779 290.962 78.0082C284.215 79.7926 281.871 76.6701 281.871 76.6701H281.871Z" fill="#846358"/>
<path d="M285.125 69.4336C285.125 69.4336 288.192 64.7627 292.767 62.558C297.212 60.4159 300.459 62.2402 300.54 62.312C300.54 62.312 298.257 66.4842 294.056 68.4834C288.35 71.1998 285.125 69.4336 285.125 69.4336Z" fill="#846358"/>
<path d="M286.109 63.0827C287.746 61.5427 287.869 57.3567 290.209 53.9593C293.473 49.2201 298.858 49.5639 298.939 49.6082C298.939 49.6082 298.362 55.5125 294.28 59.0811C289.941 62.8735 286.109 63.0827 286.109 63.0827Z" fill="#846358"/>
<path d="M286.568 53.1286C286.568 53.1286 286.409 47.9967 287.763 44.0997C289.65 38.6634 294.804 37.5962 294.894 37.6175C294.894 37.6175 295.729 43.4305 292.742 47.9555C289.567 52.7645 286.568 53.1284 286.568 53.1284L286.568 53.1286Z" fill="#846358"/>
<path d="M284.385 43.5095C284.385 43.5095 283.357 39.2014 283.878 35.1091C284.663 28.9413 289.462 27.6356 289.554 27.6446C289.554 27.6446 291.199 33.3572 288.859 38.2481C286.371 43.4459 284.385 43.5095 284.385 43.5095Z" fill="#846358"/>
<path d="M280.16 33.1842C280.16 33.1842 278.488 29.2871 278.703 25.1675C279 19.45 282.874 17.0346 282.966 17.0312C282.966 17.0312 286.701 20.3993 284.556 27.6493C283.255 32.0471 280.16 33.1843 280.16 33.1843L280.16 33.1842Z" fill="#846358"/>
<path d="M274.768 24.6969C274.768 24.6969 272.284 20.8706 271.597 16.8029C270.952 12.9841 272.501 8.82376 272.847 8.44141C272.847 8.44141 276.889 10.2178 276.737 17.0352C276.636 21.6205 274.768 24.6969 274.768 24.6969Z" fill="#846358"/>
<path d="M268.168 16.5029C268.168 16.5029 265.206 13.349 264.435 9.03651C263.796 5.46217 264.439 1.57866 265.113 0.609375C265.113 0.609375 268.976 3.00959 269.257 9.07968C269.469 13.6611 268.475 15.8417 268.168 16.5028L268.168 16.5029Z" fill="#846358"/>
<path d="M263.379 11.4799C263.379 11.4799 257.735 11.6838 254.93 10.0551C251.79 8.23194 248.708 4.27473 248.465 3.11951C248.465 3.11951 253.409 0.951717 258.018 4.91147C261.497 7.90003 263.109 10.8034 263.379 11.4799Z" fill="#846358"/>
<path d="M269.597 18.2893C269.597 18.2893 266.897 15.1283 262.258 14.3116C258.682 13.6822 255.933 14.2634 254.168 15.2918C254.168 15.2918 256.891 18.7804 262.11 19.2614C266.677 19.6822 268.926 18.5737 269.597 18.2893Z" fill="#846358"/>
<path d="M275.167 25.5776C275.167 25.5776 272.596 22.5456 267.957 21.729C264.381 21.0996 262.663 21.7453 260.898 22.7737C260.898 22.7737 263.073 26.1012 268.292 26.582C272.859 27.0028 274.496 25.862 275.167 25.5776L275.167 25.5776Z" fill="#846358"/>
<path d="M280.592 35.0845C280.592 35.0845 278.19 31.3476 273.848 29.5214C269.398 27.65 267.113 28.5436 265.199 29.258C265.81 30.1735 268.307 33.9895 272.357 35.135C276.77 36.3835 279.883 35.2511 280.592 35.0845Z" fill="#846358"/>
<path d="M283.796 43.5275C283.796 43.5275 281.668 39.6284 277.467 37.4963C273.163 35.3114 270.819 36.0392 268.859 36.6148C269.403 37.5716 271.621 41.5565 275.578 42.9889C279.891 44.5498 283.076 43.6429 283.796 43.5275Z" fill="#846358"/>
<path d="M285.485 53.5646C283.643 51.2035 282.642 48.6651 279.808 46.1387C276.317 43.0261 273.322 44.0184 271.289 44.2194C272.29 46.0991 273.792 49.0726 276.898 51.3129C280.617 53.9962 284.756 53.5443 285.485 53.5648V53.5646Z" fill="#846358"/>
<path d="M285.265 62.808C283.699 60.2557 282.956 58.2661 280.423 55.4385C277.302 51.955 274.343 52.5734 272.301 52.5457C273.085 54.5255 274.407 57.4873 277.242 60.061C280.638 63.1436 284.543 62.7062 285.265 62.808Z" fill="#846358"/>
<path d="M283.249 70.1808C280.893 66.5436 281.19 65.7204 278.884 62.7047C276.408 59.4658 273.28 59.5548 271.246 59.3633C271.869 61.3997 272.8 64.1544 275.44 66.9282C278.255 69.8862 281.183 69.5054 283.249 70.1808Z" fill="#846358"/>
<path d="M279.379 77.4039C277.894 74.186 278.151 72.1766 276.789 69.8956C274.561 66.165 272.378 66.0039 270.344 65.8125C271.966 70.4605 271.59 70.4819 273.376 73.3129C275.114 76.0676 277.475 76.4383 279.379 77.404V77.4039Z" fill="#846358"/>
<path d="M274.703 83.4808C273.857 80.0391 274.716 78.9859 273.813 76.4876C272.335 72.4016 270.222 71.8285 268.262 71.2539C268.487 73.9969 268.147 75.7371 269.684 78.7102C270.77 80.8097 273.017 82.1708 274.703 83.4808Z" fill="#846358"/>
<path d="M265.307 76.7228C265.307 76.7228 263.609 80.0002 264.173 83.7987C264.972 89.1807 267.848 89.987 267.848 89.987C267.848 89.987 269.486 87.5408 269.32 82.5773C269.142 77.2755 265.307 76.7227 265.307 76.7227L265.307 76.7228Z" fill="#846358"/>
<path d="M259.177 82.207C259.177 82.207 257.478 85.5253 257.85 89.3475C258.326 94.2458 261.009 95.4714 261.009 95.4714C261.009 95.4714 262.699 92.737 262.771 88.61C262.881 82.3083 259.177 82.207 259.177 82.207Z" fill="#846358"/>
</svg>
