<svg width="300" height="103" viewBox="0 0 300 103" fill="none" xmlns="http://www.w3.org/2000/svg">
<path d="M43.5169 6.25C41.1827 7.81784 38.6029 9.75934 36.5238 11.9248C32.8348 15.767 29.1761 20.0985 26.0316 24.4324C23.9074 27.3602 21.1514 31.8029 19.6456 35.0709C17.6418 39.42 16.4549 42.4669 15.3551 47.2453C13.8058 53.977 14.0194 60.8855 15.593 67.3985C17.9082 76.9803 25.3178 84.9975 32.7221 91.5054C38.5146 96.5961 46.3023 99.9265 53.1447 102.373L53.8518 100.504C47.0719 98.0819 39.8859 94.8459 34.3346 89.9612C27.1933 83.6768 20.5973 76.0132 17.752 66.881C16.0191 61.322 15.6168 55.2228 16.5261 49.3164C17.3226 44.1423 19.3251 38.9568 21.2758 34.2421C22.8795 30.3664 24.7494 27.3472 27.0302 24.1672C29.9221 20.135 33.0999 16.2028 36.478 12.6124C38.6647 10.2883 41.5891 8.1901 43.9379 6.61256L43.5169 6.25Z" fill="#846358"/>
<path d="M40.5498 96.6621C40.5498 96.6621 35.7438 95.1427 31.9297 95.5903C25.8746 96.3009 25.3164 100.06 25.3164 100.06C25.3164 100.06 27.7456 101.568 32.9559 100.995C39.0597 100.324 40.5497 96.6621 40.5497 96.6621L40.5498 96.6621Z" fill="#846358"/>
<path d="M32.3667 91.0493C32.3667 91.0493 28.3164 89.1281 24.4763 89.1566C17.8283 89.2058 17.4297 92.7369 17.4297 92.7369C17.4297 92.7369 19.836 94.4731 25.1604 94.4017C31.3005 94.3193 32.3667 91.0493 32.3667 91.0493Z" fill="#846358"/>
<path d="M26.3134 85.1463C26.3134 85.1463 22.4622 81.771 18.7372 80.8376C12.2883 79.2218 10.1523 82.9742 10.1523 82.9742C10.1523 82.9742 12.5495 85.8501 17.7223 87.1132C23.6876 88.5698 26.3134 85.1463 26.3134 85.1463Z" fill="#846358"/>
<path d="M19.4735 76.049C19.4735 76.049 16.18 72.5773 11.6715 71.1921C5.7877 69.3843 3.02212 72.9335 2.94141 73.0223C2.94141 73.0223 5.35235 76.0568 10.3824 77.3871C17.1293 79.1715 19.4735 76.049 19.4735 76.049Z" fill="#846358"/>
<path d="M16.2187 68.813C16.2187 68.813 13.1514 64.142 8.57632 61.9373C4.13205 59.7944 0.885269 61.6193 0.804688 61.6908C0.804688 61.6908 3.08767 65.863 7.2879 67.8622C12.9947 70.5786 16.2193 68.8125 16.2193 68.8125L16.2187 68.813Z" fill="#846358"/>
<path d="M15.2316 62.4614C13.5944 60.9213 13.4725 56.7351 11.1324 53.3381C7.86787 48.599 2.48293 48.9425 2.40234 48.9872C2.40234 48.9872 2.97883 54.8915 7.06116 58.4601C11.3997 62.2526 15.2315 62.4618 15.2315 62.4618L15.2316 62.4614Z" fill="#846358"/>
<path d="M14.7766 52.5114C14.7766 52.5114 14.9356 47.3796 13.5823 43.4825C11.6944 38.0462 6.54085 36.979 6.45133 37.0003C6.45133 37.0003 5.61558 42.8133 8.60291 47.3383C11.7778 52.1473 14.7767 52.5113 14.7767 52.5113L14.7766 52.5114Z" fill="#846358"/>
<path d="M16.9613 42.8923C16.9613 42.8923 17.9893 38.5842 17.4685 34.4919C16.6836 28.3241 11.884 27.0184 11.7923 27.0274C11.7923 27.0274 10.1469 32.74 12.4876 37.6309C14.9752 42.8287 16.9613 42.8923 16.9613 42.8923Z" fill="#846358"/>
<path d="M21.1896 32.567C21.1896 32.567 22.8611 28.6699 22.647 24.5503C22.3497 18.8328 18.4755 16.4174 18.3835 16.4141C18.3835 16.4141 14.648 19.7822 16.7935 27.0321C18.0949 31.4299 21.1897 32.5671 21.1897 32.5671L21.1896 32.567Z" fill="#846358"/>
<path d="M26.5673 24.0758C26.5673 24.0758 29.0513 20.2495 29.7385 16.1818C30.3836 12.363 28.8343 8.20266 28.4884 7.82031C28.4884 7.82031 24.4466 9.59669 24.5979 16.4141C24.6997 20.9994 26.5673 24.0758 26.5673 24.0758Z" fill="#846358"/>
<path d="M33.1766 15.8851C33.1766 15.8851 36.1384 12.7312 36.9098 8.41869C37.5484 4.84499 36.9047 0.96147 36.2317 -0.0078125C36.2317 -0.0078125 32.3686 2.39241 32.0879 8.46249C31.8761 13.0439 32.8703 15.2245 33.1767 15.8856L33.1766 15.8851Z" fill="#846358"/>
<path d="M37.9688 10.8588C37.9688 10.8588 43.6132 11.0627 46.4185 9.43396C49.5586 7.61084 52.6402 3.65364 52.8833 2.49842C52.8833 2.49842 47.9396 0.330624 43.3302 4.29038C39.8513 7.27894 38.2396 10.1823 37.9688 10.8588Z" fill="#846358"/>
<path d="M31.7501 17.6721C31.7501 17.6721 34.4499 14.5111 39.0892 13.6944C42.6652 13.065 45.4143 13.6462 47.1793 14.6746C47.1793 14.6746 44.4564 18.1633 39.2374 18.6442C34.6704 19.065 32.421 17.9565 31.75 17.6721L31.7501 17.6721Z" fill="#846358"/>
<path d="M26.172 24.9565C26.172 24.9565 28.7427 21.9245 33.3821 21.1079C36.9581 20.4785 38.6752 21.1242 40.4403 22.1526C40.4403 22.1526 38.2656 25.4801 33.0465 25.9609C28.4795 26.3817 26.8428 25.2409 26.1719 24.9565L26.172 24.9565Z" fill="#846358"/>
<path d="M20.7578 34.4673C20.7578 34.4673 23.1593 30.7304 27.5017 28.9042C31.9513 27.0328 34.2367 27.9264 36.1505 28.6408C35.5402 29.5563 33.0425 33.3723 28.9931 34.5178C24.58 35.7663 21.4672 34.6339 20.7578 34.4673Z" fill="#846358"/>
<path d="M17.543 42.9104C17.543 42.9104 19.671 39.0113 23.8715 36.8791C28.176 34.6942 30.5194 35.422 32.4794 35.9977C31.9361 36.9544 29.7179 40.9393 25.7608 42.3717C21.4482 43.9326 18.2625 43.0258 17.543 42.9104Z" fill="#846358"/>
<path d="M15.8516 52.9435C17.6932 50.5824 18.6944 48.044 21.5279 45.5176C25.0189 42.4051 28.0143 43.3973 30.0473 43.5983C29.0465 45.478 27.5439 48.4515 24.4385 50.6918C20.7189 53.3751 16.58 52.9232 15.8516 52.9437V52.9435Z" fill="#846358"/>
<path d="M16.082 62.1908C17.648 59.6385 18.3911 57.649 20.9241 54.8213C24.0448 51.3378 27.0035 51.9562 29.0462 51.9285C28.262 53.9083 26.9403 56.8701 24.105 59.4439C20.709 62.5264 16.8034 62.089 16.082 62.1908Z" fill="#846358"/>
<path d="M18.0977 69.5636C20.4536 65.9265 20.1563 65.1033 22.4621 62.0875C24.9386 58.8486 28.0665 58.9377 30.1003 58.7461C29.4774 60.7825 28.5468 63.5372 25.9068 66.311C23.0916 69.269 20.1633 68.8882 18.0978 69.5636H18.0977Z" fill="#846358"/>
<path d="M21.9648 76.7867C23.4501 73.5688 23.1936 71.5594 24.5555 69.2784C26.7829 65.5478 28.9665 65.3867 31.0004 65.1953C29.3781 69.8433 29.7537 69.8647 27.9679 72.6957C26.2302 75.4504 23.8691 75.8212 21.9648 76.7869V76.7867Z" fill="#846358"/>
<path d="M26.6328 82.8636C27.4792 79.4219 26.6198 78.3688 27.5233 75.8705C29.001 71.7844 31.1142 71.2113 33.0745 70.6367C32.8491 73.3797 33.1894 75.1199 31.652 78.093C30.5663 80.1925 28.3188 81.5536 26.6328 82.8636Z" fill="#846358"/>
<path d="M36.0404 76.1056C36.0404 76.1056 37.7379 79.383 37.174 83.1815C36.3751 88.5635 33.4991 89.3698 33.4991 89.3698C33.4991 89.3698 31.861 86.9236 32.0275 81.9601C32.2053 76.6583 36.0404 76.1055 36.0404 76.1055L36.0404 76.1056Z" fill="#846358"/>
<path d="M42.1662 81.5859C42.1662 81.5859 43.8651 84.9042 43.4934 88.7264C43.017 93.6247 40.3345 94.8503 40.3345 94.8503C40.3345 94.8503 38.6447 92.1159 38.5727 87.9889C38.4628 81.6872 42.1663 81.5861 42.1663 81.5861L42.1662 81.5859Z" fill="#846358"/>
<path d="M63.3654 31.6196C64.6854 31.6196 65.8434 31.8776 66.8394 32.3936C67.8474 32.9096 68.6214 33.6476 69.1614 34.6076C69.7134 35.5556 69.9894 36.6596 69.9894 37.9196C69.9894 39.1796 69.7134 40.2836 69.1614 41.2316C68.6214 42.1676 67.8474 42.8936 66.8394 43.4096C65.8434 43.9256 64.6854 44.1836 63.3654 44.1836H58.9734V31.6196H63.3654ZM63.2754 42.0416C64.5954 42.0416 65.6154 41.6816 66.3354 40.9616C67.0554 40.2416 67.4154 39.2276 67.4154 37.9196C67.4154 36.6116 67.0554 35.5916 66.3354 34.8596C65.6154 34.1156 64.5954 33.7436 63.2754 33.7436H61.4934V42.0416H63.2754ZM72.6538 33.0236C72.2098 33.0236 71.8378 32.8856 71.5378 32.6096C71.2498 32.3216 71.1058 31.9676 71.1058 31.5476C71.1058 31.1276 71.2498 30.7796 71.5378 30.5036C71.8378 30.2156 72.2098 30.0716 72.6538 30.0716C73.0978 30.0716 73.4638 30.2156 73.7518 30.5036C74.0518 30.7796 74.2018 31.1276 74.2018 31.5476C74.2018 31.9676 74.0518 32.3216 73.7518 32.6096C73.4638 32.8856 73.0978 33.0236 72.6538 33.0236ZM73.8958 34.2116V44.1836H71.3758V34.2116H73.8958ZM79.7916 34.0496C80.5356 34.0496 81.1896 34.1996 81.7536 34.4996C82.3176 34.7876 82.7616 35.1656 83.0856 35.6336V34.2116H85.6236V44.2556C85.6236 45.1796 85.4376 46.0016 85.0656 46.7216C84.6936 47.4536 84.1356 48.0296 83.3916 48.4496C82.6476 48.8816 81.7476 49.0976 80.6916 49.0976C79.2756 49.0976 78.1116 48.7676 77.1996 48.1076C76.2996 47.4476 75.7896 46.5476 75.6696 45.4076H78.1716C78.3036 45.8636 78.5856 46.2236 79.0176 46.4876C79.4616 46.7636 79.9956 46.9016 80.6196 46.9016C81.3516 46.9016 81.9456 46.6796 82.4016 46.2356C82.8576 45.8036 83.0856 45.1436 83.0856 44.2556V42.7076C82.7616 43.1756 82.3116 43.5656 81.7356 43.8776C81.1716 44.1896 80.5236 44.3456 79.7916 44.3456C78.9516 44.3456 78.1836 44.1296 77.4876 43.6976C76.7916 43.2656 76.2396 42.6596 75.8316 41.8796C75.4356 41.0876 75.2376 40.1816 75.2376 39.1616C75.2376 38.1536 75.4356 37.2596 75.8316 36.4796C76.2396 35.6996 76.7856 35.0996 77.4696 34.6796C78.1656 34.2596 78.9396 34.0496 79.7916 34.0496ZM83.0856 39.1976C83.0856 38.5856 82.9656 38.0636 82.7256 37.6316C82.4856 37.1876 82.1616 36.8516 81.7536 36.6236C81.3456 36.3836 80.9076 36.2636 80.4396 36.2636C79.9716 36.2636 79.5396 36.3776 79.1436 36.6056C78.7476 36.8336 78.4236 37.1696 78.1716 37.6136C77.9316 38.0456 77.8116 38.5616 77.8116 39.1616C77.8116 39.7616 77.9316 40.2896 78.1716 40.7456C78.4236 41.1896 78.7476 41.5316 79.1436 41.7716C79.5516 42.0116 79.9836 42.1316 80.4396 42.1316C80.9076 42.1316 81.3456 42.0176 81.7536 41.7896C82.1616 41.5496 82.4856 41.2136 82.7256 40.7816C82.9656 40.3376 83.0856 39.8096 83.0856 39.1976ZM88.8628 33.0236C88.4188 33.0236 88.0468 32.8856 87.7468 32.6096C87.4588 32.3216 87.3148 31.9676 87.3148 31.5476C87.3148 31.1276 87.4588 30.7796 87.7468 30.5036C88.0468 30.2156 88.4188 30.0716 88.8628 30.0716C89.3068 30.0716 89.6728 30.2156 89.9608 30.5036C90.2608 30.7796 90.4108 31.1276 90.4108 31.5476C90.4108 31.9676 90.2608 32.3216 89.9608 32.6096C89.6728 32.8856 89.3068 33.0236 88.8628 33.0236ZM90.1048 34.2116V44.1836H87.5848V34.2116H90.1048ZM95.0285 36.2816V41.1056C95.0285 41.4416 95.1065 41.6876 95.2625 41.8436C95.4305 41.9876 95.7065 42.0596 96.0905 42.0596H97.2605V44.1836H95.6765C93.5525 44.1836 92.4905 43.1516 92.4905 41.0876V36.2816H91.3025V34.2116H92.4905V31.7456H95.0285V34.2116H97.2605V36.2816H95.0285ZM97.9251 39.1616C97.9251 38.1536 98.1231 37.2596 98.5191 36.4796C98.9271 35.6996 99.4731 35.0996 100.157 34.6796C100.853 34.2596 101.627 34.0496 102.479 34.0496C103.223 34.0496 103.871 34.1996 104.423 34.4996C104.987 34.7996 105.437 35.1776 105.773 35.6336V34.2116H108.311V44.1836H105.773V42.7256C105.449 43.1936 104.999 43.5836 104.423 43.8956C103.859 44.1956 103.205 44.3456 102.461 44.3456C101.621 44.3456 100.853 44.1296 100.157 43.6976C99.4731 43.2656 98.9271 42.6596 98.5191 41.8796C98.1231 41.0876 97.9251 40.1816 97.9251 39.1616ZM105.773 39.1976C105.773 38.5856 105.653 38.0636 105.413 37.6316C105.173 37.1876 104.849 36.8516 104.441 36.6236C104.033 36.3836 103.595 36.2636 103.127 36.2636C102.659 36.2636 102.227 36.3776 101.831 36.6056C101.435 36.8336 101.111 37.1696 100.859 37.6136C100.619 38.0456 100.499 38.5616 100.499 39.1616C100.499 39.7616 100.619 40.2896 100.859 40.7456C101.111 41.1896 101.435 41.5316 101.831 41.7716C102.239 42.0116 102.671 42.1316 103.127 42.1316C103.595 42.1316 104.033 42.0176 104.441 41.7896C104.849 41.5496 105.173 41.2136 105.413 40.7816C105.653 40.3376 105.773 39.8096 105.773 39.1976ZM112.792 30.8636V44.1836H110.272V30.8636H112.792ZM121.091 31.6196V44.1836H118.571V31.6196H121.091ZM128.607 34.0676C129.795 34.0676 130.755 34.4456 131.487 35.2016C132.219 35.9456 132.585 36.9896 132.585 38.3336V44.1836H130.065V38.6756C130.065 37.8836 129.867 37.2776 129.471 36.8576C129.075 36.4256 128.535 36.2096 127.851 36.2096C127.155 36.2096 126.603 36.4256 126.195 36.8576C125.799 37.2776 125.601 37.8836 125.601 38.6756V44.1836H123.081V34.2116H125.601V35.4536C125.937 35.0216 126.363 34.6856 126.879 34.4456C127.407 34.1936 127.983 34.0676 128.607 34.0676ZM140.007 34.0676C141.195 34.0676 142.155 34.4456 142.887 35.2016C143.619 35.9456 143.985 36.9896 143.985 38.3336V44.1836H141.465V38.6756C141.465 37.8836 141.267 37.2776 140.871 36.8576C140.475 36.4256 139.935 36.2096 139.251 36.2096C138.555 36.2096 138.003 36.4256 137.595 36.8576C137.199 37.2776 137.001 37.8836 137.001 38.6756V44.1836H134.481V34.2116H137.001V35.4536C137.337 35.0216 137.763 34.6856 138.279 34.4456C138.807 34.1936 139.383 34.0676 140.007 34.0676ZM150.31 44.3456C149.35 44.3456 148.486 44.1356 147.718 43.7156C146.95 43.2836 146.344 42.6776 145.9 41.8976C145.468 41.1176 145.252 40.2176 145.252 39.1976C145.252 38.1776 145.474 37.2776 145.918 36.4976C146.374 35.7176 146.992 35.1176 147.772 34.6976C148.552 34.2656 149.422 34.0496 150.382 34.0496C151.342 34.0496 152.212 34.2656 152.992 34.6976C153.772 35.1176 154.384 35.7176 154.828 36.4976C155.284 37.2776 155.512 38.1776 155.512 39.1976C155.512 40.2176 155.278 41.1176 154.81 41.8976C154.354 42.6776 153.73 43.2836 152.938 43.7156C152.158 44.1356 151.282 44.3456 150.31 44.3456ZM150.31 42.1496C150.766 42.1496 151.192 42.0416 151.588 41.8256C151.996 41.5976 152.32 41.2616 152.56 40.8176C152.8 40.3736 152.92 39.8336 152.92 39.1976C152.92 38.2496 152.668 37.5236 152.164 37.0196C151.672 36.5036 151.066 36.2456 150.346 36.2456C149.626 36.2456 149.02 36.5036 148.528 37.0196C148.048 37.5236 147.808 38.2496 147.808 39.1976C147.808 40.1456 148.042 40.8776 148.51 41.3936C148.99 41.8976 149.59 42.1496 150.31 42.1496ZM161.018 41.8616L163.538 34.2116H166.22L162.53 44.1836H159.47L155.798 34.2116H158.498L161.018 41.8616ZM166.488 39.1616C166.488 38.1536 166.686 37.2596 167.082 36.4796C167.49 35.6996 168.036 35.0996 168.72 34.6796C169.416 34.2596 170.19 34.0496 171.042 34.0496C171.786 34.0496 172.434 34.1996 172.986 34.4996C173.55 34.7996 174 35.1776 174.336 35.6336V34.2116H176.874V44.1836H174.336V42.7256C174.012 43.1936 173.562 43.5836 172.986 43.8956C172.422 44.1956 171.768 44.3456 171.024 44.3456C170.184 44.3456 169.416 44.1296 168.72 43.6976C168.036 43.2656 167.49 42.6596 167.082 41.8796C166.686 41.0876 166.488 40.1816 166.488 39.1616ZM174.336 39.1976C174.336 38.5856 174.216 38.0636 173.976 37.6316C173.736 37.1876 173.412 36.8516 173.004 36.6236C172.596 36.3836 172.158 36.2636 171.69 36.2636C171.222 36.2636 170.79 36.3776 170.394 36.6056C169.998 36.8336 169.674 37.1696 169.422 37.6136C169.182 38.0456 169.062 38.5616 169.062 39.1616C169.062 39.7616 169.182 40.2896 169.422 40.7456C169.674 41.1896 169.998 41.5316 170.394 41.7716C170.802 42.0116 171.234 42.1316 171.69 42.1316C172.158 42.1316 172.596 42.0176 173.004 41.7896C173.412 41.5496 173.736 41.2136 173.976 40.7816C174.216 40.3376 174.336 39.8096 174.336 39.1976ZM181.769 36.2816V41.1056C181.769 41.4416 181.847 41.6876 182.003 41.8436C182.171 41.9876 182.447 42.0596 182.831 42.0596H184.001V44.1836H182.417C180.293 44.1836 179.231 43.1516 179.231 41.0876V36.2816H178.043V34.2116H179.231V31.7456H181.769V34.2116H184.001V36.2816H181.769ZM189.741 44.3456C188.781 44.3456 187.917 44.1356 187.149 43.7156C186.381 43.2836 185.775 42.6776 185.331 41.8976C184.899 41.1176 184.683 40.2176 184.683 39.1976C184.683 38.1776 184.905 37.2776 185.349 36.4976C185.805 35.7176 186.423 35.1176 187.203 34.6976C187.983 34.2656 188.853 34.0496 189.813 34.0496C190.773 34.0496 191.643 34.2656 192.423 34.6976C193.203 35.1176 193.815 35.7176 194.259 36.4976C194.715 37.2776 194.943 38.1776 194.943 39.1976C194.943 40.2176 194.709 41.1176 194.241 41.8976C193.785 42.6776 193.161 43.2836 192.369 43.7156C191.589 44.1356 190.713 44.3456 189.741 44.3456ZM189.741 42.1496C190.197 42.1496 190.623 42.0416 191.019 41.8256C191.427 41.5976 191.751 41.2616 191.991 40.8176C192.231 40.3736 192.351 39.8336 192.351 39.1976C192.351 38.2496 192.099 37.5236 191.595 37.0196C191.103 36.5036 190.497 36.2456 189.777 36.2456C189.057 36.2456 188.451 36.5036 187.959 37.0196C187.479 37.5236 187.239 38.2496 187.239 39.1976C187.239 40.1456 187.473 40.8776 187.941 41.3936C188.421 41.8976 189.021 42.1496 189.741 42.1496ZM198.812 35.7596C199.136 35.2316 199.556 34.8176 200.072 34.5176C200.6 34.2176 201.2 34.0676 201.872 34.0676V36.7136H201.206C200.414 36.7136 199.814 36.8996 199.406 37.2716C199.01 37.6436 198.812 38.2916 198.812 39.2156V44.1836H196.292V34.2116H198.812V35.7596ZM207.362 41.3396C208.514 40.3796 209.432 39.5816 210.116 38.9456C210.8 38.2976 211.37 37.6256 211.826 36.9296C212.282 36.2336 212.51 35.5496 212.51 34.8776C212.51 34.2656 212.366 33.7856 212.078 33.4376C211.79 33.0896 211.346 32.9156 210.746 32.9156C210.146 32.9156 209.684 33.1196 209.36 33.5276C209.036 33.9236 208.868 34.4696 208.856 35.1656H206.408C206.456 33.7256 206.882 32.6336 207.686 31.8896C208.502 31.1456 209.534 30.7736 210.782 30.7736C212.15 30.7736 213.2 31.1396 213.932 31.8716C214.664 32.5916 215.03 33.5456 215.03 34.7336C215.03 35.6696 214.778 36.5636 214.274 37.4156C213.77 38.2676 213.194 39.0116 212.546 39.6476C211.898 40.2716 211.052 41.0276 210.008 41.9156H215.318V44.0036H206.426V42.1316L207.362 41.3396ZM216.406 37.4516C216.406 35.3756 216.778 33.7496 217.522 32.5736C218.278 31.3976 219.526 30.8096 221.266 30.8096C223.006 30.8096 224.248 31.3976 224.992 32.5736C225.748 33.7496 226.126 35.3756 226.126 37.4516C226.126 39.5396 225.748 41.1776 224.992 42.3656C224.248 43.5536 223.006 44.1476 221.266 44.1476C219.526 44.1476 218.278 43.5536 217.522 42.3656C216.778 41.1776 216.406 39.5396 216.406 37.4516ZM223.642 37.4516C223.642 36.5636 223.582 35.8196 223.462 35.2196C223.354 34.6076 223.126 34.1096 222.778 33.7256C222.442 33.3416 221.938 33.1496 221.266 33.1496C220.594 33.1496 220.084 33.3416 219.736 33.7256C219.4 34.1096 219.172 34.6076 219.052 35.2196C218.944 35.8196 218.89 36.5636 218.89 37.4516C218.89 38.3636 218.944 39.1316 219.052 39.7556C219.16 40.3676 219.388 40.8656 219.736 41.2496C220.084 41.6216 220.594 41.8076 221.266 41.8076C221.938 41.8076 222.448 41.6216 222.796 41.2496C223.144 40.8656 223.372 40.3676 223.48 39.7556C223.588 39.1316 223.642 38.3636 223.642 37.4516ZM228.335 41.3396C229.487 40.3796 230.405 39.5816 231.089 38.9456C231.773 38.2976 232.343 37.6256 232.799 36.9296C233.255 36.2336 233.483 35.5496 233.483 34.8776C233.483 34.2656 233.339 33.7856 233.051 33.4376C232.763 33.0896 232.319 32.9156 231.719 32.9156C231.119 32.9156 230.657 33.1196 230.333 33.5276C230.009 33.9236 229.841 34.4696 229.829 35.1656H227.381C227.429 33.7256 227.855 32.6336 228.659 31.8896C229.475 31.1456 230.507 30.7736 231.755 30.7736C233.123 30.7736 234.173 31.1396 234.905 31.8716C235.637 32.5916 236.003 33.5456 236.003 34.7336C236.003 35.6696 235.751 36.5636 235.247 37.4156C234.743 38.2676 234.167 39.0116 233.519 39.6476C232.871 40.2716 232.025 41.0276 230.981 41.9156H236.291V44.0036H227.399V42.1316L228.335 41.3396ZM238.171 41.3396C239.323 40.3796 240.241 39.5816 240.925 38.9456C241.609 38.2976 242.179 37.6256 242.635 36.9296C243.091 36.2336 243.319 35.5496 243.319 34.8776C243.319 34.2656 243.175 33.7856 242.887 33.4376C242.599 33.0896 242.155 32.9156 241.555 32.9156C240.955 32.9156 240.493 33.1196 240.169 33.5276C239.845 33.9236 239.677 34.4696 239.665 35.1656H237.217C237.265 33.7256 237.691 32.6336 238.495 31.8896C239.311 31.1456 240.343 30.7736 241.591 30.7736C242.959 30.7736 244.009 31.1396 244.741 31.8716C245.473 32.5916 245.839 33.5456 245.839 34.7336C245.839 35.6696 245.587 36.5636 245.083 37.4156C244.579 38.2676 244.003 39.0116 243.355 39.6476C242.707 40.2716 241.861 41.0276 240.817 41.9156H246.127V44.0036H237.235V42.1316L238.171 41.3396ZM123.045 58.6196V71.1836H120.525V58.6196H123.045ZM130.561 61.0676C131.749 61.0676 132.709 61.4456 133.441 62.2016C134.173 62.9456 134.539 63.9896 134.539 65.3336V71.1836H132.019V65.6756C132.019 64.8836 131.821 64.2776 131.425 63.8576C131.029 63.4256 130.489 63.2096 129.805 63.2096C129.109 63.2096 128.557 63.4256 128.149 63.8576C127.753 64.2776 127.555 64.8836 127.555 65.6756V71.1836H125.035V61.2116H127.555V62.4536C127.891 62.0216 128.317 61.6856 128.833 61.4456C129.361 61.1936 129.937 61.0676 130.561 61.0676ZM139.369 63.2816V68.1056C139.369 68.4416 139.447 68.6876 139.603 68.8436C139.771 68.9876 140.047 69.0596 140.431 69.0596H141.601V71.1836H140.017C137.893 71.1836 136.831 70.1516 136.831 68.0876V63.2816H135.643V61.2116H136.831V58.7456H139.369V61.2116H141.601V63.2816H139.369ZM152.184 65.9816C152.184 66.3416 152.16 66.6656 152.112 66.9536H144.822C144.882 67.6736 145.134 68.2376 145.578 68.6456C146.022 69.0536 146.568 69.2576 147.216 69.2576C148.152 69.2576 148.818 68.8556 149.214 68.0516H151.932C151.644 69.0116 151.092 69.8036 150.276 70.4276C149.46 71.0396 148.458 71.3456 147.27 71.3456C146.31 71.3456 145.446 71.1356 144.678 70.7156C143.922 70.2836 143.328 69.6776 142.896 68.8976C142.476 68.1176 142.266 67.2176 142.266 66.1976C142.266 65.1656 142.476 64.2596 142.896 63.4796C143.316 62.6996 143.904 62.0996 144.66 61.6796C145.416 61.2596 146.286 61.0496 147.27 61.0496C148.218 61.0496 149.064 61.2536 149.808 61.6616C150.564 62.0696 151.146 62.6516 151.554 63.4076C151.974 64.1516 152.184 65.0096 152.184 65.9816ZM149.574 65.2616C149.562 64.6136 149.328 64.0976 148.872 63.7136C148.416 63.3176 147.858 63.1196 147.198 63.1196C146.574 63.1196 146.046 63.3116 145.614 63.6956C145.194 64.0676 144.936 64.5896 144.84 65.2616H149.574ZM156.043 57.8636V71.1836H153.523V57.8636H156.043ZM160.553 57.8636V71.1836H158.033V57.8636H160.553ZM172.083 61.2116L165.909 75.8996H163.227L165.387 70.9316L161.391 61.2116H164.217L166.791 68.1776L169.401 61.2116H172.083ZM178.449 71.1836L176.397 68.0876L174.579 71.1836H171.879L175.137 66.1796L171.843 61.2116H174.687L176.721 64.2896L178.557 61.2116H181.257L177.981 66.1796L181.293 71.1836H178.449Z" fill="#846358"/>
<path d="M257.182 6.25C259.516 7.81784 262.096 9.75934 264.175 11.9248C267.864 15.767 271.523 20.0985 274.667 24.4324C276.791 27.3602 279.547 31.8029 281.053 35.0709C283.057 39.42 284.244 42.4669 285.344 47.2453C286.893 53.977 286.679 60.8855 285.106 67.3985C282.79 76.9803 275.381 84.9975 267.977 91.5054C262.184 96.5961 254.396 99.9265 247.554 102.373L246.852 100.506C253.632 98.0817 260.819 94.846 266.37 89.9609C273.511 83.6774 280.106 76.0142 282.953 66.8807C284.685 61.3216 285.087 55.2219 284.178 49.3162C283.382 44.1421 281.379 38.9566 279.428 34.2418C277.825 30.3661 275.955 27.3469 273.674 24.1669C270.782 20.1347 267.604 16.2026 264.226 12.6121C262.04 10.288 259.115 8.18984 256.766 6.6123L257.182 6.25Z" fill="#846358"/>
<path d="M260.156 96.6621C260.156 96.6621 264.962 95.1427 268.776 95.5903C274.831 96.3009 275.39 100.06 275.39 100.06C275.39 100.06 272.96 101.568 267.75 100.995C261.646 100.324 260.156 96.6621 260.156 96.6621Z" fill="#846358"/>
<path d="M268.332 91.0493C268.332 91.0493 272.382 89.1281 276.222 89.1566C282.871 89.2058 283.269 92.7369 283.269 92.7369C283.269 92.7369 280.863 94.4731 275.538 94.4017C269.398 94.3193 268.332 91.0493 268.332 91.0493Z" fill="#846358"/>
<path d="M274.395 85.1463C274.395 85.1463 278.246 81.771 281.971 80.8376C288.42 79.2218 290.556 82.9742 290.556 82.9742C290.556 82.9742 288.158 85.8501 282.986 87.1132C277.02 88.5698 274.395 85.1463 274.395 85.1463Z" fill="#846358"/>
<path d="M281.23 76.0529C281.23 76.0529 284.524 72.5813 289.032 71.196C294.916 69.3882 297.682 72.9374 297.763 73.0262C297.763 73.0262 295.352 76.0607 290.322 77.391C283.575 79.1754 281.231 76.0529 281.231 76.0529H281.23Z" fill="#846358"/>
<path d="M284.484 68.8164C284.484 68.8164 287.552 64.1455 292.127 61.9408C296.572 59.7987 299.818 61.623 299.899 61.6949C299.899 61.6949 297.616 65.867 293.416 67.8662C287.709 70.5826 284.484 68.8164 284.484 68.8164Z" fill="#846358"/>
<path d="M285.469 62.4655C287.106 60.9255 287.228 56.7395 289.568 53.3422C292.832 48.6029 298.217 48.9467 298.298 48.991C298.298 48.991 297.721 54.8953 293.639 58.4639C289.301 62.2564 285.469 62.4655 285.469 62.4655Z" fill="#846358"/>
<path d="M285.928 52.5114C285.928 52.5114 285.769 47.3796 287.122 43.4825C289.01 38.0462 294.163 36.979 294.253 37.0003C294.253 37.0003 295.089 42.8133 292.101 47.3383C288.927 52.1473 285.928 52.5113 285.928 52.5113L285.928 52.5114Z" fill="#846358"/>
<path d="M283.744 42.8923C283.744 42.8923 282.716 38.5842 283.237 34.4919C284.022 28.3241 288.822 27.0184 288.913 27.0274C288.913 27.0274 290.559 32.74 288.218 37.6309C285.73 42.8287 283.744 42.8923 283.744 42.8923Z" fill="#846358"/>
<path d="M279.519 32.567C279.519 32.567 277.848 28.6699 278.062 24.5503C278.359 18.8328 282.233 16.4174 282.325 16.4141C282.325 16.4141 286.061 19.7822 283.915 27.0321C282.614 31.4299 279.519 32.5671 279.519 32.5671L279.519 32.567Z" fill="#846358"/>
<path d="M274.127 24.0797C274.127 24.0797 271.643 20.2534 270.956 16.1857C270.311 12.3669 271.86 8.20657 272.206 7.82422C272.206 7.82422 276.248 9.6006 276.097 16.418C275.995 21.0033 274.127 24.0797 274.127 24.0797Z" fill="#846358"/>
<path d="M267.528 15.8857C267.528 15.8857 264.566 12.7318 263.794 8.41933C263.155 4.84499 263.799 0.96147 264.473 -0.0078125C264.473 -0.0078125 268.336 2.39241 268.616 8.46249C268.828 13.0439 267.834 15.2245 267.528 15.8856L267.528 15.8857Z" fill="#846358"/>
<path d="M262.739 10.8627C262.739 10.8627 257.094 11.0666 254.289 9.43787C251.149 7.61475 248.067 3.65755 247.824 2.50233C247.824 2.50233 252.768 0.33453 257.377 4.29429C260.856 7.28284 262.468 10.1862 262.739 10.8627Z" fill="#846358"/>
<path d="M268.957 17.6721C268.957 17.6721 266.257 14.5111 261.617 13.6944C258.041 13.065 255.292 13.6462 253.527 14.6746C253.527 14.6746 256.25 18.1633 261.469 18.6442C266.036 19.065 268.286 17.9565 268.957 17.6721Z" fill="#846358"/>
<path d="M274.526 24.9604C274.526 24.9604 271.955 21.9284 267.316 21.1118C263.74 20.4824 262.023 21.1281 260.258 22.1565C260.258 22.1565 262.433 25.484 267.652 25.9648C272.219 26.3856 273.855 25.2448 274.526 24.9604L274.526 24.9604Z" fill="#846358"/>
<path d="M279.951 34.4673C279.951 34.4673 277.55 30.7304 273.207 28.9042C268.758 27.0328 266.472 27.9264 264.559 28.6408C265.169 29.5563 267.667 33.3723 271.716 34.5178C276.129 35.7663 279.242 34.6339 279.951 34.4673Z" fill="#846358"/>
<path d="M283.155 42.9104C283.155 42.9104 281.027 39.0113 276.827 36.8791C272.522 34.6942 270.179 35.422 268.219 35.9977C268.762 36.9544 270.98 40.9393 274.937 42.3717C279.25 43.9326 282.436 43.0258 283.155 42.9104Z" fill="#846358"/>
<path d="M284.844 52.9474C283.003 50.5863 282.001 48.0479 279.168 45.5215C275.677 42.409 272.681 43.4012 270.648 43.6022C271.649 45.4819 273.152 48.4554 276.257 50.6958C279.977 53.379 284.116 52.9271 284.844 52.9476V52.9474Z" fill="#846358"/>
<path d="M284.624 62.1908C283.058 59.6385 282.315 57.649 279.782 54.8213C276.661 51.3378 273.703 51.9562 271.66 51.9285C272.444 53.9083 273.766 56.8701 276.601 59.4439C279.997 62.5264 283.903 62.089 284.624 62.1908Z" fill="#846358"/>
<path d="M282.608 69.5636C280.252 65.9265 280.549 65.1033 278.244 62.0875C275.767 58.8486 272.639 58.9377 270.605 58.7461C271.228 60.7825 272.159 63.5372 274.799 66.311C277.614 69.269 280.543 68.8882 282.608 69.5636Z" fill="#846358"/>
<path d="M278.739 76.7867C277.253 73.5688 277.51 71.5594 276.148 69.2784C273.921 65.5478 271.737 65.3867 269.703 65.1953C271.325 69.8433 270.95 69.8647 272.736 72.6957C274.473 75.4504 276.834 75.8212 278.739 76.7869V76.7867Z" fill="#846358"/>
<path d="M274.063 82.8636C273.216 79.4219 274.076 78.3688 273.172 75.8705C271.695 71.7844 269.581 71.2113 267.621 70.6367C267.847 73.3797 267.506 75.1199 269.044 78.093C270.129 80.1925 272.377 81.5536 274.063 82.8636Z" fill="#846358"/>
<path d="M264.666 76.1056C264.666 76.1056 262.969 79.383 263.533 83.1815C264.332 88.5635 267.208 89.3698 267.208 89.3698C267.208 89.3698 268.846 86.9236 268.679 81.9601C268.501 76.6583 264.666 76.1055 264.666 76.1055L264.666 76.1056Z" fill="#846358"/>
<path d="M258.537 81.5898C258.537 81.5898 256.838 84.9081 257.209 88.7304C257.686 93.6286 260.368 94.8542 260.368 94.8542C260.368 94.8542 262.058 92.1198 262.13 87.9929C262.24 81.6911 258.537 81.5898 258.537 81.5898Z" fill="#846358"/>
</svg>
