<svg width="345" height="103" viewBox="0 0 345 103" fill="none" xmlns="http://www.w3.org/2000/svg">
<path d="M43.6107 6.25C41.2765 7.81784 38.6967 9.75934 36.6175 11.9248C32.9285 15.767 29.2699 20.0985 26.1254 24.4324C24.0011 27.3602 21.2451 31.8029 19.7394 35.0709C17.7355 39.42 16.5487 42.4669 15.4489 47.2453C13.8995 53.977 14.1132 60.8855 15.6868 67.3985C18.0019 76.9803 25.4115 84.9975 32.8159 91.5054C38.6083 96.5961 46.396 99.9265 53.2385 102.373L53.9455 100.504C47.1656 98.0819 39.9797 94.8459 34.4283 89.9612C27.287 83.6768 20.6911 76.0132 17.8458 66.881C16.1128 61.322 15.7106 55.2228 16.6198 49.3164C17.4164 44.1423 19.4189 38.9568 21.3696 34.2421C22.9733 30.3664 24.8431 27.3472 27.124 24.1672C30.0158 20.135 33.1937 16.2028 36.5717 12.6124C38.7584 10.2883 41.6829 8.1901 44.0316 6.61256L43.6107 6.25Z" fill="#846358"/>
<path d="M40.6436 96.6621C40.6436 96.6621 35.8375 95.1427 32.0235 95.5903C25.9684 96.3009 25.4102 100.06 25.4102 100.06C25.4102 100.06 27.8394 101.568 33.0496 100.995C39.1534 100.324 40.6435 96.6621 40.6435 96.6621L40.6436 96.6621Z" fill="#846358"/>
<path d="M32.4605 91.0493C32.4605 91.0493 28.4102 89.1281 24.5701 89.1566C17.922 89.2058 17.5234 92.7369 17.5234 92.7369C17.5234 92.7369 19.9298 94.4731 25.2542 94.4017C31.3943 94.3193 32.4605 91.0493 32.4605 91.0493Z" fill="#846358"/>
<path d="M26.4072 85.1463C26.4072 85.1463 22.556 81.771 18.8309 80.8376C12.3821 79.2218 10.2461 82.9742 10.2461 82.9742C10.2461 82.9742 12.6432 85.8501 17.8161 87.1132C23.7813 88.5698 26.4072 85.1463 26.4072 85.1463Z" fill="#846358"/>
<path d="M19.5672 76.049C19.5672 76.049 16.2737 72.5773 11.7652 71.1921C5.88145 69.3843 3.11587 72.9335 3.03516 73.0223C3.03516 73.0223 5.4461 76.0568 10.4762 77.3871C17.2231 79.1715 19.5672 76.049 19.5672 76.049Z" fill="#846358"/>
<path d="M16.3125 68.813C16.3125 68.813 13.2451 64.142 8.67007 61.9373C4.2258 59.7944 0.979019 61.6193 0.898438 61.6908C0.898438 61.6908 3.18142 65.863 7.38165 67.8622C13.0884 70.5786 16.3131 68.8125 16.3131 68.8125L16.3125 68.813Z" fill="#846358"/>
<path d="M15.3254 62.4614C13.6882 60.9213 13.5662 56.7351 11.2261 53.3381C7.96162 48.599 2.57668 48.9425 2.49609 48.9872C2.49609 48.9872 3.07258 54.8915 7.15491 58.4601C11.4934 62.2526 15.3252 62.4618 15.3252 62.4618L15.3254 62.4614Z" fill="#846358"/>
<path d="M14.8704 52.5114C14.8704 52.5114 15.0293 47.3796 13.676 43.4825C11.7881 38.0462 6.6346 36.979 6.54508 37.0003C6.54508 37.0003 5.70933 42.8133 8.69666 47.3383C11.8715 52.1473 14.8704 52.5113 14.8704 52.5113L14.8704 52.5114Z" fill="#846358"/>
<path d="M17.0551 42.8923C17.0551 42.8923 18.0831 38.5842 17.5623 34.4919C16.7774 28.3241 11.9777 27.0184 11.886 27.0274C11.886 27.0274 10.2407 32.74 12.5814 37.6309C15.069 42.8287 17.0551 42.8923 17.0551 42.8923Z" fill="#846358"/>
<path d="M21.2834 32.567C21.2834 32.567 22.9549 28.6699 22.7407 24.5503C22.4435 18.8328 18.5692 16.4174 18.4773 16.4141C18.4773 16.4141 14.7418 19.7822 16.8872 27.0321C18.1887 31.4299 21.2835 32.5671 21.2835 32.5671L21.2834 32.567Z" fill="#846358"/>
<path d="M26.6611 24.0758C26.6611 24.0758 29.145 20.2495 29.8322 16.1818C30.4774 12.363 28.928 8.20266 28.5822 7.82031C28.5822 7.82031 24.5403 9.59669 24.6916 16.4141C24.7934 20.9994 26.6611 24.0758 26.6611 24.0758Z" fill="#846358"/>
<path d="M33.2704 15.8851C33.2704 15.8851 36.2321 12.7312 37.0036 8.41869C37.6421 4.84499 36.9985 0.96147 36.3255 -0.0078125C36.3255 -0.0078125 32.4624 2.39241 32.1817 8.46249C31.9699 13.0439 32.964 15.2245 33.2704 15.8856L33.2704 15.8851Z" fill="#846358"/>
<path d="M38.0625 10.8588C38.0625 10.8588 43.7069 11.0627 46.5122 9.43396C49.6524 7.61084 52.7339 3.65364 52.9771 2.49842C52.9771 2.49842 48.0333 0.330624 43.4239 4.29038C39.945 7.27894 38.3334 10.1823 38.0625 10.8588Z" fill="#846358"/>
<path d="M31.8439 17.6721C31.8439 17.6721 34.5437 14.5111 39.183 13.6944C42.759 13.065 45.5081 13.6462 47.2731 14.6746C47.2731 14.6746 44.5502 18.1633 39.3311 18.6442C34.7641 19.065 32.5147 17.9565 31.8438 17.6721L31.8439 17.6721Z" fill="#846358"/>
<path d="M26.2658 24.9565C26.2658 24.9565 28.8365 21.9245 33.4759 21.1079C37.0519 20.4785 38.769 21.1242 40.534 22.1526C40.534 22.1526 38.3593 25.4801 33.1403 25.9609C28.5733 26.3817 26.9366 25.2409 26.2656 24.9565L26.2658 24.9565Z" fill="#846358"/>
<path d="M20.8516 34.4673C20.8516 34.4673 23.2531 30.7304 27.5954 28.9042C32.0451 27.0328 34.3305 27.9264 36.2443 28.6408C35.6339 29.5563 33.1363 33.3723 29.0869 34.5178C24.6738 35.7663 21.561 34.6339 20.8516 34.4673Z" fill="#846358"/>
<path d="M17.6367 42.9104C17.6367 42.9104 19.7648 39.0113 23.9653 36.8791C28.2697 34.6942 30.6131 35.422 32.5731 35.9977C32.0299 36.9544 29.8116 40.9393 25.8546 42.3717C21.5419 43.9326 18.3562 43.0258 17.6367 42.9104Z" fill="#846358"/>
<path d="M15.9453 52.9435C17.7869 50.5824 18.7882 48.044 21.6217 45.5176C25.1126 42.4051 28.1081 43.3973 30.141 43.5983C29.1403 45.478 27.6376 48.4515 24.5322 50.6918C20.8127 53.3751 16.6737 52.9232 15.9453 52.9437V52.9435Z" fill="#846358"/>
<path d="M16.1758 62.1908C17.7417 59.6385 18.4848 57.649 21.0179 54.8213C24.1386 51.3378 27.0973 51.9562 29.1399 51.9285C28.3557 53.9083 27.034 56.8701 24.1987 59.4439C20.8028 62.5264 16.8972 62.089 16.1758 62.1908Z" fill="#846358"/>
<path d="M18.1914 69.5636C20.5473 65.9265 20.25 65.1033 22.5559 62.0875C25.0323 58.8486 28.1602 58.9377 30.194 58.7461C29.5712 60.7825 28.6405 63.5372 26.0006 66.311C23.1853 69.269 20.257 68.8882 18.1915 69.5636H18.1914Z" fill="#846358"/>
<path d="M22.0586 76.7867C23.5438 73.5688 23.2874 71.5594 24.6492 69.2784C26.8767 65.5478 29.0603 65.3867 31.0941 65.1953C29.4719 69.8433 29.8475 69.8647 28.0616 72.6957C26.3239 75.4504 23.9628 75.8212 22.0586 76.7869V76.7867Z" fill="#846358"/>
<path d="M26.7266 82.8636C27.573 79.4219 26.7136 78.3688 27.6171 75.8705C29.0947 71.7844 31.208 71.2113 33.1683 70.6367C32.9429 73.3797 33.2832 75.1199 31.7458 78.093C30.6601 80.1925 28.4125 81.5536 26.7266 82.8636Z" fill="#846358"/>
<path d="M36.1341 76.1056C36.1341 76.1056 37.8317 79.383 37.2678 83.1815C36.4689 88.5635 33.5928 89.3698 33.5928 89.3698C33.5928 89.3698 31.9547 86.9236 32.1213 81.9601C32.2991 76.6583 36.1341 76.1055 36.1341 76.1055L36.1341 76.1056Z" fill="#846358"/>
<path d="M42.26 81.5859C42.26 81.5859 43.9588 84.9042 43.5872 88.7264C43.1108 93.6247 40.4283 94.8503 40.4283 94.8503C40.4283 94.8503 38.7385 92.1159 38.6665 87.9889C38.5566 81.6872 42.2601 81.5861 42.2601 81.5861L42.26 81.5859Z" fill="#846358"/>
<path d="M64.0554 35.3996C63.7674 34.8716 63.3714 34.4696 62.8674 34.1936C62.3634 33.9176 61.7754 33.7796 61.1034 33.7796C60.3594 33.7796 59.6994 33.9476 59.1234 34.2836C58.5474 34.6196 58.0974 35.0996 57.7734 35.7236C57.4494 36.3476 57.2874 37.0676 57.2874 37.8836C57.2874 38.7236 57.4494 39.4556 57.7734 40.0796C58.1094 40.7036 58.5714 41.1836 59.1594 41.5196C59.7474 41.8556 60.4314 42.0236 61.2114 42.0236C62.1714 42.0236 62.9574 41.7716 63.5694 41.2676C64.1814 40.7516 64.5834 40.0376 64.7754 39.1256H60.4554V37.1996H67.2594V39.3956C67.0914 40.2716 66.7314 41.0816 66.1794 41.8256C65.6274 42.5696 64.9134 43.1696 64.0374 43.6256C63.1734 44.0696 62.2014 44.2916 61.1214 44.2916C59.9094 44.2916 58.8114 44.0216 57.8274 43.4816C56.8554 42.9296 56.0874 42.1676 55.5234 41.1956C54.9714 40.2236 54.6954 39.1196 54.6954 37.8836C54.6954 36.6476 54.9714 35.5436 55.5234 34.5716C56.0874 33.5876 56.8554 32.8256 57.8274 32.2856C58.8114 31.7336 59.9034 31.4576 61.1034 31.4576C62.5194 31.4576 63.7494 31.8056 64.7934 32.5016C65.8374 33.1856 66.5574 34.1516 66.9534 35.3996H64.0554ZM73.0518 44.3456C72.0918 44.3456 71.2278 44.1356 70.4598 43.7156C69.6918 43.2836 69.0858 42.6776 68.6418 41.8976C68.2098 41.1176 67.9938 40.2176 67.9938 39.1976C67.9938 38.1776 68.2158 37.2776 68.6598 36.4976C69.1158 35.7176 69.7338 35.1176 70.5138 34.6976C71.2938 34.2656 72.1638 34.0496 73.1238 34.0496C74.0838 34.0496 74.9538 34.2656 75.7338 34.6976C76.5138 35.1176 77.1258 35.7176 77.5698 36.4976C78.0258 37.2776 78.2538 38.1776 78.2538 39.1976C78.2538 40.2176 78.0198 41.1176 77.5518 41.8976C77.0958 42.6776 76.4718 43.2836 75.6798 43.7156C74.8998 44.1356 74.0238 44.3456 73.0518 44.3456ZM73.0518 42.1496C73.5078 42.1496 73.9338 42.0416 74.3298 41.8256C74.7378 41.5976 75.0618 41.2616 75.3018 40.8176C75.5418 40.3736 75.6618 39.8336 75.6618 39.1976C75.6618 38.2496 75.4098 37.5236 74.9058 37.0196C74.4138 36.5036 73.8078 36.2456 73.0878 36.2456C72.3678 36.2456 71.7618 36.5036 71.2698 37.0196C70.7898 37.5236 70.5498 38.2496 70.5498 39.1976C70.5498 40.1456 70.7838 40.8776 71.2518 41.3936C71.7318 41.8976 72.3318 42.1496 73.0518 42.1496ZM82.1224 30.8636V44.1836H79.6024V30.8636H82.1224ZM83.4641 39.1616C83.4641 38.1536 83.6621 37.2596 84.0581 36.4796C84.4661 35.6996 85.0181 35.0996 85.7141 34.6796C86.4101 34.2596 87.1841 34.0496 88.0361 34.0496C88.6841 34.0496 89.3021 34.1936 89.8901 34.4816C90.4781 34.7576 90.9461 35.1296 91.2941 35.5976V30.8636H93.8501V44.1836H91.2941V42.7076C90.9821 43.1996 90.5441 43.5956 89.9801 43.8956C89.4161 44.1956 88.7621 44.3456 88.0181 44.3456C87.1781 44.3456 86.4101 44.1296 85.7141 43.6976C85.0181 43.2656 84.4661 42.6596 84.0581 41.8796C83.6621 41.0876 83.4641 40.1816 83.4641 39.1616ZM91.3121 39.1976C91.3121 38.5856 91.1921 38.0636 90.9521 37.6316C90.7121 37.1876 90.3881 36.8516 89.9801 36.6236C89.5721 36.3836 89.1341 36.2636 88.6661 36.2636C88.1981 36.2636 87.7661 36.3776 87.3701 36.6056C86.9741 36.8336 86.6501 37.1696 86.3981 37.6136C86.1581 38.0456 86.0381 38.5616 86.0381 39.1616C86.0381 39.7616 86.1581 40.2896 86.3981 40.7456C86.6501 41.1896 86.9741 41.5316 87.3701 41.7716C87.7781 42.0116 88.2101 42.1316 88.6661 42.1316C89.1341 42.1316 89.5721 42.0176 89.9801 41.7896C90.3881 41.5496 90.7121 41.2136 90.9521 40.7816C91.1921 40.3376 91.3121 39.8096 91.3121 39.1976ZM105.081 38.9816C105.081 39.3416 105.057 39.6656 105.009 39.9536H97.7193C97.7793 40.6736 98.0313 41.2376 98.4753 41.6456C98.9193 42.0536 99.4653 42.2576 100.113 42.2576C101.049 42.2576 101.715 41.8556 102.111 41.0516H104.829C104.541 42.0116 103.989 42.8036 103.173 43.4276C102.357 44.0396 101.355 44.3456 100.167 44.3456C99.2073 44.3456 98.3433 44.1356 97.5753 43.7156C96.8193 43.2836 96.2253 42.6776 95.7933 41.8976C95.3733 41.1176 95.1633 40.2176 95.1633 39.1976C95.1633 38.1656 95.3733 37.2596 95.7933 36.4796C96.2133 35.6996 96.8013 35.0996 97.5573 34.6796C98.3133 34.2596 99.1833 34.0496 100.167 34.0496C101.115 34.0496 101.961 34.2536 102.705 34.6616C103.461 35.0696 104.043 35.6516 104.451 36.4076C104.871 37.1516 105.081 38.0096 105.081 38.9816ZM102.471 38.2616C102.459 37.6136 102.225 37.0976 101.769 36.7136C101.313 36.3176 100.755 36.1196 100.095 36.1196C99.4713 36.1196 98.9433 36.3116 98.5113 36.6956C98.0913 37.0676 97.8333 37.5896 97.7373 38.2616H102.471ZM111.947 34.0676C113.135 34.0676 114.095 34.4456 114.827 35.2016C115.559 35.9456 115.925 36.9896 115.925 38.3336V44.1836H113.405V38.6756C113.405 37.8836 113.207 37.2776 112.811 36.8576C112.415 36.4256 111.875 36.2096 111.191 36.2096C110.495 36.2096 109.943 36.4256 109.535 36.8576C109.139 37.2776 108.941 37.8836 108.941 38.6756V44.1836H106.421V34.2116H108.941V35.4536C109.277 35.0216 109.703 34.6856 110.219 34.4456C110.747 34.1936 111.323 34.0676 111.947 34.0676ZM128.702 44.1836L124.13 38.5856V44.1836H121.61V31.6196H124.13V37.2536L128.702 31.6196H131.744L126.56 37.8476L131.888 44.1836H128.702ZM134.324 33.0236C133.88 33.0236 133.508 32.8856 133.208 32.6096C132.92 32.3216 132.776 31.9676 132.776 31.5476C132.776 31.1276 132.92 30.7796 133.208 30.5036C133.508 30.2156 133.88 30.0716 134.324 30.0716C134.768 30.0716 135.134 30.2156 135.422 30.5036C135.722 30.7796 135.872 31.1276 135.872 31.5476C135.872 31.9676 135.722 32.3216 135.422 32.6096C135.134 32.8856 134.768 33.0236 134.324 33.0236ZM135.566 34.2116V44.1836H133.046V34.2116H135.566ZM140.489 36.2816V41.1056C140.489 41.4416 140.567 41.6876 140.723 41.8436C140.891 41.9876 141.167 42.0596 141.551 42.0596H142.721V44.1836H141.137C139.013 44.1836 137.951 43.1516 137.951 41.0876V36.2816H136.763V34.2116H137.951V31.7456H140.489V34.2116H142.721V36.2816H140.489ZM146.968 36.2816V41.1056C146.968 41.4416 147.046 41.6876 147.202 41.8436C147.37 41.9876 147.646 42.0596 148.03 42.0596H149.2V44.1836H147.616C145.492 44.1836 144.43 43.1516 144.43 41.0876V36.2816H143.242V34.2116H144.43V31.7456H146.968V34.2116H149.2V36.2816H146.968ZM160.053 34.2116L153.879 48.8996H151.197L153.357 43.9316L149.361 34.2116H152.187L154.761 41.1776L157.371 34.2116H160.053ZM175.446 44.1836H172.926L167.22 35.5616V44.1836H164.7V31.6016H167.22L172.926 40.2416V31.6016H175.446V44.1836ZM181.864 44.3456C180.904 44.3456 180.04 44.1356 179.272 43.7156C178.504 43.2836 177.898 42.6776 177.454 41.8976C177.022 41.1176 176.806 40.2176 176.806 39.1976C176.806 38.1776 177.028 37.2776 177.472 36.4976C177.928 35.7176 178.546 35.1176 179.326 34.6976C180.106 34.2656 180.976 34.0496 181.936 34.0496C182.896 34.0496 183.766 34.2656 184.546 34.6976C185.326 35.1176 185.938 35.7176 186.382 36.4976C186.838 37.2776 187.066 38.1776 187.066 39.1976C187.066 40.2176 186.832 41.1176 186.364 41.8976C185.908 42.6776 185.284 43.2836 184.492 43.7156C183.712 44.1356 182.836 44.3456 181.864 44.3456ZM181.864 42.1496C182.32 42.1496 182.746 42.0416 183.142 41.8256C183.55 41.5976 183.874 41.2616 184.114 40.8176C184.354 40.3736 184.474 39.8336 184.474 39.1976C184.474 38.2496 184.222 37.5236 183.718 37.0196C183.226 36.5036 182.62 36.2456 181.9 36.2456C181.18 36.2456 180.574 36.5036 180.082 37.0196C179.602 37.5236 179.362 38.2496 179.362 39.1976C179.362 40.1456 179.596 40.8776 180.064 41.3936C180.544 41.8976 181.144 42.1496 181.864 42.1496ZM200.799 34.0676C202.023 34.0676 203.007 34.4456 203.751 35.2016C204.507 35.9456 204.885 36.9896 204.885 38.3336V44.1836H202.365V38.6756C202.365 37.8956 202.167 37.3016 201.771 36.8936C201.375 36.4736 200.835 36.2636 200.151 36.2636C199.467 36.2636 198.921 36.4736 198.513 36.8936C198.117 37.3016 197.919 37.8956 197.919 38.6756V44.1836H195.399V38.6756C195.399 37.8956 195.201 37.3016 194.805 36.8936C194.409 36.4736 193.869 36.2636 193.185 36.2636C192.489 36.2636 191.937 36.4736 191.529 36.8936C191.133 37.3016 190.935 37.8956 190.935 38.6756V44.1836H188.415V34.2116H190.935V35.4176C191.259 34.9976 191.673 34.6676 192.177 34.4276C192.693 34.1876 193.257 34.0676 193.869 34.0676C194.649 34.0676 195.345 34.2356 195.957 34.5716C196.569 34.8956 197.043 35.3636 197.379 35.9756C197.703 35.3996 198.171 34.9376 198.783 34.5896C199.407 34.2416 200.079 34.0676 200.799 34.0676ZM208.054 33.0236C207.61 33.0236 207.238 32.8856 206.938 32.6096C206.65 32.3216 206.506 31.9676 206.506 31.5476C206.506 31.1276 206.65 30.7796 206.938 30.5036C207.238 30.2156 207.61 30.0716 208.054 30.0716C208.498 30.0716 208.864 30.2156 209.152 30.5036C209.452 30.7796 209.602 31.1276 209.602 31.5476C209.602 31.9676 209.452 32.3216 209.152 32.6096C208.864 32.8856 208.498 33.0236 208.054 33.0236ZM209.296 34.2116V44.1836H206.776V34.2116H209.296ZM216.812 34.0676C218 34.0676 218.96 34.4456 219.692 35.2016C220.424 35.9456 220.79 36.9896 220.79 38.3336V44.1836H218.27V38.6756C218.27 37.8836 218.072 37.2776 217.676 36.8576C217.28 36.4256 216.74 36.2096 216.056 36.2096C215.36 36.2096 214.808 36.4256 214.4 36.8576C214.004 37.2776 213.806 37.8836 213.806 38.6756V44.1836H211.286V34.2116H213.806V35.4536C214.142 35.0216 214.568 34.6856 215.084 34.4456C215.612 34.1936 216.188 34.0676 216.812 34.0676ZM231.956 38.9816C231.956 39.3416 231.932 39.6656 231.884 39.9536H224.594C224.654 40.6736 224.906 41.2376 225.35 41.6456C225.794 42.0536 226.34 42.2576 226.988 42.2576C227.924 42.2576 228.59 41.8556 228.986 41.0516H231.704C231.416 42.0116 230.864 42.8036 230.048 43.4276C229.232 44.0396 228.23 44.3456 227.042 44.3456C226.082 44.3456 225.218 44.1356 224.45 43.7156C223.694 43.2836 223.1 42.6776 222.668 41.8976C222.248 41.1176 222.038 40.2176 222.038 39.1976C222.038 38.1656 222.248 37.2596 222.668 36.4796C223.088 35.6996 223.676 35.0996 224.432 34.6796C225.188 34.2596 226.058 34.0496 227.042 34.0496C227.99 34.0496 228.836 34.2536 229.58 34.6616C230.336 35.0696 230.918 35.6516 231.326 36.4076C231.746 37.1516 231.956 38.0096 231.956 38.9816ZM229.346 38.2616C229.334 37.6136 229.1 37.0976 228.644 36.7136C228.188 36.3176 227.63 36.1196 226.97 36.1196C226.346 36.1196 225.818 36.3116 225.386 36.6956C224.966 37.0676 224.708 37.5896 224.612 38.2616H229.346ZM242.566 38.9816C242.566 39.3416 242.542 39.6656 242.494 39.9536H235.204C235.264 40.6736 235.516 41.2376 235.96 41.6456C236.404 42.0536 236.95 42.2576 237.598 42.2576C238.534 42.2576 239.2 41.8556 239.596 41.0516H242.314C242.026 42.0116 241.474 42.8036 240.658 43.4276C239.842 44.0396 238.84 44.3456 237.652 44.3456C236.692 44.3456 235.828 44.1356 235.06 43.7156C234.304 43.2836 233.71 42.6776 233.278 41.8976C232.858 41.1176 232.648 40.2176 232.648 39.1976C232.648 38.1656 232.858 37.2596 233.278 36.4796C233.698 35.6996 234.286 35.0996 235.042 34.6796C235.798 34.2596 236.668 34.0496 237.652 34.0496C238.6 34.0496 239.446 34.2536 240.19 34.6616C240.946 35.0696 241.528 35.6516 241.936 36.4076C242.356 37.1516 242.566 38.0096 242.566 38.9816ZM239.956 38.2616C239.944 37.6136 239.71 37.0976 239.254 36.7136C238.798 36.3176 238.24 36.1196 237.58 36.1196C236.956 36.1196 236.428 36.3116 235.996 36.6956C235.576 37.0676 235.318 37.5896 235.222 38.2616H239.956ZM248.198 41.3396C249.35 40.3796 250.268 39.5816 250.952 38.9456C251.636 38.2976 252.206 37.6256 252.662 36.9296C253.118 36.2336 253.346 35.5496 253.346 34.8776C253.346 34.2656 253.202 33.7856 252.914 33.4376C252.626 33.0896 252.182 32.9156 251.582 32.9156C250.982 32.9156 250.52 33.1196 250.196 33.5276C249.872 33.9236 249.704 34.4696 249.692 35.1656H247.244C247.292 33.7256 247.718 32.6336 248.522 31.8896C249.338 31.1456 250.37 30.7736 251.618 30.7736C252.986 30.7736 254.036 31.1396 254.768 31.8716C255.5 32.5916 255.866 33.5456 255.866 34.7336C255.866 35.6696 255.614 36.5636 255.11 37.4156C254.606 38.2676 254.03 39.0116 253.382 39.6476C252.734 40.2716 251.888 41.0276 250.844 41.9156H256.154V44.0036H247.262V42.1316L248.198 41.3396ZM257.242 37.4516C257.242 35.3756 257.614 33.7496 258.358 32.5736C259.114 31.3976 260.362 30.8096 262.102 30.8096C263.842 30.8096 265.084 31.3976 265.828 32.5736C266.584 33.7496 266.962 35.3756 266.962 37.4516C266.962 39.5396 266.584 41.1776 265.828 42.3656C265.084 43.5536 263.842 44.1476 262.102 44.1476C260.362 44.1476 259.114 43.5536 258.358 42.3656C257.614 41.1776 257.242 39.5396 257.242 37.4516ZM264.478 37.4516C264.478 36.5636 264.418 35.8196 264.298 35.2196C264.19 34.6076 263.962 34.1096 263.614 33.7256C263.278 33.3416 262.774 33.1496 262.102 33.1496C261.43 33.1496 260.92 33.3416 260.572 33.7256C260.236 34.1096 260.008 34.6076 259.888 35.2196C259.78 35.8196 259.726 36.5636 259.726 37.4516C259.726 38.3636 259.78 39.1316 259.888 39.7556C259.996 40.3676 260.224 40.8656 260.572 41.2496C260.92 41.6216 261.43 41.8076 262.102 41.8076C262.774 41.8076 263.284 41.6216 263.632 41.2496C263.98 40.8656 264.208 40.3676 264.316 39.7556C264.424 39.1316 264.478 38.3636 264.478 37.4516ZM269.171 41.3396C270.323 40.3796 271.241 39.5816 271.925 38.9456C272.609 38.2976 273.179 37.6256 273.635 36.9296C274.091 36.2336 274.319 35.5496 274.319 34.8776C274.319 34.2656 274.175 33.7856 273.887 33.4376C273.599 33.0896 273.155 32.9156 272.555 32.9156C271.955 32.9156 271.493 33.1196 271.169 33.5276C270.845 33.9236 270.677 34.4696 270.665 35.1656H268.217C268.265 33.7256 268.691 32.6336 269.495 31.8896C270.311 31.1456 271.343 30.7736 272.591 30.7736C273.959 30.7736 275.009 31.1396 275.741 31.8716C276.473 32.5916 276.839 33.5456 276.839 34.7336C276.839 35.6696 276.587 36.5636 276.083 37.4156C275.579 38.2676 275.003 39.0116 274.355 39.6476C273.707 40.2716 272.861 41.0276 271.817 41.9156H277.127V44.0036H268.235V42.1316L269.171 41.3396ZM278.251 34.5176C278.311 33.3176 278.731 32.3936 279.511 31.7456C280.303 31.0856 281.341 30.7556 282.625 30.7556C283.501 30.7556 284.251 30.9116 284.875 31.2236C285.499 31.5236 285.967 31.9376 286.279 32.4656C286.603 32.9816 286.765 33.5696 286.765 34.2296C286.765 34.9856 286.567 35.6276 286.171 36.1556C285.787 36.6716 285.325 37.0196 284.785 37.1996V37.2716C285.481 37.4876 286.021 37.8716 286.405 38.4236C286.801 38.9756 286.999 39.6836 286.999 40.5476C286.999 41.2676 286.831 41.9096 286.495 42.4736C286.171 43.0376 285.685 43.4816 285.037 43.8056C284.401 44.1176 283.633 44.2736 282.733 44.2736C281.377 44.2736 280.273 43.9316 279.421 43.2476C278.569 42.5636 278.119 41.5556 278.071 40.2236H280.519C280.543 40.8116 280.741 41.2856 281.113 41.6456C281.497 41.9936 282.019 42.1676 282.679 42.1676C283.291 42.1676 283.759 41.9996 284.083 41.6636C284.419 41.3156 284.587 40.8716 284.587 40.3316C284.587 39.6116 284.359 39.0956 283.903 38.7836C283.447 38.4716 282.739 38.3156 281.779 38.3156H281.257V36.2456H281.779C283.483 36.2456 284.335 35.6756 284.335 34.5356C284.335 34.0196 284.179 33.6176 283.867 33.3296C283.567 33.0416 283.129 32.8976 282.553 32.8976C281.989 32.8976 281.551 33.0536 281.239 33.3656C280.939 33.6656 280.765 34.0496 280.717 34.5176H278.251ZM126.307 62.5076C126.307 63.1796 126.145 63.8096 125.821 64.3976C125.509 64.9856 125.011 65.4596 124.327 65.8196C123.655 66.1796 122.803 66.3596 121.771 66.3596H119.665V71.1836H117.145V58.6196H121.771C122.743 58.6196 123.571 58.7876 124.255 59.1236C124.939 59.4596 125.449 59.9216 125.785 60.5096C126.133 61.0976 126.307 61.7636 126.307 62.5076ZM121.663 64.3256C122.359 64.3256 122.875 64.1696 123.211 63.8576C123.547 63.5336 123.715 63.0836 123.715 62.5076C123.715 61.2836 123.031 60.6716 121.663 60.6716H119.665V64.3256H121.663ZM130.116 62.7596C130.44 62.2316 130.86 61.8176 131.376 61.5176C131.904 61.2176 132.504 61.0676 133.176 61.0676V63.7136H132.51C131.718 63.7136 131.118 63.8996 130.71 64.2716C130.314 64.6436 130.116 65.2916 130.116 66.2156V71.1836H127.596V61.2116H130.116V62.7596ZM138.802 71.3456C137.842 71.3456 136.978 71.1356 136.21 70.7156C135.442 70.2836 134.836 69.6776 134.392 68.8976C133.96 68.1176 133.744 67.2176 133.744 66.1976C133.744 65.1776 133.966 64.2776 134.41 63.4976C134.866 62.7176 135.484 62.1176 136.264 61.6976C137.044 61.2656 137.914 61.0496 138.874 61.0496C139.834 61.0496 140.704 61.2656 141.484 61.6976C142.264 62.1176 142.876 62.7176 143.32 63.4976C143.776 64.2776 144.004 65.1776 144.004 66.1976C144.004 67.2176 143.77 68.1176 143.302 68.8976C142.846 69.6776 142.222 70.2836 141.43 70.7156C140.65 71.1356 139.774 71.3456 138.802 71.3456ZM138.802 69.1496C139.258 69.1496 139.684 69.0416 140.08 68.8256C140.488 68.5976 140.812 68.2616 141.052 67.8176C141.292 67.3736 141.412 66.8336 141.412 66.1976C141.412 65.2496 141.16 64.5236 140.656 64.0196C140.164 63.5036 139.558 63.2456 138.838 63.2456C138.118 63.2456 137.512 63.5036 137.02 64.0196C136.54 64.5236 136.3 65.2496 136.3 66.1976C136.3 67.1456 136.534 67.8776 137.002 68.3936C137.482 68.8976 138.082 69.1496 138.802 69.1496ZM144.704 66.1616C144.704 65.1536 144.902 64.2596 145.298 63.4796C145.706 62.6996 146.258 62.0996 146.954 61.6796C147.65 61.2596 148.424 61.0496 149.276 61.0496C149.924 61.0496 150.542 61.1936 151.13 61.4816C151.718 61.7576 152.186 62.1296 152.534 62.5976V57.8636H155.09V71.1836H152.534V69.7076C152.222 70.1996 151.784 70.5956 151.22 70.8956C150.656 71.1956 150.002 71.3456 149.258 71.3456C148.418 71.3456 147.65 71.1296 146.954 70.6976C146.258 70.2656 145.706 69.6596 145.298 68.8796C144.902 68.0876 144.704 67.1816 144.704 66.1616ZM152.552 66.1976C152.552 65.5856 152.432 65.0636 152.192 64.6316C151.952 64.1876 151.628 63.8516 151.22 63.6236C150.812 63.3836 150.374 63.2636 149.906 63.2636C149.438 63.2636 149.006 63.3776 148.61 63.6056C148.214 63.8336 147.89 64.1696 147.638 64.6136C147.398 65.0456 147.278 65.5616 147.278 66.1616C147.278 66.7616 147.398 67.2896 147.638 67.7456C147.89 68.1896 148.214 68.5316 148.61 68.7716C149.018 69.0116 149.45 69.1316 149.906 69.1316C150.374 69.1316 150.812 69.0176 151.22 68.7896C151.628 68.5496 151.952 68.2136 152.192 67.7816C152.432 67.3376 152.552 66.8096 152.552 66.1976ZM166.466 61.2116V71.1836H163.928V69.9236C163.604 70.3556 163.178 70.6976 162.65 70.9496C162.134 71.1896 161.57 71.3096 160.958 71.3096C160.178 71.3096 159.488 71.1476 158.888 70.8236C158.288 70.4876 157.814 70.0016 157.466 69.3656C157.13 68.7176 156.962 67.9496 156.962 67.0616V61.2116H159.482V66.7016C159.482 67.4936 159.68 68.1056 160.076 68.5376C160.472 68.9576 161.012 69.1676 161.696 69.1676C162.392 69.1676 162.938 68.9576 163.334 68.5376C163.73 68.1056 163.928 67.4936 163.928 66.7016V61.2116H166.466ZM167.804 66.1976C167.804 65.1656 168.014 64.2656 168.434 63.4976C168.854 62.7176 169.436 62.1176 170.18 61.6976C170.924 61.2656 171.776 61.0496 172.736 61.0496C173.972 61.0496 174.992 61.3616 175.796 61.9856C176.612 62.5976 177.158 63.4616 177.434 64.5776H174.716C174.572 64.1456 174.326 63.8096 173.978 63.5696C173.642 63.3176 173.222 63.1916 172.718 63.1916C171.998 63.1916 171.428 63.4556 171.008 63.9836C170.588 64.4996 170.378 65.2376 170.378 66.1976C170.378 67.1456 170.588 67.8836 171.008 68.4116C171.428 68.9276 171.998 69.1856 172.718 69.1856C173.738 69.1856 174.404 68.7296 174.716 67.8176H177.434C177.158 68.8976 176.612 69.7556 175.796 70.3916C174.98 71.0276 173.96 71.3456 172.736 71.3456C171.776 71.3456 170.924 71.1356 170.18 70.7156C169.436 70.2836 168.854 69.6836 168.434 68.9156C168.014 68.1356 167.804 67.2296 167.804 66.1976ZM181.714 63.2816V68.1056C181.714 68.4416 181.792 68.6876 181.948 68.8436C182.116 68.9876 182.392 69.0596 182.776 69.0596H183.946V71.1836H182.362C180.238 71.1836 179.176 70.1516 179.176 68.0876V63.2816H177.988V61.2116H179.176V58.7456H181.714V61.2116H183.946V63.2816H181.714ZM199.47 58.6196V71.1836H196.95V65.8376H191.568V71.1836H189.048V58.6196H191.568V63.7856H196.95V58.6196H199.47ZM210.864 61.2116V71.1836H208.326V69.9236C208.002 70.3556 207.576 70.6976 207.048 70.9496C206.532 71.1896 205.968 71.3096 205.356 71.3096C204.576 71.3096 203.886 71.1476 203.286 70.8236C202.686 70.4876 202.212 70.0016 201.864 69.3656C201.528 68.7176 201.36 67.9496 201.36 67.0616V61.2116H203.88V66.7016C203.88 67.4936 204.078 68.1056 204.474 68.5376C204.87 68.9576 205.41 69.1676 206.094 69.1676C206.79 69.1676 207.336 68.9576 207.732 68.5376C208.128 68.1056 208.326 67.4936 208.326 66.7016V61.2116H210.864ZM218.376 61.0676C219.564 61.0676 220.524 61.4456 221.256 62.2016C221.988 62.9456 222.354 63.9896 222.354 65.3336V71.1836H219.834V65.6756C219.834 64.8836 219.636 64.2776 219.24 63.8576C218.844 63.4256 218.304 63.2096 217.62 63.2096C216.924 63.2096 216.372 63.4256 215.964 63.8576C215.568 64.2776 215.37 64.8836 215.37 65.6756V71.1836H212.85V61.2116H215.37V62.4536C215.706 62.0216 216.132 61.6856 216.648 61.4456C217.176 61.1936 217.752 61.0676 218.376 61.0676ZM227.185 63.2816V68.1056C227.185 68.4416 227.263 68.6876 227.419 68.8436C227.587 68.9876 227.863 69.0596 228.247 69.0596H229.417V71.1836H227.833C225.709 71.1836 224.647 70.1516 224.647 68.0876V63.2816H223.459V61.2116H224.647V58.7456H227.185V61.2116H229.417V63.2816H227.185Z" fill="#846358"/>
<path d="M302.276 6.25C304.61 7.81784 307.189 9.75934 309.269 11.9248C312.958 15.767 316.616 20.0985 319.761 24.4324C321.885 27.3602 324.641 31.8029 326.147 35.0709C328.151 39.42 329.338 42.4669 330.437 47.2453C331.987 53.977 331.773 60.8855 330.199 67.3985C327.884 76.9803 320.475 84.9975 313.07 91.5054C307.278 96.5961 299.49 99.9265 292.648 102.373L291.945 100.506C298.726 98.0817 305.912 94.846 311.464 89.9609C318.605 83.6774 325.2 76.0142 328.046 66.8807C329.779 61.3216 330.181 55.2219 329.272 49.3162C328.475 44.1421 326.473 38.9566 324.522 34.2418C322.918 30.3661 321.049 27.3469 318.768 24.1669C315.876 20.1347 312.698 16.2026 309.32 12.6121C307.133 10.288 304.209 8.18984 301.86 6.6123L302.276 6.25Z" fill="#846358"/>
<path d="M305.25 96.6621C305.25 96.6621 310.056 95.1427 313.87 95.5903C319.925 96.3009 320.483 100.06 320.483 100.06C320.483 100.06 318.054 101.568 312.844 100.995C306.74 100.324 305.25 96.6621 305.25 96.6621Z" fill="#846358"/>
<path d="M313.426 91.0493C313.426 91.0493 317.476 89.1281 321.316 89.1566C327.964 89.2058 328.363 92.7369 328.363 92.7369C328.363 92.7369 325.956 94.4731 320.632 94.4017C314.492 94.3193 313.426 91.0493 313.426 91.0493Z" fill="#846358"/>
<path d="M319.488 85.1463C319.488 85.1463 323.339 81.771 327.065 80.8376C333.513 79.2218 335.649 82.9742 335.649 82.9742C335.649 82.9742 333.252 85.8501 328.079 87.1132C322.114 88.5698 319.488 85.1463 319.488 85.1463Z" fill="#846358"/>
<path d="M326.324 76.0529C326.324 76.0529 329.618 72.5813 334.126 71.196C340.01 69.3882 342.776 72.9374 342.856 73.0262C342.856 73.0262 340.445 76.0607 335.415 77.391C328.669 79.1754 326.324 76.0529 326.324 76.0529H326.324Z" fill="#846358"/>
<path d="M329.578 68.8164C329.578 68.8164 332.645 64.1455 337.221 61.9408C341.665 59.7987 344.912 61.623 344.993 61.6949C344.993 61.6949 342.71 65.867 338.51 67.8662C332.803 70.5826 329.578 68.8164 329.578 68.8164Z" fill="#846358"/>
<path d="M330.563 62.4655C332.199 60.9255 332.322 56.7395 334.662 53.3422C337.926 48.6029 343.311 48.9467 343.392 48.991C343.392 48.991 342.815 54.8953 338.733 58.4639C334.394 62.2564 330.563 62.4655 330.563 62.4655Z" fill="#846358"/>
<path d="M331.021 52.5114C331.021 52.5114 330.862 47.3796 332.216 43.4825C334.104 38.0462 339.257 36.979 339.347 37.0003C339.347 37.0003 340.182 42.8133 337.195 47.3383C334.02 52.1473 331.021 52.5113 331.021 52.5113L331.021 52.5114Z" fill="#846358"/>
<path d="M328.838 42.8923C328.838 42.8923 327.81 38.5842 328.331 34.4919C329.116 28.3241 333.915 27.0184 334.007 27.0274C334.007 27.0274 335.652 32.74 333.312 37.6309C330.824 42.8287 328.838 42.8923 328.838 42.8923Z" fill="#846358"/>
<path d="M324.613 32.567C324.613 32.567 322.942 28.6699 323.156 24.5503C323.453 18.8328 327.327 16.4174 327.419 16.4141C327.419 16.4141 331.155 19.7822 329.009 27.0321C327.708 31.4299 324.613 32.5671 324.613 32.5671L324.613 32.567Z" fill="#846358"/>
<path d="M319.221 24.0797C319.221 24.0797 316.737 20.2534 316.05 16.1857C315.405 12.3669 316.954 8.20657 317.3 7.82422C317.3 7.82422 321.342 9.6006 321.191 16.418C321.089 21.0033 319.221 24.0797 319.221 24.0797Z" fill="#846358"/>
<path d="M312.621 15.8857C312.621 15.8857 309.66 12.7318 308.888 8.41933C308.249 4.84499 308.892 0.96147 309.566 -0.0078125C309.566 -0.0078125 313.429 2.39241 313.71 8.46249C313.922 13.0439 312.928 15.2245 312.621 15.8856L312.621 15.8857Z" fill="#846358"/>
<path d="M307.833 10.8627C307.833 10.8627 302.188 11.0666 299.383 9.43787C296.243 7.61475 293.161 3.65755 292.918 2.50233C292.918 2.50233 297.862 0.33453 302.471 4.29429C305.95 7.28284 307.562 10.1862 307.833 10.8627Z" fill="#846358"/>
<path d="M314.05 17.6721C314.05 17.6721 311.35 14.5111 306.711 13.6944C303.135 13.065 300.386 13.6462 298.621 14.6746C298.621 14.6746 301.344 18.1633 306.563 18.6442C311.13 19.065 313.379 17.9565 314.05 17.6721Z" fill="#846358"/>
<path d="M319.62 24.9604C319.62 24.9604 317.049 21.9284 312.41 21.1118C308.834 20.4824 307.117 21.1281 305.352 22.1565C305.352 22.1565 307.526 25.484 312.745 25.9648C317.312 26.3856 318.949 25.2448 319.62 24.9604L319.62 24.9604Z" fill="#846358"/>
<path d="M325.045 34.4673C325.045 34.4673 322.644 30.7304 318.301 28.9042C313.852 27.0328 311.566 27.9264 309.652 28.6408C310.263 29.5563 312.76 33.3723 316.81 34.5178C321.223 35.7663 324.336 34.6339 325.045 34.4673Z" fill="#846358"/>
<path d="M328.249 42.9104C328.249 42.9104 326.121 39.0113 321.92 36.8791C317.616 34.6942 315.273 35.422 313.312 35.9977C313.856 36.9544 316.074 40.9393 320.031 42.3717C324.344 43.9326 327.529 43.0258 328.249 42.9104Z" fill="#846358"/>
<path d="M329.938 52.9474C328.096 50.5863 327.095 48.0479 324.262 45.5215C320.771 42.409 317.775 43.4012 315.742 43.6022C316.743 45.4819 318.246 48.4554 321.351 50.6958C325.071 53.379 329.209 52.9271 329.938 52.9476V52.9474Z" fill="#846358"/>
<path d="M329.718 62.1908C328.152 59.6385 327.409 57.649 324.876 54.8213C321.755 51.3378 318.797 51.9562 316.754 51.9285C317.538 53.9083 318.86 56.8701 321.695 59.4439C325.091 62.5264 328.996 62.089 329.718 62.1908Z" fill="#846358"/>
<path d="M327.702 69.5636C325.346 65.9265 325.643 65.1033 323.337 62.0875C320.861 58.8486 317.733 58.9377 315.699 58.7461C316.322 60.7825 317.253 63.5372 319.893 66.311C322.708 69.269 325.636 68.8882 327.702 69.5636Z" fill="#846358"/>
<path d="M323.832 76.7867C322.347 73.5688 322.604 71.5594 321.242 69.2784C319.014 65.5478 316.831 65.3867 314.797 65.1953C316.419 69.8433 316.044 69.8647 317.829 72.6957C319.567 75.4504 321.928 75.8212 323.832 76.7869V76.7867Z" fill="#846358"/>
<path d="M319.157 82.8636C318.31 79.4219 319.17 78.3688 318.266 75.8705C316.788 71.7844 314.675 71.2113 312.715 70.6367C312.94 73.3797 312.6 75.1199 314.137 78.093C315.223 80.1925 317.471 81.5536 319.157 82.8636Z" fill="#846358"/>
<path d="M309.76 76.1056C309.76 76.1056 308.063 79.383 308.626 83.1815C309.425 88.5635 312.301 89.3698 312.301 89.3698C312.301 89.3698 313.94 86.9236 313.773 81.9601C313.595 76.6583 309.76 76.1055 309.76 76.1055L309.76 76.1056Z" fill="#846358"/>
<path d="M303.63 81.5898C303.63 81.5898 301.931 84.9081 302.303 88.7304C302.78 93.6286 305.462 94.8542 305.462 94.8542C305.462 94.8542 307.152 92.1198 307.224 87.9929C307.334 81.6911 303.63 81.5898 303.63 81.5898Z" fill="#846358"/>
</svg>
