<svg width="374" height="329" viewBox="0 0 374 329" fill="none" xmlns="http://www.w3.org/2000/svg">
<g clip-path="url(#clip0_9810_5300)">
<rect width="374" height="329" rx="8" fill="#FFF1E7"/>
<g opacity="0.6">
<g opacity="0.8" filter="url(#filter0_f_9810_5300)">
<rect x="39.6152" y="56.5703" width="337.952" height="343.948" fill="url(#paint0_radial_9810_5300)"/>
<rect x="-117.074" y="87.1367" width="337.952" height="343.948" fill="url(#paint1_radial_9810_5300)"/>
<rect x="111.283" y="95.1445" width="337.952" height="343.948" fill="url(#paint2_radial_9810_5300)"/>
<rect x="189.453" y="163.398" width="232.987" height="237.121" fill="url(#paint3_radial_9810_5300)" fill-opacity="0.5"/>
<rect x="-2.33398" y="207.438" width="287.746" height="231.658" fill="url(#paint4_radial_9810_5300)" fill-opacity="0.5"/>
<rect x="95.582" y="199.426" width="287.746" height="231.658" fill="url(#paint5_radial_9810_5300)"/>
<rect x="134.693" y="182.332" width="287.746" height="231.658" fill="url(#paint6_radial_9810_5300)"/>
<rect x="84.4863" y="3.91797" width="337.952" height="343.948" fill="url(#paint7_radial_9810_5300)"/>
<rect x="84.4863" y="95.1445" width="337.952" height="343.948" fill="url(#paint8_radial_9810_5300)"/>
<rect x="239.455" y="94.3789" width="337.952" height="343.948" fill="url(#paint9_radial_9810_5300)"/>
<rect x="214.35" y="87.1367" width="337.952" height="343.948" fill="url(#paint10_radial_9810_5300)"/>
<rect x="-160.453" y="87.0352" width="315.199" height="292.256" fill="url(#paint11_radial_9810_5300)" fill-opacity="0.2"/>
</g>
</g>
<g clip-path="url(#clip1_9810_5300)">
<rect x="-150" y="72.6211" width="454" height="184.758" rx="6.31652" fill="#FDFCFC"/>
<rect width="454" height="184.758" transform="translate(-150 72.6211)" fill="#FDFCFC"/>
<g clip-path="url(#clip2_9810_5300)">
<rect width="454" height="184.758" transform="translate(-150 72.6211)" fill="#FDFCFC"/>
<mask id="path-16-inside-1_9810_5300" fill="white">
<path d="M-57.6211 72.6211H29.2311V101.045H-57.6211V72.6211Z"/>
</mask>
<path d="M-57.6211 72.6211H29.2311V101.045H-57.6211V72.6211Z" fill="#FDFCFC"/>
<path d="M29.2311 100.256H-57.6211V101.835H29.2311V100.256Z" fill="#EADDD7" mask="url(#path-16-inside-1_9810_5300)"/>
<mask id="path-18-inside-2_9810_5300" fill="white">
<path d="M29.2305 72.6211H116.083V101.045H29.2305V72.6211Z"/>
</mask>
<path d="M29.2305 72.6211H116.083V101.045H29.2305V72.6211Z" fill="#FDFCFC"/>
<path d="M116.083 100.256H29.2305V101.835H116.083V100.256Z" fill="#EADDD7" mask="url(#path-18-inside-2_9810_5300)"/>
<path d="M43.006 89.332H42.0643L44.1803 83.4519H45.2053L47.3213 89.332H46.3796L44.7172 84.52H44.6713L43.006 89.332ZM43.1639 87.0294H46.2188V87.7759H43.1639V87.0294ZM53.1727 85.3641H52.2769C52.2425 85.1727 52.1784 85.0043 52.0846 84.8588C51.9908 84.7133 51.8759 84.5899 51.74 84.4884C51.6041 84.387 51.452 84.3104 51.2835 84.2587C51.117 84.207 50.9399 84.1812 50.7524 84.1812C50.4136 84.1812 50.1102 84.2664 49.8422 84.4367C49.5761 84.6071 49.3656 84.8569 49.2105 85.1861C49.0574 85.5153 48.9809 85.9173 48.9809 86.392C48.9809 86.8705 49.0574 87.2744 49.2105 87.6036C49.3656 87.9328 49.5771 88.1817 49.8451 88.3501C50.113 88.5185 50.4145 88.6028 50.7495 88.6028C50.9351 88.6028 51.1112 88.5779 51.2778 88.5281C51.4462 88.4764 51.5984 88.4008 51.7343 88.3013C51.8702 88.2018 51.985 88.0802 52.0788 87.9367C52.1745 87.7912 52.2406 87.6247 52.2769 87.4371L53.1727 87.4399C53.1249 87.729 53.032 87.995 52.8942 88.2381C52.7583 88.4793 52.5832 88.6879 52.3688 88.864C52.1563 89.0382 51.9133 89.1732 51.6395 89.2689C51.3658 89.3646 51.0672 89.4124 50.7437 89.4124C50.2346 89.4124 49.7809 89.2918 49.3828 89.0507C48.9847 88.8076 48.6708 88.4602 48.4411 88.0084C48.2133 87.5567 48.0994 87.0179 48.0994 86.392C48.0994 85.7642 48.2143 85.2253 48.4439 84.7755C48.6736 84.3238 48.9876 83.9773 49.3857 83.7362C49.7838 83.4931 50.2365 83.3715 50.7437 83.3715C51.0557 83.3715 51.3467 83.4165 51.6166 83.5065C51.8884 83.5945 52.1324 83.7247 52.3487 83.897C52.565 84.0673 52.744 84.2759 52.8856 84.5229C53.0273 84.7679 53.123 85.0483 53.1727 85.3641ZM54.3391 84.2156V83.4519H58.8899V84.2156H57.0552V89.332H56.1709V84.2156H54.3391ZM61.1775 83.4519V89.332H60.2903V83.4519H61.1775ZM67.9721 86.392C67.9721 87.0198 67.8572 87.5596 67.6275 88.0113C67.3978 88.4611 67.083 88.8076 66.6829 89.0507C66.2848 89.2918 65.8321 89.4124 65.3249 89.4124C64.8157 89.4124 64.3611 89.2918 63.9611 89.0507C63.5629 88.8076 63.249 88.4602 63.0193 88.0084C62.7896 87.5567 62.6748 87.0179 62.6748 86.392C62.6748 85.7642 62.7896 85.2253 63.0193 84.7755C63.249 84.3238 63.5629 83.9773 63.9611 83.7362C64.3611 83.4931 64.8157 83.3715 65.3249 83.3715C65.8321 83.3715 66.2848 83.4931 66.6829 83.7362C67.083 83.9773 67.3978 84.3238 67.6275 84.7755C67.8572 85.2253 67.9721 85.7642 67.9721 86.392ZM67.0935 86.392C67.0935 85.9135 67.016 85.5105 66.8609 85.1832C66.7078 84.854 66.4972 84.6052 66.2293 84.4367C65.9632 84.2664 65.6617 84.1812 65.3249 84.1812C64.9861 84.1812 64.6836 84.2664 64.4176 84.4367C64.1515 84.6052 63.941 84.854 63.7859 85.1832C63.6328 85.5105 63.5562 85.9135 63.5562 86.392C63.5562 86.8705 63.6328 87.2744 63.7859 87.6036C63.941 87.9309 64.1515 88.1797 64.4176 88.3501C64.6836 88.5185 64.9861 88.6028 65.3249 88.6028C65.6617 88.6028 65.9632 88.5185 66.2293 88.3501C66.4972 88.1797 66.7078 87.9309 66.8609 87.6036C67.016 87.2744 67.0935 86.8705 67.0935 86.392ZM74.2189 83.4519V89.332H73.4035L70.4147 85.0196H70.3601V89.332H69.4729V83.4519H70.2941L73.2858 87.7701H73.3404V83.4519H74.2189Z" fill="#846358"/>
<mask id="path-21-inside-3_9810_5300" fill="white">
<path d="M116.084 72.6211H202.936V101.045H116.084V72.6211Z"/>
</mask>
<path d="M116.084 72.6211H202.936V101.045H116.084V72.6211Z" fill="#FDFCFC"/>
<path d="M202.936 100.256H116.084V101.835H202.936V100.256Z" fill="#EADDD7" mask="url(#path-21-inside-3_9810_5300)"/>
<path d="M129.363 89.332V83.4519H131.459C131.914 83.4519 132.292 83.5304 132.593 83.6874C132.895 83.8443 133.121 84.0616 133.27 84.3391C133.42 84.6147 133.494 84.9334 133.494 85.2952C133.494 85.655 133.419 85.9718 133.268 86.2455C133.118 86.5174 132.892 86.7289 132.59 86.8801C132.289 87.0313 131.911 87.1069 131.456 87.1069H129.868V86.3432H131.375C131.663 86.3432 131.896 86.302 132.076 86.2197C132.258 86.1374 132.391 86.0178 132.475 85.8608C132.559 85.7039 132.601 85.5153 132.601 85.2952C132.601 85.0732 132.558 84.8808 132.472 84.7181C132.388 84.5554 132.255 84.431 132.073 84.3449C131.893 84.2568 131.657 84.2128 131.364 84.2128H130.25V89.332H129.363ZM132.266 86.6791L133.718 89.332H132.708L131.284 86.6791H132.266ZM134.969 89.332V83.4519H138.655V84.2156H135.856V86.0072H138.463V86.7681H135.856V88.5683H138.69V89.332H134.969ZM143.442 84.9966C143.412 84.7248 143.285 84.5142 143.063 84.3649C142.841 84.2137 142.562 84.1381 142.225 84.1381C141.984 84.1381 141.775 84.1764 141.599 84.253C141.423 84.3276 141.286 84.431 141.188 84.5631C141.093 84.6932 141.045 84.8416 141.045 85.0081C141.045 85.1478 141.077 85.2684 141.142 85.3698C141.209 85.4713 141.296 85.5565 141.404 85.6254C141.513 85.6924 141.63 85.7488 141.754 85.7948C141.878 85.8388 141.998 85.8752 142.113 85.9039L142.687 86.0532C142.875 86.0991 143.067 86.1613 143.264 86.2398C143.461 86.3183 143.644 86.4216 143.813 86.5499C143.981 86.6781 144.117 86.837 144.22 87.0265C144.326 87.216 144.378 87.4428 144.378 87.707C144.378 88.04 144.292 88.3357 144.12 88.5941C143.949 88.8525 143.702 89.0564 143.376 89.2057C143.053 89.355 142.661 89.4297 142.202 89.4297C141.762 89.4297 141.381 89.3598 141.059 89.2201C140.738 89.0803 140.486 88.8822 140.304 88.6257C140.122 88.3673 140.022 88.0611 140.003 87.707H140.893C140.91 87.9194 140.979 88.0965 141.099 88.2381C141.222 88.3779 141.378 88.4822 141.567 88.5511C141.759 88.6181 141.968 88.6516 142.196 88.6516C142.447 88.6516 142.67 88.6123 142.865 88.5339C143.062 88.4535 143.217 88.3424 143.33 88.2008C143.443 88.0572 143.5 87.8898 143.5 87.6983C143.5 87.5242 143.45 87.3816 143.35 87.2705C143.253 87.1595 143.12 87.0677 142.951 86.9949C142.785 86.9222 142.596 86.8581 142.386 86.8026L141.691 86.6131C141.22 86.4848 140.847 86.2963 140.571 86.0474C140.297 85.7986 140.16 85.4694 140.16 85.0598C140.16 84.721 140.252 84.4252 140.436 84.1726C140.62 83.9199 140.869 83.7237 141.183 83.584C141.497 83.4424 141.851 83.3715 142.245 83.3715C142.643 83.3715 142.994 83.4414 143.299 83.5811C143.605 83.7209 143.846 83.9132 144.022 84.1582C144.198 84.4013 144.29 84.6808 144.298 84.9966H143.442ZM150.941 86.392C150.941 87.0198 150.826 87.5596 150.596 88.0113C150.367 88.4611 150.052 88.8076 149.652 89.0507C149.254 89.2918 148.801 89.4124 148.294 89.4124C147.785 89.4124 147.33 89.2918 146.93 89.0507C146.532 88.8076 146.218 88.4602 145.988 88.0084C145.758 87.5567 145.644 87.0179 145.644 86.392C145.644 85.7642 145.758 85.2253 145.988 84.7755C146.218 84.3238 146.532 83.9773 146.93 83.7362C147.33 83.4931 147.785 83.3715 148.294 83.3715C148.801 83.3715 149.254 83.4931 149.652 83.7362C150.052 83.9773 150.367 84.3238 150.596 84.7755C150.826 85.2253 150.941 85.7642 150.941 86.392ZM150.062 86.392C150.062 85.9135 149.985 85.5105 149.83 85.1832C149.677 84.854 149.466 84.6052 149.198 84.4367C148.932 84.2664 148.631 84.1812 148.294 84.1812C147.955 84.1812 147.652 84.2664 147.386 84.4367C147.12 84.6052 146.91 84.854 146.755 85.1832C146.602 85.5105 146.525 85.9135 146.525 86.392C146.525 86.8705 146.602 87.2744 146.755 87.6036C146.91 87.9309 147.12 88.1797 147.386 88.3501C147.652 88.5185 147.955 88.6028 148.294 88.6028C148.631 88.6028 148.932 88.5185 149.198 88.3501C149.466 88.1797 149.677 87.9309 149.83 87.6036C149.985 87.2744 150.062 86.8705 150.062 86.392ZM156.223 83.4519H157.113V87.3194C157.113 87.7309 157.016 88.0955 156.823 88.4133C156.63 88.7291 156.358 88.9779 156.008 89.1598C155.657 89.3397 155.247 89.4297 154.776 89.4297C154.307 89.4297 153.897 89.3397 153.547 89.1598C153.197 88.9779 152.925 88.7291 152.732 88.4133C152.538 88.0955 152.442 87.7309 152.442 87.3194V83.4519H153.329V87.2476C153.329 87.5136 153.387 87.75 153.504 87.9568C153.623 88.1635 153.79 88.3262 154.007 88.4448C154.223 88.5616 154.479 88.62 154.776 88.62C155.075 88.62 155.332 88.5616 155.548 88.4448C155.767 88.3262 155.933 88.1635 156.048 87.9568C156.165 87.75 156.223 87.5136 156.223 87.2476V83.4519ZM158.798 89.332V83.4519H160.894C161.349 83.4519 161.727 83.5304 162.028 83.6874C162.33 83.8443 162.556 84.0616 162.705 84.3391C162.855 84.6147 162.929 84.9334 162.929 85.2952C162.929 85.655 162.854 85.9718 162.703 86.2455C162.553 86.5174 162.327 86.7289 162.025 86.8801C161.724 87.0313 161.346 87.1069 160.891 87.1069H159.303V86.3432H160.81C161.098 86.3432 161.331 86.302 161.511 86.2197C161.693 86.1374 161.826 86.0178 161.91 85.8608C161.994 85.7039 162.036 85.5153 162.036 85.2952C162.036 85.0732 161.993 84.8808 161.907 84.7181C161.823 84.5554 161.69 84.431 161.508 84.3449C161.328 84.2568 161.092 84.2128 160.799 84.2128H159.685V89.332H158.798ZM161.701 86.6791L163.153 89.332H162.143L160.719 86.6791H161.701ZM169.288 85.3641H168.392C168.357 85.1727 168.293 85.0043 168.199 84.8588C168.106 84.7133 167.991 84.5899 167.855 84.4884C167.719 84.387 167.567 84.3104 167.398 84.2587C167.232 84.207 167.055 84.1812 166.867 84.1812C166.528 84.1812 166.225 84.2664 165.957 84.4367C165.691 84.6071 165.48 84.8569 165.325 85.1861C165.172 85.5153 165.096 85.9173 165.096 86.392C165.096 86.8705 165.172 87.2744 165.325 87.6036C165.48 87.9328 165.692 88.1817 165.96 88.3501C166.228 88.5185 166.529 88.6028 166.864 88.6028C167.05 88.6028 167.226 88.5779 167.393 88.5281C167.561 88.4764 167.713 88.4008 167.849 88.3013C167.985 88.2018 168.1 88.0802 168.194 87.9367C168.289 87.7912 168.355 87.6247 168.392 87.4371L169.288 87.4399C169.24 87.729 169.147 87.995 169.009 88.2381C168.873 88.4793 168.698 88.6879 168.484 88.864C168.271 89.0382 168.028 89.1732 167.754 89.2689C167.481 89.3646 167.182 89.4124 166.859 89.4124C166.349 89.4124 165.896 89.2918 165.498 89.0507C165.099 88.8076 164.786 88.4602 164.556 88.0084C164.328 87.5567 164.214 87.0179 164.214 86.392C164.214 85.7642 164.329 85.2253 164.559 84.7755C164.788 84.3238 165.102 83.9773 165.5 83.7362C165.899 83.4931 166.351 83.3715 166.859 83.3715C167.171 83.3715 167.461 83.4165 167.731 83.5065C168.003 83.5945 168.247 83.7247 168.464 83.897C168.68 84.0673 168.859 84.2759 169 84.5229C169.142 84.7679 169.238 85.0483 169.288 85.3641ZM170.744 89.332V83.4519H174.43V84.2156H171.631V86.0072H174.238V86.7681H171.631V88.5683H174.465V89.332H170.744Z" fill="#846358"/>
<mask id="path-24-inside-4_9810_5300" fill="white">
<path d="M202.936 72.6211H304V101.045H202.936V72.6211Z"/>
</mask>
<path d="M202.936 72.6211H304V101.045H202.936V72.6211Z" fill="#FDFCFC"/>
<path d="M304 100.256H202.936V101.835H304V100.256Z" fill="#EADDD7" mask="url(#path-24-inside-4_9810_5300)"/>
<path d="M218.118 89.332H216.214V83.4519H218.178C218.754 83.4519 219.249 83.5696 219.663 83.8051C220.076 84.0386 220.393 84.3745 220.613 84.8128C220.835 85.2493 220.946 85.7728 220.946 86.3834C220.946 86.9959 220.834 87.5223 220.61 87.9625C220.388 88.4027 220.066 88.7415 219.645 88.9789C219.224 89.2143 218.715 89.332 218.118 89.332ZM217.102 88.5568H218.069C218.517 88.5568 218.889 88.4726 219.186 88.3042C219.483 88.1338 219.705 87.8878 219.852 87.5663C219.999 87.2428 220.073 86.8485 220.073 86.3834C220.073 85.9221 219.999 85.5306 219.852 85.2091C219.707 84.8875 219.489 84.6434 219.2 84.4769C218.911 84.3104 218.552 84.2271 218.124 84.2271H217.102V88.5568ZM222.444 89.332V83.4519H226.131V84.2156H223.331V86.0072H225.938V86.7681H223.331V88.5683H226.165V89.332H222.444ZM232.594 85.3641H231.698C231.664 85.1727 231.6 85.0043 231.506 84.8588C231.412 84.7133 231.297 84.5899 231.162 84.4884C231.026 84.387 230.873 84.3104 230.705 84.2587C230.539 84.207 230.361 84.1812 230.174 84.1812C229.835 84.1812 229.532 84.2664 229.264 84.4367C228.998 84.6071 228.787 84.8569 228.632 85.1861C228.479 85.5153 228.402 85.9173 228.402 86.392C228.402 86.8705 228.479 87.2744 228.632 87.6036C228.787 87.9328 228.999 88.1817 229.267 88.3501C229.535 88.5185 229.836 88.6028 230.171 88.6028C230.357 88.6028 230.533 88.5779 230.699 88.5281C230.868 88.4764 231.02 88.4008 231.156 88.3013C231.292 88.2018 231.407 88.0802 231.5 87.9367C231.596 87.7912 231.662 87.6247 231.698 87.4371L232.594 87.4399C232.546 87.729 232.454 87.995 232.316 88.2381C232.18 88.4793 232.005 88.6879 231.79 88.864C231.578 89.0382 231.335 89.1732 231.061 89.2689C230.787 89.3646 230.489 89.4124 230.165 89.4124C229.656 89.4124 229.202 89.2918 228.804 89.0507C228.406 88.8076 228.092 88.4602 227.863 88.0084C227.635 87.5567 227.521 87.0179 227.521 86.392C227.521 85.7642 227.636 85.2253 227.865 84.7755C228.095 84.3238 228.409 83.9773 228.807 83.7362C229.205 83.4931 229.658 83.3715 230.165 83.3715C230.477 83.3715 230.768 83.4165 231.038 83.5065C231.31 83.5945 231.554 83.7247 231.77 83.897C231.987 84.0673 232.165 84.2759 232.307 84.5229C232.449 84.7679 232.544 85.0483 232.594 85.3641ZM234.938 83.4519V89.332H234.051V83.4519H234.938ZM239.832 84.9966C239.801 84.7248 239.675 84.5142 239.453 84.3649C239.231 84.2137 238.951 84.1381 238.614 84.1381C238.373 84.1381 238.165 84.1764 237.988 84.253C237.812 84.3276 237.675 84.431 237.578 84.5631C237.482 84.6932 237.434 84.8416 237.434 85.0081C237.434 85.1478 237.467 85.2684 237.532 85.3698C237.599 85.4713 237.686 85.5565 237.793 85.6254C237.902 85.6924 238.019 85.7488 238.143 85.7948C238.268 85.8388 238.388 85.8752 238.502 85.9039L239.077 86.0532C239.264 86.0991 239.457 86.1613 239.654 86.2398C239.851 86.3183 240.034 86.4216 240.202 86.5499C240.371 86.6781 240.506 86.837 240.61 87.0265C240.715 87.216 240.768 87.4428 240.768 87.707C240.768 88.04 240.682 88.3357 240.509 88.5941C240.339 88.8525 240.091 89.0564 239.766 89.2057C239.442 89.355 239.051 89.4297 238.591 89.4297C238.151 89.4297 237.77 89.3598 237.449 89.2201C237.127 89.0803 236.875 88.8822 236.694 88.6257C236.512 88.3673 236.411 88.0611 236.392 87.707H237.282C237.299 87.9194 237.368 88.0965 237.489 88.2381C237.611 88.3779 237.767 88.4822 237.957 88.5511C238.148 88.6181 238.358 88.6516 238.586 88.6516C238.836 88.6516 239.059 88.6123 239.255 88.5339C239.452 88.4535 239.607 88.3424 239.72 88.2008C239.833 88.0572 239.889 87.8898 239.889 87.6983C239.889 87.5242 239.839 87.3816 239.74 87.2705C239.642 87.1595 239.509 87.0677 239.341 86.9949C239.174 86.9222 238.986 86.8581 238.775 86.8026L238.08 86.6131C237.609 86.4848 237.236 86.2963 236.961 86.0474C236.687 85.7986 236.55 85.4694 236.55 85.0598C236.55 84.721 236.642 84.4252 236.826 84.1726C237.009 83.9199 237.258 83.7237 237.572 83.584C237.886 83.4424 238.24 83.3715 238.634 83.3715C239.033 83.3715 239.384 83.4414 239.688 83.5811C239.994 83.7209 240.236 83.9132 240.412 84.1582C240.588 84.4013 240.68 84.6808 240.687 84.9966H239.832ZM243.11 83.4519V89.332H242.223V83.4519H243.11ZM249.904 86.392C249.904 87.0198 249.79 87.5596 249.56 88.0113C249.33 88.4611 249.015 88.8076 248.615 89.0507C248.217 89.2918 247.764 89.4124 247.257 89.4124C246.748 89.4124 246.293 89.2918 245.893 89.0507C245.495 88.8076 245.181 88.4602 244.952 88.0084C244.722 87.5567 244.607 87.0179 244.607 86.392C244.607 85.7642 244.722 85.2253 244.952 84.7755C245.181 84.3238 245.495 83.9773 245.893 83.7362C246.293 83.4931 246.748 83.3715 247.257 83.3715C247.764 83.3715 248.217 83.4931 248.615 83.7362C249.015 83.9773 249.33 84.3238 249.56 84.7755C249.79 85.2253 249.904 85.7642 249.904 86.392ZM249.026 86.392C249.026 85.9135 248.948 85.5105 248.793 85.1832C248.64 84.854 248.43 84.6052 248.162 84.4367C247.896 84.2664 247.594 84.1812 247.257 84.1812C246.918 84.1812 246.616 84.2664 246.35 84.4367C246.084 84.6052 245.873 84.854 245.718 85.1832C245.565 85.5105 245.489 85.9135 245.489 86.392C245.489 86.8705 245.565 87.2744 245.718 87.6036C245.873 87.9309 246.084 88.1797 246.35 88.3501C246.616 88.5185 246.918 88.6028 247.257 88.6028C247.594 88.6028 247.896 88.5185 248.162 88.3501C248.43 88.1797 248.64 87.9309 248.793 87.6036C248.948 87.2744 249.026 86.8705 249.026 86.392ZM256.151 83.4519V89.332H255.336L252.347 85.0196H252.292V89.332H251.405V83.4519H252.226L255.218 87.7701H255.273V83.4519H256.151Z" fill="#846358"/>
<path d="M29.2311 152.369H-57.6211V153.948H29.2311V152.369Z" fill="#EADDD7" mask="url(#path-27-inside-5_9810_5300)"/>
<mask id="path-29-inside-6_9810_5300" fill="white">
<path d="M29.2305 101.047H116.083V153.158H29.2305V101.047Z"/>
</mask>
<path d="M29.2305 101.047H116.083V153.158H29.2305V101.047Z" fill="#FDFCFC"/>
<path d="M116.083 152.369H29.2305V153.948H116.083V152.369Z" fill="#EADDD7" mask="url(#path-29-inside-6_9810_5300)"/>
<path d="M42.7112 130.941V124.912H43.6062V125.823H43.669C43.7789 125.524 43.9778 125.282 44.2656 125.096C44.5535 124.911 44.878 124.818 45.2391 124.818C45.3072 124.818 45.3922 124.819 45.4943 124.822C45.5963 124.824 45.6735 124.828 45.7259 124.833V125.776C45.6945 125.768 45.6225 125.756 45.51 125.74C45.4001 125.722 45.2836 125.713 45.1606 125.713C44.8675 125.713 44.6058 125.774 44.3755 125.897C44.1479 126.018 43.9673 126.185 43.8338 126.4C43.703 126.612 43.6376 126.854 43.6376 127.126V130.941H42.7112ZM49.1684 131.067C48.5875 131.067 48.0863 130.939 47.665 130.682C47.2463 130.423 46.9231 130.062 46.6954 129.599C46.4704 129.133 46.3579 128.591 46.3579 127.974C46.3579 127.356 46.4704 126.812 46.6954 126.341C46.9231 125.867 47.2398 125.498 47.6454 125.234C48.0536 124.967 48.5299 124.833 49.0742 124.833C49.3883 124.833 49.6984 124.886 50.0046 124.991C50.3107 125.095 50.5894 125.265 50.8407 125.501C51.0919 125.734 51.2921 126.043 51.4412 126.427C51.5904 126.812 51.665 127.286 51.665 127.848V128.241H47.0173V127.44H50.7229C50.7229 127.1 50.6549 126.796 50.5188 126.529C50.3853 126.262 50.1943 126.052 49.9457 125.897C49.6997 125.743 49.4092 125.666 49.0742 125.666C48.7052 125.666 48.386 125.757 48.1164 125.94C47.8495 126.121 47.6441 126.357 47.5001 126.647C47.3562 126.938 47.2843 127.249 47.2843 127.581V128.115C47.2843 128.57 47.3628 128.956 47.5198 129.273C47.6794 129.587 47.9005 129.827 48.1832 129.991C48.4658 130.154 48.7942 130.235 49.1684 130.235C49.4118 130.235 49.6316 130.201 49.8279 130.133C50.0268 130.062 50.1982 129.957 50.3421 129.819C50.4861 129.677 50.5973 129.502 50.6758 129.293L51.5708 129.544C51.4766 129.848 51.3182 130.114 51.0958 130.345C50.8734 130.572 50.5986 130.75 50.2715 130.879C49.9444 131.004 49.5767 131.067 49.1684 131.067ZM54.8485 131.083C54.4664 131.083 54.1197 131.011 53.8083 130.867C53.4968 130.72 53.2495 130.51 53.0664 130.235C52.8832 129.957 52.7916 129.622 52.7916 129.23C52.7916 128.884 52.8596 128.604 52.9957 128.39C53.1318 128.173 53.3137 128.003 53.5413 127.88C53.769 127.757 54.0202 127.665 54.295 127.605C54.5724 127.542 54.8511 127.492 55.1311 127.456C55.4975 127.409 55.7945 127.373 56.0222 127.35C56.2525 127.324 56.42 127.28 56.5246 127.22C56.6319 127.16 56.6856 127.055 56.6856 126.906V126.875C56.6856 126.487 56.5796 126.186 56.3676 125.972C56.1583 125.757 55.8403 125.65 55.4137 125.65C54.9715 125.65 54.6247 125.747 54.3735 125.94C54.1223 126.134 53.9456 126.341 53.8436 126.561L52.9643 126.247C53.1213 125.88 53.3307 125.595 53.5924 125.391C53.8567 125.184 54.1445 125.04 54.4559 124.959C54.77 124.875 55.0788 124.833 55.3823 124.833C55.576 124.833 55.7984 124.857 56.0497 124.904C56.3035 124.949 56.5482 125.042 56.7837 125.183C57.0218 125.324 57.2194 125.537 57.3764 125.823C57.5335 126.108 57.612 126.49 57.612 126.969V130.941H56.6856V130.125H56.6385C56.5757 130.256 56.471 130.396 56.3244 130.545C56.1779 130.694 55.9829 130.821 55.7396 130.926C55.4962 131.03 55.1992 131.083 54.8485 131.083ZM54.9898 130.251C55.3562 130.251 55.665 130.179 55.9162 130.035C56.17 129.891 56.3611 129.705 56.4893 129.477C56.6202 129.25 56.6856 129.01 56.6856 128.759V127.911C56.6463 127.958 56.56 128.001 56.4265 128.041C56.2957 128.077 56.1439 128.11 55.9712 128.139C55.8011 128.165 55.6349 128.188 55.4726 128.209C55.313 128.228 55.1835 128.243 55.084 128.256C54.8433 128.288 54.6182 128.339 54.4088 128.41C54.2021 128.478 54.0346 128.581 53.9064 128.72C53.7808 128.856 53.718 129.042 53.718 129.277C53.718 129.599 53.837 129.842 54.0752 130.007C54.3159 130.169 54.6208 130.251 54.9898 130.251ZM61.5796 131.067C61.0771 131.067 60.6335 130.94 60.2489 130.686C59.8642 130.43 59.5632 130.069 59.346 129.603C59.1288 129.134 59.0202 128.581 59.0202 127.942C59.0202 127.309 59.1288 126.76 59.346 126.294C59.5632 125.828 59.8655 125.468 60.2528 125.214C60.6401 124.96 61.0876 124.833 61.5953 124.833C61.9878 124.833 62.2979 124.899 62.5256 125.03C62.7559 125.158 62.9312 125.305 63.0516 125.469C63.1746 125.632 63.2701 125.765 63.3381 125.87H63.4166V122.902H64.343V130.941H63.448V130.015H63.3381C63.2701 130.125 63.1733 130.264 63.0477 130.431C62.922 130.596 62.7428 130.744 62.5099 130.875C62.277 131.003 61.9669 131.067 61.5796 131.067ZM61.7052 130.235C62.0768 130.235 62.3908 130.138 62.6473 129.944C62.9037 129.748 63.0987 129.477 63.2322 129.132C63.3656 128.784 63.4323 128.382 63.4323 127.927C63.4323 127.477 63.3669 127.083 63.2361 126.745C63.1052 126.405 62.9116 126.141 62.6551 125.952C62.3987 125.761 62.082 125.666 61.7052 125.666C61.3126 125.666 60.9855 125.766 60.7238 125.968C60.4647 126.167 60.2698 126.438 60.1389 126.78C60.0107 127.121 59.9466 127.503 59.9466 127.927C59.9466 128.356 60.012 128.746 60.1429 129.096C60.2763 129.445 60.4726 129.722 60.7317 129.929C60.9934 130.133 61.3179 130.235 61.7052 130.235Z" fill="#43302B"/>
<mask id="path-32-inside-7_9810_5300" fill="white">
<path d="M116.084 101.047H202.936V153.158H116.084V101.047Z"/>
</mask>
<path d="M116.084 101.047H202.936V153.158H116.084V101.047Z" fill="#FDFCFC"/>
<path d="M202.936 152.369H116.084V153.948H202.936V152.369Z" fill="#EADDD7" mask="url(#path-32-inside-7_9810_5300)"/>
<path d="M129.565 130.941V124.912H130.46V125.823H130.522C130.632 125.524 130.831 125.282 131.119 125.096C131.407 124.911 131.732 124.818 132.093 124.818C132.161 124.818 132.246 124.819 132.348 124.822C132.45 124.824 132.527 124.828 132.579 124.833V125.776C132.548 125.768 132.476 125.756 132.363 125.74C132.254 125.722 132.137 125.713 132.014 125.713C131.721 125.713 131.459 125.774 131.229 125.897C131.001 126.018 130.821 126.185 130.687 126.4C130.556 126.612 130.491 126.854 130.491 127.126V130.941H129.565ZM136.022 131.067C135.441 131.067 134.94 130.939 134.519 130.682C134.1 130.423 133.777 130.062 133.549 129.599C133.324 129.133 133.211 128.591 133.211 127.974C133.211 127.356 133.324 126.812 133.549 126.341C133.777 125.867 134.093 125.498 134.499 125.234C134.907 124.967 135.383 124.833 135.928 124.833C136.242 124.833 136.552 124.886 136.858 124.991C137.164 125.095 137.443 125.265 137.694 125.501C137.945 125.734 138.146 126.043 138.295 126.427C138.444 126.812 138.519 127.286 138.519 127.848V128.241H133.871V127.44H137.576C137.576 127.1 137.508 126.796 137.372 126.529C137.239 126.262 137.048 126.052 136.799 125.897C136.553 125.743 136.263 125.666 135.928 125.666C135.559 125.666 135.239 125.757 134.97 125.94C134.703 126.121 134.498 126.357 134.354 126.647C134.21 126.938 134.138 127.249 134.138 127.581V128.115C134.138 128.57 134.216 128.956 134.373 129.273C134.533 129.587 134.754 129.827 135.037 129.991C135.319 130.154 135.648 130.235 136.022 130.235C136.265 130.235 136.485 130.201 136.681 130.133C136.88 130.062 137.052 129.957 137.196 129.819C137.34 129.677 137.451 129.502 137.529 129.293L138.424 129.544C138.33 129.848 138.172 130.114 137.949 130.345C137.727 130.572 137.452 130.75 137.125 130.879C136.798 131.004 136.43 131.067 136.022 131.067ZM139.928 133.202V124.912H140.823V125.87H140.933C141.001 125.765 141.095 125.632 141.215 125.469C141.338 125.305 141.514 125.158 141.741 125.03C141.972 124.899 142.283 124.833 142.676 124.833C143.183 124.833 143.631 124.96 144.018 125.214C144.405 125.468 144.708 125.828 144.925 126.294C145.142 126.76 145.251 127.309 145.251 127.942C145.251 128.581 145.142 129.134 144.925 129.603C144.708 130.069 144.407 130.43 144.022 130.686C143.637 130.94 143.194 131.067 142.691 131.067C142.304 131.067 141.994 131.003 141.761 130.875C141.528 130.744 141.349 130.596 141.223 130.431C141.097 130.264 141.001 130.125 140.933 130.015H140.854V133.202H139.928ZM140.838 127.927C140.838 128.382 140.905 128.784 141.039 129.132C141.172 129.477 141.367 129.748 141.623 129.944C141.88 130.138 142.194 130.235 142.566 130.235C142.953 130.235 143.276 130.133 143.535 129.929C143.797 129.722 143.993 129.445 144.124 129.096C144.257 128.746 144.324 128.356 144.324 127.927C144.324 127.503 144.259 127.121 144.128 126.78C144 126.438 143.805 126.167 143.543 125.968C143.284 125.766 142.958 125.666 142.566 125.666C142.189 125.666 141.872 125.761 141.616 125.952C141.359 126.141 141.166 126.405 141.035 126.745C140.904 127.083 140.838 127.477 140.838 127.927ZM149.113 131.067C148.569 131.067 148.091 130.937 147.68 130.678C147.272 130.419 146.953 130.057 146.723 129.591C146.495 129.125 146.381 128.581 146.381 127.958C146.381 127.33 146.495 126.782 146.723 126.313C146.953 125.845 147.272 125.481 147.68 125.222C148.091 124.963 148.569 124.833 149.113 124.833C149.657 124.833 150.134 124.963 150.542 125.222C150.953 125.481 151.272 125.845 151.5 126.313C151.73 126.782 151.845 127.33 151.845 127.958C151.845 128.581 151.73 129.125 151.5 129.591C151.272 130.057 150.953 130.419 150.542 130.678C150.134 130.937 149.657 131.067 149.113 131.067ZM149.113 130.235C149.527 130.235 149.867 130.129 150.134 129.917C150.401 129.705 150.598 129.426 150.726 129.081C150.855 128.735 150.919 128.361 150.919 127.958C150.919 127.555 150.855 127.18 150.726 126.832C150.598 126.483 150.401 126.202 150.134 125.988C149.867 125.773 149.527 125.666 149.113 125.666C148.7 125.666 148.359 125.773 148.093 125.988C147.826 126.202 147.628 126.483 147.5 126.832C147.372 127.18 147.307 127.555 147.307 127.958C147.307 128.361 147.372 128.735 147.5 129.081C147.628 129.426 147.826 129.705 148.093 129.917C148.359 130.129 148.7 130.235 149.113 130.235Z" fill="#43302B"/>
<mask id="path-35-inside-8_9810_5300" fill="white">
<path d="M202.936 101.047H304V153.158H202.936V101.047Z"/>
</mask>
<path d="M202.936 101.047H304V153.158H202.936V101.047Z" fill="#FDFCFC"/>
<path d="M304 152.369H202.936V153.948H304V152.369Z" fill="#EADDD7" mask="url(#path-35-inside-8_9810_5300)"/>
<rect x="218.727" y="117.445" width="64.633" height="19.3165" rx="3.15826" fill="#C7EBE5"/>
<path d="M226.019 130.605V122.566H228.884C229.51 122.566 230.028 122.68 230.439 122.908C230.849 123.135 231.157 123.447 231.361 123.842C231.565 124.235 231.667 124.677 231.667 125.169C231.667 125.663 231.564 126.108 231.357 126.503C231.153 126.896 230.844 127.207 230.431 127.438C230.02 127.665 229.503 127.779 228.88 127.779H226.91V126.751H228.77C229.165 126.751 229.486 126.683 229.732 126.547C229.978 126.408 230.159 126.219 230.274 125.981C230.389 125.743 230.446 125.472 230.446 125.169C230.446 124.865 230.389 124.596 230.274 124.36C230.159 124.125 229.977 123.94 229.728 123.807C229.482 123.673 229.158 123.606 228.755 123.606H227.232V130.605H226.019ZM235.518 130.727C234.924 130.727 234.412 130.6 233.983 130.346C233.557 130.09 233.227 129.73 232.994 129.267C232.764 128.801 232.649 128.255 232.649 127.63C232.649 127.012 232.764 126.468 232.994 125.997C233.227 125.526 233.551 125.158 233.968 124.894C234.386 124.63 234.876 124.498 235.436 124.498C235.776 124.498 236.106 124.554 236.425 124.666C236.744 124.779 237.031 124.956 237.284 125.196C237.538 125.437 237.738 125.75 237.885 126.134C238.032 126.517 238.105 126.981 238.105 127.528V127.944H233.312V127.065H236.955C236.955 126.756 236.892 126.482 236.766 126.244C236.641 126.004 236.464 125.814 236.236 125.675C236.011 125.536 235.747 125.467 235.443 125.467C235.114 125.467 234.826 125.548 234.58 125.711C234.336 125.87 234.148 126.079 234.015 126.339C233.884 126.595 233.818 126.874 233.818 127.175V127.862C233.818 128.265 233.889 128.607 234.03 128.89C234.174 129.173 234.374 129.389 234.631 129.538C234.887 129.684 235.187 129.758 235.53 129.758C235.752 129.758 235.955 129.726 236.138 129.663C236.321 129.598 236.48 129.501 236.613 129.373C236.747 129.245 236.849 129.086 236.919 128.898L238.03 129.098C237.941 129.425 237.782 129.712 237.551 129.958C237.324 130.201 237.037 130.391 236.692 130.527C236.349 130.66 235.958 130.727 235.518 130.727ZM239.407 130.605V124.576H240.542V125.534H240.604C240.714 125.209 240.908 124.954 241.185 124.768C241.465 124.58 241.782 124.486 242.135 124.486C242.209 124.486 242.295 124.488 242.394 124.494C242.496 124.499 242.576 124.505 242.634 124.513V125.636C242.587 125.623 242.503 125.608 242.383 125.593C242.262 125.574 242.142 125.565 242.021 125.565C241.744 125.565 241.497 125.624 241.28 125.742C241.065 125.857 240.895 126.018 240.769 126.225C240.644 126.429 240.581 126.662 240.581 126.923V130.605H239.407ZM243.649 130.605V124.576H244.776V125.557H244.851C244.976 125.225 245.182 124.966 245.467 124.78C245.752 124.592 246.094 124.498 246.491 124.498C246.894 124.498 247.232 124.592 247.504 124.78C247.779 124.969 247.982 125.228 248.113 125.557H248.175C248.319 125.236 248.548 124.979 248.862 124.788C249.176 124.594 249.551 124.498 249.985 124.498C250.532 124.498 250.978 124.669 251.324 125.012C251.672 125.355 251.846 125.871 251.846 126.562V130.605H250.672V126.672C250.672 126.264 250.561 125.968 250.338 125.785C250.116 125.602 249.85 125.51 249.542 125.51C249.159 125.51 248.862 125.628 248.65 125.864C248.438 126.096 248.332 126.396 248.332 126.763V130.605H247.163V126.598C247.163 126.271 247.061 126.008 246.857 125.809C246.652 125.61 246.387 125.51 246.06 125.51C245.837 125.51 245.632 125.569 245.443 125.687C245.258 125.802 245.107 125.963 244.992 126.17C244.879 126.377 244.823 126.616 244.823 126.888V130.605H243.649ZM253.419 130.605V124.576H254.593V130.605H253.419ZM254.012 123.646C253.807 123.646 253.632 123.578 253.486 123.442C253.342 123.303 253.27 123.138 253.27 122.947C253.27 122.753 253.342 122.589 253.486 122.452C253.632 122.314 253.807 122.244 254.012 122.244C254.216 122.244 254.39 122.314 254.534 122.452C254.68 122.589 254.753 122.753 254.753 122.947C254.753 123.138 254.68 123.303 254.534 123.442C254.39 123.578 254.216 123.646 254.012 123.646ZM258.986 124.576V125.518H255.693V124.576H258.986ZM256.576 123.132H257.75V128.835C257.75 129.063 257.784 129.234 257.852 129.349C257.92 129.462 258.007 129.539 258.115 129.581C258.224 129.62 258.344 129.64 258.472 129.64C258.566 129.64 258.648 129.633 258.719 129.62C258.79 129.607 258.845 129.597 258.884 129.589L259.096 130.558C259.028 130.585 258.931 130.611 258.805 130.637C258.68 130.666 258.523 130.681 258.334 130.684C258.026 130.689 257.738 130.634 257.471 130.519C257.204 130.404 256.988 130.226 256.823 129.985C256.658 129.744 256.576 129.442 256.576 129.078V123.132ZM263.099 124.576V125.518H259.805V124.576H263.099ZM260.689 123.132H261.862V128.835C261.862 129.063 261.896 129.234 261.964 129.349C262.032 129.462 262.12 129.539 262.227 129.581C262.337 129.62 262.456 129.64 262.585 129.64C262.679 129.64 262.761 129.633 262.832 129.62C262.903 129.607 262.958 129.597 262.997 129.589L263.209 130.558C263.141 130.585 263.044 130.611 262.918 130.637C262.793 130.666 262.636 130.681 262.447 130.684C262.138 130.689 261.851 130.634 261.584 130.519C261.317 130.404 261.101 130.226 260.936 129.985C260.771 129.744 260.689 129.442 260.689 129.078V123.132ZM266.931 130.727C266.337 130.727 265.825 130.6 265.396 130.346C264.97 130.09 264.64 129.73 264.407 129.267C264.177 128.801 264.062 128.255 264.062 127.63C264.062 127.012 264.177 126.468 264.407 125.997C264.64 125.526 264.964 125.158 265.38 124.894C265.799 124.63 266.289 124.498 266.849 124.498C267.189 124.498 267.519 124.554 267.838 124.666C268.157 124.779 268.444 124.956 268.697 125.196C268.951 125.437 269.151 125.75 269.298 126.134C269.445 126.517 269.518 126.981 269.518 127.528V127.944H264.725V127.065H268.368C268.368 126.756 268.305 126.482 268.179 126.244C268.054 126.004 267.877 125.814 267.649 125.675C267.424 125.536 267.16 125.467 266.856 125.467C266.527 125.467 266.239 125.548 265.993 125.711C265.749 125.87 265.561 126.079 265.428 126.339C265.297 126.595 265.231 126.874 265.231 127.175V127.862C265.231 128.265 265.302 128.607 265.443 128.89C265.587 129.173 265.787 129.389 266.044 129.538C266.3 129.684 266.6 129.758 266.943 129.758C267.165 129.758 267.368 129.726 267.551 129.663C267.734 129.598 267.893 129.501 268.026 129.373C268.16 129.245 268.262 129.086 268.332 128.898L269.443 129.098C269.354 129.425 269.195 129.712 268.964 129.958C268.737 130.201 268.45 130.391 268.105 130.527C267.762 130.66 267.371 130.727 266.931 130.727ZM273.077 130.723C272.59 130.723 272.156 130.599 271.774 130.35C271.395 130.099 271.096 129.742 270.879 129.279C270.664 128.813 270.557 128.254 270.557 127.603C270.557 126.951 270.666 126.394 270.883 125.93C271.103 125.467 271.404 125.113 271.786 124.867C272.168 124.621 272.601 124.498 273.085 124.498C273.459 124.498 273.76 124.56 273.988 124.686C274.218 124.809 274.396 124.953 274.522 125.118C274.65 125.283 274.749 125.428 274.82 125.553H274.891V122.566H276.064V130.605H274.918V129.667H274.82C274.749 129.796 274.647 129.942 274.514 130.107C274.383 130.272 274.202 130.416 273.972 130.539C273.742 130.662 273.444 130.723 273.077 130.723ZM273.336 129.722C273.674 129.722 273.959 129.633 274.192 129.455C274.428 129.275 274.605 129.025 274.726 128.706C274.849 128.386 274.91 128.015 274.91 127.591C274.91 127.172 274.85 126.806 274.73 126.492C274.609 126.178 274.433 125.933 274.2 125.758C273.967 125.582 273.679 125.495 273.336 125.495C272.983 125.495 272.689 125.586 272.453 125.769C272.218 125.953 272.04 126.202 271.919 126.519C271.801 126.836 271.743 127.193 271.743 127.591C271.743 127.994 271.803 128.356 271.923 128.678C272.044 129 272.221 129.255 272.457 129.444C272.695 129.629 272.988 129.722 273.336 129.722Z" fill="#10302B"/>
<path d="M29.2311 204.478H-57.6211V206.057H29.2311V204.478Z" fill="#EADDD7" mask="url(#path-39-inside-9_9810_5300)"/>
<mask id="path-41-inside-10_9810_5300" fill="white">
<path d="M29.2305 153.156H116.083V205.268H29.2305V153.156Z"/>
</mask>
<path d="M29.2305 153.156H116.083V205.268H29.2305V153.156Z" fill="#FDFCFC"/>
<path d="M116.083 204.478H29.2305V206.057H116.083V204.478Z" fill="#EADDD7" mask="url(#path-41-inside-10_9810_5300)"/>
<path d="M44.9879 183.176C44.4854 183.176 44.0419 183.049 43.6572 182.796C43.2725 182.539 42.9716 182.178 42.7543 181.712C42.5371 181.244 42.4285 180.69 42.4285 180.052C42.4285 179.418 42.5371 178.869 42.7543 178.403C42.9716 177.937 43.2738 177.577 43.6611 177.324C44.0484 177.07 44.4959 176.943 45.0036 176.943C45.3961 176.943 45.7062 177.008 45.9339 177.139C46.1642 177.267 46.3395 177.414 46.4599 177.579C46.5829 177.741 46.6784 177.874 46.7465 177.979H46.825V175.012H47.7514V183.051H46.8564V182.124H46.7465C46.6784 182.234 46.5816 182.373 46.456 182.54C46.3304 182.705 46.1511 182.853 45.9182 182.984C45.6853 183.112 45.3752 183.176 44.9879 183.176ZM45.1135 182.344C45.4851 182.344 45.7991 182.247 46.0556 182.054C46.3121 181.857 46.507 181.587 46.6405 181.241C46.774 180.893 46.8407 180.491 46.8407 180.036C46.8407 179.586 46.7753 179.192 46.6444 178.855C46.5136 178.514 46.3199 178.25 46.0635 178.062C45.807 177.871 45.4903 177.775 45.1135 177.775C44.721 177.775 44.3939 177.876 44.1322 178.077C43.8731 178.276 43.6781 178.547 43.5473 178.89C43.419 179.23 43.3549 179.612 43.3549 180.036C43.3549 180.465 43.4204 180.855 43.5512 181.206C43.6847 181.554 43.8809 181.831 44.14 182.038C44.4017 182.242 44.7262 182.344 45.1135 182.344ZM52.1046 183.176C51.5237 183.176 51.0225 183.048 50.6012 182.792C50.1825 182.533 49.8593 182.171 49.6316 181.708C49.4066 181.242 49.2941 180.701 49.2941 180.083C49.2941 179.466 49.4066 178.921 49.6316 178.45C49.8593 177.977 50.176 177.608 50.5816 177.343C50.9898 177.076 51.4661 176.943 52.0104 176.943C52.3245 176.943 52.6346 176.995 52.9407 177.1C53.2469 177.205 53.5256 177.375 53.7769 177.61C54.0281 177.843 54.2283 178.152 54.3774 178.537C54.5266 178.921 54.6012 179.395 54.6012 179.958V180.35H49.9535V179.549H53.6591C53.6591 179.209 53.5911 178.906 53.455 178.639C53.3215 178.372 53.1305 178.161 52.8819 178.007C52.6359 177.852 52.3454 177.775 52.0104 177.775C51.6414 177.775 51.3222 177.867 51.0526 178.05C50.7857 178.23 50.5803 178.466 50.4363 178.756C50.2924 179.047 50.2204 179.358 50.2204 179.691V180.224C50.2204 180.68 50.299 181.066 50.456 181.382C50.6156 181.697 50.8367 181.936 51.1194 182.101C51.402 182.263 51.7304 182.344 52.1046 182.344C52.348 182.344 52.5678 182.31 52.7641 182.242C52.963 182.171 53.1344 182.067 53.2783 181.928C53.4223 181.787 53.5335 181.611 53.612 181.402L54.507 181.653C54.4128 181.957 54.2544 182.224 54.032 182.454C53.8096 182.682 53.5348 182.86 53.2077 182.988C52.8806 183.114 52.5129 183.176 52.1046 183.176ZM56.9368 175.012V183.051H56.0104V175.012H56.9368ZM61.1615 183.176C60.5805 183.176 60.0794 183.048 59.6581 182.792C59.2394 182.533 58.9162 182.171 58.6885 181.708C58.4635 181.242 58.3509 180.701 58.3509 180.083C58.3509 179.466 58.4635 178.921 58.6885 178.45C58.9162 177.977 59.2328 177.608 59.6385 177.343C60.0467 177.076 60.523 176.943 61.0673 176.943C61.3813 176.943 61.6914 176.995 61.9976 177.1C62.3038 177.205 62.5825 177.375 62.8337 177.61C63.0849 177.843 63.2851 178.152 63.4343 178.537C63.5835 178.921 63.6581 179.395 63.6581 179.958V180.35H59.0104V179.549H62.716C62.716 179.209 62.6479 178.906 62.5118 178.639C62.3784 178.372 62.1873 178.161 61.9387 178.007C61.6927 177.852 61.4023 177.775 61.0673 177.775C60.6983 177.775 60.379 177.867 60.1095 178.05C59.8426 178.23 59.6371 178.466 59.4932 178.756C59.3493 179.047 59.2773 179.358 59.2773 179.691V180.224C59.2773 180.68 59.3558 181.066 59.5128 181.382C59.6725 181.697 59.8936 181.936 60.1762 182.101C60.4589 182.263 60.7873 182.344 61.1615 182.344C61.4049 182.344 61.6247 182.31 61.821 182.242C62.0199 182.171 62.1913 182.067 62.3352 181.928C62.4791 181.787 62.5903 181.611 62.6689 181.402L63.5638 181.653C63.4696 181.957 63.3113 182.224 63.0889 182.454C62.8664 182.682 62.5917 182.86 62.2645 182.988C61.9374 183.114 61.5697 183.176 61.1615 183.176ZM67.6894 177.021V177.806H64.5648V177.021H67.6894ZM65.4755 175.577H66.4019V181.324C66.4019 181.585 66.4399 181.782 66.5157 181.912C66.5943 182.041 66.6937 182.127 66.8141 182.171C66.9371 182.213 67.0666 182.234 67.2027 182.234C67.3047 182.234 67.3885 182.229 67.4539 182.219C67.5193 182.206 67.5717 182.195 67.6109 182.187L67.7993 183.019C67.7365 183.043 67.6489 183.066 67.5363 183.09C67.4238 183.116 67.2812 183.129 67.1085 183.129C66.8468 183.129 66.5903 183.073 66.3391 182.96C66.0905 182.848 65.8838 182.677 65.7189 182.446C65.5566 182.216 65.4755 181.926 65.4755 181.575V175.577ZM71.5461 183.176C70.9652 183.176 70.464 183.048 70.0427 182.792C69.624 182.533 69.3008 182.171 69.0731 181.708C68.8481 181.242 68.7356 180.701 68.7356 180.083C68.7356 179.466 68.8481 178.921 69.0731 178.45C69.3008 177.977 69.6175 177.608 70.0231 177.343C70.4313 177.076 70.9076 176.943 71.4519 176.943C71.766 176.943 72.0761 176.995 72.3822 177.1C72.6884 177.205 72.9671 177.375 73.2184 177.61C73.4696 177.843 73.6698 178.152 73.8189 178.537C73.9681 178.921 74.0427 179.395 74.0427 179.958V180.35H69.395V179.549H73.1006C73.1006 179.209 73.0326 178.906 72.8965 178.639C72.763 178.372 72.572 178.161 72.3234 178.007C72.0774 177.852 71.7869 177.775 71.4519 177.775C71.0829 177.775 70.7637 177.867 70.4941 178.05C70.2272 178.23 70.0218 178.466 69.8778 178.756C69.7339 179.047 69.6619 179.358 69.6619 179.691V180.224C69.6619 180.68 69.7405 181.066 69.8975 181.382C70.0571 181.697 70.2782 181.936 70.5609 182.101C70.8435 182.263 71.1719 182.344 71.5461 182.344C71.7895 182.344 72.0093 182.31 72.2056 182.242C72.4045 182.171 72.5759 182.067 72.7198 181.928C72.8638 181.787 72.975 181.611 73.0535 181.402L73.9485 181.653C73.8543 181.957 73.6959 182.224 73.4735 182.454C73.2511 182.682 72.9763 182.86 72.6492 182.988C72.3221 183.114 71.9544 183.176 71.5461 183.176Z" fill="#43302B"/>
<mask id="path-44-inside-11_9810_5300" fill="white">
<path d="M116.084 153.156H202.936V205.268H116.084V153.156Z"/>
</mask>
<path d="M116.084 153.156H202.936V205.268H116.084V153.156Z" fill="#FDFCFC"/>
<path d="M202.936 204.478H116.084V206.057H202.936V204.478Z" fill="#EADDD7" mask="url(#path-44-inside-11_9810_5300)"/>
<path d="M129.565 183.051V177.021H130.46V177.932H130.522C130.632 177.634 130.831 177.392 131.119 177.206C131.407 177.02 131.732 176.927 132.093 176.927C132.161 176.927 132.246 176.928 132.348 176.931C132.45 176.934 132.527 176.938 132.579 176.943V177.885C132.548 177.877 132.476 177.865 132.363 177.85C132.254 177.831 132.137 177.822 132.014 177.822C131.721 177.822 131.459 177.884 131.229 178.007C131.001 178.127 130.821 178.295 130.687 178.509C130.556 178.721 130.491 178.963 130.491 179.235V183.051H129.565ZM136.022 183.176C135.441 183.176 134.94 183.048 134.519 182.792C134.1 182.533 133.777 182.171 133.549 181.708C133.324 181.242 133.211 180.701 133.211 180.083C133.211 179.466 133.324 178.921 133.549 178.45C133.777 177.977 134.093 177.608 134.499 177.343C134.907 177.076 135.383 176.943 135.928 176.943C136.242 176.943 136.552 176.995 136.858 177.1C137.164 177.205 137.443 177.375 137.694 177.61C137.945 177.843 138.146 178.152 138.295 178.537C138.444 178.921 138.519 179.395 138.519 179.958V180.35H133.871V179.549H137.576C137.576 179.209 137.508 178.906 137.372 178.639C137.239 178.372 137.048 178.161 136.799 178.007C136.553 177.852 136.263 177.775 135.928 177.775C135.559 177.775 135.239 177.867 134.97 178.05C134.703 178.23 134.498 178.466 134.354 178.756C134.21 179.047 134.138 179.358 134.138 179.691V180.224C134.138 180.68 134.216 181.066 134.373 181.382C134.533 181.697 134.754 181.936 135.037 182.101C135.319 182.263 135.648 182.344 136.022 182.344C136.265 182.344 136.485 182.31 136.681 182.242C136.88 182.171 137.052 182.067 137.196 181.928C137.34 181.787 137.451 181.611 137.529 181.402L138.424 181.653C138.33 181.957 138.172 182.224 137.949 182.454C137.727 182.682 137.452 182.86 137.125 182.988C136.798 183.114 136.43 183.176 136.022 183.176ZM139.928 185.312V177.021H140.823V177.979H140.933C141.001 177.874 141.095 177.741 141.215 177.579C141.338 177.414 141.514 177.267 141.741 177.139C141.972 177.008 142.283 176.943 142.676 176.943C143.183 176.943 143.631 177.07 144.018 177.324C144.405 177.577 144.708 177.937 144.925 178.403C145.142 178.869 145.251 179.418 145.251 180.052C145.251 180.69 145.142 181.244 144.925 181.712C144.708 182.178 144.407 182.539 144.022 182.796C143.637 183.049 143.194 183.176 142.691 183.176C142.304 183.176 141.994 183.112 141.761 182.984C141.528 182.853 141.349 182.705 141.223 182.54C141.097 182.373 141.001 182.234 140.933 182.124H140.854V185.312H139.928ZM140.838 180.036C140.838 180.491 140.905 180.893 141.039 181.241C141.172 181.587 141.367 181.857 141.623 182.054C141.88 182.247 142.194 182.344 142.566 182.344C142.953 182.344 143.276 182.242 143.535 182.038C143.797 181.831 143.993 181.554 144.124 181.206C144.257 180.855 144.324 180.465 144.324 180.036C144.324 179.612 144.259 179.23 144.128 178.89C144 178.547 143.805 178.276 143.543 178.077C143.284 177.876 142.958 177.775 142.566 177.775C142.189 177.775 141.872 177.871 141.616 178.062C141.359 178.25 141.166 178.514 141.035 178.855C140.904 179.192 140.838 179.586 140.838 180.036ZM149.113 183.176C148.569 183.176 148.091 183.047 147.68 182.788C147.272 182.529 146.953 182.166 146.723 181.7C146.495 181.235 146.381 180.69 146.381 180.067C146.381 179.439 146.495 178.891 146.723 178.423C146.953 177.954 147.272 177.591 147.68 177.331C148.091 177.072 148.569 176.943 149.113 176.943C149.657 176.943 150.134 177.072 150.542 177.331C150.953 177.591 151.272 177.954 151.5 178.423C151.73 178.891 151.845 179.439 151.845 180.067C151.845 180.69 151.73 181.235 151.5 181.7C151.272 182.166 150.953 182.529 150.542 182.788C150.134 183.047 149.657 183.176 149.113 183.176ZM149.113 182.344C149.527 182.344 149.867 182.238 150.134 182.026C150.401 181.814 150.598 181.536 150.726 181.19C150.855 180.845 150.919 180.47 150.919 180.067C150.919 179.664 150.855 179.289 150.726 178.941C150.598 178.593 150.401 178.312 150.134 178.097C149.867 177.882 149.527 177.775 149.113 177.775C148.7 177.775 148.359 177.882 148.093 178.097C147.826 178.312 147.628 178.593 147.5 178.941C147.372 179.289 147.307 179.664 147.307 180.067C147.307 180.47 147.372 180.845 147.5 181.19C147.628 181.536 147.826 181.814 148.093 182.026C148.359 182.238 148.7 182.344 149.113 182.344Z" fill="#43302B"/>
<mask id="path-47-inside-12_9810_5300" fill="white">
<path d="M202.936 153.156H304V205.268H202.936V153.156Z"/>
</mask>
<path d="M202.936 153.156H304V205.268H202.936V153.156Z" fill="#FDFCFC"/>
<path d="M304 204.478H202.936V206.057H304V204.478Z" fill="#EADDD7" mask="url(#path-47-inside-12_9810_5300)"/>
<rect x="218.727" y="169.555" width="50.633" height="19.3165" rx="3.15826" fill="#FDD8D8"/>
<path d="M228.913 182.715H226.31V174.676H228.995C229.783 174.676 230.46 174.837 231.025 175.158C231.59 175.478 232.023 175.937 232.324 176.536C232.628 177.133 232.78 177.849 232.78 178.683C232.78 179.521 232.626 180.241 232.32 180.842C232.017 181.444 231.577 181.908 231.001 182.232C230.426 182.554 229.73 182.715 228.913 182.715ZM227.523 181.655H228.846C229.459 181.655 229.968 181.54 230.373 181.31C230.779 181.077 231.082 180.74 231.284 180.301C231.485 179.858 231.586 179.319 231.586 178.683C231.586 178.053 231.485 177.518 231.284 177.078C231.085 176.638 230.788 176.305 230.393 176.077C229.998 175.849 229.507 175.735 228.921 175.735H227.523V181.655ZM236.792 182.837C236.198 182.837 235.687 182.71 235.257 182.456C234.831 182.199 234.501 181.839 234.268 181.376C234.038 180.91 233.923 180.365 233.923 179.739C233.923 179.122 234.038 178.577 234.268 178.106C234.501 177.635 234.826 177.268 235.242 177.003C235.66 176.739 236.15 176.607 236.71 176.607C237.05 176.607 237.38 176.663 237.699 176.776C238.018 176.888 238.305 177.065 238.559 177.306C238.813 177.546 239.013 177.859 239.159 178.244C239.306 178.626 239.379 179.09 239.379 179.637V180.053H234.586V179.174H238.229C238.229 178.865 238.166 178.592 238.041 178.354C237.915 178.113 237.738 177.923 237.511 177.785C237.286 177.646 237.021 177.577 236.718 177.577C236.388 177.577 236.1 177.658 235.854 177.82C235.611 177.98 235.422 178.189 235.289 178.448C235.158 178.704 235.093 178.983 235.093 179.284V179.971C235.093 180.374 235.163 180.717 235.305 180.999C235.448 181.282 235.649 181.498 235.905 181.647C236.162 181.794 236.461 181.867 236.804 181.867C237.026 181.867 237.229 181.836 237.412 181.773C237.596 181.707 237.754 181.61 237.887 181.482C238.021 181.354 238.123 181.196 238.194 181.007L239.305 181.207C239.216 181.535 239.056 181.821 238.826 182.067C238.598 182.311 238.311 182.5 237.966 182.636C237.623 182.77 237.232 182.837 236.792 182.837ZM241.855 179.135V182.715H240.681V176.685H241.808V177.667H241.883C242.021 177.348 242.238 177.091 242.534 176.897C242.832 176.704 243.208 176.607 243.661 176.607C244.072 176.607 244.431 176.693 244.74 176.866C245.049 177.036 245.288 177.29 245.459 177.628C245.629 177.965 245.714 178.383 245.714 178.88V182.715H244.54V179.021C244.54 178.584 244.426 178.243 244.199 177.997C243.971 177.748 243.658 177.624 243.26 177.624C242.988 177.624 242.746 177.682 242.534 177.8C242.325 177.918 242.159 178.091 242.036 178.318C241.915 178.543 241.855 178.816 241.855 179.135ZM247.288 182.715V176.685H248.461V182.715H247.288ZM247.881 175.755C247.676 175.755 247.501 175.687 247.355 175.551C247.211 175.412 247.139 175.247 247.139 175.056C247.139 174.863 247.211 174.698 247.355 174.562C247.501 174.423 247.676 174.354 247.881 174.354C248.085 174.354 248.259 174.423 248.403 174.562C248.549 174.698 248.622 174.863 248.622 175.056C248.622 175.247 248.549 175.412 248.403 175.551C248.259 175.687 248.085 175.755 247.881 175.755ZM252.639 182.837C252.045 182.837 251.533 182.71 251.104 182.456C250.678 182.199 250.348 181.839 250.115 181.376C249.885 180.91 249.77 180.365 249.77 179.739C249.77 179.122 249.885 178.577 250.115 178.106C250.348 177.635 250.672 177.268 251.089 177.003C251.507 176.739 251.997 176.607 252.557 176.607C252.897 176.607 253.227 176.663 253.546 176.776C253.865 176.888 254.152 177.065 254.406 177.306C254.659 177.546 254.86 177.859 255.006 178.244C255.153 178.626 255.226 179.09 255.226 179.637V180.053H250.433V179.174H254.076C254.076 178.865 254.013 178.592 253.887 178.354C253.762 178.113 253.585 177.923 253.357 177.785C253.132 177.646 252.868 177.577 252.565 177.577C252.235 177.577 251.947 177.658 251.701 177.82C251.458 177.98 251.269 178.189 251.136 178.448C251.005 178.704 250.939 178.983 250.939 179.284V179.971C250.939 180.374 251.01 180.717 251.151 180.999C251.295 181.282 251.495 181.498 251.752 181.647C252.008 181.794 252.308 181.867 252.651 181.867C252.873 181.867 253.076 181.836 253.259 181.773C253.442 181.707 253.601 181.61 253.734 181.482C253.868 181.354 253.97 181.196 254.04 181.007L255.151 181.207C255.062 181.535 254.903 181.821 254.672 182.067C254.445 182.311 254.158 182.5 253.813 182.636C253.47 182.77 253.079 182.837 252.639 182.837ZM258.785 182.833C258.299 182.833 257.864 182.708 257.482 182.46C257.103 182.208 256.804 181.851 256.587 181.388C256.372 180.922 256.265 180.364 256.265 179.712C256.265 179.06 256.374 178.503 256.591 178.04C256.811 177.577 257.112 177.222 257.494 176.976C257.876 176.73 258.309 176.607 258.793 176.607C259.167 176.607 259.468 176.67 259.696 176.795C259.926 176.918 260.104 177.062 260.23 177.227C260.358 177.392 260.458 177.537 260.528 177.663H260.599V174.676H261.773V182.715H260.626V181.777H260.528C260.458 181.905 260.355 182.051 260.222 182.216C260.091 182.381 259.911 182.525 259.68 182.648C259.45 182.771 259.152 182.833 258.785 182.833ZM259.044 181.832C259.382 181.832 259.667 181.743 259.9 181.565C260.136 181.384 260.314 181.134 260.434 180.815C260.557 180.496 260.618 180.124 260.618 179.7C260.618 179.281 260.558 178.915 260.438 178.601C260.317 178.287 260.141 178.042 259.908 177.867C259.675 177.692 259.387 177.604 259.044 177.604C258.691 177.604 258.397 177.696 258.161 177.879C257.926 178.062 257.748 178.312 257.627 178.629C257.51 178.945 257.451 179.302 257.451 179.7C257.451 180.103 257.511 180.466 257.631 180.787C257.752 181.109 257.93 181.365 258.165 181.553C258.403 181.739 258.696 181.832 259.044 181.832Z" fill="#381316"/>
<rect width="86.8522" height="52.1113" transform="translate(29.2305 205.27)" fill="#FDFCFC"/>
<path d="M45.1606 235.29C44.5954 235.29 44.1086 235.156 43.7004 234.889C43.2921 234.622 42.9781 234.255 42.7583 233.786C42.5384 233.318 42.4285 232.783 42.4285 232.181C42.4285 231.568 42.5411 231.028 42.7661 230.56C42.9938 230.089 43.3104 229.721 43.7161 229.457C44.1243 229.19 44.6006 229.056 45.1449 229.056C45.5689 229.056 45.9509 229.135 46.2911 229.292C46.6313 229.449 46.91 229.669 47.1272 229.951C47.3444 230.234 47.4792 230.563 47.5316 230.94H46.6052C46.5345 230.666 46.3775 230.422 46.1341 230.21C45.8934 229.996 45.5689 229.888 45.1606 229.888C44.7995 229.888 44.4828 229.983 44.2107 230.171C43.9411 230.357 43.7305 230.62 43.5787 230.96C43.4295 231.298 43.3549 231.694 43.3549 232.149C43.3549 232.615 43.4282 233.021 43.5748 233.366C43.7239 233.712 43.9333 233.98 44.2028 234.171C44.475 234.362 44.7942 234.457 45.1606 234.457C45.4014 234.457 45.6199 234.416 45.8162 234.332C46.0124 234.248 46.1786 234.128 46.3147 233.971C46.4508 233.814 46.5476 233.625 46.6052 233.405H47.5316C47.4792 233.761 47.3497 234.082 47.1429 234.367C46.9388 234.65 46.668 234.875 46.3304 235.042C45.9954 235.207 45.6055 235.29 45.1606 235.29ZM48.8858 235.164V229.135H49.7808V230.045H49.8436C49.9535 229.747 50.1524 229.505 50.4403 229.319C50.7281 229.133 51.0526 229.04 51.4138 229.04C51.4818 229.04 51.5669 229.042 51.6689 229.044C51.771 229.047 51.8482 229.051 51.9005 229.056V229.998C51.8691 229.99 51.7971 229.979 51.6846 229.963C51.5747 229.945 51.4583 229.935 51.3353 229.935C51.0422 229.935 50.7805 229.997 50.5502 230.12C50.3225 230.24 50.1419 230.408 50.0085 230.622C49.8776 230.834 49.8122 231.076 49.8122 231.349V235.164H48.8858ZM55.3431 235.29C54.7621 235.29 54.261 235.161 53.8397 234.905C53.421 234.646 53.0978 234.285 52.8701 233.822C52.645 233.356 52.5325 232.814 52.5325 232.196C52.5325 231.579 52.645 231.035 52.8701 230.563C53.0978 230.09 53.4144 229.721 53.82 229.457C54.2283 229.19 54.7046 229.056 55.2489 229.056C55.5629 229.056 55.873 229.108 56.1792 229.213C56.4854 229.318 56.7641 229.488 57.0153 229.723C57.2665 229.956 57.4667 230.265 57.6159 230.65C57.7651 231.035 57.8396 231.508 57.8396 232.071V232.463H53.192V231.663H56.8975C56.8975 231.322 56.8295 231.019 56.6934 230.752C56.56 230.485 56.3689 230.274 56.1203 230.12C55.8743 229.966 55.5838 229.888 55.2489 229.888C54.8799 229.888 54.5606 229.98 54.2911 230.163C54.0242 230.344 53.8187 230.579 53.6748 230.87C53.5309 231.16 53.4589 231.472 53.4589 231.804V232.338C53.4589 232.793 53.5374 233.179 53.6944 233.496C53.8541 233.81 54.0752 234.049 54.3578 234.214C54.6404 234.376 54.9689 234.457 55.3431 234.457C55.5865 234.457 55.8063 234.423 56.0026 234.355C56.2014 234.285 56.3729 234.18 56.5168 234.041C56.6607 233.9 56.7719 233.725 56.8504 233.515L57.7454 233.767C57.6512 234.07 57.4929 234.337 57.2705 234.567C57.048 234.795 56.7732 234.973 56.4461 235.101C56.119 235.227 55.7513 235.29 55.3431 235.29ZM61.0231 235.305C60.6411 235.305 60.2943 235.233 59.9829 235.089C59.6715 234.943 59.4242 234.732 59.241 234.457C59.0578 234.18 58.9662 233.845 58.9662 233.453C58.9662 233.107 59.0343 232.827 59.1703 232.613C59.3064 232.395 59.4883 232.225 59.716 232.102C59.9437 231.979 60.1949 231.888 60.4697 231.827C60.7471 231.765 61.0258 231.715 61.3058 231.678C61.6721 231.631 61.9692 231.596 62.1968 231.572C62.4271 231.546 62.5946 231.503 62.6993 231.443C62.8066 231.383 62.8602 231.278 62.8602 231.129V231.097C62.8602 230.71 62.7542 230.409 62.5423 230.195C62.3329 229.98 62.015 229.873 61.5884 229.873C61.1461 229.873 60.7994 229.969 60.5482 230.163C60.2969 230.357 60.1203 230.563 60.0182 230.783L59.1389 230.469C59.296 230.103 59.5053 229.818 59.767 229.614C60.0313 229.407 60.3192 229.263 60.6306 229.182C60.9446 229.098 61.2534 229.056 61.557 229.056C61.7506 229.056 61.9731 229.08 62.2243 229.127C62.4781 229.171 62.7228 229.264 62.9584 229.406C63.1965 229.547 63.3941 229.76 63.5511 230.045C63.7081 230.331 63.7866 230.713 63.7866 231.192V235.164H62.8602V234.348H62.8131C62.7503 234.478 62.6456 234.618 62.4991 234.768C62.3525 234.917 62.1576 235.044 61.9142 235.148C61.6708 235.253 61.3738 235.305 61.0231 235.305ZM61.1645 234.473C61.5308 234.473 61.8396 234.401 62.0908 234.257C62.3447 234.113 62.5357 233.928 62.664 233.7C62.7948 233.472 62.8602 233.233 62.8602 232.982V232.134C62.821 232.181 62.7346 232.224 62.6011 232.263C62.4703 232.3 62.3185 232.333 62.1458 232.361C61.9757 232.387 61.8095 232.411 61.6473 232.432C61.4876 232.45 61.3581 232.466 61.2587 232.479C61.0179 232.51 60.7928 232.562 60.5835 232.632C60.3768 232.7 60.2093 232.804 60.081 232.942C59.9554 233.078 59.8926 233.264 59.8926 233.5C59.8926 233.822 60.0117 234.065 60.2498 234.23C60.4906 234.392 60.7955 234.473 61.1645 234.473ZM68.0996 229.135V229.92H64.975V229.135H68.0996ZM65.8857 227.69H66.8121V233.437C66.8121 233.699 66.8501 233.895 66.9259 234.026C67.0045 234.154 67.1039 234.24 67.2243 234.285C67.3473 234.327 67.4768 234.348 67.6129 234.348C67.715 234.348 67.7987 234.342 67.8641 234.332C67.9295 234.319 67.9819 234.308 68.0211 234.3L68.2096 235.133C68.1467 235.156 68.0591 235.18 67.9466 235.203C67.834 235.229 67.6914 235.243 67.5187 235.243C67.257 235.243 67.0005 235.186 66.7493 235.074C66.5007 234.961 66.294 234.79 66.1291 234.56C65.9668 234.329 65.8857 234.039 65.8857 233.688V227.69ZM71.9563 235.29C71.3754 235.29 70.8742 235.161 70.4529 234.905C70.0342 234.646 69.711 234.285 69.4833 233.822C69.2583 233.356 69.1458 232.814 69.1458 232.196C69.1458 231.579 69.2583 231.035 69.4833 230.563C69.711 230.09 70.0277 229.721 70.4333 229.457C70.8415 229.19 71.3178 229.056 71.8621 229.056C72.1762 229.056 72.4863 229.108 72.7925 229.213C73.0986 229.318 73.3773 229.488 73.6286 229.723C73.8798 229.956 74.08 230.265 74.2291 230.65C74.3783 231.035 74.4529 231.508 74.4529 232.071V232.463H69.8052V231.663H73.5108C73.5108 231.322 73.4428 231.019 73.3067 230.752C73.1732 230.485 72.9822 230.274 72.7336 230.12C72.4876 229.966 72.1971 229.888 71.8621 229.888C71.4931 229.888 71.1739 229.98 70.9043 230.163C70.6374 230.344 70.432 230.579 70.2881 230.87C70.1441 231.16 70.0722 231.472 70.0722 231.804V232.338C70.0722 232.793 70.1507 233.179 70.3077 233.496C70.4673 233.81 70.6884 234.049 70.9711 234.214C71.2537 234.376 71.5821 234.457 71.9563 234.457C72.1997 234.457 72.4195 234.423 72.6158 234.355C72.8147 234.285 72.9861 234.18 73.13 234.041C73.274 233.9 73.3852 233.725 73.4637 233.515L74.3587 233.767C74.2645 234.07 74.1062 234.337 73.8837 234.567C73.6613 234.795 73.3865 234.973 73.0594 235.101C72.7323 235.227 72.3646 235.29 71.9563 235.29Z" fill="#43302B"/>
<rect width="86.8522" height="52.1113" transform="translate(116.084 205.27)" fill="#FDFCFC"/>
<path d="M129.565 235.164V229.135H130.46V230.045H130.522C130.632 229.747 130.831 229.505 131.119 229.319C131.407 229.133 131.732 229.04 132.093 229.04C132.161 229.04 132.246 229.042 132.348 229.044C132.45 229.047 132.527 229.051 132.579 229.056V229.998C132.548 229.99 132.476 229.979 132.363 229.963C132.254 229.945 132.137 229.935 132.014 229.935C131.721 229.935 131.459 229.997 131.229 230.12C131.001 230.24 130.821 230.408 130.687 230.622C130.556 230.834 130.491 231.076 130.491 231.349V235.164H129.565ZM136.022 235.29C135.441 235.29 134.94 235.161 134.519 234.905C134.1 234.646 133.777 234.285 133.549 233.822C133.324 233.356 133.211 232.814 133.211 232.196C133.211 231.579 133.324 231.035 133.549 230.563C133.777 230.09 134.093 229.721 134.499 229.457C134.907 229.19 135.383 229.056 135.928 229.056C136.242 229.056 136.552 229.108 136.858 229.213C137.164 229.318 137.443 229.488 137.694 229.723C137.945 229.956 138.146 230.265 138.295 230.65C138.444 231.035 138.519 231.508 138.519 232.071V232.463H133.871V231.663H137.576C137.576 231.322 137.508 231.019 137.372 230.752C137.239 230.485 137.048 230.274 136.799 230.12C136.553 229.966 136.263 229.888 135.928 229.888C135.559 229.888 135.239 229.98 134.97 230.163C134.703 230.344 134.498 230.579 134.354 230.87C134.21 231.16 134.138 231.472 134.138 231.804V232.338C134.138 232.793 134.216 233.179 134.373 233.496C134.533 233.81 134.754 234.049 135.037 234.214C135.319 234.376 135.648 234.457 136.022 234.457C136.265 234.457 136.485 234.423 136.681 234.355C136.88 234.285 137.052 234.18 137.196 234.041C137.34 233.9 137.451 233.725 137.529 233.515L138.424 233.767C138.33 234.07 138.172 234.337 137.949 234.567C137.727 234.795 137.452 234.973 137.125 235.101C136.798 235.227 136.43 235.29 136.022 235.29ZM139.928 237.425V229.135H140.823V230.092H140.933C141.001 229.988 141.095 229.854 141.215 229.692C141.338 229.527 141.514 229.381 141.741 229.252C141.972 229.122 142.283 229.056 142.676 229.056C143.183 229.056 143.631 229.183 144.018 229.437C144.405 229.691 144.708 230.051 144.925 230.516C145.142 230.982 145.251 231.532 145.251 232.165C145.251 232.804 145.142 233.357 144.925 233.826C144.708 234.291 144.407 234.652 144.022 234.909C143.637 235.163 143.194 235.29 142.691 235.29C142.304 235.29 141.994 235.226 141.761 235.097C141.528 234.966 141.349 234.819 141.223 234.654C141.097 234.486 141.001 234.348 140.933 234.238H140.854V237.425H139.928ZM140.838 232.149C140.838 232.605 140.905 233.006 141.039 233.354C141.172 233.7 141.367 233.971 141.623 234.167C141.88 234.361 142.194 234.457 142.566 234.457C142.953 234.457 143.276 234.355 143.535 234.151C143.797 233.945 143.993 233.667 144.124 233.319C144.257 232.968 144.324 232.579 144.324 232.149C144.324 231.725 144.259 231.343 144.128 231.003C144 230.66 143.805 230.389 143.543 230.191C143.284 229.989 142.958 229.888 142.566 229.888C142.189 229.888 141.872 229.984 141.616 230.175C141.359 230.363 141.166 230.628 141.035 230.968C140.904 231.305 140.838 231.699 140.838 232.149ZM149.113 235.29C148.569 235.29 148.091 235.16 147.68 234.901C147.272 234.642 146.953 234.28 146.723 233.814C146.495 233.348 146.381 232.804 146.381 232.181C146.381 231.553 146.495 231.004 146.723 230.536C146.953 230.068 147.272 229.704 147.68 229.445C148.091 229.186 148.569 229.056 149.113 229.056C149.657 229.056 150.134 229.186 150.542 229.445C150.953 229.704 151.272 230.068 151.5 230.536C151.73 231.004 151.845 231.553 151.845 232.181C151.845 232.804 151.73 233.348 151.5 233.814C151.272 234.28 150.953 234.642 150.542 234.901C150.134 235.16 149.657 235.29 149.113 235.29ZM149.113 234.457C149.527 234.457 149.867 234.352 150.134 234.14C150.401 233.928 150.598 233.649 150.726 233.303C150.855 232.958 150.919 232.584 150.919 232.181C150.919 231.778 150.855 231.402 150.726 231.054C150.598 230.706 150.401 230.425 150.134 230.21C149.867 229.996 149.527 229.888 149.113 229.888C148.7 229.888 148.359 229.996 148.093 230.21C147.826 230.425 147.628 230.706 147.5 231.054C147.372 231.402 147.307 231.778 147.307 232.181C147.307 232.584 147.372 232.958 147.5 233.303C147.628 233.649 147.826 233.928 148.093 234.14C148.359 234.352 148.7 234.457 149.113 234.457Z" fill="#43302B"/>
<rect width="101.064" height="52.1113" transform="translate(202.936 205.27)" fill="#FDFCFC"/>
<rect x="218.727" y="221.668" width="64.633" height="19.3165" rx="3.15826" fill="#C7EBE5"/>
<path d="M226.019 234.828V226.789H228.884C229.51 226.789 230.028 226.903 230.439 227.13C230.849 227.358 231.157 227.67 231.361 228.065C231.565 228.457 231.667 228.899 231.667 229.391C231.667 229.886 231.564 230.331 231.357 230.726C231.153 231.119 230.844 231.43 230.431 231.66C230.02 231.888 229.503 232.002 228.88 232.002H226.91V230.973H228.77C229.165 230.973 229.486 230.905 229.732 230.769C229.978 230.631 230.159 230.442 230.274 230.204C230.389 229.966 230.446 229.695 230.446 229.391C230.446 229.088 230.389 228.818 230.274 228.583C230.159 228.347 229.977 228.163 229.728 228.029C229.482 227.896 229.158 227.829 228.755 227.829H227.232V234.828H226.019ZM235.518 234.95C234.924 234.95 234.412 234.823 233.983 234.569C233.557 234.313 233.227 233.953 232.994 233.49C232.764 233.024 232.649 232.478 232.649 231.853C232.649 231.235 232.764 230.691 232.994 230.22C233.227 229.749 233.551 229.381 233.968 229.117C234.386 228.852 234.876 228.72 235.436 228.72C235.776 228.72 236.106 228.776 236.425 228.889C236.744 229.002 237.031 229.178 237.284 229.419C237.538 229.66 237.738 229.972 237.885 230.357C238.032 230.739 238.105 231.204 238.105 231.751V232.167H233.312V231.287H236.955C236.955 230.979 236.892 230.705 236.766 230.467C236.641 230.226 236.464 230.037 236.236 229.898C236.011 229.759 235.747 229.69 235.443 229.69C235.114 229.69 234.826 229.771 234.58 229.933C234.336 230.093 234.148 230.302 234.015 230.561C233.884 230.818 233.818 231.096 233.818 231.397V232.084C233.818 232.487 233.889 232.83 234.03 233.113C234.174 233.395 234.374 233.611 234.631 233.76C234.887 233.907 235.187 233.98 235.53 233.98C235.752 233.98 235.955 233.949 236.138 233.886C236.321 233.821 236.48 233.724 236.613 233.596C236.747 233.467 236.849 233.309 236.919 233.121L238.03 233.321C237.941 233.648 237.782 233.934 237.551 234.18C237.324 234.424 237.037 234.614 236.692 234.75C236.349 234.883 235.958 234.95 235.518 234.95ZM239.407 234.828V228.799H240.542V229.757H240.604C240.714 229.432 240.908 229.177 241.185 228.991C241.465 228.803 241.782 228.708 242.135 228.708C242.209 228.708 242.295 228.711 242.394 228.716C242.496 228.722 242.576 228.728 242.634 228.736V229.859C242.587 229.845 242.503 229.831 242.383 229.815C242.262 229.797 242.142 229.788 242.021 229.788C241.744 229.788 241.497 229.847 241.28 229.965C241.065 230.08 240.895 230.241 240.769 230.447C240.644 230.652 240.581 230.884 240.581 231.146V234.828H239.407ZM243.649 234.828V228.799H244.776V229.78H244.851C244.976 229.448 245.182 229.189 245.467 229.003C245.752 228.814 246.094 228.72 246.491 228.72C246.894 228.72 247.232 228.814 247.504 229.003C247.779 229.191 247.982 229.45 248.113 229.78H248.175C248.319 229.458 248.548 229.202 248.862 229.011C249.176 228.817 249.551 228.72 249.985 228.72C250.532 228.72 250.978 228.892 251.324 229.234C251.672 229.577 251.846 230.094 251.846 230.785V234.828H250.672V230.895C250.672 230.487 250.561 230.191 250.338 230.008C250.116 229.825 249.85 229.733 249.542 229.733C249.159 229.733 248.862 229.851 248.65 230.086C248.438 230.319 248.332 230.619 248.332 230.985V234.828H247.163V230.82C247.163 230.493 247.061 230.23 246.857 230.031C246.652 229.832 246.387 229.733 246.06 229.733C245.837 229.733 245.632 229.792 245.443 229.91C245.258 230.025 245.107 230.186 244.992 230.392C244.879 230.599 244.823 230.839 244.823 231.111V234.828H243.649ZM253.419 234.828V228.799H254.593V234.828H253.419ZM254.012 227.868C253.807 227.868 253.632 227.8 253.486 227.664C253.342 227.526 253.27 227.361 253.27 227.17C253.27 226.976 253.342 226.811 253.486 226.675C253.632 226.536 253.807 226.467 254.012 226.467C254.216 226.467 254.39 226.536 254.534 226.675C254.68 226.811 254.753 226.976 254.753 227.17C254.753 227.361 254.68 227.526 254.534 227.664C254.39 227.8 254.216 227.868 254.012 227.868ZM258.986 228.799V229.741H255.693V228.799H258.986ZM256.576 227.354H257.75V233.058C257.75 233.285 257.784 233.457 257.852 233.572C257.92 233.685 258.007 233.762 258.115 233.804C258.224 233.843 258.344 233.862 258.472 233.862C258.566 233.862 258.648 233.856 258.719 233.843C258.79 233.83 258.845 233.819 258.884 233.811L259.096 234.781C259.028 234.807 258.931 234.833 258.805 234.86C258.68 234.888 258.523 234.904 258.334 234.907C258.026 234.912 257.738 234.857 257.471 234.742C257.204 234.627 256.988 234.449 256.823 234.208C256.658 233.967 256.576 233.665 256.576 233.301V227.354ZM263.099 228.799V229.741H259.805V228.799H263.099ZM260.689 227.354H261.862V233.058C261.862 233.285 261.896 233.457 261.964 233.572C262.032 233.685 262.12 233.762 262.227 233.804C262.337 233.843 262.456 233.862 262.585 233.862C262.679 233.862 262.761 233.856 262.832 233.843C262.903 233.83 262.958 233.819 262.997 233.811L263.209 234.781C263.141 234.807 263.044 234.833 262.918 234.86C262.793 234.888 262.636 234.904 262.447 234.907C262.138 234.912 261.851 234.857 261.584 234.742C261.317 234.627 261.101 234.449 260.936 234.208C260.771 233.967 260.689 233.665 260.689 233.301V227.354ZM266.931 234.95C266.337 234.95 265.825 234.823 265.396 234.569C264.97 234.313 264.64 233.953 264.407 233.49C264.177 233.024 264.062 232.478 264.062 231.853C264.062 231.235 264.177 230.691 264.407 230.22C264.64 229.749 264.964 229.381 265.38 229.117C265.799 228.852 266.289 228.72 266.849 228.72C267.189 228.72 267.519 228.776 267.838 228.889C268.157 229.002 268.444 229.178 268.697 229.419C268.951 229.66 269.151 229.972 269.298 230.357C269.445 230.739 269.518 231.204 269.518 231.751V232.167H264.725V231.287H268.368C268.368 230.979 268.305 230.705 268.179 230.467C268.054 230.226 267.877 230.037 267.649 229.898C267.424 229.759 267.16 229.69 266.856 229.69C266.527 229.69 266.239 229.771 265.993 229.933C265.749 230.093 265.561 230.302 265.428 230.561C265.297 230.818 265.231 231.096 265.231 231.397V232.084C265.231 232.487 265.302 232.83 265.443 233.113C265.587 233.395 265.787 233.611 266.044 233.76C266.3 233.907 266.6 233.98 266.943 233.98C267.165 233.98 267.368 233.949 267.551 233.886C267.734 233.821 267.893 233.724 268.026 233.596C268.16 233.467 268.262 233.309 268.332 233.121L269.443 233.321C269.354 233.648 269.195 233.934 268.964 234.18C268.737 234.424 268.45 234.614 268.105 234.75C267.762 234.883 267.371 234.95 266.931 234.95ZM273.077 234.946C272.59 234.946 272.156 234.822 271.774 234.573C271.395 234.322 271.096 233.965 270.879 233.501C270.664 233.036 270.557 232.477 270.557 231.825C270.557 231.174 270.666 230.616 270.883 230.153C271.103 229.69 271.404 229.335 271.786 229.089C272.168 228.843 272.601 228.72 273.085 228.72C273.459 228.72 273.76 228.783 273.988 228.909C274.218 229.032 274.396 229.176 274.522 229.34C274.65 229.505 274.749 229.651 274.82 229.776H274.891V226.789H276.064V234.828H274.918V233.89H274.82C274.749 234.018 274.647 234.165 274.514 234.33C274.383 234.494 274.202 234.638 273.972 234.761C273.742 234.884 273.444 234.946 273.077 234.946ZM273.336 233.945C273.674 233.945 273.959 233.856 274.192 233.678C274.428 233.497 274.605 233.247 274.726 232.928C274.849 232.609 274.91 232.237 274.91 231.813C274.91 231.395 274.85 231.028 274.73 230.714C274.609 230.4 274.433 230.156 274.2 229.98C273.967 229.805 273.679 229.717 273.336 229.717C272.983 229.717 272.689 229.809 272.453 229.992C272.218 230.175 272.04 230.425 271.919 230.742C271.801 231.058 271.743 231.416 271.743 231.813C271.743 232.216 271.803 232.579 271.923 232.901C272.044 233.223 272.221 233.478 272.457 233.666C272.695 233.852 272.988 233.945 273.336 233.945Z" fill="#10302B"/>
</g>
</g>
<rect x="-150.395" y="72.2263" width="454.79" height="185.548" rx="6.7113" stroke="#D1B9B0" stroke-width="0.789565"/>
</g>
<defs>
<filter id="filter0_f_9810_5300" x="-207.943" y="-43.5715" width="832.838" height="530.159" filterUnits="userSpaceOnUse" color-interpolation-filters="sRGB">
<feFlood flood-opacity="0" result="BackgroundImageFix"/>
<feBlend mode="normal" in="SourceGraphic" in2="BackgroundImageFix" result="shape"/>
<feGaussianBlur stdDeviation="23.7448" result="effect1_foregroundBlur_9810_5300"/>
</filter>
<radialGradient id="paint0_radial_9810_5300" cx="0" cy="0" r="1" gradientUnits="userSpaceOnUse" gradientTransform="translate(208.591 228.544) rotate(82.3783) scale(173.507 170.482)">
<stop stop-color="#FFA57C"/>
<stop offset="0.552909" stop-color="#FFA57C" stop-opacity="0.5"/>
<stop offset="1" stop-color="#FFA57C" stop-opacity="0"/>
</radialGradient>
<radialGradient id="paint1_radial_9810_5300" cx="0" cy="0" r="1" gradientUnits="userSpaceOnUse" gradientTransform="translate(51.9016 259.111) rotate(82.3783) scale(173.507 170.482)">
<stop stop-color="#FFA57C"/>
<stop offset="0.552909" stop-color="#FFA57C" stop-opacity="0.5"/>
<stop offset="1" stop-color="#FFA57C" stop-opacity="0"/>
</radialGradient>
<radialGradient id="paint2_radial_9810_5300" cx="0" cy="0" r="1" gradientUnits="userSpaceOnUse" gradientTransform="translate(280.259 267.119) rotate(82.3783) scale(173.507 170.482)">
<stop stop-color="#FFA57C"/>
<stop offset="0.552909" stop-color="#FFA57C" stop-opacity="0.5"/>
<stop offset="1" stop-color="#FFA57C" stop-opacity="0"/>
</radialGradient>
<radialGradient id="paint3_radial_9810_5300" cx="0" cy="0" r="1" gradientUnits="userSpaceOnUse" gradientTransform="translate(305.947 281.959) rotate(82.3783) scale(119.617 117.532)">
<stop stop-color="#974EF2"/>
<stop offset="0.277992" stop-color="#7A31C8" stop-opacity="0.85"/>
<stop offset="0.552909" stop-color="#7A31C8" stop-opacity="0.5"/>
<stop offset="1" stop-color="#7A31C8" stop-opacity="0"/>
</radialGradient>
<radialGradient id="paint4_radial_9810_5300" cx="0" cy="0" r="1" gradientUnits="userSpaceOnUse" gradientTransform="translate(141.539 323.266) rotate(80.3987) scale(117.474 144.398)">
<stop offset="0.42702" stop-color="#8D63F9" stop-opacity="0.85"/>
<stop offset="1" stop-color="#8D63F9" stop-opacity="0"/>
</radialGradient>
<radialGradient id="paint5_radial_9810_5300" cx="0" cy="0" r="1" gradientUnits="userSpaceOnUse" gradientTransform="translate(239.455 315.255) rotate(80.3987) scale(117.474 144.398)">
<stop offset="0.42702" stop-color="#8D63F9" stop-opacity="0.85"/>
<stop offset="1" stop-color="#8D63F9" stop-opacity="0"/>
</radialGradient>
<radialGradient id="paint6_radial_9810_5300" cx="0" cy="0" r="1" gradientUnits="userSpaceOnUse" gradientTransform="translate(278.566 298.161) rotate(80.3987) scale(117.474 144.398)">
<stop offset="0.42702" stop-color="#8D63F9" stop-opacity="0.85"/>
<stop offset="1" stop-color="#8D63F9" stop-opacity="0"/>
</radialGradient>
<radialGradient id="paint7_radial_9810_5300" cx="0" cy="0" r="1" gradientUnits="userSpaceOnUse" gradientTransform="translate(253.462 175.892) rotate(82.3783) scale(173.507 170.482)">
<stop stop-color="#FFA57C"/>
<stop offset="0.552909" stop-color="#FFA57C" stop-opacity="0.5"/>
<stop offset="1" stop-color="#FFA57C" stop-opacity="0"/>
</radialGradient>
<radialGradient id="paint8_radial_9810_5300" cx="0" cy="0" r="1" gradientUnits="userSpaceOnUse" gradientTransform="translate(253.462 267.119) rotate(82.3783) scale(173.507 170.482)">
<stop stop-color="#FFA57C"/>
<stop offset="0.552909" stop-color="#FFA57C" stop-opacity="0.5"/>
<stop offset="1" stop-color="#FFA57C" stop-opacity="0"/>
</radialGradient>
<radialGradient id="paint9_radial_9810_5300" cx="0" cy="0" r="1" gradientUnits="userSpaceOnUse" gradientTransform="translate(408.431 266.353) rotate(82.3783) scale(173.507 170.482)">
<stop stop-color="#FFA57C"/>
<stop offset="0.552909" stop-color="#FFA57C" stop-opacity="0.5"/>
<stop offset="1" stop-color="#FFA57C" stop-opacity="0"/>
</radialGradient>
<radialGradient id="paint10_radial_9810_5300" cx="0" cy="0" r="1" gradientUnits="userSpaceOnUse" gradientTransform="translate(383.325 259.111) rotate(82.3783) scale(173.507 170.482)">
<stop stop-color="#FFA57C"/>
<stop offset="0.552909" stop-color="#FFA57C" stop-opacity="0.5"/>
<stop offset="1" stop-color="#FFA57C" stop-opacity="0"/>
</radialGradient>
<radialGradient id="paint11_radial_9810_5300" cx="0" cy="0" r="1" gradientUnits="userSpaceOnUse" gradientTransform="translate(-2.85353 233.163) rotate(81.6442) scale(147.696 158.719)">
<stop offset="0.42702" stop-color="#8D63F9" stop-opacity="0.85"/>
<stop offset="1" stop-color="#8D63F9" stop-opacity="0"/>
</radialGradient>
<clipPath id="clip0_9810_5300">
<rect width="374" height="329" rx="8" fill="white"/>
</clipPath>
<clipPath id="clip1_9810_5300">
<rect x="-150" y="72.6211" width="454" height="184.758" rx="6.31652" fill="white"/>
</clipPath>
<clipPath id="clip2_9810_5300">
<rect width="454" height="184.758" fill="white" transform="translate(-150 72.6211)"/>
</clipPath>
</defs>
</svg>
