<svg width="386" height="183" viewBox="0 0 386 183" fill="none" xmlns="http://www.w3.org/2000/svg">
<rect x="179.027" y="0.800781" width="48.1023" height="48.1023" rx="4" transform="rotate(45 179.027 0.800781)" fill="#FDFCFC"/>
<path d="M205.886 32.186L181.562 7.8621C180.887 7.19466 179.976 6.82031 179.027 6.82031C178.078 6.82031 177.167 7.19466 176.493 7.8621L170.795 13.5594L176.702 19.559C177.42 19.1874 178.22 19.0034 179.027 19.0241C180.415 19.0241 181.746 19.5754 182.727 20.5566C183.708 21.5378 184.26 22.8687 184.26 24.2563C184.276 25.0611 184.101 25.8582 183.748 26.5817L188.841 31.6977C189.834 31.2761 190.944 31.2132 191.979 31.5199C193.014 31.8266 193.91 32.4838 194.513 33.3787C195.117 34.2736 195.39 35.3506 195.287 36.4251C195.183 37.4995 194.709 38.5045 193.946 39.2677C193.182 40.031 192.178 40.505 191.103 40.6085C190.029 40.712 188.952 40.4386 188.057 39.835C187.162 39.2315 186.505 38.3355 186.198 37.3006C185.891 36.2657 185.954 35.1563 186.376 34.1626L181.353 28.9537C181.199 29.0419 181.035 29.1121 180.864 29.163V42.0458C181.865 42.4505 182.694 43.1907 183.208 44.1393C183.723 45.088 183.892 46.1862 183.686 47.2456C183.479 48.3051 182.911 49.2598 182.078 49.9462C181.245 50.6327 180.2 51.0081 179.12 51.0081C178.041 51.0081 176.995 50.6327 176.162 49.9462C175.33 49.2598 174.761 48.3051 174.555 47.2456C174.349 46.1862 174.518 45.088 175.032 44.1393C175.547 43.1907 176.376 42.4505 177.376 42.0458V29.163C176.341 28.8225 175.439 28.1659 174.796 27.2857C174.154 26.4055 173.804 25.346 173.795 24.2563C173.779 23.4516 173.954 22.6544 174.307 21.9309L168.33 16.1173L152.169 32.3953C151.501 33.0701 151.127 33.9809 151.127 34.93C151.127 35.8791 151.501 36.7899 152.169 37.4647L176.493 61.5793C177.167 62.2467 178.078 62.6211 179.027 62.6211C179.976 62.6211 180.887 62.2467 181.562 61.5793L205.886 37.2554C206.553 36.5806 206.928 35.6698 206.928 34.7207C206.928 33.7716 206.553 32.8608 205.886 32.186Z" fill="#451E11"/>
<mask id="path-3-outside-1_9745_14" maskUnits="userSpaceOnUse" x="0.123047" y="74.0547" width="39" height="43" fill="black">
<rect fill="white" x="0.123047" y="74.0547" width="39" height="43"/>
<path fill-rule="evenodd" clip-rule="evenodd" d="M9.6404 78.0547C9.6404 78.0547 7.62725 84.8126 7.77725 86.8257C7.86858 88.0763 9.95424 89.6769 10.4125 90.0142C12.7223 87.5533 15.8942 85.9595 19.4151 85.9732C22.9314 85.9595 26.0996 87.5491 28.4087 90.0046C28.892 89.6476 30.9404 88.0648 31.0309 86.8257C31.1809 84.8126 29.1678 78.0547 29.1678 78.0547C29.1678 78.0547 35.2388 85.4521 35.6651 88.4363C35.9937 90.7737 32.1688 95.4139 31.754 95.909V104.557C31.754 104.557 26.7567 106.515 24.6883 108.094C22.9751 109.413 19.683 114.055 19.683 114.055H19.1304C19.1304 114.055 15.8383 109.413 14.1251 108.094C12.0567 106.515 7.05931 104.557 7.05931 104.557V95.9152C6.67256 95.454 2.81304 90.7838 3.14304 88.4363C3.56935 85.4521 9.6404 78.0547 9.6404 78.0547Z"/>
</mask>
<path fill-rule="evenodd" clip-rule="evenodd" d="M9.6404 78.0547C9.6404 78.0547 7.62725 84.8126 7.77725 86.8257C7.86858 88.0763 9.95424 89.6769 10.4125 90.0142C12.7223 87.5533 15.8942 85.9595 19.4151 85.9732C22.9314 85.9595 26.0996 87.5491 28.4087 90.0046C28.892 89.6476 30.9404 88.0648 31.0309 86.8257C31.1809 84.8126 29.1678 78.0547 29.1678 78.0547C29.1678 78.0547 35.2388 85.4521 35.6651 88.4363C35.9937 90.7737 32.1688 95.4139 31.754 95.909V104.557C31.754 104.557 26.7567 106.515 24.6883 108.094C22.9751 109.413 19.683 114.055 19.683 114.055H19.1304C19.1304 114.055 15.8383 109.413 14.1251 108.094C12.0567 106.515 7.05931 104.557 7.05931 104.557V95.9152C6.67256 95.454 2.81304 90.7838 3.14304 88.4363C3.56935 85.4521 9.6404 78.0547 9.6404 78.0547Z" fill="#451E11"/>
<path d="M7.77725 86.8257L10.7693 86.6072L10.769 86.6028L7.77725 86.8257ZM9.6404 78.0547L12.5155 78.9112C12.9233 77.5422 12.3094 76.0756 11.048 75.4054C9.78659 74.7352 8.22758 75.0473 7.3214 76.1515L9.6404 78.0547ZM10.4125 90.0142L8.63385 92.4301C9.85707 93.3307 11.5603 93.1749 12.5999 92.0673L10.4125 90.0142ZM19.4151 85.9732L19.4034 88.9731C19.4112 88.9732 19.419 88.9732 19.4268 88.9731L19.4151 85.9732ZM28.4087 90.0046L26.2232 92.0598C27.2644 93.167 28.969 93.3207 30.1914 92.4175L28.4087 90.0046ZM31.0309 86.8257L28.0392 86.6028L28.0389 86.6072L31.0309 86.8257ZM29.1678 78.0547L31.4868 76.1515C30.5806 75.0473 29.0216 74.7352 27.7602 75.4054C26.4988 76.0756 25.8848 77.5422 26.2926 78.9112L29.1678 78.0547ZM35.6651 88.4363L38.6359 88.0186L38.635 88.012L35.6651 88.4363ZM31.754 95.909L29.4543 93.9826C29.0019 94.5226 28.754 95.2046 28.754 95.909H31.754ZM31.754 104.557L32.8484 107.351C33.9978 106.9 34.754 105.792 34.754 104.557H31.754ZM24.6883 108.094L22.8679 105.71L22.8586 105.717L24.6883 108.094ZM19.683 114.055V117.055C20.6554 117.055 21.5676 116.583 22.1301 115.79L19.683 114.055ZM19.1304 114.055L16.6833 115.79C17.2458 116.583 18.1579 117.055 19.1304 117.055V114.055ZM14.1251 108.094L15.9548 105.717L15.9454 105.71L14.1251 108.094ZM7.05931 104.557H4.05931C4.05931 105.792 4.81553 106.9 5.96495 107.351L7.05931 104.557ZM7.05931 95.9152H10.0593C10.0593 95.2101 9.81098 94.5276 9.35789 93.9873L7.05931 95.9152ZM3.14304 88.4363L0.173181 88.012L0.172247 88.0186L3.14304 88.4363ZM10.769 86.6028C10.77 86.6163 10.764 86.498 10.797 86.1924C10.8272 85.9117 10.8804 85.5597 10.9561 85.1457C11.1076 84.3176 11.3284 83.3529 11.5633 82.4118C11.7966 81.4773 12.0355 80.5987 12.2169 79.9517C12.3073 79.6291 12.3828 79.3661 12.4354 79.1849C12.4616 79.0944 12.4821 79.0245 12.4958 78.9779C12.5027 78.9546 12.5078 78.9372 12.5112 78.9259C12.5128 78.9203 12.514 78.9162 12.5148 78.9138C12.5151 78.9125 12.5154 78.9117 12.5155 78.9113C12.5156 78.911 12.5156 78.9109 12.5156 78.9109C12.5156 78.9109 12.5156 78.911 12.5156 78.911C12.5156 78.9111 12.5155 78.9112 9.6404 78.0547C6.76527 77.1982 6.76522 77.1984 6.76516 77.1986C6.76513 77.1987 6.76506 77.1989 6.765 77.1991C6.76489 77.1995 6.76474 77.2 6.76456 77.2006C6.7642 77.2018 6.76372 77.2034 6.76312 77.2054C6.76192 77.2095 6.76024 77.2151 6.7581 77.2223C6.75382 77.2368 6.74768 77.2576 6.73983 77.2843C6.72412 77.3377 6.7015 77.4149 6.67301 77.5131C6.61606 77.7094 6.53547 77.99 6.43951 78.3324C6.24806 79.0155 5.99314 79.9522 5.74189 80.9587C5.49225 81.9588 5.23787 83.061 5.05403 84.0663C4.88795 84.9744 4.71625 86.1188 4.78554 87.0486L10.769 86.6028ZM12.1911 87.5983C12.0138 87.4678 11.5223 87.0912 11.0938 86.6564C10.8785 86.4381 10.7439 86.2697 10.6775 86.1677C10.5849 86.0254 10.739 86.1933 10.7693 86.6072L4.78522 87.0443C4.86111 88.0835 5.31024 88.9204 5.64868 89.4404C6.01338 90.0008 6.44589 90.4882 6.82078 90.8685C7.5724 91.631 8.35288 92.2233 8.63385 92.4301L12.1911 87.5983ZM19.4268 82.9732C14.9595 82.9558 11.022 84.9812 8.22503 87.9611L12.5999 92.0673C14.4226 90.1253 16.8289 88.9631 19.4034 88.9731L19.4268 82.9732ZM30.5942 87.9495C27.798 84.9759 23.8648 82.9558 19.4034 82.9732L19.4268 88.9731C21.998 88.9631 24.4013 90.1223 26.2232 92.0598L30.5942 87.9495ZM28.0389 86.6072C28.0689 86.1961 28.2212 86.0277 28.1321 86.1655C28.0683 86.264 27.9373 86.4292 27.7254 86.6452C27.3034 87.0755 26.8154 87.4519 26.626 87.5918L30.1914 92.4175C30.4853 92.2004 31.2632 91.6069 32.0088 90.8467C32.3808 90.4675 32.809 89.9823 33.1699 89.4244C33.5054 88.9058 33.9477 88.0749 34.023 87.0443L28.0389 86.6072ZM29.1678 78.0547C26.2926 78.9112 26.2926 78.9111 26.2926 78.911C26.2926 78.911 26.2926 78.9109 26.2926 78.9109C26.2926 78.9109 26.2926 78.911 26.2927 78.9113C26.2928 78.9117 26.293 78.9125 26.2934 78.9138C26.2941 78.9162 26.2953 78.9203 26.297 78.9259C26.3003 78.9372 26.3055 78.9546 26.3123 78.9779C26.326 79.0245 26.3465 79.0944 26.3728 79.1849C26.4254 79.3661 26.5009 79.6291 26.5913 79.9517C26.7726 80.5987 27.0116 81.4773 27.2449 82.4118C27.4798 83.3529 27.7006 84.3176 27.852 85.1457C27.9278 85.5597 27.981 85.9117 28.0112 86.1924C28.0442 86.498 28.0382 86.6163 28.0392 86.6028L34.0226 87.0486C34.0919 86.1188 33.9202 84.9744 33.7541 84.0663C33.5703 83.061 33.3159 81.9588 33.0663 80.9587C32.815 79.9522 32.5601 79.0155 32.3687 78.3324C32.2727 77.99 32.1921 77.7094 32.1352 77.5131C32.1067 77.4149 32.0841 77.3377 32.0683 77.2843C32.0605 77.2576 32.0544 77.2368 32.0501 77.2223C32.0479 77.2151 32.0463 77.2095 32.0451 77.2054C32.0445 77.2034 32.044 77.2018 32.0436 77.2006C32.0434 77.2 32.0433 77.1995 32.0432 77.1991C32.0431 77.1989 32.043 77.1987 32.043 77.1986C32.043 77.1984 32.0429 77.1982 29.1678 78.0547ZM38.635 88.012C38.4418 86.6597 37.721 85.2101 37.0818 84.0791C36.3828 82.8422 35.5202 81.546 34.7063 80.3946C33.8866 79.2351 33.0851 78.1789 32.4908 77.415C32.1928 77.032 31.9449 76.7198 31.7701 76.5018C31.6827 76.3928 31.6135 76.3071 31.5653 76.2478C31.5412 76.2182 31.5224 76.1951 31.5092 76.1789C31.5026 76.1708 31.4974 76.1644 31.4936 76.1598C31.4918 76.1576 31.4902 76.1557 31.4891 76.1543C31.4885 76.1536 31.488 76.153 31.4877 76.1526C31.4875 76.1523 31.4872 76.152 31.4871 76.1519C31.4869 76.1517 31.4868 76.1515 29.1678 78.0547C26.8488 79.9579 26.8486 79.9577 26.8485 79.9576C26.8485 79.9576 26.8484 79.9575 26.8484 79.9575C26.8484 79.9575 26.8485 79.9576 26.8487 79.9578C26.849 79.9582 26.8497 79.959 26.8507 79.9603C26.8528 79.9628 26.8563 79.9671 26.8612 79.9731C26.871 79.9851 26.8863 80.0039 26.9068 80.0292C26.9478 80.0797 27.0094 80.1559 27.0888 80.2549C27.2477 80.4531 27.4774 80.7422 27.7552 81.0993C28.3126 81.8157 29.0556 82.7953 29.8069 83.8582C30.564 84.9292 31.2991 86.0418 31.8583 87.0312C32.1376 87.5254 32.3527 87.9533 32.5015 88.3042C32.575 88.4777 32.6251 88.6155 32.6575 88.7194C32.6908 88.8266 32.6967 88.8704 32.6953 88.8605L38.635 88.012ZM34.0538 97.8354C34.2924 97.5505 35.4474 96.1525 36.5167 94.4782C37.0489 93.6449 37.6108 92.6647 38.0235 91.6663C38.399 90.7578 38.8323 89.4158 38.6359 88.0186L32.6943 88.8539C32.6622 88.6254 32.7407 88.74 32.4785 89.3744C32.2534 89.9188 31.8948 90.5679 31.46 91.2487C30.5952 92.6028 29.6304 93.7724 29.4543 93.9826L34.0538 97.8354ZM34.754 104.557V95.909H28.754V104.557H34.754ZM26.5086 110.479C27.2412 109.92 28.7179 109.157 30.2404 108.464C30.9563 108.138 31.6138 107.857 32.0926 107.658C32.3313 107.559 32.524 107.48 32.6553 107.428C32.721 107.401 32.7712 107.381 32.804 107.368C32.8204 107.362 32.8325 107.357 32.84 107.354C32.8437 107.352 32.8463 107.351 32.8477 107.351C32.8484 107.351 32.8488 107.35 32.849 107.35C32.849 107.35 32.849 107.35 32.8489 107.35C32.8489 107.35 32.8487 107.35 32.8487 107.35C32.8486 107.351 32.8484 107.351 31.754 104.557C30.6597 101.764 30.6595 101.764 30.6593 101.764C30.6592 101.764 30.6589 101.764 30.6587 101.764C30.6583 101.765 30.6579 101.765 30.6573 101.765C30.6562 101.765 30.6548 101.766 30.6531 101.767C30.6497 101.768 30.6451 101.77 30.6393 101.772C30.6278 101.777 30.6115 101.783 30.5908 101.791C30.5495 101.808 30.4903 101.831 30.4152 101.861C30.2652 101.922 30.0513 102.009 29.7892 102.118C29.2663 102.335 28.5452 102.643 27.7532 103.004C26.2599 103.684 24.2038 104.69 22.8679 105.71L26.5086 110.479ZM19.683 114.055C22.1301 115.79 22.13 115.79 22.1299 115.79C22.1299 115.79 22.1299 115.79 22.1299 115.79C22.1298 115.79 22.1299 115.79 22.1299 115.79C22.1301 115.79 22.1304 115.79 22.1309 115.789C22.132 115.787 22.1339 115.785 22.1365 115.781C22.1417 115.774 22.1499 115.762 22.1611 115.747C22.1834 115.715 22.2172 115.668 22.2613 115.607C22.3497 115.484 22.4792 115.306 22.6405 115.087C22.9638 114.647 23.4104 114.051 23.9057 113.418C24.99 112.032 26.014 110.859 26.5179 110.472L22.8586 105.717C21.6494 106.647 20.1707 108.455 19.1806 109.72C18.6388 110.412 18.1553 111.059 17.8079 111.531C17.6337 111.767 17.4926 111.962 17.3943 112.098C17.3451 112.167 17.3065 112.22 17.2797 112.258C17.2663 112.277 17.2559 112.291 17.2485 112.302C17.2448 112.307 17.2419 112.311 17.2398 112.314C17.2388 112.315 17.2379 112.316 17.2373 112.317C17.2369 112.318 17.2367 112.318 17.2364 112.318C17.2363 112.319 17.2362 112.319 17.2361 112.319C17.236 112.319 17.2359 112.319 19.683 114.055ZM19.1304 117.055H19.683V111.055H19.1304V117.055ZM12.2954 110.472C12.7994 110.859 13.8234 112.032 14.9076 113.418C15.403 114.051 15.8495 114.647 16.1729 115.087C16.3341 115.306 16.4637 115.484 16.552 115.607C16.5962 115.668 16.63 115.715 16.6523 115.747C16.6634 115.762 16.6717 115.774 16.6769 115.781C16.6795 115.785 16.6813 115.787 16.6824 115.789C16.6829 115.79 16.6833 115.79 16.6834 115.79C16.6835 115.79 16.6835 115.79 16.6835 115.79C16.6835 115.79 16.6834 115.79 16.6834 115.79C16.6834 115.79 16.6833 115.79 19.1304 114.055C21.5775 112.319 21.5773 112.319 21.5772 112.319C21.5772 112.319 21.577 112.319 21.5769 112.318C21.5767 112.318 21.5764 112.318 21.5761 112.317C21.5754 112.316 21.5746 112.315 21.5735 112.314C21.5714 112.311 21.5685 112.307 21.5649 112.302C21.5575 112.291 21.5471 112.277 21.5337 112.258C21.5069 112.22 21.4683 112.167 21.4191 112.098C21.3207 111.962 21.1797 111.767 21.0055 111.531C20.6581 111.059 20.1746 110.412 19.6327 109.72C18.6426 108.455 17.164 106.647 15.9548 105.717L12.2954 110.472ZM7.05931 104.557C5.96495 107.351 5.96479 107.351 5.96465 107.35C5.96462 107.35 5.9645 107.35 5.96445 107.35C5.96436 107.35 5.96434 107.35 5.9644 107.35C5.96452 107.35 5.96493 107.351 5.96564 107.351C5.96706 107.351 5.96965 107.352 5.97339 107.354C5.98088 107.357 5.99295 107.362 6.00937 107.368C6.04221 107.381 6.0924 107.401 6.15803 107.428C6.28935 107.48 6.48202 107.559 6.72076 107.658C7.19956 107.857 7.85703 108.138 8.57299 108.464C10.0955 109.157 11.5722 109.92 12.3048 110.479L15.9454 105.71C14.6096 104.69 12.5534 103.684 11.0601 103.004C10.2682 102.643 9.54703 102.335 9.02419 102.118C8.7621 102.009 8.54819 101.922 8.39814 101.861C8.32308 101.831 8.26389 101.808 8.22252 101.791C8.20183 101.783 8.18559 101.777 8.17403 101.772C8.16826 101.77 8.16365 101.768 8.16025 101.767C8.15855 101.766 8.15715 101.765 8.15605 101.765C8.1555 101.765 8.15503 101.765 8.15463 101.764C8.15444 101.764 8.1542 101.764 8.1541 101.764C8.15388 101.764 8.15368 101.764 7.05931 104.557ZM4.05931 95.9152V104.557H10.0593V95.9152H4.05931ZM0.172247 88.0186C-0.0248987 89.4211 0.4124 90.7686 0.790197 91.6796C1.20569 92.6815 1.77099 93.665 2.30561 94.5003C3.37974 96.1786 4.53623 97.5753 4.76074 97.843L9.35789 93.9873C9.19564 93.7939 8.22899 92.6249 7.35918 91.2659C6.92182 90.5826 6.55994 89.9296 6.3325 89.3811C6.06736 88.7418 6.14597 88.6252 6.11383 88.8539L0.172247 88.0186ZM9.6404 78.0547C7.3214 76.1515 7.32123 76.1517 7.32103 76.1519C7.32093 76.152 7.32071 76.1523 7.32052 76.1526C7.32013 76.153 7.31965 76.1536 7.31907 76.1543C7.31793 76.1557 7.31641 76.1576 7.31454 76.1598C7.31079 76.1644 7.30559 76.1708 7.29899 76.1789C7.28578 76.1951 7.26696 76.2182 7.24288 76.2478C7.19472 76.3071 7.12549 76.3928 7.03806 76.5018C6.8633 76.7198 6.61534 77.032 6.31734 77.415C5.72304 78.1789 4.92162 79.2351 4.10189 80.3946C3.28799 81.546 2.42538 82.8422 1.72635 84.0791C1.08719 85.2101 0.366373 86.6597 0.173189 88.012L6.11289 88.8605C6.11147 88.8704 6.11737 88.8266 6.15073 88.7194C6.18308 88.6155 6.23318 88.4777 6.30671 88.3042C6.45546 87.9533 6.67059 87.5254 6.94986 87.0312C7.50905 86.0418 8.24414 84.9292 9.00129 83.8582C9.75261 82.7953 10.4956 81.8157 11.0529 81.0993C11.3308 80.7422 11.5604 80.4531 11.7193 80.2549C11.7988 80.1559 11.8604 80.0797 11.9014 80.0292C11.9218 80.0039 11.9372 79.9851 11.947 79.9731C11.9519 79.9671 11.9554 79.9628 11.9575 79.9603C11.9585 79.959 11.9592 79.9582 11.9595 79.9578C11.9597 79.9576 11.9598 79.9575 11.9597 79.9575C11.9597 79.9575 11.9596 79.9576 11.9596 79.9576C11.9595 79.9577 11.9594 79.9579 9.6404 78.0547Z" fill="#FEFCFB" mask="url(#path-3-outside-1_9745_14)"/>
<path d="M20.9816 95.7445C21.1193 94.8966 20.5435 94.0977 19.6957 93.9601C18.8478 93.8225 18.0489 94.3982 17.9113 95.2461C17.7737 96.0939 18.3494 96.8928 19.1973 97.0304C20.0451 97.1681 20.844 96.5923 20.9816 95.7445Z" fill="#FEFCFB"/>
<mask id="path-6-outside-2_9745_14" maskUnits="userSpaceOnUse" x="4.65625" y="123.055" width="30" height="42" fill="black">
<rect fill="white" x="4.65625" y="123.055" width="30" height="42"/>
<path fill-rule="evenodd" clip-rule="evenodd" d="M7.86645 137.18C7.58635 137.46 7.58616 137.914 7.86602 138.194L10.6157 140.946C10.8956 141.226 11.3495 141.226 11.6296 140.946L22.5544 130.031C22.8345 129.751 22.8347 129.297 22.5548 129.017L19.8051 126.265C19.5253 125.985 19.0713 125.985 18.7912 126.264L7.86645 137.18ZM7.86602 147.893C7.58616 147.613 7.58635 147.159 7.86645 146.879L18.7885 135.967C19.0686 135.687 19.5225 135.687 19.8024 135.967L22.5521 138.719C22.832 138.999 22.8318 139.453 22.5517 139.733L11.6296 150.646C11.3495 150.926 10.8956 150.925 10.6157 150.645L7.86602 147.893ZM15.959 149.438C15.959 149.247 16.0356 149.063 16.1718 148.928L18.9182 146.212C19.1955 145.938 19.6413 145.936 19.9214 146.207L22.7266 148.928C22.8659 149.063 22.9445 149.248 22.9445 149.442V161.001C22.9445 161.397 22.6235 161.718 22.2276 161.718H16.6759C16.28 161.718 15.959 161.397 15.959 161.001V149.438ZM28.3414 140.945C28.0612 141.225 27.6072 141.224 27.3276 140.944L21.1461 134.75C20.8665 134.47 20.8669 134.016 21.1472 133.736L23.7285 131.16C24.0088 130.881 24.4627 130.881 24.7424 131.161L30.9238 137.355C31.2035 137.635 31.203 138.089 30.9228 138.369L28.3414 140.945ZM27.3276 150.697C27.6072 150.977 28.0612 150.978 28.3414 150.698L30.942 148.103C31.2222 147.823 31.2227 147.369 30.943 147.089L24.7616 140.895C24.4819 140.615 24.028 140.614 23.7477 140.894L21.1472 143.489C20.8669 143.769 20.8665 144.223 21.1461 144.503L27.3276 150.697Z"/>
</mask>
<path fill-rule="evenodd" clip-rule="evenodd" d="M7.86645 137.18C7.58635 137.46 7.58616 137.914 7.86602 138.194L10.6157 140.946C10.8956 141.226 11.3495 141.226 11.6296 140.946L22.5544 130.031C22.8345 129.751 22.8347 129.297 22.5548 129.017L19.8051 126.265C19.5253 125.985 19.0713 125.985 18.7912 126.264L7.86645 137.18ZM7.86602 147.893C7.58616 147.613 7.58635 147.159 7.86645 146.879L18.7885 135.967C19.0686 135.687 19.5225 135.687 19.8024 135.967L22.5521 138.719C22.832 138.999 22.8318 139.453 22.5517 139.733L11.6296 150.646C11.3495 150.926 10.8956 150.925 10.6157 150.645L7.86602 147.893ZM15.959 149.438C15.959 149.247 16.0356 149.063 16.1718 148.928L18.9182 146.212C19.1955 145.938 19.6413 145.936 19.9214 146.207L22.7266 148.928C22.8659 149.063 22.9445 149.248 22.9445 149.442V161.001C22.9445 161.397 22.6235 161.718 22.2276 161.718H16.6759C16.28 161.718 15.959 161.397 15.959 161.001V149.438ZM28.3414 140.945C28.0612 141.225 27.6072 141.224 27.3276 140.944L21.1461 134.75C20.8665 134.47 20.8669 134.016 21.1472 133.736L23.7285 131.16C24.0088 130.881 24.4627 130.881 24.7424 131.161L30.9238 137.355C31.2035 137.635 31.203 138.089 30.9228 138.369L28.3414 140.945ZM27.3276 150.697C27.6072 150.977 28.0612 150.978 28.3414 150.698L30.942 148.103C31.2222 147.823 31.2227 147.369 30.943 147.089L24.7616 140.895C24.4819 140.615 24.028 140.614 23.7477 140.894L21.1472 143.489C20.8669 143.769 20.8665 144.223 21.1461 144.503L27.3276 150.697Z" fill="#451E11"/>
<path d="M7.86602 138.194L5.7438 140.314L5.7438 140.314L7.86602 138.194ZM7.86645 137.18L5.74603 135.058L5.74603 135.058L7.86645 137.18ZM10.6157 140.946L12.7379 138.825L12.7379 138.825L10.6157 140.946ZM11.6296 140.946L9.50917 138.824L9.50917 138.824L11.6296 140.946ZM22.5544 130.031L24.6748 132.153L24.6748 132.153L22.5544 130.031ZM22.5548 129.017L20.4326 131.137L20.4326 131.137L22.5548 129.017ZM19.8051 126.265L21.9274 124.144L21.9274 124.144L19.8051 126.265ZM18.7912 126.264L20.9117 128.387L20.9117 128.387L18.7912 126.264ZM7.86645 146.879L5.74603 144.757L5.74602 144.757L7.86645 146.879ZM7.86602 147.893L5.7438 150.014L5.7438 150.014L7.86602 147.893ZM18.7885 135.967L16.6681 133.844L16.6681 133.844L18.7885 135.967ZM19.8024 135.967L21.9246 133.847L21.9246 133.847L19.8024 135.967ZM22.5521 138.719L20.4299 140.839L20.4299 140.839L22.5521 138.719ZM22.5517 139.733L24.6721 141.855L24.6721 141.855L22.5517 139.733ZM11.6296 150.646L9.50917 148.524L9.50916 148.524L11.6296 150.646ZM10.6157 150.645L8.49348 152.766L8.49349 152.766L10.6157 150.645ZM16.1718 148.928L14.0623 146.795L14.0623 146.795L16.1718 148.928ZM18.9182 146.212L21.0277 148.346L21.0277 148.345L18.9182 146.212ZM19.9214 146.207L22.0098 144.054L22.0098 144.054L19.9214 146.207ZM22.7266 148.928L24.8151 146.774L24.815 146.774L22.7266 148.928ZM27.3276 140.944L29.451 138.825L29.451 138.825L27.3276 140.944ZM28.3414 140.945L30.4606 143.069L30.4606 143.069L28.3414 140.945ZM21.1461 134.75L23.2696 132.631L23.2696 132.631L21.1461 134.75ZM21.1472 133.736L23.2664 135.86L23.2664 135.86L21.1472 133.736ZM23.7285 131.16L21.6093 129.037L21.6093 129.037L23.7285 131.16ZM24.7424 131.161L22.6189 133.28L22.6189 133.281L24.7424 131.161ZM30.9238 137.355L33.0473 135.236L33.0473 135.236L30.9238 137.355ZM30.9228 138.369L33.042 140.493L33.042 140.493L30.9228 138.369ZM28.3414 150.698L30.4606 152.822L30.4606 152.822L28.3414 150.698ZM27.3276 150.697L29.451 148.578L29.451 148.578L27.3276 150.697ZM30.942 148.103L28.8228 145.979L28.8228 145.979L30.942 148.103ZM30.943 147.089L33.0665 144.97L33.0665 144.97L30.943 147.089ZM24.7616 140.895L22.6381 143.014L22.6381 143.014L24.7616 140.895ZM23.7477 140.894L21.6285 138.771L21.6285 138.771L23.7477 140.894ZM21.1472 143.489L23.2663 145.613L23.2664 145.613L21.1472 143.489ZM21.1461 144.503L19.0227 146.622L19.0227 146.622L21.1461 144.503ZM9.98824 136.073C10.8795 136.965 10.8788 138.411 9.98687 139.302L5.74603 135.058C4.29386 136.509 4.29287 138.862 5.7438 140.314L9.98824 136.073ZM12.7379 138.825L9.98824 136.073L5.7438 140.314L8.49348 143.066L12.7379 138.825ZM9.50917 138.824C10.4011 137.933 11.8467 137.933 12.7379 138.825L8.49348 143.066C9.94442 144.518 12.2978 144.519 13.75 143.069L9.50917 138.824ZM20.434 127.909L9.50917 138.824L13.75 143.069L24.6748 132.153L20.434 127.909ZM20.4326 131.137C19.5414 130.245 19.542 128.8 20.434 127.909L24.6748 132.153C26.127 130.702 26.128 128.349 24.677 126.896L20.4326 131.137ZM17.6829 128.385L20.4326 131.137L24.677 126.896L21.9274 124.144L17.6829 128.385ZM20.9117 128.387C20.0197 129.278 18.5741 129.277 17.6829 128.385L21.9274 124.144C20.4764 122.692 18.123 122.691 16.6708 124.142L20.9117 128.387ZM9.98687 139.302L20.9117 128.387L16.6708 124.142L5.74603 135.058L9.98687 139.302ZM5.74602 144.757C4.29386 146.208 4.29286 148.562 5.7438 150.014L9.98824 145.773C10.8795 146.665 10.8788 148.11 9.98687 149.002L5.74602 144.757ZM16.6681 133.844L5.74603 144.757L9.98687 149.002L20.9089 138.089L16.6681 133.844ZM21.9246 133.847C20.4737 132.394 18.1203 132.393 16.6681 133.844L20.9089 138.089C20.017 138.98 18.5714 138.979 17.6802 138.087L21.9246 133.847ZM24.6743 136.599L21.9246 133.847L17.6802 138.087L20.4299 140.839L24.6743 136.599ZM24.6721 141.855C26.1242 140.404 26.1252 138.051 24.6743 136.599L20.4299 140.839C19.5387 139.948 19.5393 138.502 20.4312 137.611L24.6721 141.855ZM13.75 152.768L24.6721 141.855L20.4312 137.611L9.50917 148.524L13.75 152.768ZM8.49349 152.766C9.94441 154.218 12.2978 154.219 13.75 152.768L9.50916 148.524C10.4011 147.632 11.8467 147.633 12.7379 148.525L8.49349 152.766ZM5.7438 150.014L8.49348 152.766L12.7379 148.525L9.98824 145.773L5.7438 150.014ZM14.0623 146.795C13.3563 147.494 12.959 148.445 12.959 149.438H18.959C18.959 150.048 18.715 150.633 18.2813 151.062L14.0623 146.795ZM16.8087 144.079L14.0623 146.795L18.2813 151.062L21.0277 148.346L16.8087 144.079ZM22.0098 144.054C20.5578 142.646 18.2467 142.657 16.8087 144.079L21.0277 148.345C20.1444 149.219 18.7248 149.226 17.833 148.361L22.0098 144.054ZM24.815 146.774L22.0098 144.054L17.833 148.361L20.6382 151.081L24.815 146.774ZM25.9445 149.442C25.9445 148.437 25.537 147.474 24.8151 146.774L20.6382 151.081C20.1948 150.651 19.9445 150.06 19.9445 149.442H25.9445ZM25.9445 161.001V149.442H19.9445V161.001H25.9445ZM22.2276 164.718C24.2804 164.718 25.9445 163.054 25.9445 161.001H19.9445C19.9445 159.74 20.9666 158.718 22.2276 158.718V164.718ZM16.6759 164.718H22.2276V158.718H16.6759V164.718ZM12.959 161.001C12.959 163.054 14.6231 164.718 16.6759 164.718V158.718C17.9368 158.718 18.959 159.74 18.959 161.001H12.959ZM12.959 149.438V161.001H18.959V149.438H12.959ZM25.2041 143.063C26.6542 144.516 29.0076 144.519 30.4606 143.069L26.2223 138.822C27.1148 137.931 28.5603 137.933 29.451 138.825L25.2041 143.063ZM19.0227 136.87L25.2041 143.063L29.451 138.825L23.2696 132.631L19.0227 136.87ZM19.028 131.613C17.575 133.063 17.5726 135.416 19.0227 136.87L23.2696 132.631C24.1603 133.524 24.1588 134.969 23.2664 135.86L19.028 131.613ZM21.6093 129.037L19.028 131.613L23.2664 135.86L25.8477 133.284L21.6093 129.037ZM26.8659 129.042C25.4158 127.589 23.0623 127.587 21.6093 129.037L25.8477 133.284C24.9552 134.174 23.5096 134.173 22.6189 133.28L26.8659 129.042ZM33.0473 135.236L26.8659 129.042L22.6189 133.281L28.8003 139.474L33.0473 135.236ZM33.042 140.493C34.495 139.042 34.4973 136.689 33.0473 135.236L28.8003 139.474C27.9096 138.582 27.9111 137.136 28.8036 136.246L33.042 140.493ZM30.4606 143.069L33.042 140.493L28.8036 136.246L26.2223 138.822L30.4606 143.069ZM26.2223 148.575C27.1148 147.684 28.5603 147.685 29.451 148.578L25.2041 152.816C26.6542 154.269 29.0076 154.272 30.4606 152.822L26.2223 148.575ZM28.8228 145.979L26.2223 148.575L30.4606 152.822L33.0612 150.226L28.8228 145.979ZM28.8195 149.208C27.9288 148.316 27.9303 146.87 28.8228 145.979L33.0612 150.226C34.5142 148.776 34.5165 146.423 33.0665 144.97L28.8195 149.208ZM22.6381 143.014L28.8195 149.208L33.0665 144.97L26.885 138.776L22.6381 143.014ZM25.8669 143.018C24.9744 143.908 23.5288 143.907 22.6381 143.014L26.8851 138.776C25.435 137.323 23.0815 137.321 21.6285 138.771L25.8669 143.018ZM23.2664 145.613L25.8669 143.018L21.6285 138.771L19.028 141.366L23.2664 145.613ZM23.2696 142.384C24.1603 143.277 24.1588 144.722 23.2663 145.613L19.028 141.366C17.575 142.816 17.5726 145.169 19.0227 146.622L23.2696 142.384ZM29.451 148.578L23.2696 142.384L19.0227 146.622L25.2041 152.816L29.451 148.578Z" fill="#FDFCFC" mask="url(#path-6-outside-2_9745_14)"/>
<rect x="326.123" y="47.3281" width="23" height="23" rx="11.5" fill="white"/>
<rect x="326.123" y="47.3281" width="23" height="23" rx="11.5" stroke="#FDFCFC" stroke-width="3"/>
<path d="M337.623 68.8281C332.1 68.8281 327.623 64.3509 327.623 58.8281C327.623 53.3053 332.1 48.8281 337.623 48.8281C343.146 48.8281 347.623 53.3053 347.623 58.8281C347.623 64.3509 343.146 68.8281 337.623 68.8281ZM336.626 62.8281L343.697 55.7571L342.283 54.3428L336.626 59.9997L333.797 57.1712L332.383 58.5855L336.626 62.8281Z" fill="#12A594"/>
<rect x="354.123" y="47.3281" width="23" height="23" rx="11.5" fill="white"/>
<rect x="354.123" y="47.3281" width="23" height="23" rx="11.5" stroke="#FDFCFC" stroke-width="3"/>
<path d="M365.623 68.8281C360.1 68.8281 355.623 64.3509 355.623 58.8281C355.623 53.3053 360.1 48.8281 365.623 48.8281C371.146 48.8281 375.623 53.3053 375.623 58.8281C375.623 64.3509 371.146 68.8281 365.623 68.8281ZM365.623 57.4139L362.795 54.5855L361.38 55.9997L364.209 58.8281L361.38 61.6565L362.795 63.0707L365.623 60.2423L368.451 63.0707L369.866 61.6565L367.037 58.8281L369.866 55.9997L368.451 54.5855L365.623 57.4139Z" fill="#E5484D"/>
<path d="M363.724 82.8281C361.7 82.8281 359.935 87.1604 359.935 93.8429C357.354 93.2395 354.586 92.9027 351.625 92.9027C348.665 92.9027 345.897 93.2395 343.315 93.8429C343.315 87.1604 341.547 82.8281 339.527 82.8281C331.641 82.8281 320.275 116.36 320.275 122.688C320.275 129.016 332.918 147.44 351.622 147.44C370.326 147.44 382.968 129.013 382.968 122.688C382.968 116.363 371.606 82.8281 363.724 82.8281Z" fill="url(#paint0_linear_9745_14)"/>
<path d="M363.724 81.3281C362.639 81.3281 361.772 81.9151 361.153 82.6176C360.534 83.3192 360.044 84.2588 359.66 85.3192C359.029 87.0626 358.611 89.3461 358.48 92.0096C356.311 91.6162 354.027 91.4027 351.625 91.4027C349.223 91.4027 346.939 91.6162 344.771 92.0096C344.639 89.3459 344.22 87.0623 343.589 85.3189C343.205 84.2585 342.715 83.3192 342.096 82.6178C341.478 81.9158 340.611 81.3281 339.527 81.3281C338.013 81.3281 336.63 82.1208 335.449 83.1508C334.245 84.201 333.07 85.6546 331.946 87.3309C329.693 90.6902 327.49 95.181 325.559 99.8075C323.624 104.446 321.939 109.282 320.736 113.366C320.134 115.408 319.649 117.275 319.312 118.844C318.982 120.384 318.775 121.73 318.775 122.688C318.775 124.661 319.719 127.274 321.237 129.963C322.785 132.706 325.037 135.713 327.884 138.507C333.567 144.085 341.76 148.94 351.622 148.94C361.484 148.94 369.677 144.084 375.36 138.506C378.206 135.712 380.458 132.704 382.007 129.961C383.524 127.273 384.468 124.66 384.468 122.688C384.468 121.73 384.261 120.385 383.931 118.845C383.595 117.276 383.11 115.41 382.509 113.368C381.305 109.284 379.621 104.448 377.686 99.809C375.757 95.1823 373.554 90.6912 371.302 87.3317C370.178 85.6552 369.004 84.2015 367.8 83.1512C366.62 82.1211 365.237 81.3281 363.724 81.3281Z" fill="#FF953F" stroke="white" stroke-width="3"/>
<path d="M375.968 139.113L375.969 139.112L375.976 139.105L375.985 139.096L375.985 139.096C377.49 137.62 380.023 138.688 380.023 140.791V143.246C380.023 146.099 378.675 148.81 376.335 150.488L376.335 150.488C372.366 153.335 368.088 155.485 363.65 156.878L362.324 157.294L362.312 157.262C362.051 157.336 361.789 157.408 361.526 157.477C362.187 158.885 362.557 160.457 362.557 162.115C362.557 168.38 357.284 173.418 350.935 173.024C350.935 173.024 350.935 173.024 350.935 173.024L351.028 171.527C346.338 171.236 342.518 167.419 342.22 162.729C342.109 160.962 342.484 159.292 343.223 157.84L375.968 139.113ZM375.968 139.113L375.959 139.122C368.901 146.045 360.253 149.797 351.625 149.797C342.996 149.797 334.344 146.045 327.291 139.122L327.282 139.113L327.275 139.106L327.268 139.099C325.772 137.642 323.233 138.683 323.233 140.798V143.25C323.233 146.108 324.591 148.822 326.932 150.499C330.448 153.019 334.207 154.994 338.107 156.383L339.21 156.775L339.235 156.738C340.054 157.011 340.886 157.258 341.73 157.48L375.968 139.113Z" fill="white" stroke="white" stroke-width="3"/>
<path fill-rule="evenodd" clip-rule="evenodd" d="M377.016 140.188L377.03 140.173L377.037 140.166C377.591 139.623 378.524 140.016 378.524 140.791V143.246C378.524 145.628 377.398 147.88 375.462 149.269C371.617 152.027 367.481 154.103 363.202 155.447L363.195 155.429C362.328 155.706 361.451 155.955 360.557 156.176C360.416 156.211 360.28 156.243 360.139 156.275C359.827 156.348 359.508 156.418 359.192 156.485C360.364 158.057 361.058 160.004 361.058 162.115C361.058 167.521 356.509 171.867 351.029 171.527C346.339 171.236 342.519 167.419 342.221 162.729C342.074 160.382 342.782 158.207 344.066 156.485C343.987 156.468 343.909 156.452 343.831 156.435C343.732 156.415 343.634 156.394 343.537 156.373C343.299 156.322 343.061 156.265 342.825 156.209C342.765 156.194 342.705 156.18 342.646 156.166C341.274 155.826 339.934 155.415 338.633 154.938L338.612 154.97C334.848 153.63 331.213 151.721 327.807 149.28C325.867 147.891 324.734 145.635 324.734 143.25V140.798C324.734 140.023 325.667 139.633 326.222 140.173L326.236 140.188C333.532 147.351 342.551 151.297 351.626 151.297C360.701 151.297 369.716 147.351 377.016 140.188ZM351.352 166.321L357.315 160.358H357.322C357.603 160.077 357.603 159.621 357.322 159.34L356.428 158.446C356.147 158.165 355.691 158.165 355.41 158.446L350.545 163.311L347.784 160.551C347.504 160.27 347.048 160.27 346.767 160.551L345.873 161.445C345.592 161.726 345.592 162.182 345.873 162.462L349.731 166.321C350.18 166.767 350.906 166.767 351.352 166.321Z" fill="#974EF2"/>
<path fill-rule="evenodd" clip-rule="evenodd" d="M366.818 107.933H359.365V107.937H358.667C356.737 107.937 355.169 109.502 355.169 111.434H355.162C355.162 111.858 355.238 112.264 355.377 112.639L356.478 115.272H356.481L357.828 117.991C358.543 119.58 360.139 120.611 361.89 120.611H369.983C372.789 120.611 375.3 123.403 375.3 126.15C375.3 128.897 373.048 132.492 368.821 136.642C365.913 139.494 359.813 144.282 351.626 144.282C343.438 144.282 337.338 139.497 334.43 136.642C330.203 132.496 327.951 128.9 327.951 126.15C327.951 123.4 330.463 120.611 333.269 120.611H341.362C343.112 120.611 344.708 119.58 345.424 117.991L346.757 115.3L347.88 112.615C348.014 112.247 348.086 111.849 348.086 111.434H348.079C348.079 109.502 346.511 107.937 344.582 107.937H343.884V107.933H336.44C333.633 107.933 331.35 105.65 331.35 102.843V101.135C331.35 100.216 332.093 99.4688 333.016 99.4688C333.938 99.4688 334.682 100.212 334.682 101.135V102.843C334.682 103.815 335.471 104.604 336.443 104.604H344.536C347.588 104.604 350.369 106.397 351.629 109.175C352.895 106.397 355.673 104.604 358.722 104.604H366.814C367.786 104.604 368.575 103.815 368.575 102.843V101.135C368.575 100.216 369.319 99.4688 370.241 99.4688C371.164 99.4688 371.908 100.212 371.908 101.135V102.843C371.908 105.65 369.624 107.933 366.818 107.933Z" fill="#FFFAF6"/>
<path fill-rule="evenodd" clip-rule="evenodd" d="M340.126 112.73H339.635C338.688 112.73 337.92 113.498 337.92 114.446V116.095C337.92 117.042 338.688 117.81 339.635 117.81H340.126C341.074 117.81 341.842 117.042 341.842 116.095V114.446C341.842 113.498 341.074 112.73 340.126 112.73ZM363.608 112.731H363.117C362.17 112.731 361.402 113.499 361.402 114.446V116.095C361.402 117.042 362.17 117.81 363.117 117.81H363.608C364.556 117.81 365.324 117.042 365.324 116.095V114.446C365.324 113.499 364.556 112.731 363.608 112.731ZM357.846 127.815C357.923 127.545 358.169 127.362 358.449 127.362L358.442 127.366C358.874 127.366 359.186 127.794 359.039 128.197C358.449 129.8 356.913 130.947 355.106 130.947C353.65 130.947 352.367 130.204 351.616 129.074C350.865 130.2 349.581 130.947 348.126 130.947C346.365 130.947 344.856 129.857 344.239 128.313C344.056 127.861 344.383 127.366 344.87 127.366H344.926C345.203 127.366 345.438 127.541 345.54 127.797C345.993 128.913 347.147 129.674 348.452 129.527C349.876 129.365 350.918 128.096 350.918 126.664V125.545C350.918 125.163 350.753 124.798 350.462 124.549C349.322 123.563 346.438 121.059 346.438 121.059C345.488 120.231 346.073 118.67 347.333 118.67H355.909C357.169 118.67 357.755 120.231 356.804 121.059C356.804 121.059 353.921 123.567 352.78 124.549C352.489 124.798 352.324 125.163 352.324 125.545V126.756C352.324 128.99 354.966 130.618 357.292 128.681C357.569 128.45 357.751 128.148 357.846 127.815Z" fill="#2F1708"/>
<path fill-rule="evenodd" clip-rule="evenodd" d="M84.6813 68.3697C92.5627 63.3573 102.906 59.6088 111.836 58.5283C116.743 57.9346 124.241 58.1083 128.627 58.9176C139.764 60.9718 148.522 64.9475 157.249 71.9107C158.294 72.7445 163.622 77.8775 169.09 83.3176L179.032 93.2086L188.847 83.4443C194.245 78.0738 199.517 72.9988 200.562 72.1662C209.626 64.9444 219.733 60.4905 231.073 58.7213C234.598 58.1714 243.682 58.1078 247.041 58.6099C253.008 59.502 257.204 60.6823 263.125 63.1357C267.503 64.95 270.318 66.3945 273.499 68.4598C282.707 74.439 289.828 82.5484 294.801 92.7168C296.98 97.1742 298.223 100.537 299.333 104.988C302.358 117.106 301.798 129.555 297.693 141.488C295.567 147.669 290.889 155.871 286.628 160.89C277.178 172.02 263.843 179.393 249.067 181.656C244.469 182.36 234.531 182.307 230.197 181.555C219.736 179.74 209.961 175.446 200.862 168.668C198.637 167.011 195.559 164.133 188.466 157.081L179.029 147.699L169.216 157.462C163.818 162.831 158.547 167.905 157.502 168.738C148.453 175.948 138.312 180.417 126.991 182.183C123.466 182.733 114.382 182.796 111.024 182.294C103.683 181.197 98.2171 179.465 91.3765 176.069C73.75 167.319 61.0907 150.531 57.7435 131.467C56.2197 122.788 56.5589 113.692 58.7308 104.988C62.4871 89.9361 72.1003 76.3709 84.6813 68.3697ZM100.236 104.747C104.33 100.69 108.993 98.5143 115.364 97.6878C119.483 97.1534 125.189 98.0771 129.325 99.9479C132.482 101.376 134.195 102.831 142.499 111.142L150.67 119.321L141.106 128.842C135.329 134.593 130.901 138.791 129.925 139.444C124.836 142.849 118.603 144.096 112.797 142.87C109.863 142.251 105.478 140.584 103.385 139.293C98.848 136.496 94.9765 130.545 93.9268 124.757C93.5066 122.439 93.576 117.816 94.0631 115.674C95.0677 111.258 96.8511 108.101 100.236 104.747ZM236.023 97.6859C232.334 98.1086 228.422 99.6927 225.132 102.096C224.226 102.758 219.61 107.156 214.874 111.87L206.262 120.441L214.494 128.696C219.021 133.236 223.566 137.632 224.593 138.466C229.88 142.756 237.701 144.631 245.045 143.368C248.19 142.828 249.421 142.376 251.535 140.989C256.25 137.894 259.947 132.6 261.633 126.531C262.151 124.665 262.229 123.839 262.215 120.326C262.201 116.663 262.133 116.055 261.51 114.009C259.722 108.14 255.91 103.22 251.348 100.893C249.342 99.8703 244.643 98.2636 242.736 97.949C240.263 97.541 238.046 97.4541 236.023 97.6859Z" fill="#FDFCFC"/>
<path fill-rule="evenodd" clip-rule="evenodd" d="M111.836 58.5283C102.906 59.6088 92.5627 63.3573 84.6813 68.3697C72.1003 76.3709 62.4871 89.9361 58.7308 104.988C56.5589 113.692 56.2197 122.788 57.7435 131.467C61.0907 150.531 73.75 167.319 91.3765 176.069C98.2171 179.465 103.683 181.197 111.024 182.294C114.382 182.796 123.466 182.733 126.991 182.183C138.312 180.417 148.453 175.948 157.502 168.738C158.547 167.905 163.818 162.831 169.216 157.462L179.029 147.699L188.466 157.081C195.559 164.133 198.637 167.011 200.862 168.668C209.961 175.446 219.736 179.74 230.197 181.555C234.531 182.307 244.469 182.36 249.067 181.656C263.843 179.393 277.178 172.02 286.628 160.89C290.889 155.871 295.567 147.669 297.693 141.488C301.798 129.555 302.358 117.106 299.333 104.988C298.223 100.537 296.98 97.1742 294.801 92.7168C289.828 82.5484 282.707 74.439 273.499 68.4598C270.318 66.3945 267.503 64.95 263.125 63.1357C257.204 60.6823 253.008 59.502 247.041 58.6099C243.682 58.1078 234.598 58.1714 231.073 58.7213C219.733 60.4905 209.626 64.9444 200.562 72.1662C199.517 72.9988 194.245 78.0738 188.847 83.4443L179.032 93.2086L169.09 83.3176C163.622 77.8775 158.294 72.7445 157.249 71.9107C148.522 64.9475 139.764 60.9718 128.627 58.9176C124.241 58.1083 116.743 57.9346 111.836 58.5283ZM113.176 65.5141C106.835 66.2268 99.1786 68.6582 92.2055 72.1731C84.2598 76.1781 76.7507 83.3868 71.6608 91.8956C65.9245 101.485 63.2219 113.001 64.0492 124.327C64.7733 134.243 67.517 142.288 73.062 150.754C78.4703 159.012 85.7881 165.398 95.0307 169.926C103.782 174.213 110.981 175.861 119.762 175.587C128.549 175.313 136.099 173.34 143.825 169.298C150.281 165.92 152.743 163.874 164.405 152.192L173.966 142.613L164.854 133.503L155.741 124.393L146.047 134.033C137.487 142.546 136.033 143.884 133.621 145.467C126.625 150.061 118.683 151.519 110.63 149.687C108.281 149.153 103.764 147.543 101.718 146.512C95.5173 143.385 90.6113 137.604 88.1194 130.488C85.8489 124.003 85.9963 115.868 88.4968 109.664C92.5282 99.6628 100.88 93.1704 112.621 90.9108C118.77 89.7277 126.947 90.8923 132.869 93.795C137.455 96.0427 136.872 95.4969 170.42 128.982C192.705 151.225 202.984 161.314 204.803 162.728C208.265 165.42 211.307 167.276 215.886 169.488C224.628 173.713 232.475 175.414 241.697 175.081C248.836 174.823 253.655 173.85 259.705 171.444C267.789 168.23 272.716 165.086 278.077 159.722C289.308 148.484 295.158 132.678 294.025 116.634C293.521 109.493 292.138 103.893 289.318 97.568C284.393 86.5197 275.669 77.1069 265.717 72.1034C263.074 70.7747 257.658 68.511 255.146 67.6848C242.156 63.4135 227.594 64.7658 214.478 71.4616C208.141 74.6969 204.887 77.3721 193.343 88.8336L183.971 98.139L192.571 106.752L201.171 115.365L209.795 106.827C214.538 102.131 219.278 97.6362 220.328 96.8383C226.094 92.4589 231.716 90.507 238.556 90.5098C242.396 90.5114 244.458 90.8629 248.814 92.2591C254.245 93.9997 257.596 95.932 260.842 99.1962C266.361 104.744 269.455 112.38 269.455 120.452C269.455 131.937 263.047 142.929 253.246 148.255C247.975 151.119 238.214 151.637 230.577 149.457C227.769 148.656 223.318 146.476 220.952 144.744C219.902 143.976 206.209 130.454 187.391 111.604C169.907 94.0914 154.588 78.9243 153.348 77.8995C144.871 70.896 135.032 66.7035 124.268 65.508C121.46 65.1959 115.978 65.199 113.176 65.5141ZM115.364 97.6878C108.992 98.5143 104.329 100.69 100.235 104.747C96.8504 108.101 95.0669 111.258 94.0624 115.674C93.5753 117.816 93.5059 122.439 93.9261 124.757C94.9758 130.545 98.8473 136.496 103.384 139.293C105.477 140.584 109.862 142.251 112.797 142.87C118.602 144.096 124.835 142.849 129.925 139.444C130.9 138.791 135.328 134.593 141.105 128.842L150.67 119.321L142.498 111.142C134.194 102.831 132.481 101.376 129.325 99.948C125.188 98.0772 119.483 97.1534 115.364 97.6878ZM236.023 97.6858C232.333 98.1086 228.421 99.6926 225.131 102.096C224.226 102.758 219.609 107.156 214.873 111.87L206.261 120.441L214.493 128.696C219.02 133.236 223.565 137.632 224.592 138.466C229.879 142.756 237.7 144.631 245.045 143.368C248.189 142.828 249.421 142.376 251.534 140.989C256.249 137.894 259.947 132.6 261.632 126.531C262.151 124.665 262.228 123.839 262.215 120.325C262.2 116.663 262.132 116.054 261.509 114.009C259.722 108.14 255.91 103.219 251.347 100.893C249.342 99.8702 244.642 98.2636 242.735 97.949C240.262 97.5409 238.045 97.4541 236.023 97.6858Z" fill="url(#paint1_linear_9745_14)"/>
<defs>
<linearGradient id="paint0_linear_9745_14" x1="351.622" y1="173.924" x2="351.622" y2="96.0598" gradientUnits="userSpaceOnUse">
<stop stop-color="#AA52E5"/>
<stop offset="1" stop-color="#FF9469"/>
</linearGradient>
<linearGradient id="paint1_linear_9745_14" x1="86.5629" y1="120.406" x2="269.404" y2="120.406" gradientUnits="userSpaceOnUse">
<stop stop-color="#974EF2"/>
<stop offset="1" stop-color="#FF953F"/>
</linearGradient>
</defs>
</svg>
