<svg width="374" height="305" viewBox="0 0 374 305" fill="none" xmlns="http://www.w3.org/2000/svg">
<g clip-path="url(#clip0_9810_5533)">
<rect width="374" height="305" rx="8" fill="#FFF1E7"/>
<g opacity="0.6">
<g opacity="0.8" filter="url(#filter0_f_9810_5533)">
<rect x="39.6152" y="56.5703" width="337.952" height="343.948" fill="url(#paint0_radial_9810_5533)"/>
<rect x="-117.074" y="87.1367" width="337.952" height="343.948" fill="url(#paint1_radial_9810_5533)"/>
<rect x="111.283" y="95.1445" width="337.952" height="343.948" fill="url(#paint2_radial_9810_5533)"/>
<rect x="189.453" y="163.398" width="232.987" height="237.121" fill="url(#paint3_radial_9810_5533)" fill-opacity="0.5"/>
<rect x="-2.33398" y="207.438" width="287.746" height="231.658" fill="url(#paint4_radial_9810_5533)" fill-opacity="0.5"/>
<rect x="95.582" y="199.426" width="287.746" height="231.658" fill="url(#paint5_radial_9810_5533)"/>
<rect x="134.693" y="182.332" width="287.746" height="231.658" fill="url(#paint6_radial_9810_5533)"/>
<rect x="84.4863" y="3.91797" width="337.952" height="343.948" fill="url(#paint7_radial_9810_5533)"/>
<rect x="84.4863" y="95.1445" width="337.952" height="343.948" fill="url(#paint8_radial_9810_5533)"/>
<rect x="239.455" y="94.3789" width="337.952" height="343.948" fill="url(#paint9_radial_9810_5533)"/>
<rect x="214.35" y="87.1367" width="337.952" height="343.948" fill="url(#paint10_radial_9810_5533)"/>
<rect x="-160.453" y="87.0352" width="315.199" height="292.256" fill="url(#paint11_radial_9810_5533)" fill-opacity="0.2"/>
</g>
</g>
<path d="M200.735 104.524L178.108 81.8975C176.862 80.6511 174.841 80.6511 173.595 81.8975L150.968 104.524C149.722 105.77 149.722 107.791 150.968 109.038L173.595 131.664C174.841 132.911 176.862 132.911 178.108 131.664L200.735 109.038C201.981 107.791 201.981 105.77 200.735 104.524Z" fill="#FDFCFC"/>
<path d="M197.282 104.685L177.873 85.2766C177.334 84.744 176.607 84.4453 175.85 84.4453C175.093 84.4453 174.366 84.744 173.828 85.2766L169.282 89.8226L173.995 94.6099C174.568 94.3134 175.206 94.1665 175.85 94.1831C176.958 94.1831 178.02 94.6229 178.802 95.4059C179.585 96.1888 180.026 97.2508 180.026 98.358C180.038 99.0001 179.899 99.6362 179.617 100.213L183.681 104.296C184.473 103.959 185.359 103.909 186.185 104.154C187.011 104.399 187.726 104.923 188.207 105.637C188.689 106.351 188.907 107.21 188.824 108.068C188.741 108.925 188.363 109.727 187.754 110.336C187.145 110.945 186.344 111.323 185.486 111.406C184.629 111.488 183.77 111.27 183.055 110.789C182.341 110.307 181.817 109.592 181.572 108.766C181.327 107.941 181.377 107.055 181.714 106.262L177.706 102.106C177.583 102.177 177.452 102.233 177.316 102.273V112.553C178.115 112.876 178.776 113.466 179.186 114.223C179.597 114.98 179.732 115.856 179.568 116.702C179.402 117.547 178.949 118.309 178.285 118.857C177.62 119.404 176.786 119.704 175.924 119.704C175.063 119.704 174.229 119.404 173.564 118.857C172.9 118.309 172.446 117.547 172.282 116.702C172.117 115.856 172.252 114.98 172.662 114.223C173.073 113.466 173.735 112.876 174.533 112.553V102.273C173.707 102.001 172.987 101.478 172.474 100.775C171.962 100.073 171.682 99.2275 171.675 98.358C171.663 97.7159 171.802 97.0798 172.084 96.5025L167.315 91.8636L154.419 104.852C153.886 105.391 153.588 106.117 153.588 106.875C153.588 107.632 153.886 108.359 154.419 108.897L173.828 128.139C174.366 128.672 175.093 128.97 175.85 128.97C176.607 128.97 177.334 128.672 177.873 128.139L197.282 108.73C197.814 108.192 198.113 107.465 198.113 106.708C198.113 105.95 197.814 105.224 197.282 104.685Z" fill="#451E11"/>
<path fill-rule="evenodd" clip-rule="evenodd" d="M40.6926 141.285C40.6926 141.285 39.0862 146.677 39.2059 148.284C39.2788 149.282 40.943 150.559 41.3086 150.828C43.1517 148.864 45.6826 147.593 48.4921 147.604C51.2978 147.593 53.8258 148.861 55.6683 150.82C56.0539 150.535 57.6884 149.272 57.7606 148.284C57.8803 146.677 56.274 141.285 56.274 141.285C56.274 141.285 61.1182 147.188 61.4584 149.569C61.7206 151.434 58.6686 155.137 58.3376 155.532V162.432C58.3376 162.432 54.3501 163.994 52.6997 165.254C51.3327 166.307 48.7058 170.011 48.7058 170.011H48.2649C48.2649 170.011 45.638 166.307 44.271 165.254C42.6206 163.994 38.633 162.432 38.633 162.432V155.537C38.3244 155.169 35.2448 151.442 35.5081 149.569C35.8483 147.188 40.6926 141.285 40.6926 141.285Z" fill="#451E11"/>
<mask id="mask0_9810_5533" style="mask-type:luminance" maskUnits="userSpaceOnUse" x="33" y="138" width="32" height="35">
<path d="M64.2188 138.094H33.0996V172.405H64.2188V138.094Z" fill="white"/>
<path fill-rule="evenodd" clip-rule="evenodd" d="M40.6945 141.285C40.6945 141.285 39.0882 146.677 39.2079 148.284C39.2807 149.282 40.9449 150.559 41.3106 150.828C43.1536 148.864 45.6846 147.593 48.494 147.604C51.2998 147.593 53.8278 148.861 55.6703 150.82C56.0559 150.535 57.6904 149.272 57.7626 148.284C57.8823 146.677 56.276 141.285 56.276 141.285C56.276 141.285 61.1202 147.188 61.4603 149.569C61.7225 151.434 58.6705 155.137 58.3396 155.532V162.432C58.3396 162.432 54.3521 163.994 52.7016 165.254C51.3346 166.307 48.7078 170.011 48.7078 170.011H48.2668C48.2668 170.011 45.64 166.307 44.273 165.254C42.6225 163.994 38.635 162.432 38.635 162.432V155.537C38.3264 155.169 35.2468 151.442 35.5101 149.569C35.8503 147.188 40.6945 141.285 40.6945 141.285Z" fill="black"/>
</mask>
<g mask="url(#mask0_9810_5533)">
<path d="M39.2069 148.283L41.5943 148.109L41.5941 148.105L39.2069 148.283ZM40.6936 141.285L42.9877 141.968C43.3131 140.876 42.8232 139.705 41.8167 139.171C40.8102 138.636 39.5662 138.885 38.8432 139.766L40.6936 141.285ZM41.3096 150.827L39.8904 152.755C40.8665 153.474 42.2255 153.349 43.055 152.466L41.3096 150.827ZM48.4931 147.603L48.4837 149.997C48.49 149.997 48.4962 149.997 48.5024 149.997L48.4931 147.603ZM55.6693 150.82L53.9254 152.46C54.7562 153.343 56.1164 153.466 57.0918 152.745L55.6693 150.82ZM57.7616 148.283L55.3745 148.105L55.3742 148.109L57.7616 148.283ZM56.275 141.285L58.1254 139.766C57.4023 138.885 56.1584 138.636 55.1519 139.171C54.1453 139.705 53.6554 140.876 53.9808 141.968L56.275 141.285ZM61.4594 149.568L63.8299 149.235L63.8292 149.23L61.4594 149.568ZM58.3386 155.531L56.5036 153.994C56.1426 154.425 55.9448 154.969 55.9448 155.531H58.3386ZM58.3386 162.431L59.2119 164.661C60.129 164.301 60.7324 163.417 60.7324 162.431H58.3386ZM52.7007 165.254L51.2482 163.351L51.2407 163.357L52.7007 165.254ZM48.7068 170.01V172.404C49.4827 172.404 50.2106 172.027 50.6594 171.395L48.7068 170.01ZM48.2659 170.01L46.3133 171.395C46.7621 172.027 47.4899 172.404 48.2659 172.404V170.01ZM44.272 165.254L45.732 163.357L45.7245 163.351L44.272 165.254ZM38.634 162.431H36.2403C36.2403 163.417 36.8437 164.301 37.7608 164.661L38.634 162.431ZM38.634 155.536H41.0278C41.0278 154.973 40.8297 154.429 40.4681 153.998L38.634 155.536ZM35.5091 149.568L33.1394 149.23L33.1387 149.235L35.5091 149.568ZM41.5941 148.105C41.5949 148.116 41.5901 148.022 41.6165 147.778C41.6405 147.554 41.683 147.273 41.7434 146.943C41.8643 146.282 42.0405 145.512 42.2279 144.761C42.4141 144.016 42.6047 143.314 42.7494 142.798C42.8216 142.541 42.8818 142.331 42.9238 142.186C42.9447 142.114 42.961 142.058 42.972 142.021C42.9775 142.003 42.9815 141.989 42.9843 141.98C42.9855 141.975 42.9865 141.972 42.9871 141.97C42.9874 141.969 42.9876 141.968 42.9877 141.968C42.9877 141.968 42.9877 141.968 40.6936 141.285C38.3994 140.601 38.3994 140.601 38.3993 140.601C38.3994 140.601 38.3993 140.602 38.3993 140.601C38.3992 140.602 38.399 140.603 38.3989 140.603C38.3986 140.604 38.3982 140.605 38.3977 140.607C38.3967 140.61 38.3954 140.615 38.3937 140.62C38.3903 140.632 38.3854 140.649 38.3791 140.67C38.3666 140.712 38.3485 140.774 38.3258 140.852C38.2804 141.009 38.2161 141.233 38.1395 141.506C37.9867 142.051 37.7833 142.799 37.5828 143.602C37.3836 144.4 37.1807 145.279 37.034 146.081C36.9015 146.806 36.7645 147.719 36.8197 148.461L41.5941 148.105ZM42.7288 148.9C42.5874 148.796 42.1952 148.495 41.8533 148.148C41.6815 147.974 41.5741 147.84 41.5211 147.758C41.4472 147.645 41.5702 147.779 41.5943 148.109L36.8195 148.458C36.88 149.287 37.2384 149.955 37.5085 150.37C37.7995 150.817 38.1446 151.206 38.4437 151.509C39.0435 152.117 39.6662 152.59 39.8904 152.755L42.7288 148.9ZM48.5024 145.209C44.9378 145.195 41.796 146.811 39.5642 149.189L43.055 152.466C44.5094 150.916 46.4295 149.989 48.4837 149.997L48.5024 145.209ZM57.4132 149.18C55.182 146.807 52.0436 145.195 48.4837 145.209L48.5024 149.997C50.554 149.989 52.4717 150.914 53.9254 152.46L57.4132 149.18ZM55.3742 148.109C55.3982 147.781 55.5197 147.646 55.4486 147.756C55.3977 147.835 55.2932 147.967 55.1241 148.139C54.7874 148.483 54.398 148.783 54.2468 148.894L57.0918 152.745C57.3263 152.572 57.947 152.098 58.5419 151.492C58.8388 151.189 59.1804 150.802 59.4684 150.357C59.7361 149.943 60.089 149.28 60.1491 148.458L55.3742 148.109ZM56.275 141.285C53.9808 141.968 53.9808 141.968 53.9808 141.968C53.9809 141.968 53.9811 141.969 53.9815 141.97C53.982 141.972 53.983 141.975 53.9843 141.98C53.987 141.989 53.9911 142.003 53.9965 142.021C54.0075 142.058 54.0238 142.114 54.0448 142.186C54.0868 142.331 54.147 142.541 54.2192 142.798C54.3638 143.314 54.5545 144.016 54.7407 144.761C54.9281 145.512 55.1043 146.282 55.2251 146.943C55.2856 147.273 55.328 147.554 55.3521 147.778C55.3785 148.022 55.3737 148.116 55.3745 148.105L60.1488 148.461C60.2041 147.719 60.0671 146.806 59.9346 146.081C59.7879 145.279 59.5849 144.4 59.3857 143.602C59.1852 142.799 58.9818 142.051 58.8291 141.506C58.7525 141.233 58.6882 141.009 58.6428 140.852C58.62 140.774 58.602 140.712 58.5894 140.67C58.5832 140.649 58.5783 140.632 58.5749 140.62C58.5731 140.615 58.5719 140.61 58.5709 140.607C58.5704 140.605 58.57 140.604 58.5697 140.603C58.5695 140.603 58.5695 140.602 58.5694 140.602C58.5694 140.602 58.5693 140.602 58.5694 140.602C58.5694 140.602 58.5691 140.601 56.275 141.285ZM63.8292 149.23C63.675 148.151 63.0999 146.994 62.5898 146.092C62.0321 145.105 61.3438 144.07 60.6943 143.152C60.0403 142.226 59.4007 141.384 58.9265 140.774C58.6887 140.469 58.4909 140.219 58.3515 140.045C58.2817 139.958 58.2265 139.89 58.188 139.843C58.1688 139.819 58.1538 139.801 58.1433 139.788C58.138 139.781 58.1339 139.776 58.1308 139.773C58.1294 139.771 58.1281 139.769 58.1272 139.768C58.1268 139.768 58.1264 139.767 58.1261 139.767C58.1262 139.767 58.126 139.767 58.1261 139.767C58.126 139.767 58.1254 139.766 56.275 141.285C54.4246 142.803 54.4245 142.803 54.4244 142.803C54.4246 142.803 54.4253 142.804 54.4261 142.805C54.4278 142.807 54.4306 142.811 54.4345 142.815C54.4423 142.825 54.4545 142.84 54.4709 142.86C54.5036 142.9 54.5528 142.961 54.6161 143.04C54.7429 143.198 54.9262 143.429 55.1479 143.714C55.5926 144.286 56.1855 145.067 56.785 145.915C57.3891 146.77 57.9756 147.658 58.4218 148.447C58.6447 148.841 58.8163 149.183 58.9351 149.463C58.9937 149.601 59.0337 149.711 59.0595 149.794C59.0861 149.88 59.0908 149.915 59.0897 149.907L63.8292 149.23ZM60.1737 157.068C60.3641 156.841 61.2857 155.725 62.1389 154.389C62.5636 153.724 63.0119 152.942 63.3412 152.146C63.6408 151.421 63.9866 150.35 63.8299 149.235L59.0889 149.902C59.0633 149.719 59.1259 149.811 58.9167 150.317C58.7371 150.751 58.451 151.269 58.104 151.812C57.414 152.893 56.6441 153.826 56.5036 153.994L60.1737 157.068ZM60.7324 162.431V155.531H55.9448V162.431H60.7324ZM54.1532 167.157C54.7377 166.711 55.916 166.102 57.1309 165.549C57.7021 165.289 58.2267 165.065 58.6088 164.906C58.7993 164.827 58.953 164.764 59.0578 164.722C59.1102 164.701 59.1503 164.685 59.1764 164.674C59.1895 164.67 59.1992 164.666 59.2052 164.663C59.2081 164.662 59.2108 164.661 59.2119 164.661C59.2124 164.661 59.2122 164.66 59.2123 164.66C59.2123 164.661 59.2119 164.661 58.3386 162.431C57.4654 160.203 57.4653 160.203 57.4651 160.203C57.4653 160.203 57.465 160.203 57.4651 160.203C57.4648 160.204 57.464 160.204 57.4635 160.204C57.4627 160.204 57.4615 160.204 57.4602 160.205C57.4575 160.206 57.4538 160.208 57.4492 160.209C57.44 160.213 57.427 160.218 57.4105 160.224C57.3775 160.238 57.3303 160.256 57.2704 160.28C57.1507 160.329 56.98 160.398 56.7708 160.485C56.3536 160.658 55.7782 160.904 55.1463 161.192C53.9547 161.735 52.3141 162.538 51.2482 163.351L54.1532 167.157ZM48.7068 170.01C50.6594 171.395 50.6595 171.395 50.6594 171.395C50.6596 171.395 50.6597 171.395 50.6601 171.394C50.661 171.392 50.6625 171.391 50.6645 171.387C50.6687 171.382 50.6752 171.372 50.6842 171.36C50.702 171.335 50.7289 171.297 50.7641 171.249C50.8347 171.15 50.938 171.008 51.0667 170.834C51.3247 170.483 51.681 170.007 52.0762 169.502C52.9414 168.396 53.7585 167.46 54.1606 167.151L51.2407 163.357C50.2759 164.099 49.096 165.542 48.306 166.551C47.8736 167.103 47.4878 167.62 47.2106 167.996C47.0716 168.185 46.9591 168.34 46.8806 168.449C46.8414 168.504 46.8106 168.546 46.7892 168.576C46.7785 168.591 46.7702 168.603 46.7643 168.611C46.7613 168.615 46.759 168.619 46.7573 168.621C46.7565 168.622 46.7558 168.623 46.7553 168.623C46.755 168.624 46.7549 168.624 46.7546 168.624C46.7545 168.625 46.7545 168.625 46.7544 168.625C46.7543 168.625 46.7542 168.625 48.7068 170.01ZM48.2659 172.404H48.7068V167.616H48.2659V172.404ZM42.8121 167.151C43.2142 167.46 44.0313 168.396 44.8964 169.502C45.2917 170.007 45.648 170.483 45.906 170.834C46.0347 171.008 46.1381 171.15 46.2085 171.249C46.2438 171.297 46.2708 171.335 46.2886 171.36C46.2974 171.372 46.304 171.382 46.3082 171.387C46.3103 171.391 46.3117 171.392 46.3126 171.394C46.313 171.395 46.3132 171.395 46.3133 171.395C46.3133 171.395 46.3133 171.395 48.2659 170.01C50.2185 168.625 50.2183 168.625 50.2183 168.625C50.2183 168.625 50.2181 168.625 50.218 168.624C50.2179 168.624 50.2176 168.624 50.2174 168.623C50.2168 168.623 50.2162 168.622 50.2153 168.621C50.2136 168.619 50.2113 168.615 50.2085 168.611C50.2025 168.603 50.1943 168.591 50.1836 168.576C50.1622 168.546 50.1314 168.504 50.0921 168.449C50.0136 168.34 49.9011 168.185 49.7621 167.996C49.4849 167.62 49.0991 167.103 48.6667 166.551C47.8767 165.542 46.6969 164.099 45.732 163.357L42.8121 167.151ZM38.634 162.431C37.7608 164.661 37.7607 164.661 37.7606 164.66C37.7607 164.66 37.7603 164.661 37.7608 164.661C37.762 164.661 37.7646 164.662 37.7676 164.663C37.7735 164.666 37.7832 164.67 37.7963 164.674C37.8225 164.685 37.8625 164.701 37.9149 164.722C38.0197 164.764 38.1734 164.827 38.3639 164.906C38.746 165.065 39.2706 165.289 39.8419 165.549C41.0567 166.102 42.235 166.711 42.8196 167.157L45.7245 163.351C44.6586 162.538 43.0179 161.735 41.8264 161.192C41.1945 160.904 40.6191 160.658 40.2019 160.485C39.9927 160.398 39.8221 160.329 39.7023 160.28C39.6424 160.256 39.5952 160.238 39.5622 160.224C39.5457 160.218 39.5327 160.213 39.5235 160.209C39.5189 160.208 39.5152 160.206 39.5125 160.205C39.5112 160.204 39.51 160.204 39.5092 160.204C39.5087 160.204 39.5083 160.204 39.508 160.203C39.5081 160.203 39.5079 160.203 39.508 160.203C39.5079 160.203 39.5073 160.203 38.634 162.431ZM36.2403 155.536V162.431H41.0278V155.536H36.2403ZM33.1387 149.235C32.9814 150.354 33.3303 151.429 33.6317 152.156C33.9633 152.956 34.4143 153.74 34.8409 154.407C35.698 155.746 36.6208 156.861 36.8 157.074L40.4681 153.998C40.3387 153.843 39.5674 152.911 38.8733 151.826C38.5243 151.281 38.2356 150.76 38.0541 150.322C37.8425 149.812 37.9053 149.719 37.8796 149.902L33.1387 149.235ZM40.6936 141.285C38.8432 139.766 38.8433 139.766 38.8432 139.766C38.8431 139.766 38.8426 139.767 38.8425 139.767C38.8422 139.767 38.8418 139.768 38.8413 139.768C38.8404 139.769 38.8392 139.771 38.8377 139.773C38.8347 139.776 38.8306 139.781 38.8253 139.788C38.8148 139.801 38.7997 139.819 38.7805 139.843C38.7421 139.89 38.6869 139.958 38.6171 140.045C38.4776 140.219 38.2798 140.469 38.042 140.774C37.5678 141.384 36.9283 142.226 36.2742 143.152C35.6248 144.07 34.9365 145.105 34.3787 146.092C33.8687 146.994 33.2936 148.151 33.1394 149.23L37.8789 149.907C37.8777 149.915 37.8824 149.88 37.9091 149.794C37.9349 149.711 37.9749 149.601 38.0335 149.463C38.1522 149.183 38.3239 148.841 38.5467 148.447C38.9929 147.658 39.5795 146.77 40.1836 145.915C40.7831 145.067 41.376 144.286 41.8206 143.714C42.0424 143.429 42.2256 143.198 42.3524 143.04C42.4158 142.961 42.465 142.9 42.4977 142.86C42.514 142.84 42.5262 142.825 42.5341 142.815C42.538 142.811 42.5408 142.807 42.5424 142.805C42.5432 142.804 42.5438 142.803 42.544 142.803C42.5441 142.803 42.5442 142.803 42.544 142.803C42.544 142.803 42.544 142.803 40.6936 141.285Z" fill="#FEFCFB"/>
</g>
<path d="M49.7415 155.401C49.8514 154.724 49.3919 154.087 48.7154 153.977C48.0389 153.867 47.4014 154.327 47.2916 155.003C47.1818 155.68 47.6412 156.317 48.3177 156.427C48.9942 156.537 49.6317 156.077 49.7415 155.401Z" fill="#FEFCFB"/>
<path fill-rule="evenodd" clip-rule="evenodd" d="M39.2771 188.459C39.0536 188.682 39.0534 189.045 39.2768 189.268L41.4708 191.464C41.6941 191.687 42.0563 191.687 42.2798 191.464L50.997 182.755C51.2205 182.531 51.2207 182.169 50.9973 181.946L48.8033 179.75C48.58 179.526 48.2178 179.526 47.9943 179.749L39.2771 188.459ZM39.2768 197.007C39.0534 196.784 39.0536 196.422 39.2771 196.198L47.9921 187.491C48.2156 187.268 48.5778 187.268 48.8011 187.491L50.9952 189.687C51.2185 189.91 51.2184 190.273 50.9949 190.496L42.2798 199.204C42.0563 199.427 41.6941 199.427 41.4708 199.203L39.2768 197.007ZM45.7344 198.24C45.7344 198.088 45.7955 197.941 45.9042 197.833L48.0956 195.666C48.3169 195.447 48.6726 195.446 48.8961 195.662L51.1344 197.833C51.2456 197.941 51.3083 198.088 51.3083 198.243V207.467C51.3083 207.782 51.0522 208.039 50.7363 208.039H46.3064C45.9905 208.039 45.7344 207.782 45.7344 207.467V198.24ZM55.6146 191.463C55.391 191.687 55.0288 191.686 54.8057 191.462L49.8733 186.52C49.6502 186.297 49.6505 185.934 49.8742 185.711L51.9339 183.656C52.1575 183.433 52.5197 183.433 52.7429 183.656L57.6752 188.599C57.8984 188.822 57.898 189.184 57.6744 189.408L55.6146 191.463ZM54.8057 199.245C55.0288 199.468 55.391 199.469 55.6146 199.245L57.6897 197.175C57.9133 196.951 57.9137 196.589 57.6905 196.366L52.7582 191.423C52.535 191.2 52.1728 191.199 51.9492 191.423L49.8742 193.493C49.6505 193.717 49.6502 194.079 49.8733 194.302L54.8057 199.245Z" fill="#451E11"/>
<mask id="mask1_9810_5533" style="mask-type:luminance" maskUnits="userSpaceOnUse" x="36" y="177" width="25" height="34">
<path d="M60.6546 177.188H36.7168V210.7H60.6546V177.188Z" fill="white"/>
<path fill-rule="evenodd" clip-rule="evenodd" d="M39.2791 188.459C39.0556 188.682 39.0554 189.045 39.2787 189.268L41.4728 191.464C41.6961 191.687 42.0583 191.687 42.2818 191.464L50.999 182.755C51.2225 182.531 51.2226 182.169 50.9993 181.946L48.8052 179.75C48.582 179.526 48.2197 179.526 47.9962 179.749L39.2791 188.459ZM39.2787 197.007C39.0554 196.784 39.0556 196.422 39.2791 196.198L47.9941 187.491C48.2176 187.268 48.5797 187.268 48.8031 187.491L50.9971 189.687C51.2205 189.91 51.2203 190.273 50.9968 190.496L42.2818 199.204C42.0583 199.427 41.6961 199.427 41.4728 199.203L39.2787 197.007ZM45.7363 198.24C45.7363 198.088 45.7974 197.941 45.9061 197.833L48.0975 195.666C48.3188 195.447 48.6745 195.446 48.898 195.662L51.1364 197.833C51.2475 197.941 51.3102 198.088 51.3102 198.243V207.467C51.3102 207.782 51.0541 208.039 50.7382 208.039H46.3084C45.9925 208.039 45.7363 207.782 45.7363 207.467V198.24ZM55.6166 191.463C55.393 191.687 55.0307 191.686 54.8076 191.462L49.8752 186.52C49.6521 186.297 49.6525 185.934 49.8761 185.711L51.9358 183.656C52.1595 183.433 52.5217 183.433 52.7448 183.656L57.6771 188.599C57.9003 188.822 57.8999 189.184 57.6763 189.408L55.6166 191.463ZM54.8076 199.245C55.0307 199.468 55.393 199.469 55.6166 199.245L57.6917 197.175C57.9152 196.951 57.9156 196.589 57.6925 196.366L52.7602 191.423C52.537 191.2 52.1748 191.199 51.9511 191.423L49.8761 193.493C49.6525 193.717 49.6521 194.079 49.8752 194.302L54.8076 199.245Z" fill="black"/>
</mask>
<g mask="url(#mask1_9810_5533)">
<path d="M52.7441 183.656L51.0497 185.347V185.348L52.7441 183.656ZM40.9713 187.575C41.6825 188.287 41.6819 189.441 40.9702 190.152L37.5864 186.766C36.4276 187.923 36.4268 189.801 37.5846 190.959L40.9713 187.575ZM43.1654 189.771L40.9713 187.575L37.5846 190.959L39.7786 193.155L43.1654 189.771ZM40.5891 189.771C41.3008 189.06 42.4543 189.06 43.1654 189.771L39.7786 193.155C40.9364 194.314 42.8142 194.315 43.973 193.158L40.5891 189.771ZM49.3063 181.061L40.5891 189.771L43.973 193.158L52.6901 184.448L49.3063 181.061ZM49.3052 183.637C48.5941 182.925 48.5945 181.772 49.3063 181.061L52.6901 184.448C53.8489 183.29 53.8497 181.412 52.6919 180.253L49.3052 183.637ZM47.1111 181.441L49.3052 183.637L52.6919 180.253L50.4979 178.057L47.1111 181.441ZM49.6875 181.443C48.9757 182.153 47.8222 182.153 47.1111 181.441L50.4979 178.057C49.3401 176.898 47.4623 176.898 46.3035 178.055L49.6875 181.443ZM40.9702 190.152L49.6875 181.443L46.3035 178.055L37.5864 186.766L40.9702 190.152ZM37.5864 194.505C36.4276 195.662 36.4268 197.541 37.5846 198.699L40.9713 195.315C41.6825 196.027 41.6819 197.18 40.9702 197.892L37.5864 194.505ZM46.3014 185.797L37.5864 194.505L40.9702 197.892L49.6852 189.184L46.3014 185.797ZM50.4957 185.799C49.338 184.64 47.4601 184.639 46.3014 185.797L49.6852 189.184C48.9736 189.895 47.8201 189.894 47.109 189.182L50.4957 185.799ZM52.6897 187.995L50.4957 185.799L47.109 189.182L49.303 191.378L52.6897 187.995ZM52.688 192.189C53.8467 191.031 53.8475 189.154 52.6897 187.995L49.303 191.378C48.5919 190.667 48.5924 189.514 49.3041 188.803L52.688 192.189ZM43.973 200.897L52.688 192.189L49.3041 188.803L40.5891 197.51L43.973 200.897ZM39.7786 200.895C40.9364 202.054 42.8142 202.055 43.973 200.897L40.5891 197.51C41.3008 196.799 42.4543 196.799 43.1654 197.511L39.7786 200.895ZM37.5846 198.699L39.7786 200.895L43.1654 197.511L40.9713 195.315L37.5846 198.699ZM44.2221 196.131C43.6588 196.689 43.3418 197.447 43.3418 198.24H48.1294C48.1294 198.726 47.9347 199.193 47.5886 199.536L44.2221 196.131ZM46.4136 193.964L44.2221 196.131L47.5886 199.536L49.78 197.368L46.4136 193.964ZM50.5637 193.944C49.4051 192.82 47.561 192.829 46.4136 193.964L49.78 197.368C49.0752 198.066 47.9425 198.071 47.2309 197.38L50.5637 193.944ZM52.8021 196.114L50.5637 193.944L47.2309 197.38L49.4692 199.551L52.8021 196.114ZM53.7033 198.243C53.7033 197.441 53.3781 196.673 52.8021 196.114L49.4692 199.551C49.1154 199.208 48.9157 198.736 48.9157 198.243H53.7033ZM53.7033 207.466V198.243H48.9157V207.466H53.7033ZM50.7375 210.432C52.3754 210.432 53.7033 209.104 53.7033 207.466H48.9157C48.9157 206.46 49.7313 205.644 50.7375 205.644V210.432ZM46.3076 210.432H50.7375V205.644H46.3076V210.432ZM43.3418 207.466C43.3418 209.104 44.6696 210.432 46.3076 210.432V205.644C47.3137 205.644 48.1294 206.46 48.1294 207.466H43.3418ZM43.3418 198.24V207.466H48.1294V198.24H43.3418ZM53.1125 193.153C54.2696 194.312 56.1474 194.315 57.3068 193.158L53.9249 189.769C54.6371 189.058 55.7905 189.06 56.5012 189.771L53.1125 193.153ZM48.1802 188.211L53.1125 193.153L56.5012 189.771L51.5689 184.829L48.1802 188.211ZM48.1844 184.017C47.025 185.174 47.0231 187.051 48.1802 188.211L51.5689 184.829C52.2796 185.542 52.2784 186.695 51.5663 187.405L48.1844 184.017ZM50.2441 181.961L48.1844 184.017L51.5663 187.405L53.626 185.35L50.2441 181.961ZM54.4385 181.965C53.2814 180.806 51.4035 180.804 50.2441 181.961L53.626 185.35C52.9139 186.06 51.7604 186.059 51.0497 185.347L54.4385 181.965ZM59.3708 186.908L54.4385 181.965L51.0497 185.348L55.982 190.289L59.3708 186.908ZM59.3666 191.102C60.526 189.944 60.5278 188.067 59.3708 186.908L55.982 190.289C55.2713 189.577 55.2725 188.424 55.9846 187.713L59.3666 191.102ZM57.3068 193.158L59.3666 191.102L55.9846 187.713L53.9249 189.769L57.3068 193.158ZM53.9249 197.551C54.6371 196.84 55.7905 196.841 56.5012 197.554L53.1125 200.935C54.2696 202.095 56.1474 202.097 57.3068 200.94L53.9249 197.551ZM56 195.48L53.9249 197.551L57.3068 200.94L59.3819 198.868L56 195.48ZM55.9973 198.056C55.2866 197.344 55.2878 196.191 56 195.48L59.3819 198.868C60.5413 197.711 60.5431 195.834 59.3861 194.675L55.9973 198.056ZM51.065 193.114L55.9973 198.056L59.3861 194.675L54.4537 189.732L51.065 193.114ZM53.6414 193.117C52.9292 193.827 51.7757 193.826 51.065 193.114L54.4537 189.732C53.2967 188.573 51.4188 188.571 50.2594 189.728L53.6414 193.117ZM51.5663 195.188L53.6414 193.117L50.2594 189.728L48.1844 191.799L51.5663 195.188ZM51.5689 192.611C52.2796 193.324 52.2784 194.477 51.5663 195.188L48.1844 191.799C47.025 192.956 47.0231 194.833 48.1802 195.993L51.5689 192.611ZM56.5012 197.554L51.5689 192.611L48.1802 195.993L53.1125 200.935L56.5012 197.554Z" fill="#FDFCFC"/>
</g>
<path d="M311.575 125.942C311.575 120.874 307.467 116.766 302.399 116.766C297.331 116.766 293.223 120.874 293.223 125.942C293.223 131.01 297.331 135.118 302.399 135.118C307.467 135.118 311.575 131.01 311.575 125.942Z" fill="white"/>
<path d="M311.575 125.942C311.575 120.874 307.467 116.766 302.399 116.766C297.331 116.766 293.223 120.874 293.223 125.942C293.223 131.01 297.331 135.118 302.399 135.118C307.467 135.118 311.575 131.01 311.575 125.942Z" stroke="#FDFCFC" stroke-width="2.39378"/>
<path d="M302.399 133.919C297.992 133.919 294.42 130.347 294.42 125.94C294.42 121.533 297.992 117.961 302.399 117.961C306.806 117.961 310.378 121.533 310.378 125.94C310.378 130.347 306.806 133.919 302.399 133.919ZM301.604 129.132L307.246 123.49L306.118 122.361L301.604 126.875L299.346 124.618L298.218 125.747L301.604 129.132Z" fill="#12A594"/>
<path d="M333.917 125.942C333.917 120.874 329.808 116.766 324.741 116.766C319.673 116.766 315.564 120.874 315.564 125.942C315.564 131.01 319.673 135.118 324.741 135.118C329.808 135.118 333.917 131.01 333.917 125.942Z" fill="white"/>
<path d="M333.917 125.942C333.917 120.874 329.808 116.766 324.741 116.766C319.673 116.766 315.564 120.874 315.564 125.942C315.564 131.01 319.673 135.118 324.741 135.118C329.808 135.118 333.917 131.01 333.917 125.942Z" stroke="#FDFCFC" stroke-width="2.39378"/>
<path d="M324.741 133.919C320.334 133.919 316.762 130.347 316.762 125.94C316.762 121.533 320.334 117.961 324.741 117.961C329.148 117.961 332.72 121.533 332.72 125.94C332.72 130.347 329.148 133.919 324.741 133.919ZM324.741 124.812L322.484 122.555L321.355 123.683L323.613 125.94L321.355 128.197L322.484 129.326L324.741 127.069L326.998 129.326L328.127 128.197L325.869 125.94L328.127 123.683L326.998 122.555L324.741 124.812Z" fill="#E5484D"/>
<path d="M323.226 145.094C321.611 145.094 320.202 148.551 320.202 153.883C318.143 153.401 315.934 153.133 313.572 153.133C311.21 153.133 309.001 153.401 306.941 153.883C306.941 148.551 305.53 145.094 303.918 145.094C297.626 145.094 288.557 171.85 288.557 176.899C288.557 181.948 298.645 196.649 313.569 196.649C328.494 196.649 338.581 181.946 338.581 176.899C338.581 171.852 329.515 145.094 323.226 145.094Z" fill="url(#paint12_linear_9810_5533)"/>
<path d="M323.225 143.895C322.36 143.895 321.668 144.363 321.174 144.923C320.68 145.483 320.289 146.233 319.983 147.079C319.479 148.47 319.146 150.292 319.041 152.418C317.31 152.104 315.488 151.933 313.571 151.933C311.655 151.933 309.832 152.104 308.102 152.418C307.997 150.292 307.663 148.47 307.159 147.079C306.853 146.233 306.462 145.483 305.968 144.924C305.475 144.363 304.783 143.895 303.918 143.895C302.71 143.895 301.606 144.527 300.664 145.349C299.703 146.187 298.766 147.347 297.869 148.684C296.071 151.365 294.313 154.948 292.773 158.64C291.229 162.341 289.884 166.2 288.924 169.458C288.444 171.088 288.057 172.578 287.788 173.829C287.525 175.058 287.359 176.132 287.359 176.897C287.359 178.471 288.113 180.556 289.324 182.702C290.559 184.89 292.356 187.29 294.628 189.519C299.162 193.97 305.7 197.844 313.569 197.844C321.438 197.844 327.975 193.969 332.51 189.518C334.781 187.289 336.578 184.889 337.814 182.7C339.024 180.555 339.778 178.47 339.778 176.897C339.778 176.132 339.612 175.059 339.349 173.83C339.081 172.578 338.694 171.089 338.214 169.46C337.254 166.201 335.91 162.343 334.366 158.641C332.827 154.949 331.069 151.366 329.272 148.685C328.375 147.347 327.438 146.187 326.478 145.349C325.536 144.527 324.433 143.895 323.225 143.895Z" fill="#FF953F" stroke="white" stroke-width="2.39378"/>
<path d="M332.995 190.001L332.996 190.001L333.001 189.995L333.008 189.988C334.209 188.81 336.23 189.662 336.23 191.34V193.299C336.23 195.576 335.155 197.739 333.288 199.078C330.121 201.35 326.707 203.065 323.166 204.177L322.108 204.509L322.098 204.483C321.89 204.542 321.681 204.6 321.471 204.655C321.998 205.778 322.294 207.032 322.294 208.355C322.294 213.354 318.086 217.374 313.02 217.06L313.094 215.865C309.352 215.633 306.304 212.588 306.066 208.845C305.978 207.435 306.277 206.103 306.867 204.944L332.995 190.001ZM332.995 190.001L332.988 190.009C327.356 195.533 320.455 198.527 313.571 198.527C306.685 198.527 299.782 195.533 294.154 190.009L294.147 190.001L294.141 189.996L294.136 189.99C292.942 188.828 290.916 189.658 290.916 191.346V193.302C290.916 195.583 292 197.749 293.868 199.087C296.673 201.097 299.672 202.673 302.784 203.782L303.664 204.094L303.684 204.065C304.338 204.283 305.002 204.48 305.675 204.657L332.995 190.001Z" fill="white"/>
<path d="M332.995 190.001L332.996 190.001L333.001 189.995L333.008 189.988C334.209 188.81 336.23 189.662 336.23 191.34V193.299C336.23 195.576 335.155 197.739 333.288 199.078C330.121 201.35 326.707 203.065 323.166 204.177L322.108 204.509L322.098 204.483C321.89 204.542 321.681 204.6 321.471 204.655C321.998 205.778 322.294 207.032 322.294 208.355C322.294 213.354 318.086 217.374 313.02 217.06L313.094 215.865C309.352 215.633 306.304 212.588 306.066 208.845C305.978 207.435 306.277 206.103 306.867 204.944L332.995 190.001ZM332.995 190.001L332.988 190.009C327.356 195.533 320.455 198.527 313.571 198.527C306.685 198.527 299.782 195.533 294.154 190.009L294.147 190.001L294.141 189.996L294.136 189.99C292.942 188.828 290.916 189.658 290.916 191.346V193.302C290.916 195.583 292 197.749 293.868 199.087C296.673 201.097 299.672 202.673 302.784 203.782L303.664 204.094L303.684 204.065C304.338 204.283 305.002 204.48 305.675 204.657L332.995 190.001Z" stroke="white" stroke-width="2.39378"/>
<path fill-rule="evenodd" clip-rule="evenodd" d="M333.832 190.863L333.844 190.851L333.849 190.846C334.291 190.412 335.036 190.726 335.036 191.344V193.303C335.036 195.204 334.137 197.001 332.592 198.109C329.524 200.31 326.224 201.966 322.81 203.039L322.804 203.024C322.113 203.245 321.413 203.444 320.699 203.62C320.587 203.648 320.478 203.674 320.366 203.699C320.117 203.758 319.862 203.813 319.61 203.867C320.545 205.121 321.099 206.675 321.099 208.359C321.099 212.673 317.469 216.141 313.097 215.869C309.354 215.637 306.306 212.591 306.069 208.849C305.951 206.976 306.516 205.241 307.541 203.867C307.478 203.853 307.415 203.841 307.353 203.827C307.274 203.811 307.196 203.794 307.119 203.778C306.929 203.737 306.739 203.691 306.551 203.647C306.503 203.635 306.455 203.624 306.408 203.612C305.313 203.341 304.244 203.013 303.206 202.633L303.189 202.658C300.185 201.589 297.285 200.066 294.567 198.118C293.019 197.01 292.115 195.209 292.115 193.306V191.35C292.115 190.731 292.86 190.42 293.303 190.851L293.314 190.863C299.135 196.579 306.332 199.727 313.573 199.727C320.814 199.727 328.008 196.579 333.832 190.863ZM313.354 211.715L318.113 206.957H318.118C318.342 206.733 318.342 206.369 318.118 206.145L317.405 205.432C317.181 205.207 316.817 205.207 316.592 205.432L312.711 209.314L310.507 207.111C310.284 206.887 309.92 206.887 309.696 207.111L308.983 207.825C308.758 208.049 308.758 208.413 308.983 208.636L312.061 211.715C312.419 212.071 312.999 212.071 313.354 211.715Z" fill="#974EF2"/>
<path fill-rule="evenodd" clip-rule="evenodd" d="M325.695 165.125H319.748V165.128H319.191C317.651 165.128 316.4 166.377 316.4 167.918H316.394C316.394 168.257 316.455 168.581 316.566 168.88L317.444 170.981H317.447L318.521 173.15C319.092 174.418 320.365 175.241 321.763 175.241H328.22C330.459 175.241 332.463 177.469 332.463 179.661C332.463 181.853 330.666 184.721 327.293 188.033C324.973 190.308 320.105 194.129 313.573 194.129C307.039 194.129 302.172 190.311 299.851 188.033C296.479 184.724 294.682 181.855 294.682 179.661C294.682 177.466 296.686 175.241 298.925 175.241H305.383C306.779 175.241 308.053 174.418 308.624 173.15L309.687 171.003L310.584 168.861C310.69 168.567 310.748 168.25 310.748 167.918H310.742C310.742 166.377 309.491 165.128 307.952 165.128H307.395V165.125H301.455C299.215 165.125 297.394 163.303 297.394 161.063V159.701C297.394 158.967 297.987 158.371 298.723 158.371C299.459 158.371 300.053 158.964 300.053 159.701V161.063C300.053 161.839 300.682 162.469 301.458 162.469H307.915C310.351 162.469 312.57 163.899 313.575 166.116C314.585 163.899 316.802 162.469 319.235 162.469H325.691C326.467 162.469 327.097 161.839 327.097 161.063V159.701C327.097 158.967 327.69 158.371 328.426 158.371C329.162 158.371 329.756 158.964 329.756 159.701V161.063C329.756 163.303 327.934 165.125 325.695 165.125Z" fill="#FFFAF6"/>
<path fill-rule="evenodd" clip-rule="evenodd" d="M304.395 168.953H304.003C303.248 168.953 302.635 169.566 302.635 170.322V171.638C302.635 172.394 303.248 173.007 304.003 173.007H304.395C305.151 173.007 305.764 172.394 305.764 171.638V170.322C305.764 169.566 305.151 168.953 304.395 168.953ZM323.132 168.954H322.74C321.985 168.954 321.372 169.567 321.372 170.322V171.638C321.372 172.394 321.985 173.007 322.74 173.007H323.132C323.888 173.007 324.501 172.394 324.501 171.638V170.322C324.501 169.567 323.888 168.954 323.132 168.954ZM318.534 180.99C318.596 180.774 318.792 180.628 319.015 180.628L319.01 180.632C319.355 180.632 319.603 180.973 319.486 181.295C319.015 182.574 317.79 183.489 316.348 183.489C315.186 183.489 314.162 182.896 313.563 181.994C312.964 182.893 311.939 183.489 310.778 183.489C309.373 183.489 308.169 182.619 307.677 181.387C307.531 181.027 307.792 180.632 308.18 180.632H308.225C308.446 180.632 308.634 180.771 308.715 180.975C309.076 181.866 309.997 182.473 311.039 182.356C312.175 182.227 313.006 181.214 313.006 180.071V179.179C313.006 178.874 312.875 178.583 312.642 178.384C311.733 177.597 309.431 175.599 309.431 175.599C308.673 174.938 309.14 173.693 310.146 173.693H316.989C317.994 173.693 318.462 174.938 317.703 175.599C317.703 175.599 315.402 177.6 314.492 178.384C314.26 178.583 314.128 178.874 314.128 179.179V180.145C314.128 181.927 316.236 183.226 318.092 181.681C318.313 181.497 318.458 181.256 318.534 180.99Z" fill="#2F1708"/>
<path fill-rule="evenodd" clip-rule="evenodd" d="M100.57 133.556C106.859 129.556 115.112 126.565 122.238 125.703C126.153 125.229 132.136 125.368 135.636 126.014C144.522 127.653 151.51 130.825 158.474 136.381C159.308 137.047 163.559 141.142 167.922 145.483L175.855 153.376L183.687 145.584C187.994 141.299 192.201 137.25 193.034 136.585C200.267 130.823 208.332 127.269 217.38 125.857C220.193 125.418 227.441 125.368 230.121 125.768C234.883 126.48 238.231 127.422 242.955 129.38C246.449 130.827 248.695 131.98 251.233 133.628C258.58 138.399 264.262 144.869 268.23 152.983C269.969 156.54 270.961 159.223 271.847 162.775C274.26 172.444 273.813 182.377 270.538 191.899C268.842 196.831 265.109 203.376 261.709 207.38C254.168 216.261 243.528 222.144 231.738 223.95C228.069 224.512 220.139 224.47 216.681 223.87C208.334 222.421 200.534 218.995 193.274 213.587C191.498 212.264 189.042 209.968 183.383 204.341L175.853 196.855L168.023 204.645C163.715 208.929 159.51 212.978 158.676 213.643C151.455 219.396 143.363 222.962 134.33 224.371C131.517 224.81 124.269 224.86 121.59 224.459C115.732 223.584 111.371 222.202 105.912 219.492C91.8477 212.51 81.7465 199.115 79.0757 183.903C77.8598 176.978 78.1304 169.72 79.8635 162.775C82.8607 150.764 90.5313 139.94 100.57 133.556ZM112.982 162.582C116.248 159.345 119.969 157.609 125.053 156.95C128.339 156.523 132.892 157.26 136.193 158.753C138.712 159.893 140.078 161.054 146.704 167.685L153.224 174.211L145.593 181.808C140.983 186.397 137.45 189.747 136.671 190.268C132.611 192.985 127.637 193.98 123.004 193.002C120.663 192.508 117.164 191.178 115.494 190.148C111.874 187.916 108.785 183.167 107.947 178.549C107.612 176.699 107.667 173.01 108.056 171.301C108.858 167.778 110.281 165.259 112.982 162.582ZM221.33 156.948C218.386 157.285 215.265 158.549 212.64 160.467C211.917 160.995 208.233 164.505 204.454 168.266L197.583 175.105L204.151 181.692C207.763 185.314 211.39 188.822 212.209 189.488C216.428 192.911 222.669 194.407 228.529 193.399C231.038 192.968 232.02 192.608 233.707 191.501C237.469 189.031 240.419 184.807 241.765 179.964C242.178 178.475 242.24 177.816 242.229 175.013C242.218 172.09 242.164 171.605 241.667 169.973C240.24 165.29 237.198 161.364 233.558 159.507C231.957 158.691 228.208 157.409 226.686 157.158C224.713 156.832 222.944 156.763 221.33 156.948Z" fill="#FDFCFC"/>
<path fill-rule="evenodd" clip-rule="evenodd" d="M122.238 125.703C115.112 126.565 106.859 129.556 100.57 133.556C90.5313 139.94 82.8607 150.764 79.8635 162.775C78.1304 169.72 77.8598 176.978 79.0757 183.903C81.7465 199.115 91.8477 212.51 105.912 219.492C111.371 222.202 115.732 223.584 121.59 224.459C124.269 224.86 131.517 224.81 134.33 224.371C143.363 222.962 151.455 219.396 158.676 213.643C159.51 212.978 163.715 208.929 168.023 204.645L175.853 196.855L183.383 204.341C189.042 209.968 191.498 212.264 193.274 213.587C200.534 218.995 208.334 222.421 216.681 223.87C220.139 224.47 228.069 224.512 231.738 223.95C243.528 222.144 254.168 216.261 261.709 207.38C265.109 203.376 268.842 196.831 270.538 191.899C273.813 182.377 274.26 172.444 271.847 162.775C270.961 159.223 269.969 156.54 268.23 152.983C264.262 144.869 258.58 138.399 251.233 133.628C248.695 131.98 246.449 130.827 242.955 129.38C238.231 127.422 234.883 126.48 230.121 125.768C227.441 125.368 220.193 125.418 217.38 125.857C208.332 127.269 200.267 130.823 193.034 136.585C192.201 137.25 187.994 141.299 183.687 145.584L175.855 153.376L167.922 145.483C163.559 141.142 159.308 137.047 158.474 136.381C151.51 130.825 144.522 127.653 135.636 126.014C132.136 125.368 126.153 125.229 122.238 125.703ZM123.307 131.277C118.247 131.846 112.138 133.786 106.574 136.591C100.234 139.786 94.242 145.538 90.1807 152.328C85.6035 159.979 83.447 169.168 84.1072 178.206C84.6849 186.118 86.8742 192.537 91.2987 199.293C95.6141 205.882 101.453 210.977 108.828 214.59C115.811 218.011 121.555 219.326 128.562 219.108C135.573 218.889 141.598 217.315 147.762 214.089C152.914 211.394 154.878 209.761 164.184 200.44L171.813 192.797L164.542 185.528L157.271 178.258L149.535 185.95C142.705 192.743 141.545 193.811 139.62 195.074C134.038 198.74 127.701 199.903 121.275 198.441C119.401 198.015 115.797 196.73 114.164 195.908C109.216 193.413 105.302 188.8 103.313 183.122C101.502 177.947 101.619 171.456 103.615 166.506C106.831 158.526 113.495 153.345 122.864 151.542C127.77 150.598 134.295 151.527 139.02 153.843C142.68 155.637 142.214 155.201 168.983 181.92C186.765 199.668 194.967 207.719 196.418 208.847C199.181 210.995 201.608 212.476 205.262 214.241C212.237 217.612 218.499 218.969 225.857 218.704C231.554 218.498 235.399 217.722 240.226 215.802C246.677 213.237 250.608 210.728 254.886 206.448C263.847 197.481 268.515 184.869 267.611 172.067C267.209 166.369 266.105 161.901 263.855 156.854C259.926 148.038 252.964 140.528 245.023 136.535C242.915 135.475 238.593 133.669 236.589 133.009C226.223 129.601 214.604 130.68 204.138 136.023C199.082 138.605 196.486 140.739 187.274 149.885L179.796 157.31L186.658 164.182L193.52 171.055L200.402 164.242C204.186 160.495 207.968 156.908 208.806 156.272C213.407 152.777 217.893 151.22 223.351 151.222C226.415 151.223 228.06 151.504 231.536 152.618C235.87 154.007 238.543 155.549 241.134 158.153C245.537 162.58 248.006 168.673 248.006 175.114C248.006 184.278 242.893 193.049 235.072 197.299C230.867 199.584 223.078 199.997 216.984 198.258C214.744 197.619 211.192 195.879 209.304 194.497C208.466 193.884 197.54 183.095 182.525 168.054C168.574 154.08 156.351 141.978 155.361 141.16C148.597 135.572 140.746 132.226 132.157 131.272C129.917 131.023 125.543 131.026 123.307 131.277ZM125.053 156.95C119.968 157.609 116.248 159.345 112.981 162.582C110.28 165.259 108.857 167.778 108.056 171.301C107.667 173.01 107.611 176.699 107.947 178.549C108.784 183.167 111.874 187.916 115.493 190.148C117.164 191.178 120.662 192.508 123.004 193.002C127.636 193.98 132.61 192.985 136.671 190.268C137.449 189.747 140.982 186.397 145.592 181.808L153.224 174.211L146.704 167.685C140.078 161.054 138.711 159.893 136.193 158.753C132.891 157.26 128.339 156.523 125.053 156.95ZM221.33 156.948C218.385 157.285 215.264 158.549 212.639 160.467C211.917 160.995 208.233 164.505 204.454 168.266L197.582 175.105L204.15 181.692C207.763 185.314 211.389 188.822 212.209 189.488C216.427 192.911 222.668 194.407 228.529 193.399C231.037 192.968 232.02 192.608 233.706 191.501C237.469 189.031 240.419 184.807 241.764 179.964C242.178 178.475 242.239 177.816 242.229 175.012C242.217 172.09 242.163 171.604 241.666 169.973C240.24 165.29 237.198 161.363 233.557 159.507C231.957 158.691 228.207 157.409 226.685 157.158C224.712 156.832 222.943 156.763 221.33 156.948Z" fill="url(#paint13_linear_9810_5533)"/>
</g>
<defs>
<filter id="filter0_f_9810_5533" x="-207.943" y="-43.5715" width="832.838" height="530.159" filterUnits="userSpaceOnUse" color-interpolation-filters="sRGB">
<feFlood flood-opacity="0" result="BackgroundImageFix"/>
<feBlend mode="normal" in="SourceGraphic" in2="BackgroundImageFix" result="shape"/>
<feGaussianBlur stdDeviation="23.7448" result="effect1_foregroundBlur_9810_5533"/>
</filter>
<radialGradient id="paint0_radial_9810_5533" cx="0" cy="0" r="1" gradientUnits="userSpaceOnUse" gradientTransform="translate(208.591 228.544) rotate(82.3783) scale(173.507 170.482)">
<stop stop-color="#FFA57C"/>
<stop offset="0.552909" stop-color="#FFA57C" stop-opacity="0.5"/>
<stop offset="1" stop-color="#FFA57C" stop-opacity="0"/>
</radialGradient>
<radialGradient id="paint1_radial_9810_5533" cx="0" cy="0" r="1" gradientUnits="userSpaceOnUse" gradientTransform="translate(51.9016 259.111) rotate(82.3783) scale(173.507 170.482)">
<stop stop-color="#FFA57C"/>
<stop offset="0.552909" stop-color="#FFA57C" stop-opacity="0.5"/>
<stop offset="1" stop-color="#FFA57C" stop-opacity="0"/>
</radialGradient>
<radialGradient id="paint2_radial_9810_5533" cx="0" cy="0" r="1" gradientUnits="userSpaceOnUse" gradientTransform="translate(280.259 267.119) rotate(82.3783) scale(173.507 170.482)">
<stop stop-color="#FFA57C"/>
<stop offset="0.552909" stop-color="#FFA57C" stop-opacity="0.5"/>
<stop offset="1" stop-color="#FFA57C" stop-opacity="0"/>
</radialGradient>
<radialGradient id="paint3_radial_9810_5533" cx="0" cy="0" r="1" gradientUnits="userSpaceOnUse" gradientTransform="translate(305.947 281.959) rotate(82.3783) scale(119.617 117.532)">
<stop stop-color="#974EF2"/>
<stop offset="0.277992" stop-color="#7A31C8" stop-opacity="0.85"/>
<stop offset="0.552909" stop-color="#7A31C8" stop-opacity="0.5"/>
<stop offset="1" stop-color="#7A31C8" stop-opacity="0"/>
</radialGradient>
<radialGradient id="paint4_radial_9810_5533" cx="0" cy="0" r="1" gradientUnits="userSpaceOnUse" gradientTransform="translate(141.539 323.266) rotate(80.3987) scale(117.474 144.398)">
<stop offset="0.42702" stop-color="#8D63F9" stop-opacity="0.85"/>
<stop offset="1" stop-color="#8D63F9" stop-opacity="0"/>
</radialGradient>
<radialGradient id="paint5_radial_9810_5533" cx="0" cy="0" r="1" gradientUnits="userSpaceOnUse" gradientTransform="translate(239.455 315.255) rotate(80.3987) scale(117.474 144.398)">
<stop offset="0.42702" stop-color="#8D63F9" stop-opacity="0.85"/>
<stop offset="1" stop-color="#8D63F9" stop-opacity="0"/>
</radialGradient>
<radialGradient id="paint6_radial_9810_5533" cx="0" cy="0" r="1" gradientUnits="userSpaceOnUse" gradientTransform="translate(278.566 298.161) rotate(80.3987) scale(117.474 144.398)">
<stop offset="0.42702" stop-color="#8D63F9" stop-opacity="0.85"/>
<stop offset="1" stop-color="#8D63F9" stop-opacity="0"/>
</radialGradient>
<radialGradient id="paint7_radial_9810_5533" cx="0" cy="0" r="1" gradientUnits="userSpaceOnUse" gradientTransform="translate(253.462 175.892) rotate(82.3783) scale(173.507 170.482)">
<stop stop-color="#FFA57C"/>
<stop offset="0.552909" stop-color="#FFA57C" stop-opacity="0.5"/>
<stop offset="1" stop-color="#FFA57C" stop-opacity="0"/>
</radialGradient>
<radialGradient id="paint8_radial_9810_5533" cx="0" cy="0" r="1" gradientUnits="userSpaceOnUse" gradientTransform="translate(253.462 267.119) rotate(82.3783) scale(173.507 170.482)">
<stop stop-color="#FFA57C"/>
<stop offset="0.552909" stop-color="#FFA57C" stop-opacity="0.5"/>
<stop offset="1" stop-color="#FFA57C" stop-opacity="0"/>
</radialGradient>
<radialGradient id="paint9_radial_9810_5533" cx="0" cy="0" r="1" gradientUnits="userSpaceOnUse" gradientTransform="translate(408.431 266.353) rotate(82.3783) scale(173.507 170.482)">
<stop stop-color="#FFA57C"/>
<stop offset="0.552909" stop-color="#FFA57C" stop-opacity="0.5"/>
<stop offset="1" stop-color="#FFA57C" stop-opacity="0"/>
</radialGradient>
<radialGradient id="paint10_radial_9810_5533" cx="0" cy="0" r="1" gradientUnits="userSpaceOnUse" gradientTransform="translate(383.325 259.111) rotate(82.3783) scale(173.507 170.482)">
<stop stop-color="#FFA57C"/>
<stop offset="0.552909" stop-color="#FFA57C" stop-opacity="0.5"/>
<stop offset="1" stop-color="#FFA57C" stop-opacity="0"/>
</radialGradient>
<radialGradient id="paint11_radial_9810_5533" cx="0" cy="0" r="1" gradientUnits="userSpaceOnUse" gradientTransform="translate(-2.85353 233.163) rotate(81.6442) scale(147.696 158.719)">
<stop offset="0.42702" stop-color="#8D63F9" stop-opacity="0.85"/>
<stop offset="1" stop-color="#8D63F9" stop-opacity="0"/>
</radialGradient>
<linearGradient id="paint12_linear_9810_5533" x1="313.569" y1="217.782" x2="313.569" y2="155.652" gradientUnits="userSpaceOnUse">
<stop stop-color="#AA52E5"/>
<stop offset="1" stop-color="#FF9469"/>
</linearGradient>
<linearGradient id="paint13_linear_9810_5533" x1="102.071" y1="175.077" x2="247.965" y2="175.077" gradientUnits="userSpaceOnUse">
<stop stop-color="#974EF2"/>
<stop offset="1" stop-color="#FF953F"/>
</linearGradient>
<clipPath id="clip0_9810_5533">
<rect width="374" height="305" rx="8" fill="white"/>
</clipPath>
</defs>
</svg>
