<svg width="25" height="25" viewBox="0 0 25 25" fill="none" xmlns="http://www.w3.org/2000/svg">
<path fill-rule="evenodd" clip-rule="evenodd" d="M7.25049 1.83257C6.10142 1.95375 5.27069 2.49249 4.85905 3.38341C4.63896 3.85979 4.54479 4.34755 4.54479 5.01125C4.54479 5.63589 4.63834 6.14721 4.83394 6.59164C5.12211 7.24644 5.66895 7.75425 6.34876 7.99836C6.99313 8.22975 7.86089 8.28412 8.60816 8.13989C9.35321 7.99611 9.9349 7.65556 10.3285 7.13264C10.7405 6.58541 10.942 5.89087 10.942 5.01829C10.942 3.12831 9.96837 1.99844 8.19572 1.8313C7.92484 1.80575 7.49925 1.80631 7.25049 1.83257ZM7.15106 9.45821C5.50797 9.59143 3.87636 10.3984 2.92526 11.5481C2.17858 12.4508 1.80476 13.5233 1.861 14.6014C1.87636 14.8958 1.96297 15.5838 2.01443 15.8203C2.13931 16.3942 2.55214 16.9089 3.085 17.1551C3.39605 17.2988 3.51615 17.3217 4.01774 17.3332L4.47074 17.3435L4.70472 18.8005C5.06187 21.0243 5.07936 21.1266 5.13837 21.3344C5.26113 21.7667 5.48703 22.1409 5.83511 22.4885C6.23503 22.8879 6.69488 23.1335 7.24799 23.2431C7.4695 23.2869 8.04165 23.2821 8.26448 23.2345C9.28932 23.0154 10.0949 22.2636 10.3582 21.2806C10.382 21.1917 10.5282 20.329 10.6831 19.3635C10.8379 18.398 10.9749 17.5486 10.9874 17.4759L11.0102 17.3437L11.4553 17.3334C11.8209 17.3249 11.9313 17.3148 12.0728 17.2766C12.6115 17.1314 13.0857 16.7418 13.321 16.2511C13.4379 16.0072 13.4707 15.8838 13.5361 15.4401C13.6216 14.8603 13.6435 14.4995 13.6148 14.1452C13.5225 13.0054 13.0449 12.0197 12.1767 11.1774C10.9114 9.94974 9.0293 9.30591 7.15106 9.45821Z" fill="#FA934E"/>
<path fill-rule="evenodd" clip-rule="evenodd" d="M21.7177 12.935C21.406 13.0208 21.2212 13.167 20.3855 13.9892C18.7486 15.5995 17.7381 17.0872 16.8262 19.2294C16.7417 19.4279 16.6664 19.5971 16.6588 19.6055C16.6512 19.6138 16.2873 19.2519 15.8503 18.8012C15.4132 18.3505 15.0053 17.9483 14.9438 17.9075C14.3646 17.5229 13.581 17.7363 13.2728 18.3625C13.1059 18.7016 13.107 19.0377 13.2761 19.382C13.373 19.5793 13.1715 19.3634 15.4904 21.7541C16.4438 22.737 16.5 22.7844 16.8081 22.8649C16.9963 22.9141 17.3289 22.8993 17.4989 22.8341C17.8165 22.7124 18.0787 22.4385 18.1973 22.1044C19.2298 19.1968 20.0212 17.7555 21.411 16.2516C21.6687 15.9728 22.1916 15.4532 22.6682 15.0023C22.9366 14.7485 23.0236 14.6244 23.0965 14.3916C23.1771 14.1341 23.1477 13.7769 23.0262 13.5377C22.8983 13.2858 22.6398 13.0586 22.3747 12.965C22.2035 12.9046 21.8817 12.8899 21.7177 12.935Z" fill="#974EF2"/>
<path d="M16.0498 1.81968C15.6161 1.87167 15.2828 1.96151 14.9822 2.10746C14.2748 2.45087 13.8518 3.03282 13.6749 3.90613C13.633 4.11287 13.6268 4.21047 13.627 4.66053C13.6271 5.06976 13.6351 5.21789 13.6656 5.37133C13.8084 6.09045 14.1053 6.60769 14.5795 6.96361C14.7789 7.11329 15.0717 7.26693 15.2959 7.3396C15.7232 7.4781 16.2902 7.53783 16.7858 7.49658C17.5752 7.43089 18.1183 7.20925 18.5619 6.77174C18.9305 6.40826 19.1536 5.95234 19.2627 5.33945C19.3209 5.01311 19.3253 4.38252 19.2718 4.03996C19.081 2.81661 18.3641 2.07981 17.1486 1.85765C16.9721 1.82538 16.2192 1.79936 16.0498 1.81968Z" fill="#FFB381"/>
<path d="M16.1575 8.82147C15.468 8.86003 14.6857 9.04516 14.162 9.29366C13.8867 9.42432 13.7583 9.63049 13.761 9.93756C13.7629 10.1476 13.8246 10.2952 14.0203 10.558C14.6669 11.4262 15.0516 12.284 15.2636 13.3301C15.2945 13.4829 15.3431 13.6489 15.3759 13.7138C15.4529 13.8665 15.6111 14.0233 15.7637 14.0982C15.8453 14.1383 15.9355 14.1595 16.0265 14.1597L17.3078 14.1628C17.4958 14.1633 17.6724 14.0749 17.789 13.9275C18.3209 13.2548 18.923 12.6211 19.6368 11.9698C19.8863 11.7422 20.0798 11.5686 20.2362 11.435C20.5248 11.1886 20.6403 10.7209 20.3796 10.4452C20.3481 10.412 20.316 10.379 20.2832 10.3462C19.4079 9.47136 18.1627 8.92555 16.823 8.82953C16.5255 8.8082 16.4179 8.80689 16.1575 8.82147Z" fill="#FFB381"/>
</svg>
