<svg width="24" height="25" viewBox="0 0 24 25" fill="none" xmlns="http://www.w3.org/2000/svg">
<path fill-rule="evenodd" clip-rule="evenodd" d="M12.7182 7.87506C12.3232 7.15298 11.2857 7.15298 10.8907 7.87506L10.1907 9.15423C9.78928 9.88827 9.18585 10.4918 8.4519 10.8934L7.17273 11.593C6.45023 11.988 6.45023 13.0255 7.17273 13.4205L8.4519 14.1205C9.18595 14.5219 9.78952 15.1253 10.1911 15.8592L10.8907 17.1384C11.2857 17.8605 12.3232 17.8605 12.7182 17.1384L13.4182 15.8592C13.8195 15.1252 14.423 14.5216 15.1569 14.1201L16.4361 13.4205C17.1582 13.0255 17.1582 11.988 16.4361 11.593L15.1569 10.893C14.4229 10.4916 13.8193 9.88817 13.4177 9.15423L12.7182 7.87506Z" fill="#974EF2"/>
<path fill-rule="evenodd" clip-rule="evenodd" d="M2.42971 12.5068C2.42971 12.7831 2.53946 13.0481 2.73481 13.2434C2.93016 13.4388 3.19511 13.5485 3.47138 13.5485C3.74765 13.5485 4.0126 13.4388 4.20795 13.2434C4.4033 13.0481 4.51305 12.7831 4.51305 12.5068C4.51305 10.4877 5.31763 8.66475 6.61721 7.34517C7.91596 6.026 9.70388 5.21517 11.6776 5.21517C13.416 5.21517 15.011 5.84434 16.2539 6.89642C16.0455 7.15267 15.8551 7.41184 15.6897 7.66725C15.605 7.79747 15.5519 7.94573 15.5348 8.10015C15.5176 8.25457 15.5369 8.41086 15.5911 8.55648C15.6452 8.70211 15.7328 8.83302 15.8466 8.93872C15.9605 9.04442 16.0976 9.12198 16.2468 9.16517C17.3985 9.50434 18.8635 9.67975 19.596 9.75267C19.7472 9.76817 19.9001 9.74964 20.0433 9.69845C20.1865 9.64726 20.3164 9.5647 20.4236 9.45681C20.5307 9.34893 20.6124 9.21844 20.6627 9.07491C20.7129 8.93137 20.7304 8.77842 20.7139 8.62725C20.6385 7.91642 20.4614 6.5235 20.1264 5.31309C19.9489 4.67142 19.1985 4.35559 18.6147 4.736C18.3024 4.94148 18.0029 5.16593 17.718 5.40809C16.0997 3.99142 13.988 3.13184 11.6776 3.13184C9.11888 3.13184 6.80388 4.18642 5.13263 5.8835C3.39526 7.64963 2.42409 10.0294 2.42971 12.5068ZM21.1797 12.5068C21.1797 12.2306 21.07 11.9656 20.8746 11.7703C20.6793 11.5749 20.4143 11.4652 20.138 11.4652C19.8618 11.4652 19.5968 11.5749 19.4015 11.7703C19.2061 11.9656 19.0964 12.2306 19.0964 12.5068C19.0964 14.526 18.2914 16.3489 16.9922 17.6685C15.6935 18.9877 13.9051 19.7985 11.9318 19.7985C10.1935 19.7985 8.59846 19.1693 7.35555 18.1173C7.56388 17.861 7.7543 17.6018 7.91971 17.3464C8.00446 17.2162 8.05753 17.0679 8.07466 16.9135C8.09179 16.7591 8.0725 16.6028 8.01834 16.4572C7.96418 16.3116 7.87666 16.1807 7.76279 16.075C7.64892 15.9693 7.51187 15.8917 7.36263 15.8485C6.21096 15.5093 4.74596 15.3335 4.01346 15.261C3.86218 15.2455 3.70936 15.264 3.56616 15.3152C3.42297 15.3664 3.29303 15.449 3.18586 15.5569C3.07869 15.6647 2.997 15.7952 2.94677 15.9388C2.89654 16.0823 2.87904 16.2352 2.89555 16.3864C2.97096 17.0973 3.14805 18.4902 3.48305 19.7006C3.66055 20.3423 4.41055 20.6581 4.99471 20.2777C5.30708 20.0722 5.60653 19.8478 5.89138 19.6056C7.50971 21.0223 9.62138 21.8818 11.9318 21.8818C14.4905 21.8818 16.8055 20.8273 18.4768 19.1302C20.2142 17.364 21.1853 14.9843 21.1797 12.5068Z" fill="#FA934E"/>
</svg>
