<svg width="25" height="25" viewBox="0 0 25 25" fill="none" xmlns="http://www.w3.org/2000/svg">
<path d="M21.0469 12.5425C21.0469 15.3542 20.9413 17.3266 20.8402 18.5693C20.7388 19.8184 19.775 20.7822 18.5258 20.8837C17.2832 20.9847 15.3107 21.0903 12.499 21.0903C9.68735 21.0903 7.71489 20.9847 6.47222 20.8837C5.22309 20.7822 4.25927 19.8184 4.15784 18.5693C4.05679 17.3266 3.95117 15.3542 3.95117 12.5425C3.95117 9.73081 4.05679 7.75834 4.15784 6.51568C4.25927 5.26655 5.22309 4.30273 6.47222 4.2013C7.71489 4.10024 9.68735 3.99463 12.499 3.99463C15.3107 3.99463 17.2832 4.10024 18.5258 4.2013C19.775 4.30273 20.7388 5.26655 20.8402 6.51568C20.9413 7.75834 21.0469 9.73081 21.0469 12.5425Z" fill="#FFCCA7"/>
<path fill-rule="evenodd" clip-rule="evenodd" d="M17.2196 9.65883C16.7679 9.67403 15.9739 9.69302 14.7784 9.69302C13.5828 9.69302 12.7888 9.67403 12.3371 9.65883C11.9823 9.64629 11.6457 9.41797 11.591 9.02743C11.5618 8.80729 11.5479 8.58541 11.5492 8.36336C11.5492 8.09173 11.567 7.87176 11.591 7.69928C11.6453 7.30874 11.9823 7.08004 12.3371 7.06826C12.7888 7.05269 13.5828 7.03369 14.7784 7.03369C15.9739 7.03369 16.7679 7.05269 17.2196 7.06788C17.5745 7.08042 17.9111 7.30874 17.9658 7.69928C17.9897 7.87176 18.0076 8.09173 18.0076 8.36336C18.0076 8.63499 17.9897 8.85495 17.9658 9.02743C17.9114 9.41797 17.5745 9.64705 17.2196 9.65883ZM14.9402 13.8378C14.4885 13.853 13.6945 13.872 12.4989 13.872C11.3034 13.872 10.5094 13.853 10.0577 13.8378C9.70284 13.8252 9.36624 13.5969 9.31154 13.2064C9.28241 12.9862 9.26844 12.7644 9.26975 12.5423C9.26975 12.2707 9.2876 12.0507 9.31154 11.8782C9.36586 11.4877 9.70284 11.259 10.0577 11.2472C10.5094 11.2316 11.3034 11.2126 12.4989 11.2126C13.6945 11.2126 14.4885 11.2316 14.9402 11.2468C15.295 11.2594 15.6316 11.4877 15.6863 11.8782C15.7103 12.0507 15.7281 12.2707 15.7281 12.5423C15.7281 12.8139 15.7103 13.0339 15.6863 13.2064C15.632 13.5969 15.295 13.826 14.9402 13.8378ZM12.6608 15.4258C12.2091 15.4106 11.4151 15.3916 10.2195 15.3916C9.02395 15.3916 8.22995 15.4106 7.77824 15.4258C7.42341 15.4383 7.08682 15.6666 7.03211 16.0572C7.00296 16.2773 6.989 16.4992 6.99032 16.7213C6.99032 16.9929 7.00818 17.2129 7.03211 17.3853C7.08644 17.7759 7.42341 18.0046 7.77824 18.0164C8.22995 18.0319 9.02395 18.0509 10.2195 18.0509C11.4151 18.0509 12.2091 18.0319 12.6608 18.0167C13.0156 18.0042 13.3522 17.7759 13.4069 17.3853C13.4308 17.2129 13.4487 16.9929 13.4487 16.7213C13.4487 16.4496 13.4308 16.2297 13.4069 16.0572C13.3526 15.6666 13.0156 15.4376 12.6608 15.4258Z" fill="#974EF2"/>
</svg>
