<svg width="399" height="299" viewBox="0 0 399 299" fill="none" xmlns="http://www.w3.org/2000/svg">
<path d="M6.44259 21.0151L2.23013 6.60673H4.76161L7.63329 17.0128L10.495 6.62674L13.0264 6.60673L15.8981 17.0128L18.7598 6.60673H21.2913L17.0888 21.0151H14.7074L11.7557 10.7692L8.82398 21.0151H6.44259ZM26.5046 21.3153C25.424 21.3153 24.4801 21.0718 23.673 20.5849C22.8658 20.0979 22.2388 19.4275 21.7919 18.5737C21.3516 17.7132 21.1315 16.726 21.1315 15.612C21.1315 14.478 21.3583 13.4841 21.8119 12.6302C22.2655 11.7764 22.8958 11.1094 23.703 10.6291C24.5101 10.1488 25.444 9.90865 26.5046 9.90865C27.5919 9.90865 28.5391 10.1521 29.3463 10.6391C30.1534 11.126 30.7804 11.7998 31.2274 12.6603C31.6743 13.5141 31.8978 14.498 31.8978 15.612C31.8978 16.7326 31.671 17.7232 31.2174 18.5837C30.7704 19.4375 30.1434 20.1079 29.3363 20.5949C28.5291 21.0752 27.5852 21.3153 26.5046 21.3153ZM26.5046 19.054C27.4652 19.054 28.1789 18.7338 28.6459 18.0934C29.1128 17.4531 29.3463 16.6259 29.3463 15.612C29.3463 14.5647 29.1095 13.7309 28.6359 13.1105C28.1623 12.4835 27.4518 12.17 26.5046 12.17C25.8576 12.17 25.3239 12.3167 24.9037 12.6102C24.4901 12.8971 24.1833 13.3006 23.9831 13.8209C23.783 14.3346 23.683 14.9316 23.683 15.612C23.683 16.6593 23.9198 17.4964 24.3934 18.1234C24.8737 18.7438 25.5774 19.054 26.5046 19.054ZM34.1023 21.0151V10.2088H36.2336V12.8404L35.9734 12.5002C36.1068 12.14 36.2836 11.8131 36.5037 11.5196C36.7305 11.2194 37.0007 10.9726 37.3142 10.7792C37.581 10.5991 37.8745 10.459 38.1947 10.3589C38.5216 10.2522 38.8551 10.1888 39.1953 10.1688C39.5355 10.1421 39.8657 10.1555 40.1859 10.2088V12.4601C39.8657 12.3668 39.4955 12.3367 39.0752 12.3701C38.6617 12.4034 38.2881 12.5202 37.9546 12.7203C37.6211 12.9004 37.3476 13.1305 37.1341 13.4107C36.9273 13.6909 36.7739 14.011 36.6738 14.3713C36.5738 14.7248 36.5237 15.1084 36.5237 15.5219V21.0151H34.1023ZM42.0753 21.0151L42.0953 6.60673H44.5367V15.4119L48.489 10.2088H51.5008L47.3083 15.612L51.861 21.0151H48.6691L44.5367 15.8121V21.0151H42.0753ZM56.8403 21.3153C55.5062 21.3153 54.4222 21.0151 53.5884 20.4148C52.7546 19.8144 52.2476 18.9706 52.0675 17.8833L54.5289 17.5031C54.6557 18.0367 54.9358 18.457 55.3694 18.7638C55.803 19.0707 56.35 19.2241 57.0104 19.2241C57.5907 19.2241 58.0377 19.1107 58.3512 18.8839C58.6714 18.6504 58.8315 18.3336 58.8315 17.9333C58.8315 17.6865 58.7714 17.4897 58.6513 17.343C58.5379 17.1896 58.2845 17.0428 57.8909 16.9027C57.4973 16.7627 56.8937 16.5859 56.0798 16.3724C55.1726 16.1323 54.4522 15.8755 53.9186 15.602C53.3849 15.3218 53.0014 14.9916 52.7679 14.6114C52.5344 14.2312 52.4177 13.7709 52.4177 13.2306C52.4177 12.5569 52.5945 11.9699 52.948 11.4696C53.3016 10.9693 53.7952 10.5857 54.4289 10.3189C55.0626 10.0454 55.8097 9.90865 56.6702 9.90865C57.5107 9.90865 58.2544 10.0387 58.9015 10.2989C59.5552 10.559 60.0822 10.9292 60.4824 11.4095C60.8826 11.8898 61.1295 12.4535 61.2228 13.1005L58.7614 13.5408C58.7014 13.0805 58.4913 12.717 58.131 12.4501C57.7775 12.1833 57.3039 12.0332 56.7102 11.9999C56.1432 11.9665 55.6863 12.0532 55.3394 12.26C54.9925 12.4601 54.8191 12.7436 54.8191 13.1105C54.8191 13.3173 54.8892 13.4941 55.0292 13.6408C55.1693 13.7876 55.4495 13.9343 55.8697 14.0811C56.2966 14.2278 56.9303 14.4079 57.7708 14.6214C58.6313 14.8415 59.3184 15.095 59.832 15.3818C60.3523 15.662 60.7259 15.9989 60.9527 16.3924C61.1862 16.786 61.3029 17.2629 61.3029 17.8233C61.3029 18.9106 60.906 19.7644 60.1122 20.3848C59.3251 21.0051 58.2344 21.3153 56.8403 21.3153ZM68.6875 21.3153C67.6336 21.3153 66.7497 21.0652 66.036 20.5649C65.3222 20.0646 64.7852 19.3842 64.425 18.5237C64.0648 17.6565 63.8847 16.6859 63.8847 15.612C63.8847 14.5247 64.0648 13.5508 64.425 12.6903C64.7852 11.8298 65.3122 11.1527 66.006 10.6591C66.7064 10.1588 67.5702 9.90865 68.5975 9.90865C69.6181 9.90865 70.5019 10.1588 71.249 10.6591C72.0028 11.1527 72.5865 11.8298 73 12.6903C73.4136 13.5441 73.6204 14.518 73.6204 15.612C73.6204 16.6926 73.4169 17.6632 73.01 18.5237C72.6031 19.3842 72.0295 20.0646 71.289 20.5649C70.5486 21.0652 69.6814 21.3153 68.6875 21.3153ZM63.4745 25.8179V10.2088H65.6057V17.7933H65.9059V25.8179H63.4745ZM68.3173 19.1541C68.9443 19.1541 69.4613 18.9973 69.8682 18.6838C70.2751 18.3703 70.5753 17.9467 70.7687 17.413C70.9689 16.8727 71.0689 16.2724 71.0689 15.612C71.0689 14.9583 70.9689 14.3646 70.7687 13.8309C70.5686 13.2906 70.2584 12.8637 69.8382 12.5502C69.4179 12.23 68.8843 12.0699 68.2373 12.0699C67.6236 12.0699 67.1233 12.22 66.7364 12.5202C66.3495 12.8137 66.0627 13.2273 65.8759 13.7609C65.6958 14.2879 65.6057 14.9049 65.6057 15.612C65.6057 16.3124 65.6958 16.9294 65.8759 17.4631C66.0627 17.9967 66.3528 18.4136 66.7464 18.7138C67.1466 19.0073 67.6703 19.1541 68.3173 19.1541ZM78.8477 21.3153C78.0672 21.3153 77.4068 21.1686 76.8665 20.8751C76.3262 20.5749 75.916 20.178 75.6358 19.6844C75.3623 19.1907 75.2256 18.6471 75.2256 18.0534C75.2256 17.5331 75.3123 17.0662 75.4857 16.6526C75.6591 16.2323 75.926 15.8721 76.2862 15.572C76.6464 15.2651 77.1133 15.015 77.687 14.8215C78.1206 14.6814 78.6275 14.5547 79.2079 14.4413C79.7949 14.3279 80.4286 14.2245 81.109 14.1311C81.7961 14.0311 82.5131 13.9243 83.2602 13.8109L82.3997 14.3012C82.4064 13.5541 82.2396 13.0038 81.8995 12.6503C81.5593 12.2967 80.9856 12.1199 80.1784 12.1199C79.6915 12.1199 79.2212 12.2333 78.7676 12.4601C78.314 12.6869 77.9972 13.0772 77.8171 13.6308L75.6158 12.9404C75.8826 12.0266 76.3896 11.2928 77.1367 10.7391C77.8904 10.1855 78.9044 9.90865 80.1784 9.90865C81.139 9.90865 81.9828 10.0654 82.7099 10.3789C83.4437 10.6924 83.9873 11.2061 84.3409 11.9198C84.5343 12.3 84.6511 12.6903 84.6911 13.0905C84.7311 13.4841 84.7511 13.9143 84.7511 14.3813V21.0151H82.6399V18.6738L82.9901 19.054C82.5031 19.8344 81.9328 20.4081 81.2791 20.775C80.632 21.1352 79.8216 21.3153 78.8477 21.3153ZM79.3279 19.3942C79.8749 19.3942 80.3419 19.2975 80.7288 19.104C81.1157 18.9106 81.4225 18.6738 81.6493 18.3936C81.8828 18.1134 82.0395 17.85 82.1196 17.6031C82.2463 17.2963 82.3164 16.9461 82.3297 16.5525C82.3497 16.1523 82.3597 15.8288 82.3597 15.582L83.1002 15.8021C82.3731 15.9155 81.7494 16.0156 81.2291 16.1023C80.7088 16.189 80.2618 16.2724 79.8883 16.3524C79.5147 16.4258 79.1845 16.5092 78.8977 16.6026C78.6175 16.7026 78.3807 16.8194 78.1873 16.9528C77.9938 17.0862 77.8437 17.2396 77.737 17.413C77.637 17.5865 77.5869 17.7899 77.5869 18.0234C77.5869 18.2902 77.6536 18.527 77.787 18.7338C77.9205 18.9339 78.1139 19.094 78.3674 19.2141C78.6275 19.3342 78.9477 19.3942 79.3279 19.3942ZM92.0488 21.3153C90.9348 21.3153 89.9843 21.0685 89.1971 20.5749C88.41 20.0746 87.8063 19.3942 87.3861 18.5337C86.9725 17.6732 86.7624 16.6993 86.7557 15.612C86.7624 14.5047 86.9792 13.5241 87.4061 12.6703C87.8397 11.8098 88.4534 11.136 89.2472 10.6491C90.041 10.1555 90.9849 9.90865 92.0788 9.90865C93.3062 9.90865 94.3435 10.2188 95.1906 10.8392C96.0445 11.4529 96.6015 12.2934 96.8616 13.3607L94.4602 14.011C94.2734 13.4307 93.9633 12.9804 93.5297 12.6603C93.0961 12.3334 92.6025 12.17 92.0488 12.17C91.4218 12.17 90.9048 12.3201 90.4979 12.6202C90.091 12.9137 89.7908 13.3206 89.5974 13.8409C89.4039 14.3613 89.3072 14.9516 89.3072 15.612C89.3072 16.6392 89.5373 17.4697 89.9976 18.1034C90.4579 18.7371 91.1416 19.054 92.0488 19.054C92.6892 19.054 93.1928 18.9072 93.5597 18.6137C93.9332 18.3202 94.2134 17.8966 94.4002 17.343L96.8616 17.8933C96.5281 18.994 95.9444 19.8411 95.1106 20.4348C94.2768 21.0218 93.2562 21.3153 92.0488 21.3153ZM103.486 21.3153C102.392 21.3153 101.432 21.0785 100.605 20.6049C99.7776 20.1313 99.1305 19.4742 98.6636 18.6337C98.2033 17.7933 97.9732 16.826 97.9732 15.7321C97.9732 14.5514 98.2 13.5274 98.6536 12.6603C99.1072 11.7864 99.7376 11.1094 100.545 10.6291C101.352 10.1488 102.286 9.90865 103.346 9.90865C104.467 9.90865 105.418 10.1721 106.198 10.6991C106.985 11.2194 107.569 11.9565 107.949 12.9104C108.329 13.8643 108.473 14.9883 108.379 16.2824H105.988V15.4019C105.981 14.2278 105.774 13.3707 105.368 12.8304C104.961 12.29 104.32 12.0199 103.446 12.0199C102.459 12.0199 101.725 12.3267 101.245 12.9404C100.765 13.5474 100.525 14.438 100.525 15.612C100.525 16.706 100.765 17.5531 101.245 18.1535C101.725 18.7538 102.426 19.054 103.346 19.054C103.94 19.054 104.45 18.9239 104.877 18.6638C105.311 18.3969 105.644 18.0134 105.878 17.5131L108.259 18.2335C107.846 19.2074 107.205 19.9645 106.338 20.5048C105.478 21.0452 104.527 21.3153 103.486 21.3153ZM99.7642 16.2824V14.4613H107.199V16.2824H99.7642ZM120.712 21.3153C119.271 21.3153 118.037 21.0018 117.009 20.3748C115.982 19.7411 115.192 18.8605 114.638 17.7332C114.091 16.6059 113.818 15.2985 113.818 13.8109C113.818 12.3234 114.091 11.016 114.638 9.88864C115.192 8.76132 115.982 7.88414 117.009 7.25711C118.037 6.6234 119.271 6.30655 120.712 6.30655C122.152 6.30655 123.387 6.6234 124.414 7.25711C125.448 7.88414 126.238 8.76132 126.785 9.88864C127.339 11.016 127.616 12.3234 127.616 13.8109C127.616 15.2985 127.339 16.6059 126.785 17.7332C126.238 18.8605 125.448 19.7411 124.414 20.3748C123.387 21.0018 122.152 21.3153 120.712 21.3153ZM120.712 19.044C121.679 19.0507 122.483 18.8372 123.123 18.4036C123.77 17.97 124.254 17.3597 124.574 16.5725C124.901 15.7854 125.064 14.8649 125.064 13.8109C125.064 12.757 124.901 11.8431 124.574 11.0693C124.254 10.2889 123.77 9.68185 123.123 9.24827C122.483 8.81468 121.679 8.59122 120.712 8.57788C119.744 8.57121 118.941 8.78466 118.3 9.21825C117.66 9.65184 117.176 10.2622 116.849 11.0493C116.529 11.8364 116.369 12.757 116.369 13.8109C116.369 14.8649 116.529 15.7821 116.849 16.5625C117.17 17.3363 117.65 17.94 118.29 18.3736C118.937 18.8072 119.744 19.0306 120.712 19.044ZM131.909 21.0151L128.607 10.1888L130.968 10.2088L133.079 17.1429L135.221 10.2088H137.252L139.383 17.1429L141.504 10.2088H143.866L140.564 21.0151H138.683L136.231 13.5808L133.79 21.0151H131.909ZM153.146 21.0151V15.8121C153.146 15.4719 153.122 15.095 153.076 14.6814C153.029 14.2679 152.919 13.871 152.745 13.4907C152.579 13.1039 152.325 12.787 151.985 12.5402C151.652 12.2934 151.198 12.17 150.624 12.17C150.317 12.17 150.014 12.22 149.714 12.3201C149.414 12.4201 149.14 12.5936 148.893 12.8404C148.653 13.0805 148.46 13.414 148.313 13.8409C148.166 14.2612 148.093 14.8015 148.093 15.4619L146.662 14.8515C146.662 13.931 146.839 13.0972 147.192 12.3501C147.552 11.603 148.079 11.0093 148.773 10.569C149.467 10.1221 150.321 9.89865 151.335 9.89865C152.135 9.89865 152.796 10.0321 153.316 10.2989C153.836 10.5657 154.25 10.9059 154.557 11.3195C154.863 11.7331 155.09 12.1733 155.237 12.6402C155.384 13.1072 155.477 13.5508 155.517 13.971C155.564 14.3846 155.587 14.7215 155.587 14.9816V21.0151H153.146ZM145.651 21.0151V10.2088H147.803V13.5608H148.093V21.0151H145.651ZM162.935 21.3153C161.841 21.3153 160.881 21.0785 160.054 20.6049C159.226 20.1313 158.579 19.4742 158.112 18.6337C157.652 17.7933 157.422 16.826 157.422 15.7321C157.422 14.5514 157.649 13.5274 158.102 12.6603C158.556 11.7864 159.186 11.1094 159.993 10.6291C160.801 10.1488 161.734 9.90865 162.795 9.90865C163.916 9.90865 164.866 10.1721 165.647 10.6991C166.434 11.2194 167.018 11.9565 167.398 12.9104C167.778 13.8643 167.921 14.9883 167.828 16.2824H165.437V15.4019C165.43 14.2278 165.223 13.3707 164.816 12.8304C164.409 12.29 163.769 12.0199 162.895 12.0199C161.908 12.0199 161.174 12.3267 160.694 12.9404C160.214 13.5474 159.973 14.438 159.973 15.612C159.973 16.706 160.214 17.5531 160.694 18.1535C161.174 18.7538 161.875 19.054 162.795 19.054C163.389 19.054 163.899 18.9239 164.326 18.6638C164.76 18.3969 165.093 18.0134 165.327 17.5131L167.708 18.2335C167.294 19.2074 166.654 19.9645 165.787 20.5048C164.926 21.0452 163.976 21.3153 162.935 21.3153ZM159.213 16.2824V14.4613H166.647V16.2824H159.213ZM170.061 21.0151V10.2088H172.192V12.8404L171.932 12.5002C172.065 12.14 172.242 11.8131 172.462 11.5196C172.689 11.2194 172.959 10.9726 173.272 10.7792C173.539 10.5991 173.833 10.459 174.153 10.3589C174.48 10.2522 174.813 10.1888 175.154 10.1688C175.494 10.1421 175.824 10.1555 176.144 10.2088V12.4601C175.824 12.3668 175.454 12.3367 175.033 12.3701C174.62 12.4034 174.246 12.5202 173.913 12.7203C173.579 12.9004 173.306 13.1305 173.092 13.4107C172.886 13.6909 172.732 14.011 172.632 14.3713C172.532 14.7248 172.482 15.1084 172.482 15.5219V21.0151H170.061Z" fill="#1B1B18"/>
<rect x="1.19792" y="36.2131" width="396.604" height="88.6042" rx="6.98173" fill="#FBFAFF"/>
<path d="M132.861 88.0151V74.6671H137.115C137.227 74.6671 137.446 74.6702 137.774 74.6764C138.107 74.6825 138.429 74.7042 138.738 74.7412C139.794 74.8772 140.687 75.2542 141.417 75.8721C142.152 76.4839 142.708 77.2656 143.085 78.2173C143.462 79.169 143.65 80.2102 143.65 81.3411C143.65 82.472 143.462 83.5133 143.085 84.4649C142.708 85.4166 142.152 86.2014 141.417 86.8194C140.687 87.4312 139.794 87.805 138.738 87.941C138.435 87.9781 138.117 87.9997 137.783 88.0059C137.449 88.012 137.227 88.0151 137.115 88.0151H132.861ZM135.132 85.911H137.115C137.301 85.911 137.536 85.9048 137.82 85.8924C138.11 85.8801 138.367 85.8523 138.589 85.809C139.22 85.6916 139.733 85.4104 140.128 84.9655C140.524 84.5205 140.814 83.9798 140.999 83.3433C141.191 82.7068 141.287 82.0394 141.287 81.3411C141.287 80.6181 141.191 79.9383 140.999 79.3018C140.808 78.6653 140.511 78.1308 140.11 77.6982C139.714 77.2656 139.207 76.9906 138.589 76.8732C138.367 76.8238 138.11 76.796 137.82 76.7898C137.536 76.7774 137.301 76.7713 137.115 76.7713H135.132V85.911ZM145.842 88.0151V78.0041H147.816V80.442L147.575 80.1268C147.699 79.7931 147.862 79.4903 148.066 79.2184C148.276 78.9403 148.527 78.7117 148.817 78.5325C149.064 78.3656 149.336 78.2358 149.633 78.1431C149.936 78.0443 150.245 77.9856 150.56 77.967C150.875 77.9423 151.181 77.9547 151.478 78.0041V80.0897C151.181 80.0032 150.838 79.9754 150.449 80.0063C150.065 80.0372 149.719 80.1454 149.41 80.3307C149.101 80.4976 148.848 80.7108 148.65 80.9703C148.459 81.2299 148.317 81.5265 148.224 81.8602C148.131 82.1877 148.085 82.5431 148.085 82.9262V88.0151H145.842ZM155.81 88.2932C155.087 88.2932 154.476 88.1573 153.975 87.8854C153.475 87.6073 153.094 87.2396 152.835 86.7823C152.582 86.325 152.455 85.8214 152.455 85.2714C152.455 84.7894 152.535 84.3568 152.696 83.9736C152.857 83.5843 153.104 83.2506 153.437 82.9725C153.771 82.6883 154.204 82.4565 154.735 82.2773C155.137 82.1476 155.606 82.0301 156.144 81.9251C156.688 81.82 157.275 81.7243 157.905 81.6377C158.542 81.545 159.206 81.4462 159.898 81.3411L159.101 81.7953C159.107 81.1032 158.953 80.5934 158.638 80.2659C158.322 79.9383 157.791 79.7746 157.043 79.7746C156.592 79.7746 156.156 79.8796 155.736 80.0897C155.316 80.2998 155.023 80.6614 154.856 81.1743L152.816 80.5347C153.064 79.6881 153.533 79.0083 154.225 78.4954C154.924 77.9825 155.863 77.726 157.043 77.726C157.933 77.726 158.715 77.8712 159.388 78.1617C160.068 78.4521 160.572 78.928 160.899 79.5892C161.079 79.9414 161.187 80.3029 161.224 80.6737C161.261 81.0383 161.279 81.4369 161.279 81.8695V88.0151H159.324V85.8461L159.648 86.1983C159.197 86.9213 158.669 87.4528 158.063 87.7927C157.463 88.1264 156.713 88.2932 155.81 88.2932ZM156.255 86.5135C156.762 86.5135 157.195 86.4239 157.553 86.2447C157.912 86.0655 158.196 85.8461 158.406 85.5865C158.622 85.327 158.767 85.0829 158.842 84.8542C158.959 84.57 159.024 84.2455 159.036 83.8809C159.055 83.5102 159.064 83.2105 159.064 82.9818L159.75 83.1857C159.076 83.2908 158.499 83.3835 158.017 83.4638C157.535 83.5442 157.121 83.6214 156.774 83.6956C156.428 83.7635 156.122 83.8408 155.857 83.9273C155.597 84.02 155.378 84.1281 155.199 84.2517C155.019 84.3753 154.88 84.5175 154.782 84.6781C154.689 84.8388 154.642 85.0273 154.642 85.2436C154.642 85.4907 154.704 85.7101 154.828 85.9017C154.951 86.0871 155.131 86.2354 155.365 86.3466C155.606 86.4579 155.903 86.5135 156.255 86.5135ZM167.901 92.7426C167.345 92.7426 166.81 92.6561 166.297 92.483C165.791 92.31 165.333 92.0597 164.926 91.7322C164.518 91.4109 164.184 91.0215 163.924 90.5642L165.982 89.5446C166.174 89.9092 166.443 90.178 166.789 90.351C167.141 90.5303 167.515 90.6199 167.91 90.6199C168.374 90.6199 168.788 90.5364 169.152 90.3696C169.517 90.2089 169.798 89.9679 169.996 89.6466C170.2 89.3314 170.296 88.9359 170.283 88.4601V85.6143H170.561V78.0041H172.517V88.4971C172.517 88.7505 172.505 88.9915 172.48 89.2202C172.462 89.455 172.428 89.6836 172.378 89.9061C172.23 90.555 171.946 91.0864 171.525 91.5005C171.105 91.9207 170.583 92.2327 169.959 92.4367C169.341 92.6406 168.655 92.7426 167.901 92.7426ZM167.706 88.2932C166.786 88.2932 165.982 88.0615 165.296 87.598C164.61 87.1345 164.079 86.5042 163.702 85.707C163.325 84.9099 163.136 84.0107 163.136 83.0096C163.136 81.9962 163.325 81.0939 163.702 80.3029C164.085 79.5058 164.626 78.8785 165.324 78.4212C166.022 77.9578 166.844 77.726 167.79 77.726C168.741 77.726 169.539 77.9578 170.181 78.4212C170.83 78.8785 171.321 79.5058 171.655 80.3029C171.989 81.1001 172.156 82.0023 172.156 83.0096C172.156 84.0045 171.989 84.9037 171.655 85.707C171.321 86.5042 170.824 87.1345 170.163 87.598C169.502 88.0615 168.683 88.2932 167.706 88.2932ZM168.049 86.291C168.649 86.291 169.131 86.1551 169.495 85.8832C169.866 85.6051 170.135 85.2188 170.302 84.7245C170.475 84.2301 170.561 83.6585 170.561 83.0096C170.561 82.3546 170.475 81.783 170.302 81.2948C170.135 80.8004 169.872 80.4173 169.514 80.1454C169.155 79.8673 168.692 79.7282 168.123 79.7282C167.524 79.7282 167.03 79.8765 166.64 80.1732C166.251 80.4636 165.964 80.8591 165.778 81.3597C165.593 81.854 165.5 82.404 165.5 83.0096C165.5 83.6214 165.59 84.1776 165.769 84.6781C165.954 85.1725 166.236 85.5649 166.613 85.8553C166.99 86.1458 167.468 86.291 168.049 86.291ZM178.828 88.0151V78.0041H180.802V80.442L180.561 80.1268C180.685 79.7931 180.849 79.4903 181.053 79.2184C181.263 78.9403 181.513 78.7117 181.803 78.5325C182.051 78.3656 182.323 78.2358 182.619 78.1431C182.922 78.0443 183.231 77.9856 183.546 77.967C183.861 77.9423 184.167 77.9547 184.464 78.0041V80.0897C184.167 80.0032 183.824 79.9754 183.435 80.0063C183.052 80.0372 182.706 80.1454 182.397 80.3307C182.088 80.4976 181.834 80.7108 181.637 80.9703C181.445 81.2299 181.303 81.5265 181.21 81.8602C181.118 82.1877 181.071 82.5431 181.071 82.9262V88.0151H178.828ZM190.473 88.2932C189.472 88.2932 188.598 88.0677 187.85 87.6165C187.102 87.1654 186.521 86.5444 186.107 85.7534C185.699 84.9562 185.495 84.0416 185.495 83.0096C185.495 81.9591 185.706 81.0383 186.126 80.2473C186.546 79.4563 187.13 78.8384 187.878 78.3934C188.625 77.9485 189.491 77.726 190.473 77.726C191.48 77.726 192.358 77.9516 193.106 78.4027C193.853 78.8538 194.434 79.4779 194.848 80.2751C195.262 81.0661 195.469 81.9776 195.469 83.0096C195.469 84.0478 195.259 84.9655 194.839 85.7627C194.425 86.5536 193.844 87.1747 193.096 87.6258C192.349 88.0708 191.474 88.2932 190.473 88.2932ZM190.473 86.1983C191.363 86.1983 192.024 85.9017 192.457 85.3084C192.889 84.7152 193.106 83.9489 193.106 83.0096C193.106 82.0394 192.886 81.267 192.448 80.6922C192.009 80.1114 191.351 79.8209 190.473 79.8209C189.874 79.8209 189.379 79.9569 188.99 80.2288C188.607 80.4945 188.323 80.8684 188.137 81.3504C187.952 81.8262 187.859 82.3793 187.859 83.0096C187.859 83.9798 188.079 84.7554 188.517 85.3363C188.962 85.911 189.614 86.1983 190.473 86.1983ZM197.697 88.0151V74.389H199.931V88.0151H197.697ZM207.259 88.2932C206.246 88.2932 205.356 88.0738 204.589 87.6351C203.823 87.1963 203.224 86.5876 202.791 85.809C202.365 85.0304 202.152 84.1343 202.152 83.1209C202.152 82.0271 202.362 81.0785 202.782 80.2751C203.202 79.4656 203.786 78.8384 204.534 78.3934C205.282 77.9485 206.147 77.726 207.129 77.726C208.167 77.726 209.048 77.9701 209.771 78.4583C210.5 78.9403 211.041 79.6232 211.393 80.5069C211.745 81.3906 211.878 82.4318 211.792 83.6307H209.576V82.815C209.57 81.7273 209.379 80.9333 209.002 80.4327C208.625 79.9322 208.032 79.6819 207.222 79.6819C206.307 79.6819 205.628 79.9661 205.183 80.5347C204.738 81.097 204.515 81.922 204.515 83.0096C204.515 84.0231 204.738 84.8079 205.183 85.3641C205.628 85.9202 206.276 86.1983 207.129 86.1983C207.679 86.1983 208.152 86.0778 208.548 85.8368C208.949 85.5896 209.258 85.2343 209.474 84.7708L211.681 85.4382C211.297 86.3405 210.704 87.0418 209.901 87.5424C209.104 88.0429 208.223 88.2932 207.259 88.2932ZM203.811 83.6307V81.9436H210.698V83.6307H203.811ZM217.725 88.2932C216.49 88.2932 215.485 88.0151 214.713 87.459C213.94 86.9028 213.471 86.1211 213.304 85.1138L215.584 84.7616C215.702 85.2559 215.961 85.6452 216.363 85.9295C216.765 86.2138 217.271 86.3559 217.883 86.3559C218.421 86.3559 218.835 86.2508 219.125 86.0407C219.422 85.8245 219.57 85.5309 219.57 85.1601C219.57 84.9315 219.514 84.7492 219.403 84.6132C219.298 84.4711 219.063 84.3352 218.699 84.2054C218.334 84.0756 217.775 83.9118 217.021 83.7141C216.181 83.4916 215.513 83.2537 215.019 83.0003C214.524 82.7408 214.169 82.4349 213.953 82.0827C213.736 81.7304 213.628 81.304 213.628 80.8035C213.628 80.1793 213.792 79.6355 214.12 79.1721C214.447 78.7086 214.904 78.3533 215.492 78.1061C216.079 77.8527 216.771 77.726 217.568 77.726C218.347 77.726 219.036 77.8465 219.635 78.0875C220.241 78.3285 220.729 78.6715 221.1 79.1164C221.47 79.5614 221.699 80.0836 221.785 80.683L219.505 81.0908C219.45 80.6644 219.255 80.3277 218.921 80.0805C218.594 79.8333 218.155 79.6942 217.605 79.6633C217.08 79.6324 216.656 79.7128 216.335 79.9043C216.014 80.0897 215.853 80.3524 215.853 80.6922C215.853 80.8838 215.918 81.0476 216.048 81.1835C216.177 81.3195 216.437 81.4554 216.826 81.5914C217.222 81.7273 217.809 81.8942 218.588 82.0919C219.385 82.2959 220.021 82.5307 220.497 82.7964C220.979 83.056 221.325 83.368 221.535 83.7326C221.752 84.0972 221.86 84.5391 221.86 85.0582C221.86 86.0655 221.492 86.8565 220.757 87.4312C220.027 88.0059 219.017 88.2932 217.725 88.2932ZM234.526 88.0151V83.195C234.526 82.8798 234.504 82.5307 234.461 82.1476C234.418 81.7644 234.316 81.3967 234.155 81.0445C234 80.6861 233.766 80.3925 233.45 80.1639C233.141 79.9352 232.721 79.8209 232.19 79.8209C231.905 79.8209 231.624 79.8673 231.346 79.96C231.068 80.0527 230.815 80.2133 230.586 80.442C230.364 80.6644 230.184 80.9734 230.049 81.3689C229.913 81.7582 229.845 82.2588 229.845 82.8706L228.519 82.3051C228.519 81.4523 228.683 80.6799 229.01 79.9878C229.344 79.2956 229.832 78.7457 230.475 78.3378C231.118 77.9238 231.909 77.7167 232.848 77.7167C233.589 77.7167 234.201 77.8403 234.683 78.0875C235.165 78.3347 235.548 78.6499 235.833 79.033C236.117 79.4162 236.327 79.824 236.463 80.2566C236.599 80.6892 236.685 81.1001 236.723 81.4894C236.766 81.8726 236.787 82.1846 236.787 82.4256V88.0151H234.526ZM227.583 88.0151V74.6671H229.576V81.6934H229.845V88.0151H227.583ZM243.758 88.2932C242.744 88.2932 241.854 88.0738 241.088 87.6351C240.322 87.1963 239.722 86.5876 239.29 85.809C238.863 85.0304 238.65 84.1343 238.65 83.1209C238.65 82.0271 238.86 81.0785 239.28 80.2751C239.701 79.4656 240.285 78.8384 241.032 78.3934C241.78 77.9485 242.645 77.726 243.628 77.726C244.666 77.726 245.547 77.9701 246.27 78.4583C246.999 78.9403 247.54 79.6232 247.892 80.5069C248.244 81.3906 248.377 82.4318 248.29 83.6307H246.075V82.815C246.069 81.7273 245.877 80.9333 245.5 80.4327C245.123 79.9322 244.53 79.6819 243.721 79.6819C242.806 79.6819 242.126 79.9661 241.681 80.5347C241.236 81.097 241.014 81.922 241.014 83.0096C241.014 84.0231 241.236 84.8079 241.681 85.3641C242.126 85.9202 242.775 86.1983 243.628 86.1983C244.178 86.1983 244.651 86.0778 245.046 85.8368C245.448 85.5896 245.757 85.2343 245.973 84.7708L248.179 85.4382C247.796 86.3405 247.203 87.0418 246.399 87.5424C245.602 88.0429 244.722 88.2932 243.758 88.2932ZM240.309 83.6307V81.9436H247.197V83.6307H240.309ZM250.359 88.0151V78.0041H252.333V80.442L252.092 80.1268C252.216 79.7931 252.379 79.4903 252.583 79.2184C252.793 78.9403 253.044 78.7117 253.334 78.5325C253.581 78.3656 253.853 78.2358 254.15 78.1431C254.453 78.0443 254.762 77.9856 255.077 77.967C255.392 77.9423 255.698 77.9547 255.994 78.0041V80.0897C255.698 80.0032 255.355 79.9754 254.966 80.0063C254.582 80.0372 254.236 80.1454 253.927 80.3307C253.618 80.4976 253.365 80.7108 253.167 80.9703C252.976 81.2299 252.834 81.5265 252.741 81.8602C252.648 82.1877 252.602 82.5431 252.602 82.9262V88.0151H250.359ZM262.134 88.2932C261.12 88.2932 260.23 88.0738 259.464 87.6351C258.698 87.1963 258.098 86.5876 257.666 85.809C257.239 85.0304 257.026 84.1343 257.026 83.1209C257.026 82.0271 257.236 81.0785 257.656 80.2751C258.077 79.4656 258.661 78.8384 259.408 78.3934C260.156 77.9485 261.021 77.726 262.004 77.726C263.042 77.726 263.923 77.9701 264.646 78.4583C265.375 78.9403 265.916 79.6232 266.268 80.5069C266.62 81.3906 266.753 82.4318 266.666 83.6307H264.451V82.815C264.445 81.7273 264.253 80.9333 263.876 80.4327C263.499 79.9322 262.906 79.6819 262.097 79.6819C261.182 79.6819 260.502 79.9661 260.057 80.5347C259.612 81.097 259.39 81.922 259.39 83.0096C259.39 84.0231 259.612 84.8079 260.057 85.3641C260.502 85.9202 261.151 86.1983 262.004 86.1983C262.554 86.1983 263.027 86.0778 263.422 85.8368C263.824 85.5896 264.133 85.2343 264.349 84.7708L266.555 85.4382C266.172 86.3405 265.579 87.0418 264.775 87.5424C263.978 88.0429 263.098 88.2932 262.134 88.2932ZM258.685 83.6307V81.9436H265.573V83.6307H258.685Z" fill="#C4B8F3"/>
<rect x="1.19792" y="36.2131" width="396.604" height="88.6042" rx="6.98173" stroke="#AA99EC" stroke-width="1.60416" stroke-dasharray="6.18 6.18"/>
<g filter="url(#filter0_d_11268_55447)">
<rect x="183.371" y="102.157" width="139.042" height="47.8923" rx="23.9461" fill="#FDFCFE"/>
<path d="M212.616 130.429C212.982 130.063 213.405 129.88 213.883 129.88C214.362 129.88 214.785 130.063 215.151 130.429C215.517 130.795 215.7 131.218 215.7 131.696C215.7 132.175 215.517 132.598 215.151 132.964C214.785 133.33 214.362 133.513 213.883 133.513C213.405 133.513 212.982 133.33 212.616 132.964C212.25 132.598 212.067 132.175 212.067 131.696C212.067 131.218 212.25 130.795 212.616 130.429ZM212.616 125.022C212.982 124.656 213.405 124.473 213.883 124.473C214.362 124.473 214.785 124.656 215.151 125.022C215.517 125.388 215.7 125.81 215.7 126.289C215.7 126.768 215.517 127.19 215.151 127.557C214.785 127.923 214.362 128.106 213.883 128.106C213.405 128.106 212.982 127.923 212.616 127.557C212.25 127.19 212.067 126.768 212.067 126.289C212.067 125.81 212.25 125.388 212.616 125.022ZM215.151 122.149C214.785 122.515 214.362 122.699 213.883 122.699C213.405 122.699 212.982 122.515 212.616 122.149C212.25 121.783 212.067 121.361 212.067 120.882C212.067 120.403 212.25 119.981 212.616 119.615C212.982 119.249 213.405 119.066 213.883 119.066C214.362 119.066 214.785 119.249 215.151 119.615C215.517 119.981 215.7 120.403 215.7 120.882C215.7 121.361 215.517 121.783 215.151 122.149ZM207.209 119.615C207.575 119.249 207.998 119.066 208.476 119.066C208.955 119.066 209.377 119.249 209.744 119.615C210.11 119.981 210.293 120.403 210.293 120.882C210.293 121.361 210.11 121.783 209.744 122.149C209.377 122.515 208.955 122.699 208.476 122.699C207.998 122.699 207.575 122.515 207.209 122.149C206.843 121.783 206.66 121.361 206.66 120.882C206.66 120.403 206.843 119.981 207.209 119.615ZM207.209 125.022C207.575 124.656 207.998 124.473 208.476 124.473C208.955 124.473 209.377 124.656 209.744 125.022C210.11 125.388 210.293 125.81 210.293 126.289C210.293 126.768 210.11 127.19 209.744 127.557C209.377 127.923 208.955 128.106 208.476 128.106C207.998 128.106 207.575 127.923 207.209 127.557C206.843 127.19 206.66 126.768 206.66 126.289C206.66 125.81 206.843 125.388 207.209 125.022ZM209.744 130.429C210.11 130.795 210.293 131.218 210.293 131.696C210.293 132.175 210.11 132.598 209.744 132.964C209.377 133.33 208.955 133.513 208.476 133.513C207.998 133.513 207.575 133.33 207.209 132.964C206.843 132.598 206.66 132.175 206.66 131.696C206.66 131.218 206.843 130.795 207.209 130.429C207.575 130.063 207.998 129.88 208.476 129.88C208.955 129.88 209.377 130.063 209.744 130.429Z" fill="#6E56CF"/>
<path d="M230.588 134.104L235.801 118.531H238.483L243.695 134.104H241.695L236.817 119.656H237.423L232.589 134.104H230.588ZM233.097 130.459V128.653H241.186V130.459H233.097ZM250.217 134.428C249.128 134.428 248.194 134.158 247.416 133.617C246.637 133.069 246.035 132.33 245.61 131.4C245.192 130.47 244.982 129.421 244.982 128.253C244.982 127.085 245.192 126.036 245.61 125.106C246.035 124.176 246.637 123.444 247.416 122.911C248.194 122.37 249.124 122.1 250.206 122.1C251.309 122.1 252.235 122.366 252.985 122.9C253.735 123.433 254.301 124.165 254.683 125.095C255.072 126.025 255.267 127.078 255.267 128.253C255.267 129.414 255.072 130.463 254.683 131.4C254.301 132.33 253.735 133.069 252.985 133.617C252.235 134.158 251.312 134.428 250.217 134.428ZM250.455 132.665C251.24 132.665 251.886 132.478 252.39 132.103C252.895 131.721 253.266 131.198 253.504 130.535C253.749 129.864 253.872 129.104 253.872 128.253C253.872 127.388 253.749 126.627 253.504 125.971C253.266 125.308 252.899 124.792 252.401 124.425C251.904 124.05 251.273 123.862 250.509 123.862C249.716 123.862 249.059 124.057 248.54 124.446C248.029 124.836 247.646 125.362 247.394 126.025C247.149 126.689 247.026 127.431 247.026 128.253C247.026 129.082 247.153 129.832 247.405 130.502C247.657 131.166 248.036 131.692 248.54 132.081C249.052 132.471 249.69 132.665 250.455 132.665ZM253.872 134.104V125.506H253.656V118.531H255.591V134.104H253.872ZM272.583 134.104L272.593 126.631C272.593 125.759 272.359 125.077 271.891 124.587C271.429 124.089 270.827 123.841 270.085 123.841C269.652 123.841 269.241 123.942 268.852 124.144C268.462 124.338 268.145 124.648 267.9 125.074C267.655 125.492 267.532 126.029 267.532 126.685L266.516 126.274C266.501 125.445 266.671 124.72 267.024 124.1C267.385 123.473 267.875 122.986 268.495 122.64C269.115 122.294 269.814 122.121 270.593 122.121C271.811 122.121 272.77 122.493 273.469 123.235C274.169 123.971 274.518 124.962 274.518 126.209L274.508 134.104H272.583ZM258.61 134.104V122.424H260.33V125.549H260.546V134.104H258.61ZM265.607 134.104L265.618 126.707C265.618 125.813 265.387 125.113 264.926 124.609C264.465 124.097 263.852 123.841 263.088 123.841C262.331 123.841 261.718 124.1 261.249 124.619C260.781 125.138 260.546 125.827 260.546 126.685L259.53 126.079C259.53 125.322 259.71 124.645 260.07 124.046C260.431 123.448 260.921 122.979 261.541 122.64C262.161 122.294 262.864 122.121 263.65 122.121C264.436 122.121 265.121 122.287 265.705 122.619C266.289 122.95 266.739 123.426 267.057 124.046C267.374 124.659 267.532 125.391 267.532 126.242L267.522 134.104H265.607ZM277.552 120.359V118.369H279.476V120.359H277.552ZM277.552 134.104V122.424H279.476V134.104H277.552ZM291.038 134.104V128.253C291.038 127.698 290.987 127.164 290.886 126.652C290.792 126.141 290.623 125.683 290.378 125.279C290.14 124.868 289.816 124.544 289.405 124.306C289.001 124.068 288.489 123.949 287.869 123.949C287.386 123.949 286.946 124.032 286.55 124.198C286.16 124.356 285.825 124.601 285.544 124.933C285.263 125.265 285.043 125.683 284.884 126.187C284.733 126.685 284.657 127.273 284.657 127.95L283.392 127.561C283.392 126.429 283.594 125.459 283.997 124.652C284.408 123.837 284.982 123.214 285.717 122.781C286.459 122.341 287.332 122.121 288.334 122.121C289.091 122.121 289.736 122.24 290.27 122.478C290.803 122.716 291.247 123.033 291.6 123.43C291.953 123.819 292.231 124.259 292.433 124.749C292.635 125.232 292.775 125.726 292.854 126.231C292.941 126.728 292.984 127.2 292.984 127.647V134.104H291.038ZM282.71 134.104V122.424H284.441V125.549H284.657V134.104H282.71Z" fill="#5746AF"/>
<rect x="183.871" y="102.657" width="138.042" height="46.8923" rx="23.4461" stroke="#E9E9E6"/>
</g>
<g clip-path="url(#clip0_11268_55447)">
<g filter="url(#filter1_d_11268_55447)">
<path d="M233.088 165.233C233.359 165.884 233.098 168.346 231.662 168.917C230.225 169.488 228.389 168.917 228.389 168.917L225.059 162.256L219.302 168.012V142.014L236.936 159.648H230.366C230.689 160.266 232.743 164.407 233.088 165.233Z" fill="white"/>
<path fill-rule="evenodd" clip-rule="evenodd" d="M220.847 145.744V164.283L225.482 159.648L229.344 167.372C229.344 167.372 230.389 167.706 230.889 167.372C231.389 167.039 231.887 166.368 231.662 165.827C230.599 163.278 227.799 158.103 227.799 158.103H233.206L220.847 145.744Z" fill="black"/>
</g>
</g>
<path d="M6.94784 195.996L2.40519 181.588H4.88664L8.68886 193.655L12.5411 181.588H15.0226L10.4799 195.996H6.94784ZM16.3352 183.549V181.337H18.7466V183.549H16.3352ZM16.3352 195.996V185.19H18.7466V195.996H16.3352ZM26.6567 196.296C25.5627 196.296 24.6022 196.059 23.775 195.586C22.9479 195.112 22.3008 194.455 21.8339 193.615C21.3736 192.774 21.1435 191.807 21.1435 190.713C21.1435 189.532 21.3703 188.508 21.8239 187.641C22.2775 186.767 22.9078 186.09 23.715 185.61C24.5221 185.13 25.456 184.889 26.5166 184.889C27.6373 184.889 28.5878 185.153 29.3683 185.68C30.1554 186.2 30.7391 186.937 31.1193 187.891C31.4995 188.845 31.6429 189.969 31.5495 191.263H29.1582V190.383C29.1515 189.209 28.9447 188.352 28.5378 187.811C28.1309 187.271 27.4905 187.001 26.6167 187.001C25.6294 187.001 24.8957 187.308 24.4154 187.921C23.9351 188.528 23.695 189.419 23.695 190.593C23.695 191.687 23.9351 192.534 24.4154 193.134C24.8957 193.735 25.5961 194.035 26.5166 194.035C27.1103 194.035 27.6206 193.905 28.0475 193.645C28.4811 193.378 28.8146 192.994 29.0481 192.494L31.4295 193.214C31.0159 194.188 30.3755 194.945 29.5084 195.486C28.6479 196.026 27.6973 196.296 26.6567 196.296ZM22.9345 191.263V189.442H30.3689V191.263H22.9345ZM35.6926 195.996L32.3907 185.17L34.752 185.19L36.8633 192.124L39.0045 185.19H41.0357L43.167 192.124L45.2882 185.19H47.6496L44.3476 195.996H42.4665L40.0151 188.562L37.5737 195.996H35.6926ZM53.9773 196.296C52.8834 196.296 51.9228 196.059 51.0956 195.586C50.2685 195.112 49.6214 194.455 49.1545 193.615C48.6942 192.774 48.4641 191.807 48.4641 190.713C48.4641 189.532 48.6909 188.508 49.1445 187.641C49.5981 186.767 50.2285 186.09 51.0356 185.61C51.8427 185.13 52.7766 184.889 53.8372 184.889C54.9579 184.889 55.9085 185.153 56.6889 185.68C57.476 186.2 58.0597 186.937 58.4399 187.891C58.8202 188.845 58.9636 189.969 58.8702 191.263H56.4788V190.383C56.4721 189.209 56.2653 188.352 55.8584 187.811C55.4515 187.271 54.8111 187.001 53.9373 187.001C52.9501 187.001 52.2163 187.308 51.736 187.921C51.2557 188.528 51.0156 189.419 51.0156 190.593C51.0156 191.687 51.2557 192.534 51.736 193.134C52.2163 193.735 52.9167 194.035 53.8372 194.035C54.4309 194.035 54.9412 193.905 55.3681 193.645C55.8017 193.378 56.1353 192.994 56.3687 192.494L58.7501 193.214C58.3365 194.188 57.6962 194.945 56.829 195.486C55.9685 196.026 55.0179 196.296 53.9773 196.296ZM50.2552 191.263V189.442H57.6895V191.263H50.2552ZM61.1027 195.996V185.19H63.234V187.821L62.9738 187.481C63.1072 187.121 63.284 186.794 63.5041 186.5C63.7309 186.2 64.0011 185.953 64.3146 185.76C64.5814 185.58 64.8749 185.44 65.1951 185.34C65.522 185.233 65.8555 185.17 66.1957 185.15C66.5359 185.123 66.8661 185.136 67.1863 185.19V187.441C66.8661 187.348 66.4959 187.318 66.0756 187.351C65.6621 187.384 65.2885 187.501 64.955 187.701C64.6215 187.881 64.348 188.111 64.1345 188.392C63.9277 188.672 63.7743 188.992 63.6742 189.352C63.5742 189.706 63.5241 190.089 63.5241 190.503V195.996H61.1027Z" fill="#1B1B18"/>
<g filter="url(#filter2_d_11268_55447)">
<rect x="16.3892" y="231.05" width="167.886" height="47.8923" rx="23.9461" fill="#FDFCFE"/>
<path d="M45.634 259.321C46.0001 258.955 46.4225 258.772 46.9013 258.772C47.3801 258.772 47.8025 258.955 48.1686 259.321C48.5347 259.688 48.7178 260.11 48.7178 260.589C48.7178 261.068 48.5347 261.49 48.1686 261.856C47.8025 262.222 47.3801 262.405 46.9013 262.405C46.4225 262.405 46.0001 262.222 45.634 261.856C45.2679 261.49 45.0848 261.068 45.0848 260.589C45.0848 260.11 45.2679 259.688 45.634 259.321ZM45.634 253.914C46.0001 253.548 46.4225 253.365 46.9013 253.365C47.3801 253.365 47.8025 253.548 48.1686 253.914C48.5347 254.28 48.7178 254.703 48.7178 255.182C48.7178 255.66 48.5347 256.083 48.1686 256.449C47.8025 256.815 47.3801 256.998 46.9013 256.998C46.4225 256.998 46.0001 256.815 45.634 256.449C45.2679 256.083 45.0848 255.66 45.0848 255.182C45.0848 254.703 45.2679 254.28 45.634 253.914ZM48.1686 251.042C47.8025 251.408 47.3801 251.591 46.9013 251.591C46.4225 251.591 46.0001 251.408 45.634 251.042C45.2679 250.676 45.0848 250.253 45.0848 249.774C45.0848 249.296 45.2679 248.873 45.634 248.507C46.0001 248.141 46.4225 247.958 46.9013 247.958C47.3801 247.958 47.8025 248.141 48.1686 248.507C48.5347 248.873 48.7178 249.296 48.7178 249.774C48.7178 250.253 48.5347 250.676 48.1686 251.042ZM40.2268 248.507C40.5929 248.141 41.0153 247.958 41.4941 247.958C41.9729 247.958 42.3953 248.141 42.7614 248.507C43.1275 248.873 43.3106 249.296 43.3106 249.774C43.3106 250.253 43.1275 250.676 42.7614 251.042C42.3953 251.408 41.9729 251.591 41.4941 251.591C41.0153 251.591 40.5929 251.408 40.2268 251.042C39.8607 250.676 39.6776 250.253 39.6776 249.774C39.6776 249.296 39.8607 248.873 40.2268 248.507ZM40.2268 253.914C40.5929 253.548 41.0153 253.365 41.4941 253.365C41.9729 253.365 42.3953 253.548 42.7614 253.914C43.1275 254.28 43.3106 254.703 43.3106 255.182C43.3106 255.66 43.1275 256.083 42.7614 256.449C42.3953 256.815 41.9729 256.998 41.4941 256.998C41.0153 256.998 40.5929 256.815 40.2268 256.449C39.8607 256.083 39.6776 255.66 39.6776 255.182C39.6776 254.703 39.8607 254.28 40.2268 253.914ZM42.7614 259.321C43.1275 259.688 43.3106 260.11 43.3106 260.589C43.3106 261.068 43.1275 261.49 42.7614 261.856C42.3953 262.222 41.9729 262.405 41.4941 262.405C41.0153 262.405 40.5929 262.222 40.2268 261.856C39.8607 261.49 39.6776 261.068 39.6776 260.589C39.6776 260.11 39.8607 259.688 40.2268 259.321C40.5929 258.955 41.0153 258.772 41.4941 258.772C41.9729 258.772 42.3953 258.955 42.7614 259.321Z" fill="#6E56CF"/>
<path d="M64.5301 262.996V247.423H66.282L72.165 259.827L78.0156 247.423H79.7892V262.985H77.9616V251.652L72.6733 262.996H71.646L66.3577 251.652V262.996H64.5301ZM86.1416 263.32C85.2693 263.32 84.5375 263.162 83.9463 262.845C83.3623 262.52 82.9189 262.095 82.6161 261.568C82.3205 261.042 82.1728 260.465 82.1728 259.838C82.1728 259.225 82.2881 258.695 82.5188 258.248C82.7567 257.794 83.0884 257.419 83.5137 257.124C83.9391 256.821 84.4474 256.583 85.0386 256.41C85.5937 256.259 86.2137 256.129 86.8986 256.021C87.5908 255.905 88.2901 255.801 88.9966 255.707C89.7032 255.613 90.3628 255.523 90.9757 255.437L90.2835 255.837C90.3052 254.799 90.0961 254.031 89.6563 253.533C89.2237 253.036 88.4739 252.787 87.4069 252.787C86.7004 252.787 86.0804 252.949 85.5468 253.274C85.0205 253.591 84.6492 254.11 84.433 254.831L82.6053 254.28C82.8865 253.256 83.4308 252.452 84.2383 251.868C85.0458 251.284 86.1092 250.992 87.4285 250.992C88.4884 250.992 89.3968 251.183 90.1538 251.565C90.918 251.94 91.4659 252.51 91.7976 253.274C91.9634 253.634 92.0679 254.027 92.1112 254.453C92.1544 254.871 92.1761 255.311 92.1761 255.772V262.996H90.4674V260.195L90.8675 260.455C90.4277 261.399 89.8113 262.113 89.0183 262.596C88.2324 263.079 87.2735 263.32 86.1416 263.32ZM86.4336 261.709C87.1257 261.709 87.7241 261.586 88.2288 261.341C88.7407 261.089 89.1516 260.761 89.4616 260.357C89.7717 259.946 89.9735 259.499 90.0673 259.016C90.1754 258.656 90.2331 258.256 90.2403 257.816C90.2547 257.369 90.2619 257.026 90.2619 256.789L90.9324 257.081C90.3052 257.167 89.6888 257.25 89.0831 257.329C88.4775 257.409 87.9044 257.495 87.3637 257.589C86.8229 257.675 86.3363 257.78 85.9037 257.902C85.5865 258.003 85.2873 258.133 85.0061 258.292C84.7322 258.45 84.5087 258.656 84.3356 258.908C84.1698 259.153 84.0869 259.46 84.0869 259.827C84.0869 260.145 84.1662 260.447 84.3248 260.736C84.4906 261.024 84.743 261.258 85.0818 261.439C85.4279 261.619 85.8785 261.709 86.4336 261.709ZM94.9878 262.996V251.316H96.7073V254.139L96.4261 253.771C96.5631 253.411 96.7397 253.079 96.956 252.776C97.1795 252.474 97.4283 252.225 97.7022 252.03C98.005 251.785 98.3475 251.598 98.7296 251.468C99.1117 251.338 99.501 251.262 99.8975 251.241C100.294 251.212 100.665 251.237 101.011 251.316V253.122C100.608 253.014 100.164 252.985 99.6812 253.036C99.1982 253.086 98.7512 253.263 98.3403 253.566C97.9654 253.833 97.6734 254.157 97.4643 254.539C97.2624 254.921 97.1218 255.336 97.0425 255.783C96.9632 256.223 96.9236 256.673 96.9236 257.135V262.996H94.9878ZM103.046 262.996L103.056 247.423H105.003V256.94L109.902 251.316H112.4L107.242 257.156L113.006 262.996H110.313L105.003 257.372V262.996H103.046ZM118.932 263.32C117.786 263.32 116.783 263.068 115.925 262.563C115.075 262.052 114.411 261.341 113.936 260.433C113.46 259.517 113.222 258.45 113.222 257.232C113.222 255.956 113.456 254.853 113.925 253.923C114.393 252.985 115.046 252.264 115.882 251.76C116.726 251.248 117.713 250.992 118.845 250.992C120.021 250.992 121.019 251.262 121.841 251.803C122.67 252.344 123.29 253.115 123.701 254.117C124.119 255.119 124.299 256.313 124.242 257.697H122.295V257.005C122.274 255.57 121.982 254.499 121.419 253.793C120.857 253.079 120.021 252.722 118.91 252.722C117.721 252.722 116.816 253.104 116.196 253.869C115.576 254.633 115.266 255.729 115.266 257.156C115.266 258.533 115.576 259.6 116.196 260.357C116.816 261.114 117.699 261.493 118.845 261.493C119.617 261.493 120.287 261.316 120.857 260.963C121.426 260.61 121.873 260.101 122.198 259.438L124.047 260.076C123.593 261.107 122.908 261.907 121.992 262.477C121.084 263.039 120.064 263.32 118.932 263.32ZM114.617 257.697V256.15H123.247V257.697H114.617ZM133.171 262.996C132.478 263.133 131.794 263.187 131.116 263.158C130.445 263.137 129.847 263.003 129.321 262.758C128.794 262.506 128.394 262.116 128.12 261.59C127.89 261.129 127.763 260.664 127.742 260.195C127.727 259.719 127.72 259.182 127.72 258.584V248.072H129.645V258.497C129.645 258.973 129.649 259.38 129.656 259.719C129.67 260.058 129.746 260.35 129.883 260.595C130.143 261.057 130.553 261.327 131.116 261.406C131.685 261.486 132.37 261.464 133.171 261.341V262.996ZM125.352 252.906V251.316H133.171V252.906H125.352ZM135.758 249.251V247.261H137.683V249.251H135.758ZM135.758 262.996V251.316H137.683V262.996H135.758ZM149.244 262.996V257.145C149.244 256.59 149.194 256.057 149.093 255.545C148.999 255.033 148.83 254.575 148.584 254.171C148.347 253.76 148.022 253.436 147.611 253.198C147.207 252.96 146.696 252.841 146.075 252.841C145.592 252.841 145.153 252.924 144.756 253.09C144.367 253.249 144.032 253.494 143.75 253.825C143.469 254.157 143.249 254.575 143.091 255.08C142.939 255.577 142.864 256.165 142.864 256.843L141.598 256.453C141.598 255.321 141.8 254.352 142.204 253.544C142.615 252.73 143.188 252.106 143.923 251.673C144.666 251.234 145.538 251.014 146.541 251.014C147.298 251.014 147.943 251.133 148.476 251.371C149.01 251.608 149.453 251.926 149.806 252.322C150.16 252.711 150.437 253.151 150.639 253.642C150.841 254.125 150.982 254.618 151.061 255.123C151.147 255.621 151.191 256.093 151.191 256.54V262.996H149.244ZM140.917 262.996V251.316H142.647V254.442H142.864V262.996H140.917ZM158.728 268.511C158.115 268.511 157.517 268.418 156.933 268.23C156.349 268.043 155.812 267.758 155.322 267.376C154.839 267.001 154.435 266.525 154.11 265.948L155.873 265.018C156.162 265.588 156.569 266.002 157.095 266.262C157.629 266.521 158.177 266.651 158.739 266.651C159.482 266.651 160.098 266.514 160.588 266.24C161.078 265.974 161.439 265.573 161.67 265.04C161.908 264.506 162.023 263.843 162.016 263.05V259.86H162.243V251.316H163.952V263.072C163.952 263.389 163.941 263.695 163.919 263.991C163.905 264.286 163.869 264.578 163.811 264.867C163.66 265.696 163.36 266.377 162.913 266.911C162.466 267.452 161.89 267.852 161.183 268.111C160.476 268.378 159.658 268.511 158.728 268.511ZM158.588 263.32C157.499 263.32 156.565 263.05 155.787 262.509C155.008 261.961 154.406 261.222 153.981 260.292C153.562 259.362 153.353 258.313 153.353 257.145C153.353 255.977 153.562 254.928 153.981 253.998C154.406 253.068 155.008 252.337 155.787 251.803C156.565 251.262 157.495 250.992 158.577 250.992C159.68 250.992 160.606 251.259 161.356 251.792C162.106 252.326 162.672 253.058 163.054 253.988C163.443 254.918 163.638 255.97 163.638 257.145C163.638 258.306 163.443 259.355 163.054 260.292C162.672 261.222 162.106 261.961 161.356 262.509C160.606 263.05 159.683 263.32 158.588 263.32ZM158.825 261.558C159.611 261.558 160.257 261.37 160.761 260.995C161.266 260.613 161.637 260.091 161.875 259.427C162.12 258.757 162.243 257.996 162.243 257.145C162.243 256.28 162.12 255.52 161.875 254.864C161.637 254.2 161.27 253.685 160.772 253.317C160.275 252.942 159.644 252.755 158.88 252.755C158.086 252.755 157.43 252.949 156.911 253.339C156.399 253.728 156.017 254.254 155.765 254.918C155.52 255.581 155.397 256.323 155.397 257.145C155.397 257.974 155.523 258.724 155.776 259.395C156.028 260.058 156.407 260.584 156.911 260.974C157.423 261.363 158.061 261.558 158.825 261.558Z" fill="#5746AF"/>
<rect x="16.8892" y="231.55" width="166.886" height="46.8923" rx="23.4461" stroke="#E9E9E6"/>
</g>
<g filter="url(#filter3_d_11268_55447)">
<rect x="199.725" y="231.05" width="182.886" height="47.8923" rx="23.9461" fill="#FDFCFE"/>
<path d="M228.969 259.321C229.336 258.955 229.758 258.772 230.237 258.772C230.716 258.772 231.138 258.955 231.504 259.321C231.87 259.688 232.053 260.11 232.053 260.589C232.053 261.068 231.87 261.49 231.504 261.856C231.138 262.222 230.716 262.405 230.237 262.405C229.758 262.405 229.336 262.222 228.969 261.856C228.603 261.49 228.42 261.068 228.42 260.589C228.42 260.11 228.603 259.688 228.969 259.321ZM228.969 253.914C229.336 253.548 229.758 253.365 230.237 253.365C230.716 253.365 231.138 253.548 231.504 253.914C231.87 254.28 232.053 254.703 232.053 255.182C232.053 255.66 231.87 256.083 231.504 256.449C231.138 256.815 230.716 256.998 230.237 256.998C229.758 256.998 229.336 256.815 228.969 256.449C228.603 256.083 228.42 255.66 228.42 255.182C228.42 254.703 228.603 254.28 228.969 253.914ZM231.504 251.042C231.138 251.408 230.716 251.591 230.237 251.591C229.758 251.591 229.336 251.408 228.969 251.042C228.603 250.676 228.42 250.253 228.42 249.774C228.42 249.296 228.603 248.873 228.969 248.507C229.336 248.141 229.758 247.958 230.237 247.958C230.716 247.958 231.138 248.141 231.504 248.507C231.87 248.873 232.053 249.296 232.053 249.774C232.053 250.253 231.87 250.676 231.504 251.042ZM223.562 248.507C223.928 248.141 224.351 247.958 224.83 247.958C225.308 247.958 225.731 248.141 226.097 248.507C226.463 248.873 226.646 249.296 226.646 249.774C226.646 250.253 226.463 250.676 226.097 251.042C225.731 251.408 225.308 251.591 224.83 251.591C224.351 251.591 223.928 251.408 223.562 251.042C223.196 250.676 223.013 250.253 223.013 249.774C223.013 249.296 223.196 248.873 223.562 248.507ZM223.562 253.914C223.928 253.548 224.351 253.365 224.83 253.365C225.308 253.365 225.731 253.548 226.097 253.914C226.463 254.28 226.646 254.703 226.646 255.182C226.646 255.66 226.463 256.083 226.097 256.449C225.731 256.815 225.308 256.998 224.83 256.998C224.351 256.998 223.928 256.815 223.562 256.449C223.196 256.083 223.013 255.66 223.013 255.182C223.013 254.703 223.196 254.28 223.562 253.914ZM226.097 259.321C226.463 259.688 226.646 260.11 226.646 260.589C226.646 261.068 226.463 261.49 226.097 261.856C225.731 262.222 225.308 262.405 224.83 262.405C224.351 262.405 223.928 262.222 223.562 261.856C223.196 261.49 223.013 261.068 223.013 260.589C223.013 260.11 223.196 259.688 223.562 259.321C223.928 258.955 224.351 258.772 224.83 258.772C225.308 258.772 225.731 258.955 226.097 259.321Z" fill="#6E56CF"/>
<path d="M246.987 262.996L252.199 247.423H254.881L260.094 262.996H258.093L253.216 248.548H253.821L248.987 262.996H246.987ZM249.495 259.352V257.546H257.585V259.352H249.495ZM266.95 263.32C265.768 263.32 264.762 263.057 263.933 262.531C263.111 261.997 262.484 261.266 262.051 260.336C261.619 259.406 261.395 258.346 261.381 257.156C261.395 255.938 261.622 254.867 262.062 253.944C262.509 253.014 263.147 252.29 263.976 251.771C264.805 251.252 265.804 250.992 266.972 250.992C268.205 250.992 269.264 251.295 270.151 251.9C271.045 252.506 271.643 253.335 271.946 254.388L270.043 254.961C269.798 254.283 269.398 253.757 268.843 253.382C268.295 253.007 267.664 252.82 266.95 252.82C266.15 252.82 265.49 253.007 264.971 253.382C264.452 253.75 264.066 254.262 263.814 254.918C263.562 255.566 263.432 256.313 263.425 257.156C263.439 258.454 263.738 259.503 264.322 260.303C264.913 261.096 265.789 261.493 266.95 261.493C267.714 261.493 268.349 261.32 268.853 260.974C269.358 260.62 269.74 260.112 270 259.449L271.946 259.957C271.543 261.046 270.912 261.878 270.054 262.455C269.196 263.032 268.161 263.32 266.95 263.32ZM278.757 263.32C277.575 263.32 276.569 263.057 275.74 262.531C274.918 261.997 274.291 261.266 273.858 260.336C273.426 259.406 273.202 258.346 273.188 257.156C273.202 255.938 273.429 254.867 273.869 253.944C274.316 253.014 274.954 252.29 275.783 251.771C276.612 251.252 277.611 250.992 278.779 250.992C280.012 250.992 281.071 251.295 281.958 251.9C282.852 252.506 283.451 253.335 283.753 254.388L281.85 254.961C281.605 254.283 281.205 253.757 280.65 253.382C280.102 253.007 279.471 252.82 278.757 252.82C277.957 252.82 277.297 253.007 276.778 253.382C276.259 253.75 275.873 254.262 275.621 254.918C275.369 255.566 275.239 256.313 275.232 257.156C275.246 258.454 275.545 259.503 276.129 260.303C276.72 261.096 277.596 261.493 278.757 261.493C279.521 261.493 280.156 261.32 280.66 260.974C281.165 260.62 281.547 260.112 281.807 259.449L283.753 259.957C283.35 261.046 282.719 261.878 281.861 262.455C281.003 263.032 279.968 263.32 278.757 263.32ZM290.618 263.32C289.458 263.32 288.455 263.057 287.612 262.531C286.776 262.005 286.13 261.276 285.676 260.346C285.222 259.416 284.995 258.349 284.995 257.145C284.995 255.92 285.226 254.846 285.687 253.923C286.148 253 286.801 252.283 287.644 251.771C288.488 251.252 289.479 250.992 290.618 250.992C291.786 250.992 292.792 251.255 293.636 251.781C294.479 252.301 295.124 253.025 295.571 253.955C296.026 254.878 296.253 255.941 296.253 257.145C296.253 258.364 296.026 259.438 295.571 260.368C295.117 261.291 294.468 262.015 293.625 262.542C292.781 263.061 291.779 263.32 290.618 263.32ZM290.618 261.493C291.83 261.493 292.731 261.089 293.322 260.282C293.913 259.474 294.209 258.429 294.209 257.145C294.209 255.826 293.91 254.777 293.311 253.998C292.713 253.213 291.815 252.82 290.618 252.82C289.804 252.82 289.133 253.003 288.607 253.371C288.081 253.739 287.688 254.247 287.428 254.896C287.169 255.545 287.039 256.295 287.039 257.145C287.039 258.458 287.342 259.51 287.947 260.303C288.553 261.096 289.443 261.493 290.618 261.493ZM303.068 263.299C302.318 263.299 301.673 263.18 301.132 262.942C300.598 262.704 300.155 262.387 299.802 261.99C299.448 261.594 299.171 261.154 298.969 260.671C298.767 260.188 298.623 259.694 298.536 259.189C298.457 258.685 298.417 258.212 298.417 257.773V251.316H300.364V257.167C300.364 257.715 300.414 258.245 300.515 258.757C300.616 259.269 300.786 259.73 301.024 260.141C301.269 260.552 301.593 260.876 301.997 261.114C302.408 261.352 302.92 261.471 303.533 261.471C304.016 261.471 304.455 261.388 304.852 261.222C305.248 261.057 305.587 260.811 305.868 260.487C306.15 260.155 306.366 259.737 306.517 259.233C306.669 258.728 306.744 258.14 306.744 257.47L308.01 257.859C308.01 258.984 307.804 259.954 307.393 260.768C306.99 261.583 306.416 262.21 305.674 262.65C304.938 263.082 304.07 263.299 303.068 263.299ZM306.961 262.996V259.871H306.744V251.316H308.68V262.996H306.961ZM320.024 262.996V257.145C320.024 256.59 319.974 256.057 319.873 255.545C319.779 255.033 319.61 254.575 319.365 254.171C319.127 253.76 318.802 253.436 318.391 253.198C317.988 252.96 317.476 252.841 316.856 252.841C316.373 252.841 315.933 252.924 315.536 253.09C315.147 253.249 314.812 253.494 314.531 253.825C314.249 254.157 314.03 254.575 313.871 255.08C313.72 255.577 313.644 256.165 313.644 256.843L312.379 256.453C312.379 255.321 312.58 254.352 312.984 253.544C313.395 252.73 313.968 252.106 314.704 251.673C315.446 251.234 316.319 251.014 317.321 251.014C318.078 251.014 318.723 251.133 319.257 251.371C319.79 251.608 320.233 251.926 320.587 252.322C320.94 252.711 321.218 253.151 321.419 253.642C321.621 254.125 321.762 254.618 321.841 255.123C321.928 255.621 321.971 256.093 321.971 256.54V262.996H320.024ZM311.697 262.996V251.316H313.428V254.442H313.644V262.996H311.697ZM331.304 262.996C330.611 263.133 329.927 263.187 329.249 263.158C328.578 263.137 327.98 263.003 327.454 262.758C326.927 262.506 326.527 262.116 326.253 261.59C326.023 261.129 325.896 260.664 325.875 260.195C325.86 259.719 325.853 259.182 325.853 258.584V248.072H327.778V258.497C327.778 258.973 327.782 259.38 327.789 259.719C327.803 260.058 327.879 260.35 328.016 260.595C328.276 261.057 328.687 261.327 329.249 261.406C329.818 261.486 330.503 261.464 331.304 261.341V262.996ZM323.485 252.906V251.316H331.304V252.906H323.485ZM333.891 249.251V247.261H335.816V249.251H333.891ZM333.891 262.996V251.316H335.816V262.996H333.891ZM347.377 262.996V257.145C347.377 256.59 347.327 256.057 347.226 255.545C347.132 255.033 346.963 254.575 346.717 254.171C346.48 253.76 346.155 253.436 345.744 253.198C345.34 252.96 344.829 252.841 344.209 252.841C343.725 252.841 343.286 252.924 342.889 253.09C342.5 253.249 342.165 253.494 341.883 253.825C341.602 254.157 341.382 254.575 341.224 255.08C341.072 255.577 340.997 256.165 340.997 256.843L339.731 256.453C339.731 255.321 339.933 254.352 340.337 253.544C340.748 252.73 341.321 252.106 342.056 251.673C342.799 251.234 343.671 251.014 344.674 251.014C345.431 251.014 346.076 251.133 346.609 251.371C347.143 251.608 347.586 251.926 347.94 252.322C348.293 252.711 348.57 253.151 348.772 253.642C348.974 254.125 349.115 254.618 349.194 255.123C349.28 255.621 349.324 256.093 349.324 256.54V262.996H347.377ZM339.05 262.996V251.316H340.78V254.442H340.997V262.996H339.05ZM356.861 268.511C356.248 268.511 355.65 268.418 355.066 268.23C354.482 268.043 353.945 267.758 353.455 267.376C352.972 267.001 352.568 266.525 352.243 265.948L354.006 265.018C354.295 265.588 354.702 266.002 355.228 266.262C355.762 266.521 356.31 266.651 356.872 266.651C357.615 266.651 358.231 266.514 358.721 266.24C359.212 265.974 359.572 265.573 359.803 265.04C360.041 264.506 360.156 263.843 360.149 263.05V259.86H360.376V251.316H362.085V263.072C362.085 263.389 362.074 263.695 362.052 263.991C362.038 264.286 362.002 264.578 361.944 264.867C361.793 265.696 361.493 266.377 361.046 266.911C360.599 267.452 360.023 267.852 359.316 268.111C358.61 268.378 357.791 268.511 356.861 268.511ZM356.721 263.32C355.632 263.32 354.698 263.05 353.92 262.509C353.141 261.961 352.539 261.222 352.114 260.292C351.696 259.362 351.486 258.313 351.486 257.145C351.486 255.977 351.696 254.928 352.114 253.998C352.539 253.068 353.141 252.337 353.92 251.803C354.698 251.262 355.628 250.992 356.71 250.992C357.813 250.992 358.739 251.259 359.489 251.792C360.239 252.326 360.805 253.058 361.187 253.988C361.576 254.918 361.771 255.97 361.771 257.145C361.771 258.306 361.576 259.355 361.187 260.292C360.805 261.222 360.239 261.961 359.489 262.509C358.739 263.05 357.816 263.32 356.721 263.32ZM356.959 261.558C357.744 261.558 358.39 261.37 358.894 260.995C359.399 260.613 359.77 260.091 360.008 259.427C360.253 258.757 360.376 257.996 360.376 257.145C360.376 256.28 360.253 255.52 360.008 254.864C359.77 254.2 359.403 253.685 358.905 253.317C358.408 252.942 357.777 252.755 357.013 252.755C356.22 252.755 355.563 252.949 355.044 253.339C354.533 253.728 354.15 254.254 353.898 254.918C353.653 255.581 353.53 256.323 353.53 257.145C353.53 257.974 353.657 258.724 353.909 259.395C354.161 260.058 354.54 260.584 355.044 260.974C355.556 261.363 356.194 261.558 356.959 261.558Z" fill="#5746AF"/>
<rect x="200.225" y="231.55" width="181.886" height="46.8923" rx="23.4461" stroke="#E9E9E6"/>
</g>
<rect x="1.5" y="211.496" width="396" height="87" rx="6.67965" stroke="#DBDBD7"/>
<defs>
<filter id="filter0_d_11268_55447" x="164.832" y="83.6185" width="176.12" height="84.9702" filterUnits="userSpaceOnUse" color-interpolation-filters="sRGB">
<feFlood flood-opacity="0" result="BackgroundImageFix"/>
<feColorMatrix in="SourceAlpha" type="matrix" values="0 0 0 0 0 0 0 0 0 0 0 0 0 0 0 0 0 0 127 0" result="hardAlpha"/>
<feMorphology radius="3.08983" operator="dilate" in="SourceAlpha" result="effect1_dropShadow_11268_55447"/>
<feOffset/>
<feGaussianBlur stdDeviation="7.72456"/>
<feComposite in2="hardAlpha" operator="out"/>
<feColorMatrix type="matrix" values="0 0 0 0 0 0 0 0 0 0 0 0 0 0 0 0 0 0 0.1 0"/>
<feBlend mode="normal" in2="BackgroundImageFix" result="effect1_dropShadow_11268_55447"/>
<feBlend mode="normal" in="SourceGraphic" in2="effect1_dropShadow_11268_55447" result="shape"/>
</filter>
<filter id="filter1_d_11268_55447" x="216.521" y="140.778" width="23.1957" height="32.7189" filterUnits="userSpaceOnUse" color-interpolation-filters="sRGB">
<feFlood flood-opacity="0" result="BackgroundImageFix"/>
<feColorMatrix in="SourceAlpha" type="matrix" values="0 0 0 0 0 0 0 0 0 0 0 0 0 0 0 0 0 0 127 0" result="hardAlpha"/>
<feOffset dy="1.54491"/>
<feGaussianBlur stdDeviation="1.39042"/>
<feColorMatrix type="matrix" values="0 0 0 0 0 0 0 0 0 0 0 0 0 0 0 0 0 0 0.65 0"/>
<feBlend mode="normal" in2="BackgroundImageFix" result="effect1_dropShadow_11268_55447"/>
<feBlend mode="normal" in="SourceGraphic" in2="effect1_dropShadow_11268_55447" result="shape"/>
</filter>
<filter id="filter2_d_11268_55447" x="8.38916" y="223.05" width="183.886" height="63.8923" filterUnits="userSpaceOnUse" color-interpolation-filters="sRGB">
<feFlood flood-opacity="0" result="BackgroundImageFix"/>
<feColorMatrix in="SourceAlpha" type="matrix" values="0 0 0 0 0 0 0 0 0 0 0 0 0 0 0 0 0 0 127 0" result="hardAlpha"/>
<feMorphology radius="1" operator="dilate" in="SourceAlpha" result="effect1_dropShadow_11268_55447"/>
<feOffset/>
<feGaussianBlur stdDeviation="3.5"/>
<feComposite in2="hardAlpha" operator="out"/>
<feColorMatrix type="matrix" values="0 0 0 0 0 0 0 0 0 0 0 0 0 0 0 0 0 0 0.05 0"/>
<feBlend mode="normal" in2="BackgroundImageFix" result="effect1_dropShadow_11268_55447"/>
<feBlend mode="normal" in="SourceGraphic" in2="effect1_dropShadow_11268_55447" result="shape"/>
</filter>
<filter id="filter3_d_11268_55447" x="191.725" y="223.05" width="198.886" height="63.8923" filterUnits="userSpaceOnUse" color-interpolation-filters="sRGB">
<feFlood flood-opacity="0" result="BackgroundImageFix"/>
<feColorMatrix in="SourceAlpha" type="matrix" values="0 0 0 0 0 0 0 0 0 0 0 0 0 0 0 0 0 0 127 0" result="hardAlpha"/>
<feMorphology radius="1" operator="dilate" in="SourceAlpha" result="effect1_dropShadow_11268_55447"/>
<feOffset/>
<feGaussianBlur stdDeviation="3.5"/>
<feComposite in2="hardAlpha" operator="out"/>
<feColorMatrix type="matrix" values="0 0 0 0 0 0 0 0 0 0 0 0 0 0 0 0 0 0 0.05 0"/>
<feBlend mode="normal" in2="BackgroundImageFix" result="effect1_dropShadow_11268_55447"/>
<feBlend mode="normal" in="SourceGraphic" in2="effect1_dropShadow_11268_55447" result="shape"/>
</filter>
<clipPath id="clip0_11268_55447">
<rect width="37.0779" height="37.0779" fill="white" transform="translate(208.027 136.918)"/>
</clipPath>
</defs>
</svg>
